<?xml version="1.0" standalone="no"?>
<!DOCTYPE svg PUBLIC "-//W3C//DTD SVG 1.1//EN" "http://www.w3.org/Graphics/SVG/1.1/DTD/svg11.dtd">
<svg version="1.1" width="1200" height="406" onload="init(evt)" viewBox="0 0 1200 406" xmlns="http://www.w3.org/2000/svg" xmlns:xlink="http://www.w3.org/1999/xlink">
<style type="text/css">
	text { font-family:Verdana; font-size:12px; fill:rgb(0,0,0); }
	#search { opacity:0.1; cursor:pointer; }
	#search:hover, #search.show { opacity:1; }
	#subtitle { text-anchor:middle; font-color:rgb(160,160,160); }
	#title { text-anchor:middle; font-size:17px}
	#unzoom { cursor:pointer; }
	#frames > *:hover { stroke:black; stroke-width:0.5; cursor:pointer; }
	.hide { display:none; }
	.parent { opacity:0.5; }
</style>
<script type="text/ecmascript">
<![CDATA[
	"use strict";
	var details, searchbtn, unzoombtn, matchedtxt, svg, searching;
	function init(evt) {
		details = document.getElementById("details").firstChild;
		searchbtn = document.getElementById("search");
		unzoombtn = document.getElementById("unzoom");
		matchedtxt = document.getElementById("matched");
		svg = document.getElementsByTagName("svg")[0];
		searching = 0;
	}

	window.addEventListener("click", function(e) {
		var target = find_group(e.target);
		if (target) {
			if (target.nodeName == "a") {
				if (e.ctrlKey === false) return;
				e.preventDefault();
			}
			if (target.classList.contains("parent")) unzoom();
			zoom(target);
		}
		else if (e.target.id == "unzoom") unzoom();
		else if (e.target.id == "search") search_prompt();
	}, false)

	// mouse-over for info
	// show
	window.addEventListener("mouseover", function(e) {
		var target = find_group(e.target);
		if (target) details.nodeValue = "Function: " + g_to_text(target);
	}, false)

	// clear
	window.addEventListener("mouseout", function(e) {
		var target = find_group(e.target);
		if (target) details.nodeValue = ' ';
	}, false)

	// ctrl-F for search
	window.addEventListener("keydown",function (e) {
		if (e.keyCode === 114 || (e.ctrlKey && e.keyCode === 70)) {
			e.preventDefault();
			search_prompt();
		}
	}, false)

	// functions
	function find_child(node, selector) {
		var children = node.querySelectorAll(selector);
		if (children.length) return children[0];
		return;
	}
	function find_group(node) {
		var parent = node.parentElement;
		if (!parent) return;
		if (parent.id == "frames") return node;
		return find_group(parent);
	}
	function orig_save(e, attr, val) {
		if (e.attributes["_orig_" + attr] != undefined) return;
		if (e.attributes[attr] == undefined) return;
		if (val == undefined) val = e.attributes[attr].value;
		e.setAttribute("_orig_" + attr, val);
	}
	function orig_load(e, attr) {
		if (e.attributes["_orig_"+attr] == undefined) return;
		e.attributes[attr].value = e.attributes["_orig_" + attr].value;
		e.removeAttribute("_orig_"+attr);
	}
	function g_to_text(e) {
		var text = find_child(e, "title").firstChild.nodeValue;
		return (text)
	}
	function g_to_func(e) {
		var func = g_to_text(e);
		// if there's any manipulation we want to do to the function
		// name before it's searched, do it here before returning.
		return (func);
	}
	function update_text(e) {
		var r = find_child(e, "rect");
		var t = find_child(e, "text");
		var w = parseFloat(r.attributes.width.value) -3;
		var txt = find_child(e, "title").textContent.replace(/\([^(]*\)$/,"");
		t.attributes.x.value = parseFloat(r.attributes.x.value) + 3;

		// Smaller than this size won't fit anything
		if (w < 2 * 12 * 0.59) {
			t.textContent = "";
			return;
		}

		t.textContent = txt;
		// Fit in full text width
		if (/^ *$/.test(txt) || t.getSubStringLength(0, txt.length) < w)
			return;

		for (var x = txt.length - 2; x > 0; x--) {
			if (t.getSubStringLength(0, x + 2) <= w) {
				t.textContent = txt.substring(0, x) + "..";
				return;
			}
		}
		t.textContent = "";
	}

	// zoom
	function zoom_reset(e) {
		if (e.attributes != undefined) {
			orig_load(e, "x");
			orig_load(e, "width");
		}
		if (e.childNodes == undefined) return;
		for (var i = 0, c = e.childNodes; i < c.length; i++) {
			zoom_reset(c[i]);
		}
	}
	function zoom_child(e, x, ratio) {
		if (e.attributes != undefined) {
			if (e.attributes.x != undefined) {
				orig_save(e, "x");
				e.attributes.x.value = (parseFloat(e.attributes.x.value) - x - 10) * ratio + 10;
				if (e.tagName == "text")
					e.attributes.x.value = find_child(e.parentNode, "rect[x]").attributes.x.value + 3;
			}
			if (e.attributes.width != undefined) {
				orig_save(e, "width");
				e.attributes.width.value = parseFloat(e.attributes.width.value) * ratio;
			}
		}

		if (e.childNodes == undefined) return;
		for (var i = 0, c = e.childNodes; i < c.length; i++) {
			zoom_child(c[i], x - 10, ratio);
		}
	}
	function zoom_parent(e) {
		if (e.attributes) {
			if (e.attributes.x != undefined) {
				orig_save(e, "x");
				e.attributes.x.value = 10;
			}
			if (e.attributes.width != undefined) {
				orig_save(e, "width");
				e.attributes.width.value = parseInt(svg.width.baseVal.value) - (10 * 2);
			}
		}
		if (e.childNodes == undefined) return;
		for (var i = 0, c = e.childNodes; i < c.length; i++) {
			zoom_parent(c[i]);
		}
	}
	function zoom(node) {
		var attr = find_child(node, "rect").attributes;
		var width = parseFloat(attr.width.value);
		var xmin = parseFloat(attr.x.value);
		var xmax = parseFloat(xmin + width);
		var ymin = parseFloat(attr.y.value);
		var ratio = (svg.width.baseVal.value - 2 * 10) / width;

		// XXX: Workaround for JavaScript float issues (fix me)
		var fudge = 0.0001;

		unzoombtn.classList.remove("hide");

		var el = document.getElementById("frames").children;
		for (var i = 0; i < el.length; i++) {
			var e = el[i];
			var a = find_child(e, "rect").attributes;
			var ex = parseFloat(a.x.value);
			var ew = parseFloat(a.width.value);
			var upstack;
			// Is it an ancestor
			if (0 == 0) {
				upstack = parseFloat(a.y.value) > ymin;
			} else {
				upstack = parseFloat(a.y.value) < ymin;
			}
			if (upstack) {
				// Direct ancestor
				if (ex <= xmin && (ex+ew+fudge) >= xmax) {
					e.classList.add("parent");
					zoom_parent(e);
					update_text(e);
				}
				// not in current path
				else
					e.classList.add("hide");
			}
			// Children maybe
			else {
				// no common path
				if (ex < xmin || ex + fudge >= xmax) {
					e.classList.add("hide");
				}
				else {
					zoom_child(e, xmin, ratio);
					update_text(e);
				}
			}
		}
	}
	function unzoom() {
		unzoombtn.classList.add("hide");
		var el = document.getElementById("frames").children;
		for(var i = 0; i < el.length; i++) {
			el[i].classList.remove("parent");
			el[i].classList.remove("hide");
			zoom_reset(el[i]);
			update_text(el[i]);
		}
	}

	// search
	function reset_search() {
		var el = document.querySelectorAll("#frames rect");
		for (var i = 0; i < el.length; i++) {
			orig_load(el[i], "fill")
		}
	}
	function search_prompt() {
		if (!searching) {
			var term = prompt("Enter a search term (regexp " +
			    "allowed, eg: ^ext4_)", "");
			if (term != null) {
				search(term)
			}
		} else {
			reset_search();
			searching = 0;
			searchbtn.classList.remove("show");
			searchbtn.firstChild.nodeValue = "Search"
			matchedtxt.classList.add("hide");
			matchedtxt.firstChild.nodeValue = ""
		}
	}
	function search(term) {
		var re = new RegExp(term);
		var el = document.getElementById("frames").children;
		var matches = new Object();
		var maxwidth = 0;
		for (var i = 0; i < el.length; i++) {
			var e = el[i];
			var func = g_to_func(e);
			var rect = find_child(e, "rect");
			if (func == null || rect == null)
				continue;

			// Save max width. Only works as we have a root frame
			var w = parseFloat(rect.attributes.width.value);
			if (w > maxwidth)
				maxwidth = w;

			if (func.match(re)) {
				// highlight
				var x = parseFloat(rect.attributes.x.value);
				orig_save(rect, "fill");
				rect.attributes.fill.value = "rgb(230,0,230)";

				// remember matches
				if (matches[x] == undefined) {
					matches[x] = w;
				} else {
					if (w > matches[x]) {
						// overwrite with parent
						matches[x] = w;
					}
				}
				searching = 1;
			}
		}
		if (!searching)
			return;

		searchbtn.classList.add("show");
		searchbtn.firstChild.nodeValue = "Reset Search";

		// calculate percent matched, excluding vertical overlap
		var count = 0;
		var lastx = -1;
		var lastw = 0;
		var keys = Array();
		for (k in matches) {
			if (matches.hasOwnProperty(k))
				keys.push(k);
		}
		// sort the matched frames by their x location
		// ascending, then width descending
		keys.sort(function(a, b){
			return a - b;
		});
		// Step through frames saving only the biggest bottom-up frames
		// thanks to the sort order. This relies on the tree property
		// where children are always smaller than their parents.
		var fudge = 0.0001;	// JavaScript floating point
		for (var k in keys) {
			var x = parseFloat(keys[k]);
			var w = matches[keys[k]];
			if (x >= lastx + lastw - fudge) {
				count += w;
				lastx = x;
				lastw = w;
			}
		}
		// display matched percent
		matchedtxt.classList.remove("hide");
		var pct = 100 * count / maxwidth;
		if (pct != 100) pct = pct.toFixed(1)
		matchedtxt.firstChild.nodeValue = "Matched: " + pct + "%";
	}
]]>
</script>
<rect x="0" y="0" width="100%" height="100%" fill="rgb(240,240,220)"/>
<text id="title" x="600" y="24">Flame Graph</text>
<text id="details" x="10" y="389"> </text>
<text id="unzoom" x="10" y="24" class="hide">Reset Zoom</text>
<text id="search" x="1090" y="24">Search</text>
<text id="matched" x="1090" y="389"> </text>
<g id="frames">
<g>
<title>all (67 samples, 100.00%)</title><rect x="10.0" y="355.0" width="1180.0" height="15" fill="#f16f6f" rx="2" ry="2"/>
<text x="13.0" y="366.0">all</text>
</g>
<g>
<title>one/nio/server/SelectorThread.run (67 samples, 100.00%)</title><rect x="10.0" y="339.0" width="1180.0" height="15" fill="#54e554" rx="2" ry="2"/>
<text x="13.0" y="350.0">one/nio/server/SelectorThread.run</text>
</g>
<g>
<title>one/nio/net/Session.process (67 samples, 100.00%)</title><rect x="10.0" y="323.0" width="1180.0" height="15" fill="#56e756" rx="2" ry="2"/>
<text x="13.0" y="334.0">one/nio/net/Session.process</text>
</g>
<g>
<title>one/nio/http/HttpSession.processRead (67 samples, 100.00%)</title><rect x="10.0" y="307.0" width="1180.0" height="15" fill="#67f867" rx="2" ry="2"/>
<text x="13.0" y="318.0">one/nio/http/HttpSession.processRead</text>
</g>
<g>
<title>one/nio/http/HttpSession.processHttpBuffer (67 samples, 100.00%)</title><rect x="10.0" y="291.0" width="1180.0" height="15" fill="#69fa69" rx="2" ry="2"/>
<text x="13.0" y="302.0">one/nio/http/HttpSession.processHttpBuffer</text>
</g>
<g>
<title>one/nio/http/HttpSession.handleParsedRequest (50 samples, 74.63%)</title><rect x="10.0" y="275.0" width="880.6" height="15" fill="#62f362" rx="2" ry="2"/>
<text x="13.0" y="286.0">one/nio/http/HttpSession.handleParsedRequest</text>
</g>
<g>
<title>one/nio/http/HttpServer.handleRequest (50 samples, 74.63%)</title><rect x="10.0" y="259.0" width="880.6" height="15" fill="#5dee5d" rx="2" ry="2"/>
<text x="13.0" y="270.0">one/nio/http/HttpServer.handleRequest</text>
</g>
<g>
<title>RequestHandler0_get.handleRequest (48 samples, 71.64%)</title><rect x="10.0" y="243.0" width="845.4" height="15" fill="#61f261" rx="2" ry="2"/>
<text x="13.0" y="254.0">RequestHandler0_get.handleRequest</text>
</g>
<g>
<title>one/nio/http/HttpSession.sendResponse (3 samples, 4.48%)</title><rect x="10.0" y="227.0" width="52.8" height="15" fill="#60f160" rx="2" ry="2"/>
<text x="13.0" y="238.0">one/n..</text>
</g>
<g>
<title>one/nio/http/HttpSession.writeResponse (3 samples, 4.48%)</title><rect x="10.0" y="211.0" width="52.8" height="15" fill="#5ff05f" rx="2" ry="2"/>
<text x="13.0" y="222.0">one/n..</text>
</g>
<g>
<title>one/nio/http/Response.toBytes (2 samples, 2.99%)</title><rect x="10.0" y="195.0" width="35.2" height="15" fill="#6dfe6d" rx="2" ry="2"/>
<text x="13.0" y="206.0">one..</text>
</g>
<g>
<title>one/nio/util/ByteArrayBuilder.&lt;init&gt; (2 samples, 2.99%)</title><rect x="10.0" y="179.0" width="35.2" height="15" fill="#51e251" rx="2" ry="2"/>
<text x="13.0" y="190.0">one..</text>
</g>
<g>
<title>byte[] (2 samples, 2.99%)</title><rect x="10.0" y="163.0" width="35.2" height="15" fill="#50bebe" rx="2" ry="2"/>
<text x="13.0" y="174.0">byt..</text>
</g>
<g>
<title>one/nio/net/Session.write (1 samples, 1.49%)</title><rect x="45.2" y="195.0" width="17.6" height="15" fill="#5ced5c" rx="2" ry="2"/>
<text x="48.2" y="206.0"></text>
</g>
<g>
<title>one.nio.net.Session$ArrayQueueItem (1 samples, 1.49%)</title><rect x="45.2" y="179.0" width="17.6" height="15" fill="#59c7c7" rx="2" ry="2"/>
<text x="48.2" y="190.0"></text>
</g>
<g>
<title>one/nio/http/Request.getParameter (2 samples, 2.99%)</title><rect x="62.8" y="227.0" width="35.3" height="15" fill="#6dfe6d" rx="2" ry="2"/>
<text x="65.8" y="238.0">one..</text>
</g>
<g>
<title>java/lang/String.substring (2 samples, 2.99%)</title><rect x="62.8" y="211.0" width="35.3" height="15" fill="#5ff05f" rx="2" ry="2"/>
<text x="65.8" y="222.0">jav..</text>
</g>
<g>
<title>java/lang/StringLatin1.newString (2 samples, 2.99%)</title><rect x="62.8" y="195.0" width="35.3" height="15" fill="#62f362" rx="2" ry="2"/>
<text x="65.8" y="206.0">jav..</text>
</g>
<g>
<title>java.lang.String (2 samples, 2.99%)</title><rect x="62.8" y="179.0" width="35.3" height="15" fill="#65d3d3" rx="2" ry="2"/>
<text x="65.8" y="190.0">jav..</text>
</g>
<g>
<title>ru/mail/polis/service/stasyanoi/CustomServer.get (43 samples, 64.18%)</title><rect x="98.1" y="227.0" width="757.3" height="15" fill="#6dfe6d" rx="2" ry="2"/>
<text x="101.1" y="238.0">ru/mail/polis/service/stasyanoi/CustomServer.get</text>
</g>
<g>
<title>java/lang/String.getBytes (2 samples, 2.99%)</title><rect x="98.1" y="211.0" width="35.2" height="15" fill="#5eef5e" rx="2" ry="2"/>
<text x="101.1" y="222.0">jav..</text>
</g>
<g>
<title>java/lang/StringCoding.encode (2 samples, 2.99%)</title><rect x="98.1" y="195.0" width="35.2" height="15" fill="#5ff05f" rx="2" ry="2"/>
<text x="101.1" y="206.0">jav..</text>
</g>
<g>
<title>java/lang/StringCoding.encodeUTF8 (2 samples, 2.99%)</title><rect x="98.1" y="179.0" width="35.2" height="15" fill="#5ff05f" rx="2" ry="2"/>
<text x="101.1" y="190.0">jav..</text>
</g>
<g>
<title>java/util/Arrays.copyOf (2 samples, 2.99%)</title><rect x="98.1" y="163.0" width="35.2" height="15" fill="#53e453" rx="2" ry="2"/>
<text x="101.1" y="174.0">jav..</text>
</g>
<g>
<title>byte[] (2 samples, 2.99%)</title><rect x="98.1" y="147.0" width="35.2" height="15" fill="#53c1c1" rx="2" ry="2"/>
<text x="101.1" y="158.0">byt..</text>
</g>
<g>
<title>one/nio/http/Response.ok (3 samples, 4.48%)</title><rect x="133.3" y="211.0" width="52.8" height="15" fill="#51e251" rx="2" ry="2"/>
<text x="136.3" y="222.0">one/n..</text>
</g>
<g>
<title>one/nio/http/Response.&lt;init&gt; (3 samples, 4.48%)</title><rect x="133.3" y="195.0" width="52.8" height="15" fill="#58e958" rx="2" ry="2"/>
<text x="136.3" y="206.0">one/n..</text>
</g>
<g>
<title>java.lang.String[] (1 samples, 1.49%)</title><rect x="133.3" y="179.0" width="17.6" height="15" fill="#51bfbf" rx="2" ry="2"/>
<text x="136.3" y="190.0"></text>
</g>
<g>
<title>java.lang.String (2 samples, 2.99%)</title><rect x="150.9" y="179.0" width="35.2" height="15" fill="#50bebe" rx="2" ry="2"/>
<text x="153.9" y="190.0">jav..</text>
</g>
<g>
<title>ru/mail/polis/dao/stasyanoi/DAOImpl.get (36 samples, 53.73%)</title><rect x="186.1" y="211.0" width="634.0" height="15" fill="#5eef5e" rx="2" ry="2"/>
<text x="189.1" y="222.0">ru/mail/polis/dao/stasyanoi/DAOImpl.get</text>
</g>
<g>
<title>ru/mail/polis/Record.getValue (1 samples, 1.49%)</title><rect x="186.1" y="195.0" width="17.6" height="15" fill="#5bec5b" rx="2" ry="2"/>
<text x="189.1" y="206.0"></text>
</g>
<g>
<title>java/nio/HeapByteBuffer.asReadOnlyBuffer (1 samples, 1.49%)</title><rect x="186.1" y="179.0" width="17.6" height="15" fill="#60f160" rx="2" ry="2"/>
<text x="189.1" y="190.0"></text>
</g>
<g>
<title>java.nio.HeapByteBufferR (1 samples, 1.49%)</title><rect x="186.1" y="163.0" width="17.6" height="15" fill="#62d0d0" rx="2" ry="2"/>
<text x="189.1" y="174.0"></text>
</g>
<g>
<title>ru/mail/polis/dao/stasyanoi/DAOImpl.iterator (31 samples, 46.27%)</title><rect x="203.7" y="195.0" width="546.0" height="15" fill="#62f362" rx="2" ry="2"/>
<text x="206.7" y="206.0">ru/mail/polis/dao/stasyanoi/DAOImpl.iterator</text>
</g>
<g>
<title>ru/mail/polis/dao/stasyanoi/DAOImpl.getIterator (31 samples, 46.27%)</title><rect x="203.7" y="179.0" width="546.0" height="15" fill="#5aeb5a" rx="2" ry="2"/>
<text x="206.7" y="190.0">ru/mail/polis/dao/stasyanoi/DAOImpl.getIterator</text>
</g>
<g>
<title>org/rocksdb/RocksDB.newIterator (3 samples, 4.48%)</title><rect x="203.7" y="163.0" width="52.9" height="15" fill="#5eef5e" rx="2" ry="2"/>
<text x="206.7" y="174.0">org/r..</text>
</g>
<g>
<title>org.rocksdb.RocksIterator (2 samples, 2.99%)</title><rect x="203.7" y="147.0" width="35.3" height="15" fill="#56c4c4" rx="2" ry="2"/>
<text x="206.7" y="158.0">org..</text>
</g>
<g>
<title>org/rocksdb/RocksIterator.&lt;init&gt; (1 samples, 1.49%)</title><rect x="239.0" y="147.0" width="17.6" height="15" fill="#67f867" rx="2" ry="2"/>
<text x="242.0" y="158.0"></text>
</g>
<g>
<title>org/rocksdb/AbstractRocksIterator.&lt;init&gt; (1 samples, 1.49%)</title><rect x="239.0" y="131.0" width="17.6" height="15" fill="#51e251" rx="2" ry="2"/>
<text x="242.0" y="142.0"></text>
</g>
<g>
<title>org/rocksdb/RocksObject.&lt;init&gt; (1 samples, 1.49%)</title><rect x="239.0" y="115.0" width="17.6" height="15" fill="#66f766" rx="2" ry="2"/>
<text x="242.0" y="126.0"></text>
</g>
<g>
<title>org/rocksdb/AbstractImmutableNativeReference.&lt;init&gt; (1 samples, 1.49%)</title><rect x="239.0" y="99.0" width="17.6" height="15" fill="#59ea59" rx="2" ry="2"/>
<text x="242.0" y="110.0"></text>
</g>
<g>
<title>org/rocksdb/AbstractNativeReference.&lt;init&gt; (1 samples, 1.49%)</title><rect x="239.0" y="83.0" width="17.6" height="15" fill="#51e251" rx="2" ry="2"/>
<text x="242.0" y="94.0"></text>
</g>
<g>
<title>java/lang/Object.&lt;init&gt; (1 samples, 1.49%)</title><rect x="239.0" y="67.0" width="17.6" height="15" fill="#68f968" rx="2" ry="2"/>
<text x="242.0" y="78.0"></text>
</g>
<g>
<title>java/lang/ref/Finalizer.register (1 samples, 1.49%)</title><rect x="239.0" y="51.0" width="17.6" height="15" fill="#5aeb5a" rx="2" ry="2"/>
<text x="242.0" y="62.0"></text>
</g>
<g>
<title>java.lang.ref.Finalizer (1 samples, 1.49%)</title><rect x="239.0" y="35.0" width="17.6" height="15" fill="#5ecccc" rx="2" ry="2"/>
<text x="242.0" y="46.0"></text>
</g>
<g>
<title>ru.mail.polis.service.stasyanoi.IteratorImpl (1 samples, 1.49%)</title><rect x="256.6" y="163.0" width="17.6" height="15" fill="#54c2c2" rx="2" ry="2"/>
<text x="259.6" y="174.0"></text>
</g>
<g>
<title>ru/mail/polis/service/stasyanoi/IteratorImpl.&lt;init&gt; (27 samples, 40.30%)</title><rect x="274.2" y="163.0" width="475.5" height="15" fill="#59ea59" rx="2" ry="2"/>
<text x="277.2" y="174.0">ru/mail/polis/service/stasyanoi/IteratorImpl.&lt;init&gt;</text>
</g>
<g>
<title>org/rocksdb/AbstractRocksIterator.seek (27 samples, 40.30%)</title><rect x="274.2" y="147.0" width="475.5" height="15" fill="#6dfe6d" rx="2" ry="2"/>
<text x="277.2" y="158.0">org/rocksdb/AbstractRocksIterator.seek</text>
</g>
<g>
<title>org/rocksdb/RocksIterator.seek0 (27 samples, 40.30%)</title><rect x="274.2" y="131.0" width="475.5" height="15" fill="#66f766" rx="2" ry="2"/>
<text x="277.2" y="142.0">org/rocksdb/RocksIterator.seek0</text>
</g>
<g>
<title>ru/mail/polis/dao/stasyanoi/ComparatorImpl.compare (27 samples, 40.30%)</title><rect x="274.2" y="115.0" width="475.5" height="15" fill="#51e251" rx="2" ry="2"/>
<text x="277.2" y="126.0">ru/mail/polis/dao/stasyanoi/ComparatorImpl.compare</text>
</g>
<g>
<title>ru/mail/polis/dao/stasyanoi/ComparatorImpl.compare (27 samples, 40.30%)</title><rect x="274.2" y="99.0" width="475.5" height="15" fill="#6dfe6d" rx="2" ry="2"/>
<text x="277.2" y="110.0">ru/mail/polis/dao/stasyanoi/ComparatorImpl.compare</text>
</g>
<g>
<title>org/rocksdb/AbstractSlice.data (27 samples, 40.30%)</title><rect x="274.2" y="83.0" width="475.5" height="15" fill="#56e756" rx="2" ry="2"/>
<text x="277.2" y="94.0">org/rocksdb/AbstractSlice.data</text>
</g>
<g>
<title>org/rocksdb/Slice.data0 (27 samples, 40.30%)</title><rect x="274.2" y="67.0" width="475.5" height="15" fill="#61f261" rx="2" ry="2"/>
<text x="277.2" y="78.0">org/rocksdb/Slice.data0</text>
</g>
<g>
<title>org/rocksdb/Slice.data0 (27 samples, 40.30%)</title><rect x="274.2" y="51.0" width="475.5" height="15" fill="#5eef5e" rx="2" ry="2"/>
<text x="277.2" y="62.0">org/rocksdb/Slice.data0</text>
</g>
<g>
<title>byte[] (27 samples, 40.30%)</title><rect x="274.2" y="35.0" width="475.5" height="15" fill="#5ac8c8" rx="2" ry="2"/>
<text x="277.2" y="46.0">byte[]</text>
</g>
<g>
<title>ru/mail/polis/service/stasyanoi/IteratorImpl.next (4 samples, 5.97%)</title><rect x="749.7" y="195.0" width="70.4" height="15" fill="#65f665" rx="2" ry="2"/>
<text x="752.7" y="206.0">ru/mail/..</text>
</g>
<g>
<title>ru/mail/polis/service/stasyanoi/IteratorImpl.next (4 samples, 5.97%)</title><rect x="749.7" y="179.0" width="70.4" height="15" fill="#60f160" rx="2" ry="2"/>
<text x="752.7" y="190.0">ru/mail/..</text>
</g>
<g>
<title>org/rocksdb/AbstractRocksIterator.next (2 samples, 2.99%)</title><rect x="749.7" y="163.0" width="35.2" height="15" fill="#62f362" rx="2" ry="2"/>
<text x="752.7" y="174.0">org..</text>
</g>
<g>
<title>org/rocksdb/RocksIterator.next0 (2 samples, 2.99%)</title><rect x="749.7" y="147.0" width="35.2" height="15" fill="#66f766" rx="2" ry="2"/>
<text x="752.7" y="158.0">org..</text>
</g>
<g>
<title>ru/mail/polis/dao/stasyanoi/ComparatorImpl.compare (2 samples, 2.99%)</title><rect x="749.7" y="131.0" width="35.2" height="15" fill="#60f160" rx="2" ry="2"/>
<text x="752.7" y="142.0">ru/..</text>
</g>
<g>
<title>ru/mail/polis/dao/stasyanoi/ComparatorImpl.compare (2 samples, 2.99%)</title><rect x="749.7" y="115.0" width="35.2" height="15" fill="#53e453" rx="2" ry="2"/>
<text x="752.7" y="126.0">ru/..</text>
</g>
<g>
<title>org/rocksdb/AbstractSlice.data (2 samples, 2.99%)</title><rect x="749.7" y="99.0" width="35.2" height="15" fill="#54e554" rx="2" ry="2"/>
<text x="752.7" y="110.0">org..</text>
</g>
<g>
<title>org/rocksdb/Slice.data0 (2 samples, 2.99%)</title><rect x="749.7" y="83.0" width="35.2" height="15" fill="#53e453" rx="2" ry="2"/>
<text x="752.7" y="94.0">org..</text>
</g>
<g>
<title>org/rocksdb/Slice.data0 (2 samples, 2.99%)</title><rect x="749.7" y="67.0" width="35.2" height="15" fill="#65f665" rx="2" ry="2"/>
<text x="752.7" y="78.0">org..</text>
</g>
<g>
<title>byte[] (2 samples, 2.99%)</title><rect x="749.7" y="51.0" width="35.2" height="15" fill="#66d4d4" rx="2" ry="2"/>
<text x="752.7" y="62.0">byt..</text>
</g>
<g>
<title>org/rocksdb/RocksIterator.key (1 samples, 1.49%)</title><rect x="784.9" y="163.0" width="17.6" height="15" fill="#5eef5e" rx="2" ry="2"/>
<text x="787.9" y="174.0"></text>
</g>
<g>
<title>org/rocksdb/RocksIterator.key0 (1 samples, 1.49%)</title><rect x="784.9" y="147.0" width="17.6" height="15" fill="#56e756" rx="2" ry="2"/>
<text x="787.9" y="158.0"></text>
</g>
<g>
<title>byte[] (1 samples, 1.49%)</title><rect x="784.9" y="131.0" width="17.6" height="15" fill="#6cdada" rx="2" ry="2"/>
<text x="787.9" y="142.0"></text>
</g>
<g>
<title>org/rocksdb/RocksIterator.value (1 samples, 1.49%)</title><rect x="802.5" y="163.0" width="17.6" height="15" fill="#57e857" rx="2" ry="2"/>
<text x="805.5" y="174.0"></text>
</g>
<g>
<title>org/rocksdb/RocksIterator.value0 (1 samples, 1.49%)</title><rect x="802.5" y="147.0" width="17.6" height="15" fill="#57e857" rx="2" ry="2"/>
<text x="805.5" y="158.0"></text>
</g>
<g>
<title>byte[] (1 samples, 1.49%)</title><rect x="802.5" y="131.0" width="17.6" height="15" fill="#65d3d3" rx="2" ry="2"/>
<text x="805.5" y="142.0"></text>
</g>
<g>
<title>ru/mail/polis/service/stasyanoi/CustomServer.fromBytes (1 samples, 1.49%)</title><rect x="820.1" y="211.0" width="17.7" height="15" fill="#61f261" rx="2" ry="2"/>
<text x="823.1" y="222.0"></text>
</g>
<g>
<title>java/nio/ByteBuffer.wrap (1 samples, 1.49%)</title><rect x="820.1" y="195.0" width="17.7" height="15" fill="#59ea59" rx="2" ry="2"/>
<text x="823.1" y="206.0"></text>
</g>
<g>
<title>java/nio/ByteBuffer.wrap (1 samples, 1.49%)</title><rect x="820.1" y="179.0" width="17.7" height="15" fill="#60f160" rx="2" ry="2"/>
<text x="823.1" y="190.0"></text>
</g>
<g>
<title>java.nio.HeapByteBuffer (1 samples, 1.49%)</title><rect x="820.1" y="163.0" width="17.7" height="15" fill="#6cdada" rx="2" ry="2"/>
<text x="823.1" y="174.0"></text>
</g>
<g>
<title>ru/mail/polis/service/stasyanoi/CustomServer.toBytes (1 samples, 1.49%)</title><rect x="837.8" y="211.0" width="17.6" height="15" fill="#67f867" rx="2" ry="2"/>
<text x="840.8" y="222.0"></text>
</g>
<g>
<title>byte[] (1 samples, 1.49%)</title><rect x="837.8" y="195.0" width="17.6" height="15" fill="#64d2d2" rx="2" ry="2"/>
<text x="840.8" y="206.0"></text>
</g>
<g>
<title>one/nio/http/Request.getPath (2 samples, 2.99%)</title><rect x="855.4" y="243.0" width="35.2" height="15" fill="#58e958" rx="2" ry="2"/>
<text x="858.4" y="254.0">one..</text>
</g>
<g>
<title>java/lang/String.substring (2 samples, 2.99%)</title><rect x="855.4" y="227.0" width="35.2" height="15" fill="#67f867" rx="2" ry="2"/>
<text x="858.4" y="238.0">jav..</text>
</g>
<g>
<title>java/lang/StringLatin1.newString (2 samples, 2.99%)</title><rect x="855.4" y="211.0" width="35.2" height="15" fill="#5dee5d" rx="2" ry="2"/>
<text x="858.4" y="222.0">jav..</text>
</g>
<g>
<title>java/util/Arrays.copyOfRange (2 samples, 2.99%)</title><rect x="855.4" y="195.0" width="35.2" height="15" fill="#59ea59" rx="2" ry="2"/>
<text x="858.4" y="206.0">jav..</text>
</g>
<g>
<title>byte[] (2 samples, 2.99%)</title><rect x="855.4" y="179.0" width="35.2" height="15" fill="#67d5d5" rx="2" ry="2"/>
<text x="858.4" y="190.0">byt..</text>
</g>
<g>
<title>one/nio/http/HttpSession.parseRequest (9 samples, 13.43%)</title><rect x="890.6" y="275.0" width="158.5" height="15" fill="#64f564" rx="2" ry="2"/>
<text x="893.6" y="286.0">one/nio/http/HttpSes..</text>
</g>
<g>
<title>one.nio.http.Request (1 samples, 1.49%)</title><rect x="890.6" y="259.0" width="17.6" height="15" fill="#6bd9d9" rx="2" ry="2"/>
<text x="893.6" y="270.0"></text>
</g>
<g>
<title>one/nio/http/Request.&lt;init&gt; (4 samples, 5.97%)</title><rect x="908.2" y="259.0" width="70.5" height="15" fill="#58e958" rx="2" ry="2"/>
<text x="911.2" y="270.0">one/nio/..</text>
</g>
<g>
<title>java.lang.String[] (4 samples, 5.97%)</title><rect x="908.2" y="243.0" width="70.5" height="15" fill="#50bebe" rx="2" ry="2"/>
<text x="911.2" y="254.0">java.lan..</text>
</g>
<g>
<title>one/nio/util/Utf8.read (4 samples, 5.97%)</title><rect x="978.7" y="259.0" width="70.4" height="15" fill="#62f362" rx="2" ry="2"/>
<text x="981.7" y="270.0">one/nio/..</text>
</g>
<g>
<title>one/nio/util/Utf8.read (4 samples, 5.97%)</title><rect x="978.7" y="243.0" width="70.4" height="15" fill="#68f968" rx="2" ry="2"/>
<text x="981.7" y="254.0">one/nio/..</text>
</g>
<g>
<title>char[] (2 samples, 2.99%)</title><rect x="978.7" y="227.0" width="35.2" height="15" fill="#63d1d1" rx="2" ry="2"/>
<text x="981.7" y="238.0">cha..</text>
</g>
<g>
<title>java/lang/String.&lt;init&gt; (2 samples, 2.99%)</title><rect x="1013.9" y="227.0" width="35.2" height="15" fill="#5aeb5a" rx="2" ry="2"/>
<text x="1016.9" y="238.0">jav..</text>
</g>
<g>
<title>java/lang/String.&lt;init&gt; (2 samples, 2.99%)</title><rect x="1013.9" y="211.0" width="35.2" height="15" fill="#5bec5b" rx="2" ry="2"/>
<text x="1016.9" y="222.0">jav..</text>
</g>
<g>
<title>java/lang/StringUTF16.compress (2 samples, 2.99%)</title><rect x="1013.9" y="195.0" width="35.2" height="15" fill="#66f766" rx="2" ry="2"/>
<text x="1016.9" y="206.0">jav..</text>
</g>
<g>
<title>byte[] (2 samples, 2.99%)</title><rect x="1013.9" y="179.0" width="35.2" height="15" fill="#5fcdcd" rx="2" ry="2"/>
<text x="1016.9" y="190.0">byt..</text>
</g>
<g>
<title>one/nio/util/Utf8.read (8 samples, 11.94%)</title><rect x="1049.1" y="275.0" width="140.9" height="15" fill="#5ff05f" rx="2" ry="2"/>
<text x="1052.1" y="286.0">one/nio/util/Utf8...</text>
</g>
<g>
<title>one/nio/util/Utf8.read (8 samples, 11.94%)</title><rect x="1049.1" y="259.0" width="140.9" height="15" fill="#5eef5e" rx="2" ry="2"/>
<text x="1052.1" y="270.0">one/nio/util/Utf8...</text>
</g>
<g>
<title>char[] (4 samples, 5.97%)</title><rect x="1049.1" y="243.0" width="70.5" height="15" fill="#57c5c5" rx="2" ry="2"/>
<text x="1052.1" y="254.0">char[]</text>
</g>
<g>
<title>java.lang.String (2 samples, 2.99%)</title><rect x="1119.6" y="243.0" width="35.2" height="15" fill="#6ddbdb" rx="2" ry="2"/>
<text x="1122.6" y="254.0">jav..</text>
</g>
<g>
<title>java/lang/String.&lt;init&gt; (2 samples, 2.99%)</title><rect x="1154.8" y="243.0" width="35.2" height="15" fill="#64f564" rx="2" ry="2"/>
<text x="1157.8" y="254.0">jav..</text>
</g>
<g>
<title>java/lang/String.&lt;init&gt; (2 samples, 2.99%)</title><rect x="1154.8" y="227.0" width="35.2" height="15" fill="#56e756" rx="2" ry="2"/>
<text x="1157.8" y="238.0">jav..</text>
</g>
<g>
<title>java/lang/StringUTF16.compress (2 samples, 2.99%)</title><rect x="1154.8" y="211.0" width="35.2" height="15" fill="#57e857" rx="2" ry="2"/>
<text x="1157.8" y="222.0">jav..</text>
</g>
<g>
<title>byte[] (2 samples, 2.99%)</title><rect x="1154.8" y="195.0" width="35.2" height="15" fill="#6cdada" rx="2" ry="2"/>
<text x="1157.8" y="206.0">byt..</text>
</g>
</g>
</svg>
