<?xml version="1.0" standalone="no"?>
<!DOCTYPE svg PUBLIC "-//W3C//DTD SVG 1.1//EN" "http://www.w3.org/Graphics/SVG/1.1/DTD/svg11.dtd">
<svg version="1.1" width="1200" height="358" onload="init(evt)" viewBox="0 0 1200 358" xmlns="http://www.w3.org/2000/svg" xmlns:xlink="http://www.w3.org/1999/xlink">
<style type="text/css">
	text { font-family:Verdana; font-size:12px; fill:rgb(0,0,0); }
	#search { opacity:0.1; cursor:pointer; }
	#search:hover, #search.show { opacity:1; }
	#subtitle { text-anchor:middle; font-color:rgb(160,160,160); }
	#title { text-anchor:middle; font-size:17px}
	#unzoom { cursor:pointer; }
	#frames > *:hover { stroke:black; stroke-width:0.5; cursor:pointer; }
	.hide { display:none; }
	.parent { opacity:0.5; }
</style>
<script type="text/ecmascript">
<![CDATA[
	"use strict";
	var details, searchbtn, unzoombtn, matchedtxt, svg, searching;
	function init(evt) {
		details = document.getElementById("details").firstChild;
		searchbtn = document.getElementById("search");
		unzoombtn = document.getElementById("unzoom");
		matchedtxt = document.getElementById("matched");
		svg = document.getElementsByTagName("svg")[0];
		searching = 0;
	}

	window.addEventListener("click", function(e) {
		var target = find_group(e.target);
		if (target) {
			if (target.nodeName == "a") {
				if (e.ctrlKey === false) return;
				e.preventDefault();
			}
			if (target.classList.contains("parent")) unzoom();
			zoom(target);
		}
		else if (e.target.id == "unzoom") unzoom();
		else if (e.target.id == "search") search_prompt();
	}, false)

	// mouse-over for info
	// show
	window.addEventListener("mouseover", function(e) {
		var target = find_group(e.target);
		if (target) details.nodeValue = "Function: " + g_to_text(target);
	}, false)

	// clear
	window.addEventListener("mouseout", function(e) {
		var target = find_group(e.target);
		if (target) details.nodeValue = ' ';
	}, false)

	// ctrl-F for search
	window.addEventListener("keydown",function (e) {
		if (e.keyCode === 114 || (e.ctrlKey && e.keyCode === 70)) {
			e.preventDefault();
			search_prompt();
		}
	}, false)

	// functions
	function find_child(node, selector) {
		var children = node.querySelectorAll(selector);
		if (children.length) return children[0];
		return;
	}
	function find_group(node) {
		var parent = node.parentElement;
		if (!parent) return;
		if (parent.id == "frames") return node;
		return find_group(parent);
	}
	function orig_save(e, attr, val) {
		if (e.attributes["_orig_" + attr] != undefined) return;
		if (e.attributes[attr] == undefined) return;
		if (val == undefined) val = e.attributes[attr].value;
		e.setAttribute("_orig_" + attr, val);
	}
	function orig_load(e, attr) {
		if (e.attributes["_orig_"+attr] == undefined) return;
		e.attributes[attr].value = e.attributes["_orig_" + attr].value;
		e.removeAttribute("_orig_"+attr);
	}
	function g_to_text(e) {
		var text = find_child(e, "title").firstChild.nodeValue;
		return (text)
	}
	function g_to_func(e) {
		var func = g_to_text(e);
		// if there's any manipulation we want to do to the function
		// name before it's searched, do it here before returning.
		return (func);
	}
	function update_text(e) {
		var r = find_child(e, "rect");
		var t = find_child(e, "text");
		var w = parseFloat(r.attributes.width.value) -3;
		var txt = find_child(e, "title").textContent.replace(/\([^(]*\)$/,"");
		t.attributes.x.value = parseFloat(r.attributes.x.value) + 3;

		// Smaller than this size won't fit anything
		if (w < 2 * 12 * 0.59) {
			t.textContent = "";
			return;
		}

		t.textContent = txt;
		// Fit in full text width
		if (/^ *$/.test(txt) || t.getSubStringLength(0, txt.length) < w)
			return;

		for (var x = txt.length - 2; x > 0; x--) {
			if (t.getSubStringLength(0, x + 2) <= w) {
				t.textContent = txt.substring(0, x) + "..";
				return;
			}
		}
		t.textContent = "";
	}

	// zoom
	function zoom_reset(e) {
		if (e.attributes != undefined) {
			orig_load(e, "x");
			orig_load(e, "width");
		}
		if (e.childNodes == undefined) return;
		for (var i = 0, c = e.childNodes; i < c.length; i++) {
			zoom_reset(c[i]);
		}
	}
	function zoom_child(e, x, ratio) {
		if (e.attributes != undefined) {
			if (e.attributes.x != undefined) {
				orig_save(e, "x");
				e.attributes.x.value = (parseFloat(e.attributes.x.value) - x - 10) * ratio + 10;
				if (e.tagName == "text")
					e.attributes.x.value = find_child(e.parentNode, "rect[x]").attributes.x.value + 3;
			}
			if (e.attributes.width != undefined) {
				orig_save(e, "width");
				e.attributes.width.value = parseFloat(e.attributes.width.value) * ratio;
			}
		}

		if (e.childNodes == undefined) return;
		for (var i = 0, c = e.childNodes; i < c.length; i++) {
			zoom_child(c[i], x - 10, ratio);
		}
	}
	function zoom_parent(e) {
		if (e.attributes) {
			if (e.attributes.x != undefined) {
				orig_save(e, "x");
				e.attributes.x.value = 10;
			}
			if (e.attributes.width != undefined) {
				orig_save(e, "width");
				e.attributes.width.value = parseInt(svg.width.baseVal.value) - (10 * 2);
			}
		}
		if (e.childNodes == undefined) return;
		for (var i = 0, c = e.childNodes; i < c.length; i++) {
			zoom_parent(c[i]);
		}
	}
	function zoom(node) {
		var attr = find_child(node, "rect").attributes;
		var width = parseFloat(attr.width.value);
		var xmin = parseFloat(attr.x.value);
		var xmax = parseFloat(xmin + width);
		var ymin = parseFloat(attr.y.value);
		var ratio = (svg.width.baseVal.value - 2 * 10) / width;

		// XXX: Workaround for JavaScript float issues (fix me)
		var fudge = 0.0001;

		unzoombtn.classList.remove("hide");

		var el = document.getElementById("frames").children;
		for (var i = 0; i < el.length; i++) {
			var e = el[i];
			var a = find_child(e, "rect").attributes;
			var ex = parseFloat(a.x.value);
			var ew = parseFloat(a.width.value);
			var upstack;
			// Is it an ancestor
			if (0 == 0) {
				upstack = parseFloat(a.y.value) > ymin;
			} else {
				upstack = parseFloat(a.y.value) < ymin;
			}
			if (upstack) {
				// Direct ancestor
				if (ex <= xmin && (ex+ew+fudge) >= xmax) {
					e.classList.add("parent");
					zoom_parent(e);
					update_text(e);
				}
				// not in current path
				else
					e.classList.add("hide");
			}
			// Children maybe
			else {
				// no common path
				if (ex < xmin || ex + fudge >= xmax) {
					e.classList.add("hide");
				}
				else {
					zoom_child(e, xmin, ratio);
					update_text(e);
				}
			}
		}
	}
	function unzoom() {
		unzoombtn.classList.add("hide");
		var el = document.getElementById("frames").children;
		for(var i = 0; i < el.length; i++) {
			el[i].classList.remove("parent");
			el[i].classList.remove("hide");
			zoom_reset(el[i]);
			update_text(el[i]);
		}
	}

	// search
	function reset_search() {
		var el = document.querySelectorAll("#frames rect");
		for (var i = 0; i < el.length; i++) {
			orig_load(el[i], "fill")
		}
	}
	function search_prompt() {
		if (!searching) {
			var term = prompt("Enter a search term (regexp " +
			    "allowed, eg: ^ext4_)", "");
			if (term != null) {
				search(term)
			}
		} else {
			reset_search();
			searching = 0;
			searchbtn.classList.remove("show");
			searchbtn.firstChild.nodeValue = "Search"
			matchedtxt.classList.add("hide");
			matchedtxt.firstChild.nodeValue = ""
		}
	}
	function search(term) {
		var re = new RegExp(term);
		var el = document.getElementById("frames").children;
		var matches = new Object();
		var maxwidth = 0;
		for (var i = 0; i < el.length; i++) {
			var e = el[i];
			var func = g_to_func(e);
			var rect = find_child(e, "rect");
			if (func == null || rect == null)
				continue;

			// Save max width. Only works as we have a root frame
			var w = parseFloat(rect.attributes.width.value);
			if (w > maxwidth)
				maxwidth = w;

			if (func.match(re)) {
				// highlight
				var x = parseFloat(rect.attributes.x.value);
				orig_save(rect, "fill");
				rect.attributes.fill.value = "rgb(230,0,230)";

				// remember matches
				if (matches[x] == undefined) {
					matches[x] = w;
				} else {
					if (w > matches[x]) {
						// overwrite with parent
						matches[x] = w;
					}
				}
				searching = 1;
			}
		}
		if (!searching)
			return;

		searchbtn.classList.add("show");
		searchbtn.firstChild.nodeValue = "Reset Search";

		// calculate percent matched, excluding vertical overlap
		var count = 0;
		var lastx = -1;
		var lastw = 0;
		var keys = Array();
		for (k in matches) {
			if (matches.hasOwnProperty(k))
				keys.push(k);
		}
		// sort the matched frames by their x location
		// ascending, then width descending
		keys.sort(function(a, b){
			return a - b;
		});
		// Step through frames saving only the biggest bottom-up frames
		// thanks to the sort order. This relies on the tree property
		// where children are always smaller than their parents.
		var fudge = 0.0001;	// JavaScript floating point
		for (var k in keys) {
			var x = parseFloat(keys[k]);
			var w = matches[keys[k]];
			if (x >= lastx + lastw - fudge) {
				count += w;
				lastx = x;
				lastw = w;
			}
		}
		// display matched percent
		matchedtxt.classList.remove("hide");
		var pct = 100 * count / maxwidth;
		if (pct != 100) pct = pct.toFixed(1)
		matchedtxt.firstChild.nodeValue = "Matched: " + pct + "%";
	}
]]>
</script>
<rect x="0" y="0" width="100%" height="100%" fill="rgb(240,240,220)"/>
<text id="title" x="600" y="24">Flame Graph</text>
<text id="details" x="10" y="341"> </text>
<text id="unzoom" x="10" y="24" class="hide">Reset Zoom</text>
<text id="search" x="1090" y="24">Search</text>
<text id="matched" x="1090" y="341"> </text>
<g id="frames">
<g>
<title>all (229 samples, 100.00%)</title><rect x="10.0" y="307.0" width="1180.0" height="15" fill="#ee6b6b" rx="2" ry="2"/>
<text x="13.0" y="318.0">all</text>
</g>
<g>
<title>one/nio/server/SelectorThread.run (229 samples, 100.00%)</title><rect x="10.0" y="291.0" width="1180.0" height="15" fill="#59ea59" rx="2" ry="2"/>
<text x="13.0" y="302.0">one/nio/server/SelectorThread.run</text>
</g>
<g>
<title>one/nio/net/NativeSelector.select (3 samples, 1.31%)</title><rect x="10.0" y="275.0" width="15.5" height="15" fill="#61f261" rx="2" ry="2"/>
<text x="13.0" y="286.0"></text>
</g>
<g>
<title>one.nio.net.NativeSelector$2 (3 samples, 1.31%)</title><rect x="10.0" y="259.0" width="15.5" height="15" fill="#52c0c0" rx="2" ry="2"/>
<text x="13.0" y="270.0"></text>
</g>
<g>
<title>one/nio/net/Session.process (226 samples, 98.69%)</title><rect x="25.5" y="275.0" width="1164.5" height="15" fill="#5eef5e" rx="2" ry="2"/>
<text x="28.5" y="286.0">one/nio/net/Session.process</text>
</g>
<g>
<title>one/nio/http/HttpSession.processRead (226 samples, 98.69%)</title><rect x="25.5" y="259.0" width="1164.5" height="15" fill="#63f463" rx="2" ry="2"/>
<text x="28.5" y="270.0">one/nio/http/HttpSession.processRead</text>
</g>
<g>
<title>one/nio/http/HttpSession.processHttpBuffer (226 samples, 98.69%)</title><rect x="25.5" y="243.0" width="1164.5" height="15" fill="#69fa69" rx="2" ry="2"/>
<text x="28.5" y="254.0">one/nio/http/HttpSession.processHttpBuffer</text>
</g>
<g>
<title>one/nio/http/HttpSession.handleParsedRequest (201 samples, 87.77%)</title><rect x="25.5" y="227.0" width="1035.7" height="15" fill="#59ea59" rx="2" ry="2"/>
<text x="28.5" y="238.0">one/nio/http/HttpSession.handleParsedRequest</text>
</g>
<g>
<title>one/nio/http/HttpServer.handleRequest (201 samples, 87.77%)</title><rect x="25.5" y="211.0" width="1035.7" height="15" fill="#6dfe6d" rx="2" ry="2"/>
<text x="28.5" y="222.0">one/nio/http/HttpServer.handleRequest</text>
</g>
<g>
<title>RequestHandler0_get.handleRequest (195 samples, 85.15%)</title><rect x="25.5" y="195.0" width="1004.8" height="15" fill="#57e857" rx="2" ry="2"/>
<text x="28.5" y="206.0">RequestHandler0_get.handleRequest</text>
</g>
<g>
<title>one/nio/http/HttpSession.sendResponse (17 samples, 7.42%)</title><rect x="25.5" y="179.0" width="87.6" height="15" fill="#55e655" rx="2" ry="2"/>
<text x="28.5" y="190.0">one/nio/ht..</text>
</g>
<g>
<title>one/nio/http/HttpSession.writeResponse (17 samples, 7.42%)</title><rect x="25.5" y="163.0" width="87.6" height="15" fill="#53e453" rx="2" ry="2"/>
<text x="28.5" y="174.0">one/nio/ht..</text>
</g>
<g>
<title>one/nio/http/Response.toBytes (16 samples, 6.99%)</title><rect x="25.5" y="147.0" width="82.4" height="15" fill="#53e453" rx="2" ry="2"/>
<text x="28.5" y="158.0">one/nio/h..</text>
</g>
<g>
<title>one/nio/util/ByteArrayBuilder.&lt;init&gt; (16 samples, 6.99%)</title><rect x="25.5" y="131.0" width="82.4" height="15" fill="#61f261" rx="2" ry="2"/>
<text x="28.5" y="142.0">one/nio/u..</text>
</g>
<g>
<title>byte[] (16 samples, 6.99%)</title><rect x="25.5" y="115.0" width="82.4" height="15" fill="#51bfbf" rx="2" ry="2"/>
<text x="28.5" y="126.0">byte[]</text>
</g>
<g>
<title>one/nio/net/Session.write (1 samples, 0.44%)</title><rect x="107.9" y="147.0" width="5.2" height="15" fill="#52e352" rx="2" ry="2"/>
<text x="110.9" y="158.0"></text>
</g>
<g>
<title>one.nio.net.Session$ArrayQueueItem (1 samples, 0.44%)</title><rect x="107.9" y="131.0" width="5.2" height="15" fill="#54c2c2" rx="2" ry="2"/>
<text x="110.9" y="142.0"></text>
</g>
<g>
<title>one/nio/http/Request.getParameter (5 samples, 2.18%)</title><rect x="113.1" y="179.0" width="25.7" height="15" fill="#67f867" rx="2" ry="2"/>
<text x="116.1" y="190.0">o..</text>
</g>
<g>
<title>java/lang/String.substring (5 samples, 2.18%)</title><rect x="113.1" y="163.0" width="25.7" height="15" fill="#6dfe6d" rx="2" ry="2"/>
<text x="116.1" y="174.0">j..</text>
</g>
<g>
<title>java/lang/StringLatin1.newString (5 samples, 2.18%)</title><rect x="113.1" y="147.0" width="25.7" height="15" fill="#57e857" rx="2" ry="2"/>
<text x="116.1" y="158.0">j..</text>
</g>
<g>
<title>java/util/Arrays.copyOfRange (5 samples, 2.18%)</title><rect x="113.1" y="131.0" width="25.7" height="15" fill="#67f867" rx="2" ry="2"/>
<text x="116.1" y="142.0">j..</text>
</g>
<g>
<title>byte[] (5 samples, 2.18%)</title><rect x="113.1" y="115.0" width="25.7" height="15" fill="#54c2c2" rx="2" ry="2"/>
<text x="116.1" y="126.0">b..</text>
</g>
<g>
<title>ru/mail/polis/service/stasyanoi/CustomServer.get (173 samples, 75.55%)</title><rect x="138.8" y="179.0" width="891.5" height="15" fill="#60f160" rx="2" ry="2"/>
<text x="141.8" y="190.0">ru/mail/polis/service/stasyanoi/CustomServer.get</text>
</g>
<g>
<title>java/lang/String.getBytes (2 samples, 0.87%)</title><rect x="138.8" y="163.0" width="10.3" height="15" fill="#68f968" rx="2" ry="2"/>
<text x="141.8" y="174.0"></text>
</g>
<g>
<title>java/lang/StringCoding.encode (2 samples, 0.87%)</title><rect x="138.8" y="147.0" width="10.3" height="15" fill="#5ced5c" rx="2" ry="2"/>
<text x="141.8" y="158.0"></text>
</g>
<g>
<title>java/lang/StringCoding.encodeUTF8 (2 samples, 0.87%)</title><rect x="138.8" y="131.0" width="10.3" height="15" fill="#61f261" rx="2" ry="2"/>
<text x="141.8" y="142.0"></text>
</g>
<g>
<title>java/util/Arrays.copyOf (2 samples, 0.87%)</title><rect x="138.8" y="115.0" width="10.3" height="15" fill="#5dee5d" rx="2" ry="2"/>
<text x="141.8" y="126.0"></text>
</g>
<g>
<title>byte[] (2 samples, 0.87%)</title><rect x="138.8" y="99.0" width="10.3" height="15" fill="#6ad8d8" rx="2" ry="2"/>
<text x="141.8" y="110.0"></text>
</g>
<g>
<title>one/nio/http/Response.ok (17 samples, 7.42%)</title><rect x="149.1" y="163.0" width="87.6" height="15" fill="#59ea59" rx="2" ry="2"/>
<text x="152.1" y="174.0">one/nio/ht..</text>
</g>
<g>
<title>one.nio.http.Response (6 samples, 2.62%)</title><rect x="149.1" y="147.0" width="30.9" height="15" fill="#51bfbf" rx="2" ry="2"/>
<text x="152.1" y="158.0">on..</text>
</g>
<g>
<title>one/nio/http/Response.&lt;init&gt; (11 samples, 4.80%)</title><rect x="180.0" y="147.0" width="56.7" height="15" fill="#54e554" rx="2" ry="2"/>
<text x="183.0" y="158.0">one/ni..</text>
</g>
<g>
<title>byte[] (8 samples, 3.49%)</title><rect x="180.0" y="131.0" width="41.3" height="15" fill="#66d4d4" rx="2" ry="2"/>
<text x="183.0" y="142.0">byt..</text>
</g>
<g>
<title>java.lang.String[] (2 samples, 0.87%)</title><rect x="221.3" y="131.0" width="10.3" height="15" fill="#5ac8c8" rx="2" ry="2"/>
<text x="224.3" y="142.0"></text>
</g>
<g>
<title>java.lang.String (1 samples, 0.44%)</title><rect x="231.6" y="131.0" width="5.1" height="15" fill="#65d3d3" rx="2" ry="2"/>
<text x="234.6" y="142.0"></text>
</g>
<g>
<title>ru/mail/polis/dao/stasyanoi/DAOImpl.get (148 samples, 64.63%)</title><rect x="236.7" y="163.0" width="762.6" height="15" fill="#68f968" rx="2" ry="2"/>
<text x="239.7" y="174.0">ru/mail/polis/dao/stasyanoi/DAOImpl.get</text>
</g>
<g>
<title>org/rocksdb/RocksDB.get (147 samples, 64.19%)</title><rect x="236.7" y="147.0" width="757.5" height="15" fill="#68f968" rx="2" ry="2"/>
<text x="239.7" y="158.0">org/rocksdb/RocksDB.get</text>
</g>
<g>
<title>org/rocksdb/RocksDB.get (147 samples, 64.19%)</title><rect x="236.7" y="131.0" width="757.5" height="15" fill="#5bec5b" rx="2" ry="2"/>
<text x="239.7" y="142.0">org/rocksdb/RocksDB.get</text>
</g>
<g>
<title>byte[] (4 samples, 1.75%)</title><rect x="236.7" y="115.0" width="20.6" height="15" fill="#64d2d2" rx="2" ry="2"/>
<text x="239.7" y="126.0"></text>
</g>
<g>
<title>ru/mail/polis/dao/stasyanoi/ComparatorImpl.compare (143 samples, 62.45%)</title><rect x="257.3" y="115.0" width="736.9" height="15" fill="#54e554" rx="2" ry="2"/>
<text x="260.3" y="126.0">ru/mail/polis/dao/stasyanoi/ComparatorImpl.compare</text>
</g>
<g>
<title>ru/mail/polis/dao/stasyanoi/ComparatorImpl.compare (143 samples, 62.45%)</title><rect x="257.3" y="99.0" width="736.9" height="15" fill="#5bec5b" rx="2" ry="2"/>
<text x="260.3" y="110.0">ru/mail/polis/dao/stasyanoi/ComparatorImpl.compare</text>
</g>
<g>
<title>org/rocksdb/AbstractSlice.data (143 samples, 62.45%)</title><rect x="257.3" y="83.0" width="736.9" height="15" fill="#6cfd6c" rx="2" ry="2"/>
<text x="260.3" y="94.0">org/rocksdb/AbstractSlice.data</text>
</g>
<g>
<title>org/rocksdb/Slice.data0 (143 samples, 62.45%)</title><rect x="257.3" y="67.0" width="736.9" height="15" fill="#5aeb5a" rx="2" ry="2"/>
<text x="260.3" y="78.0">org/rocksdb/Slice.data0</text>
</g>
<g>
<title>org/rocksdb/Slice.data0 (143 samples, 62.45%)</title><rect x="257.3" y="51.0" width="736.9" height="15" fill="#5ff05f" rx="2" ry="2"/>
<text x="260.3" y="62.0">org/rocksdb/Slice.data0</text>
</g>
<g>
<title>byte[] (143 samples, 62.45%)</title><rect x="257.3" y="35.0" width="736.9" height="15" fill="#51bfbf" rx="2" ry="2"/>
<text x="260.3" y="46.0">byte[]</text>
</g>
<g>
<title>ru/mail/polis/service/stasyanoi/CustomServer.toBytes (1 samples, 0.44%)</title><rect x="994.2" y="147.0" width="5.1" height="15" fill="#6bfc6b" rx="2" ry="2"/>
<text x="997.2" y="158.0"></text>
</g>
<g>
<title>byte[] (1 samples, 0.44%)</title><rect x="994.2" y="131.0" width="5.1" height="15" fill="#61cfcf" rx="2" ry="2"/>
<text x="997.2" y="142.0"></text>
</g>
<g>
<title>ru/mail/polis/service/stasyanoi/CustomServer.toBytes (6 samples, 2.62%)</title><rect x="999.3" y="163.0" width="31.0" height="15" fill="#53e453" rx="2" ry="2"/>
<text x="1002.3" y="174.0">ru..</text>
</g>
<g>
<title>byte[] (6 samples, 2.62%)</title><rect x="999.3" y="147.0" width="31.0" height="15" fill="#52c0c0" rx="2" ry="2"/>
<text x="1002.3" y="158.0">by..</text>
</g>
<g>
<title>one/nio/http/Request.getPath (6 samples, 2.62%)</title><rect x="1030.3" y="195.0" width="30.9" height="15" fill="#5aeb5a" rx="2" ry="2"/>
<text x="1033.3" y="206.0">on..</text>
</g>
<g>
<title>java/lang/String.substring (6 samples, 2.62%)</title><rect x="1030.3" y="179.0" width="30.9" height="15" fill="#53e453" rx="2" ry="2"/>
<text x="1033.3" y="190.0">ja..</text>
</g>
<g>
<title>java/lang/StringLatin1.newString (6 samples, 2.62%)</title><rect x="1030.3" y="163.0" width="30.9" height="15" fill="#59ea59" rx="2" ry="2"/>
<text x="1033.3" y="174.0">ja..</text>
</g>
<g>
<title>java.lang.String (4 samples, 1.75%)</title><rect x="1030.3" y="147.0" width="20.6" height="15" fill="#53c1c1" rx="2" ry="2"/>
<text x="1033.3" y="158.0"></text>
</g>
<g>
<title>java/util/Arrays.copyOfRange (2 samples, 0.87%)</title><rect x="1050.9" y="147.0" width="10.3" height="15" fill="#57e857" rx="2" ry="2"/>
<text x="1053.9" y="158.0"></text>
</g>
<g>
<title>byte[] (2 samples, 0.87%)</title><rect x="1050.9" y="131.0" width="10.3" height="15" fill="#6ad8d8" rx="2" ry="2"/>
<text x="1053.9" y="142.0"></text>
</g>
<g>
<title>one/nio/http/HttpSession.parseRequest (17 samples, 7.42%)</title><rect x="1061.2" y="227.0" width="87.6" height="15" fill="#6bfc6b" rx="2" ry="2"/>
<text x="1064.2" y="238.0">one/nio/ht..</text>
</g>
<g>
<title>one.nio.http.Request (6 samples, 2.62%)</title><rect x="1061.2" y="211.0" width="30.9" height="15" fill="#64d2d2" rx="2" ry="2"/>
<text x="1064.2" y="222.0">on..</text>
</g>
<g>
<title>one/nio/http/Request.&lt;init&gt; (4 samples, 1.75%)</title><rect x="1092.1" y="211.0" width="20.6" height="15" fill="#5eef5e" rx="2" ry="2"/>
<text x="1095.1" y="222.0"></text>
</g>
<g>
<title>java.lang.String[] (4 samples, 1.75%)</title><rect x="1092.1" y="195.0" width="20.6" height="15" fill="#5ac8c8" rx="2" ry="2"/>
<text x="1095.1" y="206.0"></text>
</g>
<g>
<title>one/nio/util/Utf8.read (7 samples, 3.06%)</title><rect x="1112.7" y="211.0" width="36.1" height="15" fill="#60f160" rx="2" ry="2"/>
<text x="1115.7" y="222.0">one..</text>
</g>
<g>
<title>one/nio/util/Utf8.read (7 samples, 3.06%)</title><rect x="1112.7" y="195.0" width="36.1" height="15" fill="#68f968" rx="2" ry="2"/>
<text x="1115.7" y="206.0">one..</text>
</g>
<g>
<title>char[] (2 samples, 0.87%)</title><rect x="1112.7" y="179.0" width="10.3" height="15" fill="#5bc9c9" rx="2" ry="2"/>
<text x="1115.7" y="190.0"></text>
</g>
<g>
<title>java.lang.String (2 samples, 0.87%)</title><rect x="1123.0" y="179.0" width="10.3" height="15" fill="#65d3d3" rx="2" ry="2"/>
<text x="1126.0" y="190.0"></text>
</g>
<g>
<title>java/lang/String.&lt;init&gt; (3 samples, 1.31%)</title><rect x="1133.3" y="179.0" width="15.5" height="15" fill="#60f160" rx="2" ry="2"/>
<text x="1136.3" y="190.0"></text>
</g>
<g>
<title>java/lang/String.&lt;init&gt; (3 samples, 1.31%)</title><rect x="1133.3" y="163.0" width="15.5" height="15" fill="#66f766" rx="2" ry="2"/>
<text x="1136.3" y="174.0"></text>
</g>
<g>
<title>java/lang/StringUTF16.compress (3 samples, 1.31%)</title><rect x="1133.3" y="147.0" width="15.5" height="15" fill="#5dee5d" rx="2" ry="2"/>
<text x="1136.3" y="158.0"></text>
</g>
<g>
<title>byte[] (3 samples, 1.31%)</title><rect x="1133.3" y="131.0" width="15.5" height="15" fill="#5bc9c9" rx="2" ry="2"/>
<text x="1136.3" y="142.0"></text>
</g>
<g>
<title>one/nio/util/Utf8.read (8 samples, 3.49%)</title><rect x="1148.8" y="227.0" width="41.2" height="15" fill="#60f160" rx="2" ry="2"/>
<text x="1151.8" y="238.0">one..</text>
</g>
<g>
<title>one/nio/util/Utf8.read (8 samples, 3.49%)</title><rect x="1148.8" y="211.0" width="41.2" height="15" fill="#69fa69" rx="2" ry="2"/>
<text x="1151.8" y="222.0">one..</text>
</g>
<g>
<title>char[] (4 samples, 1.75%)</title><rect x="1148.8" y="195.0" width="20.6" height="15" fill="#52c0c0" rx="2" ry="2"/>
<text x="1151.8" y="206.0"></text>
</g>
<g>
<title>java.lang.String (2 samples, 0.87%)</title><rect x="1169.4" y="195.0" width="10.3" height="15" fill="#65d3d3" rx="2" ry="2"/>
<text x="1172.4" y="206.0"></text>
</g>
<g>
<title>java/lang/String.&lt;init&gt; (2 samples, 0.87%)</title><rect x="1179.7" y="195.0" width="10.3" height="15" fill="#56e756" rx="2" ry="2"/>
<text x="1182.7" y="206.0"></text>
</g>
<g>
<title>java/lang/String.&lt;init&gt; (2 samples, 0.87%)</title><rect x="1179.7" y="179.0" width="10.3" height="15" fill="#50e150" rx="2" ry="2"/>
<text x="1182.7" y="190.0"></text>
</g>
<g>
<title>java/lang/StringUTF16.compress (2 samples, 0.87%)</title><rect x="1179.7" y="163.0" width="10.3" height="15" fill="#51e251" rx="2" ry="2"/>
<text x="1182.7" y="174.0"></text>
</g>
<g>
<title>byte[] (2 samples, 0.87%)</title><rect x="1179.7" y="147.0" width="10.3" height="15" fill="#65d3d3" rx="2" ry="2"/>
<text x="1182.7" y="158.0"></text>
</g>
</g>
</svg>
