<?xml version="1.0" standalone="no"?>
<!DOCTYPE svg PUBLIC "-//W3C//DTD SVG 1.1//EN" "http://www.w3.org/Graphics/SVG/1.1/DTD/svg11.dtd">
<svg version="1.1" width="1200" height="582" onload="init(evt)" viewBox="0 0 1200 582" xmlns="http://www.w3.org/2000/svg" xmlns:xlink="http://www.w3.org/1999/xlink">
<style type="text/css">
	text { font-family:Verdana; font-size:12px; fill:rgb(0,0,0); }
	#search { opacity:0.1; cursor:pointer; }
	#search:hover, #search.show { opacity:1; }
	#subtitle { text-anchor:middle; font-color:rgb(160,160,160); }
	#title { text-anchor:middle; font-size:17px}
	#unzoom { cursor:pointer; }
	#frames > *:hover { stroke:black; stroke-width:0.5; cursor:pointer; }
	.hide { display:none; }
	.parent { opacity:0.5; }
</style>
<script type="text/ecmascript">
<![CDATA[
	"use strict";
	var details, searchbtn, unzoombtn, matchedtxt, svg, searching;
	function init(evt) {
		details = document.getElementById("details").firstChild;
		searchbtn = document.getElementById("search");
		unzoombtn = document.getElementById("unzoom");
		matchedtxt = document.getElementById("matched");
		svg = document.getElementsByTagName("svg")[0];
		searching = 0;
	}

	window.addEventListener("click", function(e) {
		var target = find_group(e.target);
		if (target) {
			if (target.nodeName == "a") {
				if (e.ctrlKey === false) return;
				e.preventDefault();
			}
			if (target.classList.contains("parent")) unzoom();
			zoom(target);
		}
		else if (e.target.id == "unzoom") unzoom();
		else if (e.target.id == "search") search_prompt();
	}, false)

	// mouse-over for info
	// show
	window.addEventListener("mouseover", function(e) {
		var target = find_group(e.target);
		if (target) details.nodeValue = "Function: " + g_to_text(target);
	}, false)

	// clear
	window.addEventListener("mouseout", function(e) {
		var target = find_group(e.target);
		if (target) details.nodeValue = ' ';
	}, false)

	// ctrl-F for search
	window.addEventListener("keydown",function (e) {
		if (e.keyCode === 114 || (e.ctrlKey && e.keyCode === 70)) {
			e.preventDefault();
			search_prompt();
		}
	}, false)

	// functions
	function find_child(node, selector) {
		var children = node.querySelectorAll(selector);
		if (children.length) return children[0];
		return;
	}
	function find_group(node) {
		var parent = node.parentElement;
		if (!parent) return;
		if (parent.id == "frames") return node;
		return find_group(parent);
	}
	function orig_save(e, attr, val) {
		if (e.attributes["_orig_" + attr] != undefined) return;
		if (e.attributes[attr] == undefined) return;
		if (val == undefined) val = e.attributes[attr].value;
		e.setAttribute("_orig_" + attr, val);
	}
	function orig_load(e, attr) {
		if (e.attributes["_orig_"+attr] == undefined) return;
		e.attributes[attr].value = e.attributes["_orig_" + attr].value;
		e.removeAttribute("_orig_"+attr);
	}
	function g_to_text(e) {
		var text = find_child(e, "title").firstChild.nodeValue;
		return (text)
	}
	function g_to_func(e) {
		var func = g_to_text(e);
		// if there's any manipulation we want to do to the function
		// name before it's searched, do it here before returning.
		return (func);
	}
	function update_text(e) {
		var r = find_child(e, "rect");
		var t = find_child(e, "text");
		var w = parseFloat(r.attributes.width.value) -3;
		var txt = find_child(e, "title").textContent.replace(/\([^(]*\)$/,"");
		t.attributes.x.value = parseFloat(r.attributes.x.value) + 3;

		// Smaller than this size won't fit anything
		if (w < 2 * 12 * 0.59) {
			t.textContent = "";
			return;
		}

		t.textContent = txt;
		// Fit in full text width
		if (/^ *$/.test(txt) || t.getSubStringLength(0, txt.length) < w)
			return;

		for (var x = txt.length - 2; x > 0; x--) {
			if (t.getSubStringLength(0, x + 2) <= w) {
				t.textContent = txt.substring(0, x) + "..";
				return;
			}
		}
		t.textContent = "";
	}

	// zoom
	function zoom_reset(e) {
		if (e.attributes != undefined) {
			orig_load(e, "x");
			orig_load(e, "width");
		}
		if (e.childNodes == undefined) return;
		for (var i = 0, c = e.childNodes; i < c.length; i++) {
			zoom_reset(c[i]);
		}
	}
	function zoom_child(e, x, ratio) {
		if (e.attributes != undefined) {
			if (e.attributes.x != undefined) {
				orig_save(e, "x");
				e.attributes.x.value = (parseFloat(e.attributes.x.value) - x - 10) * ratio + 10;
				if (e.tagName == "text")
					e.attributes.x.value = find_child(e.parentNode, "rect[x]").attributes.x.value + 3;
			}
			if (e.attributes.width != undefined) {
				orig_save(e, "width");
				e.attributes.width.value = parseFloat(e.attributes.width.value) * ratio;
			}
		}

		if (e.childNodes == undefined) return;
		for (var i = 0, c = e.childNodes; i < c.length; i++) {
			zoom_child(c[i], x - 10, ratio);
		}
	}
	function zoom_parent(e) {
		if (e.attributes) {
			if (e.attributes.x != undefined) {
				orig_save(e, "x");
				e.attributes.x.value = 10;
			}
			if (e.attributes.width != undefined) {
				orig_save(e, "width");
				e.attributes.width.value = parseInt(svg.width.baseVal.value) - (10 * 2);
			}
		}
		if (e.childNodes == undefined) return;
		for (var i = 0, c = e.childNodes; i < c.length; i++) {
			zoom_parent(c[i]);
		}
	}
	function zoom(node) {
		var attr = find_child(node, "rect").attributes;
		var width = parseFloat(attr.width.value);
		var xmin = parseFloat(attr.x.value);
		var xmax = parseFloat(xmin + width);
		var ymin = parseFloat(attr.y.value);
		var ratio = (svg.width.baseVal.value - 2 * 10) / width;

		// XXX: Workaround for JavaScript float issues (fix me)
		var fudge = 0.0001;

		unzoombtn.classList.remove("hide");

		var el = document.getElementById("frames").children;
		for (var i = 0; i < el.length; i++) {
			var e = el[i];
			var a = find_child(e, "rect").attributes;
			var ex = parseFloat(a.x.value);
			var ew = parseFloat(a.width.value);
			var upstack;
			// Is it an ancestor
			if (0 == 0) {
				upstack = parseFloat(a.y.value) > ymin;
			} else {
				upstack = parseFloat(a.y.value) < ymin;
			}
			if (upstack) {
				// Direct ancestor
				if (ex <= xmin && (ex+ew+fudge) >= xmax) {
					e.classList.add("parent");
					zoom_parent(e);
					update_text(e);
				}
				// not in current path
				else
					e.classList.add("hide");
			}
			// Children maybe
			else {
				// no common path
				if (ex < xmin || ex + fudge >= xmax) {
					e.classList.add("hide");
				}
				else {
					zoom_child(e, xmin, ratio);
					update_text(e);
				}
			}
		}
	}
	function unzoom() {
		unzoombtn.classList.add("hide");
		var el = document.getElementById("frames").children;
		for(var i = 0; i < el.length; i++) {
			el[i].classList.remove("parent");
			el[i].classList.remove("hide");
			zoom_reset(el[i]);
			update_text(el[i]);
		}
	}

	// search
	function reset_search() {
		var el = document.querySelectorAll("#frames rect");
		for (var i = 0; i < el.length; i++) {
			orig_load(el[i], "fill")
		}
	}
	function search_prompt() {
		if (!searching) {
			var term = prompt("Enter a search term (regexp " +
			    "allowed, eg: ^ext4_)", "");
			if (term != null) {
				search(term)
			}
		} else {
			reset_search();
			searching = 0;
			searchbtn.classList.remove("show");
			searchbtn.firstChild.nodeValue = "Search"
			matchedtxt.classList.add("hide");
			matchedtxt.firstChild.nodeValue = ""
		}
	}
	function search(term) {
		var re = new RegExp(term);
		var el = document.getElementById("frames").children;
		var matches = new Object();
		var maxwidth = 0;
		for (var i = 0; i < el.length; i++) {
			var e = el[i];
			var func = g_to_func(e);
			var rect = find_child(e, "rect");
			if (func == null || rect == null)
				continue;

			// Save max width. Only works as we have a root frame
			var w = parseFloat(rect.attributes.width.value);
			if (w > maxwidth)
				maxwidth = w;

			if (func.match(re)) {
				// highlight
				var x = parseFloat(rect.attributes.x.value);
				orig_save(rect, "fill");
				rect.attributes.fill.value = "rgb(230,0,230)";

				// remember matches
				if (matches[x] == undefined) {
					matches[x] = w;
				} else {
					if (w > matches[x]) {
						// overwrite with parent
						matches[x] = w;
					}
				}
				searching = 1;
			}
		}
		if (!searching)
			return;

		searchbtn.classList.add("show");
		searchbtn.firstChild.nodeValue = "Reset Search";

		// calculate percent matched, excluding vertical overlap
		var count = 0;
		var lastx = -1;
		var lastw = 0;
		var keys = Array();
		for (k in matches) {
			if (matches.hasOwnProperty(k))
				keys.push(k);
		}
		// sort the matched frames by their x location
		// ascending, then width descending
		keys.sort(function(a, b){
			return a - b;
		});
		// Step through frames saving only the biggest bottom-up frames
		// thanks to the sort order. This relies on the tree property
		// where children are always smaller than their parents.
		var fudge = 0.0001;	// JavaScript floating point
		for (var k in keys) {
			var x = parseFloat(keys[k]);
			var w = matches[keys[k]];
			if (x >= lastx + lastw - fudge) {
				count += w;
				lastx = x;
				lastw = w;
			}
		}
		// display matched percent
		matchedtxt.classList.remove("hide");
		var pct = 100 * count / maxwidth;
		if (pct != 100) pct = pct.toFixed(1)
		matchedtxt.firstChild.nodeValue = "Matched: " + pct + "%";
	}
]]>
</script>
<rect x="0" y="0" width="100%" height="100%" fill="rgb(240,240,220)"/>
<text id="title" x="600" y="24">Flame Graph</text>
<text id="details" x="10" y="565"> </text>
<text id="unzoom" x="10" y="24" class="hide">Reset Zoom</text>
<text id="search" x="1090" y="24">Search</text>
<text id="matched" x="1090" y="565"> </text>
<g id="frames">
<g>
<title>all (33,051 samples, 100.00%)</title><rect x="10.0" y="531.0" width="1180.0" height="15" fill="#e25b5b" rx="2" ry="2"/>
<text x="13.0" y="542.0">all</text>
</g>
<g>
<title>one/nio/server/SelectorThread.run (33,051 samples, 100.00%)</title><rect x="10.0" y="515.0" width="1180.0" height="15" fill="#52e352" rx="2" ry="2"/>
<text x="13.0" y="526.0">one/nio/server/SelectorThread.run</text>
</g>
<g>
<title>one/nio/net/Session.process (33,051 samples, 100.00%)</title><rect x="10.0" y="499.0" width="1180.0" height="15" fill="#5dee5d" rx="2" ry="2"/>
<text x="13.0" y="510.0">one/nio/net/Session.process</text>
</g>
<g>
<title>one/nio/http/HttpSession.processRead (33,051 samples, 100.00%)</title><rect x="10.0" y="483.0" width="1180.0" height="15" fill="#64f564" rx="2" ry="2"/>
<text x="13.0" y="494.0">one/nio/http/HttpSession.processRead</text>
</g>
<g>
<title>one/nio/http/HttpSession.processHttpBuffer (33,051 samples, 100.00%)</title><rect x="10.0" y="467.0" width="1180.0" height="15" fill="#53e453" rx="2" ry="2"/>
<text x="13.0" y="478.0">one/nio/http/HttpSession.processHttpBuffer</text>
</g>
<g>
<title>one/nio/http/HttpSession.handleParsedRequest (33,051 samples, 100.00%)</title><rect x="10.0" y="451.0" width="1180.0" height="15" fill="#56e756" rx="2" ry="2"/>
<text x="13.0" y="462.0">one/nio/http/HttpSession.handleParsedRequest</text>
</g>
<g>
<title>one/nio/http/HttpServer.handleRequest (33,051 samples, 100.00%)</title><rect x="10.0" y="435.0" width="1180.0" height="15" fill="#6dfe6d" rx="2" ry="2"/>
<text x="13.0" y="446.0">one/nio/http/HttpServer.handleRequest</text>
</g>
<g>
<title>RequestHandler0_get.handleRequest (33,051 samples, 100.00%)</title><rect x="10.0" y="419.0" width="1180.0" height="15" fill="#5eef5e" rx="2" ry="2"/>
<text x="13.0" y="430.0">RequestHandler0_get.handleRequest</text>
</g>
<g>
<title>ru/mail/polis/service/valaubr/HttpService.get (33,051 samples, 100.00%)</title><rect x="10.0" y="403.0" width="1180.0" height="15" fill="#53e453" rx="2" ry="2"/>
<text x="13.0" y="414.0">ru/mail/polis/service/valaubr/HttpService.get</text>
</g>
<g>
<title>ru/mail/polis/dao/DAO.get (33,051 samples, 100.00%)</title><rect x="10.0" y="387.0" width="1180.0" height="15" fill="#5ced5c" rx="2" ry="2"/>
<text x="13.0" y="398.0">ru/mail/polis/dao/DAO.get</text>
</g>
<g>
<title>com/google/common/collect/TransformedIterator.hasNext (559 samples, 1.69%)</title><rect x="10.0" y="371.0" width="20.0" height="15" fill="#66f766" rx="2" ry="2"/>
<text x="13.0" y="382.0"></text>
</g>
<g>
<title>com/google/common/collect/AbstractIterator.hasNext (559 samples, 1.69%)</title><rect x="10.0" y="355.0" width="20.0" height="15" fill="#5eef5e" rx="2" ry="2"/>
<text x="13.0" y="366.0"></text>
</g>
<g>
<title>com/google/common/collect/AbstractIterator.tryToComputeNext (559 samples, 1.69%)</title><rect x="10.0" y="339.0" width="20.0" height="15" fill="#6dfe6d" rx="2" ry="2"/>
<text x="13.0" y="350.0"></text>
</g>
<g>
<title>com/google/common/collect/Iterators$5.computeNext (559 samples, 1.69%)</title><rect x="10.0" y="323.0" width="20.0" height="15" fill="#6bfc6b" rx="2" ry="2"/>
<text x="13.0" y="334.0"></text>
</g>
<g>
<title>ru/mail/polis/dao/Iters$CollapseEqualsIterator.next (559 samples, 1.69%)</title><rect x="10.0" y="307.0" width="20.0" height="15" fill="#5ced5c" rx="2" ry="2"/>
<text x="13.0" y="318.0"></text>
</g>
<g>
<title>com/google/common/collect/Iterators$MergingIterator.next (559 samples, 1.69%)</title><rect x="10.0" y="291.0" width="20.0" height="15" fill="#69fa69" rx="2" ry="2"/>
<text x="13.0" y="302.0"></text>
</g>
<g>
<title>java/util/PriorityQueue.add (559 samples, 1.69%)</title><rect x="10.0" y="275.0" width="20.0" height="15" fill="#57e857" rx="2" ry="2"/>
<text x="13.0" y="286.0"></text>
</g>
<g>
<title>java/util/PriorityQueue.offer (559 samples, 1.69%)</title><rect x="10.0" y="259.0" width="20.0" height="15" fill="#66f766" rx="2" ry="2"/>
<text x="13.0" y="270.0"></text>
</g>
<g>
<title>java/util/PriorityQueue.siftUp (559 samples, 1.69%)</title><rect x="10.0" y="243.0" width="20.0" height="15" fill="#65f665" rx="2" ry="2"/>
<text x="13.0" y="254.0"></text>
</g>
<g>
<title>java/util/PriorityQueue.siftUpUsingComparator (559 samples, 1.69%)</title><rect x="10.0" y="227.0" width="20.0" height="15" fill="#64f564" rx="2" ry="2"/>
<text x="13.0" y="238.0"></text>
</g>
<g>
<title>com/google/common/collect/Iterators$MergingIterator$1.compare (559 samples, 1.69%)</title><rect x="10.0" y="211.0" width="20.0" height="15" fill="#54e554" rx="2" ry="2"/>
<text x="13.0" y="222.0"></text>
</g>
<g>
<title>com/google/common/collect/Iterators$MergingIterator$1.compare (559 samples, 1.69%)</title><rect x="10.0" y="195.0" width="20.0" height="15" fill="#67f867" rx="2" ry="2"/>
<text x="13.0" y="206.0"></text>
</g>
<g>
<title>com/google/common/collect/Iterators$PeekingImpl.peek (559 samples, 1.69%)</title><rect x="10.0" y="179.0" width="20.0" height="15" fill="#5dee5d" rx="2" ry="2"/>
<text x="13.0" y="190.0"></text>
</g>
<g>
<title>ru/mail/polis/dao/valaubr/SSTable$1.next (559 samples, 1.69%)</title><rect x="10.0" y="163.0" width="20.0" height="15" fill="#53e453" rx="2" ry="2"/>
<text x="13.0" y="174.0"></text>
</g>
<g>
<title>ru/mail/polis/dao/valaubr/SSTable$1.next (559 samples, 1.69%)</title><rect x="10.0" y="147.0" width="20.0" height="15" fill="#50e150" rx="2" ry="2"/>
<text x="13.0" y="158.0"></text>
</g>
<g>
<title>ru/mail/polis/dao/valaubr/SSTable.getCell (559 samples, 1.69%)</title><rect x="10.0" y="131.0" width="20.0" height="15" fill="#6bfc6b" rx="2" ry="2"/>
<text x="13.0" y="142.0"></text>
</g>
<g>
<title>ru/mail/polis/dao/valaubr/SSTable.getKey (234 samples, 0.71%)</title><rect x="10.0" y="115.0" width="8.4" height="15" fill="#67f867" rx="2" ry="2"/>
<text x="13.0" y="126.0"></text>
</g>
<g>
<title>ru/mail/polis/dao/valaubr/SSTable.getOffset (84 samples, 0.25%)</title><rect x="10.0" y="99.0" width="3.0" height="15" fill="#64f564" rx="2" ry="2"/>
<text x="13.0" y="110.0"></text>
</g>
<g>
<title>sun/nio/ch/FileChannelImpl.read (84 samples, 0.25%)</title><rect x="10.0" y="83.0" width="3.0" height="15" fill="#6afb6a" rx="2" ry="2"/>
<text x="13.0" y="94.0"></text>
</g>
<g>
<title>sun/nio/ch/FileChannelImpl.readInternal (84 samples, 0.25%)</title><rect x="10.0" y="67.0" width="3.0" height="15" fill="#5dee5d" rx="2" ry="2"/>
<text x="13.0" y="78.0"></text>
</g>
<g>
<title>sun/nio/ch/NativeThreadSet.add (29 samples, 0.09%)</title><rect x="10.0" y="51.0" width="1.0" height="15" fill="#64f564" rx="2" ry="2"/>
<text x="13.0" y="62.0"></text>
</g>
<g>
<title>sun.nio.ch.NativeThreadSet (29 samples, 0.09%)</title><rect x="10.0" y="35.0" width="1.0" height="15" fill="#6bd9d9" rx="2" ry="2"/>
<text x="13.0" y="46.0"></text>
</g>
<g>
<title>sun/nio/ch/NativeThreadSet.remove (55 samples, 0.17%)</title><rect x="11.0" y="51.0" width="2.0" height="15" fill="#60f160" rx="2" ry="2"/>
<text x="14.0" y="62.0"></text>
</g>
<g>
<title>sun.nio.ch.NativeThreadSet (55 samples, 0.17%)</title><rect x="11.0" y="35.0" width="2.0" height="15" fill="#53c1c1" rx="2" ry="2"/>
<text x="14.0" y="46.0"></text>
</g>
<g>
<title>sun/nio/ch/FileChannelImpl.read (150 samples, 0.45%)</title><rect x="13.0" y="99.0" width="5.4" height="15" fill="#62f362" rx="2" ry="2"/>
<text x="16.0" y="110.0"></text>
</g>
<g>
<title>sun/nio/ch/FileChannelImpl.readInternal (150 samples, 0.45%)</title><rect x="13.0" y="83.0" width="5.4" height="15" fill="#64f564" rx="2" ry="2"/>
<text x="16.0" y="94.0"></text>
</g>
<g>
<title>sun/nio/ch/NativeThreadSet.add (23 samples, 0.07%)</title><rect x="13.0" y="67.0" width="0.8" height="15" fill="#5aeb5a" rx="2" ry="2"/>
<text x="16.0" y="78.0"></text>
</g>
<g>
<title>sun.nio.ch.NativeThreadSet (23 samples, 0.07%)</title><rect x="13.0" y="51.0" width="0.8" height="15" fill="#61cfcf" rx="2" ry="2"/>
<text x="16.0" y="62.0"></text>
</g>
<g>
<title>sun/nio/ch/NativeThreadSet.remove (127 samples, 0.38%)</title><rect x="13.8" y="67.0" width="4.6" height="15" fill="#54e554" rx="2" ry="2"/>
<text x="16.8" y="78.0"></text>
</g>
<g>
<title>sun.nio.ch.NativeThreadSet (127 samples, 0.38%)</title><rect x="13.8" y="51.0" width="4.6" height="15" fill="#5dcbcb" rx="2" ry="2"/>
<text x="16.8" y="62.0"></text>
</g>
<g>
<title>ru/mail/polis/dao/valaubr/SSTable.getOffset (100 samples, 0.30%)</title><rect x="18.4" y="115.0" width="3.5" height="15" fill="#50e150" rx="2" ry="2"/>
<text x="21.4" y="126.0"></text>
</g>
<g>
<title>sun/nio/ch/FileChannelImpl.read (100 samples, 0.30%)</title><rect x="18.4" y="99.0" width="3.5" height="15" fill="#6bfc6b" rx="2" ry="2"/>
<text x="21.4" y="110.0"></text>
</g>
<g>
<title>sun/nio/ch/FileChannelImpl.readInternal (100 samples, 0.30%)</title><rect x="18.4" y="83.0" width="3.5" height="15" fill="#6cfd6c" rx="2" ry="2"/>
<text x="21.4" y="94.0"></text>
</g>
<g>
<title>sun/nio/ch/NativeThreadSet.add (81 samples, 0.25%)</title><rect x="18.4" y="67.0" width="2.8" height="15" fill="#6dfe6d" rx="2" ry="2"/>
<text x="21.4" y="78.0"></text>
</g>
<g>
<title>sun.nio.ch.NativeThreadSet (81 samples, 0.25%)</title><rect x="18.4" y="51.0" width="2.8" height="15" fill="#68d6d6" rx="2" ry="2"/>
<text x="21.4" y="62.0"></text>
</g>
<g>
<title>sun/nio/ch/NativeThreadSet.remove (19 samples, 0.06%)</title><rect x="21.2" y="67.0" width="0.7" height="15" fill="#5bec5b" rx="2" ry="2"/>
<text x="24.2" y="78.0"></text>
</g>
<g>
<title>sun.nio.ch.NativeThreadSet (19 samples, 0.06%)</title><rect x="21.2" y="51.0" width="0.7" height="15" fill="#68d6d6" rx="2" ry="2"/>
<text x="24.2" y="62.0"></text>
</g>
<g>
<title>sun/nio/ch/FileChannelImpl.read (225 samples, 0.68%)</title><rect x="21.9" y="115.0" width="8.1" height="15" fill="#51e251" rx="2" ry="2"/>
<text x="24.9" y="126.0"></text>
</g>
<g>
<title>sun/nio/ch/FileChannelImpl.readInternal (225 samples, 0.68%)</title><rect x="21.9" y="99.0" width="8.1" height="15" fill="#53e453" rx="2" ry="2"/>
<text x="24.9" y="110.0"></text>
</g>
<g>
<title>sun/nio/ch/NativeThreadSet.add (16 samples, 0.05%)</title><rect x="21.9" y="83.0" width="0.6" height="15" fill="#5ff05f" rx="2" ry="2"/>
<text x="24.9" y="94.0"></text>
</g>
<g>
<title>sun.nio.ch.NativeThreadSet (16 samples, 0.05%)</title><rect x="21.9" y="67.0" width="0.6" height="15" fill="#66d4d4" rx="2" ry="2"/>
<text x="24.9" y="78.0"></text>
</g>
<g>
<title>sun/nio/ch/NativeThreadSet.remove (209 samples, 0.63%)</title><rect x="22.5" y="83.0" width="7.5" height="15" fill="#57e857" rx="2" ry="2"/>
<text x="25.5" y="94.0"></text>
</g>
<g>
<title>sun.nio.ch.NativeThreadSet (209 samples, 0.63%)</title><rect x="22.5" y="67.0" width="7.5" height="15" fill="#59c7c7" rx="2" ry="2"/>
<text x="25.5" y="78.0"></text>
</g>
<g>
<title>ru/mail/polis/dao/valaubr/LsmDAO.iterator (32,492 samples, 98.31%)</title><rect x="30.0" y="371.0" width="1160.0" height="15" fill="#55e655" rx="2" ry="2"/>
<text x="33.0" y="382.0">ru/mail/polis/dao/valaubr/LsmDAO.iterator</text>
</g>
<g>
<title>ru/mail/polis/dao/valaubr/LsmDAO.cellIterator (32,492 samples, 98.31%)</title><rect x="30.0" y="355.0" width="1160.0" height="15" fill="#5aeb5a" rx="2" ry="2"/>
<text x="33.0" y="366.0">ru/mail/polis/dao/valaubr/LsmDAO.cellIterator</text>
</g>
<g>
<title>com/google/common/collect/Iterators.mergeSorted (2,725 samples, 8.24%)</title><rect x="30.0" y="339.0" width="97.2" height="15" fill="#5aeb5a" rx="2" ry="2"/>
<text x="33.0" y="350.0">com/google/..</text>
</g>
<g>
<title>com/google/common/collect/Iterators$MergingIterator.&lt;init&gt; (2,725 samples, 8.24%)</title><rect x="30.0" y="323.0" width="97.2" height="15" fill="#53e453" rx="2" ry="2"/>
<text x="33.0" y="334.0">com/google/..</text>
</g>
<g>
<title>java/util/PriorityQueue.add (2,725 samples, 8.24%)</title><rect x="30.0" y="307.0" width="97.2" height="15" fill="#53e453" rx="2" ry="2"/>
<text x="33.0" y="318.0">java/util/P..</text>
</g>
<g>
<title>java/util/PriorityQueue.offer (2,725 samples, 8.24%)</title><rect x="30.0" y="291.0" width="97.2" height="15" fill="#51e251" rx="2" ry="2"/>
<text x="33.0" y="302.0">java/util/P..</text>
</g>
<g>
<title>java/util/PriorityQueue.siftUp (2,725 samples, 8.24%)</title><rect x="30.0" y="275.0" width="97.2" height="15" fill="#6dfe6d" rx="2" ry="2"/>
<text x="33.0" y="286.0">java/util/P..</text>
</g>
<g>
<title>java/util/PriorityQueue.siftUpUsingComparator (2,725 samples, 8.24%)</title><rect x="30.0" y="259.0" width="97.2" height="15" fill="#61f261" rx="2" ry="2"/>
<text x="33.0" y="270.0">java/util/P..</text>
</g>
<g>
<title>com/google/common/collect/Iterators$MergingIterator$1.compare (2,725 samples, 8.24%)</title><rect x="30.0" y="243.0" width="97.2" height="15" fill="#65f665" rx="2" ry="2"/>
<text x="33.0" y="254.0">com/google/..</text>
</g>
<g>
<title>com/google/common/collect/Iterators$MergingIterator$1.compare (2,725 samples, 8.24%)</title><rect x="30.0" y="227.0" width="97.2" height="15" fill="#6bfc6b" rx="2" ry="2"/>
<text x="33.0" y="238.0">com/google/..</text>
</g>
<g>
<title>com/google/common/collect/Iterators$PeekingImpl.peek (2,725 samples, 8.24%)</title><rect x="30.0" y="211.0" width="97.2" height="15" fill="#54e554" rx="2" ry="2"/>
<text x="33.0" y="222.0">com/google/..</text>
</g>
<g>
<title>ru/mail/polis/dao/valaubr/SSTable$1.next (2,725 samples, 8.24%)</title><rect x="30.0" y="195.0" width="97.2" height="15" fill="#69fa69" rx="2" ry="2"/>
<text x="33.0" y="206.0">ru/mail/pol..</text>
</g>
<g>
<title>ru/mail/polis/dao/valaubr/SSTable$1.next (2,725 samples, 8.24%)</title><rect x="30.0" y="179.0" width="97.2" height="15" fill="#60f160" rx="2" ry="2"/>
<text x="33.0" y="190.0">ru/mail/pol..</text>
</g>
<g>
<title>ru/mail/polis/dao/valaubr/SSTable.getCell (2,725 samples, 8.24%)</title><rect x="30.0" y="163.0" width="97.2" height="15" fill="#68f968" rx="2" ry="2"/>
<text x="33.0" y="174.0">ru/mail/pol..</text>
</g>
<g>
<title>ru/mail/polis/dao/valaubr/SSTable.getKey (1,115 samples, 3.37%)</title><rect x="30.0" y="147.0" width="39.8" height="15" fill="#56e756" rx="2" ry="2"/>
<text x="33.0" y="158.0">ru/..</text>
</g>
<g>
<title>ru/mail/polis/dao/valaubr/SSTable.getOffset (383 samples, 1.16%)</title><rect x="30.0" y="131.0" width="13.6" height="15" fill="#53e453" rx="2" ry="2"/>
<text x="33.0" y="142.0"></text>
</g>
<g>
<title>sun/nio/ch/FileChannelImpl.read (383 samples, 1.16%)</title><rect x="30.0" y="115.0" width="13.6" height="15" fill="#6cfd6c" rx="2" ry="2"/>
<text x="33.0" y="126.0"></text>
</g>
<g>
<title>sun/nio/ch/FileChannelImpl.readInternal (383 samples, 1.16%)</title><rect x="30.0" y="99.0" width="13.6" height="15" fill="#64f564" rx="2" ry="2"/>
<text x="33.0" y="110.0"></text>
</g>
<g>
<title>sun/nio/ch/NativeThreadSet.add (114 samples, 0.34%)</title><rect x="30.0" y="83.0" width="4.0" height="15" fill="#53e453" rx="2" ry="2"/>
<text x="33.0" y="94.0"></text>
</g>
<g>
<title>sun.nio.ch.NativeThreadSet (114 samples, 0.34%)</title><rect x="30.0" y="67.0" width="4.0" height="15" fill="#6ad8d8" rx="2" ry="2"/>
<text x="33.0" y="78.0"></text>
</g>
<g>
<title>sun/nio/ch/NativeThreadSet.remove (269 samples, 0.81%)</title><rect x="34.0" y="83.0" width="9.6" height="15" fill="#62f362" rx="2" ry="2"/>
<text x="37.0" y="94.0"></text>
</g>
<g>
<title>sun.nio.ch.NativeThreadSet (269 samples, 0.81%)</title><rect x="34.0" y="67.0" width="9.6" height="15" fill="#52c0c0" rx="2" ry="2"/>
<text x="37.0" y="78.0"></text>
</g>
<g>
<title>sun/nio/ch/FileChannelImpl.read (732 samples, 2.21%)</title><rect x="43.6" y="131.0" width="26.2" height="15" fill="#64f564" rx="2" ry="2"/>
<text x="46.6" y="142.0">s..</text>
</g>
<g>
<title>sun/nio/ch/FileChannelImpl.readInternal (732 samples, 2.21%)</title><rect x="43.6" y="115.0" width="26.2" height="15" fill="#6dfe6d" rx="2" ry="2"/>
<text x="46.6" y="126.0">s..</text>
</g>
<g>
<title>sun/nio/ch/NativeThreadSet.add (106 samples, 0.32%)</title><rect x="43.6" y="99.0" width="3.8" height="15" fill="#6bfc6b" rx="2" ry="2"/>
<text x="46.6" y="110.0"></text>
</g>
<g>
<title>sun.nio.ch.NativeThreadSet (106 samples, 0.32%)</title><rect x="43.6" y="83.0" width="3.8" height="15" fill="#66d4d4" rx="2" ry="2"/>
<text x="46.6" y="94.0"></text>
</g>
<g>
<title>sun/nio/ch/NativeThreadSet.remove (626 samples, 1.89%)</title><rect x="47.4" y="99.0" width="22.4" height="15" fill="#52e352" rx="2" ry="2"/>
<text x="50.4" y="110.0">s..</text>
</g>
<g>
<title>sun.nio.ch.NativeThreadSet (626 samples, 1.89%)</title><rect x="47.4" y="83.0" width="22.4" height="15" fill="#5dcbcb" rx="2" ry="2"/>
<text x="50.4" y="94.0">s..</text>
</g>
<g>
<title>ru/mail/polis/dao/valaubr/SSTable.getOffset (519 samples, 1.57%)</title><rect x="69.8" y="147.0" width="18.5" height="15" fill="#5eef5e" rx="2" ry="2"/>
<text x="72.8" y="158.0"></text>
</g>
<g>
<title>sun/nio/ch/FileChannelImpl.read (519 samples, 1.57%)</title><rect x="69.8" y="131.0" width="18.5" height="15" fill="#5aeb5a" rx="2" ry="2"/>
<text x="72.8" y="142.0"></text>
</g>
<g>
<title>sun/nio/ch/FileChannelImpl.readInternal (519 samples, 1.57%)</title><rect x="69.8" y="115.0" width="18.5" height="15" fill="#67f867" rx="2" ry="2"/>
<text x="72.8" y="126.0"></text>
</g>
<g>
<title>sun/nio/ch/NativeThreadSet.add (384 samples, 1.16%)</title><rect x="69.8" y="99.0" width="13.7" height="15" fill="#64f564" rx="2" ry="2"/>
<text x="72.8" y="110.0"></text>
</g>
<g>
<title>sun.nio.ch.NativeThreadSet (384 samples, 1.16%)</title><rect x="69.8" y="83.0" width="13.7" height="15" fill="#65d3d3" rx="2" ry="2"/>
<text x="72.8" y="94.0"></text>
</g>
<g>
<title>sun/nio/ch/NativeThreadSet.remove (135 samples, 0.41%)</title><rect x="83.5" y="99.0" width="4.8" height="15" fill="#53e453" rx="2" ry="2"/>
<text x="86.5" y="110.0"></text>
</g>
<g>
<title>sun.nio.ch.NativeThreadSet (135 samples, 0.41%)</title><rect x="83.5" y="83.0" width="4.8" height="15" fill="#67d5d5" rx="2" ry="2"/>
<text x="86.5" y="94.0"></text>
</g>
<g>
<title>sun/nio/ch/FileChannelImpl.read (1,091 samples, 3.30%)</title><rect x="88.3" y="147.0" width="38.9" height="15" fill="#69fa69" rx="2" ry="2"/>
<text x="91.3" y="158.0">sun..</text>
</g>
<g>
<title>sun/nio/ch/FileChannelImpl.readInternal (1,091 samples, 3.30%)</title><rect x="88.3" y="131.0" width="38.9" height="15" fill="#55e655" rx="2" ry="2"/>
<text x="91.3" y="142.0">sun..</text>
</g>
<g>
<title>sun/nio/ch/NativeThreadSet.add (91 samples, 0.28%)</title><rect x="88.3" y="115.0" width="3.2" height="15" fill="#67f867" rx="2" ry="2"/>
<text x="91.3" y="126.0"></text>
</g>
<g>
<title>sun.nio.ch.NativeThreadSet (91 samples, 0.28%)</title><rect x="88.3" y="99.0" width="3.2" height="15" fill="#5ccaca" rx="2" ry="2"/>
<text x="91.3" y="110.0"></text>
</g>
<g>
<title>sun/nio/ch/NativeThreadSet.remove (1,000 samples, 3.03%)</title><rect x="91.5" y="115.0" width="35.7" height="15" fill="#6bfc6b" rx="2" ry="2"/>
<text x="94.5" y="126.0">sun..</text>
</g>
<g>
<title>sun.nio.ch.NativeThreadSet (1,000 samples, 3.03%)</title><rect x="91.5" y="99.0" width="35.7" height="15" fill="#64d2d2" rx="2" ry="2"/>
<text x="94.5" y="110.0">sun..</text>
</g>
<g>
<title>java/lang/Iterable.forEach (29,478 samples, 89.19%)</title><rect x="127.2" y="339.0" width="1052.5" height="15" fill="#61f261" rx="2" ry="2"/>
<text x="130.2" y="350.0">java/lang/Iterable.forEach</text>
</g>
<g>
<title>ru/mail/polis/dao/valaubr/LsmDAO$$Lambda$120/2115114961.accept (29,478 samples, 89.19%)</title><rect x="127.2" y="323.0" width="1052.5" height="15" fill="#67f867" rx="2" ry="2"/>
<text x="130.2" y="334.0">ru/mail/polis/dao/valaubr/LsmDAO$$Lambda$120/2115114961.accept</text>
</g>
<g>
<title>ru/mail/polis/dao/valaubr/LsmDAO.lambda$cellIterator$4 (29,478 samples, 89.19%)</title><rect x="127.2" y="307.0" width="1052.5" height="15" fill="#56e756" rx="2" ry="2"/>
<text x="130.2" y="318.0">ru/mail/polis/dao/valaubr/LsmDAO.lambda$cellIterator$4</text>
</g>
<g>
<title>ru/mail/polis/dao/valaubr/SSTable.iterator (29,478 samples, 89.19%)</title><rect x="127.2" y="291.0" width="1052.5" height="15" fill="#5bec5b" rx="2" ry="2"/>
<text x="130.2" y="302.0">ru/mail/polis/dao/valaubr/SSTable.iterator</text>
</g>
<g>
<title>ru/mail/polis/dao/valaubr/SSTable$1.&lt;init&gt; (29,478 samples, 89.19%)</title><rect x="127.2" y="275.0" width="1052.5" height="15" fill="#6dfe6d" rx="2" ry="2"/>
<text x="130.2" y="286.0">ru/mail/polis/dao/valaubr/SSTable$1.&lt;init&gt;</text>
</g>
<g>
<title>ru/mail/polis/dao/valaubr/SSTable.getPosition (29,478 samples, 89.19%)</title><rect x="127.2" y="259.0" width="1052.5" height="15" fill="#5aeb5a" rx="2" ry="2"/>
<text x="130.2" y="270.0">ru/mail/polis/dao/valaubr/SSTable.getPosition</text>
</g>
<g>
<title>ru/mail/polis/dao/valaubr/SSTable.getKey (29,478 samples, 89.19%)</title><rect x="127.2" y="243.0" width="1052.5" height="15" fill="#5aeb5a" rx="2" ry="2"/>
<text x="130.2" y="254.0">ru/mail/polis/dao/valaubr/SSTable.getKey</text>
</g>
<g>
<title>ru/mail/polis/dao/valaubr/SSTable.getOffset (10,234 samples, 30.96%)</title><rect x="127.2" y="227.0" width="365.4" height="15" fill="#63f463" rx="2" ry="2"/>
<text x="130.2" y="238.0">ru/mail/polis/dao/valaubr/SSTable.getOffset</text>
</g>
<g>
<title>sun/nio/ch/FileChannelImpl.read (10,234 samples, 30.96%)</title><rect x="127.2" y="211.0" width="365.4" height="15" fill="#5eef5e" rx="2" ry="2"/>
<text x="130.2" y="222.0">sun/nio/ch/FileChannelImpl.read</text>
</g>
<g>
<title>sun/nio/ch/FileChannelImpl.readInternal (10,234 samples, 30.96%)</title><rect x="127.2" y="195.0" width="365.4" height="15" fill="#56e756" rx="2" ry="2"/>
<text x="130.2" y="206.0">sun/nio/ch/FileChannelImpl.readInternal</text>
</g>
<g>
<title>sun/nio/ch/NativeThreadSet.add (1,888 samples, 5.71%)</title><rect x="127.2" y="179.0" width="67.5" height="15" fill="#58e958" rx="2" ry="2"/>
<text x="130.2" y="190.0">sun/nio..</text>
</g>
<g>
<title>sun.nio.ch.NativeThreadSet (1,888 samples, 5.71%)</title><rect x="127.2" y="163.0" width="67.5" height="15" fill="#60cece" rx="2" ry="2"/>
<text x="130.2" y="174.0">sun.nio..</text>
</g>
<g>
<title>sun/nio/ch/NativeThreadSet.remove (8,346 samples, 25.25%)</title><rect x="194.7" y="179.0" width="297.9" height="15" fill="#6bfc6b" rx="2" ry="2"/>
<text x="197.7" y="190.0">sun/nio/ch/NativeThreadSet.remove</text>
</g>
<g>
<title>sun.nio.ch.NativeThreadSet (8,346 samples, 25.25%)</title><rect x="194.7" y="163.0" width="297.9" height="15" fill="#58c6c6" rx="2" ry="2"/>
<text x="197.7" y="174.0">sun.nio.ch.NativeThreadSet</text>
</g>
<g>
<title>sun/nio/ch/FileChannelImpl.read (19,244 samples, 58.23%)</title><rect x="492.6" y="227.0" width="687.1" height="15" fill="#5eef5e" rx="2" ry="2"/>
<text x="495.6" y="238.0">sun/nio/ch/FileChannelImpl.read</text>
</g>
<g>
<title>sun/nio/ch/FileChannelImpl.readInternal (19,244 samples, 58.23%)</title><rect x="492.6" y="211.0" width="687.1" height="15" fill="#63f463" rx="2" ry="2"/>
<text x="495.6" y="222.0">sun/nio/ch/FileChannelImpl.readInternal</text>
</g>
<g>
<title>sun/nio/ch/NativeThreadSet.add (1,701 samples, 5.15%)</title><rect x="492.6" y="195.0" width="60.8" height="15" fill="#5bec5b" rx="2" ry="2"/>
<text x="495.6" y="206.0">sun/ni..</text>
</g>
<g>
<title>sun.nio.ch.NativeThreadSet (1,701 samples, 5.15%)</title><rect x="492.6" y="179.0" width="60.8" height="15" fill="#6cdada" rx="2" ry="2"/>
<text x="495.6" y="190.0">sun.ni..</text>
</g>
<g>
<title>sun/nio/ch/NativeThreadSet.remove (17,543 samples, 53.08%)</title><rect x="553.4" y="195.0" width="626.3" height="15" fill="#54e554" rx="2" ry="2"/>
<text x="556.4" y="206.0">sun/nio/ch/NativeThreadSet.remove</text>
</g>
<g>
<title>sun.nio.ch.NativeThreadSet (17,543 samples, 53.08%)</title><rect x="553.4" y="179.0" width="626.3" height="15" fill="#65d3d3" rx="2" ry="2"/>
<text x="556.4" y="190.0">sun.nio.ch.NativeThreadSet</text>
</g>
<g>
<title>ru/mail/polis/dao/Iters.collapseEquals (289 samples, 0.87%)</title><rect x="1179.7" y="339.0" width="10.3" height="15" fill="#65f665" rx="2" ry="2"/>
<text x="1182.7" y="350.0"></text>
</g>
<g>
<title>ru/mail/polis/dao/Iters$CollapseEqualsIterator.&lt;init&gt; (289 samples, 0.87%)</title><rect x="1179.7" y="323.0" width="10.3" height="15" fill="#68f968" rx="2" ry="2"/>
<text x="1182.7" y="334.0"></text>
</g>
<g>
<title>com/google/common/collect/Iterators$MergingIterator.next (289 samples, 0.87%)</title><rect x="1179.7" y="307.0" width="10.3" height="15" fill="#5ced5c" rx="2" ry="2"/>
<text x="1182.7" y="318.0"></text>
</g>
<g>
<title>java/util/PriorityQueue.add (289 samples, 0.87%)</title><rect x="1179.7" y="291.0" width="10.3" height="15" fill="#69fa69" rx="2" ry="2"/>
<text x="1182.7" y="302.0"></text>
</g>
<g>
<title>java/util/PriorityQueue.offer (289 samples, 0.87%)</title><rect x="1179.7" y="275.0" width="10.3" height="15" fill="#62f362" rx="2" ry="2"/>
<text x="1182.7" y="286.0"></text>
</g>
<g>
<title>java/util/PriorityQueue.siftUp (289 samples, 0.87%)</title><rect x="1179.7" y="259.0" width="10.3" height="15" fill="#58e958" rx="2" ry="2"/>
<text x="1182.7" y="270.0"></text>
</g>
<g>
<title>java/util/PriorityQueue.siftUpUsingComparator (289 samples, 0.87%)</title><rect x="1179.7" y="243.0" width="10.3" height="15" fill="#50e150" rx="2" ry="2"/>
<text x="1182.7" y="254.0"></text>
</g>
<g>
<title>com/google/common/collect/Iterators$MergingIterator$1.compare (289 samples, 0.87%)</title><rect x="1179.7" y="227.0" width="10.3" height="15" fill="#5bec5b" rx="2" ry="2"/>
<text x="1182.7" y="238.0"></text>
</g>
<g>
<title>com/google/common/collect/Iterators$MergingIterator$1.compare (289 samples, 0.87%)</title><rect x="1179.7" y="211.0" width="10.3" height="15" fill="#65f665" rx="2" ry="2"/>
<text x="1182.7" y="222.0"></text>
</g>
<g>
<title>com/google/common/collect/Iterators$PeekingImpl.peek (289 samples, 0.87%)</title><rect x="1179.7" y="195.0" width="10.3" height="15" fill="#6cfd6c" rx="2" ry="2"/>
<text x="1182.7" y="206.0"></text>
</g>
<g>
<title>ru/mail/polis/dao/valaubr/SSTable$1.next (289 samples, 0.87%)</title><rect x="1179.7" y="179.0" width="10.3" height="15" fill="#52e352" rx="2" ry="2"/>
<text x="1182.7" y="190.0"></text>
</g>
<g>
<title>ru/mail/polis/dao/valaubr/SSTable$1.next (289 samples, 0.87%)</title><rect x="1179.7" y="163.0" width="10.3" height="15" fill="#58e958" rx="2" ry="2"/>
<text x="1182.7" y="174.0"></text>
</g>
<g>
<title>ru/mail/polis/dao/valaubr/SSTable.getCell (289 samples, 0.87%)</title><rect x="1179.7" y="147.0" width="10.3" height="15" fill="#65f665" rx="2" ry="2"/>
<text x="1182.7" y="158.0"></text>
</g>
<g>
<title>ru/mail/polis/dao/valaubr/SSTable.getKey (118 samples, 0.36%)</title><rect x="1179.7" y="131.0" width="4.2" height="15" fill="#59ea59" rx="2" ry="2"/>
<text x="1182.7" y="142.0"></text>
</g>
<g>
<title>ru/mail/polis/dao/valaubr/SSTable.getOffset (35 samples, 0.11%)</title><rect x="1179.7" y="115.0" width="1.2" height="15" fill="#63f463" rx="2" ry="2"/>
<text x="1182.7" y="126.0"></text>
</g>
<g>
<title>sun/nio/ch/FileChannelImpl.read (35 samples, 0.11%)</title><rect x="1179.7" y="99.0" width="1.2" height="15" fill="#65f665" rx="2" ry="2"/>
<text x="1182.7" y="110.0"></text>
</g>
<g>
<title>sun/nio/ch/FileChannelImpl.readInternal (35 samples, 0.11%)</title><rect x="1179.7" y="83.0" width="1.2" height="15" fill="#64f564" rx="2" ry="2"/>
<text x="1182.7" y="94.0"></text>
</g>
<g>
<title>sun/nio/ch/NativeThreadSet.remove (28 samples, 0.08%)</title><rect x="1179.9" y="67.0" width="1.0" height="15" fill="#6dfe6d" rx="2" ry="2"/>
<text x="1182.9" y="78.0"></text>
</g>
<g>
<title>sun.nio.ch.NativeThreadSet (28 samples, 0.08%)</title><rect x="1179.9" y="51.0" width="1.0" height="15" fill="#5ac8c8" rx="2" ry="2"/>
<text x="1182.9" y="62.0"></text>
</g>
<g>
<title>sun/nio/ch/FileChannelImpl.read (83 samples, 0.25%)</title><rect x="1180.9" y="115.0" width="3.0" height="15" fill="#54e554" rx="2" ry="2"/>
<text x="1183.9" y="126.0"></text>
</g>
<g>
<title>sun/nio/ch/FileChannelImpl.readInternal (83 samples, 0.25%)</title><rect x="1180.9" y="99.0" width="3.0" height="15" fill="#56e756" rx="2" ry="2"/>
<text x="1183.9" y="110.0"></text>
</g>
<g>
<title>sun/nio/ch/NativeThreadSet.add (13 samples, 0.04%)</title><rect x="1180.9" y="83.0" width="0.5" height="15" fill="#63f463" rx="2" ry="2"/>
<text x="1183.9" y="94.0"></text>
</g>
<g>
<title>sun.nio.ch.NativeThreadSet (13 samples, 0.04%)</title><rect x="1180.9" y="67.0" width="0.5" height="15" fill="#64d2d2" rx="2" ry="2"/>
<text x="1183.9" y="78.0"></text>
</g>
<g>
<title>sun/nio/ch/NativeThreadSet.remove (70 samples, 0.21%)</title><rect x="1181.4" y="83.0" width="2.5" height="15" fill="#54e554" rx="2" ry="2"/>
<text x="1184.4" y="94.0"></text>
</g>
<g>
<title>sun.nio.ch.NativeThreadSet (70 samples, 0.21%)</title><rect x="1181.4" y="67.0" width="2.5" height="15" fill="#6bd9d9" rx="2" ry="2"/>
<text x="1184.4" y="78.0"></text>
</g>
<g>
<title>ru/mail/polis/dao/valaubr/SSTable.getOffset (55 samples, 0.17%)</title><rect x="1183.9" y="131.0" width="2.0" height="15" fill="#55e655" rx="2" ry="2"/>
<text x="1186.9" y="142.0"></text>
</g>
<g>
<title>sun/nio/ch/FileChannelImpl.read (55 samples, 0.17%)</title><rect x="1183.9" y="115.0" width="2.0" height="15" fill="#67f867" rx="2" ry="2"/>
<text x="1186.9" y="126.0"></text>
</g>
<g>
<title>sun/nio/ch/FileChannelImpl.readInternal (55 samples, 0.17%)</title><rect x="1183.9" y="99.0" width="2.0" height="15" fill="#59ea59" rx="2" ry="2"/>
<text x="1186.9" y="110.0"></text>
</g>
<g>
<title>sun/nio/ch/NativeThreadSet.add (36 samples, 0.11%)</title><rect x="1183.9" y="83.0" width="1.3" height="15" fill="#53e453" rx="2" ry="2"/>
<text x="1186.9" y="94.0"></text>
</g>
<g>
<title>sun.nio.ch.NativeThreadSet (36 samples, 0.11%)</title><rect x="1183.9" y="67.0" width="1.3" height="15" fill="#6cdada" rx="2" ry="2"/>
<text x="1186.9" y="78.0"></text>
</g>
<g>
<title>sun/nio/ch/NativeThreadSet.remove (19 samples, 0.06%)</title><rect x="1185.2" y="83.0" width="0.7" height="15" fill="#51e251" rx="2" ry="2"/>
<text x="1188.2" y="94.0"></text>
</g>
<g>
<title>sun.nio.ch.NativeThreadSet (19 samples, 0.06%)</title><rect x="1185.2" y="67.0" width="0.7" height="15" fill="#69d7d7" rx="2" ry="2"/>
<text x="1188.2" y="78.0"></text>
</g>
<g>
<title>sun/nio/ch/FileChannelImpl.read (116 samples, 0.35%)</title><rect x="1185.9" y="131.0" width="4.1" height="15" fill="#67f867" rx="2" ry="2"/>
<text x="1188.9" y="142.0"></text>
</g>
<g>
<title>sun/nio/ch/FileChannelImpl.readInternal (116 samples, 0.35%)</title><rect x="1185.9" y="115.0" width="4.1" height="15" fill="#5eef5e" rx="2" ry="2"/>
<text x="1188.9" y="126.0"></text>
</g>
<g>
<title>sun/nio/ch/NativeThreadSet.add (12 samples, 0.04%)</title><rect x="1185.9" y="99.0" width="0.4" height="15" fill="#64f564" rx="2" ry="2"/>
<text x="1188.9" y="110.0"></text>
</g>
<g>
<title>sun.nio.ch.NativeThreadSet (12 samples, 0.04%)</title><rect x="1185.9" y="83.0" width="0.4" height="15" fill="#5bc9c9" rx="2" ry="2"/>
<text x="1188.9" y="94.0"></text>
</g>
<g>
<title>sun/nio/ch/NativeThreadSet.remove (104 samples, 0.31%)</title><rect x="1186.3" y="99.0" width="3.7" height="15" fill="#66f766" rx="2" ry="2"/>
<text x="1189.3" y="110.0"></text>
</g>
<g>
<title>sun.nio.ch.NativeThreadSet (104 samples, 0.31%)</title><rect x="1186.3" y="83.0" width="3.7" height="15" fill="#65d3d3" rx="2" ry="2"/>
<text x="1189.3" y="94.0"></text>
</g>
</g>
</svg>
