<?xml version="1.0" standalone="no"?>
<!DOCTYPE svg PUBLIC "-//W3C//DTD SVG 1.1//EN" "http://www.w3.org/Graphics/SVG/1.1/DTD/svg11.dtd">
<svg version="1.1" width="1200" height="342" onload="init(evt)" viewBox="0 0 1200 342" xmlns="http://www.w3.org/2000/svg" xmlns:xlink="http://www.w3.org/1999/xlink">
<style type="text/css">
	text { font-family:Verdana; font-size:12px; fill:rgb(0,0,0); }
	#search { opacity:0.1; cursor:pointer; }
	#search:hover, #search.show { opacity:1; }
	#subtitle { text-anchor:middle; font-color:rgb(160,160,160); }
	#title { text-anchor:middle; font-size:17px}
	#unzoom { cursor:pointer; }
	#frames > *:hover { stroke:black; stroke-width:0.5; cursor:pointer; }
	.hide { display:none; }
	.parent { opacity:0.5; }
</style>
<script type="text/ecmascript">
<![CDATA[
	"use strict";
	var details, searchbtn, unzoombtn, matchedtxt, svg, searching;
	function init(evt) {
		details = document.getElementById("details").firstChild;
		searchbtn = document.getElementById("search");
		unzoombtn = document.getElementById("unzoom");
		matchedtxt = document.getElementById("matched");
		svg = document.getElementsByTagName("svg")[0];
		searching = 0;
	}

	window.addEventListener("click", function(e) {
		var target = find_group(e.target);
		if (target) {
			if (target.nodeName == "a") {
				if (e.ctrlKey === false) return;
				e.preventDefault();
			}
			if (target.classList.contains("parent")) unzoom();
			zoom(target);
		}
		else if (e.target.id == "unzoom") unzoom();
		else if (e.target.id == "search") search_prompt();
	}, false)

	// mouse-over for info
	// show
	window.addEventListener("mouseover", function(e) {
		var target = find_group(e.target);
		if (target) details.nodeValue = "Function: " + g_to_text(target);
	}, false)

	// clear
	window.addEventListener("mouseout", function(e) {
		var target = find_group(e.target);
		if (target) details.nodeValue = ' ';
	}, false)

	// ctrl-F for search
	window.addEventListener("keydown",function (e) {
		if (e.keyCode === 114 || (e.ctrlKey && e.keyCode === 70)) {
			e.preventDefault();
			search_prompt();
		}
	}, false)

	// functions
	function find_child(node, selector) {
		var children = node.querySelectorAll(selector);
		if (children.length) return children[0];
		return;
	}
	function find_group(node) {
		var parent = node.parentElement;
		if (!parent) return;
		if (parent.id == "frames") return node;
		return find_group(parent);
	}
	function orig_save(e, attr, val) {
		if (e.attributes["_orig_" + attr] != undefined) return;
		if (e.attributes[attr] == undefined) return;
		if (val == undefined) val = e.attributes[attr].value;
		e.setAttribute("_orig_" + attr, val);
	}
	function orig_load(e, attr) {
		if (e.attributes["_orig_"+attr] == undefined) return;
		e.attributes[attr].value = e.attributes["_orig_" + attr].value;
		e.removeAttribute("_orig_"+attr);
	}
	function g_to_text(e) {
		var text = find_child(e, "title").firstChild.nodeValue;
		return (text)
	}
	function g_to_func(e) {
		var func = g_to_text(e);
		// if there's any manipulation we want to do to the function
		// name before it's searched, do it here before returning.
		return (func);
	}
	function update_text(e) {
		var r = find_child(e, "rect");
		var t = find_child(e, "text");
		var w = parseFloat(r.attributes.width.value) -3;
		var txt = find_child(e, "title").textContent.replace(/\([^(]*\)$/,"");
		t.attributes.x.value = parseFloat(r.attributes.x.value) + 3;

		// Smaller than this size won't fit anything
		if (w < 2 * 12 * 0.59) {
			t.textContent = "";
			return;
		}

		t.textContent = txt;
		// Fit in full text width
		if (/^ *$/.test(txt) || t.getSubStringLength(0, txt.length) < w)
			return;

		for (var x = txt.length - 2; x > 0; x--) {
			if (t.getSubStringLength(0, x + 2) <= w) {
				t.textContent = txt.substring(0, x) + "..";
				return;
			}
		}
		t.textContent = "";
	}

	// zoom
	function zoom_reset(e) {
		if (e.attributes != undefined) {
			orig_load(e, "x");
			orig_load(e, "width");
		}
		if (e.childNodes == undefined) return;
		for (var i = 0, c = e.childNodes; i < c.length; i++) {
			zoom_reset(c[i]);
		}
	}
	function zoom_child(e, x, ratio) {
		if (e.attributes != undefined) {
			if (e.attributes.x != undefined) {
				orig_save(e, "x");
				e.attributes.x.value = (parseFloat(e.attributes.x.value) - x - 10) * ratio + 10;
				if (e.tagName == "text")
					e.attributes.x.value = find_child(e.parentNode, "rect[x]").attributes.x.value + 3;
			}
			if (e.attributes.width != undefined) {
				orig_save(e, "width");
				e.attributes.width.value = parseFloat(e.attributes.width.value) * ratio;
			}
		}

		if (e.childNodes == undefined) return;
		for (var i = 0, c = e.childNodes; i < c.length; i++) {
			zoom_child(c[i], x - 10, ratio);
		}
	}
	function zoom_parent(e) {
		if (e.attributes) {
			if (e.attributes.x != undefined) {
				orig_save(e, "x");
				e.attributes.x.value = 10;
			}
			if (e.attributes.width != undefined) {
				orig_save(e, "width");
				e.attributes.width.value = parseInt(svg.width.baseVal.value) - (10 * 2);
			}
		}
		if (e.childNodes == undefined) return;
		for (var i = 0, c = e.childNodes; i < c.length; i++) {
			zoom_parent(c[i]);
		}
	}
	function zoom(node) {
		var attr = find_child(node, "rect").attributes;
		var width = parseFloat(attr.width.value);
		var xmin = parseFloat(attr.x.value);
		var xmax = parseFloat(xmin + width);
		var ymin = parseFloat(attr.y.value);
		var ratio = (svg.width.baseVal.value - 2 * 10) / width;

		// XXX: Workaround for JavaScript float issues (fix me)
		var fudge = 0.0001;

		unzoombtn.classList.remove("hide");

		var el = document.getElementById("frames").children;
		for (var i = 0; i < el.length; i++) {
			var e = el[i];
			var a = find_child(e, "rect").attributes;
			var ex = parseFloat(a.x.value);
			var ew = parseFloat(a.width.value);
			var upstack;
			// Is it an ancestor
			if (0 == 0) {
				upstack = parseFloat(a.y.value) > ymin;
			} else {
				upstack = parseFloat(a.y.value) < ymin;
			}
			if (upstack) {
				// Direct ancestor
				if (ex <= xmin && (ex+ew+fudge) >= xmax) {
					e.classList.add("parent");
					zoom_parent(e);
					update_text(e);
				}
				// not in current path
				else
					e.classList.add("hide");
			}
			// Children maybe
			else {
				// no common path
				if (ex < xmin || ex + fudge >= xmax) {
					e.classList.add("hide");
				}
				else {
					zoom_child(e, xmin, ratio);
					update_text(e);
				}
			}
		}
	}
	function unzoom() {
		unzoombtn.classList.add("hide");
		var el = document.getElementById("frames").children;
		for(var i = 0; i < el.length; i++) {
			el[i].classList.remove("parent");
			el[i].classList.remove("hide");
			zoom_reset(el[i]);
			update_text(el[i]);
		}
	}

	// search
	function reset_search() {
		var el = document.querySelectorAll("#frames rect");
		for (var i = 0; i < el.length; i++) {
			orig_load(el[i], "fill")
		}
	}
	function search_prompt() {
		if (!searching) {
			var term = prompt("Enter a search term (regexp " +
			    "allowed, eg: ^ext4_)", "");
			if (term != null) {
				search(term)
			}
		} else {
			reset_search();
			searching = 0;
			searchbtn.classList.remove("show");
			searchbtn.firstChild.nodeValue = "Search"
			matchedtxt.classList.add("hide");
			matchedtxt.firstChild.nodeValue = ""
		}
	}
	function search(term) {
		var re = new RegExp(term);
		var el = document.getElementById("frames").children;
		var matches = new Object();
		var maxwidth = 0;
		for (var i = 0; i < el.length; i++) {
			var e = el[i];
			var func = g_to_func(e);
			var rect = find_child(e, "rect");
			if (func == null || rect == null)
				continue;

			// Save max width. Only works as we have a root frame
			var w = parseFloat(rect.attributes.width.value);
			if (w > maxwidth)
				maxwidth = w;

			if (func.match(re)) {
				// highlight
				var x = parseFloat(rect.attributes.x.value);
				orig_save(rect, "fill");
				rect.attributes.fill.value = "rgb(230,0,230)";

				// remember matches
				if (matches[x] == undefined) {
					matches[x] = w;
				} else {
					if (w > matches[x]) {
						// overwrite with parent
						matches[x] = w;
					}
				}
				searching = 1;
			}
		}
		if (!searching)
			return;

		searchbtn.classList.add("show");
		searchbtn.firstChild.nodeValue = "Reset Search";

		// calculate percent matched, excluding vertical overlap
		var count = 0;
		var lastx = -1;
		var lastw = 0;
		var keys = Array();
		for (k in matches) {
			if (matches.hasOwnProperty(k))
				keys.push(k);
		}
		// sort the matched frames by their x location
		// ascending, then width descending
		keys.sort(function(a, b){
			return a - b;
		});
		// Step through frames saving only the biggest bottom-up frames
		// thanks to the sort order. This relies on the tree property
		// where children are always smaller than their parents.
		var fudge = 0.0001;	// JavaScript floating point
		for (var k in keys) {
			var x = parseFloat(keys[k]);
			var w = matches[keys[k]];
			if (x >= lastx + lastw - fudge) {
				count += w;
				lastx = x;
				lastw = w;
			}
		}
		// display matched percent
		matchedtxt.classList.remove("hide");
		var pct = 100 * count / maxwidth;
		if (pct != 100) pct = pct.toFixed(1)
		matchedtxt.firstChild.nodeValue = "Matched: " + pct + "%";
	}
]]>
</script>
<rect x="0" y="0" width="100%" height="100%" fill="rgb(240,240,220)"/>
<text id="title" x="600" y="24">Flame Graph</text>
<text id="details" x="10" y="325"> </text>
<text id="unzoom" x="10" y="24" class="hide">Reset Zoom</text>
<text id="search" x="1090" y="24">Search</text>
<text id="matched" x="1090" y="325"> </text>
<g id="frames">
<g>
<title>all (2,244 samples, 100.00%)</title><rect x="10.0" y="291.0" width="1180.0" height="15" fill="#f47373" rx="2" ry="2"/>
<text x="13.0" y="302.0">all</text>
</g>
<g>
<title>java/lang/Thread.exit (3 samples, 0.13%)</title><rect x="10.0" y="275.0" width="1.6" height="15" fill="#63f463" rx="2" ry="2"/>
<text x="13.0" y="286.0"></text>
</g>
<g>
<title>jdk/internal/misc/TerminatingThreadLocal.threadTerminated (3 samples, 0.13%)</title><rect x="10.0" y="259.0" width="1.6" height="15" fill="#63f463" rx="2" ry="2"/>
<text x="13.0" y="270.0"></text>
</g>
<g>
<title>java/util/Collections$SetFromMap.iterator (3 samples, 0.13%)</title><rect x="10.0" y="243.0" width="1.6" height="15" fill="#67f867" rx="2" ry="2"/>
<text x="13.0" y="254.0"></text>
</g>
<g>
<title>java/util/IdentityHashMap$KeySet.iterator (3 samples, 0.13%)</title><rect x="10.0" y="227.0" width="1.6" height="15" fill="#5bec5b" rx="2" ry="2"/>
<text x="13.0" y="238.0"></text>
</g>
<g>
<title>java.util.IdentityHashMap$KeyIterator (3 samples, 0.13%)</title><rect x="10.0" y="211.0" width="1.6" height="15" fill="#5ac8c8" rx="2" ry="2"/>
<text x="13.0" y="222.0"></text>
</g>
<g>
<title>java/lang/Thread.run (1,206 samples, 53.74%)</title><rect x="11.6" y="275.0" width="634.1" height="15" fill="#5bec5b" rx="2" ry="2"/>
<text x="14.6" y="286.0">java/lang/Thread.run</text>
</g>
<g>
<title>java/util/concurrent/ThreadPoolExecutor$Worker.run (1,206 samples, 53.74%)</title><rect x="11.6" y="259.0" width="634.1" height="15" fill="#5aeb5a" rx="2" ry="2"/>
<text x="14.6" y="270.0">java/util/concurrent/ThreadPoolExecutor$Worker.run</text>
</g>
<g>
<title>java/util/concurrent/ThreadPoolExecutor.runWorker (1,206 samples, 53.74%)</title><rect x="11.6" y="243.0" width="634.1" height="15" fill="#64f564" rx="2" ry="2"/>
<text x="14.6" y="254.0">java/util/concurrent/ThreadPoolExecutor.runWorker</text>
</g>
<g>
<title>java/util/concurrent/ThreadPoolExecutor.getTask (71 samples, 3.16%)</title><rect x="11.6" y="227.0" width="37.3" height="15" fill="#54e554" rx="2" ry="2"/>
<text x="14.6" y="238.0">jav..</text>
</g>
<g>
<title>java/util/concurrent/ArrayBlockingQueue.take (71 samples, 3.16%)</title><rect x="11.6" y="211.0" width="37.3" height="15" fill="#58e958" rx="2" ry="2"/>
<text x="14.6" y="222.0">jav..</text>
</g>
<g>
<title>java/util/concurrent/locks/AbstractQueuedSynchronizer$ConditionObject.await (69 samples, 3.07%)</title><rect x="11.6" y="195.0" width="36.3" height="15" fill="#64f564" rx="2" ry="2"/>
<text x="14.6" y="206.0">jav..</text>
</g>
<g>
<title>java/util/concurrent/locks/AbstractQueuedSynchronizer$ConditionObject.addConditionWaiter (69 samples, 3.07%)</title><rect x="11.6" y="179.0" width="36.3" height="15" fill="#69fa69" rx="2" ry="2"/>
<text x="14.6" y="190.0">jav..</text>
</g>
<g>
<title>java.util.concurrent.locks.AbstractQueuedSynchronizer$Node (69 samples, 3.07%)</title><rect x="11.6" y="163.0" width="36.3" height="15" fill="#59c7c7" rx="2" ry="2"/>
<text x="14.6" y="174.0">jav..</text>
</g>
<g>
<title>java/util/concurrent/locks/ReentrantLock.lockInterruptibly (2 samples, 0.09%)</title><rect x="47.9" y="195.0" width="1.0" height="15" fill="#54e554" rx="2" ry="2"/>
<text x="50.9" y="206.0"></text>
</g>
<g>
<title>java/util/concurrent/locks/AbstractQueuedSynchronizer.acquireInterruptibly (2 samples, 0.09%)</title><rect x="47.9" y="179.0" width="1.0" height="15" fill="#62f362" rx="2" ry="2"/>
<text x="50.9" y="190.0"></text>
</g>
<g>
<title>java/util/concurrent/locks/AbstractQueuedSynchronizer.doAcquireInterruptibly (2 samples, 0.09%)</title><rect x="47.9" y="163.0" width="1.0" height="15" fill="#50e150" rx="2" ry="2"/>
<text x="50.9" y="174.0"></text>
</g>
<g>
<title>java/util/concurrent/locks/AbstractQueuedSynchronizer.addWaiter (2 samples, 0.09%)</title><rect x="47.9" y="147.0" width="1.0" height="15" fill="#6bfc6b" rx="2" ry="2"/>
<text x="50.9" y="158.0"></text>
</g>
<g>
<title>java.util.concurrent.locks.AbstractQueuedSynchronizer$Node (2 samples, 0.09%)</title><rect x="47.9" y="131.0" width="1.0" height="15" fill="#5bc9c9" rx="2" ry="2"/>
<text x="50.9" y="142.0"></text>
</g>
<g>
<title>ru/mail/polis/dao/kuzoliza/LSM$$Lambda$87/1853598381.run (218 samples, 9.71%)</title><rect x="48.9" y="227.0" width="114.6" height="15" fill="#5ff05f" rx="2" ry="2"/>
<text x="51.9" y="238.0">ru/mail/polis/..</text>
</g>
<g>
<title>ru/mail/polis/dao/kuzoliza/LSM.lambda$flush$5 (218 samples, 9.71%)</title><rect x="48.9" y="211.0" width="114.6" height="15" fill="#5aeb5a" rx="2" ry="2"/>
<text x="51.9" y="222.0">ru/mail/polis/..</text>
</g>
<g>
<title>java/util/concurrent/locks/ReentrantReadWriteLock$WriteLock.lock (2 samples, 0.09%)</title><rect x="48.9" y="195.0" width="1.1" height="15" fill="#57e857" rx="2" ry="2"/>
<text x="51.9" y="206.0"></text>
</g>
<g>
<title>java/util/concurrent/locks/AbstractQueuedSynchronizer.acquire (2 samples, 0.09%)</title><rect x="48.9" y="179.0" width="1.1" height="15" fill="#58e958" rx="2" ry="2"/>
<text x="51.9" y="190.0"></text>
</g>
<g>
<title>java/util/concurrent/locks/AbstractQueuedSynchronizer.addWaiter (2 samples, 0.09%)</title><rect x="48.9" y="163.0" width="1.1" height="15" fill="#69fa69" rx="2" ry="2"/>
<text x="51.9" y="174.0"></text>
</g>
<g>
<title>java.util.concurrent.locks.AbstractQueuedSynchronizer$Node (2 samples, 0.09%)</title><rect x="48.9" y="147.0" width="1.1" height="15" fill="#53c1c1" rx="2" ry="2"/>
<text x="51.9" y="158.0"></text>
</g>
<g>
<title>ru/mail/polis/dao/kuzoliza/SStable.serialize (212 samples, 9.45%)</title><rect x="50.0" y="195.0" width="111.4" height="15" fill="#63f463" rx="2" ry="2"/>
<text x="53.0" y="206.0">ru/mail/polis..</text>
</g>
<g>
<title>java/lang/Integer.valueOf (30 samples, 1.34%)</title><rect x="50.0" y="179.0" width="15.7" height="15" fill="#51e251" rx="2" ry="2"/>
<text x="53.0" y="190.0"></text>
</g>
<g>
<title>java.lang.Integer (30 samples, 1.34%)</title><rect x="50.0" y="163.0" width="15.7" height="15" fill="#5dcbcb" rx="2" ry="2"/>
<text x="53.0" y="174.0"></text>
</g>
<g>
<title>java/nio/ByteBuffer.allocate (159 samples, 7.09%)</title><rect x="65.7" y="179.0" width="83.6" height="15" fill="#5bec5b" rx="2" ry="2"/>
<text x="68.7" y="190.0">java/nio/..</text>
</g>
<g>
<title>java.nio.HeapByteBuffer (96 samples, 4.28%)</title><rect x="65.7" y="163.0" width="50.5" height="15" fill="#54c2c2" rx="2" ry="2"/>
<text x="68.7" y="174.0">java...</text>
</g>
<g>
<title>java/nio/HeapByteBuffer.&lt;init&gt; (63 samples, 2.81%)</title><rect x="116.2" y="163.0" width="33.1" height="15" fill="#66f766" rx="2" ry="2"/>
<text x="119.2" y="174.0">ja..</text>
</g>
<g>
<title>byte[] (63 samples, 2.81%)</title><rect x="116.2" y="147.0" width="33.1" height="15" fill="#63d1d1" rx="2" ry="2"/>
<text x="119.2" y="158.0">by..</text>
</g>
<g>
<title>java/util/ArrayList.add (10 samples, 0.45%)</title><rect x="149.3" y="179.0" width="5.3" height="15" fill="#50e150" rx="2" ry="2"/>
<text x="152.3" y="190.0"></text>
</g>
<g>
<title>java/util/ArrayList.add (10 samples, 0.45%)</title><rect x="149.3" y="163.0" width="5.3" height="15" fill="#67f867" rx="2" ry="2"/>
<text x="152.3" y="174.0"></text>
</g>
<g>
<title>java/util/ArrayList.grow (10 samples, 0.45%)</title><rect x="149.3" y="147.0" width="5.3" height="15" fill="#60f160" rx="2" ry="2"/>
<text x="152.3" y="158.0"></text>
</g>
<g>
<title>java/util/ArrayList.grow (10 samples, 0.45%)</title><rect x="149.3" y="131.0" width="5.3" height="15" fill="#58e958" rx="2" ry="2"/>
<text x="152.3" y="142.0"></text>
</g>
<g>
<title>java/util/Arrays.copyOf (10 samples, 0.45%)</title><rect x="149.3" y="115.0" width="5.3" height="15" fill="#5ced5c" rx="2" ry="2"/>
<text x="152.3" y="126.0"></text>
</g>
<g>
<title>java/util/Arrays.copyOf (10 samples, 0.45%)</title><rect x="149.3" y="99.0" width="5.3" height="15" fill="#59ea59" rx="2" ry="2"/>
<text x="152.3" y="110.0"></text>
</g>
<g>
<title>java.lang.Object[] (3 samples, 0.13%)</title><rect x="149.3" y="83.0" width="1.6" height="15" fill="#5fcdcd" rx="2" ry="2"/>
<text x="152.3" y="94.0"></text>
</g>
<g>
<title>java.lang.Object[] (7 samples, 0.31%)</title><rect x="150.9" y="83.0" width="3.7" height="15" fill="#f69200" rx="2" ry="2"/>
<text x="153.9" y="94.0"></text>
</g>
<g>
<title>ru/mail/polis/dao/kuzoliza/Cell.getKey (13 samples, 0.58%)</title><rect x="154.6" y="179.0" width="6.8" height="15" fill="#69fa69" rx="2" ry="2"/>
<text x="157.6" y="190.0"></text>
</g>
<g>
<title>java/nio/HeapByteBuffer.asReadOnlyBuffer (13 samples, 0.58%)</title><rect x="154.6" y="163.0" width="6.8" height="15" fill="#56e756" rx="2" ry="2"/>
<text x="157.6" y="174.0"></text>
</g>
<g>
<title>java.nio.HeapByteBufferR (13 samples, 0.58%)</title><rect x="154.6" y="147.0" width="6.8" height="15" fill="#5dcbcb" rx="2" ry="2"/>
<text x="157.6" y="158.0"></text>
</g>
<g>
<title>ru/mail/polis/dao/kuzoliza/TableSet.markedAsFlushing (4 samples, 0.18%)</title><rect x="161.4" y="195.0" width="2.1" height="15" fill="#5bec5b" rx="2" ry="2"/>
<text x="164.4" y="206.0"></text>
</g>
<g>
<title>java.util.HashSet (4 samples, 0.18%)</title><rect x="161.4" y="179.0" width="2.1" height="15" fill="#51bfbf" rx="2" ry="2"/>
<text x="164.4" y="190.0"></text>
</g>
<g>
<title>ru/mail/polis/service/kuzoliza/MyService$$Lambda$82/1378942806.run (175 samples, 7.80%)</title><rect x="163.5" y="227.0" width="92.1" height="15" fill="#52e352" rx="2" ry="2"/>
<text x="166.5" y="238.0">ru/mail/pol..</text>
</g>
<g>
<title>ru/mail/polis/service/kuzoliza/MyService.lambda$entity$2 (175 samples, 7.80%)</title><rect x="163.5" y="211.0" width="92.1" height="15" fill="#56e756" rx="2" ry="2"/>
<text x="166.5" y="222.0">ru/mail/pol..</text>
</g>
<g>
<title>java/lang/String.getBytes (43 samples, 1.92%)</title><rect x="163.5" y="195.0" width="22.7" height="15" fill="#60f160" rx="2" ry="2"/>
<text x="166.5" y="206.0">j..</text>
</g>
<g>
<title>java/lang/StringCoding.encode (43 samples, 1.92%)</title><rect x="163.5" y="179.0" width="22.7" height="15" fill="#68f968" rx="2" ry="2"/>
<text x="166.5" y="190.0">j..</text>
</g>
<g>
<title>java/lang/StringCoding.encodeUTF8 (43 samples, 1.92%)</title><rect x="163.5" y="163.0" width="22.7" height="15" fill="#5ced5c" rx="2" ry="2"/>
<text x="166.5" y="174.0">j..</text>
</g>
<g>
<title>java/util/Arrays.copyOf (43 samples, 1.92%)</title><rect x="163.5" y="147.0" width="22.7" height="15" fill="#69fa69" rx="2" ry="2"/>
<text x="166.5" y="158.0">j..</text>
</g>
<g>
<title>byte[] (43 samples, 1.92%)</title><rect x="163.5" y="131.0" width="22.7" height="15" fill="#58c6c6" rx="2" ry="2"/>
<text x="166.5" y="142.0">b..</text>
</g>
<g>
<title>java/nio/ByteBuffer.wrap (83 samples, 3.70%)</title><rect x="186.2" y="195.0" width="43.6" height="15" fill="#55e655" rx="2" ry="2"/>
<text x="189.2" y="206.0">java..</text>
</g>
<g>
<title>java/nio/ByteBuffer.wrap (83 samples, 3.70%)</title><rect x="186.2" y="179.0" width="43.6" height="15" fill="#5aeb5a" rx="2" ry="2"/>
<text x="189.2" y="190.0">java..</text>
</g>
<g>
<title>java.nio.HeapByteBuffer (83 samples, 3.70%)</title><rect x="186.2" y="163.0" width="43.6" height="15" fill="#6cdada" rx="2" ry="2"/>
<text x="189.2" y="174.0">java..</text>
</g>
<g>
<title>ru/mail/polis/service/kuzoliza/MyService.response (49 samples, 2.18%)</title><rect x="229.8" y="195.0" width="25.8" height="15" fill="#61f261" rx="2" ry="2"/>
<text x="232.8" y="206.0">r..</text>
</g>
<g>
<title>java/lang/invoke/Invokers$Holder.linkToTargetMethod (48 samples, 2.14%)</title><rect x="229.8" y="179.0" width="25.2" height="15" fill="#5bec5b" rx="2" ry="2"/>
<text x="232.8" y="190.0">j..</text>
</g>
<g>
<title>java/lang/invoke/DirectMethodHandle$Holder.invokeStatic (48 samples, 2.14%)</title><rect x="229.8" y="163.0" width="25.2" height="15" fill="#5dee5d" rx="2" ry="2"/>
<text x="232.8" y="174.0">j..</text>
</g>
<g>
<title>ru/mail/polis/service/kuzoliza/MyService$$Lambda$84/450279027.get$Lambda (48 samples, 2.14%)</title><rect x="229.8" y="147.0" width="25.2" height="15" fill="#62f362" rx="2" ry="2"/>
<text x="232.8" y="158.0">r..</text>
</g>
<g>
<title>ru.mail.polis.service.kuzoliza.MyService$$Lambda$84 (48 samples, 2.14%)</title><rect x="229.8" y="131.0" width="25.2" height="15" fill="#6cdada" rx="2" ry="2"/>
<text x="232.8" y="142.0">r..</text>
</g>
<g>
<title>java/util/concurrent/ThreadPoolExecutor.execute (1 samples, 0.04%)</title><rect x="255.0" y="179.0" width="0.6" height="15" fill="#5ced5c" rx="2" ry="2"/>
<text x="258.0" y="190.0"></text>
</g>
<g>
<title>java/util/concurrent/ArrayBlockingQueue.offer (1 samples, 0.04%)</title><rect x="255.0" y="163.0" width="0.6" height="15" fill="#51e251" rx="2" ry="2"/>
<text x="258.0" y="174.0"></text>
</g>
<g>
<title>java/util/concurrent/locks/ReentrantLock.lock (1 samples, 0.04%)</title><rect x="255.0" y="147.0" width="0.6" height="15" fill="#5dee5d" rx="2" ry="2"/>
<text x="258.0" y="158.0"></text>
</g>
<g>
<title>java/util/concurrent/locks/AbstractQueuedSynchronizer.acquire (1 samples, 0.04%)</title><rect x="255.0" y="131.0" width="0.6" height="15" fill="#61f261" rx="2" ry="2"/>
<text x="258.0" y="142.0"></text>
</g>
<g>
<title>java/util/concurrent/locks/AbstractQueuedSynchronizer.addWaiter (1 samples, 0.04%)</title><rect x="255.0" y="115.0" width="0.6" height="15" fill="#66f766" rx="2" ry="2"/>
<text x="258.0" y="126.0"></text>
</g>
<g>
<title>java.util.concurrent.locks.AbstractQueuedSynchronizer$Node (1 samples, 0.04%)</title><rect x="255.0" y="99.0" width="0.6" height="15" fill="#69d7d7" rx="2" ry="2"/>
<text x="258.0" y="110.0"></text>
</g>
<g>
<title>ru/mail/polis/service/kuzoliza/MyService$$Lambda$84/450279027.run (742 samples, 33.07%)</title><rect x="255.6" y="227.0" width="390.1" height="15" fill="#53e453" rx="2" ry="2"/>
<text x="258.6" y="238.0">ru/mail/polis/service/kuzoliza/MyService$$Lambda$84/4..</text>
</g>
<g>
<title>ru/mail/polis/service/kuzoliza/MyService.lambda$response$3 (742 samples, 33.07%)</title><rect x="255.6" y="211.0" width="390.1" height="15" fill="#53e453" rx="2" ry="2"/>
<text x="258.6" y="222.0">ru/mail/polis/service/kuzoliza/MyService.lambda$respo..</text>
</g>
<g>
<title>ru/mail/polis/service/kuzoliza/MyService.putResponse (742 samples, 33.07%)</title><rect x="255.6" y="195.0" width="390.1" height="15" fill="#63f463" rx="2" ry="2"/>
<text x="258.6" y="206.0">ru/mail/polis/service/kuzoliza/MyService.putResponse</text>
</g>
<g>
<title>java/nio/ByteBuffer.wrap (72 samples, 3.21%)</title><rect x="255.6" y="179.0" width="37.8" height="15" fill="#69fa69" rx="2" ry="2"/>
<text x="258.6" y="190.0">jav..</text>
</g>
<g>
<title>java/nio/ByteBuffer.wrap (72 samples, 3.21%)</title><rect x="255.6" y="163.0" width="37.8" height="15" fill="#61f261" rx="2" ry="2"/>
<text x="258.6" y="174.0">jav..</text>
</g>
<g>
<title>java.nio.HeapByteBuffer (72 samples, 3.21%)</title><rect x="255.6" y="147.0" width="37.8" height="15" fill="#63d1d1" rx="2" ry="2"/>
<text x="258.6" y="158.0">jav..</text>
</g>
<g>
<title>one.nio.http.Response (18 samples, 0.80%)</title><rect x="293.4" y="179.0" width="9.5" height="15" fill="#6ddbdb" rx="2" ry="2"/>
<text x="296.4" y="190.0"></text>
</g>
<g>
<title>one/nio/http/HttpSession.sendResponse (314 samples, 13.99%)</title><rect x="302.9" y="179.0" width="165.1" height="15" fill="#50e150" rx="2" ry="2"/>
<text x="305.9" y="190.0">one/nio/http/HttpSess..</text>
</g>
<g>
<title>one/nio/http/HttpSession.writeResponse (314 samples, 13.99%)</title><rect x="302.9" y="163.0" width="165.1" height="15" fill="#6bfc6b" rx="2" ry="2"/>
<text x="305.9" y="174.0">one/nio/http/HttpSess..</text>
</g>
<g>
<title>one/nio/http/Response.toBytes (154 samples, 6.86%)</title><rect x="302.9" y="147.0" width="81.0" height="15" fill="#55e655" rx="2" ry="2"/>
<text x="305.9" y="158.0">one/nio/h..</text>
</g>
<g>
<title>one/nio/util/ByteArrayBuilder.&lt;init&gt; (154 samples, 6.86%)</title><rect x="302.9" y="131.0" width="81.0" height="15" fill="#6dfe6d" rx="2" ry="2"/>
<text x="305.9" y="142.0">one/nio/u..</text>
</g>
<g>
<title>byte[] (154 samples, 6.86%)</title><rect x="302.9" y="115.0" width="81.0" height="15" fill="#5fcdcd" rx="2" ry="2"/>
<text x="305.9" y="126.0">byte[]</text>
</g>
<g>
<title>one/nio/net/Session.write (160 samples, 7.13%)</title><rect x="383.9" y="147.0" width="84.1" height="15" fill="#58e958" rx="2" ry="2"/>
<text x="386.9" y="158.0">one/nio/ne..</text>
</g>
<g>
<title>one.nio.net.Session$ArrayQueueItem (64 samples, 2.85%)</title><rect x="383.9" y="131.0" width="33.6" height="15" fill="#65d3d3" rx="2" ry="2"/>
<text x="386.9" y="142.0">on..</text>
</g>
<g>
<title>one/nio/net/Session.write (96 samples, 4.28%)</title><rect x="417.5" y="131.0" width="50.5" height="15" fill="#61f261" rx="2" ry="2"/>
<text x="420.5" y="142.0">one/n..</text>
</g>
<g>
<title>one/nio/net/Session$ArrayQueueItem.write (96 samples, 4.28%)</title><rect x="417.5" y="115.0" width="50.5" height="15" fill="#69fa69" rx="2" ry="2"/>
<text x="420.5" y="126.0">one/n..</text>
</g>
<g>
<title>one/nio/net/JavaSocket.write (96 samples, 4.28%)</title><rect x="417.5" y="99.0" width="50.5" height="15" fill="#69fa69" rx="2" ry="2"/>
<text x="420.5" y="110.0">one/n..</text>
</g>
<g>
<title>java/nio/ByteBuffer.wrap (96 samples, 4.28%)</title><rect x="417.5" y="83.0" width="50.5" height="15" fill="#63f463" rx="2" ry="2"/>
<text x="420.5" y="94.0">java/..</text>
</g>
<g>
<title>java.nio.HeapByteBuffer (96 samples, 4.28%)</title><rect x="417.5" y="67.0" width="50.5" height="15" fill="#65d3d3" rx="2" ry="2"/>
<text x="420.5" y="78.0">java...</text>
</g>
<g>
<title>one/nio/http/Response.&lt;init&gt; (138 samples, 6.15%)</title><rect x="468.0" y="179.0" width="72.6" height="15" fill="#63f463" rx="2" ry="2"/>
<text x="471.0" y="190.0">one/nio/..</text>
</g>
<g>
<title>byte[] (64 samples, 2.85%)</title><rect x="468.0" y="163.0" width="33.7" height="15" fill="#5ac8c8" rx="2" ry="2"/>
<text x="471.0" y="174.0">by..</text>
</g>
<g>
<title>java.lang.String[] (41 samples, 1.83%)</title><rect x="501.7" y="163.0" width="21.5" height="15" fill="#60cece" rx="2" ry="2"/>
<text x="504.7" y="174.0">j..</text>
</g>
<g>
<title>java.lang.String (33 samples, 1.47%)</title><rect x="523.2" y="163.0" width="17.4" height="15" fill="#63d1d1" rx="2" ry="2"/>
<text x="526.2" y="174.0"></text>
</g>
<g>
<title>ru/mail/polis/dao/kuzoliza/LSM.upsert (200 samples, 8.91%)</title><rect x="540.6" y="179.0" width="105.1" height="15" fill="#59ea59" rx="2" ry="2"/>
<text x="543.6" y="190.0">ru/mail/polis..</text>
</g>
<g>
<title>java/util/concurrent/locks/ReentrantReadWriteLock$ReadLock.lock (5 samples, 0.22%)</title><rect x="540.6" y="163.0" width="2.6" height="15" fill="#6afb6a" rx="2" ry="2"/>
<text x="543.6" y="174.0"></text>
</g>
<g>
<title>java/util/concurrent/locks/AbstractQueuedSynchronizer.acquireShared (5 samples, 0.22%)</title><rect x="540.6" y="147.0" width="2.6" height="15" fill="#5dee5d" rx="2" ry="2"/>
<text x="543.6" y="158.0"></text>
</g>
<g>
<title>java/util/concurrent/locks/AbstractQueuedSynchronizer.doAcquireShared (1 samples, 0.04%)</title><rect x="540.6" y="131.0" width="0.5" height="15" fill="#6bfc6b" rx="2" ry="2"/>
<text x="543.6" y="142.0"></text>
</g>
<g>
<title>java/util/concurrent/locks/ReentrantReadWriteLock$Sync.tryAcquireShared (1 samples, 0.04%)</title><rect x="540.6" y="115.0" width="0.5" height="15" fill="#58e958" rx="2" ry="2"/>
<text x="543.6" y="126.0"></text>
</g>
<g>
<title>java/lang/ThreadLocal.get (1 samples, 0.04%)</title><rect x="540.6" y="99.0" width="0.5" height="15" fill="#6cfd6c" rx="2" ry="2"/>
<text x="543.6" y="110.0"></text>
</g>
<g>
<title>java/lang/ThreadLocal.setInitialValue (1 samples, 0.04%)</title><rect x="540.6" y="83.0" width="0.5" height="15" fill="#53e453" rx="2" ry="2"/>
<text x="543.6" y="94.0"></text>
</g>
<g>
<title>java/util/concurrent/locks/ReentrantReadWriteLock$Sync$ThreadLocalHoldCounter.initialValue (1 samples, 0.04%)</title><rect x="540.6" y="67.0" width="0.5" height="15" fill="#5ced5c" rx="2" ry="2"/>
<text x="543.6" y="78.0"></text>
</g>
<g>
<title>java/util/concurrent/locks/ReentrantReadWriteLock$Sync$ThreadLocalHoldCounter.initialValue (1 samples, 0.04%)</title><rect x="540.6" y="51.0" width="0.5" height="15" fill="#69fa69" rx="2" ry="2"/>
<text x="543.6" y="62.0"></text>
</g>
<g>
<title>java.util.concurrent.locks.ReentrantReadWriteLock$Sync$HoldCounter (1 samples, 0.04%)</title><rect x="540.6" y="35.0" width="0.5" height="15" fill="#6cdada" rx="2" ry="2"/>
<text x="543.6" y="46.0"></text>
</g>
<g>
<title>java/util/concurrent/locks/ReentrantReadWriteLock$Sync.tryAcquireShared (4 samples, 0.18%)</title><rect x="541.1" y="131.0" width="2.1" height="15" fill="#59ea59" rx="2" ry="2"/>
<text x="544.1" y="142.0"></text>
</g>
<g>
<title>java/lang/ThreadLocal.get (4 samples, 0.18%)</title><rect x="541.1" y="115.0" width="2.1" height="15" fill="#5ff05f" rx="2" ry="2"/>
<text x="544.1" y="126.0"></text>
</g>
<g>
<title>java/lang/ThreadLocal.setInitialValue (4 samples, 0.18%)</title><rect x="541.1" y="99.0" width="2.1" height="15" fill="#60f160" rx="2" ry="2"/>
<text x="544.1" y="110.0"></text>
</g>
<g>
<title>java/lang/ThreadLocal$ThreadLocalMap.set (2 samples, 0.09%)</title><rect x="541.1" y="83.0" width="1.1" height="15" fill="#68f968" rx="2" ry="2"/>
<text x="544.1" y="94.0"></text>
</g>
<g>
<title>java.lang.ThreadLocal$ThreadLocalMap$Entry (2 samples, 0.09%)</title><rect x="541.1" y="67.0" width="1.1" height="15" fill="#6bd9d9" rx="2" ry="2"/>
<text x="544.1" y="78.0"></text>
</g>
<g>
<title>java/util/concurrent/locks/ReentrantReadWriteLock$Sync$ThreadLocalHoldCounter.initialValue (2 samples, 0.09%)</title><rect x="542.2" y="83.0" width="1.0" height="15" fill="#63f463" rx="2" ry="2"/>
<text x="545.2" y="94.0"></text>
</g>
<g>
<title>java/util/concurrent/locks/ReentrantReadWriteLock$Sync$ThreadLocalHoldCounter.initialValue (2 samples, 0.09%)</title><rect x="542.2" y="67.0" width="1.0" height="15" fill="#57e857" rx="2" ry="2"/>
<text x="545.2" y="78.0"></text>
</g>
<g>
<title>java.util.concurrent.locks.ReentrantReadWriteLock$Sync$HoldCounter (2 samples, 0.09%)</title><rect x="542.2" y="51.0" width="1.0" height="15" fill="#6cdada" rx="2" ry="2"/>
<text x="545.2" y="62.0"></text>
</g>
<g>
<title>ru/mail/polis/dao/kuzoliza/MemTable.upsert (195 samples, 8.69%)</title><rect x="543.2" y="163.0" width="102.5" height="15" fill="#61f261" rx="2" ry="2"/>
<text x="546.2" y="174.0">ru/mail/poli..</text>
</g>
<g>
<title>java/nio/HeapByteBuffer.duplicate (137 samples, 6.11%)</title><rect x="543.2" y="147.0" width="72.0" height="15" fill="#53e453" rx="2" ry="2"/>
<text x="546.2" y="158.0">java/nio..</text>
</g>
<g>
<title>java.nio.HeapByteBuffer (137 samples, 6.11%)</title><rect x="543.2" y="131.0" width="72.0" height="15" fill="#57c5c5" rx="2" ry="2"/>
<text x="546.2" y="142.0">java.nio..</text>
</g>
<g>
<title>java/util/concurrent/ConcurrentSkipListMap.put (14 samples, 0.62%)</title><rect x="615.2" y="147.0" width="7.4" height="15" fill="#6afb6a" rx="2" ry="2"/>
<text x="618.2" y="158.0"></text>
</g>
<g>
<title>java/util/concurrent/ConcurrentSkipListMap.doPut (14 samples, 0.62%)</title><rect x="615.2" y="131.0" width="7.4" height="15" fill="#55e655" rx="2" ry="2"/>
<text x="618.2" y="142.0"></text>
</g>
<g>
<title>java.util.concurrent.ConcurrentSkipListMap$Index (4 samples, 0.18%)</title><rect x="615.2" y="115.0" width="2.2" height="15" fill="#54c2c2" rx="2" ry="2"/>
<text x="618.2" y="126.0"></text>
</g>
<g>
<title>java.util.concurrent.ConcurrentSkipListMap$Node (10 samples, 0.45%)</title><rect x="617.4" y="115.0" width="5.2" height="15" fill="#69d7d7" rx="2" ry="2"/>
<text x="620.4" y="126.0"></text>
</g>
<g>
<title>ru.mail.polis.dao.kuzoliza.Value (44 samples, 1.96%)</title><rect x="622.6" y="147.0" width="23.1" height="15" fill="#62d0d0" rx="2" ry="2"/>
<text x="625.6" y="158.0">r..</text>
</g>
<g>
<title>one/nio/server/SelectorThread.run (1,035 samples, 46.12%)</title><rect x="645.7" y="275.0" width="544.3" height="15" fill="#62f362" rx="2" ry="2"/>
<text x="648.7" y="286.0">one/nio/server/SelectorThread.run</text>
</g>
<g>
<title>one/nio/net/JavaSelector.select (113 samples, 5.04%)</title><rect x="645.7" y="259.0" width="59.5" height="15" fill="#69fa69" rx="2" ry="2"/>
<text x="648.7" y="270.0">one/ni..</text>
</g>
<g>
<title>one/nio/net/JavaSelector.iteratorFor (60 samples, 2.67%)</title><rect x="645.7" y="243.0" width="31.6" height="15" fill="#64f564" rx="2" ry="2"/>
<text x="648.7" y="254.0">on..</text>
</g>
<g>
<title>one.nio.net.JavaSelector$1 (29 samples, 1.29%)</title><rect x="645.7" y="227.0" width="15.3" height="15" fill="#5bc9c9" rx="2" ry="2"/>
<text x="648.7" y="238.0"></text>
</g>
<g>
<title>one.nio.net.Session[] (31 samples, 1.38%)</title><rect x="661.0" y="227.0" width="16.3" height="15" fill="#6ad8d8" rx="2" ry="2"/>
<text x="664.0" y="238.0"></text>
</g>
<g>
<title>sun/nio/ch/SelectorImpl.select (53 samples, 2.36%)</title><rect x="677.3" y="243.0" width="27.9" height="15" fill="#64f564" rx="2" ry="2"/>
<text x="680.3" y="254.0">s..</text>
</g>
<g>
<title>sun/nio/ch/SelectorImpl.lockAndDoSelect (53 samples, 2.36%)</title><rect x="677.3" y="227.0" width="27.9" height="15" fill="#53e453" rx="2" ry="2"/>
<text x="680.3" y="238.0">s..</text>
</g>
<g>
<title>sun/nio/ch/KQueueSelectorImpl.doSelect (53 samples, 2.36%)</title><rect x="677.3" y="211.0" width="27.9" height="15" fill="#50e150" rx="2" ry="2"/>
<text x="680.3" y="222.0">s..</text>
</g>
<g>
<title>sun/nio/ch/KQueueSelectorImpl.processEvents (53 samples, 2.36%)</title><rect x="677.3" y="195.0" width="27.9" height="15" fill="#64f564" rx="2" ry="2"/>
<text x="680.3" y="206.0">s..</text>
</g>
<g>
<title>sun/nio/ch/SelectorImpl.processReadyEvents (53 samples, 2.36%)</title><rect x="677.3" y="179.0" width="27.9" height="15" fill="#62f362" rx="2" ry="2"/>
<text x="680.3" y="190.0">s..</text>
</g>
<g>
<title>java/util/HashSet.add (53 samples, 2.36%)</title><rect x="677.3" y="163.0" width="27.9" height="15" fill="#5dee5d" rx="2" ry="2"/>
<text x="680.3" y="174.0">j..</text>
</g>
<g>
<title>java/util/HashMap.put (53 samples, 2.36%)</title><rect x="677.3" y="147.0" width="27.9" height="15" fill="#61f261" rx="2" ry="2"/>
<text x="680.3" y="158.0">j..</text>
</g>
<g>
<title>java/util/HashMap.putVal (53 samples, 2.36%)</title><rect x="677.3" y="131.0" width="27.9" height="15" fill="#50e150" rx="2" ry="2"/>
<text x="680.3" y="142.0">j..</text>
</g>
<g>
<title>java/util/HashMap.newNode (53 samples, 2.36%)</title><rect x="677.3" y="115.0" width="27.9" height="15" fill="#5aeb5a" rx="2" ry="2"/>
<text x="680.3" y="126.0">j..</text>
</g>
<g>
<title>java.util.HashMap$Node (53 samples, 2.36%)</title><rect x="677.3" y="99.0" width="27.9" height="15" fill="#69d7d7" rx="2" ry="2"/>
<text x="680.3" y="110.0">j..</text>
</g>
<g>
<title>one/nio/net/Session.process (922 samples, 41.09%)</title><rect x="705.2" y="259.0" width="484.8" height="15" fill="#5bec5b" rx="2" ry="2"/>
<text x="708.2" y="270.0">one/nio/net/Session.process</text>
</g>
<g>
<title>one/nio/http/HttpSession.processRead (922 samples, 41.09%)</title><rect x="705.2" y="243.0" width="484.8" height="15" fill="#63f463" rx="2" ry="2"/>
<text x="708.2" y="254.0">one/nio/http/HttpSession.processRead</text>
</g>
<g>
<title>one/nio/http/HttpSession.processHttpBuffer (922 samples, 41.09%)</title><rect x="705.2" y="227.0" width="484.8" height="15" fill="#61f261" rx="2" ry="2"/>
<text x="708.2" y="238.0">one/nio/http/HttpSession.processHttpBuffer</text>
</g>
<g>
<title>one/nio/http/HttpSession.handleParsedRequest (192 samples, 8.56%)</title><rect x="705.2" y="211.0" width="100.9" height="15" fill="#51e251" rx="2" ry="2"/>
<text x="708.2" y="222.0">one/nio/http..</text>
</g>
<g>
<title>one/nio/http/HttpServer.handleRequest (192 samples, 8.56%)</title><rect x="705.2" y="195.0" width="100.9" height="15" fill="#66f766" rx="2" ry="2"/>
<text x="708.2" y="206.0">one/nio/http..</text>
</g>
<g>
<title>RequestHandler1_entity.handleRequest (121 samples, 5.39%)</title><rect x="705.2" y="179.0" width="63.6" height="15" fill="#58e958" rx="2" ry="2"/>
<text x="708.2" y="190.0">Request..</text>
</g>
<g>
<title>one/nio/http/Request.getRequiredParameter (68 samples, 3.03%)</title><rect x="705.2" y="163.0" width="35.7" height="15" fill="#5dee5d" rx="2" ry="2"/>
<text x="708.2" y="174.0">one..</text>
</g>
<g>
<title>one/nio/http/Request.getParameter (68 samples, 3.03%)</title><rect x="705.2" y="147.0" width="35.7" height="15" fill="#55e655" rx="2" ry="2"/>
<text x="708.2" y="158.0">one..</text>
</g>
<g>
<title>java/lang/String.substring (68 samples, 3.03%)</title><rect x="705.2" y="131.0" width="35.7" height="15" fill="#52e352" rx="2" ry="2"/>
<text x="708.2" y="142.0">jav..</text>
</g>
<g>
<title>java/lang/StringLatin1.newString (68 samples, 3.03%)</title><rect x="705.2" y="115.0" width="35.7" height="15" fill="#6afb6a" rx="2" ry="2"/>
<text x="708.2" y="126.0">jav..</text>
</g>
<g>
<title>java.lang.String (37 samples, 1.65%)</title><rect x="705.2" y="99.0" width="19.4" height="15" fill="#6ddbdb" rx="2" ry="2"/>
<text x="708.2" y="110.0"></text>
</g>
<g>
<title>java/util/Arrays.copyOfRange (31 samples, 1.38%)</title><rect x="724.6" y="99.0" width="16.3" height="15" fill="#61f261" rx="2" ry="2"/>
<text x="727.6" y="110.0"></text>
</g>
<g>
<title>byte[] (31 samples, 1.38%)</title><rect x="724.6" y="83.0" width="16.3" height="15" fill="#50bebe" rx="2" ry="2"/>
<text x="727.6" y="94.0"></text>
</g>
<g>
<title>ru/mail/polis/service/kuzoliza/MyService.entity (53 samples, 2.36%)</title><rect x="740.9" y="163.0" width="27.9" height="15" fill="#64f564" rx="2" ry="2"/>
<text x="743.9" y="174.0">r..</text>
</g>
<g>
<title>java/lang/invoke/Invokers$Holder.linkToTargetMethod (52 samples, 2.32%)</title><rect x="740.9" y="147.0" width="27.4" height="15" fill="#5eef5e" rx="2" ry="2"/>
<text x="743.9" y="158.0">j..</text>
</g>
<g>
<title>java/lang/invoke/DirectMethodHandle$Holder.invokeStatic (52 samples, 2.32%)</title><rect x="740.9" y="131.0" width="27.4" height="15" fill="#61f261" rx="2" ry="2"/>
<text x="743.9" y="142.0">j..</text>
</g>
<g>
<title>ru/mail/polis/service/kuzoliza/MyService$$Lambda$82/1378942806.get$Lambda (52 samples, 2.32%)</title><rect x="740.9" y="115.0" width="27.4" height="15" fill="#6afb6a" rx="2" ry="2"/>
<text x="743.9" y="126.0">r..</text>
</g>
<g>
<title>ru.mail.polis.service.kuzoliza.MyService$$Lambda$82 (52 samples, 2.32%)</title><rect x="740.9" y="99.0" width="27.4" height="15" fill="#5dcbcb" rx="2" ry="2"/>
<text x="743.9" y="110.0">r..</text>
</g>
<g>
<title>java/util/concurrent/ThreadPoolExecutor.execute (1 samples, 0.04%)</title><rect x="768.3" y="147.0" width="0.5" height="15" fill="#64f564" rx="2" ry="2"/>
<text x="771.3" y="158.0"></text>
</g>
<g>
<title>java/util/concurrent/ArrayBlockingQueue.offer (1 samples, 0.04%)</title><rect x="768.3" y="131.0" width="0.5" height="15" fill="#56e756" rx="2" ry="2"/>
<text x="771.3" y="142.0"></text>
</g>
<g>
<title>java/util/concurrent/locks/ReentrantLock.lock (1 samples, 0.04%)</title><rect x="768.3" y="115.0" width="0.5" height="15" fill="#5eef5e" rx="2" ry="2"/>
<text x="771.3" y="126.0"></text>
</g>
<g>
<title>java/util/concurrent/locks/AbstractQueuedSynchronizer.acquire (1 samples, 0.04%)</title><rect x="768.3" y="99.0" width="0.5" height="15" fill="#58e958" rx="2" ry="2"/>
<text x="771.3" y="110.0"></text>
</g>
<g>
<title>java/util/concurrent/locks/AbstractQueuedSynchronizer.addWaiter (1 samples, 0.04%)</title><rect x="768.3" y="83.0" width="0.5" height="15" fill="#6cfd6c" rx="2" ry="2"/>
<text x="771.3" y="94.0"></text>
</g>
<g>
<title>java.util.concurrent.locks.AbstractQueuedSynchronizer$Node (1 samples, 0.04%)</title><rect x="768.3" y="67.0" width="0.5" height="15" fill="#57c5c5" rx="2" ry="2"/>
<text x="771.3" y="78.0"></text>
</g>
<g>
<title>one/nio/http/Request.getPath (71 samples, 3.16%)</title><rect x="768.8" y="179.0" width="37.3" height="15" fill="#6cfd6c" rx="2" ry="2"/>
<text x="771.8" y="190.0">one..</text>
</g>
<g>
<title>java/lang/String.substring (71 samples, 3.16%)</title><rect x="768.8" y="163.0" width="37.3" height="15" fill="#5eef5e" rx="2" ry="2"/>
<text x="771.8" y="174.0">jav..</text>
</g>
<g>
<title>java/lang/StringLatin1.newString (71 samples, 3.16%)</title><rect x="768.8" y="147.0" width="37.3" height="15" fill="#53e453" rx="2" ry="2"/>
<text x="771.8" y="158.0">jav..</text>
</g>
<g>
<title>java.lang.String (33 samples, 1.47%)</title><rect x="768.8" y="131.0" width="17.3" height="15" fill="#6cdada" rx="2" ry="2"/>
<text x="771.8" y="142.0"></text>
</g>
<g>
<title>java/util/Arrays.copyOfRange (38 samples, 1.69%)</title><rect x="786.1" y="131.0" width="20.0" height="15" fill="#69fa69" rx="2" ry="2"/>
<text x="789.1" y="142.0"></text>
</g>
<g>
<title>byte[] (38 samples, 1.69%)</title><rect x="786.1" y="115.0" width="20.0" height="15" fill="#56c4c4" rx="2" ry="2"/>
<text x="789.1" y="126.0"></text>
</g>
<g>
<title>one/nio/http/HttpSession.parseRequest (319 samples, 14.22%)</title><rect x="806.1" y="211.0" width="167.8" height="15" fill="#50e150" rx="2" ry="2"/>
<text x="809.1" y="222.0">one/nio/http/HttpSess..</text>
</g>
<g>
<title>one.nio.http.Request (43 samples, 1.92%)</title><rect x="806.1" y="195.0" width="22.6" height="15" fill="#67d5d5" rx="2" ry="2"/>
<text x="809.1" y="206.0">o..</text>
</g>
<g>
<title>one/nio/http/Request.&lt;init&gt; (104 samples, 4.63%)</title><rect x="828.7" y="195.0" width="54.7" height="15" fill="#51e251" rx="2" ry="2"/>
<text x="831.7" y="206.0">one/n..</text>
</g>
<g>
<title>java.lang.String[] (104 samples, 4.63%)</title><rect x="828.7" y="179.0" width="54.7" height="15" fill="#6cdada" rx="2" ry="2"/>
<text x="831.7" y="190.0">java...</text>
</g>
<g>
<title>one/nio/util/Utf8.read (172 samples, 7.66%)</title><rect x="883.4" y="195.0" width="90.5" height="15" fill="#63f463" rx="2" ry="2"/>
<text x="886.4" y="206.0">one/nio/ut..</text>
</g>
<g>
<title>one/nio/util/Utf8.read (172 samples, 7.66%)</title><rect x="883.4" y="179.0" width="90.5" height="15" fill="#61f261" rx="2" ry="2"/>
<text x="886.4" y="190.0">one/nio/ut..</text>
</g>
<g>
<title>char[] (77 samples, 3.43%)</title><rect x="883.4" y="163.0" width="40.5" height="15" fill="#54c2c2" rx="2" ry="2"/>
<text x="886.4" y="174.0">cha..</text>
</g>
<g>
<title>java.lang.String (39 samples, 1.74%)</title><rect x="923.9" y="163.0" width="20.5" height="15" fill="#53c1c1" rx="2" ry="2"/>
<text x="926.9" y="174.0"></text>
</g>
<g>
<title>java/lang/String.&lt;init&gt; (56 samples, 2.50%)</title><rect x="944.4" y="163.0" width="29.5" height="15" fill="#68f968" rx="2" ry="2"/>
<text x="947.4" y="174.0">ja..</text>
</g>
<g>
<title>java/lang/String.&lt;init&gt; (56 samples, 2.50%)</title><rect x="944.4" y="147.0" width="29.5" height="15" fill="#5ff05f" rx="2" ry="2"/>
<text x="947.4" y="158.0">ja..</text>
</g>
<g>
<title>java/lang/StringUTF16.compress (56 samples, 2.50%)</title><rect x="944.4" y="131.0" width="29.5" height="15" fill="#63f463" rx="2" ry="2"/>
<text x="947.4" y="142.0">ja..</text>
</g>
<g>
<title>byte[] (56 samples, 2.50%)</title><rect x="944.4" y="115.0" width="29.5" height="15" fill="#5fcdcd" rx="2" ry="2"/>
<text x="947.4" y="126.0">by..</text>
</g>
<g>
<title>one/nio/http/HttpSession.startParsingRequestBody (44 samples, 1.96%)</title><rect x="973.9" y="211.0" width="23.1" height="15" fill="#5ff05f" rx="2" ry="2"/>
<text x="976.9" y="222.0">o..</text>
</g>
<g>
<title>byte[] (44 samples, 1.96%)</title><rect x="973.9" y="195.0" width="23.1" height="15" fill="#53c1c1" rx="2" ry="2"/>
<text x="976.9" y="206.0">b..</text>
</g>
<g>
<title>one/nio/http/Request.getHeader (66 samples, 2.94%)</title><rect x="997.0" y="211.0" width="34.7" height="15" fill="#6bfc6b" rx="2" ry="2"/>
<text x="1000.0" y="222.0">on..</text>
</g>
<g>
<title>java/lang/String.substring (66 samples, 2.94%)</title><rect x="997.0" y="195.0" width="34.7" height="15" fill="#64f564" rx="2" ry="2"/>
<text x="1000.0" y="206.0">ja..</text>
</g>
<g>
<title>java/lang/StringLatin1.newString (66 samples, 2.94%)</title><rect x="997.0" y="179.0" width="34.7" height="15" fill="#58e958" rx="2" ry="2"/>
<text x="1000.0" y="190.0">ja..</text>
</g>
<g>
<title>java.lang.String (28 samples, 1.25%)</title><rect x="997.0" y="163.0" width="14.7" height="15" fill="#5bc9c9" rx="2" ry="2"/>
<text x="1000.0" y="174.0"></text>
</g>
<g>
<title>java/util/Arrays.copyOfRange (38 samples, 1.69%)</title><rect x="1011.7" y="163.0" width="20.0" height="15" fill="#5bec5b" rx="2" ry="2"/>
<text x="1014.7" y="174.0"></text>
</g>
<g>
<title>byte[] (38 samples, 1.69%)</title><rect x="1011.7" y="147.0" width="20.0" height="15" fill="#68d6d6" rx="2" ry="2"/>
<text x="1014.7" y="158.0"></text>
</g>
<g>
<title>one/nio/util/Utf8.read (301 samples, 13.41%)</title><rect x="1031.7" y="211.0" width="158.3" height="15" fill="#57e857" rx="2" ry="2"/>
<text x="1034.7" y="222.0">one/nio/util/Utf8.read</text>
</g>
<g>
<title>one/nio/util/Utf8.read (301 samples, 13.41%)</title><rect x="1031.7" y="195.0" width="158.3" height="15" fill="#53e453" rx="2" ry="2"/>
<text x="1034.7" y="206.0">one/nio/util/Utf8.read</text>
</g>
<g>
<title>char[] (133 samples, 5.93%)</title><rect x="1031.7" y="179.0" width="70.0" height="15" fill="#65d3d3" rx="2" ry="2"/>
<text x="1034.7" y="190.0">char[]</text>
</g>
<g>
<title>java.lang.String (60 samples, 2.67%)</title><rect x="1101.7" y="179.0" width="31.5" height="15" fill="#63d1d1" rx="2" ry="2"/>
<text x="1104.7" y="190.0">ja..</text>
</g>
<g>
<title>java/lang/String.&lt;init&gt; (108 samples, 4.81%)</title><rect x="1133.2" y="179.0" width="56.8" height="15" fill="#56e756" rx="2" ry="2"/>
<text x="1136.2" y="190.0">java/l..</text>
</g>
<g>
<title>java/lang/String.&lt;init&gt; (108 samples, 4.81%)</title><rect x="1133.2" y="163.0" width="56.8" height="15" fill="#69fa69" rx="2" ry="2"/>
<text x="1136.2" y="174.0">java/l..</text>
</g>
<g>
<title>java/lang/StringUTF16.compress (108 samples, 4.81%)</title><rect x="1133.2" y="147.0" width="56.8" height="15" fill="#50e150" rx="2" ry="2"/>
<text x="1136.2" y="158.0">java/l..</text>
</g>
<g>
<title>byte[] (108 samples, 4.81%)</title><rect x="1133.2" y="131.0" width="56.8" height="15" fill="#53c1c1" rx="2" ry="2"/>
<text x="1136.2" y="142.0">byte[]</text>
</g>
</g>
</svg>
