<?xml version="1.0" standalone="no"?>
<!DOCTYPE svg PUBLIC "-//W3C//DTD SVG 1.1//EN" "http://www.w3.org/Graphics/SVG/1.1/DTD/svg11.dtd">
<svg version="1.1" width="1200" height="358" onload="init(evt)" viewBox="0 0 1200 358" xmlns="http://www.w3.org/2000/svg" xmlns:xlink="http://www.w3.org/1999/xlink">
<style type="text/css">
	text { font-family:Verdana; font-size:12px; fill:rgb(0,0,0); }
	#search { opacity:0.1; cursor:pointer; }
	#search:hover, #search.show { opacity:1; }
	#subtitle { text-anchor:middle; font-color:rgb(160,160,160); }
	#title { text-anchor:middle; font-size:17px}
	#unzoom { cursor:pointer; }
	#frames > *:hover { stroke:black; stroke-width:0.5; cursor:pointer; }
	.hide { display:none; }
	.parent { opacity:0.5; }
</style>
<script type="text/ecmascript">
<![CDATA[
	"use strict";
	var details, searchbtn, unzoombtn, matchedtxt, svg, searching;
	function init(evt) {
		details = document.getElementById("details").firstChild;
		searchbtn = document.getElementById("search");
		unzoombtn = document.getElementById("unzoom");
		matchedtxt = document.getElementById("matched");
		svg = document.getElementsByTagName("svg")[0];
		searching = 0;
	}

	window.addEventListener("click", function(e) {
		var target = find_group(e.target);
		if (target) {
			if (target.nodeName == "a") {
				if (e.ctrlKey === false) return;
				e.preventDefault();
			}
			if (target.classList.contains("parent")) unzoom();
			zoom(target);
		}
		else if (e.target.id == "unzoom") unzoom();
		else if (e.target.id == "search") search_prompt();
	}, false)

	// mouse-over for info
	// show
	window.addEventListener("mouseover", function(e) {
		var target = find_group(e.target);
		if (target) details.nodeValue = "Function: " + g_to_text(target);
	}, false)

	// clear
	window.addEventListener("mouseout", function(e) {
		var target = find_group(e.target);
		if (target) details.nodeValue = ' ';
	}, false)

	// ctrl-F for search
	window.addEventListener("keydown",function (e) {
		if (e.keyCode === 114 || (e.ctrlKey && e.keyCode === 70)) {
			e.preventDefault();
			search_prompt();
		}
	}, false)

	// functions
	function find_child(node, selector) {
		var children = node.querySelectorAll(selector);
		if (children.length) return children[0];
		return;
	}
	function find_group(node) {
		var parent = node.parentElement;
		if (!parent) return;
		if (parent.id == "frames") return node;
		return find_group(parent);
	}
	function orig_save(e, attr, val) {
		if (e.attributes["_orig_" + attr] != undefined) return;
		if (e.attributes[attr] == undefined) return;
		if (val == undefined) val = e.attributes[attr].value;
		e.setAttribute("_orig_" + attr, val);
	}
	function orig_load(e, attr) {
		if (e.attributes["_orig_"+attr] == undefined) return;
		e.attributes[attr].value = e.attributes["_orig_" + attr].value;
		e.removeAttribute("_orig_"+attr);
	}
	function g_to_text(e) {
		var text = find_child(e, "title").firstChild.nodeValue;
		return (text)
	}
	function g_to_func(e) {
		var func = g_to_text(e);
		// if there's any manipulation we want to do to the function
		// name before it's searched, do it here before returning.
		return (func);
	}
	function update_text(e) {
		var r = find_child(e, "rect");
		var t = find_child(e, "text");
		var w = parseFloat(r.attributes.width.value) -3;
		var txt = find_child(e, "title").textContent.replace(/\([^(]*\)$/,"");
		t.attributes.x.value = parseFloat(r.attributes.x.value) + 3;

		// Smaller than this size won't fit anything
		if (w < 2 * 12 * 0.59) {
			t.textContent = "";
			return;
		}

		t.textContent = txt;
		// Fit in full text width
		if (/^ *$/.test(txt) || t.getSubStringLength(0, txt.length) < w)
			return;

		for (var x = txt.length - 2; x > 0; x--) {
			if (t.getSubStringLength(0, x + 2) <= w) {
				t.textContent = txt.substring(0, x) + "..";
				return;
			}
		}
		t.textContent = "";
	}

	// zoom
	function zoom_reset(e) {
		if (e.attributes != undefined) {
			orig_load(e, "x");
			orig_load(e, "width");
		}
		if (e.childNodes == undefined) return;
		for (var i = 0, c = e.childNodes; i < c.length; i++) {
			zoom_reset(c[i]);
		}
	}
	function zoom_child(e, x, ratio) {
		if (e.attributes != undefined) {
			if (e.attributes.x != undefined) {
				orig_save(e, "x");
				e.attributes.x.value = (parseFloat(e.attributes.x.value) - x - 10) * ratio + 10;
				if (e.tagName == "text")
					e.attributes.x.value = find_child(e.parentNode, "rect[x]").attributes.x.value + 3;
			}
			if (e.attributes.width != undefined) {
				orig_save(e, "width");
				e.attributes.width.value = parseFloat(e.attributes.width.value) * ratio;
			}
		}

		if (e.childNodes == undefined) return;
		for (var i = 0, c = e.childNodes; i < c.length; i++) {
			zoom_child(c[i], x - 10, ratio);
		}
	}
	function zoom_parent(e) {
		if (e.attributes) {
			if (e.attributes.x != undefined) {
				orig_save(e, "x");
				e.attributes.x.value = 10;
			}
			if (e.attributes.width != undefined) {
				orig_save(e, "width");
				e.attributes.width.value = parseInt(svg.width.baseVal.value) - (10 * 2);
			}
		}
		if (e.childNodes == undefined) return;
		for (var i = 0, c = e.childNodes; i < c.length; i++) {
			zoom_parent(c[i]);
		}
	}
	function zoom(node) {
		var attr = find_child(node, "rect").attributes;
		var width = parseFloat(attr.width.value);
		var xmin = parseFloat(attr.x.value);
		var xmax = parseFloat(xmin + width);
		var ymin = parseFloat(attr.y.value);
		var ratio = (svg.width.baseVal.value - 2 * 10) / width;

		// XXX: Workaround for JavaScript float issues (fix me)
		var fudge = 0.0001;

		unzoombtn.classList.remove("hide");

		var el = document.getElementById("frames").children;
		for (var i = 0; i < el.length; i++) {
			var e = el[i];
			var a = find_child(e, "rect").attributes;
			var ex = parseFloat(a.x.value);
			var ew = parseFloat(a.width.value);
			var upstack;
			// Is it an ancestor
			if (0 == 0) {
				upstack = parseFloat(a.y.value) > ymin;
			} else {
				upstack = parseFloat(a.y.value) < ymin;
			}
			if (upstack) {
				// Direct ancestor
				if (ex <= xmin && (ex+ew+fudge) >= xmax) {
					e.classList.add("parent");
					zoom_parent(e);
					update_text(e);
				}
				// not in current path
				else
					e.classList.add("hide");
			}
			// Children maybe
			else {
				// no common path
				if (ex < xmin || ex + fudge >= xmax) {
					e.classList.add("hide");
				}
				else {
					zoom_child(e, xmin, ratio);
					update_text(e);
				}
			}
		}
	}
	function unzoom() {
		unzoombtn.classList.add("hide");
		var el = document.getElementById("frames").children;
		for(var i = 0; i < el.length; i++) {
			el[i].classList.remove("parent");
			el[i].classList.remove("hide");
			zoom_reset(el[i]);
			update_text(el[i]);
		}
	}

	// search
	function reset_search() {
		var el = document.querySelectorAll("#frames rect");
		for (var i = 0; i < el.length; i++) {
			orig_load(el[i], "fill")
		}
	}
	function search_prompt() {
		if (!searching) {
			var term = prompt("Enter a search term (regexp " +
			    "allowed, eg: ^ext4_)", "");
			if (term != null) {
				search(term)
			}
		} else {
			reset_search();
			searching = 0;
			searchbtn.classList.remove("show");
			searchbtn.firstChild.nodeValue = "Search"
			matchedtxt.classList.add("hide");
			matchedtxt.firstChild.nodeValue = ""
		}
	}
	function search(term) {
		var re = new RegExp(term);
		var el = document.getElementById("frames").children;
		var matches = new Object();
		var maxwidth = 0;
		for (var i = 0; i < el.length; i++) {
			var e = el[i];
			var func = g_to_func(e);
			var rect = find_child(e, "rect");
			if (func == null || rect == null)
				continue;

			// Save max width. Only works as we have a root frame
			var w = parseFloat(rect.attributes.width.value);
			if (w > maxwidth)
				maxwidth = w;

			if (func.match(re)) {
				// highlight
				var x = parseFloat(rect.attributes.x.value);
				orig_save(rect, "fill");
				rect.attributes.fill.value = "rgb(230,0,230)";

				// remember matches
				if (matches[x] == undefined) {
					matches[x] = w;
				} else {
					if (w > matches[x]) {
						// overwrite with parent
						matches[x] = w;
					}
				}
				searching = 1;
			}
		}
		if (!searching)
			return;

		searchbtn.classList.add("show");
		searchbtn.firstChild.nodeValue = "Reset Search";

		// calculate percent matched, excluding vertical overlap
		var count = 0;
		var lastx = -1;
		var lastw = 0;
		var keys = Array();
		for (k in matches) {
			if (matches.hasOwnProperty(k))
				keys.push(k);
		}
		// sort the matched frames by their x location
		// ascending, then width descending
		keys.sort(function(a, b){
			return a - b;
		});
		// Step through frames saving only the biggest bottom-up frames
		// thanks to the sort order. This relies on the tree property
		// where children are always smaller than their parents.
		var fudge = 0.0001;	// JavaScript floating point
		for (var k in keys) {
			var x = parseFloat(keys[k]);
			var w = matches[keys[k]];
			if (x >= lastx + lastw - fudge) {
				count += w;
				lastx = x;
				lastw = w;
			}
		}
		// display matched percent
		matchedtxt.classList.remove("hide");
		var pct = 100 * count / maxwidth;
		if (pct != 100) pct = pct.toFixed(1)
		matchedtxt.firstChild.nodeValue = "Matched: " + pct + "%";
	}
]]>
</script>
<rect x="0" y="0" width="100%" height="100%" fill="rgb(240,240,220)"/>
<text id="title" x="600" y="24">Flame Graph</text>
<text id="details" x="10" y="341"> </text>
<text id="unzoom" x="10" y="24" class="hide">Reset Zoom</text>
<text id="search" x="1090" y="24">Search</text>
<text id="matched" x="1090" y="341"> </text>
<g id="frames">
<g>
<title>all (1,563 samples, 100.00%)</title><rect x="10.0" y="307.0" width="1180.0" height="15" fill="#e25b5b" rx="2" ry="2"/>
<text x="13.0" y="318.0">all</text>
</g>
<g>
<title>one/nio/server/SelectorThread.run (1,563 samples, 100.00%)</title><rect x="10.0" y="291.0" width="1180.0" height="15" fill="#57e857" rx="2" ry="2"/>
<text x="13.0" y="302.0">one/nio/server/SelectorThread.run</text>
</g>
<g>
<title>one/nio/net/NativeSelector.select (54 samples, 3.45%)</title><rect x="10.0" y="275.0" width="40.8" height="15" fill="#67f867" rx="2" ry="2"/>
<text x="13.0" y="286.0">one..</text>
</g>
<g>
<title>one.nio.net.NativeSelector$2 (54 samples, 3.45%)</title><rect x="10.0" y="259.0" width="40.8" height="15" fill="#62d0d0" rx="2" ry="2"/>
<text x="13.0" y="270.0">one..</text>
</g>
<g>
<title>one/nio/net/Session.process (1,509 samples, 96.55%)</title><rect x="50.8" y="275.0" width="1139.2" height="15" fill="#69fa69" rx="2" ry="2"/>
<text x="53.8" y="286.0">one/nio/net/Session.process</text>
</g>
<g>
<title>one/nio/http/HttpSession.processRead (1,509 samples, 96.55%)</title><rect x="50.8" y="259.0" width="1139.2" height="15" fill="#59ea59" rx="2" ry="2"/>
<text x="53.8" y="270.0">one/nio/http/HttpSession.processRead</text>
</g>
<g>
<title>one/nio/http/HttpSession.processHttpBuffer (1,509 samples, 96.55%)</title><rect x="50.8" y="243.0" width="1139.2" height="15" fill="#56e756" rx="2" ry="2"/>
<text x="53.8" y="254.0">one/nio/http/HttpSession.processHttpBuffer</text>
</g>
<g>
<title>one/nio/http/HttpSession.handleParsedRequest (1,000 samples, 63.98%)</title><rect x="50.8" y="227.0" width="754.9" height="15" fill="#55e655" rx="2" ry="2"/>
<text x="53.8" y="238.0">one/nio/http/HttpSession.handleParsedRequest</text>
</g>
<g>
<title>one/nio/http/HttpServer.handleRequest (1,000 samples, 63.98%)</title><rect x="50.8" y="211.0" width="754.9" height="15" fill="#62f362" rx="2" ry="2"/>
<text x="53.8" y="222.0">one/nio/http/HttpServer.handleRequest</text>
</g>
<g>
<title>RequestHandler1_entity.handleRequest (949 samples, 60.72%)</title><rect x="50.8" y="195.0" width="716.4" height="15" fill="#53e453" rx="2" ry="2"/>
<text x="53.8" y="206.0">RequestHandler1_entity.handleRequest</text>
</g>
<g>
<title>one/nio/http/HttpSession.sendResponse (51 samples, 3.26%)</title><rect x="50.8" y="179.0" width="38.5" height="15" fill="#64f564" rx="2" ry="2"/>
<text x="53.8" y="190.0">one..</text>
</g>
<g>
<title>one/nio/http/HttpSession.writeResponse (51 samples, 3.26%)</title><rect x="50.8" y="163.0" width="38.5" height="15" fill="#67f867" rx="2" ry="2"/>
<text x="53.8" y="174.0">one..</text>
</g>
<g>
<title>one/nio/http/Response.toBytes (51 samples, 3.26%)</title><rect x="50.8" y="147.0" width="38.5" height="15" fill="#65f665" rx="2" ry="2"/>
<text x="53.8" y="158.0">one..</text>
</g>
<g>
<title>one/nio/util/ByteArrayBuilder.&lt;init&gt; (51 samples, 3.26%)</title><rect x="50.8" y="131.0" width="38.5" height="15" fill="#56e756" rx="2" ry="2"/>
<text x="53.8" y="142.0">one..</text>
</g>
<g>
<title>byte[] (51 samples, 3.26%)</title><rect x="50.8" y="115.0" width="38.5" height="15" fill="#5ccaca" rx="2" ry="2"/>
<text x="53.8" y="126.0">byt..</text>
</g>
<g>
<title>one/nio/http/Request.getParameter (51 samples, 3.26%)</title><rect x="89.3" y="179.0" width="38.5" height="15" fill="#59ea59" rx="2" ry="2"/>
<text x="92.3" y="190.0">one..</text>
</g>
<g>
<title>java/lang/String.substring (51 samples, 3.26%)</title><rect x="89.3" y="163.0" width="38.5" height="15" fill="#5dee5d" rx="2" ry="2"/>
<text x="92.3" y="174.0">jav..</text>
</g>
<g>
<title>java/lang/StringLatin1.newString (51 samples, 3.26%)</title><rect x="89.3" y="147.0" width="38.5" height="15" fill="#56e756" rx="2" ry="2"/>
<text x="92.3" y="158.0">jav..</text>
</g>
<g>
<title>java/util/Arrays.copyOfRange (51 samples, 3.26%)</title><rect x="89.3" y="131.0" width="38.5" height="15" fill="#5bec5b" rx="2" ry="2"/>
<text x="92.3" y="142.0">jav..</text>
</g>
<g>
<title>byte[] (51 samples, 3.26%)</title><rect x="89.3" y="115.0" width="38.5" height="15" fill="#5fcdcd" rx="2" ry="2"/>
<text x="92.3" y="126.0">byt..</text>
</g>
<g>
<title>ru/mail/polis/service/shakirov/MyHttpServer.entity (847 samples, 54.19%)</title><rect x="127.8" y="179.0" width="639.4" height="15" fill="#54e554" rx="2" ry="2"/>
<text x="130.8" y="190.0">ru/mail/polis/service/shakirov/MyHttpServer.entity</text>
</g>
<g>
<title>java/nio/ByteBuffer.wrap (101 samples, 6.46%)</title><rect x="127.8" y="163.0" width="76.2" height="15" fill="#60f160" rx="2" ry="2"/>
<text x="130.8" y="174.0">java/nio..</text>
</g>
<g>
<title>java/nio/ByteBuffer.wrap (101 samples, 6.46%)</title><rect x="127.8" y="147.0" width="76.2" height="15" fill="#50e150" rx="2" ry="2"/>
<text x="130.8" y="158.0">java/nio..</text>
</g>
<g>
<title>java.nio.HeapByteBuffer (101 samples, 6.46%)</title><rect x="127.8" y="131.0" width="76.2" height="15" fill="#5bc9c9" rx="2" ry="2"/>
<text x="130.8" y="142.0">java.nio..</text>
</g>
<g>
<title>one.nio.http.Response (1 samples, 0.06%)</title><rect x="204.0" y="163.0" width="0.8" height="15" fill="#5bc9c9" rx="2" ry="2"/>
<text x="207.0" y="174.0"></text>
</g>
<g>
<title>one/nio/http/Response.&lt;init&gt; (102 samples, 6.53%)</title><rect x="204.8" y="163.0" width="77.0" height="15" fill="#59ea59" rx="2" ry="2"/>
<text x="207.8" y="174.0">one/nio/h..</text>
</g>
<g>
<title>byte[] (50 samples, 3.20%)</title><rect x="204.8" y="147.0" width="37.7" height="15" fill="#66d4d4" rx="2" ry="2"/>
<text x="207.8" y="158.0">byt..</text>
</g>
<g>
<title>java.lang.String[] (2 samples, 0.13%)</title><rect x="242.5" y="147.0" width="1.5" height="15" fill="#57c5c5" rx="2" ry="2"/>
<text x="245.5" y="158.0"></text>
</g>
<g>
<title>java.lang.String (50 samples, 3.20%)</title><rect x="244.0" y="147.0" width="37.8" height="15" fill="#63d1d1" rx="2" ry="2"/>
<text x="247.0" y="158.0">jav..</text>
</g>
<g>
<title>ru/mail/polis/dao/LsmDao.upsert (643 samples, 41.14%)</title><rect x="281.8" y="163.0" width="485.4" height="15" fill="#60f160" rx="2" ry="2"/>
<text x="284.8" y="174.0">ru/mail/polis/dao/LsmDao.upsert</text>
</g>
<g>
<title>java/nio/HeapByteBuffer.asReadOnlyBuffer (54 samples, 3.45%)</title><rect x="281.8" y="147.0" width="40.8" height="15" fill="#6bfc6b" rx="2" ry="2"/>
<text x="284.8" y="158.0">jav..</text>
</g>
<g>
<title>java.nio.HeapByteBufferR (54 samples, 3.45%)</title><rect x="281.8" y="131.0" width="40.8" height="15" fill="#64d2d2" rx="2" ry="2"/>
<text x="284.8" y="142.0">jav..</text>
</g>
<g>
<title>ru/mail/polis/dao/LsmDao.flush (491 samples, 31.41%)</title><rect x="322.6" y="147.0" width="370.6" height="15" fill="#68f968" rx="2" ry="2"/>
<text x="325.6" y="158.0">ru/mail/polis/dao/LsmDao.flush</text>
</g>
<g>
<title>ru/mail/polis/dao/SSTable.serialize (491 samples, 31.41%)</title><rect x="322.6" y="131.0" width="370.6" height="15" fill="#64f564" rx="2" ry="2"/>
<text x="325.6" y="142.0">ru/mail/polis/dao/SSTable.serialize</text>
</g>
<g>
<title>java/lang/Long.valueOf (36 samples, 2.30%)</title><rect x="322.6" y="115.0" width="27.1" height="15" fill="#59ea59" rx="2" ry="2"/>
<text x="325.6" y="126.0">j..</text>
</g>
<g>
<title>java.lang.Long (36 samples, 2.30%)</title><rect x="322.6" y="99.0" width="27.1" height="15" fill="#63d1d1" rx="2" ry="2"/>
<text x="325.6" y="110.0">j..</text>
</g>
<g>
<title>java/nio/ByteBuffer.allocate (378 samples, 24.18%)</title><rect x="349.7" y="115.0" width="285.4" height="15" fill="#50e150" rx="2" ry="2"/>
<text x="352.7" y="126.0">java/nio/ByteBuffer.allocate</text>
</g>
<g>
<title>java.nio.HeapByteBuffer (251 samples, 16.06%)</title><rect x="349.7" y="99.0" width="189.5" height="15" fill="#5fcdcd" rx="2" ry="2"/>
<text x="352.7" y="110.0">java.nio.HeapByteBuffer</text>
</g>
<g>
<title>java/nio/HeapByteBuffer.&lt;init&gt; (127 samples, 8.13%)</title><rect x="539.2" y="99.0" width="95.9" height="15" fill="#69fa69" rx="2" ry="2"/>
<text x="542.2" y="110.0">java/nio/He..</text>
</g>
<g>
<title>byte[] (127 samples, 8.13%)</title><rect x="539.2" y="83.0" width="95.9" height="15" fill="#62d0d0" rx="2" ry="2"/>
<text x="542.2" y="94.0">byte[]</text>
</g>
<g>
<title>java/util/ArrayList.add (10 samples, 0.64%)</title><rect x="635.1" y="115.0" width="7.6" height="15" fill="#63f463" rx="2" ry="2"/>
<text x="638.1" y="126.0"></text>
</g>
<g>
<title>java/util/ArrayList.add (10 samples, 0.64%)</title><rect x="635.1" y="99.0" width="7.6" height="15" fill="#5ff05f" rx="2" ry="2"/>
<text x="638.1" y="110.0"></text>
</g>
<g>
<title>java/util/ArrayList.grow (10 samples, 0.64%)</title><rect x="635.1" y="83.0" width="7.6" height="15" fill="#5ced5c" rx="2" ry="2"/>
<text x="638.1" y="94.0"></text>
</g>
<g>
<title>java/util/ArrayList.grow (10 samples, 0.64%)</title><rect x="635.1" y="67.0" width="7.6" height="15" fill="#5aeb5a" rx="2" ry="2"/>
<text x="638.1" y="78.0"></text>
</g>
<g>
<title>java/util/Arrays.copyOf (10 samples, 0.64%)</title><rect x="635.1" y="51.0" width="7.6" height="15" fill="#65f665" rx="2" ry="2"/>
<text x="638.1" y="62.0"></text>
</g>
<g>
<title>java.lang.Object[] (10 samples, 0.64%)</title><rect x="635.1" y="35.0" width="7.6" height="15" fill="#f99500" rx="2" ry="2"/>
<text x="638.1" y="46.0"></text>
</g>
<g>
<title>ru/mail/polis/dao/Value.getData (67 samples, 4.29%)</title><rect x="642.7" y="115.0" width="50.5" height="15" fill="#64f564" rx="2" ry="2"/>
<text x="645.7" y="126.0">ru/ma..</text>
</g>
<g>
<title>java/nio/HeapByteBufferR.asReadOnlyBuffer (67 samples, 4.29%)</title><rect x="642.7" y="99.0" width="50.5" height="15" fill="#54e554" rx="2" ry="2"/>
<text x="645.7" y="110.0">java/..</text>
</g>
<g>
<title>java/nio/HeapByteBufferR.duplicate (67 samples, 4.29%)</title><rect x="642.7" y="83.0" width="50.5" height="15" fill="#50e150" rx="2" ry="2"/>
<text x="645.7" y="94.0">java/..</text>
</g>
<g>
<title>java.nio.HeapByteBufferR (67 samples, 4.29%)</title><rect x="642.7" y="67.0" width="50.5" height="15" fill="#51bfbf" rx="2" ry="2"/>
<text x="645.7" y="78.0">java...</text>
</g>
<g>
<title>ru/mail/polis/dao/MemTable.upsert (98 samples, 6.27%)</title><rect x="693.2" y="147.0" width="74.0" height="15" fill="#64f564" rx="2" ry="2"/>
<text x="696.2" y="158.0">ru/mail/..</text>
</g>
<g>
<title>java/util/TreeMap.put (98 samples, 6.27%)</title><rect x="693.2" y="131.0" width="74.0" height="15" fill="#55e655" rx="2" ry="2"/>
<text x="696.2" y="142.0">java/uti..</text>
</g>
<g>
<title>java.util.TreeMap$Entry (98 samples, 6.27%)</title><rect x="693.2" y="115.0" width="74.0" height="15" fill="#62d0d0" rx="2" ry="2"/>
<text x="696.2" y="126.0">java.uti..</text>
</g>
<g>
<title>one/nio/http/Request.getPath (51 samples, 3.26%)</title><rect x="767.2" y="195.0" width="38.5" height="15" fill="#65f665" rx="2" ry="2"/>
<text x="770.2" y="206.0">one..</text>
</g>
<g>
<title>java/lang/String.substring (51 samples, 3.26%)</title><rect x="767.2" y="179.0" width="38.5" height="15" fill="#61f261" rx="2" ry="2"/>
<text x="770.2" y="190.0">jav..</text>
</g>
<g>
<title>java/lang/StringLatin1.newString (51 samples, 3.26%)</title><rect x="767.2" y="163.0" width="38.5" height="15" fill="#50e150" rx="2" ry="2"/>
<text x="770.2" y="174.0">jav..</text>
</g>
<g>
<title>java.lang.String (49 samples, 3.13%)</title><rect x="767.2" y="147.0" width="37.0" height="15" fill="#50bebe" rx="2" ry="2"/>
<text x="770.2" y="158.0">jav..</text>
</g>
<g>
<title>java/util/Arrays.copyOfRange (2 samples, 0.13%)</title><rect x="804.2" y="147.0" width="1.5" height="15" fill="#59ea59" rx="2" ry="2"/>
<text x="807.2" y="158.0"></text>
</g>
<g>
<title>byte[] (2 samples, 0.13%)</title><rect x="804.2" y="131.0" width="1.5" height="15" fill="#57c5c5" rx="2" ry="2"/>
<text x="807.2" y="142.0"></text>
</g>
<g>
<title>one/nio/http/HttpSession.parseRequest (256 samples, 16.38%)</title><rect x="805.7" y="227.0" width="193.3" height="15" fill="#63f463" rx="2" ry="2"/>
<text x="808.7" y="238.0">one/nio/http/HttpSession...</text>
</g>
<g>
<title>one.nio.http.Request (51 samples, 3.26%)</title><rect x="805.7" y="211.0" width="38.5" height="15" fill="#69d7d7" rx="2" ry="2"/>
<text x="808.7" y="222.0">one..</text>
</g>
<g>
<title>one/nio/http/Request.&lt;init&gt; (103 samples, 6.59%)</title><rect x="844.2" y="211.0" width="77.8" height="15" fill="#55e655" rx="2" ry="2"/>
<text x="847.2" y="222.0">one/nio/h..</text>
</g>
<g>
<title>java.lang.String[] (103 samples, 6.59%)</title><rect x="844.2" y="195.0" width="77.8" height="15" fill="#5ac8c8" rx="2" ry="2"/>
<text x="847.2" y="206.0">java.lang..</text>
</g>
<g>
<title>one/nio/util/Utf8.read (102 samples, 6.53%)</title><rect x="922.0" y="211.0" width="77.0" height="15" fill="#64f564" rx="2" ry="2"/>
<text x="925.0" y="222.0">one/nio/u..</text>
</g>
<g>
<title>one/nio/util/Utf8.read (102 samples, 6.53%)</title><rect x="922.0" y="195.0" width="77.0" height="15" fill="#6afb6a" rx="2" ry="2"/>
<text x="925.0" y="206.0">one/nio/u..</text>
</g>
<g>
<title>char[] (99 samples, 6.33%)</title><rect x="922.0" y="179.0" width="74.7" height="15" fill="#63d1d1" rx="2" ry="2"/>
<text x="925.0" y="190.0">char[]</text>
</g>
<g>
<title>java/lang/String.&lt;init&gt; (3 samples, 0.19%)</title><rect x="996.7" y="179.0" width="2.3" height="15" fill="#59ea59" rx="2" ry="2"/>
<text x="999.7" y="190.0"></text>
</g>
<g>
<title>java/lang/String.&lt;init&gt; (3 samples, 0.19%)</title><rect x="996.7" y="163.0" width="2.3" height="15" fill="#6afb6a" rx="2" ry="2"/>
<text x="999.7" y="174.0"></text>
</g>
<g>
<title>java/lang/StringUTF16.compress (3 samples, 0.19%)</title><rect x="996.7" y="147.0" width="2.3" height="15" fill="#55e655" rx="2" ry="2"/>
<text x="999.7" y="158.0"></text>
</g>
<g>
<title>byte[] (3 samples, 0.19%)</title><rect x="996.7" y="131.0" width="2.3" height="15" fill="#54c2c2" rx="2" ry="2"/>
<text x="999.7" y="142.0"></text>
</g>
<g>
<title>one/nio/http/HttpSession.startParsingRequestBody (50 samples, 3.20%)</title><rect x="999.0" y="227.0" width="37.7" height="15" fill="#5ff05f" rx="2" ry="2"/>
<text x="1002.0" y="238.0">one..</text>
</g>
<g>
<title>byte[] (50 samples, 3.20%)</title><rect x="999.0" y="211.0" width="37.7" height="15" fill="#68d6d6" rx="2" ry="2"/>
<text x="1002.0" y="222.0">byt..</text>
</g>
<g>
<title>one/nio/http/Request.getHeader (49 samples, 3.13%)</title><rect x="1036.7" y="227.0" width="37.0" height="15" fill="#64f564" rx="2" ry="2"/>
<text x="1039.7" y="238.0">one..</text>
</g>
<g>
<title>java/lang/String.substring (49 samples, 3.13%)</title><rect x="1036.7" y="211.0" width="37.0" height="15" fill="#6bfc6b" rx="2" ry="2"/>
<text x="1039.7" y="222.0">jav..</text>
</g>
<g>
<title>java/lang/StringLatin1.newString (49 samples, 3.13%)</title><rect x="1036.7" y="195.0" width="37.0" height="15" fill="#55e655" rx="2" ry="2"/>
<text x="1039.7" y="206.0">jav..</text>
</g>
<g>
<title>java/util/Arrays.copyOfRange (49 samples, 3.13%)</title><rect x="1036.7" y="179.0" width="37.0" height="15" fill="#5bec5b" rx="2" ry="2"/>
<text x="1039.7" y="190.0">jav..</text>
</g>
<g>
<title>byte[] (49 samples, 3.13%)</title><rect x="1036.7" y="163.0" width="37.0" height="15" fill="#65d3d3" rx="2" ry="2"/>
<text x="1039.7" y="174.0">byt..</text>
</g>
<g>
<title>one/nio/util/Utf8.read (154 samples, 9.85%)</title><rect x="1073.7" y="227.0" width="116.3" height="15" fill="#6afb6a" rx="2" ry="2"/>
<text x="1076.7" y="238.0">one/nio/util/U..</text>
</g>
<g>
<title>one/nio/util/Utf8.read (154 samples, 9.85%)</title><rect x="1073.7" y="211.0" width="116.3" height="15" fill="#60f160" rx="2" ry="2"/>
<text x="1076.7" y="222.0">one/nio/util/U..</text>
</g>
<g>
<title>char[] (99 samples, 6.33%)</title><rect x="1073.7" y="195.0" width="74.8" height="15" fill="#66d4d4" rx="2" ry="2"/>
<text x="1076.7" y="206.0">char[]</text>
</g>
<g>
<title>java.lang.String (1 samples, 0.06%)</title><rect x="1148.5" y="195.0" width="0.7" height="15" fill="#6bd9d9" rx="2" ry="2"/>
<text x="1151.5" y="206.0"></text>
</g>
<g>
<title>java/lang/String.&lt;init&gt; (54 samples, 3.45%)</title><rect x="1149.2" y="195.0" width="40.8" height="15" fill="#56e756" rx="2" ry="2"/>
<text x="1152.2" y="206.0">jav..</text>
</g>
<g>
<title>java/lang/String.&lt;init&gt; (54 samples, 3.45%)</title><rect x="1149.2" y="179.0" width="40.8" height="15" fill="#6bfc6b" rx="2" ry="2"/>
<text x="1152.2" y="190.0">jav..</text>
</g>
<g>
<title>java/lang/StringUTF16.compress (54 samples, 3.45%)</title><rect x="1149.2" y="163.0" width="40.8" height="15" fill="#60f160" rx="2" ry="2"/>
<text x="1152.2" y="174.0">jav..</text>
</g>
<g>
<title>byte[] (54 samples, 3.45%)</title><rect x="1149.2" y="147.0" width="40.8" height="15" fill="#6cdada" rx="2" ry="2"/>
<text x="1152.2" y="158.0">byt..</text>
</g>
</g>
</svg>
