<?xml version="1.0" standalone="no"?>
<!DOCTYPE svg PUBLIC "-//W3C//DTD SVG 1.1//EN" "http://www.w3.org/Graphics/SVG/1.1/DTD/svg11.dtd">
<svg version="1.1" width="1200" height="502" onload="init(evt)" viewBox="0 0 1200 502" xmlns="http://www.w3.org/2000/svg" xmlns:xlink="http://www.w3.org/1999/xlink">
<style type="text/css">
	text { font-family:Verdana; font-size:12px; fill:rgb(0,0,0); }
	#search { opacity:0.1; cursor:pointer; }
	#search:hover, #search.show { opacity:1; }
	#subtitle { text-anchor:middle; font-color:rgb(160,160,160); }
	#title { text-anchor:middle; font-size:17px}
	#unzoom { cursor:pointer; }
	#frames > *:hover { stroke:black; stroke-width:0.5; cursor:pointer; }
	.hide { display:none; }
	.parent { opacity:0.5; }
</style>
<script type="text/ecmascript">
<![CDATA[
	"use strict";
	var details, searchbtn, unzoombtn, matchedtxt, svg, searching;
	function init(evt) {
		details = document.getElementById("details").firstChild;
		searchbtn = document.getElementById("search");
		unzoombtn = document.getElementById("unzoom");
		matchedtxt = document.getElementById("matched");
		svg = document.getElementsByTagName("svg")[0];
		searching = 0;
	}

	window.addEventListener("click", function(e) {
		var target = find_group(e.target);
		if (target) {
			if (target.nodeName == "a") {
				if (e.ctrlKey === false) return;
				e.preventDefault();
			}
			if (target.classList.contains("parent")) unzoom();
			zoom(target);
		}
		else if (e.target.id == "unzoom") unzoom();
		else if (e.target.id == "search") search_prompt();
	}, false)

	// mouse-over for info
	// show
	window.addEventListener("mouseover", function(e) {
		var target = find_group(e.target);
		if (target) details.nodeValue = "Function: " + g_to_text(target);
	}, false)

	// clear
	window.addEventListener("mouseout", function(e) {
		var target = find_group(e.target);
		if (target) details.nodeValue = ' ';
	}, false)

	// ctrl-F for search
	window.addEventListener("keydown",function (e) {
		if (e.keyCode === 114 || (e.ctrlKey && e.keyCode === 70)) {
			e.preventDefault();
			search_prompt();
		}
	}, false)

	// functions
	function find_child(node, selector) {
		var children = node.querySelectorAll(selector);
		if (children.length) return children[0];
		return;
	}
	function find_group(node) {
		var parent = node.parentElement;
		if (!parent) return;
		if (parent.id == "frames") return node;
		return find_group(parent);
	}
	function orig_save(e, attr, val) {
		if (e.attributes["_orig_" + attr] != undefined) return;
		if (e.attributes[attr] == undefined) return;
		if (val == undefined) val = e.attributes[attr].value;
		e.setAttribute("_orig_" + attr, val);
	}
	function orig_load(e, attr) {
		if (e.attributes["_orig_"+attr] == undefined) return;
		e.attributes[attr].value = e.attributes["_orig_" + attr].value;
		e.removeAttribute("_orig_"+attr);
	}
	function g_to_text(e) {
		var text = find_child(e, "title").firstChild.nodeValue;
		return (text)
	}
	function g_to_func(e) {
		var func = g_to_text(e);
		// if there's any manipulation we want to do to the function
		// name before it's searched, do it here before returning.
		return (func);
	}
	function update_text(e) {
		var r = find_child(e, "rect");
		var t = find_child(e, "text");
		var w = parseFloat(r.attributes.width.value) -3;
		var txt = find_child(e, "title").textContent.replace(/\([^(]*\)$/,"");
		t.attributes.x.value = parseFloat(r.attributes.x.value) + 3;

		// Smaller than this size won't fit anything
		if (w < 2 * 12 * 0.59) {
			t.textContent = "";
			return;
		}

		t.textContent = txt;
		// Fit in full text width
		if (/^ *$/.test(txt) || t.getSubStringLength(0, txt.length) < w)
			return;

		for (var x = txt.length - 2; x > 0; x--) {
			if (t.getSubStringLength(0, x + 2) <= w) {
				t.textContent = txt.substring(0, x) + "..";
				return;
			}
		}
		t.textContent = "";
	}

	// zoom
	function zoom_reset(e) {
		if (e.attributes != undefined) {
			orig_load(e, "x");
			orig_load(e, "width");
		}
		if (e.childNodes == undefined) return;
		for (var i = 0, c = e.childNodes; i < c.length; i++) {
			zoom_reset(c[i]);
		}
	}
	function zoom_child(e, x, ratio) {
		if (e.attributes != undefined) {
			if (e.attributes.x != undefined) {
				orig_save(e, "x");
				e.attributes.x.value = (parseFloat(e.attributes.x.value) - x - 10) * ratio + 10;
				if (e.tagName == "text")
					e.attributes.x.value = find_child(e.parentNode, "rect[x]").attributes.x.value + 3;
			}
			if (e.attributes.width != undefined) {
				orig_save(e, "width");
				e.attributes.width.value = parseFloat(e.attributes.width.value) * ratio;
			}
		}

		if (e.childNodes == undefined) return;
		for (var i = 0, c = e.childNodes; i < c.length; i++) {
			zoom_child(c[i], x - 10, ratio);
		}
	}
	function zoom_parent(e) {
		if (e.attributes) {
			if (e.attributes.x != undefined) {
				orig_save(e, "x");
				e.attributes.x.value = 10;
			}
			if (e.attributes.width != undefined) {
				orig_save(e, "width");
				e.attributes.width.value = parseInt(svg.width.baseVal.value) - (10 * 2);
			}
		}
		if (e.childNodes == undefined) return;
		for (var i = 0, c = e.childNodes; i < c.length; i++) {
			zoom_parent(c[i]);
		}
	}
	function zoom(node) {
		var attr = find_child(node, "rect").attributes;
		var width = parseFloat(attr.width.value);
		var xmin = parseFloat(attr.x.value);
		var xmax = parseFloat(xmin + width);
		var ymin = parseFloat(attr.y.value);
		var ratio = (svg.width.baseVal.value - 2 * 10) / width;

		// XXX: Workaround for JavaScript float issues (fix me)
		var fudge = 0.0001;

		unzoombtn.classList.remove("hide");

		var el = document.getElementById("frames").children;
		for (var i = 0; i < el.length; i++) {
			var e = el[i];
			var a = find_child(e, "rect").attributes;
			var ex = parseFloat(a.x.value);
			var ew = parseFloat(a.width.value);
			var upstack;
			// Is it an ancestor
			if (0 == 0) {
				upstack = parseFloat(a.y.value) > ymin;
			} else {
				upstack = parseFloat(a.y.value) < ymin;
			}
			if (upstack) {
				// Direct ancestor
				if (ex <= xmin && (ex+ew+fudge) >= xmax) {
					e.classList.add("parent");
					zoom_parent(e);
					update_text(e);
				}
				// not in current path
				else
					e.classList.add("hide");
			}
			// Children maybe
			else {
				// no common path
				if (ex < xmin || ex + fudge >= xmax) {
					e.classList.add("hide");
				}
				else {
					zoom_child(e, xmin, ratio);
					update_text(e);
				}
			}
		}
	}
	function unzoom() {
		unzoombtn.classList.add("hide");
		var el = document.getElementById("frames").children;
		for(var i = 0; i < el.length; i++) {
			el[i].classList.remove("parent");
			el[i].classList.remove("hide");
			zoom_reset(el[i]);
			update_text(el[i]);
		}
	}

	// search
	function reset_search() {
		var el = document.querySelectorAll("#frames rect");
		for (var i = 0; i < el.length; i++) {
			orig_load(el[i], "fill")
		}
	}
	function search_prompt() {
		if (!searching) {
			var term = prompt("Enter a search term (regexp " +
			    "allowed, eg: ^ext4_)", "");
			if (term != null) {
				search(term)
			}
		} else {
			reset_search();
			searching = 0;
			searchbtn.classList.remove("show");
			searchbtn.firstChild.nodeValue = "Search"
			matchedtxt.classList.add("hide");
			matchedtxt.firstChild.nodeValue = ""
		}
	}
	function search(term) {
		var re = new RegExp(term);
		var el = document.getElementById("frames").children;
		var matches = new Object();
		var maxwidth = 0;
		for (var i = 0; i < el.length; i++) {
			var e = el[i];
			var func = g_to_func(e);
			var rect = find_child(e, "rect");
			if (func == null || rect == null)
				continue;

			// Save max width. Only works as we have a root frame
			var w = parseFloat(rect.attributes.width.value);
			if (w > maxwidth)
				maxwidth = w;

			if (func.match(re)) {
				// highlight
				var x = parseFloat(rect.attributes.x.value);
				orig_save(rect, "fill");
				rect.attributes.fill.value = "rgb(230,0,230)";

				// remember matches
				if (matches[x] == undefined) {
					matches[x] = w;
				} else {
					if (w > matches[x]) {
						// overwrite with parent
						matches[x] = w;
					}
				}
				searching = 1;
			}
		}
		if (!searching)
			return;

		searchbtn.classList.add("show");
		searchbtn.firstChild.nodeValue = "Reset Search";

		// calculate percent matched, excluding vertical overlap
		var count = 0;
		var lastx = -1;
		var lastw = 0;
		var keys = Array();
		for (k in matches) {
			if (matches.hasOwnProperty(k))
				keys.push(k);
		}
		// sort the matched frames by their x location
		// ascending, then width descending
		keys.sort(function(a, b){
			return a - b;
		});
		// Step through frames saving only the biggest bottom-up frames
		// thanks to the sort order. This relies on the tree property
		// where children are always smaller than their parents.
		var fudge = 0.0001;	// JavaScript floating point
		for (var k in keys) {
			var x = parseFloat(keys[k]);
			var w = matches[keys[k]];
			if (x >= lastx + lastw - fudge) {
				count += w;
				lastx = x;
				lastw = w;
			}
		}
		// display matched percent
		matchedtxt.classList.remove("hide");
		var pct = 100 * count / maxwidth;
		if (pct != 100) pct = pct.toFixed(1)
		matchedtxt.firstChild.nodeValue = "Matched: " + pct + "%";
	}
]]>
</script>
<rect x="0" y="0" width="100%" height="100%" fill="rgb(240,240,220)"/>
<text id="title" x="600" y="24">Flame Graph</text>
<text id="details" x="10" y="485"> </text>
<text id="unzoom" x="10" y="24" class="hide">Reset Zoom</text>
<text id="search" x="1090" y="24">Search</text>
<text id="matched" x="1090" y="485"> </text>
<g id="frames">
<g>
<title>all (90 samples, 100.00%)</title><rect x="10.0" y="451.0" width="1180.0" height="15" fill="#f17070" rx="2" ry="2"/>
<text x="13.0" y="462.0">all</text>
</g>
<g>
<title>one/nio/server/SelectorThread.run (90 samples, 100.00%)</title><rect x="10.0" y="435.0" width="1180.0" height="15" fill="#6cfd6c" rx="2" ry="2"/>
<text x="13.0" y="446.0">one/nio/server/SelectorThread.run</text>
</g>
<g>
<title>one/nio/net/NativeSelector.select (1 samples, 1.11%)</title><rect x="10.0" y="419.0" width="13.1" height="15" fill="#67f867" rx="2" ry="2"/>
<text x="13.0" y="430.0"></text>
</g>
<g>
<title>one.nio.net.NativeSelector$2 (1 samples, 1.11%)</title><rect x="10.0" y="403.0" width="13.1" height="15" fill="#68d6d6" rx="2" ry="2"/>
<text x="13.0" y="414.0"></text>
</g>
<g>
<title>one/nio/net/Session.process (89 samples, 98.89%)</title><rect x="23.1" y="419.0" width="1166.9" height="15" fill="#61f261" rx="2" ry="2"/>
<text x="26.1" y="430.0">one/nio/net/Session.process</text>
</g>
<g>
<title>one/nio/http/HttpSession.processRead (89 samples, 98.89%)</title><rect x="23.1" y="403.0" width="1166.9" height="15" fill="#63f463" rx="2" ry="2"/>
<text x="26.1" y="414.0">one/nio/http/HttpSession.processRead</text>
</g>
<g>
<title>one/nio/http/HttpSession.processHttpBuffer (89 samples, 98.89%)</title><rect x="23.1" y="387.0" width="1166.9" height="15" fill="#6dfe6d" rx="2" ry="2"/>
<text x="26.1" y="398.0">one/nio/http/HttpSession.processHttpBuffer</text>
</g>
<g>
<title>one/nio/http/HttpSession.handleParsedRequest (74 samples, 82.22%)</title><rect x="23.1" y="371.0" width="970.2" height="15" fill="#6cfd6c" rx="2" ry="2"/>
<text x="26.1" y="382.0">one/nio/http/HttpSession.handleParsedRequest</text>
</g>
<g>
<title>one/nio/http/HttpServer.handleRequest (74 samples, 82.22%)</title><rect x="23.1" y="355.0" width="970.2" height="15" fill="#59ea59" rx="2" ry="2"/>
<text x="26.1" y="366.0">one/nio/http/HttpServer.handleRequest</text>
</g>
<g>
<title>RequestHandler0_get.handleRequest (68 samples, 75.56%)</title><rect x="23.1" y="339.0" width="891.6" height="15" fill="#6afb6a" rx="2" ry="2"/>
<text x="26.1" y="350.0">RequestHandler0_get.handleRequest</text>
</g>
<g>
<title>one/nio/http/HttpSession.sendResponse (2 samples, 2.22%)</title><rect x="23.1" y="323.0" width="26.2" height="15" fill="#61f261" rx="2" ry="2"/>
<text x="26.1" y="334.0">o..</text>
</g>
<g>
<title>one/nio/http/HttpSession.writeResponse (2 samples, 2.22%)</title><rect x="23.1" y="307.0" width="26.2" height="15" fill="#63f463" rx="2" ry="2"/>
<text x="26.1" y="318.0">o..</text>
</g>
<g>
<title>one/nio/http/Response.toBytes (1 samples, 1.11%)</title><rect x="23.1" y="291.0" width="13.1" height="15" fill="#66f766" rx="2" ry="2"/>
<text x="26.1" y="302.0"></text>
</g>
<g>
<title>one/nio/util/ByteArrayBuilder.&lt;init&gt; (1 samples, 1.11%)</title><rect x="23.1" y="275.0" width="13.1" height="15" fill="#67f867" rx="2" ry="2"/>
<text x="26.1" y="286.0"></text>
</g>
<g>
<title>byte[] (1 samples, 1.11%)</title><rect x="23.1" y="259.0" width="13.1" height="15" fill="#67d5d5" rx="2" ry="2"/>
<text x="26.1" y="270.0"></text>
</g>
<g>
<title>one/nio/net/Session.write (1 samples, 1.11%)</title><rect x="36.2" y="291.0" width="13.1" height="15" fill="#57e857" rx="2" ry="2"/>
<text x="39.2" y="302.0"></text>
</g>
<g>
<title>one.nio.net.Session$ArrayQueueItem (1 samples, 1.11%)</title><rect x="36.2" y="275.0" width="13.1" height="15" fill="#62d0d0" rx="2" ry="2"/>
<text x="39.2" y="286.0"></text>
</g>
<g>
<title>one/nio/http/Request.getRequiredParameter (1 samples, 1.11%)</title><rect x="49.3" y="323.0" width="13.1" height="15" fill="#5eef5e" rx="2" ry="2"/>
<text x="52.3" y="334.0"></text>
</g>
<g>
<title>one/nio/http/Request.getParameter (1 samples, 1.11%)</title><rect x="49.3" y="307.0" width="13.1" height="15" fill="#55e655" rx="2" ry="2"/>
<text x="52.3" y="318.0"></text>
</g>
<g>
<title>java/lang/String.substring (1 samples, 1.11%)</title><rect x="49.3" y="291.0" width="13.1" height="15" fill="#67f867" rx="2" ry="2"/>
<text x="52.3" y="302.0"></text>
</g>
<g>
<title>java/lang/StringLatin1.newString (1 samples, 1.11%)</title><rect x="49.3" y="275.0" width="13.1" height="15" fill="#69fa69" rx="2" ry="2"/>
<text x="52.3" y="286.0"></text>
</g>
<g>
<title>java/util/Arrays.copyOfRange (1 samples, 1.11%)</title><rect x="49.3" y="259.0" width="13.1" height="15" fill="#6afb6a" rx="2" ry="2"/>
<text x="52.3" y="270.0"></text>
</g>
<g>
<title>byte[] (1 samples, 1.11%)</title><rect x="49.3" y="243.0" width="13.1" height="15" fill="#63d1d1" rx="2" ry="2"/>
<text x="52.3" y="254.0"></text>
</g>
<g>
<title>ru/mail/polis/service/bmendli/MyService.get (65 samples, 72.22%)</title><rect x="62.4" y="323.0" width="852.3" height="15" fill="#5ced5c" rx="2" ry="2"/>
<text x="65.4" y="334.0">ru/mail/polis/service/bmendli/MyService.get</text>
</g>
<g>
<title>java/io/PrintStream.println (4 samples, 4.44%)</title><rect x="62.4" y="307.0" width="52.5" height="15" fill="#62f362" rx="2" ry="2"/>
<text x="65.4" y="318.0">java/..</text>
</g>
<g>
<title>java/io/PrintStream.print (4 samples, 4.44%)</title><rect x="62.4" y="291.0" width="52.5" height="15" fill="#61f261" rx="2" ry="2"/>
<text x="65.4" y="302.0">java/..</text>
</g>
<g>
<title>java/io/PrintStream.write (4 samples, 4.44%)</title><rect x="62.4" y="275.0" width="52.5" height="15" fill="#63f463" rx="2" ry="2"/>
<text x="65.4" y="286.0">java/..</text>
</g>
<g>
<title>java/io/BufferedWriter.flushBuffer (4 samples, 4.44%)</title><rect x="62.4" y="259.0" width="52.5" height="15" fill="#60f160" rx="2" ry="2"/>
<text x="65.4" y="270.0">java/..</text>
</g>
<g>
<title>java/io/OutputStreamWriter.write (4 samples, 4.44%)</title><rect x="62.4" y="243.0" width="52.5" height="15" fill="#54e554" rx="2" ry="2"/>
<text x="65.4" y="254.0">java/..</text>
</g>
<g>
<title>sun/nio/cs/StreamEncoder.write (4 samples, 4.44%)</title><rect x="62.4" y="227.0" width="52.5" height="15" fill="#61f261" rx="2" ry="2"/>
<text x="65.4" y="238.0">sun/n..</text>
</g>
<g>
<title>sun/nio/cs/StreamEncoder.implWrite (4 samples, 4.44%)</title><rect x="62.4" y="211.0" width="52.5" height="15" fill="#50e150" rx="2" ry="2"/>
<text x="65.4" y="222.0">sun/n..</text>
</g>
<g>
<title>java/nio/CharBuffer.wrap (4 samples, 4.44%)</title><rect x="62.4" y="195.0" width="52.5" height="15" fill="#65f665" rx="2" ry="2"/>
<text x="65.4" y="206.0">java/..</text>
</g>
<g>
<title>java.nio.HeapCharBuffer (4 samples, 4.44%)</title><rect x="62.4" y="179.0" width="52.5" height="15" fill="#5fcdcd" rx="2" ry="2"/>
<text x="65.4" y="190.0">java...</text>
</g>
<g>
<title>java/lang/String.getBytes (1 samples, 1.11%)</title><rect x="114.9" y="307.0" width="13.1" height="15" fill="#68f968" rx="2" ry="2"/>
<text x="117.9" y="318.0"></text>
</g>
<g>
<title>java/lang/StringCoding.encode (1 samples, 1.11%)</title><rect x="114.9" y="291.0" width="13.1" height="15" fill="#5ff05f" rx="2" ry="2"/>
<text x="117.9" y="302.0"></text>
</g>
<g>
<title>java/lang/StringCoding.encodeUTF8 (1 samples, 1.11%)</title><rect x="114.9" y="275.0" width="13.1" height="15" fill="#53e453" rx="2" ry="2"/>
<text x="117.9" y="286.0"></text>
</g>
<g>
<title>java/util/Arrays.copyOf (1 samples, 1.11%)</title><rect x="114.9" y="259.0" width="13.1" height="15" fill="#5eef5e" rx="2" ry="2"/>
<text x="117.9" y="270.0"></text>
</g>
<g>
<title>byte[] (1 samples, 1.11%)</title><rect x="114.9" y="243.0" width="13.1" height="15" fill="#5fcdcd" rx="2" ry="2"/>
<text x="117.9" y="254.0"></text>
</g>
<g>
<title>java/lang/invoke/Invokers$Holder.linkToTargetMethod (1 samples, 1.11%)</title><rect x="128.0" y="307.0" width="13.1" height="15" fill="#51e251" rx="2" ry="2"/>
<text x="131.0" y="318.0"></text>
</g>
<g>
<title>java/lang/invoke/LambdaForm$MH/874088044.invoke (1 samples, 1.11%)</title><rect x="128.0" y="291.0" width="13.1" height="15" fill="#68f968" rx="2" ry="2"/>
<text x="131.0" y="302.0"></text>
</g>
<g>
<title>java/lang/invoke/DirectMethodHandle$Holder.invokeStatic (1 samples, 1.11%)</title><rect x="128.0" y="275.0" width="13.1" height="15" fill="#5bec5b" rx="2" ry="2"/>
<text x="131.0" y="286.0"></text>
</g>
<g>
<title>java/lang/invoke/StringConcatFactory$MethodHandleInlineCopyStrategy.newArray (1 samples, 1.11%)</title><rect x="128.0" y="259.0" width="13.1" height="15" fill="#63f463" rx="2" ry="2"/>
<text x="131.0" y="270.0"></text>
</g>
<g>
<title>jdk/internal/misc/Unsafe.allocateUninitializedArray (1 samples, 1.11%)</title><rect x="128.0" y="243.0" width="13.1" height="15" fill="#5dee5d" rx="2" ry="2"/>
<text x="131.0" y="254.0"></text>
</g>
<g>
<title>byte[] (1 samples, 1.11%)</title><rect x="128.0" y="227.0" width="13.1" height="15" fill="#54c2c2" rx="2" ry="2"/>
<text x="131.0" y="238.0"></text>
</g>
<g>
<title>java/nio/ByteBuffer.wrap (1 samples, 1.11%)</title><rect x="141.1" y="307.0" width="13.1" height="15" fill="#5ced5c" rx="2" ry="2"/>
<text x="144.1" y="318.0"></text>
</g>
<g>
<title>java/nio/ByteBuffer.wrap (1 samples, 1.11%)</title><rect x="141.1" y="291.0" width="13.1" height="15" fill="#57e857" rx="2" ry="2"/>
<text x="144.1" y="302.0"></text>
</g>
<g>
<title>java.nio.HeapByteBuffer (1 samples, 1.11%)</title><rect x="141.1" y="275.0" width="13.1" height="15" fill="#5ccaca" rx="2" ry="2"/>
<text x="144.1" y="286.0"></text>
</g>
<g>
<title>one/nio/http/Response.ok (6 samples, 6.67%)</title><rect x="154.2" y="307.0" width="78.7" height="15" fill="#50e150" rx="2" ry="2"/>
<text x="157.2" y="318.0">one/nio/h..</text>
</g>
<g>
<title>one.nio.http.Response (2 samples, 2.22%)</title><rect x="154.2" y="291.0" width="26.2" height="15" fill="#65d3d3" rx="2" ry="2"/>
<text x="157.2" y="302.0">o..</text>
</g>
<g>
<title>one/nio/http/Response.&lt;init&gt; (4 samples, 4.44%)</title><rect x="180.4" y="291.0" width="52.5" height="15" fill="#61f261" rx="2" ry="2"/>
<text x="183.4" y="302.0">one/n..</text>
</g>
<g>
<title>byte[] (1 samples, 1.11%)</title><rect x="180.4" y="275.0" width="13.2" height="15" fill="#68d6d6" rx="2" ry="2"/>
<text x="183.4" y="286.0"></text>
</g>
<g>
<title>java.lang.String[] (1 samples, 1.11%)</title><rect x="193.6" y="275.0" width="13.1" height="15" fill="#61cfcf" rx="2" ry="2"/>
<text x="196.6" y="286.0"></text>
</g>
<g>
<title>java.lang.String (2 samples, 2.22%)</title><rect x="206.7" y="275.0" width="26.2" height="15" fill="#5dcbcb" rx="2" ry="2"/>
<text x="209.7" y="286.0">j..</text>
</g>
<g>
<title>ru/mail/polis/dao/DAO.get (51 samples, 56.67%)</title><rect x="232.9" y="307.0" width="668.7" height="15" fill="#5eef5e" rx="2" ry="2"/>
<text x="235.9" y="318.0">ru/mail/polis/dao/DAO.get</text>
</g>
<g>
<title>com/google/common/collect/TransformedIterator.hasNext (4 samples, 4.44%)</title><rect x="232.9" y="291.0" width="52.4" height="15" fill="#6dfe6d" rx="2" ry="2"/>
<text x="235.9" y="302.0">com/g..</text>
</g>
<g>
<title>com/google/common/collect/AbstractIterator.hasNext (4 samples, 4.44%)</title><rect x="232.9" y="275.0" width="52.4" height="15" fill="#51e251" rx="2" ry="2"/>
<text x="235.9" y="286.0">com/g..</text>
</g>
<g>
<title>com/google/common/collect/AbstractIterator.tryToComputeNext (4 samples, 4.44%)</title><rect x="232.9" y="259.0" width="52.4" height="15" fill="#52e352" rx="2" ry="2"/>
<text x="235.9" y="270.0">com/g..</text>
</g>
<g>
<title>com/google/common/collect/Iterators$5.computeNext (4 samples, 4.44%)</title><rect x="232.9" y="243.0" width="52.4" height="15" fill="#63f463" rx="2" ry="2"/>
<text x="235.9" y="254.0">com/g..</text>
</g>
<g>
<title>ru/mail/polis/dao/Iters$CollapseEqualsIterator.next (4 samples, 4.44%)</title><rect x="232.9" y="227.0" width="52.4" height="15" fill="#61f261" rx="2" ry="2"/>
<text x="235.9" y="238.0">ru/ma..</text>
</g>
<g>
<title>ru/mail/polis/dao/bmendli/DAOImpl$$Lambda$67/2046950507.apply (4 samples, 4.44%)</title><rect x="232.9" y="211.0" width="52.4" height="15" fill="#56e756" rx="2" ry="2"/>
<text x="235.9" y="222.0">ru/ma..</text>
</g>
<g>
<title>ru/mail/polis/dao/bmendli/Cell.getKey (4 samples, 4.44%)</title><rect x="232.9" y="195.0" width="52.4" height="15" fill="#56e756" rx="2" ry="2"/>
<text x="235.9" y="206.0">ru/ma..</text>
</g>
<g>
<title>java/nio/HeapByteBufferR.asReadOnlyBuffer (4 samples, 4.44%)</title><rect x="232.9" y="179.0" width="52.4" height="15" fill="#62f362" rx="2" ry="2"/>
<text x="235.9" y="190.0">java/..</text>
</g>
<g>
<title>java/nio/HeapByteBufferR.duplicate (4 samples, 4.44%)</title><rect x="232.9" y="163.0" width="52.4" height="15" fill="#6bfc6b" rx="2" ry="2"/>
<text x="235.9" y="174.0">java/..</text>
</g>
<g>
<title>java.nio.HeapByteBufferR (4 samples, 4.44%)</title><rect x="232.9" y="147.0" width="52.4" height="15" fill="#66d4d4" rx="2" ry="2"/>
<text x="235.9" y="158.0">java...</text>
</g>
<g>
<title>com/google/common/collect/TransformedIterator.next (3 samples, 3.33%)</title><rect x="285.3" y="291.0" width="39.4" height="15" fill="#5dee5d" rx="2" ry="2"/>
<text x="288.3" y="302.0">com..</text>
</g>
<g>
<title>com/google/common/collect/Iterators$6.transform (3 samples, 3.33%)</title><rect x="285.3" y="275.0" width="39.4" height="15" fill="#5dee5d" rx="2" ry="2"/>
<text x="288.3" y="286.0">com..</text>
</g>
<g>
<title>ru/mail/polis/dao/bmendli/DAOImpl$$Lambda$69/1336014033.apply (3 samples, 3.33%)</title><rect x="285.3" y="259.0" width="39.4" height="15" fill="#69fa69" rx="2" ry="2"/>
<text x="288.3" y="270.0">ru/..</text>
</g>
<g>
<title>ru/mail/polis/dao/bmendli/DAOImpl.lambda$iterator$2 (3 samples, 3.33%)</title><rect x="285.3" y="243.0" width="39.4" height="15" fill="#6cfd6c" rx="2" ry="2"/>
<text x="288.3" y="254.0">ru/..</text>
</g>
<g>
<title>ru/mail/polis/dao/bmendli/Cell.getKey (3 samples, 3.33%)</title><rect x="285.3" y="227.0" width="39.4" height="15" fill="#6cfd6c" rx="2" ry="2"/>
<text x="288.3" y="238.0">ru/..</text>
</g>
<g>
<title>java/nio/HeapByteBufferR.asReadOnlyBuffer (3 samples, 3.33%)</title><rect x="285.3" y="211.0" width="39.4" height="15" fill="#6afb6a" rx="2" ry="2"/>
<text x="288.3" y="222.0">jav..</text>
</g>
<g>
<title>java/nio/HeapByteBufferR.duplicate (3 samples, 3.33%)</title><rect x="285.3" y="195.0" width="39.4" height="15" fill="#67f867" rx="2" ry="2"/>
<text x="288.3" y="206.0">jav..</text>
</g>
<g>
<title>java.nio.HeapByteBufferR (3 samples, 3.33%)</title><rect x="285.3" y="179.0" width="39.4" height="15" fill="#5ac8c8" rx="2" ry="2"/>
<text x="288.3" y="190.0">jav..</text>
</g>
<g>
<title>ru/mail/polis/Record.getKey (1 samples, 1.11%)</title><rect x="324.7" y="291.0" width="13.1" height="15" fill="#60f160" rx="2" ry="2"/>
<text x="327.7" y="302.0"></text>
</g>
<g>
<title>java/nio/HeapByteBufferR.asReadOnlyBuffer (1 samples, 1.11%)</title><rect x="324.7" y="275.0" width="13.1" height="15" fill="#56e756" rx="2" ry="2"/>
<text x="327.7" y="286.0"></text>
</g>
<g>
<title>java/nio/HeapByteBufferR.duplicate (1 samples, 1.11%)</title><rect x="324.7" y="259.0" width="13.1" height="15" fill="#5eef5e" rx="2" ry="2"/>
<text x="327.7" y="270.0"></text>
</g>
<g>
<title>java.nio.HeapByteBufferR (1 samples, 1.11%)</title><rect x="324.7" y="243.0" width="13.1" height="15" fill="#6cdada" rx="2" ry="2"/>
<text x="327.7" y="254.0"></text>
</g>
<g>
<title>ru/mail/polis/Record.getValue (3 samples, 3.33%)</title><rect x="337.8" y="291.0" width="39.3" height="15" fill="#5dee5d" rx="2" ry="2"/>
<text x="340.8" y="302.0">ru/..</text>
</g>
<g>
<title>java/nio/HeapByteBufferR.asReadOnlyBuffer (3 samples, 3.33%)</title><rect x="337.8" y="275.0" width="39.3" height="15" fill="#6afb6a" rx="2" ry="2"/>
<text x="340.8" y="286.0">jav..</text>
</g>
<g>
<title>java/nio/HeapByteBufferR.duplicate (3 samples, 3.33%)</title><rect x="337.8" y="259.0" width="39.3" height="15" fill="#6dfe6d" rx="2" ry="2"/>
<text x="340.8" y="270.0">jav..</text>
</g>
<g>
<title>java.nio.HeapByteBufferR (3 samples, 3.33%)</title><rect x="337.8" y="243.0" width="39.3" height="15" fill="#55c3c3" rx="2" ry="2"/>
<text x="340.8" y="254.0">jav..</text>
</g>
<g>
<title>ru/mail/polis/dao/bmendli/DAOImpl.iterator (40 samples, 44.44%)</title><rect x="377.1" y="291.0" width="524.5" height="15" fill="#5dee5d" rx="2" ry="2"/>
<text x="380.1" y="302.0">ru/mail/polis/dao/bmendli/DAOImpl.iterator</text>
</g>
<g>
<title>com/google/common/collect/Iterators.filter (1 samples, 1.11%)</title><rect x="377.1" y="275.0" width="13.1" height="15" fill="#67f867" rx="2" ry="2"/>
<text x="380.1" y="286.0"></text>
</g>
<g>
<title>com.google.common.collect.Iterators$5 (1 samples, 1.11%)</title><rect x="377.1" y="259.0" width="13.1" height="15" fill="#66d4d4" rx="2" ry="2"/>
<text x="380.1" y="270.0"></text>
</g>
<g>
<title>ru/mail/polis/dao/bmendli/DAOImpl.cellIterator (39 samples, 43.33%)</title><rect x="390.2" y="275.0" width="511.4" height="15" fill="#6bfc6b" rx="2" ry="2"/>
<text x="393.2" y="286.0">ru/mail/polis/dao/bmendli/DAOImpl.cellIterator</text>
</g>
<g>
<title>com/google/common/collect/Iterators.mergeSorted (14 samples, 15.56%)</title><rect x="390.2" y="259.0" width="183.6" height="15" fill="#57e857" rx="2" ry="2"/>
<text x="393.2" y="270.0">com/google/common/collec..</text>
</g>
<g>
<title>com/google/common/collect/Iterators$MergingIterator.&lt;init&gt; (14 samples, 15.56%)</title><rect x="390.2" y="243.0" width="183.6" height="15" fill="#66f766" rx="2" ry="2"/>
<text x="393.2" y="254.0">com/google/common/collec..</text>
</g>
<g>
<title>com.google.common.collect.Iterators$MergingIterator$1 (2 samples, 2.22%)</title><rect x="390.2" y="227.0" width="26.2" height="15" fill="#6cdada" rx="2" ry="2"/>
<text x="393.2" y="238.0">c..</text>
</g>
<g>
<title>com/google/common/collect/Iterators.peekingIterator (3 samples, 3.33%)</title><rect x="416.4" y="227.0" width="39.4" height="15" fill="#59ea59" rx="2" ry="2"/>
<text x="419.4" y="238.0">com..</text>
</g>
<g>
<title>com.google.common.collect.Iterators$PeekingImpl (3 samples, 3.33%)</title><rect x="416.4" y="211.0" width="39.4" height="15" fill="#5ccaca" rx="2" ry="2"/>
<text x="419.4" y="222.0">com..</text>
</g>
<g>
<title>java/util/Spliterators$1Adapter.hasNext (9 samples, 10.00%)</title><rect x="455.8" y="227.0" width="118.0" height="15" fill="#60f160" rx="2" ry="2"/>
<text x="458.8" y="238.0">java/util/Spli..</text>
</g>
<g>
<title>java/util/stream/StreamSpliterators$WrappingSpliterator.tryAdvance (9 samples, 10.00%)</title><rect x="455.8" y="211.0" width="118.0" height="15" fill="#60f160" rx="2" ry="2"/>
<text x="458.8" y="222.0">java/util/stre..</text>
</g>
<g>
<title>java/util/stream/StreamSpliterators$AbstractWrappingSpliterator.doAdvance (9 samples, 10.00%)</title><rect x="455.8" y="195.0" width="118.0" height="15" fill="#62f362" rx="2" ry="2"/>
<text x="458.8" y="206.0">java/util/stre..</text>
</g>
<g>
<title>java/util/Spliterator.getExactSizeIfKnown (2 samples, 2.22%)</title><rect x="455.8" y="179.0" width="26.2" height="15" fill="#55e655" rx="2" ry="2"/>
<text x="458.8" y="190.0">j..</text>
</g>
<g>
<title>java/util/Spliterators$IteratorSpliterator.estimateSize (2 samples, 2.22%)</title><rect x="455.8" y="163.0" width="26.2" height="15" fill="#5eef5e" rx="2" ry="2"/>
<text x="458.8" y="174.0">j..</text>
</g>
<g>
<title>java/util/TreeMap$AscendingSubMap$AscendingEntrySetView.iterator (1 samples, 1.11%)</title><rect x="455.8" y="147.0" width="13.1" height="15" fill="#5aeb5a" rx="2" ry="2"/>
<text x="458.8" y="158.0"></text>
</g>
<g>
<title>java.util.TreeMap$NavigableSubMap$SubMapEntryIterator (1 samples, 1.11%)</title><rect x="455.8" y="131.0" width="13.1" height="15" fill="#63d1d1" rx="2" ry="2"/>
<text x="458.8" y="142.0"></text>
</g>
<g>
<title>java/util/TreeMap$NavigableSubMap$EntrySetView.size (1 samples, 1.11%)</title><rect x="468.9" y="147.0" width="13.1" height="15" fill="#6bfc6b" rx="2" ry="2"/>
<text x="471.9" y="158.0"></text>
</g>
<g>
<title>java/util/TreeMap$AscendingSubMap$AscendingEntrySetView.iterator (1 samples, 1.11%)</title><rect x="468.9" y="131.0" width="13.1" height="15" fill="#56e756" rx="2" ry="2"/>
<text x="471.9" y="142.0"></text>
</g>
<g>
<title>java.util.TreeMap$NavigableSubMap$SubMapEntryIterator (1 samples, 1.11%)</title><rect x="468.9" y="115.0" width="13.1" height="15" fill="#62d0d0" rx="2" ry="2"/>
<text x="471.9" y="126.0"></text>
</g>
<g>
<title>java/util/stream/StreamSpliterators$WrappingSpliterator.initPartialTraversalState (7 samples, 7.78%)</title><rect x="482.0" y="179.0" width="91.8" height="15" fill="#69fa69" rx="2" ry="2"/>
<text x="485.0" y="190.0">java/util/s..</text>
</g>
<g>
<title>java.util.stream.SpinedBuffer (4 samples, 4.44%)</title><rect x="482.0" y="163.0" width="52.4" height="15" fill="#53c1c1" rx="2" ry="2"/>
<text x="485.0" y="174.0">java...</text>
</g>
<g>
<title>java/lang/invoke/Invokers$Holder.linkToTargetMethod (1 samples, 1.11%)</title><rect x="534.4" y="163.0" width="13.2" height="15" fill="#5bec5b" rx="2" ry="2"/>
<text x="537.4" y="174.0"></text>
</g>
<g>
<title>java/lang/invoke/DirectMethodHandle$Holder.invokeStatic (1 samples, 1.11%)</title><rect x="534.4" y="147.0" width="13.2" height="15" fill="#55e655" rx="2" ry="2"/>
<text x="537.4" y="158.0"></text>
</g>
<g>
<title>java/util/stream/StreamSpliterators$WrappingSpliterator$$Lambda$66/1791488763.get$Lambda (1 samples, 1.11%)</title><rect x="534.4" y="131.0" width="13.2" height="15" fill="#63f463" rx="2" ry="2"/>
<text x="537.4" y="142.0"></text>
</g>
<g>
<title>java.util.stream.StreamSpliterators$WrappingSpliterator$$Lambda$66 (1 samples, 1.11%)</title><rect x="534.4" y="115.0" width="13.2" height="15" fill="#61cfcf" rx="2" ry="2"/>
<text x="537.4" y="126.0"></text>
</g>
<g>
<title>java/util/stream/SpinedBuffer.&lt;init&gt; (2 samples, 2.22%)</title><rect x="547.6" y="163.0" width="26.2" height="15" fill="#64f564" rx="2" ry="2"/>
<text x="550.6" y="174.0">j..</text>
</g>
<g>
<title>java.lang.Object[] (2 samples, 2.22%)</title><rect x="547.6" y="147.0" width="26.2" height="15" fill="#61cfcf" rx="2" ry="2"/>
<text x="550.6" y="158.0">j..</text>
</g>
<g>
<title>java.util.ArrayList (1 samples, 1.11%)</title><rect x="573.8" y="259.0" width="13.1" height="15" fill="#51bfbf" rx="2" ry="2"/>
<text x="576.8" y="270.0"></text>
</g>
<g>
<title>java/lang/Iterable.forEach (3 samples, 3.33%)</title><rect x="586.9" y="259.0" width="39.3" height="15" fill="#60f160" rx="2" ry="2"/>
<text x="589.9" y="270.0">jav..</text>
</g>
<g>
<title>java/util/AbstractMap$2.iterator (3 samples, 3.33%)</title><rect x="586.9" y="243.0" width="39.3" height="15" fill="#60f160" rx="2" ry="2"/>
<text x="589.9" y="254.0">jav..</text>
</g>
<g>
<title>java/util/AbstractMap$2$1.&lt;init&gt; (3 samples, 3.33%)</title><rect x="586.9" y="227.0" width="39.3" height="15" fill="#57e857" rx="2" ry="2"/>
<text x="589.9" y="238.0">jav..</text>
</g>
<g>
<title>java/util/TreeMap$DescendingSubMap$DescendingEntrySetView.iterator (3 samples, 3.33%)</title><rect x="586.9" y="211.0" width="39.3" height="15" fill="#50e150" rx="2" ry="2"/>
<text x="589.9" y="222.0">jav..</text>
</g>
<g>
<title>java.util.TreeMap$NavigableSubMap$DescendingSubMapEntryIterator (3 samples, 3.33%)</title><rect x="586.9" y="195.0" width="39.3" height="15" fill="#5ac8c8" rx="2" ry="2"/>
<text x="589.9" y="206.0">jav..</text>
</g>
<g>
<title>java/util/ArrayList.&lt;init&gt; (1 samples, 1.11%)</title><rect x="626.2" y="259.0" width="13.1" height="15" fill="#50e150" rx="2" ry="2"/>
<text x="629.2" y="270.0"></text>
</g>
<g>
<title>java.lang.Object[] (1 samples, 1.11%)</title><rect x="626.2" y="243.0" width="13.1" height="15" fill="#6bd9d9" rx="2" ry="2"/>
<text x="629.2" y="254.0"></text>
</g>
<g>
<title>java/util/Comparator.thenComparing (2 samples, 2.22%)</title><rect x="639.3" y="259.0" width="26.3" height="15" fill="#62f362" rx="2" ry="2"/>
<text x="642.3" y="270.0">j..</text>
</g>
<g>
<title>java/util/Comparator.thenComparing (2 samples, 2.22%)</title><rect x="639.3" y="243.0" width="26.3" height="15" fill="#67f867" rx="2" ry="2"/>
<text x="642.3" y="254.0">j..</text>
</g>
<g>
<title>java/lang/invoke/Invokers$Holder.linkToTargetMethod (2 samples, 2.22%)</title><rect x="639.3" y="227.0" width="26.3" height="15" fill="#6afb6a" rx="2" ry="2"/>
<text x="642.3" y="238.0">j..</text>
</g>
<g>
<title>java/lang/invoke/DirectMethodHandle$Holder.invokeStatic (2 samples, 2.22%)</title><rect x="639.3" y="211.0" width="26.3" height="15" fill="#6bfc6b" rx="2" ry="2"/>
<text x="642.3" y="222.0">j..</text>
</g>
<g>
<title>java/util/Comparator$$Lambda$64/2082304948.get$Lambda (2 samples, 2.22%)</title><rect x="639.3" y="195.0" width="26.3" height="15" fill="#55e655" rx="2" ry="2"/>
<text x="642.3" y="206.0">j..</text>
</g>
<g>
<title>java.util.Comparator$$Lambda$64 (2 samples, 2.22%)</title><rect x="639.3" y="179.0" width="26.3" height="15" fill="#5dcbcb" rx="2" ry="2"/>
<text x="642.3" y="190.0">j..</text>
</g>
<g>
<title>ru/mail/polis/dao/Iters.collapseEquals (4 samples, 4.44%)</title><rect x="665.6" y="259.0" width="52.4" height="15" fill="#5eef5e" rx="2" ry="2"/>
<text x="668.6" y="270.0">ru/ma..</text>
</g>
<g>
<title>ru/mail/polis/dao/Iters$CollapseEqualsIterator.&lt;init&gt; (4 samples, 4.44%)</title><rect x="665.6" y="243.0" width="52.4" height="15" fill="#67f867" rx="2" ry="2"/>
<text x="668.6" y="254.0">ru/ma..</text>
</g>
<g>
<title>com/google/common/collect/Iterators$MergingIterator.next (4 samples, 4.44%)</title><rect x="665.6" y="227.0" width="52.4" height="15" fill="#63f463" rx="2" ry="2"/>
<text x="668.6" y="238.0">com/g..</text>
</g>
<g>
<title>com/google/common/collect/Iterators$PeekingImpl.hasNext (4 samples, 4.44%)</title><rect x="665.6" y="211.0" width="52.4" height="15" fill="#6cfd6c" rx="2" ry="2"/>
<text x="668.6" y="222.0">com/g..</text>
</g>
<g>
<title>java/util/Spliterators$1Adapter.hasNext (4 samples, 4.44%)</title><rect x="665.6" y="195.0" width="52.4" height="15" fill="#54e554" rx="2" ry="2"/>
<text x="668.6" y="206.0">java/..</text>
</g>
<g>
<title>java/util/stream/StreamSpliterators$WrappingSpliterator.tryAdvance (4 samples, 4.44%)</title><rect x="665.6" y="179.0" width="52.4" height="15" fill="#58e958" rx="2" ry="2"/>
<text x="668.6" y="190.0">java/..</text>
</g>
<g>
<title>java/util/stream/StreamSpliterators$AbstractWrappingSpliterator.doAdvance (4 samples, 4.44%)</title><rect x="665.6" y="163.0" width="52.4" height="15" fill="#6afb6a" rx="2" ry="2"/>
<text x="668.6" y="174.0">java/..</text>
</g>
<g>
<title>java/util/stream/StreamSpliterators$AbstractWrappingSpliterator.fillBuffer (4 samples, 4.44%)</title><rect x="665.6" y="147.0" width="52.4" height="15" fill="#5aeb5a" rx="2" ry="2"/>
<text x="668.6" y="158.0">java/..</text>
</g>
<g>
<title>java/util/stream/StreamSpliterators$WrappingSpliterator$$Lambda$66/1791488763.getAsBoolean (4 samples, 4.44%)</title><rect x="665.6" y="131.0" width="52.4" height="15" fill="#6afb6a" rx="2" ry="2"/>
<text x="668.6" y="142.0">java/..</text>
</g>
<g>
<title>java/util/stream/StreamSpliterators$WrappingSpliterator.lambda$initPartialTraversalState$0 (4 samples, 4.44%)</title><rect x="665.6" y="115.0" width="52.4" height="15" fill="#66f766" rx="2" ry="2"/>
<text x="668.6" y="126.0">java/..</text>
</g>
<g>
<title>java/util/Spliterators$IteratorSpliterator.tryAdvance (4 samples, 4.44%)</title><rect x="665.6" y="99.0" width="52.4" height="15" fill="#5eef5e" rx="2" ry="2"/>
<text x="668.6" y="110.0">java/..</text>
</g>
<g>
<title>java/util/stream/ReferencePipeline$3$1.accept (4 samples, 4.44%)</title><rect x="665.6" y="83.0" width="52.4" height="15" fill="#58e958" rx="2" ry="2"/>
<text x="668.6" y="94.0">java/..</text>
</g>
<g>
<title>ru/mail/polis/dao/bmendli/MemTable$$Lambda$58/1867494348.apply (4 samples, 4.44%)</title><rect x="665.6" y="67.0" width="52.4" height="15" fill="#6cfd6c" rx="2" ry="2"/>
<text x="668.6" y="78.0">ru/ma..</text>
</g>
<g>
<title>ru/mail/polis/dao/bmendli/MemTable.lambda$iterator$0 (4 samples, 4.44%)</title><rect x="665.6" y="51.0" width="52.4" height="15" fill="#53e453" rx="2" ry="2"/>
<text x="668.6" y="62.0">ru/ma..</text>
</g>
<g>
<title>ru.mail.polis.dao.bmendli.Cell (4 samples, 4.44%)</title><rect x="665.6" y="35.0" width="52.4" height="15" fill="#69d7d7" rx="2" ry="2"/>
<text x="668.6" y="46.0">ru.ma..</text>
</g>
<g>
<title>ru/mail/polis/dao/bmendli/MemTable.iterator (14 samples, 15.56%)</title><rect x="718.0" y="259.0" width="183.6" height="15" fill="#62f362" rx="2" ry="2"/>
<text x="721.0" y="270.0">ru/mail/polis/dao/bmendl..</text>
</g>
<g>
<title>java/util/Collection.stream (6 samples, 6.67%)</title><rect x="718.0" y="243.0" width="78.7" height="15" fill="#65f665" rx="2" ry="2"/>
<text x="721.0" y="254.0">java/util..</text>
</g>
<g>
<title>java/util/Set.spliterator (2 samples, 2.22%)</title><rect x="718.0" y="227.0" width="26.2" height="15" fill="#6bfc6b" rx="2" ry="2"/>
<text x="721.0" y="238.0">j..</text>
</g>
<g>
<title>java/util/Spliterators.spliterator (2 samples, 2.22%)</title><rect x="718.0" y="211.0" width="26.2" height="15" fill="#55e655" rx="2" ry="2"/>
<text x="721.0" y="222.0">j..</text>
</g>
<g>
<title>java.util.Spliterators$IteratorSpliterator (2 samples, 2.22%)</title><rect x="718.0" y="195.0" width="26.2" height="15" fill="#58c6c6" rx="2" ry="2"/>
<text x="721.0" y="206.0">j..</text>
</g>
<g>
<title>java/util/stream/StreamSupport.stream (4 samples, 4.44%)</title><rect x="744.2" y="227.0" width="52.5" height="15" fill="#55e655" rx="2" ry="2"/>
<text x="747.2" y="238.0">java/..</text>
</g>
<g>
<title>java.util.stream.ReferencePipeline$Head (4 samples, 4.44%)</title><rect x="744.2" y="211.0" width="52.5" height="15" fill="#56c4c4" rx="2" ry="2"/>
<text x="747.2" y="222.0">java...</text>
</g>
<g>
<title>java/util/TreeMap$AscendingSubMap.entrySet (2 samples, 2.22%)</title><rect x="796.7" y="243.0" width="26.2" height="15" fill="#62f362" rx="2" ry="2"/>
<text x="799.7" y="254.0">j..</text>
</g>
<g>
<title>java.util.TreeMap$AscendingSubMap$AscendingEntrySetView (2 samples, 2.22%)</title><rect x="796.7" y="227.0" width="26.2" height="15" fill="#55c3c3" rx="2" ry="2"/>
<text x="799.7" y="238.0">j..</text>
</g>
<g>
<title>java/util/stream/ReferencePipeline.iterator (5 samples, 5.56%)</title><rect x="822.9" y="243.0" width="65.5" height="15" fill="#53e453" rx="2" ry="2"/>
<text x="825.9" y="254.0">java/ut..</text>
</g>
<g>
<title>java/util/Spliterators.iterator (1 samples, 1.11%)</title><rect x="822.9" y="227.0" width="13.1" height="15" fill="#56e756" rx="2" ry="2"/>
<text x="825.9" y="238.0"></text>
</g>
<g>
<title>java.util.Spliterators$1Adapter (1 samples, 1.11%)</title><rect x="822.9" y="211.0" width="13.1" height="15" fill="#6cdada" rx="2" ry="2"/>
<text x="825.9" y="222.0"></text>
</g>
<g>
<title>java/util/stream/AbstractPipeline.spliterator (4 samples, 4.44%)</title><rect x="836.0" y="227.0" width="52.4" height="15" fill="#50e150" rx="2" ry="2"/>
<text x="839.0" y="238.0">java/..</text>
</g>
<g>
<title>java/util/stream/ReferencePipeline.wrap (4 samples, 4.44%)</title><rect x="836.0" y="211.0" width="52.4" height="15" fill="#54e554" rx="2" ry="2"/>
<text x="839.0" y="222.0">java/..</text>
</g>
<g>
<title>java.util.stream.StreamSpliterators$WrappingSpliterator (4 samples, 4.44%)</title><rect x="836.0" y="195.0" width="52.4" height="15" fill="#53c1c1" rx="2" ry="2"/>
<text x="839.0" y="206.0">java...</text>
</g>
<g>
<title>java/util/stream/ReferencePipeline.map (1 samples, 1.11%)</title><rect x="888.4" y="243.0" width="13.2" height="15" fill="#5dee5d" rx="2" ry="2"/>
<text x="891.4" y="254.0"></text>
</g>
<g>
<title>java.util.stream.ReferencePipeline$3 (1 samples, 1.11%)</title><rect x="888.4" y="227.0" width="13.2" height="15" fill="#63d1d1" rx="2" ry="2"/>
<text x="891.4" y="238.0"></text>
</g>
<g>
<title>ru/mail/polis/service/bmendli/MyService.getBytesFromByteBuffer (1 samples, 1.11%)</title><rect x="901.6" y="307.0" width="13.1" height="15" fill="#6bfc6b" rx="2" ry="2"/>
<text x="904.6" y="318.0"></text>
</g>
<g>
<title>byte[] (1 samples, 1.11%)</title><rect x="901.6" y="291.0" width="13.1" height="15" fill="#53c1c1" rx="2" ry="2"/>
<text x="904.6" y="302.0"></text>
</g>
<g>
<title>one/nio/http/Request.getPath (6 samples, 6.67%)</title><rect x="914.7" y="339.0" width="78.6" height="15" fill="#62f362" rx="2" ry="2"/>
<text x="917.7" y="350.0">one/nio/h..</text>
</g>
<g>
<title>java/lang/String.substring (6 samples, 6.67%)</title><rect x="914.7" y="323.0" width="78.6" height="15" fill="#52e352" rx="2" ry="2"/>
<text x="917.7" y="334.0">java/lang..</text>
</g>
<g>
<title>java/lang/StringLatin1.newString (6 samples, 6.67%)</title><rect x="914.7" y="307.0" width="78.6" height="15" fill="#5bec5b" rx="2" ry="2"/>
<text x="917.7" y="318.0">java/lang..</text>
</g>
<g>
<title>java.lang.String (3 samples, 3.33%)</title><rect x="914.7" y="291.0" width="39.3" height="15" fill="#5ecccc" rx="2" ry="2"/>
<text x="917.7" y="302.0">jav..</text>
</g>
<g>
<title>java/util/Arrays.copyOfRange (3 samples, 3.33%)</title><rect x="954.0" y="291.0" width="39.3" height="15" fill="#5dee5d" rx="2" ry="2"/>
<text x="957.0" y="302.0">jav..</text>
</g>
<g>
<title>byte[] (3 samples, 3.33%)</title><rect x="954.0" y="275.0" width="39.3" height="15" fill="#58c6c6" rx="2" ry="2"/>
<text x="957.0" y="286.0">byt..</text>
</g>
<g>
<title>one/nio/http/HttpSession.parseRequest (11 samples, 12.22%)</title><rect x="993.3" y="371.0" width="144.3" height="15" fill="#57e857" rx="2" ry="2"/>
<text x="996.3" y="382.0">one/nio/http/HttpS..</text>
</g>
<g>
<title>one.nio.http.Request (2 samples, 2.22%)</title><rect x="993.3" y="355.0" width="26.3" height="15" fill="#6bd9d9" rx="2" ry="2"/>
<text x="996.3" y="366.0">o..</text>
</g>
<g>
<title>one/nio/http/Request.&lt;init&gt; (2 samples, 2.22%)</title><rect x="1019.6" y="355.0" width="26.2" height="15" fill="#60f160" rx="2" ry="2"/>
<text x="1022.6" y="366.0">o..</text>
</g>
<g>
<title>java.lang.String[] (2 samples, 2.22%)</title><rect x="1019.6" y="339.0" width="26.2" height="15" fill="#55c3c3" rx="2" ry="2"/>
<text x="1022.6" y="350.0">j..</text>
</g>
<g>
<title>one/nio/util/Utf8.read (7 samples, 7.78%)</title><rect x="1045.8" y="355.0" width="91.8" height="15" fill="#51e251" rx="2" ry="2"/>
<text x="1048.8" y="366.0">one/nio/uti..</text>
</g>
<g>
<title>one/nio/util/Utf8.read (7 samples, 7.78%)</title><rect x="1045.8" y="339.0" width="91.8" height="15" fill="#5ced5c" rx="2" ry="2"/>
<text x="1048.8" y="350.0">one/nio/uti..</text>
</g>
<g>
<title>char[] (2 samples, 2.22%)</title><rect x="1045.8" y="323.0" width="26.2" height="15" fill="#68d6d6" rx="2" ry="2"/>
<text x="1048.8" y="334.0">c..</text>
</g>
<g>
<title>java.lang.String (1 samples, 1.11%)</title><rect x="1072.0" y="323.0" width="13.1" height="15" fill="#66d4d4" rx="2" ry="2"/>
<text x="1075.0" y="334.0"></text>
</g>
<g>
<title>java/lang/String.&lt;init&gt; (4 samples, 4.44%)</title><rect x="1085.1" y="323.0" width="52.5" height="15" fill="#5aeb5a" rx="2" ry="2"/>
<text x="1088.1" y="334.0">java/..</text>
</g>
<g>
<title>java/lang/String.&lt;init&gt; (4 samples, 4.44%)</title><rect x="1085.1" y="307.0" width="52.5" height="15" fill="#6dfe6d" rx="2" ry="2"/>
<text x="1088.1" y="318.0">java/..</text>
</g>
<g>
<title>java/lang/StringUTF16.compress (4 samples, 4.44%)</title><rect x="1085.1" y="291.0" width="52.5" height="15" fill="#51e251" rx="2" ry="2"/>
<text x="1088.1" y="302.0">java/..</text>
</g>
<g>
<title>byte[] (4 samples, 4.44%)</title><rect x="1085.1" y="275.0" width="52.5" height="15" fill="#5fcdcd" rx="2" ry="2"/>
<text x="1088.1" y="286.0">byte[]</text>
</g>
<g>
<title>one/nio/util/Utf8.read (4 samples, 4.44%)</title><rect x="1137.6" y="371.0" width="52.4" height="15" fill="#56e756" rx="2" ry="2"/>
<text x="1140.6" y="382.0">one/n..</text>
</g>
<g>
<title>one/nio/util/Utf8.read (4 samples, 4.44%)</title><rect x="1137.6" y="355.0" width="52.4" height="15" fill="#63f463" rx="2" ry="2"/>
<text x="1140.6" y="366.0">one/n..</text>
</g>
<g>
<title>char[] (4 samples, 4.44%)</title><rect x="1137.6" y="339.0" width="52.4" height="15" fill="#64d2d2" rx="2" ry="2"/>
<text x="1140.6" y="350.0">char[]</text>
</g>
</g>
</svg>
