<?xml version="1.0" standalone="no"?>
<!DOCTYPE svg PUBLIC "-//W3C//DTD SVG 1.1//EN" "http://www.w3.org/Graphics/SVG/1.1/DTD/svg11.dtd">
<svg version="1.1" width="1200" height="950" onload="init(evt)" viewBox="0 0 1200 950" xmlns="http://www.w3.org/2000/svg" xmlns:xlink="http://www.w3.org/1999/xlink">
<style type="text/css">
	text { font-family:Verdana; font-size:12px; fill:rgb(0,0,0); }
	#search { opacity:0.1; cursor:pointer; }
	#search:hover, #search.show { opacity:1; }
	#subtitle { text-anchor:middle; font-color:rgb(160,160,160); }
	#title { text-anchor:middle; font-size:17px}
	#unzoom { cursor:pointer; }
	#frames > *:hover { stroke:black; stroke-width:0.5; cursor:pointer; }
	.hide { display:none; }
	.parent { opacity:0.5; }
</style>
<script type="text/ecmascript">
<![CDATA[
	"use strict";
	var details, searchbtn, unzoombtn, matchedtxt, svg, searching;
	function init(evt) {
		details = document.getElementById("details").firstChild;
		searchbtn = document.getElementById("search");
		unzoombtn = document.getElementById("unzoom");
		matchedtxt = document.getElementById("matched");
		svg = document.getElementsByTagName("svg")[0];
		searching = 0;
	}

	window.addEventListener("click", function(e) {
		var target = find_group(e.target);
		if (target) {
			if (target.nodeName == "a") {
				if (e.ctrlKey === false) return;
				e.preventDefault();
			}
			if (target.classList.contains("parent")) unzoom();
			zoom(target);
		}
		else if (e.target.id == "unzoom") unzoom();
		else if (e.target.id == "search") search_prompt();
	}, false)

	// mouse-over for info
	// show
	window.addEventListener("mouseover", function(e) {
		var target = find_group(e.target);
		if (target) details.nodeValue = "Function: " + g_to_text(target);
	}, false)

	// clear
	window.addEventListener("mouseout", function(e) {
		var target = find_group(e.target);
		if (target) details.nodeValue = ' ';
	}, false)

	// ctrl-F for search
	window.addEventListener("keydown",function (e) {
		if (e.keyCode === 114 || (e.ctrlKey && e.keyCode === 70)) {
			e.preventDefault();
			search_prompt();
		}
	}, false)

	// functions
	function find_child(node, selector) {
		var children = node.querySelectorAll(selector);
		if (children.length) return children[0];
		return;
	}
	function find_group(node) {
		var parent = node.parentElement;
		if (!parent) return;
		if (parent.id == "frames") return node;
		return find_group(parent);
	}
	function orig_save(e, attr, val) {
		if (e.attributes["_orig_" + attr] != undefined) return;
		if (e.attributes[attr] == undefined) return;
		if (val == undefined) val = e.attributes[attr].value;
		e.setAttribute("_orig_" + attr, val);
	}
	function orig_load(e, attr) {
		if (e.attributes["_orig_"+attr] == undefined) return;
		e.attributes[attr].value = e.attributes["_orig_" + attr].value;
		e.removeAttribute("_orig_"+attr);
	}
	function g_to_text(e) {
		var text = find_child(e, "title").firstChild.nodeValue;
		return (text)
	}
	function g_to_func(e) {
		var func = g_to_text(e);
		// if there's any manipulation we want to do to the function
		// name before it's searched, do it here before returning.
		return (func);
	}
	function update_text(e) {
		var r = find_child(e, "rect");
		var t = find_child(e, "text");
		var w = parseFloat(r.attributes.width.value) -3;
		var txt = find_child(e, "title").textContent.replace(/\([^(]*\)$/,"");
		t.attributes.x.value = parseFloat(r.attributes.x.value) + 3;

		// Smaller than this size won't fit anything
		if (w < 2 * 12 * 0.59) {
			t.textContent = "";
			return;
		}

		t.textContent = txt;
		// Fit in full text width
		if (/^ *$/.test(txt) || t.getSubStringLength(0, txt.length) < w)
			return;

		for (var x = txt.length - 2; x > 0; x--) {
			if (t.getSubStringLength(0, x + 2) <= w) {
				t.textContent = txt.substring(0, x) + "..";
				return;
			}
		}
		t.textContent = "";
	}

	// zoom
	function zoom_reset(e) {
		if (e.attributes != undefined) {
			orig_load(e, "x");
			orig_load(e, "width");
		}
		if (e.childNodes == undefined) return;
		for (var i = 0, c = e.childNodes; i < c.length; i++) {
			zoom_reset(c[i]);
		}
	}
	function zoom_child(e, x, ratio) {
		if (e.attributes != undefined) {
			if (e.attributes.x != undefined) {
				orig_save(e, "x");
				e.attributes.x.value = (parseFloat(e.attributes.x.value) - x - 10) * ratio + 10;
				if (e.tagName == "text")
					e.attributes.x.value = find_child(e.parentNode, "rect[x]").attributes.x.value + 3;
			}
			if (e.attributes.width != undefined) {
				orig_save(e, "width");
				e.attributes.width.value = parseFloat(e.attributes.width.value) * ratio;
			}
		}

		if (e.childNodes == undefined) return;
		for (var i = 0, c = e.childNodes; i < c.length; i++) {
			zoom_child(c[i], x - 10, ratio);
		}
	}
	function zoom_parent(e) {
		if (e.attributes) {
			if (e.attributes.x != undefined) {
				orig_save(e, "x");
				e.attributes.x.value = 10;
			}
			if (e.attributes.width != undefined) {
				orig_save(e, "width");
				e.attributes.width.value = parseInt(svg.width.baseVal.value) - (10 * 2);
			}
		}
		if (e.childNodes == undefined) return;
		for (var i = 0, c = e.childNodes; i < c.length; i++) {
			zoom_parent(c[i]);
		}
	}
	function zoom(node) {
		var attr = find_child(node, "rect").attributes;
		var width = parseFloat(attr.width.value);
		var xmin = parseFloat(attr.x.value);
		var xmax = parseFloat(xmin + width);
		var ymin = parseFloat(attr.y.value);
		var ratio = (svg.width.baseVal.value - 2 * 10) / width;

		// XXX: Workaround for JavaScript float issues (fix me)
		var fudge = 0.0001;

		unzoombtn.classList.remove("hide");

		var el = document.getElementById("frames").children;
		for (var i = 0; i < el.length; i++) {
			var e = el[i];
			var a = find_child(e, "rect").attributes;
			var ex = parseFloat(a.x.value);
			var ew = parseFloat(a.width.value);
			var upstack;
			// Is it an ancestor
			if (0 == 0) {
				upstack = parseFloat(a.y.value) > ymin;
			} else {
				upstack = parseFloat(a.y.value) < ymin;
			}
			if (upstack) {
				// Direct ancestor
				if (ex <= xmin && (ex+ew+fudge) >= xmax) {
					e.classList.add("parent");
					zoom_parent(e);
					update_text(e);
				}
				// not in current path
				else
					e.classList.add("hide");
			}
			// Children maybe
			else {
				// no common path
				if (ex < xmin || ex + fudge >= xmax) {
					e.classList.add("hide");
				}
				else {
					zoom_child(e, xmin, ratio);
					update_text(e);
				}
			}
		}
	}
	function unzoom() {
		unzoombtn.classList.add("hide");
		var el = document.getElementById("frames").children;
		for(var i = 0; i < el.length; i++) {
			el[i].classList.remove("parent");
			el[i].classList.remove("hide");
			zoom_reset(el[i]);
			update_text(el[i]);
		}
	}

	// search
	function reset_search() {
		var el = document.querySelectorAll("#frames rect");
		for (var i = 0; i < el.length; i++) {
			orig_load(el[i], "fill")
		}
	}
	function search_prompt() {
		if (!searching) {
			var term = prompt("Enter a search term (regexp " +
			    "allowed, eg: ^ext4_)", "");
			if (term != null) {
				search(term)
			}
		} else {
			reset_search();
			searching = 0;
			searchbtn.classList.remove("show");
			searchbtn.firstChild.nodeValue = "Search"
			matchedtxt.classList.add("hide");
			matchedtxt.firstChild.nodeValue = ""
		}
	}
	function search(term) {
		var re = new RegExp(term);
		var el = document.getElementById("frames").children;
		var matches = new Object();
		var maxwidth = 0;
		for (var i = 0; i < el.length; i++) {
			var e = el[i];
			var func = g_to_func(e);
			var rect = find_child(e, "rect");
			if (func == null || rect == null)
				continue;

			// Save max width. Only works as we have a root frame
			var w = parseFloat(rect.attributes.width.value);
			if (w > maxwidth)
				maxwidth = w;

			if (func.match(re)) {
				// highlight
				var x = parseFloat(rect.attributes.x.value);
				orig_save(rect, "fill");
				rect.attributes.fill.value = "rgb(230,0,230)";

				// remember matches
				if (matches[x] == undefined) {
					matches[x] = w;
				} else {
					if (w > matches[x]) {
						// overwrite with parent
						matches[x] = w;
					}
				}
				searching = 1;
			}
		}
		if (!searching)
			return;

		searchbtn.classList.add("show");
		searchbtn.firstChild.nodeValue = "Reset Search";

		// calculate percent matched, excluding vertical overlap
		var count = 0;
		var lastx = -1;
		var lastw = 0;
		var keys = Array();
		for (k in matches) {
			if (matches.hasOwnProperty(k))
				keys.push(k);
		}
		// sort the matched frames by their x location
		// ascending, then width descending
		keys.sort(function(a, b){
			return a - b;
		});
		// Step through frames saving only the biggest bottom-up frames
		// thanks to the sort order. This relies on the tree property
		// where children are always smaller than their parents.
		var fudge = 0.0001;	// JavaScript floating point
		for (var k in keys) {
			var x = parseFloat(keys[k]);
			var w = matches[keys[k]];
			if (x >= lastx + lastw - fudge) {
				count += w;
				lastx = x;
				lastw = w;
			}
		}
		// display matched percent
		matchedtxt.classList.remove("hide");
		var pct = 100 * count / maxwidth;
		if (pct != 100) pct = pct.toFixed(1)
		matchedtxt.firstChild.nodeValue = "Matched: " + pct + "%";
	}
]]>
</script>
<rect x="0" y="0" width="100%" height="100%" fill="rgb(240,240,220)"/>
<text id="title" x="600" y="24">Flame Graph</text>
<text id="details" x="10" y="933"> </text>
<text id="unzoom" x="10" y="24" class="hide">Reset Zoom</text>
<text id="search" x="1090" y="24">Search</text>
<text id="matched" x="1090" y="933"> </text>
<g id="frames">
<g>
<title>all (46 samples, 100.00%)</title><rect x="10.0" y="899.0" width="1180.0" height="15" fill="#fa7b7b" rx="2" ry="2"/>
<text x="13.0" y="910.0">all</text>
</g>
<g>
<title>one/nio/server/SelectorThread.run (46 samples, 100.00%)</title><rect x="10.0" y="883.0" width="1180.0" height="15" fill="#5bec5b" rx="2" ry="2"/>
<text x="13.0" y="894.0">one/nio/server/SelectorThread.run</text>
</g>
<g>
<title>one/nio/net/NativeSelector.select (2 samples, 4.35%)</title><rect x="35.7" y="867.0" width="51.3" height="15" fill="#67f867" rx="2" ry="2"/>
<text x="38.7" y="878.0">one/n..</text>
</g>
<g>
<title>one/nio/net/NativeSelector.epollWait (2 samples, 4.35%)</title><rect x="35.7" y="851.0" width="51.3" height="15" fill="#67f867" rx="2" ry="2"/>
<text x="38.7" y="862.0">one/n..</text>
</g>
<g>
<title>Java_one_nio_net_NativeSelector_epollWait (1 samples, 2.17%)</title><rect x="35.7" y="835.0" width="25.6" height="15" fill="#fc7e7e" rx="2" ry="2"/>
<text x="38.7" y="846.0">J..</text>
</g>
<g>
<title>[unknown] (1 samples, 2.17%)</title><rect x="61.3" y="835.0" width="25.7" height="15" fill="#e66161" rx="2" ry="2"/>
<text x="64.3" y="846.0">[..</text>
</g>
<g>
<title>epoll_wait (1 samples, 2.17%)</title><rect x="61.3" y="819.0" width="25.7" height="15" fill="#eb6767" rx="2" ry="2"/>
<text x="64.3" y="830.0">e..</text>
</g>
<g>
<title>entry_SYSCALL_64_after_hwframe (1 samples, 2.17%)</title><rect x="61.3" y="803.0" width="25.7" height="15" fill="#f89400" rx="2" ry="2"/>
<text x="64.3" y="814.0">e..</text>
</g>
<g>
<title>do_syscall_64 (1 samples, 2.17%)</title><rect x="61.3" y="787.0" width="25.7" height="15" fill="#e98500" rx="2" ry="2"/>
<text x="64.3" y="798.0">d..</text>
</g>
<g>
<title>__x64_sys_epoll_wait (1 samples, 2.17%)</title><rect x="61.3" y="771.0" width="25.7" height="15" fill="#f18d00" rx="2" ry="2"/>
<text x="64.3" y="782.0">_..</text>
</g>
<g>
<title>do_epoll_wait (1 samples, 2.17%)</title><rect x="61.3" y="755.0" width="25.7" height="15" fill="#ef8b00" rx="2" ry="2"/>
<text x="64.3" y="766.0">d..</text>
</g>
<g>
<title>ep_poll (1 samples, 2.17%)</title><rect x="61.3" y="739.0" width="25.7" height="15" fill="#f38f00" rx="2" ry="2"/>
<text x="64.3" y="750.0">e..</text>
</g>
<g>
<title>ep_scan_ready_list.constprop.20 (1 samples, 2.17%)</title><rect x="61.3" y="723.0" width="25.7" height="15" fill="#eb8700" rx="2" ry="2"/>
<text x="64.3" y="734.0">e..</text>
</g>
<g>
<title>ep_send_events_proc (1 samples, 2.17%)</title><rect x="61.3" y="707.0" width="25.7" height="15" fill="#f08c00" rx="2" ry="2"/>
<text x="64.3" y="718.0">e..</text>
</g>
<g>
<title>ep_item_poll.isra.16 (1 samples, 2.17%)</title><rect x="61.3" y="691.0" width="25.7" height="15" fill="#fd9900" rx="2" ry="2"/>
<text x="64.3" y="702.0">e..</text>
</g>
<g>
<title>one/nio/net/Session.process (43 samples, 93.48%)</title><rect x="87.0" y="867.0" width="1103.0" height="15" fill="#6bfc6b" rx="2" ry="2"/>
<text x="90.0" y="878.0">one/nio/net/Session.process</text>
</g>
<g>
<title>one/nio/http/HttpSession.processRead (43 samples, 93.48%)</title><rect x="87.0" y="851.0" width="1103.0" height="15" fill="#63f463" rx="2" ry="2"/>
<text x="90.0" y="862.0">one/nio/http/HttpSession.processRead</text>
</g>
<g>
<title>one/nio/http/HttpSession.processHttpBuffer (41 samples, 89.13%)</title><rect x="87.0" y="835.0" width="1051.7" height="15" fill="#65f665" rx="2" ry="2"/>
<text x="90.0" y="846.0">one/nio/http/HttpSession.processHttpBuffer</text>
</g>
<g>
<title>one/nio/http/HttpSession.handleParsedRequest (37 samples, 80.43%)</title><rect x="87.0" y="819.0" width="949.1" height="15" fill="#54e554" rx="2" ry="2"/>
<text x="90.0" y="830.0">one/nio/http/HttpSession.handleParsedRequest</text>
</g>
<g>
<title>one/nio/http/HttpServer.handleRequest (36 samples, 78.26%)</title><rect x="112.6" y="803.0" width="923.5" height="15" fill="#62f362" rx="2" ry="2"/>
<text x="115.6" y="814.0">one/nio/http/HttpServer.handleRequest</text>
</g>
<g>
<title>RequestHandler1_put.handleRequest (36 samples, 78.26%)</title><rect x="112.6" y="787.0" width="923.5" height="15" fill="#50e150" rx="2" ry="2"/>
<text x="115.6" y="798.0">RequestHandler1_put.handleRequest</text>
</g>
<g>
<title>one/nio/http/HttpSession.sendResponse (16 samples, 34.78%)</title><rect x="112.6" y="771.0" width="410.4" height="15" fill="#57e857" rx="2" ry="2"/>
<text x="115.6" y="782.0">one/nio/http/HttpSession.sendResponse</text>
</g>
<g>
<title>one/nio/http/HttpSession.writeResponse (15 samples, 32.61%)</title><rect x="112.6" y="755.0" width="384.8" height="15" fill="#54e554" rx="2" ry="2"/>
<text x="115.6" y="766.0">one/nio/http/HttpSession.writeResponse</text>
</g>
<g>
<title>one/nio/http/Response.toBytes (1 samples, 2.17%)</title><rect x="112.6" y="739.0" width="25.7" height="15" fill="#68f968" rx="2" ry="2"/>
<text x="115.6" y="750.0">o..</text>
</g>
<g>
<title>one/nio/net/Session.write (14 samples, 30.43%)</title><rect x="138.3" y="739.0" width="359.1" height="15" fill="#54e554" rx="2" ry="2"/>
<text x="141.3" y="750.0">one/nio/net/Session.write</text>
</g>
<g>
<title>one/nio/net/Session.write (14 samples, 30.43%)</title><rect x="138.3" y="723.0" width="359.1" height="15" fill="#5ced5c" rx="2" ry="2"/>
<text x="141.3" y="734.0">one/nio/net/Session.write</text>
</g>
<g>
<title>one/nio/net/Session$ArrayQueueItem.write (14 samples, 30.43%)</title><rect x="138.3" y="707.0" width="359.1" height="15" fill="#53e453" rx="2" ry="2"/>
<text x="141.3" y="718.0">one/nio/net/Session$ArrayQueueItem.write</text>
</g>
<g>
<title>one/nio/net/NativeSocket.write (14 samples, 30.43%)</title><rect x="138.3" y="691.0" width="359.1" height="15" fill="#53e453" rx="2" ry="2"/>
<text x="141.3" y="702.0">one/nio/net/NativeSocket.write</text>
</g>
<g>
<title>__libc_send (14 samples, 30.43%)</title><rect x="138.3" y="675.0" width="359.1" height="15" fill="#fe8181" rx="2" ry="2"/>
<text x="141.3" y="686.0">__libc_send</text>
</g>
<g>
<title>entry_SYSCALL_64_after_hwframe (14 samples, 30.43%)</title><rect x="138.3" y="659.0" width="359.1" height="15" fill="#e78300" rx="2" ry="2"/>
<text x="141.3" y="670.0">entry_SYSCALL_64_after_hwframe</text>
</g>
<g>
<title>do_syscall_64 (14 samples, 30.43%)</title><rect x="138.3" y="643.0" width="359.1" height="15" fill="#f08c00" rx="2" ry="2"/>
<text x="141.3" y="654.0">do_syscall_64</text>
</g>
<g>
<title>__x64_sys_sendto (14 samples, 30.43%)</title><rect x="138.3" y="627.0" width="359.1" height="15" fill="#fa9600" rx="2" ry="2"/>
<text x="141.3" y="638.0">__x64_sys_sendto</text>
</g>
<g>
<title>__sys_sendto (14 samples, 30.43%)</title><rect x="138.3" y="611.0" width="359.1" height="15" fill="#f38f00" rx="2" ry="2"/>
<text x="141.3" y="622.0">__sys_sendto</text>
</g>
<g>
<title>sock_sendmsg (14 samples, 30.43%)</title><rect x="138.3" y="595.0" width="359.1" height="15" fill="#e98500" rx="2" ry="2"/>
<text x="141.3" y="606.0">sock_sendmsg</text>
</g>
<g>
<title>inet6_sendmsg (13 samples, 28.26%)</title><rect x="138.3" y="579.0" width="333.4" height="15" fill="#f49000" rx="2" ry="2"/>
<text x="141.3" y="590.0">inet6_sendmsg</text>
</g>
<g>
<title>tcp_sendmsg (13 samples, 28.26%)</title><rect x="138.3" y="563.0" width="333.4" height="15" fill="#f08c00" rx="2" ry="2"/>
<text x="141.3" y="574.0">tcp_sendmsg</text>
</g>
<g>
<title>tcp_sendmsg_locked (13 samples, 28.26%)</title><rect x="138.3" y="547.0" width="333.4" height="15" fill="#ef8b00" rx="2" ry="2"/>
<text x="141.3" y="558.0">tcp_sendmsg_locked</text>
</g>
<g>
<title>sk_stream_alloc_skb (2 samples, 4.35%)</title><rect x="138.3" y="531.0" width="51.3" height="15" fill="#fe9a00" rx="2" ry="2"/>
<text x="141.3" y="542.0">sk_st..</text>
</g>
<g>
<title>__alloc_skb (2 samples, 4.35%)</title><rect x="138.3" y="515.0" width="51.3" height="15" fill="#e98500" rx="2" ry="2"/>
<text x="141.3" y="526.0">__all..</text>
</g>
<g>
<title>__kmalloc_reserve.isra.62 (2 samples, 4.35%)</title><rect x="138.3" y="499.0" width="51.3" height="15" fill="#f89400" rx="2" ry="2"/>
<text x="141.3" y="510.0">__kma..</text>
</g>
<g>
<title>__kmalloc_node_track_caller (2 samples, 4.35%)</title><rect x="138.3" y="483.0" width="51.3" height="15" fill="#f08c00" rx="2" ry="2"/>
<text x="141.3" y="494.0">__kma..</text>
</g>
<g>
<title>__slab_alloc (1 samples, 2.17%)</title><rect x="163.9" y="467.0" width="25.7" height="15" fill="#f89400" rx="2" ry="2"/>
<text x="166.9" y="478.0">_..</text>
</g>
<g>
<title>tcp_push (11 samples, 23.91%)</title><rect x="189.6" y="531.0" width="282.1" height="15" fill="#ed8900" rx="2" ry="2"/>
<text x="192.6" y="542.0">tcp_push</text>
</g>
<g>
<title>__tcp_push_pending_frames (11 samples, 23.91%)</title><rect x="189.6" y="515.0" width="282.1" height="15" fill="#fb9700" rx="2" ry="2"/>
<text x="192.6" y="526.0">__tcp_push_pending_frames</text>
</g>
<g>
<title>tcp_chrono_stop (1 samples, 2.17%)</title><rect x="189.6" y="499.0" width="25.6" height="15" fill="#e98500" rx="2" ry="2"/>
<text x="192.6" y="510.0">t..</text>
</g>
<g>
<title>tcp_write_xmit (10 samples, 21.74%)</title><rect x="215.2" y="499.0" width="256.5" height="15" fill="#eb8700" rx="2" ry="2"/>
<text x="218.2" y="510.0">tcp_write_xmit</text>
</g>
<g>
<title>__tcp_transmit_skb (8 samples, 17.39%)</title><rect x="240.9" y="483.0" width="205.2" height="15" fill="#f99500" rx="2" ry="2"/>
<text x="243.9" y="494.0">__tcp_transmit_skb</text>
</g>
<g>
<title>ip_queue_xmit (7 samples, 15.22%)</title><rect x="266.5" y="467.0" width="179.6" height="15" fill="#fc9800" rx="2" ry="2"/>
<text x="269.5" y="478.0">ip_queue_xmit</text>
</g>
<g>
<title>__ip_queue_xmit (7 samples, 15.22%)</title><rect x="266.5" y="451.0" width="179.6" height="15" fill="#e37f00" rx="2" ry="2"/>
<text x="269.5" y="462.0">__ip_queue_xmit</text>
</g>
<g>
<title>ip_local_out (7 samples, 15.22%)</title><rect x="266.5" y="435.0" width="179.6" height="15" fill="#fd9900" rx="2" ry="2"/>
<text x="269.5" y="446.0">ip_local_out</text>
</g>
<g>
<title>__ip_local_out (1 samples, 2.17%)</title><rect x="266.5" y="419.0" width="25.7" height="15" fill="#f08c00" rx="2" ry="2"/>
<text x="269.5" y="430.0">_..</text>
</g>
<g>
<title>nf_hook_slow (1 samples, 2.17%)</title><rect x="266.5" y="403.0" width="25.7" height="15" fill="#e37f00" rx="2" ry="2"/>
<text x="269.5" y="414.0">n..</text>
</g>
<g>
<title>ipv4_conntrack_local?[nf_conntrack] (1 samples, 2.17%)</title><rect x="266.5" y="387.0" width="25.7" height="15" fill="#e68200" rx="2" ry="2"/>
<text x="269.5" y="398.0">i..</text>
</g>
<g>
<title>nf_conntrack_in?[nf_conntrack] (1 samples, 2.17%)</title><rect x="266.5" y="371.0" width="25.7" height="15" fill="#f49000" rx="2" ry="2"/>
<text x="269.5" y="382.0">n..</text>
</g>
<g>
<title>__nf_conntrack_find_get?[nf_conntrack] (1 samples, 2.17%)</title><rect x="266.5" y="355.0" width="25.7" height="15" fill="#fb9700" rx="2" ry="2"/>
<text x="269.5" y="366.0">_..</text>
</g>
<g>
<title>ip_output (6 samples, 13.04%)</title><rect x="292.2" y="419.0" width="153.9" height="15" fill="#eb8700" rx="2" ry="2"/>
<text x="295.2" y="430.0">ip_output</text>
</g>
<g>
<title>ip_finish_output (6 samples, 13.04%)</title><rect x="292.2" y="403.0" width="153.9" height="15" fill="#e27e00" rx="2" ry="2"/>
<text x="295.2" y="414.0">ip_finish_output</text>
</g>
<g>
<title>__ip_finish_output (6 samples, 13.04%)</title><rect x="292.2" y="387.0" width="153.9" height="15" fill="#e17d00" rx="2" ry="2"/>
<text x="295.2" y="398.0">__ip_finish_output</text>
</g>
<g>
<title>ip_finish_output2 (6 samples, 13.04%)</title><rect x="292.2" y="371.0" width="153.9" height="15" fill="#ee8a00" rx="2" ry="2"/>
<text x="295.2" y="382.0">ip_finish_output2</text>
</g>
<g>
<title>__local_bh_enable_ip (6 samples, 13.04%)</title><rect x="292.2" y="355.0" width="153.9" height="15" fill="#e27e00" rx="2" ry="2"/>
<text x="295.2" y="366.0">__local_bh_enable_ip</text>
</g>
<g>
<title>do_softirq.part.20 (6 samples, 13.04%)</title><rect x="292.2" y="339.0" width="153.9" height="15" fill="#e88400" rx="2" ry="2"/>
<text x="295.2" y="350.0">do_softirq.part.20</text>
</g>
<g>
<title>do_softirq_own_stack (6 samples, 13.04%)</title><rect x="292.2" y="323.0" width="153.9" height="15" fill="#fe9a00" rx="2" ry="2"/>
<text x="295.2" y="334.0">do_softirq_own_stack</text>
</g>
<g>
<title>__softirqentry_text_start (6 samples, 13.04%)</title><rect x="292.2" y="307.0" width="153.9" height="15" fill="#fc9800" rx="2" ry="2"/>
<text x="295.2" y="318.0">__softirqentry_text..</text>
</g>
<g>
<title>net_rx_action (6 samples, 13.04%)</title><rect x="292.2" y="291.0" width="153.9" height="15" fill="#fa9600" rx="2" ry="2"/>
<text x="295.2" y="302.0">net_rx_action</text>
</g>
<g>
<title>process_backlog (6 samples, 13.04%)</title><rect x="292.2" y="275.0" width="153.9" height="15" fill="#e88400" rx="2" ry="2"/>
<text x="295.2" y="286.0">process_backlog</text>
</g>
<g>
<title>__netif_receive_skb (6 samples, 13.04%)</title><rect x="292.2" y="259.0" width="153.9" height="15" fill="#f18d00" rx="2" ry="2"/>
<text x="295.2" y="270.0">__netif_receive_skb</text>
</g>
<g>
<title>__netif_receive_skb_one_core (6 samples, 13.04%)</title><rect x="292.2" y="243.0" width="153.9" height="15" fill="#ec8800" rx="2" ry="2"/>
<text x="295.2" y="254.0">__netif_receive_skb..</text>
</g>
<g>
<title>ip_rcv (5 samples, 10.87%)</title><rect x="317.8" y="227.0" width="128.3" height="15" fill="#f79300" rx="2" ry="2"/>
<text x="320.8" y="238.0">ip_rcv</text>
</g>
<g>
<title>ip_rcv_finish (4 samples, 8.70%)</title><rect x="317.8" y="211.0" width="102.6" height="15" fill="#f08c00" rx="2" ry="2"/>
<text x="320.8" y="222.0">ip_rcv_finish</text>
</g>
<g>
<title>ip_local_deliver (4 samples, 8.70%)</title><rect x="317.8" y="195.0" width="102.6" height="15" fill="#f59100" rx="2" ry="2"/>
<text x="320.8" y="206.0">ip_local_del..</text>
</g>
<g>
<title>ip_local_deliver_finish (4 samples, 8.70%)</title><rect x="317.8" y="179.0" width="102.6" height="15" fill="#f08c00" rx="2" ry="2"/>
<text x="320.8" y="190.0">ip_local_del..</text>
</g>
<g>
<title>ip_protocol_deliver_rcu (4 samples, 8.70%)</title><rect x="317.8" y="163.0" width="102.6" height="15" fill="#e27e00" rx="2" ry="2"/>
<text x="320.8" y="174.0">ip_protocol_..</text>
</g>
<g>
<title>tcp_v4_rcv (4 samples, 8.70%)</title><rect x="317.8" y="147.0" width="102.6" height="15" fill="#ee8a00" rx="2" ry="2"/>
<text x="320.8" y="158.0">tcp_v4_rcv</text>
</g>
<g>
<title>tcp_v4_do_rcv (4 samples, 8.70%)</title><rect x="317.8" y="131.0" width="102.6" height="15" fill="#fc9800" rx="2" ry="2"/>
<text x="320.8" y="142.0">tcp_v4_do_rcv</text>
</g>
<g>
<title>tcp_rcv_established (4 samples, 8.70%)</title><rect x="317.8" y="115.0" width="102.6" height="15" fill="#fc9800" rx="2" ry="2"/>
<text x="320.8" y="126.0">tcp_rcv_esta..</text>
</g>
<g>
<title>tcp_data_ready (2 samples, 4.35%)</title><rect x="317.8" y="99.0" width="51.3" height="15" fill="#f69200" rx="2" ry="2"/>
<text x="320.8" y="110.0">tcp_d..</text>
</g>
<g>
<title>sock_def_readable (2 samples, 4.35%)</title><rect x="317.8" y="83.0" width="51.3" height="15" fill="#e98500" rx="2" ry="2"/>
<text x="320.8" y="94.0">sock_..</text>
</g>
<g>
<title>__wake_up_sync_key (2 samples, 4.35%)</title><rect x="317.8" y="67.0" width="51.3" height="15" fill="#f79300" rx="2" ry="2"/>
<text x="320.8" y="78.0">__wak..</text>
</g>
<g>
<title>__wake_up_common_lock (2 samples, 4.35%)</title><rect x="317.8" y="51.0" width="51.3" height="15" fill="#f49000" rx="2" ry="2"/>
<text x="320.8" y="62.0">__wak..</text>
</g>
<g>
<title>__lock_text_start (2 samples, 4.35%)</title><rect x="317.8" y="35.0" width="51.3" height="15" fill="#eb8700" rx="2" ry="2"/>
<text x="320.8" y="46.0">__loc..</text>
</g>
<g>
<title>tcp_queue_rcv (1 samples, 2.17%)</title><rect x="369.1" y="99.0" width="25.7" height="15" fill="#f59100" rx="2" ry="2"/>
<text x="372.1" y="110.0">t..</text>
</g>
<g>
<title>tcp_update_pacing_rate (1 samples, 2.17%)</title><rect x="394.8" y="99.0" width="25.6" height="15" fill="#e58100" rx="2" ry="2"/>
<text x="397.8" y="110.0">t..</text>
</g>
<g>
<title>nf_hook_slow (1 samples, 2.17%)</title><rect x="420.4" y="211.0" width="25.7" height="15" fill="#ee8a00" rx="2" ry="2"/>
<text x="423.4" y="222.0">n..</text>
</g>
<g>
<title>nf_nat_ipv4_in?[nf_nat] (1 samples, 2.17%)</title><rect x="420.4" y="195.0" width="25.7" height="15" fill="#fb9700" rx="2" ry="2"/>
<text x="423.4" y="206.0">n..</text>
</g>
<g>
<title>tcp_rearm_rto (1 samples, 2.17%)</title><rect x="446.1" y="483.0" width="25.6" height="15" fill="#f99500" rx="2" ry="2"/>
<text x="449.1" y="494.0">t..</text>
</g>
<g>
<title>security_socket_sendmsg (1 samples, 2.17%)</title><rect x="471.7" y="579.0" width="25.7" height="15" fill="#ea8600" rx="2" ry="2"/>
<text x="474.7" y="590.0">s..</text>
</g>
<g>
<title>apparmor_socket_sendmsg (1 samples, 2.17%)</title><rect x="471.7" y="563.0" width="25.7" height="15" fill="#e78300" rx="2" ry="2"/>
<text x="474.7" y="574.0">a..</text>
</g>
<g>
<title>aa_sock_msg_perm (1 samples, 2.17%)</title><rect x="471.7" y="547.0" width="25.7" height="15" fill="#fb9700" rx="2" ry="2"/>
<text x="474.7" y="558.0">a..</text>
</g>
<g>
<title>aa_sk_perm (1 samples, 2.17%)</title><rect x="471.7" y="531.0" width="25.7" height="15" fill="#eb8700" rx="2" ry="2"/>
<text x="474.7" y="542.0">a..</text>
</g>
<g>
<title>aa_label_sk_perm.part.4 (1 samples, 2.17%)</title><rect x="471.7" y="515.0" width="25.7" height="15" fill="#f59100" rx="2" ry="2"/>
<text x="474.7" y="526.0">a..</text>
</g>
<g>
<title>aa_profile_af_perm (1 samples, 2.17%)</title><rect x="471.7" y="499.0" width="25.7" height="15" fill="#fd9900" rx="2" ry="2"/>
<text x="474.7" y="510.0">a..</text>
</g>
<g>
<title>one/nio/http/Request.getHeader (1 samples, 2.17%)</title><rect x="497.4" y="755.0" width="25.6" height="15" fill="#61f261" rx="2" ry="2"/>
<text x="500.4" y="766.0">o..</text>
</g>
<g>
<title>java/lang/String.regionMatches (1 samples, 2.17%)</title><rect x="497.4" y="739.0" width="25.6" height="15" fill="#63f463" rx="2" ry="2"/>
<text x="500.4" y="750.0">j..</text>
</g>
<g>
<title>java/lang/StringLatin1.regionMatchesCI (1 samples, 2.17%)</title><rect x="497.4" y="723.0" width="25.6" height="15" fill="#69fa69" rx="2" ry="2"/>
<text x="500.4" y="734.0">j..</text>
</g>
<g>
<title>ru/mail/polis/service/bmendli/MyService.put (20 samples, 43.48%)</title><rect x="523.0" y="771.0" width="513.1" height="15" fill="#5dee5d" rx="2" ry="2"/>
<text x="526.0" y="782.0">ru/mail/polis/service/bmendli/MyService.put</text>
</g>
<g>
<title>java/io/PrintStream.println (11 samples, 23.91%)</title><rect x="523.0" y="755.0" width="282.2" height="15" fill="#6bfc6b" rx="2" ry="2"/>
<text x="526.0" y="766.0">java/io/PrintStream.println</text>
</g>
<g>
<title>java/io/PrintStream.newLine (3 samples, 6.52%)</title><rect x="523.0" y="739.0" width="77.0" height="15" fill="#5bec5b" rx="2" ry="2"/>
<text x="526.0" y="750.0">java/io/..</text>
</g>
<g>
<title>java/io/OutputStreamWriter.flushBuffer (3 samples, 6.52%)</title><rect x="523.0" y="723.0" width="77.0" height="15" fill="#68f968" rx="2" ry="2"/>
<text x="526.0" y="734.0">java/io/..</text>
</g>
<g>
<title>sun/nio/cs/StreamEncoder.flushBuffer (3 samples, 6.52%)</title><rect x="523.0" y="707.0" width="77.0" height="15" fill="#64f564" rx="2" ry="2"/>
<text x="526.0" y="718.0">sun/nio/..</text>
</g>
<g>
<title>sun/nio/cs/StreamEncoder.implFlushBuffer (3 samples, 6.52%)</title><rect x="523.0" y="691.0" width="77.0" height="15" fill="#6bfc6b" rx="2" ry="2"/>
<text x="526.0" y="702.0">sun/nio/..</text>
</g>
<g>
<title>sun/nio/cs/StreamEncoder.writeBytes (3 samples, 6.52%)</title><rect x="523.0" y="675.0" width="77.0" height="15" fill="#5eef5e" rx="2" ry="2"/>
<text x="526.0" y="686.0">sun/nio/..</text>
</g>
<g>
<title>java/io/PrintStream.write (3 samples, 6.52%)</title><rect x="523.0" y="659.0" width="77.0" height="15" fill="#56e756" rx="2" ry="2"/>
<text x="526.0" y="670.0">java/io/..</text>
</g>
<g>
<title>java/io/BufferedOutputStream.flush (3 samples, 6.52%)</title><rect x="523.0" y="643.0" width="77.0" height="15" fill="#6cfd6c" rx="2" ry="2"/>
<text x="526.0" y="654.0">java/io/..</text>
</g>
<g>
<title>java/io/BufferedOutputStream.flushBuffer (3 samples, 6.52%)</title><rect x="523.0" y="627.0" width="77.0" height="15" fill="#6bfc6b" rx="2" ry="2"/>
<text x="526.0" y="638.0">java/io/..</text>
</g>
<g>
<title>java/io/FileOutputStream.write (3 samples, 6.52%)</title><rect x="523.0" y="611.0" width="77.0" height="15" fill="#54e554" rx="2" ry="2"/>
<text x="526.0" y="622.0">java/io/..</text>
</g>
<g>
<title>java/io/FileOutputStream.writeBytes (3 samples, 6.52%)</title><rect x="523.0" y="595.0" width="77.0" height="15" fill="#6afb6a" rx="2" ry="2"/>
<text x="526.0" y="606.0">java/io/..</text>
</g>
<g>
<title>Java_java_io_FileOutputStream_writeBytes (1 samples, 2.17%)</title><rect x="523.0" y="579.0" width="25.7" height="15" fill="#f47373" rx="2" ry="2"/>
<text x="526.0" y="590.0">J..</text>
</g>
<g>
<title>writeBytes (1 samples, 2.17%)</title><rect x="523.0" y="563.0" width="25.7" height="15" fill="#ed6b6b" rx="2" ry="2"/>
<text x="526.0" y="574.0">w..</text>
</g>
<g>
<title>__GI_write (2 samples, 4.35%)</title><rect x="548.7" y="579.0" width="51.3" height="15" fill="#f37272" rx="2" ry="2"/>
<text x="551.7" y="590.0">__GI_..</text>
</g>
<g>
<title>entry_SYSCALL_64_after_hwframe (1 samples, 2.17%)</title><rect x="574.3" y="563.0" width="25.7" height="15" fill="#e98500" rx="2" ry="2"/>
<text x="577.3" y="574.0">e..</text>
</g>
<g>
<title>do_syscall_64 (1 samples, 2.17%)</title><rect x="574.3" y="547.0" width="25.7" height="15" fill="#f89400" rx="2" ry="2"/>
<text x="577.3" y="558.0">d..</text>
</g>
<g>
<title>__x64_sys_write (1 samples, 2.17%)</title><rect x="574.3" y="531.0" width="25.7" height="15" fill="#ea8600" rx="2" ry="2"/>
<text x="577.3" y="542.0">_..</text>
</g>
<g>
<title>ksys_write (1 samples, 2.17%)</title><rect x="574.3" y="515.0" width="25.7" height="15" fill="#ee8a00" rx="2" ry="2"/>
<text x="577.3" y="526.0">k..</text>
</g>
<g>
<title>__fdget_pos (1 samples, 2.17%)</title><rect x="574.3" y="499.0" width="25.7" height="15" fill="#e78300" rx="2" ry="2"/>
<text x="577.3" y="510.0">_..</text>
</g>
<g>
<title>__fget_light (1 samples, 2.17%)</title><rect x="574.3" y="483.0" width="25.7" height="15" fill="#e68200" rx="2" ry="2"/>
<text x="577.3" y="494.0">_..</text>
</g>
<g>
<title>java/io/PrintStream.print (8 samples, 17.39%)</title><rect x="600.0" y="739.0" width="205.2" height="15" fill="#58e958" rx="2" ry="2"/>
<text x="603.0" y="750.0">java/io/PrintStream.print</text>
</g>
<g>
<title>java/io/PrintStream.write (8 samples, 17.39%)</title><rect x="600.0" y="723.0" width="205.2" height="15" fill="#60f160" rx="2" ry="2"/>
<text x="603.0" y="734.0">java/io/PrintStream.write</text>
</g>
<g>
<title>java/io/OutputStreamWriter.flushBuffer (8 samples, 17.39%)</title><rect x="600.0" y="707.0" width="205.2" height="15" fill="#5ced5c" rx="2" ry="2"/>
<text x="603.0" y="718.0">java/io/OutputStreamWriter...</text>
</g>
<g>
<title>sun/nio/cs/StreamEncoder.flushBuffer (8 samples, 17.39%)</title><rect x="600.0" y="691.0" width="205.2" height="15" fill="#55e655" rx="2" ry="2"/>
<text x="603.0" y="702.0">sun/nio/cs/StreamEncoder.fl..</text>
</g>
<g>
<title>sun/nio/cs/StreamEncoder.implFlushBuffer (8 samples, 17.39%)</title><rect x="600.0" y="675.0" width="205.2" height="15" fill="#6bfc6b" rx="2" ry="2"/>
<text x="603.0" y="686.0">sun/nio/cs/StreamEncoder.im..</text>
</g>
<g>
<title>sun/nio/cs/StreamEncoder.writeBytes (8 samples, 17.39%)</title><rect x="600.0" y="659.0" width="205.2" height="15" fill="#53e453" rx="2" ry="2"/>
<text x="603.0" y="670.0">sun/nio/cs/StreamEncoder.wr..</text>
</g>
<g>
<title>java/io/PrintStream.write (8 samples, 17.39%)</title><rect x="600.0" y="643.0" width="205.2" height="15" fill="#53e453" rx="2" ry="2"/>
<text x="603.0" y="654.0">java/io/PrintStream.write</text>
</g>
<g>
<title>java/io/BufferedOutputStream.flush (8 samples, 17.39%)</title><rect x="600.0" y="627.0" width="205.2" height="15" fill="#5eef5e" rx="2" ry="2"/>
<text x="603.0" y="638.0">java/io/BufferedOutputStrea..</text>
</g>
<g>
<title>java/io/BufferedOutputStream.flushBuffer (8 samples, 17.39%)</title><rect x="600.0" y="611.0" width="205.2" height="15" fill="#66f766" rx="2" ry="2"/>
<text x="603.0" y="622.0">java/io/BufferedOutputStrea..</text>
</g>
<g>
<title>java/io/FileOutputStream.write (8 samples, 17.39%)</title><rect x="600.0" y="595.0" width="205.2" height="15" fill="#6dfe6d" rx="2" ry="2"/>
<text x="603.0" y="606.0">java/io/FileOutputStream.wr..</text>
</g>
<g>
<title>java/io/FileOutputStream.writeBytes (8 samples, 17.39%)</title><rect x="600.0" y="579.0" width="205.2" height="15" fill="#6cfd6c" rx="2" ry="2"/>
<text x="603.0" y="590.0">java/io/FileOutputStream.wr..</text>
</g>
<g>
<title>Java_java_io_FileOutputStream_writeBytes (1 samples, 2.17%)</title><rect x="600.0" y="563.0" width="25.7" height="15" fill="#f57575" rx="2" ry="2"/>
<text x="603.0" y="574.0">J..</text>
</g>
<g>
<title>writeBytes (1 samples, 2.17%)</title><rect x="600.0" y="547.0" width="25.7" height="15" fill="#ec6969" rx="2" ry="2"/>
<text x="603.0" y="558.0">w..</text>
</g>
<g>
<title>__GI_write (1 samples, 2.17%)</title><rect x="600.0" y="531.0" width="25.7" height="15" fill="#f77777" rx="2" ry="2"/>
<text x="603.0" y="542.0">_..</text>
</g>
<g>
<title>[unknown] (7 samples, 15.22%)</title><rect x="625.7" y="563.0" width="179.5" height="15" fill="#ec6868" rx="2" ry="2"/>
<text x="628.7" y="574.0">[unknown]</text>
</g>
<g>
<title>__GI_write (7 samples, 15.22%)</title><rect x="625.7" y="547.0" width="179.5" height="15" fill="#e96565" rx="2" ry="2"/>
<text x="628.7" y="558.0">__GI_write</text>
</g>
<g>
<title>entry_SYSCALL_64_after_hwframe (7 samples, 15.22%)</title><rect x="625.7" y="531.0" width="179.5" height="15" fill="#e78300" rx="2" ry="2"/>
<text x="628.7" y="542.0">entry_SYSCALL_64_after_..</text>
</g>
<g>
<title>do_syscall_64 (7 samples, 15.22%)</title><rect x="625.7" y="515.0" width="179.5" height="15" fill="#f28e00" rx="2" ry="2"/>
<text x="628.7" y="526.0">do_syscall_64</text>
</g>
<g>
<title>__x64_sys_write (7 samples, 15.22%)</title><rect x="625.7" y="499.0" width="179.5" height="15" fill="#e88400" rx="2" ry="2"/>
<text x="628.7" y="510.0">__x64_sys_write</text>
</g>
<g>
<title>ksys_write (7 samples, 15.22%)</title><rect x="625.7" y="483.0" width="179.5" height="15" fill="#e58100" rx="2" ry="2"/>
<text x="628.7" y="494.0">ksys_write</text>
</g>
<g>
<title>__fdget_pos (1 samples, 2.17%)</title><rect x="625.7" y="467.0" width="25.6" height="15" fill="#f69200" rx="2" ry="2"/>
<text x="628.7" y="478.0">_..</text>
</g>
<g>
<title>__fget_light (1 samples, 2.17%)</title><rect x="625.7" y="451.0" width="25.6" height="15" fill="#e48000" rx="2" ry="2"/>
<text x="628.7" y="462.0">_..</text>
</g>
<g>
<title>__fget (1 samples, 2.17%)</title><rect x="625.7" y="435.0" width="25.6" height="15" fill="#f89400" rx="2" ry="2"/>
<text x="628.7" y="446.0">_..</text>
</g>
<g>
<title>vfs_write (6 samples, 13.04%)</title><rect x="651.3" y="467.0" width="153.9" height="15" fill="#e58100" rx="2" ry="2"/>
<text x="654.3" y="478.0">vfs_write</text>
</g>
<g>
<title>__vfs_write (5 samples, 10.87%)</title><rect x="651.3" y="451.0" width="128.3" height="15" fill="#f79300" rx="2" ry="2"/>
<text x="654.3" y="462.0">__vfs_write</text>
</g>
<g>
<title>new_sync_write (5 samples, 10.87%)</title><rect x="651.3" y="435.0" width="128.3" height="15" fill="#e37f00" rx="2" ry="2"/>
<text x="654.3" y="446.0">new_sync_write</text>
</g>
<g>
<title>pipe_write (5 samples, 10.87%)</title><rect x="651.3" y="419.0" width="128.3" height="15" fill="#fd9900" rx="2" ry="2"/>
<text x="654.3" y="430.0">pipe_write</text>
</g>
<g>
<title>__wake_up_sync_key (5 samples, 10.87%)</title><rect x="651.3" y="403.0" width="128.3" height="15" fill="#e27e00" rx="2" ry="2"/>
<text x="654.3" y="414.0">__wake_up_sync_key</text>
</g>
<g>
<title>__wake_up_common_lock (5 samples, 10.87%)</title><rect x="651.3" y="387.0" width="128.3" height="15" fill="#f08c00" rx="2" ry="2"/>
<text x="654.3" y="398.0">__wake_up_common..</text>
</g>
<g>
<title>__lock_text_start (5 samples, 10.87%)</title><rect x="651.3" y="371.0" width="128.3" height="15" fill="#e68200" rx="2" ry="2"/>
<text x="654.3" y="382.0">__lock_text_start</text>
</g>
<g>
<title>fsnotify (1 samples, 2.17%)</title><rect x="779.6" y="451.0" width="25.6" height="15" fill="#e88400" rx="2" ry="2"/>
<text x="782.6" y="462.0">f..</text>
</g>
<g>
<title>ru/mail/polis/dao/DAO.upsert (9 samples, 19.57%)</title><rect x="805.2" y="755.0" width="230.9" height="15" fill="#67f867" rx="2" ry="2"/>
<text x="808.2" y="766.0">ru/mail/polis/dao/DAO.upsert</text>
</g>
<g>
<title>ru/mail/polis/dao/bmendli/DAOImpl.upsert (9 samples, 19.57%)</title><rect x="805.2" y="739.0" width="230.9" height="15" fill="#65f665" rx="2" ry="2"/>
<text x="808.2" y="750.0">ru/mail/polis/dao/bmendli/DAOI..</text>
</g>
<g>
<title>java/nio/HeapByteBuffer.asReadOnlyBuffer (3 samples, 6.52%)</title><rect x="805.2" y="723.0" width="77.0" height="15" fill="#63f463" rx="2" ry="2"/>
<text x="808.2" y="734.0">java/nio..</text>
</g>
<g>
<title>java/nio/HeapByteBufferR.&lt;init&gt; (3 samples, 6.52%)</title><rect x="805.2" y="707.0" width="77.0" height="15" fill="#6dfe6d" rx="2" ry="2"/>
<text x="808.2" y="718.0">java/nio..</text>
</g>
<g>
<title>java/nio/HeapByteBuffer.&lt;init&gt; (3 samples, 6.52%)</title><rect x="805.2" y="691.0" width="77.0" height="15" fill="#63f463" rx="2" ry="2"/>
<text x="808.2" y="702.0">java/nio..</text>
</g>
<g>
<title>java/nio/ByteBuffer.&lt;init&gt; (3 samples, 6.52%)</title><rect x="805.2" y="675.0" width="77.0" height="15" fill="#66f766" rx="2" ry="2"/>
<text x="808.2" y="686.0">java/nio..</text>
</g>
<g>
<title>java/nio/Buffer.&lt;init&gt; (3 samples, 6.52%)</title><rect x="805.2" y="659.0" width="77.0" height="15" fill="#52e352" rx="2" ry="2"/>
<text x="808.2" y="670.0">java/nio..</text>
</g>
<g>
<title>java/nio/ByteBuffer.limit (3 samples, 6.52%)</title><rect x="805.2" y="643.0" width="77.0" height="15" fill="#54e554" rx="2" ry="2"/>
<text x="808.2" y="654.0">java/nio..</text>
</g>
<g>
<title>java/nio/ByteBuffer.limit (3 samples, 6.52%)</title><rect x="805.2" y="627.0" width="77.0" height="15" fill="#5ff05f" rx="2" ry="2"/>
<text x="808.2" y="638.0">java/nio..</text>
</g>
<g>
<title>java/nio/Buffer.limit (1 samples, 2.17%)</title><rect x="856.5" y="611.0" width="25.7" height="15" fill="#52e352" rx="2" ry="2"/>
<text x="859.5" y="622.0">j..</text>
</g>
<g>
<title>ru/mail/polis/dao/bmendli/MemTable.upsert (6 samples, 13.04%)</title><rect x="882.2" y="723.0" width="153.9" height="15" fill="#52e352" rx="2" ry="2"/>
<text x="885.2" y="734.0">ru/mail/polis/dao/b..</text>
</g>
<g>
<title>java/util/TreeMap.put (6 samples, 13.04%)</title><rect x="882.2" y="707.0" width="153.9" height="15" fill="#56e756" rx="2" ry="2"/>
<text x="885.2" y="718.0">java/util/TreeMap.put</text>
</g>
<g>
<title>java/nio/ByteBuffer.compareTo (5 samples, 10.87%)</title><rect x="907.8" y="691.0" width="128.3" height="15" fill="#5dee5d" rx="2" ry="2"/>
<text x="910.8" y="702.0">java/nio/ByteBuf..</text>
</g>
<g>
<title>java/nio/ByteBuffer.compareTo (5 samples, 10.87%)</title><rect x="907.8" y="675.0" width="128.3" height="15" fill="#68f968" rx="2" ry="2"/>
<text x="910.8" y="686.0">java/nio/ByteBuf..</text>
</g>
<g>
<title>java/nio/BufferMismatch.mismatch (5 samples, 10.87%)</title><rect x="907.8" y="659.0" width="128.3" height="15" fill="#61f261" rx="2" ry="2"/>
<text x="910.8" y="670.0">java/nio/BufferM..</text>
</g>
<g>
<title>java/nio/HeapByteBuffer.get (1 samples, 2.17%)</title><rect x="1010.4" y="643.0" width="25.7" height="15" fill="#66f766" rx="2" ry="2"/>
<text x="1013.4" y="654.0">j..</text>
</g>
<g>
<title>java/nio/Buffer.checkIndex (1 samples, 2.17%)</title><rect x="1010.4" y="627.0" width="25.7" height="15" fill="#51e251" rx="2" ry="2"/>
<text x="1013.4" y="638.0">j..</text>
</g>
<g>
<title>one/nio/http/HttpSession.parseRequest (1 samples, 2.17%)</title><rect x="1036.1" y="819.0" width="25.6" height="15" fill="#54e554" rx="2" ry="2"/>
<text x="1039.1" y="830.0">o..</text>
</g>
<g>
<title>one/nio/http/Request.&lt;init&gt; (1 samples, 2.17%)</title><rect x="1036.1" y="803.0" width="25.6" height="15" fill="#6dfe6d" rx="2" ry="2"/>
<text x="1039.1" y="814.0">o..</text>
</g>
<g>
<title>java/lang/String.indexOf (1 samples, 2.17%)</title><rect x="1036.1" y="787.0" width="25.6" height="15" fill="#56e756" rx="2" ry="2"/>
<text x="1039.1" y="798.0">j..</text>
</g>
<g>
<title>java/lang/String.indexOf (1 samples, 2.17%)</title><rect x="1036.1" y="771.0" width="25.6" height="15" fill="#6afb6a" rx="2" ry="2"/>
<text x="1039.1" y="782.0">j..</text>
</g>
<g>
<title>java/lang/StringLatin1.indexOf (1 samples, 2.17%)</title><rect x="1036.1" y="755.0" width="25.6" height="15" fill="#53e453" rx="2" ry="2"/>
<text x="1039.1" y="766.0">j..</text>
</g>
<g>
<title>one/nio/util/Utf8.read (3 samples, 6.52%)</title><rect x="1061.7" y="819.0" width="77.0" height="15" fill="#6dfe6d" rx="2" ry="2"/>
<text x="1064.7" y="830.0">one/nio/..</text>
</g>
<g>
<title>one/nio/util/Utf8.read (3 samples, 6.52%)</title><rect x="1061.7" y="803.0" width="77.0" height="15" fill="#51e251" rx="2" ry="2"/>
<text x="1064.7" y="814.0">one/nio/..</text>
</g>
<g>
<title>one/nio/net/Session.read (2 samples, 4.35%)</title><rect x="1138.7" y="835.0" width="51.3" height="15" fill="#6afb6a" rx="2" ry="2"/>
<text x="1141.7" y="846.0">one/n..</text>
</g>
<g>
<title>one/nio/net/NativeSocket.read (2 samples, 4.35%)</title><rect x="1138.7" y="819.0" width="51.3" height="15" fill="#52e352" rx="2" ry="2"/>
<text x="1141.7" y="830.0">one/n..</text>
</g>
<g>
<title>__GI___recv (2 samples, 4.35%)</title><rect x="1138.7" y="803.0" width="51.3" height="15" fill="#e15a5a" rx="2" ry="2"/>
<text x="1141.7" y="814.0">__GI_..</text>
</g>
<g>
<title>entry_SYSCALL_64_after_hwframe (1 samples, 2.17%)</title><rect x="1164.3" y="787.0" width="25.7" height="15" fill="#fc9800" rx="2" ry="2"/>
<text x="1167.3" y="798.0">e..</text>
</g>
<g>
<title>do_syscall_64 (1 samples, 2.17%)</title><rect x="1164.3" y="771.0" width="25.7" height="15" fill="#f28e00" rx="2" ry="2"/>
<text x="1167.3" y="782.0">d..</text>
</g>
<g>
<title>__x64_sys_recvfrom (1 samples, 2.17%)</title><rect x="1164.3" y="755.0" width="25.7" height="15" fill="#e68200" rx="2" ry="2"/>
<text x="1167.3" y="766.0">_..</text>
</g>
<g>
<title>__sys_recvfrom (1 samples, 2.17%)</title><rect x="1164.3" y="739.0" width="25.7" height="15" fill="#e58100" rx="2" ry="2"/>
<text x="1167.3" y="750.0">_..</text>
</g>
<g>
<title>sock_recvmsg (1 samples, 2.17%)</title><rect x="1164.3" y="723.0" width="25.7" height="15" fill="#ec8800" rx="2" ry="2"/>
<text x="1167.3" y="734.0">s..</text>
</g>
<g>
<title>security_socket_recvmsg (1 samples, 2.17%)</title><rect x="1164.3" y="707.0" width="25.7" height="15" fill="#fc9800" rx="2" ry="2"/>
<text x="1167.3" y="718.0">s..</text>
</g>
<g>
<title>apparmor_socket_recvmsg (1 samples, 2.17%)</title><rect x="1164.3" y="691.0" width="25.7" height="15" fill="#f99500" rx="2" ry="2"/>
<text x="1167.3" y="702.0">a..</text>
</g>
<g>
<title>aa_sock_msg_perm (1 samples, 2.17%)</title><rect x="1164.3" y="675.0" width="25.7" height="15" fill="#eb8700" rx="2" ry="2"/>
<text x="1167.3" y="686.0">a..</text>
</g>
<g>
<title>aa_sk_perm (1 samples, 2.17%)</title><rect x="1164.3" y="659.0" width="25.7" height="15" fill="#f18d00" rx="2" ry="2"/>
<text x="1167.3" y="670.0">a..</text>
</g>
<g>
<title>aa_label_sk_perm.part.4 (1 samples, 2.17%)</title><rect x="1164.3" y="643.0" width="25.7" height="15" fill="#f28e00" rx="2" ry="2"/>
<text x="1167.3" y="654.0">a..</text>
</g>
<g>
<title>aa_profile_af_perm (1 samples, 2.17%)</title><rect x="1164.3" y="627.0" width="25.7" height="15" fill="#ee8a00" rx="2" ry="2"/>
<text x="1167.3" y="638.0">a..</text>
</g>
</g>
</svg>
