<?xml version="1.0" standalone="no"?>
<!DOCTYPE svg PUBLIC "-//W3C//DTD SVG 1.1//EN" "http://www.w3.org/Graphics/SVG/1.1/DTD/svg11.dtd">
<svg version="1.1" width="1200" height="390" onload="init(evt)" viewBox="0 0 1200 390" xmlns="http://www.w3.org/2000/svg" xmlns:xlink="http://www.w3.org/1999/xlink">
<style type="text/css">
	text { font-family:Verdana; font-size:12px; fill:rgb(0,0,0); }
	#search { opacity:0.1; cursor:pointer; }
	#search:hover, #search.show { opacity:1; }
	#subtitle { text-anchor:middle; font-color:rgb(160,160,160); }
	#title { text-anchor:middle; font-size:17px}
	#unzoom { cursor:pointer; }
	#frames > *:hover { stroke:black; stroke-width:0.5; cursor:pointer; }
	.hide { display:none; }
	.parent { opacity:0.5; }
</style>
<script type="text/ecmascript">
<![CDATA[
	"use strict";
	var details, searchbtn, unzoombtn, matchedtxt, svg, searching;
	function init(evt) {
		details = document.getElementById("details").firstChild;
		searchbtn = document.getElementById("search");
		unzoombtn = document.getElementById("unzoom");
		matchedtxt = document.getElementById("matched");
		svg = document.getElementsByTagName("svg")[0];
		searching = 0;
	}

	window.addEventListener("click", function(e) {
		var target = find_group(e.target);
		if (target) {
			if (target.nodeName == "a") {
				if (e.ctrlKey === false) return;
				e.preventDefault();
			}
			if (target.classList.contains("parent")) unzoom();
			zoom(target);
		}
		else if (e.target.id == "unzoom") unzoom();
		else if (e.target.id == "search") search_prompt();
	}, false)

	// mouse-over for info
	// show
	window.addEventListener("mouseover", function(e) {
		var target = find_group(e.target);
		if (target) details.nodeValue = "Function: " + g_to_text(target);
	}, false)

	// clear
	window.addEventListener("mouseout", function(e) {
		var target = find_group(e.target);
		if (target) details.nodeValue = ' ';
	}, false)

	// ctrl-F for search
	window.addEventListener("keydown",function (e) {
		if (e.keyCode === 114 || (e.ctrlKey && e.keyCode === 70)) {
			e.preventDefault();
			search_prompt();
		}
	}, false)

	// functions
	function find_child(node, selector) {
		var children = node.querySelectorAll(selector);
		if (children.length) return children[0];
		return;
	}
	function find_group(node) {
		var parent = node.parentElement;
		if (!parent) return;
		if (parent.id == "frames") return node;
		return find_group(parent);
	}
	function orig_save(e, attr, val) {
		if (e.attributes["_orig_" + attr] != undefined) return;
		if (e.attributes[attr] == undefined) return;
		if (val == undefined) val = e.attributes[attr].value;
		e.setAttribute("_orig_" + attr, val);
	}
	function orig_load(e, attr) {
		if (e.attributes["_orig_"+attr] == undefined) return;
		e.attributes[attr].value = e.attributes["_orig_" + attr].value;
		e.removeAttribute("_orig_"+attr);
	}
	function g_to_text(e) {
		var text = find_child(e, "title").firstChild.nodeValue;
		return (text)
	}
	function g_to_func(e) {
		var func = g_to_text(e);
		// if there's any manipulation we want to do to the function
		// name before it's searched, do it here before returning.
		return (func);
	}
	function update_text(e) {
		var r = find_child(e, "rect");
		var t = find_child(e, "text");
		var w = parseFloat(r.attributes.width.value) -3;
		var txt = find_child(e, "title").textContent.replace(/\([^(]*\)$/,"");
		t.attributes.x.value = parseFloat(r.attributes.x.value) + 3;

		// Smaller than this size won't fit anything
		if (w < 2 * 12 * 0.59) {
			t.textContent = "";
			return;
		}

		t.textContent = txt;
		// Fit in full text width
		if (/^ *$/.test(txt) || t.getSubStringLength(0, txt.length) < w)
			return;

		for (var x = txt.length - 2; x > 0; x--) {
			if (t.getSubStringLength(0, x + 2) <= w) {
				t.textContent = txt.substring(0, x) + "..";
				return;
			}
		}
		t.textContent = "";
	}

	// zoom
	function zoom_reset(e) {
		if (e.attributes != undefined) {
			orig_load(e, "x");
			orig_load(e, "width");
		}
		if (e.childNodes == undefined) return;
		for (var i = 0, c = e.childNodes; i < c.length; i++) {
			zoom_reset(c[i]);
		}
	}
	function zoom_child(e, x, ratio) {
		if (e.attributes != undefined) {
			if (e.attributes.x != undefined) {
				orig_save(e, "x");
				e.attributes.x.value = (parseFloat(e.attributes.x.value) - x - 10) * ratio + 10;
				if (e.tagName == "text")
					e.attributes.x.value = find_child(e.parentNode, "rect[x]").attributes.x.value + 3;
			}
			if (e.attributes.width != undefined) {
				orig_save(e, "width");
				e.attributes.width.value = parseFloat(e.attributes.width.value) * ratio;
			}
		}

		if (e.childNodes == undefined) return;
		for (var i = 0, c = e.childNodes; i < c.length; i++) {
			zoom_child(c[i], x - 10, ratio);
		}
	}
	function zoom_parent(e) {
		if (e.attributes) {
			if (e.attributes.x != undefined) {
				orig_save(e, "x");
				e.attributes.x.value = 10;
			}
			if (e.attributes.width != undefined) {
				orig_save(e, "width");
				e.attributes.width.value = parseInt(svg.width.baseVal.value) - (10 * 2);
			}
		}
		if (e.childNodes == undefined) return;
		for (var i = 0, c = e.childNodes; i < c.length; i++) {
			zoom_parent(c[i]);
		}
	}
	function zoom(node) {
		var attr = find_child(node, "rect").attributes;
		var width = parseFloat(attr.width.value);
		var xmin = parseFloat(attr.x.value);
		var xmax = parseFloat(xmin + width);
		var ymin = parseFloat(attr.y.value);
		var ratio = (svg.width.baseVal.value - 2 * 10) / width;

		// XXX: Workaround for JavaScript float issues (fix me)
		var fudge = 0.0001;

		unzoombtn.classList.remove("hide");

		var el = document.getElementById("frames").children;
		for (var i = 0; i < el.length; i++) {
			var e = el[i];
			var a = find_child(e, "rect").attributes;
			var ex = parseFloat(a.x.value);
			var ew = parseFloat(a.width.value);
			var upstack;
			// Is it an ancestor
			if (0 == 0) {
				upstack = parseFloat(a.y.value) > ymin;
			} else {
				upstack = parseFloat(a.y.value) < ymin;
			}
			if (upstack) {
				// Direct ancestor
				if (ex <= xmin && (ex+ew+fudge) >= xmax) {
					e.classList.add("parent");
					zoom_parent(e);
					update_text(e);
				}
				// not in current path
				else
					e.classList.add("hide");
			}
			// Children maybe
			else {
				// no common path
				if (ex < xmin || ex + fudge >= xmax) {
					e.classList.add("hide");
				}
				else {
					zoom_child(e, xmin, ratio);
					update_text(e);
				}
			}
		}
	}
	function unzoom() {
		unzoombtn.classList.add("hide");
		var el = document.getElementById("frames").children;
		for(var i = 0; i < el.length; i++) {
			el[i].classList.remove("parent");
			el[i].classList.remove("hide");
			zoom_reset(el[i]);
			update_text(el[i]);
		}
	}

	// search
	function reset_search() {
		var el = document.querySelectorAll("#frames rect");
		for (var i = 0; i < el.length; i++) {
			orig_load(el[i], "fill")
		}
	}
	function search_prompt() {
		if (!searching) {
			var term = prompt("Enter a search term (regexp " +
			    "allowed, eg: ^ext4_)", "");
			if (term != null) {
				search(term)
			}
		} else {
			reset_search();
			searching = 0;
			searchbtn.classList.remove("show");
			searchbtn.firstChild.nodeValue = "Search"
			matchedtxt.classList.add("hide");
			matchedtxt.firstChild.nodeValue = ""
		}
	}
	function search(term) {
		var re = new RegExp(term);
		var el = document.getElementById("frames").children;
		var matches = new Object();
		var maxwidth = 0;
		for (var i = 0; i < el.length; i++) {
			var e = el[i];
			var func = g_to_func(e);
			var rect = find_child(e, "rect");
			if (func == null || rect == null)
				continue;

			// Save max width. Only works as we have a root frame
			var w = parseFloat(rect.attributes.width.value);
			if (w > maxwidth)
				maxwidth = w;

			if (func.match(re)) {
				// highlight
				var x = parseFloat(rect.attributes.x.value);
				orig_save(rect, "fill");
				rect.attributes.fill.value = "rgb(230,0,230)";

				// remember matches
				if (matches[x] == undefined) {
					matches[x] = w;
				} else {
					if (w > matches[x]) {
						// overwrite with parent
						matches[x] = w;
					}
				}
				searching = 1;
			}
		}
		if (!searching)
			return;

		searchbtn.classList.add("show");
		searchbtn.firstChild.nodeValue = "Reset Search";

		// calculate percent matched, excluding vertical overlap
		var count = 0;
		var lastx = -1;
		var lastw = 0;
		var keys = Array();
		for (k in matches) {
			if (matches.hasOwnProperty(k))
				keys.push(k);
		}
		// sort the matched frames by their x location
		// ascending, then width descending
		keys.sort(function(a, b){
			return a - b;
		});
		// Step through frames saving only the biggest bottom-up frames
		// thanks to the sort order. This relies on the tree property
		// where children are always smaller than their parents.
		var fudge = 0.0001;	// JavaScript floating point
		for (var k in keys) {
			var x = parseFloat(keys[k]);
			var w = matches[keys[k]];
			if (x >= lastx + lastw - fudge) {
				count += w;
				lastx = x;
				lastw = w;
			}
		}
		// display matched percent
		matchedtxt.classList.remove("hide");
		var pct = 100 * count / maxwidth;
		if (pct != 100) pct = pct.toFixed(1)
		matchedtxt.firstChild.nodeValue = "Matched: " + pct + "%";
	}
]]>
</script>
<rect x="0" y="0" width="100%" height="100%" fill="rgb(240,240,220)"/>
<text id="title" x="600" y="24">Flame Graph</text>
<text id="details" x="10" y="373"> </text>
<text id="unzoom" x="10" y="24" class="hide">Reset Zoom</text>
<text id="search" x="1090" y="24">Search</text>
<text id="matched" x="1090" y="373"> </text>
<g id="frames">
<g>
<title>all (35 samples, 100.00%)</title><rect x="10.0" y="339.0" width="1180.0" height="15" fill="#fa7b7b" rx="2" ry="2"/>
<text x="13.0" y="350.0">all</text>
</g>
<g>
<title>[NIO Selector #0 tid=18714] (10 samples, 28.57%)</title><rect x="10.0" y="323.0" width="337.1" height="15" fill="#ec6969" rx="2" ry="2"/>
<text x="13.0" y="334.0">[NIO Selector #0 tid=18714]</text>
</g>
<g>
<title>one/nio/server/SelectorThread.run (10 samples, 28.57%)</title><rect x="10.0" y="307.0" width="337.1" height="15" fill="#67f867" rx="2" ry="2"/>
<text x="13.0" y="318.0">one/nio/server/SelectorThread.run</text>
</g>
<g>
<title>one/nio/net/NativeSelector.select (2 samples, 5.71%)</title><rect x="10.0" y="291.0" width="67.4" height="15" fill="#67f867" rx="2" ry="2"/>
<text x="13.0" y="302.0">one/nio..</text>
</g>
<g>
<title>int[] (1 samples, 2.86%)</title><rect x="10.0" y="275.0" width="33.7" height="15" fill="#6bd9d9" rx="2" ry="2"/>
<text x="13.0" y="286.0">in..</text>
</g>
<g>
<title>java/lang/ClassLoader.loadClass (1 samples, 2.86%)</title><rect x="43.7" y="275.0" width="33.7" height="15" fill="#55e655" rx="2" ry="2"/>
<text x="46.7" y="286.0">ja..</text>
</g>
<g>
<title>jdk/internal/loader/ClassLoaders$AppClassLoader.loadClass (1 samples, 2.86%)</title><rect x="43.7" y="259.0" width="33.7" height="15" fill="#5aeb5a" rx="2" ry="2"/>
<text x="46.7" y="270.0">jd..</text>
</g>
<g>
<title>jdk/internal/loader/BuiltinClassLoader.loadClass (1 samples, 2.86%)</title><rect x="43.7" y="243.0" width="33.7" height="15" fill="#67f867" rx="2" ry="2"/>
<text x="46.7" y="254.0">jd..</text>
</g>
<g>
<title>jdk/internal/loader/BuiltinClassLoader.loadClassOrNull (1 samples, 2.86%)</title><rect x="43.7" y="227.0" width="33.7" height="15" fill="#58e958" rx="2" ry="2"/>
<text x="46.7" y="238.0">jd..</text>
</g>
<g>
<title>java.lang.Object (1 samples, 2.86%)</title><rect x="43.7" y="211.0" width="33.7" height="15" fill="#60cece" rx="2" ry="2"/>
<text x="46.7" y="222.0">ja..</text>
</g>
<g>
<title>one/nio/net/Session.process (8 samples, 22.86%)</title><rect x="77.4" y="291.0" width="269.7" height="15" fill="#5eef5e" rx="2" ry="2"/>
<text x="80.4" y="302.0">one/nio/net/Session.process</text>
</g>
<g>
<title>one/nio/http/HttpSession.processRead (8 samples, 22.86%)</title><rect x="77.4" y="275.0" width="269.7" height="15" fill="#62f362" rx="2" ry="2"/>
<text x="80.4" y="286.0">one/nio/http/HttpSession.processRead</text>
</g>
<g>
<title>one/nio/http/HttpSession.processHttpBuffer (8 samples, 22.86%)</title><rect x="77.4" y="259.0" width="269.7" height="15" fill="#5aeb5a" rx="2" ry="2"/>
<text x="80.4" y="270.0">one/nio/http/HttpSession.processHttp..</text>
</g>
<g>
<title>one/nio/http/HttpSession.handleParsedRequest (8 samples, 22.86%)</title><rect x="77.4" y="243.0" width="269.7" height="15" fill="#5ff05f" rx="2" ry="2"/>
<text x="80.4" y="254.0">one/nio/http/HttpSession.handleParse..</text>
</g>
<g>
<title>one/nio/http/HttpServer.handleRequest (8 samples, 22.86%)</title><rect x="77.4" y="227.0" width="269.7" height="15" fill="#6cfd6c" rx="2" ry="2"/>
<text x="80.4" y="238.0">one/nio/http/HttpServer.handleRequest</text>
</g>
<g>
<title>RequestHandler1_put.handleRequest (8 samples, 22.86%)</title><rect x="77.4" y="211.0" width="269.7" height="15" fill="#6bfc6b" rx="2" ry="2"/>
<text x="80.4" y="222.0">RequestHandler1_put.handleRequest</text>
</g>
<g>
<title>one.nio.http.gen.RequestHandlerGenerator (1 samples, 2.86%)</title><rect x="77.4" y="195.0" width="33.7" height="15" fill="#63d1d1" rx="2" ry="2"/>
<text x="80.4" y="206.0">on..</text>
</g>
<g>
<title>one/nio/http/Request.getRequiredParameter (2 samples, 5.71%)</title><rect x="111.1" y="195.0" width="67.5" height="15" fill="#65f665" rx="2" ry="2"/>
<text x="114.1" y="206.0">one/nio..</text>
</g>
<g>
<title>one/nio/http/Request.getParameter (2 samples, 5.71%)</title><rect x="111.1" y="179.0" width="67.5" height="15" fill="#54e554" rx="2" ry="2"/>
<text x="114.1" y="190.0">one/nio..</text>
</g>
<g>
<title>int[] (1 samples, 2.86%)</title><rect x="111.1" y="163.0" width="33.8" height="15" fill="#62d0d0" rx="2" ry="2"/>
<text x="114.1" y="174.0">in..</text>
</g>
<g>
<title>java/lang/ClassLoader.loadClass (1 samples, 2.86%)</title><rect x="144.9" y="163.0" width="33.7" height="15" fill="#50e150" rx="2" ry="2"/>
<text x="147.9" y="174.0">ja..</text>
</g>
<g>
<title>jdk/internal/loader/ClassLoaders$AppClassLoader.loadClass (1 samples, 2.86%)</title><rect x="144.9" y="147.0" width="33.7" height="15" fill="#57e857" rx="2" ry="2"/>
<text x="147.9" y="158.0">jd..</text>
</g>
<g>
<title>jdk/internal/loader/BuiltinClassLoader.loadClass (1 samples, 2.86%)</title><rect x="144.9" y="131.0" width="33.7" height="15" fill="#54e554" rx="2" ry="2"/>
<text x="147.9" y="142.0">jd..</text>
</g>
<g>
<title>jdk/internal/loader/BuiltinClassLoader.loadClassOrNull (1 samples, 2.86%)</title><rect x="144.9" y="115.0" width="33.7" height="15" fill="#68f968" rx="2" ry="2"/>
<text x="147.9" y="126.0">jd..</text>
</g>
<g>
<title>java.lang.Object (1 samples, 2.86%)</title><rect x="144.9" y="99.0" width="33.7" height="15" fill="#54c2c2" rx="2" ry="2"/>
<text x="147.9" y="110.0">ja..</text>
</g>
<g>
<title>ru/mail/polis/service/bmendli/MyService.put (5 samples, 14.29%)</title><rect x="178.6" y="195.0" width="168.5" height="15" fill="#5ced5c" rx="2" ry="2"/>
<text x="181.6" y="206.0">ru/mail/polis/service/..</text>
</g>
<g>
<title>int[] (1 samples, 2.86%)</title><rect x="178.6" y="179.0" width="33.7" height="15" fill="#53c1c1" rx="2" ry="2"/>
<text x="181.6" y="190.0">in..</text>
</g>
<g>
<title>java/lang/ClassLoader.loadClass (1 samples, 2.86%)</title><rect x="212.3" y="179.0" width="33.7" height="15" fill="#53e453" rx="2" ry="2"/>
<text x="215.3" y="190.0">ja..</text>
</g>
<g>
<title>jdk/internal/loader/ClassLoaders$AppClassLoader.loadClass (1 samples, 2.86%)</title><rect x="212.3" y="163.0" width="33.7" height="15" fill="#6dfe6d" rx="2" ry="2"/>
<text x="215.3" y="174.0">jd..</text>
</g>
<g>
<title>jdk/internal/loader/BuiltinClassLoader.loadClass (1 samples, 2.86%)</title><rect x="212.3" y="147.0" width="33.7" height="15" fill="#56e756" rx="2" ry="2"/>
<text x="215.3" y="158.0">jd..</text>
</g>
<g>
<title>jdk/internal/loader/BuiltinClassLoader.loadClassOrNull (1 samples, 2.86%)</title><rect x="212.3" y="131.0" width="33.7" height="15" fill="#5ff05f" rx="2" ry="2"/>
<text x="215.3" y="142.0">jd..</text>
</g>
<g>
<title>java.lang.Object (1 samples, 2.86%)</title><rect x="212.3" y="115.0" width="33.7" height="15" fill="#69d7d7" rx="2" ry="2"/>
<text x="215.3" y="126.0">ja..</text>
</g>
<g>
<title>ru/mail/polis/dao/DAO.upsert (3 samples, 8.57%)</title><rect x="246.0" y="179.0" width="101.1" height="15" fill="#62f362" rx="2" ry="2"/>
<text x="249.0" y="190.0">ru/mail/poli..</text>
</g>
<g>
<title>ru/mail/polis/dao/bmendli/DAOImpl.upsert (3 samples, 8.57%)</title><rect x="246.0" y="163.0" width="101.1" height="15" fill="#58e958" rx="2" ry="2"/>
<text x="249.0" y="174.0">ru/mail/poli..</text>
</g>
<g>
<title>java/nio/HeapByteBuffer.asReadOnlyBuffer (1 samples, 2.86%)</title><rect x="246.0" y="147.0" width="33.7" height="15" fill="#63f463" rx="2" ry="2"/>
<text x="249.0" y="158.0">ja..</text>
</g>
<g>
<title>int[] (1 samples, 2.86%)</title><rect x="246.0" y="131.0" width="33.7" height="15" fill="#5fcdcd" rx="2" ry="2"/>
<text x="249.0" y="142.0">in..</text>
</g>
<g>
<title>ru/mail/polis/dao/bmendli/MemTablePool.upsert (2 samples, 5.71%)</title><rect x="279.7" y="147.0" width="67.4" height="15" fill="#5eef5e" rx="2" ry="2"/>
<text x="282.7" y="158.0">ru/mail..</text>
</g>
<g>
<title>ru/mail/polis/dao/bmendli/MemTable.upsert (2 samples, 5.71%)</title><rect x="279.7" y="131.0" width="67.4" height="15" fill="#6dfe6d" rx="2" ry="2"/>
<text x="282.7" y="142.0">ru/mail..</text>
</g>
<g>
<title>java/lang/ClassLoader.loadClass (1 samples, 2.86%)</title><rect x="279.7" y="115.0" width="33.7" height="15" fill="#58e958" rx="2" ry="2"/>
<text x="282.7" y="126.0">ja..</text>
</g>
<g>
<title>jdk/internal/loader/ClassLoaders$AppClassLoader.loadClass (1 samples, 2.86%)</title><rect x="279.7" y="99.0" width="33.7" height="15" fill="#67f867" rx="2" ry="2"/>
<text x="282.7" y="110.0">jd..</text>
</g>
<g>
<title>jdk/internal/loader/BuiltinClassLoader.loadClass (1 samples, 2.86%)</title><rect x="279.7" y="83.0" width="33.7" height="15" fill="#5ff05f" rx="2" ry="2"/>
<text x="282.7" y="94.0">jd..</text>
</g>
<g>
<title>jdk/internal/loader/BuiltinClassLoader.loadClassOrNull (1 samples, 2.86%)</title><rect x="279.7" y="67.0" width="33.7" height="15" fill="#67f867" rx="2" ry="2"/>
<text x="282.7" y="78.0">jd..</text>
</g>
<g>
<title>java.lang.Object (1 samples, 2.86%)</title><rect x="279.7" y="51.0" width="33.7" height="15" fill="#5ccaca" rx="2" ry="2"/>
<text x="282.7" y="62.0">ja..</text>
</g>
<g>
<title>java/util/concurrent/ConcurrentSkipListMap.put (1 samples, 2.86%)</title><rect x="313.4" y="115.0" width="33.7" height="15" fill="#6afb6a" rx="2" ry="2"/>
<text x="316.4" y="126.0">ja..</text>
</g>
<g>
<title>java/util/concurrent/ConcurrentSkipListMap.doPut (1 samples, 2.86%)</title><rect x="313.4" y="99.0" width="33.7" height="15" fill="#58e958" rx="2" ry="2"/>
<text x="316.4" y="110.0">ja..</text>
</g>
<g>
<title>java/util/concurrent/ConcurrentSkipListMap.cpr (1 samples, 2.86%)</title><rect x="313.4" y="83.0" width="33.7" height="15" fill="#5aeb5a" rx="2" ry="2"/>
<text x="316.4" y="94.0">ja..</text>
</g>
<g>
<title>java/nio/ByteBuffer.compareTo (1 samples, 2.86%)</title><rect x="313.4" y="67.0" width="33.7" height="15" fill="#68f968" rx="2" ry="2"/>
<text x="316.4" y="78.0">ja..</text>
</g>
<g>
<title>java/nio/ByteBuffer.compareTo (1 samples, 2.86%)</title><rect x="313.4" y="51.0" width="33.7" height="15" fill="#6bfc6b" rx="2" ry="2"/>
<text x="316.4" y="62.0">ja..</text>
</g>
<g>
<title>int[] (1 samples, 2.86%)</title><rect x="313.4" y="35.0" width="33.7" height="15" fill="#52c0c0" rx="2" ry="2"/>
<text x="316.4" y="46.0">in..</text>
</g>
<g>
<title>[NIO Selector #1 tid=18715] (11 samples, 31.43%)</title><rect x="347.1" y="323.0" width="370.9" height="15" fill="#fd7f7f" rx="2" ry="2"/>
<text x="350.1" y="334.0">[NIO Selector #1 tid=18715]</text>
</g>
<g>
<title>one/nio/server/SelectorThread.run (11 samples, 31.43%)</title><rect x="347.1" y="307.0" width="370.9" height="15" fill="#5ff05f" rx="2" ry="2"/>
<text x="350.1" y="318.0">one/nio/server/SelectorThread.run</text>
</g>
<g>
<title>one/nio/net/NativeSelector.select (3 samples, 8.57%)</title><rect x="347.1" y="291.0" width="101.2" height="15" fill="#52e352" rx="2" ry="2"/>
<text x="350.1" y="302.0">one/nio/net/..</text>
</g>
<g>
<title>int[] (1 samples, 2.86%)</title><rect x="347.1" y="275.0" width="33.8" height="15" fill="#55c3c3" rx="2" ry="2"/>
<text x="350.1" y="286.0">in..</text>
</g>
<g>
<title>java/lang/ClassLoader.loadClass (2 samples, 5.71%)</title><rect x="380.9" y="275.0" width="67.4" height="15" fill="#63f463" rx="2" ry="2"/>
<text x="383.9" y="286.0">java/la..</text>
</g>
<g>
<title>jdk/internal/loader/ClassLoaders$AppClassLoader.loadClass (2 samples, 5.71%)</title><rect x="380.9" y="259.0" width="67.4" height="15" fill="#6afb6a" rx="2" ry="2"/>
<text x="383.9" y="270.0">jdk/int..</text>
</g>
<g>
<title>jdk/internal/loader/BuiltinClassLoader.loadClass (2 samples, 5.71%)</title><rect x="380.9" y="243.0" width="67.4" height="15" fill="#5aeb5a" rx="2" ry="2"/>
<text x="383.9" y="254.0">jdk/int..</text>
</g>
<g>
<title>jdk/internal/loader/BuiltinClassLoader.loadClassOrNull (2 samples, 5.71%)</title><rect x="380.9" y="227.0" width="67.4" height="15" fill="#51e251" rx="2" ry="2"/>
<text x="383.9" y="238.0">jdk/int..</text>
</g>
<g>
<title>java.lang.Object (1 samples, 2.86%)</title><rect x="380.9" y="211.0" width="33.7" height="15" fill="#50bebe" rx="2" ry="2"/>
<text x="383.9" y="222.0">ja..</text>
</g>
<g>
<title>java/lang/ClassLoader.getClassLoadingLock (1 samples, 2.86%)</title><rect x="414.6" y="211.0" width="33.7" height="15" fill="#5dee5d" rx="2" ry="2"/>
<text x="417.6" y="222.0">ja..</text>
</g>
<g>
<title>java/util/concurrent/ConcurrentHashMap.putIfAbsent (1 samples, 2.86%)</title><rect x="414.6" y="195.0" width="33.7" height="15" fill="#51e251" rx="2" ry="2"/>
<text x="417.6" y="206.0">ja..</text>
</g>
<g>
<title>java/util/concurrent/ConcurrentHashMap.putVal (1 samples, 2.86%)</title><rect x="414.6" y="179.0" width="33.7" height="15" fill="#57e857" rx="2" ry="2"/>
<text x="417.6" y="190.0">ja..</text>
</g>
<g>
<title>java.util.concurrent.ConcurrentHashMap$Node (1 samples, 2.86%)</title><rect x="414.6" y="163.0" width="33.7" height="15" fill="#6ddbdb" rx="2" ry="2"/>
<text x="417.6" y="174.0">ja..</text>
</g>
<g>
<title>one/nio/net/Session.process (8 samples, 22.86%)</title><rect x="448.3" y="291.0" width="269.7" height="15" fill="#6bfc6b" rx="2" ry="2"/>
<text x="451.3" y="302.0">one/nio/net/Session.process</text>
</g>
<g>
<title>one/nio/http/HttpSession.processRead (8 samples, 22.86%)</title><rect x="448.3" y="275.0" width="269.7" height="15" fill="#69fa69" rx="2" ry="2"/>
<text x="451.3" y="286.0">one/nio/http/HttpSession.processRead</text>
</g>
<g>
<title>one/nio/http/HttpSession.processHttpBuffer (8 samples, 22.86%)</title><rect x="448.3" y="259.0" width="269.7" height="15" fill="#57e857" rx="2" ry="2"/>
<text x="451.3" y="270.0">one/nio/http/HttpSession.processHttp..</text>
</g>
<g>
<title>one/nio/http/HttpSession.handleParsedRequest (8 samples, 22.86%)</title><rect x="448.3" y="243.0" width="269.7" height="15" fill="#60f160" rx="2" ry="2"/>
<text x="451.3" y="254.0">one/nio/http/HttpSession.handleParse..</text>
</g>
<g>
<title>one/nio/http/HttpServer.handleRequest (8 samples, 22.86%)</title><rect x="448.3" y="227.0" width="269.7" height="15" fill="#5bec5b" rx="2" ry="2"/>
<text x="451.3" y="238.0">one/nio/http/HttpServer.handleRequest</text>
</g>
<g>
<title>RequestHandler1_put.handleRequest (8 samples, 22.86%)</title><rect x="448.3" y="211.0" width="269.7" height="15" fill="#66f766" rx="2" ry="2"/>
<text x="451.3" y="222.0">RequestHandler1_put.handleRequest</text>
</g>
<g>
<title>one.nio.http.gen.RequestHandlerGenerator (2 samples, 5.71%)</title><rect x="448.3" y="195.0" width="67.4" height="15" fill="#5fcdcd" rx="2" ry="2"/>
<text x="451.3" y="206.0">one.nio..</text>
</g>
<g>
<title>one/nio/http/HttpSession.sendResponse (1 samples, 2.86%)</title><rect x="515.7" y="195.0" width="33.7" height="15" fill="#64f564" rx="2" ry="2"/>
<text x="518.7" y="206.0">on..</text>
</g>
<g>
<title>one/nio/http/HttpSession.writeResponse (1 samples, 2.86%)</title><rect x="515.7" y="179.0" width="33.7" height="15" fill="#5ff05f" rx="2" ry="2"/>
<text x="518.7" y="190.0">on..</text>
</g>
<g>
<title>one/nio/net/Session.write (1 samples, 2.86%)</title><rect x="515.7" y="163.0" width="33.7" height="15" fill="#51e251" rx="2" ry="2"/>
<text x="518.7" y="174.0">on..</text>
</g>
<g>
<title>int[] (1 samples, 2.86%)</title><rect x="515.7" y="147.0" width="33.7" height="15" fill="#5dcbcb" rx="2" ry="2"/>
<text x="518.7" y="158.0">in..</text>
</g>
<g>
<title>one/nio/http/Request.getRequiredParameter (2 samples, 5.71%)</title><rect x="549.4" y="195.0" width="67.5" height="15" fill="#6bfc6b" rx="2" ry="2"/>
<text x="552.4" y="206.0">one/nio..</text>
</g>
<g>
<title>one/nio/http/Request.getParameter (2 samples, 5.71%)</title><rect x="549.4" y="179.0" width="67.5" height="15" fill="#6bfc6b" rx="2" ry="2"/>
<text x="552.4" y="190.0">one/nio..</text>
</g>
<g>
<title>int[] (1 samples, 2.86%)</title><rect x="549.4" y="163.0" width="33.7" height="15" fill="#65d3d3" rx="2" ry="2"/>
<text x="552.4" y="174.0">in..</text>
</g>
<g>
<title>java/lang/ClassLoader.loadClass (1 samples, 2.86%)</title><rect x="583.1" y="163.0" width="33.8" height="15" fill="#58e958" rx="2" ry="2"/>
<text x="586.1" y="174.0">ja..</text>
</g>
<g>
<title>jdk/internal/loader/ClassLoaders$AppClassLoader.loadClass (1 samples, 2.86%)</title><rect x="583.1" y="147.0" width="33.8" height="15" fill="#66f766" rx="2" ry="2"/>
<text x="586.1" y="158.0">jd..</text>
</g>
<g>
<title>jdk/internal/loader/BuiltinClassLoader.loadClass (1 samples, 2.86%)</title><rect x="583.1" y="131.0" width="33.8" height="15" fill="#63f463" rx="2" ry="2"/>
<text x="586.1" y="142.0">jd..</text>
</g>
<g>
<title>jdk/internal/loader/BuiltinClassLoader.loadClassOrNull (1 samples, 2.86%)</title><rect x="583.1" y="115.0" width="33.8" height="15" fill="#5aeb5a" rx="2" ry="2"/>
<text x="586.1" y="126.0">jd..</text>
</g>
<g>
<title>java.lang.Object (1 samples, 2.86%)</title><rect x="583.1" y="99.0" width="33.8" height="15" fill="#64d2d2" rx="2" ry="2"/>
<text x="586.1" y="110.0">ja..</text>
</g>
<g>
<title>ru/mail/polis/service/bmendli/MyService.put (3 samples, 8.57%)</title><rect x="616.9" y="195.0" width="101.1" height="15" fill="#54e554" rx="2" ry="2"/>
<text x="619.9" y="206.0">ru/mail/poli..</text>
</g>
<g>
<title>java/lang/ClassLoader.loadClass (1 samples, 2.86%)</title><rect x="616.9" y="179.0" width="33.7" height="15" fill="#5dee5d" rx="2" ry="2"/>
<text x="619.9" y="190.0">ja..</text>
</g>
<g>
<title>jdk/internal/loader/ClassLoaders$AppClassLoader.loadClass (1 samples, 2.86%)</title><rect x="616.9" y="163.0" width="33.7" height="15" fill="#6afb6a" rx="2" ry="2"/>
<text x="619.9" y="174.0">jd..</text>
</g>
<g>
<title>jdk/internal/loader/BuiltinClassLoader.loadClass (1 samples, 2.86%)</title><rect x="616.9" y="147.0" width="33.7" height="15" fill="#68f968" rx="2" ry="2"/>
<text x="619.9" y="158.0">jd..</text>
</g>
<g>
<title>jdk/internal/loader/BuiltinClassLoader.loadClassOrNull (1 samples, 2.86%)</title><rect x="616.9" y="131.0" width="33.7" height="15" fill="#59ea59" rx="2" ry="2"/>
<text x="619.9" y="142.0">jd..</text>
</g>
<g>
<title>java.lang.Object (1 samples, 2.86%)</title><rect x="616.9" y="115.0" width="33.7" height="15" fill="#56c4c4" rx="2" ry="2"/>
<text x="619.9" y="126.0">ja..</text>
</g>
<g>
<title>ru/mail/polis/dao/DAO.upsert (2 samples, 5.71%)</title><rect x="650.6" y="179.0" width="67.4" height="15" fill="#6afb6a" rx="2" ry="2"/>
<text x="653.6" y="190.0">ru/mail..</text>
</g>
<g>
<title>ru/mail/polis/dao/bmendli/DAOImpl.upsert (2 samples, 5.71%)</title><rect x="650.6" y="163.0" width="67.4" height="15" fill="#5aeb5a" rx="2" ry="2"/>
<text x="653.6" y="174.0">ru/mail..</text>
</g>
<g>
<title>java/nio/HeapByteBuffer.asReadOnlyBuffer (1 samples, 2.86%)</title><rect x="650.6" y="147.0" width="33.7" height="15" fill="#64f564" rx="2" ry="2"/>
<text x="653.6" y="158.0">ja..</text>
</g>
<g>
<title>int[] (1 samples, 2.86%)</title><rect x="650.6" y="131.0" width="33.7" height="15" fill="#6cdada" rx="2" ry="2"/>
<text x="653.6" y="142.0">in..</text>
</g>
<g>
<title>ru/mail/polis/dao/bmendli/MemTablePool.upsert (1 samples, 2.86%)</title><rect x="684.3" y="147.0" width="33.7" height="15" fill="#61f261" rx="2" ry="2"/>
<text x="687.3" y="158.0">ru..</text>
</g>
<g>
<title>ru/mail/polis/dao/bmendli/MemTable.upsert (1 samples, 2.86%)</title><rect x="684.3" y="131.0" width="33.7" height="15" fill="#63f463" rx="2" ry="2"/>
<text x="687.3" y="142.0">ru..</text>
</g>
<g>
<title>java/lang/ClassLoader.loadClass (1 samples, 2.86%)</title><rect x="684.3" y="115.0" width="33.7" height="15" fill="#69fa69" rx="2" ry="2"/>
<text x="687.3" y="126.0">ja..</text>
</g>
<g>
<title>jdk/internal/loader/ClassLoaders$AppClassLoader.loadClass (1 samples, 2.86%)</title><rect x="684.3" y="99.0" width="33.7" height="15" fill="#5dee5d" rx="2" ry="2"/>
<text x="687.3" y="110.0">jd..</text>
</g>
<g>
<title>jdk/internal/loader/BuiltinClassLoader.loadClass (1 samples, 2.86%)</title><rect x="684.3" y="83.0" width="33.7" height="15" fill="#6bfc6b" rx="2" ry="2"/>
<text x="687.3" y="94.0">jd..</text>
</g>
<g>
<title>jdk/internal/loader/BuiltinClassLoader.loadClassOrNull (1 samples, 2.86%)</title><rect x="684.3" y="67.0" width="33.7" height="15" fill="#5bec5b" rx="2" ry="2"/>
<text x="687.3" y="78.0">jd..</text>
</g>
<g>
<title>java.lang.Object (1 samples, 2.86%)</title><rect x="684.3" y="51.0" width="33.7" height="15" fill="#68d6d6" rx="2" ry="2"/>
<text x="687.3" y="62.0">ja..</text>
</g>
<g>
<title>[NIO Selector #2 tid=18716] (6 samples, 17.14%)</title><rect x="718.0" y="323.0" width="202.3" height="15" fill="#f57575" rx="2" ry="2"/>
<text x="721.0" y="334.0">[NIO Selector #2 tid=18716]</text>
</g>
<g>
<title>one/nio/server/SelectorThread.run (6 samples, 17.14%)</title><rect x="718.0" y="307.0" width="202.3" height="15" fill="#6bfc6b" rx="2" ry="2"/>
<text x="721.0" y="318.0">one/nio/server/SelectorThr..</text>
</g>
<g>
<title>one/nio/net/NativeSelector.select (2 samples, 5.71%)</title><rect x="718.0" y="291.0" width="67.4" height="15" fill="#5eef5e" rx="2" ry="2"/>
<text x="721.0" y="302.0">one/nio..</text>
</g>
<g>
<title>int[] (1 samples, 2.86%)</title><rect x="718.0" y="275.0" width="33.7" height="15" fill="#56c4c4" rx="2" ry="2"/>
<text x="721.0" y="286.0">in..</text>
</g>
<g>
<title>java/lang/ClassLoader.loadClass (1 samples, 2.86%)</title><rect x="751.7" y="275.0" width="33.7" height="15" fill="#6cfd6c" rx="2" ry="2"/>
<text x="754.7" y="286.0">ja..</text>
</g>
<g>
<title>jdk/internal/loader/ClassLoaders$AppClassLoader.loadClass (1 samples, 2.86%)</title><rect x="751.7" y="259.0" width="33.7" height="15" fill="#6bfc6b" rx="2" ry="2"/>
<text x="754.7" y="270.0">jd..</text>
</g>
<g>
<title>jdk/internal/loader/BuiltinClassLoader.loadClass (1 samples, 2.86%)</title><rect x="751.7" y="243.0" width="33.7" height="15" fill="#54e554" rx="2" ry="2"/>
<text x="754.7" y="254.0">jd..</text>
</g>
<g>
<title>jdk/internal/loader/BuiltinClassLoader.loadClassOrNull (1 samples, 2.86%)</title><rect x="751.7" y="227.0" width="33.7" height="15" fill="#6afb6a" rx="2" ry="2"/>
<text x="754.7" y="238.0">jd..</text>
</g>
<g>
<title>java.lang.Object (1 samples, 2.86%)</title><rect x="751.7" y="211.0" width="33.7" height="15" fill="#63d1d1" rx="2" ry="2"/>
<text x="754.7" y="222.0">ja..</text>
</g>
<g>
<title>one/nio/net/Session.process (4 samples, 11.43%)</title><rect x="785.4" y="291.0" width="134.9" height="15" fill="#5ced5c" rx="2" ry="2"/>
<text x="788.4" y="302.0">one/nio/net/Sessi..</text>
</g>
<g>
<title>one/nio/http/HttpSession.processRead (4 samples, 11.43%)</title><rect x="785.4" y="275.0" width="134.9" height="15" fill="#62f362" rx="2" ry="2"/>
<text x="788.4" y="286.0">one/nio/http/Http..</text>
</g>
<g>
<title>one/nio/http/HttpSession.processHttpBuffer (4 samples, 11.43%)</title><rect x="785.4" y="259.0" width="134.9" height="15" fill="#58e958" rx="2" ry="2"/>
<text x="788.4" y="270.0">one/nio/http/Http..</text>
</g>
<g>
<title>one/nio/http/HttpSession.handleParsedRequest (4 samples, 11.43%)</title><rect x="785.4" y="243.0" width="134.9" height="15" fill="#67f867" rx="2" ry="2"/>
<text x="788.4" y="254.0">one/nio/http/Http..</text>
</g>
<g>
<title>one/nio/http/HttpServer.handleRequest (4 samples, 11.43%)</title><rect x="785.4" y="227.0" width="134.9" height="15" fill="#59ea59" rx="2" ry="2"/>
<text x="788.4" y="238.0">one/nio/http/Http..</text>
</g>
<g>
<title>RequestHandler1_put.handleRequest (4 samples, 11.43%)</title><rect x="785.4" y="211.0" width="134.9" height="15" fill="#5dee5d" rx="2" ry="2"/>
<text x="788.4" y="222.0">RequestHandler1_p..</text>
</g>
<g>
<title>one/nio/http/HttpSession.sendResponse (1 samples, 2.86%)</title><rect x="785.4" y="195.0" width="33.7" height="15" fill="#56e756" rx="2" ry="2"/>
<text x="788.4" y="206.0">on..</text>
</g>
<g>
<title>one/nio/http/HttpSession.writeResponse (1 samples, 2.86%)</title><rect x="785.4" y="179.0" width="33.7" height="15" fill="#55e655" rx="2" ry="2"/>
<text x="788.4" y="190.0">on..</text>
</g>
<g>
<title>one/nio/net/Session.write (1 samples, 2.86%)</title><rect x="785.4" y="163.0" width="33.7" height="15" fill="#58e958" rx="2" ry="2"/>
<text x="788.4" y="174.0">on..</text>
</g>
<g>
<title>int[] (1 samples, 2.86%)</title><rect x="785.4" y="147.0" width="33.7" height="15" fill="#60cece" rx="2" ry="2"/>
<text x="788.4" y="158.0">in..</text>
</g>
<g>
<title>one/nio/http/Request.getRequiredParameter (1 samples, 2.86%)</title><rect x="819.1" y="195.0" width="33.8" height="15" fill="#5ced5c" rx="2" ry="2"/>
<text x="822.1" y="206.0">on..</text>
</g>
<g>
<title>one/nio/http/Request.getParameter (1 samples, 2.86%)</title><rect x="819.1" y="179.0" width="33.8" height="15" fill="#55e655" rx="2" ry="2"/>
<text x="822.1" y="190.0">on..</text>
</g>
<g>
<title>one/nio/util/URLEncoder.&lt;clinit&gt; (1 samples, 2.86%)</title><rect x="819.1" y="163.0" width="33.8" height="15" fill="#6bfc6b" rx="2" ry="2"/>
<text x="822.1" y="174.0">on..</text>
</g>
<g>
<title>int[] (1 samples, 2.86%)</title><rect x="819.1" y="147.0" width="33.8" height="15" fill="#53c1c1" rx="2" ry="2"/>
<text x="822.1" y="158.0">in..</text>
</g>
<g>
<title>ru/mail/polis/service/bmendli/MyService.put (2 samples, 5.71%)</title><rect x="852.9" y="195.0" width="67.4" height="15" fill="#53e453" rx="2" ry="2"/>
<text x="855.9" y="206.0">ru/mail..</text>
</g>
<g>
<title>ru/mail/polis/dao/DAO.upsert (2 samples, 5.71%)</title><rect x="852.9" y="179.0" width="67.4" height="15" fill="#5eef5e" rx="2" ry="2"/>
<text x="855.9" y="190.0">ru/mail..</text>
</g>
<g>
<title>ru/mail/polis/dao/bmendli/DAOImpl.upsert (2 samples, 5.71%)</title><rect x="852.9" y="163.0" width="67.4" height="15" fill="#66f766" rx="2" ry="2"/>
<text x="855.9" y="174.0">ru/mail..</text>
</g>
<g>
<title>java/nio/HeapByteBuffer.asReadOnlyBuffer (2 samples, 5.71%)</title><rect x="852.9" y="147.0" width="67.4" height="15" fill="#6dfe6d" rx="2" ry="2"/>
<text x="855.9" y="158.0">java/ni..</text>
</g>
<g>
<title>java/nio/HeapByteBufferR.&lt;clinit&gt; (2 samples, 5.71%)</title><rect x="852.9" y="131.0" width="67.4" height="15" fill="#6cfd6c" rx="2" ry="2"/>
<text x="855.9" y="142.0">java/ni..</text>
</g>
<g>
<title>int[] (2 samples, 5.71%)</title><rect x="852.9" y="115.0" width="67.4" height="15" fill="#64d2d2" rx="2" ry="2"/>
<text x="855.9" y="126.0">int[]</text>
</g>
<g>
<title>[NIO Selector #3 tid=18717] (8 samples, 22.86%)</title><rect x="920.3" y="323.0" width="269.7" height="15" fill="#ec6969" rx="2" ry="2"/>
<text x="923.3" y="334.0">[NIO Selector #3 tid=18717]</text>
</g>
<g>
<title>one/nio/server/SelectorThread.run (8 samples, 22.86%)</title><rect x="920.3" y="307.0" width="269.7" height="15" fill="#66f766" rx="2" ry="2"/>
<text x="923.3" y="318.0">one/nio/server/SelectorThread.run</text>
</g>
<g>
<title>one/nio/net/Session.process (8 samples, 22.86%)</title><rect x="920.3" y="291.0" width="269.7" height="15" fill="#5bec5b" rx="2" ry="2"/>
<text x="923.3" y="302.0">one/nio/net/Session.process</text>
</g>
<g>
<title>one/nio/http/HttpSession.processRead (8 samples, 22.86%)</title><rect x="920.3" y="275.0" width="269.7" height="15" fill="#58e958" rx="2" ry="2"/>
<text x="923.3" y="286.0">one/nio/http/HttpSession.processRead</text>
</g>
<g>
<title>one/nio/http/HttpSession.processHttpBuffer (8 samples, 22.86%)</title><rect x="920.3" y="259.0" width="269.7" height="15" fill="#56e756" rx="2" ry="2"/>
<text x="923.3" y="270.0">one/nio/http/HttpSession.processHttp..</text>
</g>
<g>
<title>one/nio/http/HttpSession.handleParsedRequest (8 samples, 22.86%)</title><rect x="920.3" y="243.0" width="269.7" height="15" fill="#61f261" rx="2" ry="2"/>
<text x="923.3" y="254.0">one/nio/http/HttpSession.handleParse..</text>
</g>
<g>
<title>one/nio/http/HttpServer.handleRequest (8 samples, 22.86%)</title><rect x="920.3" y="227.0" width="269.7" height="15" fill="#57e857" rx="2" ry="2"/>
<text x="923.3" y="238.0">one/nio/http/HttpServer.handleRequest</text>
</g>
<g>
<title>RequestHandler1_put.handleRequest (8 samples, 22.86%)</title><rect x="920.3" y="211.0" width="269.7" height="15" fill="#54e554" rx="2" ry="2"/>
<text x="923.3" y="222.0">RequestHandler1_put.handleRequest</text>
</g>
<g>
<title>one.nio.http.gen.RequestHandlerGenerator (1 samples, 2.86%)</title><rect x="920.3" y="195.0" width="33.7" height="15" fill="#65d3d3" rx="2" ry="2"/>
<text x="923.3" y="206.0">on..</text>
</g>
<g>
<title>one/nio/http/HttpSession.sendResponse (1 samples, 2.86%)</title><rect x="954.0" y="195.0" width="33.7" height="15" fill="#53e453" rx="2" ry="2"/>
<text x="957.0" y="206.0">on..</text>
</g>
<g>
<title>one/nio/http/HttpSession.writeResponse (1 samples, 2.86%)</title><rect x="954.0" y="179.0" width="33.7" height="15" fill="#67f867" rx="2" ry="2"/>
<text x="957.0" y="190.0">on..</text>
</g>
<g>
<title>one/nio/net/Session.write (1 samples, 2.86%)</title><rect x="954.0" y="163.0" width="33.7" height="15" fill="#54e554" rx="2" ry="2"/>
<text x="957.0" y="174.0">on..</text>
</g>
<g>
<title>int[] (1 samples, 2.86%)</title><rect x="954.0" y="147.0" width="33.7" height="15" fill="#66d4d4" rx="2" ry="2"/>
<text x="957.0" y="158.0">in..</text>
</g>
<g>
<title>one/nio/http/Request.getRequiredParameter (2 samples, 5.71%)</title><rect x="987.7" y="195.0" width="67.4" height="15" fill="#52e352" rx="2" ry="2"/>
<text x="990.7" y="206.0">one/nio..</text>
</g>
<g>
<title>one/nio/http/Request.getParameter (2 samples, 5.71%)</title><rect x="987.7" y="179.0" width="67.4" height="15" fill="#6cfd6c" rx="2" ry="2"/>
<text x="990.7" y="190.0">one/nio..</text>
</g>
<g>
<title>int[] (1 samples, 2.86%)</title><rect x="987.7" y="163.0" width="33.7" height="15" fill="#51bfbf" rx="2" ry="2"/>
<text x="990.7" y="174.0">in..</text>
</g>
<g>
<title>java/lang/ClassLoader.loadClass (1 samples, 2.86%)</title><rect x="1021.4" y="163.0" width="33.7" height="15" fill="#5ff05f" rx="2" ry="2"/>
<text x="1024.4" y="174.0">ja..</text>
</g>
<g>
<title>jdk/internal/loader/ClassLoaders$AppClassLoader.loadClass (1 samples, 2.86%)</title><rect x="1021.4" y="147.0" width="33.7" height="15" fill="#55e655" rx="2" ry="2"/>
<text x="1024.4" y="158.0">jd..</text>
</g>
<g>
<title>jdk/internal/loader/BuiltinClassLoader.loadClass (1 samples, 2.86%)</title><rect x="1021.4" y="131.0" width="33.7" height="15" fill="#57e857" rx="2" ry="2"/>
<text x="1024.4" y="142.0">jd..</text>
</g>
<g>
<title>jdk/internal/loader/BuiltinClassLoader.loadClassOrNull (1 samples, 2.86%)</title><rect x="1021.4" y="115.0" width="33.7" height="15" fill="#67f867" rx="2" ry="2"/>
<text x="1024.4" y="126.0">jd..</text>
</g>
<g>
<title>java.lang.Object (1 samples, 2.86%)</title><rect x="1021.4" y="99.0" width="33.7" height="15" fill="#65d3d3" rx="2" ry="2"/>
<text x="1024.4" y="110.0">ja..</text>
</g>
<g>
<title>ru/mail/polis/service/bmendli/MyService.put (4 samples, 11.43%)</title><rect x="1055.1" y="195.0" width="134.9" height="15" fill="#63f463" rx="2" ry="2"/>
<text x="1058.1" y="206.0">ru/mail/polis/ser..</text>
</g>
<g>
<title>java/lang/ClassLoader.loadClass (1 samples, 2.86%)</title><rect x="1055.1" y="179.0" width="33.8" height="15" fill="#6dfe6d" rx="2" ry="2"/>
<text x="1058.1" y="190.0">ja..</text>
</g>
<g>
<title>jdk/internal/loader/ClassLoaders$AppClassLoader.loadClass (1 samples, 2.86%)</title><rect x="1055.1" y="163.0" width="33.8" height="15" fill="#63f463" rx="2" ry="2"/>
<text x="1058.1" y="174.0">jd..</text>
</g>
<g>
<title>jdk/internal/loader/BuiltinClassLoader.loadClass (1 samples, 2.86%)</title><rect x="1055.1" y="147.0" width="33.8" height="15" fill="#66f766" rx="2" ry="2"/>
<text x="1058.1" y="158.0">jd..</text>
</g>
<g>
<title>jdk/internal/loader/BuiltinClassLoader.loadClassOrNull (1 samples, 2.86%)</title><rect x="1055.1" y="131.0" width="33.8" height="15" fill="#52e352" rx="2" ry="2"/>
<text x="1058.1" y="142.0">jd..</text>
</g>
<g>
<title>java.lang.Object (1 samples, 2.86%)</title><rect x="1055.1" y="115.0" width="33.8" height="15" fill="#54c2c2" rx="2" ry="2"/>
<text x="1058.1" y="126.0">ja..</text>
</g>
<g>
<title>ru/mail/polis/dao/DAO.upsert (3 samples, 8.57%)</title><rect x="1088.9" y="179.0" width="101.1" height="15" fill="#5ff05f" rx="2" ry="2"/>
<text x="1091.9" y="190.0">ru/mail/poli..</text>
</g>
<g>
<title>ru/mail/polis/dao/bmendli/DAOImpl.upsert (3 samples, 8.57%)</title><rect x="1088.9" y="163.0" width="101.1" height="15" fill="#52e352" rx="2" ry="2"/>
<text x="1091.9" y="174.0">ru/mail/poli..</text>
</g>
<g>
<title>java/nio/HeapByteBuffer.asReadOnlyBuffer (2 samples, 5.71%)</title><rect x="1088.9" y="147.0" width="67.4" height="15" fill="#52e352" rx="2" ry="2"/>
<text x="1091.9" y="158.0">java/ni..</text>
</g>
<g>
<title>int[] (2 samples, 5.71%)</title><rect x="1088.9" y="131.0" width="67.4" height="15" fill="#56c4c4" rx="2" ry="2"/>
<text x="1091.9" y="142.0">int[]</text>
</g>
<g>
<title>ru/mail/polis/dao/bmendli/MemTablePool.upsert (1 samples, 2.86%)</title><rect x="1156.3" y="147.0" width="33.7" height="15" fill="#5dee5d" rx="2" ry="2"/>
<text x="1159.3" y="158.0">ru..</text>
</g>
<g>
<title>ru/mail/polis/dao/bmendli/MemTable.upsert (1 samples, 2.86%)</title><rect x="1156.3" y="131.0" width="33.7" height="15" fill="#68f968" rx="2" ry="2"/>
<text x="1159.3" y="142.0">ru..</text>
</g>
<g>
<title>java/lang/ClassLoader.loadClass (1 samples, 2.86%)</title><rect x="1156.3" y="115.0" width="33.7" height="15" fill="#61f261" rx="2" ry="2"/>
<text x="1159.3" y="126.0">ja..</text>
</g>
<g>
<title>jdk/internal/loader/ClassLoaders$AppClassLoader.loadClass (1 samples, 2.86%)</title><rect x="1156.3" y="99.0" width="33.7" height="15" fill="#66f766" rx="2" ry="2"/>
<text x="1159.3" y="110.0">jd..</text>
</g>
<g>
<title>jdk/internal/loader/BuiltinClassLoader.loadClass (1 samples, 2.86%)</title><rect x="1156.3" y="83.0" width="33.7" height="15" fill="#51e251" rx="2" ry="2"/>
<text x="1159.3" y="94.0">jd..</text>
</g>
<g>
<title>jdk/internal/loader/BuiltinClassLoader.loadClassOrNull (1 samples, 2.86%)</title><rect x="1156.3" y="67.0" width="33.7" height="15" fill="#54e554" rx="2" ry="2"/>
<text x="1159.3" y="78.0">jd..</text>
</g>
<g>
<title>java.lang.Object (1 samples, 2.86%)</title><rect x="1156.3" y="51.0" width="33.7" height="15" fill="#6ddbdb" rx="2" ry="2"/>
<text x="1159.3" y="62.0">ja..</text>
</g>
</g>
</svg>
