<?xml version="1.0" standalone="no"?>
<!DOCTYPE svg PUBLIC "-//W3C//DTD SVG 1.1//EN" "http://www.w3.org/Graphics/SVG/1.1/DTD/svg11.dtd">
<svg version="1.1" width="1200" height="438" onload="init(evt)" viewBox="0 0 1200 438" xmlns="http://www.w3.org/2000/svg" xmlns:xlink="http://www.w3.org/1999/xlink">
<style type="text/css">
	text { font-family:Verdana; font-size:12px; fill:rgb(0,0,0); }
	#search { opacity:0.1; cursor:pointer; }
	#search:hover, #search.show { opacity:1; }
	#subtitle { text-anchor:middle; font-color:rgb(160,160,160); }
	#title { text-anchor:middle; font-size:17px}
	#unzoom { cursor:pointer; }
	#frames > *:hover { stroke:black; stroke-width:0.5; cursor:pointer; }
	.hide { display:none; }
	.parent { opacity:0.5; }
</style>
<script type="text/ecmascript">
<![CDATA[
	"use strict";
	var details, searchbtn, unzoombtn, matchedtxt, svg, searching;
	function init(evt) {
		details = document.getElementById("details").firstChild;
		searchbtn = document.getElementById("search");
		unzoombtn = document.getElementById("unzoom");
		matchedtxt = document.getElementById("matched");
		svg = document.getElementsByTagName("svg")[0];
		searching = 0;
	}

	window.addEventListener("click", function(e) {
		var target = find_group(e.target);
		if (target) {
			if (target.nodeName == "a") {
				if (e.ctrlKey === false) return;
				e.preventDefault();
			}
			if (target.classList.contains("parent")) unzoom();
			zoom(target);
		}
		else if (e.target.id == "unzoom") unzoom();
		else if (e.target.id == "search") search_prompt();
	}, false)

	// mouse-over for info
	// show
	window.addEventListener("mouseover", function(e) {
		var target = find_group(e.target);
		if (target) details.nodeValue = "Function: " + g_to_text(target);
	}, false)

	// clear
	window.addEventListener("mouseout", function(e) {
		var target = find_group(e.target);
		if (target) details.nodeValue = ' ';
	}, false)

	// ctrl-F for search
	window.addEventListener("keydown",function (e) {
		if (e.keyCode === 114 || (e.ctrlKey && e.keyCode === 70)) {
			e.preventDefault();
			search_prompt();
		}
	}, false)

	// functions
	function find_child(node, selector) {
		var children = node.querySelectorAll(selector);
		if (children.length) return children[0];
		return;
	}
	function find_group(node) {
		var parent = node.parentElement;
		if (!parent) return;
		if (parent.id == "frames") return node;
		return find_group(parent);
	}
	function orig_save(e, attr, val) {
		if (e.attributes["_orig_" + attr] != undefined) return;
		if (e.attributes[attr] == undefined) return;
		if (val == undefined) val = e.attributes[attr].value;
		e.setAttribute("_orig_" + attr, val);
	}
	function orig_load(e, attr) {
		if (e.attributes["_orig_"+attr] == undefined) return;
		e.attributes[attr].value = e.attributes["_orig_" + attr].value;
		e.removeAttribute("_orig_"+attr);
	}
	function g_to_text(e) {
		var text = find_child(e, "title").firstChild.nodeValue;
		return (text)
	}
	function g_to_func(e) {
		var func = g_to_text(e);
		// if there's any manipulation we want to do to the function
		// name before it's searched, do it here before returning.
		return (func);
	}
	function update_text(e) {
		var r = find_child(e, "rect");
		var t = find_child(e, "text");
		var w = parseFloat(r.attributes.width.value) -3;
		var txt = find_child(e, "title").textContent.replace(/\([^(]*\)$/,"");
		t.attributes.x.value = parseFloat(r.attributes.x.value) + 3;

		// Smaller than this size won't fit anything
		if (w < 2 * 12 * 0.59) {
			t.textContent = "";
			return;
		}

		t.textContent = txt;
		// Fit in full text width
		if (/^ *$/.test(txt) || t.getSubStringLength(0, txt.length) < w)
			return;

		for (var x = txt.length - 2; x > 0; x--) {
			if (t.getSubStringLength(0, x + 2) <= w) {
				t.textContent = txt.substring(0, x) + "..";
				return;
			}
		}
		t.textContent = "";
	}

	// zoom
	function zoom_reset(e) {
		if (e.attributes != undefined) {
			orig_load(e, "x");
			orig_load(e, "width");
		}
		if (e.childNodes == undefined) return;
		for (var i = 0, c = e.childNodes; i < c.length; i++) {
			zoom_reset(c[i]);
		}
	}
	function zoom_child(e, x, ratio) {
		if (e.attributes != undefined) {
			if (e.attributes.x != undefined) {
				orig_save(e, "x");
				e.attributes.x.value = (parseFloat(e.attributes.x.value) - x - 10) * ratio + 10;
				if (e.tagName == "text")
					e.attributes.x.value = find_child(e.parentNode, "rect[x]").attributes.x.value + 3;
			}
			if (e.attributes.width != undefined) {
				orig_save(e, "width");
				e.attributes.width.value = parseFloat(e.attributes.width.value) * ratio;
			}
		}

		if (e.childNodes == undefined) return;
		for (var i = 0, c = e.childNodes; i < c.length; i++) {
			zoom_child(c[i], x - 10, ratio);
		}
	}
	function zoom_parent(e) {
		if (e.attributes) {
			if (e.attributes.x != undefined) {
				orig_save(e, "x");
				e.attributes.x.value = 10;
			}
			if (e.attributes.width != undefined) {
				orig_save(e, "width");
				e.attributes.width.value = parseInt(svg.width.baseVal.value) - (10 * 2);
			}
		}
		if (e.childNodes == undefined) return;
		for (var i = 0, c = e.childNodes; i < c.length; i++) {
			zoom_parent(c[i]);
		}
	}
	function zoom(node) {
		var attr = find_child(node, "rect").attributes;
		var width = parseFloat(attr.width.value);
		var xmin = parseFloat(attr.x.value);
		var xmax = parseFloat(xmin + width);
		var ymin = parseFloat(attr.y.value);
		var ratio = (svg.width.baseVal.value - 2 * 10) / width;

		// XXX: Workaround for JavaScript float issues (fix me)
		var fudge = 0.0001;

		unzoombtn.classList.remove("hide");

		var el = document.getElementById("frames").children;
		for (var i = 0; i < el.length; i++) {
			var e = el[i];
			var a = find_child(e, "rect").attributes;
			var ex = parseFloat(a.x.value);
			var ew = parseFloat(a.width.value);
			var upstack;
			// Is it an ancestor
			if (0 == 0) {
				upstack = parseFloat(a.y.value) > ymin;
			} else {
				upstack = parseFloat(a.y.value) < ymin;
			}
			if (upstack) {
				// Direct ancestor
				if (ex <= xmin && (ex+ew+fudge) >= xmax) {
					e.classList.add("parent");
					zoom_parent(e);
					update_text(e);
				}
				// not in current path
				else
					e.classList.add("hide");
			}
			// Children maybe
			else {
				// no common path
				if (ex < xmin || ex + fudge >= xmax) {
					e.classList.add("hide");
				}
				else {
					zoom_child(e, xmin, ratio);
					update_text(e);
				}
			}
		}
	}
	function unzoom() {
		unzoombtn.classList.add("hide");
		var el = document.getElementById("frames").children;
		for(var i = 0; i < el.length; i++) {
			el[i].classList.remove("parent");
			el[i].classList.remove("hide");
			zoom_reset(el[i]);
			update_text(el[i]);
		}
	}

	// search
	function reset_search() {
		var el = document.querySelectorAll("#frames rect");
		for (var i = 0; i < el.length; i++) {
			orig_load(el[i], "fill")
		}
	}
	function search_prompt() {
		if (!searching) {
			var term = prompt("Enter a search term (regexp " +
			    "allowed, eg: ^ext4_)", "");
			if (term != null) {
				search(term)
			}
		} else {
			reset_search();
			searching = 0;
			searchbtn.classList.remove("show");
			searchbtn.firstChild.nodeValue = "Search"
			matchedtxt.classList.add("hide");
			matchedtxt.firstChild.nodeValue = ""
		}
	}
	function search(term) {
		var re = new RegExp(term);
		var el = document.getElementById("frames").children;
		var matches = new Object();
		var maxwidth = 0;
		for (var i = 0; i < el.length; i++) {
			var e = el[i];
			var func = g_to_func(e);
			var rect = find_child(e, "rect");
			if (func == null || rect == null)
				continue;

			// Save max width. Only works as we have a root frame
			var w = parseFloat(rect.attributes.width.value);
			if (w > maxwidth)
				maxwidth = w;

			if (func.match(re)) {
				// highlight
				var x = parseFloat(rect.attributes.x.value);
				orig_save(rect, "fill");
				rect.attributes.fill.value = "rgb(230,0,230)";

				// remember matches
				if (matches[x] == undefined) {
					matches[x] = w;
				} else {
					if (w > matches[x]) {
						// overwrite with parent
						matches[x] = w;
					}
				}
				searching = 1;
			}
		}
		if (!searching)
			return;

		searchbtn.classList.add("show");
		searchbtn.firstChild.nodeValue = "Reset Search";

		// calculate percent matched, excluding vertical overlap
		var count = 0;
		var lastx = -1;
		var lastw = 0;
		var keys = Array();
		for (k in matches) {
			if (matches.hasOwnProperty(k))
				keys.push(k);
		}
		// sort the matched frames by their x location
		// ascending, then width descending
		keys.sort(function(a, b){
			return a - b;
		});
		// Step through frames saving only the biggest bottom-up frames
		// thanks to the sort order. This relies on the tree property
		// where children are always smaller than their parents.
		var fudge = 0.0001;	// JavaScript floating point
		for (var k in keys) {
			var x = parseFloat(keys[k]);
			var w = matches[keys[k]];
			if (x >= lastx + lastw - fudge) {
				count += w;
				lastx = x;
				lastw = w;
			}
		}
		// display matched percent
		matchedtxt.classList.remove("hide");
		var pct = 100 * count / maxwidth;
		if (pct != 100) pct = pct.toFixed(1)
		matchedtxt.firstChild.nodeValue = "Matched: " + pct + "%";
	}
]]>
</script>
<rect x="0" y="0" width="100%" height="100%" fill="rgb(240,240,220)"/>
<text id="title" x="600" y="24">Flame Graph</text>
<text id="details" x="10" y="421"> </text>
<text id="unzoom" x="10" y="24" class="hide">Reset Zoom</text>
<text id="search" x="1090" y="24">Search</text>
<text id="matched" x="1090" y="421"> </text>
<g id="frames">
<g>
<title>all (1,074 samples, 100.00%)</title><rect x="10.0" y="387.0" width="1180.0" height="15" fill="#fc7e7e" rx="2" ry="2"/>
<text x="13.0" y="398.0">all</text>
</g>
<g>
<title>one/nio/server/SelectorThread.run (1,074 samples, 100.00%)</title><rect x="10.0" y="371.0" width="1180.0" height="15" fill="#53e453" rx="2" ry="2"/>
<text x="13.0" y="382.0">one/nio/server/SelectorThread.run</text>
</g>
<g>
<title>one/nio/net/NativeSelector.select (42 samples, 3.91%)</title><rect x="10.0" y="355.0" width="46.1" height="15" fill="#64f564" rx="2" ry="2"/>
<text x="13.0" y="366.0">one/..</text>
</g>
<g>
<title>one.nio.net.NativeSelector$2 (42 samples, 3.91%)</title><rect x="10.0" y="339.0" width="46.1" height="15" fill="#55c3c3" rx="2" ry="2"/>
<text x="13.0" y="350.0">one...</text>
</g>
<g>
<title>one/nio/net/Session.process (1,032 samples, 96.09%)</title><rect x="56.1" y="355.0" width="1133.9" height="15" fill="#59ea59" rx="2" ry="2"/>
<text x="59.1" y="366.0">one/nio/net/Session.process</text>
</g>
<g>
<title>one/nio/http/HttpSession.processRead (1,032 samples, 96.09%)</title><rect x="56.1" y="339.0" width="1133.9" height="15" fill="#6cfd6c" rx="2" ry="2"/>
<text x="59.1" y="350.0">one/nio/http/HttpSession.processRead</text>
</g>
<g>
<title>one/nio/http/HttpSession.processHttpBuffer (1,032 samples, 96.09%)</title><rect x="56.1" y="323.0" width="1133.9" height="15" fill="#67f867" rx="2" ry="2"/>
<text x="59.1" y="334.0">one/nio/http/HttpSession.processHttpBuffer</text>
</g>
<g>
<title>one/nio/http/HttpSession.handleParsedRequest (601 samples, 55.96%)</title><rect x="56.1" y="307.0" width="660.4" height="15" fill="#52e352" rx="2" ry="2"/>
<text x="59.1" y="318.0">one/nio/http/HttpSession.handleParsedRequest</text>
</g>
<g>
<title>one/nio/http/HttpServer.handleRequest (601 samples, 55.96%)</title><rect x="56.1" y="291.0" width="660.4" height="15" fill="#51e251" rx="2" ry="2"/>
<text x="59.1" y="302.0">one/nio/http/HttpServer.handleRequest</text>
</g>
<g>
<title>RequestHandler1_putEntity.handleRequest (557 samples, 51.86%)</title><rect x="56.1" y="275.0" width="612.0" height="15" fill="#5aeb5a" rx="2" ry="2"/>
<text x="59.1" y="286.0">RequestHandler1_putEntity.handleRequest</text>
</g>
<g>
<title>one/nio/http/HttpSession.sendResponse (48 samples, 4.47%)</title><rect x="56.1" y="259.0" width="52.8" height="15" fill="#60f160" rx="2" ry="2"/>
<text x="59.1" y="270.0">one/n..</text>
</g>
<g>
<title>one/nio/http/HttpSession.writeResponse (48 samples, 4.47%)</title><rect x="56.1" y="243.0" width="52.8" height="15" fill="#59ea59" rx="2" ry="2"/>
<text x="59.1" y="254.0">one/n..</text>
</g>
<g>
<title>one/nio/http/Response.toBytes (45 samples, 4.19%)</title><rect x="56.1" y="227.0" width="49.5" height="15" fill="#5eef5e" rx="2" ry="2"/>
<text x="59.1" y="238.0">one/n..</text>
</g>
<g>
<title>one/nio/util/ByteArrayBuilder.&lt;init&gt; (45 samples, 4.19%)</title><rect x="56.1" y="211.0" width="49.5" height="15" fill="#5ced5c" rx="2" ry="2"/>
<text x="59.1" y="222.0">one/n..</text>
</g>
<g>
<title>byte[] (45 samples, 4.19%)</title><rect x="56.1" y="195.0" width="49.5" height="15" fill="#65d3d3" rx="2" ry="2"/>
<text x="59.1" y="206.0">byte[]</text>
</g>
<g>
<title>one/nio/net/Session.write (3 samples, 0.28%)</title><rect x="105.6" y="227.0" width="3.3" height="15" fill="#50e150" rx="2" ry="2"/>
<text x="108.6" y="238.0"></text>
</g>
<g>
<title>one.nio.net.Session$ArrayQueueItem (3 samples, 0.28%)</title><rect x="105.6" y="211.0" width="3.3" height="15" fill="#50bebe" rx="2" ry="2"/>
<text x="108.6" y="222.0"></text>
</g>
<g>
<title>one/nio/http/Request.getRequiredParameter (42 samples, 3.91%)</title><rect x="108.9" y="259.0" width="46.1" height="15" fill="#56e756" rx="2" ry="2"/>
<text x="111.9" y="270.0">one/..</text>
</g>
<g>
<title>one/nio/http/Request.getParameter (42 samples, 3.91%)</title><rect x="108.9" y="243.0" width="46.1" height="15" fill="#69fa69" rx="2" ry="2"/>
<text x="111.9" y="254.0">one/..</text>
</g>
<g>
<title>java/lang/String.substring (42 samples, 3.91%)</title><rect x="108.9" y="227.0" width="46.1" height="15" fill="#54e554" rx="2" ry="2"/>
<text x="111.9" y="238.0">java..</text>
</g>
<g>
<title>java/lang/StringLatin1.newString (42 samples, 3.91%)</title><rect x="108.9" y="211.0" width="46.1" height="15" fill="#69fa69" rx="2" ry="2"/>
<text x="111.9" y="222.0">java..</text>
</g>
<g>
<title>java/util/Arrays.copyOfRange (42 samples, 3.91%)</title><rect x="108.9" y="195.0" width="46.1" height="15" fill="#66f766" rx="2" ry="2"/>
<text x="111.9" y="206.0">java..</text>
</g>
<g>
<title>byte[] (42 samples, 3.91%)</title><rect x="108.9" y="179.0" width="46.1" height="15" fill="#64d2d2" rx="2" ry="2"/>
<text x="111.9" y="190.0">byte[]</text>
</g>
<g>
<title>ru/mail/polis/service/nik27090/ServiceImpl.putEntity (467 samples, 43.48%)</title><rect x="155.0" y="259.0" width="513.1" height="15" fill="#5ced5c" rx="2" ry="2"/>
<text x="158.0" y="270.0">ru/mail/polis/service/nik27090/ServiceImpl.putEntity</text>
</g>
<g>
<title>one.nio.http.Response (5 samples, 0.47%)</title><rect x="155.0" y="243.0" width="5.5" height="15" fill="#5fcdcd" rx="2" ry="2"/>
<text x="158.0" y="254.0"></text>
</g>
<g>
<title>one/nio/http/Response.&lt;init&gt; (84 samples, 7.82%)</title><rect x="160.5" y="243.0" width="92.3" height="15" fill="#5bec5b" rx="2" ry="2"/>
<text x="163.5" y="254.0">one/nio/htt..</text>
</g>
<g>
<title>byte[] (42 samples, 3.91%)</title><rect x="160.5" y="227.0" width="46.2" height="15" fill="#61cfcf" rx="2" ry="2"/>
<text x="163.5" y="238.0">byte[]</text>
</g>
<g>
<title>java.lang.String[] (1 samples, 0.09%)</title><rect x="206.7" y="227.0" width="1.1" height="15" fill="#67d5d5" rx="2" ry="2"/>
<text x="209.7" y="238.0"></text>
</g>
<g>
<title>java.lang.String (41 samples, 3.82%)</title><rect x="207.8" y="227.0" width="45.0" height="15" fill="#68d6d6" rx="2" ry="2"/>
<text x="210.8" y="238.0">java..</text>
</g>
<g>
<title>ru/mail/polis/dao/nik27090/DAOImpl.upsert (378 samples, 35.20%)</title><rect x="252.8" y="243.0" width="415.3" height="15" fill="#5ced5c" rx="2" ry="2"/>
<text x="255.8" y="254.0">ru/mail/polis/dao/nik27090/DAOImpl.upsert</text>
</g>
<g>
<title>java/nio/HeapByteBuffer.duplicate (87 samples, 8.10%)</title><rect x="252.8" y="227.0" width="95.6" height="15" fill="#59ea59" rx="2" ry="2"/>
<text x="255.8" y="238.0">java/nio/He..</text>
</g>
<g>
<title>java.nio.HeapByteBuffer (87 samples, 8.10%)</title><rect x="252.8" y="211.0" width="95.6" height="15" fill="#66d4d4" rx="2" ry="2"/>
<text x="255.8" y="222.0">java.nio.He..</text>
</g>
<g>
<title>ru/mail/polis/dao/nik27090/DAOImpl.flush (162 samples, 15.08%)</title><rect x="348.4" y="227.0" width="178.0" height="15" fill="#5ff05f" rx="2" ry="2"/>
<text x="351.4" y="238.0">ru/mail/polis/dao/nik27..</text>
</g>
<g>
<title>ru/mail/polis/dao/nik27090/SSTable.serialize (162 samples, 15.08%)</title><rect x="348.4" y="211.0" width="178.0" height="15" fill="#50e150" rx="2" ry="2"/>
<text x="351.4" y="222.0">ru/mail/polis/dao/nik27..</text>
</g>
<g>
<title>java/util/ArrayList.add (4 samples, 0.37%)</title><rect x="348.4" y="195.0" width="4.4" height="15" fill="#6cfd6c" rx="2" ry="2"/>
<text x="351.4" y="206.0"></text>
</g>
<g>
<title>java/util/ArrayList.add (4 samples, 0.37%)</title><rect x="348.4" y="179.0" width="4.4" height="15" fill="#69fa69" rx="2" ry="2"/>
<text x="351.4" y="190.0"></text>
</g>
<g>
<title>java/util/ArrayList.grow (4 samples, 0.37%)</title><rect x="348.4" y="163.0" width="4.4" height="15" fill="#6cfd6c" rx="2" ry="2"/>
<text x="351.4" y="174.0"></text>
</g>
<g>
<title>java/util/ArrayList.grow (4 samples, 0.37%)</title><rect x="348.4" y="147.0" width="4.4" height="15" fill="#65f665" rx="2" ry="2"/>
<text x="351.4" y="158.0"></text>
</g>
<g>
<title>java/util/Arrays.copyOf (4 samples, 0.37%)</title><rect x="348.4" y="131.0" width="4.4" height="15" fill="#6cfd6c" rx="2" ry="2"/>
<text x="351.4" y="142.0"></text>
</g>
<g>
<title>java.lang.Object[] (4 samples, 0.37%)</title><rect x="348.4" y="115.0" width="4.4" height="15" fill="#e17d00" rx="2" ry="2"/>
<text x="351.4" y="126.0"></text>
</g>
<g>
<title>java/util/Spliterators$1Adapter.hasNext (22 samples, 2.05%)</title><rect x="352.8" y="195.0" width="24.2" height="15" fill="#51e251" rx="2" ry="2"/>
<text x="355.8" y="206.0">j..</text>
</g>
<g>
<title>java/util/stream/StreamSpliterators$WrappingSpliterator.tryAdvance (22 samples, 2.05%)</title><rect x="352.8" y="179.0" width="24.2" height="15" fill="#5eef5e" rx="2" ry="2"/>
<text x="355.8" y="190.0">j..</text>
</g>
<g>
<title>java/util/stream/StreamSpliterators$AbstractWrappingSpliterator.doAdvance (22 samples, 2.05%)</title><rect x="352.8" y="163.0" width="24.2" height="15" fill="#5aeb5a" rx="2" ry="2"/>
<text x="355.8" y="174.0">j..</text>
</g>
<g>
<title>java/util/stream/StreamSpliterators$AbstractWrappingSpliterator.fillBuffer (22 samples, 2.05%)</title><rect x="352.8" y="147.0" width="24.2" height="15" fill="#60f160" rx="2" ry="2"/>
<text x="355.8" y="158.0">j..</text>
</g>
<g>
<title>java/util/stream/StreamSpliterators$WrappingSpliterator$$Lambda$69/1913638415.getAsBoolean (22 samples, 2.05%)</title><rect x="352.8" y="131.0" width="24.2" height="15" fill="#6bfc6b" rx="2" ry="2"/>
<text x="355.8" y="142.0">j..</text>
</g>
<g>
<title>java/util/stream/StreamSpliterators$WrappingSpliterator.lambda$initPartialTraversalState$0 (22 samples, 2.05%)</title><rect x="352.8" y="115.0" width="24.2" height="15" fill="#51e251" rx="2" ry="2"/>
<text x="355.8" y="126.0">j..</text>
</g>
<g>
<title>java/util/Spliterators$IteratorSpliterator.tryAdvance (22 samples, 2.05%)</title><rect x="352.8" y="99.0" width="24.2" height="15" fill="#61f261" rx="2" ry="2"/>
<text x="355.8" y="110.0">j..</text>
</g>
<g>
<title>java/util/stream/ReferencePipeline$3$1.accept (22 samples, 2.05%)</title><rect x="352.8" y="83.0" width="24.2" height="15" fill="#6bfc6b" rx="2" ry="2"/>
<text x="355.8" y="94.0">j..</text>
</g>
<g>
<title>ru/mail/polis/dao/nik27090/MemTable$$Lambda$66/1694709039.apply (22 samples, 2.05%)</title><rect x="352.8" y="67.0" width="24.2" height="15" fill="#58e958" rx="2" ry="2"/>
<text x="355.8" y="78.0">r..</text>
</g>
<g>
<title>ru/mail/polis/dao/nik27090/MemTable.lambda$iterator$0 (22 samples, 2.05%)</title><rect x="352.8" y="51.0" width="24.2" height="15" fill="#5ced5c" rx="2" ry="2"/>
<text x="355.8" y="62.0">r..</text>
</g>
<g>
<title>ru.mail.polis.dao.nik27090.Cell (22 samples, 2.05%)</title><rect x="352.8" y="35.0" width="24.2" height="15" fill="#52c0c0" rx="2" ry="2"/>
<text x="355.8" y="46.0">r..</text>
</g>
<g>
<title>ru/mail/polis/dao/nik27090/SSTable.intToByteBuffer (60 samples, 5.59%)</title><rect x="377.0" y="195.0" width="65.9" height="15" fill="#53e453" rx="2" ry="2"/>
<text x="380.0" y="206.0">ru/mail..</text>
</g>
<g>
<title>java/nio/ByteBuffer.allocate (60 samples, 5.59%)</title><rect x="377.0" y="179.0" width="65.9" height="15" fill="#54e554" rx="2" ry="2"/>
<text x="380.0" y="190.0">java/ni..</text>
</g>
<g>
<title>java.nio.HeapByteBuffer (32 samples, 2.98%)</title><rect x="377.0" y="163.0" width="35.1" height="15" fill="#67d5d5" rx="2" ry="2"/>
<text x="380.0" y="174.0">jav..</text>
</g>
<g>
<title>java/nio/HeapByteBuffer.&lt;init&gt; (28 samples, 2.61%)</title><rect x="412.1" y="163.0" width="30.8" height="15" fill="#5ff05f" rx="2" ry="2"/>
<text x="415.1" y="174.0">ja..</text>
</g>
<g>
<title>byte[] (28 samples, 2.61%)</title><rect x="412.1" y="147.0" width="30.8" height="15" fill="#64d2d2" rx="2" ry="2"/>
<text x="415.1" y="158.0">by..</text>
</g>
<g>
<title>ru/mail/polis/dao/nik27090/SSTable.longToByteBuffer (76 samples, 7.08%)</title><rect x="442.9" y="195.0" width="83.5" height="15" fill="#54e554" rx="2" ry="2"/>
<text x="445.9" y="206.0">ru/mail/p..</text>
</g>
<g>
<title>java/nio/ByteBuffer.allocate (76 samples, 7.08%)</title><rect x="442.9" y="179.0" width="83.5" height="15" fill="#53e453" rx="2" ry="2"/>
<text x="445.9" y="190.0">java/nio/..</text>
</g>
<g>
<title>java.nio.HeapByteBuffer (39 samples, 3.63%)</title><rect x="442.9" y="163.0" width="42.8" height="15" fill="#5dcbcb" rx="2" ry="2"/>
<text x="445.9" y="174.0">java..</text>
</g>
<g>
<title>java/nio/HeapByteBuffer.&lt;init&gt; (37 samples, 3.45%)</title><rect x="485.7" y="163.0" width="40.7" height="15" fill="#6dfe6d" rx="2" ry="2"/>
<text x="488.7" y="174.0">jav..</text>
</g>
<g>
<title>byte[] (37 samples, 3.45%)</title><rect x="485.7" y="147.0" width="40.7" height="15" fill="#5fcdcd" rx="2" ry="2"/>
<text x="488.7" y="158.0">byt..</text>
</g>
<g>
<title>ru/mail/polis/dao/nik27090/MemTable.upsert (129 samples, 12.01%)</title><rect x="526.4" y="227.0" width="141.7" height="15" fill="#67f867" rx="2" ry="2"/>
<text x="529.4" y="238.0">ru/mail/polis/dao/..</text>
</g>
<g>
<title>java/nio/HeapByteBuffer.duplicate (46 samples, 4.28%)</title><rect x="526.4" y="211.0" width="50.5" height="15" fill="#65f665" rx="2" ry="2"/>
<text x="529.4" y="222.0">java/..</text>
</g>
<g>
<title>java.nio.HeapByteBuffer (46 samples, 4.28%)</title><rect x="526.4" y="195.0" width="50.5" height="15" fill="#51bfbf" rx="2" ry="2"/>
<text x="529.4" y="206.0">java...</text>
</g>
<g>
<title>java/util/TreeMap.put (78 samples, 7.26%)</title><rect x="576.9" y="211.0" width="85.7" height="15" fill="#67f867" rx="2" ry="2"/>
<text x="579.9" y="222.0">java/util/..</text>
</g>
<g>
<title>java.util.TreeMap$Entry (78 samples, 7.26%)</title><rect x="576.9" y="195.0" width="85.7" height="15" fill="#64d2d2" rx="2" ry="2"/>
<text x="579.9" y="206.0">java.util...</text>
</g>
<g>
<title>ru.mail.polis.dao.nik27090.Value (5 samples, 0.47%)</title><rect x="662.6" y="211.0" width="5.5" height="15" fill="#6ad8d8" rx="2" ry="2"/>
<text x="665.6" y="222.0"></text>
</g>
<g>
<title>one/nio/http/Request.getPath (44 samples, 4.10%)</title><rect x="668.1" y="275.0" width="48.4" height="15" fill="#66f766" rx="2" ry="2"/>
<text x="671.1" y="286.0">one/..</text>
</g>
<g>
<title>java/lang/String.substring (44 samples, 4.10%)</title><rect x="668.1" y="259.0" width="48.4" height="15" fill="#5bec5b" rx="2" ry="2"/>
<text x="671.1" y="270.0">java..</text>
</g>
<g>
<title>java/lang/StringLatin1.newString (44 samples, 4.10%)</title><rect x="668.1" y="243.0" width="48.4" height="15" fill="#68f968" rx="2" ry="2"/>
<text x="671.1" y="254.0">java..</text>
</g>
<g>
<title>java.lang.String (42 samples, 3.91%)</title><rect x="668.1" y="227.0" width="46.2" height="15" fill="#66d4d4" rx="2" ry="2"/>
<text x="671.1" y="238.0">java..</text>
</g>
<g>
<title>java/util/Arrays.copyOfRange (2 samples, 0.19%)</title><rect x="714.3" y="227.0" width="2.2" height="15" fill="#5dee5d" rx="2" ry="2"/>
<text x="717.3" y="238.0"></text>
</g>
<g>
<title>byte[] (2 samples, 0.19%)</title><rect x="714.3" y="211.0" width="2.2" height="15" fill="#59c7c7" rx="2" ry="2"/>
<text x="717.3" y="222.0"></text>
</g>
<g>
<title>one/nio/http/HttpSession.parseRequest (213 samples, 19.83%)</title><rect x="716.5" y="307.0" width="234.0" height="15" fill="#52e352" rx="2" ry="2"/>
<text x="719.5" y="318.0">one/nio/http/HttpSession.parseR..</text>
</g>
<g>
<title>one.nio.http.Request (43 samples, 4.00%)</title><rect x="716.5" y="291.0" width="47.2" height="15" fill="#6ddbdb" rx="2" ry="2"/>
<text x="719.5" y="302.0">one...</text>
</g>
<g>
<title>one/nio/http/Request.&lt;init&gt; (81 samples, 7.54%)</title><rect x="763.7" y="291.0" width="89.0" height="15" fill="#57e857" rx="2" ry="2"/>
<text x="766.7" y="302.0">one/nio/ht..</text>
</g>
<g>
<title>java.lang.String[] (81 samples, 7.54%)</title><rect x="763.7" y="275.0" width="89.0" height="15" fill="#54c2c2" rx="2" ry="2"/>
<text x="766.7" y="286.0">java.lang...</text>
</g>
<g>
<title>one/nio/util/Utf8.read (89 samples, 8.29%)</title><rect x="852.7" y="291.0" width="97.8" height="15" fill="#60f160" rx="2" ry="2"/>
<text x="855.7" y="302.0">one/nio/uti..</text>
</g>
<g>
<title>one/nio/util/Utf8.read (89 samples, 8.29%)</title><rect x="852.7" y="275.0" width="97.8" height="15" fill="#55e655" rx="2" ry="2"/>
<text x="855.7" y="286.0">one/nio/uti..</text>
</g>
<g>
<title>char[] (81 samples, 7.54%)</title><rect x="852.7" y="259.0" width="89.0" height="15" fill="#5ccaca" rx="2" ry="2"/>
<text x="855.7" y="270.0">char[]</text>
</g>
<g>
<title>java.lang.String (4 samples, 0.37%)</title><rect x="941.7" y="259.0" width="4.4" height="15" fill="#6ddbdb" rx="2" ry="2"/>
<text x="944.7" y="270.0"></text>
</g>
<g>
<title>java/lang/String.&lt;init&gt; (4 samples, 0.37%)</title><rect x="946.1" y="259.0" width="4.4" height="15" fill="#57e857" rx="2" ry="2"/>
<text x="949.1" y="270.0"></text>
</g>
<g>
<title>java/lang/String.&lt;init&gt; (4 samples, 0.37%)</title><rect x="946.1" y="243.0" width="4.4" height="15" fill="#60f160" rx="2" ry="2"/>
<text x="949.1" y="254.0"></text>
</g>
<g>
<title>java/lang/StringUTF16.compress (4 samples, 0.37%)</title><rect x="946.1" y="227.0" width="4.4" height="15" fill="#53e453" rx="2" ry="2"/>
<text x="949.1" y="238.0"></text>
</g>
<g>
<title>byte[] (4 samples, 0.37%)</title><rect x="946.1" y="211.0" width="4.4" height="15" fill="#50bebe" rx="2" ry="2"/>
<text x="949.1" y="222.0"></text>
</g>
<g>
<title>one/nio/http/HttpSession.startParsingRequestBody (41 samples, 3.82%)</title><rect x="950.5" y="307.0" width="45.0" height="15" fill="#51e251" rx="2" ry="2"/>
<text x="953.5" y="318.0">one/..</text>
</g>
<g>
<title>byte[] (41 samples, 3.82%)</title><rect x="950.5" y="291.0" width="45.0" height="15" fill="#68d6d6" rx="2" ry="2"/>
<text x="953.5" y="302.0">byte[]</text>
</g>
<g>
<title>one/nio/http/Request.getHeader (41 samples, 3.82%)</title><rect x="995.5" y="307.0" width="45.1" height="15" fill="#55e655" rx="2" ry="2"/>
<text x="998.5" y="318.0">one/..</text>
</g>
<g>
<title>java/lang/String.substring (41 samples, 3.82%)</title><rect x="995.5" y="291.0" width="45.1" height="15" fill="#55e655" rx="2" ry="2"/>
<text x="998.5" y="302.0">java..</text>
</g>
<g>
<title>java/lang/StringLatin1.newString (41 samples, 3.82%)</title><rect x="995.5" y="275.0" width="45.1" height="15" fill="#58e958" rx="2" ry="2"/>
<text x="998.5" y="286.0">java..</text>
</g>
<g>
<title>java.lang.String (1 samples, 0.09%)</title><rect x="995.5" y="259.0" width="1.1" height="15" fill="#54c2c2" rx="2" ry="2"/>
<text x="998.5" y="270.0"></text>
</g>
<g>
<title>java/util/Arrays.copyOfRange (40 samples, 3.72%)</title><rect x="996.6" y="259.0" width="44.0" height="15" fill="#64f564" rx="2" ry="2"/>
<text x="999.6" y="270.0">java..</text>
</g>
<g>
<title>byte[] (40 samples, 3.72%)</title><rect x="996.6" y="243.0" width="44.0" height="15" fill="#51bfbf" rx="2" ry="2"/>
<text x="999.6" y="254.0">byte[]</text>
</g>
<g>
<title>one/nio/util/Utf8.read (136 samples, 12.66%)</title><rect x="1040.6" y="307.0" width="149.4" height="15" fill="#6afb6a" rx="2" ry="2"/>
<text x="1043.6" y="318.0">one/nio/util/Utf8.r..</text>
</g>
<g>
<title>one/nio/util/Utf8.read (136 samples, 12.66%)</title><rect x="1040.6" y="291.0" width="149.4" height="15" fill="#65f665" rx="2" ry="2"/>
<text x="1043.6" y="302.0">one/nio/util/Utf8.r..</text>
</g>
<g>
<title>char[] (87 samples, 8.10%)</title><rect x="1040.6" y="275.0" width="95.6" height="15" fill="#69d7d7" rx="2" ry="2"/>
<text x="1043.6" y="286.0">char[]</text>
</g>
<g>
<title>java.lang.String (6 samples, 0.56%)</title><rect x="1136.2" y="275.0" width="6.6" height="15" fill="#61cfcf" rx="2" ry="2"/>
<text x="1139.2" y="286.0"></text>
</g>
<g>
<title>java/lang/String.&lt;init&gt; (43 samples, 4.00%)</title><rect x="1142.8" y="275.0" width="47.2" height="15" fill="#62f362" rx="2" ry="2"/>
<text x="1145.8" y="286.0">java..</text>
</g>
<g>
<title>java/lang/String.&lt;init&gt; (43 samples, 4.00%)</title><rect x="1142.8" y="259.0" width="47.2" height="15" fill="#62f362" rx="2" ry="2"/>
<text x="1145.8" y="270.0">java..</text>
</g>
<g>
<title>java/lang/StringUTF16.compress (43 samples, 4.00%)</title><rect x="1142.8" y="243.0" width="47.2" height="15" fill="#6cfd6c" rx="2" ry="2"/>
<text x="1145.8" y="254.0">java..</text>
</g>
<g>
<title>byte[] (43 samples, 4.00%)</title><rect x="1142.8" y="227.0" width="47.2" height="15" fill="#5dcbcb" rx="2" ry="2"/>
<text x="1145.8" y="238.0">byte[]</text>
</g>
</g>
</svg>
