<?xml version="1.0" standalone="no"?>
<!DOCTYPE svg PUBLIC "-//W3C//DTD SVG 1.1//EN" "http://www.w3.org/Graphics/SVG/1.1/DTD/svg11.dtd">
<svg version="1.1" width="1200" height="358" onload="init(evt)" viewBox="0 0 1200 358" xmlns="http://www.w3.org/2000/svg" xmlns:xlink="http://www.w3.org/1999/xlink">
<style type="text/css">
	text { font-family:Verdana; font-size:12px; fill:rgb(0,0,0); }
	#search { opacity:0.1; cursor:pointer; }
	#search:hover, #search.show { opacity:1; }
	#subtitle { text-anchor:middle; font-color:rgb(160,160,160); }
	#title { text-anchor:middle; font-size:17px}
	#unzoom { cursor:pointer; }
	#frames > *:hover { stroke:black; stroke-width:0.5; cursor:pointer; }
	.hide { display:none; }
	.parent { opacity:0.5; }
</style>
<script type="text/ecmascript">
<![CDATA[
	"use strict";
	var details, searchbtn, unzoombtn, matchedtxt, svg, searching;
	function init(evt) {
		details = document.getElementById("details").firstChild;
		searchbtn = document.getElementById("search");
		unzoombtn = document.getElementById("unzoom");
		matchedtxt = document.getElementById("matched");
		svg = document.getElementsByTagName("svg")[0];
		searching = 0;
	}

	window.addEventListener("click", function(e) {
		var target = find_group(e.target);
		if (target) {
			if (target.nodeName == "a") {
				if (e.ctrlKey === false) return;
				e.preventDefault();
			}
			if (target.classList.contains("parent")) unzoom();
			zoom(target);
		}
		else if (e.target.id == "unzoom") unzoom();
		else if (e.target.id == "search") search_prompt();
	}, false)

	// mouse-over for info
	// show
	window.addEventListener("mouseover", function(e) {
		var target = find_group(e.target);
		if (target) details.nodeValue = "Function: " + g_to_text(target);
	}, false)

	// clear
	window.addEventListener("mouseout", function(e) {
		var target = find_group(e.target);
		if (target) details.nodeValue = ' ';
	}, false)

	// ctrl-F for search
	window.addEventListener("keydown",function (e) {
		if (e.keyCode === 114 || (e.ctrlKey && e.keyCode === 70)) {
			e.preventDefault();
			search_prompt();
		}
	}, false)

	// functions
	function find_child(node, selector) {
		var children = node.querySelectorAll(selector);
		if (children.length) return children[0];
		return;
	}
	function find_group(node) {
		var parent = node.parentElement;
		if (!parent) return;
		if (parent.id == "frames") return node;
		return find_group(parent);
	}
	function orig_save(e, attr, val) {
		if (e.attributes["_orig_" + attr] != undefined) return;
		if (e.attributes[attr] == undefined) return;
		if (val == undefined) val = e.attributes[attr].value;
		e.setAttribute("_orig_" + attr, val);
	}
	function orig_load(e, attr) {
		if (e.attributes["_orig_"+attr] == undefined) return;
		e.attributes[attr].value = e.attributes["_orig_" + attr].value;
		e.removeAttribute("_orig_"+attr);
	}
	function g_to_text(e) {
		var text = find_child(e, "title").firstChild.nodeValue;
		return (text)
	}
	function g_to_func(e) {
		var func = g_to_text(e);
		// if there's any manipulation we want to do to the function
		// name before it's searched, do it here before returning.
		return (func);
	}
	function update_text(e) {
		var r = find_child(e, "rect");
		var t = find_child(e, "text");
		var w = parseFloat(r.attributes.width.value) -3;
		var txt = find_child(e, "title").textContent.replace(/\([^(]*\)$/,"");
		t.attributes.x.value = parseFloat(r.attributes.x.value) + 3;

		// Smaller than this size won't fit anything
		if (w < 2 * 12 * 0.59) {
			t.textContent = "";
			return;
		}

		t.textContent = txt;
		// Fit in full text width
		if (/^ *$/.test(txt) || t.getSubStringLength(0, txt.length) < w)
			return;

		for (var x = txt.length - 2; x > 0; x--) {
			if (t.getSubStringLength(0, x + 2) <= w) {
				t.textContent = txt.substring(0, x) + "..";
				return;
			}
		}
		t.textContent = "";
	}

	// zoom
	function zoom_reset(e) {
		if (e.attributes != undefined) {
			orig_load(e, "x");
			orig_load(e, "width");
		}
		if (e.childNodes == undefined) return;
		for (var i = 0, c = e.childNodes; i < c.length; i++) {
			zoom_reset(c[i]);
		}
	}
	function zoom_child(e, x, ratio) {
		if (e.attributes != undefined) {
			if (e.attributes.x != undefined) {
				orig_save(e, "x");
				e.attributes.x.value = (parseFloat(e.attributes.x.value) - x - 10) * ratio + 10;
				if (e.tagName == "text")
					e.attributes.x.value = find_child(e.parentNode, "rect[x]").attributes.x.value + 3;
			}
			if (e.attributes.width != undefined) {
				orig_save(e, "width");
				e.attributes.width.value = parseFloat(e.attributes.width.value) * ratio;
			}
		}

		if (e.childNodes == undefined) return;
		for (var i = 0, c = e.childNodes; i < c.length; i++) {
			zoom_child(c[i], x - 10, ratio);
		}
	}
	function zoom_parent(e) {
		if (e.attributes) {
			if (e.attributes.x != undefined) {
				orig_save(e, "x");
				e.attributes.x.value = 10;
			}
			if (e.attributes.width != undefined) {
				orig_save(e, "width");
				e.attributes.width.value = parseInt(svg.width.baseVal.value) - (10 * 2);
			}
		}
		if (e.childNodes == undefined) return;
		for (var i = 0, c = e.childNodes; i < c.length; i++) {
			zoom_parent(c[i]);
		}
	}
	function zoom(node) {
		var attr = find_child(node, "rect").attributes;
		var width = parseFloat(attr.width.value);
		var xmin = parseFloat(attr.x.value);
		var xmax = parseFloat(xmin + width);
		var ymin = parseFloat(attr.y.value);
		var ratio = (svg.width.baseVal.value - 2 * 10) / width;

		// XXX: Workaround for JavaScript float issues (fix me)
		var fudge = 0.0001;

		unzoombtn.classList.remove("hide");

		var el = document.getElementById("frames").children;
		for (var i = 0; i < el.length; i++) {
			var e = el[i];
			var a = find_child(e, "rect").attributes;
			var ex = parseFloat(a.x.value);
			var ew = parseFloat(a.width.value);
			var upstack;
			// Is it an ancestor
			if (0 == 0) {
				upstack = parseFloat(a.y.value) > ymin;
			} else {
				upstack = parseFloat(a.y.value) < ymin;
			}
			if (upstack) {
				// Direct ancestor
				if (ex <= xmin && (ex+ew+fudge) >= xmax) {
					e.classList.add("parent");
					zoom_parent(e);
					update_text(e);
				}
				// not in current path
				else
					e.classList.add("hide");
			}
			// Children maybe
			else {
				// no common path
				if (ex < xmin || ex + fudge >= xmax) {
					e.classList.add("hide");
				}
				else {
					zoom_child(e, xmin, ratio);
					update_text(e);
				}
			}
		}
	}
	function unzoom() {
		unzoombtn.classList.add("hide");
		var el = document.getElementById("frames").children;
		for(var i = 0; i < el.length; i++) {
			el[i].classList.remove("parent");
			el[i].classList.remove("hide");
			zoom_reset(el[i]);
			update_text(el[i]);
		}
	}

	// search
	function reset_search() {
		var el = document.querySelectorAll("#frames rect");
		for (var i = 0; i < el.length; i++) {
			orig_load(el[i], "fill")
		}
	}
	function search_prompt() {
		if (!searching) {
			var term = prompt("Enter a search term (regexp " +
			    "allowed, eg: ^ext4_)", "");
			if (term != null) {
				search(term)
			}
		} else {
			reset_search();
			searching = 0;
			searchbtn.classList.remove("show");
			searchbtn.firstChild.nodeValue = "Search"
			matchedtxt.classList.add("hide");
			matchedtxt.firstChild.nodeValue = ""
		}
	}
	function search(term) {
		var re = new RegExp(term);
		var el = document.getElementById("frames").children;
		var matches = new Object();
		var maxwidth = 0;
		for (var i = 0; i < el.length; i++) {
			var e = el[i];
			var func = g_to_func(e);
			var rect = find_child(e, "rect");
			if (func == null || rect == null)
				continue;

			// Save max width. Only works as we have a root frame
			var w = parseFloat(rect.attributes.width.value);
			if (w > maxwidth)
				maxwidth = w;

			if (func.match(re)) {
				// highlight
				var x = parseFloat(rect.attributes.x.value);
				orig_save(rect, "fill");
				rect.attributes.fill.value = "rgb(230,0,230)";

				// remember matches
				if (matches[x] == undefined) {
					matches[x] = w;
				} else {
					if (w > matches[x]) {
						// overwrite with parent
						matches[x] = w;
					}
				}
				searching = 1;
			}
		}
		if (!searching)
			return;

		searchbtn.classList.add("show");
		searchbtn.firstChild.nodeValue = "Reset Search";

		// calculate percent matched, excluding vertical overlap
		var count = 0;
		var lastx = -1;
		var lastw = 0;
		var keys = Array();
		for (k in matches) {
			if (matches.hasOwnProperty(k))
				keys.push(k);
		}
		// sort the matched frames by their x location
		// ascending, then width descending
		keys.sort(function(a, b){
			return a - b;
		});
		// Step through frames saving only the biggest bottom-up frames
		// thanks to the sort order. This relies on the tree property
		// where children are always smaller than their parents.
		var fudge = 0.0001;	// JavaScript floating point
		for (var k in keys) {
			var x = parseFloat(keys[k]);
			var w = matches[keys[k]];
			if (x >= lastx + lastw - fudge) {
				count += w;
				lastx = x;
				lastw = w;
			}
		}
		// display matched percent
		matchedtxt.classList.remove("hide");
		var pct = 100 * count / maxwidth;
		if (pct != 100) pct = pct.toFixed(1)
		matchedtxt.firstChild.nodeValue = "Matched: " + pct + "%";
	}
]]>
</script>
<rect x="0" y="0" width="100%" height="100%" fill="rgb(240,240,220)"/>
<text id="title" x="600" y="24">Flame Graph</text>
<text id="details" x="10" y="341"> </text>
<text id="unzoom" x="10" y="24" class="hide">Reset Zoom</text>
<text id="search" x="1090" y="24">Search</text>
<text id="matched" x="1090" y="341"> </text>
<g id="frames">
<g>
<title>all (13,492 samples, 100.00%)</title><rect x="10.0" y="307.0" width="1180.0" height="15" fill="#ef6d6d" rx="2" ry="2"/>
<text x="13.0" y="318.0">all</text>
</g>
<g>
<title>java/lang/Thread.run (7,586 samples, 56.23%)</title><rect x="10.0" y="291.0" width="663.5" height="15" fill="#52e352" rx="2" ry="2"/>
<text x="13.0" y="302.0">java/lang/Thread.run</text>
</g>
<g>
<title>java/util/concurrent/ThreadPoolExecutor$Worker.run (7,586 samples, 56.23%)</title><rect x="10.0" y="275.0" width="663.5" height="15" fill="#54e554" rx="2" ry="2"/>
<text x="13.0" y="286.0">java/util/concurrent/ThreadPoolExecutor$Worker.run</text>
</g>
<g>
<title>java/util/concurrent/ThreadPoolExecutor.runWorker (7,586 samples, 56.23%)</title><rect x="10.0" y="259.0" width="663.5" height="15" fill="#6bfc6b" rx="2" ry="2"/>
<text x="13.0" y="270.0">java/util/concurrent/ThreadPoolExecutor.runWorker</text>
</g>
<g>
<title>java/util/concurrent/ThreadPoolExecutor.getTask (257 samples, 1.90%)</title><rect x="10.0" y="243.0" width="22.5" height="15" fill="#5dee5d" rx="2" ry="2"/>
<text x="13.0" y="254.0">j..</text>
</g>
<g>
<title>java/util/concurrent/ArrayBlockingQueue.take (257 samples, 1.90%)</title><rect x="10.0" y="227.0" width="22.5" height="15" fill="#64f564" rx="2" ry="2"/>
<text x="13.0" y="238.0">j..</text>
</g>
<g>
<title>java/util/concurrent/locks/AbstractQueuedSynchronizer$ConditionObject.await (247 samples, 1.83%)</title><rect x="10.0" y="211.0" width="21.6" height="15" fill="#67f867" rx="2" ry="2"/>
<text x="13.0" y="222.0">j..</text>
</g>
<g>
<title>java/util/concurrent/locks/AbstractQueuedSynchronizer$ConditionObject.addConditionWaiter (247 samples, 1.83%)</title><rect x="10.0" y="195.0" width="21.6" height="15" fill="#5ff05f" rx="2" ry="2"/>
<text x="13.0" y="206.0">j..</text>
</g>
<g>
<title>java.util.concurrent.locks.AbstractQueuedSynchronizer$Node (247 samples, 1.83%)</title><rect x="10.0" y="179.0" width="21.6" height="15" fill="#5bc9c9" rx="2" ry="2"/>
<text x="13.0" y="190.0">j..</text>
</g>
<g>
<title>java/util/concurrent/locks/ReentrantLock.lockInterruptibly (10 samples, 0.07%)</title><rect x="31.6" y="211.0" width="0.9" height="15" fill="#6dfe6d" rx="2" ry="2"/>
<text x="34.6" y="222.0"></text>
</g>
<g>
<title>java/util/concurrent/locks/AbstractQueuedSynchronizer.acquireInterruptibly (10 samples, 0.07%)</title><rect x="31.6" y="195.0" width="0.9" height="15" fill="#5ff05f" rx="2" ry="2"/>
<text x="34.6" y="206.0"></text>
</g>
<g>
<title>java/util/concurrent/locks/AbstractQueuedSynchronizer.doAcquireInterruptibly (10 samples, 0.07%)</title><rect x="31.6" y="179.0" width="0.9" height="15" fill="#5dee5d" rx="2" ry="2"/>
<text x="34.6" y="190.0"></text>
</g>
<g>
<title>java/util/concurrent/locks/AbstractQueuedSynchronizer.addWaiter (10 samples, 0.07%)</title><rect x="31.6" y="163.0" width="0.9" height="15" fill="#65f665" rx="2" ry="2"/>
<text x="34.6" y="174.0"></text>
</g>
<g>
<title>java.util.concurrent.locks.AbstractQueuedSynchronizer$Node (10 samples, 0.07%)</title><rect x="31.6" y="147.0" width="0.9" height="15" fill="#61cfcf" rx="2" ry="2"/>
<text x="34.6" y="158.0"></text>
</g>
<g>
<title>ru/mail/polis/service/mariarheon/AsyncServiceImpl$$Lambda$66/1991441571.run (4,392 samples, 32.55%)</title><rect x="32.5" y="243.0" width="384.1" height="15" fill="#5ced5c" rx="2" ry="2"/>
<text x="35.5" y="254.0">ru/mail/polis/service/mariarheon/AsyncServiceImpl$$L..</text>
</g>
<g>
<title>ru/mail/polis/service/mariarheon/AsyncServiceImpl.lambda$passOn$1 (4,392 samples, 32.55%)</title><rect x="32.5" y="227.0" width="384.1" height="15" fill="#50e150" rx="2" ry="2"/>
<text x="35.5" y="238.0">ru/mail/polis/service/mariarheon/AsyncServiceImpl.la..</text>
</g>
<g>
<title>ru/mail/polis/service/mariarheon/AsyncServiceImpl.passOnInternal (4,392 samples, 32.55%)</title><rect x="32.5" y="211.0" width="384.1" height="15" fill="#66f766" rx="2" ry="2"/>
<text x="35.5" y="222.0">ru/mail/polis/service/mariarheon/AsyncServiceImpl.pa..</text>
</g>
<g>
<title>ru/mail/polis/service/mariarheon/AsyncServiceImpl.trySendResponse (43 samples, 0.32%)</title><rect x="32.5" y="195.0" width="3.7" height="15" fill="#5dee5d" rx="2" ry="2"/>
<text x="35.5" y="206.0"></text>
</g>
<g>
<title>one/nio/http/HttpSession.sendResponse (43 samples, 0.32%)</title><rect x="32.5" y="179.0" width="3.7" height="15" fill="#63f463" rx="2" ry="2"/>
<text x="35.5" y="190.0"></text>
</g>
<g>
<title>one/nio/http/HttpSession.writeResponse (43 samples, 0.32%)</title><rect x="32.5" y="163.0" width="3.7" height="15" fill="#50e150" rx="2" ry="2"/>
<text x="35.5" y="174.0"></text>
</g>
<g>
<title>one/nio/http/Response.toBytes (29 samples, 0.21%)</title><rect x="32.5" y="147.0" width="2.5" height="15" fill="#68f968" rx="2" ry="2"/>
<text x="35.5" y="158.0"></text>
</g>
<g>
<title>one/nio/util/ByteArrayBuilder.&lt;init&gt; (29 samples, 0.21%)</title><rect x="32.5" y="131.0" width="2.5" height="15" fill="#5bec5b" rx="2" ry="2"/>
<text x="35.5" y="142.0"></text>
</g>
<g>
<title>byte[] (29 samples, 0.21%)</title><rect x="32.5" y="115.0" width="2.5" height="15" fill="#61cfcf" rx="2" ry="2"/>
<text x="35.5" y="126.0"></text>
</g>
<g>
<title>one/nio/net/Session.write (14 samples, 0.10%)</title><rect x="35.0" y="147.0" width="1.2" height="15" fill="#51e251" rx="2" ry="2"/>
<text x="38.0" y="158.0"></text>
</g>
<g>
<title>one.nio.net.Session$ArrayQueueItem (14 samples, 0.10%)</title><rect x="35.0" y="131.0" width="1.2" height="15" fill="#51bfbf" rx="2" ry="2"/>
<text x="38.0" y="142.0"></text>
</g>
<g>
<title>ru/mail/polis/service/mariarheon/RendezvousSharding.passOn (4,349 samples, 32.23%)</title><rect x="36.2" y="195.0" width="380.4" height="15" fill="#67f867" rx="2" ry="2"/>
<text x="39.2" y="206.0">ru/mail/polis/service/mariarheon/RendezvousSharding...</text>
</g>
<g>
<title>one/nio/http/HttpClient.invoke (4,349 samples, 32.23%)</title><rect x="36.2" y="179.0" width="380.4" height="15" fill="#67f867" rx="2" ry="2"/>
<text x="39.2" y="190.0">one/nio/http/HttpClient.invoke</text>
</g>
<g>
<title>one/nio/http/HttpClient.invoke (4,349 samples, 32.23%)</title><rect x="36.2" y="163.0" width="380.4" height="15" fill="#51e251" rx="2" ry="2"/>
<text x="39.2" y="174.0">one/nio/http/HttpClient.invoke</text>
</g>
<g>
<title>one.nio.http.HttpClient$ResponseReader (8 samples, 0.06%)</title><rect x="36.2" y="147.0" width="0.7" height="15" fill="#60cece" rx="2" ry="2"/>
<text x="39.2" y="158.0"></text>
</g>
<g>
<title>one/nio/http/HttpClient$ResponseReader.&lt;init&gt; (4,024 samples, 29.83%)</title><rect x="36.9" y="147.0" width="352.0" height="15" fill="#59ea59" rx="2" ry="2"/>
<text x="39.9" y="158.0">one/nio/http/HttpClient$ResponseReader.&lt;init&gt;</text>
</g>
<g>
<title>byte[] (2,755 samples, 20.42%)</title><rect x="36.9" y="131.0" width="241.0" height="15" fill="#5ccaca" rx="2" ry="2"/>
<text x="39.9" y="142.0">byte[]</text>
</g>
<g>
<title>byte[] (1,269 samples, 9.41%)</title><rect x="277.9" y="131.0" width="111.0" height="15" fill="#e17d00" rx="2" ry="2"/>
<text x="280.9" y="142.0">byte[]</text>
</g>
<g>
<title>one/nio/http/HttpClient$ResponseReader.readResponse (243 samples, 1.80%)</title><rect x="388.9" y="147.0" width="21.2" height="15" fill="#5ced5c" rx="2" ry="2"/>
<text x="391.9" y="158.0">o..</text>
</g>
<g>
<title>byte[] (3 samples, 0.02%)</title><rect x="388.9" y="131.0" width="0.2" height="15" fill="#60cece" rx="2" ry="2"/>
<text x="391.9" y="142.0"></text>
</g>
<g>
<title>one.nio.http.Response (3 samples, 0.02%)</title><rect x="389.2" y="131.0" width="0.3" height="15" fill="#6cdada" rx="2" ry="2"/>
<text x="392.2" y="142.0"></text>
</g>
<g>
<title>one/nio/http/HttpClient$ResponseReader.readLine (229 samples, 1.70%)</title><rect x="389.5" y="131.0" width="20.0" height="15" fill="#6afb6a" rx="2" ry="2"/>
<text x="392.5" y="142.0"></text>
</g>
<g>
<title>one/nio/util/Utf8.read (229 samples, 1.70%)</title><rect x="389.5" y="115.0" width="20.0" height="15" fill="#57e857" rx="2" ry="2"/>
<text x="392.5" y="126.0"></text>
</g>
<g>
<title>one/nio/util/Utf8.read (229 samples, 1.70%)</title><rect x="389.5" y="99.0" width="20.0" height="15" fill="#65f665" rx="2" ry="2"/>
<text x="392.5" y="110.0"></text>
</g>
<g>
<title>char[] (212 samples, 1.57%)</title><rect x="389.5" y="83.0" width="18.5" height="15" fill="#5bc9c9" rx="2" ry="2"/>
<text x="392.5" y="94.0"></text>
</g>
<g>
<title>java.lang.String (7 samples, 0.05%)</title><rect x="408.0" y="83.0" width="0.6" height="15" fill="#63d1d1" rx="2" ry="2"/>
<text x="411.0" y="94.0"></text>
</g>
<g>
<title>java/lang/String.&lt;init&gt; (10 samples, 0.07%)</title><rect x="408.6" y="83.0" width="0.9" height="15" fill="#65f665" rx="2" ry="2"/>
<text x="411.6" y="94.0"></text>
</g>
<g>
<title>java/lang/String.&lt;init&gt; (10 samples, 0.07%)</title><rect x="408.6" y="67.0" width="0.9" height="15" fill="#6bfc6b" rx="2" ry="2"/>
<text x="411.6" y="78.0"></text>
</g>
<g>
<title>java/lang/StringUTF16.compress (10 samples, 0.07%)</title><rect x="408.6" y="51.0" width="0.9" height="15" fill="#52e352" rx="2" ry="2"/>
<text x="411.6" y="62.0"></text>
</g>
<g>
<title>byte[] (10 samples, 0.07%)</title><rect x="408.6" y="35.0" width="0.9" height="15" fill="#5ccaca" rx="2" ry="2"/>
<text x="411.6" y="46.0"></text>
</g>
<g>
<title>one/nio/http/Response.&lt;init&gt; (6 samples, 0.04%)</title><rect x="409.5" y="131.0" width="0.5" height="15" fill="#5ff05f" rx="2" ry="2"/>
<text x="412.5" y="142.0"></text>
</g>
<g>
<title>java.lang.String[] (6 samples, 0.04%)</title><rect x="409.5" y="115.0" width="0.5" height="15" fill="#5ecccc" rx="2" ry="2"/>
<text x="412.5" y="126.0"></text>
</g>
<g>
<title>one/nio/http/Request.toBytes (61 samples, 0.45%)</title><rect x="410.1" y="147.0" width="5.4" height="15" fill="#5dee5d" rx="2" ry="2"/>
<text x="413.1" y="158.0"></text>
</g>
<g>
<title>one/nio/util/ByteArrayBuilder.&lt;init&gt; (61 samples, 0.45%)</title><rect x="410.1" y="131.0" width="5.4" height="15" fill="#57e857" rx="2" ry="2"/>
<text x="413.1" y="142.0"></text>
</g>
<g>
<title>byte[] (61 samples, 0.45%)</title><rect x="410.1" y="115.0" width="5.4" height="15" fill="#6cdada" rx="2" ry="2"/>
<text x="413.1" y="126.0"></text>
</g>
<g>
<title>one/nio/http/Response.getHeader (7 samples, 0.05%)</title><rect x="415.5" y="147.0" width="0.6" height="15" fill="#52e352" rx="2" ry="2"/>
<text x="418.5" y="158.0"></text>
</g>
<g>
<title>java/lang/String.substring (7 samples, 0.05%)</title><rect x="415.5" y="131.0" width="0.6" height="15" fill="#58e958" rx="2" ry="2"/>
<text x="418.5" y="142.0"></text>
</g>
<g>
<title>java/lang/StringLatin1.newString (7 samples, 0.05%)</title><rect x="415.5" y="115.0" width="0.6" height="15" fill="#66f766" rx="2" ry="2"/>
<text x="418.5" y="126.0"></text>
</g>
<g>
<title>java.lang.String (3 samples, 0.02%)</title><rect x="415.5" y="99.0" width="0.2" height="15" fill="#5ecccc" rx="2" ry="2"/>
<text x="418.5" y="110.0"></text>
</g>
<g>
<title>java/util/Arrays.copyOfRange (4 samples, 0.03%)</title><rect x="415.7" y="99.0" width="0.4" height="15" fill="#69fa69" rx="2" ry="2"/>
<text x="418.7" y="110.0"></text>
</g>
<g>
<title>byte[] (4 samples, 0.03%)</title><rect x="415.7" y="83.0" width="0.4" height="15" fill="#68d6d6" rx="2" ry="2"/>
<text x="418.7" y="94.0"></text>
</g>
<g>
<title>one/nio/pool/Pool.returnObject (6 samples, 0.04%)</title><rect x="416.1" y="147.0" width="0.5" height="15" fill="#5ff05f" rx="2" ry="2"/>
<text x="419.1" y="158.0"></text>
</g>
<g>
<title>java/util/LinkedList.addFirst (6 samples, 0.04%)</title><rect x="416.1" y="131.0" width="0.5" height="15" fill="#63f463" rx="2" ry="2"/>
<text x="419.1" y="142.0"></text>
</g>
<g>
<title>java/util/LinkedList.linkFirst (6 samples, 0.04%)</title><rect x="416.1" y="115.0" width="0.5" height="15" fill="#61f261" rx="2" ry="2"/>
<text x="419.1" y="126.0"></text>
</g>
<g>
<title>java.util.LinkedList$Node (6 samples, 0.04%)</title><rect x="416.1" y="99.0" width="0.5" height="15" fill="#60cece" rx="2" ry="2"/>
<text x="419.1" y="110.0"></text>
</g>
<g>
<title>ru/mail/polis/service/mariarheon/AsyncServiceImpl$$Lambda$75/1951744626.run (2,937 samples, 21.77%)</title><rect x="416.6" y="243.0" width="256.9" height="15" fill="#55e655" rx="2" ry="2"/>
<text x="419.6" y="254.0">ru/mail/polis/service/mariarheon/A..</text>
</g>
<g>
<title>ru/mail/polis/service/mariarheon/AsyncServiceImpl.lambda$handleEntityRequest$0 (2,937 samples, 21.77%)</title><rect x="416.6" y="227.0" width="256.9" height="15" fill="#6bfc6b" rx="2" ry="2"/>
<text x="419.6" y="238.0">ru/mail/polis/service/mariarheon/A..</text>
</g>
<g>
<title>ru/mail/polis/service/mariarheon/AsyncServiceImpl.get (2,937 samples, 21.77%)</title><rect x="416.6" y="211.0" width="256.9" height="15" fill="#6dfe6d" rx="2" ry="2"/>
<text x="419.6" y="222.0">ru/mail/polis/service/mariarheon/A..</text>
</g>
<g>
<title>java/lang/String.getBytes (163 samples, 1.21%)</title><rect x="416.6" y="195.0" width="14.3" height="15" fill="#55e655" rx="2" ry="2"/>
<text x="419.6" y="206.0"></text>
</g>
<g>
<title>java/lang/StringCoding.encode (163 samples, 1.21%)</title><rect x="416.6" y="179.0" width="14.3" height="15" fill="#5aeb5a" rx="2" ry="2"/>
<text x="419.6" y="190.0"></text>
</g>
<g>
<title>java/lang/StringCoding.encodeUTF8 (163 samples, 1.21%)</title><rect x="416.6" y="163.0" width="14.3" height="15" fill="#60f160" rx="2" ry="2"/>
<text x="419.6" y="174.0"></text>
</g>
<g>
<title>java/util/Arrays.copyOf (163 samples, 1.21%)</title><rect x="416.6" y="147.0" width="14.3" height="15" fill="#54e554" rx="2" ry="2"/>
<text x="419.6" y="158.0"></text>
</g>
<g>
<title>byte[] (163 samples, 1.21%)</title><rect x="416.6" y="131.0" width="14.3" height="15" fill="#56c4c4" rx="2" ry="2"/>
<text x="419.6" y="142.0"></text>
</g>
<g>
<title>one/nio/http/Response.ok (797 samples, 5.91%)</title><rect x="430.9" y="195.0" width="69.7" height="15" fill="#67f867" rx="2" ry="2"/>
<text x="433.9" y="206.0">one/nio..</text>
</g>
<g>
<title>one.nio.http.Response (140 samples, 1.04%)</title><rect x="430.9" y="179.0" width="12.2" height="15" fill="#69d7d7" rx="2" ry="2"/>
<text x="433.9" y="190.0"></text>
</g>
<g>
<title>one/nio/http/Response.&lt;init&gt; (657 samples, 4.87%)</title><rect x="443.1" y="179.0" width="57.5" height="15" fill="#62f362" rx="2" ry="2"/>
<text x="446.1" y="190.0">one/ni..</text>
</g>
<g>
<title>byte[] (270 samples, 2.00%)</title><rect x="443.1" y="163.0" width="23.6" height="15" fill="#5dcbcb" rx="2" ry="2"/>
<text x="446.1" y="174.0">b..</text>
</g>
<g>
<title>java.lang.String[] (233 samples, 1.73%)</title><rect x="466.7" y="163.0" width="20.4" height="15" fill="#61cfcf" rx="2" ry="2"/>
<text x="469.7" y="174.0"></text>
</g>
<g>
<title>java.lang.String (154 samples, 1.14%)</title><rect x="487.1" y="163.0" width="13.5" height="15" fill="#60cece" rx="2" ry="2"/>
<text x="490.1" y="174.0"></text>
</g>
<g>
<title>ru/mail/polis/dao/mariarheon/ByteBufferUtils.toArray (179 samples, 1.33%)</title><rect x="500.6" y="195.0" width="15.6" height="15" fill="#5ff05f" rx="2" ry="2"/>
<text x="503.6" y="206.0"></text>
</g>
<g>
<title>byte[] (179 samples, 1.33%)</title><rect x="500.6" y="179.0" width="15.6" height="15" fill="#6ddbdb" rx="2" ry="2"/>
<text x="503.6" y="190.0"></text>
</g>
<g>
<title>ru/mail/polis/dao/mariarheon/DAOImpl.get (942 samples, 6.98%)</title><rect x="516.2" y="195.0" width="82.4" height="15" fill="#51e251" rx="2" ry="2"/>
<text x="519.2" y="206.0">ru/mail/p..</text>
</g>
<g>
<title>org/rocksdb/RocksDB.get (164 samples, 1.22%)</title><rect x="516.2" y="179.0" width="14.4" height="15" fill="#50e150" rx="2" ry="2"/>
<text x="519.2" y="190.0"></text>
</g>
<g>
<title>org/rocksdb/RocksDB.get (164 samples, 1.22%)</title><rect x="516.2" y="163.0" width="14.4" height="15" fill="#5ced5c" rx="2" ry="2"/>
<text x="519.2" y="174.0"></text>
</g>
<g>
<title>byte[] (164 samples, 1.22%)</title><rect x="516.2" y="147.0" width="14.4" height="15" fill="#59c7c7" rx="2" ry="2"/>
<text x="519.2" y="158.0"></text>
</g>
<g>
<title>ru/mail/polis/dao/mariarheon/ByteBufferUtils.toArrayUnsigned (423 samples, 3.14%)</title><rect x="530.6" y="179.0" width="37.0" height="15" fill="#6dfe6d" rx="2" ry="2"/>
<text x="533.6" y="190.0">ru/..</text>
</g>
<g>
<title>ru/mail/polis/dao/mariarheon/ByteBufferUtils.toArray (423 samples, 3.14%)</title><rect x="530.6" y="163.0" width="37.0" height="15" fill="#5ff05f" rx="2" ry="2"/>
<text x="533.6" y="174.0">ru/..</text>
</g>
<g>
<title>byte[] (143 samples, 1.06%)</title><rect x="530.6" y="147.0" width="12.5" height="15" fill="#62d0d0" rx="2" ry="2"/>
<text x="533.6" y="158.0"></text>
</g>
<g>
<title>java/nio/HeapByteBuffer.duplicate (280 samples, 2.08%)</title><rect x="543.1" y="147.0" width="24.5" height="15" fill="#65f665" rx="2" ry="2"/>
<text x="546.1" y="158.0">j..</text>
</g>
<g>
<title>java.nio.HeapByteBuffer (280 samples, 2.08%)</title><rect x="543.1" y="131.0" width="24.5" height="15" fill="#6ddbdb" rx="2" ry="2"/>
<text x="546.1" y="142.0">j..</text>
</g>
<g>
<title>ru/mail/polis/dao/mariarheon/ByteBufferUtils.toByteBuffer (355 samples, 2.63%)</title><rect x="567.6" y="179.0" width="31.0" height="15" fill="#5eef5e" rx="2" ry="2"/>
<text x="570.6" y="190.0">ru..</text>
</g>
<g>
<title>java/nio/ByteBuffer.wrap (355 samples, 2.63%)</title><rect x="567.6" y="163.0" width="31.0" height="15" fill="#5ff05f" rx="2" ry="2"/>
<text x="570.6" y="174.0">ja..</text>
</g>
<g>
<title>java/nio/ByteBuffer.wrap (355 samples, 2.63%)</title><rect x="567.6" y="147.0" width="31.0" height="15" fill="#5ff05f" rx="2" ry="2"/>
<text x="570.6" y="158.0">ja..</text>
</g>
<g>
<title>java.nio.HeapByteBuffer (355 samples, 2.63%)</title><rect x="567.6" y="131.0" width="31.0" height="15" fill="#53c1c1" rx="2" ry="2"/>
<text x="570.6" y="142.0">ja..</text>
</g>
<g>
<title>ru/mail/polis/service/mariarheon/AsyncServiceImpl.trySendResponse (856 samples, 6.34%)</title><rect x="598.6" y="195.0" width="74.9" height="15" fill="#53e453" rx="2" ry="2"/>
<text x="601.6" y="206.0">ru/mail/..</text>
</g>
<g>
<title>one/nio/http/HttpSession.sendResponse (856 samples, 6.34%)</title><rect x="598.6" y="179.0" width="74.9" height="15" fill="#51e251" rx="2" ry="2"/>
<text x="601.6" y="190.0">one/nio/..</text>
</g>
<g>
<title>one/nio/http/HttpSession.writeResponse (856 samples, 6.34%)</title><rect x="598.6" y="163.0" width="74.9" height="15" fill="#58e958" rx="2" ry="2"/>
<text x="601.6" y="174.0">one/nio/..</text>
</g>
<g>
<title>one/nio/http/Response.toBytes (579 samples, 4.29%)</title><rect x="598.6" y="147.0" width="50.6" height="15" fill="#51e251" rx="2" ry="2"/>
<text x="601.6" y="158.0">one/n..</text>
</g>
<g>
<title>one/nio/util/ByteArrayBuilder.&lt;init&gt; (579 samples, 4.29%)</title><rect x="598.6" y="131.0" width="50.6" height="15" fill="#50e150" rx="2" ry="2"/>
<text x="601.6" y="142.0">one/n..</text>
</g>
<g>
<title>byte[] (579 samples, 4.29%)</title><rect x="598.6" y="115.0" width="50.6" height="15" fill="#5ecccc" rx="2" ry="2"/>
<text x="601.6" y="126.0">byte[]</text>
</g>
<g>
<title>one/nio/net/Session.write (277 samples, 2.05%)</title><rect x="649.2" y="147.0" width="24.3" height="15" fill="#5bec5b" rx="2" ry="2"/>
<text x="652.2" y="158.0">o..</text>
</g>
<g>
<title>one.nio.net.Session$ArrayQueueItem (277 samples, 2.05%)</title><rect x="649.2" y="131.0" width="24.3" height="15" fill="#60cece" rx="2" ry="2"/>
<text x="652.2" y="142.0">o..</text>
</g>
<g>
<title>one/nio/server/SelectorThread.run (5,906 samples, 43.77%)</title><rect x="673.5" y="291.0" width="516.5" height="15" fill="#62f362" rx="2" ry="2"/>
<text x="676.5" y="302.0">one/nio/server/SelectorThread.run</text>
</g>
<g>
<title>one/nio/net/NativeSelector.select (201 samples, 1.49%)</title><rect x="673.5" y="275.0" width="17.5" height="15" fill="#62f362" rx="2" ry="2"/>
<text x="676.5" y="286.0"></text>
</g>
<g>
<title>one.nio.net.NativeSelector$2 (201 samples, 1.49%)</title><rect x="673.5" y="259.0" width="17.5" height="15" fill="#5ac8c8" rx="2" ry="2"/>
<text x="676.5" y="270.0"></text>
</g>
<g>
<title>one/nio/net/Session.process (5,705 samples, 42.28%)</title><rect x="691.0" y="275.0" width="499.0" height="15" fill="#5eef5e" rx="2" ry="2"/>
<text x="694.0" y="286.0">one/nio/net/Session.process</text>
</g>
<g>
<title>one/nio/http/HttpSession.processRead (5,705 samples, 42.28%)</title><rect x="691.0" y="259.0" width="499.0" height="15" fill="#56e756" rx="2" ry="2"/>
<text x="694.0" y="270.0">one/nio/http/HttpSession.processRead</text>
</g>
<g>
<title>one/nio/http/HttpSession.processHttpBuffer (5,705 samples, 42.28%)</title><rect x="691.0" y="243.0" width="499.0" height="15" fill="#67f867" rx="2" ry="2"/>
<text x="694.0" y="254.0">one/nio/http/HttpSession.processHttpBuffer</text>
</g>
<g>
<title>one/nio/http/HttpSession.handleParsedRequest (2,013 samples, 14.92%)</title><rect x="691.0" y="227.0" width="176.1" height="15" fill="#51e251" rx="2" ry="2"/>
<text x="694.0" y="238.0">one/nio/http/HttpSessio..</text>
</g>
<g>
<title>one/nio/http/HttpServer.handleRequest (2,013 samples, 14.92%)</title><rect x="691.0" y="211.0" width="176.1" height="15" fill="#66f766" rx="2" ry="2"/>
<text x="694.0" y="222.0">one/nio/http/HttpServer..</text>
</g>
<g>
<title>RequestHandler0_handleEntityRequest.handleRequest (1,458 samples, 10.81%)</title><rect x="691.0" y="195.0" width="127.6" height="15" fill="#59ea59" rx="2" ry="2"/>
<text x="694.0" y="206.0">RequestHandler0_..</text>
</g>
<g>
<title>one/nio/http/Request.getRequiredParameter (442 samples, 3.28%)</title><rect x="691.0" y="179.0" width="38.7" height="15" fill="#51e251" rx="2" ry="2"/>
<text x="694.0" y="190.0">one..</text>
</g>
<g>
<title>one/nio/http/Request.getParameter (442 samples, 3.28%)</title><rect x="691.0" y="163.0" width="38.7" height="15" fill="#68f968" rx="2" ry="2"/>
<text x="694.0" y="174.0">one..</text>
</g>
<g>
<title>java/lang/String.substring (442 samples, 3.28%)</title><rect x="691.0" y="147.0" width="38.7" height="15" fill="#5aeb5a" rx="2" ry="2"/>
<text x="694.0" y="158.0">jav..</text>
</g>
<g>
<title>java/lang/StringLatin1.newString (442 samples, 3.28%)</title><rect x="691.0" y="131.0" width="38.7" height="15" fill="#5eef5e" rx="2" ry="2"/>
<text x="694.0" y="142.0">jav..</text>
</g>
<g>
<title>java.lang.String (215 samples, 1.59%)</title><rect x="691.0" y="115.0" width="18.8" height="15" fill="#54c2c2" rx="2" ry="2"/>
<text x="694.0" y="126.0"></text>
</g>
<g>
<title>java/util/Arrays.copyOfRange (227 samples, 1.68%)</title><rect x="709.8" y="115.0" width="19.9" height="15" fill="#59ea59" rx="2" ry="2"/>
<text x="712.8" y="126.0"></text>
</g>
<g>
<title>byte[] (227 samples, 1.68%)</title><rect x="709.8" y="99.0" width="19.9" height="15" fill="#6ddbdb" rx="2" ry="2"/>
<text x="712.8" y="110.0"></text>
</g>
<g>
<title>ru/mail/polis/service/mariarheon/AsyncServiceImpl.handleEntityRequest (1,016 samples, 7.53%)</title><rect x="729.7" y="179.0" width="88.9" height="15" fill="#66f766" rx="2" ry="2"/>
<text x="732.7" y="190.0">ru/mail/po..</text>
</g>
<g>
<title>java/lang/invoke/Invokers$Holder.linkToTargetMethod (142 samples, 1.05%)</title><rect x="729.7" y="163.0" width="12.4" height="15" fill="#51e251" rx="2" ry="2"/>
<text x="732.7" y="174.0"></text>
</g>
<g>
<title>java/lang/invoke/DirectMethodHandle$Holder.invokeStatic (142 samples, 1.05%)</title><rect x="729.7" y="147.0" width="12.4" height="15" fill="#6dfe6d" rx="2" ry="2"/>
<text x="732.7" y="158.0"></text>
</g>
<g>
<title>ru/mail/polis/service/mariarheon/AsyncServiceImpl$$Lambda$75/1951744626.get$Lambda (142 samples, 1.05%)</title><rect x="729.7" y="131.0" width="12.4" height="15" fill="#56e756" rx="2" ry="2"/>
<text x="732.7" y="142.0"></text>
</g>
<g>
<title>ru.mail.polis.service.mariarheon.AsyncServiceImpl$$Lambda$75 (142 samples, 1.05%)</title><rect x="729.7" y="115.0" width="12.4" height="15" fill="#61cfcf" rx="2" ry="2"/>
<text x="732.7" y="126.0"></text>
</g>
<g>
<title>java/util/concurrent/ThreadPoolExecutor.execute (3 samples, 0.02%)</title><rect x="742.1" y="163.0" width="0.3" height="15" fill="#5eef5e" rx="2" ry="2"/>
<text x="745.1" y="174.0"></text>
</g>
<g>
<title>java/util/concurrent/ArrayBlockingQueue.offer (3 samples, 0.02%)</title><rect x="742.1" y="147.0" width="0.3" height="15" fill="#5aeb5a" rx="2" ry="2"/>
<text x="745.1" y="158.0"></text>
</g>
<g>
<title>java/util/concurrent/locks/ReentrantLock.lock (3 samples, 0.02%)</title><rect x="742.1" y="131.0" width="0.3" height="15" fill="#65f665" rx="2" ry="2"/>
<text x="745.1" y="142.0"></text>
</g>
<g>
<title>java/util/concurrent/locks/AbstractQueuedSynchronizer.acquire (3 samples, 0.02%)</title><rect x="742.1" y="115.0" width="0.3" height="15" fill="#60f160" rx="2" ry="2"/>
<text x="745.1" y="126.0"></text>
</g>
<g>
<title>java/util/concurrent/locks/AbstractQueuedSynchronizer.addWaiter (3 samples, 0.02%)</title><rect x="742.1" y="99.0" width="0.3" height="15" fill="#62f362" rx="2" ry="2"/>
<text x="745.1" y="110.0"></text>
</g>
<g>
<title>java.util.concurrent.locks.AbstractQueuedSynchronizer$Node (3 samples, 0.02%)</title><rect x="742.1" y="83.0" width="0.3" height="15" fill="#66d4d4" rx="2" ry="2"/>
<text x="745.1" y="94.0"></text>
</g>
<g>
<title>ru/mail/polis/service/mariarheon/AsyncServiceImpl.passOn (196 samples, 1.45%)</title><rect x="742.4" y="163.0" width="17.1" height="15" fill="#60f160" rx="2" ry="2"/>
<text x="745.4" y="174.0"></text>
</g>
<g>
<title>java/lang/invoke/Invokers$Holder.linkToTargetMethod (192 samples, 1.42%)</title><rect x="742.4" y="147.0" width="16.8" height="15" fill="#53e453" rx="2" ry="2"/>
<text x="745.4" y="158.0"></text>
</g>
<g>
<title>java/lang/invoke/DirectMethodHandle$Holder.invokeStatic (192 samples, 1.42%)</title><rect x="742.4" y="131.0" width="16.8" height="15" fill="#54e554" rx="2" ry="2"/>
<text x="745.4" y="142.0"></text>
</g>
<g>
<title>ru/mail/polis/service/mariarheon/AsyncServiceImpl$$Lambda$66/1991441571.get$Lambda (192 samples, 1.42%)</title><rect x="742.4" y="115.0" width="16.8" height="15" fill="#53e453" rx="2" ry="2"/>
<text x="745.4" y="126.0"></text>
</g>
<g>
<title>ru.mail.polis.service.mariarheon.AsyncServiceImpl$$Lambda$66 (192 samples, 1.42%)</title><rect x="742.4" y="99.0" width="16.8" height="15" fill="#65d3d3" rx="2" ry="2"/>
<text x="745.4" y="110.0"></text>
</g>
<g>
<title>java/util/concurrent/ThreadPoolExecutor.execute (4 samples, 0.03%)</title><rect x="759.2" y="147.0" width="0.3" height="15" fill="#66f766" rx="2" ry="2"/>
<text x="762.2" y="158.0"></text>
</g>
<g>
<title>java/util/concurrent/ArrayBlockingQueue.offer (4 samples, 0.03%)</title><rect x="759.2" y="131.0" width="0.3" height="15" fill="#5eef5e" rx="2" ry="2"/>
<text x="762.2" y="142.0"></text>
</g>
<g>
<title>java/util/concurrent/locks/ReentrantLock.lock (4 samples, 0.03%)</title><rect x="759.2" y="115.0" width="0.3" height="15" fill="#56e756" rx="2" ry="2"/>
<text x="762.2" y="126.0"></text>
</g>
<g>
<title>java/util/concurrent/locks/AbstractQueuedSynchronizer.acquire (4 samples, 0.03%)</title><rect x="759.2" y="99.0" width="0.3" height="15" fill="#6cfd6c" rx="2" ry="2"/>
<text x="762.2" y="110.0"></text>
</g>
<g>
<title>java/util/concurrent/locks/AbstractQueuedSynchronizer.addWaiter (4 samples, 0.03%)</title><rect x="759.2" y="83.0" width="0.3" height="15" fill="#57e857" rx="2" ry="2"/>
<text x="762.2" y="94.0"></text>
</g>
<g>
<title>java.util.concurrent.locks.AbstractQueuedSynchronizer$Node (4 samples, 0.03%)</title><rect x="759.2" y="67.0" width="0.3" height="15" fill="#57c5c5" rx="2" ry="2"/>
<text x="762.2" y="78.0"></text>
</g>
<g>
<title>ru/mail/polis/service/mariarheon/RendezvousSharding.getResponsibleNode (675 samples, 5.00%)</title><rect x="759.5" y="163.0" width="59.1" height="15" fill="#65f665" rx="2" ry="2"/>
<text x="762.5" y="174.0">ru/mai..</text>
</g>
<g>
<title>java.lang.Object[] (675 samples, 5.00%)</title><rect x="759.5" y="147.0" width="59.1" height="15" fill="#61cfcf" rx="2" ry="2"/>
<text x="762.5" y="158.0">java.l..</text>
</g>
<g>
<title>one/nio/http/Request.getPath (555 samples, 4.11%)</title><rect x="818.6" y="195.0" width="48.5" height="15" fill="#59ea59" rx="2" ry="2"/>
<text x="821.6" y="206.0">one/..</text>
</g>
<g>
<title>java/lang/String.substring (555 samples, 4.11%)</title><rect x="818.6" y="179.0" width="48.5" height="15" fill="#60f160" rx="2" ry="2"/>
<text x="821.6" y="190.0">java..</text>
</g>
<g>
<title>java/lang/StringLatin1.newString (555 samples, 4.11%)</title><rect x="818.6" y="163.0" width="48.5" height="15" fill="#6cfd6c" rx="2" ry="2"/>
<text x="821.6" y="174.0">java..</text>
</g>
<g>
<title>java.lang.String (234 samples, 1.73%)</title><rect x="818.6" y="147.0" width="20.4" height="15" fill="#67d5d5" rx="2" ry="2"/>
<text x="821.6" y="158.0"></text>
</g>
<g>
<title>java/util/Arrays.copyOfRange (321 samples, 2.38%)</title><rect x="839.0" y="147.0" width="28.1" height="15" fill="#64f564" rx="2" ry="2"/>
<text x="842.0" y="158.0">ja..</text>
</g>
<g>
<title>byte[] (321 samples, 2.38%)</title><rect x="839.0" y="131.0" width="28.1" height="15" fill="#58c6c6" rx="2" ry="2"/>
<text x="842.0" y="142.0">by..</text>
</g>
<g>
<title>one/nio/http/HttpSession.parseRequest (2,510 samples, 18.60%)</title><rect x="867.1" y="227.0" width="219.5" height="15" fill="#67f867" rx="2" ry="2"/>
<text x="870.1" y="238.0">one/nio/http/HttpSession.pars..</text>
</g>
<g>
<title>one.nio.http.Request (389 samples, 2.88%)</title><rect x="867.1" y="211.0" width="34.0" height="15" fill="#5dcbcb" rx="2" ry="2"/>
<text x="870.1" y="222.0">on..</text>
</g>
<g>
<title>one/nio/http/Request.&lt;init&gt; (768 samples, 5.69%)</title><rect x="901.1" y="211.0" width="67.2" height="15" fill="#59ea59" rx="2" ry="2"/>
<text x="904.1" y="222.0">one/nio..</text>
</g>
<g>
<title>java.lang.String[] (768 samples, 5.69%)</title><rect x="901.1" y="195.0" width="67.2" height="15" fill="#67d5d5" rx="2" ry="2"/>
<text x="904.1" y="206.0">java.la..</text>
</g>
<g>
<title>one/nio/util/Utf8.read (1,353 samples, 10.03%)</title><rect x="968.3" y="211.0" width="118.3" height="15" fill="#64f564" rx="2" ry="2"/>
<text x="971.3" y="222.0">one/nio/util/U..</text>
</g>
<g>
<title>one/nio/util/Utf8.read (1,353 samples, 10.03%)</title><rect x="968.3" y="195.0" width="118.3" height="15" fill="#6bfc6b" rx="2" ry="2"/>
<text x="971.3" y="206.0">one/nio/util/U..</text>
</g>
<g>
<title>char[] (714 samples, 5.29%)</title><rect x="968.3" y="179.0" width="62.4" height="15" fill="#58c6c6" rx="2" ry="2"/>
<text x="971.3" y="190.0">char[]</text>
</g>
<g>
<title>java.lang.String (261 samples, 1.93%)</title><rect x="1030.7" y="179.0" width="22.9" height="15" fill="#50bebe" rx="2" ry="2"/>
<text x="1033.7" y="190.0">j..</text>
</g>
<g>
<title>java/lang/String.&lt;init&gt; (378 samples, 2.80%)</title><rect x="1053.6" y="179.0" width="33.0" height="15" fill="#62f362" rx="2" ry="2"/>
<text x="1056.6" y="190.0">ja..</text>
</g>
<g>
<title>java/lang/String.&lt;init&gt; (378 samples, 2.80%)</title><rect x="1053.6" y="163.0" width="33.0" height="15" fill="#68f968" rx="2" ry="2"/>
<text x="1056.6" y="174.0">ja..</text>
</g>
<g>
<title>java/lang/StringUTF16.compress (378 samples, 2.80%)</title><rect x="1053.6" y="147.0" width="33.0" height="15" fill="#63f463" rx="2" ry="2"/>
<text x="1056.6" y="158.0">ja..</text>
</g>
<g>
<title>byte[] (378 samples, 2.80%)</title><rect x="1053.6" y="131.0" width="33.0" height="15" fill="#5ac8c8" rx="2" ry="2"/>
<text x="1056.6" y="142.0">by..</text>
</g>
<g>
<title>one/nio/util/Utf8.read (1,182 samples, 8.76%)</title><rect x="1086.6" y="227.0" width="103.4" height="15" fill="#5bec5b" rx="2" ry="2"/>
<text x="1089.6" y="238.0">one/nio/util..</text>
</g>
<g>
<title>one/nio/util/Utf8.read (1,182 samples, 8.76%)</title><rect x="1086.6" y="211.0" width="103.4" height="15" fill="#66f766" rx="2" ry="2"/>
<text x="1089.6" y="222.0">one/nio/util..</text>
</g>
<g>
<title>char[] (504 samples, 3.74%)</title><rect x="1086.6" y="195.0" width="44.1" height="15" fill="#5fcdcd" rx="2" ry="2"/>
<text x="1089.6" y="206.0">char[]</text>
</g>
<g>
<title>java.lang.String (271 samples, 2.01%)</title><rect x="1130.7" y="195.0" width="23.7" height="15" fill="#5fcdcd" rx="2" ry="2"/>
<text x="1133.7" y="206.0">j..</text>
</g>
<g>
<title>java/lang/String.&lt;init&gt; (407 samples, 3.02%)</title><rect x="1154.4" y="195.0" width="35.6" height="15" fill="#5eef5e" rx="2" ry="2"/>
<text x="1157.4" y="206.0">jav..</text>
</g>
<g>
<title>java/lang/String.&lt;init&gt; (407 samples, 3.02%)</title><rect x="1154.4" y="179.0" width="35.6" height="15" fill="#57e857" rx="2" ry="2"/>
<text x="1157.4" y="190.0">jav..</text>
</g>
<g>
<title>java/lang/StringUTF16.compress (407 samples, 3.02%)</title><rect x="1154.4" y="163.0" width="35.6" height="15" fill="#6dfe6d" rx="2" ry="2"/>
<text x="1157.4" y="174.0">jav..</text>
</g>
<g>
<title>byte[] (407 samples, 3.02%)</title><rect x="1154.4" y="147.0" width="35.6" height="15" fill="#64d2d2" rx="2" ry="2"/>
<text x="1157.4" y="158.0">byt..</text>
</g>
</g>
</svg>
