<?xml version="1.0" standalone="no"?>
<!DOCTYPE svg PUBLIC "-//W3C//DTD SVG 1.1//EN" "http://www.w3.org/Graphics/SVG/1.1/DTD/svg11.dtd">
<svg version="1.1" width="1200" height="358" onload="init(evt)" viewBox="0 0 1200 358" xmlns="http://www.w3.org/2000/svg" xmlns:xlink="http://www.w3.org/1999/xlink">
<style type="text/css">
	text { font-family:Verdana; font-size:12px; fill:rgb(0,0,0); }
	#search { opacity:0.1; cursor:pointer; }
	#search:hover, #search.show { opacity:1; }
	#subtitle { text-anchor:middle; font-color:rgb(160,160,160); }
	#title { text-anchor:middle; font-size:17px}
	#unzoom { cursor:pointer; }
	#frames > *:hover { stroke:black; stroke-width:0.5; cursor:pointer; }
	.hide { display:none; }
	.parent { opacity:0.5; }
</style>
<script type="text/ecmascript">
<![CDATA[
	"use strict";
	var details, searchbtn, unzoombtn, matchedtxt, svg, searching;
	function init(evt) {
		details = document.getElementById("details").firstChild;
		searchbtn = document.getElementById("search");
		unzoombtn = document.getElementById("unzoom");
		matchedtxt = document.getElementById("matched");
		svg = document.getElementsByTagName("svg")[0];
		searching = 0;
	}

	window.addEventListener("click", function(e) {
		var target = find_group(e.target);
		if (target) {
			if (target.nodeName == "a") {
				if (e.ctrlKey === false) return;
				e.preventDefault();
			}
			if (target.classList.contains("parent")) unzoom();
			zoom(target);
		}
		else if (e.target.id == "unzoom") unzoom();
		else if (e.target.id == "search") search_prompt();
	}, false)

	// mouse-over for info
	// show
	window.addEventListener("mouseover", function(e) {
		var target = find_group(e.target);
		if (target) details.nodeValue = "Function: " + g_to_text(target);
	}, false)

	// clear
	window.addEventListener("mouseout", function(e) {
		var target = find_group(e.target);
		if (target) details.nodeValue = ' ';
	}, false)

	// ctrl-F for search
	window.addEventListener("keydown",function (e) {
		if (e.keyCode === 114 || (e.ctrlKey && e.keyCode === 70)) {
			e.preventDefault();
			search_prompt();
		}
	}, false)

	// functions
	function find_child(node, selector) {
		var children = node.querySelectorAll(selector);
		if (children.length) return children[0];
		return;
	}
	function find_group(node) {
		var parent = node.parentElement;
		if (!parent) return;
		if (parent.id == "frames") return node;
		return find_group(parent);
	}
	function orig_save(e, attr, val) {
		if (e.attributes["_orig_" + attr] != undefined) return;
		if (e.attributes[attr] == undefined) return;
		if (val == undefined) val = e.attributes[attr].value;
		e.setAttribute("_orig_" + attr, val);
	}
	function orig_load(e, attr) {
		if (e.attributes["_orig_"+attr] == undefined) return;
		e.attributes[attr].value = e.attributes["_orig_" + attr].value;
		e.removeAttribute("_orig_"+attr);
	}
	function g_to_text(e) {
		var text = find_child(e, "title").firstChild.nodeValue;
		return (text)
	}
	function g_to_func(e) {
		var func = g_to_text(e);
		// if there's any manipulation we want to do to the function
		// name before it's searched, do it here before returning.
		return (func);
	}
	function update_text(e) {
		var r = find_child(e, "rect");
		var t = find_child(e, "text");
		var w = parseFloat(r.attributes.width.value) -3;
		var txt = find_child(e, "title").textContent.replace(/\([^(]*\)$/,"");
		t.attributes.x.value = parseFloat(r.attributes.x.value) + 3;

		// Smaller than this size won't fit anything
		if (w < 2 * 12 * 0.59) {
			t.textContent = "";
			return;
		}

		t.textContent = txt;
		// Fit in full text width
		if (/^ *$/.test(txt) || t.getSubStringLength(0, txt.length) < w)
			return;

		for (var x = txt.length - 2; x > 0; x--) {
			if (t.getSubStringLength(0, x + 2) <= w) {
				t.textContent = txt.substring(0, x) + "..";
				return;
			}
		}
		t.textContent = "";
	}

	// zoom
	function zoom_reset(e) {
		if (e.attributes != undefined) {
			orig_load(e, "x");
			orig_load(e, "width");
		}
		if (e.childNodes == undefined) return;
		for (var i = 0, c = e.childNodes; i < c.length; i++) {
			zoom_reset(c[i]);
		}
	}
	function zoom_child(e, x, ratio) {
		if (e.attributes != undefined) {
			if (e.attributes.x != undefined) {
				orig_save(e, "x");
				e.attributes.x.value = (parseFloat(e.attributes.x.value) - x - 10) * ratio + 10;
				if (e.tagName == "text")
					e.attributes.x.value = find_child(e.parentNode, "rect[x]").attributes.x.value + 3;
			}
			if (e.attributes.width != undefined) {
				orig_save(e, "width");
				e.attributes.width.value = parseFloat(e.attributes.width.value) * ratio;
			}
		}

		if (e.childNodes == undefined) return;
		for (var i = 0, c = e.childNodes; i < c.length; i++) {
			zoom_child(c[i], x - 10, ratio);
		}
	}
	function zoom_parent(e) {
		if (e.attributes) {
			if (e.attributes.x != undefined) {
				orig_save(e, "x");
				e.attributes.x.value = 10;
			}
			if (e.attributes.width != undefined) {
				orig_save(e, "width");
				e.attributes.width.value = parseInt(svg.width.baseVal.value) - (10 * 2);
			}
		}
		if (e.childNodes == undefined) return;
		for (var i = 0, c = e.childNodes; i < c.length; i++) {
			zoom_parent(c[i]);
		}
	}
	function zoom(node) {
		var attr = find_child(node, "rect").attributes;
		var width = parseFloat(attr.width.value);
		var xmin = parseFloat(attr.x.value);
		var xmax = parseFloat(xmin + width);
		var ymin = parseFloat(attr.y.value);
		var ratio = (svg.width.baseVal.value - 2 * 10) / width;

		// XXX: Workaround for JavaScript float issues (fix me)
		var fudge = 0.0001;

		unzoombtn.classList.remove("hide");

		var el = document.getElementById("frames").children;
		for (var i = 0; i < el.length; i++) {
			var e = el[i];
			var a = find_child(e, "rect").attributes;
			var ex = parseFloat(a.x.value);
			var ew = parseFloat(a.width.value);
			var upstack;
			// Is it an ancestor
			if (0 == 0) {
				upstack = parseFloat(a.y.value) > ymin;
			} else {
				upstack = parseFloat(a.y.value) < ymin;
			}
			if (upstack) {
				// Direct ancestor
				if (ex <= xmin && (ex+ew+fudge) >= xmax) {
					e.classList.add("parent");
					zoom_parent(e);
					update_text(e);
				}
				// not in current path
				else
					e.classList.add("hide");
			}
			// Children maybe
			else {
				// no common path
				if (ex < xmin || ex + fudge >= xmax) {
					e.classList.add("hide");
				}
				else {
					zoom_child(e, xmin, ratio);
					update_text(e);
				}
			}
		}
	}
	function unzoom() {
		unzoombtn.classList.add("hide");
		var el = document.getElementById("frames").children;
		for(var i = 0; i < el.length; i++) {
			el[i].classList.remove("parent");
			el[i].classList.remove("hide");
			zoom_reset(el[i]);
			update_text(el[i]);
		}
	}

	// search
	function reset_search() {
		var el = document.querySelectorAll("#frames rect");
		for (var i = 0; i < el.length; i++) {
			orig_load(el[i], "fill")
		}
	}
	function search_prompt() {
		if (!searching) {
			var term = prompt("Enter a search term (regexp " +
			    "allowed, eg: ^ext4_)", "");
			if (term != null) {
				search(term)
			}
		} else {
			reset_search();
			searching = 0;
			searchbtn.classList.remove("show");
			searchbtn.firstChild.nodeValue = "Search"
			matchedtxt.classList.add("hide");
			matchedtxt.firstChild.nodeValue = ""
		}
	}
	function search(term) {
		var re = new RegExp(term);
		var el = document.getElementById("frames").children;
		var matches = new Object();
		var maxwidth = 0;
		for (var i = 0; i < el.length; i++) {
			var e = el[i];
			var func = g_to_func(e);
			var rect = find_child(e, "rect");
			if (func == null || rect == null)
				continue;

			// Save max width. Only works as we have a root frame
			var w = parseFloat(rect.attributes.width.value);
			if (w > maxwidth)
				maxwidth = w;

			if (func.match(re)) {
				// highlight
				var x = parseFloat(rect.attributes.x.value);
				orig_save(rect, "fill");
				rect.attributes.fill.value = "rgb(230,0,230)";

				// remember matches
				if (matches[x] == undefined) {
					matches[x] = w;
				} else {
					if (w > matches[x]) {
						// overwrite with parent
						matches[x] = w;
					}
				}
				searching = 1;
			}
		}
		if (!searching)
			return;

		searchbtn.classList.add("show");
		searchbtn.firstChild.nodeValue = "Reset Search";

		// calculate percent matched, excluding vertical overlap
		var count = 0;
		var lastx = -1;
		var lastw = 0;
		var keys = Array();
		for (k in matches) {
			if (matches.hasOwnProperty(k))
				keys.push(k);
		}
		// sort the matched frames by their x location
		// ascending, then width descending
		keys.sort(function(a, b){
			return a - b;
		});
		// Step through frames saving only the biggest bottom-up frames
		// thanks to the sort order. This relies on the tree property
		// where children are always smaller than their parents.
		var fudge = 0.0001;	// JavaScript floating point
		for (var k in keys) {
			var x = parseFloat(keys[k]);
			var w = matches[keys[k]];
			if (x >= lastx + lastw - fudge) {
				count += w;
				lastx = x;
				lastw = w;
			}
		}
		// display matched percent
		matchedtxt.classList.remove("hide");
		var pct = 100 * count / maxwidth;
		if (pct != 100) pct = pct.toFixed(1)
		matchedtxt.firstChild.nodeValue = "Matched: " + pct + "%";
	}
]]>
</script>
<rect x="0" y="0" width="100%" height="100%" fill="rgb(240,240,220)"/>
<text id="title" x="600" y="24">Flame Graph</text>
<text id="details" x="10" y="341"> </text>
<text id="unzoom" x="10" y="24" class="hide">Reset Zoom</text>
<text id="search" x="1090" y="24">Search</text>
<text id="matched" x="1090" y="341"> </text>
<g id="frames">
<g>
<title>all (12,466 samples, 100.00%)</title><rect x="10.0" y="307.0" width="1180.0" height="15" fill="#ee6c6c" rx="2" ry="2"/>
<text x="13.0" y="318.0">all</text>
</g>
<g>
<title>java/lang/Thread.run (8,757 samples, 70.25%)</title><rect x="10.0" y="291.0" width="828.9" height="15" fill="#68f968" rx="2" ry="2"/>
<text x="13.0" y="302.0">java/lang/Thread.run</text>
</g>
<g>
<title>java/util/concurrent/ThreadPoolExecutor$Worker.run (8,757 samples, 70.25%)</title><rect x="10.0" y="275.0" width="828.9" height="15" fill="#6afb6a" rx="2" ry="2"/>
<text x="13.0" y="286.0">java/util/concurrent/ThreadPoolExecutor$Worker.run</text>
</g>
<g>
<title>java/util/concurrent/ThreadPoolExecutor.runWorker (8,757 samples, 70.25%)</title><rect x="10.0" y="259.0" width="828.9" height="15" fill="#65f665" rx="2" ry="2"/>
<text x="13.0" y="270.0">java/util/concurrent/ThreadPoolExecutor.runWorker</text>
</g>
<g>
<title>java/util/concurrent/ThreadPoolExecutor.getTask (174 samples, 1.40%)</title><rect x="10.0" y="243.0" width="16.5" height="15" fill="#5ced5c" rx="2" ry="2"/>
<text x="13.0" y="254.0"></text>
</g>
<g>
<title>java/util/concurrent/ArrayBlockingQueue.take (174 samples, 1.40%)</title><rect x="10.0" y="227.0" width="16.5" height="15" fill="#55e655" rx="2" ry="2"/>
<text x="13.0" y="238.0"></text>
</g>
<g>
<title>java/util/concurrent/locks/AbstractQueuedSynchronizer$ConditionObject.await (174 samples, 1.40%)</title><rect x="10.0" y="211.0" width="16.5" height="15" fill="#69fa69" rx="2" ry="2"/>
<text x="13.0" y="222.0"></text>
</g>
<g>
<title>java/util/concurrent/locks/AbstractQueuedSynchronizer$ConditionObject.addConditionWaiter (174 samples, 1.40%)</title><rect x="10.0" y="195.0" width="16.5" height="15" fill="#54e554" rx="2" ry="2"/>
<text x="13.0" y="206.0"></text>
</g>
<g>
<title>java.util.concurrent.locks.AbstractQueuedSynchronizer$Node (174 samples, 1.40%)</title><rect x="10.0" y="179.0" width="16.5" height="15" fill="#64d2d2" rx="2" ry="2"/>
<text x="13.0" y="190.0"></text>
</g>
<g>
<title>ru/mail/polis/service/mariarheon/AsyncServiceImpl$$Lambda$70/502171037.run (5,446 samples, 43.69%)</title><rect x="26.5" y="243.0" width="515.5" height="15" fill="#59ea59" rx="2" ry="2"/>
<text x="29.5" y="254.0">ru/mail/polis/service/mariarheon/AsyncServiceImpl$$Lambda$70/502171037...</text>
</g>
<g>
<title>ru/mail/polis/service/mariarheon/AsyncServiceImpl.lambda$passOn$1 (5,446 samples, 43.69%)</title><rect x="26.5" y="227.0" width="515.5" height="15" fill="#5aeb5a" rx="2" ry="2"/>
<text x="29.5" y="238.0">ru/mail/polis/service/mariarheon/AsyncServiceImpl.lambda$passOn$1</text>
</g>
<g>
<title>ru/mail/polis/service/mariarheon/AsyncServiceImpl.passOnInternal (5,446 samples, 43.69%)</title><rect x="26.5" y="211.0" width="515.5" height="15" fill="#5ff05f" rx="2" ry="2"/>
<text x="29.5" y="222.0">ru/mail/polis/service/mariarheon/AsyncServiceImpl.passOnInternal</text>
</g>
<g>
<title>one/nio/http/HttpSession.sendResponse (69 samples, 0.55%)</title><rect x="26.5" y="195.0" width="6.5" height="15" fill="#5dee5d" rx="2" ry="2"/>
<text x="29.5" y="206.0"></text>
</g>
<g>
<title>one/nio/http/HttpSession.writeResponse (69 samples, 0.55%)</title><rect x="26.5" y="179.0" width="6.5" height="15" fill="#63f463" rx="2" ry="2"/>
<text x="29.5" y="190.0"></text>
</g>
<g>
<title>one/nio/http/Response.toBytes (48 samples, 0.39%)</title><rect x="26.5" y="163.0" width="4.5" height="15" fill="#65f665" rx="2" ry="2"/>
<text x="29.5" y="174.0"></text>
</g>
<g>
<title>one/nio/util/ByteArrayBuilder.&lt;init&gt; (48 samples, 0.39%)</title><rect x="26.5" y="147.0" width="4.5" height="15" fill="#5dee5d" rx="2" ry="2"/>
<text x="29.5" y="158.0"></text>
</g>
<g>
<title>byte[] (48 samples, 0.39%)</title><rect x="26.5" y="131.0" width="4.5" height="15" fill="#60cece" rx="2" ry="2"/>
<text x="29.5" y="142.0"></text>
</g>
<g>
<title>one/nio/net/Session.write (21 samples, 0.17%)</title><rect x="31.0" y="163.0" width="2.0" height="15" fill="#50e150" rx="2" ry="2"/>
<text x="34.0" y="174.0"></text>
</g>
<g>
<title>one.nio.net.Session$ArrayQueueItem (21 samples, 0.17%)</title><rect x="31.0" y="147.0" width="2.0" height="15" fill="#58c6c6" rx="2" ry="2"/>
<text x="34.0" y="158.0"></text>
</g>
<g>
<title>ru/mail/polis/service/mariarheon/RendezvousSharding.passOn (5,377 samples, 43.13%)</title><rect x="33.0" y="195.0" width="509.0" height="15" fill="#55e655" rx="2" ry="2"/>
<text x="36.0" y="206.0">ru/mail/polis/service/mariarheon/RendezvousSharding.passOn</text>
</g>
<g>
<title>one/nio/http/HttpClient.invoke (5,377 samples, 43.13%)</title><rect x="33.0" y="179.0" width="509.0" height="15" fill="#64f564" rx="2" ry="2"/>
<text x="36.0" y="190.0">one/nio/http/HttpClient.invoke</text>
</g>
<g>
<title>one/nio/http/HttpClient.invoke (5,377 samples, 43.13%)</title><rect x="33.0" y="163.0" width="509.0" height="15" fill="#5dee5d" rx="2" ry="2"/>
<text x="36.0" y="174.0">one/nio/http/HttpClient.invoke</text>
</g>
<g>
<title>one.nio.http.HttpClient$ResponseReader (4 samples, 0.03%)</title><rect x="33.0" y="147.0" width="0.4" height="15" fill="#57c5c5" rx="2" ry="2"/>
<text x="36.0" y="158.0"></text>
</g>
<g>
<title>one/nio/http/HttpClient$ResponseReader.&lt;init&gt; (4,976 samples, 39.92%)</title><rect x="33.4" y="147.0" width="471.0" height="15" fill="#63f463" rx="2" ry="2"/>
<text x="36.4" y="158.0">one/nio/http/HttpClient$ResponseReader.&lt;init&gt;</text>
</g>
<g>
<title>byte[] (2,669 samples, 21.41%)</title><rect x="33.4" y="131.0" width="252.6" height="15" fill="#56c4c4" rx="2" ry="2"/>
<text x="36.4" y="142.0">byte[]</text>
</g>
<g>
<title>byte[] (2,307 samples, 18.51%)</title><rect x="286.0" y="131.0" width="218.4" height="15" fill="#eb8700" rx="2" ry="2"/>
<text x="289.0" y="142.0">byte[]</text>
</g>
<g>
<title>one/nio/http/HttpClient$ResponseReader.readResponse (323 samples, 2.59%)</title><rect x="504.4" y="147.0" width="30.6" height="15" fill="#5ff05f" rx="2" ry="2"/>
<text x="507.4" y="158.0">on..</text>
</g>
<g>
<title>java/lang/String.substring (7 samples, 0.06%)</title><rect x="504.6" y="131.0" width="0.6" height="15" fill="#5ced5c" rx="2" ry="2"/>
<text x="507.6" y="142.0"></text>
</g>
<g>
<title>java/lang/StringLatin1.newString (7 samples, 0.06%)</title><rect x="504.6" y="115.0" width="0.6" height="15" fill="#5aeb5a" rx="2" ry="2"/>
<text x="507.6" y="126.0"></text>
</g>
<g>
<title>java/util/Arrays.copyOfRange (6 samples, 0.05%)</title><rect x="504.7" y="99.0" width="0.5" height="15" fill="#51e251" rx="2" ry="2"/>
<text x="507.7" y="110.0"></text>
</g>
<g>
<title>byte[] (6 samples, 0.05%)</title><rect x="504.7" y="83.0" width="0.5" height="15" fill="#52c0c0" rx="2" ry="2"/>
<text x="507.7" y="94.0"></text>
</g>
<g>
<title>one/nio/http/HttpClient$ResponseReader.readLine (296 samples, 2.37%)</title><rect x="505.4" y="131.0" width="28.1" height="15" fill="#68f968" rx="2" ry="2"/>
<text x="508.4" y="142.0">on..</text>
</g>
<g>
<title>one/nio/util/Utf8.read (296 samples, 2.37%)</title><rect x="505.4" y="115.0" width="28.1" height="15" fill="#6afb6a" rx="2" ry="2"/>
<text x="508.4" y="126.0">on..</text>
</g>
<g>
<title>one/nio/util/Utf8.read (296 samples, 2.37%)</title><rect x="505.4" y="99.0" width="28.1" height="15" fill="#6dfe6d" rx="2" ry="2"/>
<text x="508.4" y="110.0">on..</text>
</g>
<g>
<title>char[] (260 samples, 2.09%)</title><rect x="505.4" y="83.0" width="24.6" height="15" fill="#5fcdcd" rx="2" ry="2"/>
<text x="508.4" y="94.0">c..</text>
</g>
<g>
<title>java.lang.String (14 samples, 0.11%)</title><rect x="530.0" y="83.0" width="1.4" height="15" fill="#58c6c6" rx="2" ry="2"/>
<text x="533.0" y="94.0"></text>
</g>
<g>
<title>java/lang/String.&lt;init&gt; (22 samples, 0.18%)</title><rect x="531.4" y="83.0" width="2.1" height="15" fill="#55e655" rx="2" ry="2"/>
<text x="534.4" y="94.0"></text>
</g>
<g>
<title>java/lang/String.&lt;init&gt; (22 samples, 0.18%)</title><rect x="531.4" y="67.0" width="2.1" height="15" fill="#5aeb5a" rx="2" ry="2"/>
<text x="534.4" y="78.0"></text>
</g>
<g>
<title>java/lang/StringUTF16.compress (22 samples, 0.18%)</title><rect x="531.4" y="51.0" width="2.1" height="15" fill="#5dee5d" rx="2" ry="2"/>
<text x="534.4" y="62.0"></text>
</g>
<g>
<title>byte[] (22 samples, 0.18%)</title><rect x="531.4" y="35.0" width="2.1" height="15" fill="#69d7d7" rx="2" ry="2"/>
<text x="534.4" y="46.0"></text>
</g>
<g>
<title>one/nio/http/Response.&lt;init&gt; (7 samples, 0.06%)</title><rect x="533.5" y="131.0" width="0.6" height="15" fill="#64f564" rx="2" ry="2"/>
<text x="536.5" y="142.0"></text>
</g>
<g>
<title>java.lang.String[] (7 samples, 0.06%)</title><rect x="533.5" y="115.0" width="0.6" height="15" fill="#67d5d5" rx="2" ry="2"/>
<text x="536.5" y="126.0"></text>
</g>
<g>
<title>one/nio/http/Response.getHeader (9 samples, 0.07%)</title><rect x="534.1" y="131.0" width="0.9" height="15" fill="#5bec5b" rx="2" ry="2"/>
<text x="537.1" y="142.0"></text>
</g>
<g>
<title>java/lang/String.substring (9 samples, 0.07%)</title><rect x="534.1" y="115.0" width="0.9" height="15" fill="#54e554" rx="2" ry="2"/>
<text x="537.1" y="126.0"></text>
</g>
<g>
<title>java/lang/StringLatin1.newString (9 samples, 0.07%)</title><rect x="534.1" y="99.0" width="0.9" height="15" fill="#5ced5c" rx="2" ry="2"/>
<text x="537.1" y="110.0"></text>
</g>
<g>
<title>java.lang.String (5 samples, 0.04%)</title><rect x="534.1" y="83.0" width="0.5" height="15" fill="#53c1c1" rx="2" ry="2"/>
<text x="537.1" y="94.0"></text>
</g>
<g>
<title>java/util/Arrays.copyOfRange (4 samples, 0.03%)</title><rect x="534.6" y="83.0" width="0.4" height="15" fill="#62f362" rx="2" ry="2"/>
<text x="537.6" y="94.0"></text>
</g>
<g>
<title>byte[] (4 samples, 0.03%)</title><rect x="534.6" y="67.0" width="0.4" height="15" fill="#6ddbdb" rx="2" ry="2"/>
<text x="537.6" y="78.0"></text>
</g>
<g>
<title>one/nio/http/Request.toBytes (65 samples, 0.52%)</title><rect x="535.0" y="147.0" width="6.1" height="15" fill="#53e453" rx="2" ry="2"/>
<text x="538.0" y="158.0"></text>
</g>
<g>
<title>one/nio/util/ByteArrayBuilder.&lt;init&gt; (65 samples, 0.52%)</title><rect x="535.0" y="131.0" width="6.1" height="15" fill="#6afb6a" rx="2" ry="2"/>
<text x="538.0" y="142.0"></text>
</g>
<g>
<title>byte[] (65 samples, 0.52%)</title><rect x="535.0" y="115.0" width="6.1" height="15" fill="#54c2c2" rx="2" ry="2"/>
<text x="538.0" y="126.0"></text>
</g>
<g>
<title>one/nio/http/Response.getHeader (4 samples, 0.03%)</title><rect x="541.1" y="147.0" width="0.4" height="15" fill="#68f968" rx="2" ry="2"/>
<text x="544.1" y="158.0"></text>
</g>
<g>
<title>java/lang/String.substring (4 samples, 0.03%)</title><rect x="541.1" y="131.0" width="0.4" height="15" fill="#59ea59" rx="2" ry="2"/>
<text x="544.1" y="142.0"></text>
</g>
<g>
<title>java/lang/StringLatin1.newString (4 samples, 0.03%)</title><rect x="541.1" y="115.0" width="0.4" height="15" fill="#5bec5b" rx="2" ry="2"/>
<text x="544.1" y="126.0"></text>
</g>
<g>
<title>one/nio/pool/Pool.returnObject (5 samples, 0.04%)</title><rect x="541.5" y="147.0" width="0.5" height="15" fill="#5dee5d" rx="2" ry="2"/>
<text x="544.5" y="158.0"></text>
</g>
<g>
<title>java/util/LinkedList.addFirst (5 samples, 0.04%)</title><rect x="541.5" y="131.0" width="0.5" height="15" fill="#5ff05f" rx="2" ry="2"/>
<text x="544.5" y="142.0"></text>
</g>
<g>
<title>java/util/LinkedList.linkFirst (5 samples, 0.04%)</title><rect x="541.5" y="115.0" width="0.5" height="15" fill="#66f766" rx="2" ry="2"/>
<text x="544.5" y="126.0"></text>
</g>
<g>
<title>java.util.LinkedList$Node (5 samples, 0.04%)</title><rect x="541.5" y="99.0" width="0.5" height="15" fill="#6ddbdb" rx="2" ry="2"/>
<text x="544.5" y="110.0"></text>
</g>
<g>
<title>ru/mail/polis/service/mariarheon/AsyncServiceImpl$$Lambda$73/1659544978.run (3,137 samples, 25.16%)</title><rect x="542.0" y="243.0" width="296.9" height="15" fill="#6cfd6c" rx="2" ry="2"/>
<text x="545.0" y="254.0">ru/mail/polis/service/mariarheon/AsyncSe..</text>
</g>
<g>
<title>ru/mail/polis/service/mariarheon/AsyncServiceImpl.lambda$handleEntityRequest$0 (3,137 samples, 25.16%)</title><rect x="542.0" y="227.0" width="296.9" height="15" fill="#52e352" rx="2" ry="2"/>
<text x="545.0" y="238.0">ru/mail/polis/service/mariarheon/AsyncSe..</text>
</g>
<g>
<title>ru/mail/polis/service/mariarheon/AsyncServiceImpl.put (3,137 samples, 25.16%)</title><rect x="542.0" y="211.0" width="296.9" height="15" fill="#50e150" rx="2" ry="2"/>
<text x="545.0" y="222.0">ru/mail/polis/service/mariarheon/AsyncSe..</text>
</g>
<g>
<title>java/lang/String.getBytes (336 samples, 2.70%)</title><rect x="542.0" y="195.0" width="31.8" height="15" fill="#51e251" rx="2" ry="2"/>
<text x="545.0" y="206.0">ja..</text>
</g>
<g>
<title>java/lang/StringCoding.encode (336 samples, 2.70%)</title><rect x="542.0" y="179.0" width="31.8" height="15" fill="#6afb6a" rx="2" ry="2"/>
<text x="545.0" y="190.0">ja..</text>
</g>
<g>
<title>java/lang/StringCoding.encodeUTF8 (336 samples, 2.70%)</title><rect x="542.0" y="163.0" width="31.8" height="15" fill="#6afb6a" rx="2" ry="2"/>
<text x="545.0" y="174.0">ja..</text>
</g>
<g>
<title>java/util/Arrays.copyOf (336 samples, 2.70%)</title><rect x="542.0" y="147.0" width="31.8" height="15" fill="#51e251" rx="2" ry="2"/>
<text x="545.0" y="158.0">ja..</text>
</g>
<g>
<title>byte[] (336 samples, 2.70%)</title><rect x="542.0" y="131.0" width="31.8" height="15" fill="#5ccaca" rx="2" ry="2"/>
<text x="545.0" y="142.0">by..</text>
</g>
<g>
<title>one/nio/http/HttpSession.sendResponse (749 samples, 6.01%)</title><rect x="573.8" y="195.0" width="70.9" height="15" fill="#55e655" rx="2" ry="2"/>
<text x="576.8" y="206.0">one/nio/..</text>
</g>
<g>
<title>one/nio/http/HttpSession.writeResponse (749 samples, 6.01%)</title><rect x="573.8" y="179.0" width="70.9" height="15" fill="#56e756" rx="2" ry="2"/>
<text x="576.8" y="190.0">one/nio/..</text>
</g>
<g>
<title>one/nio/http/Response.toBytes (680 samples, 5.45%)</title><rect x="573.8" y="163.0" width="64.3" height="15" fill="#67f867" rx="2" ry="2"/>
<text x="576.8" y="174.0">one/nio..</text>
</g>
<g>
<title>one/nio/util/ByteArrayBuilder.&lt;init&gt; (680 samples, 5.45%)</title><rect x="573.8" y="147.0" width="64.3" height="15" fill="#62f362" rx="2" ry="2"/>
<text x="576.8" y="158.0">one/nio..</text>
</g>
<g>
<title>byte[] (680 samples, 5.45%)</title><rect x="573.8" y="131.0" width="64.3" height="15" fill="#52c0c0" rx="2" ry="2"/>
<text x="576.8" y="142.0">byte[]</text>
</g>
<g>
<title>one/nio/net/Session.write (69 samples, 0.55%)</title><rect x="638.1" y="163.0" width="6.6" height="15" fill="#5dee5d" rx="2" ry="2"/>
<text x="641.1" y="174.0"></text>
</g>
<g>
<title>one.nio.net.Session$ArrayQueueItem (69 samples, 0.55%)</title><rect x="638.1" y="147.0" width="6.6" height="15" fill="#5ccaca" rx="2" ry="2"/>
<text x="641.1" y="158.0"></text>
</g>
<g>
<title>ru.mail.polis.service.mariarheon.ZeroResponse (36 samples, 0.29%)</title><rect x="644.7" y="195.0" width="3.4" height="15" fill="#5dcbcb" rx="2" ry="2"/>
<text x="647.7" y="206.0"></text>
</g>
<g>
<title>ru/mail/polis/dao/mariarheon/ByteBufferUtils.toByteBuffer (777 samples, 6.23%)</title><rect x="648.1" y="195.0" width="73.5" height="15" fill="#62f362" rx="2" ry="2"/>
<text x="651.1" y="206.0">ru/mail/..</text>
</g>
<g>
<title>java/nio/ByteBuffer.wrap (777 samples, 6.23%)</title><rect x="648.1" y="179.0" width="73.5" height="15" fill="#69fa69" rx="2" ry="2"/>
<text x="651.1" y="190.0">java/nio..</text>
</g>
<g>
<title>java/nio/ByteBuffer.wrap (777 samples, 6.23%)</title><rect x="648.1" y="163.0" width="73.5" height="15" fill="#60f160" rx="2" ry="2"/>
<text x="651.1" y="174.0">java/nio..</text>
</g>
<g>
<title>java.nio.HeapByteBuffer (777 samples, 6.23%)</title><rect x="648.1" y="147.0" width="73.5" height="15" fill="#56c4c4" rx="2" ry="2"/>
<text x="651.1" y="158.0">java.nio..</text>
</g>
<g>
<title>ru/mail/polis/dao/mariarheon/DAOImpl.upsert (944 samples, 7.57%)</title><rect x="721.6" y="195.0" width="89.4" height="15" fill="#68f968" rx="2" ry="2"/>
<text x="724.6" y="206.0">ru/mail/po..</text>
</g>
<g>
<title>ru/mail/polis/dao/mariarheon/ByteBufferUtils.toArray (670 samples, 5.37%)</title><rect x="721.6" y="179.0" width="63.5" height="15" fill="#64f564" rx="2" ry="2"/>
<text x="724.6" y="190.0">ru/mail..</text>
</g>
<g>
<title>byte[] (42 samples, 0.34%)</title><rect x="721.6" y="163.0" width="4.0" height="15" fill="#52c0c0" rx="2" ry="2"/>
<text x="724.6" y="174.0"></text>
</g>
<g>
<title>java/nio/HeapByteBuffer.duplicate (628 samples, 5.04%)</title><rect x="725.6" y="163.0" width="59.5" height="15" fill="#6cfd6c" rx="2" ry="2"/>
<text x="728.6" y="174.0">java/n..</text>
</g>
<g>
<title>java.nio.HeapByteBuffer (628 samples, 5.04%)</title><rect x="725.6" y="147.0" width="59.5" height="15" fill="#5ecccc" rx="2" ry="2"/>
<text x="728.6" y="158.0">java.n..</text>
</g>
<g>
<title>ru/mail/polis/dao/mariarheon/ByteBufferUtils.toArrayUnsigned (274 samples, 2.20%)</title><rect x="785.1" y="179.0" width="25.9" height="15" fill="#5bec5b" rx="2" ry="2"/>
<text x="788.1" y="190.0">r..</text>
</g>
<g>
<title>ru/mail/polis/dao/mariarheon/ByteBufferUtils.toArray (274 samples, 2.20%)</title><rect x="785.1" y="163.0" width="25.9" height="15" fill="#5aeb5a" rx="2" ry="2"/>
<text x="788.1" y="174.0">r..</text>
</g>
<g>
<title>byte[] (77 samples, 0.62%)</title><rect x="785.1" y="147.0" width="7.2" height="15" fill="#6bd9d9" rx="2" ry="2"/>
<text x="788.1" y="158.0"></text>
</g>
<g>
<title>java/nio/HeapByteBuffer.duplicate (197 samples, 1.58%)</title><rect x="792.3" y="147.0" width="18.7" height="15" fill="#6bfc6b" rx="2" ry="2"/>
<text x="795.3" y="158.0"></text>
</g>
<g>
<title>java.nio.HeapByteBuffer (197 samples, 1.58%)</title><rect x="792.3" y="131.0" width="18.7" height="15" fill="#53c1c1" rx="2" ry="2"/>
<text x="795.3" y="142.0"></text>
</g>
<g>
<title>ru/mail/polis/service/mariarheon/ZeroResponse.&lt;init&gt; (295 samples, 2.37%)</title><rect x="811.0" y="195.0" width="27.9" height="15" fill="#6bfc6b" rx="2" ry="2"/>
<text x="814.0" y="206.0">r..</text>
</g>
<g>
<title>one/nio/http/Response.&lt;init&gt; (295 samples, 2.37%)</title><rect x="811.0" y="179.0" width="27.9" height="15" fill="#6afb6a" rx="2" ry="2"/>
<text x="814.0" y="190.0">o..</text>
</g>
<g>
<title>java.lang.String[] (295 samples, 2.37%)</title><rect x="811.0" y="163.0" width="27.9" height="15" fill="#55c3c3" rx="2" ry="2"/>
<text x="814.0" y="174.0">j..</text>
</g>
<g>
<title>one/nio/server/SelectorThread.run (3,709 samples, 29.75%)</title><rect x="838.9" y="291.0" width="351.1" height="15" fill="#6bfc6b" rx="2" ry="2"/>
<text x="841.9" y="302.0">one/nio/server/SelectorThread.run</text>
</g>
<g>
<title>one/nio/net/NativeSelector.select (99 samples, 0.79%)</title><rect x="838.9" y="275.0" width="9.4" height="15" fill="#6bfc6b" rx="2" ry="2"/>
<text x="841.9" y="286.0"></text>
</g>
<g>
<title>one.nio.net.NativeSelector$2 (99 samples, 0.79%)</title><rect x="838.9" y="259.0" width="9.4" height="15" fill="#52c0c0" rx="2" ry="2"/>
<text x="841.9" y="270.0"></text>
</g>
<g>
<title>one/nio/net/Session.process (3,610 samples, 28.96%)</title><rect x="848.3" y="275.0" width="341.7" height="15" fill="#68f968" rx="2" ry="2"/>
<text x="851.3" y="286.0">one/nio/net/Session.process</text>
</g>
<g>
<title>one/nio/http/HttpSession.processRead (3,610 samples, 28.96%)</title><rect x="848.3" y="259.0" width="341.7" height="15" fill="#6dfe6d" rx="2" ry="2"/>
<text x="851.3" y="270.0">one/nio/http/HttpSession.processRead</text>
</g>
<g>
<title>one/nio/http/HttpSession.processHttpBuffer (3,610 samples, 28.96%)</title><rect x="848.3" y="243.0" width="341.7" height="15" fill="#5ff05f" rx="2" ry="2"/>
<text x="851.3" y="254.0">one/nio/http/HttpSession.processHttpBuffer</text>
</g>
<g>
<title>one/nio/http/HttpSession.handleParsedRequest (974 samples, 7.81%)</title><rect x="848.3" y="227.0" width="92.2" height="15" fill="#50e150" rx="2" ry="2"/>
<text x="851.3" y="238.0">one/nio/htt..</text>
</g>
<g>
<title>one/nio/http/HttpServer.handleRequest (974 samples, 7.81%)</title><rect x="848.3" y="211.0" width="92.2" height="15" fill="#55e655" rx="2" ry="2"/>
<text x="851.3" y="222.0">one/nio/htt..</text>
</g>
<g>
<title>RequestHandler1_handleEntityRequest.handleRequest (712 samples, 5.71%)</title><rect x="848.3" y="195.0" width="67.4" height="15" fill="#58e958" rx="2" ry="2"/>
<text x="851.3" y="206.0">Request..</text>
</g>
<g>
<title>one/nio/http/Request.getRequiredParameter (230 samples, 1.85%)</title><rect x="848.3" y="179.0" width="21.8" height="15" fill="#62f362" rx="2" ry="2"/>
<text x="851.3" y="190.0">o..</text>
</g>
<g>
<title>one/nio/http/Request.getParameter (230 samples, 1.85%)</title><rect x="848.3" y="163.0" width="21.8" height="15" fill="#57e857" rx="2" ry="2"/>
<text x="851.3" y="174.0">o..</text>
</g>
<g>
<title>java/lang/String.substring (230 samples, 1.85%)</title><rect x="848.3" y="147.0" width="21.8" height="15" fill="#66f766" rx="2" ry="2"/>
<text x="851.3" y="158.0">j..</text>
</g>
<g>
<title>java/lang/StringLatin1.newString (230 samples, 1.85%)</title><rect x="848.3" y="131.0" width="21.8" height="15" fill="#51e251" rx="2" ry="2"/>
<text x="851.3" y="142.0">j..</text>
</g>
<g>
<title>java.lang.String (119 samples, 0.95%)</title><rect x="848.3" y="115.0" width="11.3" height="15" fill="#65d3d3" rx="2" ry="2"/>
<text x="851.3" y="126.0"></text>
</g>
<g>
<title>java/util/Arrays.copyOfRange (111 samples, 0.89%)</title><rect x="859.6" y="115.0" width="10.5" height="15" fill="#5aeb5a" rx="2" ry="2"/>
<text x="862.6" y="126.0"></text>
</g>
<g>
<title>byte[] (111 samples, 0.89%)</title><rect x="859.6" y="99.0" width="10.5" height="15" fill="#6ad8d8" rx="2" ry="2"/>
<text x="862.6" y="110.0"></text>
</g>
<g>
<title>ru/mail/polis/service/mariarheon/AsyncServiceImpl.handleEntityRequest (482 samples, 3.87%)</title><rect x="870.1" y="179.0" width="45.6" height="15" fill="#58e958" rx="2" ry="2"/>
<text x="873.1" y="190.0">ru/m..</text>
</g>
<g>
<title>java/lang/invoke/Invokers$Holder.linkToTargetMethod (16 samples, 0.13%)</title><rect x="870.1" y="163.0" width="1.5" height="15" fill="#60f160" rx="2" ry="2"/>
<text x="873.1" y="174.0"></text>
</g>
<g>
<title>java/lang/invoke/DirectMethodHandle$Holder.invokeStatic (16 samples, 0.13%)</title><rect x="870.1" y="147.0" width="1.5" height="15" fill="#64f564" rx="2" ry="2"/>
<text x="873.1" y="158.0"></text>
</g>
<g>
<title>ru/mail/polis/service/mariarheon/AsyncServiceImpl$$Lambda$73/1659544978.get$Lambda (16 samples, 0.13%)</title><rect x="870.1" y="131.0" width="1.5" height="15" fill="#6cfd6c" rx="2" ry="2"/>
<text x="873.1" y="142.0"></text>
</g>
<g>
<title>ru.mail.polis.service.mariarheon.AsyncServiceImpl$$Lambda$73 (16 samples, 0.13%)</title><rect x="870.1" y="115.0" width="1.5" height="15" fill="#62d0d0" rx="2" ry="2"/>
<text x="873.1" y="126.0"></text>
</g>
<g>
<title>ru/mail/polis/service/mariarheon/AsyncServiceImpl.passOn (139 samples, 1.12%)</title><rect x="871.6" y="163.0" width="13.1" height="15" fill="#63f463" rx="2" ry="2"/>
<text x="874.6" y="174.0"></text>
</g>
<g>
<title>java/lang/invoke/Invokers$Holder.linkToTargetMethod (139 samples, 1.12%)</title><rect x="871.6" y="147.0" width="13.1" height="15" fill="#5ced5c" rx="2" ry="2"/>
<text x="874.6" y="158.0"></text>
</g>
<g>
<title>java/lang/invoke/DirectMethodHandle$Holder.invokeStatic (139 samples, 1.12%)</title><rect x="871.6" y="131.0" width="13.1" height="15" fill="#50e150" rx="2" ry="2"/>
<text x="874.6" y="142.0"></text>
</g>
<g>
<title>ru/mail/polis/service/mariarheon/AsyncServiceImpl$$Lambda$70/502171037.get$Lambda (139 samples, 1.12%)</title><rect x="871.6" y="115.0" width="13.1" height="15" fill="#6dfe6d" rx="2" ry="2"/>
<text x="874.6" y="126.0"></text>
</g>
<g>
<title>ru.mail.polis.service.mariarheon.AsyncServiceImpl$$Lambda$70 (139 samples, 1.12%)</title><rect x="871.6" y="99.0" width="13.1" height="15" fill="#5ac8c8" rx="2" ry="2"/>
<text x="874.6" y="110.0"></text>
</g>
<g>
<title>ru/mail/polis/service/mariarheon/RendezvousSharding.getResponsibleNode (327 samples, 2.62%)</title><rect x="884.7" y="163.0" width="31.0" height="15" fill="#6bfc6b" rx="2" ry="2"/>
<text x="887.7" y="174.0">ru..</text>
</g>
<g>
<title>java.lang.Object[] (327 samples, 2.62%)</title><rect x="884.7" y="147.0" width="31.0" height="15" fill="#52c0c0" rx="2" ry="2"/>
<text x="887.7" y="158.0">ja..</text>
</g>
<g>
<title>one/nio/http/Request.getPath (262 samples, 2.10%)</title><rect x="915.7" y="195.0" width="24.8" height="15" fill="#57e857" rx="2" ry="2"/>
<text x="918.7" y="206.0">o..</text>
</g>
<g>
<title>java/lang/String.substring (262 samples, 2.10%)</title><rect x="915.7" y="179.0" width="24.8" height="15" fill="#68f968" rx="2" ry="2"/>
<text x="918.7" y="190.0">j..</text>
</g>
<g>
<title>java/lang/StringLatin1.newString (262 samples, 2.10%)</title><rect x="915.7" y="163.0" width="24.8" height="15" fill="#58e958" rx="2" ry="2"/>
<text x="918.7" y="174.0">j..</text>
</g>
<g>
<title>java.lang.String (107 samples, 0.86%)</title><rect x="915.7" y="147.0" width="10.1" height="15" fill="#55c3c3" rx="2" ry="2"/>
<text x="918.7" y="158.0"></text>
</g>
<g>
<title>java/util/Arrays.copyOfRange (155 samples, 1.24%)</title><rect x="925.8" y="147.0" width="14.7" height="15" fill="#65f665" rx="2" ry="2"/>
<text x="928.8" y="158.0"></text>
</g>
<g>
<title>byte[] (155 samples, 1.24%)</title><rect x="925.8" y="131.0" width="14.7" height="15" fill="#5bc9c9" rx="2" ry="2"/>
<text x="928.8" y="142.0"></text>
</g>
<g>
<title>one/nio/http/HttpSession.parseRequest (1,206 samples, 9.67%)</title><rect x="940.5" y="227.0" width="114.1" height="15" fill="#50e150" rx="2" ry="2"/>
<text x="943.5" y="238.0">one/nio/http/H..</text>
</g>
<g>
<title>one.nio.http.Request (193 samples, 1.55%)</title><rect x="940.5" y="211.0" width="18.3" height="15" fill="#64d2d2" rx="2" ry="2"/>
<text x="943.5" y="222.0"></text>
</g>
<g>
<title>one/nio/http/Request.&lt;init&gt; (332 samples, 2.66%)</title><rect x="958.8" y="211.0" width="31.4" height="15" fill="#6afb6a" rx="2" ry="2"/>
<text x="961.8" y="222.0">on..</text>
</g>
<g>
<title>java.lang.String[] (332 samples, 2.66%)</title><rect x="958.8" y="195.0" width="31.4" height="15" fill="#50bebe" rx="2" ry="2"/>
<text x="961.8" y="206.0">ja..</text>
</g>
<g>
<title>one/nio/util/Utf8.read (681 samples, 5.46%)</title><rect x="990.2" y="211.0" width="64.4" height="15" fill="#6afb6a" rx="2" ry="2"/>
<text x="993.2" y="222.0">one/nio..</text>
</g>
<g>
<title>one/nio/util/Utf8.read (681 samples, 5.46%)</title><rect x="990.2" y="195.0" width="64.4" height="15" fill="#55e655" rx="2" ry="2"/>
<text x="993.2" y="206.0">one/nio..</text>
</g>
<g>
<title>char[] (362 samples, 2.90%)</title><rect x="990.2" y="179.0" width="34.2" height="15" fill="#63d1d1" rx="2" ry="2"/>
<text x="993.2" y="190.0">ch..</text>
</g>
<g>
<title>java.lang.String (110 samples, 0.88%)</title><rect x="1024.4" y="179.0" width="10.5" height="15" fill="#54c2c2" rx="2" ry="2"/>
<text x="1027.4" y="190.0"></text>
</g>
<g>
<title>java/lang/String.&lt;init&gt; (209 samples, 1.68%)</title><rect x="1034.9" y="179.0" width="19.7" height="15" fill="#6bfc6b" rx="2" ry="2"/>
<text x="1037.9" y="190.0"></text>
</g>
<g>
<title>java/lang/String.&lt;init&gt; (209 samples, 1.68%)</title><rect x="1034.9" y="163.0" width="19.7" height="15" fill="#64f564" rx="2" ry="2"/>
<text x="1037.9" y="174.0"></text>
</g>
<g>
<title>java/lang/StringUTF16.compress (209 samples, 1.68%)</title><rect x="1034.9" y="147.0" width="19.7" height="15" fill="#6afb6a" rx="2" ry="2"/>
<text x="1037.9" y="158.0"></text>
</g>
<g>
<title>byte[] (209 samples, 1.68%)</title><rect x="1034.9" y="131.0" width="19.7" height="15" fill="#58c6c6" rx="2" ry="2"/>
<text x="1037.9" y="142.0"></text>
</g>
<g>
<title>one/nio/http/HttpSession.startParsingRequestBody (94 samples, 0.75%)</title><rect x="1054.6" y="227.0" width="8.9" height="15" fill="#60f160" rx="2" ry="2"/>
<text x="1057.6" y="238.0"></text>
</g>
<g>
<title>byte[] (94 samples, 0.75%)</title><rect x="1054.6" y="211.0" width="8.9" height="15" fill="#54c2c2" rx="2" ry="2"/>
<text x="1057.6" y="222.0"></text>
</g>
<g>
<title>one/nio/http/Request.getHeader (218 samples, 1.75%)</title><rect x="1063.5" y="227.0" width="20.7" height="15" fill="#68f968" rx="2" ry="2"/>
<text x="1066.5" y="238.0"></text>
</g>
<g>
<title>java/lang/String.substring (218 samples, 1.75%)</title><rect x="1063.5" y="211.0" width="20.7" height="15" fill="#56e756" rx="2" ry="2"/>
<text x="1066.5" y="222.0"></text>
</g>
<g>
<title>java/lang/StringLatin1.newString (218 samples, 1.75%)</title><rect x="1063.5" y="195.0" width="20.7" height="15" fill="#53e453" rx="2" ry="2"/>
<text x="1066.5" y="206.0"></text>
</g>
<g>
<title>java.lang.String (112 samples, 0.90%)</title><rect x="1063.5" y="179.0" width="10.6" height="15" fill="#5dcbcb" rx="2" ry="2"/>
<text x="1066.5" y="190.0"></text>
</g>
<g>
<title>java/util/Arrays.copyOfRange (106 samples, 0.85%)</title><rect x="1074.1" y="179.0" width="10.1" height="15" fill="#69fa69" rx="2" ry="2"/>
<text x="1077.1" y="190.0"></text>
</g>
<g>
<title>byte[] (106 samples, 0.85%)</title><rect x="1074.1" y="163.0" width="10.1" height="15" fill="#60cece" rx="2" ry="2"/>
<text x="1077.1" y="174.0"></text>
</g>
<g>
<title>one/nio/util/Utf8.read (1,118 samples, 8.97%)</title><rect x="1084.2" y="227.0" width="105.8" height="15" fill="#5dee5d" rx="2" ry="2"/>
<text x="1087.2" y="238.0">one/nio/util/..</text>
</g>
<g>
<title>one/nio/util/Utf8.read (1,118 samples, 8.97%)</title><rect x="1084.2" y="211.0" width="105.8" height="15" fill="#69fa69" rx="2" ry="2"/>
<text x="1087.2" y="222.0">one/nio/util/..</text>
</g>
<g>
<title>char[] (507 samples, 4.07%)</title><rect x="1084.2" y="195.0" width="48.0" height="15" fill="#6bd9d9" rx="2" ry="2"/>
<text x="1087.2" y="206.0">char[]</text>
</g>
<g>
<title>java.lang.String (273 samples, 2.19%)</title><rect x="1132.2" y="195.0" width="25.8" height="15" fill="#5bc9c9" rx="2" ry="2"/>
<text x="1135.2" y="206.0">j..</text>
</g>
<g>
<title>java/lang/String.&lt;init&gt; (338 samples, 2.71%)</title><rect x="1158.0" y="195.0" width="32.0" height="15" fill="#6cfd6c" rx="2" ry="2"/>
<text x="1161.0" y="206.0">ja..</text>
</g>
<g>
<title>java/lang/String.&lt;init&gt; (338 samples, 2.71%)</title><rect x="1158.0" y="179.0" width="32.0" height="15" fill="#55e655" rx="2" ry="2"/>
<text x="1161.0" y="190.0">ja..</text>
</g>
<g>
<title>java/lang/StringUTF16.compress (338 samples, 2.71%)</title><rect x="1158.0" y="163.0" width="32.0" height="15" fill="#55e655" rx="2" ry="2"/>
<text x="1161.0" y="174.0">ja..</text>
</g>
<g>
<title>byte[] (338 samples, 2.71%)</title><rect x="1158.0" y="147.0" width="32.0" height="15" fill="#57c5c5" rx="2" ry="2"/>
<text x="1161.0" y="158.0">by..</text>
</g>
</g>
</svg>
