<?xml version="1.0" standalone="no"?>
<!DOCTYPE svg PUBLIC "-//W3C//DTD SVG 1.1//EN" "http://www.w3.org/Graphics/SVG/1.1/DTD/svg11.dtd">
<svg version="1.1" width="1200" height="310" onload="init(evt)" viewBox="0 0 1200 310" xmlns="http://www.w3.org/2000/svg" xmlns:xlink="http://www.w3.org/1999/xlink">
<style type="text/css">
	text { font-family:Verdana; font-size:12px; fill:rgb(0,0,0); }
	#search { opacity:0.1; cursor:pointer; }
	#search:hover, #search.show { opacity:1; }
	#subtitle { text-anchor:middle; font-color:rgb(160,160,160); }
	#title { text-anchor:middle; font-size:17px}
	#unzoom { cursor:pointer; }
	#frames > *:hover { stroke:black; stroke-width:0.5; cursor:pointer; }
	.hide { display:none; }
	.parent { opacity:0.5; }
</style>
<script type="text/ecmascript">
<![CDATA[
	"use strict";
	var details, searchbtn, unzoombtn, matchedtxt, svg, searching;
	function init(evt) {
		details = document.getElementById("details").firstChild;
		searchbtn = document.getElementById("search");
		unzoombtn = document.getElementById("unzoom");
		matchedtxt = document.getElementById("matched");
		svg = document.getElementsByTagName("svg")[0];
		searching = 0;
	}

	window.addEventListener("click", function(e) {
		var target = find_group(e.target);
		if (target) {
			if (target.nodeName == "a") {
				if (e.ctrlKey === false) return;
				e.preventDefault();
			}
			if (target.classList.contains("parent")) unzoom();
			zoom(target);
		}
		else if (e.target.id == "unzoom") unzoom();
		else if (e.target.id == "search") search_prompt();
	}, false)

	// mouse-over for info
	// show
	window.addEventListener("mouseover", function(e) {
		var target = find_group(e.target);
		if (target) details.nodeValue = "Function: " + g_to_text(target);
	}, false)

	// clear
	window.addEventListener("mouseout", function(e) {
		var target = find_group(e.target);
		if (target) details.nodeValue = ' ';
	}, false)

	// ctrl-F for search
	window.addEventListener("keydown",function (e) {
		if (e.keyCode === 114 || (e.ctrlKey && e.keyCode === 70)) {
			e.preventDefault();
			search_prompt();
		}
	}, false)

	// functions
	function find_child(node, selector) {
		var children = node.querySelectorAll(selector);
		if (children.length) return children[0];
		return;
	}
	function find_group(node) {
		var parent = node.parentElement;
		if (!parent) return;
		if (parent.id == "frames") return node;
		return find_group(parent);
	}
	function orig_save(e, attr, val) {
		if (e.attributes["_orig_" + attr] != undefined) return;
		if (e.attributes[attr] == undefined) return;
		if (val == undefined) val = e.attributes[attr].value;
		e.setAttribute("_orig_" + attr, val);
	}
	function orig_load(e, attr) {
		if (e.attributes["_orig_"+attr] == undefined) return;
		e.attributes[attr].value = e.attributes["_orig_" + attr].value;
		e.removeAttribute("_orig_"+attr);
	}
	function g_to_text(e) {
		var text = find_child(e, "title").firstChild.nodeValue;
		return (text)
	}
	function g_to_func(e) {
		var func = g_to_text(e);
		// if there's any manipulation we want to do to the function
		// name before it's searched, do it here before returning.
		return (func);
	}
	function update_text(e) {
		var r = find_child(e, "rect");
		var t = find_child(e, "text");
		var w = parseFloat(r.attributes.width.value) -3;
		var txt = find_child(e, "title").textContent.replace(/\([^(]*\)$/,"");
		t.attributes.x.value = parseFloat(r.attributes.x.value) + 3;

		// Smaller than this size won't fit anything
		if (w < 2 * 12 * 0.59) {
			t.textContent = "";
			return;
		}

		t.textContent = txt;
		// Fit in full text width
		if (/^ *$/.test(txt) || t.getSubStringLength(0, txt.length) < w)
			return;

		for (var x = txt.length - 2; x > 0; x--) {
			if (t.getSubStringLength(0, x + 2) <= w) {
				t.textContent = txt.substring(0, x) + "..";
				return;
			}
		}
		t.textContent = "";
	}

	// zoom
	function zoom_reset(e) {
		if (e.attributes != undefined) {
			orig_load(e, "x");
			orig_load(e, "width");
		}
		if (e.childNodes == undefined) return;
		for (var i = 0, c = e.childNodes; i < c.length; i++) {
			zoom_reset(c[i]);
		}
	}
	function zoom_child(e, x, ratio) {
		if (e.attributes != undefined) {
			if (e.attributes.x != undefined) {
				orig_save(e, "x");
				e.attributes.x.value = (parseFloat(e.attributes.x.value) - x - 10) * ratio + 10;
				if (e.tagName == "text")
					e.attributes.x.value = find_child(e.parentNode, "rect[x]").attributes.x.value + 3;
			}
			if (e.attributes.width != undefined) {
				orig_save(e, "width");
				e.attributes.width.value = parseFloat(e.attributes.width.value) * ratio;
			}
		}

		if (e.childNodes == undefined) return;
		for (var i = 0, c = e.childNodes; i < c.length; i++) {
			zoom_child(c[i], x - 10, ratio);
		}
	}
	function zoom_parent(e) {
		if (e.attributes) {
			if (e.attributes.x != undefined) {
				orig_save(e, "x");
				e.attributes.x.value = 10;
			}
			if (e.attributes.width != undefined) {
				orig_save(e, "width");
				e.attributes.width.value = parseInt(svg.width.baseVal.value) - (10 * 2);
			}
		}
		if (e.childNodes == undefined) return;
		for (var i = 0, c = e.childNodes; i < c.length; i++) {
			zoom_parent(c[i]);
		}
	}
	function zoom(node) {
		var attr = find_child(node, "rect").attributes;
		var width = parseFloat(attr.width.value);
		var xmin = parseFloat(attr.x.value);
		var xmax = parseFloat(xmin + width);
		var ymin = parseFloat(attr.y.value);
		var ratio = (svg.width.baseVal.value - 2 * 10) / width;

		// XXX: Workaround for JavaScript float issues (fix me)
		var fudge = 0.0001;

		unzoombtn.classList.remove("hide");

		var el = document.getElementById("frames").children;
		for (var i = 0; i < el.length; i++) {
			var e = el[i];
			var a = find_child(e, "rect").attributes;
			var ex = parseFloat(a.x.value);
			var ew = parseFloat(a.width.value);
			var upstack;
			// Is it an ancestor
			if (0 == 0) {
				upstack = parseFloat(a.y.value) > ymin;
			} else {
				upstack = parseFloat(a.y.value) < ymin;
			}
			if (upstack) {
				// Direct ancestor
				if (ex <= xmin && (ex+ew+fudge) >= xmax) {
					e.classList.add("parent");
					zoom_parent(e);
					update_text(e);
				}
				// not in current path
				else
					e.classList.add("hide");
			}
			// Children maybe
			else {
				// no common path
				if (ex < xmin || ex + fudge >= xmax) {
					e.classList.add("hide");
				}
				else {
					zoom_child(e, xmin, ratio);
					update_text(e);
				}
			}
		}
	}
	function unzoom() {
		unzoombtn.classList.add("hide");
		var el = document.getElementById("frames").children;
		for(var i = 0; i < el.length; i++) {
			el[i].classList.remove("parent");
			el[i].classList.remove("hide");
			zoom_reset(el[i]);
			update_text(el[i]);
		}
	}

	// search
	function reset_search() {
		var el = document.querySelectorAll("#frames rect");
		for (var i = 0; i < el.length; i++) {
			orig_load(el[i], "fill")
		}
	}
	function search_prompt() {
		if (!searching) {
			var term = prompt("Enter a search term (regexp " +
			    "allowed, eg: ^ext4_)", "");
			if (term != null) {
				search(term)
			}
		} else {
			reset_search();
			searching = 0;
			searchbtn.classList.remove("show");
			searchbtn.firstChild.nodeValue = "Search"
			matchedtxt.classList.add("hide");
			matchedtxt.firstChild.nodeValue = ""
		}
	}
	function search(term) {
		var re = new RegExp(term);
		var el = document.getElementById("frames").children;
		var matches = new Object();
		var maxwidth = 0;
		for (var i = 0; i < el.length; i++) {
			var e = el[i];
			var func = g_to_func(e);
			var rect = find_child(e, "rect");
			if (func == null || rect == null)
				continue;

			// Save max width. Only works as we have a root frame
			var w = parseFloat(rect.attributes.width.value);
			if (w > maxwidth)
				maxwidth = w;

			if (func.match(re)) {
				// highlight
				var x = parseFloat(rect.attributes.x.value);
				orig_save(rect, "fill");
				rect.attributes.fill.value = "rgb(230,0,230)";

				// remember matches
				if (matches[x] == undefined) {
					matches[x] = w;
				} else {
					if (w > matches[x]) {
						// overwrite with parent
						matches[x] = w;
					}
				}
				searching = 1;
			}
		}
		if (!searching)
			return;

		searchbtn.classList.add("show");
		searchbtn.firstChild.nodeValue = "Reset Search";

		// calculate percent matched, excluding vertical overlap
		var count = 0;
		var lastx = -1;
		var lastw = 0;
		var keys = Array();
		for (k in matches) {
			if (matches.hasOwnProperty(k))
				keys.push(k);
		}
		// sort the matched frames by their x location
		// ascending, then width descending
		keys.sort(function(a, b){
			return a - b;
		});
		// Step through frames saving only the biggest bottom-up frames
		// thanks to the sort order. This relies on the tree property
		// where children are always smaller than their parents.
		var fudge = 0.0001;	// JavaScript floating point
		for (var k in keys) {
			var x = parseFloat(keys[k]);
			var w = matches[keys[k]];
			if (x >= lastx + lastw - fudge) {
				count += w;
				lastx = x;
				lastw = w;
			}
		}
		// display matched percent
		matchedtxt.classList.remove("hide");
		var pct = 100 * count / maxwidth;
		if (pct != 100) pct = pct.toFixed(1)
		matchedtxt.firstChild.nodeValue = "Matched: " + pct + "%";
	}
]]>
</script>
<rect x="0" y="0" width="100%" height="100%" fill="rgb(240,240,220)"/>
<text id="title" x="600" y="24">Flame Graph</text>
<text id="details" x="10" y="293"> </text>
<text id="unzoom" x="10" y="24" class="hide">Reset Zoom</text>
<text id="search" x="1090" y="24">Search</text>
<text id="matched" x="1090" y="293"> </text>
<g id="frames">
<g>
<title>all (1,437 samples, 100.00%)</title><rect x="10.0" y="259.0" width="1180.0" height="15" fill="#f97a7a" rx="2" ry="2"/>
<text x="13.0" y="270.0">all</text>
</g>
<g>
<title>java/lang/Thread.run (721 samples, 50.17%)</title><rect x="10.0" y="243.0" width="592.1" height="15" fill="#50e150" rx="2" ry="2"/>
<text x="13.0" y="254.0">java/lang/Thread.run</text>
</g>
<g>
<title>java/util/concurrent/ThreadPoolExecutor$Worker.run (721 samples, 50.17%)</title><rect x="10.0" y="227.0" width="592.1" height="15" fill="#57e857" rx="2" ry="2"/>
<text x="13.0" y="238.0">java/util/concurrent/ThreadPoolExecutor$Worker.run</text>
</g>
<g>
<title>java/util/concurrent/ThreadPoolExecutor.runWorker (721 samples, 50.17%)</title><rect x="10.0" y="211.0" width="592.1" height="15" fill="#63f463" rx="2" ry="2"/>
<text x="13.0" y="222.0">java/util/concurrent/ThreadPoolExecutor.runWorker</text>
</g>
<g>
<title>java/util/concurrent/ThreadPoolExecutor.getTask (26 samples, 1.81%)</title><rect x="10.0" y="195.0" width="21.4" height="15" fill="#55e655" rx="2" ry="2"/>
<text x="13.0" y="206.0">j..</text>
</g>
<g>
<title>java/util/concurrent/ArrayBlockingQueue.take (26 samples, 1.81%)</title><rect x="10.0" y="179.0" width="21.4" height="15" fill="#57e857" rx="2" ry="2"/>
<text x="13.0" y="190.0">j..</text>
</g>
<g>
<title>java/util/concurrent/locks/AbstractQueuedSynchronizer$ConditionObject.await (21 samples, 1.46%)</title><rect x="10.0" y="163.0" width="17.2" height="15" fill="#64f564" rx="2" ry="2"/>
<text x="13.0" y="174.0"></text>
</g>
<g>
<title>java/util/concurrent/locks/AbstractQueuedSynchronizer$ConditionObject.addConditionWaiter (21 samples, 1.46%)</title><rect x="10.0" y="147.0" width="17.2" height="15" fill="#5bec5b" rx="2" ry="2"/>
<text x="13.0" y="158.0"></text>
</g>
<g>
<title>java.util.concurrent.locks.AbstractQueuedSynchronizer$Node (21 samples, 1.46%)</title><rect x="10.0" y="131.0" width="17.2" height="15" fill="#5fcdcd" rx="2" ry="2"/>
<text x="13.0" y="142.0"></text>
</g>
<g>
<title>java/util/concurrent/locks/ReentrantLock.lockInterruptibly (5 samples, 0.35%)</title><rect x="27.2" y="163.0" width="4.2" height="15" fill="#59ea59" rx="2" ry="2"/>
<text x="30.2" y="174.0"></text>
</g>
<g>
<title>java/util/concurrent/locks/AbstractQueuedSynchronizer.acquireInterruptibly (5 samples, 0.35%)</title><rect x="27.2" y="147.0" width="4.2" height="15" fill="#54e554" rx="2" ry="2"/>
<text x="30.2" y="158.0"></text>
</g>
<g>
<title>java/util/concurrent/locks/AbstractQueuedSynchronizer.doAcquireInterruptibly (5 samples, 0.35%)</title><rect x="27.2" y="131.0" width="4.2" height="15" fill="#51e251" rx="2" ry="2"/>
<text x="30.2" y="142.0"></text>
</g>
<g>
<title>java/util/concurrent/locks/AbstractQueuedSynchronizer.addWaiter (5 samples, 0.35%)</title><rect x="27.2" y="115.0" width="4.2" height="15" fill="#53e453" rx="2" ry="2"/>
<text x="30.2" y="126.0"></text>
</g>
<g>
<title>java.util.concurrent.locks.AbstractQueuedSynchronizer$Node (5 samples, 0.35%)</title><rect x="27.2" y="99.0" width="4.2" height="15" fill="#50bebe" rx="2" ry="2"/>
<text x="30.2" y="110.0"></text>
</g>
<g>
<title>ru/mail/polis/service/mariarheon/AsyncServiceImpl$$Lambda$74/1245639208.run (695 samples, 48.36%)</title><rect x="31.4" y="195.0" width="570.7" height="15" fill="#6bfc6b" rx="2" ry="2"/>
<text x="34.4" y="206.0">ru/mail/polis/service/mariarheon/AsyncServiceImpl$$Lambda$74/1245639208.run</text>
</g>
<g>
<title>ru/mail/polis/service/mariarheon/AsyncServiceImpl.lambda$get$0 (695 samples, 48.36%)</title><rect x="31.4" y="179.0" width="570.7" height="15" fill="#5aeb5a" rx="2" ry="2"/>
<text x="34.4" y="190.0">ru/mail/polis/service/mariarheon/AsyncServiceImpl.lambda$get$0</text>
</g>
<g>
<title>ru/mail/polis/service/mariarheon/AsyncServiceImpl.getInternal (695 samples, 48.36%)</title><rect x="31.4" y="163.0" width="570.7" height="15" fill="#67f867" rx="2" ry="2"/>
<text x="34.4" y="174.0">ru/mail/polis/service/mariarheon/AsyncServiceImpl.getInternal</text>
</g>
<g>
<title>java/lang/String.getBytes (47 samples, 3.27%)</title><rect x="31.4" y="147.0" width="38.5" height="15" fill="#54e554" rx="2" ry="2"/>
<text x="34.4" y="158.0">jav..</text>
</g>
<g>
<title>java/lang/StringCoding.encode (47 samples, 3.27%)</title><rect x="31.4" y="131.0" width="38.5" height="15" fill="#5ff05f" rx="2" ry="2"/>
<text x="34.4" y="142.0">jav..</text>
</g>
<g>
<title>java/lang/StringCoding.encodeUTF8 (47 samples, 3.27%)</title><rect x="31.4" y="115.0" width="38.5" height="15" fill="#68f968" rx="2" ry="2"/>
<text x="34.4" y="126.0">jav..</text>
</g>
<g>
<title>java/util/Arrays.copyOf (47 samples, 3.27%)</title><rect x="31.4" y="99.0" width="38.5" height="15" fill="#5eef5e" rx="2" ry="2"/>
<text x="34.4" y="110.0">jav..</text>
</g>
<g>
<title>byte[] (47 samples, 3.27%)</title><rect x="31.4" y="83.0" width="38.5" height="15" fill="#60cece" rx="2" ry="2"/>
<text x="34.4" y="94.0">byt..</text>
</g>
<g>
<title>one/nio/http/HttpSession.sendResponse (166 samples, 11.55%)</title><rect x="69.9" y="147.0" width="136.4" height="15" fill="#55e655" rx="2" ry="2"/>
<text x="72.9" y="158.0">one/nio/http/Http..</text>
</g>
<g>
<title>one/nio/http/HttpSession.writeResponse (166 samples, 11.55%)</title><rect x="69.9" y="131.0" width="136.4" height="15" fill="#53e453" rx="2" ry="2"/>
<text x="72.9" y="142.0">one/nio/http/Http..</text>
</g>
<g>
<title>one/nio/http/Response.toBytes (123 samples, 8.56%)</title><rect x="69.9" y="115.0" width="101.0" height="15" fill="#5ff05f" rx="2" ry="2"/>
<text x="72.9" y="126.0">one/nio/http..</text>
</g>
<g>
<title>one/nio/util/ByteArrayBuilder.&lt;init&gt; (123 samples, 8.56%)</title><rect x="69.9" y="99.0" width="101.0" height="15" fill="#5ff05f" rx="2" ry="2"/>
<text x="72.9" y="110.0">one/nio/util..</text>
</g>
<g>
<title>byte[] (123 samples, 8.56%)</title><rect x="69.9" y="83.0" width="101.0" height="15" fill="#64d2d2" rx="2" ry="2"/>
<text x="72.9" y="94.0">byte[]</text>
</g>
<g>
<title>one/nio/net/Session.write (43 samples, 2.99%)</title><rect x="170.9" y="115.0" width="35.4" height="15" fill="#6cfd6c" rx="2" ry="2"/>
<text x="173.9" y="126.0">one..</text>
</g>
<g>
<title>one.nio.net.Session$ArrayQueueItem (43 samples, 2.99%)</title><rect x="170.9" y="99.0" width="35.4" height="15" fill="#57c5c5" rx="2" ry="2"/>
<text x="173.9" y="110.0">one..</text>
</g>
<g>
<title>one/nio/http/Response.ok (154 samples, 10.72%)</title><rect x="206.3" y="147.0" width="126.4" height="15" fill="#5dee5d" rx="2" ry="2"/>
<text x="209.3" y="158.0">one/nio/http/Res..</text>
</g>
<g>
<title>one.nio.http.Response (26 samples, 1.81%)</title><rect x="206.3" y="131.0" width="21.3" height="15" fill="#53c1c1" rx="2" ry="2"/>
<text x="209.3" y="142.0">o..</text>
</g>
<g>
<title>one/nio/http/Response.&lt;init&gt; (128 samples, 8.91%)</title><rect x="227.6" y="131.0" width="105.1" height="15" fill="#52e352" rx="2" ry="2"/>
<text x="230.6" y="142.0">one/nio/http/..</text>
</g>
<g>
<title>byte[] (51 samples, 3.55%)</title><rect x="227.6" y="115.0" width="41.9" height="15" fill="#5ecccc" rx="2" ry="2"/>
<text x="230.6" y="126.0">byt..</text>
</g>
<g>
<title>java.lang.String[] (56 samples, 3.90%)</title><rect x="269.5" y="115.0" width="46.0" height="15" fill="#5bc9c9" rx="2" ry="2"/>
<text x="272.5" y="126.0">java..</text>
</g>
<g>
<title>java.lang.String (21 samples, 1.46%)</title><rect x="315.5" y="115.0" width="17.2" height="15" fill="#65d3d3" rx="2" ry="2"/>
<text x="318.5" y="126.0"></text>
</g>
<g>
<title>ru/mail/polis/dao/mariarheon/ByteBufferUtils.toArray (66 samples, 4.59%)</title><rect x="332.7" y="147.0" width="54.2" height="15" fill="#63f463" rx="2" ry="2"/>
<text x="335.7" y="158.0">ru/ma..</text>
</g>
<g>
<title>byte[] (21 samples, 1.46%)</title><rect x="332.7" y="131.0" width="17.3" height="15" fill="#62d0d0" rx="2" ry="2"/>
<text x="335.7" y="142.0"></text>
</g>
<g>
<title>java/nio/HeapByteBuffer.duplicate (45 samples, 3.13%)</title><rect x="350.0" y="131.0" width="36.9" height="15" fill="#5ced5c" rx="2" ry="2"/>
<text x="353.0" y="142.0">jav..</text>
</g>
<g>
<title>java.nio.HeapByteBuffer (45 samples, 3.13%)</title><rect x="350.0" y="115.0" width="36.9" height="15" fill="#51bfbf" rx="2" ry="2"/>
<text x="353.0" y="126.0">jav..</text>
</g>
<g>
<title>ru/mail/polis/dao/mariarheon/ByteBufferUtils.toByteBuffer (55 samples, 3.83%)</title><rect x="386.9" y="147.0" width="45.2" height="15" fill="#53e453" rx="2" ry="2"/>
<text x="389.9" y="158.0">ru/m..</text>
</g>
<g>
<title>java/nio/ByteBuffer.wrap (55 samples, 3.83%)</title><rect x="386.9" y="131.0" width="45.2" height="15" fill="#65f665" rx="2" ry="2"/>
<text x="389.9" y="142.0">java..</text>
</g>
<g>
<title>java/nio/ByteBuffer.wrap (55 samples, 3.83%)</title><rect x="386.9" y="115.0" width="45.2" height="15" fill="#55e655" rx="2" ry="2"/>
<text x="389.9" y="126.0">java..</text>
</g>
<g>
<title>java.nio.HeapByteBuffer (55 samples, 3.83%)</title><rect x="386.9" y="99.0" width="45.2" height="15" fill="#55c3c3" rx="2" ry="2"/>
<text x="389.9" y="110.0">java..</text>
</g>
<g>
<title>ru/mail/polis/dao/mariarheon/DAOImpl.get (207 samples, 14.41%)</title><rect x="432.1" y="147.0" width="170.0" height="15" fill="#69fa69" rx="2" ry="2"/>
<text x="435.1" y="158.0">ru/mail/polis/dao/mari..</text>
</g>
<g>
<title>org/rocksdb/RocksDB.get (34 samples, 2.37%)</title><rect x="432.1" y="131.0" width="27.9" height="15" fill="#55e655" rx="2" ry="2"/>
<text x="435.1" y="142.0">o..</text>
</g>
<g>
<title>org/rocksdb/RocksDB.get (34 samples, 2.37%)</title><rect x="432.1" y="115.0" width="27.9" height="15" fill="#53e453" rx="2" ry="2"/>
<text x="435.1" y="126.0">o..</text>
</g>
<g>
<title>byte[] (34 samples, 2.37%)</title><rect x="432.1" y="99.0" width="27.9" height="15" fill="#56c4c4" rx="2" ry="2"/>
<text x="435.1" y="110.0">b..</text>
</g>
<g>
<title>ru/mail/polis/dao/mariarheon/ByteBufferUtils.toArrayUnsigned (101 samples, 7.03%)</title><rect x="460.0" y="131.0" width="82.9" height="15" fill="#6dfe6d" rx="2" ry="2"/>
<text x="463.0" y="142.0">ru/mail/p..</text>
</g>
<g>
<title>ru/mail/polis/dao/mariarheon/ByteBufferUtils.toArray (101 samples, 7.03%)</title><rect x="460.0" y="115.0" width="82.9" height="15" fill="#57e857" rx="2" ry="2"/>
<text x="463.0" y="126.0">ru/mail/p..</text>
</g>
<g>
<title>byte[] (39 samples, 2.71%)</title><rect x="460.0" y="99.0" width="32.0" height="15" fill="#65d3d3" rx="2" ry="2"/>
<text x="463.0" y="110.0">by..</text>
</g>
<g>
<title>java/nio/HeapByteBuffer.duplicate (62 samples, 4.31%)</title><rect x="492.0" y="99.0" width="50.9" height="15" fill="#67f867" rx="2" ry="2"/>
<text x="495.0" y="110.0">java/..</text>
</g>
<g>
<title>java.nio.HeapByteBuffer (62 samples, 4.31%)</title><rect x="492.0" y="83.0" width="50.9" height="15" fill="#66d4d4" rx="2" ry="2"/>
<text x="495.0" y="94.0">java...</text>
</g>
<g>
<title>ru/mail/polis/dao/mariarheon/ByteBufferUtils.toByteBuffer (72 samples, 5.01%)</title><rect x="542.9" y="131.0" width="59.2" height="15" fill="#58e958" rx="2" ry="2"/>
<text x="545.9" y="142.0">ru/mai..</text>
</g>
<g>
<title>java/nio/ByteBuffer.wrap (72 samples, 5.01%)</title><rect x="542.9" y="115.0" width="59.2" height="15" fill="#6dfe6d" rx="2" ry="2"/>
<text x="545.9" y="126.0">java/n..</text>
</g>
<g>
<title>java/nio/ByteBuffer.wrap (72 samples, 5.01%)</title><rect x="542.9" y="99.0" width="59.2" height="15" fill="#6afb6a" rx="2" ry="2"/>
<text x="545.9" y="110.0">java/n..</text>
</g>
<g>
<title>java.nio.HeapByteBuffer (72 samples, 5.01%)</title><rect x="542.9" y="83.0" width="59.2" height="15" fill="#67d5d5" rx="2" ry="2"/>
<text x="545.9" y="94.0">java.n..</text>
</g>
<g>
<title>one/nio/server/SelectorThread.run (716 samples, 49.83%)</title><rect x="602.1" y="243.0" width="587.9" height="15" fill="#5eef5e" rx="2" ry="2"/>
<text x="605.1" y="254.0">one/nio/server/SelectorThread.run</text>
</g>
<g>
<title>one/nio/net/NativeSelector.select (21 samples, 1.46%)</title><rect x="602.1" y="227.0" width="17.2" height="15" fill="#60f160" rx="2" ry="2"/>
<text x="605.1" y="238.0"></text>
</g>
<g>
<title>one.nio.net.NativeSelector$2 (21 samples, 1.46%)</title><rect x="602.1" y="211.0" width="17.2" height="15" fill="#66d4d4" rx="2" ry="2"/>
<text x="605.1" y="222.0"></text>
</g>
<g>
<title>one/nio/net/Session.process (695 samples, 48.36%)</title><rect x="619.3" y="227.0" width="570.7" height="15" fill="#66f766" rx="2" ry="2"/>
<text x="622.3" y="238.0">one/nio/net/Session.process</text>
</g>
<g>
<title>one/nio/http/HttpSession.processRead (695 samples, 48.36%)</title><rect x="619.3" y="211.0" width="570.7" height="15" fill="#50e150" rx="2" ry="2"/>
<text x="622.3" y="222.0">one/nio/http/HttpSession.processRead</text>
</g>
<g>
<title>one/nio/http/HttpSession.processHttpBuffer (695 samples, 48.36%)</title><rect x="619.3" y="195.0" width="570.7" height="15" fill="#69fa69" rx="2" ry="2"/>
<text x="622.3" y="206.0">one/nio/http/HttpSession.processHttpBuffer</text>
</g>
<g>
<title>one/nio/http/HttpSession.handleParsedRequest (202 samples, 14.06%)</title><rect x="619.3" y="179.0" width="165.9" height="15" fill="#68f968" rx="2" ry="2"/>
<text x="622.3" y="190.0">one/nio/http/HttpSess..</text>
</g>
<g>
<title>one/nio/http/HttpServer.handleRequest (202 samples, 14.06%)</title><rect x="619.3" y="163.0" width="165.9" height="15" fill="#5eef5e" rx="2" ry="2"/>
<text x="622.3" y="174.0">one/nio/http/HttpServ..</text>
</g>
<g>
<title>RequestHandler0_get.handleRequest (119 samples, 8.28%)</title><rect x="619.3" y="147.0" width="97.7" height="15" fill="#57e857" rx="2" ry="2"/>
<text x="622.3" y="158.0">RequestHand..</text>
</g>
<g>
<title>one/nio/http/Request.getRequiredParameter (85 samples, 5.92%)</title><rect x="619.3" y="131.0" width="69.8" height="15" fill="#60f160" rx="2" ry="2"/>
<text x="622.3" y="142.0">one/nio..</text>
</g>
<g>
<title>one/nio/http/Request.getParameter (85 samples, 5.92%)</title><rect x="619.3" y="115.0" width="69.8" height="15" fill="#54e554" rx="2" ry="2"/>
<text x="622.3" y="126.0">one/nio..</text>
</g>
<g>
<title>java/lang/String.substring (85 samples, 5.92%)</title><rect x="619.3" y="99.0" width="69.8" height="15" fill="#69fa69" rx="2" ry="2"/>
<text x="622.3" y="110.0">java/la..</text>
</g>
<g>
<title>java/lang/StringLatin1.newString (85 samples, 5.92%)</title><rect x="619.3" y="83.0" width="69.8" height="15" fill="#6cfd6c" rx="2" ry="2"/>
<text x="622.3" y="94.0">java/la..</text>
</g>
<g>
<title>java.lang.String (35 samples, 2.44%)</title><rect x="619.3" y="67.0" width="28.7" height="15" fill="#55c3c3" rx="2" ry="2"/>
<text x="622.3" y="78.0">ja..</text>
</g>
<g>
<title>java/util/Arrays.copyOfRange (50 samples, 3.48%)</title><rect x="648.0" y="67.0" width="41.1" height="15" fill="#6dfe6d" rx="2" ry="2"/>
<text x="651.0" y="78.0">jav..</text>
</g>
<g>
<title>byte[] (50 samples, 3.48%)</title><rect x="648.0" y="51.0" width="41.1" height="15" fill="#64d2d2" rx="2" ry="2"/>
<text x="651.0" y="62.0">byt..</text>
</g>
<g>
<title>ru/mail/polis/service/mariarheon/AsyncServiceImpl.get (34 samples, 2.37%)</title><rect x="689.1" y="131.0" width="27.9" height="15" fill="#5bec5b" rx="2" ry="2"/>
<text x="692.1" y="142.0">r..</text>
</g>
<g>
<title>java/lang/invoke/Invokers$Holder.linkToTargetMethod (32 samples, 2.23%)</title><rect x="689.1" y="115.0" width="26.3" height="15" fill="#55e655" rx="2" ry="2"/>
<text x="692.1" y="126.0">j..</text>
</g>
<g>
<title>java/lang/invoke/DirectMethodHandle$Holder.invokeStatic (32 samples, 2.23%)</title><rect x="689.1" y="99.0" width="26.3" height="15" fill="#5ff05f" rx="2" ry="2"/>
<text x="692.1" y="110.0">j..</text>
</g>
<g>
<title>ru/mail/polis/service/mariarheon/AsyncServiceImpl$$Lambda$74/1245639208.get$Lambda (32 samples, 2.23%)</title><rect x="689.1" y="83.0" width="26.3" height="15" fill="#60f160" rx="2" ry="2"/>
<text x="692.1" y="94.0">r..</text>
</g>
<g>
<title>ru.mail.polis.service.mariarheon.AsyncServiceImpl$$Lambda$74 (32 samples, 2.23%)</title><rect x="689.1" y="67.0" width="26.3" height="15" fill="#58c6c6" rx="2" ry="2"/>
<text x="692.1" y="78.0">r..</text>
</g>
<g>
<title>java/util/concurrent/ThreadPoolExecutor.execute (2 samples, 0.14%)</title><rect x="715.4" y="115.0" width="1.6" height="15" fill="#65f665" rx="2" ry="2"/>
<text x="718.4" y="126.0"></text>
</g>
<g>
<title>java/util/concurrent/ArrayBlockingQueue.offer (2 samples, 0.14%)</title><rect x="715.4" y="99.0" width="1.6" height="15" fill="#60f160" rx="2" ry="2"/>
<text x="718.4" y="110.0"></text>
</g>
<g>
<title>java/util/concurrent/locks/ReentrantLock.lock (2 samples, 0.14%)</title><rect x="715.4" y="83.0" width="1.6" height="15" fill="#60f160" rx="2" ry="2"/>
<text x="718.4" y="94.0"></text>
</g>
<g>
<title>java/util/concurrent/locks/AbstractQueuedSynchronizer.acquire (2 samples, 0.14%)</title><rect x="715.4" y="67.0" width="1.6" height="15" fill="#5dee5d" rx="2" ry="2"/>
<text x="718.4" y="78.0"></text>
</g>
<g>
<title>java/util/concurrent/locks/AbstractQueuedSynchronizer.addWaiter (2 samples, 0.14%)</title><rect x="715.4" y="51.0" width="1.6" height="15" fill="#5aeb5a" rx="2" ry="2"/>
<text x="718.4" y="62.0"></text>
</g>
<g>
<title>java.util.concurrent.locks.AbstractQueuedSynchronizer$Node (2 samples, 0.14%)</title><rect x="715.4" y="35.0" width="1.6" height="15" fill="#58c6c6" rx="2" ry="2"/>
<text x="718.4" y="46.0"></text>
</g>
<g>
<title>one/nio/http/Request.getPath (83 samples, 5.78%)</title><rect x="717.0" y="147.0" width="68.2" height="15" fill="#65f665" rx="2" ry="2"/>
<text x="720.0" y="158.0">one/nio..</text>
</g>
<g>
<title>java/lang/String.substring (83 samples, 5.78%)</title><rect x="717.0" y="131.0" width="68.2" height="15" fill="#5aeb5a" rx="2" ry="2"/>
<text x="720.0" y="142.0">java/la..</text>
</g>
<g>
<title>java/lang/StringLatin1.newString (83 samples, 5.78%)</title><rect x="717.0" y="115.0" width="68.2" height="15" fill="#55e655" rx="2" ry="2"/>
<text x="720.0" y="126.0">java/la..</text>
</g>
<g>
<title>java.lang.String (32 samples, 2.23%)</title><rect x="717.0" y="99.0" width="26.3" height="15" fill="#5fcdcd" rx="2" ry="2"/>
<text x="720.0" y="110.0">j..</text>
</g>
<g>
<title>java/util/Arrays.copyOfRange (51 samples, 3.55%)</title><rect x="743.3" y="99.0" width="41.9" height="15" fill="#68f968" rx="2" ry="2"/>
<text x="746.3" y="110.0">jav..</text>
</g>
<g>
<title>byte[] (51 samples, 3.55%)</title><rect x="743.3" y="83.0" width="41.9" height="15" fill="#66d4d4" rx="2" ry="2"/>
<text x="746.3" y="94.0">byt..</text>
</g>
<g>
<title>one/nio/http/HttpSession.parseRequest (333 samples, 23.17%)</title><rect x="785.2" y="179.0" width="273.4" height="15" fill="#57e857" rx="2" ry="2"/>
<text x="788.2" y="190.0">one/nio/http/HttpSession.parseRequest</text>
</g>
<g>
<title>one.nio.http.Request (59 samples, 4.11%)</title><rect x="785.2" y="163.0" width="48.4" height="15" fill="#61cfcf" rx="2" ry="2"/>
<text x="788.2" y="174.0">one...</text>
</g>
<g>
<title>one/nio/http/Request.&lt;init&gt; (95 samples, 6.61%)</title><rect x="833.6" y="163.0" width="78.0" height="15" fill="#66f766" rx="2" ry="2"/>
<text x="836.6" y="174.0">one/nio/h..</text>
</g>
<g>
<title>java.lang.String[] (95 samples, 6.61%)</title><rect x="833.6" y="147.0" width="78.0" height="15" fill="#53c1c1" rx="2" ry="2"/>
<text x="836.6" y="158.0">java.lang..</text>
</g>
<g>
<title>one/nio/util/Utf8.read (179 samples, 12.46%)</title><rect x="911.6" y="163.0" width="147.0" height="15" fill="#5bec5b" rx="2" ry="2"/>
<text x="914.6" y="174.0">one/nio/util/Utf8...</text>
</g>
<g>
<title>one/nio/util/Utf8.read (179 samples, 12.46%)</title><rect x="911.6" y="147.0" width="147.0" height="15" fill="#56e756" rx="2" ry="2"/>
<text x="914.6" y="158.0">one/nio/util/Utf8...</text>
</g>
<g>
<title>char[] (98 samples, 6.82%)</title><rect x="911.6" y="131.0" width="80.5" height="15" fill="#5ac8c8" rx="2" ry="2"/>
<text x="914.6" y="142.0">char[]</text>
</g>
<g>
<title>java.lang.String (23 samples, 1.60%)</title><rect x="992.1" y="131.0" width="18.9" height="15" fill="#6cdada" rx="2" ry="2"/>
<text x="995.1" y="142.0"></text>
</g>
<g>
<title>java/lang/String.&lt;init&gt; (58 samples, 4.04%)</title><rect x="1011.0" y="131.0" width="47.6" height="15" fill="#5bec5b" rx="2" ry="2"/>
<text x="1014.0" y="142.0">java..</text>
</g>
<g>
<title>java/lang/String.&lt;init&gt; (58 samples, 4.04%)</title><rect x="1011.0" y="115.0" width="47.6" height="15" fill="#56e756" rx="2" ry="2"/>
<text x="1014.0" y="126.0">java..</text>
</g>
<g>
<title>java/lang/StringUTF16.compress (58 samples, 4.04%)</title><rect x="1011.0" y="99.0" width="47.6" height="15" fill="#6afb6a" rx="2" ry="2"/>
<text x="1014.0" y="110.0">java..</text>
</g>
<g>
<title>byte[] (58 samples, 4.04%)</title><rect x="1011.0" y="83.0" width="47.6" height="15" fill="#60cece" rx="2" ry="2"/>
<text x="1014.0" y="94.0">byte[]</text>
</g>
<g>
<title>one/nio/util/Utf8.read (160 samples, 11.13%)</title><rect x="1058.6" y="179.0" width="131.4" height="15" fill="#56e756" rx="2" ry="2"/>
<text x="1061.6" y="190.0">one/nio/util/Utf..</text>
</g>
<g>
<title>one/nio/util/Utf8.read (160 samples, 11.13%)</title><rect x="1058.6" y="163.0" width="131.4" height="15" fill="#60f160" rx="2" ry="2"/>
<text x="1061.6" y="174.0">one/nio/util/Utf..</text>
</g>
<g>
<title>char[] (72 samples, 5.01%)</title><rect x="1058.6" y="147.0" width="59.1" height="15" fill="#6cdada" rx="2" ry="2"/>
<text x="1061.6" y="158.0">char[]</text>
</g>
<g>
<title>java.lang.String (29 samples, 2.02%)</title><rect x="1117.7" y="147.0" width="23.9" height="15" fill="#5bc9c9" rx="2" ry="2"/>
<text x="1120.7" y="158.0">j..</text>
</g>
<g>
<title>java/lang/String.&lt;init&gt; (59 samples, 4.11%)</title><rect x="1141.6" y="147.0" width="48.4" height="15" fill="#52e352" rx="2" ry="2"/>
<text x="1144.6" y="158.0">java..</text>
</g>
<g>
<title>java/lang/String.&lt;init&gt; (59 samples, 4.11%)</title><rect x="1141.6" y="131.0" width="48.4" height="15" fill="#5ff05f" rx="2" ry="2"/>
<text x="1144.6" y="142.0">java..</text>
</g>
<g>
<title>java/lang/StringUTF16.compress (59 samples, 4.11%)</title><rect x="1141.6" y="115.0" width="48.4" height="15" fill="#64f564" rx="2" ry="2"/>
<text x="1144.6" y="126.0">java..</text>
</g>
<g>
<title>byte[] (59 samples, 4.11%)</title><rect x="1141.6" y="99.0" width="48.4" height="15" fill="#68d6d6" rx="2" ry="2"/>
<text x="1144.6" y="110.0">byte[]</text>
</g>
</g>
</svg>
