<?xml version="1.0" standalone="no"?>
<!DOCTYPE svg PUBLIC "-//W3C//DTD SVG 1.1//EN" "http://www.w3.org/Graphics/SVG/1.1/DTD/svg11.dtd">
<svg version="1.1" width="1200" height="342" onload="init(evt)" viewBox="0 0 1200 342" xmlns="http://www.w3.org/2000/svg" xmlns:xlink="http://www.w3.org/1999/xlink">
<style type="text/css">
	text { font-family:Verdana; font-size:12px; fill:rgb(0,0,0); }
	#search { opacity:0.1; cursor:pointer; }
	#search:hover, #search.show { opacity:1; }
	#subtitle { text-anchor:middle; font-color:rgb(160,160,160); }
	#title { text-anchor:middle; font-size:17px}
	#unzoom { cursor:pointer; }
	#frames > *:hover { stroke:black; stroke-width:0.5; cursor:pointer; }
	.hide { display:none; }
	.parent { opacity:0.5; }
</style>
<script type="text/ecmascript">
<![CDATA[
	"use strict";
	var details, searchbtn, unzoombtn, matchedtxt, svg, searching;
	function init(evt) {
		details = document.getElementById("details").firstChild;
		searchbtn = document.getElementById("search");
		unzoombtn = document.getElementById("unzoom");
		matchedtxt = document.getElementById("matched");
		svg = document.getElementsByTagName("svg")[0];
		searching = 0;
	}

	window.addEventListener("click", function(e) {
		var target = find_group(e.target);
		if (target) {
			if (target.nodeName == "a") {
				if (e.ctrlKey === false) return;
				e.preventDefault();
			}
			if (target.classList.contains("parent")) unzoom();
			zoom(target);
		}
		else if (e.target.id == "unzoom") unzoom();
		else if (e.target.id == "search") search_prompt();
	}, false)

	// mouse-over for info
	// show
	window.addEventListener("mouseover", function(e) {
		var target = find_group(e.target);
		if (target) details.nodeValue = "Function: " + g_to_text(target);
	}, false)

	// clear
	window.addEventListener("mouseout", function(e) {
		var target = find_group(e.target);
		if (target) details.nodeValue = ' ';
	}, false)

	// ctrl-F for search
	window.addEventListener("keydown",function (e) {
		if (e.keyCode === 114 || (e.ctrlKey && e.keyCode === 70)) {
			e.preventDefault();
			search_prompt();
		}
	}, false)

	// functions
	function find_child(node, selector) {
		var children = node.querySelectorAll(selector);
		if (children.length) return children[0];
		return;
	}
	function find_group(node) {
		var parent = node.parentElement;
		if (!parent) return;
		if (parent.id == "frames") return node;
		return find_group(parent);
	}
	function orig_save(e, attr, val) {
		if (e.attributes["_orig_" + attr] != undefined) return;
		if (e.attributes[attr] == undefined) return;
		if (val == undefined) val = e.attributes[attr].value;
		e.setAttribute("_orig_" + attr, val);
	}
	function orig_load(e, attr) {
		if (e.attributes["_orig_"+attr] == undefined) return;
		e.attributes[attr].value = e.attributes["_orig_" + attr].value;
		e.removeAttribute("_orig_"+attr);
	}
	function g_to_text(e) {
		var text = find_child(e, "title").firstChild.nodeValue;
		return (text)
	}
	function g_to_func(e) {
		var func = g_to_text(e);
		// if there's any manipulation we want to do to the function
		// name before it's searched, do it here before returning.
		return (func);
	}
	function update_text(e) {
		var r = find_child(e, "rect");
		var t = find_child(e, "text");
		var w = parseFloat(r.attributes.width.value) -3;
		var txt = find_child(e, "title").textContent.replace(/\([^(]*\)$/,"");
		t.attributes.x.value = parseFloat(r.attributes.x.value) + 3;

		// Smaller than this size won't fit anything
		if (w < 2 * 12 * 0.59) {
			t.textContent = "";
			return;
		}

		t.textContent = txt;
		// Fit in full text width
		if (/^ *$/.test(txt) || t.getSubStringLength(0, txt.length) < w)
			return;

		for (var x = txt.length - 2; x > 0; x--) {
			if (t.getSubStringLength(0, x + 2) <= w) {
				t.textContent = txt.substring(0, x) + "..";
				return;
			}
		}
		t.textContent = "";
	}

	// zoom
	function zoom_reset(e) {
		if (e.attributes != undefined) {
			orig_load(e, "x");
			orig_load(e, "width");
		}
		if (e.childNodes == undefined) return;
		for (var i = 0, c = e.childNodes; i < c.length; i++) {
			zoom_reset(c[i]);
		}
	}
	function zoom_child(e, x, ratio) {
		if (e.attributes != undefined) {
			if (e.attributes.x != undefined) {
				orig_save(e, "x");
				e.attributes.x.value = (parseFloat(e.attributes.x.value) - x - 10) * ratio + 10;
				if (e.tagName == "text")
					e.attributes.x.value = find_child(e.parentNode, "rect[x]").attributes.x.value + 3;
			}
			if (e.attributes.width != undefined) {
				orig_save(e, "width");
				e.attributes.width.value = parseFloat(e.attributes.width.value) * ratio;
			}
		}

		if (e.childNodes == undefined) return;
		for (var i = 0, c = e.childNodes; i < c.length; i++) {
			zoom_child(c[i], x - 10, ratio);
		}
	}
	function zoom_parent(e) {
		if (e.attributes) {
			if (e.attributes.x != undefined) {
				orig_save(e, "x");
				e.attributes.x.value = 10;
			}
			if (e.attributes.width != undefined) {
				orig_save(e, "width");
				e.attributes.width.value = parseInt(svg.width.baseVal.value) - (10 * 2);
			}
		}
		if (e.childNodes == undefined) return;
		for (var i = 0, c = e.childNodes; i < c.length; i++) {
			zoom_parent(c[i]);
		}
	}
	function zoom(node) {
		var attr = find_child(node, "rect").attributes;
		var width = parseFloat(attr.width.value);
		var xmin = parseFloat(attr.x.value);
		var xmax = parseFloat(xmin + width);
		var ymin = parseFloat(attr.y.value);
		var ratio = (svg.width.baseVal.value - 2 * 10) / width;

		// XXX: Workaround for JavaScript float issues (fix me)
		var fudge = 0.0001;

		unzoombtn.classList.remove("hide");

		var el = document.getElementById("frames").children;
		for (var i = 0; i < el.length; i++) {
			var e = el[i];
			var a = find_child(e, "rect").attributes;
			var ex = parseFloat(a.x.value);
			var ew = parseFloat(a.width.value);
			var upstack;
			// Is it an ancestor
			if (0 == 0) {
				upstack = parseFloat(a.y.value) > ymin;
			} else {
				upstack = parseFloat(a.y.value) < ymin;
			}
			if (upstack) {
				// Direct ancestor
				if (ex <= xmin && (ex+ew+fudge) >= xmax) {
					e.classList.add("parent");
					zoom_parent(e);
					update_text(e);
				}
				// not in current path
				else
					e.classList.add("hide");
			}
			// Children maybe
			else {
				// no common path
				if (ex < xmin || ex + fudge >= xmax) {
					e.classList.add("hide");
				}
				else {
					zoom_child(e, xmin, ratio);
					update_text(e);
				}
			}
		}
	}
	function unzoom() {
		unzoombtn.classList.add("hide");
		var el = document.getElementById("frames").children;
		for(var i = 0; i < el.length; i++) {
			el[i].classList.remove("parent");
			el[i].classList.remove("hide");
			zoom_reset(el[i]);
			update_text(el[i]);
		}
	}

	// search
	function reset_search() {
		var el = document.querySelectorAll("#frames rect");
		for (var i = 0; i < el.length; i++) {
			orig_load(el[i], "fill")
		}
	}
	function search_prompt() {
		if (!searching) {
			var term = prompt("Enter a search term (regexp " +
			    "allowed, eg: ^ext4_)", "");
			if (term != null) {
				search(term)
			}
		} else {
			reset_search();
			searching = 0;
			searchbtn.classList.remove("show");
			searchbtn.firstChild.nodeValue = "Search"
			matchedtxt.classList.add("hide");
			matchedtxt.firstChild.nodeValue = ""
		}
	}
	function search(term) {
		var re = new RegExp(term);
		var el = document.getElementById("frames").children;
		var matches = new Object();
		var maxwidth = 0;
		for (var i = 0; i < el.length; i++) {
			var e = el[i];
			var func = g_to_func(e);
			var rect = find_child(e, "rect");
			if (func == null || rect == null)
				continue;

			// Save max width. Only works as we have a root frame
			var w = parseFloat(rect.attributes.width.value);
			if (w > maxwidth)
				maxwidth = w;

			if (func.match(re)) {
				// highlight
				var x = parseFloat(rect.attributes.x.value);
				orig_save(rect, "fill");
				rect.attributes.fill.value = "rgb(230,0,230)";

				// remember matches
				if (matches[x] == undefined) {
					matches[x] = w;
				} else {
					if (w > matches[x]) {
						// overwrite with parent
						matches[x] = w;
					}
				}
				searching = 1;
			}
		}
		if (!searching)
			return;

		searchbtn.classList.add("show");
		searchbtn.firstChild.nodeValue = "Reset Search";

		// calculate percent matched, excluding vertical overlap
		var count = 0;
		var lastx = -1;
		var lastw = 0;
		var keys = Array();
		for (k in matches) {
			if (matches.hasOwnProperty(k))
				keys.push(k);
		}
		// sort the matched frames by their x location
		// ascending, then width descending
		keys.sort(function(a, b){
			return a - b;
		});
		// Step through frames saving only the biggest bottom-up frames
		// thanks to the sort order. This relies on the tree property
		// where children are always smaller than their parents.
		var fudge = 0.0001;	// JavaScript floating point
		for (var k in keys) {
			var x = parseFloat(keys[k]);
			var w = matches[keys[k]];
			if (x >= lastx + lastw - fudge) {
				count += w;
				lastx = x;
				lastw = w;
			}
		}
		// display matched percent
		matchedtxt.classList.remove("hide");
		var pct = 100 * count / maxwidth;
		if (pct != 100) pct = pct.toFixed(1)
		matchedtxt.firstChild.nodeValue = "Matched: " + pct + "%";
	}
]]>
</script>
<rect x="0" y="0" width="100%" height="100%" fill="rgb(240,240,220)"/>
<text id="title" x="600" y="24">Flame Graph</text>
<text id="details" x="10" y="325"> </text>
<text id="unzoom" x="10" y="24" class="hide">Reset Zoom</text>
<text id="search" x="1090" y="24">Search</text>
<text id="matched" x="1090" y="325"> </text>
<g id="frames">
<g>
<title>all (26,718 samples, 100.00%)</title><rect x="10.0" y="291.0" width="1180.0" height="15" fill="#f27171" rx="2" ry="2"/>
<text x="13.0" y="302.0">all</text>
</g>
<g>
<title>java/lang/Thread.run (16,062 samples, 60.12%)</title><rect x="10.0" y="275.0" width="709.4" height="15" fill="#59ea59" rx="2" ry="2"/>
<text x="13.0" y="286.0">java/lang/Thread.run</text>
</g>
<g>
<title>java/util/concurrent/ThreadPoolExecutor$Worker.run (16,062 samples, 60.12%)</title><rect x="10.0" y="259.0" width="709.4" height="15" fill="#56e756" rx="2" ry="2"/>
<text x="13.0" y="270.0">java/util/concurrent/ThreadPoolExecutor$Worker.run</text>
</g>
<g>
<title>java/util/concurrent/ThreadPoolExecutor.runWorker (16,062 samples, 60.12%)</title><rect x="10.0" y="243.0" width="709.4" height="15" fill="#68f968" rx="2" ry="2"/>
<text x="13.0" y="254.0">java/util/concurrent/ThreadPoolExecutor.runWorker</text>
</g>
<g>
<title>java/util/concurrent/ThreadPoolExecutor.getTask (665 samples, 2.49%)</title><rect x="10.0" y="227.0" width="29.4" height="15" fill="#5dee5d" rx="2" ry="2"/>
<text x="13.0" y="238.0">ja..</text>
</g>
<g>
<title>java/util/concurrent/ArrayBlockingQueue.take (665 samples, 2.49%)</title><rect x="10.0" y="211.0" width="29.4" height="15" fill="#56e756" rx="2" ry="2"/>
<text x="13.0" y="222.0">ja..</text>
</g>
<g>
<title>java/util/concurrent/locks/AbstractQueuedSynchronizer$ConditionObject.await (664 samples, 2.49%)</title><rect x="10.0" y="195.0" width="29.3" height="15" fill="#54e554" rx="2" ry="2"/>
<text x="13.0" y="206.0">ja..</text>
</g>
<g>
<title>java/util/concurrent/locks/AbstractQueuedSynchronizer$ConditionObject.addConditionWaiter (664 samples, 2.49%)</title><rect x="10.0" y="179.0" width="29.3" height="15" fill="#65f665" rx="2" ry="2"/>
<text x="13.0" y="190.0">ja..</text>
</g>
<g>
<title>java.util.concurrent.locks.AbstractQueuedSynchronizer$Node (664 samples, 2.49%)</title><rect x="10.0" y="163.0" width="29.3" height="15" fill="#6ddbdb" rx="2" ry="2"/>
<text x="13.0" y="174.0">ja..</text>
</g>
<g>
<title>ru/mail/polis/service/ivanovandrey/AsyncServiceImpl$$Lambda$68/2146418081.run (8,215 samples, 30.75%)</title><rect x="39.4" y="227.0" width="362.8" height="15" fill="#68f968" rx="2" ry="2"/>
<text x="42.4" y="238.0">ru/mail/polis/service/ivanovandrey/AsyncServiceIm..</text>
</g>
<g>
<title>ru/mail/polis/service/ivanovandrey/AsyncServiceImpl.lambda$get$2 (8,215 samples, 30.75%)</title><rect x="39.4" y="211.0" width="362.8" height="15" fill="#58e958" rx="2" ry="2"/>
<text x="42.4" y="222.0">ru/mail/polis/service/ivanovandrey/AsyncServiceIm..</text>
</g>
<g>
<title>one/nio/http/HttpSession.sendResponse (2,920 samples, 10.93%)</title><rect x="39.4" y="195.0" width="128.9" height="15" fill="#5ced5c" rx="2" ry="2"/>
<text x="42.4" y="206.0">one/nio/http/Htt..</text>
</g>
<g>
<title>one/nio/http/HttpSession.writeResponse (2,920 samples, 10.93%)</title><rect x="39.4" y="179.0" width="128.9" height="15" fill="#5ff05f" rx="2" ry="2"/>
<text x="42.4" y="190.0">one/nio/http/Htt..</text>
</g>
<g>
<title>one/nio/http/Response.toBytes (2,139 samples, 8.01%)</title><rect x="39.4" y="163.0" width="94.4" height="15" fill="#56e756" rx="2" ry="2"/>
<text x="42.4" y="174.0">one/nio/htt..</text>
</g>
<g>
<title>one/nio/util/ByteArrayBuilder.&lt;init&gt; (2,139 samples, 8.01%)</title><rect x="39.4" y="147.0" width="94.4" height="15" fill="#65f665" rx="2" ry="2"/>
<text x="42.4" y="158.0">one/nio/uti..</text>
</g>
<g>
<title>byte[] (2,139 samples, 8.01%)</title><rect x="39.4" y="131.0" width="94.4" height="15" fill="#53c1c1" rx="2" ry="2"/>
<text x="42.4" y="142.0">byte[]</text>
</g>
<g>
<title>one/nio/net/Session.write (781 samples, 2.92%)</title><rect x="133.8" y="163.0" width="34.5" height="15" fill="#51e251" rx="2" ry="2"/>
<text x="136.8" y="174.0">on..</text>
</g>
<g>
<title>one.nio.net.Session$ArrayQueueItem (781 samples, 2.92%)</title><rect x="133.8" y="147.0" width="34.5" height="15" fill="#58c6c6" rx="2" ry="2"/>
<text x="136.8" y="158.0">on..</text>
</g>
<g>
<title>one/nio/http/Response.ok (2,590 samples, 9.69%)</title><rect x="168.3" y="195.0" width="114.4" height="15" fill="#51e251" rx="2" ry="2"/>
<text x="171.3" y="206.0">one/nio/http/R..</text>
</g>
<g>
<title>one.nio.http.Response (504 samples, 1.89%)</title><rect x="168.3" y="179.0" width="22.3" height="15" fill="#57c5c5" rx="2" ry="2"/>
<text x="171.3" y="190.0">o..</text>
</g>
<g>
<title>one/nio/http/Response.&lt;init&gt; (2,086 samples, 7.81%)</title><rect x="190.6" y="179.0" width="92.1" height="15" fill="#68f968" rx="2" ry="2"/>
<text x="193.6" y="190.0">one/nio/htt..</text>
</g>
<g>
<title>byte[] (882 samples, 3.30%)</title><rect x="190.6" y="163.0" width="38.9" height="15" fill="#6bd9d9" rx="2" ry="2"/>
<text x="193.6" y="174.0">byt..</text>
</g>
<g>
<title>java.lang.String[] (660 samples, 2.47%)</title><rect x="229.5" y="163.0" width="29.2" height="15" fill="#61cfcf" rx="2" ry="2"/>
<text x="232.5" y="174.0">ja..</text>
</g>
<g>
<title>java.lang.String (544 samples, 2.04%)</title><rect x="258.7" y="163.0" width="24.0" height="15" fill="#61cfcf" rx="2" ry="2"/>
<text x="261.7" y="174.0">j..</text>
</g>
<g>
<title>ru/mail/polis/dao/Converter.fromByteBufferToByteArray (595 samples, 2.23%)</title><rect x="282.7" y="195.0" width="26.3" height="15" fill="#6cfd6c" rx="2" ry="2"/>
<text x="285.7" y="206.0">r..</text>
</g>
<g>
<title>byte[] (595 samples, 2.23%)</title><rect x="282.7" y="179.0" width="26.3" height="15" fill="#6cdada" rx="2" ry="2"/>
<text x="285.7" y="190.0">b..</text>
</g>
<g>
<title>ru/mail/polis/dao/RocksDBImpl.get (2,110 samples, 7.90%)</title><rect x="309.0" y="195.0" width="93.2" height="15" fill="#55e655" rx="2" ry="2"/>
<text x="312.0" y="206.0">ru/mail/pol..</text>
</g>
<g>
<title>java/nio/ByteBuffer.wrap (1,042 samples, 3.90%)</title><rect x="309.0" y="179.0" width="46.0" height="15" fill="#5eef5e" rx="2" ry="2"/>
<text x="312.0" y="190.0">java..</text>
</g>
<g>
<title>java/nio/ByteBuffer.wrap (1,042 samples, 3.90%)</title><rect x="309.0" y="163.0" width="46.0" height="15" fill="#56e756" rx="2" ry="2"/>
<text x="312.0" y="174.0">java..</text>
</g>
<g>
<title>java.nio.HeapByteBuffer (1,042 samples, 3.90%)</title><rect x="309.0" y="147.0" width="46.0" height="15" fill="#5ccaca" rx="2" ry="2"/>
<text x="312.0" y="158.0">java..</text>
</g>
<g>
<title>org/rocksdb/RocksDB.get (460 samples, 1.72%)</title><rect x="355.0" y="179.0" width="20.3" height="15" fill="#58e958" rx="2" ry="2"/>
<text x="358.0" y="190.0"></text>
</g>
<g>
<title>org/rocksdb/RocksDB.get (460 samples, 1.72%)</title><rect x="355.0" y="163.0" width="20.3" height="15" fill="#67f867" rx="2" ry="2"/>
<text x="358.0" y="174.0"></text>
</g>
<g>
<title>byte[] (460 samples, 1.72%)</title><rect x="355.0" y="147.0" width="20.3" height="15" fill="#65d3d3" rx="2" ry="2"/>
<text x="358.0" y="158.0"></text>
</g>
<g>
<title>ru/mail/polis/dao/Converter.toArrayShifted (608 samples, 2.28%)</title><rect x="375.3" y="179.0" width="26.9" height="15" fill="#5eef5e" rx="2" ry="2"/>
<text x="378.3" y="190.0">r..</text>
</g>
<g>
<title>ru/mail/polis/dao/Converter.fromByteBufferToByteArray (608 samples, 2.28%)</title><rect x="375.3" y="163.0" width="26.9" height="15" fill="#62f362" rx="2" ry="2"/>
<text x="378.3" y="174.0">r..</text>
</g>
<g>
<title>byte[] (608 samples, 2.28%)</title><rect x="375.3" y="147.0" width="26.9" height="15" fill="#55c3c3" rx="2" ry="2"/>
<text x="378.3" y="158.0">b..</text>
</g>
<g>
<title>ru/mail/polis/service/ivanovandrey/AsyncServiceImpl$$Lambda$70/1159765973.run (7,182 samples, 26.88%)</title><rect x="402.2" y="227.0" width="317.2" height="15" fill="#64f564" rx="2" ry="2"/>
<text x="405.2" y="238.0">ru/mail/polis/service/ivanovandrey/AsyncSer..</text>
</g>
<g>
<title>ru/mail/polis/service/ivanovandrey/AsyncServiceImpl.lambda$entity$0 (7,182 samples, 26.88%)</title><rect x="402.2" y="211.0" width="317.2" height="15" fill="#67f867" rx="2" ry="2"/>
<text x="405.2" y="222.0">ru/mail/polis/service/ivanovandrey/AsyncSer..</text>
</g>
<g>
<title>one/nio/http/HttpSession.sendResponse (67 samples, 0.25%)</title><rect x="402.2" y="195.0" width="2.9" height="15" fill="#6bfc6b" rx="2" ry="2"/>
<text x="405.2" y="206.0"></text>
</g>
<g>
<title>one/nio/http/HttpSession.writeResponse (67 samples, 0.25%)</title><rect x="402.2" y="179.0" width="2.9" height="15" fill="#64f564" rx="2" ry="2"/>
<text x="405.2" y="190.0"></text>
</g>
<g>
<title>one/nio/http/Response.toBytes (44 samples, 0.16%)</title><rect x="402.2" y="163.0" width="1.9" height="15" fill="#61f261" rx="2" ry="2"/>
<text x="405.2" y="174.0"></text>
</g>
<g>
<title>one/nio/util/ByteArrayBuilder.&lt;init&gt; (44 samples, 0.16%)</title><rect x="402.2" y="147.0" width="1.9" height="15" fill="#56e756" rx="2" ry="2"/>
<text x="405.2" y="158.0"></text>
</g>
<g>
<title>byte[] (44 samples, 0.16%)</title><rect x="402.2" y="131.0" width="1.9" height="15" fill="#53c1c1" rx="2" ry="2"/>
<text x="405.2" y="142.0"></text>
</g>
<g>
<title>one/nio/net/Session.write (23 samples, 0.09%)</title><rect x="404.1" y="163.0" width="1.0" height="15" fill="#52e352" rx="2" ry="2"/>
<text x="407.1" y="174.0"></text>
</g>
<g>
<title>one.nio.net.Session$ArrayQueueItem (23 samples, 0.09%)</title><rect x="404.1" y="147.0" width="1.0" height="15" fill="#5ccaca" rx="2" ry="2"/>
<text x="407.1" y="158.0"></text>
</g>
<g>
<title>ru/mail/polis/service/ivanovandrey/AsyncServiceImpl.forwardRequest (7,115 samples, 26.63%)</title><rect x="405.1" y="195.0" width="314.3" height="15" fill="#68f968" rx="2" ry="2"/>
<text x="408.1" y="206.0">ru/mail/polis/service/ivanovandrey/AsyncSe..</text>
</g>
<g>
<title>one/nio/http/HttpClient.invoke (7,115 samples, 26.63%)</title><rect x="405.1" y="179.0" width="314.3" height="15" fill="#55e655" rx="2" ry="2"/>
<text x="408.1" y="190.0">one/nio/http/HttpClient.invoke</text>
</g>
<g>
<title>one/nio/http/HttpClient.invoke (7,115 samples, 26.63%)</title><rect x="405.1" y="163.0" width="314.3" height="15" fill="#5eef5e" rx="2" ry="2"/>
<text x="408.1" y="174.0">one/nio/http/HttpClient.invoke</text>
</g>
<g>
<title>one.nio.http.HttpClient$ResponseReader (29 samples, 0.11%)</title><rect x="405.1" y="147.0" width="1.3" height="15" fill="#52c0c0" rx="2" ry="2"/>
<text x="408.1" y="158.0"></text>
</g>
<g>
<title>one/nio/http/HttpClient$ResponseReader.&lt;init&gt; (6,260 samples, 23.43%)</title><rect x="406.4" y="147.0" width="276.5" height="15" fill="#56e756" rx="2" ry="2"/>
<text x="409.4" y="158.0">one/nio/http/HttpClient$ResponseReade..</text>
</g>
<g>
<title>byte[] (4,104 samples, 15.36%)</title><rect x="406.4" y="131.0" width="181.3" height="15" fill="#65d3d3" rx="2" ry="2"/>
<text x="409.4" y="142.0">byte[]</text>
</g>
<g>
<title>byte[] (2,156 samples, 8.07%)</title><rect x="587.7" y="131.0" width="95.2" height="15" fill="#fb9700" rx="2" ry="2"/>
<text x="590.7" y="142.0">byte[]</text>
</g>
<g>
<title>one/nio/http/HttpClient$ResponseReader.readResponse (694 samples, 2.60%)</title><rect x="682.9" y="147.0" width="30.6" height="15" fill="#54e554" rx="2" ry="2"/>
<text x="685.9" y="158.0">on..</text>
</g>
<g>
<title>byte[] (13 samples, 0.05%)</title><rect x="682.9" y="131.0" width="0.6" height="15" fill="#59c7c7" rx="2" ry="2"/>
<text x="685.9" y="142.0"></text>
</g>
<g>
<title>java/lang/String.substring (29 samples, 0.11%)</title><rect x="683.5" y="131.0" width="1.3" height="15" fill="#5eef5e" rx="2" ry="2"/>
<text x="686.5" y="142.0"></text>
</g>
<g>
<title>java/lang/StringLatin1.newString (29 samples, 0.11%)</title><rect x="683.5" y="115.0" width="1.3" height="15" fill="#52e352" rx="2" ry="2"/>
<text x="686.5" y="126.0"></text>
</g>
<g>
<title>java.lang.String (11 samples, 0.04%)</title><rect x="683.5" y="99.0" width="0.5" height="15" fill="#57c5c5" rx="2" ry="2"/>
<text x="686.5" y="110.0"></text>
</g>
<g>
<title>java/util/Arrays.copyOfRange (18 samples, 0.07%)</title><rect x="684.0" y="99.0" width="0.8" height="15" fill="#64f564" rx="2" ry="2"/>
<text x="687.0" y="110.0"></text>
</g>
<g>
<title>byte[] (18 samples, 0.07%)</title><rect x="684.0" y="83.0" width="0.8" height="15" fill="#60cece" rx="2" ry="2"/>
<text x="687.0" y="94.0"></text>
</g>
<g>
<title>one.nio.http.Response (14 samples, 0.05%)</title><rect x="684.8" y="131.0" width="0.6" height="15" fill="#5ecccc" rx="2" ry="2"/>
<text x="687.8" y="142.0"></text>
</g>
<g>
<title>one/nio/http/HttpClient$ResponseReader.readLine (586 samples, 2.19%)</title><rect x="685.4" y="131.0" width="25.9" height="15" fill="#53e453" rx="2" ry="2"/>
<text x="688.4" y="142.0">o..</text>
</g>
<g>
<title>one/nio/util/Utf8.read (586 samples, 2.19%)</title><rect x="685.4" y="115.0" width="25.9" height="15" fill="#69fa69" rx="2" ry="2"/>
<text x="688.4" y="126.0">o..</text>
</g>
<g>
<title>one/nio/util/Utf8.read (586 samples, 2.19%)</title><rect x="685.4" y="99.0" width="25.9" height="15" fill="#57e857" rx="2" ry="2"/>
<text x="688.4" y="110.0">o..</text>
</g>
<g>
<title>char[] (463 samples, 1.73%)</title><rect x="685.4" y="83.0" width="20.4" height="15" fill="#69d7d7" rx="2" ry="2"/>
<text x="688.4" y="94.0"></text>
</g>
<g>
<title>java.lang.String (52 samples, 0.19%)</title><rect x="705.8" y="83.0" width="2.3" height="15" fill="#59c7c7" rx="2" ry="2"/>
<text x="708.8" y="94.0"></text>
</g>
<g>
<title>java/lang/String.&lt;init&gt; (71 samples, 0.27%)</title><rect x="708.1" y="83.0" width="3.2" height="15" fill="#6afb6a" rx="2" ry="2"/>
<text x="711.1" y="94.0"></text>
</g>
<g>
<title>java/lang/String.&lt;init&gt; (71 samples, 0.27%)</title><rect x="708.1" y="67.0" width="3.2" height="15" fill="#50e150" rx="2" ry="2"/>
<text x="711.1" y="78.0"></text>
</g>
<g>
<title>java/lang/StringUTF16.compress (71 samples, 0.27%)</title><rect x="708.1" y="51.0" width="3.2" height="15" fill="#50e150" rx="2" ry="2"/>
<text x="711.1" y="62.0"></text>
</g>
<g>
<title>byte[] (71 samples, 0.27%)</title><rect x="708.1" y="35.0" width="3.2" height="15" fill="#63d1d1" rx="2" ry="2"/>
<text x="711.1" y="46.0"></text>
</g>
<g>
<title>one/nio/http/Response.&lt;init&gt; (22 samples, 0.08%)</title><rect x="711.3" y="131.0" width="0.9" height="15" fill="#6bfc6b" rx="2" ry="2"/>
<text x="714.3" y="142.0"></text>
</g>
<g>
<title>java.lang.String[] (22 samples, 0.08%)</title><rect x="711.3" y="115.0" width="0.9" height="15" fill="#64d2d2" rx="2" ry="2"/>
<text x="714.3" y="126.0"></text>
</g>
<g>
<title>one/nio/http/Response.getHeader (30 samples, 0.11%)</title><rect x="712.2" y="131.0" width="1.3" height="15" fill="#56e756" rx="2" ry="2"/>
<text x="715.2" y="142.0"></text>
</g>
<g>
<title>java/lang/String.substring (30 samples, 0.11%)</title><rect x="712.2" y="115.0" width="1.3" height="15" fill="#54e554" rx="2" ry="2"/>
<text x="715.2" y="126.0"></text>
</g>
<g>
<title>java/lang/StringLatin1.newString (30 samples, 0.11%)</title><rect x="712.2" y="99.0" width="1.3" height="15" fill="#67f867" rx="2" ry="2"/>
<text x="715.2" y="110.0"></text>
</g>
<g>
<title>java.lang.String (14 samples, 0.05%)</title><rect x="712.2" y="83.0" width="0.6" height="15" fill="#59c7c7" rx="2" ry="2"/>
<text x="715.2" y="94.0"></text>
</g>
<g>
<title>java/util/Arrays.copyOfRange (16 samples, 0.06%)</title><rect x="712.8" y="83.0" width="0.7" height="15" fill="#60f160" rx="2" ry="2"/>
<text x="715.8" y="94.0"></text>
</g>
<g>
<title>byte[] (16 samples, 0.06%)</title><rect x="712.8" y="67.0" width="0.7" height="15" fill="#62d0d0" rx="2" ry="2"/>
<text x="715.8" y="78.0"></text>
</g>
<g>
<title>one/nio/http/Request.toBytes (82 samples, 0.31%)</title><rect x="713.5" y="147.0" width="3.7" height="15" fill="#5eef5e" rx="2" ry="2"/>
<text x="716.5" y="158.0"></text>
</g>
<g>
<title>one.nio.util.ByteArrayBuilder (32 samples, 0.12%)</title><rect x="713.5" y="131.0" width="1.5" height="15" fill="#51bfbf" rx="2" ry="2"/>
<text x="716.5" y="142.0"></text>
</g>
<g>
<title>one/nio/util/ByteArrayBuilder.&lt;init&gt; (50 samples, 0.19%)</title><rect x="715.0" y="131.0" width="2.2" height="15" fill="#64f564" rx="2" ry="2"/>
<text x="718.0" y="142.0"></text>
</g>
<g>
<title>byte[] (50 samples, 0.19%)</title><rect x="715.0" y="115.0" width="2.2" height="15" fill="#65d3d3" rx="2" ry="2"/>
<text x="718.0" y="126.0"></text>
</g>
<g>
<title>one/nio/http/Response.getHeader (35 samples, 0.13%)</title><rect x="717.2" y="147.0" width="1.5" height="15" fill="#67f867" rx="2" ry="2"/>
<text x="720.2" y="158.0"></text>
</g>
<g>
<title>java/lang/String.substring (35 samples, 0.13%)</title><rect x="717.2" y="131.0" width="1.5" height="15" fill="#61f261" rx="2" ry="2"/>
<text x="720.2" y="142.0"></text>
</g>
<g>
<title>java/lang/StringLatin1.newString (35 samples, 0.13%)</title><rect x="717.2" y="115.0" width="1.5" height="15" fill="#69fa69" rx="2" ry="2"/>
<text x="720.2" y="126.0"></text>
</g>
<g>
<title>java.lang.String (15 samples, 0.06%)</title><rect x="717.2" y="99.0" width="0.6" height="15" fill="#52c0c0" rx="2" ry="2"/>
<text x="720.2" y="110.0"></text>
</g>
<g>
<title>java/util/Arrays.copyOfRange (20 samples, 0.07%)</title><rect x="717.8" y="99.0" width="0.9" height="15" fill="#51e251" rx="2" ry="2"/>
<text x="720.8" y="110.0"></text>
</g>
<g>
<title>byte[] (20 samples, 0.07%)</title><rect x="717.8" y="83.0" width="0.9" height="15" fill="#6cdada" rx="2" ry="2"/>
<text x="720.8" y="94.0"></text>
</g>
<g>
<title>one/nio/pool/Pool.returnObject (15 samples, 0.06%)</title><rect x="718.7" y="147.0" width="0.7" height="15" fill="#59ea59" rx="2" ry="2"/>
<text x="721.7" y="158.0"></text>
</g>
<g>
<title>java/util/LinkedList.addFirst (15 samples, 0.06%)</title><rect x="718.7" y="131.0" width="0.7" height="15" fill="#66f766" rx="2" ry="2"/>
<text x="721.7" y="142.0"></text>
</g>
<g>
<title>java/util/LinkedList.linkFirst (15 samples, 0.06%)</title><rect x="718.7" y="115.0" width="0.7" height="15" fill="#5ff05f" rx="2" ry="2"/>
<text x="721.7" y="126.0"></text>
</g>
<g>
<title>java.util.LinkedList$Node (15 samples, 0.06%)</title><rect x="718.7" y="99.0" width="0.7" height="15" fill="#68d6d6" rx="2" ry="2"/>
<text x="721.7" y="110.0"></text>
</g>
<g>
<title>one/nio/server/SelectorThread.run (10,656 samples, 39.88%)</title><rect x="719.4" y="275.0" width="470.6" height="15" fill="#69fa69" rx="2" ry="2"/>
<text x="722.4" y="286.0">one/nio/server/SelectorThread.run</text>
</g>
<g>
<title>one/nio/net/NativeSelector.select (576 samples, 2.16%)</title><rect x="719.4" y="259.0" width="25.4" height="15" fill="#5aeb5a" rx="2" ry="2"/>
<text x="722.4" y="270.0">o..</text>
</g>
<g>
<title>one.nio.net.NativeSelector$2 (576 samples, 2.16%)</title><rect x="719.4" y="243.0" width="25.4" height="15" fill="#51bfbf" rx="2" ry="2"/>
<text x="722.4" y="254.0">o..</text>
</g>
<g>
<title>one/nio/net/Session.process (10,080 samples, 37.73%)</title><rect x="744.8" y="259.0" width="445.2" height="15" fill="#64f564" rx="2" ry="2"/>
<text x="747.8" y="270.0">one/nio/net/Session.process</text>
</g>
<g>
<title>one/nio/http/HttpSession.processRead (10,080 samples, 37.73%)</title><rect x="744.8" y="243.0" width="445.2" height="15" fill="#64f564" rx="2" ry="2"/>
<text x="747.8" y="254.0">one/nio/http/HttpSession.processRead</text>
</g>
<g>
<title>one/nio/http/HttpSession.processHttpBuffer (10,080 samples, 37.73%)</title><rect x="744.8" y="227.0" width="445.2" height="15" fill="#6bfc6b" rx="2" ry="2"/>
<text x="747.8" y="238.0">one/nio/http/HttpSession.processHttpBuffer</text>
</g>
<g>
<title>one/nio/http/HttpSession.handleParsedRequest (3,316 samples, 12.41%)</title><rect x="744.8" y="211.0" width="146.5" height="15" fill="#65f665" rx="2" ry="2"/>
<text x="747.8" y="222.0">one/nio/http/HttpS..</text>
</g>
<g>
<title>one/nio/http/HttpServer.handleRequest (3,316 samples, 12.41%)</title><rect x="744.8" y="195.0" width="146.5" height="15" fill="#65f665" rx="2" ry="2"/>
<text x="747.8" y="206.0">one/nio/http/HttpS..</text>
</g>
<g>
<title>RequestHandler1_entity.handleRequest (2,426 samples, 9.08%)</title><rect x="744.8" y="179.0" width="107.2" height="15" fill="#61f261" rx="2" ry="2"/>
<text x="747.8" y="190.0">RequestHandle..</text>
</g>
<g>
<title>one/nio/http/Request.getRequiredParameter (820 samples, 3.07%)</title><rect x="744.8" y="163.0" width="36.2" height="15" fill="#63f463" rx="2" ry="2"/>
<text x="747.8" y="174.0">one..</text>
</g>
<g>
<title>one/nio/http/Request.getParameter (820 samples, 3.07%)</title><rect x="744.8" y="147.0" width="36.2" height="15" fill="#5ced5c" rx="2" ry="2"/>
<text x="747.8" y="158.0">one..</text>
</g>
<g>
<title>java/lang/String.substring (820 samples, 3.07%)</title><rect x="744.8" y="131.0" width="36.2" height="15" fill="#67f867" rx="2" ry="2"/>
<text x="747.8" y="142.0">jav..</text>
</g>
<g>
<title>java/lang/StringLatin1.newString (820 samples, 3.07%)</title><rect x="744.8" y="115.0" width="36.2" height="15" fill="#67f867" rx="2" ry="2"/>
<text x="747.8" y="126.0">jav..</text>
</g>
<g>
<title>java.lang.String (426 samples, 1.59%)</title><rect x="744.8" y="99.0" width="18.8" height="15" fill="#56c4c4" rx="2" ry="2"/>
<text x="747.8" y="110.0"></text>
</g>
<g>
<title>java/util/Arrays.copyOfRange (394 samples, 1.47%)</title><rect x="763.6" y="99.0" width="17.4" height="15" fill="#52e352" rx="2" ry="2"/>
<text x="766.6" y="110.0"></text>
</g>
<g>
<title>byte[] (394 samples, 1.47%)</title><rect x="763.6" y="83.0" width="17.4" height="15" fill="#5ac8c8" rx="2" ry="2"/>
<text x="766.6" y="94.0"></text>
</g>
<g>
<title>ru/mail/polis/service/ivanovandrey/AsyncServiceImpl.entity (1,606 samples, 6.01%)</title><rect x="781.0" y="163.0" width="71.0" height="15" fill="#68f968" rx="2" ry="2"/>
<text x="784.0" y="174.0">ru/mail/..</text>
</g>
<g>
<title>java/lang/invoke/Invokers$Holder.linkToTargetMethod (148 samples, 0.55%)</title><rect x="781.0" y="147.0" width="6.6" height="15" fill="#61f261" rx="2" ry="2"/>
<text x="784.0" y="158.0"></text>
</g>
<g>
<title>java/lang/invoke/DirectMethodHandle$Holder.invokeStatic (148 samples, 0.55%)</title><rect x="781.0" y="131.0" width="6.6" height="15" fill="#5bec5b" rx="2" ry="2"/>
<text x="784.0" y="142.0"></text>
</g>
<g>
<title>ru/mail/polis/service/ivanovandrey/AsyncServiceImpl$$Lambda$70/1159765973.get$Lambda (148 samples, 0.55%)</title><rect x="781.0" y="115.0" width="6.6" height="15" fill="#5ff05f" rx="2" ry="2"/>
<text x="784.0" y="126.0"></text>
</g>
<g>
<title>ru.mail.polis.service.ivanovandrey.AsyncServiceImpl$$Lambda$70 (148 samples, 0.55%)</title><rect x="781.0" y="99.0" width="6.6" height="15" fill="#59c7c7" rx="2" ry="2"/>
<text x="784.0" y="110.0"></text>
</g>
<g>
<title>ru/mail/polis/service/ivanovandrey/AsyncServiceImpl.get (280 samples, 1.05%)</title><rect x="787.6" y="147.0" width="12.3" height="15" fill="#54e554" rx="2" ry="2"/>
<text x="790.6" y="158.0"></text>
</g>
<g>
<title>java/lang/invoke/Invokers$Holder.linkToTargetMethod (279 samples, 1.04%)</title><rect x="787.6" y="131.0" width="12.3" height="15" fill="#52e352" rx="2" ry="2"/>
<text x="790.6" y="142.0"></text>
</g>
<g>
<title>java/lang/invoke/DirectMethodHandle$Holder.invokeStatic (279 samples, 1.04%)</title><rect x="787.6" y="115.0" width="12.3" height="15" fill="#54e554" rx="2" ry="2"/>
<text x="790.6" y="126.0"></text>
</g>
<g>
<title>ru/mail/polis/service/ivanovandrey/AsyncServiceImpl$$Lambda$68/2146418081.get$Lambda (279 samples, 1.04%)</title><rect x="787.6" y="99.0" width="12.3" height="15" fill="#57e857" rx="2" ry="2"/>
<text x="790.6" y="110.0"></text>
</g>
<g>
<title>ru.mail.polis.service.ivanovandrey.AsyncServiceImpl$$Lambda$68 (279 samples, 1.04%)</title><rect x="787.6" y="83.0" width="12.3" height="15" fill="#54c2c2" rx="2" ry="2"/>
<text x="790.6" y="94.0"></text>
</g>
<g>
<title>ru/mail/polis/service/ivanovandrey/AsyncServiceImpl.strToByteBuffer (1,178 samples, 4.41%)</title><rect x="799.9" y="147.0" width="52.1" height="15" fill="#53e453" rx="2" ry="2"/>
<text x="802.9" y="158.0">ru/ma..</text>
</g>
<g>
<title>java/lang/String.getBytes (449 samples, 1.68%)</title><rect x="799.9" y="131.0" width="19.9" height="15" fill="#61f261" rx="2" ry="2"/>
<text x="802.9" y="142.0"></text>
</g>
<g>
<title>java/lang/StringCoding.encode (449 samples, 1.68%)</title><rect x="799.9" y="115.0" width="19.9" height="15" fill="#6afb6a" rx="2" ry="2"/>
<text x="802.9" y="126.0"></text>
</g>
<g>
<title>java/lang/StringCoding.encodeUTF8 (449 samples, 1.68%)</title><rect x="799.9" y="99.0" width="19.9" height="15" fill="#62f362" rx="2" ry="2"/>
<text x="802.9" y="110.0"></text>
</g>
<g>
<title>java/util/Arrays.copyOf (449 samples, 1.68%)</title><rect x="799.9" y="83.0" width="19.9" height="15" fill="#5bec5b" rx="2" ry="2"/>
<text x="802.9" y="94.0"></text>
</g>
<g>
<title>byte[] (449 samples, 1.68%)</title><rect x="799.9" y="67.0" width="19.9" height="15" fill="#65d3d3" rx="2" ry="2"/>
<text x="802.9" y="78.0"></text>
</g>
<g>
<title>java/nio/ByteBuffer.wrap (729 samples, 2.73%)</title><rect x="819.8" y="131.0" width="32.2" height="15" fill="#6cfd6c" rx="2" ry="2"/>
<text x="822.8" y="142.0">ja..</text>
</g>
<g>
<title>java/nio/ByteBuffer.wrap (729 samples, 2.73%)</title><rect x="819.8" y="115.0" width="32.2" height="15" fill="#5dee5d" rx="2" ry="2"/>
<text x="822.8" y="126.0">ja..</text>
</g>
<g>
<title>java.nio.HeapByteBuffer (729 samples, 2.73%)</title><rect x="819.8" y="99.0" width="32.2" height="15" fill="#5ccaca" rx="2" ry="2"/>
<text x="822.8" y="110.0">ja..</text>
</g>
<g>
<title>one/nio/http/Request.getPath (890 samples, 3.33%)</title><rect x="852.0" y="179.0" width="39.3" height="15" fill="#63f463" rx="2" ry="2"/>
<text x="855.0" y="190.0">one..</text>
</g>
<g>
<title>java/lang/String.substring (890 samples, 3.33%)</title><rect x="852.0" y="163.0" width="39.3" height="15" fill="#5bec5b" rx="2" ry="2"/>
<text x="855.0" y="174.0">jav..</text>
</g>
<g>
<title>java/lang/StringLatin1.newString (890 samples, 3.33%)</title><rect x="852.0" y="147.0" width="39.3" height="15" fill="#53e453" rx="2" ry="2"/>
<text x="855.0" y="158.0">jav..</text>
</g>
<g>
<title>java.lang.String (393 samples, 1.47%)</title><rect x="852.0" y="131.0" width="17.3" height="15" fill="#5ac8c8" rx="2" ry="2"/>
<text x="855.0" y="142.0"></text>
</g>
<g>
<title>java/util/Arrays.copyOfRange (497 samples, 1.86%)</title><rect x="869.3" y="131.0" width="22.0" height="15" fill="#6cfd6c" rx="2" ry="2"/>
<text x="872.3" y="142.0">j..</text>
</g>
<g>
<title>byte[] (497 samples, 1.86%)</title><rect x="869.3" y="115.0" width="22.0" height="15" fill="#66d4d4" rx="2" ry="2"/>
<text x="872.3" y="126.0">b..</text>
</g>
<g>
<title>one/nio/http/HttpSession.parseRequest (4,670 samples, 17.48%)</title><rect x="891.3" y="211.0" width="206.2" height="15" fill="#66f766" rx="2" ry="2"/>
<text x="894.3" y="222.0">one/nio/http/HttpSession.pa..</text>
</g>
<g>
<title>one.nio.http.Request (740 samples, 2.77%)</title><rect x="891.3" y="195.0" width="32.7" height="15" fill="#66d4d4" rx="2" ry="2"/>
<text x="894.3" y="206.0">on..</text>
</g>
<g>
<title>one/nio/http/Request.&lt;init&gt; (1,663 samples, 6.22%)</title><rect x="924.0" y="195.0" width="73.4" height="15" fill="#5ff05f" rx="2" ry="2"/>
<text x="927.0" y="206.0">one/nio/..</text>
</g>
<g>
<title>java.lang.String[] (1,663 samples, 6.22%)</title><rect x="924.0" y="179.0" width="73.4" height="15" fill="#6cdada" rx="2" ry="2"/>
<text x="927.0" y="190.0">java.lan..</text>
</g>
<g>
<title>one/nio/util/Utf8.read (2,267 samples, 8.48%)</title><rect x="997.4" y="195.0" width="100.1" height="15" fill="#68f968" rx="2" ry="2"/>
<text x="1000.4" y="206.0">one/nio/util..</text>
</g>
<g>
<title>one/nio/util/Utf8.read (2,267 samples, 8.48%)</title><rect x="997.4" y="179.0" width="100.1" height="15" fill="#69fa69" rx="2" ry="2"/>
<text x="1000.4" y="190.0">one/nio/util..</text>
</g>
<g>
<title>char[] (1,183 samples, 4.43%)</title><rect x="997.4" y="163.0" width="52.2" height="15" fill="#67d5d5" rx="2" ry="2"/>
<text x="1000.4" y="174.0">char[]</text>
</g>
<g>
<title>java.lang.String (415 samples, 1.55%)</title><rect x="1049.6" y="163.0" width="18.4" height="15" fill="#5ccaca" rx="2" ry="2"/>
<text x="1052.6" y="174.0"></text>
</g>
<g>
<title>java/lang/String.&lt;init&gt; (669 samples, 2.50%)</title><rect x="1068.0" y="163.0" width="29.5" height="15" fill="#57e857" rx="2" ry="2"/>
<text x="1071.0" y="174.0">ja..</text>
</g>
<g>
<title>java/lang/String.&lt;init&gt; (669 samples, 2.50%)</title><rect x="1068.0" y="147.0" width="29.5" height="15" fill="#58e958" rx="2" ry="2"/>
<text x="1071.0" y="158.0">ja..</text>
</g>
<g>
<title>java/lang/StringUTF16.compress (669 samples, 2.50%)</title><rect x="1068.0" y="131.0" width="29.5" height="15" fill="#65f665" rx="2" ry="2"/>
<text x="1071.0" y="142.0">ja..</text>
</g>
<g>
<title>byte[] (669 samples, 2.50%)</title><rect x="1068.0" y="115.0" width="29.5" height="15" fill="#5ccaca" rx="2" ry="2"/>
<text x="1071.0" y="126.0">by..</text>
</g>
<g>
<title>one/nio/util/Utf8.read (2,094 samples, 7.84%)</title><rect x="1097.5" y="211.0" width="92.5" height="15" fill="#5bec5b" rx="2" ry="2"/>
<text x="1100.5" y="222.0">one/nio/uti..</text>
</g>
<g>
<title>one/nio/util/Utf8.read (2,094 samples, 7.84%)</title><rect x="1097.5" y="195.0" width="92.5" height="15" fill="#6afb6a" rx="2" ry="2"/>
<text x="1100.5" y="206.0">one/nio/uti..</text>
</g>
<g>
<title>char[] (898 samples, 3.36%)</title><rect x="1097.5" y="179.0" width="39.7" height="15" fill="#63d1d1" rx="2" ry="2"/>
<text x="1100.5" y="190.0">cha..</text>
</g>
<g>
<title>java.lang.String (430 samples, 1.61%)</title><rect x="1137.2" y="179.0" width="19.0" height="15" fill="#5fcdcd" rx="2" ry="2"/>
<text x="1140.2" y="190.0"></text>
</g>
<g>
<title>java/lang/String.&lt;init&gt; (766 samples, 2.87%)</title><rect x="1156.2" y="179.0" width="33.8" height="15" fill="#6dfe6d" rx="2" ry="2"/>
<text x="1159.2" y="190.0">ja..</text>
</g>
<g>
<title>java/lang/String.&lt;init&gt; (766 samples, 2.87%)</title><rect x="1156.2" y="163.0" width="33.8" height="15" fill="#57e857" rx="2" ry="2"/>
<text x="1159.2" y="174.0">ja..</text>
</g>
<g>
<title>java/lang/StringUTF16.compress (766 samples, 2.87%)</title><rect x="1156.2" y="147.0" width="33.8" height="15" fill="#5bec5b" rx="2" ry="2"/>
<text x="1159.2" y="158.0">ja..</text>
</g>
<g>
<title>byte[] (766 samples, 2.87%)</title><rect x="1156.2" y="131.0" width="33.8" height="15" fill="#61cfcf" rx="2" ry="2"/>
<text x="1159.2" y="142.0">by..</text>
</g>
</g>
</svg>
