<?xml version="1.0" standalone="no"?>
<!DOCTYPE svg PUBLIC "-//W3C//DTD SVG 1.1//EN" "http://www.w3.org/Graphics/SVG/1.1/DTD/svg11.dtd">
<svg version="1.1" width="1200" height="1302" onload="init(evt)" viewBox="0 0 1200 1302" xmlns="http://www.w3.org/2000/svg" xmlns:xlink="http://www.w3.org/1999/xlink">
<style type="text/css">
	text { font-family:Verdana; font-size:12px; fill:rgb(0,0,0); }
	#search { opacity:0.1; cursor:pointer; }
	#search:hover, #search.show { opacity:1; }
	#subtitle { text-anchor:middle; font-color:rgb(160,160,160); }
	#title { text-anchor:middle; font-size:17px}
	#unzoom { cursor:pointer; }
	#frames > *:hover { stroke:black; stroke-width:0.5; cursor:pointer; }
	.hide { display:none; }
	.parent { opacity:0.5; }
</style>
<script type="text/ecmascript">
<![CDATA[
	"use strict";
	var details, searchbtn, unzoombtn, matchedtxt, svg, searching;
	function init(evt) {
		details = document.getElementById("details").firstChild;
		searchbtn = document.getElementById("search");
		unzoombtn = document.getElementById("unzoom");
		matchedtxt = document.getElementById("matched");
		svg = document.getElementsByTagName("svg")[0];
		searching = 0;
	}

	window.addEventListener("click", function(e) {
		var target = find_group(e.target);
		if (target) {
			if (target.nodeName == "a") {
				if (e.ctrlKey === false) return;
				e.preventDefault();
			}
			if (target.classList.contains("parent")) unzoom();
			zoom(target);
		}
		else if (e.target.id == "unzoom") unzoom();
		else if (e.target.id == "search") search_prompt();
	}, false)

	// mouse-over for info
	// show
	window.addEventListener("mouseover", function(e) {
		var target = find_group(e.target);
		if (target) details.nodeValue = "Function: " + g_to_text(target);
	}, false)

	// clear
	window.addEventListener("mouseout", function(e) {
		var target = find_group(e.target);
		if (target) details.nodeValue = ' ';
	}, false)

	// ctrl-F for search
	window.addEventListener("keydown",function (e) {
		if (e.keyCode === 114 || (e.ctrlKey && e.keyCode === 70)) {
			e.preventDefault();
			search_prompt();
		}
	}, false)

	// functions
	function find_child(node, selector) {
		var children = node.querySelectorAll(selector);
		if (children.length) return children[0];
		return;
	}
	function find_group(node) {
		var parent = node.parentElement;
		if (!parent) return;
		if (parent.id == "frames") return node;
		return find_group(parent);
	}
	function orig_save(e, attr, val) {
		if (e.attributes["_orig_" + attr] != undefined) return;
		if (e.attributes[attr] == undefined) return;
		if (val == undefined) val = e.attributes[attr].value;
		e.setAttribute("_orig_" + attr, val);
	}
	function orig_load(e, attr) {
		if (e.attributes["_orig_"+attr] == undefined) return;
		e.attributes[attr].value = e.attributes["_orig_" + attr].value;
		e.removeAttribute("_orig_"+attr);
	}
	function g_to_text(e) {
		var text = find_child(e, "title").firstChild.nodeValue;
		return (text)
	}
	function g_to_func(e) {
		var func = g_to_text(e);
		// if there's any manipulation we want to do to the function
		// name before it's searched, do it here before returning.
		return (func);
	}
	function update_text(e) {
		var r = find_child(e, "rect");
		var t = find_child(e, "text");
		var w = parseFloat(r.attributes.width.value) -3;
		var txt = find_child(e, "title").textContent.replace(/\([^(]*\)$/,"");
		t.attributes.x.value = parseFloat(r.attributes.x.value) + 3;

		// Smaller than this size won't fit anything
		if (w < 2 * 12 * 0.59) {
			t.textContent = "";
			return;
		}

		t.textContent = txt;
		// Fit in full text width
		if (/^ *$/.test(txt) || t.getSubStringLength(0, txt.length) < w)
			return;

		for (var x = txt.length - 2; x > 0; x--) {
			if (t.getSubStringLength(0, x + 2) <= w) {
				t.textContent = txt.substring(0, x) + "..";
				return;
			}
		}
		t.textContent = "";
	}

	// zoom
	function zoom_reset(e) {
		if (e.attributes != undefined) {
			orig_load(e, "x");
			orig_load(e, "width");
		}
		if (e.childNodes == undefined) return;
		for (var i = 0, c = e.childNodes; i < c.length; i++) {
			zoom_reset(c[i]);
		}
	}
	function zoom_child(e, x, ratio) {
		if (e.attributes != undefined) {
			if (e.attributes.x != undefined) {
				orig_save(e, "x");
				e.attributes.x.value = (parseFloat(e.attributes.x.value) - x - 10) * ratio + 10;
				if (e.tagName == "text")
					e.attributes.x.value = find_child(e.parentNode, "rect[x]").attributes.x.value + 3;
			}
			if (e.attributes.width != undefined) {
				orig_save(e, "width");
				e.attributes.width.value = parseFloat(e.attributes.width.value) * ratio;
			}
		}

		if (e.childNodes == undefined) return;
		for (var i = 0, c = e.childNodes; i < c.length; i++) {
			zoom_child(c[i], x - 10, ratio);
		}
	}
	function zoom_parent(e) {
		if (e.attributes) {
			if (e.attributes.x != undefined) {
				orig_save(e, "x");
				e.attributes.x.value = 10;
			}
			if (e.attributes.width != undefined) {
				orig_save(e, "width");
				e.attributes.width.value = parseInt(svg.width.baseVal.value) - (10 * 2);
			}
		}
		if (e.childNodes == undefined) return;
		for (var i = 0, c = e.childNodes; i < c.length; i++) {
			zoom_parent(c[i]);
		}
	}
	function zoom(node) {
		var attr = find_child(node, "rect").attributes;
		var width = parseFloat(attr.width.value);
		var xmin = parseFloat(attr.x.value);
		var xmax = parseFloat(xmin + width);
		var ymin = parseFloat(attr.y.value);
		var ratio = (svg.width.baseVal.value - 2 * 10) / width;

		// XXX: Workaround for JavaScript float issues (fix me)
		var fudge = 0.0001;

		unzoombtn.classList.remove("hide");

		var el = document.getElementById("frames").children;
		for (var i = 0; i < el.length; i++) {
			var e = el[i];
			var a = find_child(e, "rect").attributes;
			var ex = parseFloat(a.x.value);
			var ew = parseFloat(a.width.value);
			var upstack;
			// Is it an ancestor
			if (0 == 0) {
				upstack = parseFloat(a.y.value) > ymin;
			} else {
				upstack = parseFloat(a.y.value) < ymin;
			}
			if (upstack) {
				// Direct ancestor
				if (ex <= xmin && (ex+ew+fudge) >= xmax) {
					e.classList.add("parent");
					zoom_parent(e);
					update_text(e);
				}
				// not in current path
				else
					e.classList.add("hide");
			}
			// Children maybe
			else {
				// no common path
				if (ex < xmin || ex + fudge >= xmax) {
					e.classList.add("hide");
				}
				else {
					zoom_child(e, xmin, ratio);
					update_text(e);
				}
			}
		}
	}
	function unzoom() {
		unzoombtn.classList.add("hide");
		var el = document.getElementById("frames").children;
		for(var i = 0; i < el.length; i++) {
			el[i].classList.remove("parent");
			el[i].classList.remove("hide");
			zoom_reset(el[i]);
			update_text(el[i]);
		}
	}

	// search
	function reset_search() {
		var el = document.querySelectorAll("#frames rect");
		for (var i = 0; i < el.length; i++) {
			orig_load(el[i], "fill")
		}
	}
	function search_prompt() {
		if (!searching) {
			var term = prompt("Enter a search term (regexp " +
			    "allowed, eg: ^ext4_)", "");
			if (term != null) {
				search(term)
			}
		} else {
			reset_search();
			searching = 0;
			searchbtn.classList.remove("show");
			searchbtn.firstChild.nodeValue = "Search"
			matchedtxt.classList.add("hide");
			matchedtxt.firstChild.nodeValue = ""
		}
	}
	function search(term) {
		var re = new RegExp(term);
		var el = document.getElementById("frames").children;
		var matches = new Object();
		var maxwidth = 0;
		for (var i = 0; i < el.length; i++) {
			var e = el[i];
			var func = g_to_func(e);
			var rect = find_child(e, "rect");
			if (func == null || rect == null)
				continue;

			// Save max width. Only works as we have a root frame
			var w = parseFloat(rect.attributes.width.value);
			if (w > maxwidth)
				maxwidth = w;

			if (func.match(re)) {
				// highlight
				var x = parseFloat(rect.attributes.x.value);
				orig_save(rect, "fill");
				rect.attributes.fill.value = "rgb(230,0,230)";

				// remember matches
				if (matches[x] == undefined) {
					matches[x] = w;
				} else {
					if (w > matches[x]) {
						// overwrite with parent
						matches[x] = w;
					}
				}
				searching = 1;
			}
		}
		if (!searching)
			return;

		searchbtn.classList.add("show");
		searchbtn.firstChild.nodeValue = "Reset Search";

		// calculate percent matched, excluding vertical overlap
		var count = 0;
		var lastx = -1;
		var lastw = 0;
		var keys = Array();
		for (k in matches) {
			if (matches.hasOwnProperty(k))
				keys.push(k);
		}
		// sort the matched frames by their x location
		// ascending, then width descending
		keys.sort(function(a, b){
			return a - b;
		});
		// Step through frames saving only the biggest bottom-up frames
		// thanks to the sort order. This relies on the tree property
		// where children are always smaller than their parents.
		var fudge = 0.0001;	// JavaScript floating point
		for (var k in keys) {
			var x = parseFloat(keys[k]);
			var w = matches[keys[k]];
			if (x >= lastx + lastw - fudge) {
				count += w;
				lastx = x;
				lastw = w;
			}
		}
		// display matched percent
		matchedtxt.classList.remove("hide");
		var pct = 100 * count / maxwidth;
		if (pct != 100) pct = pct.toFixed(1)
		matchedtxt.firstChild.nodeValue = "Matched: " + pct + "%";
	}
]]>
</script>
<rect x="0" y="0" width="100%" height="100%" fill="rgb(240,240,220)"/>
<text id="title" x="600" y="24">Flame Graph</text>
<text id="details" x="10" y="1285"> </text>
<text id="unzoom" x="10" y="24" class="hide">Reset Zoom</text>
<text id="search" x="1090" y="24">Search</text>
<text id="matched" x="1090" y="1285"> </text>
<g id="frames">
<g>
<title>all (4 samples, 100.00%)</title><rect x="10.0" y="1251.0" width="1180.0" height="15" fill="#ed6a6a" rx="2" ry="2"/>
<text x="13.0" y="1262.0">all</text>
</g>
<g>
<title>java/lang/Thread.run (4 samples, 100.00%)</title><rect x="10.0" y="1235.0" width="1180.0" height="15" fill="#60f160" rx="2" ry="2"/>
<text x="13.0" y="1246.0">java/lang/Thread.run</text>
</g>
<g>
<title>java/util/concurrent/ThreadPoolExecutor$Worker.run (4 samples, 100.00%)</title><rect x="10.0" y="1219.0" width="1180.0" height="15" fill="#60f160" rx="2" ry="2"/>
<text x="13.0" y="1230.0">java/util/concurrent/ThreadPoolExecutor$Worker.run</text>
</g>
<g>
<title>java/util/concurrent/ThreadPoolExecutor.runWorker (4 samples, 100.00%)</title><rect x="10.0" y="1203.0" width="1180.0" height="15" fill="#62f362" rx="2" ry="2"/>
<text x="13.0" y="1214.0">java/util/concurrent/ThreadPoolExecutor.runWorker</text>
</g>
<g>
<title>sun/rmi/transport/tcp/TCPTransport$ConnectionHandler.run (4 samples, 100.00%)</title><rect x="10.0" y="1187.0" width="1180.0" height="15" fill="#55e655" rx="2" ry="2"/>
<text x="13.0" y="1198.0">sun/rmi/transport/tcp/TCPTransport$ConnectionHandler.run</text>
</g>
<g>
<title>java/security/AccessController.doPrivileged (4 samples, 100.00%)</title><rect x="10.0" y="1171.0" width="1180.0" height="15" fill="#5eef5e" rx="2" ry="2"/>
<text x="13.0" y="1182.0">java/security/AccessController.doPrivileged</text>
</g>
<g>
<title>sun/rmi/transport/tcp/TCPTransport$ConnectionHandler$$Lambda$214/477093776.run (4 samples, 100.00%)</title><rect x="10.0" y="1155.0" width="1180.0" height="15" fill="#5aeb5a" rx="2" ry="2"/>
<text x="13.0" y="1166.0">sun/rmi/transport/tcp/TCPTransport$ConnectionHandler$$Lambda$214/477093776.run</text>
</g>
<g>
<title>sun/rmi/transport/tcp/TCPTransport$ConnectionHandler.lambda$run$0 (4 samples, 100.00%)</title><rect x="10.0" y="1139.0" width="1180.0" height="15" fill="#63f463" rx="2" ry="2"/>
<text x="13.0" y="1150.0">sun/rmi/transport/tcp/TCPTransport$ConnectionHandler.lambda$run$0</text>
</g>
<g>
<title>sun/rmi/transport/tcp/TCPTransport$ConnectionHandler.run0 (4 samples, 100.00%)</title><rect x="10.0" y="1123.0" width="1180.0" height="15" fill="#6bfc6b" rx="2" ry="2"/>
<text x="13.0" y="1134.0">sun/rmi/transport/tcp/TCPTransport$ConnectionHandler.run0</text>
</g>
<g>
<title>sun/rmi/transport/tcp/TCPTransport.handleMessages (4 samples, 100.00%)</title><rect x="10.0" y="1107.0" width="1180.0" height="15" fill="#56e756" rx="2" ry="2"/>
<text x="13.0" y="1118.0">sun/rmi/transport/tcp/TCPTransport.handleMessages</text>
</g>
<g>
<title>sun/rmi/runtime/Log$LoggerLog.log (1 samples, 25.00%)</title><rect x="10.0" y="1091.0" width="295.0" height="15" fill="#62f362" rx="2" ry="2"/>
<text x="13.0" y="1102.0">sun/rmi/runtime/Log$LoggerLog.log</text>
</g>
<g>
<title>sun/rmi/runtime/Log.getSource (1 samples, 25.00%)</title><rect x="10.0" y="1075.0" width="295.0" height="15" fill="#69fa69" rx="2" ry="2"/>
<text x="13.0" y="1086.0">sun/rmi/runtime/Log.getSource</text>
</g>
<g>
<title>java/lang/Throwable.getStackTrace (1 samples, 25.00%)</title><rect x="10.0" y="1059.0" width="295.0" height="15" fill="#53e453" rx="2" ry="2"/>
<text x="13.0" y="1070.0">java/lang/Throwable.getStackTrace</text>
</g>
<g>
<title>java/lang/Throwable.getOurStackTrace (1 samples, 25.00%)</title><rect x="10.0" y="1043.0" width="295.0" height="15" fill="#5bec5b" rx="2" ry="2"/>
<text x="13.0" y="1054.0">java/lang/Throwable.getOurStackTrace</text>
</g>
<g>
<title>java/lang/StackTraceElement.of (1 samples, 25.00%)</title><rect x="10.0" y="1027.0" width="295.0" height="15" fill="#55e655" rx="2" ry="2"/>
<text x="13.0" y="1038.0">java/lang/StackTraceElement.of</text>
</g>
<g>
<title>java/lang/StackTraceElement.initStackTraceElements (1 samples, 25.00%)</title><rect x="10.0" y="1011.0" width="295.0" height="15" fill="#63f463" rx="2" ry="2"/>
<text x="13.0" y="1022.0">java/lang/StackTraceElement.initStackTra..</text>
</g>
<g>
<title>JVM_InitStackTraceElementArray (1 samples, 25.00%)</title><rect x="10.0" y="995.0" width="295.0" height="15" fill="#f27171" rx="2" ry="2"/>
<text x="13.0" y="1006.0">JVM_InitStackTraceElementArray</text>
</g>
<g>
<title>/usr/lib/jvm/java-11-openjdk-amd64/lib/server/libjvm.so (1 samples, 25.00%)</title><rect x="10.0" y="979.0" width="295.0" height="15" fill="#f57575" rx="2" ry="2"/>
<text x="13.0" y="990.0">/usr/lib/jvm/java-11-openjdk-amd64/lib/s..</text>
</g>
<g>
<title>/usr/lib/jvm/java-11-openjdk-amd64/lib/server/libjvm.so (1 samples, 25.00%)</title><rect x="10.0" y="963.0" width="295.0" height="15" fill="#f27171" rx="2" ry="2"/>
<text x="13.0" y="974.0">/usr/lib/jvm/java-11-openjdk-amd64/lib/s..</text>
</g>
<g>
<title>/usr/lib/jvm/java-11-openjdk-amd64/lib/server/libjvm.so (1 samples, 25.00%)</title><rect x="10.0" y="947.0" width="295.0" height="15" fill="#e25c5c" rx="2" ry="2"/>
<text x="13.0" y="958.0">/usr/lib/jvm/java-11-openjdk-amd64/lib/s..</text>
</g>
<g>
<title>/usr/lib/jvm/java-11-openjdk-amd64/lib/server/libjvm.so (1 samples, 25.00%)</title><rect x="10.0" y="931.0" width="295.0" height="15" fill="#f17070" rx="2" ry="2"/>
<text x="13.0" y="942.0">/usr/lib/jvm/java-11-openjdk-amd64/lib/s..</text>
</g>
<g>
<title>sun/rmi/transport/Transport.serviceCall (3 samples, 75.00%)</title><rect x="305.0" y="1091.0" width="885.0" height="15" fill="#60f160" rx="2" ry="2"/>
<text x="308.0" y="1102.0">sun/rmi/transport/Transport.serviceCall</text>
</g>
<g>
<title>java/security/AccessController.doPrivileged (3 samples, 75.00%)</title><rect x="305.0" y="1075.0" width="885.0" height="15" fill="#57e857" rx="2" ry="2"/>
<text x="308.0" y="1086.0">java/security/AccessController.doPrivileged</text>
</g>
<g>
<title>sun/rmi/transport/Transport$1.run (3 samples, 75.00%)</title><rect x="305.0" y="1059.0" width="885.0" height="15" fill="#50e150" rx="2" ry="2"/>
<text x="308.0" y="1070.0">sun/rmi/transport/Transport$1.run</text>
</g>
<g>
<title>sun/rmi/transport/Transport$1.run (3 samples, 75.00%)</title><rect x="305.0" y="1043.0" width="885.0" height="15" fill="#5aeb5a" rx="2" ry="2"/>
<text x="308.0" y="1054.0">sun/rmi/transport/Transport$1.run</text>
</g>
<g>
<title>sun/rmi/server/UnicastServerRef.dispatch (3 samples, 75.00%)</title><rect x="305.0" y="1027.0" width="885.0" height="15" fill="#50e150" rx="2" ry="2"/>
<text x="308.0" y="1038.0">sun/rmi/server/UnicastServerRef.dispatch</text>
</g>
<g>
<title>java/lang/reflect/Method.invoke (1 samples, 25.00%)</title><rect x="305.0" y="1011.0" width="295.0" height="15" fill="#6bfc6b" rx="2" ry="2"/>
<text x="308.0" y="1022.0">java/lang/reflect/Method.invoke</text>
</g>
<g>
<title>jdk/internal/reflect/DelegatingMethodAccessorImpl.invoke (1 samples, 25.00%)</title><rect x="305.0" y="995.0" width="295.0" height="15" fill="#62f362" rx="2" ry="2"/>
<text x="308.0" y="1006.0">jdk/internal/reflect/DelegatingMethodAcc..</text>
</g>
<g>
<title>jdk/internal/reflect/GeneratedMethodAccessor37.invoke (1 samples, 25.00%)</title><rect x="305.0" y="979.0" width="295.0" height="15" fill="#67f867" rx="2" ry="2"/>
<text x="308.0" y="990.0">jdk/internal/reflect/GeneratedMethodAcce..</text>
</g>
<g>
<title>javax/management/remote/rmi/RMIConnectionImpl.getAttribute (1 samples, 25.00%)</title><rect x="305.0" y="963.0" width="295.0" height="15" fill="#6afb6a" rx="2" ry="2"/>
<text x="308.0" y="974.0">javax/management/remote/rmi/RMIConnectio..</text>
</g>
<g>
<title>com/sun/jmx/remote/util/ClassLogger.debug (1 samples, 25.00%)</title><rect x="305.0" y="947.0" width="295.0" height="15" fill="#6bfc6b" rx="2" ry="2"/>
<text x="308.0" y="958.0">com/sun/jmx/remote/util/ClassLogger.debug</text>
</g>
<g>
<title>sun/util/logging/internal/LoggingProviderImpl$JULWrapper.log (1 samples, 25.00%)</title><rect x="305.0" y="931.0" width="295.0" height="15" fill="#55e655" rx="2" ry="2"/>
<text x="308.0" y="942.0">sun/util/logging/internal/LoggingProvide..</text>
</g>
<g>
<title>java/util/logging/Logger.log (1 samples, 25.00%)</title><rect x="305.0" y="915.0" width="295.0" height="15" fill="#5dee5d" rx="2" ry="2"/>
<text x="308.0" y="926.0">java/util/logging/Logger.log</text>
</g>
<g>
<title>java/util/logging/Logger.doLog (1 samples, 25.00%)</title><rect x="305.0" y="899.0" width="295.0" height="15" fill="#5eef5e" rx="2" ry="2"/>
<text x="308.0" y="910.0">java/util/logging/Logger.doLog</text>
</g>
<g>
<title>java/util/logging/Logger.log (1 samples, 25.00%)</title><rect x="305.0" y="883.0" width="295.0" height="15" fill="#67f867" rx="2" ry="2"/>
<text x="308.0" y="894.0">java/util/logging/Logger.log</text>
</g>
<g>
<title>org/slf4j/bridge/SLF4JBridgeHandler.publish (1 samples, 25.00%)</title><rect x="305.0" y="867.0" width="295.0" height="15" fill="#63f463" rx="2" ry="2"/>
<text x="308.0" y="878.0">org/slf4j/bridge/SLF4JBridgeHandler.publ..</text>
</g>
<g>
<title>org/slf4j/bridge/SLF4JBridgeHandler.callPlainSLF4JLogger (1 samples, 25.00%)</title><rect x="305.0" y="851.0" width="295.0" height="15" fill="#6cfd6c" rx="2" ry="2"/>
<text x="308.0" y="862.0">org/slf4j/bridge/SLF4JBridgeHandler.call..</text>
</g>
<g>
<title>org/gradle/internal/logging/slf4j/OutputEventListenerBackedLogger.debug (1 samples, 25.00%)</title><rect x="305.0" y="835.0" width="295.0" height="15" fill="#54e554" rx="2" ry="2"/>
<text x="308.0" y="846.0">org/gradle/internal/logging/slf4j/Output..</text>
</g>
<g>
<title>org/gradle/internal/logging/slf4j/OutputEventListenerBackedLogger.log (1 samples, 25.00%)</title><rect x="305.0" y="819.0" width="295.0" height="15" fill="#58e958" rx="2" ry="2"/>
<text x="308.0" y="830.0">org/gradle/internal/logging/slf4j/Output..</text>
</g>
<g>
<title>org/gradle/internal/logging/slf4j/OutputEventListenerBackedLogger.log (1 samples, 25.00%)</title><rect x="305.0" y="803.0" width="295.0" height="15" fill="#6afb6a" rx="2" ry="2"/>
<text x="308.0" y="814.0">org/gradle/internal/logging/slf4j/Output..</text>
</g>
<g>
<title>org/gradle/internal/logging/sink/OutputEventListenerManager$1.onOutput (1 samples, 25.00%)</title><rect x="305.0" y="787.0" width="295.0" height="15" fill="#5aeb5a" rx="2" ry="2"/>
<text x="308.0" y="798.0">org/gradle/internal/logging/sink/OutputE..</text>
</g>
<g>
<title>org/gradle/internal/logging/sink/OutputEventRenderer.onOutput (1 samples, 25.00%)</title><rect x="305.0" y="771.0" width="295.0" height="15" fill="#6afb6a" rx="2" ry="2"/>
<text x="308.0" y="782.0">org/gradle/internal/logging/sink/OutputE..</text>
</g>
<g>
<title>org/gradle/internal/logging/sink/OutputEventTransformer.onOutput (1 samples, 25.00%)</title><rect x="305.0" y="755.0" width="295.0" height="15" fill="#66f766" rx="2" ry="2"/>
<text x="308.0" y="766.0">org/gradle/internal/logging/sink/OutputE..</text>
</g>
<g>
<title>com/sun/proxy/$Proxy0.onOutput (1 samples, 25.00%)</title><rect x="305.0" y="739.0" width="295.0" height="15" fill="#5eef5e" rx="2" ry="2"/>
<text x="308.0" y="750.0">com/sun/proxy/$Proxy0.onOutput</text>
</g>
<g>
<title>org/gradle/internal/dispatch/ProxyDispatchAdapter$DispatchingInvocationHandler.invoke (1 samples, 25.00%)</title><rect x="305.0" y="723.0" width="295.0" height="15" fill="#58e958" rx="2" ry="2"/>
<text x="308.0" y="734.0">org/gradle/internal/dispatch/ProxyDispat..</text>
</g>
<g>
<title>org/gradle/internal/event/ListenerBroadcast.dispatch (1 samples, 25.00%)</title><rect x="305.0" y="707.0" width="295.0" height="15" fill="#6cfd6c" rx="2" ry="2"/>
<text x="308.0" y="718.0">org/gradle/internal/event/ListenerBroadc..</text>
</g>
<g>
<title>org/gradle/internal/event/ListenerBroadcast.dispatch (1 samples, 25.00%)</title><rect x="305.0" y="691.0" width="295.0" height="15" fill="#53e453" rx="2" ry="2"/>
<text x="308.0" y="702.0">org/gradle/internal/event/ListenerBroadc..</text>
</g>
<g>
<title>org/gradle/internal/event/BroadcastDispatch$CompositeDispatch.dispatch (1 samples, 25.00%)</title><rect x="305.0" y="675.0" width="295.0" height="15" fill="#69fa69" rx="2" ry="2"/>
<text x="308.0" y="686.0">org/gradle/internal/event/BroadcastDispa..</text>
</g>
<g>
<title>org/gradle/internal/event/BroadcastDispatch$CompositeDispatch.dispatch (1 samples, 25.00%)</title><rect x="305.0" y="659.0" width="295.0" height="15" fill="#62f362" rx="2" ry="2"/>
<text x="308.0" y="670.0">org/gradle/internal/event/BroadcastDispa..</text>
</g>
<g>
<title>org/gradle/internal/event/AbstractBroadcastDispatch.dispatch (1 samples, 25.00%)</title><rect x="305.0" y="643.0" width="295.0" height="15" fill="#65f665" rx="2" ry="2"/>
<text x="308.0" y="654.0">org/gradle/internal/event/AbstractBroadc..</text>
</g>
<g>
<title>org/gradle/internal/event/BroadcastDispatch$SingletonDispatch.dispatch (1 samples, 25.00%)</title><rect x="305.0" y="627.0" width="295.0" height="15" fill="#6bfc6b" rx="2" ry="2"/>
<text x="308.0" y="638.0">org/gradle/internal/event/BroadcastDispa..</text>
</g>
<g>
<title>org/gradle/internal/event/BroadcastDispatch$SingletonDispatch.dispatch (1 samples, 25.00%)</title><rect x="305.0" y="611.0" width="295.0" height="15" fill="#55e655" rx="2" ry="2"/>
<text x="308.0" y="622.0">org/gradle/internal/event/BroadcastDispa..</text>
</g>
<g>
<title>org/gradle/internal/event/AbstractBroadcastDispatch.dispatch (1 samples, 25.00%)</title><rect x="305.0" y="595.0" width="295.0" height="15" fill="#58e958" rx="2" ry="2"/>
<text x="308.0" y="606.0">org/gradle/internal/event/AbstractBroadc..</text>
</g>
<g>
<title>org/gradle/internal/dispatch/ReflectionDispatch.dispatch (1 samples, 25.00%)</title><rect x="305.0" y="579.0" width="295.0" height="15" fill="#55e655" rx="2" ry="2"/>
<text x="308.0" y="590.0">org/gradle/internal/dispatch/ReflectionD..</text>
</g>
<g>
<title>org/gradle/internal/dispatch/ReflectionDispatch.dispatch (1 samples, 25.00%)</title><rect x="305.0" y="563.0" width="295.0" height="15" fill="#56e756" rx="2" ry="2"/>
<text x="308.0" y="574.0">org/gradle/internal/dispatch/ReflectionD..</text>
</g>
<g>
<title>java/lang/reflect/Method.invoke (1 samples, 25.00%)</title><rect x="305.0" y="547.0" width="295.0" height="15" fill="#62f362" rx="2" ry="2"/>
<text x="308.0" y="558.0">java/lang/reflect/Method.invoke</text>
</g>
<g>
<title>jdk/internal/reflect/DelegatingMethodAccessorImpl.invoke (1 samples, 25.00%)</title><rect x="305.0" y="531.0" width="295.0" height="15" fill="#55e655" rx="2" ry="2"/>
<text x="308.0" y="542.0">jdk/internal/reflect/DelegatingMethodAcc..</text>
</g>
<g>
<title>jdk/internal/reflect/GeneratedMethodAccessor1.invoke (1 samples, 25.00%)</title><rect x="305.0" y="515.0" width="295.0" height="15" fill="#53e453" rx="2" ry="2"/>
<text x="308.0" y="526.0">jdk/internal/reflect/GeneratedMethodAcce..</text>
</g>
<g>
<title>org/gradle/internal/logging/sink/OutputEventRenderer$LazyListener.onOutput (1 samples, 25.00%)</title><rect x="305.0" y="499.0" width="295.0" height="15" fill="#56e756" rx="2" ry="2"/>
<text x="308.0" y="510.0">org/gradle/internal/logging/sink/OutputE..</text>
</g>
<g>
<title>org/gradle/internal/logging/sink/LogEventDispatcher.onOutput (1 samples, 25.00%)</title><rect x="305.0" y="483.0" width="295.0" height="15" fill="#6cfd6c" rx="2" ry="2"/>
<text x="308.0" y="494.0">org/gradle/internal/logging/sink/LogEven..</text>
</g>
<g>
<title>org/gradle/internal/logging/sink/LogEventDispatcher.dispatch (1 samples, 25.00%)</title><rect x="305.0" y="467.0" width="295.0" height="15" fill="#50e150" rx="2" ry="2"/>
<text x="308.0" y="478.0">org/gradle/internal/logging/sink/LogEven..</text>
</g>
<g>
<title>org/gradle/internal/logging/console/StyledTextOutputBackedRenderer.onOutput (1 samples, 25.00%)</title><rect x="305.0" y="451.0" width="295.0" height="15" fill="#54e554" rx="2" ry="2"/>
<text x="308.0" y="462.0">org/gradle/internal/logging/console/Styl..</text>
</g>
<g>
<title>org/gradle/internal/logging/events/LogEvent.render (1 samples, 25.00%)</title><rect x="305.0" y="435.0" width="295.0" height="15" fill="#53e453" rx="2" ry="2"/>
<text x="308.0" y="446.0">org/gradle/internal/logging/events/LogEv..</text>
</g>
<g>
<title>org/gradle/internal/logging/text/AbstractStyledTextOutput.println (1 samples, 25.00%)</title><rect x="305.0" y="419.0" width="295.0" height="15" fill="#5dee5d" rx="2" ry="2"/>
<text x="308.0" y="430.0">org/gradle/internal/logging/text/Abstrac..</text>
</g>
<g>
<title>org/gradle/internal/logging/text/AbstractStyledTextOutput.text (1 samples, 25.00%)</title><rect x="305.0" y="403.0" width="295.0" height="15" fill="#63f463" rx="2" ry="2"/>
<text x="308.0" y="414.0">org/gradle/internal/logging/text/Abstrac..</text>
</g>
<g>
<title>org/gradle/internal/logging/text/AbstractLineChoppingStyledTextOutput.doAppend (1 samples, 25.00%)</title><rect x="305.0" y="387.0" width="295.0" height="15" fill="#6bfc6b" rx="2" ry="2"/>
<text x="308.0" y="398.0">org/gradle/internal/logging/text/Abstrac..</text>
</g>
<g>
<title>org/gradle/internal/logging/text/AbstractLineChoppingStyledTextOutput$1.execute (1 samples, 25.00%)</title><rect x="305.0" y="371.0" width="295.0" height="15" fill="#53e453" rx="2" ry="2"/>
<text x="308.0" y="382.0">org/gradle/internal/logging/text/Abstrac..</text>
</g>
<g>
<title>org/gradle/internal/logging/text/AbstractLineChoppingStyledTextOutput$1.execute (1 samples, 25.00%)</title><rect x="305.0" y="355.0" width="295.0" height="15" fill="#62f362" rx="2" ry="2"/>
<text x="308.0" y="366.0">org/gradle/internal/logging/text/Abstrac..</text>
</g>
<g>
<title>org/gradle/internal/logging/text/AbstractLineChoppingStyledTextOutput$StateContext.flushEndLine (1 samples, 25.00%)</title><rect x="305.0" y="339.0" width="295.0" height="15" fill="#52e352" rx="2" ry="2"/>
<text x="308.0" y="350.0">org/gradle/internal/logging/text/Abstrac..</text>
</g>
<g>
<title>org/gradle/internal/logging/console/StyledTextOutputBackedRenderer$OutputEventTextOutputImpl.doEndLine (1 samples, 25.00%)</title><rect x="305.0" y="323.0" width="295.0" height="15" fill="#5bec5b" rx="2" ry="2"/>
<text x="308.0" y="334.0">org/gradle/internal/logging/console/Styl..</text>
</g>
<g>
<title>org/gradle/internal/logging/text/AbstractStyledTextOutput.text (1 samples, 25.00%)</title><rect x="305.0" y="307.0" width="295.0" height="15" fill="#5eef5e" rx="2" ry="2"/>
<text x="308.0" y="318.0">org/gradle/internal/logging/text/Abstrac..</text>
</g>
<g>
<title>org/gradle/internal/logging/text/StreamingStyledTextOutput.doAppend (1 samples, 25.00%)</title><rect x="305.0" y="291.0" width="295.0" height="15" fill="#5dee5d" rx="2" ry="2"/>
<text x="308.0" y="302.0">org/gradle/internal/logging/text/Streami..</text>
</g>
<g>
<title>org/gradle/internal/logging/text/StreamBackedStandardOutputListener.onOutput (1 samples, 25.00%)</title><rect x="305.0" y="275.0" width="295.0" height="15" fill="#58e958" rx="2" ry="2"/>
<text x="308.0" y="286.0">org/gradle/internal/logging/text/StreamB..</text>
</g>
<g>
<title>java/io/PrintStream.append (1 samples, 25.00%)</title><rect x="305.0" y="259.0" width="295.0" height="15" fill="#57e857" rx="2" ry="2"/>
<text x="308.0" y="270.0">java/io/PrintStream.append</text>
</g>
<g>
<title>java/io/PrintStream.append (1 samples, 25.00%)</title><rect x="305.0" y="243.0" width="295.0" height="15" fill="#6bfc6b" rx="2" ry="2"/>
<text x="308.0" y="254.0">java/io/PrintStream.append</text>
</g>
<g>
<title>java/io/PrintStream.print (1 samples, 25.00%)</title><rect x="305.0" y="227.0" width="295.0" height="15" fill="#60f160" rx="2" ry="2"/>
<text x="308.0" y="238.0">java/io/PrintStream.print</text>
</g>
<g>
<title>java/io/PrintStream.write (1 samples, 25.00%)</title><rect x="305.0" y="211.0" width="295.0" height="15" fill="#55e655" rx="2" ry="2"/>
<text x="308.0" y="222.0">java/io/PrintStream.write</text>
</g>
<g>
<title>java/io/OutputStreamWriter.flushBuffer (1 samples, 25.00%)</title><rect x="305.0" y="195.0" width="295.0" height="15" fill="#51e251" rx="2" ry="2"/>
<text x="308.0" y="206.0">java/io/OutputStreamWriter.flushBuffer</text>
</g>
<g>
<title>sun/nio/cs/StreamEncoder.flushBuffer (1 samples, 25.00%)</title><rect x="305.0" y="179.0" width="295.0" height="15" fill="#5ced5c" rx="2" ry="2"/>
<text x="308.0" y="190.0">sun/nio/cs/StreamEncoder.flushBuffer</text>
</g>
<g>
<title>sun/nio/cs/StreamEncoder.implFlushBuffer (1 samples, 25.00%)</title><rect x="305.0" y="163.0" width="295.0" height="15" fill="#68f968" rx="2" ry="2"/>
<text x="308.0" y="174.0">sun/nio/cs/StreamEncoder.implFlushBuffer</text>
</g>
<g>
<title>sun/nio/cs/StreamEncoder.writeBytes (1 samples, 25.00%)</title><rect x="305.0" y="147.0" width="295.0" height="15" fill="#66f766" rx="2" ry="2"/>
<text x="308.0" y="158.0">sun/nio/cs/StreamEncoder.writeBytes</text>
</g>
<g>
<title>java/io/PrintStream.write (1 samples, 25.00%)</title><rect x="305.0" y="131.0" width="295.0" height="15" fill="#5aeb5a" rx="2" ry="2"/>
<text x="308.0" y="142.0">java/io/PrintStream.write</text>
</g>
<g>
<title>java/io/FileOutputStream.write (1 samples, 25.00%)</title><rect x="305.0" y="115.0" width="295.0" height="15" fill="#6dfe6d" rx="2" ry="2"/>
<text x="308.0" y="126.0">java/io/FileOutputStream.write</text>
</g>
<g>
<title>java/io/FileOutputStream.writeBytes (1 samples, 25.00%)</title><rect x="305.0" y="99.0" width="295.0" height="15" fill="#51e251" rx="2" ry="2"/>
<text x="308.0" y="110.0">java/io/FileOutputStream.writeBytes</text>
</g>
<g>
<title>Java_java_io_FileOutputStream_writeBytes (1 samples, 25.00%)</title><rect x="305.0" y="83.0" width="295.0" height="15" fill="#f06e6e" rx="2" ry="2"/>
<text x="308.0" y="94.0">Java_java_io_FileOutputStream_writeBytes</text>
</g>
<g>
<title>/usr/lib/jvm/java-11-openjdk-amd64/lib/libjava.so (1 samples, 25.00%)</title><rect x="305.0" y="67.0" width="295.0" height="15" fill="#e76262" rx="2" ry="2"/>
<text x="308.0" y="78.0">/usr/lib/jvm/java-11-openjdk-amd64/lib/l..</text>
</g>
<g>
<title>/usr/lib/jvm/java-11-openjdk-amd64/lib/server/libjvm.so (1 samples, 25.00%)</title><rect x="305.0" y="51.0" width="295.0" height="15" fill="#f47474" rx="2" ry="2"/>
<text x="308.0" y="62.0">/usr/lib/jvm/java-11-openjdk-amd64/lib/s..</text>
</g>
<g>
<title>/usr/lib/jvm/java-11-openjdk-amd64/lib/server/libjvm.so (1 samples, 25.00%)</title><rect x="305.0" y="35.0" width="295.0" height="15" fill="#f57575" rx="2" ry="2"/>
<text x="308.0" y="46.0">/usr/lib/jvm/java-11-openjdk-amd64/lib/s..</text>
</g>
<g>
<title>sun/rmi/server/UnicastRef.marshalValue (1 samples, 25.00%)</title><rect x="600.0" y="1011.0" width="295.0" height="15" fill="#59ea59" rx="2" ry="2"/>
<text x="603.0" y="1022.0">sun/rmi/server/UnicastRef.marshalValue</text>
</g>
<g>
<title>java/io/ObjectOutputStream.writeObject (1 samples, 25.00%)</title><rect x="600.0" y="995.0" width="295.0" height="15" fill="#6afb6a" rx="2" ry="2"/>
<text x="603.0" y="1006.0">java/io/ObjectOutputStream.writeObject</text>
</g>
<g>
<title>java/io/ObjectOutputStream.writeObject0 (1 samples, 25.00%)</title><rect x="600.0" y="979.0" width="295.0" height="15" fill="#63f463" rx="2" ry="2"/>
<text x="603.0" y="990.0">java/io/ObjectOutputStream.writeObject0</text>
</g>
<g>
<title>java/io/ObjectOutputStream.writeArray (1 samples, 25.00%)</title><rect x="600.0" y="963.0" width="295.0" height="15" fill="#5aeb5a" rx="2" ry="2"/>
<text x="603.0" y="974.0">java/io/ObjectOutputStream.writeArray</text>
</g>
<g>
<title>java/io/ObjectOutputStream.writeObject0 (1 samples, 25.00%)</title><rect x="600.0" y="947.0" width="295.0" height="15" fill="#51e251" rx="2" ry="2"/>
<text x="603.0" y="958.0">java/io/ObjectOutputStream.writeObject0</text>
</g>
<g>
<title>java/io/ObjectOutputStream.writeOrdinaryObject (1 samples, 25.00%)</title><rect x="600.0" y="931.0" width="295.0" height="15" fill="#67f867" rx="2" ry="2"/>
<text x="603.0" y="942.0">java/io/ObjectOutputStream.writeOrdinary..</text>
</g>
<g>
<title>java/io/ObjectOutputStream.writeSerialData (1 samples, 25.00%)</title><rect x="600.0" y="915.0" width="295.0" height="15" fill="#68f968" rx="2" ry="2"/>
<text x="603.0" y="926.0">java/io/ObjectOutputStream.writeSerialData</text>
</g>
<g>
<title>java/io/ObjectOutputStream.defaultWriteFields (1 samples, 25.00%)</title><rect x="600.0" y="899.0" width="295.0" height="15" fill="#64f564" rx="2" ry="2"/>
<text x="603.0" y="910.0">java/io/ObjectOutputStream.defaultWriteF..</text>
</g>
<g>
<title>java/io/ObjectOutputStream.writeObject0 (1 samples, 25.00%)</title><rect x="600.0" y="883.0" width="295.0" height="15" fill="#64f564" rx="2" ry="2"/>
<text x="603.0" y="894.0">java/io/ObjectOutputStream.writeObject0</text>
</g>
<g>
<title>java/io/ObjectOutputStream.writeOrdinaryObject (1 samples, 25.00%)</title><rect x="600.0" y="867.0" width="295.0" height="15" fill="#6bfc6b" rx="2" ry="2"/>
<text x="603.0" y="878.0">java/io/ObjectOutputStream.writeOrdinary..</text>
</g>
<g>
<title>java/io/ObjectOutputStream.writeSerialData (1 samples, 25.00%)</title><rect x="600.0" y="851.0" width="295.0" height="15" fill="#59ea59" rx="2" ry="2"/>
<text x="603.0" y="862.0">java/io/ObjectOutputStream.writeSerialData</text>
</g>
<g>
<title>java/io/ObjectStreamClass.invokeWriteObject (1 samples, 25.00%)</title><rect x="600.0" y="835.0" width="295.0" height="15" fill="#66f766" rx="2" ry="2"/>
<text x="603.0" y="846.0">java/io/ObjectStreamClass.invokeWriteObj..</text>
</g>
<g>
<title>java/lang/reflect/Method.invoke (1 samples, 25.00%)</title><rect x="600.0" y="819.0" width="295.0" height="15" fill="#58e958" rx="2" ry="2"/>
<text x="603.0" y="830.0">java/lang/reflect/Method.invoke</text>
</g>
<g>
<title>jdk/internal/reflect/DelegatingMethodAccessorImpl.invoke (1 samples, 25.00%)</title><rect x="600.0" y="803.0" width="295.0" height="15" fill="#68f968" rx="2" ry="2"/>
<text x="603.0" y="814.0">jdk/internal/reflect/DelegatingMethodAcc..</text>
</g>
<g>
<title>jdk/internal/reflect/GeneratedMethodAccessor34.invoke (1 samples, 25.00%)</title><rect x="600.0" y="787.0" width="295.0" height="15" fill="#55e655" rx="2" ry="2"/>
<text x="603.0" y="798.0">jdk/internal/reflect/GeneratedMethodAcce..</text>
</g>
<g>
<title>java/util/TreeMap.writeObject (1 samples, 25.00%)</title><rect x="600.0" y="771.0" width="295.0" height="15" fill="#61f261" rx="2" ry="2"/>
<text x="603.0" y="782.0">java/util/TreeMap.writeObject</text>
</g>
<g>
<title>java/io/ObjectOutputStream.writeObject (1 samples, 25.00%)</title><rect x="600.0" y="755.0" width="295.0" height="15" fill="#51e251" rx="2" ry="2"/>
<text x="603.0" y="766.0">java/io/ObjectOutputStream.writeObject</text>
</g>
<g>
<title>java/io/ObjectOutputStream.writeObject0 (1 samples, 25.00%)</title><rect x="600.0" y="739.0" width="295.0" height="15" fill="#53e453" rx="2" ry="2"/>
<text x="603.0" y="750.0">java/io/ObjectOutputStream.writeObject0</text>
</g>
<g>
<title>java/io/ObjectOutputStream$BlockDataOutputStream.setBlockDataMode (1 samples, 25.00%)</title><rect x="600.0" y="723.0" width="295.0" height="15" fill="#54e554" rx="2" ry="2"/>
<text x="603.0" y="734.0">java/io/ObjectOutputStream$BlockDataOutp..</text>
</g>
<g>
<title>java/io/ObjectOutputStream$BlockDataOutputStream.drain (1 samples, 25.00%)</title><rect x="600.0" y="707.0" width="295.0" height="15" fill="#57e857" rx="2" ry="2"/>
<text x="603.0" y="718.0">java/io/ObjectOutputStream$BlockDataOutp..</text>
</g>
<g>
<title>java/io/BufferedOutputStream.write (1 samples, 25.00%)</title><rect x="600.0" y="691.0" width="295.0" height="15" fill="#54e554" rx="2" ry="2"/>
<text x="603.0" y="702.0">java/io/BufferedOutputStream.write</text>
</g>
<g>
<title>jbyte_disjoint_arraycopy (1 samples, 25.00%)</title><rect x="600.0" y="675.0" width="295.0" height="15" fill="#f27171" rx="2" ry="2"/>
<text x="603.0" y="686.0">jbyte_disjoint_arraycopy</text>
</g>
<g>
<title>sun/rmi/server/UnicastRef.unmarshalValue (1 samples, 25.00%)</title><rect x="895.0" y="1011.0" width="295.0" height="15" fill="#51e251" rx="2" ry="2"/>
<text x="898.0" y="1022.0">sun/rmi/server/UnicastRef.unmarshalValue</text>
</g>
<g>
<title>java/io/ObjectInputStream.readObject (1 samples, 25.00%)</title><rect x="895.0" y="995.0" width="295.0" height="15" fill="#6afb6a" rx="2" ry="2"/>
<text x="898.0" y="1006.0">java/io/ObjectInputStream.readObject</text>
</g>
<g>
<title>java/io/ObjectInputStream.readObject (1 samples, 25.00%)</title><rect x="895.0" y="979.0" width="295.0" height="15" fill="#6cfd6c" rx="2" ry="2"/>
<text x="898.0" y="990.0">java/io/ObjectInputStream.readObject</text>
</g>
<g>
<title>java/io/ObjectInputStream.readObject0 (1 samples, 25.00%)</title><rect x="895.0" y="963.0" width="295.0" height="15" fill="#51e251" rx="2" ry="2"/>
<text x="898.0" y="974.0">java/io/ObjectInputStream.readObject0</text>
</g>
<g>
<title>java/io/ObjectInputStream.readArray (1 samples, 25.00%)</title><rect x="895.0" y="947.0" width="295.0" height="15" fill="#6bfc6b" rx="2" ry="2"/>
<text x="898.0" y="958.0">java/io/ObjectInputStream.readArray</text>
</g>
<g>
<title>java/io/ObjectInputStream.readClassDesc (1 samples, 25.00%)</title><rect x="895.0" y="931.0" width="295.0" height="15" fill="#5eef5e" rx="2" ry="2"/>
<text x="898.0" y="942.0">java/io/ObjectInputStream.readClassDesc</text>
</g>
<g>
<title>java/io/ObjectInputStream.readNonProxyDesc (1 samples, 25.00%)</title><rect x="895.0" y="915.0" width="295.0" height="15" fill="#57e857" rx="2" ry="2"/>
<text x="898.0" y="926.0">java/io/ObjectInputStream.readNonProxyDesc</text>
</g>
<g>
<title>sun/rmi/server/MarshalInputStream.resolveClass (1 samples, 25.00%)</title><rect x="895.0" y="899.0" width="295.0" height="15" fill="#61f261" rx="2" ry="2"/>
<text x="898.0" y="910.0">sun/rmi/server/MarshalInputStream.resolv..</text>
</g>
<g>
<title>java/rmi/server/RMIClassLoader.loadClass (1 samples, 25.00%)</title><rect x="895.0" y="883.0" width="295.0" height="15" fill="#55e655" rx="2" ry="2"/>
<text x="898.0" y="894.0">java/rmi/server/RMIClassLoader.loadClass</text>
</g>
<g>
<title>java/rmi/server/RMIClassLoader$2.loadClass (1 samples, 25.00%)</title><rect x="895.0" y="867.0" width="295.0" height="15" fill="#61f261" rx="2" ry="2"/>
<text x="898.0" y="878.0">java/rmi/server/RMIClassLoader$2.loadClass</text>
</g>
<g>
<title>sun/rmi/server/LoaderHandler.loadClass (1 samples, 25.00%)</title><rect x="895.0" y="851.0" width="295.0" height="15" fill="#5eef5e" rx="2" ry="2"/>
<text x="898.0" y="862.0">sun/rmi/server/LoaderHandler.loadClass</text>
</g>
<g>
<title>sun/rmi/runtime/Log$LoggerLog.log (1 samples, 25.00%)</title><rect x="895.0" y="835.0" width="295.0" height="15" fill="#68f968" rx="2" ry="2"/>
<text x="898.0" y="846.0">sun/rmi/runtime/Log$LoggerLog.log</text>
</g>
<g>
<title>sun/rmi/runtime/Log.getSource (1 samples, 25.00%)</title><rect x="895.0" y="819.0" width="295.0" height="15" fill="#6bfc6b" rx="2" ry="2"/>
<text x="898.0" y="830.0">sun/rmi/runtime/Log.getSource</text>
</g>
<g>
<title>java/lang/Throwable.getStackTrace (1 samples, 25.00%)</title><rect x="895.0" y="803.0" width="295.0" height="15" fill="#5ff05f" rx="2" ry="2"/>
<text x="898.0" y="814.0">java/lang/Throwable.getStackTrace</text>
</g>
<g>
<title>java/lang/Throwable.getOurStackTrace (1 samples, 25.00%)</title><rect x="895.0" y="787.0" width="295.0" height="15" fill="#61f261" rx="2" ry="2"/>
<text x="898.0" y="798.0">java/lang/Throwable.getOurStackTrace</text>
</g>
<g>
<title>java/lang/StackTraceElement.of (1 samples, 25.00%)</title><rect x="895.0" y="771.0" width="295.0" height="15" fill="#65f665" rx="2" ry="2"/>
<text x="898.0" y="782.0">java/lang/StackTraceElement.of</text>
</g>
</g>
</svg>
