<?xml version="1.0" standalone="no"?>
<!DOCTYPE svg PUBLIC "-//W3C//DTD SVG 1.1//EN" "http://www.w3.org/Graphics/SVG/1.1/DTD/svg11.dtd">
<svg version="1.1" width="1200" height="310" onload="init(evt)" viewBox="0 0 1200 310" xmlns="http://www.w3.org/2000/svg" xmlns:xlink="http://www.w3.org/1999/xlink">
<style type="text/css">
	text { font-family:Verdana; font-size:12px; fill:rgb(0,0,0); }
	#search { opacity:0.1; cursor:pointer; }
	#search:hover, #search.show { opacity:1; }
	#subtitle { text-anchor:middle; font-color:rgb(160,160,160); }
	#title { text-anchor:middle; font-size:17px}
	#unzoom { cursor:pointer; }
	#frames > *:hover { stroke:black; stroke-width:0.5; cursor:pointer; }
	.hide { display:none; }
	.parent { opacity:0.5; }
</style>
<script type="text/ecmascript">
<![CDATA[
	"use strict";
	var details, searchbtn, unzoombtn, matchedtxt, svg, searching;
	function init(evt) {
		details = document.getElementById("details").firstChild;
		searchbtn = document.getElementById("search");
		unzoombtn = document.getElementById("unzoom");
		matchedtxt = document.getElementById("matched");
		svg = document.getElementsByTagName("svg")[0];
		searching = 0;
	}

	window.addEventListener("click", function(e) {
		var target = find_group(e.target);
		if (target) {
			if (target.nodeName == "a") {
				if (e.ctrlKey === false) return;
				e.preventDefault();
			}
			if (target.classList.contains("parent")) unzoom();
			zoom(target);
		}
		else if (e.target.id == "unzoom") unzoom();
		else if (e.target.id == "search") search_prompt();
	}, false)

	// mouse-over for info
	// show
	window.addEventListener("mouseover", function(e) {
		var target = find_group(e.target);
		if (target) details.nodeValue = "Function: " + g_to_text(target);
	}, false)

	// clear
	window.addEventListener("mouseout", function(e) {
		var target = find_group(e.target);
		if (target) details.nodeValue = ' ';
	}, false)

	// ctrl-F for search
	window.addEventListener("keydown",function (e) {
		if (e.keyCode === 114 || (e.ctrlKey && e.keyCode === 70)) {
			e.preventDefault();
			search_prompt();
		}
	}, false)

	// functions
	function find_child(node, selector) {
		var children = node.querySelectorAll(selector);
		if (children.length) return children[0];
		return;
	}
	function find_group(node) {
		var parent = node.parentElement;
		if (!parent) return;
		if (parent.id == "frames") return node;
		return find_group(parent);
	}
	function orig_save(e, attr, val) {
		if (e.attributes["_orig_" + attr] != undefined) return;
		if (e.attributes[attr] == undefined) return;
		if (val == undefined) val = e.attributes[attr].value;
		e.setAttribute("_orig_" + attr, val);
	}
	function orig_load(e, attr) {
		if (e.attributes["_orig_"+attr] == undefined) return;
		e.attributes[attr].value = e.attributes["_orig_" + attr].value;
		e.removeAttribute("_orig_"+attr);
	}
	function g_to_text(e) {
		var text = find_child(e, "title").firstChild.nodeValue;
		return (text)
	}
	function g_to_func(e) {
		var func = g_to_text(e);
		// if there's any manipulation we want to do to the function
		// name before it's searched, do it here before returning.
		return (func);
	}
	function update_text(e) {
		var r = find_child(e, "rect");
		var t = find_child(e, "text");
		var w = parseFloat(r.attributes.width.value) -3;
		var txt = find_child(e, "title").textContent.replace(/\([^(]*\)$/,"");
		t.attributes.x.value = parseFloat(r.attributes.x.value) + 3;

		// Smaller than this size won't fit anything
		if (w < 2 * 12 * 0.59) {
			t.textContent = "";
			return;
		}

		t.textContent = txt;
		// Fit in full text width
		if (/^ *$/.test(txt) || t.getSubStringLength(0, txt.length) < w)
			return;

		for (var x = txt.length - 2; x > 0; x--) {
			if (t.getSubStringLength(0, x + 2) <= w) {
				t.textContent = txt.substring(0, x) + "..";
				return;
			}
		}
		t.textContent = "";
	}

	// zoom
	function zoom_reset(e) {
		if (e.attributes != undefined) {
			orig_load(e, "x");
			orig_load(e, "width");
		}
		if (e.childNodes == undefined) return;
		for (var i = 0, c = e.childNodes; i < c.length; i++) {
			zoom_reset(c[i]);
		}
	}
	function zoom_child(e, x, ratio) {
		if (e.attributes != undefined) {
			if (e.attributes.x != undefined) {
				orig_save(e, "x");
				e.attributes.x.value = (parseFloat(e.attributes.x.value) - x - 10) * ratio + 10;
				if (e.tagName == "text")
					e.attributes.x.value = find_child(e.parentNode, "rect[x]").attributes.x.value + 3;
			}
			if (e.attributes.width != undefined) {
				orig_save(e, "width");
				e.attributes.width.value = parseFloat(e.attributes.width.value) * ratio;
			}
		}

		if (e.childNodes == undefined) return;
		for (var i = 0, c = e.childNodes; i < c.length; i++) {
			zoom_child(c[i], x - 10, ratio);
		}
	}
	function zoom_parent(e) {
		if (e.attributes) {
			if (e.attributes.x != undefined) {
				orig_save(e, "x");
				e.attributes.x.value = 10;
			}
			if (e.attributes.width != undefined) {
				orig_save(e, "width");
				e.attributes.width.value = parseInt(svg.width.baseVal.value) - (10 * 2);
			}
		}
		if (e.childNodes == undefined) return;
		for (var i = 0, c = e.childNodes; i < c.length; i++) {
			zoom_parent(c[i]);
		}
	}
	function zoom(node) {
		var attr = find_child(node, "rect").attributes;
		var width = parseFloat(attr.width.value);
		var xmin = parseFloat(attr.x.value);
		var xmax = parseFloat(xmin + width);
		var ymin = parseFloat(attr.y.value);
		var ratio = (svg.width.baseVal.value - 2 * 10) / width;

		// XXX: Workaround for JavaScript float issues (fix me)
		var fudge = 0.0001;

		unzoombtn.classList.remove("hide");

		var el = document.getElementById("frames").children;
		for (var i = 0; i < el.length; i++) {
			var e = el[i];
			var a = find_child(e, "rect").attributes;
			var ex = parseFloat(a.x.value);
			var ew = parseFloat(a.width.value);
			var upstack;
			// Is it an ancestor
			if (0 == 0) {
				upstack = parseFloat(a.y.value) > ymin;
			} else {
				upstack = parseFloat(a.y.value) < ymin;
			}
			if (upstack) {
				// Direct ancestor
				if (ex <= xmin && (ex+ew+fudge) >= xmax) {
					e.classList.add("parent");
					zoom_parent(e);
					update_text(e);
				}
				// not in current path
				else
					e.classList.add("hide");
			}
			// Children maybe
			else {
				// no common path
				if (ex < xmin || ex + fudge >= xmax) {
					e.classList.add("hide");
				}
				else {
					zoom_child(e, xmin, ratio);
					update_text(e);
				}
			}
		}
	}
	function unzoom() {
		unzoombtn.classList.add("hide");
		var el = document.getElementById("frames").children;
		for(var i = 0; i < el.length; i++) {
			el[i].classList.remove("parent");
			el[i].classList.remove("hide");
			zoom_reset(el[i]);
			update_text(el[i]);
		}
	}

	// search
	function reset_search() {
		var el = document.querySelectorAll("#frames rect");
		for (var i = 0; i < el.length; i++) {
			orig_load(el[i], "fill")
		}
	}
	function search_prompt() {
		if (!searching) {
			var term = prompt("Enter a search term (regexp " +
			    "allowed, eg: ^ext4_)", "");
			if (term != null) {
				search(term)
			}
		} else {
			reset_search();
			searching = 0;
			searchbtn.classList.remove("show");
			searchbtn.firstChild.nodeValue = "Search"
			matchedtxt.classList.add("hide");
			matchedtxt.firstChild.nodeValue = ""
		}
	}
	function search(term) {
		var re = new RegExp(term);
		var el = document.getElementById("frames").children;
		var matches = new Object();
		var maxwidth = 0;
		for (var i = 0; i < el.length; i++) {
			var e = el[i];
			var func = g_to_func(e);
			var rect = find_child(e, "rect");
			if (func == null || rect == null)
				continue;

			// Save max width. Only works as we have a root frame
			var w = parseFloat(rect.attributes.width.value);
			if (w > maxwidth)
				maxwidth = w;

			if (func.match(re)) {
				// highlight
				var x = parseFloat(rect.attributes.x.value);
				orig_save(rect, "fill");
				rect.attributes.fill.value = "rgb(230,0,230)";

				// remember matches
				if (matches[x] == undefined) {
					matches[x] = w;
				} else {
					if (w > matches[x]) {
						// overwrite with parent
						matches[x] = w;
					}
				}
				searching = 1;
			}
		}
		if (!searching)
			return;

		searchbtn.classList.add("show");
		searchbtn.firstChild.nodeValue = "Reset Search";

		// calculate percent matched, excluding vertical overlap
		var count = 0;
		var lastx = -1;
		var lastw = 0;
		var keys = Array();
		for (k in matches) {
			if (matches.hasOwnProperty(k))
				keys.push(k);
		}
		// sort the matched frames by their x location
		// ascending, then width descending
		keys.sort(function(a, b){
			return a - b;
		});
		// Step through frames saving only the biggest bottom-up frames
		// thanks to the sort order. This relies on the tree property
		// where children are always smaller than their parents.
		var fudge = 0.0001;	// JavaScript floating point
		for (var k in keys) {
			var x = parseFloat(keys[k]);
			var w = matches[keys[k]];
			if (x >= lastx + lastw - fudge) {
				count += w;
				lastx = x;
				lastw = w;
			}
		}
		// display matched percent
		matchedtxt.classList.remove("hide");
		var pct = 100 * count / maxwidth;
		if (pct != 100) pct = pct.toFixed(1)
		matchedtxt.firstChild.nodeValue = "Matched: " + pct + "%";
	}
]]>
</script>
<rect x="0" y="0" width="100%" height="100%" fill="rgb(240,240,220)"/>
<text id="title" x="600" y="24">Flame Graph</text>
<text id="details" x="10" y="293"> </text>
<text id="unzoom" x="10" y="24" class="hide">Reset Zoom</text>
<text id="search" x="1090" y="24">Search</text>
<text id="matched" x="1090" y="293"> </text>
<g id="frames">
<g>
<title>all (1,713 samples, 100.00%)</title><rect x="10.0" y="259.0" width="1180.0" height="15" fill="#f57575" rx="2" ry="2"/>
<text x="13.0" y="270.0">all</text>
</g>
<g>
<title>[NIO Selector #0 tid=3350] (444 samples, 25.92%)</title><rect x="10.0" y="243.0" width="305.8" height="15" fill="#fa7c7c" rx="2" ry="2"/>
<text x="13.0" y="254.0">[NIO Selector #0 tid=3350]</text>
</g>
<g>
<title>one/nio/server/SelectorThread.run (444 samples, 25.92%)</title><rect x="10.0" y="227.0" width="305.8" height="15" fill="#59ea59" rx="2" ry="2"/>
<text x="13.0" y="238.0">one/nio/server/SelectorThread.run</text>
</g>
<g>
<title>one/nio/net/NativeSelector.select (27 samples, 1.58%)</title><rect x="10.0" y="211.0" width="18.6" height="15" fill="#62f362" rx="2" ry="2"/>
<text x="13.0" y="222.0"></text>
</g>
<g>
<title>one.nio.net.NativeSelector$2 (27 samples, 1.58%)</title><rect x="10.0" y="195.0" width="18.6" height="15" fill="#60cece" rx="2" ry="2"/>
<text x="13.0" y="206.0"></text>
</g>
<g>
<title>one/nio/net/Session.process (417 samples, 24.34%)</title><rect x="28.6" y="211.0" width="287.2" height="15" fill="#5ced5c" rx="2" ry="2"/>
<text x="31.6" y="222.0">one/nio/net/Session.process</text>
</g>
<g>
<title>one/nio/http/HttpSession.processRead (417 samples, 24.34%)</title><rect x="28.6" y="195.0" width="287.2" height="15" fill="#64f564" rx="2" ry="2"/>
<text x="31.6" y="206.0">one/nio/http/HttpSession.processRead</text>
</g>
<g>
<title>one/nio/http/HttpSession.processHttpBuffer (417 samples, 24.34%)</title><rect x="28.6" y="179.0" width="287.2" height="15" fill="#6bfc6b" rx="2" ry="2"/>
<text x="31.6" y="190.0">one/nio/http/HttpSession.processHttpBuf..</text>
</g>
<g>
<title>one/nio/http/HttpSession.handleParsedRequest (109 samples, 6.36%)</title><rect x="28.6" y="163.0" width="75.1" height="15" fill="#6dfe6d" rx="2" ry="2"/>
<text x="31.6" y="174.0">one/nio/..</text>
</g>
<g>
<title>one/nio/http/HttpServer.handleRequest (109 samples, 6.36%)</title><rect x="28.6" y="147.0" width="75.1" height="15" fill="#51e251" rx="2" ry="2"/>
<text x="31.6" y="158.0">one/nio/..</text>
</g>
<g>
<title>RequestHandler0_get.handleRequest (57 samples, 3.33%)</title><rect x="28.6" y="131.0" width="39.3" height="15" fill="#50e150" rx="2" ry="2"/>
<text x="31.6" y="142.0">Req..</text>
</g>
<g>
<title>one/nio/http/Request.getRequiredParameter (42 samples, 2.45%)</title><rect x="28.6" y="115.0" width="28.9" height="15" fill="#60f160" rx="2" ry="2"/>
<text x="31.6" y="126.0">on..</text>
</g>
<g>
<title>one/nio/http/Request.getParameter (42 samples, 2.45%)</title><rect x="28.6" y="99.0" width="28.9" height="15" fill="#6cfd6c" rx="2" ry="2"/>
<text x="31.6" y="110.0">on..</text>
</g>
<g>
<title>java/lang/String.substring (42 samples, 2.45%)</title><rect x="28.6" y="83.0" width="28.9" height="15" fill="#56e756" rx="2" ry="2"/>
<text x="31.6" y="94.0">ja..</text>
</g>
<g>
<title>java/lang/StringLatin1.newString (42 samples, 2.45%)</title><rect x="28.6" y="67.0" width="28.9" height="15" fill="#65f665" rx="2" ry="2"/>
<text x="31.6" y="78.0">ja..</text>
</g>
<g>
<title>java.lang.String (18 samples, 1.05%)</title><rect x="28.6" y="51.0" width="12.4" height="15" fill="#69d7d7" rx="2" ry="2"/>
<text x="31.6" y="62.0"></text>
</g>
<g>
<title>java/util/Arrays.copyOfRange (24 samples, 1.40%)</title><rect x="41.0" y="51.0" width="16.5" height="15" fill="#5ced5c" rx="2" ry="2"/>
<text x="44.0" y="62.0"></text>
</g>
<g>
<title>byte[] (24 samples, 1.40%)</title><rect x="41.0" y="35.0" width="16.5" height="15" fill="#64d2d2" rx="2" ry="2"/>
<text x="44.0" y="46.0"></text>
</g>
<g>
<title>ru/mail/polis/service/ivanovandrey/AsyncServiceImpl.get (15 samples, 0.88%)</title><rect x="57.5" y="115.0" width="10.4" height="15" fill="#56e756" rx="2" ry="2"/>
<text x="60.5" y="126.0"></text>
</g>
<g>
<title>java/lang/invoke/Invokers$Holder.linkToTargetMethod (15 samples, 0.88%)</title><rect x="57.5" y="99.0" width="10.4" height="15" fill="#57e857" rx="2" ry="2"/>
<text x="60.5" y="110.0"></text>
</g>
<g>
<title>java/lang/invoke/DirectMethodHandle$Holder.invokeStatic (15 samples, 0.88%)</title><rect x="57.5" y="83.0" width="10.4" height="15" fill="#62f362" rx="2" ry="2"/>
<text x="60.5" y="94.0"></text>
</g>
<g>
<title>ru/mail/polis/service/ivanovandrey/AsyncServiceImpl$$Lambda$65/2020997402.get$Lambda (15 samples, 0.88%)</title><rect x="57.5" y="67.0" width="10.4" height="15" fill="#55e655" rx="2" ry="2"/>
<text x="60.5" y="78.0"></text>
</g>
<g>
<title>ru.mail.polis.service.ivanovandrey.AsyncServiceImpl$$Lambda$65 (15 samples, 0.88%)</title><rect x="57.5" y="51.0" width="10.4" height="15" fill="#6cdada" rx="2" ry="2"/>
<text x="60.5" y="62.0"></text>
</g>
<g>
<title>one/nio/http/Request.getPath (52 samples, 3.04%)</title><rect x="67.9" y="131.0" width="35.8" height="15" fill="#62f362" rx="2" ry="2"/>
<text x="70.9" y="142.0">one..</text>
</g>
<g>
<title>java/lang/String.substring (52 samples, 3.04%)</title><rect x="67.9" y="115.0" width="35.8" height="15" fill="#69fa69" rx="2" ry="2"/>
<text x="70.9" y="126.0">jav..</text>
</g>
<g>
<title>java/lang/StringLatin1.newString (52 samples, 3.04%)</title><rect x="67.9" y="99.0" width="35.8" height="15" fill="#6afb6a" rx="2" ry="2"/>
<text x="70.9" y="110.0">jav..</text>
</g>
<g>
<title>java.lang.String (22 samples, 1.28%)</title><rect x="67.9" y="83.0" width="15.1" height="15" fill="#6ad8d8" rx="2" ry="2"/>
<text x="70.9" y="94.0"></text>
</g>
<g>
<title>java/util/Arrays.copyOfRange (30 samples, 1.75%)</title><rect x="83.0" y="83.0" width="20.7" height="15" fill="#5dee5d" rx="2" ry="2"/>
<text x="86.0" y="94.0"></text>
</g>
<g>
<title>byte[] (30 samples, 1.75%)</title><rect x="83.0" y="67.0" width="20.7" height="15" fill="#54c2c2" rx="2" ry="2"/>
<text x="86.0" y="78.0"></text>
</g>
<g>
<title>one/nio/http/HttpSession.parseRequest (204 samples, 11.91%)</title><rect x="103.7" y="163.0" width="140.5" height="15" fill="#50e150" rx="2" ry="2"/>
<text x="106.7" y="174.0">one/nio/http/HttpS..</text>
</g>
<g>
<title>one.nio.http.Request (29 samples, 1.69%)</title><rect x="103.7" y="147.0" width="20.0" height="15" fill="#52c0c0" rx="2" ry="2"/>
<text x="106.7" y="158.0"></text>
</g>
<g>
<title>one/nio/http/Request.&lt;init&gt; (70 samples, 4.09%)</title><rect x="123.7" y="147.0" width="48.2" height="15" fill="#69fa69" rx="2" ry="2"/>
<text x="126.7" y="158.0">one/..</text>
</g>
<g>
<title>java.lang.String[] (70 samples, 4.09%)</title><rect x="123.7" y="131.0" width="48.2" height="15" fill="#69d7d7" rx="2" ry="2"/>
<text x="126.7" y="142.0">java..</text>
</g>
<g>
<title>one/nio/util/Utf8.read (105 samples, 6.13%)</title><rect x="171.9" y="147.0" width="72.3" height="15" fill="#5bec5b" rx="2" ry="2"/>
<text x="174.9" y="158.0">one/nio/..</text>
</g>
<g>
<title>one/nio/util/Utf8.read (105 samples, 6.13%)</title><rect x="171.9" y="131.0" width="72.3" height="15" fill="#5eef5e" rx="2" ry="2"/>
<text x="174.9" y="142.0">one/nio/..</text>
</g>
<g>
<title>char[] (55 samples, 3.21%)</title><rect x="171.9" y="115.0" width="37.9" height="15" fill="#5ccaca" rx="2" ry="2"/>
<text x="174.9" y="126.0">cha..</text>
</g>
<g>
<title>java.lang.String (18 samples, 1.05%)</title><rect x="209.8" y="115.0" width="12.4" height="15" fill="#68d6d6" rx="2" ry="2"/>
<text x="212.8" y="126.0"></text>
</g>
<g>
<title>java/lang/String.&lt;init&gt; (32 samples, 1.87%)</title><rect x="222.2" y="115.0" width="22.0" height="15" fill="#54e554" rx="2" ry="2"/>
<text x="225.2" y="126.0">j..</text>
</g>
<g>
<title>java/lang/String.&lt;init&gt; (32 samples, 1.87%)</title><rect x="222.2" y="99.0" width="22.0" height="15" fill="#59ea59" rx="2" ry="2"/>
<text x="225.2" y="110.0">j..</text>
</g>
<g>
<title>java/lang/StringUTF16.compress (32 samples, 1.87%)</title><rect x="222.2" y="83.0" width="22.0" height="15" fill="#67f867" rx="2" ry="2"/>
<text x="225.2" y="94.0">j..</text>
</g>
<g>
<title>byte[] (32 samples, 1.87%)</title><rect x="222.2" y="67.0" width="22.0" height="15" fill="#56c4c4" rx="2" ry="2"/>
<text x="225.2" y="78.0">b..</text>
</g>
<g>
<title>one/nio/util/Utf8.read (104 samples, 6.07%)</title><rect x="244.2" y="163.0" width="71.6" height="15" fill="#5aeb5a" rx="2" ry="2"/>
<text x="247.2" y="174.0">one/nio/..</text>
</g>
<g>
<title>one/nio/util/Utf8.read (104 samples, 6.07%)</title><rect x="244.2" y="147.0" width="71.6" height="15" fill="#5aeb5a" rx="2" ry="2"/>
<text x="247.2" y="158.0">one/nio/..</text>
</g>
<g>
<title>char[] (56 samples, 3.27%)</title><rect x="244.2" y="131.0" width="38.6" height="15" fill="#55c3c3" rx="2" ry="2"/>
<text x="247.2" y="142.0">cha..</text>
</g>
<g>
<title>java.lang.String (22 samples, 1.28%)</title><rect x="282.8" y="131.0" width="15.1" height="15" fill="#61cfcf" rx="2" ry="2"/>
<text x="285.8" y="142.0"></text>
</g>
<g>
<title>java/lang/String.&lt;init&gt; (26 samples, 1.52%)</title><rect x="297.9" y="131.0" width="17.9" height="15" fill="#51e251" rx="2" ry="2"/>
<text x="300.9" y="142.0"></text>
</g>
<g>
<title>java/lang/String.&lt;init&gt; (26 samples, 1.52%)</title><rect x="297.9" y="115.0" width="17.9" height="15" fill="#51e251" rx="2" ry="2"/>
<text x="300.9" y="126.0"></text>
</g>
<g>
<title>java/lang/StringUTF16.compress (26 samples, 1.52%)</title><rect x="297.9" y="99.0" width="17.9" height="15" fill="#6dfe6d" rx="2" ry="2"/>
<text x="300.9" y="110.0"></text>
</g>
<g>
<title>byte[] (26 samples, 1.52%)</title><rect x="297.9" y="83.0" width="17.9" height="15" fill="#66d4d4" rx="2" ry="2"/>
<text x="300.9" y="94.0"></text>
</g>
<g>
<title>[NIO Selector #1 tid=3351] (439 samples, 25.63%)</title><rect x="315.8" y="243.0" width="302.5" height="15" fill="#e86464" rx="2" ry="2"/>
<text x="318.8" y="254.0">[NIO Selector #1 tid=3351]</text>
</g>
<g>
<title>one/nio/server/SelectorThread.run (439 samples, 25.63%)</title><rect x="315.8" y="227.0" width="302.5" height="15" fill="#56e756" rx="2" ry="2"/>
<text x="318.8" y="238.0">one/nio/server/SelectorThread.run</text>
</g>
<g>
<title>one/nio/net/NativeSelector.select (31 samples, 1.81%)</title><rect x="315.8" y="211.0" width="21.4" height="15" fill="#5bec5b" rx="2" ry="2"/>
<text x="318.8" y="222.0">o..</text>
</g>
<g>
<title>one.nio.net.NativeSelector$2 (31 samples, 1.81%)</title><rect x="315.8" y="195.0" width="21.4" height="15" fill="#5dcbcb" rx="2" ry="2"/>
<text x="318.8" y="206.0">o..</text>
</g>
<g>
<title>one/nio/net/Session.process (408 samples, 23.82%)</title><rect x="337.2" y="211.0" width="281.1" height="15" fill="#54e554" rx="2" ry="2"/>
<text x="340.2" y="222.0">one/nio/net/Session.process</text>
</g>
<g>
<title>one/nio/http/HttpSession.processRead (408 samples, 23.82%)</title><rect x="337.2" y="195.0" width="281.1" height="15" fill="#6dfe6d" rx="2" ry="2"/>
<text x="340.2" y="206.0">one/nio/http/HttpSession.processRead</text>
</g>
<g>
<title>one/nio/http/HttpSession.processHttpBuffer (408 samples, 23.82%)</title><rect x="337.2" y="179.0" width="281.1" height="15" fill="#58e958" rx="2" ry="2"/>
<text x="340.2" y="190.0">one/nio/http/HttpSession.processHttpBu..</text>
</g>
<g>
<title>one/nio/http/HttpSession.handleParsedRequest (122 samples, 7.12%)</title><rect x="337.2" y="163.0" width="84.0" height="15" fill="#51e251" rx="2" ry="2"/>
<text x="340.2" y="174.0">one/nio/ht..</text>
</g>
<g>
<title>one/nio/http/HttpServer.handleRequest (122 samples, 7.12%)</title><rect x="337.2" y="147.0" width="84.0" height="15" fill="#6afb6a" rx="2" ry="2"/>
<text x="340.2" y="158.0">one/nio/ht..</text>
</g>
<g>
<title>RequestHandler0_get.handleRequest (56 samples, 3.27%)</title><rect x="337.2" y="131.0" width="38.6" height="15" fill="#65f665" rx="2" ry="2"/>
<text x="340.2" y="142.0">Req..</text>
</g>
<g>
<title>one/nio/http/Request.getRequiredParameter (39 samples, 2.28%)</title><rect x="337.2" y="115.0" width="26.9" height="15" fill="#55e655" rx="2" ry="2"/>
<text x="340.2" y="126.0">o..</text>
</g>
<g>
<title>one/nio/http/Request.getParameter (39 samples, 2.28%)</title><rect x="337.2" y="99.0" width="26.9" height="15" fill="#6afb6a" rx="2" ry="2"/>
<text x="340.2" y="110.0">o..</text>
</g>
<g>
<title>java/lang/String.substring (39 samples, 2.28%)</title><rect x="337.2" y="83.0" width="26.9" height="15" fill="#67f867" rx="2" ry="2"/>
<text x="340.2" y="94.0">j..</text>
</g>
<g>
<title>java/lang/StringLatin1.newString (39 samples, 2.28%)</title><rect x="337.2" y="67.0" width="26.9" height="15" fill="#51e251" rx="2" ry="2"/>
<text x="340.2" y="78.0">j..</text>
</g>
<g>
<title>java.lang.String (19 samples, 1.11%)</title><rect x="337.2" y="51.0" width="13.1" height="15" fill="#65d3d3" rx="2" ry="2"/>
<text x="340.2" y="62.0"></text>
</g>
<g>
<title>java/util/Arrays.copyOfRange (20 samples, 1.17%)</title><rect x="350.3" y="51.0" width="13.8" height="15" fill="#55e655" rx="2" ry="2"/>
<text x="353.3" y="62.0"></text>
</g>
<g>
<title>byte[] (20 samples, 1.17%)</title><rect x="350.3" y="35.0" width="13.8" height="15" fill="#5fcdcd" rx="2" ry="2"/>
<text x="353.3" y="46.0"></text>
</g>
<g>
<title>ru/mail/polis/service/ivanovandrey/AsyncServiceImpl.get (17 samples, 0.99%)</title><rect x="364.1" y="115.0" width="11.7" height="15" fill="#54e554" rx="2" ry="2"/>
<text x="367.1" y="126.0"></text>
</g>
<g>
<title>java/lang/invoke/Invokers$Holder.linkToTargetMethod (17 samples, 0.99%)</title><rect x="364.1" y="99.0" width="11.7" height="15" fill="#6dfe6d" rx="2" ry="2"/>
<text x="367.1" y="110.0"></text>
</g>
<g>
<title>java/lang/invoke/DirectMethodHandle$Holder.invokeStatic (17 samples, 0.99%)</title><rect x="364.1" y="83.0" width="11.7" height="15" fill="#63f463" rx="2" ry="2"/>
<text x="367.1" y="94.0"></text>
</g>
<g>
<title>ru/mail/polis/service/ivanovandrey/AsyncServiceImpl$$Lambda$65/2020997402.get$Lambda (17 samples, 0.99%)</title><rect x="364.1" y="67.0" width="11.7" height="15" fill="#5dee5d" rx="2" ry="2"/>
<text x="367.1" y="78.0"></text>
</g>
<g>
<title>ru.mail.polis.service.ivanovandrey.AsyncServiceImpl$$Lambda$65 (17 samples, 0.99%)</title><rect x="364.1" y="51.0" width="11.7" height="15" fill="#67d5d5" rx="2" ry="2"/>
<text x="367.1" y="62.0"></text>
</g>
<g>
<title>one/nio/http/Request.getPath (66 samples, 3.85%)</title><rect x="375.8" y="131.0" width="45.4" height="15" fill="#6afb6a" rx="2" ry="2"/>
<text x="378.8" y="142.0">one/..</text>
</g>
<g>
<title>java/lang/String.substring (66 samples, 3.85%)</title><rect x="375.8" y="115.0" width="45.4" height="15" fill="#67f867" rx="2" ry="2"/>
<text x="378.8" y="126.0">java..</text>
</g>
<g>
<title>java/lang/StringLatin1.newString (66 samples, 3.85%)</title><rect x="375.8" y="99.0" width="45.4" height="15" fill="#53e453" rx="2" ry="2"/>
<text x="378.8" y="110.0">java..</text>
</g>
<g>
<title>java.lang.String (31 samples, 1.81%)</title><rect x="375.8" y="83.0" width="21.3" height="15" fill="#51bfbf" rx="2" ry="2"/>
<text x="378.8" y="94.0">j..</text>
</g>
<g>
<title>java/util/Arrays.copyOfRange (35 samples, 2.04%)</title><rect x="397.1" y="83.0" width="24.1" height="15" fill="#5aeb5a" rx="2" ry="2"/>
<text x="400.1" y="94.0">j..</text>
</g>
<g>
<title>byte[] (35 samples, 2.04%)</title><rect x="397.1" y="67.0" width="24.1" height="15" fill="#54c2c2" rx="2" ry="2"/>
<text x="400.1" y="78.0">b..</text>
</g>
<g>
<title>one/nio/http/HttpSession.parseRequest (195 samples, 11.38%)</title><rect x="421.2" y="163.0" width="134.4" height="15" fill="#52e352" rx="2" ry="2"/>
<text x="424.2" y="174.0">one/nio/http/Http..</text>
</g>
<g>
<title>one.nio.http.Request (25 samples, 1.46%)</title><rect x="421.2" y="147.0" width="17.3" height="15" fill="#5ac8c8" rx="2" ry="2"/>
<text x="424.2" y="158.0"></text>
</g>
<g>
<title>one/nio/http/Request.&lt;init&gt; (64 samples, 3.74%)</title><rect x="438.5" y="147.0" width="44.1" height="15" fill="#6afb6a" rx="2" ry="2"/>
<text x="441.5" y="158.0">one/..</text>
</g>
<g>
<title>java.lang.String[] (64 samples, 3.74%)</title><rect x="438.5" y="131.0" width="44.1" height="15" fill="#5ac8c8" rx="2" ry="2"/>
<text x="441.5" y="142.0">java..</text>
</g>
<g>
<title>one/nio/util/Utf8.read (106 samples, 6.19%)</title><rect x="482.6" y="147.0" width="73.0" height="15" fill="#60f160" rx="2" ry="2"/>
<text x="485.6" y="158.0">one/nio/..</text>
</g>
<g>
<title>one/nio/util/Utf8.read (106 samples, 6.19%)</title><rect x="482.6" y="131.0" width="73.0" height="15" fill="#57e857" rx="2" ry="2"/>
<text x="485.6" y="142.0">one/nio/..</text>
</g>
<g>
<title>char[] (47 samples, 2.74%)</title><rect x="482.6" y="115.0" width="32.3" height="15" fill="#67d5d5" rx="2" ry="2"/>
<text x="485.6" y="126.0">ch..</text>
</g>
<g>
<title>java.lang.String (27 samples, 1.58%)</title><rect x="514.9" y="115.0" width="18.6" height="15" fill="#65d3d3" rx="2" ry="2"/>
<text x="517.9" y="126.0"></text>
</g>
<g>
<title>java/lang/String.&lt;init&gt; (32 samples, 1.87%)</title><rect x="533.5" y="115.0" width="22.1" height="15" fill="#57e857" rx="2" ry="2"/>
<text x="536.5" y="126.0">j..</text>
</g>
<g>
<title>java/lang/String.&lt;init&gt; (32 samples, 1.87%)</title><rect x="533.5" y="99.0" width="22.1" height="15" fill="#52e352" rx="2" ry="2"/>
<text x="536.5" y="110.0">j..</text>
</g>
<g>
<title>java/lang/StringUTF16.compress (32 samples, 1.87%)</title><rect x="533.5" y="83.0" width="22.1" height="15" fill="#66f766" rx="2" ry="2"/>
<text x="536.5" y="94.0">j..</text>
</g>
<g>
<title>byte[] (32 samples, 1.87%)</title><rect x="533.5" y="67.0" width="22.1" height="15" fill="#53c1c1" rx="2" ry="2"/>
<text x="536.5" y="78.0">b..</text>
</g>
<g>
<title>one/nio/util/Utf8.read (91 samples, 5.31%)</title><rect x="555.6" y="163.0" width="62.7" height="15" fill="#67f867" rx="2" ry="2"/>
<text x="558.6" y="174.0">one/ni..</text>
</g>
<g>
<title>one/nio/util/Utf8.read (91 samples, 5.31%)</title><rect x="555.6" y="147.0" width="62.7" height="15" fill="#6cfd6c" rx="2" ry="2"/>
<text x="558.6" y="158.0">one/ni..</text>
</g>
<g>
<title>char[] (51 samples, 2.98%)</title><rect x="555.6" y="131.0" width="35.1" height="15" fill="#50bebe" rx="2" ry="2"/>
<text x="558.6" y="142.0">cha..</text>
</g>
<g>
<title>java.lang.String (15 samples, 0.88%)</title><rect x="590.7" y="131.0" width="10.3" height="15" fill="#61cfcf" rx="2" ry="2"/>
<text x="593.7" y="142.0"></text>
</g>
<g>
<title>java/lang/String.&lt;init&gt; (25 samples, 1.46%)</title><rect x="601.0" y="131.0" width="17.3" height="15" fill="#6dfe6d" rx="2" ry="2"/>
<text x="604.0" y="142.0"></text>
</g>
<g>
<title>java/lang/String.&lt;init&gt; (25 samples, 1.46%)</title><rect x="601.0" y="115.0" width="17.3" height="15" fill="#66f766" rx="2" ry="2"/>
<text x="604.0" y="126.0"></text>
</g>
<g>
<title>java/lang/StringUTF16.compress (25 samples, 1.46%)</title><rect x="601.0" y="99.0" width="17.3" height="15" fill="#66f766" rx="2" ry="2"/>
<text x="604.0" y="110.0"></text>
</g>
<g>
<title>byte[] (25 samples, 1.46%)</title><rect x="601.0" y="83.0" width="17.3" height="15" fill="#5ecccc" rx="2" ry="2"/>
<text x="604.0" y="94.0"></text>
</g>
<g>
<title>[async_worker-0 tid=3359] (387 samples, 22.59%)</title><rect x="618.3" y="243.0" width="266.5" height="15" fill="#fb7c7c" rx="2" ry="2"/>
<text x="621.3" y="254.0">[async_worker-0 tid=3359]</text>
</g>
<g>
<title>java/lang/Thread.run (387 samples, 22.59%)</title><rect x="618.3" y="227.0" width="266.5" height="15" fill="#66f766" rx="2" ry="2"/>
<text x="621.3" y="238.0">java/lang/Thread.run</text>
</g>
<g>
<title>java/util/concurrent/ThreadPoolExecutor$Worker.run (387 samples, 22.59%)</title><rect x="618.3" y="211.0" width="266.5" height="15" fill="#54e554" rx="2" ry="2"/>
<text x="621.3" y="222.0">java/util/concurrent/ThreadPoolExecu..</text>
</g>
<g>
<title>java/util/concurrent/ThreadPoolExecutor.runWorker (387 samples, 22.59%)</title><rect x="618.3" y="195.0" width="266.5" height="15" fill="#59ea59" rx="2" ry="2"/>
<text x="621.3" y="206.0">java/util/concurrent/ThreadPoolExecu..</text>
</g>
<g>
<title>java/util/concurrent/ThreadPoolExecutor.getTask (11 samples, 0.64%)</title><rect x="618.3" y="179.0" width="7.5" height="15" fill="#5ff05f" rx="2" ry="2"/>
<text x="621.3" y="190.0"></text>
</g>
<g>
<title>java/util/concurrent/ArrayBlockingQueue.take (11 samples, 0.64%)</title><rect x="618.3" y="163.0" width="7.5" height="15" fill="#50e150" rx="2" ry="2"/>
<text x="621.3" y="174.0"></text>
</g>
<g>
<title>java/util/concurrent/locks/AbstractQueuedSynchronizer$ConditionObject.await (11 samples, 0.64%)</title><rect x="618.3" y="147.0" width="7.5" height="15" fill="#53e453" rx="2" ry="2"/>
<text x="621.3" y="158.0"></text>
</g>
<g>
<title>java/util/concurrent/locks/AbstractQueuedSynchronizer$ConditionObject.addConditionWaiter (11 samples, 0.64%)</title><rect x="618.3" y="131.0" width="7.5" height="15" fill="#62f362" rx="2" ry="2"/>
<text x="621.3" y="142.0"></text>
</g>
<g>
<title>java.util.concurrent.locks.AbstractQueuedSynchronizer$Node (11 samples, 0.64%)</title><rect x="618.3" y="115.0" width="7.5" height="15" fill="#52c0c0" rx="2" ry="2"/>
<text x="621.3" y="126.0"></text>
</g>
<g>
<title>ru/mail/polis/service/ivanovandrey/AsyncServiceImpl$$Lambda$65/2020997402.run (376 samples, 21.95%)</title><rect x="625.8" y="179.0" width="259.0" height="15" fill="#5eef5e" rx="2" ry="2"/>
<text x="628.8" y="190.0">ru/mail/polis/service/ivanovandrey/..</text>
</g>
<g>
<title>ru/mail/polis/service/ivanovandrey/AsyncServiceImpl.lambda$get$0 (376 samples, 21.95%)</title><rect x="625.8" y="163.0" width="259.0" height="15" fill="#67f867" rx="2" ry="2"/>
<text x="628.8" y="174.0">ru/mail/polis/service/ivanovandrey/..</text>
</g>
<g>
<title>one/nio/http/HttpSession.sendResponse (101 samples, 5.90%)</title><rect x="625.8" y="147.0" width="69.6" height="15" fill="#54e554" rx="2" ry="2"/>
<text x="628.8" y="158.0">one/nio..</text>
</g>
<g>
<title>one/nio/http/HttpSession.writeResponse (101 samples, 5.90%)</title><rect x="625.8" y="131.0" width="69.6" height="15" fill="#68f968" rx="2" ry="2"/>
<text x="628.8" y="142.0">one/nio..</text>
</g>
<g>
<title>one/nio/http/Response.toBytes (68 samples, 3.97%)</title><rect x="625.8" y="115.0" width="46.9" height="15" fill="#63f463" rx="2" ry="2"/>
<text x="628.8" y="126.0">one/..</text>
</g>
<g>
<title>one/nio/util/ByteArrayBuilder.&lt;init&gt; (68 samples, 3.97%)</title><rect x="625.8" y="99.0" width="46.9" height="15" fill="#5eef5e" rx="2" ry="2"/>
<text x="628.8" y="110.0">one/..</text>
</g>
<g>
<title>byte[] (68 samples, 3.97%)</title><rect x="625.8" y="83.0" width="46.9" height="15" fill="#5bc9c9" rx="2" ry="2"/>
<text x="628.8" y="94.0">byte[]</text>
</g>
<g>
<title>one/nio/net/Session.write (33 samples, 1.93%)</title><rect x="672.7" y="115.0" width="22.7" height="15" fill="#6bfc6b" rx="2" ry="2"/>
<text x="675.7" y="126.0">o..</text>
</g>
<g>
<title>one.nio.net.Session$ArrayQueueItem (33 samples, 1.93%)</title><rect x="672.7" y="99.0" width="22.7" height="15" fill="#58c6c6" rx="2" ry="2"/>
<text x="675.7" y="110.0">o..</text>
</g>
<g>
<title>one/nio/http/Response.ok (106 samples, 6.19%)</title><rect x="695.4" y="147.0" width="73.0" height="15" fill="#52e352" rx="2" ry="2"/>
<text x="698.4" y="158.0">one/nio/..</text>
</g>
<g>
<title>one.nio.http.Response (14 samples, 0.82%)</title><rect x="695.4" y="131.0" width="9.6" height="15" fill="#55c3c3" rx="2" ry="2"/>
<text x="698.4" y="142.0"></text>
</g>
<g>
<title>one/nio/http/Response.&lt;init&gt; (92 samples, 5.37%)</title><rect x="705.0" y="131.0" width="63.4" height="15" fill="#5aeb5a" rx="2" ry="2"/>
<text x="708.0" y="142.0">one/nio..</text>
</g>
<g>
<title>byte[] (38 samples, 2.22%)</title><rect x="705.0" y="115.0" width="26.2" height="15" fill="#69d7d7" rx="2" ry="2"/>
<text x="708.0" y="126.0">b..</text>
</g>
<g>
<title>java.lang.String[] (27 samples, 1.58%)</title><rect x="731.2" y="115.0" width="18.6" height="15" fill="#58c6c6" rx="2" ry="2"/>
<text x="734.2" y="126.0"></text>
</g>
<g>
<title>java.lang.String (27 samples, 1.58%)</title><rect x="749.8" y="115.0" width="18.6" height="15" fill="#54c2c2" rx="2" ry="2"/>
<text x="752.8" y="126.0"></text>
</g>
<g>
<title>ru/mail/polis/dao/Converter.fromByteBufferToByteArray (22 samples, 1.28%)</title><rect x="768.4" y="147.0" width="15.2" height="15" fill="#68f968" rx="2" ry="2"/>
<text x="771.4" y="158.0"></text>
</g>
<g>
<title>byte[] (22 samples, 1.28%)</title><rect x="768.4" y="131.0" width="15.2" height="15" fill="#59c7c7" rx="2" ry="2"/>
<text x="771.4" y="142.0"></text>
</g>
<g>
<title>ru/mail/polis/dao/RocksDBImpl.get (78 samples, 4.55%)</title><rect x="783.6" y="147.0" width="53.7" height="15" fill="#65f665" rx="2" ry="2"/>
<text x="786.6" y="158.0">ru/ma..</text>
</g>
<g>
<title>java/nio/ByteBuffer.wrap (36 samples, 2.10%)</title><rect x="783.6" y="131.0" width="24.8" height="15" fill="#68f968" rx="2" ry="2"/>
<text x="786.6" y="142.0">j..</text>
</g>
<g>
<title>java/nio/ByteBuffer.wrap (36 samples, 2.10%)</title><rect x="783.6" y="115.0" width="24.8" height="15" fill="#51e251" rx="2" ry="2"/>
<text x="786.6" y="126.0">j..</text>
</g>
<g>
<title>java.nio.HeapByteBuffer (36 samples, 2.10%)</title><rect x="783.6" y="99.0" width="24.8" height="15" fill="#5ecccc" rx="2" ry="2"/>
<text x="786.6" y="110.0">j..</text>
</g>
<g>
<title>org/rocksdb/RocksDB.get (19 samples, 1.11%)</title><rect x="808.4" y="131.0" width="13.1" height="15" fill="#59ea59" rx="2" ry="2"/>
<text x="811.4" y="142.0"></text>
</g>
<g>
<title>org/rocksdb/RocksDB.get (19 samples, 1.11%)</title><rect x="808.4" y="115.0" width="13.1" height="15" fill="#6bfc6b" rx="2" ry="2"/>
<text x="811.4" y="126.0"></text>
</g>
<g>
<title>byte[] (19 samples, 1.11%)</title><rect x="808.4" y="99.0" width="13.1" height="15" fill="#57c5c5" rx="2" ry="2"/>
<text x="811.4" y="110.0"></text>
</g>
<g>
<title>ru/mail/polis/dao/Converter.toArrayShifted (23 samples, 1.34%)</title><rect x="821.5" y="131.0" width="15.8" height="15" fill="#5dee5d" rx="2" ry="2"/>
<text x="824.5" y="142.0"></text>
</g>
<g>
<title>ru/mail/polis/dao/Converter.fromByteBufferToByteArray (23 samples, 1.34%)</title><rect x="821.5" y="115.0" width="15.8" height="15" fill="#56e756" rx="2" ry="2"/>
<text x="824.5" y="126.0"></text>
</g>
<g>
<title>byte[] (23 samples, 1.34%)</title><rect x="821.5" y="99.0" width="15.8" height="15" fill="#66d4d4" rx="2" ry="2"/>
<text x="824.5" y="110.0"></text>
</g>
<g>
<title>ru/mail/polis/service/ivanovandrey/AsyncServiceImpl.strToByteBuffer (69 samples, 4.03%)</title><rect x="837.3" y="147.0" width="47.5" height="15" fill="#5eef5e" rx="2" ry="2"/>
<text x="840.3" y="158.0">ru/m..</text>
</g>
<g>
<title>java/lang/String.getBytes (28 samples, 1.63%)</title><rect x="837.3" y="131.0" width="19.3" height="15" fill="#5aeb5a" rx="2" ry="2"/>
<text x="840.3" y="142.0"></text>
</g>
<g>
<title>java/lang/StringCoding.encode (28 samples, 1.63%)</title><rect x="837.3" y="115.0" width="19.3" height="15" fill="#5bec5b" rx="2" ry="2"/>
<text x="840.3" y="126.0"></text>
</g>
<g>
<title>java/lang/StringCoding.encodeUTF8 (28 samples, 1.63%)</title><rect x="837.3" y="99.0" width="19.3" height="15" fill="#60f160" rx="2" ry="2"/>
<text x="840.3" y="110.0"></text>
</g>
<g>
<title>java/util/Arrays.copyOf (28 samples, 1.63%)</title><rect x="837.3" y="83.0" width="19.3" height="15" fill="#68f968" rx="2" ry="2"/>
<text x="840.3" y="94.0"></text>
</g>
<g>
<title>byte[] (28 samples, 1.63%)</title><rect x="837.3" y="67.0" width="19.3" height="15" fill="#54c2c2" rx="2" ry="2"/>
<text x="840.3" y="78.0"></text>
</g>
<g>
<title>java/nio/ByteBuffer.wrap (41 samples, 2.39%)</title><rect x="856.6" y="131.0" width="28.2" height="15" fill="#65f665" rx="2" ry="2"/>
<text x="859.6" y="142.0">ja..</text>
</g>
<g>
<title>java/nio/ByteBuffer.wrap (41 samples, 2.39%)</title><rect x="856.6" y="115.0" width="28.2" height="15" fill="#62f362" rx="2" ry="2"/>
<text x="859.6" y="126.0">ja..</text>
</g>
<g>
<title>java.nio.HeapByteBuffer (41 samples, 2.39%)</title><rect x="856.6" y="99.0" width="28.2" height="15" fill="#68d6d6" rx="2" ry="2"/>
<text x="859.6" y="110.0">ja..</text>
</g>
<g>
<title>[async_worker-1 tid=3360] (443 samples, 25.86%)</title><rect x="884.8" y="243.0" width="305.2" height="15" fill="#e76262" rx="2" ry="2"/>
<text x="887.8" y="254.0">[async_worker-1 tid=3360]</text>
</g>
<g>
<title>java/lang/Thread.run (443 samples, 25.86%)</title><rect x="884.8" y="227.0" width="305.2" height="15" fill="#6dfe6d" rx="2" ry="2"/>
<text x="887.8" y="238.0">java/lang/Thread.run</text>
</g>
<g>
<title>java/util/concurrent/ThreadPoolExecutor$Worker.run (443 samples, 25.86%)</title><rect x="884.8" y="211.0" width="305.2" height="15" fill="#66f766" rx="2" ry="2"/>
<text x="887.8" y="222.0">java/util/concurrent/ThreadPoolExecutor$W..</text>
</g>
<g>
<title>java/util/concurrent/ThreadPoolExecutor.runWorker (443 samples, 25.86%)</title><rect x="884.8" y="195.0" width="305.2" height="15" fill="#5eef5e" rx="2" ry="2"/>
<text x="887.8" y="206.0">java/util/concurrent/ThreadPoolExecutor.r..</text>
</g>
<g>
<title>java/util/concurrent/ThreadPoolExecutor.getTask (10 samples, 0.58%)</title><rect x="884.8" y="179.0" width="6.9" height="15" fill="#52e352" rx="2" ry="2"/>
<text x="887.8" y="190.0"></text>
</g>
<g>
<title>java/util/concurrent/ArrayBlockingQueue.take (10 samples, 0.58%)</title><rect x="884.8" y="163.0" width="6.9" height="15" fill="#6bfc6b" rx="2" ry="2"/>
<text x="887.8" y="174.0"></text>
</g>
<g>
<title>java/util/concurrent/locks/AbstractQueuedSynchronizer$ConditionObject.await (10 samples, 0.58%)</title><rect x="884.8" y="147.0" width="6.9" height="15" fill="#69fa69" rx="2" ry="2"/>
<text x="887.8" y="158.0"></text>
</g>
<g>
<title>java/util/concurrent/locks/AbstractQueuedSynchronizer$ConditionObject.addConditionWaiter (10 samples, 0.58%)</title><rect x="884.8" y="131.0" width="6.9" height="15" fill="#6cfd6c" rx="2" ry="2"/>
<text x="887.8" y="142.0"></text>
</g>
<g>
<title>java.util.concurrent.locks.AbstractQueuedSynchronizer$Node (10 samples, 0.58%)</title><rect x="884.8" y="115.0" width="6.9" height="15" fill="#56c4c4" rx="2" ry="2"/>
<text x="887.8" y="126.0"></text>
</g>
<g>
<title>ru/mail/polis/service/ivanovandrey/AsyncServiceImpl$$Lambda$65/2020997402.run (433 samples, 25.28%)</title><rect x="891.7" y="179.0" width="298.3" height="15" fill="#6dfe6d" rx="2" ry="2"/>
<text x="894.7" y="190.0">ru/mail/polis/service/ivanovandrey/Async..</text>
</g>
<g>
<title>ru/mail/polis/service/ivanovandrey/AsyncServiceImpl.lambda$get$0 (433 samples, 25.28%)</title><rect x="891.7" y="163.0" width="298.3" height="15" fill="#66f766" rx="2" ry="2"/>
<text x="894.7" y="174.0">ru/mail/polis/service/ivanovandrey/Async..</text>
</g>
<g>
<title>one/nio/http/HttpSession.sendResponse (123 samples, 7.18%)</title><rect x="891.7" y="147.0" width="84.8" height="15" fill="#5ff05f" rx="2" ry="2"/>
<text x="894.7" y="158.0">one/nio/ht..</text>
</g>
<g>
<title>one/nio/http/HttpSession.writeResponse (123 samples, 7.18%)</title><rect x="891.7" y="131.0" width="84.8" height="15" fill="#65f665" rx="2" ry="2"/>
<text x="894.7" y="142.0">one/nio/ht..</text>
</g>
<g>
<title>one/nio/http/Response.toBytes (77 samples, 4.50%)</title><rect x="891.7" y="115.0" width="53.1" height="15" fill="#60f160" rx="2" ry="2"/>
<text x="894.7" y="126.0">one/n..</text>
</g>
<g>
<title>one/nio/util/ByteArrayBuilder.&lt;init&gt; (77 samples, 4.50%)</title><rect x="891.7" y="99.0" width="53.1" height="15" fill="#61f261" rx="2" ry="2"/>
<text x="894.7" y="110.0">one/n..</text>
</g>
<g>
<title>byte[] (77 samples, 4.50%)</title><rect x="891.7" y="83.0" width="53.1" height="15" fill="#56c4c4" rx="2" ry="2"/>
<text x="894.7" y="94.0">byte[]</text>
</g>
<g>
<title>one/nio/net/Session.write (46 samples, 2.69%)</title><rect x="944.8" y="115.0" width="31.7" height="15" fill="#6afb6a" rx="2" ry="2"/>
<text x="947.8" y="126.0">on..</text>
</g>
<g>
<title>one.nio.net.Session$ArrayQueueItem (46 samples, 2.69%)</title><rect x="944.8" y="99.0" width="31.7" height="15" fill="#5ecccc" rx="2" ry="2"/>
<text x="947.8" y="110.0">on..</text>
</g>
<g>
<title>one/nio/http/Response.ok (117 samples, 6.83%)</title><rect x="976.5" y="147.0" width="80.6" height="15" fill="#5dee5d" rx="2" ry="2"/>
<text x="979.5" y="158.0">one/nio/h..</text>
</g>
<g>
<title>one.nio.http.Response (17 samples, 0.99%)</title><rect x="976.5" y="131.0" width="11.7" height="15" fill="#5ac8c8" rx="2" ry="2"/>
<text x="979.5" y="142.0"></text>
</g>
<g>
<title>one/nio/http/Response.&lt;init&gt; (100 samples, 5.84%)</title><rect x="988.2" y="131.0" width="68.9" height="15" fill="#65f665" rx="2" ry="2"/>
<text x="991.2" y="142.0">one/nio..</text>
</g>
<g>
<title>byte[] (38 samples, 2.22%)</title><rect x="988.2" y="115.0" width="26.1" height="15" fill="#56c4c4" rx="2" ry="2"/>
<text x="991.2" y="126.0">b..</text>
</g>
<g>
<title>java.lang.String[] (37 samples, 2.16%)</title><rect x="1014.3" y="115.0" width="25.5" height="15" fill="#68d6d6" rx="2" ry="2"/>
<text x="1017.3" y="126.0">j..</text>
</g>
<g>
<title>java.lang.String (25 samples, 1.46%)</title><rect x="1039.8" y="115.0" width="17.3" height="15" fill="#51bfbf" rx="2" ry="2"/>
<text x="1042.8" y="126.0"></text>
</g>
<g>
<title>ru/mail/polis/dao/Converter.fromByteBufferToByteArray (28 samples, 1.63%)</title><rect x="1057.1" y="147.0" width="19.2" height="15" fill="#62f362" rx="2" ry="2"/>
<text x="1060.1" y="158.0"></text>
</g>
<g>
<title>byte[] (28 samples, 1.63%)</title><rect x="1057.1" y="131.0" width="19.2" height="15" fill="#5bc9c9" rx="2" ry="2"/>
<text x="1060.1" y="142.0"></text>
</g>
<g>
<title>ru/mail/polis/dao/RocksDBImpl.get (94 samples, 5.49%)</title><rect x="1076.3" y="147.0" width="64.8" height="15" fill="#69fa69" rx="2" ry="2"/>
<text x="1079.3" y="158.0">ru/mail..</text>
</g>
<g>
<title>java/nio/ByteBuffer.wrap (40 samples, 2.34%)</title><rect x="1076.3" y="131.0" width="27.6" height="15" fill="#67f867" rx="2" ry="2"/>
<text x="1079.3" y="142.0">j..</text>
</g>
<g>
<title>java/nio/ByteBuffer.wrap (40 samples, 2.34%)</title><rect x="1076.3" y="115.0" width="27.6" height="15" fill="#53e453" rx="2" ry="2"/>
<text x="1079.3" y="126.0">j..</text>
</g>
<g>
<title>java.nio.HeapByteBuffer (40 samples, 2.34%)</title><rect x="1076.3" y="99.0" width="27.6" height="15" fill="#5dcbcb" rx="2" ry="2"/>
<text x="1079.3" y="110.0">j..</text>
</g>
<g>
<title>org/rocksdb/RocksDB.get (33 samples, 1.93%)</title><rect x="1103.9" y="131.0" width="22.7" height="15" fill="#62f362" rx="2" ry="2"/>
<text x="1106.9" y="142.0">o..</text>
</g>
<g>
<title>org/rocksdb/RocksDB.get (33 samples, 1.93%)</title><rect x="1103.9" y="115.0" width="22.7" height="15" fill="#59ea59" rx="2" ry="2"/>
<text x="1106.9" y="126.0">o..</text>
</g>
<g>
<title>byte[] (33 samples, 1.93%)</title><rect x="1103.9" y="99.0" width="22.7" height="15" fill="#5dcbcb" rx="2" ry="2"/>
<text x="1106.9" y="110.0">b..</text>
</g>
<g>
<title>ru/mail/polis/dao/Converter.toArrayShifted (21 samples, 1.23%)</title><rect x="1126.6" y="131.0" width="14.5" height="15" fill="#5bec5b" rx="2" ry="2"/>
<text x="1129.6" y="142.0"></text>
</g>
<g>
<title>ru/mail/polis/dao/Converter.fromByteBufferToByteArray (21 samples, 1.23%)</title><rect x="1126.6" y="115.0" width="14.5" height="15" fill="#68f968" rx="2" ry="2"/>
<text x="1129.6" y="126.0"></text>
</g>
<g>
<title>byte[] (21 samples, 1.23%)</title><rect x="1126.6" y="99.0" width="14.5" height="15" fill="#5fcdcd" rx="2" ry="2"/>
<text x="1129.6" y="110.0"></text>
</g>
<g>
<title>ru/mail/polis/service/ivanovandrey/AsyncServiceImpl.strToByteBuffer (71 samples, 4.14%)</title><rect x="1141.1" y="147.0" width="48.9" height="15" fill="#59ea59" rx="2" ry="2"/>
<text x="1144.1" y="158.0">ru/m..</text>
</g>
<g>
<title>java/lang/String.getBytes (15 samples, 0.88%)</title><rect x="1141.1" y="131.0" width="10.3" height="15" fill="#64f564" rx="2" ry="2"/>
<text x="1144.1" y="142.0"></text>
</g>
<g>
<title>java/lang/StringCoding.encode (15 samples, 0.88%)</title><rect x="1141.1" y="115.0" width="10.3" height="15" fill="#5dee5d" rx="2" ry="2"/>
<text x="1144.1" y="126.0"></text>
</g>
<g>
<title>java/lang/StringCoding.encodeUTF8 (15 samples, 0.88%)</title><rect x="1141.1" y="99.0" width="10.3" height="15" fill="#60f160" rx="2" ry="2"/>
<text x="1144.1" y="110.0"></text>
</g>
<g>
<title>java/util/Arrays.copyOf (15 samples, 0.88%)</title><rect x="1141.1" y="83.0" width="10.3" height="15" fill="#63f463" rx="2" ry="2"/>
<text x="1144.1" y="94.0"></text>
</g>
<g>
<title>byte[] (15 samples, 0.88%)</title><rect x="1141.1" y="67.0" width="10.3" height="15" fill="#56c4c4" rx="2" ry="2"/>
<text x="1144.1" y="78.0"></text>
</g>
<g>
<title>java/nio/ByteBuffer.wrap (56 samples, 3.27%)</title><rect x="1151.4" y="131.0" width="38.6" height="15" fill="#51e251" rx="2" ry="2"/>
<text x="1154.4" y="142.0">jav..</text>
</g>
<g>
<title>java/nio/ByteBuffer.wrap (56 samples, 3.27%)</title><rect x="1151.4" y="115.0" width="38.6" height="15" fill="#5bec5b" rx="2" ry="2"/>
<text x="1154.4" y="126.0">jav..</text>
</g>
<g>
<title>java.nio.HeapByteBuffer (56 samples, 3.27%)</title><rect x="1151.4" y="99.0" width="38.6" height="15" fill="#67d5d5" rx="2" ry="2"/>
<text x="1154.4" y="110.0">jav..</text>
</g>
</g>
</svg>
