<?xml version="1.0" standalone="no"?>
<!DOCTYPE svg PUBLIC "-//W3C//DTD SVG 1.1//EN" "http://www.w3.org/Graphics/SVG/1.1/DTD/svg11.dtd">
<svg version="1.1" width="1200" height="326" onload="init(evt)" viewBox="0 0 1200 326" xmlns="http://www.w3.org/2000/svg" xmlns:xlink="http://www.w3.org/1999/xlink">
<style type="text/css">
	text { font-family:Verdana; font-size:12px; fill:rgb(0,0,0); }
	#search { opacity:0.1; cursor:pointer; }
	#search:hover, #search.show { opacity:1; }
	#subtitle { text-anchor:middle; font-color:rgb(160,160,160); }
	#title { text-anchor:middle; font-size:17px}
	#unzoom { cursor:pointer; }
	#frames > *:hover { stroke:black; stroke-width:0.5; cursor:pointer; }
	.hide { display:none; }
	.parent { opacity:0.5; }
</style>
<script type="text/ecmascript">
<![CDATA[
	"use strict";
	var details, searchbtn, unzoombtn, matchedtxt, svg, searching;
	function init(evt) {
		details = document.getElementById("details").firstChild;
		searchbtn = document.getElementById("search");
		unzoombtn = document.getElementById("unzoom");
		matchedtxt = document.getElementById("matched");
		svg = document.getElementsByTagName("svg")[0];
		searching = 0;
	}

	window.addEventListener("click", function(e) {
		var target = find_group(e.target);
		if (target) {
			if (target.nodeName == "a") {
				if (e.ctrlKey === false) return;
				e.preventDefault();
			}
			if (target.classList.contains("parent")) unzoom();
			zoom(target);
		}
		else if (e.target.id == "unzoom") unzoom();
		else if (e.target.id == "search") search_prompt();
	}, false)

	// mouse-over for info
	// show
	window.addEventListener("mouseover", function(e) {
		var target = find_group(e.target);
		if (target) details.nodeValue = "Function: " + g_to_text(target);
	}, false)

	// clear
	window.addEventListener("mouseout", function(e) {
		var target = find_group(e.target);
		if (target) details.nodeValue = ' ';
	}, false)

	// ctrl-F for search
	window.addEventListener("keydown",function (e) {
		if (e.keyCode === 114 || (e.ctrlKey && e.keyCode === 70)) {
			e.preventDefault();
			search_prompt();
		}
	}, false)

	// functions
	function find_child(node, selector) {
		var children = node.querySelectorAll(selector);
		if (children.length) return children[0];
		return;
	}
	function find_group(node) {
		var parent = node.parentElement;
		if (!parent) return;
		if (parent.id == "frames") return node;
		return find_group(parent);
	}
	function orig_save(e, attr, val) {
		if (e.attributes["_orig_" + attr] != undefined) return;
		if (e.attributes[attr] == undefined) return;
		if (val == undefined) val = e.attributes[attr].value;
		e.setAttribute("_orig_" + attr, val);
	}
	function orig_load(e, attr) {
		if (e.attributes["_orig_"+attr] == undefined) return;
		e.attributes[attr].value = e.attributes["_orig_" + attr].value;
		e.removeAttribute("_orig_"+attr);
	}
	function g_to_text(e) {
		var text = find_child(e, "title").firstChild.nodeValue;
		return (text)
	}
	function g_to_func(e) {
		var func = g_to_text(e);
		// if there's any manipulation we want to do to the function
		// name before it's searched, do it here before returning.
		return (func);
	}
	function update_text(e) {
		var r = find_child(e, "rect");
		var t = find_child(e, "text");
		var w = parseFloat(r.attributes.width.value) -3;
		var txt = find_child(e, "title").textContent.replace(/\([^(]*\)$/,"");
		t.attributes.x.value = parseFloat(r.attributes.x.value) + 3;

		// Smaller than this size won't fit anything
		if (w < 2 * 12 * 0.59) {
			t.textContent = "";
			return;
		}

		t.textContent = txt;
		// Fit in full text width
		if (/^ *$/.test(txt) || t.getSubStringLength(0, txt.length) < w)
			return;

		for (var x = txt.length - 2; x > 0; x--) {
			if (t.getSubStringLength(0, x + 2) <= w) {
				t.textContent = txt.substring(0, x) + "..";
				return;
			}
		}
		t.textContent = "";
	}

	// zoom
	function zoom_reset(e) {
		if (e.attributes != undefined) {
			orig_load(e, "x");
			orig_load(e, "width");
		}
		if (e.childNodes == undefined) return;
		for (var i = 0, c = e.childNodes; i < c.length; i++) {
			zoom_reset(c[i]);
		}
	}
	function zoom_child(e, x, ratio) {
		if (e.attributes != undefined) {
			if (e.attributes.x != undefined) {
				orig_save(e, "x");
				e.attributes.x.value = (parseFloat(e.attributes.x.value) - x - 10) * ratio + 10;
				if (e.tagName == "text")
					e.attributes.x.value = find_child(e.parentNode, "rect[x]").attributes.x.value + 3;
			}
			if (e.attributes.width != undefined) {
				orig_save(e, "width");
				e.attributes.width.value = parseFloat(e.attributes.width.value) * ratio;
			}
		}

		if (e.childNodes == undefined) return;
		for (var i = 0, c = e.childNodes; i < c.length; i++) {
			zoom_child(c[i], x - 10, ratio);
		}
	}
	function zoom_parent(e) {
		if (e.attributes) {
			if (e.attributes.x != undefined) {
				orig_save(e, "x");
				e.attributes.x.value = 10;
			}
			if (e.attributes.width != undefined) {
				orig_save(e, "width");
				e.attributes.width.value = parseInt(svg.width.baseVal.value) - (10 * 2);
			}
		}
		if (e.childNodes == undefined) return;
		for (var i = 0, c = e.childNodes; i < c.length; i++) {
			zoom_parent(c[i]);
		}
	}
	function zoom(node) {
		var attr = find_child(node, "rect").attributes;
		var width = parseFloat(attr.width.value);
		var xmin = parseFloat(attr.x.value);
		var xmax = parseFloat(xmin + width);
		var ymin = parseFloat(attr.y.value);
		var ratio = (svg.width.baseVal.value - 2 * 10) / width;

		// XXX: Workaround for JavaScript float issues (fix me)
		var fudge = 0.0001;

		unzoombtn.classList.remove("hide");

		var el = document.getElementById("frames").children;
		for (var i = 0; i < el.length; i++) {
			var e = el[i];
			var a = find_child(e, "rect").attributes;
			var ex = parseFloat(a.x.value);
			var ew = parseFloat(a.width.value);
			var upstack;
			// Is it an ancestor
			if (0 == 0) {
				upstack = parseFloat(a.y.value) > ymin;
			} else {
				upstack = parseFloat(a.y.value) < ymin;
			}
			if (upstack) {
				// Direct ancestor
				if (ex <= xmin && (ex+ew+fudge) >= xmax) {
					e.classList.add("parent");
					zoom_parent(e);
					update_text(e);
				}
				// not in current path
				else
					e.classList.add("hide");
			}
			// Children maybe
			else {
				// no common path
				if (ex < xmin || ex + fudge >= xmax) {
					e.classList.add("hide");
				}
				else {
					zoom_child(e, xmin, ratio);
					update_text(e);
				}
			}
		}
	}
	function unzoom() {
		unzoombtn.classList.add("hide");
		var el = document.getElementById("frames").children;
		for(var i = 0; i < el.length; i++) {
			el[i].classList.remove("parent");
			el[i].classList.remove("hide");
			zoom_reset(el[i]);
			update_text(el[i]);
		}
	}

	// search
	function reset_search() {
		var el = document.querySelectorAll("#frames rect");
		for (var i = 0; i < el.length; i++) {
			orig_load(el[i], "fill")
		}
	}
	function search_prompt() {
		if (!searching) {
			var term = prompt("Enter a search term (regexp " +
			    "allowed, eg: ^ext4_)", "");
			if (term != null) {
				search(term)
			}
		} else {
			reset_search();
			searching = 0;
			searchbtn.classList.remove("show");
			searchbtn.firstChild.nodeValue = "Search"
			matchedtxt.classList.add("hide");
			matchedtxt.firstChild.nodeValue = ""
		}
	}
	function search(term) {
		var re = new RegExp(term);
		var el = document.getElementById("frames").children;
		var matches = new Object();
		var maxwidth = 0;
		for (var i = 0; i < el.length; i++) {
			var e = el[i];
			var func = g_to_func(e);
			var rect = find_child(e, "rect");
			if (func == null || rect == null)
				continue;

			// Save max width. Only works as we have a root frame
			var w = parseFloat(rect.attributes.width.value);
			if (w > maxwidth)
				maxwidth = w;

			if (func.match(re)) {
				// highlight
				var x = parseFloat(rect.attributes.x.value);
				orig_save(rect, "fill");
				rect.attributes.fill.value = "rgb(230,0,230)";

				// remember matches
				if (matches[x] == undefined) {
					matches[x] = w;
				} else {
					if (w > matches[x]) {
						// overwrite with parent
						matches[x] = w;
					}
				}
				searching = 1;
			}
		}
		if (!searching)
			return;

		searchbtn.classList.add("show");
		searchbtn.firstChild.nodeValue = "Reset Search";

		// calculate percent matched, excluding vertical overlap
		var count = 0;
		var lastx = -1;
		var lastw = 0;
		var keys = Array();
		for (k in matches) {
			if (matches.hasOwnProperty(k))
				keys.push(k);
		}
		// sort the matched frames by their x location
		// ascending, then width descending
		keys.sort(function(a, b){
			return a - b;
		});
		// Step through frames saving only the biggest bottom-up frames
		// thanks to the sort order. This relies on the tree property
		// where children are always smaller than their parents.
		var fudge = 0.0001;	// JavaScript floating point
		for (var k in keys) {
			var x = parseFloat(keys[k]);
			var w = matches[keys[k]];
			if (x >= lastx + lastw - fudge) {
				count += w;
				lastx = x;
				lastw = w;
			}
		}
		// display matched percent
		matchedtxt.classList.remove("hide");
		var pct = 100 * count / maxwidth;
		if (pct != 100) pct = pct.toFixed(1)
		matchedtxt.firstChild.nodeValue = "Matched: " + pct + "%";
	}
]]>
</script>
<rect x="0" y="0" width="100%" height="100%" fill="rgb(240,240,220)"/>
<text id="title" x="600" y="24">Flame Graph</text>
<text id="details" x="10" y="309"> </text>
<text id="unzoom" x="10" y="24" class="hide">Reset Zoom</text>
<text id="search" x="1090" y="24">Search</text>
<text id="matched" x="1090" y="309"> </text>
<g id="frames">
<g>
<title>all (5,032 samples, 100.00%)</title><rect x="10.0" y="275.0" width="1180.0" height="15" fill="#e15a5a" rx="2" ry="2"/>
<text x="13.0" y="286.0">all</text>
</g>
<g>
<title>one/nio/server/SelectorThread.run (5,031 samples, 99.98%)</title><rect x="10.2" y="259.0" width="1179.8" height="15" fill="#53e453" rx="2" ry="2"/>
<text x="13.2" y="270.0">one/nio/server/SelectorThread.run</text>
</g>
<g>
<title>one/nio/net/JavaSelector.select (276 samples, 5.48%)</title><rect x="10.2" y="243.0" width="64.8" height="15" fill="#66f766" rx="2" ry="2"/>
<text x="13.2" y="254.0">one/nio..</text>
</g>
<g>
<title>one/nio/net/JavaSelector.iteratorFor (152 samples, 3.02%)</title><rect x="10.2" y="227.0" width="35.7" height="15" fill="#5dee5d" rx="2" ry="2"/>
<text x="13.2" y="238.0">one..</text>
</g>
<g>
<title>one.nio.net.JavaSelector$1 (65 samples, 1.29%)</title><rect x="10.2" y="211.0" width="15.3" height="15" fill="#5fcdcd" rx="2" ry="2"/>
<text x="13.2" y="222.0"></text>
</g>
<g>
<title>one.nio.net.Session[] (84 samples, 1.67%)</title><rect x="25.5" y="211.0" width="19.7" height="15" fill="#56c4c4" rx="2" ry="2"/>
<text x="28.5" y="222.0"></text>
</g>
<g>
<title>sun/nio/ch/Util$2.iterator (3 samples, 0.06%)</title><rect x="45.2" y="211.0" width="0.7" height="15" fill="#51e251" rx="2" ry="2"/>
<text x="48.2" y="222.0"></text>
</g>
<g>
<title>java/util/HashSet.iterator (3 samples, 0.06%)</title><rect x="45.2" y="195.0" width="0.7" height="15" fill="#64f564" rx="2" ry="2"/>
<text x="48.2" y="206.0"></text>
</g>
<g>
<title>java/util/HashMap$KeySet.iterator (3 samples, 0.06%)</title><rect x="45.2" y="179.0" width="0.7" height="15" fill="#64f564" rx="2" ry="2"/>
<text x="48.2" y="190.0"></text>
</g>
<g>
<title>java.util.HashMap$KeyIterator (3 samples, 0.06%)</title><rect x="45.2" y="163.0" width="0.7" height="15" fill="#6cdada" rx="2" ry="2"/>
<text x="48.2" y="174.0"></text>
</g>
<g>
<title>sun/nio/ch/SelectorImpl.select (124 samples, 2.46%)</title><rect x="45.9" y="227.0" width="29.1" height="15" fill="#5bec5b" rx="2" ry="2"/>
<text x="48.9" y="238.0">su..</text>
</g>
<g>
<title>sun/nio/ch/SelectorImpl.lockAndDoSelect (124 samples, 2.46%)</title><rect x="45.9" y="211.0" width="29.1" height="15" fill="#5ff05f" rx="2" ry="2"/>
<text x="48.9" y="222.0">su..</text>
</g>
<g>
<title>sun/nio/ch/KQueueSelectorImpl.doSelect (124 samples, 2.46%)</title><rect x="45.9" y="195.0" width="29.1" height="15" fill="#68f968" rx="2" ry="2"/>
<text x="48.9" y="206.0">su..</text>
</g>
<g>
<title>sun/nio/ch/KQueueSelectorImpl.processEvents (124 samples, 2.46%)</title><rect x="45.9" y="179.0" width="29.1" height="15" fill="#51e251" rx="2" ry="2"/>
<text x="48.9" y="190.0">su..</text>
</g>
<g>
<title>sun/nio/ch/SelectorImpl.processReadyEvents (124 samples, 2.46%)</title><rect x="45.9" y="163.0" width="29.1" height="15" fill="#51e251" rx="2" ry="2"/>
<text x="48.9" y="174.0">su..</text>
</g>
<g>
<title>java/util/HashSet.add (124 samples, 2.46%)</title><rect x="45.9" y="147.0" width="29.1" height="15" fill="#5ff05f" rx="2" ry="2"/>
<text x="48.9" y="158.0">ja..</text>
</g>
<g>
<title>java/util/HashMap.put (124 samples, 2.46%)</title><rect x="45.9" y="131.0" width="29.1" height="15" fill="#64f564" rx="2" ry="2"/>
<text x="48.9" y="142.0">ja..</text>
</g>
<g>
<title>java/util/HashMap.putVal (124 samples, 2.46%)</title><rect x="45.9" y="115.0" width="29.1" height="15" fill="#50e150" rx="2" ry="2"/>
<text x="48.9" y="126.0">ja..</text>
</g>
<g>
<title>java/util/HashMap.newNode (123 samples, 2.44%)</title><rect x="45.9" y="99.0" width="28.8" height="15" fill="#5bec5b" rx="2" ry="2"/>
<text x="48.9" y="110.0">ja..</text>
</g>
<g>
<title>java.util.HashMap$Node (123 samples, 2.44%)</title><rect x="45.9" y="83.0" width="28.8" height="15" fill="#52c0c0" rx="2" ry="2"/>
<text x="48.9" y="94.0">ja..</text>
</g>
<g>
<title>one/nio/net/Session.process (4,755 samples, 94.50%)</title><rect x="75.0" y="243.0" width="1115.0" height="15" fill="#5ced5c" rx="2" ry="2"/>
<text x="78.0" y="254.0">one/nio/net/Session.process</text>
</g>
<g>
<title>one/nio/http/HttpSession.processRead (4,755 samples, 94.50%)</title><rect x="75.0" y="227.0" width="1115.0" height="15" fill="#64f564" rx="2" ry="2"/>
<text x="78.0" y="238.0">one/nio/http/HttpSession.processRead</text>
</g>
<g>
<title>one/nio/http/HttpSession.processHttpBuffer (4,751 samples, 94.42%)</title><rect x="75.0" y="211.0" width="1114.1" height="15" fill="#61f261" rx="2" ry="2"/>
<text x="78.0" y="222.0">one/nio/http/HttpSession.processHttpBuffer</text>
</g>
<g>
<title>one/nio/http/HttpSession.handleParsedRequest (2,636 samples, 52.38%)</title><rect x="75.0" y="195.0" width="618.1" height="15" fill="#6bfc6b" rx="2" ry="2"/>
<text x="78.0" y="206.0">one/nio/http/HttpSession.handleParsedRequest</text>
</g>
<g>
<title>one/nio/http/HttpServer.handleRequest (2,636 samples, 52.38%)</title><rect x="75.0" y="179.0" width="618.1" height="15" fill="#69fa69" rx="2" ry="2"/>
<text x="78.0" y="190.0">one/nio/http/HttpServer.handleRequest</text>
</g>
<g>
<title>RequestHandler0_entity.handleRequest (2,408 samples, 47.85%)</title><rect x="75.0" y="163.0" width="564.6" height="15" fill="#5ff05f" rx="2" ry="2"/>
<text x="78.0" y="174.0">RequestHandler0_entity.handleRequest</text>
</g>
<g>
<title>one/nio/http/HttpSession.sendResponse (696 samples, 13.83%)</title><rect x="75.0" y="147.0" width="163.2" height="15" fill="#52e352" rx="2" ry="2"/>
<text x="78.0" y="158.0">one/nio/http/HttpSess..</text>
</g>
<g>
<title>one/nio/http/HttpSession.writeResponse (696 samples, 13.83%)</title><rect x="75.0" y="131.0" width="163.2" height="15" fill="#63f463" rx="2" ry="2"/>
<text x="78.0" y="142.0">one/nio/http/HttpSess..</text>
</g>
<g>
<title>one/nio/http/Response.toBytes (338 samples, 6.72%)</title><rect x="75.0" y="115.0" width="79.2" height="15" fill="#5ced5c" rx="2" ry="2"/>
<text x="78.0" y="126.0">one/nio/h..</text>
</g>
<g>
<title>one.nio.util.ByteArrayBuilder (2 samples, 0.04%)</title><rect x="75.0" y="99.0" width="0.4" height="15" fill="#65d3d3" rx="2" ry="2"/>
<text x="78.0" y="110.0"></text>
</g>
<g>
<title>one/nio/util/ByteArrayBuilder.&lt;init&gt; (336 samples, 6.68%)</title><rect x="75.4" y="99.0" width="78.8" height="15" fill="#6bfc6b" rx="2" ry="2"/>
<text x="78.4" y="110.0">one/nio/u..</text>
</g>
<g>
<title>byte[] (336 samples, 6.68%)</title><rect x="75.4" y="83.0" width="78.8" height="15" fill="#66d4d4" rx="2" ry="2"/>
<text x="78.4" y="94.0">byte[]</text>
</g>
<g>
<title>one/nio/net/Session.write (358 samples, 7.11%)</title><rect x="154.2" y="115.0" width="84.0" height="15" fill="#57e857" rx="2" ry="2"/>
<text x="157.2" y="126.0">one/nio/n..</text>
</g>
<g>
<title>one.nio.net.Session$ArrayQueueItem (156 samples, 3.10%)</title><rect x="154.2" y="99.0" width="36.6" height="15" fill="#51bfbf" rx="2" ry="2"/>
<text x="157.2" y="110.0">one..</text>
</g>
<g>
<title>one/nio/net/Session.write (202 samples, 4.01%)</title><rect x="190.8" y="99.0" width="47.4" height="15" fill="#66f766" rx="2" ry="2"/>
<text x="193.8" y="110.0">one/..</text>
</g>
<g>
<title>one/nio/net/Session$ArrayQueueItem.write (202 samples, 4.01%)</title><rect x="190.8" y="83.0" width="47.4" height="15" fill="#59ea59" rx="2" ry="2"/>
<text x="193.8" y="94.0">one/..</text>
</g>
<g>
<title>one/nio/net/JavaSocket.write (202 samples, 4.01%)</title><rect x="190.8" y="67.0" width="47.4" height="15" fill="#62f362" rx="2" ry="2"/>
<text x="193.8" y="78.0">one/..</text>
</g>
<g>
<title>java/nio/ByteBuffer.wrap (202 samples, 4.01%)</title><rect x="190.8" y="51.0" width="47.4" height="15" fill="#66f766" rx="2" ry="2"/>
<text x="193.8" y="62.0">java..</text>
</g>
<g>
<title>java.nio.HeapByteBuffer (202 samples, 4.01%)</title><rect x="190.8" y="35.0" width="47.4" height="15" fill="#6ddbdb" rx="2" ry="2"/>
<text x="193.8" y="46.0">java..</text>
</g>
<g>
<title>one/nio/http/Request.getRequiredParameter (191 samples, 3.80%)</title><rect x="238.2" y="147.0" width="44.8" height="15" fill="#5aeb5a" rx="2" ry="2"/>
<text x="241.2" y="158.0">one/..</text>
</g>
<g>
<title>one/nio/http/Request.getParameter (191 samples, 3.80%)</title><rect x="238.2" y="131.0" width="44.8" height="15" fill="#57e857" rx="2" ry="2"/>
<text x="241.2" y="142.0">one/..</text>
</g>
<g>
<title>java/lang/String.substring (191 samples, 3.80%)</title><rect x="238.2" y="115.0" width="44.8" height="15" fill="#6dfe6d" rx="2" ry="2"/>
<text x="241.2" y="126.0">java..</text>
</g>
<g>
<title>java/lang/StringLatin1.newString (191 samples, 3.80%)</title><rect x="238.2" y="99.0" width="44.8" height="15" fill="#65f665" rx="2" ry="2"/>
<text x="241.2" y="110.0">java..</text>
</g>
<g>
<title>java.lang.String (78 samples, 1.55%)</title><rect x="238.2" y="83.0" width="18.3" height="15" fill="#66d4d4" rx="2" ry="2"/>
<text x="241.2" y="94.0"></text>
</g>
<g>
<title>java/util/Arrays.copyOfRange (113 samples, 2.25%)</title><rect x="256.5" y="83.0" width="26.5" height="15" fill="#63f463" rx="2" ry="2"/>
<text x="259.5" y="94.0">j..</text>
</g>
<g>
<title>byte[] (113 samples, 2.25%)</title><rect x="256.5" y="67.0" width="26.5" height="15" fill="#52c0c0" rx="2" ry="2"/>
<text x="259.5" y="78.0">b..</text>
</g>
<g>
<title>ru/mail/polis/service/igor_manikhin/ServiceImpl.entity (1,521 samples, 30.23%)</title><rect x="283.0" y="147.0" width="356.6" height="15" fill="#62f362" rx="2" ry="2"/>
<text x="286.0" y="158.0">ru/mail/polis/service/igor_manikhin/ServiceImpl...</text>
</g>
<g>
<title>java/lang/String.getBytes (98 samples, 1.95%)</title><rect x="283.0" y="131.0" width="22.9" height="15" fill="#6afb6a" rx="2" ry="2"/>
<text x="286.0" y="142.0">j..</text>
</g>
<g>
<title>java/lang/StringCoding.encode (98 samples, 1.95%)</title><rect x="283.0" y="115.0" width="22.9" height="15" fill="#58e958" rx="2" ry="2"/>
<text x="286.0" y="126.0">j..</text>
</g>
<g>
<title>java/lang/StringCoding.encodeUTF8 (98 samples, 1.95%)</title><rect x="283.0" y="99.0" width="22.9" height="15" fill="#5dee5d" rx="2" ry="2"/>
<text x="286.0" y="110.0">j..</text>
</g>
<g>
<title>java/util/Arrays.copyOf (98 samples, 1.95%)</title><rect x="283.0" y="83.0" width="22.9" height="15" fill="#66f766" rx="2" ry="2"/>
<text x="286.0" y="94.0">j..</text>
</g>
<g>
<title>byte[] (98 samples, 1.95%)</title><rect x="283.0" y="67.0" width="22.9" height="15" fill="#5ecccc" rx="2" ry="2"/>
<text x="286.0" y="78.0">b..</text>
</g>
<g>
<title>java/nio/ByteBuffer.wrap (168 samples, 3.34%)</title><rect x="305.9" y="131.0" width="39.4" height="15" fill="#57e857" rx="2" ry="2"/>
<text x="308.9" y="142.0">jav..</text>
</g>
<g>
<title>java/nio/ByteBuffer.wrap (168 samples, 3.34%)</title><rect x="305.9" y="115.0" width="39.4" height="15" fill="#58e958" rx="2" ry="2"/>
<text x="308.9" y="126.0">jav..</text>
</g>
<g>
<title>java.nio.HeapByteBuffer (168 samples, 3.34%)</title><rect x="305.9" y="99.0" width="39.4" height="15" fill="#5ac8c8" rx="2" ry="2"/>
<text x="308.9" y="110.0">jav..</text>
</g>
<g>
<title>ru/mail/polis/service/igor_manikhin/ServiceImpl.put (1,255 samples, 24.94%)</title><rect x="345.3" y="131.0" width="294.3" height="15" fill="#54e554" rx="2" ry="2"/>
<text x="348.3" y="142.0">ru/mail/polis/service/igor_manikhin/Serv..</text>
</g>
<g>
<title>java/nio/ByteBuffer.wrap (188 samples, 3.74%)</title><rect x="345.3" y="115.0" width="44.1" height="15" fill="#5eef5e" rx="2" ry="2"/>
<text x="348.3" y="126.0">java..</text>
</g>
<g>
<title>java/nio/ByteBuffer.wrap (188 samples, 3.74%)</title><rect x="345.3" y="99.0" width="44.1" height="15" fill="#6afb6a" rx="2" ry="2"/>
<text x="348.3" y="110.0">java..</text>
</g>
<g>
<title>java.nio.HeapByteBuffer (188 samples, 3.74%)</title><rect x="345.3" y="83.0" width="44.1" height="15" fill="#6bd9d9" rx="2" ry="2"/>
<text x="348.3" y="94.0">java..</text>
</g>
<g>
<title>one.nio.http.Response (114 samples, 2.27%)</title><rect x="389.4" y="115.0" width="26.8" height="15" fill="#51bfbf" rx="2" ry="2"/>
<text x="392.4" y="126.0">o..</text>
</g>
<g>
<title>one/nio/http/Response.&lt;init&gt; (372 samples, 7.39%)</title><rect x="416.2" y="115.0" width="87.2" height="15" fill="#6bfc6b" rx="2" ry="2"/>
<text x="419.2" y="126.0">one/nio/ht..</text>
</g>
<g>
<title>byte[] (141 samples, 2.80%)</title><rect x="416.2" y="99.0" width="33.0" height="15" fill="#5fcdcd" rx="2" ry="2"/>
<text x="419.2" y="110.0">by..</text>
</g>
<g>
<title>java.lang.String[] (145 samples, 2.88%)</title><rect x="449.2" y="99.0" width="34.0" height="15" fill="#5fcdcd" rx="2" ry="2"/>
<text x="452.2" y="110.0">ja..</text>
</g>
<g>
<title>java.lang.String (78 samples, 1.55%)</title><rect x="483.2" y="99.0" width="18.3" height="15" fill="#59c7c7" rx="2" ry="2"/>
<text x="486.2" y="110.0"></text>
</g>
<g>
<title>java/lang/StringBuilder.&lt;init&gt; (2 samples, 0.04%)</title><rect x="501.5" y="99.0" width="0.5" height="15" fill="#6dfe6d" rx="2" ry="2"/>
<text x="504.5" y="110.0"></text>
</g>
<g>
<title>java/lang/AbstractStringBuilder.&lt;init&gt; (2 samples, 0.04%)</title><rect x="501.5" y="83.0" width="0.5" height="15" fill="#5eef5e" rx="2" ry="2"/>
<text x="504.5" y="94.0"></text>
</g>
<g>
<title>byte[] (2 samples, 0.04%)</title><rect x="501.5" y="67.0" width="0.5" height="15" fill="#57c5c5" rx="2" ry="2"/>
<text x="504.5" y="78.0"></text>
</g>
<g>
<title>java/lang/StringBuilder.append (3 samples, 0.06%)</title><rect x="502.0" y="99.0" width="0.7" height="15" fill="#52e352" rx="2" ry="2"/>
<text x="505.0" y="110.0"></text>
</g>
<g>
<title>java/lang/AbstractStringBuilder.append (3 samples, 0.06%)</title><rect x="502.0" y="83.0" width="0.7" height="15" fill="#6cfd6c" rx="2" ry="2"/>
<text x="505.0" y="94.0"></text>
</g>
<g>
<title>java/lang/AbstractStringBuilder.ensureCapacityInternal (3 samples, 0.06%)</title><rect x="502.0" y="67.0" width="0.7" height="15" fill="#52e352" rx="2" ry="2"/>
<text x="505.0" y="78.0"></text>
</g>
<g>
<title>java/util/Arrays.copyOf (3 samples, 0.06%)</title><rect x="502.0" y="51.0" width="0.7" height="15" fill="#5ff05f" rx="2" ry="2"/>
<text x="505.0" y="62.0"></text>
</g>
<g>
<title>byte[] (3 samples, 0.06%)</title><rect x="502.0" y="35.0" width="0.7" height="15" fill="#5bc9c9" rx="2" ry="2"/>
<text x="505.0" y="46.0"></text>
</g>
<g>
<title>java/lang/StringBuilder.toString (3 samples, 0.06%)</title><rect x="502.7" y="99.0" width="0.7" height="15" fill="#58e958" rx="2" ry="2"/>
<text x="505.7" y="110.0"></text>
</g>
<g>
<title>java/lang/StringLatin1.newString (3 samples, 0.06%)</title><rect x="502.7" y="83.0" width="0.7" height="15" fill="#6bfc6b" rx="2" ry="2"/>
<text x="505.7" y="94.0"></text>
</g>
<g>
<title>java.lang.String (3 samples, 0.06%)</title><rect x="502.7" y="67.0" width="0.7" height="15" fill="#5fcdcd" rx="2" ry="2"/>
<text x="505.7" y="78.0"></text>
</g>
<g>
<title>ru/mail/polis/dao/igor_manikhin/DAOImpl.upsert (581 samples, 11.55%)</title><rect x="503.4" y="115.0" width="136.2" height="15" fill="#5dee5d" rx="2" ry="2"/>
<text x="506.4" y="126.0">ru/mail/polis/dao..</text>
</g>
<g>
<title>ru/mail/polis/dao/igor_manikhin/ByteConvertor.toArray (286 samples, 5.68%)</title><rect x="503.4" y="99.0" width="67.1" height="15" fill="#6cfd6c" rx="2" ry="2"/>
<text x="506.4" y="110.0">ru/mail..</text>
</g>
<g>
<title>byte[] (106 samples, 2.11%)</title><rect x="503.4" y="83.0" width="24.8" height="15" fill="#51bfbf" rx="2" ry="2"/>
<text x="506.4" y="94.0">b..</text>
</g>
<g>
<title>java/nio/HeapByteBuffer.duplicate (180 samples, 3.58%)</title><rect x="528.2" y="83.0" width="42.3" height="15" fill="#66f766" rx="2" ry="2"/>
<text x="531.2" y="94.0">java..</text>
</g>
<g>
<title>java.nio.HeapByteBuffer (180 samples, 3.58%)</title><rect x="528.2" y="67.0" width="42.3" height="15" fill="#67d5d5" rx="2" ry="2"/>
<text x="531.2" y="78.0">java..</text>
</g>
<g>
<title>ru/mail/polis/dao/igor_manikhin/ByteConvertor.toUnsignedArray (295 samples, 5.86%)</title><rect x="570.5" y="99.0" width="69.1" height="15" fill="#68f968" rx="2" ry="2"/>
<text x="573.5" y="110.0">ru/mail..</text>
</g>
<g>
<title>byte[] (102 samples, 2.03%)</title><rect x="570.5" y="83.0" width="23.9" height="15" fill="#53c1c1" rx="2" ry="2"/>
<text x="573.5" y="94.0">b..</text>
</g>
<g>
<title>java/nio/HeapByteBuffer.duplicate (193 samples, 3.84%)</title><rect x="594.4" y="83.0" width="45.2" height="15" fill="#50e150" rx="2" ry="2"/>
<text x="597.4" y="94.0">java..</text>
</g>
<g>
<title>java.nio.HeapByteBuffer (193 samples, 3.84%)</title><rect x="594.4" y="67.0" width="45.2" height="15" fill="#64d2d2" rx="2" ry="2"/>
<text x="597.4" y="78.0">java..</text>
</g>
<g>
<title>one/nio/http/Request.getPath (228 samples, 4.53%)</title><rect x="639.6" y="163.0" width="53.5" height="15" fill="#6afb6a" rx="2" ry="2"/>
<text x="642.6" y="174.0">one/n..</text>
</g>
<g>
<title>java/lang/String.substring (228 samples, 4.53%)</title><rect x="639.6" y="147.0" width="53.5" height="15" fill="#62f362" rx="2" ry="2"/>
<text x="642.6" y="158.0">java/..</text>
</g>
<g>
<title>java/lang/StringLatin1.newString (228 samples, 4.53%)</title><rect x="639.6" y="131.0" width="53.5" height="15" fill="#66f766" rx="2" ry="2"/>
<text x="642.6" y="142.0">java/..</text>
</g>
<g>
<title>java.lang.String (107 samples, 2.13%)</title><rect x="639.6" y="115.0" width="25.1" height="15" fill="#65d3d3" rx="2" ry="2"/>
<text x="642.6" y="126.0">j..</text>
</g>
<g>
<title>java/util/Arrays.copyOfRange (121 samples, 2.40%)</title><rect x="664.7" y="115.0" width="28.4" height="15" fill="#6dfe6d" rx="2" ry="2"/>
<text x="667.7" y="126.0">ja..</text>
</g>
<g>
<title>byte[] (121 samples, 2.40%)</title><rect x="664.7" y="99.0" width="28.4" height="15" fill="#6ad8d8" rx="2" ry="2"/>
<text x="667.7" y="110.0">by..</text>
</g>
<g>
<title>one/nio/http/HttpSession.parseRequest (956 samples, 19.00%)</title><rect x="693.1" y="195.0" width="224.2" height="15" fill="#56e756" rx="2" ry="2"/>
<text x="696.1" y="206.0">one/nio/http/HttpSession.parse..</text>
</g>
<g>
<title>one.nio.http.Request (169 samples, 3.36%)</title><rect x="693.1" y="179.0" width="39.6" height="15" fill="#59c7c7" rx="2" ry="2"/>
<text x="696.1" y="190.0">one..</text>
</g>
<g>
<title>one/nio/http/Request.&lt;init&gt; (317 samples, 6.30%)</title><rect x="732.7" y="179.0" width="74.4" height="15" fill="#5aeb5a" rx="2" ry="2"/>
<text x="735.7" y="190.0">one/nio/..</text>
</g>
<g>
<title>java.lang.String[] (317 samples, 6.30%)</title><rect x="732.7" y="163.0" width="74.4" height="15" fill="#5fcdcd" rx="2" ry="2"/>
<text x="735.7" y="174.0">java.lan..</text>
</g>
<g>
<title>one/nio/util/Utf8.read (470 samples, 9.34%)</title><rect x="807.1" y="179.0" width="110.2" height="15" fill="#61f261" rx="2" ry="2"/>
<text x="810.1" y="190.0">one/nio/util/..</text>
</g>
<g>
<title>one/nio/util/Utf8.read (470 samples, 9.34%)</title><rect x="807.1" y="163.0" width="110.2" height="15" fill="#69fa69" rx="2" ry="2"/>
<text x="810.1" y="174.0">one/nio/util/..</text>
</g>
<g>
<title>char[] (255 samples, 5.07%)</title><rect x="807.1" y="147.0" width="59.8" height="15" fill="#5ccaca" rx="2" ry="2"/>
<text x="810.1" y="158.0">char[]</text>
</g>
<g>
<title>java.lang.String (93 samples, 1.85%)</title><rect x="866.9" y="147.0" width="21.8" height="15" fill="#69d7d7" rx="2" ry="2"/>
<text x="869.9" y="158.0">j..</text>
</g>
<g>
<title>java/lang/String.&lt;init&gt; (122 samples, 2.42%)</title><rect x="888.7" y="147.0" width="28.6" height="15" fill="#58e958" rx="2" ry="2"/>
<text x="891.7" y="158.0">ja..</text>
</g>
<g>
<title>java/lang/String.&lt;init&gt; (122 samples, 2.42%)</title><rect x="888.7" y="131.0" width="28.6" height="15" fill="#5ced5c" rx="2" ry="2"/>
<text x="891.7" y="142.0">ja..</text>
</g>
<g>
<title>java/lang/StringUTF16.compress (122 samples, 2.42%)</title><rect x="888.7" y="115.0" width="28.6" height="15" fill="#60f160" rx="2" ry="2"/>
<text x="891.7" y="126.0">ja..</text>
</g>
<g>
<title>byte[] (122 samples, 2.42%)</title><rect x="888.7" y="99.0" width="28.6" height="15" fill="#5ecccc" rx="2" ry="2"/>
<text x="891.7" y="110.0">by..</text>
</g>
<g>
<title>one/nio/http/HttpSession.startParsingRequestBody (116 samples, 2.31%)</title><rect x="917.3" y="195.0" width="27.2" height="15" fill="#58e958" rx="2" ry="2"/>
<text x="920.3" y="206.0">o..</text>
</g>
<g>
<title>byte[] (116 samples, 2.31%)</title><rect x="917.3" y="179.0" width="27.2" height="15" fill="#55c3c3" rx="2" ry="2"/>
<text x="920.3" y="190.0">b..</text>
</g>
<g>
<title>one/nio/http/Request.getHeader (161 samples, 3.20%)</title><rect x="944.5" y="195.0" width="37.7" height="15" fill="#54e554" rx="2" ry="2"/>
<text x="947.5" y="206.0">one..</text>
</g>
<g>
<title>java/lang/String.substring (161 samples, 3.20%)</title><rect x="944.5" y="179.0" width="37.7" height="15" fill="#61f261" rx="2" ry="2"/>
<text x="947.5" y="190.0">jav..</text>
</g>
<g>
<title>java/lang/StringLatin1.newString (161 samples, 3.20%)</title><rect x="944.5" y="163.0" width="37.7" height="15" fill="#68f968" rx="2" ry="2"/>
<text x="947.5" y="174.0">jav..</text>
</g>
<g>
<title>java.lang.String (82 samples, 1.63%)</title><rect x="944.5" y="147.0" width="19.2" height="15" fill="#50bebe" rx="2" ry="2"/>
<text x="947.5" y="158.0"></text>
</g>
<g>
<title>java/util/Arrays.copyOfRange (79 samples, 1.57%)</title><rect x="963.7" y="147.0" width="18.5" height="15" fill="#60f160" rx="2" ry="2"/>
<text x="966.7" y="158.0"></text>
</g>
<g>
<title>byte[] (79 samples, 1.57%)</title><rect x="963.7" y="131.0" width="18.5" height="15" fill="#5ecccc" rx="2" ry="2"/>
<text x="966.7" y="142.0"></text>
</g>
<g>
<title>one/nio/util/Utf8.read (882 samples, 17.53%)</title><rect x="982.2" y="195.0" width="206.9" height="15" fill="#6cfd6c" rx="2" ry="2"/>
<text x="985.2" y="206.0">one/nio/util/Utf8.read</text>
</g>
<g>
<title>one/nio/util/Utf8.read (882 samples, 17.53%)</title><rect x="982.2" y="179.0" width="206.9" height="15" fill="#66f766" rx="2" ry="2"/>
<text x="985.2" y="190.0">one/nio/util/Utf8.read</text>
</g>
<g>
<title>char[] (456 samples, 9.06%)</title><rect x="982.2" y="163.0" width="107.0" height="15" fill="#60cece" rx="2" ry="2"/>
<text x="985.2" y="174.0">char[]</text>
</g>
<g>
<title>java.lang.String (145 samples, 2.88%)</title><rect x="1089.2" y="163.0" width="34.0" height="15" fill="#6ad8d8" rx="2" ry="2"/>
<text x="1092.2" y="174.0">ja..</text>
</g>
<g>
<title>java/lang/String.&lt;init&gt; (281 samples, 5.58%)</title><rect x="1123.2" y="163.0" width="65.9" height="15" fill="#62f362" rx="2" ry="2"/>
<text x="1126.2" y="174.0">java/la..</text>
</g>
<g>
<title>java/lang/String.&lt;init&gt; (281 samples, 5.58%)</title><rect x="1123.2" y="147.0" width="65.9" height="15" fill="#69fa69" rx="2" ry="2"/>
<text x="1126.2" y="158.0">java/la..</text>
</g>
<g>
<title>java/lang/StringUTF16.compress (281 samples, 5.58%)</title><rect x="1123.2" y="131.0" width="65.9" height="15" fill="#54e554" rx="2" ry="2"/>
<text x="1126.2" y="142.0">java/la..</text>
</g>
<g>
<title>byte[] (281 samples, 5.58%)</title><rect x="1123.2" y="115.0" width="65.9" height="15" fill="#56c4c4" rx="2" ry="2"/>
<text x="1126.2" y="126.0">byte[]</text>
</g>
<g>
<title>one/nio/net/Session.read (4 samples, 0.08%)</title><rect x="1189.1" y="211.0" width="0.9" height="15" fill="#65f665" rx="2" ry="2"/>
<text x="1192.1" y="222.0"></text>
</g>
<g>
<title>one/nio/net/JavaSocket.read (4 samples, 0.08%)</title><rect x="1189.1" y="195.0" width="0.9" height="15" fill="#53e453" rx="2" ry="2"/>
<text x="1192.1" y="206.0"></text>
</g>
<g>
<title>java/nio/ByteBuffer.wrap (4 samples, 0.08%)</title><rect x="1189.1" y="179.0" width="0.9" height="15" fill="#52e352" rx="2" ry="2"/>
<text x="1192.1" y="190.0"></text>
</g>
<g>
<title>java.nio.HeapByteBuffer (4 samples, 0.08%)</title><rect x="1189.1" y="163.0" width="0.9" height="15" fill="#58c6c6" rx="2" ry="2"/>
<text x="1192.1" y="174.0"></text>
</g>
</g>
</svg>
