<?xml version="1.0" standalone="no"?>
<!DOCTYPE svg PUBLIC "-//W3C//DTD SVG 1.1//EN" "http://www.w3.org/Graphics/SVG/1.1/DTD/svg11.dtd">
<svg version="1.1" width="1200" height="294" onload="init(evt)" viewBox="0 0 1200 294" xmlns="http://www.w3.org/2000/svg" xmlns:xlink="http://www.w3.org/1999/xlink">
<style type="text/css">
	text { font-family:Verdana; font-size:12px; fill:rgb(0,0,0); }
	#search { opacity:0.1; cursor:pointer; }
	#search:hover, #search.show { opacity:1; }
	#subtitle { text-anchor:middle; font-color:rgb(160,160,160); }
	#title { text-anchor:middle; font-size:17px}
	#unzoom { cursor:pointer; }
	#frames > *:hover { stroke:black; stroke-width:0.5; cursor:pointer; }
	.hide { display:none; }
	.parent { opacity:0.5; }
</style>
<script type="text/ecmascript">
<![CDATA[
	"use strict";
	var details, searchbtn, unzoombtn, matchedtxt, svg, searching;
	function init(evt) {
		details = document.getElementById("details").firstChild;
		searchbtn = document.getElementById("search");
		unzoombtn = document.getElementById("unzoom");
		matchedtxt = document.getElementById("matched");
		svg = document.getElementsByTagName("svg")[0];
		searching = 0;
	}

	window.addEventListener("click", function(e) {
		var target = find_group(e.target);
		if (target) {
			if (target.nodeName == "a") {
				if (e.ctrlKey === false) return;
				e.preventDefault();
			}
			if (target.classList.contains("parent")) unzoom();
			zoom(target);
		}
		else if (e.target.id == "unzoom") unzoom();
		else if (e.target.id == "search") search_prompt();
	}, false)

	// mouse-over for info
	// show
	window.addEventListener("mouseover", function(e) {
		var target = find_group(e.target);
		if (target) details.nodeValue = "Function: " + g_to_text(target);
	}, false)

	// clear
	window.addEventListener("mouseout", function(e) {
		var target = find_group(e.target);
		if (target) details.nodeValue = ' ';
	}, false)

	// ctrl-F for search
	window.addEventListener("keydown",function (e) {
		if (e.keyCode === 114 || (e.ctrlKey && e.keyCode === 70)) {
			e.preventDefault();
			search_prompt();
		}
	}, false)

	// functions
	function find_child(node, selector) {
		var children = node.querySelectorAll(selector);
		if (children.length) return children[0];
		return;
	}
	function find_group(node) {
		var parent = node.parentElement;
		if (!parent) return;
		if (parent.id == "frames") return node;
		return find_group(parent);
	}
	function orig_save(e, attr, val) {
		if (e.attributes["_orig_" + attr] != undefined) return;
		if (e.attributes[attr] == undefined) return;
		if (val == undefined) val = e.attributes[attr].value;
		e.setAttribute("_orig_" + attr, val);
	}
	function orig_load(e, attr) {
		if (e.attributes["_orig_"+attr] == undefined) return;
		e.attributes[attr].value = e.attributes["_orig_" + attr].value;
		e.removeAttribute("_orig_"+attr);
	}
	function g_to_text(e) {
		var text = find_child(e, "title").firstChild.nodeValue;
		return (text)
	}
	function g_to_func(e) {
		var func = g_to_text(e);
		// if there's any manipulation we want to do to the function
		// name before it's searched, do it here before returning.
		return (func);
	}
	function update_text(e) {
		var r = find_child(e, "rect");
		var t = find_child(e, "text");
		var w = parseFloat(r.attributes.width.value) -3;
		var txt = find_child(e, "title").textContent.replace(/\([^(]*\)$/,"");
		t.attributes.x.value = parseFloat(r.attributes.x.value) + 3;

		// Smaller than this size won't fit anything
		if (w < 2 * 12 * 0.59) {
			t.textContent = "";
			return;
		}

		t.textContent = txt;
		// Fit in full text width
		if (/^ *$/.test(txt) || t.getSubStringLength(0, txt.length) < w)
			return;

		for (var x = txt.length - 2; x > 0; x--) {
			if (t.getSubStringLength(0, x + 2) <= w) {
				t.textContent = txt.substring(0, x) + "..";
				return;
			}
		}
		t.textContent = "";
	}

	// zoom
	function zoom_reset(e) {
		if (e.attributes != undefined) {
			orig_load(e, "x");
			orig_load(e, "width");
		}
		if (e.childNodes == undefined) return;
		for (var i = 0, c = e.childNodes; i < c.length; i++) {
			zoom_reset(c[i]);
		}
	}
	function zoom_child(e, x, ratio) {
		if (e.attributes != undefined) {
			if (e.attributes.x != undefined) {
				orig_save(e, "x");
				e.attributes.x.value = (parseFloat(e.attributes.x.value) - x - 10) * ratio + 10;
				if (e.tagName == "text")
					e.attributes.x.value = find_child(e.parentNode, "rect[x]").attributes.x.value + 3;
			}
			if (e.attributes.width != undefined) {
				orig_save(e, "width");
				e.attributes.width.value = parseFloat(e.attributes.width.value) * ratio;
			}
		}

		if (e.childNodes == undefined) return;
		for (var i = 0, c = e.childNodes; i < c.length; i++) {
			zoom_child(c[i], x - 10, ratio);
		}
	}
	function zoom_parent(e) {
		if (e.attributes) {
			if (e.attributes.x != undefined) {
				orig_save(e, "x");
				e.attributes.x.value = 10;
			}
			if (e.attributes.width != undefined) {
				orig_save(e, "width");
				e.attributes.width.value = parseInt(svg.width.baseVal.value) - (10 * 2);
			}
		}
		if (e.childNodes == undefined) return;
		for (var i = 0, c = e.childNodes; i < c.length; i++) {
			zoom_parent(c[i]);
		}
	}
	function zoom(node) {
		var attr = find_child(node, "rect").attributes;
		var width = parseFloat(attr.width.value);
		var xmin = parseFloat(attr.x.value);
		var xmax = parseFloat(xmin + width);
		var ymin = parseFloat(attr.y.value);
		var ratio = (svg.width.baseVal.value - 2 * 10) / width;

		// XXX: Workaround for JavaScript float issues (fix me)
		var fudge = 0.0001;

		unzoombtn.classList.remove("hide");

		var el = document.getElementById("frames").children;
		for (var i = 0; i < el.length; i++) {
			var e = el[i];
			var a = find_child(e, "rect").attributes;
			var ex = parseFloat(a.x.value);
			var ew = parseFloat(a.width.value);
			var upstack;
			// Is it an ancestor
			if (0 == 0) {
				upstack = parseFloat(a.y.value) > ymin;
			} else {
				upstack = parseFloat(a.y.value) < ymin;
			}
			if (upstack) {
				// Direct ancestor
				if (ex <= xmin && (ex+ew+fudge) >= xmax) {
					e.classList.add("parent");
					zoom_parent(e);
					update_text(e);
				}
				// not in current path
				else
					e.classList.add("hide");
			}
			// Children maybe
			else {
				// no common path
				if (ex < xmin || ex + fudge >= xmax) {
					e.classList.add("hide");
				}
				else {
					zoom_child(e, xmin, ratio);
					update_text(e);
				}
			}
		}
	}
	function unzoom() {
		unzoombtn.classList.add("hide");
		var el = document.getElementById("frames").children;
		for(var i = 0; i < el.length; i++) {
			el[i].classList.remove("parent");
			el[i].classList.remove("hide");
			zoom_reset(el[i]);
			update_text(el[i]);
		}
	}

	// search
	function reset_search() {
		var el = document.querySelectorAll("#frames rect");
		for (var i = 0; i < el.length; i++) {
			orig_load(el[i], "fill")
		}
	}
	function search_prompt() {
		if (!searching) {
			var term = prompt("Enter a search term (regexp " +
			    "allowed, eg: ^ext4_)", "");
			if (term != null) {
				search(term)
			}
		} else {
			reset_search();
			searching = 0;
			searchbtn.classList.remove("show");
			searchbtn.firstChild.nodeValue = "Search"
			matchedtxt.classList.add("hide");
			matchedtxt.firstChild.nodeValue = ""
		}
	}
	function search(term) {
		var re = new RegExp(term);
		var el = document.getElementById("frames").children;
		var matches = new Object();
		var maxwidth = 0;
		for (var i = 0; i < el.length; i++) {
			var e = el[i];
			var func = g_to_func(e);
			var rect = find_child(e, "rect");
			if (func == null || rect == null)
				continue;

			// Save max width. Only works as we have a root frame
			var w = parseFloat(rect.attributes.width.value);
			if (w > maxwidth)
				maxwidth = w;

			if (func.match(re)) {
				// highlight
				var x = parseFloat(rect.attributes.x.value);
				orig_save(rect, "fill");
				rect.attributes.fill.value = "rgb(230,0,230)";

				// remember matches
				if (matches[x] == undefined) {
					matches[x] = w;
				} else {
					if (w > matches[x]) {
						// overwrite with parent
						matches[x] = w;
					}
				}
				searching = 1;
			}
		}
		if (!searching)
			return;

		searchbtn.classList.add("show");
		searchbtn.firstChild.nodeValue = "Reset Search";

		// calculate percent matched, excluding vertical overlap
		var count = 0;
		var lastx = -1;
		var lastw = 0;
		var keys = Array();
		for (k in matches) {
			if (matches.hasOwnProperty(k))
				keys.push(k);
		}
		// sort the matched frames by their x location
		// ascending, then width descending
		keys.sort(function(a, b){
			return a - b;
		});
		// Step through frames saving only the biggest bottom-up frames
		// thanks to the sort order. This relies on the tree property
		// where children are always smaller than their parents.
		var fudge = 0.0001;	// JavaScript floating point
		for (var k in keys) {
			var x = parseFloat(keys[k]);
			var w = matches[keys[k]];
			if (x >= lastx + lastw - fudge) {
				count += w;
				lastx = x;
				lastw = w;
			}
		}
		// display matched percent
		matchedtxt.classList.remove("hide");
		var pct = 100 * count / maxwidth;
		if (pct != 100) pct = pct.toFixed(1)
		matchedtxt.firstChild.nodeValue = "Matched: " + pct + "%";
	}
]]>
</script>
<rect x="0" y="0" width="100%" height="100%" fill="rgb(240,240,220)"/>
<text id="title" x="600" y="24">Flame Graph</text>
<text id="details" x="10" y="277"> </text>
<text id="unzoom" x="10" y="24" class="hide">Reset Zoom</text>
<text id="search" x="1090" y="24">Search</text>
<text id="matched" x="1090" y="277"> </text>
<g id="frames">
<g>
<title>all (2,236 samples, 100.00%)</title><rect x="10.0" y="243.0" width="1180.0" height="15" fill="#ed6b6b" rx="2" ry="2"/>
<text x="13.0" y="254.0">all</text>
</g>
<g>
<title>one/nio/server/SelectorThread.run (2,236 samples, 100.00%)</title><rect x="10.0" y="227.0" width="1180.0" height="15" fill="#59ea59" rx="2" ry="2"/>
<text x="13.0" y="238.0">one/nio/server/SelectorThread.run</text>
</g>
<g>
<title>one/nio/net/NativeSelector.select (59 samples, 2.64%)</title><rect x="10.0" y="211.0" width="31.1" height="15" fill="#5dee5d" rx="2" ry="2"/>
<text x="13.0" y="222.0">on..</text>
</g>
<g>
<title>one.nio.net.NativeSelector$2 (59 samples, 2.64%)</title><rect x="10.0" y="195.0" width="31.1" height="15" fill="#62d0d0" rx="2" ry="2"/>
<text x="13.0" y="206.0">on..</text>
</g>
<g>
<title>one/nio/net/Session.process (2,177 samples, 97.36%)</title><rect x="41.1" y="211.0" width="1148.9" height="15" fill="#69fa69" rx="2" ry="2"/>
<text x="44.1" y="222.0">one/nio/net/Session.process</text>
</g>
<g>
<title>one/nio/http/HttpSession.processRead (2,177 samples, 97.36%)</title><rect x="41.1" y="195.0" width="1148.9" height="15" fill="#53e453" rx="2" ry="2"/>
<text x="44.1" y="206.0">one/nio/http/HttpSession.processRead</text>
</g>
<g>
<title>one/nio/http/HttpSession.processHttpBuffer (2,177 samples, 97.36%)</title><rect x="41.1" y="179.0" width="1148.9" height="15" fill="#6cfd6c" rx="2" ry="2"/>
<text x="44.1" y="190.0">one/nio/http/HttpSession.processHttpBuffer</text>
</g>
<g>
<title>one/nio/http/HttpSession.handleParsedRequest (1,282 samples, 57.33%)</title><rect x="41.1" y="163.0" width="676.6" height="15" fill="#52e352" rx="2" ry="2"/>
<text x="44.1" y="174.0">one/nio/http/HttpSession.handleParsedRequest</text>
</g>
<g>
<title>one/nio/http/HttpServer.handleRequest (1,282 samples, 57.33%)</title><rect x="41.1" y="147.0" width="676.6" height="15" fill="#52e352" rx="2" ry="2"/>
<text x="44.1" y="158.0">one/nio/http/HttpServer.handleRequest</text>
</g>
<g>
<title>RequestHandler0_get.handleRequest (1,216 samples, 54.38%)</title><rect x="41.1" y="131.0" width="641.8" height="15" fill="#6cfd6c" rx="2" ry="2"/>
<text x="44.1" y="142.0">RequestHandler0_get.handleRequest</text>
</g>
<g>
<title>one/nio/http/HttpSession.sendResponse (400 samples, 17.89%)</title><rect x="41.1" y="115.0" width="211.1" height="15" fill="#53e453" rx="2" ry="2"/>
<text x="44.1" y="126.0">one/nio/http/HttpSession.sen..</text>
</g>
<g>
<title>one/nio/http/HttpSession.writeResponse (400 samples, 17.89%)</title><rect x="41.1" y="99.0" width="211.1" height="15" fill="#5ced5c" rx="2" ry="2"/>
<text x="44.1" y="110.0">one/nio/http/HttpSession.wri..</text>
</g>
<g>
<title>one/nio/http/Response.toBytes (360 samples, 16.10%)</title><rect x="41.1" y="83.0" width="190.0" height="15" fill="#63f463" rx="2" ry="2"/>
<text x="44.1" y="94.0">one/nio/http/Response.toB..</text>
</g>
<g>
<title>one/nio/util/ByteArrayBuilder.&lt;init&gt; (360 samples, 16.10%)</title><rect x="41.1" y="67.0" width="190.0" height="15" fill="#5ced5c" rx="2" ry="2"/>
<text x="44.1" y="78.0">one/nio/util/ByteArrayBui..</text>
</g>
<g>
<title>byte[] (349 samples, 15.61%)</title><rect x="41.1" y="51.0" width="184.2" height="15" fill="#60cece" rx="2" ry="2"/>
<text x="44.1" y="62.0">byte[]</text>
</g>
<g>
<title>byte[] (11 samples, 0.49%)</title><rect x="225.3" y="51.0" width="5.8" height="15" fill="#f99500" rx="2" ry="2"/>
<text x="228.3" y="62.0"></text>
</g>
<g>
<title>one/nio/net/Session.write (40 samples, 1.79%)</title><rect x="231.1" y="83.0" width="21.1" height="15" fill="#54e554" rx="2" ry="2"/>
<text x="234.1" y="94.0">o..</text>
</g>
<g>
<title>one.nio.net.Session$ArrayQueueItem (40 samples, 1.79%)</title><rect x="231.1" y="67.0" width="21.1" height="15" fill="#54c2c2" rx="2" ry="2"/>
<text x="234.1" y="78.0">o..</text>
</g>
<g>
<title>one/nio/http/Request.getParameter (313 samples, 14.00%)</title><rect x="252.2" y="115.0" width="165.2" height="15" fill="#62f362" rx="2" ry="2"/>
<text x="255.2" y="126.0">one/nio/http/Request...</text>
</g>
<g>
<title>java/lang/String.substring (313 samples, 14.00%)</title><rect x="252.2" y="99.0" width="165.2" height="15" fill="#64f564" rx="2" ry="2"/>
<text x="255.2" y="110.0">java/lang/String.subs..</text>
</g>
<g>
<title>java/lang/StringLatin1.newString (313 samples, 14.00%)</title><rect x="252.2" y="83.0" width="165.2" height="15" fill="#6bfc6b" rx="2" ry="2"/>
<text x="255.2" y="94.0">java/lang/StringLatin..</text>
</g>
<g>
<title>java.lang.String (4 samples, 0.18%)</title><rect x="252.2" y="67.0" width="2.1" height="15" fill="#64d2d2" rx="2" ry="2"/>
<text x="255.2" y="78.0"></text>
</g>
<g>
<title>java.lang.String (10 samples, 0.45%)</title><rect x="254.3" y="67.0" width="5.3" height="15" fill="#e48000" rx="2" ry="2"/>
<text x="257.3" y="78.0"></text>
</g>
<g>
<title>java/util/Arrays.copyOfRange (299 samples, 13.37%)</title><rect x="259.6" y="67.0" width="157.8" height="15" fill="#5ced5c" rx="2" ry="2"/>
<text x="262.6" y="78.0">java/util/Arrays.cop..</text>
</g>
<g>
<title>byte[] (299 samples, 13.37%)</title><rect x="259.6" y="51.0" width="157.8" height="15" fill="#66d4d4" rx="2" ry="2"/>
<text x="262.6" y="62.0">byte[]</text>
</g>
<g>
<title>ru/mail/polis/service/kovalkov/ServiceImpl.get (503 samples, 22.50%)</title><rect x="417.4" y="115.0" width="265.5" height="15" fill="#6bfc6b" rx="2" ry="2"/>
<text x="420.4" y="126.0">ru/mail/polis/service/kovalkov/Serv..</text>
</g>
<g>
<title>java/lang/String.getBytes (36 samples, 1.61%)</title><rect x="417.4" y="99.0" width="19.0" height="15" fill="#59ea59" rx="2" ry="2"/>
<text x="420.4" y="110.0"></text>
</g>
<g>
<title>java/lang/StringCoding.encode (36 samples, 1.61%)</title><rect x="417.4" y="83.0" width="19.0" height="15" fill="#5ced5c" rx="2" ry="2"/>
<text x="420.4" y="94.0"></text>
</g>
<g>
<title>java/lang/StringCoding.encodeUTF8 (36 samples, 1.61%)</title><rect x="417.4" y="67.0" width="19.0" height="15" fill="#6afb6a" rx="2" ry="2"/>
<text x="420.4" y="78.0"></text>
</g>
<g>
<title>java/util/Arrays.copyOf (36 samples, 1.61%)</title><rect x="417.4" y="51.0" width="19.0" height="15" fill="#54e554" rx="2" ry="2"/>
<text x="420.4" y="62.0"></text>
</g>
<g>
<title>byte[] (35 samples, 1.57%)</title><rect x="417.4" y="35.0" width="18.5" height="15" fill="#5bc9c9" rx="2" ry="2"/>
<text x="420.4" y="46.0"></text>
</g>
<g>
<title>byte[] (1 samples, 0.04%)</title><rect x="435.9" y="35.0" width="0.5" height="15" fill="#e98500" rx="2" ry="2"/>
<text x="438.9" y="46.0"></text>
</g>
<g>
<title>one/nio/http/Response.ok (404 samples, 18.07%)</title><rect x="436.4" y="99.0" width="213.2" height="15" fill="#5eef5e" rx="2" ry="2"/>
<text x="439.4" y="110.0">one/nio/http/Response.ok</text>
</g>
<g>
<title>one.nio.http.Response (21 samples, 0.94%)</title><rect x="436.4" y="83.0" width="11.1" height="15" fill="#68d6d6" rx="2" ry="2"/>
<text x="439.4" y="94.0"></text>
</g>
<g>
<title>one/nio/http/Response.&lt;init&gt; (383 samples, 17.13%)</title><rect x="447.5" y="83.0" width="202.1" height="15" fill="#6bfc6b" rx="2" ry="2"/>
<text x="450.5" y="94.0">one/nio/http/Response.&lt;init&gt;</text>
</g>
<g>
<title>byte[] (7 samples, 0.31%)</title><rect x="447.5" y="67.0" width="3.7" height="15" fill="#5ac8c8" rx="2" ry="2"/>
<text x="450.5" y="78.0"></text>
</g>
<g>
<title>java.lang.String[] (357 samples, 15.97%)</title><rect x="451.2" y="67.0" width="188.4" height="15" fill="#6cdada" rx="2" ry="2"/>
<text x="454.2" y="78.0">java.lang.String[]</text>
</g>
<g>
<title>java.lang.String[] (1 samples, 0.04%)</title><rect x="639.6" y="67.0" width="0.5" height="15" fill="#fa9600" rx="2" ry="2"/>
<text x="642.6" y="78.0"></text>
</g>
<g>
<title>java.lang.String (18 samples, 0.81%)</title><rect x="640.1" y="67.0" width="9.5" height="15" fill="#5ccaca" rx="2" ry="2"/>
<text x="643.1" y="78.0"></text>
</g>
<g>
<title>ru/mail/polis/dao/kovalkov/DAOImpl.get (45 samples, 2.01%)</title><rect x="649.6" y="99.0" width="23.8" height="15" fill="#51e251" rx="2" ry="2"/>
<text x="652.6" y="110.0">r..</text>
</g>
<g>
<title>org/rocksdb/RocksDB.get (41 samples, 1.83%)</title><rect x="649.6" y="83.0" width="21.6" height="15" fill="#67f867" rx="2" ry="2"/>
<text x="652.6" y="94.0">o..</text>
</g>
<g>
<title>org/rocksdb/RocksDB.get (41 samples, 1.83%)</title><rect x="649.6" y="67.0" width="21.6" height="15" fill="#5ff05f" rx="2" ry="2"/>
<text x="652.6" y="78.0">o..</text>
</g>
<g>
<title>byte[] (41 samples, 1.83%)</title><rect x="649.6" y="51.0" width="21.6" height="15" fill="#5dcbcb" rx="2" ry="2"/>
<text x="652.6" y="62.0">b..</text>
</g>
<g>
<title>ru/mail/polis/dao/kovalkov/utils/BufferConverter.convertBytes (4 samples, 0.18%)</title><rect x="671.2" y="83.0" width="2.2" height="15" fill="#5dee5d" rx="2" ry="2"/>
<text x="674.2" y="94.0"></text>
</g>
<g>
<title>ru/mail/polis/dao/kovalkov/utils/BufferConverter.unfoldToBytes (4 samples, 0.18%)</title><rect x="671.2" y="67.0" width="2.2" height="15" fill="#6cfd6c" rx="2" ry="2"/>
<text x="674.2" y="78.0"></text>
</g>
<g>
<title>byte[] (4 samples, 0.18%)</title><rect x="671.2" y="51.0" width="2.2" height="15" fill="#6ddbdb" rx="2" ry="2"/>
<text x="674.2" y="62.0"></text>
</g>
<g>
<title>ru/mail/polis/dao/kovalkov/utils/BufferConverter.unfoldToBytes (18 samples, 0.81%)</title><rect x="673.4" y="99.0" width="9.5" height="15" fill="#57e857" rx="2" ry="2"/>
<text x="676.4" y="110.0"></text>
</g>
<g>
<title>byte[] (18 samples, 0.81%)</title><rect x="673.4" y="83.0" width="9.5" height="15" fill="#52c0c0" rx="2" ry="2"/>
<text x="676.4" y="94.0"></text>
</g>
<g>
<title>one/nio/http/Request.getPath (66 samples, 2.95%)</title><rect x="682.9" y="131.0" width="34.8" height="15" fill="#53e453" rx="2" ry="2"/>
<text x="685.9" y="142.0">on..</text>
</g>
<g>
<title>java/lang/String.substring (66 samples, 2.95%)</title><rect x="682.9" y="115.0" width="34.8" height="15" fill="#6afb6a" rx="2" ry="2"/>
<text x="685.9" y="126.0">ja..</text>
</g>
<g>
<title>java/lang/StringLatin1.newString (66 samples, 2.95%)</title><rect x="682.9" y="99.0" width="34.8" height="15" fill="#67f867" rx="2" ry="2"/>
<text x="685.9" y="110.0">ja..</text>
</g>
<g>
<title>java.lang.String (14 samples, 0.63%)</title><rect x="682.9" y="83.0" width="7.3" height="15" fill="#51bfbf" rx="2" ry="2"/>
<text x="685.9" y="94.0"></text>
</g>
<g>
<title>java.lang.String (1 samples, 0.04%)</title><rect x="690.2" y="83.0" width="0.6" height="15" fill="#f28e00" rx="2" ry="2"/>
<text x="693.2" y="94.0"></text>
</g>
<g>
<title>java/util/Arrays.copyOfRange (51 samples, 2.28%)</title><rect x="690.8" y="83.0" width="26.9" height="15" fill="#6afb6a" rx="2" ry="2"/>
<text x="693.8" y="94.0">j..</text>
</g>
<g>
<title>byte[] (48 samples, 2.15%)</title><rect x="690.8" y="67.0" width="25.3" height="15" fill="#5dcbcb" rx="2" ry="2"/>
<text x="693.8" y="78.0">b..</text>
</g>
<g>
<title>byte[] (3 samples, 0.13%)</title><rect x="716.1" y="67.0" width="1.6" height="15" fill="#eb8700" rx="2" ry="2"/>
<text x="719.1" y="78.0"></text>
</g>
<g>
<title>one/nio/http/HttpSession.parseRequest (483 samples, 21.60%)</title><rect x="717.7" y="163.0" width="254.9" height="15" fill="#68f968" rx="2" ry="2"/>
<text x="720.7" y="174.0">one/nio/http/HttpSession.parseRequ..</text>
</g>
<g>
<title>one.nio.http.Request (41 samples, 1.83%)</title><rect x="717.7" y="147.0" width="21.6" height="15" fill="#67d5d5" rx="2" ry="2"/>
<text x="720.7" y="158.0">o..</text>
</g>
<g>
<title>one/nio/http/Request.&lt;init&gt; (50 samples, 2.24%)</title><rect x="739.3" y="147.0" width="26.4" height="15" fill="#66f766" rx="2" ry="2"/>
<text x="742.3" y="158.0">o..</text>
</g>
<g>
<title>java.lang.String[] (46 samples, 2.06%)</title><rect x="739.3" y="131.0" width="24.3" height="15" fill="#64d2d2" rx="2" ry="2"/>
<text x="742.3" y="142.0">j..</text>
</g>
<g>
<title>java.lang.String[] (4 samples, 0.18%)</title><rect x="763.6" y="131.0" width="2.1" height="15" fill="#fc9800" rx="2" ry="2"/>
<text x="766.6" y="142.0"></text>
</g>
<g>
<title>one/nio/util/Utf8.read (392 samples, 17.53%)</title><rect x="765.7" y="147.0" width="206.9" height="15" fill="#54e554" rx="2" ry="2"/>
<text x="768.7" y="158.0">one/nio/util/Utf8.read</text>
</g>
<g>
<title>one/nio/util/Utf8.read (392 samples, 17.53%)</title><rect x="765.7" y="131.0" width="206.9" height="15" fill="#6dfe6d" rx="2" ry="2"/>
<text x="768.7" y="142.0">one/nio/util/Utf8.read</text>
</g>
<g>
<title>char[] (43 samples, 1.92%)</title><rect x="765.7" y="115.0" width="22.7" height="15" fill="#5ccaca" rx="2" ry="2"/>
<text x="768.7" y="126.0">c..</text>
</g>
<g>
<title>java.lang.String (36 samples, 1.61%)</title><rect x="788.4" y="115.0" width="19.0" height="15" fill="#6ddbdb" rx="2" ry="2"/>
<text x="791.4" y="126.0"></text>
</g>
<g>
<title>java/lang/String.&lt;init&gt; (313 samples, 14.00%)</title><rect x="807.4" y="115.0" width="165.2" height="15" fill="#6afb6a" rx="2" ry="2"/>
<text x="810.4" y="126.0">java/lang/String.&lt;init&gt;</text>
</g>
<g>
<title>java/lang/String.&lt;init&gt; (313 samples, 14.00%)</title><rect x="807.4" y="99.0" width="165.2" height="15" fill="#66f766" rx="2" ry="2"/>
<text x="810.4" y="110.0">java/lang/String.&lt;init&gt;</text>
</g>
<g>
<title>java/lang/StringUTF16.compress (313 samples, 14.00%)</title><rect x="807.4" y="83.0" width="165.2" height="15" fill="#6bfc6b" rx="2" ry="2"/>
<text x="810.4" y="94.0">java/lang/StringUTF16..</text>
</g>
<g>
<title>byte[] (303 samples, 13.55%)</title><rect x="807.4" y="67.0" width="159.9" height="15" fill="#66d4d4" rx="2" ry="2"/>
<text x="810.4" y="78.0">byte[]</text>
</g>
<g>
<title>byte[] (10 samples, 0.45%)</title><rect x="967.3" y="67.0" width="5.3" height="15" fill="#e68200" rx="2" ry="2"/>
<text x="970.3" y="78.0"></text>
</g>
<g>
<title>one/nio/util/Utf8.read (412 samples, 18.43%)</title><rect x="972.6" y="163.0" width="217.4" height="15" fill="#6cfd6c" rx="2" ry="2"/>
<text x="975.6" y="174.0">one/nio/util/Utf8.read</text>
</g>
<g>
<title>one/nio/util/Utf8.read (412 samples, 18.43%)</title><rect x="972.6" y="147.0" width="217.4" height="15" fill="#60f160" rx="2" ry="2"/>
<text x="975.6" y="158.0">one/nio/util/Utf8.read</text>
</g>
<g>
<title>char[] (341 samples, 15.25%)</title><rect x="972.6" y="131.0" width="179.9" height="15" fill="#64d2d2" rx="2" ry="2"/>
<text x="975.6" y="142.0">char[]</text>
</g>
<g>
<title>java.lang.String (45 samples, 2.01%)</title><rect x="1152.5" y="131.0" width="23.8" height="15" fill="#5ccaca" rx="2" ry="2"/>
<text x="1155.5" y="142.0">j..</text>
</g>
<g>
<title>java.lang.String (1 samples, 0.04%)</title><rect x="1176.3" y="131.0" width="0.5" height="15" fill="#fe9a00" rx="2" ry="2"/>
<text x="1179.3" y="142.0"></text>
</g>
<g>
<title>java/lang/String.&lt;init&gt; (25 samples, 1.12%)</title><rect x="1176.8" y="131.0" width="13.2" height="15" fill="#62f362" rx="2" ry="2"/>
<text x="1179.8" y="142.0"></text>
</g>
<g>
<title>java/lang/String.&lt;init&gt; (25 samples, 1.12%)</title><rect x="1176.8" y="115.0" width="13.2" height="15" fill="#5ced5c" rx="2" ry="2"/>
<text x="1179.8" y="126.0"></text>
</g>
<g>
<title>java/lang/StringUTF16.compress (25 samples, 1.12%)</title><rect x="1176.8" y="99.0" width="13.2" height="15" fill="#57e857" rx="2" ry="2"/>
<text x="1179.8" y="110.0"></text>
</g>
<g>
<title>byte[] (24 samples, 1.07%)</title><rect x="1176.8" y="83.0" width="12.7" height="15" fill="#65d3d3" rx="2" ry="2"/>
<text x="1179.8" y="94.0"></text>
</g>
<g>
<title>byte[] (1 samples, 0.04%)</title><rect x="1189.5" y="83.0" width="0.5" height="15" fill="#f18d00" rx="2" ry="2"/>
<text x="1192.5" y="94.0"></text>
</g>
</g>
</svg>
