<?xml version="1.0" standalone="no"?>
<!DOCTYPE svg PUBLIC "-//W3C//DTD SVG 1.1//EN" "http://www.w3.org/Graphics/SVG/1.1/DTD/svg11.dtd">
<svg version="1.1" width="1200" height="294" onload="init(evt)" viewBox="0 0 1200 294" xmlns="http://www.w3.org/2000/svg" xmlns:xlink="http://www.w3.org/1999/xlink">
<style type="text/css">
	text { font-family:Verdana; font-size:12px; fill:rgb(0,0,0); }
	#search { opacity:0.1; cursor:pointer; }
	#search:hover, #search.show { opacity:1; }
	#subtitle { text-anchor:middle; font-color:rgb(160,160,160); }
	#title { text-anchor:middle; font-size:17px}
	#unzoom { cursor:pointer; }
	#frames > *:hover { stroke:black; stroke-width:0.5; cursor:pointer; }
	.hide { display:none; }
	.parent { opacity:0.5; }
</style>
<script type="text/ecmascript">
<![CDATA[
	"use strict";
	var details, searchbtn, unzoombtn, matchedtxt, svg, searching;
	function init(evt) {
		details = document.getElementById("details").firstChild;
		searchbtn = document.getElementById("search");
		unzoombtn = document.getElementById("unzoom");
		matchedtxt = document.getElementById("matched");
		svg = document.getElementsByTagName("svg")[0];
		searching = 0;
	}

	window.addEventListener("click", function(e) {
		var target = find_group(e.target);
		if (target) {
			if (target.nodeName == "a") {
				if (e.ctrlKey === false) return;
				e.preventDefault();
			}
			if (target.classList.contains("parent")) unzoom();
			zoom(target);
		}
		else if (e.target.id == "unzoom") unzoom();
		else if (e.target.id == "search") search_prompt();
	}, false)

	// mouse-over for info
	// show
	window.addEventListener("mouseover", function(e) {
		var target = find_group(e.target);
		if (target) details.nodeValue = "Function: " + g_to_text(target);
	}, false)

	// clear
	window.addEventListener("mouseout", function(e) {
		var target = find_group(e.target);
		if (target) details.nodeValue = ' ';
	}, false)

	// ctrl-F for search
	window.addEventListener("keydown",function (e) {
		if (e.keyCode === 114 || (e.ctrlKey && e.keyCode === 70)) {
			e.preventDefault();
			search_prompt();
		}
	}, false)

	// functions
	function find_child(node, selector) {
		var children = node.querySelectorAll(selector);
		if (children.length) return children[0];
		return;
	}
	function find_group(node) {
		var parent = node.parentElement;
		if (!parent) return;
		if (parent.id == "frames") return node;
		return find_group(parent);
	}
	function orig_save(e, attr, val) {
		if (e.attributes["_orig_" + attr] != undefined) return;
		if (e.attributes[attr] == undefined) return;
		if (val == undefined) val = e.attributes[attr].value;
		e.setAttribute("_orig_" + attr, val);
	}
	function orig_load(e, attr) {
		if (e.attributes["_orig_"+attr] == undefined) return;
		e.attributes[attr].value = e.attributes["_orig_" + attr].value;
		e.removeAttribute("_orig_"+attr);
	}
	function g_to_text(e) {
		var text = find_child(e, "title").firstChild.nodeValue;
		return (text)
	}
	function g_to_func(e) {
		var func = g_to_text(e);
		// if there's any manipulation we want to do to the function
		// name before it's searched, do it here before returning.
		return (func);
	}
	function update_text(e) {
		var r = find_child(e, "rect");
		var t = find_child(e, "text");
		var w = parseFloat(r.attributes.width.value) -3;
		var txt = find_child(e, "title").textContent.replace(/\([^(]*\)$/,"");
		t.attributes.x.value = parseFloat(r.attributes.x.value) + 3;

		// Smaller than this size won't fit anything
		if (w < 2 * 12 * 0.59) {
			t.textContent = "";
			return;
		}

		t.textContent = txt;
		// Fit in full text width
		if (/^ *$/.test(txt) || t.getSubStringLength(0, txt.length) < w)
			return;

		for (var x = txt.length - 2; x > 0; x--) {
			if (t.getSubStringLength(0, x + 2) <= w) {
				t.textContent = txt.substring(0, x) + "..";
				return;
			}
		}
		t.textContent = "";
	}

	// zoom
	function zoom_reset(e) {
		if (e.attributes != undefined) {
			orig_load(e, "x");
			orig_load(e, "width");
		}
		if (e.childNodes == undefined) return;
		for (var i = 0, c = e.childNodes; i < c.length; i++) {
			zoom_reset(c[i]);
		}
	}
	function zoom_child(e, x, ratio) {
		if (e.attributes != undefined) {
			if (e.attributes.x != undefined) {
				orig_save(e, "x");
				e.attributes.x.value = (parseFloat(e.attributes.x.value) - x - 10) * ratio + 10;
				if (e.tagName == "text")
					e.attributes.x.value = find_child(e.parentNode, "rect[x]").attributes.x.value + 3;
			}
			if (e.attributes.width != undefined) {
				orig_save(e, "width");
				e.attributes.width.value = parseFloat(e.attributes.width.value) * ratio;
			}
		}

		if (e.childNodes == undefined) return;
		for (var i = 0, c = e.childNodes; i < c.length; i++) {
			zoom_child(c[i], x - 10, ratio);
		}
	}
	function zoom_parent(e) {
		if (e.attributes) {
			if (e.attributes.x != undefined) {
				orig_save(e, "x");
				e.attributes.x.value = 10;
			}
			if (e.attributes.width != undefined) {
				orig_save(e, "width");
				e.attributes.width.value = parseInt(svg.width.baseVal.value) - (10 * 2);
			}
		}
		if (e.childNodes == undefined) return;
		for (var i = 0, c = e.childNodes; i < c.length; i++) {
			zoom_parent(c[i]);
		}
	}
	function zoom(node) {
		var attr = find_child(node, "rect").attributes;
		var width = parseFloat(attr.width.value);
		var xmin = parseFloat(attr.x.value);
		var xmax = parseFloat(xmin + width);
		var ymin = parseFloat(attr.y.value);
		var ratio = (svg.width.baseVal.value - 2 * 10) / width;

		// XXX: Workaround for JavaScript float issues (fix me)
		var fudge = 0.0001;

		unzoombtn.classList.remove("hide");

		var el = document.getElementById("frames").children;
		for (var i = 0; i < el.length; i++) {
			var e = el[i];
			var a = find_child(e, "rect").attributes;
			var ex = parseFloat(a.x.value);
			var ew = parseFloat(a.width.value);
			var upstack;
			// Is it an ancestor
			if (0 == 0) {
				upstack = parseFloat(a.y.value) > ymin;
			} else {
				upstack = parseFloat(a.y.value) < ymin;
			}
			if (upstack) {
				// Direct ancestor
				if (ex <= xmin && (ex+ew+fudge) >= xmax) {
					e.classList.add("parent");
					zoom_parent(e);
					update_text(e);
				}
				// not in current path
				else
					e.classList.add("hide");
			}
			// Children maybe
			else {
				// no common path
				if (ex < xmin || ex + fudge >= xmax) {
					e.classList.add("hide");
				}
				else {
					zoom_child(e, xmin, ratio);
					update_text(e);
				}
			}
		}
	}
	function unzoom() {
		unzoombtn.classList.add("hide");
		var el = document.getElementById("frames").children;
		for(var i = 0; i < el.length; i++) {
			el[i].classList.remove("parent");
			el[i].classList.remove("hide");
			zoom_reset(el[i]);
			update_text(el[i]);
		}
	}

	// search
	function reset_search() {
		var el = document.querySelectorAll("#frames rect");
		for (var i = 0; i < el.length; i++) {
			orig_load(el[i], "fill")
		}
	}
	function search_prompt() {
		if (!searching) {
			var term = prompt("Enter a search term (regexp " +
			    "allowed, eg: ^ext4_)", "");
			if (term != null) {
				search(term)
			}
		} else {
			reset_search();
			searching = 0;
			searchbtn.classList.remove("show");
			searchbtn.firstChild.nodeValue = "Search"
			matchedtxt.classList.add("hide");
			matchedtxt.firstChild.nodeValue = ""
		}
	}
	function search(term) {
		var re = new RegExp(term);
		var el = document.getElementById("frames").children;
		var matches = new Object();
		var maxwidth = 0;
		for (var i = 0; i < el.length; i++) {
			var e = el[i];
			var func = g_to_func(e);
			var rect = find_child(e, "rect");
			if (func == null || rect == null)
				continue;

			// Save max width. Only works as we have a root frame
			var w = parseFloat(rect.attributes.width.value);
			if (w > maxwidth)
				maxwidth = w;

			if (func.match(re)) {
				// highlight
				var x = parseFloat(rect.attributes.x.value);
				orig_save(rect, "fill");
				rect.attributes.fill.value = "rgb(230,0,230)";

				// remember matches
				if (matches[x] == undefined) {
					matches[x] = w;
				} else {
					if (w > matches[x]) {
						// overwrite with parent
						matches[x] = w;
					}
				}
				searching = 1;
			}
		}
		if (!searching)
			return;

		searchbtn.classList.add("show");
		searchbtn.firstChild.nodeValue = "Reset Search";

		// calculate percent matched, excluding vertical overlap
		var count = 0;
		var lastx = -1;
		var lastw = 0;
		var keys = Array();
		for (k in matches) {
			if (matches.hasOwnProperty(k))
				keys.push(k);
		}
		// sort the matched frames by their x location
		// ascending, then width descending
		keys.sort(function(a, b){
			return a - b;
		});
		// Step through frames saving only the biggest bottom-up frames
		// thanks to the sort order. This relies on the tree property
		// where children are always smaller than their parents.
		var fudge = 0.0001;	// JavaScript floating point
		for (var k in keys) {
			var x = parseFloat(keys[k]);
			var w = matches[keys[k]];
			if (x >= lastx + lastw - fudge) {
				count += w;
				lastx = x;
				lastw = w;
			}
		}
		// display matched percent
		matchedtxt.classList.remove("hide");
		var pct = 100 * count / maxwidth;
		if (pct != 100) pct = pct.toFixed(1)
		matchedtxt.firstChild.nodeValue = "Matched: " + pct + "%";
	}
]]>
</script>
<rect x="0" y="0" width="100%" height="100%" fill="rgb(240,240,220)"/>
<text id="title" x="600" y="24">Flame Graph</text>
<text id="details" x="10" y="277"> </text>
<text id="unzoom" x="10" y="24" class="hide">Reset Zoom</text>
<text id="search" x="1090" y="24">Search</text>
<text id="matched" x="1090" y="277"> </text>
<g id="frames">
<g>
<title>all (724 samples, 100.00%)</title><rect x="10.0" y="243.0" width="1180.0" height="15" fill="#e45e5e" rx="2" ry="2"/>
<text x="13.0" y="254.0">all</text>
</g>
<g>
<title>java/lang/Thread.run (359 samples, 49.59%)</title><rect x="10.0" y="227.0" width="585.1" height="15" fill="#69fa69" rx="2" ry="2"/>
<text x="13.0" y="238.0">java/lang/Thread.run</text>
</g>
<g>
<title>java/util/concurrent/ThreadPoolExecutor$Worker.run (359 samples, 49.59%)</title><rect x="10.0" y="211.0" width="585.1" height="15" fill="#65f665" rx="2" ry="2"/>
<text x="13.0" y="222.0">java/util/concurrent/ThreadPoolExecutor$Worker.run</text>
</g>
<g>
<title>java/util/concurrent/ThreadPoolExecutor.runWorker (359 samples, 49.59%)</title><rect x="10.0" y="195.0" width="585.1" height="15" fill="#51e251" rx="2" ry="2"/>
<text x="13.0" y="206.0">java/util/concurrent/ThreadPoolExecutor.runWorker</text>
</g>
<g>
<title>java/util/concurrent/FutureTask.run (350 samples, 48.34%)</title><rect x="10.0" y="179.0" width="570.4" height="15" fill="#5dee5d" rx="2" ry="2"/>
<text x="13.0" y="190.0">java/util/concurrent/FutureTask.run</text>
</g>
<g>
<title>java/util/concurrent/Executors$RunnableAdapter.call (350 samples, 48.34%)</title><rect x="10.0" y="163.0" width="570.4" height="15" fill="#6dfe6d" rx="2" ry="2"/>
<text x="13.0" y="174.0">java/util/concurrent/Executors$RunnableAdapter.call</text>
</g>
<g>
<title>ru/mail/polis/service/dariagap/AsyncServiceImpl$$Lambda$65/302282871.run (350 samples, 48.34%)</title><rect x="10.0" y="147.0" width="570.4" height="15" fill="#65f665" rx="2" ry="2"/>
<text x="13.0" y="158.0">ru/mail/polis/service/dariagap/AsyncServiceImpl$$Lambda$65/302282871.run</text>
</g>
<g>
<title>ru/mail/polis/service/dariagap/AsyncServiceImpl.lambda$entity$1 (350 samples, 48.34%)</title><rect x="10.0" y="131.0" width="570.4" height="15" fill="#56e756" rx="2" ry="2"/>
<text x="13.0" y="142.0">ru/mail/polis/service/dariagap/AsyncServiceImpl.lambda$entity$1</text>
</g>
<g>
<title>ru/mail/polis/service/dariagap/AsyncServiceImpl.putSync (350 samples, 48.34%)</title><rect x="10.0" y="115.0" width="570.4" height="15" fill="#5eef5e" rx="2" ry="2"/>
<text x="13.0" y="126.0">ru/mail/polis/service/dariagap/AsyncServiceImpl.putSync</text>
</g>
<g>
<title>java/lang/String.getBytes (23 samples, 3.18%)</title><rect x="10.0" y="99.0" width="37.5" height="15" fill="#69fa69" rx="2" ry="2"/>
<text x="13.0" y="110.0">jav..</text>
</g>
<g>
<title>java/lang/StringCoding.encode (23 samples, 3.18%)</title><rect x="10.0" y="83.0" width="37.5" height="15" fill="#52e352" rx="2" ry="2"/>
<text x="13.0" y="94.0">jav..</text>
</g>
<g>
<title>java/lang/StringCoding.encodeUTF8 (23 samples, 3.18%)</title><rect x="10.0" y="67.0" width="37.5" height="15" fill="#52e352" rx="2" ry="2"/>
<text x="13.0" y="78.0">jav..</text>
</g>
<g>
<title>java/util/Arrays.copyOf (23 samples, 3.18%)</title><rect x="10.0" y="51.0" width="37.5" height="15" fill="#5bec5b" rx="2" ry="2"/>
<text x="13.0" y="62.0">jav..</text>
</g>
<g>
<title>byte[] (22 samples, 3.04%)</title><rect x="10.0" y="35.0" width="35.9" height="15" fill="#59c7c7" rx="2" ry="2"/>
<text x="13.0" y="46.0">byt..</text>
</g>
<g>
<title>byte[] (1 samples, 0.14%)</title><rect x="45.9" y="35.0" width="1.6" height="15" fill="#f49000" rx="2" ry="2"/>
<text x="48.9" y="46.0"></text>
</g>
<g>
<title>java/nio/ByteBuffer.wrap (79 samples, 10.91%)</title><rect x="47.5" y="99.0" width="128.7" height="15" fill="#68f968" rx="2" ry="2"/>
<text x="50.5" y="110.0">java/nio/ByteBuf..</text>
</g>
<g>
<title>java/nio/ByteBuffer.wrap (79 samples, 10.91%)</title><rect x="47.5" y="83.0" width="128.7" height="15" fill="#53e453" rx="2" ry="2"/>
<text x="50.5" y="94.0">java/nio/ByteBuf..</text>
</g>
<g>
<title>java.nio.HeapByteBuffer (79 samples, 10.91%)</title><rect x="47.5" y="67.0" width="128.7" height="15" fill="#51bfbf" rx="2" ry="2"/>
<text x="50.5" y="78.0">java.nio.HeapByt..</text>
</g>
<g>
<title>one.nio.http.Response (21 samples, 2.90%)</title><rect x="176.2" y="99.0" width="34.3" height="15" fill="#51bfbf" rx="2" ry="2"/>
<text x="179.2" y="110.0">on..</text>
</g>
<g>
<title>one/nio/http/HttpSession.sendResponse (99 samples, 13.67%)</title><rect x="210.5" y="99.0" width="161.3" height="15" fill="#5dee5d" rx="2" ry="2"/>
<text x="213.5" y="110.0">one/nio/http/HttpSess..</text>
</g>
<g>
<title>one/nio/http/HttpSession.writeResponse (99 samples, 13.67%)</title><rect x="210.5" y="83.0" width="161.3" height="15" fill="#67f867" rx="2" ry="2"/>
<text x="213.5" y="94.0">one/nio/http/HttpSess..</text>
</g>
<g>
<title>one/nio/http/Response.toBytes (69 samples, 9.53%)</title><rect x="210.5" y="67.0" width="112.4" height="15" fill="#64f564" rx="2" ry="2"/>
<text x="213.5" y="78.0">one/nio/http/R..</text>
</g>
<g>
<title>one/nio/util/ByteArrayBuilder.&lt;init&gt; (69 samples, 9.53%)</title><rect x="210.5" y="51.0" width="112.4" height="15" fill="#5dee5d" rx="2" ry="2"/>
<text x="213.5" y="62.0">one/nio/util/B..</text>
</g>
<g>
<title>byte[] (69 samples, 9.53%)</title><rect x="210.5" y="35.0" width="112.4" height="15" fill="#53c1c1" rx="2" ry="2"/>
<text x="213.5" y="46.0">byte[]</text>
</g>
<g>
<title>one/nio/net/Session.write (30 samples, 4.14%)</title><rect x="322.9" y="67.0" width="48.9" height="15" fill="#61f261" rx="2" ry="2"/>
<text x="325.9" y="78.0">one/..</text>
</g>
<g>
<title>one.nio.net.Session$ArrayQueueItem (30 samples, 4.14%)</title><rect x="322.9" y="51.0" width="48.9" height="15" fill="#61cfcf" rx="2" ry="2"/>
<text x="325.9" y="62.0">one...</text>
</g>
<g>
<title>one/nio/http/Response.&lt;init&gt; (80 samples, 11.05%)</title><rect x="371.8" y="99.0" width="130.4" height="15" fill="#5ff05f" rx="2" ry="2"/>
<text x="374.8" y="110.0">one/nio/http/Res..</text>
</g>
<g>
<title>byte[] (25 samples, 3.45%)</title><rect x="371.8" y="83.0" width="40.8" height="15" fill="#61cfcf" rx="2" ry="2"/>
<text x="374.8" y="94.0">byt..</text>
</g>
<g>
<title>byte[] (1 samples, 0.14%)</title><rect x="412.6" y="83.0" width="1.6" height="15" fill="#eb8700" rx="2" ry="2"/>
<text x="415.6" y="94.0"></text>
</g>
<g>
<title>java.lang.String[] (30 samples, 4.14%)</title><rect x="414.2" y="83.0" width="48.9" height="15" fill="#59c7c7" rx="2" ry="2"/>
<text x="417.2" y="94.0">java..</text>
</g>
<g>
<title>java.lang.String (24 samples, 3.31%)</title><rect x="463.1" y="83.0" width="39.1" height="15" fill="#6ad8d8" rx="2" ry="2"/>
<text x="466.1" y="94.0">jav..</text>
</g>
<g>
<title>ru/mail/polis/dao/dariagap/RocksDBStorage.upsert (48 samples, 6.63%)</title><rect x="502.2" y="99.0" width="78.2" height="15" fill="#5eef5e" rx="2" ry="2"/>
<text x="505.2" y="110.0">ru/mail/p..</text>
</g>
<g>
<title>ru/mail/polis/util/Util.byteBufferToBytes (26 samples, 3.59%)</title><rect x="502.2" y="83.0" width="42.4" height="15" fill="#55e655" rx="2" ry="2"/>
<text x="505.2" y="94.0">ru/m..</text>
</g>
<g>
<title>byte[] (26 samples, 3.59%)</title><rect x="502.2" y="67.0" width="42.4" height="15" fill="#62d0d0" rx="2" ry="2"/>
<text x="505.2" y="78.0">byte[]</text>
</g>
<g>
<title>ru/mail/polis/util/Util.pack (22 samples, 3.04%)</title><rect x="544.6" y="83.0" width="35.8" height="15" fill="#5ff05f" rx="2" ry="2"/>
<text x="547.6" y="94.0">ru/..</text>
</g>
<g>
<title>ru/mail/polis/util/Util.byteBufferToBytes (22 samples, 3.04%)</title><rect x="544.6" y="67.0" width="35.8" height="15" fill="#62f362" rx="2" ry="2"/>
<text x="547.6" y="78.0">ru/..</text>
</g>
<g>
<title>byte[] (22 samples, 3.04%)</title><rect x="544.6" y="51.0" width="35.8" height="15" fill="#61cfcf" rx="2" ry="2"/>
<text x="547.6" y="62.0">byt..</text>
</g>
<g>
<title>java/util/concurrent/ThreadPoolExecutor.getTask (9 samples, 1.24%)</title><rect x="580.4" y="179.0" width="14.7" height="15" fill="#57e857" rx="2" ry="2"/>
<text x="583.4" y="190.0"></text>
</g>
<g>
<title>java/util/concurrent/ArrayBlockingQueue.take (9 samples, 1.24%)</title><rect x="580.4" y="163.0" width="14.7" height="15" fill="#68f968" rx="2" ry="2"/>
<text x="583.4" y="174.0"></text>
</g>
<g>
<title>java/util/concurrent/locks/AbstractQueuedSynchronizer$ConditionObject.await (9 samples, 1.24%)</title><rect x="580.4" y="147.0" width="14.7" height="15" fill="#52e352" rx="2" ry="2"/>
<text x="583.4" y="158.0"></text>
</g>
<g>
<title>java/util/concurrent/locks/AbstractQueuedSynchronizer$ConditionObject.addConditionWaiter (9 samples, 1.24%)</title><rect x="580.4" y="131.0" width="14.7" height="15" fill="#52e352" rx="2" ry="2"/>
<text x="583.4" y="142.0"></text>
</g>
<g>
<title>java.util.concurrent.locks.AbstractQueuedSynchronizer$Node (9 samples, 1.24%)</title><rect x="580.4" y="115.0" width="14.7" height="15" fill="#6bd9d9" rx="2" ry="2"/>
<text x="583.4" y="126.0"></text>
</g>
<g>
<title>one/nio/server/SelectorThread.run (365 samples, 50.41%)</title><rect x="595.1" y="227.0" width="594.9" height="15" fill="#55e655" rx="2" ry="2"/>
<text x="598.1" y="238.0">one/nio/server/SelectorThread.run</text>
</g>
<g>
<title>one/nio/net/NativeSelector.select (7 samples, 0.97%)</title><rect x="595.1" y="211.0" width="11.4" height="15" fill="#5eef5e" rx="2" ry="2"/>
<text x="598.1" y="222.0"></text>
</g>
<g>
<title>one.nio.net.NativeSelector$2 (7 samples, 0.97%)</title><rect x="595.1" y="195.0" width="11.4" height="15" fill="#56c4c4" rx="2" ry="2"/>
<text x="598.1" y="206.0"></text>
</g>
<g>
<title>one/nio/net/Session.process (358 samples, 49.45%)</title><rect x="606.5" y="211.0" width="583.5" height="15" fill="#68f968" rx="2" ry="2"/>
<text x="609.5" y="222.0">one/nio/net/Session.process</text>
</g>
<g>
<title>one/nio/http/HttpSession.processRead (358 samples, 49.45%)</title><rect x="606.5" y="195.0" width="583.5" height="15" fill="#58e958" rx="2" ry="2"/>
<text x="609.5" y="206.0">one/nio/http/HttpSession.processRead</text>
</g>
<g>
<title>one/nio/http/HttpSession.processHttpBuffer (358 samples, 49.45%)</title><rect x="606.5" y="179.0" width="583.5" height="15" fill="#5aeb5a" rx="2" ry="2"/>
<text x="609.5" y="190.0">one/nio/http/HttpSession.processHttpBuffer</text>
</g>
<g>
<title>one/nio/http/HttpSession.handleParsedRequest (90 samples, 12.43%)</title><rect x="606.5" y="163.0" width="146.7" height="15" fill="#6afb6a" rx="2" ry="2"/>
<text x="609.5" y="174.0">one/nio/http/HttpS..</text>
</g>
<g>
<title>one/nio/http/HttpServer.handleRequest (90 samples, 12.43%)</title><rect x="606.5" y="147.0" width="146.7" height="15" fill="#5aeb5a" rx="2" ry="2"/>
<text x="609.5" y="158.0">one/nio/http/HttpS..</text>
</g>
<g>
<title>RequestHandler1_entity.handleRequest (70 samples, 9.67%)</title><rect x="606.5" y="131.0" width="114.1" height="15" fill="#68f968" rx="2" ry="2"/>
<text x="609.5" y="142.0">RequestHandler..</text>
</g>
<g>
<title>one/nio/http/Request.getRequiredParameter (28 samples, 3.87%)</title><rect x="606.5" y="115.0" width="45.7" height="15" fill="#63f463" rx="2" ry="2"/>
<text x="609.5" y="126.0">one/..</text>
</g>
<g>
<title>one/nio/http/Request.getParameter (28 samples, 3.87%)</title><rect x="606.5" y="99.0" width="45.7" height="15" fill="#51e251" rx="2" ry="2"/>
<text x="609.5" y="110.0">one/..</text>
</g>
<g>
<title>java/lang/String.substring (28 samples, 3.87%)</title><rect x="606.5" y="83.0" width="45.7" height="15" fill="#57e857" rx="2" ry="2"/>
<text x="609.5" y="94.0">java..</text>
</g>
<g>
<title>java/lang/StringLatin1.newString (28 samples, 3.87%)</title><rect x="606.5" y="67.0" width="45.7" height="15" fill="#67f867" rx="2" ry="2"/>
<text x="609.5" y="78.0">java..</text>
</g>
<g>
<title>java.lang.String (15 samples, 2.07%)</title><rect x="606.5" y="51.0" width="24.5" height="15" fill="#62d0d0" rx="2" ry="2"/>
<text x="609.5" y="62.0">j..</text>
</g>
<g>
<title>java/util/Arrays.copyOfRange (13 samples, 1.80%)</title><rect x="631.0" y="51.0" width="21.2" height="15" fill="#69fa69" rx="2" ry="2"/>
<text x="634.0" y="62.0">j..</text>
</g>
<g>
<title>byte[] (13 samples, 1.80%)</title><rect x="631.0" y="35.0" width="21.2" height="15" fill="#59c7c7" rx="2" ry="2"/>
<text x="634.0" y="46.0">b..</text>
</g>
<g>
<title>ru/mail/polis/service/dariagap/AsyncServiceImpl.entity (42 samples, 5.80%)</title><rect x="652.2" y="115.0" width="68.4" height="15" fill="#56e756" rx="2" ry="2"/>
<text x="655.2" y="126.0">ru/mail..</text>
</g>
<g>
<title>java/lang/invoke/Invokers$Holder.linkToTargetMethod (14 samples, 1.93%)</title><rect x="652.2" y="99.0" width="22.8" height="15" fill="#55e655" rx="2" ry="2"/>
<text x="655.2" y="110.0">j..</text>
</g>
<g>
<title>java/lang/invoke/DirectMethodHandle$Holder.invokeStatic (14 samples, 1.93%)</title><rect x="652.2" y="83.0" width="22.8" height="15" fill="#62f362" rx="2" ry="2"/>
<text x="655.2" y="94.0">j..</text>
</g>
<g>
<title>ru/mail/polis/service/dariagap/AsyncServiceImpl$$Lambda$65/302282871.get$Lambda (14 samples, 1.93%)</title><rect x="652.2" y="67.0" width="22.8" height="15" fill="#53e453" rx="2" ry="2"/>
<text x="655.2" y="78.0">r..</text>
</g>
<g>
<title>ru.mail.polis.service.dariagap.AsyncServiceImpl$$Lambda$65 (14 samples, 1.93%)</title><rect x="652.2" y="51.0" width="22.8" height="15" fill="#64d2d2" rx="2" ry="2"/>
<text x="655.2" y="62.0">r..</text>
</g>
<g>
<title>java/util/concurrent/AbstractExecutorService.submit (28 samples, 3.87%)</title><rect x="675.0" y="99.0" width="45.6" height="15" fill="#67f867" rx="2" ry="2"/>
<text x="678.0" y="110.0">java..</text>
</g>
<g>
<title>java/util/concurrent/AbstractExecutorService.newTaskFor (28 samples, 3.87%)</title><rect x="675.0" y="83.0" width="45.6" height="15" fill="#65f665" rx="2" ry="2"/>
<text x="678.0" y="94.0">java..</text>
</g>
<g>
<title>java.util.concurrent.FutureTask (14 samples, 1.93%)</title><rect x="675.0" y="67.0" width="22.8" height="15" fill="#56c4c4" rx="2" ry="2"/>
<text x="678.0" y="78.0">j..</text>
</g>
<g>
<title>java/util/concurrent/FutureTask.&lt;init&gt; (14 samples, 1.93%)</title><rect x="697.8" y="67.0" width="22.8" height="15" fill="#5ced5c" rx="2" ry="2"/>
<text x="700.8" y="78.0">j..</text>
</g>
<g>
<title>java/util/concurrent/Executors.callable (14 samples, 1.93%)</title><rect x="697.8" y="51.0" width="22.8" height="15" fill="#59ea59" rx="2" ry="2"/>
<text x="700.8" y="62.0">j..</text>
</g>
<g>
<title>java.util.concurrent.Executors$RunnableAdapter (13 samples, 1.80%)</title><rect x="697.8" y="35.0" width="21.2" height="15" fill="#5dcbcb" rx="2" ry="2"/>
<text x="700.8" y="46.0">j..</text>
</g>
<g>
<title>java.util.concurrent.Executors$RunnableAdapter (1 samples, 0.14%)</title><rect x="719.0" y="35.0" width="1.6" height="15" fill="#e78300" rx="2" ry="2"/>
<text x="722.0" y="46.0"></text>
</g>
<g>
<title>one/nio/http/Request.getPath (20 samples, 2.76%)</title><rect x="720.6" y="131.0" width="32.6" height="15" fill="#5bec5b" rx="2" ry="2"/>
<text x="723.6" y="142.0">on..</text>
</g>
<g>
<title>java/lang/String.substring (20 samples, 2.76%)</title><rect x="720.6" y="115.0" width="32.6" height="15" fill="#5ff05f" rx="2" ry="2"/>
<text x="723.6" y="126.0">ja..</text>
</g>
<g>
<title>java/lang/StringLatin1.newString (20 samples, 2.76%)</title><rect x="720.6" y="99.0" width="32.6" height="15" fill="#54e554" rx="2" ry="2"/>
<text x="723.6" y="110.0">ja..</text>
</g>
<g>
<title>java.lang.String (12 samples, 1.66%)</title><rect x="720.6" y="83.0" width="19.6" height="15" fill="#60cece" rx="2" ry="2"/>
<text x="723.6" y="94.0"></text>
</g>
<g>
<title>java/util/Arrays.copyOfRange (8 samples, 1.10%)</title><rect x="740.2" y="83.0" width="13.0" height="15" fill="#50e150" rx="2" ry="2"/>
<text x="743.2" y="94.0"></text>
</g>
<g>
<title>byte[] (8 samples, 1.10%)</title><rect x="740.2" y="67.0" width="13.0" height="15" fill="#5bc9c9" rx="2" ry="2"/>
<text x="743.2" y="78.0"></text>
</g>
<g>
<title>one/nio/http/HttpSession.parseRequest (117 samples, 16.16%)</title><rect x="753.2" y="163.0" width="190.7" height="15" fill="#5bec5b" rx="2" ry="2"/>
<text x="756.2" y="174.0">one/nio/http/HttpSession...</text>
</g>
<g>
<title>one.nio.http.Request (16 samples, 2.21%)</title><rect x="753.2" y="147.0" width="26.1" height="15" fill="#59c7c7" rx="2" ry="2"/>
<text x="756.2" y="158.0">o..</text>
</g>
<g>
<title>one.nio.http.Request (2 samples, 0.28%)</title><rect x="779.3" y="147.0" width="3.2" height="15" fill="#f79300" rx="2" ry="2"/>
<text x="782.3" y="158.0"></text>
</g>
<g>
<title>one/nio/http/Request.&lt;init&gt; (42 samples, 5.80%)</title><rect x="782.5" y="147.0" width="68.5" height="15" fill="#57e857" rx="2" ry="2"/>
<text x="785.5" y="158.0">one/nio..</text>
</g>
<g>
<title>java.lang.String[] (41 samples, 5.66%)</title><rect x="782.5" y="131.0" width="66.9" height="15" fill="#63d1d1" rx="2" ry="2"/>
<text x="785.5" y="142.0">java.la..</text>
</g>
<g>
<title>java.lang.String[] (1 samples, 0.14%)</title><rect x="849.4" y="131.0" width="1.6" height="15" fill="#f18d00" rx="2" ry="2"/>
<text x="852.4" y="142.0"></text>
</g>
<g>
<title>one/nio/util/Utf8.read (57 samples, 7.87%)</title><rect x="851.0" y="147.0" width="92.9" height="15" fill="#6bfc6b" rx="2" ry="2"/>
<text x="854.0" y="158.0">one/nio/uti..</text>
</g>
<g>
<title>one/nio/util/Utf8.read (57 samples, 7.87%)</title><rect x="851.0" y="131.0" width="92.9" height="15" fill="#64f564" rx="2" ry="2"/>
<text x="854.0" y="142.0">one/nio/uti..</text>
</g>
<g>
<title>char[] (28 samples, 3.87%)</title><rect x="851.0" y="115.0" width="45.6" height="15" fill="#68d6d6" rx="2" ry="2"/>
<text x="854.0" y="126.0">char[]</text>
</g>
<g>
<title>java.lang.String (15 samples, 2.07%)</title><rect x="896.6" y="115.0" width="24.5" height="15" fill="#64d2d2" rx="2" ry="2"/>
<text x="899.6" y="126.0">j..</text>
</g>
<g>
<title>java/lang/String.&lt;init&gt; (14 samples, 1.93%)</title><rect x="921.1" y="115.0" width="22.8" height="15" fill="#59ea59" rx="2" ry="2"/>
<text x="924.1" y="126.0">j..</text>
</g>
<g>
<title>java/lang/String.&lt;init&gt; (14 samples, 1.93%)</title><rect x="921.1" y="99.0" width="22.8" height="15" fill="#63f463" rx="2" ry="2"/>
<text x="924.1" y="110.0">j..</text>
</g>
<g>
<title>java/lang/StringUTF16.compress (14 samples, 1.93%)</title><rect x="921.1" y="83.0" width="22.8" height="15" fill="#50e150" rx="2" ry="2"/>
<text x="924.1" y="94.0">j..</text>
</g>
<g>
<title>byte[] (14 samples, 1.93%)</title><rect x="921.1" y="67.0" width="22.8" height="15" fill="#5fcdcd" rx="2" ry="2"/>
<text x="924.1" y="78.0">b..</text>
</g>
<g>
<title>one/nio/http/HttpSession.startParsingRequestBody (17 samples, 2.35%)</title><rect x="943.9" y="163.0" width="27.7" height="15" fill="#69fa69" rx="2" ry="2"/>
<text x="946.9" y="174.0">o..</text>
</g>
<g>
<title>byte[] (17 samples, 2.35%)</title><rect x="943.9" y="147.0" width="27.7" height="15" fill="#62d0d0" rx="2" ry="2"/>
<text x="946.9" y="158.0">b..</text>
</g>
<g>
<title>one/nio/http/Request.getHeader (16 samples, 2.21%)</title><rect x="971.6" y="163.0" width="26.1" height="15" fill="#63f463" rx="2" ry="2"/>
<text x="974.6" y="174.0">o..</text>
</g>
<g>
<title>java/lang/String.substring (16 samples, 2.21%)</title><rect x="971.6" y="147.0" width="26.1" height="15" fill="#5ff05f" rx="2" ry="2"/>
<text x="974.6" y="158.0">j..</text>
</g>
<g>
<title>java/lang/StringLatin1.newString (16 samples, 2.21%)</title><rect x="971.6" y="131.0" width="26.1" height="15" fill="#5ced5c" rx="2" ry="2"/>
<text x="974.6" y="142.0">j..</text>
</g>
<g>
<title>java.lang.String (7 samples, 0.97%)</title><rect x="971.6" y="115.0" width="11.4" height="15" fill="#5ac8c8" rx="2" ry="2"/>
<text x="974.6" y="126.0"></text>
</g>
<g>
<title>java/util/Arrays.copyOfRange (9 samples, 1.24%)</title><rect x="983.0" y="115.0" width="14.7" height="15" fill="#65f665" rx="2" ry="2"/>
<text x="986.0" y="126.0"></text>
</g>
<g>
<title>byte[] (9 samples, 1.24%)</title><rect x="983.0" y="99.0" width="14.7" height="15" fill="#68d6d6" rx="2" ry="2"/>
<text x="986.0" y="110.0"></text>
</g>
<g>
<title>one/nio/util/Utf8.read (118 samples, 16.30%)</title><rect x="997.7" y="163.0" width="192.3" height="15" fill="#64f564" rx="2" ry="2"/>
<text x="1000.7" y="174.0">one/nio/util/Utf8.read</text>
</g>
<g>
<title>one/nio/util/Utf8.read (118 samples, 16.30%)</title><rect x="997.7" y="147.0" width="192.3" height="15" fill="#54e554" rx="2" ry="2"/>
<text x="1000.7" y="158.0">one/nio/util/Utf8.read</text>
</g>
<g>
<title>char[] (53 samples, 7.32%)</title><rect x="997.7" y="131.0" width="86.4" height="15" fill="#50bebe" rx="2" ry="2"/>
<text x="1000.7" y="142.0">char[]</text>
</g>
<g>
<title>char[] (1 samples, 0.14%)</title><rect x="1084.1" y="131.0" width="1.6" height="15" fill="#e27e00" rx="2" ry="2"/>
<text x="1087.1" y="142.0"></text>
</g>
<g>
<title>java.lang.String (25 samples, 3.45%)</title><rect x="1085.7" y="131.0" width="40.7" height="15" fill="#64d2d2" rx="2" ry="2"/>
<text x="1088.7" y="142.0">jav..</text>
</g>
<g>
<title>java/lang/String.&lt;init&gt; (39 samples, 5.39%)</title><rect x="1126.4" y="131.0" width="63.6" height="15" fill="#55e655" rx="2" ry="2"/>
<text x="1129.4" y="142.0">java/la..</text>
</g>
<g>
<title>java/lang/String.&lt;init&gt; (39 samples, 5.39%)</title><rect x="1126.4" y="115.0" width="63.6" height="15" fill="#62f362" rx="2" ry="2"/>
<text x="1129.4" y="126.0">java/la..</text>
</g>
<g>
<title>java/lang/StringUTF16.compress (39 samples, 5.39%)</title><rect x="1126.4" y="99.0" width="63.6" height="15" fill="#65f665" rx="2" ry="2"/>
<text x="1129.4" y="110.0">java/la..</text>
</g>
<g>
<title>byte[] (39 samples, 5.39%)</title><rect x="1126.4" y="83.0" width="63.6" height="15" fill="#61cfcf" rx="2" ry="2"/>
<text x="1129.4" y="94.0">byte[]</text>
</g>
</g>
</svg>
