<?xml version="1.0" standalone="no"?>
<!DOCTYPE svg PUBLIC "-//W3C//DTD SVG 1.1//EN" "http://www.w3.org/Graphics/SVG/1.1/DTD/svg11.dtd">
<svg version="1.1" width="1200" height="374" onload="init(evt)" viewBox="0 0 1200 374" xmlns="http://www.w3.org/2000/svg" xmlns:xlink="http://www.w3.org/1999/xlink">
<style type="text/css">
	text { font-family:Verdana; font-size:12px; fill:rgb(0,0,0); }
	#search { opacity:0.1; cursor:pointer; }
	#search:hover, #search.show { opacity:1; }
	#subtitle { text-anchor:middle; font-color:rgb(160,160,160); }
	#title { text-anchor:middle; font-size:17px}
	#unzoom { cursor:pointer; }
	#frames > *:hover { stroke:black; stroke-width:0.5; cursor:pointer; }
	.hide { display:none; }
	.parent { opacity:0.5; }
</style>
<script type="text/ecmascript">
<![CDATA[
	"use strict";
	var details, searchbtn, unzoombtn, matchedtxt, svg, searching;
	function init(evt) {
		details = document.getElementById("details").firstChild;
		searchbtn = document.getElementById("search");
		unzoombtn = document.getElementById("unzoom");
		matchedtxt = document.getElementById("matched");
		svg = document.getElementsByTagName("svg")[0];
		searching = 0;
	}

	window.addEventListener("click", function(e) {
		var target = find_group(e.target);
		if (target) {
			if (target.nodeName == "a") {
				if (e.ctrlKey === false) return;
				e.preventDefault();
			}
			if (target.classList.contains("parent")) unzoom();
			zoom(target);
		}
		else if (e.target.id == "unzoom") unzoom();
		else if (e.target.id == "search") search_prompt();
	}, false)

	// mouse-over for info
	// show
	window.addEventListener("mouseover", function(e) {
		var target = find_group(e.target);
		if (target) details.nodeValue = "Function: " + g_to_text(target);
	}, false)

	// clear
	window.addEventListener("mouseout", function(e) {
		var target = find_group(e.target);
		if (target) details.nodeValue = ' ';
	}, false)

	// ctrl-F for search
	window.addEventListener("keydown",function (e) {
		if (e.keyCode === 114 || (e.ctrlKey && e.keyCode === 70)) {
			e.preventDefault();
			search_prompt();
		}
	}, false)

	// functions
	function find_child(node, selector) {
		var children = node.querySelectorAll(selector);
		if (children.length) return children[0];
		return;
	}
	function find_group(node) {
		var parent = node.parentElement;
		if (!parent) return;
		if (parent.id == "frames") return node;
		return find_group(parent);
	}
	function orig_save(e, attr, val) {
		if (e.attributes["_orig_" + attr] != undefined) return;
		if (e.attributes[attr] == undefined) return;
		if (val == undefined) val = e.attributes[attr].value;
		e.setAttribute("_orig_" + attr, val);
	}
	function orig_load(e, attr) {
		if (e.attributes["_orig_"+attr] == undefined) return;
		e.attributes[attr].value = e.attributes["_orig_" + attr].value;
		e.removeAttribute("_orig_"+attr);
	}
	function g_to_text(e) {
		var text = find_child(e, "title").firstChild.nodeValue;
		return (text)
	}
	function g_to_func(e) {
		var func = g_to_text(e);
		// if there's any manipulation we want to do to the function
		// name before it's searched, do it here before returning.
		return (func);
	}
	function update_text(e) {
		var r = find_child(e, "rect");
		var t = find_child(e, "text");
		var w = parseFloat(r.attributes.width.value) -3;
		var txt = find_child(e, "title").textContent.replace(/\([^(]*\)$/,"");
		t.attributes.x.value = parseFloat(r.attributes.x.value) + 3;

		// Smaller than this size won't fit anything
		if (w < 2 * 12 * 0.59) {
			t.textContent = "";
			return;
		}

		t.textContent = txt;
		// Fit in full text width
		if (/^ *$/.test(txt) || t.getSubStringLength(0, txt.length) < w)
			return;

		for (var x = txt.length - 2; x > 0; x--) {
			if (t.getSubStringLength(0, x + 2) <= w) {
				t.textContent = txt.substring(0, x) + "..";
				return;
			}
		}
		t.textContent = "";
	}

	// zoom
	function zoom_reset(e) {
		if (e.attributes != undefined) {
			orig_load(e, "x");
			orig_load(e, "width");
		}
		if (e.childNodes == undefined) return;
		for (var i = 0, c = e.childNodes; i < c.length; i++) {
			zoom_reset(c[i]);
		}
	}
	function zoom_child(e, x, ratio) {
		if (e.attributes != undefined) {
			if (e.attributes.x != undefined) {
				orig_save(e, "x");
				e.attributes.x.value = (parseFloat(e.attributes.x.value) - x - 10) * ratio + 10;
				if (e.tagName == "text")
					e.attributes.x.value = find_child(e.parentNode, "rect[x]").attributes.x.value + 3;
			}
			if (e.attributes.width != undefined) {
				orig_save(e, "width");
				e.attributes.width.value = parseFloat(e.attributes.width.value) * ratio;
			}
		}

		if (e.childNodes == undefined) return;
		for (var i = 0, c = e.childNodes; i < c.length; i++) {
			zoom_child(c[i], x - 10, ratio);
		}
	}
	function zoom_parent(e) {
		if (e.attributes) {
			if (e.attributes.x != undefined) {
				orig_save(e, "x");
				e.attributes.x.value = 10;
			}
			if (e.attributes.width != undefined) {
				orig_save(e, "width");
				e.attributes.width.value = parseInt(svg.width.baseVal.value) - (10 * 2);
			}
		}
		if (e.childNodes == undefined) return;
		for (var i = 0, c = e.childNodes; i < c.length; i++) {
			zoom_parent(c[i]);
		}
	}
	function zoom(node) {
		var attr = find_child(node, "rect").attributes;
		var width = parseFloat(attr.width.value);
		var xmin = parseFloat(attr.x.value);
		var xmax = parseFloat(xmin + width);
		var ymin = parseFloat(attr.y.value);
		var ratio = (svg.width.baseVal.value - 2 * 10) / width;

		// XXX: Workaround for JavaScript float issues (fix me)
		var fudge = 0.0001;

		unzoombtn.classList.remove("hide");

		var el = document.getElementById("frames").children;
		for (var i = 0; i < el.length; i++) {
			var e = el[i];
			var a = find_child(e, "rect").attributes;
			var ex = parseFloat(a.x.value);
			var ew = parseFloat(a.width.value);
			var upstack;
			// Is it an ancestor
			if (0 == 0) {
				upstack = parseFloat(a.y.value) > ymin;
			} else {
				upstack = parseFloat(a.y.value) < ymin;
			}
			if (upstack) {
				// Direct ancestor
				if (ex <= xmin && (ex+ew+fudge) >= xmax) {
					e.classList.add("parent");
					zoom_parent(e);
					update_text(e);
				}
				// not in current path
				else
					e.classList.add("hide");
			}
			// Children maybe
			else {
				// no common path
				if (ex < xmin || ex + fudge >= xmax) {
					e.classList.add("hide");
				}
				else {
					zoom_child(e, xmin, ratio);
					update_text(e);
				}
			}
		}
	}
	function unzoom() {
		unzoombtn.classList.add("hide");
		var el = document.getElementById("frames").children;
		for(var i = 0; i < el.length; i++) {
			el[i].classList.remove("parent");
			el[i].classList.remove("hide");
			zoom_reset(el[i]);
			update_text(el[i]);
		}
	}

	// search
	function reset_search() {
		var el = document.querySelectorAll("#frames rect");
		for (var i = 0; i < el.length; i++) {
			orig_load(el[i], "fill")
		}
	}
	function search_prompt() {
		if (!searching) {
			var term = prompt("Enter a search term (regexp " +
			    "allowed, eg: ^ext4_)", "");
			if (term != null) {
				search(term)
			}
		} else {
			reset_search();
			searching = 0;
			searchbtn.classList.remove("show");
			searchbtn.firstChild.nodeValue = "Search"
			matchedtxt.classList.add("hide");
			matchedtxt.firstChild.nodeValue = ""
		}
	}
	function search(term) {
		var re = new RegExp(term);
		var el = document.getElementById("frames").children;
		var matches = new Object();
		var maxwidth = 0;
		for (var i = 0; i < el.length; i++) {
			var e = el[i];
			var func = g_to_func(e);
			var rect = find_child(e, "rect");
			if (func == null || rect == null)
				continue;

			// Save max width. Only works as we have a root frame
			var w = parseFloat(rect.attributes.width.value);
			if (w > maxwidth)
				maxwidth = w;

			if (func.match(re)) {
				// highlight
				var x = parseFloat(rect.attributes.x.value);
				orig_save(rect, "fill");
				rect.attributes.fill.value = "rgb(230,0,230)";

				// remember matches
				if (matches[x] == undefined) {
					matches[x] = w;
				} else {
					if (w > matches[x]) {
						// overwrite with parent
						matches[x] = w;
					}
				}
				searching = 1;
			}
		}
		if (!searching)
			return;

		searchbtn.classList.add("show");
		searchbtn.firstChild.nodeValue = "Reset Search";

		// calculate percent matched, excluding vertical overlap
		var count = 0;
		var lastx = -1;
		var lastw = 0;
		var keys = Array();
		for (k in matches) {
			if (matches.hasOwnProperty(k))
				keys.push(k);
		}
		// sort the matched frames by their x location
		// ascending, then width descending
		keys.sort(function(a, b){
			return a - b;
		});
		// Step through frames saving only the biggest bottom-up frames
		// thanks to the sort order. This relies on the tree property
		// where children are always smaller than their parents.
		var fudge = 0.0001;	// JavaScript floating point
		for (var k in keys) {
			var x = parseFloat(keys[k]);
			var w = matches[keys[k]];
			if (x >= lastx + lastw - fudge) {
				count += w;
				lastx = x;
				lastw = w;
			}
		}
		// display matched percent
		matchedtxt.classList.remove("hide");
		var pct = 100 * count / maxwidth;
		if (pct != 100) pct = pct.toFixed(1)
		matchedtxt.firstChild.nodeValue = "Matched: " + pct + "%";
	}
]]>
</script>
<rect x="0" y="0" width="100%" height="100%" fill="rgb(240,240,220)"/>
<text id="title" x="600" y="24">Flame Graph</text>
<text id="details" x="10" y="357"> </text>
<text id="unzoom" x="10" y="24" class="hide">Reset Zoom</text>
<text id="search" x="1090" y="24">Search</text>
<text id="matched" x="1090" y="357"> </text>
<g id="frames">
<g>
<title>all (2,694 samples, 100.00%)</title><rect x="10.0" y="323.0" width="1180.0" height="15" fill="#eb6767" rx="2" ry="2"/>
<text x="13.0" y="334.0">all</text>
</g>
<g>
<title>java/lang/Thread.run (2,068 samples, 76.76%)</title><rect x="10.0" y="307.0" width="905.8" height="15" fill="#5dee5d" rx="2" ry="2"/>
<text x="13.0" y="318.0">java/lang/Thread.run</text>
</g>
<g>
<title>java/util/concurrent/ThreadPoolExecutor$Worker.run (2,068 samples, 76.76%)</title><rect x="10.0" y="291.0" width="905.8" height="15" fill="#6afb6a" rx="2" ry="2"/>
<text x="13.0" y="302.0">java/util/concurrent/ThreadPoolExecutor$Worker.run</text>
</g>
<g>
<title>java/util/concurrent/ThreadPoolExecutor.runWorker (2,068 samples, 76.76%)</title><rect x="10.0" y="275.0" width="905.8" height="15" fill="#55e655" rx="2" ry="2"/>
<text x="13.0" y="286.0">java/util/concurrent/ThreadPoolExecutor.runWorker</text>
</g>
<g>
<title>java/util/concurrent/ThreadPoolExecutor.getTask (27 samples, 1.00%)</title><rect x="10.0" y="259.0" width="11.8" height="15" fill="#51e251" rx="2" ry="2"/>
<text x="13.0" y="270.0"></text>
</g>
<g>
<title>java/util/concurrent/LinkedBlockingQueue.take (27 samples, 1.00%)</title><rect x="10.0" y="243.0" width="11.8" height="15" fill="#58e958" rx="2" ry="2"/>
<text x="13.0" y="254.0"></text>
</g>
<g>
<title>java/util/concurrent/locks/AbstractQueuedSynchronizer$ConditionObject.await (27 samples, 1.00%)</title><rect x="10.0" y="227.0" width="11.8" height="15" fill="#69fa69" rx="2" ry="2"/>
<text x="13.0" y="238.0"></text>
</g>
<g>
<title>java/util/concurrent/locks/AbstractQueuedSynchronizer$ConditionObject.addConditionWaiter (27 samples, 1.00%)</title><rect x="10.0" y="211.0" width="11.8" height="15" fill="#57e857" rx="2" ry="2"/>
<text x="13.0" y="222.0"></text>
</g>
<g>
<title>java.util.concurrent.locks.AbstractQueuedSynchronizer$Node (27 samples, 1.00%)</title><rect x="10.0" y="195.0" width="11.8" height="15" fill="#5ccaca" rx="2" ry="2"/>
<text x="13.0" y="206.0"></text>
</g>
<g>
<title>ru/mail/polis/service/stasyanoi/CustomServer$$Lambda$78/854819606.run (2,041 samples, 75.76%)</title><rect x="21.8" y="259.0" width="894.0" height="15" fill="#64f564" rx="2" ry="2"/>
<text x="24.8" y="270.0">ru/mail/polis/service/stasyanoi/CustomServer$$Lambda$78/854819606.run</text>
</g>
<g>
<title>ru/mail/polis/service/stasyanoi/CustomServer.lambda$get$1 (2,041 samples, 75.76%)</title><rect x="21.8" y="243.0" width="894.0" height="15" fill="#6cfd6c" rx="2" ry="2"/>
<text x="24.8" y="254.0">ru/mail/polis/service/stasyanoi/CustomServer.lambda$get$1</text>
</g>
<g>
<title>ru/mail/polis/service/stasyanoi/CustomServer.getInternal (2,041 samples, 75.76%)</title><rect x="21.8" y="227.0" width="894.0" height="15" fill="#63f463" rx="2" ry="2"/>
<text x="24.8" y="238.0">ru/mail/polis/service/stasyanoi/CustomServer.getInternal</text>
</g>
<g>
<title>java/lang/String.getBytes (41 samples, 1.52%)</title><rect x="21.8" y="211.0" width="18.0" height="15" fill="#5eef5e" rx="2" ry="2"/>
<text x="24.8" y="222.0"></text>
</g>
<g>
<title>java/lang/StringCoding.encode (41 samples, 1.52%)</title><rect x="21.8" y="195.0" width="18.0" height="15" fill="#68f968" rx="2" ry="2"/>
<text x="24.8" y="206.0"></text>
</g>
<g>
<title>java/lang/StringCoding.encodeUTF8 (41 samples, 1.52%)</title><rect x="21.8" y="179.0" width="18.0" height="15" fill="#6bfc6b" rx="2" ry="2"/>
<text x="24.8" y="190.0"></text>
</g>
<g>
<title>java/util/Arrays.copyOf (41 samples, 1.52%)</title><rect x="21.8" y="163.0" width="18.0" height="15" fill="#61f261" rx="2" ry="2"/>
<text x="24.8" y="174.0"></text>
</g>
<g>
<title>byte[] (41 samples, 1.52%)</title><rect x="21.8" y="147.0" width="18.0" height="15" fill="#51bfbf" rx="2" ry="2"/>
<text x="24.8" y="158.0"></text>
</g>
<g>
<title>one/nio/http/HttpSession.sendResponse (98 samples, 3.64%)</title><rect x="39.8" y="211.0" width="42.9" height="15" fill="#6bfc6b" rx="2" ry="2"/>
<text x="42.8" y="222.0">one/..</text>
</g>
<g>
<title>one/nio/http/HttpSession.writeResponse (98 samples, 3.64%)</title><rect x="39.8" y="195.0" width="42.9" height="15" fill="#64f564" rx="2" ry="2"/>
<text x="42.8" y="206.0">one/..</text>
</g>
<g>
<title>one/nio/http/Response.toBytes (70 samples, 2.60%)</title><rect x="39.8" y="179.0" width="30.6" height="15" fill="#55e655" rx="2" ry="2"/>
<text x="42.8" y="190.0">on..</text>
</g>
<g>
<title>one/nio/util/ByteArrayBuilder.&lt;init&gt; (70 samples, 2.60%)</title><rect x="39.8" y="163.0" width="30.6" height="15" fill="#68f968" rx="2" ry="2"/>
<text x="42.8" y="174.0">on..</text>
</g>
<g>
<title>byte[] (70 samples, 2.60%)</title><rect x="39.8" y="147.0" width="30.6" height="15" fill="#69d7d7" rx="2" ry="2"/>
<text x="42.8" y="158.0">by..</text>
</g>
<g>
<title>one/nio/net/Session.write (28 samples, 1.04%)</title><rect x="70.4" y="179.0" width="12.3" height="15" fill="#69fa69" rx="2" ry="2"/>
<text x="73.4" y="190.0"></text>
</g>
<g>
<title>one.nio.net.Session$ArrayQueueItem (28 samples, 1.04%)</title><rect x="70.4" y="163.0" width="12.3" height="15" fill="#5ecccc" rx="2" ry="2"/>
<text x="73.4" y="174.0"></text>
</g>
<g>
<title>ru/mail/polis/service/Mapper.fromBytes (20 samples, 0.74%)</title><rect x="82.7" y="211.0" width="8.8" height="15" fill="#58e958" rx="2" ry="2"/>
<text x="85.7" y="222.0"></text>
</g>
<g>
<title>java/nio/ByteBuffer.wrap (20 samples, 0.74%)</title><rect x="82.7" y="195.0" width="8.8" height="15" fill="#68f968" rx="2" ry="2"/>
<text x="85.7" y="206.0"></text>
</g>
<g>
<title>java/nio/ByteBuffer.wrap (20 samples, 0.74%)</title><rect x="82.7" y="179.0" width="8.8" height="15" fill="#63f463" rx="2" ry="2"/>
<text x="85.7" y="190.0"></text>
</g>
<g>
<title>java.nio.HeapByteBuffer (20 samples, 0.74%)</title><rect x="82.7" y="163.0" width="8.8" height="15" fill="#54c2c2" rx="2" ry="2"/>
<text x="85.7" y="174.0"></text>
</g>
<g>
<title>ru/mail/polis/service/stasyanoi/CustomServer.getThisOrProxy (1,882 samples, 69.86%)</title><rect x="91.5" y="211.0" width="824.3" height="15" fill="#67f867" rx="2" ry="2"/>
<text x="94.5" y="222.0">ru/mail/polis/service/stasyanoi/CustomServer.getThisOrProxy</text>
</g>
<g>
<title>ru/mail/polis/service/stasyanoi/CustomServer.getResponseIfIdNotNull (894 samples, 33.18%)</title><rect x="91.5" y="195.0" width="391.6" height="15" fill="#5ced5c" rx="2" ry="2"/>
<text x="94.5" y="206.0">ru/mail/polis/service/stasyanoi/CustomServer.getRespo..</text>
</g>
<g>
<title>one/nio/http/Response.ok (91 samples, 3.38%)</title><rect x="91.5" y="179.0" width="39.8" height="15" fill="#53e453" rx="2" ry="2"/>
<text x="94.5" y="190.0">one..</text>
</g>
<g>
<title>one.nio.http.Response (28 samples, 1.04%)</title><rect x="91.5" y="163.0" width="12.2" height="15" fill="#53c1c1" rx="2" ry="2"/>
<text x="94.5" y="174.0"></text>
</g>
<g>
<title>one/nio/http/Response.&lt;init&gt; (63 samples, 2.34%)</title><rect x="103.7" y="163.0" width="27.6" height="15" fill="#69fa69" rx="2" ry="2"/>
<text x="106.7" y="174.0">o..</text>
</g>
<g>
<title>byte[] (23 samples, 0.85%)</title><rect x="103.7" y="147.0" width="10.1" height="15" fill="#6ddbdb" rx="2" ry="2"/>
<text x="106.7" y="158.0"></text>
</g>
<g>
<title>java.lang.String[] (18 samples, 0.67%)</title><rect x="113.8" y="147.0" width="7.9" height="15" fill="#58c6c6" rx="2" ry="2"/>
<text x="116.8" y="158.0"></text>
</g>
<g>
<title>java.lang.String (22 samples, 0.82%)</title><rect x="121.7" y="147.0" width="9.6" height="15" fill="#6bd9d9" rx="2" ry="2"/>
<text x="124.7" y="158.0"></text>
</g>
<g>
<title>ru/mail/polis/dao/stasyanoi/DAOImpl.get (787 samples, 29.21%)</title><rect x="131.3" y="179.0" width="344.7" height="15" fill="#57e857" rx="2" ry="2"/>
<text x="134.3" y="190.0">ru/mail/polis/dao/stasyanoi/DAOImpl.get</text>
</g>
<g>
<title>org/rocksdb/RocksDB.get (742 samples, 27.54%)</title><rect x="131.3" y="163.0" width="325.0" height="15" fill="#54e554" rx="2" ry="2"/>
<text x="134.3" y="174.0">org/rocksdb/RocksDB.get</text>
</g>
<g>
<title>org/rocksdb/RocksDB.get (742 samples, 27.54%)</title><rect x="131.3" y="147.0" width="325.0" height="15" fill="#54e554" rx="2" ry="2"/>
<text x="134.3" y="158.0">org/rocksdb/RocksDB.get</text>
</g>
<g>
<title>byte[] (21 samples, 0.78%)</title><rect x="131.3" y="131.0" width="9.2" height="15" fill="#64d2d2" rx="2" ry="2"/>
<text x="134.3" y="142.0"></text>
</g>
<g>
<title>ru/mail/polis/dao/stasyanoi/ComparatorImpl.compare (721 samples, 26.76%)</title><rect x="140.5" y="131.0" width="315.8" height="15" fill="#68f968" rx="2" ry="2"/>
<text x="143.5" y="142.0">ru/mail/polis/dao/stasyanoi/ComparatorImpl...</text>
</g>
<g>
<title>ru/mail/polis/dao/stasyanoi/ComparatorImpl.compare (721 samples, 26.76%)</title><rect x="140.5" y="115.0" width="315.8" height="15" fill="#53e453" rx="2" ry="2"/>
<text x="143.5" y="126.0">ru/mail/polis/dao/stasyanoi/ComparatorImpl...</text>
</g>
<g>
<title>org/rocksdb/AbstractSlice.data (721 samples, 26.76%)</title><rect x="140.5" y="99.0" width="315.8" height="15" fill="#59ea59" rx="2" ry="2"/>
<text x="143.5" y="110.0">org/rocksdb/AbstractSlice.data</text>
</g>
<g>
<title>org/rocksdb/Slice.data0 (721 samples, 26.76%)</title><rect x="140.5" y="83.0" width="315.8" height="15" fill="#59ea59" rx="2" ry="2"/>
<text x="143.5" y="94.0">org/rocksdb/Slice.data0</text>
</g>
<g>
<title>org/rocksdb/Slice.data0 (721 samples, 26.76%)</title><rect x="140.5" y="67.0" width="315.8" height="15" fill="#6bfc6b" rx="2" ry="2"/>
<text x="143.5" y="78.0">org/rocksdb/Slice.data0</text>
</g>
<g>
<title>byte[] (721 samples, 26.76%)</title><rect x="140.5" y="51.0" width="315.8" height="15" fill="#57c5c5" rx="2" ry="2"/>
<text x="143.5" y="62.0">byte[]</text>
</g>
<g>
<title>ru/mail/polis/service/Mapper.fromBytes (31 samples, 1.15%)</title><rect x="456.3" y="163.0" width="13.6" height="15" fill="#6afb6a" rx="2" ry="2"/>
<text x="459.3" y="174.0"></text>
</g>
<g>
<title>java/nio/ByteBuffer.wrap (31 samples, 1.15%)</title><rect x="456.3" y="147.0" width="13.6" height="15" fill="#6dfe6d" rx="2" ry="2"/>
<text x="459.3" y="158.0"></text>
</g>
<g>
<title>java/nio/ByteBuffer.wrap (31 samples, 1.15%)</title><rect x="456.3" y="131.0" width="13.6" height="15" fill="#54e554" rx="2" ry="2"/>
<text x="459.3" y="142.0"></text>
</g>
<g>
<title>java.nio.HeapByteBuffer (31 samples, 1.15%)</title><rect x="456.3" y="115.0" width="13.6" height="15" fill="#61cfcf" rx="2" ry="2"/>
<text x="459.3" y="126.0"></text>
</g>
<g>
<title>ru/mail/polis/service/Mapper.toBytes (14 samples, 0.52%)</title><rect x="469.9" y="163.0" width="6.1" height="15" fill="#54e554" rx="2" ry="2"/>
<text x="472.9" y="174.0"></text>
</g>
<g>
<title>byte[] (14 samples, 0.52%)</title><rect x="469.9" y="147.0" width="6.1" height="15" fill="#6ddbdb" rx="2" ry="2"/>
<text x="472.9" y="158.0"></text>
</g>
<g>
<title>ru/mail/polis/service/Mapper.toBytes (16 samples, 0.59%)</title><rect x="476.0" y="179.0" width="7.1" height="15" fill="#5dee5d" rx="2" ry="2"/>
<text x="479.0" y="190.0"></text>
</g>
<g>
<title>byte[] (16 samples, 0.59%)</title><rect x="476.0" y="163.0" width="7.1" height="15" fill="#50bebe" rx="2" ry="2"/>
<text x="479.0" y="174.0"></text>
</g>
<g>
<title>ru/mail/polis/service/stasyanoi/CustomServer.routeRequest (988 samples, 36.67%)</title><rect x="483.1" y="195.0" width="432.7" height="15" fill="#5dee5d" rx="2" ry="2"/>
<text x="486.1" y="206.0">ru/mail/polis/service/stasyanoi/CustomServer.routeRequest</text>
</g>
<g>
<title>one/nio/http/HttpClient.invoke (988 samples, 36.67%)</title><rect x="483.1" y="179.0" width="432.7" height="15" fill="#66f766" rx="2" ry="2"/>
<text x="486.1" y="190.0">one/nio/http/HttpClient.invoke</text>
</g>
<g>
<title>one/nio/http/HttpClient.invoke (988 samples, 36.67%)</title><rect x="483.1" y="163.0" width="432.7" height="15" fill="#69fa69" rx="2" ry="2"/>
<text x="486.1" y="174.0">one/nio/http/HttpClient.invoke</text>
</g>
<g>
<title>one.nio.http.HttpClient$ResponseReader (1 samples, 0.04%)</title><rect x="483.1" y="147.0" width="0.4" height="15" fill="#52c0c0" rx="2" ry="2"/>
<text x="486.1" y="158.0"></text>
</g>
<g>
<title>one/nio/http/HttpClient$ResponseReader.&lt;init&gt; (943 samples, 35.00%)</title><rect x="483.5" y="147.0" width="413.0" height="15" fill="#6afb6a" rx="2" ry="2"/>
<text x="486.5" y="158.0">one/nio/http/HttpClient$ResponseReader.&lt;init&gt;</text>
</g>
<g>
<title>byte[] (304 samples, 11.28%)</title><rect x="483.5" y="131.0" width="133.1" height="15" fill="#62d0d0" rx="2" ry="2"/>
<text x="486.5" y="142.0">byte[]</text>
</g>
<g>
<title>byte[] (639 samples, 23.72%)</title><rect x="616.6" y="131.0" width="279.9" height="15" fill="#f08c00" rx="2" ry="2"/>
<text x="619.6" y="142.0">byte[]</text>
</g>
<g>
<title>one/nio/http/HttpClient$ResponseReader.readResponse (33 samples, 1.22%)</title><rect x="896.5" y="147.0" width="14.5" height="15" fill="#6dfe6d" rx="2" ry="2"/>
<text x="899.5" y="158.0"></text>
</g>
<g>
<title>java/lang/String.substring (1 samples, 0.04%)</title><rect x="896.5" y="131.0" width="0.5" height="15" fill="#66f766" rx="2" ry="2"/>
<text x="899.5" y="142.0"></text>
</g>
<g>
<title>java/lang/StringLatin1.newString (1 samples, 0.04%)</title><rect x="896.5" y="115.0" width="0.5" height="15" fill="#5aeb5a" rx="2" ry="2"/>
<text x="899.5" y="126.0"></text>
</g>
<g>
<title>java/util/Arrays.copyOfRange (1 samples, 0.04%)</title><rect x="896.5" y="99.0" width="0.5" height="15" fill="#6dfe6d" rx="2" ry="2"/>
<text x="899.5" y="110.0"></text>
</g>
<g>
<title>byte[] (1 samples, 0.04%)</title><rect x="896.5" y="83.0" width="0.5" height="15" fill="#51bfbf" rx="2" ry="2"/>
<text x="899.5" y="94.0"></text>
</g>
<g>
<title>one/nio/http/HttpClient$ResponseReader.readLine (27 samples, 1.00%)</title><rect x="897.0" y="131.0" width="11.8" height="15" fill="#57e857" rx="2" ry="2"/>
<text x="900.0" y="142.0"></text>
</g>
<g>
<title>one/nio/util/Utf8.read (27 samples, 1.00%)</title><rect x="897.0" y="115.0" width="11.8" height="15" fill="#57e857" rx="2" ry="2"/>
<text x="900.0" y="126.0"></text>
</g>
<g>
<title>one/nio/util/Utf8.read (27 samples, 1.00%)</title><rect x="897.0" y="99.0" width="11.8" height="15" fill="#56e756" rx="2" ry="2"/>
<text x="900.0" y="110.0"></text>
</g>
<g>
<title>char[] (20 samples, 0.74%)</title><rect x="897.0" y="83.0" width="8.7" height="15" fill="#5ccaca" rx="2" ry="2"/>
<text x="900.0" y="94.0"></text>
</g>
<g>
<title>java.lang.String (4 samples, 0.15%)</title><rect x="905.7" y="83.0" width="1.8" height="15" fill="#6bd9d9" rx="2" ry="2"/>
<text x="908.7" y="94.0"></text>
</g>
<g>
<title>java/lang/String.&lt;init&gt; (3 samples, 0.11%)</title><rect x="907.5" y="83.0" width="1.3" height="15" fill="#50e150" rx="2" ry="2"/>
<text x="910.5" y="94.0"></text>
</g>
<g>
<title>java/lang/String.&lt;init&gt; (3 samples, 0.11%)</title><rect x="907.5" y="67.0" width="1.3" height="15" fill="#5ff05f" rx="2" ry="2"/>
<text x="910.5" y="78.0"></text>
</g>
<g>
<title>java/lang/StringUTF16.compress (3 samples, 0.11%)</title><rect x="907.5" y="51.0" width="1.3" height="15" fill="#56e756" rx="2" ry="2"/>
<text x="910.5" y="62.0"></text>
</g>
<g>
<title>byte[] (3 samples, 0.11%)</title><rect x="907.5" y="35.0" width="1.3" height="15" fill="#5ac8c8" rx="2" ry="2"/>
<text x="910.5" y="46.0"></text>
</g>
<g>
<title>one/nio/http/Response.getHeader (5 samples, 0.19%)</title><rect x="908.8" y="131.0" width="2.2" height="15" fill="#5dee5d" rx="2" ry="2"/>
<text x="911.8" y="142.0"></text>
</g>
<g>
<title>java/lang/String.substring (5 samples, 0.19%)</title><rect x="908.8" y="115.0" width="2.2" height="15" fill="#5dee5d" rx="2" ry="2"/>
<text x="911.8" y="126.0"></text>
</g>
<g>
<title>java/lang/StringLatin1.newString (5 samples, 0.19%)</title><rect x="908.8" y="99.0" width="2.2" height="15" fill="#57e857" rx="2" ry="2"/>
<text x="911.8" y="110.0"></text>
</g>
<g>
<title>java.lang.String (2 samples, 0.07%)</title><rect x="908.8" y="83.0" width="0.9" height="15" fill="#5dcbcb" rx="2" ry="2"/>
<text x="911.8" y="94.0"></text>
</g>
<g>
<title>java/util/Arrays.copyOfRange (3 samples, 0.11%)</title><rect x="909.7" y="83.0" width="1.3" height="15" fill="#62f362" rx="2" ry="2"/>
<text x="912.7" y="94.0"></text>
</g>
<g>
<title>byte[] (3 samples, 0.11%)</title><rect x="909.7" y="67.0" width="1.3" height="15" fill="#69d7d7" rx="2" ry="2"/>
<text x="912.7" y="78.0"></text>
</g>
<g>
<title>one/nio/http/Request.toBytes (9 samples, 0.33%)</title><rect x="911.0" y="147.0" width="3.9" height="15" fill="#62f362" rx="2" ry="2"/>
<text x="914.0" y="158.0"></text>
</g>
<g>
<title>one/nio/util/ByteArrayBuilder.&lt;init&gt; (9 samples, 0.33%)</title><rect x="911.0" y="131.0" width="3.9" height="15" fill="#61f261" rx="2" ry="2"/>
<text x="914.0" y="142.0"></text>
</g>
<g>
<title>byte[] (9 samples, 0.33%)</title><rect x="911.0" y="115.0" width="3.9" height="15" fill="#58c6c6" rx="2" ry="2"/>
<text x="914.0" y="126.0"></text>
</g>
<g>
<title>one/nio/http/Response.getHeader (2 samples, 0.07%)</title><rect x="914.9" y="147.0" width="0.9" height="15" fill="#62f362" rx="2" ry="2"/>
<text x="917.9" y="158.0"></text>
</g>
<g>
<title>java/lang/String.substring (2 samples, 0.07%)</title><rect x="914.9" y="131.0" width="0.9" height="15" fill="#51e251" rx="2" ry="2"/>
<text x="917.9" y="142.0"></text>
</g>
<g>
<title>java/lang/StringLatin1.newString (2 samples, 0.07%)</title><rect x="914.9" y="115.0" width="0.9" height="15" fill="#51e251" rx="2" ry="2"/>
<text x="917.9" y="126.0"></text>
</g>
<g>
<title>java.lang.String (1 samples, 0.04%)</title><rect x="914.9" y="99.0" width="0.5" height="15" fill="#5dcbcb" rx="2" ry="2"/>
<text x="917.9" y="110.0"></text>
</g>
<g>
<title>java/util/Arrays.copyOfRange (1 samples, 0.04%)</title><rect x="915.4" y="99.0" width="0.4" height="15" fill="#53e453" rx="2" ry="2"/>
<text x="918.4" y="110.0"></text>
</g>
<g>
<title>byte[] (1 samples, 0.04%)</title><rect x="915.4" y="83.0" width="0.4" height="15" fill="#6bd9d9" rx="2" ry="2"/>
<text x="918.4" y="94.0"></text>
</g>
<g>
<title>one/nio/server/SelectorThread.run (626 samples, 23.24%)</title><rect x="915.8" y="307.0" width="274.2" height="15" fill="#52e352" rx="2" ry="2"/>
<text x="918.8" y="318.0">one/nio/server/SelectorThread.run</text>
</g>
<g>
<title>one/nio/net/NativeSelector.select (69 samples, 2.56%)</title><rect x="915.8" y="291.0" width="30.2" height="15" fill="#63f463" rx="2" ry="2"/>
<text x="918.8" y="302.0">on..</text>
</g>
<g>
<title>one.nio.net.NativeSelector$2 (69 samples, 2.56%)</title><rect x="915.8" y="275.0" width="30.2" height="15" fill="#6bd9d9" rx="2" ry="2"/>
<text x="918.8" y="286.0">on..</text>
</g>
<g>
<title>one/nio/net/Session.process (557 samples, 20.68%)</title><rect x="946.0" y="291.0" width="244.0" height="15" fill="#69fa69" rx="2" ry="2"/>
<text x="949.0" y="302.0">one/nio/net/Session.process</text>
</g>
<g>
<title>one/nio/http/HttpSession.processRead (557 samples, 20.68%)</title><rect x="946.0" y="275.0" width="244.0" height="15" fill="#6dfe6d" rx="2" ry="2"/>
<text x="949.0" y="286.0">one/nio/http/HttpSession.process..</text>
</g>
<g>
<title>one/nio/http/HttpSession.processHttpBuffer (557 samples, 20.68%)</title><rect x="946.0" y="259.0" width="244.0" height="15" fill="#6bfc6b" rx="2" ry="2"/>
<text x="949.0" y="270.0">one/nio/http/HttpSession.process..</text>
</g>
<g>
<title>one/nio/http/HttpSession.handleParsedRequest (196 samples, 7.28%)</title><rect x="946.0" y="243.0" width="85.9" height="15" fill="#6afb6a" rx="2" ry="2"/>
<text x="949.0" y="254.0">one/nio/ht..</text>
</g>
<g>
<title>one/nio/http/HttpServer.handleRequest (196 samples, 7.28%)</title><rect x="946.0" y="227.0" width="85.9" height="15" fill="#57e857" rx="2" ry="2"/>
<text x="949.0" y="238.0">one/nio/ht..</text>
</g>
<g>
<title>RequestHandler0_get.handleRequest (117 samples, 4.34%)</title><rect x="946.0" y="211.0" width="51.3" height="15" fill="#54e554" rx="2" ry="2"/>
<text x="949.0" y="222.0">Reque..</text>
</g>
<g>
<title>one/nio/http/Request.getRequiredParameter (52 samples, 1.93%)</title><rect x="946.0" y="195.0" width="22.8" height="15" fill="#52e352" rx="2" ry="2"/>
<text x="949.0" y="206.0">o..</text>
</g>
<g>
<title>one/nio/http/Request.getParameter (52 samples, 1.93%)</title><rect x="946.0" y="179.0" width="22.8" height="15" fill="#64f564" rx="2" ry="2"/>
<text x="949.0" y="190.0">o..</text>
</g>
<g>
<title>java/lang/String.substring (52 samples, 1.93%)</title><rect x="946.0" y="163.0" width="22.8" height="15" fill="#51e251" rx="2" ry="2"/>
<text x="949.0" y="174.0">j..</text>
</g>
<g>
<title>java/lang/StringLatin1.newString (52 samples, 1.93%)</title><rect x="946.0" y="147.0" width="22.8" height="15" fill="#53e453" rx="2" ry="2"/>
<text x="949.0" y="158.0">j..</text>
</g>
<g>
<title>java.lang.String (18 samples, 0.67%)</title><rect x="946.0" y="131.0" width="7.9" height="15" fill="#56c4c4" rx="2" ry="2"/>
<text x="949.0" y="142.0"></text>
</g>
<g>
<title>java/util/Arrays.copyOfRange (34 samples, 1.26%)</title><rect x="953.9" y="131.0" width="14.9" height="15" fill="#58e958" rx="2" ry="2"/>
<text x="956.9" y="142.0"></text>
</g>
<g>
<title>byte[] (34 samples, 1.26%)</title><rect x="953.9" y="115.0" width="14.9" height="15" fill="#5ecccc" rx="2" ry="2"/>
<text x="956.9" y="126.0"></text>
</g>
<g>
<title>ru/mail/polis/service/stasyanoi/CustomServer.get (65 samples, 2.41%)</title><rect x="968.8" y="195.0" width="28.5" height="15" fill="#64f564" rx="2" ry="2"/>
<text x="971.8" y="206.0">ru..</text>
</g>
<g>
<title>java/lang/invoke/Invokers$Holder.linkToTargetMethod (26 samples, 0.97%)</title><rect x="968.8" y="179.0" width="11.4" height="15" fill="#65f665" rx="2" ry="2"/>
<text x="971.8" y="190.0"></text>
</g>
<g>
<title>java/lang/invoke/DirectMethodHandle$Holder.invokeStatic (26 samples, 0.97%)</title><rect x="968.8" y="163.0" width="11.4" height="15" fill="#65f665" rx="2" ry="2"/>
<text x="971.8" y="174.0"></text>
</g>
<g>
<title>ru/mail/polis/service/stasyanoi/CustomServer$$Lambda$78/854819606.get$Lambda (26 samples, 0.97%)</title><rect x="968.8" y="147.0" width="11.4" height="15" fill="#53e453" rx="2" ry="2"/>
<text x="971.8" y="158.0"></text>
</g>
<g>
<title>ru.mail.polis.service.stasyanoi.CustomServer$$Lambda$78 (26 samples, 0.97%)</title><rect x="968.8" y="131.0" width="11.4" height="15" fill="#5ac8c8" rx="2" ry="2"/>
<text x="971.8" y="142.0"></text>
</g>
<g>
<title>java/util/concurrent/ThreadPoolExecutor.execute (24 samples, 0.89%)</title><rect x="980.2" y="179.0" width="10.5" height="15" fill="#60f160" rx="2" ry="2"/>
<text x="983.2" y="190.0"></text>
</g>
<g>
<title>java/util/concurrent/LinkedBlockingQueue.offer (24 samples, 0.89%)</title><rect x="980.2" y="163.0" width="10.5" height="15" fill="#65f665" rx="2" ry="2"/>
<text x="983.2" y="174.0"></text>
</g>
<g>
<title>java.util.concurrent.LinkedBlockingQueue$Node (23 samples, 0.85%)</title><rect x="980.2" y="147.0" width="10.1" height="15" fill="#6bd9d9" rx="2" ry="2"/>
<text x="983.2" y="158.0"></text>
</g>
<g>
<title>java/util/concurrent/LinkedBlockingQueue.signalNotEmpty (1 samples, 0.04%)</title><rect x="990.3" y="147.0" width="0.4" height="15" fill="#69fa69" rx="2" ry="2"/>
<text x="993.3" y="158.0"></text>
</g>
<g>
<title>java/util/concurrent/locks/ReentrantLock.lock (1 samples, 0.04%)</title><rect x="990.3" y="131.0" width="0.4" height="15" fill="#59ea59" rx="2" ry="2"/>
<text x="993.3" y="142.0"></text>
</g>
<g>
<title>java/util/concurrent/locks/AbstractQueuedSynchronizer.acquire (1 samples, 0.04%)</title><rect x="990.3" y="115.0" width="0.4" height="15" fill="#6cfd6c" rx="2" ry="2"/>
<text x="993.3" y="126.0"></text>
</g>
<g>
<title>java/util/concurrent/locks/AbstractQueuedSynchronizer.addWaiter (1 samples, 0.04%)</title><rect x="990.3" y="99.0" width="0.4" height="15" fill="#6afb6a" rx="2" ry="2"/>
<text x="993.3" y="110.0"></text>
</g>
<g>
<title>java.util.concurrent.locks.AbstractQueuedSynchronizer$Node (1 samples, 0.04%)</title><rect x="990.3" y="83.0" width="0.4" height="15" fill="#67d5d5" rx="2" ry="2"/>
<text x="993.3" y="94.0"></text>
</g>
<g>
<title>ru/mail/polis/service/stasyanoi/CustomExecutor.setSessionForRejectedError (15 samples, 0.56%)</title><rect x="990.7" y="179.0" width="6.6" height="15" fill="#52e352" rx="2" ry="2"/>
<text x="993.7" y="190.0"></text>
</g>
<g>
<title>java/lang/invoke/Invokers$Holder.linkToTargetMethod (15 samples, 0.56%)</title><rect x="990.7" y="163.0" width="6.6" height="15" fill="#68f968" rx="2" ry="2"/>
<text x="993.7" y="174.0"></text>
</g>
<g>
<title>java/lang/invoke/DirectMethodHandle$Holder.invokeStatic (15 samples, 0.56%)</title><rect x="990.7" y="147.0" width="6.6" height="15" fill="#6afb6a" rx="2" ry="2"/>
<text x="993.7" y="158.0"></text>
</g>
<g>
<title>ru/mail/polis/service/stasyanoi/CustomExecutor$$Lambda$75/659549210.get$Lambda (15 samples, 0.56%)</title><rect x="990.7" y="131.0" width="6.6" height="15" fill="#66f766" rx="2" ry="2"/>
<text x="993.7" y="142.0"></text>
</g>
<g>
<title>ru.mail.polis.service.stasyanoi.CustomExecutor$$Lambda$75 (15 samples, 0.56%)</title><rect x="990.7" y="115.0" width="6.6" height="15" fill="#66d4d4" rx="2" ry="2"/>
<text x="993.7" y="126.0"></text>
</g>
<g>
<title>one/nio/http/Request.getPath (79 samples, 2.93%)</title><rect x="997.3" y="211.0" width="34.6" height="15" fill="#65f665" rx="2" ry="2"/>
<text x="1000.3" y="222.0">on..</text>
</g>
<g>
<title>java/lang/String.substring (79 samples, 2.93%)</title><rect x="997.3" y="195.0" width="34.6" height="15" fill="#65f665" rx="2" ry="2"/>
<text x="1000.3" y="206.0">ja..</text>
</g>
<g>
<title>java/lang/StringLatin1.newString (79 samples, 2.93%)</title><rect x="997.3" y="179.0" width="34.6" height="15" fill="#63f463" rx="2" ry="2"/>
<text x="1000.3" y="190.0">ja..</text>
</g>
<g>
<title>java.lang.String (11 samples, 0.41%)</title><rect x="997.3" y="163.0" width="4.8" height="15" fill="#62d0d0" rx="2" ry="2"/>
<text x="1000.3" y="174.0"></text>
</g>
<g>
<title>java/util/Arrays.copyOfRange (68 samples, 2.52%)</title><rect x="1002.1" y="163.0" width="29.8" height="15" fill="#6dfe6d" rx="2" ry="2"/>
<text x="1005.1" y="174.0">ja..</text>
</g>
<g>
<title>byte[] (68 samples, 2.52%)</title><rect x="1002.1" y="147.0" width="29.8" height="15" fill="#67d5d5" rx="2" ry="2"/>
<text x="1005.1" y="158.0">by..</text>
</g>
<g>
<title>one/nio/http/HttpSession.parseRequest (262 samples, 9.73%)</title><rect x="1031.9" y="243.0" width="114.7" height="15" fill="#65f665" rx="2" ry="2"/>
<text x="1034.9" y="254.0">one/nio/http/H..</text>
</g>
<g>
<title>one.nio.http.Request (32 samples, 1.19%)</title><rect x="1031.9" y="227.0" width="14.0" height="15" fill="#64d2d2" rx="2" ry="2"/>
<text x="1034.9" y="238.0"></text>
</g>
<g>
<title>one/nio/http/Request.&lt;init&gt; (103 samples, 3.82%)</title><rect x="1045.9" y="227.0" width="45.1" height="15" fill="#69fa69" rx="2" ry="2"/>
<text x="1048.9" y="238.0">one/..</text>
</g>
<g>
<title>java.lang.String[] (103 samples, 3.82%)</title><rect x="1045.9" y="211.0" width="45.1" height="15" fill="#68d6d6" rx="2" ry="2"/>
<text x="1048.9" y="222.0">java..</text>
</g>
<g>
<title>one/nio/util/Utf8.read (127 samples, 4.71%)</title><rect x="1091.0" y="227.0" width="55.6" height="15" fill="#6afb6a" rx="2" ry="2"/>
<text x="1094.0" y="238.0">one/n..</text>
</g>
<g>
<title>one/nio/util/Utf8.read (127 samples, 4.71%)</title><rect x="1091.0" y="211.0" width="55.6" height="15" fill="#53e453" rx="2" ry="2"/>
<text x="1094.0" y="222.0">one/n..</text>
</g>
<g>
<title>char[] (75 samples, 2.78%)</title><rect x="1091.0" y="195.0" width="32.9" height="15" fill="#58c6c6" rx="2" ry="2"/>
<text x="1094.0" y="206.0">ch..</text>
</g>
<g>
<title>java.lang.String (18 samples, 0.67%)</title><rect x="1123.9" y="195.0" width="7.8" height="15" fill="#61cfcf" rx="2" ry="2"/>
<text x="1126.9" y="206.0"></text>
</g>
<g>
<title>java/lang/String.&lt;init&gt; (34 samples, 1.26%)</title><rect x="1131.7" y="195.0" width="14.9" height="15" fill="#69fa69" rx="2" ry="2"/>
<text x="1134.7" y="206.0"></text>
</g>
<g>
<title>java/lang/String.&lt;init&gt; (34 samples, 1.26%)</title><rect x="1131.7" y="179.0" width="14.9" height="15" fill="#50e150" rx="2" ry="2"/>
<text x="1134.7" y="190.0"></text>
</g>
<g>
<title>java/lang/StringUTF16.compress (34 samples, 1.26%)</title><rect x="1131.7" y="163.0" width="14.9" height="15" fill="#64f564" rx="2" ry="2"/>
<text x="1134.7" y="174.0"></text>
</g>
<g>
<title>byte[] (34 samples, 1.26%)</title><rect x="1131.7" y="147.0" width="14.9" height="15" fill="#55c3c3" rx="2" ry="2"/>
<text x="1134.7" y="158.0"></text>
</g>
<g>
<title>one/nio/util/Utf8.read (99 samples, 3.67%)</title><rect x="1146.6" y="243.0" width="43.4" height="15" fill="#60f160" rx="2" ry="2"/>
<text x="1149.6" y="254.0">one/..</text>
</g>
<g>
<title>one/nio/util/Utf8.read (99 samples, 3.67%)</title><rect x="1146.6" y="227.0" width="43.4" height="15" fill="#5ced5c" rx="2" ry="2"/>
<text x="1149.6" y="238.0">one/..</text>
</g>
<g>
<title>char[] (41 samples, 1.52%)</title><rect x="1146.6" y="211.0" width="18.0" height="15" fill="#53c1c1" rx="2" ry="2"/>
<text x="1149.6" y="222.0"></text>
</g>
<g>
<title>java.lang.String (12 samples, 0.45%)</title><rect x="1164.6" y="211.0" width="5.3" height="15" fill="#5ccaca" rx="2" ry="2"/>
<text x="1167.6" y="222.0"></text>
</g>
<g>
<title>java/lang/String.&lt;init&gt; (46 samples, 1.71%)</title><rect x="1169.9" y="211.0" width="20.1" height="15" fill="#66f766" rx="2" ry="2"/>
<text x="1172.9" y="222.0"></text>
</g>
<g>
<title>java/lang/String.&lt;init&gt; (46 samples, 1.71%)</title><rect x="1169.9" y="195.0" width="20.1" height="15" fill="#52e352" rx="2" ry="2"/>
<text x="1172.9" y="206.0"></text>
</g>
<g>
<title>java/lang/StringUTF16.compress (46 samples, 1.71%)</title><rect x="1169.9" y="179.0" width="20.1" height="15" fill="#58e958" rx="2" ry="2"/>
<text x="1172.9" y="190.0"></text>
</g>
<g>
<title>byte[] (46 samples, 1.71%)</title><rect x="1169.9" y="163.0" width="20.1" height="15" fill="#5fcdcd" rx="2" ry="2"/>
<text x="1172.9" y="174.0"></text>
</g>
</g>
</svg>
