<?xml version="1.0" standalone="no"?>
<!DOCTYPE svg PUBLIC "-//W3C//DTD SVG 1.1//EN" "http://www.w3.org/Graphics/SVG/1.1/DTD/svg11.dtd">
<svg version="1.1" width="1200" height="390" onload="init(evt)" viewBox="0 0 1200 390" xmlns="http://www.w3.org/2000/svg" xmlns:xlink="http://www.w3.org/1999/xlink">
<style type="text/css">
	text { font-family:Verdana; font-size:12px; fill:rgb(0,0,0); }
	#search { opacity:0.1; cursor:pointer; }
	#search:hover, #search.show { opacity:1; }
	#subtitle { text-anchor:middle; font-color:rgb(160,160,160); }
	#title { text-anchor:middle; font-size:17px}
	#unzoom { cursor:pointer; }
	#frames > *:hover { stroke:black; stroke-width:0.5; cursor:pointer; }
	.hide { display:none; }
	.parent { opacity:0.5; }
</style>
<script type="text/ecmascript">
<![CDATA[
	"use strict";
	var details, searchbtn, unzoombtn, matchedtxt, svg, searching;
	function init(evt) {
		details = document.getElementById("details").firstChild;
		searchbtn = document.getElementById("search");
		unzoombtn = document.getElementById("unzoom");
		matchedtxt = document.getElementById("matched");
		svg = document.getElementsByTagName("svg")[0];
		searching = 0;
	}

	window.addEventListener("click", function(e) {
		var target = find_group(e.target);
		if (target) {
			if (target.nodeName == "a") {
				if (e.ctrlKey === false) return;
				e.preventDefault();
			}
			if (target.classList.contains("parent")) unzoom();
			zoom(target);
		}
		else if (e.target.id == "unzoom") unzoom();
		else if (e.target.id == "search") search_prompt();
	}, false)

	// mouse-over for info
	// show
	window.addEventListener("mouseover", function(e) {
		var target = find_group(e.target);
		if (target) details.nodeValue = "Function: " + g_to_text(target);
	}, false)

	// clear
	window.addEventListener("mouseout", function(e) {
		var target = find_group(e.target);
		if (target) details.nodeValue = ' ';
	}, false)

	// ctrl-F for search
	window.addEventListener("keydown",function (e) {
		if (e.keyCode === 114 || (e.ctrlKey && e.keyCode === 70)) {
			e.preventDefault();
			search_prompt();
		}
	}, false)

	// functions
	function find_child(node, selector) {
		var children = node.querySelectorAll(selector);
		if (children.length) return children[0];
		return;
	}
	function find_group(node) {
		var parent = node.parentElement;
		if (!parent) return;
		if (parent.id == "frames") return node;
		return find_group(parent);
	}
	function orig_save(e, attr, val) {
		if (e.attributes["_orig_" + attr] != undefined) return;
		if (e.attributes[attr] == undefined) return;
		if (val == undefined) val = e.attributes[attr].value;
		e.setAttribute("_orig_" + attr, val);
	}
	function orig_load(e, attr) {
		if (e.attributes["_orig_"+attr] == undefined) return;
		e.attributes[attr].value = e.attributes["_orig_" + attr].value;
		e.removeAttribute("_orig_"+attr);
	}
	function g_to_text(e) {
		var text = find_child(e, "title").firstChild.nodeValue;
		return (text)
	}
	function g_to_func(e) {
		var func = g_to_text(e);
		// if there's any manipulation we want to do to the function
		// name before it's searched, do it here before returning.
		return (func);
	}
	function update_text(e) {
		var r = find_child(e, "rect");
		var t = find_child(e, "text");
		var w = parseFloat(r.attributes.width.value) -3;
		var txt = find_child(e, "title").textContent.replace(/\([^(]*\)$/,"");
		t.attributes.x.value = parseFloat(r.attributes.x.value) + 3;

		// Smaller than this size won't fit anything
		if (w < 2 * 12 * 0.59) {
			t.textContent = "";
			return;
		}

		t.textContent = txt;
		// Fit in full text width
		if (/^ *$/.test(txt) || t.getSubStringLength(0, txt.length) < w)
			return;

		for (var x = txt.length - 2; x > 0; x--) {
			if (t.getSubStringLength(0, x + 2) <= w) {
				t.textContent = txt.substring(0, x) + "..";
				return;
			}
		}
		t.textContent = "";
	}

	// zoom
	function zoom_reset(e) {
		if (e.attributes != undefined) {
			orig_load(e, "x");
			orig_load(e, "width");
		}
		if (e.childNodes == undefined) return;
		for (var i = 0, c = e.childNodes; i < c.length; i++) {
			zoom_reset(c[i]);
		}
	}
	function zoom_child(e, x, ratio) {
		if (e.attributes != undefined) {
			if (e.attributes.x != undefined) {
				orig_save(e, "x");
				e.attributes.x.value = (parseFloat(e.attributes.x.value) - x - 10) * ratio + 10;
				if (e.tagName == "text")
					e.attributes.x.value = find_child(e.parentNode, "rect[x]").attributes.x.value + 3;
			}
			if (e.attributes.width != undefined) {
				orig_save(e, "width");
				e.attributes.width.value = parseFloat(e.attributes.width.value) * ratio;
			}
		}

		if (e.childNodes == undefined) return;
		for (var i = 0, c = e.childNodes; i < c.length; i++) {
			zoom_child(c[i], x - 10, ratio);
		}
	}
	function zoom_parent(e) {
		if (e.attributes) {
			if (e.attributes.x != undefined) {
				orig_save(e, "x");
				e.attributes.x.value = 10;
			}
			if (e.attributes.width != undefined) {
				orig_save(e, "width");
				e.attributes.width.value = parseInt(svg.width.baseVal.value) - (10 * 2);
			}
		}
		if (e.childNodes == undefined) return;
		for (var i = 0, c = e.childNodes; i < c.length; i++) {
			zoom_parent(c[i]);
		}
	}
	function zoom(node) {
		var attr = find_child(node, "rect").attributes;
		var width = parseFloat(attr.width.value);
		var xmin = parseFloat(attr.x.value);
		var xmax = parseFloat(xmin + width);
		var ymin = parseFloat(attr.y.value);
		var ratio = (svg.width.baseVal.value - 2 * 10) / width;

		// XXX: Workaround for JavaScript float issues (fix me)
		var fudge = 0.0001;

		unzoombtn.classList.remove("hide");

		var el = document.getElementById("frames").children;
		for (var i = 0; i < el.length; i++) {
			var e = el[i];
			var a = find_child(e, "rect").attributes;
			var ex = parseFloat(a.x.value);
			var ew = parseFloat(a.width.value);
			var upstack;
			// Is it an ancestor
			if (0 == 0) {
				upstack = parseFloat(a.y.value) > ymin;
			} else {
				upstack = parseFloat(a.y.value) < ymin;
			}
			if (upstack) {
				// Direct ancestor
				if (ex <= xmin && (ex+ew+fudge) >= xmax) {
					e.classList.add("parent");
					zoom_parent(e);
					update_text(e);
				}
				// not in current path
				else
					e.classList.add("hide");
			}
			// Children maybe
			else {
				// no common path
				if (ex < xmin || ex + fudge >= xmax) {
					e.classList.add("hide");
				}
				else {
					zoom_child(e, xmin, ratio);
					update_text(e);
				}
			}
		}
	}
	function unzoom() {
		unzoombtn.classList.add("hide");
		var el = document.getElementById("frames").children;
		for(var i = 0; i < el.length; i++) {
			el[i].classList.remove("parent");
			el[i].classList.remove("hide");
			zoom_reset(el[i]);
			update_text(el[i]);
		}
	}

	// search
	function reset_search() {
		var el = document.querySelectorAll("#frames rect");
		for (var i = 0; i < el.length; i++) {
			orig_load(el[i], "fill")
		}
	}
	function search_prompt() {
		if (!searching) {
			var term = prompt("Enter a search term (regexp " +
			    "allowed, eg: ^ext4_)", "");
			if (term != null) {
				search(term)
			}
		} else {
			reset_search();
			searching = 0;
			searchbtn.classList.remove("show");
			searchbtn.firstChild.nodeValue = "Search"
			matchedtxt.classList.add("hide");
			matchedtxt.firstChild.nodeValue = ""
		}
	}
	function search(term) {
		var re = new RegExp(term);
		var el = document.getElementById("frames").children;
		var matches = new Object();
		var maxwidth = 0;
		for (var i = 0; i < el.length; i++) {
			var e = el[i];
			var func = g_to_func(e);
			var rect = find_child(e, "rect");
			if (func == null || rect == null)
				continue;

			// Save max width. Only works as we have a root frame
			var w = parseFloat(rect.attributes.width.value);
			if (w > maxwidth)
				maxwidth = w;

			if (func.match(re)) {
				// highlight
				var x = parseFloat(rect.attributes.x.value);
				orig_save(rect, "fill");
				rect.attributes.fill.value = "rgb(230,0,230)";

				// remember matches
				if (matches[x] == undefined) {
					matches[x] = w;
				} else {
					if (w > matches[x]) {
						// overwrite with parent
						matches[x] = w;
					}
				}
				searching = 1;
			}
		}
		if (!searching)
			return;

		searchbtn.classList.add("show");
		searchbtn.firstChild.nodeValue = "Reset Search";

		// calculate percent matched, excluding vertical overlap
		var count = 0;
		var lastx = -1;
		var lastw = 0;
		var keys = Array();
		for (k in matches) {
			if (matches.hasOwnProperty(k))
				keys.push(k);
		}
		// sort the matched frames by their x location
		// ascending, then width descending
		keys.sort(function(a, b){
			return a - b;
		});
		// Step through frames saving only the biggest bottom-up frames
		// thanks to the sort order. This relies on the tree property
		// where children are always smaller than their parents.
		var fudge = 0.0001;	// JavaScript floating point
		for (var k in keys) {
			var x = parseFloat(keys[k]);
			var w = matches[keys[k]];
			if (x >= lastx + lastw - fudge) {
				count += w;
				lastx = x;
				lastw = w;
			}
		}
		// display matched percent
		matchedtxt.classList.remove("hide");
		var pct = 100 * count / maxwidth;
		if (pct != 100) pct = pct.toFixed(1)
		matchedtxt.firstChild.nodeValue = "Matched: " + pct + "%";
	}
]]>
</script>
<rect x="0" y="0" width="100%" height="100%" fill="rgb(240,240,220)"/>
<text id="title" x="600" y="24">Flame Graph</text>
<text id="details" x="10" y="373"> </text>
<text id="unzoom" x="10" y="24" class="hide">Reset Zoom</text>
<text id="search" x="1090" y="24">Search</text>
<text id="matched" x="1090" y="373"> </text>
<g id="frames">
<g>
<title>all (1,567 samples, 100.00%)</title><rect x="10.0" y="339.0" width="1180.0" height="15" fill="#e35d5d" rx="2" ry="2"/>
<text x="13.0" y="350.0">all</text>
</g>
<g>
<title>java/lang/Thread.run (1,332 samples, 85.00%)</title><rect x="10.0" y="323.0" width="1003.0" height="15" fill="#66f766" rx="2" ry="2"/>
<text x="13.0" y="334.0">java/lang/Thread.run</text>
</g>
<g>
<title>java/util/concurrent/ThreadPoolExecutor$Worker.run (1,332 samples, 85.00%)</title><rect x="10.0" y="307.0" width="1003.0" height="15" fill="#58e958" rx="2" ry="2"/>
<text x="13.0" y="318.0">java/util/concurrent/ThreadPoolExecutor$Worker.run</text>
</g>
<g>
<title>java/util/concurrent/ThreadPoolExecutor.runWorker (1,332 samples, 85.00%)</title><rect x="10.0" y="291.0" width="1003.0" height="15" fill="#55e655" rx="2" ry="2"/>
<text x="13.0" y="302.0">java/util/concurrent/ThreadPoolExecutor.runWorker</text>
</g>
<g>
<title>java/util/concurrent/ThreadPoolExecutor.getTask (13 samples, 0.83%)</title><rect x="10.0" y="275.0" width="9.8" height="15" fill="#6cfd6c" rx="2" ry="2"/>
<text x="13.0" y="286.0"></text>
</g>
<g>
<title>java/util/concurrent/LinkedBlockingQueue.take (13 samples, 0.83%)</title><rect x="10.0" y="259.0" width="9.8" height="15" fill="#66f766" rx="2" ry="2"/>
<text x="13.0" y="270.0"></text>
</g>
<g>
<title>java/util/concurrent/locks/AbstractQueuedSynchronizer$ConditionObject.await (13 samples, 0.83%)</title><rect x="10.0" y="243.0" width="9.8" height="15" fill="#52e352" rx="2" ry="2"/>
<text x="13.0" y="254.0"></text>
</g>
<g>
<title>java/util/concurrent/locks/AbstractQueuedSynchronizer$ConditionObject.addConditionWaiter (13 samples, 0.83%)</title><rect x="10.0" y="227.0" width="9.8" height="15" fill="#6dfe6d" rx="2" ry="2"/>
<text x="13.0" y="238.0"></text>
</g>
<g>
<title>java.util.concurrent.locks.AbstractQueuedSynchronizer$Node (13 samples, 0.83%)</title><rect x="10.0" y="211.0" width="9.8" height="15" fill="#69d7d7" rx="2" ry="2"/>
<text x="13.0" y="222.0"></text>
</g>
<g>
<title>ru/mail/polis/service/stasyanoi/CustomServer$$Lambda$76/378698550.run (1,319 samples, 84.17%)</title><rect x="19.8" y="275.0" width="993.2" height="15" fill="#5aeb5a" rx="2" ry="2"/>
<text x="22.8" y="286.0">ru/mail/polis/service/stasyanoi/CustomServer$$Lambda$76/378698550.run</text>
</g>
<g>
<title>ru/mail/polis/service/stasyanoi/CustomServer.lambda$runPut$2 (1,319 samples, 84.17%)</title><rect x="19.8" y="259.0" width="993.2" height="15" fill="#64f564" rx="2" ry="2"/>
<text x="22.8" y="270.0">ru/mail/polis/service/stasyanoi/CustomServer.lambda$runPut$2</text>
</g>
<g>
<title>ru/mail/polis/service/stasyanoi/CustomServer.putInternal (1,319 samples, 84.17%)</title><rect x="19.8" y="243.0" width="993.2" height="15" fill="#5dee5d" rx="2" ry="2"/>
<text x="22.8" y="254.0">ru/mail/polis/service/stasyanoi/CustomServer.putInternal</text>
</g>
<g>
<title>one/nio/http/HttpSession.sendResponse (61 samples, 3.89%)</title><rect x="19.8" y="227.0" width="45.9" height="15" fill="#5dee5d" rx="2" ry="2"/>
<text x="22.8" y="238.0">one/..</text>
</g>
<g>
<title>one/nio/http/HttpSession.writeResponse (61 samples, 3.89%)</title><rect x="19.8" y="211.0" width="45.9" height="15" fill="#63f463" rx="2" ry="2"/>
<text x="22.8" y="222.0">one/..</text>
</g>
<g>
<title>one/nio/http/Response.toBytes (43 samples, 2.74%)</title><rect x="19.8" y="195.0" width="32.4" height="15" fill="#59ea59" rx="2" ry="2"/>
<text x="22.8" y="206.0">on..</text>
</g>
<g>
<title>one/nio/util/ByteArrayBuilder.&lt;init&gt; (43 samples, 2.74%)</title><rect x="19.8" y="179.0" width="32.4" height="15" fill="#62f362" rx="2" ry="2"/>
<text x="22.8" y="190.0">on..</text>
</g>
<g>
<title>byte[] (43 samples, 2.74%)</title><rect x="19.8" y="163.0" width="32.4" height="15" fill="#53c1c1" rx="2" ry="2"/>
<text x="22.8" y="174.0">by..</text>
</g>
<g>
<title>one/nio/net/Session.write (18 samples, 1.15%)</title><rect x="52.2" y="195.0" width="13.5" height="15" fill="#52e352" rx="2" ry="2"/>
<text x="55.2" y="206.0"></text>
</g>
<g>
<title>one.nio.net.Session$ArrayQueueItem (18 samples, 1.15%)</title><rect x="52.2" y="179.0" width="13.5" height="15" fill="#5bc9c9" rx="2" ry="2"/>
<text x="55.2" y="190.0"></text>
</g>
<g>
<title>ru/mail/polis/service/stasyanoi/CustomServer.getPutResponse (1,258 samples, 80.28%)</title><rect x="65.7" y="227.0" width="947.3" height="15" fill="#54e554" rx="2" ry="2"/>
<text x="68.7" y="238.0">ru/mail/polis/service/stasyanoi/CustomServer.getPutResponse</text>
</g>
<g>
<title>java/lang/String.getBytes (54 samples, 3.45%)</title><rect x="65.7" y="211.0" width="40.7" height="15" fill="#63f463" rx="2" ry="2"/>
<text x="68.7" y="222.0">jav..</text>
</g>
<g>
<title>java/lang/StringCoding.encode (54 samples, 3.45%)</title><rect x="65.7" y="195.0" width="40.7" height="15" fill="#53e453" rx="2" ry="2"/>
<text x="68.7" y="206.0">jav..</text>
</g>
<g>
<title>java/lang/StringCoding.encodeUTF8 (54 samples, 3.45%)</title><rect x="65.7" y="179.0" width="40.7" height="15" fill="#6afb6a" rx="2" ry="2"/>
<text x="68.7" y="190.0">jav..</text>
</g>
<g>
<title>java/util/Arrays.copyOf (54 samples, 3.45%)</title><rect x="65.7" y="163.0" width="40.7" height="15" fill="#61f261" rx="2" ry="2"/>
<text x="68.7" y="174.0">jav..</text>
</g>
<g>
<title>byte[] (54 samples, 3.45%)</title><rect x="65.7" y="147.0" width="40.7" height="15" fill="#56c4c4" rx="2" ry="2"/>
<text x="68.7" y="158.0">byt..</text>
</g>
<g>
<title>ru/mail/polis/service/stasyanoi/CustomServer.putProxy (1,204 samples, 76.83%)</title><rect x="106.4" y="211.0" width="906.6" height="15" fill="#64f564" rx="2" ry="2"/>
<text x="109.4" y="222.0">ru/mail/polis/service/stasyanoi/CustomServer.putProxy</text>
</g>
<g>
<title>ru/mail/polis/dao/stasyanoi/DAOImpl.upsert (512 samples, 32.67%)</title><rect x="106.4" y="195.0" width="385.5" height="15" fill="#5ff05f" rx="2" ry="2"/>
<text x="109.4" y="206.0">ru/mail/polis/dao/stasyanoi/DAOImpl.upsert</text>
</g>
<g>
<title>org/rocksdb/RocksDB.put (499 samples, 31.84%)</title><rect x="106.4" y="179.0" width="375.8" height="15" fill="#59ea59" rx="2" ry="2"/>
<text x="109.4" y="190.0">org/rocksdb/RocksDB.put</text>
</g>
<g>
<title>org/rocksdb/RocksDB.put (499 samples, 31.84%)</title><rect x="106.4" y="163.0" width="375.8" height="15" fill="#6cfd6c" rx="2" ry="2"/>
<text x="109.4" y="174.0">org/rocksdb/RocksDB.put</text>
</g>
<g>
<title>ru/mail/polis/dao/stasyanoi/ComparatorImpl.compare (499 samples, 31.84%)</title><rect x="106.4" y="147.0" width="375.8" height="15" fill="#67f867" rx="2" ry="2"/>
<text x="109.4" y="158.0">ru/mail/polis/dao/stasyanoi/ComparatorImpl.compare</text>
</g>
<g>
<title>ru/mail/polis/dao/stasyanoi/ComparatorImpl.compare (499 samples, 31.84%)</title><rect x="106.4" y="131.0" width="375.8" height="15" fill="#53e453" rx="2" ry="2"/>
<text x="109.4" y="142.0">ru/mail/polis/dao/stasyanoi/ComparatorImpl.compare</text>
</g>
<g>
<title>org/rocksdb/AbstractSlice.data (499 samples, 31.84%)</title><rect x="106.4" y="115.0" width="375.8" height="15" fill="#51e251" rx="2" ry="2"/>
<text x="109.4" y="126.0">org/rocksdb/AbstractSlice.data</text>
</g>
<g>
<title>org/rocksdb/Slice.data0 (499 samples, 31.84%)</title><rect x="106.4" y="99.0" width="375.8" height="15" fill="#5ff05f" rx="2" ry="2"/>
<text x="109.4" y="110.0">org/rocksdb/Slice.data0</text>
</g>
<g>
<title>org/rocksdb/Slice.data0 (499 samples, 31.84%)</title><rect x="106.4" y="83.0" width="375.8" height="15" fill="#5bec5b" rx="2" ry="2"/>
<text x="109.4" y="94.0">org/rocksdb/Slice.data0</text>
</g>
<g>
<title>byte[] (499 samples, 31.84%)</title><rect x="106.4" y="67.0" width="375.8" height="15" fill="#56c4c4" rx="2" ry="2"/>
<text x="109.4" y="78.0">byte[]</text>
</g>
<g>
<title>ru/mail/polis/service/Mapper.toBytes (13 samples, 0.83%)</title><rect x="482.2" y="179.0" width="9.7" height="15" fill="#5dee5d" rx="2" ry="2"/>
<text x="485.2" y="190.0"></text>
</g>
<g>
<title>byte[] (13 samples, 0.83%)</title><rect x="482.2" y="163.0" width="9.7" height="15" fill="#54c2c2" rx="2" ry="2"/>
<text x="485.2" y="174.0"></text>
</g>
<g>
<title>ru/mail/polis/service/stasyanoi/CustomServer.routeRequest (676 samples, 43.14%)</title><rect x="491.9" y="195.0" width="509.1" height="15" fill="#59ea59" rx="2" ry="2"/>
<text x="494.9" y="206.0">ru/mail/polis/service/stasyanoi/CustomServer.routeRequest</text>
</g>
<g>
<title>one/nio/http/HttpClient.invoke (676 samples, 43.14%)</title><rect x="491.9" y="179.0" width="509.1" height="15" fill="#5dee5d" rx="2" ry="2"/>
<text x="494.9" y="190.0">one/nio/http/HttpClient.invoke</text>
</g>
<g>
<title>one/nio/http/HttpClient.invoke (676 samples, 43.14%)</title><rect x="491.9" y="163.0" width="509.1" height="15" fill="#50e150" rx="2" ry="2"/>
<text x="494.9" y="174.0">one/nio/http/HttpClient.invoke</text>
</g>
<g>
<title>one.nio.http.HttpClient$ResponseReader (1 samples, 0.06%)</title><rect x="491.9" y="147.0" width="0.8" height="15" fill="#63d1d1" rx="2" ry="2"/>
<text x="494.9" y="158.0"></text>
</g>
<g>
<title>one/nio/http/HttpClient$ResponseReader.&lt;init&gt; (641 samples, 40.91%)</title><rect x="492.7" y="147.0" width="482.7" height="15" fill="#53e453" rx="2" ry="2"/>
<text x="495.7" y="158.0">one/nio/http/HttpClient$ResponseReader.&lt;init&gt;</text>
</g>
<g>
<title>byte[] (238 samples, 15.19%)</title><rect x="492.7" y="131.0" width="179.2" height="15" fill="#5dcbcb" rx="2" ry="2"/>
<text x="495.7" y="142.0">byte[]</text>
</g>
<g>
<title>byte[] (403 samples, 25.72%)</title><rect x="671.9" y="131.0" width="303.5" height="15" fill="#e37f00" rx="2" ry="2"/>
<text x="674.9" y="142.0">byte[]</text>
</g>
<g>
<title>one/nio/http/HttpClient$ResponseReader.readResponse (25 samples, 1.60%)</title><rect x="975.4" y="147.0" width="18.8" height="15" fill="#67f867" rx="2" ry="2"/>
<text x="978.4" y="158.0"></text>
</g>
<g>
<title>java/lang/String.substring (2 samples, 0.13%)</title><rect x="975.4" y="131.0" width="1.5" height="15" fill="#67f867" rx="2" ry="2"/>
<text x="978.4" y="142.0"></text>
</g>
<g>
<title>java/lang/StringLatin1.newString (2 samples, 0.13%)</title><rect x="975.4" y="115.0" width="1.5" height="15" fill="#64f564" rx="2" ry="2"/>
<text x="978.4" y="126.0"></text>
</g>
<g>
<title>java/util/Arrays.copyOfRange (2 samples, 0.13%)</title><rect x="975.4" y="99.0" width="1.5" height="15" fill="#6bfc6b" rx="2" ry="2"/>
<text x="978.4" y="110.0"></text>
</g>
<g>
<title>byte[] (2 samples, 0.13%)</title><rect x="975.4" y="83.0" width="1.5" height="15" fill="#6ad8d8" rx="2" ry="2"/>
<text x="978.4" y="94.0"></text>
</g>
<g>
<title>one/nio/http/HttpClient$ResponseReader.readLine (22 samples, 1.40%)</title><rect x="976.9" y="131.0" width="16.6" height="15" fill="#51e251" rx="2" ry="2"/>
<text x="979.9" y="142.0"></text>
</g>
<g>
<title>one/nio/util/Utf8.read (22 samples, 1.40%)</title><rect x="976.9" y="115.0" width="16.6" height="15" fill="#51e251" rx="2" ry="2"/>
<text x="979.9" y="126.0"></text>
</g>
<g>
<title>one/nio/util/Utf8.read (22 samples, 1.40%)</title><rect x="976.9" y="99.0" width="16.6" height="15" fill="#5ff05f" rx="2" ry="2"/>
<text x="979.9" y="110.0"></text>
</g>
<g>
<title>char[] (16 samples, 1.02%)</title><rect x="976.9" y="83.0" width="12.0" height="15" fill="#55c3c3" rx="2" ry="2"/>
<text x="979.9" y="94.0"></text>
</g>
<g>
<title>java.lang.String (2 samples, 0.13%)</title><rect x="988.9" y="83.0" width="1.5" height="15" fill="#6bd9d9" rx="2" ry="2"/>
<text x="991.9" y="94.0"></text>
</g>
<g>
<title>java/lang/String.&lt;init&gt; (4 samples, 0.26%)</title><rect x="990.4" y="83.0" width="3.1" height="15" fill="#53e453" rx="2" ry="2"/>
<text x="993.4" y="94.0"></text>
</g>
<g>
<title>java/lang/String.&lt;init&gt; (4 samples, 0.26%)</title><rect x="990.4" y="67.0" width="3.1" height="15" fill="#5bec5b" rx="2" ry="2"/>
<text x="993.4" y="78.0"></text>
</g>
<g>
<title>java/lang/StringUTF16.compress (4 samples, 0.26%)</title><rect x="990.4" y="51.0" width="3.1" height="15" fill="#61f261" rx="2" ry="2"/>
<text x="993.4" y="62.0"></text>
</g>
<g>
<title>byte[] (4 samples, 0.26%)</title><rect x="990.4" y="35.0" width="3.1" height="15" fill="#63d1d1" rx="2" ry="2"/>
<text x="993.4" y="46.0"></text>
</g>
<g>
<title>one/nio/http/Response.&lt;init&gt; (1 samples, 0.06%)</title><rect x="993.5" y="131.0" width="0.7" height="15" fill="#65f665" rx="2" ry="2"/>
<text x="996.5" y="142.0"></text>
</g>
<g>
<title>java.lang.String[] (1 samples, 0.06%)</title><rect x="993.5" y="115.0" width="0.7" height="15" fill="#60cece" rx="2" ry="2"/>
<text x="996.5" y="126.0"></text>
</g>
<g>
<title>one/nio/http/Request.toBytes (7 samples, 0.45%)</title><rect x="994.2" y="147.0" width="5.3" height="15" fill="#5ced5c" rx="2" ry="2"/>
<text x="997.2" y="158.0"></text>
</g>
<g>
<title>one/nio/util/ByteArrayBuilder.&lt;init&gt; (7 samples, 0.45%)</title><rect x="994.2" y="131.0" width="5.3" height="15" fill="#68f968" rx="2" ry="2"/>
<text x="997.2" y="142.0"></text>
</g>
<g>
<title>byte[] (7 samples, 0.45%)</title><rect x="994.2" y="115.0" width="5.3" height="15" fill="#61cfcf" rx="2" ry="2"/>
<text x="997.2" y="126.0"></text>
</g>
<g>
<title>one/nio/http/Response.getHeader (1 samples, 0.06%)</title><rect x="999.5" y="147.0" width="0.7" height="15" fill="#6bfc6b" rx="2" ry="2"/>
<text x="1002.5" y="158.0"></text>
</g>
<g>
<title>java/lang/String.substring (1 samples, 0.06%)</title><rect x="999.5" y="131.0" width="0.7" height="15" fill="#56e756" rx="2" ry="2"/>
<text x="1002.5" y="142.0"></text>
</g>
<g>
<title>java/lang/StringLatin1.newString (1 samples, 0.06%)</title><rect x="999.5" y="115.0" width="0.7" height="15" fill="#67f867" rx="2" ry="2"/>
<text x="1002.5" y="126.0"></text>
</g>
<g>
<title>java.lang.String (1 samples, 0.06%)</title><rect x="999.5" y="99.0" width="0.7" height="15" fill="#5bc9c9" rx="2" ry="2"/>
<text x="1002.5" y="110.0"></text>
</g>
<g>
<title>one/nio/pool/Pool.returnObject (1 samples, 0.06%)</title><rect x="1000.2" y="147.0" width="0.8" height="15" fill="#5bec5b" rx="2" ry="2"/>
<text x="1003.2" y="158.0"></text>
</g>
<g>
<title>java/util/LinkedList.addFirst (1 samples, 0.06%)</title><rect x="1000.2" y="131.0" width="0.8" height="15" fill="#52e352" rx="2" ry="2"/>
<text x="1003.2" y="142.0"></text>
</g>
<g>
<title>java/util/LinkedList.linkFirst (1 samples, 0.06%)</title><rect x="1000.2" y="115.0" width="0.8" height="15" fill="#68f968" rx="2" ry="2"/>
<text x="1003.2" y="126.0"></text>
</g>
<g>
<title>java.util.LinkedList$Node (1 samples, 0.06%)</title><rect x="1000.2" y="99.0" width="0.8" height="15" fill="#5bc9c9" rx="2" ry="2"/>
<text x="1003.2" y="110.0"></text>
</g>
<g>
<title>ru/mail/polis/service/stasyanoi/Util.getResponseWithNoBody (16 samples, 1.02%)</title><rect x="1001.0" y="195.0" width="12.0" height="15" fill="#66f766" rx="2" ry="2"/>
<text x="1004.0" y="206.0"></text>
</g>
<g>
<title>one.nio.http.Response (8 samples, 0.51%)</title><rect x="1001.0" y="179.0" width="6.0" height="15" fill="#6cdada" rx="2" ry="2"/>
<text x="1004.0" y="190.0"></text>
</g>
<g>
<title>one/nio/http/Response.&lt;init&gt; (8 samples, 0.51%)</title><rect x="1007.0" y="179.0" width="6.0" height="15" fill="#69fa69" rx="2" ry="2"/>
<text x="1010.0" y="190.0"></text>
</g>
<g>
<title>java.lang.String[] (8 samples, 0.51%)</title><rect x="1007.0" y="163.0" width="6.0" height="15" fill="#68d6d6" rx="2" ry="2"/>
<text x="1010.0" y="174.0"></text>
</g>
<g>
<title>one/nio/server/SelectorThread.run (235 samples, 15.00%)</title><rect x="1013.0" y="323.0" width="177.0" height="15" fill="#65f665" rx="2" ry="2"/>
<text x="1016.0" y="334.0">one/nio/server/Selector..</text>
</g>
<g>
<title>one/nio/net/NativeSelector.select (52 samples, 3.32%)</title><rect x="1013.0" y="307.0" width="39.2" height="15" fill="#63f463" rx="2" ry="2"/>
<text x="1016.0" y="318.0">one..</text>
</g>
<g>
<title>one.nio.net.NativeSelector$2 (52 samples, 3.32%)</title><rect x="1013.0" y="291.0" width="39.2" height="15" fill="#5fcdcd" rx="2" ry="2"/>
<text x="1016.0" y="302.0">one..</text>
</g>
<g>
<title>one/nio/net/Session.process (183 samples, 11.68%)</title><rect x="1052.2" y="307.0" width="137.8" height="15" fill="#62f362" rx="2" ry="2"/>
<text x="1055.2" y="318.0">one/nio/net/Sessi..</text>
</g>
<g>
<title>one/nio/http/HttpSession.processRead (183 samples, 11.68%)</title><rect x="1052.2" y="291.0" width="137.8" height="15" fill="#5ff05f" rx="2" ry="2"/>
<text x="1055.2" y="302.0">one/nio/http/Http..</text>
</g>
<g>
<title>one/nio/http/HttpSession.processHttpBuffer (183 samples, 11.68%)</title><rect x="1052.2" y="275.0" width="137.8" height="15" fill="#61f261" rx="2" ry="2"/>
<text x="1055.2" y="286.0">one/nio/http/Http..</text>
</g>
<g>
<title>one/nio/http/HttpSession.handleParsedRequest (49 samples, 3.13%)</title><rect x="1052.2" y="259.0" width="36.9" height="15" fill="#64f564" rx="2" ry="2"/>
<text x="1055.2" y="270.0">one..</text>
</g>
<g>
<title>one/nio/http/HttpServer.handleRequest (49 samples, 3.13%)</title><rect x="1052.2" y="243.0" width="36.9" height="15" fill="#50e150" rx="2" ry="2"/>
<text x="1055.2" y="254.0">one..</text>
</g>
<g>
<title>RequestHandler1_put.handleRequest (39 samples, 2.49%)</title><rect x="1052.2" y="227.0" width="29.4" height="15" fill="#66f766" rx="2" ry="2"/>
<text x="1055.2" y="238.0">Re..</text>
</g>
<g>
<title>one/nio/http/Request.getRequiredParameter (16 samples, 1.02%)</title><rect x="1052.2" y="211.0" width="12.0" height="15" fill="#61f261" rx="2" ry="2"/>
<text x="1055.2" y="222.0"></text>
</g>
<g>
<title>one/nio/http/Request.getParameter (16 samples, 1.02%)</title><rect x="1052.2" y="195.0" width="12.0" height="15" fill="#54e554" rx="2" ry="2"/>
<text x="1055.2" y="206.0"></text>
</g>
<g>
<title>java/lang/String.substring (16 samples, 1.02%)</title><rect x="1052.2" y="179.0" width="12.0" height="15" fill="#54e554" rx="2" ry="2"/>
<text x="1055.2" y="190.0"></text>
</g>
<g>
<title>java/lang/StringLatin1.newString (16 samples, 1.02%)</title><rect x="1052.2" y="163.0" width="12.0" height="15" fill="#55e655" rx="2" ry="2"/>
<text x="1055.2" y="174.0"></text>
</g>
<g>
<title>java.lang.String (14 samples, 0.89%)</title><rect x="1052.2" y="147.0" width="10.5" height="15" fill="#67d5d5" rx="2" ry="2"/>
<text x="1055.2" y="158.0"></text>
</g>
<g>
<title>java/util/Arrays.copyOfRange (2 samples, 0.13%)</title><rect x="1062.7" y="147.0" width="1.5" height="15" fill="#69fa69" rx="2" ry="2"/>
<text x="1065.7" y="158.0"></text>
</g>
<g>
<title>byte[] (2 samples, 0.13%)</title><rect x="1062.7" y="131.0" width="1.5" height="15" fill="#66d4d4" rx="2" ry="2"/>
<text x="1065.7" y="142.0"></text>
</g>
<g>
<title>ru/mail/polis/service/stasyanoi/CustomServer.put (23 samples, 1.47%)</title><rect x="1064.2" y="211.0" width="17.4" height="15" fill="#55e655" rx="2" ry="2"/>
<text x="1067.2" y="222.0"></text>
</g>
<g>
<title>ru/mail/polis/service/stasyanoi/CustomServer.runPut (23 samples, 1.47%)</title><rect x="1064.2" y="195.0" width="17.4" height="15" fill="#64f564" rx="2" ry="2"/>
<text x="1067.2" y="206.0"></text>
</g>
<g>
<title>java/lang/invoke/Invokers$Holder.linkToTargetMethod (15 samples, 0.96%)</title><rect x="1064.2" y="179.0" width="11.3" height="15" fill="#59ea59" rx="2" ry="2"/>
<text x="1067.2" y="190.0"></text>
</g>
<g>
<title>java/lang/invoke/DirectMethodHandle$Holder.invokeStatic (15 samples, 0.96%)</title><rect x="1064.2" y="163.0" width="11.3" height="15" fill="#53e453" rx="2" ry="2"/>
<text x="1067.2" y="174.0"></text>
</g>
<g>
<title>ru/mail/polis/service/stasyanoi/CustomServer$$Lambda$76/378698550.get$Lambda (15 samples, 0.96%)</title><rect x="1064.2" y="147.0" width="11.3" height="15" fill="#6afb6a" rx="2" ry="2"/>
<text x="1067.2" y="158.0"></text>
</g>
<g>
<title>ru.mail.polis.service.stasyanoi.CustomServer$$Lambda$76 (15 samples, 0.96%)</title><rect x="1064.2" y="131.0" width="11.3" height="15" fill="#53c1c1" rx="2" ry="2"/>
<text x="1067.2" y="142.0"></text>
</g>
<g>
<title>java/util/concurrent/ThreadPoolExecutor.execute (5 samples, 0.32%)</title><rect x="1075.5" y="179.0" width="3.8" height="15" fill="#5eef5e" rx="2" ry="2"/>
<text x="1078.5" y="190.0"></text>
</g>
<g>
<title>java/util/concurrent/LinkedBlockingQueue.offer (5 samples, 0.32%)</title><rect x="1075.5" y="163.0" width="3.8" height="15" fill="#58e958" rx="2" ry="2"/>
<text x="1078.5" y="174.0"></text>
</g>
<g>
<title>java.util.concurrent.LinkedBlockingQueue$Node (5 samples, 0.32%)</title><rect x="1075.5" y="147.0" width="3.8" height="15" fill="#55c3c3" rx="2" ry="2"/>
<text x="1078.5" y="158.0"></text>
</g>
<g>
<title>ru/mail/polis/service/stasyanoi/CustomExecutor.setSessionForRejectedError (3 samples, 0.19%)</title><rect x="1079.3" y="179.0" width="2.3" height="15" fill="#58e958" rx="2" ry="2"/>
<text x="1082.3" y="190.0"></text>
</g>
<g>
<title>java/lang/invoke/Invokers$Holder.linkToTargetMethod (3 samples, 0.19%)</title><rect x="1079.3" y="163.0" width="2.3" height="15" fill="#63f463" rx="2" ry="2"/>
<text x="1082.3" y="174.0"></text>
</g>
<g>
<title>java/lang/invoke/DirectMethodHandle$Holder.invokeStatic (3 samples, 0.19%)</title><rect x="1079.3" y="147.0" width="2.3" height="15" fill="#6cfd6c" rx="2" ry="2"/>
<text x="1082.3" y="158.0"></text>
</g>
<g>
<title>ru/mail/polis/service/stasyanoi/CustomExecutor$$Lambda$75/659549210.get$Lambda (3 samples, 0.19%)</title><rect x="1079.3" y="131.0" width="2.3" height="15" fill="#56e756" rx="2" ry="2"/>
<text x="1082.3" y="142.0"></text>
</g>
<g>
<title>ru.mail.polis.service.stasyanoi.CustomExecutor$$Lambda$75 (3 samples, 0.19%)</title><rect x="1079.3" y="115.0" width="2.3" height="15" fill="#5fcdcd" rx="2" ry="2"/>
<text x="1082.3" y="126.0"></text>
</g>
<g>
<title>one/nio/http/Request.getPath (10 samples, 0.64%)</title><rect x="1081.6" y="227.0" width="7.5" height="15" fill="#67f867" rx="2" ry="2"/>
<text x="1084.6" y="238.0"></text>
</g>
<g>
<title>java/lang/String.substring (10 samples, 0.64%)</title><rect x="1081.6" y="211.0" width="7.5" height="15" fill="#6cfd6c" rx="2" ry="2"/>
<text x="1084.6" y="222.0"></text>
</g>
<g>
<title>java/lang/StringLatin1.newString (10 samples, 0.64%)</title><rect x="1081.6" y="195.0" width="7.5" height="15" fill="#54e554" rx="2" ry="2"/>
<text x="1084.6" y="206.0"></text>
</g>
<g>
<title>java.lang.String (5 samples, 0.32%)</title><rect x="1081.6" y="179.0" width="3.7" height="15" fill="#58c6c6" rx="2" ry="2"/>
<text x="1084.6" y="190.0"></text>
</g>
<g>
<title>java/util/Arrays.copyOfRange (5 samples, 0.32%)</title><rect x="1085.3" y="179.0" width="3.8" height="15" fill="#60f160" rx="2" ry="2"/>
<text x="1088.3" y="190.0"></text>
</g>
<g>
<title>byte[] (5 samples, 0.32%)</title><rect x="1085.3" y="163.0" width="3.8" height="15" fill="#63d1d1" rx="2" ry="2"/>
<text x="1088.3" y="174.0"></text>
</g>
<g>
<title>one/nio/http/HttpSession.parseRequest (56 samples, 3.57%)</title><rect x="1089.1" y="259.0" width="42.2" height="15" fill="#6afb6a" rx="2" ry="2"/>
<text x="1092.1" y="270.0">one/..</text>
</g>
<g>
<title>one.nio.http.Request (10 samples, 0.64%)</title><rect x="1089.1" y="243.0" width="7.5" height="15" fill="#56c4c4" rx="2" ry="2"/>
<text x="1092.1" y="254.0"></text>
</g>
<g>
<title>one/nio/http/Request.&lt;init&gt; (16 samples, 1.02%)</title><rect x="1096.6" y="243.0" width="12.1" height="15" fill="#64f564" rx="2" ry="2"/>
<text x="1099.6" y="254.0"></text>
</g>
<g>
<title>java.lang.String[] (16 samples, 1.02%)</title><rect x="1096.6" y="227.0" width="12.1" height="15" fill="#62d0d0" rx="2" ry="2"/>
<text x="1099.6" y="238.0"></text>
</g>
<g>
<title>one/nio/util/Utf8.read (30 samples, 1.91%)</title><rect x="1108.7" y="243.0" width="22.6" height="15" fill="#68f968" rx="2" ry="2"/>
<text x="1111.7" y="254.0">o..</text>
</g>
<g>
<title>one/nio/util/Utf8.read (30 samples, 1.91%)</title><rect x="1108.7" y="227.0" width="22.6" height="15" fill="#68f968" rx="2" ry="2"/>
<text x="1111.7" y="238.0">o..</text>
</g>
<g>
<title>char[] (12 samples, 0.77%)</title><rect x="1108.7" y="211.0" width="9.0" height="15" fill="#67d5d5" rx="2" ry="2"/>
<text x="1111.7" y="222.0"></text>
</g>
<g>
<title>java.lang.String (7 samples, 0.45%)</title><rect x="1117.7" y="211.0" width="5.3" height="15" fill="#50bebe" rx="2" ry="2"/>
<text x="1120.7" y="222.0"></text>
</g>
<g>
<title>java/lang/String.&lt;init&gt; (11 samples, 0.70%)</title><rect x="1123.0" y="211.0" width="8.3" height="15" fill="#61f261" rx="2" ry="2"/>
<text x="1126.0" y="222.0"></text>
</g>
<g>
<title>java/lang/String.&lt;init&gt; (11 samples, 0.70%)</title><rect x="1123.0" y="195.0" width="8.3" height="15" fill="#62f362" rx="2" ry="2"/>
<text x="1126.0" y="206.0"></text>
</g>
<g>
<title>java/lang/StringUTF16.compress (11 samples, 0.70%)</title><rect x="1123.0" y="179.0" width="8.3" height="15" fill="#66f766" rx="2" ry="2"/>
<text x="1126.0" y="190.0"></text>
</g>
<g>
<title>byte[] (11 samples, 0.70%)</title><rect x="1123.0" y="163.0" width="8.3" height="15" fill="#67d5d5" rx="2" ry="2"/>
<text x="1126.0" y="174.0"></text>
</g>
<g>
<title>one/nio/http/HttpSession.startParsingRequestBody (4 samples, 0.26%)</title><rect x="1131.3" y="259.0" width="3.0" height="15" fill="#58e958" rx="2" ry="2"/>
<text x="1134.3" y="270.0"></text>
</g>
<g>
<title>byte[] (4 samples, 0.26%)</title><rect x="1131.3" y="243.0" width="3.0" height="15" fill="#52c0c0" rx="2" ry="2"/>
<text x="1134.3" y="254.0"></text>
</g>
<g>
<title>one/nio/http/Request.getHeader (15 samples, 0.96%)</title><rect x="1134.3" y="259.0" width="11.3" height="15" fill="#6afb6a" rx="2" ry="2"/>
<text x="1137.3" y="270.0"></text>
</g>
<g>
<title>java/lang/String.substring (15 samples, 0.96%)</title><rect x="1134.3" y="243.0" width="11.3" height="15" fill="#55e655" rx="2" ry="2"/>
<text x="1137.3" y="254.0"></text>
</g>
<g>
<title>java/lang/StringLatin1.newString (15 samples, 0.96%)</title><rect x="1134.3" y="227.0" width="11.3" height="15" fill="#55e655" rx="2" ry="2"/>
<text x="1137.3" y="238.0"></text>
</g>
<g>
<title>java.lang.String (7 samples, 0.45%)</title><rect x="1134.3" y="211.0" width="5.2" height="15" fill="#5ac8c8" rx="2" ry="2"/>
<text x="1137.3" y="222.0"></text>
</g>
<g>
<title>java/util/Arrays.copyOfRange (8 samples, 0.51%)</title><rect x="1139.5" y="211.0" width="6.1" height="15" fill="#5dee5d" rx="2" ry="2"/>
<text x="1142.5" y="222.0"></text>
</g>
<g>
<title>byte[] (8 samples, 0.51%)</title><rect x="1139.5" y="195.0" width="6.1" height="15" fill="#5bc9c9" rx="2" ry="2"/>
<text x="1142.5" y="206.0"></text>
</g>
<g>
<title>one/nio/util/Utf8.read (59 samples, 3.77%)</title><rect x="1145.6" y="259.0" width="44.4" height="15" fill="#63f463" rx="2" ry="2"/>
<text x="1148.6" y="270.0">one/..</text>
</g>
<g>
<title>one/nio/util/Utf8.read (59 samples, 3.77%)</title><rect x="1145.6" y="243.0" width="44.4" height="15" fill="#53e453" rx="2" ry="2"/>
<text x="1148.6" y="254.0">one/..</text>
</g>
<g>
<title>char[] (27 samples, 1.72%)</title><rect x="1145.6" y="227.0" width="20.3" height="15" fill="#59c7c7" rx="2" ry="2"/>
<text x="1148.6" y="238.0"></text>
</g>
<g>
<title>java.lang.String (5 samples, 0.32%)</title><rect x="1165.9" y="227.0" width="3.8" height="15" fill="#6ad8d8" rx="2" ry="2"/>
<text x="1168.9" y="238.0"></text>
</g>
<g>
<title>java/lang/String.&lt;init&gt; (27 samples, 1.72%)</title><rect x="1169.7" y="227.0" width="20.3" height="15" fill="#62f362" rx="2" ry="2"/>
<text x="1172.7" y="238.0"></text>
</g>
<g>
<title>java/lang/String.&lt;init&gt; (27 samples, 1.72%)</title><rect x="1169.7" y="211.0" width="20.3" height="15" fill="#53e453" rx="2" ry="2"/>
<text x="1172.7" y="222.0"></text>
</g>
<g>
<title>java/lang/StringUTF16.compress (27 samples, 1.72%)</title><rect x="1169.7" y="195.0" width="20.3" height="15" fill="#68f968" rx="2" ry="2"/>
<text x="1172.7" y="206.0"></text>
</g>
<g>
<title>byte[] (27 samples, 1.72%)</title><rect x="1169.7" y="179.0" width="20.3" height="15" fill="#66d4d4" rx="2" ry="2"/>
<text x="1172.7" y="190.0"></text>
</g>
</g>
</svg>
