<?xml version="1.0" standalone="no"?>
<!DOCTYPE svg PUBLIC "-//W3C//DTD SVG 1.1//EN" "http://www.w3.org/Graphics/SVG/1.1/DTD/svg11.dtd">
<svg version="1.1" width="1200" height="422" onload="init(evt)" viewBox="0 0 1200 422" xmlns="http://www.w3.org/2000/svg" xmlns:xlink="http://www.w3.org/1999/xlink">
<style type="text/css">
	text { font-family:Verdana; font-size:12px; fill:rgb(0,0,0); }
	#search { opacity:0.1; cursor:pointer; }
	#search:hover, #search.show { opacity:1; }
	#subtitle { text-anchor:middle; font-color:rgb(160,160,160); }
	#title { text-anchor:middle; font-size:17px}
	#unzoom { cursor:pointer; }
	#frames > *:hover { stroke:black; stroke-width:0.5; cursor:pointer; }
	.hide { display:none; }
	.parent { opacity:0.5; }
</style>
<script type="text/ecmascript">
<![CDATA[
	"use strict";
	var details, searchbtn, unzoombtn, matchedtxt, svg, searching;
	function init(evt) {
		details = document.getElementById("details").firstChild;
		searchbtn = document.getElementById("search");
		unzoombtn = document.getElementById("unzoom");
		matchedtxt = document.getElementById("matched");
		svg = document.getElementsByTagName("svg")[0];
		searching = 0;
	}

	window.addEventListener("click", function(e) {
		var target = find_group(e.target);
		if (target) {
			if (target.nodeName == "a") {
				if (e.ctrlKey === false) return;
				e.preventDefault();
			}
			if (target.classList.contains("parent")) unzoom();
			zoom(target);
		}
		else if (e.target.id == "unzoom") unzoom();
		else if (e.target.id == "search") search_prompt();
	}, false)

	// mouse-over for info
	// show
	window.addEventListener("mouseover", function(e) {
		var target = find_group(e.target);
		if (target) details.nodeValue = "Function: " + g_to_text(target);
	}, false)

	// clear
	window.addEventListener("mouseout", function(e) {
		var target = find_group(e.target);
		if (target) details.nodeValue = ' ';
	}, false)

	// ctrl-F for search
	window.addEventListener("keydown",function (e) {
		if (e.keyCode === 114 || (e.ctrlKey && e.keyCode === 70)) {
			e.preventDefault();
			search_prompt();
		}
	}, false)

	// functions
	function find_child(node, selector) {
		var children = node.querySelectorAll(selector);
		if (children.length) return children[0];
		return;
	}
	function find_group(node) {
		var parent = node.parentElement;
		if (!parent) return;
		if (parent.id == "frames") return node;
		return find_group(parent);
	}
	function orig_save(e, attr, val) {
		if (e.attributes["_orig_" + attr] != undefined) return;
		if (e.attributes[attr] == undefined) return;
		if (val == undefined) val = e.attributes[attr].value;
		e.setAttribute("_orig_" + attr, val);
	}
	function orig_load(e, attr) {
		if (e.attributes["_orig_"+attr] == undefined) return;
		e.attributes[attr].value = e.attributes["_orig_" + attr].value;
		e.removeAttribute("_orig_"+attr);
	}
	function g_to_text(e) {
		var text = find_child(e, "title").firstChild.nodeValue;
		return (text)
	}
	function g_to_func(e) {
		var func = g_to_text(e);
		// if there's any manipulation we want to do to the function
		// name before it's searched, do it here before returning.
		return (func);
	}
	function update_text(e) {
		var r = find_child(e, "rect");
		var t = find_child(e, "text");
		var w = parseFloat(r.attributes.width.value) -3;
		var txt = find_child(e, "title").textContent.replace(/\([^(]*\)$/,"");
		t.attributes.x.value = parseFloat(r.attributes.x.value) + 3;

		// Smaller than this size won't fit anything
		if (w < 2 * 12 * 0.59) {
			t.textContent = "";
			return;
		}

		t.textContent = txt;
		// Fit in full text width
		if (/^ *$/.test(txt) || t.getSubStringLength(0, txt.length) < w)
			return;

		for (var x = txt.length - 2; x > 0; x--) {
			if (t.getSubStringLength(0, x + 2) <= w) {
				t.textContent = txt.substring(0, x) + "..";
				return;
			}
		}
		t.textContent = "";
	}

	// zoom
	function zoom_reset(e) {
		if (e.attributes != undefined) {
			orig_load(e, "x");
			orig_load(e, "width");
		}
		if (e.childNodes == undefined) return;
		for (var i = 0, c = e.childNodes; i < c.length; i++) {
			zoom_reset(c[i]);
		}
	}
	function zoom_child(e, x, ratio) {
		if (e.attributes != undefined) {
			if (e.attributes.x != undefined) {
				orig_save(e, "x");
				e.attributes.x.value = (parseFloat(e.attributes.x.value) - x - 10) * ratio + 10;
				if (e.tagName == "text")
					e.attributes.x.value = find_child(e.parentNode, "rect[x]").attributes.x.value + 3;
			}
			if (e.attributes.width != undefined) {
				orig_save(e, "width");
				e.attributes.width.value = parseFloat(e.attributes.width.value) * ratio;
			}
		}

		if (e.childNodes == undefined) return;
		for (var i = 0, c = e.childNodes; i < c.length; i++) {
			zoom_child(c[i], x - 10, ratio);
		}
	}
	function zoom_parent(e) {
		if (e.attributes) {
			if (e.attributes.x != undefined) {
				orig_save(e, "x");
				e.attributes.x.value = 10;
			}
			if (e.attributes.width != undefined) {
				orig_save(e, "width");
				e.attributes.width.value = parseInt(svg.width.baseVal.value) - (10 * 2);
			}
		}
		if (e.childNodes == undefined) return;
		for (var i = 0, c = e.childNodes; i < c.length; i++) {
			zoom_parent(c[i]);
		}
	}
	function zoom(node) {
		var attr = find_child(node, "rect").attributes;
		var width = parseFloat(attr.width.value);
		var xmin = parseFloat(attr.x.value);
		var xmax = parseFloat(xmin + width);
		var ymin = parseFloat(attr.y.value);
		var ratio = (svg.width.baseVal.value - 2 * 10) / width;

		// XXX: Workaround for JavaScript float issues (fix me)
		var fudge = 0.0001;

		unzoombtn.classList.remove("hide");

		var el = document.getElementById("frames").children;
		for (var i = 0; i < el.length; i++) {
			var e = el[i];
			var a = find_child(e, "rect").attributes;
			var ex = parseFloat(a.x.value);
			var ew = parseFloat(a.width.value);
			var upstack;
			// Is it an ancestor
			if (0 == 0) {
				upstack = parseFloat(a.y.value) > ymin;
			} else {
				upstack = parseFloat(a.y.value) < ymin;
			}
			if (upstack) {
				// Direct ancestor
				if (ex <= xmin && (ex+ew+fudge) >= xmax) {
					e.classList.add("parent");
					zoom_parent(e);
					update_text(e);
				}
				// not in current path
				else
					e.classList.add("hide");
			}
			// Children maybe
			else {
				// no common path
				if (ex < xmin || ex + fudge >= xmax) {
					e.classList.add("hide");
				}
				else {
					zoom_child(e, xmin, ratio);
					update_text(e);
				}
			}
		}
	}
	function unzoom() {
		unzoombtn.classList.add("hide");
		var el = document.getElementById("frames").children;
		for(var i = 0; i < el.length; i++) {
			el[i].classList.remove("parent");
			el[i].classList.remove("hide");
			zoom_reset(el[i]);
			update_text(el[i]);
		}
	}

	// search
	function reset_search() {
		var el = document.querySelectorAll("#frames rect");
		for (var i = 0; i < el.length; i++) {
			orig_load(el[i], "fill")
		}
	}
	function search_prompt() {
		if (!searching) {
			var term = prompt("Enter a search term (regexp " +
			    "allowed, eg: ^ext4_)", "");
			if (term != null) {
				search(term)
			}
		} else {
			reset_search();
			searching = 0;
			searchbtn.classList.remove("show");
			searchbtn.firstChild.nodeValue = "Search"
			matchedtxt.classList.add("hide");
			matchedtxt.firstChild.nodeValue = ""
		}
	}
	function search(term) {
		var re = new RegExp(term);
		var el = document.getElementById("frames").children;
		var matches = new Object();
		var maxwidth = 0;
		for (var i = 0; i < el.length; i++) {
			var e = el[i];
			var func = g_to_func(e);
			var rect = find_child(e, "rect");
			if (func == null || rect == null)
				continue;

			// Save max width. Only works as we have a root frame
			var w = parseFloat(rect.attributes.width.value);
			if (w > maxwidth)
				maxwidth = w;

			if (func.match(re)) {
				// highlight
				var x = parseFloat(rect.attributes.x.value);
				orig_save(rect, "fill");
				rect.attributes.fill.value = "rgb(230,0,230)";

				// remember matches
				if (matches[x] == undefined) {
					matches[x] = w;
				} else {
					if (w > matches[x]) {
						// overwrite with parent
						matches[x] = w;
					}
				}
				searching = 1;
			}
		}
		if (!searching)
			return;

		searchbtn.classList.add("show");
		searchbtn.firstChild.nodeValue = "Reset Search";

		// calculate percent matched, excluding vertical overlap
		var count = 0;
		var lastx = -1;
		var lastw = 0;
		var keys = Array();
		for (k in matches) {
			if (matches.hasOwnProperty(k))
				keys.push(k);
		}
		// sort the matched frames by their x location
		// ascending, then width descending
		keys.sort(function(a, b){
			return a - b;
		});
		// Step through frames saving only the biggest bottom-up frames
		// thanks to the sort order. This relies on the tree property
		// where children are always smaller than their parents.
		var fudge = 0.0001;	// JavaScript floating point
		for (var k in keys) {
			var x = parseFloat(keys[k]);
			var w = matches[keys[k]];
			if (x >= lastx + lastw - fudge) {
				count += w;
				lastx = x;
				lastw = w;
			}
		}
		// display matched percent
		matchedtxt.classList.remove("hide");
		var pct = 100 * count / maxwidth;
		if (pct != 100) pct = pct.toFixed(1)
		matchedtxt.firstChild.nodeValue = "Matched: " + pct + "%";
	}
]]>
</script>
<rect x="0" y="0" width="100%" height="100%" fill="rgb(240,240,220)"/>
<text id="title" x="600" y="24">Flame Graph</text>
<text id="details" x="10" y="405"> </text>
<text id="unzoom" x="10" y="24" class="hide">Reset Zoom</text>
<text id="search" x="1090" y="24">Search</text>
<text id="matched" x="1090" y="405"> </text>
<g id="frames">
<g>
<title>all (2,050 samples, 100.00%)</title><rect x="10.0" y="371.0" width="1180.0" height="15" fill="#f87979" rx="2" ry="2"/>
<text x="13.0" y="382.0">all</text>
</g>
<g>
<title>java/lang/Thread.run (1,792 samples, 87.41%)</title><rect x="10.0" y="355.0" width="1031.5" height="15" fill="#5ff05f" rx="2" ry="2"/>
<text x="13.0" y="366.0">java/lang/Thread.run</text>
</g>
<g>
<title>java/util/concurrent/ThreadPoolExecutor$Worker.run (1,792 samples, 87.41%)</title><rect x="10.0" y="339.0" width="1031.5" height="15" fill="#6bfc6b" rx="2" ry="2"/>
<text x="13.0" y="350.0">java/util/concurrent/ThreadPoolExecutor$Worker.run</text>
</g>
<g>
<title>java/util/concurrent/ThreadPoolExecutor.runWorker (1,792 samples, 87.41%)</title><rect x="10.0" y="323.0" width="1031.5" height="15" fill="#5ced5c" rx="2" ry="2"/>
<text x="13.0" y="334.0">java/util/concurrent/ThreadPoolExecutor.runWorker</text>
</g>
<g>
<title>java/util/concurrent/ThreadPoolExecutor.getTask (16 samples, 0.78%)</title><rect x="10.0" y="307.0" width="9.2" height="15" fill="#67f867" rx="2" ry="2"/>
<text x="13.0" y="318.0"></text>
</g>
<g>
<title>java/util/concurrent/LinkedBlockingQueue.take (16 samples, 0.78%)</title><rect x="10.0" y="291.0" width="9.2" height="15" fill="#54e554" rx="2" ry="2"/>
<text x="13.0" y="302.0"></text>
</g>
<g>
<title>java/util/concurrent/locks/AbstractQueuedSynchronizer$ConditionObject.await (16 samples, 0.78%)</title><rect x="10.0" y="275.0" width="9.2" height="15" fill="#65f665" rx="2" ry="2"/>
<text x="13.0" y="286.0"></text>
</g>
<g>
<title>java/util/concurrent/locks/AbstractQueuedSynchronizer$ConditionObject.addConditionWaiter (16 samples, 0.78%)</title><rect x="10.0" y="259.0" width="9.2" height="15" fill="#56e756" rx="2" ry="2"/>
<text x="13.0" y="270.0"></text>
</g>
<g>
<title>java.util.concurrent.locks.AbstractQueuedSynchronizer$Node (16 samples, 0.78%)</title><rect x="10.0" y="243.0" width="9.2" height="15" fill="#61cfcf" rx="2" ry="2"/>
<text x="13.0" y="254.0"></text>
</g>
<g>
<title>ru/mail/polis/service/stasyanoi/CustomServer$$Lambda$67/393605361.run (1,776 samples, 86.63%)</title><rect x="19.2" y="307.0" width="1022.3" height="15" fill="#50e150" rx="2" ry="2"/>
<text x="22.2" y="318.0">ru/mail/polis/service/stasyanoi/CustomServer$$Lambda$67/393605361.run</text>
</g>
<g>
<title>ru/mail/polis/service/stasyanoi/CustomServer.lambda$runPut$1 (1,776 samples, 86.63%)</title><rect x="19.2" y="291.0" width="1022.3" height="15" fill="#68f968" rx="2" ry="2"/>
<text x="22.2" y="302.0">ru/mail/polis/service/stasyanoi/CustomServer.lambda$runPut$1</text>
</g>
<g>
<title>ru/mail/polis/service/stasyanoi/CustomServer.putInternal (1,776 samples, 86.63%)</title><rect x="19.2" y="275.0" width="1022.3" height="15" fill="#5eef5e" rx="2" ry="2"/>
<text x="22.2" y="286.0">ru/mail/polis/service/stasyanoi/CustomServer.putInternal</text>
</g>
<g>
<title>one/nio/http/HttpSession.sendResponse (61 samples, 2.98%)</title><rect x="19.2" y="259.0" width="35.1" height="15" fill="#5ff05f" rx="2" ry="2"/>
<text x="22.2" y="270.0">one..</text>
</g>
<g>
<title>one/nio/http/HttpSession.writeResponse (61 samples, 2.98%)</title><rect x="19.2" y="243.0" width="35.1" height="15" fill="#67f867" rx="2" ry="2"/>
<text x="22.2" y="254.0">one..</text>
</g>
<g>
<title>one/nio/http/Response.toBytes (42 samples, 2.05%)</title><rect x="19.2" y="227.0" width="24.2" height="15" fill="#53e453" rx="2" ry="2"/>
<text x="22.2" y="238.0">o..</text>
</g>
<g>
<title>one/nio/util/ByteArrayBuilder.&lt;init&gt; (42 samples, 2.05%)</title><rect x="19.2" y="211.0" width="24.2" height="15" fill="#55e655" rx="2" ry="2"/>
<text x="22.2" y="222.0">o..</text>
</g>
<g>
<title>byte[] (42 samples, 2.05%)</title><rect x="19.2" y="195.0" width="24.2" height="15" fill="#67d5d5" rx="2" ry="2"/>
<text x="22.2" y="206.0">b..</text>
</g>
<g>
<title>one/nio/net/Session.write (19 samples, 0.93%)</title><rect x="43.4" y="227.0" width="10.9" height="15" fill="#6bfc6b" rx="2" ry="2"/>
<text x="46.4" y="238.0"></text>
</g>
<g>
<title>one.nio.net.Session$ArrayQueueItem (19 samples, 0.93%)</title><rect x="43.4" y="211.0" width="10.9" height="15" fill="#60cece" rx="2" ry="2"/>
<text x="46.4" y="222.0"></text>
</g>
<g>
<title>ru/mail/polis/service/stasyanoi/CustomServer.getPutResponse (1,715 samples, 83.66%)</title><rect x="54.3" y="259.0" width="987.2" height="15" fill="#58e958" rx="2" ry="2"/>
<text x="57.3" y="270.0">ru/mail/polis/service/stasyanoi/CustomServer.getPutResponse</text>
</g>
<g>
<title>java/lang/String.getBytes (51 samples, 2.49%)</title><rect x="54.3" y="243.0" width="29.4" height="15" fill="#57e857" rx="2" ry="2"/>
<text x="57.3" y="254.0">ja..</text>
</g>
<g>
<title>java/lang/StringCoding.encode (51 samples, 2.49%)</title><rect x="54.3" y="227.0" width="29.4" height="15" fill="#55e655" rx="2" ry="2"/>
<text x="57.3" y="238.0">ja..</text>
</g>
<g>
<title>java/lang/StringCoding.encodeUTF8 (51 samples, 2.49%)</title><rect x="54.3" y="211.0" width="29.4" height="15" fill="#50e150" rx="2" ry="2"/>
<text x="57.3" y="222.0">ja..</text>
</g>
<g>
<title>java/util/Arrays.copyOf (51 samples, 2.49%)</title><rect x="54.3" y="195.0" width="29.4" height="15" fill="#53e453" rx="2" ry="2"/>
<text x="57.3" y="206.0">ja..</text>
</g>
<g>
<title>byte[] (51 samples, 2.49%)</title><rect x="54.3" y="179.0" width="29.4" height="15" fill="#65d3d3" rx="2" ry="2"/>
<text x="57.3" y="190.0">by..</text>
</g>
<g>
<title>ru/mail/polis/service/stasyanoi/CustomServer.putProxy (1,664 samples, 81.17%)</title><rect x="83.7" y="243.0" width="957.8" height="15" fill="#62f362" rx="2" ry="2"/>
<text x="86.7" y="254.0">ru/mail/polis/service/stasyanoi/CustomServer.putProxy</text>
</g>
<g>
<title>ru/mail/polis/dao/stasyanoi/DAOImpl.upsert (445 samples, 21.71%)</title><rect x="83.7" y="227.0" width="256.1" height="15" fill="#56e756" rx="2" ry="2"/>
<text x="86.7" y="238.0">ru/mail/polis/dao/stasyanoi/DAOImp..</text>
</g>
<g>
<title>org/rocksdb/RocksDB.put (429 samples, 20.93%)</title><rect x="83.7" y="211.0" width="246.9" height="15" fill="#64f564" rx="2" ry="2"/>
<text x="86.7" y="222.0">org/rocksdb/RocksDB.put</text>
</g>
<g>
<title>org/rocksdb/RocksDB.put (429 samples, 20.93%)</title><rect x="83.7" y="195.0" width="246.9" height="15" fill="#6cfd6c" rx="2" ry="2"/>
<text x="86.7" y="206.0">org/rocksdb/RocksDB.put</text>
</g>
<g>
<title>ru/mail/polis/dao/stasyanoi/ComparatorImpl.compare (429 samples, 20.93%)</title><rect x="83.7" y="179.0" width="246.9" height="15" fill="#67f867" rx="2" ry="2"/>
<text x="86.7" y="190.0">ru/mail/polis/dao/stasyanoi/Compa..</text>
</g>
<g>
<title>ru/mail/polis/dao/stasyanoi/ComparatorImpl.compare (429 samples, 20.93%)</title><rect x="83.7" y="163.0" width="246.9" height="15" fill="#65f665" rx="2" ry="2"/>
<text x="86.7" y="174.0">ru/mail/polis/dao/stasyanoi/Compa..</text>
</g>
<g>
<title>org/rocksdb/AbstractSlice.data (429 samples, 20.93%)</title><rect x="83.7" y="147.0" width="246.9" height="15" fill="#65f665" rx="2" ry="2"/>
<text x="86.7" y="158.0">org/rocksdb/AbstractSlice.data</text>
</g>
<g>
<title>org/rocksdb/Slice.data0 (429 samples, 20.93%)</title><rect x="83.7" y="131.0" width="246.9" height="15" fill="#59ea59" rx="2" ry="2"/>
<text x="86.7" y="142.0">org/rocksdb/Slice.data0</text>
</g>
<g>
<title>org/rocksdb/Slice.data0 (429 samples, 20.93%)</title><rect x="83.7" y="115.0" width="246.9" height="15" fill="#63f463" rx="2" ry="2"/>
<text x="86.7" y="126.0">org/rocksdb/Slice.data0</text>
</g>
<g>
<title>byte[] (429 samples, 20.93%)</title><rect x="83.7" y="99.0" width="246.9" height="15" fill="#54c2c2" rx="2" ry="2"/>
<text x="86.7" y="110.0">byte[]</text>
</g>
<g>
<title>ru/mail/polis/service/Mapper.toBytes (16 samples, 0.78%)</title><rect x="330.6" y="211.0" width="9.2" height="15" fill="#52e352" rx="2" ry="2"/>
<text x="333.6" y="222.0"></text>
</g>
<g>
<title>byte[] (16 samples, 0.78%)</title><rect x="330.6" y="195.0" width="9.2" height="15" fill="#67d5d5" rx="2" ry="2"/>
<text x="333.6" y="206.0"></text>
</g>
<g>
<title>ru/mail/polis/service/Mapper.fromBytes (32 samples, 1.56%)</title><rect x="339.8" y="227.0" width="18.4" height="15" fill="#69fa69" rx="2" ry="2"/>
<text x="342.8" y="238.0"></text>
</g>
<g>
<title>java/nio/ByteBuffer.wrap (32 samples, 1.56%)</title><rect x="339.8" y="211.0" width="18.4" height="15" fill="#59ea59" rx="2" ry="2"/>
<text x="342.8" y="222.0"></text>
</g>
<g>
<title>java/nio/ByteBuffer.wrap (32 samples, 1.56%)</title><rect x="339.8" y="195.0" width="18.4" height="15" fill="#5bec5b" rx="2" ry="2"/>
<text x="342.8" y="206.0"></text>
</g>
<g>
<title>java.nio.HeapByteBuffer (32 samples, 1.56%)</title><rect x="339.8" y="179.0" width="18.4" height="15" fill="#6ad8d8" rx="2" ry="2"/>
<text x="342.8" y="190.0"></text>
</g>
<g>
<title>ru/mail/polis/service/stasyanoi/CustomServer.routeRequest (1,173 samples, 57.22%)</title><rect x="358.2" y="227.0" width="675.2" height="15" fill="#54e554" rx="2" ry="2"/>
<text x="361.2" y="238.0">ru/mail/polis/service/stasyanoi/CustomServer.routeRequest</text>
</g>
<g>
<title>one.nio.http.HttpClient (6 samples, 0.29%)</title><rect x="358.2" y="211.0" width="3.5" height="15" fill="#69d7d7" rx="2" ry="2"/>
<text x="361.2" y="222.0"></text>
</g>
<g>
<title>one/nio/http/HttpClient.&lt;init&gt; (7 samples, 0.34%)</title><rect x="361.7" y="211.0" width="4.0" height="15" fill="#5bec5b" rx="2" ry="2"/>
<text x="364.7" y="222.0"></text>
</g>
<g>
<title>byte[] (1 samples, 0.05%)</title><rect x="361.7" y="195.0" width="0.6" height="15" fill="#6bd9d9" rx="2" ry="2"/>
<text x="364.7" y="206.0"></text>
</g>
<g>
<title>java.lang.String[] (2 samples, 0.10%)</title><rect x="362.3" y="195.0" width="1.1" height="15" fill="#6ddbdb" rx="2" ry="2"/>
<text x="365.3" y="206.0"></text>
</g>
<g>
<title>java.lang.String (4 samples, 0.20%)</title><rect x="363.4" y="195.0" width="2.3" height="15" fill="#60cece" rx="2" ry="2"/>
<text x="366.4" y="206.0"></text>
</g>
<g>
<title>one/nio/http/HttpClient.invoke (1,118 samples, 54.54%)</title><rect x="365.7" y="211.0" width="643.6" height="15" fill="#65f665" rx="2" ry="2"/>
<text x="368.7" y="222.0">one/nio/http/HttpClient.invoke</text>
</g>
<g>
<title>one/nio/http/HttpClient.invoke (1,118 samples, 54.54%)</title><rect x="365.7" y="195.0" width="643.6" height="15" fill="#6bfc6b" rx="2" ry="2"/>
<text x="368.7" y="206.0">one/nio/http/HttpClient.invoke</text>
</g>
<g>
<title>one.nio.http.HttpClient$ResponseReader (4 samples, 0.20%)</title><rect x="365.7" y="179.0" width="2.3" height="15" fill="#53c1c1" rx="2" ry="2"/>
<text x="368.7" y="190.0"></text>
</g>
<g>
<title>one/nio/http/HttpClient$ResponseReader.&lt;init&gt; (1,037 samples, 50.59%)</title><rect x="368.0" y="179.0" width="596.9" height="15" fill="#50e150" rx="2" ry="2"/>
<text x="371.0" y="190.0">one/nio/http/HttpClient$ResponseReader.&lt;init&gt;</text>
</g>
<g>
<title>byte[] (327 samples, 15.95%)</title><rect x="368.0" y="163.0" width="188.3" height="15" fill="#54c2c2" rx="2" ry="2"/>
<text x="371.0" y="174.0">byte[]</text>
</g>
<g>
<title>byte[] (710 samples, 34.63%)</title><rect x="556.3" y="163.0" width="408.6" height="15" fill="#ea8600" rx="2" ry="2"/>
<text x="559.3" y="174.0">byte[]</text>
</g>
<g>
<title>one/nio/http/HttpClient$ResponseReader.readResponse (54 samples, 2.63%)</title><rect x="964.9" y="179.0" width="31.1" height="15" fill="#50e150" rx="2" ry="2"/>
<text x="967.9" y="190.0">on..</text>
</g>
<g>
<title>java/lang/String.substring (1 samples, 0.05%)</title><rect x="964.9" y="163.0" width="0.6" height="15" fill="#58e958" rx="2" ry="2"/>
<text x="967.9" y="174.0"></text>
</g>
<g>
<title>java/lang/StringLatin1.newString (1 samples, 0.05%)</title><rect x="964.9" y="147.0" width="0.6" height="15" fill="#51e251" rx="2" ry="2"/>
<text x="967.9" y="158.0"></text>
</g>
<g>
<title>java/util/Arrays.copyOfRange (1 samples, 0.05%)</title><rect x="964.9" y="131.0" width="0.6" height="15" fill="#63f463" rx="2" ry="2"/>
<text x="967.9" y="142.0"></text>
</g>
<g>
<title>byte[] (1 samples, 0.05%)</title><rect x="964.9" y="115.0" width="0.6" height="15" fill="#5ecccc" rx="2" ry="2"/>
<text x="967.9" y="126.0"></text>
</g>
<g>
<title>one.nio.http.Response (2 samples, 0.10%)</title><rect x="965.5" y="163.0" width="1.2" height="15" fill="#65d3d3" rx="2" ry="2"/>
<text x="968.5" y="174.0"></text>
</g>
<g>
<title>one/nio/http/HttpClient$ResponseReader.readLine (47 samples, 2.29%)</title><rect x="966.7" y="163.0" width="27.0" height="15" fill="#61f261" rx="2" ry="2"/>
<text x="969.7" y="174.0">o..</text>
</g>
<g>
<title>one/nio/util/Utf8.read (47 samples, 2.29%)</title><rect x="966.7" y="147.0" width="27.0" height="15" fill="#58e958" rx="2" ry="2"/>
<text x="969.7" y="158.0">o..</text>
</g>
<g>
<title>one/nio/util/Utf8.read (47 samples, 2.29%)</title><rect x="966.7" y="131.0" width="27.0" height="15" fill="#5dee5d" rx="2" ry="2"/>
<text x="969.7" y="142.0">o..</text>
</g>
<g>
<title>char[] (34 samples, 1.66%)</title><rect x="966.7" y="115.0" width="19.5" height="15" fill="#59c7c7" rx="2" ry="2"/>
<text x="969.7" y="126.0"></text>
</g>
<g>
<title>java.lang.String (8 samples, 0.39%)</title><rect x="986.2" y="115.0" width="4.6" height="15" fill="#61cfcf" rx="2" ry="2"/>
<text x="989.2" y="126.0"></text>
</g>
<g>
<title>java/lang/String.&lt;init&gt; (5 samples, 0.24%)</title><rect x="990.8" y="115.0" width="2.9" height="15" fill="#52e352" rx="2" ry="2"/>
<text x="993.8" y="126.0"></text>
</g>
<g>
<title>java/lang/String.&lt;init&gt; (5 samples, 0.24%)</title><rect x="990.8" y="99.0" width="2.9" height="15" fill="#5eef5e" rx="2" ry="2"/>
<text x="993.8" y="110.0"></text>
</g>
<g>
<title>java/lang/StringUTF16.compress (5 samples, 0.24%)</title><rect x="990.8" y="83.0" width="2.9" height="15" fill="#63f463" rx="2" ry="2"/>
<text x="993.8" y="94.0"></text>
</g>
<g>
<title>byte[] (5 samples, 0.24%)</title><rect x="990.8" y="67.0" width="2.9" height="15" fill="#69d7d7" rx="2" ry="2"/>
<text x="993.8" y="78.0"></text>
</g>
<g>
<title>one/nio/http/Response.getHeader (4 samples, 0.20%)</title><rect x="993.7" y="163.0" width="2.3" height="15" fill="#59ea59" rx="2" ry="2"/>
<text x="996.7" y="174.0"></text>
</g>
<g>
<title>java/lang/String.substring (4 samples, 0.20%)</title><rect x="993.7" y="147.0" width="2.3" height="15" fill="#6dfe6d" rx="2" ry="2"/>
<text x="996.7" y="158.0"></text>
</g>
<g>
<title>java/lang/StringLatin1.newString (4 samples, 0.20%)</title><rect x="993.7" y="131.0" width="2.3" height="15" fill="#57e857" rx="2" ry="2"/>
<text x="996.7" y="142.0"></text>
</g>
<g>
<title>java.lang.String (1 samples, 0.05%)</title><rect x="993.7" y="115.0" width="0.6" height="15" fill="#55c3c3" rx="2" ry="2"/>
<text x="996.7" y="126.0"></text>
</g>
<g>
<title>java/util/Arrays.copyOfRange (3 samples, 0.15%)</title><rect x="994.3" y="115.0" width="1.7" height="15" fill="#53e453" rx="2" ry="2"/>
<text x="997.3" y="126.0"></text>
</g>
<g>
<title>byte[] (3 samples, 0.15%)</title><rect x="994.3" y="99.0" width="1.7" height="15" fill="#53c1c1" rx="2" ry="2"/>
<text x="997.3" y="110.0"></text>
</g>
<g>
<title>one/nio/http/Request.toBytes (12 samples, 0.59%)</title><rect x="996.0" y="179.0" width="6.9" height="15" fill="#61f261" rx="2" ry="2"/>
<text x="999.0" y="190.0"></text>
</g>
<g>
<title>one.nio.util.ByteArrayBuilder (1 samples, 0.05%)</title><rect x="996.0" y="163.0" width="0.6" height="15" fill="#51bfbf" rx="2" ry="2"/>
<text x="999.0" y="174.0"></text>
</g>
<g>
<title>one/nio/util/ByteArrayBuilder.&lt;init&gt; (11 samples, 0.54%)</title><rect x="996.6" y="163.0" width="6.3" height="15" fill="#52e352" rx="2" ry="2"/>
<text x="999.6" y="174.0"></text>
</g>
<g>
<title>byte[] (11 samples, 0.54%)</title><rect x="996.6" y="147.0" width="6.3" height="15" fill="#54c2c2" rx="2" ry="2"/>
<text x="999.6" y="158.0"></text>
</g>
<g>
<title>one/nio/http/Response.getHeader (3 samples, 0.15%)</title><rect x="1002.9" y="179.0" width="1.8" height="15" fill="#67f867" rx="2" ry="2"/>
<text x="1005.9" y="190.0"></text>
</g>
<g>
<title>java/lang/String.substring (3 samples, 0.15%)</title><rect x="1002.9" y="163.0" width="1.8" height="15" fill="#6dfe6d" rx="2" ry="2"/>
<text x="1005.9" y="174.0"></text>
</g>
<g>
<title>java/lang/StringLatin1.newString (3 samples, 0.15%)</title><rect x="1002.9" y="147.0" width="1.8" height="15" fill="#57e857" rx="2" ry="2"/>
<text x="1005.9" y="158.0"></text>
</g>
<g>
<title>java.lang.String (1 samples, 0.05%)</title><rect x="1002.9" y="131.0" width="0.6" height="15" fill="#67d5d5" rx="2" ry="2"/>
<text x="1005.9" y="142.0"></text>
</g>
<g>
<title>java/util/Arrays.copyOfRange (2 samples, 0.10%)</title><rect x="1003.5" y="131.0" width="1.2" height="15" fill="#54e554" rx="2" ry="2"/>
<text x="1006.5" y="142.0"></text>
</g>
<g>
<title>byte[] (2 samples, 0.10%)</title><rect x="1003.5" y="115.0" width="1.2" height="15" fill="#60cece" rx="2" ry="2"/>
<text x="1006.5" y="126.0"></text>
</g>
<g>
<title>one/nio/pool/Pool.borrowObject (7 samples, 0.34%)</title><rect x="1004.7" y="179.0" width="4.0" height="15" fill="#68f968" rx="2" ry="2"/>
<text x="1007.7" y="190.0"></text>
</g>
<g>
<title>one/nio/pool/SocketPool.createObject (7 samples, 0.34%)</title><rect x="1004.7" y="163.0" width="4.0" height="15" fill="#5ced5c" rx="2" ry="2"/>
<text x="1007.7" y="174.0"></text>
</g>
<g>
<title>one/nio/pool/SocketPool.createObject (7 samples, 0.34%)</title><rect x="1004.7" y="147.0" width="4.0" height="15" fill="#61f261" rx="2" ry="2"/>
<text x="1007.7" y="158.0"></text>
</g>
<g>
<title>one/nio/net/NativeSocket.connect (7 samples, 0.34%)</title><rect x="1004.7" y="131.0" width="4.0" height="15" fill="#5dee5d" rx="2" ry="2"/>
<text x="1007.7" y="142.0"></text>
</g>
<g>
<title>one/nio/net/NativeSocket.toNativeAddr (7 samples, 0.34%)</title><rect x="1004.7" y="115.0" width="4.0" height="15" fill="#6afb6a" rx="2" ry="2"/>
<text x="1007.7" y="126.0"></text>
</g>
<g>
<title>java/net/Inet4Address.getAddress (3 samples, 0.15%)</title><rect x="1004.7" y="99.0" width="1.7" height="15" fill="#59ea59" rx="2" ry="2"/>
<text x="1007.7" y="110.0"></text>
</g>
<g>
<title>byte[] (3 samples, 0.15%)</title><rect x="1004.7" y="83.0" width="1.7" height="15" fill="#51bfbf" rx="2" ry="2"/>
<text x="1007.7" y="94.0"></text>
</g>
<g>
<title>java/net/InetAddress.getByName (4 samples, 0.20%)</title><rect x="1006.4" y="99.0" width="2.3" height="15" fill="#54e554" rx="2" ry="2"/>
<text x="1009.4" y="110.0"></text>
</g>
<g>
<title>java/net/InetAddress.getAllByName (4 samples, 0.20%)</title><rect x="1006.4" y="83.0" width="2.3" height="15" fill="#66f766" rx="2" ry="2"/>
<text x="1009.4" y="94.0"></text>
</g>
<g>
<title>java/net/InetAddress.getAllByName (4 samples, 0.20%)</title><rect x="1006.4" y="67.0" width="2.3" height="15" fill="#5aeb5a" rx="2" ry="2"/>
<text x="1009.4" y="78.0"></text>
</g>
<g>
<title>java/net/InetAddress.getAllByName0 (4 samples, 0.20%)</title><rect x="1006.4" y="51.0" width="2.3" height="15" fill="#65f665" rx="2" ry="2"/>
<text x="1009.4" y="62.0"></text>
</g>
<g>
<title>java.net.InetAddress[] (4 samples, 0.20%)</title><rect x="1006.4" y="35.0" width="2.3" height="15" fill="#68d6d6" rx="2" ry="2"/>
<text x="1009.4" y="46.0"></text>
</g>
<g>
<title>one/nio/pool/Pool.returnObject (1 samples, 0.05%)</title><rect x="1008.7" y="179.0" width="0.6" height="15" fill="#68f968" rx="2" ry="2"/>
<text x="1011.7" y="190.0"></text>
</g>
<g>
<title>java/util/LinkedList.addFirst (1 samples, 0.05%)</title><rect x="1008.7" y="163.0" width="0.6" height="15" fill="#5bec5b" rx="2" ry="2"/>
<text x="1011.7" y="174.0"></text>
</g>
<g>
<title>java/util/LinkedList.linkFirst (1 samples, 0.05%)</title><rect x="1008.7" y="147.0" width="0.6" height="15" fill="#64f564" rx="2" ry="2"/>
<text x="1011.7" y="158.0"></text>
</g>
<g>
<title>java.util.LinkedList$Node (1 samples, 0.05%)</title><rect x="1008.7" y="131.0" width="0.6" height="15" fill="#54c2c2" rx="2" ry="2"/>
<text x="1011.7" y="142.0"></text>
</g>
<g>
<title>one/nio/net/ConnectionString.&lt;init&gt; (42 samples, 2.05%)</title><rect x="1009.3" y="211.0" width="24.1" height="15" fill="#5bec5b" rx="2" ry="2"/>
<text x="1012.3" y="222.0">o..</text>
</g>
<g>
<title>one/nio/net/ConnectionString.&lt;init&gt; (42 samples, 2.05%)</title><rect x="1009.3" y="195.0" width="24.1" height="15" fill="#6cfd6c" rx="2" ry="2"/>
<text x="1012.3" y="206.0">o..</text>
</g>
<g>
<title>java/lang/String.substring (28 samples, 1.37%)</title><rect x="1009.3" y="179.0" width="16.1" height="15" fill="#5aeb5a" rx="2" ry="2"/>
<text x="1012.3" y="190.0"></text>
</g>
<g>
<title>java/lang/StringLatin1.newString (28 samples, 1.37%)</title><rect x="1009.3" y="163.0" width="16.1" height="15" fill="#5ff05f" rx="2" ry="2"/>
<text x="1012.3" y="174.0"></text>
</g>
<g>
<title>java.lang.String (17 samples, 0.83%)</title><rect x="1009.3" y="147.0" width="9.7" height="15" fill="#51bfbf" rx="2" ry="2"/>
<text x="1012.3" y="158.0"></text>
</g>
<g>
<title>java/util/Arrays.copyOfRange (11 samples, 0.54%)</title><rect x="1019.0" y="147.0" width="6.4" height="15" fill="#6bfc6b" rx="2" ry="2"/>
<text x="1022.0" y="158.0"></text>
</g>
<g>
<title>byte[] (11 samples, 0.54%)</title><rect x="1019.0" y="131.0" width="6.4" height="15" fill="#61cfcf" rx="2" ry="2"/>
<text x="1022.0" y="142.0"></text>
</g>
<g>
<title>one/nio/net/ConnectionString.expand (14 samples, 0.68%)</title><rect x="1025.4" y="179.0" width="8.0" height="15" fill="#53e453" rx="2" ry="2"/>
<text x="1028.4" y="190.0"></text>
</g>
<g>
<title>java/util/regex/Pattern.matcher (14 samples, 0.68%)</title><rect x="1025.4" y="163.0" width="8.0" height="15" fill="#52e352" rx="2" ry="2"/>
<text x="1028.4" y="174.0"></text>
</g>
<g>
<title>java/util/regex/Matcher.&lt;init&gt; (14 samples, 0.68%)</title><rect x="1025.4" y="147.0" width="8.0" height="15" fill="#5aeb5a" rx="2" ry="2"/>
<text x="1028.4" y="158.0"></text>
</g>
<g>
<title>int[] (11 samples, 0.54%)</title><rect x="1025.4" y="131.0" width="6.3" height="15" fill="#53c1c1" rx="2" ry="2"/>
<text x="1028.4" y="142.0"></text>
</g>
<g>
<title>java.util.regex.IntHashSet[] (3 samples, 0.15%)</title><rect x="1031.7" y="131.0" width="1.7" height="15" fill="#59c7c7" rx="2" ry="2"/>
<text x="1034.7" y="142.0"></text>
</g>
<g>
<title>ru/mail/polis/service/stasyanoi/Util.getResponseWithNoBody (14 samples, 0.68%)</title><rect x="1033.4" y="227.0" width="8.1" height="15" fill="#53e453" rx="2" ry="2"/>
<text x="1036.4" y="238.0"></text>
</g>
<g>
<title>one.nio.http.Response (7 samples, 0.34%)</title><rect x="1033.4" y="211.0" width="4.1" height="15" fill="#57c5c5" rx="2" ry="2"/>
<text x="1036.4" y="222.0"></text>
</g>
<g>
<title>one/nio/http/Response.&lt;init&gt; (7 samples, 0.34%)</title><rect x="1037.5" y="211.0" width="4.0" height="15" fill="#6afb6a" rx="2" ry="2"/>
<text x="1040.5" y="222.0"></text>
</g>
<g>
<title>java.lang.String[] (7 samples, 0.34%)</title><rect x="1037.5" y="195.0" width="4.0" height="15" fill="#6bd9d9" rx="2" ry="2"/>
<text x="1040.5" y="206.0"></text>
</g>
<g>
<title>one/nio/server/AcceptorThread.run (85 samples, 4.15%)</title><rect x="1041.5" y="355.0" width="48.9" height="15" fill="#64f564" rx="2" ry="2"/>
<text x="1044.5" y="366.0">one/..</text>
</g>
<g>
<title>one/nio/http/HttpServer.createSession (80 samples, 3.90%)</title><rect x="1041.5" y="339.0" width="46.0" height="15" fill="#5eef5e" rx="2" ry="2"/>
<text x="1044.5" y="350.0">one/..</text>
</g>
<g>
<title>one/nio/http/HttpServer.createSession (80 samples, 3.90%)</title><rect x="1041.5" y="323.0" width="46.0" height="15" fill="#5aeb5a" rx="2" ry="2"/>
<text x="1044.5" y="334.0">one/..</text>
</g>
<g>
<title>one.nio.http.HttpSession (4 samples, 0.20%)</title><rect x="1041.5" y="307.0" width="2.3" height="15" fill="#60cece" rx="2" ry="2"/>
<text x="1044.5" y="318.0"></text>
</g>
<g>
<title>one/nio/http/HttpSession.&lt;init&gt; (76 samples, 3.71%)</title><rect x="1043.8" y="307.0" width="43.7" height="15" fill="#68f968" rx="2" ry="2"/>
<text x="1046.8" y="318.0">one/..</text>
</g>
<g>
<title>byte[] (71 samples, 3.46%)</title><rect x="1043.8" y="291.0" width="40.9" height="15" fill="#5bc9c9" rx="2" ry="2"/>
<text x="1046.8" y="302.0">byt..</text>
</g>
<g>
<title>byte[] (5 samples, 0.24%)</title><rect x="1084.7" y="291.0" width="2.8" height="15" fill="#f69200" rx="2" ry="2"/>
<text x="1087.7" y="302.0"></text>
</g>
<g>
<title>one/nio/net/NativeSocket.acceptNonBlocking (5 samples, 0.24%)</title><rect x="1087.5" y="339.0" width="2.9" height="15" fill="#60f160" rx="2" ry="2"/>
<text x="1090.5" y="350.0"></text>
</g>
<g>
<title>one/nio/net/NativeSocket.acceptNonBlocking (5 samples, 0.24%)</title><rect x="1087.5" y="323.0" width="2.9" height="15" fill="#66f766" rx="2" ry="2"/>
<text x="1090.5" y="334.0"></text>
</g>
<g>
<title>one.nio.net.NativeSocket (5 samples, 0.24%)</title><rect x="1087.5" y="307.0" width="2.9" height="15" fill="#5dcbcb" rx="2" ry="2"/>
<text x="1090.5" y="318.0"></text>
</g>
<g>
<title>one/nio/server/SelectorThread.run (173 samples, 8.44%)</title><rect x="1090.4" y="355.0" width="99.6" height="15" fill="#5bec5b" rx="2" ry="2"/>
<text x="1093.4" y="366.0">one/nio/serv..</text>
</g>
<g>
<title>one/nio/net/NativeSelector.select (53 samples, 2.59%)</title><rect x="1090.4" y="339.0" width="30.5" height="15" fill="#60f160" rx="2" ry="2"/>
<text x="1093.4" y="350.0">on..</text>
</g>
<g>
<title>one.nio.net.NativeSelector$2 (53 samples, 2.59%)</title><rect x="1090.4" y="323.0" width="30.5" height="15" fill="#69d7d7" rx="2" ry="2"/>
<text x="1093.4" y="334.0">on..</text>
</g>
<g>
<title>one/nio/net/Session.process (120 samples, 5.85%)</title><rect x="1120.9" y="339.0" width="69.1" height="15" fill="#52e352" rx="2" ry="2"/>
<text x="1123.9" y="350.0">one/nio..</text>
</g>
<g>
<title>one/nio/http/HttpSession.processRead (120 samples, 5.85%)</title><rect x="1120.9" y="323.0" width="69.1" height="15" fill="#65f665" rx="2" ry="2"/>
<text x="1123.9" y="334.0">one/nio..</text>
</g>
<g>
<title>one/nio/http/HttpSession.processHttpBuffer (88 samples, 4.29%)</title><rect x="1120.9" y="307.0" width="50.7" height="15" fill="#56e756" rx="2" ry="2"/>
<text x="1123.9" y="318.0">one/n..</text>
</g>
<g>
<title>one/nio/http/HttpSession.handleParsedRequest (23 samples, 1.12%)</title><rect x="1120.9" y="291.0" width="13.3" height="15" fill="#50e150" rx="2" ry="2"/>
<text x="1123.9" y="302.0"></text>
</g>
<g>
<title>one/nio/http/HttpServer.handleRequest (23 samples, 1.12%)</title><rect x="1120.9" y="275.0" width="13.3" height="15" fill="#51e251" rx="2" ry="2"/>
<text x="1123.9" y="286.0"></text>
</g>
<g>
<title>RequestHandler1_put.handleRequest (11 samples, 0.54%)</title><rect x="1120.9" y="259.0" width="6.4" height="15" fill="#65f665" rx="2" ry="2"/>
<text x="1123.9" y="270.0"></text>
</g>
<g>
<title>one/nio/http/Request.getParameter (3 samples, 0.15%)</title><rect x="1120.9" y="243.0" width="1.8" height="15" fill="#51e251" rx="2" ry="2"/>
<text x="1123.9" y="254.0"></text>
</g>
<g>
<title>java/lang/String.substring (3 samples, 0.15%)</title><rect x="1120.9" y="227.0" width="1.8" height="15" fill="#6dfe6d" rx="2" ry="2"/>
<text x="1123.9" y="238.0"></text>
</g>
<g>
<title>java/lang/StringLatin1.newString (3 samples, 0.15%)</title><rect x="1120.9" y="211.0" width="1.8" height="15" fill="#58e958" rx="2" ry="2"/>
<text x="1123.9" y="222.0"></text>
</g>
<g>
<title>java.lang.String (1 samples, 0.05%)</title><rect x="1120.9" y="195.0" width="0.6" height="15" fill="#55c3c3" rx="2" ry="2"/>
<text x="1123.9" y="206.0"></text>
</g>
<g>
<title>java/util/Arrays.copyOfRange (2 samples, 0.10%)</title><rect x="1121.5" y="195.0" width="1.2" height="15" fill="#51e251" rx="2" ry="2"/>
<text x="1124.5" y="206.0"></text>
</g>
<g>
<title>byte[] (2 samples, 0.10%)</title><rect x="1121.5" y="179.0" width="1.2" height="15" fill="#63d1d1" rx="2" ry="2"/>
<text x="1124.5" y="190.0"></text>
</g>
<g>
<title>ru/mail/polis/service/stasyanoi/CustomServer.put (8 samples, 0.39%)</title><rect x="1122.7" y="243.0" width="4.6" height="15" fill="#58e958" rx="2" ry="2"/>
<text x="1125.7" y="254.0"></text>
</g>
<g>
<title>ru/mail/polis/service/stasyanoi/CustomServer.runPut (8 samples, 0.39%)</title><rect x="1122.7" y="227.0" width="4.6" height="15" fill="#5aeb5a" rx="2" ry="2"/>
<text x="1125.7" y="238.0"></text>
</g>
<g>
<title>java/lang/invoke/Invokers$Holder.linkToTargetMethod (4 samples, 0.20%)</title><rect x="1122.7" y="211.0" width="2.3" height="15" fill="#66f766" rx="2" ry="2"/>
<text x="1125.7" y="222.0"></text>
</g>
<g>
<title>java/lang/invoke/DirectMethodHandle$Holder.invokeStatic (4 samples, 0.20%)</title><rect x="1122.7" y="195.0" width="2.3" height="15" fill="#60f160" rx="2" ry="2"/>
<text x="1125.7" y="206.0"></text>
</g>
<g>
<title>ru/mail/polis/service/stasyanoi/CustomServer$$Lambda$67/393605361.get$Lambda (4 samples, 0.20%)</title><rect x="1122.7" y="179.0" width="2.3" height="15" fill="#57e857" rx="2" ry="2"/>
<text x="1125.7" y="190.0"></text>
</g>
<g>
<title>ru.mail.polis.service.stasyanoi.server.CustomServer$$Lambda$67 (4 samples, 0.20%)</title><rect x="1122.7" y="163.0" width="2.3" height="15" fill="#63d1d1" rx="2" ry="2"/>
<text x="1125.7" y="174.0"></text>
</g>
<g>
<title>java/util/concurrent/ThreadPoolExecutor.execute (4 samples, 0.20%)</title><rect x="1125.0" y="211.0" width="2.3" height="15" fill="#56e756" rx="2" ry="2"/>
<text x="1128.0" y="222.0"></text>
</g>
<g>
<title>java/util/concurrent/LinkedBlockingQueue.offer (4 samples, 0.20%)</title><rect x="1125.0" y="195.0" width="2.3" height="15" fill="#66f766" rx="2" ry="2"/>
<text x="1128.0" y="206.0"></text>
</g>
<g>
<title>java.util.concurrent.LinkedBlockingQueue$Node (4 samples, 0.20%)</title><rect x="1125.0" y="179.0" width="2.3" height="15" fill="#50bebe" rx="2" ry="2"/>
<text x="1128.0" y="190.0"></text>
</g>
<g>
<title>one/nio/http/Request.getPath (12 samples, 0.59%)</title><rect x="1127.3" y="259.0" width="6.9" height="15" fill="#66f766" rx="2" ry="2"/>
<text x="1130.3" y="270.0"></text>
</g>
<g>
<title>java/lang/String.substring (12 samples, 0.59%)</title><rect x="1127.3" y="243.0" width="6.9" height="15" fill="#60f160" rx="2" ry="2"/>
<text x="1130.3" y="254.0"></text>
</g>
<g>
<title>java/lang/StringLatin1.newString (12 samples, 0.59%)</title><rect x="1127.3" y="227.0" width="6.9" height="15" fill="#5bec5b" rx="2" ry="2"/>
<text x="1130.3" y="238.0"></text>
</g>
<g>
<title>java.lang.String (7 samples, 0.34%)</title><rect x="1127.3" y="211.0" width="4.0" height="15" fill="#5ecccc" rx="2" ry="2"/>
<text x="1130.3" y="222.0"></text>
</g>
<g>
<title>java/util/Arrays.copyOfRange (5 samples, 0.24%)</title><rect x="1131.3" y="211.0" width="2.9" height="15" fill="#52e352" rx="2" ry="2"/>
<text x="1134.3" y="222.0"></text>
</g>
<g>
<title>byte[] (5 samples, 0.24%)</title><rect x="1131.3" y="195.0" width="2.9" height="15" fill="#54c2c2" rx="2" ry="2"/>
<text x="1134.3" y="206.0"></text>
</g>
<g>
<title>one/nio/http/HttpSession.parseRequest (28 samples, 1.37%)</title><rect x="1134.2" y="291.0" width="16.1" height="15" fill="#6bfc6b" rx="2" ry="2"/>
<text x="1137.2" y="302.0"></text>
</g>
<g>
<title>one.nio.http.Request (5 samples, 0.24%)</title><rect x="1134.2" y="275.0" width="2.8" height="15" fill="#5dcbcb" rx="2" ry="2"/>
<text x="1137.2" y="286.0"></text>
</g>
<g>
<title>one/nio/http/Request.&lt;init&gt; (8 samples, 0.39%)</title><rect x="1137.0" y="275.0" width="4.6" height="15" fill="#64f564" rx="2" ry="2"/>
<text x="1140.0" y="286.0"></text>
</g>
<g>
<title>java.lang.String[] (8 samples, 0.39%)</title><rect x="1137.0" y="259.0" width="4.6" height="15" fill="#67d5d5" rx="2" ry="2"/>
<text x="1140.0" y="270.0"></text>
</g>
<g>
<title>one/nio/util/Utf8.read (15 samples, 0.73%)</title><rect x="1141.6" y="275.0" width="8.7" height="15" fill="#5ff05f" rx="2" ry="2"/>
<text x="1144.6" y="286.0"></text>
</g>
<g>
<title>one/nio/util/Utf8.read (15 samples, 0.73%)</title><rect x="1141.6" y="259.0" width="8.7" height="15" fill="#5bec5b" rx="2" ry="2"/>
<text x="1144.6" y="270.0"></text>
</g>
<g>
<title>char[] (7 samples, 0.34%)</title><rect x="1141.6" y="243.0" width="4.1" height="15" fill="#6ddbdb" rx="2" ry="2"/>
<text x="1144.6" y="254.0"></text>
</g>
<g>
<title>java.lang.String (2 samples, 0.10%)</title><rect x="1145.7" y="243.0" width="1.1" height="15" fill="#5fcdcd" rx="2" ry="2"/>
<text x="1148.7" y="254.0"></text>
</g>
<g>
<title>java/lang/String.&lt;init&gt; (6 samples, 0.29%)</title><rect x="1146.8" y="243.0" width="3.5" height="15" fill="#5dee5d" rx="2" ry="2"/>
<text x="1149.8" y="254.0"></text>
</g>
<g>
<title>java/lang/String.&lt;init&gt; (6 samples, 0.29%)</title><rect x="1146.8" y="227.0" width="3.5" height="15" fill="#65f665" rx="2" ry="2"/>
<text x="1149.8" y="238.0"></text>
</g>
<g>
<title>java/lang/StringUTF16.compress (6 samples, 0.29%)</title><rect x="1146.8" y="211.0" width="3.5" height="15" fill="#61f261" rx="2" ry="2"/>
<text x="1149.8" y="222.0"></text>
</g>
<g>
<title>byte[] (6 samples, 0.29%)</title><rect x="1146.8" y="195.0" width="3.5" height="15" fill="#5ccaca" rx="2" ry="2"/>
<text x="1149.8" y="206.0"></text>
</g>
<g>
<title>one/nio/http/HttpSession.startParsingRequestBody (2 samples, 0.10%)</title><rect x="1150.3" y="291.0" width="1.1" height="15" fill="#50e150" rx="2" ry="2"/>
<text x="1153.3" y="302.0"></text>
</g>
<g>
<title>byte[] (2 samples, 0.10%)</title><rect x="1150.3" y="275.0" width="1.1" height="15" fill="#66d4d4" rx="2" ry="2"/>
<text x="1153.3" y="286.0"></text>
</g>
<g>
<title>one/nio/http/Request.getHeader (4 samples, 0.20%)</title><rect x="1151.4" y="291.0" width="2.3" height="15" fill="#5dee5d" rx="2" ry="2"/>
<text x="1154.4" y="302.0"></text>
</g>
<g>
<title>java/lang/String.substring (4 samples, 0.20%)</title><rect x="1151.4" y="275.0" width="2.3" height="15" fill="#63f463" rx="2" ry="2"/>
<text x="1154.4" y="286.0"></text>
</g>
<g>
<title>java/lang/StringLatin1.newString (4 samples, 0.20%)</title><rect x="1151.4" y="259.0" width="2.3" height="15" fill="#50e150" rx="2" ry="2"/>
<text x="1154.4" y="270.0"></text>
</g>
<g>
<title>java.lang.String (2 samples, 0.10%)</title><rect x="1151.4" y="243.0" width="1.2" height="15" fill="#68d6d6" rx="2" ry="2"/>
<text x="1154.4" y="254.0"></text>
</g>
<g>
<title>java/util/Arrays.copyOfRange (2 samples, 0.10%)</title><rect x="1152.6" y="243.0" width="1.1" height="15" fill="#5bec5b" rx="2" ry="2"/>
<text x="1155.6" y="254.0"></text>
</g>
<g>
<title>byte[] (2 samples, 0.10%)</title><rect x="1152.6" y="227.0" width="1.1" height="15" fill="#61cfcf" rx="2" ry="2"/>
<text x="1155.6" y="238.0"></text>
</g>
<g>
<title>one/nio/util/Utf8.read (31 samples, 1.51%)</title><rect x="1153.7" y="291.0" width="17.9" height="15" fill="#51e251" rx="2" ry="2"/>
<text x="1156.7" y="302.0"></text>
</g>
<g>
<title>one/nio/util/Utf8.read (31 samples, 1.51%)</title><rect x="1153.7" y="275.0" width="17.9" height="15" fill="#51e251" rx="2" ry="2"/>
<text x="1156.7" y="286.0"></text>
</g>
<g>
<title>char[] (20 samples, 0.98%)</title><rect x="1153.7" y="259.0" width="11.5" height="15" fill="#67d5d5" rx="2" ry="2"/>
<text x="1156.7" y="270.0"></text>
</g>
<g>
<title>java.lang.String (4 samples, 0.20%)</title><rect x="1165.2" y="259.0" width="2.4" height="15" fill="#67d5d5" rx="2" ry="2"/>
<text x="1168.2" y="270.0"></text>
</g>
<g>
<title>java/lang/String.&lt;init&gt; (7 samples, 0.34%)</title><rect x="1167.6" y="259.0" width="4.0" height="15" fill="#51e251" rx="2" ry="2"/>
<text x="1170.6" y="270.0"></text>
</g>
<g>
<title>java/lang/String.&lt;init&gt; (7 samples, 0.34%)</title><rect x="1167.6" y="243.0" width="4.0" height="15" fill="#60f160" rx="2" ry="2"/>
<text x="1170.6" y="254.0"></text>
</g>
<g>
<title>java/lang/StringUTF16.compress (7 samples, 0.34%)</title><rect x="1167.6" y="227.0" width="4.0" height="15" fill="#59ea59" rx="2" ry="2"/>
<text x="1170.6" y="238.0"></text>
</g>
<g>
<title>byte[] (7 samples, 0.34%)</title><rect x="1167.6" y="211.0" width="4.0" height="15" fill="#5ccaca" rx="2" ry="2"/>
<text x="1170.6" y="222.0"></text>
</g>
<g>
<title>one/nio/net/Session.read (32 samples, 1.56%)</title><rect x="1171.6" y="307.0" width="18.4" height="15" fill="#50e150" rx="2" ry="2"/>
<text x="1174.6" y="318.0"></text>
</g>
<g>
<title>one/nio/net/NativeSocket.read (32 samples, 1.56%)</title><rect x="1171.6" y="291.0" width="18.4" height="15" fill="#5ced5c" rx="2" ry="2"/>
<text x="1174.6" y="302.0"></text>
</g>
<g>
<title>byte[] (1 samples, 0.05%)</title><rect x="1171.6" y="275.0" width="0.6" height="15" fill="#60cece" rx="2" ry="2"/>
<text x="1174.6" y="286.0"></text>
</g>
<g>
<title>java.lang.String (1 samples, 0.05%)</title><rect x="1172.2" y="275.0" width="0.5" height="15" fill="#6cdada" rx="2" ry="2"/>
<text x="1175.2" y="286.0"></text>
</g>
<g>
<title>one.nio.net.SocketClosedException (2 samples, 0.10%)</title><rect x="1172.7" y="275.0" width="1.2" height="15" fill="#6ad8d8" rx="2" ry="2"/>
<text x="1175.7" y="286.0"></text>
</g>
<g>
<title>one/nio/net/SocketClosedException.&lt;init&gt; (28 samples, 1.37%)</title><rect x="1173.9" y="275.0" width="16.1" height="15" fill="#57e857" rx="2" ry="2"/>
<text x="1176.9" y="286.0"></text>
</g>
<g>
<title>java/net/SocketException.&lt;init&gt; (28 samples, 1.37%)</title><rect x="1173.9" y="259.0" width="16.1" height="15" fill="#65f665" rx="2" ry="2"/>
<text x="1176.9" y="270.0"></text>
</g>
<g>
<title>java/io/IOException.&lt;init&gt; (28 samples, 1.37%)</title><rect x="1173.9" y="243.0" width="16.1" height="15" fill="#5bec5b" rx="2" ry="2"/>
<text x="1176.9" y="254.0"></text>
</g>
<g>
<title>java/lang/Exception.&lt;init&gt; (28 samples, 1.37%)</title><rect x="1173.9" y="227.0" width="16.1" height="15" fill="#63f463" rx="2" ry="2"/>
<text x="1176.9" y="238.0"></text>
</g>
<g>
<title>java/lang/Throwable.&lt;init&gt; (28 samples, 1.37%)</title><rect x="1173.9" y="211.0" width="16.1" height="15" fill="#65f665" rx="2" ry="2"/>
<text x="1176.9" y="222.0"></text>
</g>
<g>
<title>java/lang/Throwable.fillInStackTrace (28 samples, 1.37%)</title><rect x="1173.9" y="195.0" width="16.1" height="15" fill="#6bfc6b" rx="2" ry="2"/>
<text x="1176.9" y="206.0"></text>
</g>
<g>
<title>java/lang/Throwable.fillInStackTrace (28 samples, 1.37%)</title><rect x="1173.9" y="179.0" width="16.1" height="15" fill="#52e352" rx="2" ry="2"/>
<text x="1176.9" y="190.0"></text>
</g>
<g>
<title>int[] (4 samples, 0.20%)</title><rect x="1173.9" y="163.0" width="2.3" height="15" fill="#5ccaca" rx="2" ry="2"/>
<text x="1176.9" y="174.0"></text>
</g>
<g>
<title>java.lang.Object[] (4 samples, 0.20%)</title><rect x="1176.2" y="163.0" width="2.3" height="15" fill="#5fcdcd" rx="2" ry="2"/>
<text x="1179.2" y="174.0"></text>
</g>
<g>
<title>long[] (15 samples, 0.73%)</title><rect x="1178.5" y="163.0" width="8.6" height="15" fill="#5ecccc" rx="2" ry="2"/>
<text x="1181.5" y="174.0"></text>
</g>
<g>
<title>short[] (5 samples, 0.24%)</title><rect x="1187.1" y="163.0" width="2.9" height="15" fill="#5dcbcb" rx="2" ry="2"/>
<text x="1190.1" y="174.0"></text>
</g>
</g>
</svg>
