<?xml version="1.0" standalone="no"?>
<!DOCTYPE svg PUBLIC "-//W3C//DTD SVG 1.1//EN" "http://www.w3.org/Graphics/SVG/1.1/DTD/svg11.dtd">
<svg version="1.1" width="1200" height="390" onload="init(evt)" viewBox="0 0 1200 390" xmlns="http://www.w3.org/2000/svg" xmlns:xlink="http://www.w3.org/1999/xlink">
<style type="text/css">
	text { font-family:Verdana; font-size:12px; fill:rgb(0,0,0); }
	#search { opacity:0.1; cursor:pointer; }
	#search:hover, #search.show { opacity:1; }
	#subtitle { text-anchor:middle; font-color:rgb(160,160,160); }
	#title { text-anchor:middle; font-size:17px}
	#unzoom { cursor:pointer; }
	#frames > *:hover { stroke:black; stroke-width:0.5; cursor:pointer; }
	.hide { display:none; }
	.parent { opacity:0.5; }
</style>
<script type="text/ecmascript">
<![CDATA[
	"use strict";
	var details, searchbtn, unzoombtn, matchedtxt, svg, searching;
	function init(evt) {
		details = document.getElementById("details").firstChild;
		searchbtn = document.getElementById("search");
		unzoombtn = document.getElementById("unzoom");
		matchedtxt = document.getElementById("matched");
		svg = document.getElementsByTagName("svg")[0];
		searching = 0;
	}

	window.addEventListener("click", function(e) {
		var target = find_group(e.target);
		if (target) {
			if (target.nodeName == "a") {
				if (e.ctrlKey === false) return;
				e.preventDefault();
			}
			if (target.classList.contains("parent")) unzoom();
			zoom(target);
		}
		else if (e.target.id == "unzoom") unzoom();
		else if (e.target.id == "search") search_prompt();
	}, false)

	// mouse-over for info
	// show
	window.addEventListener("mouseover", function(e) {
		var target = find_group(e.target);
		if (target) details.nodeValue = "Function: " + g_to_text(target);
	}, false)

	// clear
	window.addEventListener("mouseout", function(e) {
		var target = find_group(e.target);
		if (target) details.nodeValue = ' ';
	}, false)

	// ctrl-F for search
	window.addEventListener("keydown",function (e) {
		if (e.keyCode === 114 || (e.ctrlKey && e.keyCode === 70)) {
			e.preventDefault();
			search_prompt();
		}
	}, false)

	// functions
	function find_child(node, selector) {
		var children = node.querySelectorAll(selector);
		if (children.length) return children[0];
		return;
	}
	function find_group(node) {
		var parent = node.parentElement;
		if (!parent) return;
		if (parent.id == "frames") return node;
		return find_group(parent);
	}
	function orig_save(e, attr, val) {
		if (e.attributes["_orig_" + attr] != undefined) return;
		if (e.attributes[attr] == undefined) return;
		if (val == undefined) val = e.attributes[attr].value;
		e.setAttribute("_orig_" + attr, val);
	}
	function orig_load(e, attr) {
		if (e.attributes["_orig_"+attr] == undefined) return;
		e.attributes[attr].value = e.attributes["_orig_" + attr].value;
		e.removeAttribute("_orig_"+attr);
	}
	function g_to_text(e) {
		var text = find_child(e, "title").firstChild.nodeValue;
		return (text)
	}
	function g_to_func(e) {
		var func = g_to_text(e);
		// if there's any manipulation we want to do to the function
		// name before it's searched, do it here before returning.
		return (func);
	}
	function update_text(e) {
		var r = find_child(e, "rect");
		var t = find_child(e, "text");
		var w = parseFloat(r.attributes.width.value) -3;
		var txt = find_child(e, "title").textContent.replace(/\([^(]*\)$/,"");
		t.attributes.x.value = parseFloat(r.attributes.x.value) + 3;

		// Smaller than this size won't fit anything
		if (w < 2 * 12 * 0.59) {
			t.textContent = "";
			return;
		}

		t.textContent = txt;
		// Fit in full text width
		if (/^ *$/.test(txt) || t.getSubStringLength(0, txt.length) < w)
			return;

		for (var x = txt.length - 2; x > 0; x--) {
			if (t.getSubStringLength(0, x + 2) <= w) {
				t.textContent = txt.substring(0, x) + "..";
				return;
			}
		}
		t.textContent = "";
	}

	// zoom
	function zoom_reset(e) {
		if (e.attributes != undefined) {
			orig_load(e, "x");
			orig_load(e, "width");
		}
		if (e.childNodes == undefined) return;
		for (var i = 0, c = e.childNodes; i < c.length; i++) {
			zoom_reset(c[i]);
		}
	}
	function zoom_child(e, x, ratio) {
		if (e.attributes != undefined) {
			if (e.attributes.x != undefined) {
				orig_save(e, "x");
				e.attributes.x.value = (parseFloat(e.attributes.x.value) - x - 10) * ratio + 10;
				if (e.tagName == "text")
					e.attributes.x.value = find_child(e.parentNode, "rect[x]").attributes.x.value + 3;
			}
			if (e.attributes.width != undefined) {
				orig_save(e, "width");
				e.attributes.width.value = parseFloat(e.attributes.width.value) * ratio;
			}
		}

		if (e.childNodes == undefined) return;
		for (var i = 0, c = e.childNodes; i < c.length; i++) {
			zoom_child(c[i], x - 10, ratio);
		}
	}
	function zoom_parent(e) {
		if (e.attributes) {
			if (e.attributes.x != undefined) {
				orig_save(e, "x");
				e.attributes.x.value = 10;
			}
			if (e.attributes.width != undefined) {
				orig_save(e, "width");
				e.attributes.width.value = parseInt(svg.width.baseVal.value) - (10 * 2);
			}
		}
		if (e.childNodes == undefined) return;
		for (var i = 0, c = e.childNodes; i < c.length; i++) {
			zoom_parent(c[i]);
		}
	}
	function zoom(node) {
		var attr = find_child(node, "rect").attributes;
		var width = parseFloat(attr.width.value);
		var xmin = parseFloat(attr.x.value);
		var xmax = parseFloat(xmin + width);
		var ymin = parseFloat(attr.y.value);
		var ratio = (svg.width.baseVal.value - 2 * 10) / width;

		// XXX: Workaround for JavaScript float issues (fix me)
		var fudge = 0.0001;

		unzoombtn.classList.remove("hide");

		var el = document.getElementById("frames").children;
		for (var i = 0; i < el.length; i++) {
			var e = el[i];
			var a = find_child(e, "rect").attributes;
			var ex = parseFloat(a.x.value);
			var ew = parseFloat(a.width.value);
			var upstack;
			// Is it an ancestor
			if (0 == 0) {
				upstack = parseFloat(a.y.value) > ymin;
			} else {
				upstack = parseFloat(a.y.value) < ymin;
			}
			if (upstack) {
				// Direct ancestor
				if (ex <= xmin && (ex+ew+fudge) >= xmax) {
					e.classList.add("parent");
					zoom_parent(e);
					update_text(e);
				}
				// not in current path
				else
					e.classList.add("hide");
			}
			// Children maybe
			else {
				// no common path
				if (ex < xmin || ex + fudge >= xmax) {
					e.classList.add("hide");
				}
				else {
					zoom_child(e, xmin, ratio);
					update_text(e);
				}
			}
		}
	}
	function unzoom() {
		unzoombtn.classList.add("hide");
		var el = document.getElementById("frames").children;
		for(var i = 0; i < el.length; i++) {
			el[i].classList.remove("parent");
			el[i].classList.remove("hide");
			zoom_reset(el[i]);
			update_text(el[i]);
		}
	}

	// search
	function reset_search() {
		var el = document.querySelectorAll("#frames rect");
		for (var i = 0; i < el.length; i++) {
			orig_load(el[i], "fill")
		}
	}
	function search_prompt() {
		if (!searching) {
			var term = prompt("Enter a search term (regexp " +
			    "allowed, eg: ^ext4_)", "");
			if (term != null) {
				search(term)
			}
		} else {
			reset_search();
			searching = 0;
			searchbtn.classList.remove("show");
			searchbtn.firstChild.nodeValue = "Search"
			matchedtxt.classList.add("hide");
			matchedtxt.firstChild.nodeValue = ""
		}
	}
	function search(term) {
		var re = new RegExp(term);
		var el = document.getElementById("frames").children;
		var matches = new Object();
		var maxwidth = 0;
		for (var i = 0; i < el.length; i++) {
			var e = el[i];
			var func = g_to_func(e);
			var rect = find_child(e, "rect");
			if (func == null || rect == null)
				continue;

			// Save max width. Only works as we have a root frame
			var w = parseFloat(rect.attributes.width.value);
			if (w > maxwidth)
				maxwidth = w;

			if (func.match(re)) {
				// highlight
				var x = parseFloat(rect.attributes.x.value);
				orig_save(rect, "fill");
				rect.attributes.fill.value = "rgb(230,0,230)";

				// remember matches
				if (matches[x] == undefined) {
					matches[x] = w;
				} else {
					if (w > matches[x]) {
						// overwrite with parent
						matches[x] = w;
					}
				}
				searching = 1;
			}
		}
		if (!searching)
			return;

		searchbtn.classList.add("show");
		searchbtn.firstChild.nodeValue = "Reset Search";

		// calculate percent matched, excluding vertical overlap
		var count = 0;
		var lastx = -1;
		var lastw = 0;
		var keys = Array();
		for (k in matches) {
			if (matches.hasOwnProperty(k))
				keys.push(k);
		}
		// sort the matched frames by their x location
		// ascending, then width descending
		keys.sort(function(a, b){
			return a - b;
		});
		// Step through frames saving only the biggest bottom-up frames
		// thanks to the sort order. This relies on the tree property
		// where children are always smaller than their parents.
		var fudge = 0.0001;	// JavaScript floating point
		for (var k in keys) {
			var x = parseFloat(keys[k]);
			var w = matches[keys[k]];
			if (x >= lastx + lastw - fudge) {
				count += w;
				lastx = x;
				lastw = w;
			}
		}
		// display matched percent
		matchedtxt.classList.remove("hide");
		var pct = 100 * count / maxwidth;
		if (pct != 100) pct = pct.toFixed(1)
		matchedtxt.firstChild.nodeValue = "Matched: " + pct + "%";
	}
]]>
</script>
<rect x="0" y="0" width="100%" height="100%" fill="rgb(240,240,220)"/>
<text id="title" x="600" y="24">Flame Graph</text>
<text id="details" x="10" y="373"> </text>
<text id="unzoom" x="10" y="24" class="hide">Reset Zoom</text>
<text id="search" x="1090" y="24">Search</text>
<text id="matched" x="1090" y="373"> </text>
<g id="frames">
<g>
<title>all (212 samples, 100.00%)</title><rect x="10.0" y="339.0" width="1180.0" height="15" fill="#f27070" rx="2" ry="2"/>
<text x="13.0" y="350.0">all</text>
</g>
<g>
<title>one/nio/server/SelectorThread.run (212 samples, 100.00%)</title><rect x="10.0" y="323.0" width="1180.0" height="15" fill="#68f968" rx="2" ry="2"/>
<text x="13.0" y="334.0">one/nio/server/SelectorThread.run</text>
</g>
<g>
<title>one/nio/net/Session.process (212 samples, 100.00%)</title><rect x="10.0" y="307.0" width="1180.0" height="15" fill="#61f261" rx="2" ry="2"/>
<text x="13.0" y="318.0">one/nio/net/Session.process</text>
</g>
<g>
<title>one/nio/http/HttpSession.processRead (212 samples, 100.00%)</title><rect x="10.0" y="291.0" width="1180.0" height="15" fill="#5dee5d" rx="2" ry="2"/>
<text x="13.0" y="302.0">one/nio/http/HttpSession.processRead</text>
</g>
<g>
<title>one/nio/http/HttpSession.processHttpBuffer (212 samples, 100.00%)</title><rect x="10.0" y="275.0" width="1180.0" height="15" fill="#5eef5e" rx="2" ry="2"/>
<text x="13.0" y="286.0">one/nio/http/HttpSession.processHttpBuffer</text>
</g>
<g>
<title>one/nio/http/HttpSession.handleParsedRequest (174 samples, 82.08%)</title><rect x="10.0" y="259.0" width="968.5" height="15" fill="#6dfe6d" rx="2" ry="2"/>
<text x="13.0" y="270.0">one/nio/http/HttpSession.handleParsedRequest</text>
</g>
<g>
<title>one/nio/http/HttpServer.handleRequest (174 samples, 82.08%)</title><rect x="10.0" y="243.0" width="968.5" height="15" fill="#51e251" rx="2" ry="2"/>
<text x="13.0" y="254.0">one/nio/http/HttpServer.handleRequest</text>
</g>
<g>
<title>RequestHandler3_getValueByKey.handleRequest (170 samples, 80.19%)</title><rect x="10.0" y="227.0" width="946.2" height="15" fill="#52e352" rx="2" ry="2"/>
<text x="13.0" y="238.0">RequestHandler3_getValueByKey.handleRequest</text>
</g>
<g>
<title>one/nio/http/HttpSession.sendResponse (12 samples, 5.66%)</title><rect x="10.0" y="211.0" width="66.8" height="15" fill="#63f463" rx="2" ry="2"/>
<text x="13.0" y="222.0">one/nio..</text>
</g>
<g>
<title>one/nio/http/HttpSession.writeResponse (12 samples, 5.66%)</title><rect x="10.0" y="195.0" width="66.8" height="15" fill="#61f261" rx="2" ry="2"/>
<text x="13.0" y="206.0">one/nio..</text>
</g>
<g>
<title>one/nio/http/Response.toBytes (9 samples, 4.25%)</title><rect x="10.0" y="179.0" width="50.1" height="15" fill="#56e756" rx="2" ry="2"/>
<text x="13.0" y="190.0">one/n..</text>
</g>
<g>
<title>one/nio/util/ByteArrayBuilder.&lt;init&gt; (9 samples, 4.25%)</title><rect x="10.0" y="163.0" width="50.1" height="15" fill="#56e756" rx="2" ry="2"/>
<text x="13.0" y="174.0">one/n..</text>
</g>
<g>
<title>byte[] (9 samples, 4.25%)</title><rect x="10.0" y="147.0" width="50.1" height="15" fill="#62d0d0" rx="2" ry="2"/>
<text x="13.0" y="158.0">byte[]</text>
</g>
<g>
<title>one/nio/net/Session.write (3 samples, 1.42%)</title><rect x="60.1" y="179.0" width="16.7" height="15" fill="#6bfc6b" rx="2" ry="2"/>
<text x="63.1" y="190.0"></text>
</g>
<g>
<title>one.nio.net.Session$ArrayQueueItem (3 samples, 1.42%)</title><rect x="60.1" y="163.0" width="16.7" height="15" fill="#66d4d4" rx="2" ry="2"/>
<text x="63.1" y="174.0"></text>
</g>
<g>
<title>one/nio/http/Request.getParameter (7 samples, 3.30%)</title><rect x="76.8" y="211.0" width="39.0" height="15" fill="#5dee5d" rx="2" ry="2"/>
<text x="79.8" y="222.0">one..</text>
</g>
<g>
<title>java/lang/String.substring (7 samples, 3.30%)</title><rect x="76.8" y="195.0" width="39.0" height="15" fill="#5dee5d" rx="2" ry="2"/>
<text x="79.8" y="206.0">jav..</text>
</g>
<g>
<title>java/lang/StringLatin1.newString (7 samples, 3.30%)</title><rect x="76.8" y="179.0" width="39.0" height="15" fill="#69fa69" rx="2" ry="2"/>
<text x="79.8" y="190.0">jav..</text>
</g>
<g>
<title>java.lang.String (2 samples, 0.94%)</title><rect x="76.8" y="163.0" width="11.1" height="15" fill="#6cdada" rx="2" ry="2"/>
<text x="79.8" y="174.0"></text>
</g>
<g>
<title>java/util/Arrays.copyOfRange (5 samples, 2.36%)</title><rect x="87.9" y="163.0" width="27.9" height="15" fill="#6cfd6c" rx="2" ry="2"/>
<text x="90.9" y="174.0">j..</text>
</g>
<g>
<title>byte[] (5 samples, 2.36%)</title><rect x="87.9" y="147.0" width="27.9" height="15" fill="#6ad8d8" rx="2" ry="2"/>
<text x="90.9" y="158.0">b..</text>
</g>
<g>
<title>ru/mail/polis/service/basta123/MyHttpServerImpl.getValueByKey (151 samples, 71.23%)</title><rect x="115.8" y="211.0" width="840.4" height="15" fill="#67f867" rx="2" ry="2"/>
<text x="118.8" y="222.0">ru/mail/polis/service/basta123/MyHttpServerImpl.getValueByKey</text>
</g>
<g>
<title>one.nio.http.Response (3 samples, 1.42%)</title><rect x="115.8" y="195.0" width="16.7" height="15" fill="#5ac8c8" rx="2" ry="2"/>
<text x="118.8" y="206.0"></text>
</g>
<g>
<title>one/nio/http/Response.&lt;init&gt; (9 samples, 4.25%)</title><rect x="132.5" y="195.0" width="50.0" height="15" fill="#60f160" rx="2" ry="2"/>
<text x="135.5" y="206.0">one/n..</text>
</g>
<g>
<title>byte[] (5 samples, 2.36%)</title><rect x="132.5" y="179.0" width="27.8" height="15" fill="#56c4c4" rx="2" ry="2"/>
<text x="135.5" y="190.0">b..</text>
</g>
<g>
<title>java.lang.String[] (2 samples, 0.94%)</title><rect x="160.3" y="179.0" width="11.1" height="15" fill="#5ecccc" rx="2" ry="2"/>
<text x="163.3" y="190.0"></text>
</g>
<g>
<title>java.lang.String (2 samples, 0.94%)</title><rect x="171.4" y="179.0" width="11.1" height="15" fill="#6cdada" rx="2" ry="2"/>
<text x="174.4" y="190.0"></text>
</g>
<g>
<title>ru/mail/polis/dao/basta123/MyDAORocksDB.get (134 samples, 63.21%)</title><rect x="182.5" y="195.0" width="745.9" height="15" fill="#5dee5d" rx="2" ry="2"/>
<text x="185.5" y="206.0">ru/mail/polis/dao/basta123/MyDAORocksDB.get</text>
</g>
<g>
<title>ru/mail/polis/Record.getValue (6 samples, 2.83%)</title><rect x="182.5" y="179.0" width="33.4" height="15" fill="#6afb6a" rx="2" ry="2"/>
<text x="185.5" y="190.0">ru..</text>
</g>
<g>
<title>java/nio/HeapByteBuffer.asReadOnlyBuffer (6 samples, 2.83%)</title><rect x="182.5" y="163.0" width="33.4" height="15" fill="#6dfe6d" rx="2" ry="2"/>
<text x="185.5" y="174.0">ja..</text>
</g>
<g>
<title>java.nio.HeapByteBufferR (6 samples, 2.83%)</title><rect x="182.5" y="147.0" width="33.4" height="15" fill="#55c3c3" rx="2" ry="2"/>
<text x="185.5" y="158.0">ja..</text>
</g>
<g>
<title>ru/mail/polis/dao/basta123/MyDAORocksDB.iterator (107 samples, 50.47%)</title><rect x="215.9" y="179.0" width="595.6" height="15" fill="#5dee5d" rx="2" ry="2"/>
<text x="218.9" y="190.0">ru/mail/polis/dao/basta123/MyDAORocksDB.iterator</text>
</g>
<g>
<title>org/rocksdb/RocksDB.newIterator (7 samples, 3.30%)</title><rect x="215.9" y="163.0" width="39.0" height="15" fill="#67f867" rx="2" ry="2"/>
<text x="218.9" y="174.0">org..</text>
</g>
<g>
<title>org/rocksdb/RocksIterator.&lt;init&gt; (7 samples, 3.30%)</title><rect x="215.9" y="147.0" width="39.0" height="15" fill="#66f766" rx="2" ry="2"/>
<text x="218.9" y="158.0">org..</text>
</g>
<g>
<title>org/rocksdb/AbstractRocksIterator.&lt;init&gt; (7 samples, 3.30%)</title><rect x="215.9" y="131.0" width="39.0" height="15" fill="#6bfc6b" rx="2" ry="2"/>
<text x="218.9" y="142.0">org..</text>
</g>
<g>
<title>org/rocksdb/RocksObject.&lt;init&gt; (7 samples, 3.30%)</title><rect x="215.9" y="115.0" width="39.0" height="15" fill="#57e857" rx="2" ry="2"/>
<text x="218.9" y="126.0">org..</text>
</g>
<g>
<title>org/rocksdb/AbstractImmutableNativeReference.&lt;init&gt; (7 samples, 3.30%)</title><rect x="215.9" y="99.0" width="39.0" height="15" fill="#66f766" rx="2" ry="2"/>
<text x="218.9" y="110.0">org..</text>
</g>
<g>
<title>java.util.concurrent.atomic.AtomicBoolean (1 samples, 0.47%)</title><rect x="215.9" y="83.0" width="5.6" height="15" fill="#6cdada" rx="2" ry="2"/>
<text x="218.9" y="94.0"></text>
</g>
<g>
<title>org/rocksdb/AbstractNativeReference.&lt;init&gt; (6 samples, 2.83%)</title><rect x="221.5" y="83.0" width="33.4" height="15" fill="#59ea59" rx="2" ry="2"/>
<text x="224.5" y="94.0">or..</text>
</g>
<g>
<title>java/lang/Object.&lt;init&gt; (6 samples, 2.83%)</title><rect x="221.5" y="67.0" width="33.4" height="15" fill="#5ced5c" rx="2" ry="2"/>
<text x="224.5" y="78.0">ja..</text>
</g>
<g>
<title>java/lang/ref/Finalizer.register (6 samples, 2.83%)</title><rect x="221.5" y="51.0" width="33.4" height="15" fill="#60f160" rx="2" ry="2"/>
<text x="224.5" y="62.0">ja..</text>
</g>
<g>
<title>java.lang.ref.Finalizer (6 samples, 2.83%)</title><rect x="221.5" y="35.0" width="33.4" height="15" fill="#60cece" rx="2" ry="2"/>
<text x="224.5" y="46.0">ja..</text>
</g>
<g>
<title>ru.mail.polis.dao.basta123.MyRecordIter (2 samples, 0.94%)</title><rect x="254.9" y="163.0" width="11.1" height="15" fill="#62d0d0" rx="2" ry="2"/>
<text x="257.9" y="174.0"></text>
</g>
<g>
<title>ru/mail/polis/dao/basta123/MyRecordIter.&lt;init&gt; (98 samples, 46.23%)</title><rect x="266.0" y="163.0" width="545.5" height="15" fill="#55e655" rx="2" ry="2"/>
<text x="269.0" y="174.0">ru/mail/polis/dao/basta123/MyRecordIter.&lt;init&gt;</text>
</g>
<g>
<title>org/rocksdb/AbstractRocksIterator.seek (94 samples, 44.34%)</title><rect x="266.0" y="147.0" width="523.2" height="15" fill="#5eef5e" rx="2" ry="2"/>
<text x="269.0" y="158.0">org/rocksdb/AbstractRocksIterator.seek</text>
</g>
<g>
<title>org/rocksdb/RocksIterator.seek0 (94 samples, 44.34%)</title><rect x="266.0" y="131.0" width="523.2" height="15" fill="#5aeb5a" rx="2" ry="2"/>
<text x="269.0" y="142.0">org/rocksdb/RocksIterator.seek0</text>
</g>
<g>
<title>ru/mail/polis/dao/basta123/MyComparator.compare (94 samples, 44.34%)</title><rect x="266.0" y="115.0" width="523.2" height="15" fill="#63f463" rx="2" ry="2"/>
<text x="269.0" y="126.0">ru/mail/polis/dao/basta123/MyComparator.compare</text>
</g>
<g>
<title>ru/mail/polis/dao/basta123/MyComparator.compare (94 samples, 44.34%)</title><rect x="266.0" y="99.0" width="523.2" height="15" fill="#6bfc6b" rx="2" ry="2"/>
<text x="269.0" y="110.0">ru/mail/polis/dao/basta123/MyComparator.compare</text>
</g>
<g>
<title>org/rocksdb/AbstractSlice.data (94 samples, 44.34%)</title><rect x="266.0" y="83.0" width="523.2" height="15" fill="#56e756" rx="2" ry="2"/>
<text x="269.0" y="94.0">org/rocksdb/AbstractSlice.data</text>
</g>
<g>
<title>org/rocksdb/Slice.data0 (94 samples, 44.34%)</title><rect x="266.0" y="67.0" width="523.2" height="15" fill="#62f362" rx="2" ry="2"/>
<text x="269.0" y="78.0">org/rocksdb/Slice.data0</text>
</g>
<g>
<title>org/rocksdb/Slice.data0 (94 samples, 44.34%)</title><rect x="266.0" y="51.0" width="523.2" height="15" fill="#69fa69" rx="2" ry="2"/>
<text x="269.0" y="62.0">org/rocksdb/Slice.data0</text>
</g>
<g>
<title>byte[] (94 samples, 44.34%)</title><rect x="266.0" y="35.0" width="523.2" height="15" fill="#53c1c1" rx="2" ry="2"/>
<text x="269.0" y="46.0">byte[]</text>
</g>
<g>
<title>ru/mail/polis/service/basta123/Utils.getByteArrayFromByteBuffer (4 samples, 1.89%)</title><rect x="789.2" y="147.0" width="22.3" height="15" fill="#5bec5b" rx="2" ry="2"/>
<text x="792.2" y="158.0">r..</text>
</g>
<g>
<title>byte[] (4 samples, 1.89%)</title><rect x="789.2" y="131.0" width="22.3" height="15" fill="#55c3c3" rx="2" ry="2"/>
<text x="792.2" y="142.0">b..</text>
</g>
<g>
<title>ru/mail/polis/dao/basta123/MyRecordIter.next (21 samples, 9.91%)</title><rect x="811.5" y="179.0" width="116.9" height="15" fill="#63f463" rx="2" ry="2"/>
<text x="814.5" y="190.0">ru/mail/polis/..</text>
</g>
<g>
<title>ru/mail/polis/dao/basta123/MyRecordIter.next (21 samples, 9.91%)</title><rect x="811.5" y="163.0" width="116.9" height="15" fill="#61f261" rx="2" ry="2"/>
<text x="814.5" y="174.0">ru/mail/polis/..</text>
</g>
<g>
<title>org/rocksdb/AbstractRocksIterator.next (12 samples, 5.66%)</title><rect x="811.5" y="147.0" width="66.8" height="15" fill="#64f564" rx="2" ry="2"/>
<text x="814.5" y="158.0">org/roc..</text>
</g>
<g>
<title>org/rocksdb/RocksIterator.next0 (12 samples, 5.66%)</title><rect x="811.5" y="131.0" width="66.8" height="15" fill="#61f261" rx="2" ry="2"/>
<text x="814.5" y="142.0">org/roc..</text>
</g>
<g>
<title>ru/mail/polis/dao/basta123/MyComparator.compare (12 samples, 5.66%)</title><rect x="811.5" y="115.0" width="66.8" height="15" fill="#51e251" rx="2" ry="2"/>
<text x="814.5" y="126.0">ru/mail..</text>
</g>
<g>
<title>ru/mail/polis/dao/basta123/MyComparator.compare (12 samples, 5.66%)</title><rect x="811.5" y="99.0" width="66.8" height="15" fill="#60f160" rx="2" ry="2"/>
<text x="814.5" y="110.0">ru/mail..</text>
</g>
<g>
<title>org/rocksdb/AbstractSlice.data (12 samples, 5.66%)</title><rect x="811.5" y="83.0" width="66.8" height="15" fill="#60f160" rx="2" ry="2"/>
<text x="814.5" y="94.0">org/roc..</text>
</g>
<g>
<title>org/rocksdb/Slice.data0 (12 samples, 5.66%)</title><rect x="811.5" y="67.0" width="66.8" height="15" fill="#57e857" rx="2" ry="2"/>
<text x="814.5" y="78.0">org/roc..</text>
</g>
<g>
<title>org/rocksdb/Slice.data0 (12 samples, 5.66%)</title><rect x="811.5" y="51.0" width="66.8" height="15" fill="#50e150" rx="2" ry="2"/>
<text x="814.5" y="62.0">org/roc..</text>
</g>
<g>
<title>byte[] (12 samples, 5.66%)</title><rect x="811.5" y="35.0" width="66.8" height="15" fill="#5ac8c8" rx="2" ry="2"/>
<text x="814.5" y="46.0">byte[]</text>
</g>
<g>
<title>org/rocksdb/RocksIterator.key (1 samples, 0.47%)</title><rect x="878.3" y="147.0" width="5.6" height="15" fill="#50e150" rx="2" ry="2"/>
<text x="881.3" y="158.0"></text>
</g>
<g>
<title>org/rocksdb/RocksIterator.key0 (1 samples, 0.47%)</title><rect x="878.3" y="131.0" width="5.6" height="15" fill="#6bfc6b" rx="2" ry="2"/>
<text x="881.3" y="142.0"></text>
</g>
<g>
<title>byte[] (1 samples, 0.47%)</title><rect x="878.3" y="115.0" width="5.6" height="15" fill="#62d0d0" rx="2" ry="2"/>
<text x="881.3" y="126.0"></text>
</g>
<g>
<title>org/rocksdb/RocksIterator.value (2 samples, 0.94%)</title><rect x="883.9" y="147.0" width="11.1" height="15" fill="#67f867" rx="2" ry="2"/>
<text x="886.9" y="158.0"></text>
</g>
<g>
<title>org/rocksdb/RocksIterator.value0 (2 samples, 0.94%)</title><rect x="883.9" y="131.0" width="11.1" height="15" fill="#6afb6a" rx="2" ry="2"/>
<text x="886.9" y="142.0"></text>
</g>
<g>
<title>byte[] (2 samples, 0.94%)</title><rect x="883.9" y="115.0" width="11.1" height="15" fill="#6bd9d9" rx="2" ry="2"/>
<text x="886.9" y="126.0"></text>
</g>
<g>
<title>ru/mail/polis/service/basta123/Utils.getByteBufferFromByteArray (6 samples, 2.83%)</title><rect x="895.0" y="147.0" width="33.4" height="15" fill="#55e655" rx="2" ry="2"/>
<text x="898.0" y="158.0">ru..</text>
</g>
<g>
<title>java/nio/ByteBuffer.wrap (6 samples, 2.83%)</title><rect x="895.0" y="131.0" width="33.4" height="15" fill="#5dee5d" rx="2" ry="2"/>
<text x="898.0" y="142.0">ja..</text>
</g>
<g>
<title>java/nio/ByteBuffer.wrap (6 samples, 2.83%)</title><rect x="895.0" y="115.0" width="33.4" height="15" fill="#5eef5e" rx="2" ry="2"/>
<text x="898.0" y="126.0">ja..</text>
</g>
<g>
<title>java.nio.HeapByteBuffer (6 samples, 2.83%)</title><rect x="895.0" y="99.0" width="33.4" height="15" fill="#67d5d5" rx="2" ry="2"/>
<text x="898.0" y="110.0">ja..</text>
</g>
<g>
<title>ru/mail/polis/service/basta123/Utils.getByteArrayFromByteBuffer (2 samples, 0.94%)</title><rect x="928.4" y="195.0" width="11.1" height="15" fill="#63f463" rx="2" ry="2"/>
<text x="931.4" y="206.0"></text>
</g>
<g>
<title>byte[] (2 samples, 0.94%)</title><rect x="928.4" y="179.0" width="11.1" height="15" fill="#6cdada" rx="2" ry="2"/>
<text x="931.4" y="190.0"></text>
</g>
<g>
<title>ru/mail/polis/service/basta123/Utils.getByteBufferFromByteArray (3 samples, 1.42%)</title><rect x="939.5" y="195.0" width="16.7" height="15" fill="#54e554" rx="2" ry="2"/>
<text x="942.5" y="206.0"></text>
</g>
<g>
<title>java/nio/ByteBuffer.wrap (3 samples, 1.42%)</title><rect x="939.5" y="179.0" width="16.7" height="15" fill="#58e958" rx="2" ry="2"/>
<text x="942.5" y="190.0"></text>
</g>
<g>
<title>java/nio/ByteBuffer.wrap (3 samples, 1.42%)</title><rect x="939.5" y="163.0" width="16.7" height="15" fill="#6afb6a" rx="2" ry="2"/>
<text x="942.5" y="174.0"></text>
</g>
<g>
<title>java.nio.HeapByteBuffer (3 samples, 1.42%)</title><rect x="939.5" y="147.0" width="16.7" height="15" fill="#5ac8c8" rx="2" ry="2"/>
<text x="942.5" y="158.0"></text>
</g>
<g>
<title>one/nio/http/Request.getPath (4 samples, 1.89%)</title><rect x="956.2" y="227.0" width="22.3" height="15" fill="#6afb6a" rx="2" ry="2"/>
<text x="959.2" y="238.0">o..</text>
</g>
<g>
<title>java/lang/String.substring (4 samples, 1.89%)</title><rect x="956.2" y="211.0" width="22.3" height="15" fill="#66f766" rx="2" ry="2"/>
<text x="959.2" y="222.0">j..</text>
</g>
<g>
<title>java/lang/StringLatin1.newString (4 samples, 1.89%)</title><rect x="956.2" y="195.0" width="22.3" height="15" fill="#5eef5e" rx="2" ry="2"/>
<text x="959.2" y="206.0">j..</text>
</g>
<g>
<title>java/util/Arrays.copyOfRange (4 samples, 1.89%)</title><rect x="956.2" y="179.0" width="22.3" height="15" fill="#58e958" rx="2" ry="2"/>
<text x="959.2" y="190.0">j..</text>
</g>
<g>
<title>byte[] (4 samples, 1.89%)</title><rect x="956.2" y="163.0" width="22.3" height="15" fill="#6cdada" rx="2" ry="2"/>
<text x="959.2" y="174.0">b..</text>
</g>
<g>
<title>one/nio/http/HttpSession.parseRequest (24 samples, 11.32%)</title><rect x="978.5" y="259.0" width="133.6" height="15" fill="#53e453" rx="2" ry="2"/>
<text x="981.5" y="270.0">one/nio/http/Http..</text>
</g>
<g>
<title>one.nio.http.Request (2 samples, 0.94%)</title><rect x="978.5" y="243.0" width="11.1" height="15" fill="#69d7d7" rx="2" ry="2"/>
<text x="981.5" y="254.0"></text>
</g>
<g>
<title>one/nio/http/Request.&lt;init&gt; (9 samples, 4.25%)</title><rect x="989.6" y="243.0" width="50.1" height="15" fill="#62f362" rx="2" ry="2"/>
<text x="992.6" y="254.0">one/n..</text>
</g>
<g>
<title>java.lang.String[] (9 samples, 4.25%)</title><rect x="989.6" y="227.0" width="50.1" height="15" fill="#65d3d3" rx="2" ry="2"/>
<text x="992.6" y="238.0">java...</text>
</g>
<g>
<title>one/nio/util/Utf8.read (13 samples, 6.13%)</title><rect x="1039.7" y="243.0" width="72.4" height="15" fill="#6bfc6b" rx="2" ry="2"/>
<text x="1042.7" y="254.0">one/nio/..</text>
</g>
<g>
<title>one/nio/util/Utf8.read (13 samples, 6.13%)</title><rect x="1039.7" y="227.0" width="72.4" height="15" fill="#55e655" rx="2" ry="2"/>
<text x="1042.7" y="238.0">one/nio/..</text>
</g>
<g>
<title>char[] (6 samples, 2.83%)</title><rect x="1039.7" y="211.0" width="33.4" height="15" fill="#58c6c6" rx="2" ry="2"/>
<text x="1042.7" y="222.0">ch..</text>
</g>
<g>
<title>java.lang.String (3 samples, 1.42%)</title><rect x="1073.1" y="211.0" width="16.7" height="15" fill="#55c3c3" rx="2" ry="2"/>
<text x="1076.1" y="222.0"></text>
</g>
<g>
<title>java/lang/String.&lt;init&gt; (4 samples, 1.89%)</title><rect x="1089.8" y="211.0" width="22.3" height="15" fill="#56e756" rx="2" ry="2"/>
<text x="1092.8" y="222.0">j..</text>
</g>
<g>
<title>java/lang/String.&lt;init&gt; (4 samples, 1.89%)</title><rect x="1089.8" y="195.0" width="22.3" height="15" fill="#62f362" rx="2" ry="2"/>
<text x="1092.8" y="206.0">j..</text>
</g>
<g>
<title>java/lang/StringUTF16.compress (4 samples, 1.89%)</title><rect x="1089.8" y="179.0" width="22.3" height="15" fill="#55e655" rx="2" ry="2"/>
<text x="1092.8" y="190.0">j..</text>
</g>
<g>
<title>byte[] (4 samples, 1.89%)</title><rect x="1089.8" y="163.0" width="22.3" height="15" fill="#53c1c1" rx="2" ry="2"/>
<text x="1092.8" y="174.0">b..</text>
</g>
<g>
<title>one/nio/util/Utf8.read (14 samples, 6.60%)</title><rect x="1112.1" y="259.0" width="77.9" height="15" fill="#56e756" rx="2" ry="2"/>
<text x="1115.1" y="270.0">one/nio/u..</text>
</g>
<g>
<title>one/nio/util/Utf8.read (14 samples, 6.60%)</title><rect x="1112.1" y="243.0" width="77.9" height="15" fill="#6cfd6c" rx="2" ry="2"/>
<text x="1115.1" y="254.0">one/nio/u..</text>
</g>
<g>
<title>char[] (7 samples, 3.30%)</title><rect x="1112.1" y="227.0" width="38.9" height="15" fill="#50bebe" rx="2" ry="2"/>
<text x="1115.1" y="238.0">cha..</text>
</g>
<g>
<title>java.lang.String (3 samples, 1.42%)</title><rect x="1151.0" y="227.0" width="16.7" height="15" fill="#54c2c2" rx="2" ry="2"/>
<text x="1154.0" y="238.0"></text>
</g>
<g>
<title>java/lang/String.&lt;init&gt; (4 samples, 1.89%)</title><rect x="1167.7" y="227.0" width="22.3" height="15" fill="#53e453" rx="2" ry="2"/>
<text x="1170.7" y="238.0">j..</text>
</g>
<g>
<title>java/lang/String.&lt;init&gt; (4 samples, 1.89%)</title><rect x="1167.7" y="211.0" width="22.3" height="15" fill="#5dee5d" rx="2" ry="2"/>
<text x="1170.7" y="222.0">j..</text>
</g>
<g>
<title>java/lang/StringUTF16.compress (4 samples, 1.89%)</title><rect x="1167.7" y="195.0" width="22.3" height="15" fill="#63f463" rx="2" ry="2"/>
<text x="1170.7" y="206.0">j..</text>
</g>
<g>
<title>byte[] (4 samples, 1.89%)</title><rect x="1167.7" y="179.0" width="22.3" height="15" fill="#6bd9d9" rx="2" ry="2"/>
<text x="1170.7" y="190.0">b..</text>
</g>
</g>
</svg>
