<?xml version="1.0" standalone="no"?>
<!DOCTYPE svg PUBLIC "-//W3C//DTD SVG 1.1//EN" "http://www.w3.org/Graphics/SVG/1.1/DTD/svg11.dtd">
<svg version="1.1" width="1200" height="310" onload="init(evt)" viewBox="0 0 1200 310" xmlns="http://www.w3.org/2000/svg" xmlns:xlink="http://www.w3.org/1999/xlink">
<style type="text/css">
	text { font-family:Verdana; font-size:12px; fill:rgb(0,0,0); }
	#search { opacity:0.1; cursor:pointer; }
	#search:hover, #search.show { opacity:1; }
	#subtitle { text-anchor:middle; font-color:rgb(160,160,160); }
	#title { text-anchor:middle; font-size:17px}
	#unzoom { cursor:pointer; }
	#frames > *:hover { stroke:black; stroke-width:0.5; cursor:pointer; }
	.hide { display:none; }
	.parent { opacity:0.5; }
</style>
<script type="text/ecmascript">
<![CDATA[
	"use strict";
	var details, searchbtn, unzoombtn, matchedtxt, svg, searching;
	function init(evt) {
		details = document.getElementById("details").firstChild;
		searchbtn = document.getElementById("search");
		unzoombtn = document.getElementById("unzoom");
		matchedtxt = document.getElementById("matched");
		svg = document.getElementsByTagName("svg")[0];
		searching = 0;
	}

	window.addEventListener("click", function(e) {
		var target = find_group(e.target);
		if (target) {
			if (target.nodeName == "a") {
				if (e.ctrlKey === false) return;
				e.preventDefault();
			}
			if (target.classList.contains("parent")) unzoom();
			zoom(target);
		}
		else if (e.target.id == "unzoom") unzoom();
		else if (e.target.id == "search") search_prompt();
	}, false)

	// mouse-over for info
	// show
	window.addEventListener("mouseover", function(e) {
		var target = find_group(e.target);
		if (target) details.nodeValue = "Function: " + g_to_text(target);
	}, false)

	// clear
	window.addEventListener("mouseout", function(e) {
		var target = find_group(e.target);
		if (target) details.nodeValue = ' ';
	}, false)

	// ctrl-F for search
	window.addEventListener("keydown",function (e) {
		if (e.keyCode === 114 || (e.ctrlKey && e.keyCode === 70)) {
			e.preventDefault();
			search_prompt();
		}
	}, false)

	// functions
	function find_child(node, selector) {
		var children = node.querySelectorAll(selector);
		if (children.length) return children[0];
		return;
	}
	function find_group(node) {
		var parent = node.parentElement;
		if (!parent) return;
		if (parent.id == "frames") return node;
		return find_group(parent);
	}
	function orig_save(e, attr, val) {
		if (e.attributes["_orig_" + attr] != undefined) return;
		if (e.attributes[attr] == undefined) return;
		if (val == undefined) val = e.attributes[attr].value;
		e.setAttribute("_orig_" + attr, val);
	}
	function orig_load(e, attr) {
		if (e.attributes["_orig_"+attr] == undefined) return;
		e.attributes[attr].value = e.attributes["_orig_" + attr].value;
		e.removeAttribute("_orig_"+attr);
	}
	function g_to_text(e) {
		var text = find_child(e, "title").firstChild.nodeValue;
		return (text)
	}
	function g_to_func(e) {
		var func = g_to_text(e);
		// if there's any manipulation we want to do to the function
		// name before it's searched, do it here before returning.
		return (func);
	}
	function update_text(e) {
		var r = find_child(e, "rect");
		var t = find_child(e, "text");
		var w = parseFloat(r.attributes.width.value) -3;
		var txt = find_child(e, "title").textContent.replace(/\([^(]*\)$/,"");
		t.attributes.x.value = parseFloat(r.attributes.x.value) + 3;

		// Smaller than this size won't fit anything
		if (w < 2 * 12 * 0.59) {
			t.textContent = "";
			return;
		}

		t.textContent = txt;
		// Fit in full text width
		if (/^ *$/.test(txt) || t.getSubStringLength(0, txt.length) < w)
			return;

		for (var x = txt.length - 2; x > 0; x--) {
			if (t.getSubStringLength(0, x + 2) <= w) {
				t.textContent = txt.substring(0, x) + "..";
				return;
			}
		}
		t.textContent = "";
	}

	// zoom
	function zoom_reset(e) {
		if (e.attributes != undefined) {
			orig_load(e, "x");
			orig_load(e, "width");
		}
		if (e.childNodes == undefined) return;
		for (var i = 0, c = e.childNodes; i < c.length; i++) {
			zoom_reset(c[i]);
		}
	}
	function zoom_child(e, x, ratio) {
		if (e.attributes != undefined) {
			if (e.attributes.x != undefined) {
				orig_save(e, "x");
				e.attributes.x.value = (parseFloat(e.attributes.x.value) - x - 10) * ratio + 10;
				if (e.tagName == "text")
					e.attributes.x.value = find_child(e.parentNode, "rect[x]").attributes.x.value + 3;
			}
			if (e.attributes.width != undefined) {
				orig_save(e, "width");
				e.attributes.width.value = parseFloat(e.attributes.width.value) * ratio;
			}
		}

		if (e.childNodes == undefined) return;
		for (var i = 0, c = e.childNodes; i < c.length; i++) {
			zoom_child(c[i], x - 10, ratio);
		}
	}
	function zoom_parent(e) {
		if (e.attributes) {
			if (e.attributes.x != undefined) {
				orig_save(e, "x");
				e.attributes.x.value = 10;
			}
			if (e.attributes.width != undefined) {
				orig_save(e, "width");
				e.attributes.width.value = parseInt(svg.width.baseVal.value) - (10 * 2);
			}
		}
		if (e.childNodes == undefined) return;
		for (var i = 0, c = e.childNodes; i < c.length; i++) {
			zoom_parent(c[i]);
		}
	}
	function zoom(node) {
		var attr = find_child(node, "rect").attributes;
		var width = parseFloat(attr.width.value);
		var xmin = parseFloat(attr.x.value);
		var xmax = parseFloat(xmin + width);
		var ymin = parseFloat(attr.y.value);
		var ratio = (svg.width.baseVal.value - 2 * 10) / width;

		// XXX: Workaround for JavaScript float issues (fix me)
		var fudge = 0.0001;

		unzoombtn.classList.remove("hide");

		var el = document.getElementById("frames").children;
		for (var i = 0; i < el.length; i++) {
			var e = el[i];
			var a = find_child(e, "rect").attributes;
			var ex = parseFloat(a.x.value);
			var ew = parseFloat(a.width.value);
			var upstack;
			// Is it an ancestor
			if (0 == 0) {
				upstack = parseFloat(a.y.value) > ymin;
			} else {
				upstack = parseFloat(a.y.value) < ymin;
			}
			if (upstack) {
				// Direct ancestor
				if (ex <= xmin && (ex+ew+fudge) >= xmax) {
					e.classList.add("parent");
					zoom_parent(e);
					update_text(e);
				}
				// not in current path
				else
					e.classList.add("hide");
			}
			// Children maybe
			else {
				// no common path
				if (ex < xmin || ex + fudge >= xmax) {
					e.classList.add("hide");
				}
				else {
					zoom_child(e, xmin, ratio);
					update_text(e);
				}
			}
		}
	}
	function unzoom() {
		unzoombtn.classList.add("hide");
		var el = document.getElementById("frames").children;
		for(var i = 0; i < el.length; i++) {
			el[i].classList.remove("parent");
			el[i].classList.remove("hide");
			zoom_reset(el[i]);
			update_text(el[i]);
		}
	}

	// search
	function reset_search() {
		var el = document.querySelectorAll("#frames rect");
		for (var i = 0; i < el.length; i++) {
			orig_load(el[i], "fill")
		}
	}
	function search_prompt() {
		if (!searching) {
			var term = prompt("Enter a search term (regexp " +
			    "allowed, eg: ^ext4_)", "");
			if (term != null) {
				search(term)
			}
		} else {
			reset_search();
			searching = 0;
			searchbtn.classList.remove("show");
			searchbtn.firstChild.nodeValue = "Search"
			matchedtxt.classList.add("hide");
			matchedtxt.firstChild.nodeValue = ""
		}
	}
	function search(term) {
		var re = new RegExp(term);
		var el = document.getElementById("frames").children;
		var matches = new Object();
		var maxwidth = 0;
		for (var i = 0; i < el.length; i++) {
			var e = el[i];
			var func = g_to_func(e);
			var rect = find_child(e, "rect");
			if (func == null || rect == null)
				continue;

			// Save max width. Only works as we have a root frame
			var w = parseFloat(rect.attributes.width.value);
			if (w > maxwidth)
				maxwidth = w;

			if (func.match(re)) {
				// highlight
				var x = parseFloat(rect.attributes.x.value);
				orig_save(rect, "fill");
				rect.attributes.fill.value = "rgb(230,0,230)";

				// remember matches
				if (matches[x] == undefined) {
					matches[x] = w;
				} else {
					if (w > matches[x]) {
						// overwrite with parent
						matches[x] = w;
					}
				}
				searching = 1;
			}
		}
		if (!searching)
			return;

		searchbtn.classList.add("show");
		searchbtn.firstChild.nodeValue = "Reset Search";

		// calculate percent matched, excluding vertical overlap
		var count = 0;
		var lastx = -1;
		var lastw = 0;
		var keys = Array();
		for (k in matches) {
			if (matches.hasOwnProperty(k))
				keys.push(k);
		}
		// sort the matched frames by their x location
		// ascending, then width descending
		keys.sort(function(a, b){
			return a - b;
		});
		// Step through frames saving only the biggest bottom-up frames
		// thanks to the sort order. This relies on the tree property
		// where children are always smaller than their parents.
		var fudge = 0.0001;	// JavaScript floating point
		for (var k in keys) {
			var x = parseFloat(keys[k]);
			var w = matches[keys[k]];
			if (x >= lastx + lastw - fudge) {
				count += w;
				lastx = x;
				lastw = w;
			}
		}
		// display matched percent
		matchedtxt.classList.remove("hide");
		var pct = 100 * count / maxwidth;
		if (pct != 100) pct = pct.toFixed(1)
		matchedtxt.firstChild.nodeValue = "Matched: " + pct + "%";
	}
]]>
</script>
<rect x="0" y="0" width="100%" height="100%" fill="rgb(240,240,220)"/>
<text id="title" x="600" y="24">Flame Graph</text>
<text id="details" x="10" y="293"> </text>
<text id="unzoom" x="10" y="24" class="hide">Reset Zoom</text>
<text id="search" x="1090" y="24">Search</text>
<text id="matched" x="1090" y="293"> </text>
<g id="frames">
<g>
<title>all (471 samples, 100.00%)</title><rect x="10.0" y="259.0" width="1180.0" height="15" fill="#fa7b7b" rx="2" ry="2"/>
<text x="13.0" y="270.0">all</text>
</g>
<g>
<title>[Attach Listener tid=2584] (1 samples, 0.21%)</title><rect x="10.0" y="243.0" width="2.5" height="15" fill="#ec6969" rx="2" ry="2"/>
<text x="13.0" y="254.0"></text>
</g>
<g>
<title>[no_Java_frame] (1 samples, 0.21%)</title><rect x="10.0" y="227.0" width="2.5" height="15" fill="#f87979" rx="2" ry="2"/>
<text x="13.0" y="238.0"></text>
</g>
<g>
<title>java.lang.String (1 samples, 0.21%)</title><rect x="10.0" y="211.0" width="2.5" height="15" fill="#67d5d5" rx="2" ry="2"/>
<text x="13.0" y="222.0"></text>
</g>
<g>
<title>[NIO Selector #0 tid=2468] (243 samples, 51.59%)</title><rect x="12.5" y="243.0" width="608.8" height="15" fill="#fc7e7e" rx="2" ry="2"/>
<text x="15.5" y="254.0">[NIO Selector #0 tid=2468]</text>
</g>
<g>
<title>one/nio/server/SelectorThread.run (243 samples, 51.59%)</title><rect x="12.5" y="227.0" width="608.8" height="15" fill="#55e655" rx="2" ry="2"/>
<text x="15.5" y="238.0">one/nio/server/SelectorThread.run</text>
</g>
<g>
<title>one/nio/net/Session.process (243 samples, 51.59%)</title><rect x="12.5" y="211.0" width="608.8" height="15" fill="#5aeb5a" rx="2" ry="2"/>
<text x="15.5" y="222.0">one/nio/net/Session.process</text>
</g>
<g>
<title>one/nio/http/HttpSession.processRead (243 samples, 51.59%)</title><rect x="12.5" y="195.0" width="608.8" height="15" fill="#67f867" rx="2" ry="2"/>
<text x="15.5" y="206.0">one/nio/http/HttpSession.processRead</text>
</g>
<g>
<title>one/nio/http/HttpSession.processHttpBuffer (243 samples, 51.59%)</title><rect x="12.5" y="179.0" width="608.8" height="15" fill="#58e958" rx="2" ry="2"/>
<text x="15.5" y="190.0">one/nio/http/HttpSession.processHttpBuffer</text>
</g>
<g>
<title>one/nio/http/HttpSession.handleParsedRequest (144 samples, 30.57%)</title><rect x="12.5" y="163.0" width="360.8" height="15" fill="#60f160" rx="2" ry="2"/>
<text x="15.5" y="174.0">one/nio/http/HttpSession.handleParsedRequest</text>
</g>
<g>
<title>one/nio/http/HttpServer.handleRequest (144 samples, 30.57%)</title><rect x="12.5" y="147.0" width="360.8" height="15" fill="#5eef5e" rx="2" ry="2"/>
<text x="15.5" y="158.0">one/nio/http/HttpServer.handleRequest</text>
</g>
<g>
<title>RequestHandler1_put.handleRequest (132 samples, 28.03%)</title><rect x="12.5" y="131.0" width="330.7" height="15" fill="#62f362" rx="2" ry="2"/>
<text x="15.5" y="142.0">RequestHandler1_put.handleRequest</text>
</g>
<g>
<title>one/nio/http/HttpSession.sendResponse (42 samples, 8.92%)</title><rect x="12.5" y="115.0" width="105.2" height="15" fill="#5aeb5a" rx="2" ry="2"/>
<text x="15.5" y="126.0">one/nio/http/..</text>
</g>
<g>
<title>one/nio/http/HttpSession.writeResponse (42 samples, 8.92%)</title><rect x="12.5" y="99.0" width="105.2" height="15" fill="#5ff05f" rx="2" ry="2"/>
<text x="15.5" y="110.0">one/nio/http/..</text>
</g>
<g>
<title>one/nio/http/Response.toBytes (26 samples, 5.52%)</title><rect x="12.5" y="83.0" width="65.1" height="15" fill="#6cfd6c" rx="2" ry="2"/>
<text x="15.5" y="94.0">one/nio..</text>
</g>
<g>
<title>one.nio.util.ByteArrayBuilder (4 samples, 0.85%)</title><rect x="12.5" y="67.0" width="10.0" height="15" fill="#6bd9d9" rx="2" ry="2"/>
<text x="15.5" y="78.0"></text>
</g>
<g>
<title>one/nio/util/ByteArrayBuilder.&lt;init&gt; (22 samples, 4.67%)</title><rect x="22.5" y="67.0" width="55.1" height="15" fill="#63f463" rx="2" ry="2"/>
<text x="25.5" y="78.0">one/n..</text>
</g>
<g>
<title>byte[] (22 samples, 4.67%)</title><rect x="22.5" y="51.0" width="55.1" height="15" fill="#65d3d3" rx="2" ry="2"/>
<text x="25.5" y="62.0">byte[]</text>
</g>
<g>
<title>one/nio/net/Session.write (16 samples, 3.40%)</title><rect x="77.6" y="83.0" width="40.1" height="15" fill="#54e554" rx="2" ry="2"/>
<text x="80.6" y="94.0">one..</text>
</g>
<g>
<title>one.nio.net.Session$ArrayQueueItem (16 samples, 3.40%)</title><rect x="77.6" y="67.0" width="40.1" height="15" fill="#62d0d0" rx="2" ry="2"/>
<text x="80.6" y="78.0">one..</text>
</g>
<g>
<title>one/nio/http/Request.getParameter (3 samples, 0.64%)</title><rect x="117.7" y="115.0" width="7.5" height="15" fill="#50e150" rx="2" ry="2"/>
<text x="120.7" y="126.0"></text>
</g>
<g>
<title>java/lang/String.substring (3 samples, 0.64%)</title><rect x="117.7" y="99.0" width="7.5" height="15" fill="#57e857" rx="2" ry="2"/>
<text x="120.7" y="110.0"></text>
</g>
<g>
<title>java/lang/StringLatin1.newString (3 samples, 0.64%)</title><rect x="117.7" y="83.0" width="7.5" height="15" fill="#54e554" rx="2" ry="2"/>
<text x="120.7" y="94.0"></text>
</g>
<g>
<title>java.lang.String (2 samples, 0.42%)</title><rect x="117.7" y="67.0" width="5.0" height="15" fill="#68d6d6" rx="2" ry="2"/>
<text x="120.7" y="78.0"></text>
</g>
<g>
<title>java/util/Arrays.copyOfRange (1 samples, 0.21%)</title><rect x="122.7" y="67.0" width="2.5" height="15" fill="#54e554" rx="2" ry="2"/>
<text x="125.7" y="78.0"></text>
</g>
<g>
<title>byte[] (1 samples, 0.21%)</title><rect x="122.7" y="51.0" width="2.5" height="15" fill="#5ccaca" rx="2" ry="2"/>
<text x="125.7" y="62.0"></text>
</g>
<g>
<title>ru/mail/polis/service/dariagap/ServiceImpl.put (87 samples, 18.47%)</title><rect x="125.2" y="115.0" width="218.0" height="15" fill="#53e453" rx="2" ry="2"/>
<text x="128.2" y="126.0">ru/mail/polis/service/dariaga..</text>
</g>
<g>
<title>java/lang/String.getBytes (8 samples, 1.70%)</title><rect x="125.2" y="99.0" width="20.1" height="15" fill="#53e453" rx="2" ry="2"/>
<text x="128.2" y="110.0"></text>
</g>
<g>
<title>java/lang/StringCoding.encode (8 samples, 1.70%)</title><rect x="125.2" y="83.0" width="20.1" height="15" fill="#6dfe6d" rx="2" ry="2"/>
<text x="128.2" y="94.0"></text>
</g>
<g>
<title>java/lang/StringCoding.encodeUTF8 (8 samples, 1.70%)</title><rect x="125.2" y="67.0" width="20.1" height="15" fill="#56e756" rx="2" ry="2"/>
<text x="128.2" y="78.0"></text>
</g>
<g>
<title>java/util/Arrays.copyOf (8 samples, 1.70%)</title><rect x="125.2" y="51.0" width="20.1" height="15" fill="#5ff05f" rx="2" ry="2"/>
<text x="128.2" y="62.0"></text>
</g>
<g>
<title>byte[] (8 samples, 1.70%)</title><rect x="125.2" y="35.0" width="20.1" height="15" fill="#69d7d7" rx="2" ry="2"/>
<text x="128.2" y="46.0"></text>
</g>
<g>
<title>java/nio/ByteBuffer.wrap (16 samples, 3.40%)</title><rect x="145.3" y="99.0" width="40.1" height="15" fill="#62f362" rx="2" ry="2"/>
<text x="148.3" y="110.0">jav..</text>
</g>
<g>
<title>java/nio/ByteBuffer.wrap (16 samples, 3.40%)</title><rect x="145.3" y="83.0" width="40.1" height="15" fill="#58e958" rx="2" ry="2"/>
<text x="148.3" y="94.0">jav..</text>
</g>
<g>
<title>java.nio.HeapByteBuffer (16 samples, 3.40%)</title><rect x="145.3" y="67.0" width="40.1" height="15" fill="#63d1d1" rx="2" ry="2"/>
<text x="148.3" y="78.0">jav..</text>
</g>
<g>
<title>one.nio.http.Response (6 samples, 1.27%)</title><rect x="185.4" y="99.0" width="15.0" height="15" fill="#5fcdcd" rx="2" ry="2"/>
<text x="188.4" y="110.0"></text>
</g>
<g>
<title>one/nio/http/Response.&lt;init&gt; (23 samples, 4.88%)</title><rect x="200.4" y="99.0" width="57.6" height="15" fill="#5eef5e" rx="2" ry="2"/>
<text x="203.4" y="110.0">one/ni..</text>
</g>
<g>
<title>byte[] (6 samples, 1.27%)</title><rect x="200.4" y="83.0" width="15.0" height="15" fill="#6ddbdb" rx="2" ry="2"/>
<text x="203.4" y="94.0"></text>
</g>
<g>
<title>java.lang.String[] (11 samples, 2.34%)</title><rect x="215.4" y="83.0" width="27.6" height="15" fill="#58c6c6" rx="2" ry="2"/>
<text x="218.4" y="94.0">j..</text>
</g>
<g>
<title>java.lang.String (6 samples, 1.27%)</title><rect x="243.0" y="83.0" width="15.0" height="15" fill="#67d5d5" rx="2" ry="2"/>
<text x="246.0" y="94.0"></text>
</g>
<g>
<title>ru/mail/polis/dao/dariagap/RocksDBStorage.upsert (34 samples, 7.22%)</title><rect x="258.0" y="99.0" width="85.2" height="15" fill="#5ff05f" rx="2" ry="2"/>
<text x="261.0" y="110.0">ru/mail/po..</text>
</g>
<g>
<title>ru/mail/polis/util/Util.byteBufferToBytes (22 samples, 4.67%)</title><rect x="258.0" y="83.0" width="55.1" height="15" fill="#67f867" rx="2" ry="2"/>
<text x="261.0" y="94.0">ru/ma..</text>
</g>
<g>
<title>byte[] (9 samples, 1.91%)</title><rect x="258.0" y="67.0" width="22.6" height="15" fill="#5ccaca" rx="2" ry="2"/>
<text x="261.0" y="78.0">b..</text>
</g>
<g>
<title>java/nio/HeapByteBuffer.duplicate (13 samples, 2.76%)</title><rect x="280.6" y="67.0" width="32.5" height="15" fill="#6afb6a" rx="2" ry="2"/>
<text x="283.6" y="78.0">ja..</text>
</g>
<g>
<title>java.nio.HeapByteBuffer (13 samples, 2.76%)</title><rect x="280.6" y="51.0" width="32.5" height="15" fill="#58c6c6" rx="2" ry="2"/>
<text x="283.6" y="62.0">ja..</text>
</g>
<g>
<title>ru/mail/polis/util/Util.pack (12 samples, 2.55%)</title><rect x="313.1" y="83.0" width="30.1" height="15" fill="#5aeb5a" rx="2" ry="2"/>
<text x="316.1" y="94.0">ru..</text>
</g>
<g>
<title>ru/mail/polis/util/Util.byteBufferToBytes (12 samples, 2.55%)</title><rect x="313.1" y="67.0" width="30.1" height="15" fill="#68f968" rx="2" ry="2"/>
<text x="316.1" y="78.0">ru..</text>
</g>
<g>
<title>byte[] (4 samples, 0.85%)</title><rect x="313.1" y="51.0" width="10.1" height="15" fill="#6bd9d9" rx="2" ry="2"/>
<text x="316.1" y="62.0"></text>
</g>
<g>
<title>java/nio/HeapByteBuffer.duplicate (8 samples, 1.70%)</title><rect x="323.2" y="51.0" width="20.0" height="15" fill="#52e352" rx="2" ry="2"/>
<text x="326.2" y="62.0"></text>
</g>
<g>
<title>java.nio.HeapByteBuffer (8 samples, 1.70%)</title><rect x="323.2" y="35.0" width="20.0" height="15" fill="#6cdada" rx="2" ry="2"/>
<text x="326.2" y="46.0"></text>
</g>
<g>
<title>one/nio/http/Request.getPath (12 samples, 2.55%)</title><rect x="343.2" y="131.0" width="30.1" height="15" fill="#5ff05f" rx="2" ry="2"/>
<text x="346.2" y="142.0">on..</text>
</g>
<g>
<title>java/lang/String.substring (12 samples, 2.55%)</title><rect x="343.2" y="115.0" width="30.1" height="15" fill="#52e352" rx="2" ry="2"/>
<text x="346.2" y="126.0">ja..</text>
</g>
<g>
<title>java/lang/StringLatin1.newString (12 samples, 2.55%)</title><rect x="343.2" y="99.0" width="30.1" height="15" fill="#55e655" rx="2" ry="2"/>
<text x="346.2" y="110.0">ja..</text>
</g>
<g>
<title>java.lang.String (7 samples, 1.49%)</title><rect x="343.2" y="83.0" width="17.5" height="15" fill="#63d1d1" rx="2" ry="2"/>
<text x="346.2" y="94.0"></text>
</g>
<g>
<title>java/util/Arrays.copyOfRange (5 samples, 1.06%)</title><rect x="360.7" y="83.0" width="12.6" height="15" fill="#6afb6a" rx="2" ry="2"/>
<text x="363.7" y="94.0"></text>
</g>
<g>
<title>byte[] (5 samples, 1.06%)</title><rect x="360.7" y="67.0" width="12.6" height="15" fill="#5ac8c8" rx="2" ry="2"/>
<text x="363.7" y="78.0"></text>
</g>
<g>
<title>one/nio/http/HttpSession.parseRequest (41 samples, 8.70%)</title><rect x="373.3" y="163.0" width="102.7" height="15" fill="#51e251" rx="2" ry="2"/>
<text x="376.3" y="174.0">one/nio/http..</text>
</g>
<g>
<title>one.nio.http.Request (9 samples, 1.91%)</title><rect x="373.3" y="147.0" width="22.5" height="15" fill="#50bebe" rx="2" ry="2"/>
<text x="376.3" y="158.0">o..</text>
</g>
<g>
<title>one/nio/http/Request.&lt;init&gt; (10 samples, 2.12%)</title><rect x="395.8" y="147.0" width="25.1" height="15" fill="#5dee5d" rx="2" ry="2"/>
<text x="398.8" y="158.0">o..</text>
</g>
<g>
<title>java.lang.String[] (10 samples, 2.12%)</title><rect x="395.8" y="131.0" width="25.1" height="15" fill="#51bfbf" rx="2" ry="2"/>
<text x="398.8" y="142.0">j..</text>
</g>
<g>
<title>one/nio/util/Utf8.read (22 samples, 4.67%)</title><rect x="420.9" y="147.0" width="55.1" height="15" fill="#57e857" rx="2" ry="2"/>
<text x="423.9" y="158.0">one/n..</text>
</g>
<g>
<title>one/nio/util/Utf8.read (22 samples, 4.67%)</title><rect x="420.9" y="131.0" width="55.1" height="15" fill="#6dfe6d" rx="2" ry="2"/>
<text x="423.9" y="142.0">one/n..</text>
</g>
<g>
<title>char[] (13 samples, 2.76%)</title><rect x="420.9" y="115.0" width="32.5" height="15" fill="#6bd9d9" rx="2" ry="2"/>
<text x="423.9" y="126.0">ch..</text>
</g>
<g>
<title>java.lang.String (4 samples, 0.85%)</title><rect x="453.4" y="115.0" width="10.1" height="15" fill="#69d7d7" rx="2" ry="2"/>
<text x="456.4" y="126.0"></text>
</g>
<g>
<title>java/lang/String.&lt;init&gt; (5 samples, 1.06%)</title><rect x="463.5" y="115.0" width="12.5" height="15" fill="#57e857" rx="2" ry="2"/>
<text x="466.5" y="126.0"></text>
</g>
<g>
<title>java/lang/String.&lt;init&gt; (5 samples, 1.06%)</title><rect x="463.5" y="99.0" width="12.5" height="15" fill="#60f160" rx="2" ry="2"/>
<text x="466.5" y="110.0"></text>
</g>
<g>
<title>java/lang/StringUTF16.compress (5 samples, 1.06%)</title><rect x="463.5" y="83.0" width="12.5" height="15" fill="#5bec5b" rx="2" ry="2"/>
<text x="466.5" y="94.0"></text>
</g>
<g>
<title>byte[] (5 samples, 1.06%)</title><rect x="463.5" y="67.0" width="12.5" height="15" fill="#66d4d4" rx="2" ry="2"/>
<text x="466.5" y="78.0"></text>
</g>
<g>
<title>one/nio/http/HttpSession.startParsingRequestBody (5 samples, 1.06%)</title><rect x="476.0" y="163.0" width="12.5" height="15" fill="#5ff05f" rx="2" ry="2"/>
<text x="479.0" y="174.0"></text>
</g>
<g>
<title>byte[] (5 samples, 1.06%)</title><rect x="476.0" y="147.0" width="12.5" height="15" fill="#64d2d2" rx="2" ry="2"/>
<text x="479.0" y="158.0"></text>
</g>
<g>
<title>one/nio/http/Request.getHeader (9 samples, 1.91%)</title><rect x="488.5" y="163.0" width="22.6" height="15" fill="#5ff05f" rx="2" ry="2"/>
<text x="491.5" y="174.0">o..</text>
</g>
<g>
<title>java/lang/String.substring (9 samples, 1.91%)</title><rect x="488.5" y="147.0" width="22.6" height="15" fill="#51e251" rx="2" ry="2"/>
<text x="491.5" y="158.0">j..</text>
</g>
<g>
<title>java/lang/StringLatin1.newString (9 samples, 1.91%)</title><rect x="488.5" y="131.0" width="22.6" height="15" fill="#5dee5d" rx="2" ry="2"/>
<text x="491.5" y="142.0">j..</text>
</g>
<g>
<title>java.lang.String (7 samples, 1.49%)</title><rect x="488.5" y="115.0" width="17.6" height="15" fill="#6bd9d9" rx="2" ry="2"/>
<text x="491.5" y="126.0"></text>
</g>
<g>
<title>java/util/Arrays.copyOfRange (2 samples, 0.42%)</title><rect x="506.1" y="115.0" width="5.0" height="15" fill="#6bfc6b" rx="2" ry="2"/>
<text x="509.1" y="126.0"></text>
</g>
<g>
<title>byte[] (2 samples, 0.42%)</title><rect x="506.1" y="99.0" width="5.0" height="15" fill="#65d3d3" rx="2" ry="2"/>
<text x="509.1" y="110.0"></text>
</g>
<g>
<title>one/nio/util/Utf8.read (44 samples, 9.34%)</title><rect x="511.1" y="163.0" width="110.2" height="15" fill="#58e958" rx="2" ry="2"/>
<text x="514.1" y="174.0">one/nio/util/..</text>
</g>
<g>
<title>one/nio/util/Utf8.read (44 samples, 9.34%)</title><rect x="511.1" y="147.0" width="110.2" height="15" fill="#66f766" rx="2" ry="2"/>
<text x="514.1" y="158.0">one/nio/util/..</text>
</g>
<g>
<title>char[] (18 samples, 3.82%)</title><rect x="511.1" y="131.0" width="45.1" height="15" fill="#63d1d1" rx="2" ry="2"/>
<text x="514.1" y="142.0">char[]</text>
</g>
<g>
<title>java.lang.String (11 samples, 2.34%)</title><rect x="556.2" y="131.0" width="27.5" height="15" fill="#5ac8c8" rx="2" ry="2"/>
<text x="559.2" y="142.0">j..</text>
</g>
<g>
<title>java/lang/String.&lt;init&gt; (15 samples, 3.18%)</title><rect x="583.7" y="131.0" width="37.6" height="15" fill="#64f564" rx="2" ry="2"/>
<text x="586.7" y="142.0">jav..</text>
</g>
<g>
<title>java/lang/String.&lt;init&gt; (15 samples, 3.18%)</title><rect x="583.7" y="115.0" width="37.6" height="15" fill="#54e554" rx="2" ry="2"/>
<text x="586.7" y="126.0">jav..</text>
</g>
<g>
<title>java/lang/StringUTF16.compress (15 samples, 3.18%)</title><rect x="583.7" y="99.0" width="37.6" height="15" fill="#5dee5d" rx="2" ry="2"/>
<text x="586.7" y="110.0">jav..</text>
</g>
<g>
<title>byte[] (15 samples, 3.18%)</title><rect x="583.7" y="83.0" width="37.6" height="15" fill="#6ad8d8" rx="2" ry="2"/>
<text x="586.7" y="94.0">byt..</text>
</g>
<g>
<title>[NIO Selector #1 tid=2469] (227 samples, 48.20%)</title><rect x="621.3" y="243.0" width="568.7" height="15" fill="#f97b7b" rx="2" ry="2"/>
<text x="624.3" y="254.0">[NIO Selector #1 tid=2469]</text>
</g>
<g>
<title>one/nio/server/SelectorThread.run (227 samples, 48.20%)</title><rect x="621.3" y="227.0" width="568.7" height="15" fill="#59ea59" rx="2" ry="2"/>
<text x="624.3" y="238.0">one/nio/server/SelectorThread.run</text>
</g>
<g>
<title>one/nio/net/NativeSelector.select (4 samples, 0.85%)</title><rect x="621.3" y="211.0" width="10.0" height="15" fill="#56e756" rx="2" ry="2"/>
<text x="624.3" y="222.0"></text>
</g>
<g>
<title>one.nio.net.NativeSelector$2 (4 samples, 0.85%)</title><rect x="621.3" y="195.0" width="10.0" height="15" fill="#6ad8d8" rx="2" ry="2"/>
<text x="624.3" y="206.0"></text>
</g>
<g>
<title>one/nio/net/Session.process (223 samples, 47.35%)</title><rect x="631.3" y="211.0" width="558.7" height="15" fill="#5aeb5a" rx="2" ry="2"/>
<text x="634.3" y="222.0">one/nio/net/Session.process</text>
</g>
<g>
<title>one/nio/http/HttpSession.processRead (223 samples, 47.35%)</title><rect x="631.3" y="195.0" width="558.7" height="15" fill="#64f564" rx="2" ry="2"/>
<text x="634.3" y="206.0">one/nio/http/HttpSession.processRead</text>
</g>
<g>
<title>one/nio/http/HttpSession.processHttpBuffer (223 samples, 47.35%)</title><rect x="631.3" y="179.0" width="558.7" height="15" fill="#6cfd6c" rx="2" ry="2"/>
<text x="634.3" y="190.0">one/nio/http/HttpSession.processHttpBuffer</text>
</g>
<g>
<title>one/nio/http/HttpSession.handleParsedRequest (113 samples, 23.99%)</title><rect x="631.3" y="163.0" width="283.1" height="15" fill="#61f261" rx="2" ry="2"/>
<text x="634.3" y="174.0">one/nio/http/HttpSession.handleParsedR..</text>
</g>
<g>
<title>one/nio/http/HttpServer.handleRequest (113 samples, 23.99%)</title><rect x="631.3" y="147.0" width="283.1" height="15" fill="#63f463" rx="2" ry="2"/>
<text x="634.3" y="158.0">one/nio/http/HttpServer.handleRequest</text>
</g>
<g>
<title>RequestHandler1_put.handleRequest (104 samples, 22.08%)</title><rect x="631.3" y="131.0" width="260.6" height="15" fill="#69fa69" rx="2" ry="2"/>
<text x="634.3" y="142.0">RequestHandler1_put.handleRequest</text>
</g>
<g>
<title>one/nio/http/HttpSession.sendResponse (27 samples, 5.73%)</title><rect x="631.3" y="115.0" width="67.7" height="15" fill="#5dee5d" rx="2" ry="2"/>
<text x="634.3" y="126.0">one/nio..</text>
</g>
<g>
<title>one/nio/http/HttpSession.writeResponse (27 samples, 5.73%)</title><rect x="631.3" y="99.0" width="67.7" height="15" fill="#6bfc6b" rx="2" ry="2"/>
<text x="634.3" y="110.0">one/nio..</text>
</g>
<g>
<title>one/nio/http/Response.toBytes (23 samples, 4.88%)</title><rect x="631.3" y="83.0" width="57.6" height="15" fill="#5bec5b" rx="2" ry="2"/>
<text x="634.3" y="94.0">one/ni..</text>
</g>
<g>
<title>one.nio.util.ByteArrayBuilder (2 samples, 0.42%)</title><rect x="631.3" y="67.0" width="5.0" height="15" fill="#68d6d6" rx="2" ry="2"/>
<text x="634.3" y="78.0"></text>
</g>
<g>
<title>one/nio/util/ByteArrayBuilder.&lt;init&gt; (21 samples, 4.46%)</title><rect x="636.3" y="67.0" width="52.6" height="15" fill="#64f564" rx="2" ry="2"/>
<text x="639.3" y="78.0">one/n..</text>
</g>
<g>
<title>byte[] (21 samples, 4.46%)</title><rect x="636.3" y="51.0" width="52.6" height="15" fill="#6bd9d9" rx="2" ry="2"/>
<text x="639.3" y="62.0">byte[]</text>
</g>
<g>
<title>one/nio/net/Session.write (4 samples, 0.85%)</title><rect x="688.9" y="83.0" width="10.1" height="15" fill="#5eef5e" rx="2" ry="2"/>
<text x="691.9" y="94.0"></text>
</g>
<g>
<title>one.nio.net.Session$ArrayQueueItem (4 samples, 0.85%)</title><rect x="688.9" y="67.0" width="10.1" height="15" fill="#56c4c4" rx="2" ry="2"/>
<text x="691.9" y="78.0"></text>
</g>
<g>
<title>one/nio/http/Request.getParameter (5 samples, 1.06%)</title><rect x="699.0" y="115.0" width="12.5" height="15" fill="#6cfd6c" rx="2" ry="2"/>
<text x="702.0" y="126.0"></text>
</g>
<g>
<title>java/lang/String.substring (5 samples, 1.06%)</title><rect x="699.0" y="99.0" width="12.5" height="15" fill="#6bfc6b" rx="2" ry="2"/>
<text x="702.0" y="110.0"></text>
</g>
<g>
<title>java/lang/StringLatin1.newString (5 samples, 1.06%)</title><rect x="699.0" y="83.0" width="12.5" height="15" fill="#54e554" rx="2" ry="2"/>
<text x="702.0" y="94.0"></text>
</g>
<g>
<title>java.lang.String (3 samples, 0.64%)</title><rect x="699.0" y="67.0" width="7.5" height="15" fill="#6ad8d8" rx="2" ry="2"/>
<text x="702.0" y="78.0"></text>
</g>
<g>
<title>java/util/Arrays.copyOfRange (2 samples, 0.42%)</title><rect x="706.5" y="67.0" width="5.0" height="15" fill="#63f463" rx="2" ry="2"/>
<text x="709.5" y="78.0"></text>
</g>
<g>
<title>byte[] (2 samples, 0.42%)</title><rect x="706.5" y="51.0" width="5.0" height="15" fill="#5ccaca" rx="2" ry="2"/>
<text x="709.5" y="62.0"></text>
</g>
<g>
<title>ru/mail/polis/service/dariagap/ServiceImpl.put (72 samples, 15.29%)</title><rect x="711.5" y="115.0" width="180.4" height="15" fill="#62f362" rx="2" ry="2"/>
<text x="714.5" y="126.0">ru/mail/polis/service/d..</text>
</g>
<g>
<title>java/lang/String.getBytes (7 samples, 1.49%)</title><rect x="711.5" y="99.0" width="17.5" height="15" fill="#58e958" rx="2" ry="2"/>
<text x="714.5" y="110.0"></text>
</g>
<g>
<title>java/lang/StringCoding.encode (7 samples, 1.49%)</title><rect x="711.5" y="83.0" width="17.5" height="15" fill="#67f867" rx="2" ry="2"/>
<text x="714.5" y="94.0"></text>
</g>
<g>
<title>java/lang/StringCoding.encodeUTF8 (7 samples, 1.49%)</title><rect x="711.5" y="67.0" width="17.5" height="15" fill="#59ea59" rx="2" ry="2"/>
<text x="714.5" y="78.0"></text>
</g>
<g>
<title>java/util/Arrays.copyOf (7 samples, 1.49%)</title><rect x="711.5" y="51.0" width="17.5" height="15" fill="#5dee5d" rx="2" ry="2"/>
<text x="714.5" y="62.0"></text>
</g>
<g>
<title>byte[] (7 samples, 1.49%)</title><rect x="711.5" y="35.0" width="17.5" height="15" fill="#56c4c4" rx="2" ry="2"/>
<text x="714.5" y="46.0"></text>
</g>
<g>
<title>java/nio/ByteBuffer.wrap (12 samples, 2.55%)</title><rect x="729.0" y="99.0" width="30.1" height="15" fill="#55e655" rx="2" ry="2"/>
<text x="732.0" y="110.0">ja..</text>
</g>
<g>
<title>java/nio/ByteBuffer.wrap (12 samples, 2.55%)</title><rect x="729.0" y="83.0" width="30.1" height="15" fill="#58e958" rx="2" ry="2"/>
<text x="732.0" y="94.0">ja..</text>
</g>
<g>
<title>java.nio.HeapByteBuffer (12 samples, 2.55%)</title><rect x="729.0" y="67.0" width="30.1" height="15" fill="#60cece" rx="2" ry="2"/>
<text x="732.0" y="78.0">ja..</text>
</g>
<g>
<title>one.nio.http.Response (5 samples, 1.06%)</title><rect x="759.1" y="99.0" width="12.5" height="15" fill="#5ccaca" rx="2" ry="2"/>
<text x="762.1" y="110.0"></text>
</g>
<g>
<title>one/nio/http/Response.&lt;init&gt; (16 samples, 3.40%)</title><rect x="771.6" y="99.0" width="40.1" height="15" fill="#55e655" rx="2" ry="2"/>
<text x="774.6" y="110.0">one..</text>
</g>
<g>
<title>byte[] (8 samples, 1.70%)</title><rect x="771.6" y="83.0" width="20.1" height="15" fill="#6bd9d9" rx="2" ry="2"/>
<text x="774.6" y="94.0"></text>
</g>
<g>
<title>java.lang.String[] (3 samples, 0.64%)</title><rect x="791.7" y="83.0" width="7.5" height="15" fill="#53c1c1" rx="2" ry="2"/>
<text x="794.7" y="94.0"></text>
</g>
<g>
<title>java.lang.String (5 samples, 1.06%)</title><rect x="799.2" y="83.0" width="12.5" height="15" fill="#53c1c1" rx="2" ry="2"/>
<text x="802.2" y="94.0"></text>
</g>
<g>
<title>ru/mail/polis/dao/dariagap/RocksDBStorage.upsert (32 samples, 6.79%)</title><rect x="811.7" y="99.0" width="80.2" height="15" fill="#5eef5e" rx="2" ry="2"/>
<text x="814.7" y="110.0">ru/mail/p..</text>
</g>
<g>
<title>ru/mail/polis/util/Util.byteBufferToBytes (18 samples, 3.82%)</title><rect x="811.7" y="83.0" width="45.1" height="15" fill="#66f766" rx="2" ry="2"/>
<text x="814.7" y="94.0">ru/m..</text>
</g>
<g>
<title>byte[] (9 samples, 1.91%)</title><rect x="811.7" y="67.0" width="22.5" height="15" fill="#6ddbdb" rx="2" ry="2"/>
<text x="814.7" y="78.0">b..</text>
</g>
<g>
<title>java/nio/HeapByteBuffer.duplicate (9 samples, 1.91%)</title><rect x="834.2" y="67.0" width="22.6" height="15" fill="#6cfd6c" rx="2" ry="2"/>
<text x="837.2" y="78.0">j..</text>
</g>
<g>
<title>java.nio.HeapByteBuffer (9 samples, 1.91%)</title><rect x="834.2" y="51.0" width="22.6" height="15" fill="#64d2d2" rx="2" ry="2"/>
<text x="837.2" y="62.0">j..</text>
</g>
<g>
<title>ru/mail/polis/util/Util.pack (14 samples, 2.97%)</title><rect x="856.8" y="83.0" width="35.1" height="15" fill="#5bec5b" rx="2" ry="2"/>
<text x="859.8" y="94.0">ru/..</text>
</g>
<g>
<title>ru/mail/polis/util/Util.byteBufferToBytes (14 samples, 2.97%)</title><rect x="856.8" y="67.0" width="35.1" height="15" fill="#66f766" rx="2" ry="2"/>
<text x="859.8" y="78.0">ru/..</text>
</g>
<g>
<title>byte[] (5 samples, 1.06%)</title><rect x="856.8" y="51.0" width="12.5" height="15" fill="#5bc9c9" rx="2" ry="2"/>
<text x="859.8" y="62.0"></text>
</g>
<g>
<title>java/nio/HeapByteBuffer.duplicate (9 samples, 1.91%)</title><rect x="869.3" y="51.0" width="22.6" height="15" fill="#58e958" rx="2" ry="2"/>
<text x="872.3" y="62.0">j..</text>
</g>
<g>
<title>java.nio.HeapByteBuffer (9 samples, 1.91%)</title><rect x="869.3" y="35.0" width="22.6" height="15" fill="#56c4c4" rx="2" ry="2"/>
<text x="872.3" y="46.0">j..</text>
</g>
<g>
<title>one/nio/http/Request.getPath (9 samples, 1.91%)</title><rect x="891.9" y="131.0" width="22.5" height="15" fill="#61f261" rx="2" ry="2"/>
<text x="894.9" y="142.0">o..</text>
</g>
<g>
<title>java/lang/String.substring (9 samples, 1.91%)</title><rect x="891.9" y="115.0" width="22.5" height="15" fill="#57e857" rx="2" ry="2"/>
<text x="894.9" y="126.0">j..</text>
</g>
<g>
<title>java/lang/StringLatin1.newString (9 samples, 1.91%)</title><rect x="891.9" y="99.0" width="22.5" height="15" fill="#54e554" rx="2" ry="2"/>
<text x="894.9" y="110.0">j..</text>
</g>
<g>
<title>java.lang.String (5 samples, 1.06%)</title><rect x="891.9" y="83.0" width="12.5" height="15" fill="#65d3d3" rx="2" ry="2"/>
<text x="894.9" y="94.0"></text>
</g>
<g>
<title>java/util/Arrays.copyOfRange (4 samples, 0.85%)</title><rect x="904.4" y="83.0" width="10.0" height="15" fill="#53e453" rx="2" ry="2"/>
<text x="907.4" y="94.0"></text>
</g>
<g>
<title>byte[] (4 samples, 0.85%)</title><rect x="904.4" y="67.0" width="10.0" height="15" fill="#67d5d5" rx="2" ry="2"/>
<text x="907.4" y="78.0"></text>
</g>
<g>
<title>one/nio/http/HttpSession.parseRequest (59 samples, 12.53%)</title><rect x="914.4" y="163.0" width="147.8" height="15" fill="#54e554" rx="2" ry="2"/>
<text x="917.4" y="174.0">one/nio/http/HttpSe..</text>
</g>
<g>
<title>one.nio.http.Request (14 samples, 2.97%)</title><rect x="914.4" y="147.0" width="35.1" height="15" fill="#66d4d4" rx="2" ry="2"/>
<text x="917.4" y="158.0">one..</text>
</g>
<g>
<title>one/nio/http/Request.&lt;init&gt; (18 samples, 3.82%)</title><rect x="949.5" y="147.0" width="45.1" height="15" fill="#52e352" rx="2" ry="2"/>
<text x="952.5" y="158.0">one/..</text>
</g>
<g>
<title>java.lang.String[] (18 samples, 3.82%)</title><rect x="949.5" y="131.0" width="45.1" height="15" fill="#6cdada" rx="2" ry="2"/>
<text x="952.5" y="142.0">java..</text>
</g>
<g>
<title>one/nio/util/Utf8.read (27 samples, 5.73%)</title><rect x="994.6" y="147.0" width="67.6" height="15" fill="#51e251" rx="2" ry="2"/>
<text x="997.6" y="158.0">one/nio..</text>
</g>
<g>
<title>one/nio/util/Utf8.read (27 samples, 5.73%)</title><rect x="994.6" y="131.0" width="67.6" height="15" fill="#5ff05f" rx="2" ry="2"/>
<text x="997.6" y="142.0">one/nio..</text>
</g>
<g>
<title>char[] (13 samples, 2.76%)</title><rect x="994.6" y="115.0" width="32.6" height="15" fill="#55c3c3" rx="2" ry="2"/>
<text x="997.6" y="126.0">ch..</text>
</g>
<g>
<title>java.lang.String (3 samples, 0.64%)</title><rect x="1027.2" y="115.0" width="7.5" height="15" fill="#57c5c5" rx="2" ry="2"/>
<text x="1030.2" y="126.0"></text>
</g>
<g>
<title>java/lang/String.&lt;init&gt; (11 samples, 2.34%)</title><rect x="1034.7" y="115.0" width="27.5" height="15" fill="#67f867" rx="2" ry="2"/>
<text x="1037.7" y="126.0">j..</text>
</g>
<g>
<title>java/lang/String.&lt;init&gt; (11 samples, 2.34%)</title><rect x="1034.7" y="99.0" width="27.5" height="15" fill="#65f665" rx="2" ry="2"/>
<text x="1037.7" y="110.0">j..</text>
</g>
<g>
<title>java/lang/StringUTF16.compress (11 samples, 2.34%)</title><rect x="1034.7" y="83.0" width="27.5" height="15" fill="#63f463" rx="2" ry="2"/>
<text x="1037.7" y="94.0">j..</text>
</g>
<g>
<title>byte[] (11 samples, 2.34%)</title><rect x="1034.7" y="67.0" width="27.5" height="15" fill="#6ddbdb" rx="2" ry="2"/>
<text x="1037.7" y="78.0">b..</text>
</g>
<g>
<title>one/nio/http/HttpSession.startParsingRequestBody (3 samples, 0.64%)</title><rect x="1062.2" y="163.0" width="7.5" height="15" fill="#63f463" rx="2" ry="2"/>
<text x="1065.2" y="174.0"></text>
</g>
<g>
<title>byte[] (3 samples, 0.64%)</title><rect x="1062.2" y="147.0" width="7.5" height="15" fill="#66d4d4" rx="2" ry="2"/>
<text x="1065.2" y="158.0"></text>
</g>
<g>
<title>one/nio/http/Request.getHeader (4 samples, 0.85%)</title><rect x="1069.7" y="163.0" width="10.1" height="15" fill="#52e352" rx="2" ry="2"/>
<text x="1072.7" y="174.0"></text>
</g>
<g>
<title>java/lang/String.substring (4 samples, 0.85%)</title><rect x="1069.7" y="147.0" width="10.1" height="15" fill="#54e554" rx="2" ry="2"/>
<text x="1072.7" y="158.0"></text>
</g>
<g>
<title>java/lang/StringLatin1.newString (4 samples, 0.85%)</title><rect x="1069.7" y="131.0" width="10.1" height="15" fill="#5ff05f" rx="2" ry="2"/>
<text x="1072.7" y="142.0"></text>
</g>
<g>
<title>java.lang.String (2 samples, 0.42%)</title><rect x="1069.7" y="115.0" width="5.1" height="15" fill="#52c0c0" rx="2" ry="2"/>
<text x="1072.7" y="126.0"></text>
</g>
<g>
<title>java/util/Arrays.copyOfRange (2 samples, 0.42%)</title><rect x="1074.8" y="115.0" width="5.0" height="15" fill="#52e352" rx="2" ry="2"/>
<text x="1077.8" y="126.0"></text>
</g>
<g>
<title>byte[] (2 samples, 0.42%)</title><rect x="1074.8" y="99.0" width="5.0" height="15" fill="#56c4c4" rx="2" ry="2"/>
<text x="1077.8" y="110.0"></text>
</g>
<g>
<title>one/nio/util/Utf8.read (44 samples, 9.34%)</title><rect x="1079.8" y="163.0" width="110.2" height="15" fill="#5dee5d" rx="2" ry="2"/>
<text x="1082.8" y="174.0">one/nio/util/..</text>
</g>
<g>
<title>one/nio/util/Utf8.read (44 samples, 9.34%)</title><rect x="1079.8" y="147.0" width="110.2" height="15" fill="#68f968" rx="2" ry="2"/>
<text x="1082.8" y="158.0">one/nio/util/..</text>
</g>
<g>
<title>char[] (17 samples, 3.61%)</title><rect x="1079.8" y="131.0" width="42.6" height="15" fill="#61cfcf" rx="2" ry="2"/>
<text x="1082.8" y="142.0">char[]</text>
</g>
<g>
<title>java.lang.String (11 samples, 2.34%)</title><rect x="1122.4" y="131.0" width="27.5" height="15" fill="#66d4d4" rx="2" ry="2"/>
<text x="1125.4" y="142.0">j..</text>
</g>
<g>
<title>java/lang/String.&lt;init&gt; (16 samples, 3.40%)</title><rect x="1149.9" y="131.0" width="40.1" height="15" fill="#51e251" rx="2" ry="2"/>
<text x="1152.9" y="142.0">jav..</text>
</g>
<g>
<title>java/lang/String.&lt;init&gt; (16 samples, 3.40%)</title><rect x="1149.9" y="115.0" width="40.1" height="15" fill="#54e554" rx="2" ry="2"/>
<text x="1152.9" y="126.0">jav..</text>
</g>
<g>
<title>java/lang/StringUTF16.compress (16 samples, 3.40%)</title><rect x="1149.9" y="99.0" width="40.1" height="15" fill="#6dfe6d" rx="2" ry="2"/>
<text x="1152.9" y="110.0">jav..</text>
</g>
<g>
<title>byte[] (16 samples, 3.40%)</title><rect x="1149.9" y="83.0" width="40.1" height="15" fill="#56c4c4" rx="2" ry="2"/>
<text x="1152.9" y="94.0">byt..</text>
</g>
</g>
</svg>
