<?xml version="1.0" standalone="no"?>
<!DOCTYPE svg PUBLIC "-//W3C//DTD SVG 1.1//EN" "http://www.w3.org/Graphics/SVG/1.1/DTD/svg11.dtd">
<svg version="1.1" width="1200" height="390" onload="init(evt)" viewBox="0 0 1200 390" xmlns="http://www.w3.org/2000/svg" xmlns:xlink="http://www.w3.org/1999/xlink">
<style type="text/css">
	text { font-family:Verdana; font-size:12px; fill:rgb(0,0,0); }
	#search { opacity:0.1; cursor:pointer; }
	#search:hover, #search.show { opacity:1; }
	#subtitle { text-anchor:middle; font-color:rgb(160,160,160); }
	#title { text-anchor:middle; font-size:17px}
	#unzoom { cursor:pointer; }
	#frames > *:hover { stroke:black; stroke-width:0.5; cursor:pointer; }
	.hide { display:none; }
	.parent { opacity:0.5; }
</style>
<script type="text/ecmascript">
<![CDATA[
	"use strict";
	var details, searchbtn, unzoombtn, matchedtxt, svg, searching;
	function init(evt) {
		details = document.getElementById("details").firstChild;
		searchbtn = document.getElementById("search");
		unzoombtn = document.getElementById("unzoom");
		matchedtxt = document.getElementById("matched");
		svg = document.getElementsByTagName("svg")[0];
		searching = 0;
	}

	window.addEventListener("click", function(e) {
		var target = find_group(e.target);
		if (target) {
			if (target.nodeName == "a") {
				if (e.ctrlKey === false) return;
				e.preventDefault();
			}
			if (target.classList.contains("parent")) unzoom();
			zoom(target);
		}
		else if (e.target.id == "unzoom") unzoom();
		else if (e.target.id == "search") search_prompt();
	}, false)

	// mouse-over for info
	// show
	window.addEventListener("mouseover", function(e) {
		var target = find_group(e.target);
		if (target) details.nodeValue = "Function: " + g_to_text(target);
	}, false)

	// clear
	window.addEventListener("mouseout", function(e) {
		var target = find_group(e.target);
		if (target) details.nodeValue = ' ';
	}, false)

	// ctrl-F for search
	window.addEventListener("keydown",function (e) {
		if (e.keyCode === 114 || (e.ctrlKey && e.keyCode === 70)) {
			e.preventDefault();
			search_prompt();
		}
	}, false)

	// functions
	function find_child(node, selector) {
		var children = node.querySelectorAll(selector);
		if (children.length) return children[0];
		return;
	}
	function find_group(node) {
		var parent = node.parentElement;
		if (!parent) return;
		if (parent.id == "frames") return node;
		return find_group(parent);
	}
	function orig_save(e, attr, val) {
		if (e.attributes["_orig_" + attr] != undefined) return;
		if (e.attributes[attr] == undefined) return;
		if (val == undefined) val = e.attributes[attr].value;
		e.setAttribute("_orig_" + attr, val);
	}
	function orig_load(e, attr) {
		if (e.attributes["_orig_"+attr] == undefined) return;
		e.attributes[attr].value = e.attributes["_orig_" + attr].value;
		e.removeAttribute("_orig_"+attr);
	}
	function g_to_text(e) {
		var text = find_child(e, "title").firstChild.nodeValue;
		return (text)
	}
	function g_to_func(e) {
		var func = g_to_text(e);
		// if there's any manipulation we want to do to the function
		// name before it's searched, do it here before returning.
		return (func);
	}
	function update_text(e) {
		var r = find_child(e, "rect");
		var t = find_child(e, "text");
		var w = parseFloat(r.attributes.width.value) -3;
		var txt = find_child(e, "title").textContent.replace(/\([^(]*\)$/,"");
		t.attributes.x.value = parseFloat(r.attributes.x.value) + 3;

		// Smaller than this size won't fit anything
		if (w < 2 * 12 * 0.59) {
			t.textContent = "";
			return;
		}

		t.textContent = txt;
		// Fit in full text width
		if (/^ *$/.test(txt) || t.getSubStringLength(0, txt.length) < w)
			return;

		for (var x = txt.length - 2; x > 0; x--) {
			if (t.getSubStringLength(0, x + 2) <= w) {
				t.textContent = txt.substring(0, x) + "..";
				return;
			}
		}
		t.textContent = "";
	}

	// zoom
	function zoom_reset(e) {
		if (e.attributes != undefined) {
			orig_load(e, "x");
			orig_load(e, "width");
		}
		if (e.childNodes == undefined) return;
		for (var i = 0, c = e.childNodes; i < c.length; i++) {
			zoom_reset(c[i]);
		}
	}
	function zoom_child(e, x, ratio) {
		if (e.attributes != undefined) {
			if (e.attributes.x != undefined) {
				orig_save(e, "x");
				e.attributes.x.value = (parseFloat(e.attributes.x.value) - x - 10) * ratio + 10;
				if (e.tagName == "text")
					e.attributes.x.value = find_child(e.parentNode, "rect[x]").attributes.x.value + 3;
			}
			if (e.attributes.width != undefined) {
				orig_save(e, "width");
				e.attributes.width.value = parseFloat(e.attributes.width.value) * ratio;
			}
		}

		if (e.childNodes == undefined) return;
		for (var i = 0, c = e.childNodes; i < c.length; i++) {
			zoom_child(c[i], x - 10, ratio);
		}
	}
	function zoom_parent(e) {
		if (e.attributes) {
			if (e.attributes.x != undefined) {
				orig_save(e, "x");
				e.attributes.x.value = 10;
			}
			if (e.attributes.width != undefined) {
				orig_save(e, "width");
				e.attributes.width.value = parseInt(svg.width.baseVal.value) - (10 * 2);
			}
		}
		if (e.childNodes == undefined) return;
		for (var i = 0, c = e.childNodes; i < c.length; i++) {
			zoom_parent(c[i]);
		}
	}
	function zoom(node) {
		var attr = find_child(node, "rect").attributes;
		var width = parseFloat(attr.width.value);
		var xmin = parseFloat(attr.x.value);
		var xmax = parseFloat(xmin + width);
		var ymin = parseFloat(attr.y.value);
		var ratio = (svg.width.baseVal.value - 2 * 10) / width;

		// XXX: Workaround for JavaScript float issues (fix me)
		var fudge = 0.0001;

		unzoombtn.classList.remove("hide");

		var el = document.getElementById("frames").children;
		for (var i = 0; i < el.length; i++) {
			var e = el[i];
			var a = find_child(e, "rect").attributes;
			var ex = parseFloat(a.x.value);
			var ew = parseFloat(a.width.value);
			var upstack;
			// Is it an ancestor
			if (0 == 0) {
				upstack = parseFloat(a.y.value) > ymin;
			} else {
				upstack = parseFloat(a.y.value) < ymin;
			}
			if (upstack) {
				// Direct ancestor
				if (ex <= xmin && (ex+ew+fudge) >= xmax) {
					e.classList.add("parent");
					zoom_parent(e);
					update_text(e);
				}
				// not in current path
				else
					e.classList.add("hide");
			}
			// Children maybe
			else {
				// no common path
				if (ex < xmin || ex + fudge >= xmax) {
					e.classList.add("hide");
				}
				else {
					zoom_child(e, xmin, ratio);
					update_text(e);
				}
			}
		}
	}
	function unzoom() {
		unzoombtn.classList.add("hide");
		var el = document.getElementById("frames").children;
		for(var i = 0; i < el.length; i++) {
			el[i].classList.remove("parent");
			el[i].classList.remove("hide");
			zoom_reset(el[i]);
			update_text(el[i]);
		}
	}

	// search
	function reset_search() {
		var el = document.querySelectorAll("#frames rect");
		for (var i = 0; i < el.length; i++) {
			orig_load(el[i], "fill")
		}
	}
	function search_prompt() {
		if (!searching) {
			var term = prompt("Enter a search term (regexp " +
			    "allowed, eg: ^ext4_)", "");
			if (term != null) {
				search(term)
			}
		} else {
			reset_search();
			searching = 0;
			searchbtn.classList.remove("show");
			searchbtn.firstChild.nodeValue = "Search"
			matchedtxt.classList.add("hide");
			matchedtxt.firstChild.nodeValue = ""
		}
	}
	function search(term) {
		var re = new RegExp(term);
		var el = document.getElementById("frames").children;
		var matches = new Object();
		var maxwidth = 0;
		for (var i = 0; i < el.length; i++) {
			var e = el[i];
			var func = g_to_func(e);
			var rect = find_child(e, "rect");
			if (func == null || rect == null)
				continue;

			// Save max width. Only works as we have a root frame
			var w = parseFloat(rect.attributes.width.value);
			if (w > maxwidth)
				maxwidth = w;

			if (func.match(re)) {
				// highlight
				var x = parseFloat(rect.attributes.x.value);
				orig_save(rect, "fill");
				rect.attributes.fill.value = "rgb(230,0,230)";

				// remember matches
				if (matches[x] == undefined) {
					matches[x] = w;
				} else {
					if (w > matches[x]) {
						// overwrite with parent
						matches[x] = w;
					}
				}
				searching = 1;
			}
		}
		if (!searching)
			return;

		searchbtn.classList.add("show");
		searchbtn.firstChild.nodeValue = "Reset Search";

		// calculate percent matched, excluding vertical overlap
		var count = 0;
		var lastx = -1;
		var lastw = 0;
		var keys = Array();
		for (k in matches) {
			if (matches.hasOwnProperty(k))
				keys.push(k);
		}
		// sort the matched frames by their x location
		// ascending, then width descending
		keys.sort(function(a, b){
			return a - b;
		});
		// Step through frames saving only the biggest bottom-up frames
		// thanks to the sort order. This relies on the tree property
		// where children are always smaller than their parents.
		var fudge = 0.0001;	// JavaScript floating point
		for (var k in keys) {
			var x = parseFloat(keys[k]);
			var w = matches[keys[k]];
			if (x >= lastx + lastw - fudge) {
				count += w;
				lastx = x;
				lastw = w;
			}
		}
		// display matched percent
		matchedtxt.classList.remove("hide");
		var pct = 100 * count / maxwidth;
		if (pct != 100) pct = pct.toFixed(1)
		matchedtxt.firstChild.nodeValue = "Matched: " + pct + "%";
	}
]]>
</script>
<rect x="0" y="0" width="100%" height="100%" fill="rgb(240,240,220)"/>
<text id="title" x="600" y="24">Flame Graph</text>
<text id="details" x="10" y="373"> </text>
<text id="unzoom" x="10" y="24" class="hide">Reset Zoom</text>
<text id="search" x="1090" y="24">Search</text>
<text id="matched" x="1090" y="373"> </text>
<g id="frames">
<g>
<title>all (3,532 samples, 100.00%)</title><rect x="10.0" y="339.0" width="1180.0" height="15" fill="#f16f6f" rx="2" ry="2"/>
<text x="13.0" y="350.0">all</text>
</g>
<g>
<title>one/nio/server/SelectorThread.run (3,532 samples, 100.00%)</title><rect x="10.0" y="323.0" width="1180.0" height="15" fill="#62f362" rx="2" ry="2"/>
<text x="13.0" y="334.0">one/nio/server/SelectorThread.run</text>
</g>
<g>
<title>one/nio/net/NativeSelector.select (14 samples, 0.40%)</title><rect x="10.0" y="307.0" width="4.7" height="15" fill="#66f766" rx="2" ry="2"/>
<text x="13.0" y="318.0"></text>
</g>
<g>
<title>one.nio.net.NativeSelector$2 (13 samples, 0.37%)</title><rect x="10.0" y="291.0" width="4.3" height="15" fill="#60cece" rx="2" ry="2"/>
<text x="13.0" y="302.0"></text>
</g>
<g>
<title>one.nio.net.NativeSelector$2 (1 samples, 0.03%)</title><rect x="14.3" y="291.0" width="0.4" height="15" fill="#e48000" rx="2" ry="2"/>
<text x="17.3" y="302.0"></text>
</g>
<g>
<title>one/nio/net/Session.process (3,518 samples, 99.60%)</title><rect x="14.7" y="307.0" width="1175.3" height="15" fill="#54e554" rx="2" ry="2"/>
<text x="17.7" y="318.0">one/nio/net/Session.process</text>
</g>
<g>
<title>one/nio/http/HttpSession.processRead (3,518 samples, 99.60%)</title><rect x="14.7" y="291.0" width="1175.3" height="15" fill="#53e453" rx="2" ry="2"/>
<text x="17.7" y="302.0">one/nio/http/HttpSession.processRead</text>
</g>
<g>
<title>one/nio/http/HttpSession.processHttpBuffer (3,518 samples, 99.60%)</title><rect x="14.7" y="275.0" width="1175.3" height="15" fill="#65f665" rx="2" ry="2"/>
<text x="17.7" y="286.0">one/nio/http/HttpSession.processHttpBuffer</text>
</g>
<g>
<title>one/nio/http/HttpSession.handleParsedRequest (3,341 samples, 94.59%)</title><rect x="14.7" y="259.0" width="1116.2" height="15" fill="#66f766" rx="2" ry="2"/>
<text x="17.7" y="270.0">one/nio/http/HttpSession.handleParsedRequest</text>
</g>
<g>
<title>one/nio/http/HttpServer.handleRequest (3,341 samples, 94.59%)</title><rect x="14.7" y="243.0" width="1116.2" height="15" fill="#5eef5e" rx="2" ry="2"/>
<text x="17.7" y="254.0">one/nio/http/HttpServer.handleRequest</text>
</g>
<g>
<title>RequestHandler0_get.handleRequest (3,319 samples, 93.97%)</title><rect x="14.7" y="227.0" width="1108.8" height="15" fill="#56e756" rx="2" ry="2"/>
<text x="17.7" y="238.0">RequestHandler0_get.handleRequest</text>
</g>
<g>
<title>one/nio/http/HttpSession.sendResponse (58 samples, 1.64%)</title><rect x="14.7" y="211.0" width="19.4" height="15" fill="#6cfd6c" rx="2" ry="2"/>
<text x="17.7" y="222.0"></text>
</g>
<g>
<title>one/nio/http/HttpSession.writeResponse (58 samples, 1.64%)</title><rect x="14.7" y="195.0" width="19.4" height="15" fill="#57e857" rx="2" ry="2"/>
<text x="17.7" y="206.0"></text>
</g>
<g>
<title>one/nio/http/Response.toBytes (36 samples, 1.02%)</title><rect x="14.7" y="179.0" width="12.0" height="15" fill="#57e857" rx="2" ry="2"/>
<text x="17.7" y="190.0"></text>
</g>
<g>
<title>one/nio/util/ByteArrayBuilder.&lt;init&gt; (36 samples, 1.02%)</title><rect x="14.7" y="163.0" width="12.0" height="15" fill="#65f665" rx="2" ry="2"/>
<text x="17.7" y="174.0"></text>
</g>
<g>
<title>byte[] (36 samples, 1.02%)</title><rect x="14.7" y="147.0" width="12.0" height="15" fill="#61cfcf" rx="2" ry="2"/>
<text x="17.7" y="158.0"></text>
</g>
<g>
<title>one/nio/net/Session.write (22 samples, 0.62%)</title><rect x="26.7" y="179.0" width="7.4" height="15" fill="#59ea59" rx="2" ry="2"/>
<text x="29.7" y="190.0"></text>
</g>
<g>
<title>one.nio.net.Session$ArrayQueueItem (22 samples, 0.62%)</title><rect x="26.7" y="163.0" width="7.4" height="15" fill="#60cece" rx="2" ry="2"/>
<text x="29.7" y="174.0"></text>
</g>
<g>
<title>one/nio/http/Request.getRequiredParameter (29 samples, 0.82%)</title><rect x="34.1" y="211.0" width="9.6" height="15" fill="#6cfd6c" rx="2" ry="2"/>
<text x="37.1" y="222.0"></text>
</g>
<g>
<title>one/nio/http/Request.getParameter (29 samples, 0.82%)</title><rect x="34.1" y="195.0" width="9.6" height="15" fill="#67f867" rx="2" ry="2"/>
<text x="37.1" y="206.0"></text>
</g>
<g>
<title>java/lang/String.substring (29 samples, 0.82%)</title><rect x="34.1" y="179.0" width="9.6" height="15" fill="#64f564" rx="2" ry="2"/>
<text x="37.1" y="190.0"></text>
</g>
<g>
<title>java/lang/StringLatin1.newString (29 samples, 0.82%)</title><rect x="34.1" y="163.0" width="9.6" height="15" fill="#58e958" rx="2" ry="2"/>
<text x="37.1" y="174.0"></text>
</g>
<g>
<title>java.lang.String (14 samples, 0.40%)</title><rect x="34.1" y="147.0" width="4.6" height="15" fill="#67d5d5" rx="2" ry="2"/>
<text x="37.1" y="158.0"></text>
</g>
<g>
<title>java.lang.String (1 samples, 0.03%)</title><rect x="38.7" y="147.0" width="0.4" height="15" fill="#ee8a00" rx="2" ry="2"/>
<text x="41.7" y="158.0"></text>
</g>
<g>
<title>java/util/Arrays.copyOfRange (14 samples, 0.40%)</title><rect x="39.1" y="147.0" width="4.6" height="15" fill="#59ea59" rx="2" ry="2"/>
<text x="42.1" y="158.0"></text>
</g>
<g>
<title>byte[] (14 samples, 0.40%)</title><rect x="39.1" y="131.0" width="4.6" height="15" fill="#67d5d5" rx="2" ry="2"/>
<text x="42.1" y="142.0"></text>
</g>
<g>
<title>ru/mail/polis/service/dariagap/ServiceImpl.get (3,232 samples, 91.51%)</title><rect x="43.7" y="211.0" width="1079.8" height="15" fill="#64f564" rx="2" ry="2"/>
<text x="46.7" y="222.0">ru/mail/polis/service/dariagap/ServiceImpl.get</text>
</g>
<g>
<title>java/lang/String.getBytes (15 samples, 0.42%)</title><rect x="43.7" y="195.0" width="5.1" height="15" fill="#6bfc6b" rx="2" ry="2"/>
<text x="46.7" y="206.0"></text>
</g>
<g>
<title>java/lang/StringCoding.encode (15 samples, 0.42%)</title><rect x="43.7" y="179.0" width="5.1" height="15" fill="#58e958" rx="2" ry="2"/>
<text x="46.7" y="190.0"></text>
</g>
<g>
<title>java/lang/StringCoding.encodeUTF8 (15 samples, 0.42%)</title><rect x="43.7" y="163.0" width="5.1" height="15" fill="#50e150" rx="2" ry="2"/>
<text x="46.7" y="174.0"></text>
</g>
<g>
<title>java/util/Arrays.copyOf (15 samples, 0.42%)</title><rect x="43.7" y="147.0" width="5.1" height="15" fill="#62f362" rx="2" ry="2"/>
<text x="46.7" y="158.0"></text>
</g>
<g>
<title>byte[] (15 samples, 0.42%)</title><rect x="43.7" y="131.0" width="5.1" height="15" fill="#68d6d6" rx="2" ry="2"/>
<text x="46.7" y="142.0"></text>
</g>
<g>
<title>java/nio/ByteBuffer.wrap (27 samples, 0.76%)</title><rect x="48.8" y="195.0" width="9.0" height="15" fill="#63f463" rx="2" ry="2"/>
<text x="51.8" y="206.0"></text>
</g>
<g>
<title>java/nio/ByteBuffer.wrap (27 samples, 0.76%)</title><rect x="48.8" y="179.0" width="9.0" height="15" fill="#5aeb5a" rx="2" ry="2"/>
<text x="51.8" y="190.0"></text>
</g>
<g>
<title>java.nio.HeapByteBuffer (26 samples, 0.74%)</title><rect x="48.8" y="163.0" width="8.6" height="15" fill="#5bc9c9" rx="2" ry="2"/>
<text x="51.8" y="174.0"></text>
</g>
<g>
<title>java.nio.HeapByteBuffer (1 samples, 0.03%)</title><rect x="57.4" y="163.0" width="0.4" height="15" fill="#f79300" rx="2" ry="2"/>
<text x="60.4" y="174.0"></text>
</g>
<g>
<title>one.nio.http.Response (8 samples, 0.23%)</title><rect x="57.8" y="195.0" width="2.6" height="15" fill="#5fcdcd" rx="2" ry="2"/>
<text x="60.8" y="206.0"></text>
</g>
<g>
<title>one.nio.http.Response (1 samples, 0.03%)</title><rect x="60.4" y="195.0" width="0.4" height="15" fill="#f08c00" rx="2" ry="2"/>
<text x="63.4" y="206.0"></text>
</g>
<g>
<title>one/nio/http/Response.&lt;init&gt; (47 samples, 1.33%)</title><rect x="60.8" y="195.0" width="15.7" height="15" fill="#5eef5e" rx="2" ry="2"/>
<text x="63.8" y="206.0"></text>
</g>
<g>
<title>byte[] (19 samples, 0.54%)</title><rect x="60.8" y="179.0" width="6.3" height="15" fill="#57c5c5" rx="2" ry="2"/>
<text x="63.8" y="190.0"></text>
</g>
<g>
<title>java.lang.String[] (10 samples, 0.28%)</title><rect x="67.1" y="179.0" width="3.4" height="15" fill="#6ddbdb" rx="2" ry="2"/>
<text x="70.1" y="190.0"></text>
</g>
<g>
<title>java.lang.String[] (1 samples, 0.03%)</title><rect x="70.5" y="179.0" width="0.3" height="15" fill="#f59100" rx="2" ry="2"/>
<text x="73.5" y="190.0"></text>
</g>
<g>
<title>java.lang.String (17 samples, 0.48%)</title><rect x="70.8" y="179.0" width="5.7" height="15" fill="#56c4c4" rx="2" ry="2"/>
<text x="73.8" y="190.0"></text>
</g>
<g>
<title>ru/mail/polis/dao/DAO.get (3,094 samples, 87.60%)</title><rect x="76.5" y="195.0" width="1033.7" height="15" fill="#57e857" rx="2" ry="2"/>
<text x="79.5" y="206.0">ru/mail/polis/dao/DAO.get</text>
</g>
<g>
<title>ru/mail/polis/Record.getKey (14 samples, 0.40%)</title><rect x="76.5" y="179.0" width="4.7" height="15" fill="#6cfd6c" rx="2" ry="2"/>
<text x="79.5" y="190.0"></text>
</g>
<g>
<title>java/nio/HeapByteBuffer.asReadOnlyBuffer (14 samples, 0.40%)</title><rect x="76.5" y="163.0" width="4.7" height="15" fill="#6cfd6c" rx="2" ry="2"/>
<text x="79.5" y="174.0"></text>
</g>
<g>
<title>java.nio.HeapByteBufferR (14 samples, 0.40%)</title><rect x="76.5" y="147.0" width="4.7" height="15" fill="#68d6d6" rx="2" ry="2"/>
<text x="79.5" y="158.0"></text>
</g>
<g>
<title>ru/mail/polis/Record.getValue (22 samples, 0.62%)</title><rect x="81.2" y="179.0" width="7.3" height="15" fill="#57e857" rx="2" ry="2"/>
<text x="84.2" y="190.0"></text>
</g>
<g>
<title>java/nio/HeapByteBuffer.asReadOnlyBuffer (22 samples, 0.62%)</title><rect x="81.2" y="163.0" width="7.3" height="15" fill="#5eef5e" rx="2" ry="2"/>
<text x="84.2" y="174.0"></text>
</g>
<g>
<title>java.nio.HeapByteBufferR (21 samples, 0.59%)</title><rect x="81.2" y="147.0" width="7.0" height="15" fill="#67d5d5" rx="2" ry="2"/>
<text x="84.2" y="158.0"></text>
</g>
<g>
<title>java.nio.HeapByteBufferR (1 samples, 0.03%)</title><rect x="88.2" y="147.0" width="0.3" height="15" fill="#e27e00" rx="2" ry="2"/>
<text x="91.2" y="158.0"></text>
</g>
<g>
<title>ru/mail/polis/dao/dariagap/RecordIterator.next (174 samples, 4.93%)</title><rect x="88.5" y="179.0" width="58.1" height="15" fill="#55e655" rx="2" ry="2"/>
<text x="91.5" y="190.0">ru/mai..</text>
</g>
<g>
<title>ru/mail/polis/dao/dariagap/RecordIterator.next (174 samples, 4.93%)</title><rect x="88.5" y="163.0" width="58.1" height="15" fill="#51e251" rx="2" ry="2"/>
<text x="91.5" y="174.0">ru/mai..</text>
</g>
<g>
<title>java/nio/ByteBuffer.wrap (53 samples, 1.50%)</title><rect x="88.5" y="147.0" width="17.7" height="15" fill="#69fa69" rx="2" ry="2"/>
<text x="91.5" y="158.0"></text>
</g>
<g>
<title>java/nio/ByteBuffer.wrap (53 samples, 1.50%)</title><rect x="88.5" y="131.0" width="17.7" height="15" fill="#62f362" rx="2" ry="2"/>
<text x="91.5" y="142.0"></text>
</g>
<g>
<title>java.nio.HeapByteBuffer (52 samples, 1.47%)</title><rect x="88.5" y="115.0" width="17.4" height="15" fill="#5bc9c9" rx="2" ry="2"/>
<text x="91.5" y="126.0"></text>
</g>
<g>
<title>java.nio.HeapByteBuffer (1 samples, 0.03%)</title><rect x="105.9" y="115.0" width="0.3" height="15" fill="#f38f00" rx="2" ry="2"/>
<text x="108.9" y="126.0"></text>
</g>
<g>
<title>org/rocksdb/AbstractRocksIterator.next (79 samples, 2.24%)</title><rect x="106.2" y="147.0" width="26.4" height="15" fill="#59ea59" rx="2" ry="2"/>
<text x="109.2" y="158.0">o..</text>
</g>
<g>
<title>org/rocksdb/RocksIterator.next0 (79 samples, 2.24%)</title><rect x="106.2" y="131.0" width="26.4" height="15" fill="#58e958" rx="2" ry="2"/>
<text x="109.2" y="142.0">o..</text>
</g>
<g>
<title>org/rocksdb/AbstractComparatorJniBridge.compareInternal (79 samples, 2.24%)</title><rect x="106.2" y="115.0" width="26.4" height="15" fill="#6bfc6b" rx="2" ry="2"/>
<text x="109.2" y="126.0">o..</text>
</g>
<g>
<title>ru/mail/polis/util/SignedBytesComparator.compare (79 samples, 2.24%)</title><rect x="106.2" y="99.0" width="26.4" height="15" fill="#59ea59" rx="2" ry="2"/>
<text x="109.2" y="110.0">r..</text>
</g>
<g>
<title>ru/mail/polis/util/Util.byteBufferToBytes (79 samples, 2.24%)</title><rect x="106.2" y="83.0" width="26.4" height="15" fill="#6afb6a" rx="2" ry="2"/>
<text x="109.2" y="94.0">r..</text>
</g>
<g>
<title>byte[] (28 samples, 0.79%)</title><rect x="106.2" y="67.0" width="9.4" height="15" fill="#65d3d3" rx="2" ry="2"/>
<text x="109.2" y="78.0"></text>
</g>
<g>
<title>byte[] (1 samples, 0.03%)</title><rect x="115.6" y="67.0" width="0.3" height="15" fill="#fd9900" rx="2" ry="2"/>
<text x="118.6" y="78.0"></text>
</g>
<g>
<title>java/nio/DirectByteBuffer.duplicate (50 samples, 1.42%)</title><rect x="115.9" y="67.0" width="16.7" height="15" fill="#57e857" rx="2" ry="2"/>
<text x="118.9" y="78.0"></text>
</g>
<g>
<title>java.nio.DirectByteBuffer (50 samples, 1.42%)</title><rect x="115.9" y="51.0" width="16.7" height="15" fill="#53c1c1" rx="2" ry="2"/>
<text x="118.9" y="62.0"></text>
</g>
<g>
<title>org/rocksdb/RocksIterator.key (15 samples, 0.42%)</title><rect x="132.6" y="147.0" width="5.0" height="15" fill="#64f564" rx="2" ry="2"/>
<text x="135.6" y="158.0"></text>
</g>
<g>
<title>org/rocksdb/RocksIterator.key0 (15 samples, 0.42%)</title><rect x="132.6" y="131.0" width="5.0" height="15" fill="#66f766" rx="2" ry="2"/>
<text x="135.6" y="142.0"></text>
</g>
<g>
<title>byte[] (15 samples, 0.42%)</title><rect x="132.6" y="115.0" width="5.0" height="15" fill="#62d0d0" rx="2" ry="2"/>
<text x="135.6" y="126.0"></text>
</g>
<g>
<title>org/rocksdb/RocksIterator.value (11 samples, 0.31%)</title><rect x="137.6" y="147.0" width="3.7" height="15" fill="#54e554" rx="2" ry="2"/>
<text x="140.6" y="158.0"></text>
</g>
<g>
<title>org/rocksdb/RocksIterator.value0 (11 samples, 0.31%)</title><rect x="137.6" y="131.0" width="3.7" height="15" fill="#50e150" rx="2" ry="2"/>
<text x="140.6" y="142.0"></text>
</g>
<g>
<title>byte[] (11 samples, 0.31%)</title><rect x="137.6" y="115.0" width="3.7" height="15" fill="#61cfcf" rx="2" ry="2"/>
<text x="140.6" y="126.0"></text>
</g>
<g>
<title>ru/mail/polis/Record.of (16 samples, 0.45%)</title><rect x="141.3" y="147.0" width="5.3" height="15" fill="#69fa69" rx="2" ry="2"/>
<text x="144.3" y="158.0"></text>
</g>
<g>
<title>ru.mail.polis.Record (16 samples, 0.45%)</title><rect x="141.3" y="131.0" width="5.3" height="15" fill="#56c4c4" rx="2" ry="2"/>
<text x="144.3" y="142.0"></text>
</g>
<g>
<title>ru/mail/polis/dao/dariagap/RocksDBStorage.iterator (2,884 samples, 81.65%)</title><rect x="146.6" y="179.0" width="963.6" height="15" fill="#68f968" rx="2" ry="2"/>
<text x="149.6" y="190.0">ru/mail/polis/dao/dariagap/RocksDBStorage.iterator</text>
</g>
<g>
<title>org/rocksdb/AbstractRocksIterator.seek (2,805 samples, 79.42%)</title><rect x="146.6" y="163.0" width="937.2" height="15" fill="#67f867" rx="2" ry="2"/>
<text x="149.6" y="174.0">org/rocksdb/AbstractRocksIterator.seek</text>
</g>
<g>
<title>org/rocksdb/RocksIterator.seek0 (2,805 samples, 79.42%)</title><rect x="146.6" y="147.0" width="937.2" height="15" fill="#55e655" rx="2" ry="2"/>
<text x="149.6" y="158.0">org/rocksdb/RocksIterator.seek0</text>
</g>
<g>
<title>org/rocksdb/AbstractComparatorJniBridge.compareInternal (2,805 samples, 79.42%)</title><rect x="146.6" y="131.0" width="937.2" height="15" fill="#63f463" rx="2" ry="2"/>
<text x="149.6" y="142.0">org/rocksdb/AbstractComparatorJniBridge.compareInternal</text>
</g>
<g>
<title>ru/mail/polis/util/SignedBytesComparator.compare (2,805 samples, 79.42%)</title><rect x="146.6" y="115.0" width="937.2" height="15" fill="#51e251" rx="2" ry="2"/>
<text x="149.6" y="126.0">ru/mail/polis/util/SignedBytesComparator.compare</text>
</g>
<g>
<title>ru/mail/polis/util/Util.byteBufferToBytes (2,805 samples, 79.42%)</title><rect x="146.6" y="99.0" width="937.2" height="15" fill="#63f463" rx="2" ry="2"/>
<text x="149.6" y="110.0">ru/mail/polis/util/Util.byteBufferToBytes</text>
</g>
<g>
<title>byte[] (942 samples, 26.67%)</title><rect x="146.6" y="83.0" width="314.8" height="15" fill="#5ccaca" rx="2" ry="2"/>
<text x="149.6" y="94.0">byte[]</text>
</g>
<g>
<title>byte[] (18 samples, 0.51%)</title><rect x="461.4" y="83.0" width="6.0" height="15" fill="#e37f00" rx="2" ry="2"/>
<text x="464.4" y="94.0"></text>
</g>
<g>
<title>java/nio/DirectByteBuffer.duplicate (1,845 samples, 52.24%)</title><rect x="467.4" y="83.0" width="616.4" height="15" fill="#69fa69" rx="2" ry="2"/>
<text x="470.4" y="94.0">java/nio/DirectByteBuffer.duplicate</text>
</g>
<g>
<title>java.nio.DirectByteBuffer (1,808 samples, 51.19%)</title><rect x="467.4" y="67.0" width="604.0" height="15" fill="#5dcbcb" rx="2" ry="2"/>
<text x="470.4" y="78.0">java.nio.DirectByteBuffer</text>
</g>
<g>
<title>java.nio.DirectByteBuffer (37 samples, 1.05%)</title><rect x="1071.4" y="67.0" width="12.4" height="15" fill="#fd9900" rx="2" ry="2"/>
<text x="1074.4" y="78.0"></text>
</g>
<g>
<title>org/rocksdb/RocksDB.newIterator (34 samples, 0.96%)</title><rect x="1083.8" y="163.0" width="11.3" height="15" fill="#5dee5d" rx="2" ry="2"/>
<text x="1086.8" y="174.0"></text>
</g>
<g>
<title>org.rocksdb.RocksIterator (10 samples, 0.28%)</title><rect x="1083.8" y="147.0" width="3.3" height="15" fill="#69d7d7" rx="2" ry="2"/>
<text x="1086.8" y="158.0"></text>
</g>
<g>
<title>org/rocksdb/RocksIterator.&lt;init&gt; (24 samples, 0.68%)</title><rect x="1087.1" y="147.0" width="8.0" height="15" fill="#61f261" rx="2" ry="2"/>
<text x="1090.1" y="158.0"></text>
</g>
<g>
<title>org/rocksdb/AbstractRocksIterator.&lt;init&gt; (24 samples, 0.68%)</title><rect x="1087.1" y="131.0" width="8.0" height="15" fill="#66f766" rx="2" ry="2"/>
<text x="1090.1" y="142.0"></text>
</g>
<g>
<title>org/rocksdb/RocksObject.&lt;init&gt; (24 samples, 0.68%)</title><rect x="1087.1" y="115.0" width="8.0" height="15" fill="#53e453" rx="2" ry="2"/>
<text x="1090.1" y="126.0"></text>
</g>
<g>
<title>org/rocksdb/AbstractImmutableNativeReference.&lt;init&gt; (24 samples, 0.68%)</title><rect x="1087.1" y="99.0" width="8.0" height="15" fill="#5eef5e" rx="2" ry="2"/>
<text x="1090.1" y="110.0"></text>
</g>
<g>
<title>java.util.concurrent.atomic.AtomicBoolean (5 samples, 0.14%)</title><rect x="1087.1" y="83.0" width="1.7" height="15" fill="#52c0c0" rx="2" ry="2"/>
<text x="1090.1" y="94.0"></text>
</g>
<g>
<title>org/rocksdb/AbstractNativeReference.&lt;init&gt; (19 samples, 0.54%)</title><rect x="1088.8" y="83.0" width="6.3" height="15" fill="#50e150" rx="2" ry="2"/>
<text x="1091.8" y="94.0"></text>
</g>
<g>
<title>java/lang/Object.&lt;init&gt; (19 samples, 0.54%)</title><rect x="1088.8" y="67.0" width="6.3" height="15" fill="#56e756" rx="2" ry="2"/>
<text x="1091.8" y="78.0"></text>
</g>
<g>
<title>java/lang/ref/Finalizer.register (19 samples, 0.54%)</title><rect x="1088.8" y="51.0" width="6.3" height="15" fill="#51e251" rx="2" ry="2"/>
<text x="1091.8" y="62.0"></text>
</g>
<g>
<title>java.lang.ref.Finalizer (19 samples, 0.54%)</title><rect x="1088.8" y="35.0" width="6.3" height="15" fill="#58c6c6" rx="2" ry="2"/>
<text x="1091.8" y="46.0"></text>
</g>
<g>
<title>ru.mail.polis.dao.dariagap.RecordIterator (4 samples, 0.11%)</title><rect x="1095.1" y="163.0" width="1.4" height="15" fill="#59c7c7" rx="2" ry="2"/>
<text x="1098.1" y="174.0"></text>
</g>
<g>
<title>ru/mail/polis/util/Util.byteBufferToBytes (41 samples, 1.16%)</title><rect x="1096.5" y="163.0" width="13.7" height="15" fill="#66f766" rx="2" ry="2"/>
<text x="1099.5" y="174.0"></text>
</g>
<g>
<title>byte[] (10 samples, 0.28%)</title><rect x="1096.5" y="147.0" width="3.3" height="15" fill="#50bebe" rx="2" ry="2"/>
<text x="1099.5" y="158.0"></text>
</g>
<g>
<title>byte[] (1 samples, 0.03%)</title><rect x="1099.8" y="147.0" width="0.3" height="15" fill="#fc9800" rx="2" ry="2"/>
<text x="1102.8" y="158.0"></text>
</g>
<g>
<title>java/nio/HeapByteBuffer.duplicate (30 samples, 0.85%)</title><rect x="1100.1" y="147.0" width="10.1" height="15" fill="#6bfc6b" rx="2" ry="2"/>
<text x="1103.1" y="158.0"></text>
</g>
<g>
<title>java.nio.HeapByteBuffer (30 samples, 0.85%)</title><rect x="1100.1" y="131.0" width="10.1" height="15" fill="#51bfbf" rx="2" ry="2"/>
<text x="1103.1" y="142.0"></text>
</g>
<g>
<title>ru/mail/polis/util/Util.byteBufferToBytes (40 samples, 1.13%)</title><rect x="1110.2" y="195.0" width="13.3" height="15" fill="#5ff05f" rx="2" ry="2"/>
<text x="1113.2" y="206.0"></text>
</g>
<g>
<title>byte[] (14 samples, 0.40%)</title><rect x="1110.2" y="179.0" width="4.6" height="15" fill="#66d4d4" rx="2" ry="2"/>
<text x="1113.2" y="190.0"></text>
</g>
<g>
<title>java/nio/HeapByteBufferR.duplicate (26 samples, 0.74%)</title><rect x="1114.8" y="179.0" width="8.7" height="15" fill="#58e958" rx="2" ry="2"/>
<text x="1117.8" y="190.0"></text>
</g>
<g>
<title>java.nio.HeapByteBufferR (25 samples, 0.71%)</title><rect x="1114.8" y="163.0" width="8.4" height="15" fill="#59c7c7" rx="2" ry="2"/>
<text x="1117.8" y="174.0"></text>
</g>
<g>
<title>java.nio.HeapByteBufferR (1 samples, 0.03%)</title><rect x="1123.2" y="163.0" width="0.3" height="15" fill="#f08c00" rx="2" ry="2"/>
<text x="1126.2" y="174.0"></text>
</g>
<g>
<title>one/nio/http/Request.getPath (22 samples, 0.62%)</title><rect x="1123.5" y="227.0" width="7.4" height="15" fill="#5dee5d" rx="2" ry="2"/>
<text x="1126.5" y="238.0"></text>
</g>
<g>
<title>java/lang/String.substring (22 samples, 0.62%)</title><rect x="1123.5" y="211.0" width="7.4" height="15" fill="#6dfe6d" rx="2" ry="2"/>
<text x="1126.5" y="222.0"></text>
</g>
<g>
<title>java/lang/StringLatin1.newString (22 samples, 0.62%)</title><rect x="1123.5" y="195.0" width="7.4" height="15" fill="#61f261" rx="2" ry="2"/>
<text x="1126.5" y="206.0"></text>
</g>
<g>
<title>java.lang.String (12 samples, 0.34%)</title><rect x="1123.5" y="179.0" width="4.0" height="15" fill="#52c0c0" rx="2" ry="2"/>
<text x="1126.5" y="190.0"></text>
</g>
<g>
<title>java.lang.String (1 samples, 0.03%)</title><rect x="1127.5" y="179.0" width="0.4" height="15" fill="#ec8800" rx="2" ry="2"/>
<text x="1130.5" y="190.0"></text>
</g>
<g>
<title>java/util/Arrays.copyOfRange (9 samples, 0.25%)</title><rect x="1127.9" y="179.0" width="3.0" height="15" fill="#64f564" rx="2" ry="2"/>
<text x="1130.9" y="190.0"></text>
</g>
<g>
<title>byte[] (9 samples, 0.25%)</title><rect x="1127.9" y="163.0" width="3.0" height="15" fill="#6bd9d9" rx="2" ry="2"/>
<text x="1130.9" y="174.0"></text>
</g>
<g>
<title>one/nio/http/HttpSession.parseRequest (119 samples, 3.37%)</title><rect x="1130.9" y="259.0" width="39.7" height="15" fill="#69fa69" rx="2" ry="2"/>
<text x="1133.9" y="270.0">one..</text>
</g>
<g>
<title>one.nio.http.Request (18 samples, 0.51%)</title><rect x="1130.9" y="243.0" width="6.0" height="15" fill="#62d0d0" rx="2" ry="2"/>
<text x="1133.9" y="254.0"></text>
</g>
<g>
<title>one/nio/http/Request.&lt;init&gt; (37 samples, 1.05%)</title><rect x="1136.9" y="243.0" width="12.3" height="15" fill="#5bec5b" rx="2" ry="2"/>
<text x="1139.9" y="254.0"></text>
</g>
<g>
<title>java.lang.String[] (37 samples, 1.05%)</title><rect x="1136.9" y="227.0" width="12.3" height="15" fill="#64d2d2" rx="2" ry="2"/>
<text x="1139.9" y="238.0"></text>
</g>
<g>
<title>one/nio/util/Utf8.read (64 samples, 1.81%)</title><rect x="1149.2" y="243.0" width="21.4" height="15" fill="#55e655" rx="2" ry="2"/>
<text x="1152.2" y="254.0">o..</text>
</g>
<g>
<title>one/nio/util/Utf8.read (64 samples, 1.81%)</title><rect x="1149.2" y="227.0" width="21.4" height="15" fill="#54e554" rx="2" ry="2"/>
<text x="1152.2" y="238.0">o..</text>
</g>
<g>
<title>char[] (35 samples, 0.99%)</title><rect x="1149.2" y="211.0" width="11.7" height="15" fill="#68d6d6" rx="2" ry="2"/>
<text x="1152.2" y="222.0"></text>
</g>
<g>
<title>java.lang.String (15 samples, 0.42%)</title><rect x="1160.9" y="211.0" width="5.0" height="15" fill="#64d2d2" rx="2" ry="2"/>
<text x="1163.9" y="222.0"></text>
</g>
<g>
<title>java.lang.String (1 samples, 0.03%)</title><rect x="1165.9" y="211.0" width="0.4" height="15" fill="#e78300" rx="2" ry="2"/>
<text x="1168.9" y="222.0"></text>
</g>
<g>
<title>java/lang/String.&lt;init&gt; (13 samples, 0.37%)</title><rect x="1166.3" y="211.0" width="4.3" height="15" fill="#68f968" rx="2" ry="2"/>
<text x="1169.3" y="222.0"></text>
</g>
<g>
<title>java/lang/String.&lt;init&gt; (13 samples, 0.37%)</title><rect x="1166.3" y="195.0" width="4.3" height="15" fill="#6afb6a" rx="2" ry="2"/>
<text x="1169.3" y="206.0"></text>
</g>
<g>
<title>java/lang/StringUTF16.compress (13 samples, 0.37%)</title><rect x="1166.3" y="179.0" width="4.3" height="15" fill="#58e958" rx="2" ry="2"/>
<text x="1169.3" y="190.0"></text>
</g>
<g>
<title>byte[] (13 samples, 0.37%)</title><rect x="1166.3" y="163.0" width="4.3" height="15" fill="#52c0c0" rx="2" ry="2"/>
<text x="1169.3" y="174.0"></text>
</g>
<g>
<title>one/nio/util/Utf8.read (58 samples, 1.64%)</title><rect x="1170.6" y="259.0" width="19.4" height="15" fill="#56e756" rx="2" ry="2"/>
<text x="1173.6" y="270.0"></text>
</g>
<g>
<title>one/nio/util/Utf8.read (58 samples, 1.64%)</title><rect x="1170.6" y="243.0" width="19.4" height="15" fill="#50e150" rx="2" ry="2"/>
<text x="1173.6" y="254.0"></text>
</g>
<g>
<title>char[] (25 samples, 0.71%)</title><rect x="1170.6" y="227.0" width="8.4" height="15" fill="#53c1c1" rx="2" ry="2"/>
<text x="1173.6" y="238.0"></text>
</g>
<g>
<title>char[] (1 samples, 0.03%)</title><rect x="1179.0" y="227.0" width="0.3" height="15" fill="#e58100" rx="2" ry="2"/>
<text x="1182.0" y="238.0"></text>
</g>
<g>
<title>java.lang.String (16 samples, 0.45%)</title><rect x="1179.3" y="227.0" width="5.4" height="15" fill="#6bd9d9" rx="2" ry="2"/>
<text x="1182.3" y="238.0"></text>
</g>
<g>
<title>java/lang/String.&lt;init&gt; (16 samples, 0.45%)</title><rect x="1184.7" y="227.0" width="5.3" height="15" fill="#54e554" rx="2" ry="2"/>
<text x="1187.7" y="238.0"></text>
</g>
<g>
<title>java/lang/String.&lt;init&gt; (16 samples, 0.45%)</title><rect x="1184.7" y="211.0" width="5.3" height="15" fill="#63f463" rx="2" ry="2"/>
<text x="1187.7" y="222.0"></text>
</g>
<g>
<title>java/lang/StringUTF16.compress (16 samples, 0.45%)</title><rect x="1184.7" y="195.0" width="5.3" height="15" fill="#63f463" rx="2" ry="2"/>
<text x="1187.7" y="206.0"></text>
</g>
<g>
<title>byte[] (16 samples, 0.45%)</title><rect x="1184.7" y="179.0" width="5.3" height="15" fill="#5ccaca" rx="2" ry="2"/>
<text x="1187.7" y="190.0"></text>
</g>
</g>
</svg>
