<?xml version="1.0" standalone="no"?>
<!DOCTYPE svg PUBLIC "-//W3C//DTD SVG 1.1//EN" "http://www.w3.org/Graphics/SVG/1.1/DTD/svg11.dtd">
<svg version="1.1" width="1200" height="406" onload="init(evt)" viewBox="0 0 1200 406" xmlns="http://www.w3.org/2000/svg" xmlns:xlink="http://www.w3.org/1999/xlink">
<style type="text/css">
	text { font-family:Verdana; font-size:12px; fill:rgb(0,0,0); }
	#search { opacity:0.1; cursor:pointer; }
	#search:hover, #search.show { opacity:1; }
	#subtitle { text-anchor:middle; font-color:rgb(160,160,160); }
	#title { text-anchor:middle; font-size:17px}
	#unzoom { cursor:pointer; }
	#frames > *:hover { stroke:black; stroke-width:0.5; cursor:pointer; }
	.hide { display:none; }
	.parent { opacity:0.5; }
</style>
<script type="text/ecmascript">
<![CDATA[
	"use strict";
	var details, searchbtn, unzoombtn, matchedtxt, svg, searching;
	function init(evt) {
		details = document.getElementById("details").firstChild;
		searchbtn = document.getElementById("search");
		unzoombtn = document.getElementById("unzoom");
		matchedtxt = document.getElementById("matched");
		svg = document.getElementsByTagName("svg")[0];
		searching = 0;
	}

	window.addEventListener("click", function(e) {
		var target = find_group(e.target);
		if (target) {
			if (target.nodeName == "a") {
				if (e.ctrlKey === false) return;
				e.preventDefault();
			}
			if (target.classList.contains("parent")) unzoom();
			zoom(target);
		}
		else if (e.target.id == "unzoom") unzoom();
		else if (e.target.id == "search") search_prompt();
	}, false)

	// mouse-over for info
	// show
	window.addEventListener("mouseover", function(e) {
		var target = find_group(e.target);
		if (target) details.nodeValue = "Function: " + g_to_text(target);
	}, false)

	// clear
	window.addEventListener("mouseout", function(e) {
		var target = find_group(e.target);
		if (target) details.nodeValue = ' ';
	}, false)

	// ctrl-F for search
	window.addEventListener("keydown",function (e) {
		if (e.keyCode === 114 || (e.ctrlKey && e.keyCode === 70)) {
			e.preventDefault();
			search_prompt();
		}
	}, false)

	// functions
	function find_child(node, selector) {
		var children = node.querySelectorAll(selector);
		if (children.length) return children[0];
		return;
	}
	function find_group(node) {
		var parent = node.parentElement;
		if (!parent) return;
		if (parent.id == "frames") return node;
		return find_group(parent);
	}
	function orig_save(e, attr, val) {
		if (e.attributes["_orig_" + attr] != undefined) return;
		if (e.attributes[attr] == undefined) return;
		if (val == undefined) val = e.attributes[attr].value;
		e.setAttribute("_orig_" + attr, val);
	}
	function orig_load(e, attr) {
		if (e.attributes["_orig_"+attr] == undefined) return;
		e.attributes[attr].value = e.attributes["_orig_" + attr].value;
		e.removeAttribute("_orig_"+attr);
	}
	function g_to_text(e) {
		var text = find_child(e, "title").firstChild.nodeValue;
		return (text)
	}
	function g_to_func(e) {
		var func = g_to_text(e);
		// if there's any manipulation we want to do to the function
		// name before it's searched, do it here before returning.
		return (func);
	}
	function update_text(e) {
		var r = find_child(e, "rect");
		var t = find_child(e, "text");
		var w = parseFloat(r.attributes.width.value) -3;
		var txt = find_child(e, "title").textContent.replace(/\([^(]*\)$/,"");
		t.attributes.x.value = parseFloat(r.attributes.x.value) + 3;

		// Smaller than this size won't fit anything
		if (w < 2 * 12 * 0.59) {
			t.textContent = "";
			return;
		}

		t.textContent = txt;
		// Fit in full text width
		if (/^ *$/.test(txt) || t.getSubStringLength(0, txt.length) < w)
			return;

		for (var x = txt.length - 2; x > 0; x--) {
			if (t.getSubStringLength(0, x + 2) <= w) {
				t.textContent = txt.substring(0, x) + "..";
				return;
			}
		}
		t.textContent = "";
	}

	// zoom
	function zoom_reset(e) {
		if (e.attributes != undefined) {
			orig_load(e, "x");
			orig_load(e, "width");
		}
		if (e.childNodes == undefined) return;
		for (var i = 0, c = e.childNodes; i < c.length; i++) {
			zoom_reset(c[i]);
		}
	}
	function zoom_child(e, x, ratio) {
		if (e.attributes != undefined) {
			if (e.attributes.x != undefined) {
				orig_save(e, "x");
				e.attributes.x.value = (parseFloat(e.attributes.x.value) - x - 10) * ratio + 10;
				if (e.tagName == "text")
					e.attributes.x.value = find_child(e.parentNode, "rect[x]").attributes.x.value + 3;
			}
			if (e.attributes.width != undefined) {
				orig_save(e, "width");
				e.attributes.width.value = parseFloat(e.attributes.width.value) * ratio;
			}
		}

		if (e.childNodes == undefined) return;
		for (var i = 0, c = e.childNodes; i < c.length; i++) {
			zoom_child(c[i], x - 10, ratio);
		}
	}
	function zoom_parent(e) {
		if (e.attributes) {
			if (e.attributes.x != undefined) {
				orig_save(e, "x");
				e.attributes.x.value = 10;
			}
			if (e.attributes.width != undefined) {
				orig_save(e, "width");
				e.attributes.width.value = parseInt(svg.width.baseVal.value) - (10 * 2);
			}
		}
		if (e.childNodes == undefined) return;
		for (var i = 0, c = e.childNodes; i < c.length; i++) {
			zoom_parent(c[i]);
		}
	}
	function zoom(node) {
		var attr = find_child(node, "rect").attributes;
		var width = parseFloat(attr.width.value);
		var xmin = parseFloat(attr.x.value);
		var xmax = parseFloat(xmin + width);
		var ymin = parseFloat(attr.y.value);
		var ratio = (svg.width.baseVal.value - 2 * 10) / width;

		// XXX: Workaround for JavaScript float issues (fix me)
		var fudge = 0.0001;

		unzoombtn.classList.remove("hide");

		var el = document.getElementById("frames").children;
		for (var i = 0; i < el.length; i++) {
			var e = el[i];
			var a = find_child(e, "rect").attributes;
			var ex = parseFloat(a.x.value);
			var ew = parseFloat(a.width.value);
			var upstack;
			// Is it an ancestor
			if (0 == 0) {
				upstack = parseFloat(a.y.value) > ymin;
			} else {
				upstack = parseFloat(a.y.value) < ymin;
			}
			if (upstack) {
				// Direct ancestor
				if (ex <= xmin && (ex+ew+fudge) >= xmax) {
					e.classList.add("parent");
					zoom_parent(e);
					update_text(e);
				}
				// not in current path
				else
					e.classList.add("hide");
			}
			// Children maybe
			else {
				// no common path
				if (ex < xmin || ex + fudge >= xmax) {
					e.classList.add("hide");
				}
				else {
					zoom_child(e, xmin, ratio);
					update_text(e);
				}
			}
		}
	}
	function unzoom() {
		unzoombtn.classList.add("hide");
		var el = document.getElementById("frames").children;
		for(var i = 0; i < el.length; i++) {
			el[i].classList.remove("parent");
			el[i].classList.remove("hide");
			zoom_reset(el[i]);
			update_text(el[i]);
		}
	}

	// search
	function reset_search() {
		var el = document.querySelectorAll("#frames rect");
		for (var i = 0; i < el.length; i++) {
			orig_load(el[i], "fill")
		}
	}
	function search_prompt() {
		if (!searching) {
			var term = prompt("Enter a search term (regexp " +
			    "allowed, eg: ^ext4_)", "");
			if (term != null) {
				search(term)
			}
		} else {
			reset_search();
			searching = 0;
			searchbtn.classList.remove("show");
			searchbtn.firstChild.nodeValue = "Search"
			matchedtxt.classList.add("hide");
			matchedtxt.firstChild.nodeValue = ""
		}
	}
	function search(term) {
		var re = new RegExp(term);
		var el = document.getElementById("frames").children;
		var matches = new Object();
		var maxwidth = 0;
		for (var i = 0; i < el.length; i++) {
			var e = el[i];
			var func = g_to_func(e);
			var rect = find_child(e, "rect");
			if (func == null || rect == null)
				continue;

			// Save max width. Only works as we have a root frame
			var w = parseFloat(rect.attributes.width.value);
			if (w > maxwidth)
				maxwidth = w;

			if (func.match(re)) {
				// highlight
				var x = parseFloat(rect.attributes.x.value);
				orig_save(rect, "fill");
				rect.attributes.fill.value = "rgb(230,0,230)";

				// remember matches
				if (matches[x] == undefined) {
					matches[x] = w;
				} else {
					if (w > matches[x]) {
						// overwrite with parent
						matches[x] = w;
					}
				}
				searching = 1;
			}
		}
		if (!searching)
			return;

		searchbtn.classList.add("show");
		searchbtn.firstChild.nodeValue = "Reset Search";

		// calculate percent matched, excluding vertical overlap
		var count = 0;
		var lastx = -1;
		var lastw = 0;
		var keys = Array();
		for (k in matches) {
			if (matches.hasOwnProperty(k))
				keys.push(k);
		}
		// sort the matched frames by their x location
		// ascending, then width descending
		keys.sort(function(a, b){
			return a - b;
		});
		// Step through frames saving only the biggest bottom-up frames
		// thanks to the sort order. This relies on the tree property
		// where children are always smaller than their parents.
		var fudge = 0.0001;	// JavaScript floating point
		for (var k in keys) {
			var x = parseFloat(keys[k]);
			var w = matches[keys[k]];
			if (x >= lastx + lastw - fudge) {
				count += w;
				lastx = x;
				lastw = w;
			}
		}
		// display matched percent
		matchedtxt.classList.remove("hide");
		var pct = 100 * count / maxwidth;
		if (pct != 100) pct = pct.toFixed(1)
		matchedtxt.firstChild.nodeValue = "Matched: " + pct + "%";
	}
]]>
</script>
<rect x="0" y="0" width="100%" height="100%" fill="rgb(240,240,220)"/>
<text id="title" x="600" y="24">Flame Graph</text>
<text id="details" x="10" y="389"> </text>
<text id="unzoom" x="10" y="24" class="hide">Reset Zoom</text>
<text id="search" x="1090" y="24">Search</text>
<text id="matched" x="1090" y="389"> </text>
<g id="frames">
<g>
<title>all (1,490 samples, 100.00%)</title><rect x="10.0" y="355.0" width="1180.0" height="15" fill="#e35d5d" rx="2" ry="2"/>
<text x="13.0" y="366.0">all</text>
</g>
<g>
<title>[Executor-0 tid=10478] (32 samples, 2.15%)</title><rect x="10.0" y="339.0" width="25.3" height="15" fill="#e66060" rx="2" ry="2"/>
<text x="13.0" y="350.0">[..</text>
</g>
<g>
<title>java/lang/Thread.run (32 samples, 2.15%)</title><rect x="10.0" y="323.0" width="25.3" height="15" fill="#66f766" rx="2" ry="2"/>
<text x="13.0" y="334.0">j..</text>
</g>
<g>
<title>java/util/concurrent/ThreadPoolExecutor$Worker.run (32 samples, 2.15%)</title><rect x="10.0" y="307.0" width="25.3" height="15" fill="#55e655" rx="2" ry="2"/>
<text x="13.0" y="318.0">j..</text>
</g>
<g>
<title>java/util/concurrent/ThreadPoolExecutor.runWorker (32 samples, 2.15%)</title><rect x="10.0" y="291.0" width="25.3" height="15" fill="#6dfe6d" rx="2" ry="2"/>
<text x="13.0" y="302.0">j..</text>
</g>
<g>
<title>java/util/concurrent/FutureTask.run (15 samples, 1.01%)</title><rect x="10.0" y="275.0" width="11.9" height="15" fill="#59ea59" rx="2" ry="2"/>
<text x="13.0" y="286.0"></text>
</g>
<g>
<title>java/util/concurrent/Executors$RunnableAdapter.call (15 samples, 1.01%)</title><rect x="10.0" y="259.0" width="11.9" height="15" fill="#60f160" rx="2" ry="2"/>
<text x="13.0" y="270.0"></text>
</g>
<g>
<title>ru/mail/polis/service/dariagap/AsyncServiceImpl$$Lambda$68/246240756.run (15 samples, 1.01%)</title><rect x="10.0" y="243.0" width="11.9" height="15" fill="#6afb6a" rx="2" ry="2"/>
<text x="13.0" y="254.0"></text>
</g>
<g>
<title>ru/mail/polis/service/dariagap/AsyncServiceImpl.lambda$get$1 (15 samples, 1.01%)</title><rect x="10.0" y="227.0" width="11.9" height="15" fill="#5ff05f" rx="2" ry="2"/>
<text x="13.0" y="238.0"></text>
</g>
<g>
<title>one/nio/http/HttpSession.sendResponse (2 samples, 0.13%)</title><rect x="10.0" y="211.0" width="1.6" height="15" fill="#5dee5d" rx="2" ry="2"/>
<text x="13.0" y="222.0"></text>
</g>
<g>
<title>one.nio.http.HttpSession (2 samples, 0.13%)</title><rect x="10.0" y="195.0" width="1.6" height="15" fill="#54c2c2" rx="2" ry="2"/>
<text x="13.0" y="206.0"></text>
</g>
<g>
<title>ru/mail/polis/dao/DAO.get (13 samples, 0.87%)</title><rect x="11.6" y="211.0" width="10.3" height="15" fill="#58e958" rx="2" ry="2"/>
<text x="14.6" y="222.0"></text>
</g>
<g>
<title>ru/mail/polis/dao/dariagap/RocksDBStorage.iterator (13 samples, 0.87%)</title><rect x="11.6" y="195.0" width="10.3" height="15" fill="#54e554" rx="2" ry="2"/>
<text x="14.6" y="206.0"></text>
</g>
<g>
<title>org/rocksdb/RocksDB.newIterator (13 samples, 0.87%)</title><rect x="11.6" y="179.0" width="10.3" height="15" fill="#68f968" rx="2" ry="2"/>
<text x="14.6" y="190.0"></text>
</g>
<g>
<title>org/rocksdb/RocksIterator.&lt;init&gt; (13 samples, 0.87%)</title><rect x="11.6" y="163.0" width="10.3" height="15" fill="#64f564" rx="2" ry="2"/>
<text x="14.6" y="174.0"></text>
</g>
<g>
<title>org/rocksdb/AbstractRocksIterator.&lt;init&gt; (13 samples, 0.87%)</title><rect x="11.6" y="147.0" width="10.3" height="15" fill="#62f362" rx="2" ry="2"/>
<text x="14.6" y="158.0"></text>
</g>
<g>
<title>org/rocksdb/RocksObject.&lt;init&gt; (13 samples, 0.87%)</title><rect x="11.6" y="131.0" width="10.3" height="15" fill="#67f867" rx="2" ry="2"/>
<text x="14.6" y="142.0"></text>
</g>
<g>
<title>org/rocksdb/AbstractImmutableNativeReference.&lt;init&gt; (13 samples, 0.87%)</title><rect x="11.6" y="115.0" width="10.3" height="15" fill="#5dee5d" rx="2" ry="2"/>
<text x="14.6" y="126.0"></text>
</g>
<g>
<title>org/rocksdb/AbstractNativeReference.&lt;init&gt; (13 samples, 0.87%)</title><rect x="11.6" y="99.0" width="10.3" height="15" fill="#6cfd6c" rx="2" ry="2"/>
<text x="14.6" y="110.0"></text>
</g>
<g>
<title>java/lang/Object.&lt;init&gt; (13 samples, 0.87%)</title><rect x="11.6" y="83.0" width="10.3" height="15" fill="#6dfe6d" rx="2" ry="2"/>
<text x="14.6" y="94.0"></text>
</g>
<g>
<title>java/lang/ref/Finalizer.register (13 samples, 0.87%)</title><rect x="11.6" y="67.0" width="10.3" height="15" fill="#5dee5d" rx="2" ry="2"/>
<text x="14.6" y="78.0"></text>
</g>
<g>
<title>java/lang/ref/Finalizer.&lt;init&gt; (13 samples, 0.87%)</title><rect x="11.6" y="51.0" width="10.3" height="15" fill="#51e251" rx="2" ry="2"/>
<text x="14.6" y="62.0"></text>
</g>
<g>
<title>java.lang.Object (13 samples, 0.87%)</title><rect x="11.6" y="35.0" width="10.3" height="15" fill="#6cdada" rx="2" ry="2"/>
<text x="14.6" y="46.0"></text>
</g>
<g>
<title>java/util/concurrent/ThreadPoolExecutor.getTask (17 samples, 1.14%)</title><rect x="21.9" y="275.0" width="13.4" height="15" fill="#5eef5e" rx="2" ry="2"/>
<text x="24.9" y="286.0"></text>
</g>
<g>
<title>java/util/concurrent/ArrayBlockingQueue.take (17 samples, 1.14%)</title><rect x="21.9" y="259.0" width="13.4" height="15" fill="#55e655" rx="2" ry="2"/>
<text x="24.9" y="270.0"></text>
</g>
<g>
<title>java/util/concurrent/locks/AbstractQueuedSynchronizer$ConditionObject.await (3 samples, 0.20%)</title><rect x="21.9" y="243.0" width="2.4" height="15" fill="#62f362" rx="2" ry="2"/>
<text x="24.9" y="254.0"></text>
</g>
<g>
<title>java/util/concurrent/locks/AbstractQueuedSynchronizer.acquireQueued (3 samples, 0.20%)</title><rect x="21.9" y="227.0" width="2.4" height="15" fill="#5eef5e" rx="2" ry="2"/>
<text x="24.9" y="238.0"></text>
</g>
<g>
<title>java/util/concurrent/locks/AbstractQueuedSynchronizer.parkAndCheckInterrupt (3 samples, 0.20%)</title><rect x="21.9" y="211.0" width="2.4" height="15" fill="#5eef5e" rx="2" ry="2"/>
<text x="24.9" y="222.0"></text>
</g>
<g>
<title>java/util/concurrent/locks/LockSupport.park (3 samples, 0.20%)</title><rect x="21.9" y="195.0" width="2.4" height="15" fill="#5bec5b" rx="2" ry="2"/>
<text x="24.9" y="206.0"></text>
</g>
<g>
<title>jdk/internal/misc/Unsafe.park (3 samples, 0.20%)</title><rect x="21.9" y="179.0" width="2.4" height="15" fill="#5aeb5a" rx="2" ry="2"/>
<text x="24.9" y="190.0"></text>
</g>
<g>
<title>java.util.concurrent.locks.ReentrantLock$NonfairSync (3 samples, 0.20%)</title><rect x="21.9" y="163.0" width="2.4" height="15" fill="#50bebe" rx="2" ry="2"/>
<text x="24.9" y="174.0"></text>
</g>
<g>
<title>java/util/concurrent/locks/ReentrantLock.lockInterruptibly (14 samples, 0.94%)</title><rect x="24.3" y="243.0" width="11.0" height="15" fill="#5eef5e" rx="2" ry="2"/>
<text x="27.3" y="254.0"></text>
</g>
<g>
<title>java/util/concurrent/locks/AbstractQueuedSynchronizer.acquireInterruptibly (14 samples, 0.94%)</title><rect x="24.3" y="227.0" width="11.0" height="15" fill="#5ff05f" rx="2" ry="2"/>
<text x="27.3" y="238.0"></text>
</g>
<g>
<title>java/util/concurrent/locks/AbstractQueuedSynchronizer.doAcquireInterruptibly (14 samples, 0.94%)</title><rect x="24.3" y="211.0" width="11.0" height="15" fill="#67f867" rx="2" ry="2"/>
<text x="27.3" y="222.0"></text>
</g>
<g>
<title>java/util/concurrent/locks/AbstractQueuedSynchronizer.parkAndCheckInterrupt (14 samples, 0.94%)</title><rect x="24.3" y="195.0" width="11.0" height="15" fill="#63f463" rx="2" ry="2"/>
<text x="27.3" y="206.0"></text>
</g>
<g>
<title>java/util/concurrent/locks/LockSupport.park (14 samples, 0.94%)</title><rect x="24.3" y="179.0" width="11.0" height="15" fill="#5ff05f" rx="2" ry="2"/>
<text x="27.3" y="190.0"></text>
</g>
<g>
<title>jdk/internal/misc/Unsafe.park (14 samples, 0.94%)</title><rect x="24.3" y="163.0" width="11.0" height="15" fill="#52e352" rx="2" ry="2"/>
<text x="27.3" y="174.0"></text>
</g>
<g>
<title>java.util.concurrent.locks.ReentrantLock$NonfairSync (14 samples, 0.94%)</title><rect x="24.3" y="147.0" width="11.0" height="15" fill="#56c4c4" rx="2" ry="2"/>
<text x="27.3" y="158.0"></text>
</g>
<g>
<title>[Executor-1 tid=10479] (39 samples, 2.62%)</title><rect x="35.3" y="339.0" width="30.9" height="15" fill="#ed6a6a" rx="2" ry="2"/>
<text x="38.3" y="350.0">[E..</text>
</g>
<g>
<title>java/lang/Thread.run (39 samples, 2.62%)</title><rect x="35.3" y="323.0" width="30.9" height="15" fill="#62f362" rx="2" ry="2"/>
<text x="38.3" y="334.0">ja..</text>
</g>
<g>
<title>java/util/concurrent/ThreadPoolExecutor$Worker.run (39 samples, 2.62%)</title><rect x="35.3" y="307.0" width="30.9" height="15" fill="#64f564" rx="2" ry="2"/>
<text x="38.3" y="318.0">ja..</text>
</g>
<g>
<title>java/util/concurrent/ThreadPoolExecutor.runWorker (39 samples, 2.62%)</title><rect x="35.3" y="291.0" width="30.9" height="15" fill="#61f261" rx="2" ry="2"/>
<text x="38.3" y="302.0">ja..</text>
</g>
<g>
<title>java/util/concurrent/FutureTask.run (11 samples, 0.74%)</title><rect x="35.3" y="275.0" width="8.8" height="15" fill="#6afb6a" rx="2" ry="2"/>
<text x="38.3" y="286.0"></text>
</g>
<g>
<title>java/util/concurrent/Executors$RunnableAdapter.call (11 samples, 0.74%)</title><rect x="35.3" y="259.0" width="8.8" height="15" fill="#68f968" rx="2" ry="2"/>
<text x="38.3" y="270.0"></text>
</g>
<g>
<title>ru/mail/polis/service/dariagap/AsyncServiceImpl$$Lambda$68/246240756.run (11 samples, 0.74%)</title><rect x="35.3" y="243.0" width="8.8" height="15" fill="#5bec5b" rx="2" ry="2"/>
<text x="38.3" y="254.0"></text>
</g>
<g>
<title>ru/mail/polis/service/dariagap/AsyncServiceImpl.lambda$get$1 (11 samples, 0.74%)</title><rect x="35.3" y="227.0" width="8.8" height="15" fill="#61f261" rx="2" ry="2"/>
<text x="38.3" y="238.0"></text>
</g>
<g>
<title>one/nio/http/HttpSession.sendResponse (1 samples, 0.07%)</title><rect x="35.3" y="211.0" width="0.8" height="15" fill="#5ced5c" rx="2" ry="2"/>
<text x="38.3" y="222.0"></text>
</g>
<g>
<title>one.nio.http.HttpSession (1 samples, 0.07%)</title><rect x="35.3" y="195.0" width="0.8" height="15" fill="#55c3c3" rx="2" ry="2"/>
<text x="38.3" y="206.0"></text>
</g>
<g>
<title>ru/mail/polis/dao/DAO.get (10 samples, 0.67%)</title><rect x="36.1" y="211.0" width="8.0" height="15" fill="#50e150" rx="2" ry="2"/>
<text x="39.1" y="222.0"></text>
</g>
<g>
<title>ru/mail/polis/dao/dariagap/RocksDBStorage.iterator (10 samples, 0.67%)</title><rect x="36.1" y="195.0" width="8.0" height="15" fill="#5bec5b" rx="2" ry="2"/>
<text x="39.1" y="206.0"></text>
</g>
<g>
<title>org/rocksdb/RocksDB.newIterator (10 samples, 0.67%)</title><rect x="36.1" y="179.0" width="8.0" height="15" fill="#55e655" rx="2" ry="2"/>
<text x="39.1" y="190.0"></text>
</g>
<g>
<title>org/rocksdb/RocksIterator.&lt;init&gt; (10 samples, 0.67%)</title><rect x="36.1" y="163.0" width="8.0" height="15" fill="#5eef5e" rx="2" ry="2"/>
<text x="39.1" y="174.0"></text>
</g>
<g>
<title>org/rocksdb/AbstractRocksIterator.&lt;init&gt; (10 samples, 0.67%)</title><rect x="36.1" y="147.0" width="8.0" height="15" fill="#5ced5c" rx="2" ry="2"/>
<text x="39.1" y="158.0"></text>
</g>
<g>
<title>org/rocksdb/RocksObject.&lt;init&gt; (10 samples, 0.67%)</title><rect x="36.1" y="131.0" width="8.0" height="15" fill="#53e453" rx="2" ry="2"/>
<text x="39.1" y="142.0"></text>
</g>
<g>
<title>org/rocksdb/AbstractImmutableNativeReference.&lt;init&gt; (10 samples, 0.67%)</title><rect x="36.1" y="115.0" width="8.0" height="15" fill="#6cfd6c" rx="2" ry="2"/>
<text x="39.1" y="126.0"></text>
</g>
<g>
<title>org/rocksdb/AbstractNativeReference.&lt;init&gt; (10 samples, 0.67%)</title><rect x="36.1" y="99.0" width="8.0" height="15" fill="#62f362" rx="2" ry="2"/>
<text x="39.1" y="110.0"></text>
</g>
<g>
<title>java/lang/Object.&lt;init&gt; (10 samples, 0.67%)</title><rect x="36.1" y="83.0" width="8.0" height="15" fill="#65f665" rx="2" ry="2"/>
<text x="39.1" y="94.0"></text>
</g>
<g>
<title>java/lang/ref/Finalizer.register (10 samples, 0.67%)</title><rect x="36.1" y="67.0" width="8.0" height="15" fill="#5dee5d" rx="2" ry="2"/>
<text x="39.1" y="78.0"></text>
</g>
<g>
<title>java/lang/ref/Finalizer.&lt;init&gt; (10 samples, 0.67%)</title><rect x="36.1" y="51.0" width="8.0" height="15" fill="#52e352" rx="2" ry="2"/>
<text x="39.1" y="62.0"></text>
</g>
<g>
<title>java.lang.Object (10 samples, 0.67%)</title><rect x="36.1" y="35.0" width="8.0" height="15" fill="#53c1c1" rx="2" ry="2"/>
<text x="39.1" y="46.0"></text>
</g>
<g>
<title>java/util/concurrent/ThreadPoolExecutor.getTask (28 samples, 1.88%)</title><rect x="44.1" y="275.0" width="22.1" height="15" fill="#68f968" rx="2" ry="2"/>
<text x="47.1" y="286.0">j..</text>
</g>
<g>
<title>java/util/concurrent/ArrayBlockingQueue.take (28 samples, 1.88%)</title><rect x="44.1" y="259.0" width="22.1" height="15" fill="#53e453" rx="2" ry="2"/>
<text x="47.1" y="270.0">j..</text>
</g>
<g>
<title>java/util/concurrent/locks/AbstractQueuedSynchronizer$ConditionObject.await (5 samples, 0.34%)</title><rect x="44.1" y="243.0" width="3.9" height="15" fill="#61f261" rx="2" ry="2"/>
<text x="47.1" y="254.0"></text>
</g>
<g>
<title>java/util/concurrent/locks/AbstractQueuedSynchronizer.acquireQueued (5 samples, 0.34%)</title><rect x="44.1" y="227.0" width="3.9" height="15" fill="#5aeb5a" rx="2" ry="2"/>
<text x="47.1" y="238.0"></text>
</g>
<g>
<title>java/util/concurrent/locks/AbstractQueuedSynchronizer.parkAndCheckInterrupt (5 samples, 0.34%)</title><rect x="44.1" y="211.0" width="3.9" height="15" fill="#6afb6a" rx="2" ry="2"/>
<text x="47.1" y="222.0"></text>
</g>
<g>
<title>java/util/concurrent/locks/LockSupport.park (5 samples, 0.34%)</title><rect x="44.1" y="195.0" width="3.9" height="15" fill="#57e857" rx="2" ry="2"/>
<text x="47.1" y="206.0"></text>
</g>
<g>
<title>jdk/internal/misc/Unsafe.park (5 samples, 0.34%)</title><rect x="44.1" y="179.0" width="3.9" height="15" fill="#69fa69" rx="2" ry="2"/>
<text x="47.1" y="190.0"></text>
</g>
<g>
<title>java.util.concurrent.locks.ReentrantLock$NonfairSync (5 samples, 0.34%)</title><rect x="44.1" y="163.0" width="3.9" height="15" fill="#6ddbdb" rx="2" ry="2"/>
<text x="47.1" y="174.0"></text>
</g>
<g>
<title>java/util/concurrent/locks/ReentrantLock.lockInterruptibly (23 samples, 1.54%)</title><rect x="48.0" y="243.0" width="18.2" height="15" fill="#5eef5e" rx="2" ry="2"/>
<text x="51.0" y="254.0"></text>
</g>
<g>
<title>java/util/concurrent/locks/AbstractQueuedSynchronizer.acquireInterruptibly (23 samples, 1.54%)</title><rect x="48.0" y="227.0" width="18.2" height="15" fill="#58e958" rx="2" ry="2"/>
<text x="51.0" y="238.0"></text>
</g>
<g>
<title>java/util/concurrent/locks/AbstractQueuedSynchronizer.doAcquireInterruptibly (23 samples, 1.54%)</title><rect x="48.0" y="211.0" width="18.2" height="15" fill="#62f362" rx="2" ry="2"/>
<text x="51.0" y="222.0"></text>
</g>
<g>
<title>java/util/concurrent/locks/AbstractQueuedSynchronizer.parkAndCheckInterrupt (23 samples, 1.54%)</title><rect x="48.0" y="195.0" width="18.2" height="15" fill="#54e554" rx="2" ry="2"/>
<text x="51.0" y="206.0"></text>
</g>
<g>
<title>java/util/concurrent/locks/LockSupport.park (23 samples, 1.54%)</title><rect x="48.0" y="179.0" width="18.2" height="15" fill="#69fa69" rx="2" ry="2"/>
<text x="51.0" y="190.0"></text>
</g>
<g>
<title>jdk/internal/misc/Unsafe.park (23 samples, 1.54%)</title><rect x="48.0" y="163.0" width="18.2" height="15" fill="#5ff05f" rx="2" ry="2"/>
<text x="51.0" y="174.0"></text>
</g>
<g>
<title>java.util.concurrent.locks.ReentrantLock$NonfairSync (23 samples, 1.54%)</title><rect x="48.0" y="147.0" width="18.2" height="15" fill="#6cdada" rx="2" ry="2"/>
<text x="51.0" y="158.0"></text>
</g>
<g>
<title>[Finalizer tid=10428] (8 samples, 0.54%)</title><rect x="66.2" y="339.0" width="6.4" height="15" fill="#e76363" rx="2" ry="2"/>
<text x="69.2" y="350.0"></text>
</g>
<g>
<title>java/lang/ref/Finalizer$FinalizerThread.run (8 samples, 0.54%)</title><rect x="66.2" y="323.0" width="6.4" height="15" fill="#52e352" rx="2" ry="2"/>
<text x="69.2" y="334.0"></text>
</g>
<g>
<title>java/lang/ref/Finalizer.runFinalizer (6 samples, 0.40%)</title><rect x="66.2" y="307.0" width="4.8" height="15" fill="#5bec5b" rx="2" ry="2"/>
<text x="69.2" y="318.0"></text>
</g>
<g>
<title>java.lang.Object (6 samples, 0.40%)</title><rect x="66.2" y="291.0" width="4.8" height="15" fill="#5ccaca" rx="2" ry="2"/>
<text x="69.2" y="302.0"></text>
</g>
<g>
<title>java/lang/ref/ReferenceQueue.remove (2 samples, 0.13%)</title><rect x="71.0" y="307.0" width="1.6" height="15" fill="#53e453" rx="2" ry="2"/>
<text x="74.0" y="318.0"></text>
</g>
<g>
<title>java/lang/ref/ReferenceQueue.remove (2 samples, 0.13%)</title><rect x="71.0" y="291.0" width="1.6" height="15" fill="#66f766" rx="2" ry="2"/>
<text x="74.0" y="302.0"></text>
</g>
<g>
<title>java.lang.ref.ReferenceQueue$Lock (2 samples, 0.13%)</title><rect x="71.0" y="275.0" width="1.6" height="15" fill="#61cfcf" rx="2" ry="2"/>
<text x="74.0" y="286.0"></text>
</g>
<g>
<title>[NIO Selector #0 tid=10468] (690 samples, 46.31%)</title><rect x="72.6" y="339.0" width="546.4" height="15" fill="#f27171" rx="2" ry="2"/>
<text x="75.6" y="350.0">[NIO Selector #0 tid=10468]</text>
</g>
<g>
<title>one/nio/server/SelectorThread.run (690 samples, 46.31%)</title><rect x="72.6" y="323.0" width="546.4" height="15" fill="#54e554" rx="2" ry="2"/>
<text x="75.6" y="334.0">one/nio/server/SelectorThread.run</text>
</g>
<g>
<title>one/nio/net/Session.process (690 samples, 46.31%)</title><rect x="72.6" y="307.0" width="546.4" height="15" fill="#64f564" rx="2" ry="2"/>
<text x="75.6" y="318.0">one/nio/net/Session.process</text>
</g>
<g>
<title>one.nio.http.HttpSession (622 samples, 41.74%)</title><rect x="72.6" y="291.0" width="492.6" height="15" fill="#60cece" rx="2" ry="2"/>
<text x="75.6" y="302.0">one.nio.http.HttpSession</text>
</g>
<g>
<title>one/nio/http/HttpSession.processRead (68 samples, 4.56%)</title><rect x="565.2" y="291.0" width="53.8" height="15" fill="#67f867" rx="2" ry="2"/>
<text x="568.2" y="302.0">one/n..</text>
</g>
<g>
<title>one/nio/http/HttpSession.processHttpBuffer (68 samples, 4.56%)</title><rect x="565.2" y="275.0" width="53.8" height="15" fill="#5ced5c" rx="2" ry="2"/>
<text x="568.2" y="286.0">one/n..</text>
</g>
<g>
<title>one/nio/http/HttpSession.handleParsedRequest (68 samples, 4.56%)</title><rect x="565.2" y="259.0" width="53.8" height="15" fill="#50e150" rx="2" ry="2"/>
<text x="568.2" y="270.0">one/n..</text>
</g>
<g>
<title>one/nio/http/HttpServer.handleRequest (68 samples, 4.56%)</title><rect x="565.2" y="243.0" width="53.8" height="15" fill="#69fa69" rx="2" ry="2"/>
<text x="568.2" y="254.0">one/n..</text>
</g>
<g>
<title>RequestHandler0_get.handleRequest (68 samples, 4.56%)</title><rect x="565.2" y="227.0" width="53.8" height="15" fill="#5ff05f" rx="2" ry="2"/>
<text x="568.2" y="238.0">Reque..</text>
</g>
<g>
<title>ru/mail/polis/service/dariagap/AsyncServiceImpl.get (68 samples, 4.56%)</title><rect x="565.2" y="211.0" width="53.8" height="15" fill="#68f968" rx="2" ry="2"/>
<text x="568.2" y="222.0">ru/ma..</text>
</g>
<g>
<title>java/util/concurrent/AbstractExecutorService.submit (68 samples, 4.56%)</title><rect x="565.2" y="195.0" width="53.8" height="15" fill="#6cfd6c" rx="2" ry="2"/>
<text x="568.2" y="206.0">java/..</text>
</g>
<g>
<title>java/util/concurrent/ThreadPoolExecutor.execute (68 samples, 4.56%)</title><rect x="565.2" y="179.0" width="53.8" height="15" fill="#53e453" rx="2" ry="2"/>
<text x="568.2" y="190.0">java/..</text>
</g>
<g>
<title>java/util/concurrent/ArrayBlockingQueue.offer (68 samples, 4.56%)</title><rect x="565.2" y="163.0" width="53.8" height="15" fill="#54e554" rx="2" ry="2"/>
<text x="568.2" y="174.0">java/..</text>
</g>
<g>
<title>java/util/concurrent/locks/ReentrantLock.lock (68 samples, 4.56%)</title><rect x="565.2" y="147.0" width="53.8" height="15" fill="#69fa69" rx="2" ry="2"/>
<text x="568.2" y="158.0">java/..</text>
</g>
<g>
<title>java/util/concurrent/locks/AbstractQueuedSynchronizer.acquire (68 samples, 4.56%)</title><rect x="565.2" y="131.0" width="53.8" height="15" fill="#5bec5b" rx="2" ry="2"/>
<text x="568.2" y="142.0">java/..</text>
</g>
<g>
<title>java/util/concurrent/locks/AbstractQueuedSynchronizer.acquireQueued (68 samples, 4.56%)</title><rect x="565.2" y="115.0" width="53.8" height="15" fill="#50e150" rx="2" ry="2"/>
<text x="568.2" y="126.0">java/..</text>
</g>
<g>
<title>java/util/concurrent/locks/AbstractQueuedSynchronizer.parkAndCheckInterrupt (68 samples, 4.56%)</title><rect x="565.2" y="99.0" width="53.8" height="15" fill="#69fa69" rx="2" ry="2"/>
<text x="568.2" y="110.0">java/..</text>
</g>
<g>
<title>java/util/concurrent/locks/LockSupport.park (68 samples, 4.56%)</title><rect x="565.2" y="83.0" width="53.8" height="15" fill="#69fa69" rx="2" ry="2"/>
<text x="568.2" y="94.0">java/..</text>
</g>
<g>
<title>jdk/internal/misc/Unsafe.park (68 samples, 4.56%)</title><rect x="565.2" y="67.0" width="53.8" height="15" fill="#58e958" rx="2" ry="2"/>
<text x="568.2" y="78.0">jdk/i..</text>
</g>
<g>
<title>java.util.concurrent.locks.ReentrantLock$NonfairSync (68 samples, 4.56%)</title><rect x="565.2" y="51.0" width="53.8" height="15" fill="#5ecccc" rx="2" ry="2"/>
<text x="568.2" y="62.0">java...</text>
</g>
<g>
<title>[NIO Selector #1 tid=10469] (721 samples, 48.39%)</title><rect x="619.0" y="339.0" width="571.0" height="15" fill="#e15a5a" rx="2" ry="2"/>
<text x="622.0" y="350.0">[NIO Selector #1 tid=10469]</text>
</g>
<g>
<title>one/nio/server/SelectorThread.run (721 samples, 48.39%)</title><rect x="619.0" y="323.0" width="571.0" height="15" fill="#53e453" rx="2" ry="2"/>
<text x="622.0" y="334.0">one/nio/server/SelectorThread.run</text>
</g>
<g>
<title>one/nio/net/Session.process (721 samples, 48.39%)</title><rect x="619.0" y="307.0" width="571.0" height="15" fill="#6dfe6d" rx="2" ry="2"/>
<text x="622.0" y="318.0">one/nio/net/Session.process</text>
</g>
<g>
<title>one.nio.http.HttpSession (649 samples, 43.56%)</title><rect x="619.0" y="291.0" width="514.0" height="15" fill="#6ddbdb" rx="2" ry="2"/>
<text x="622.0" y="302.0">one.nio.http.HttpSession</text>
</g>
<g>
<title>one/nio/http/HttpSession.processRead (72 samples, 4.83%)</title><rect x="1133.0" y="291.0" width="57.0" height="15" fill="#5aeb5a" rx="2" ry="2"/>
<text x="1136.0" y="302.0">one/ni..</text>
</g>
<g>
<title>one/nio/http/HttpSession.processHttpBuffer (72 samples, 4.83%)</title><rect x="1133.0" y="275.0" width="57.0" height="15" fill="#52e352" rx="2" ry="2"/>
<text x="1136.0" y="286.0">one/ni..</text>
</g>
<g>
<title>one/nio/http/HttpSession.handleParsedRequest (72 samples, 4.83%)</title><rect x="1133.0" y="259.0" width="57.0" height="15" fill="#5aeb5a" rx="2" ry="2"/>
<text x="1136.0" y="270.0">one/ni..</text>
</g>
<g>
<title>one/nio/http/HttpServer.handleRequest (72 samples, 4.83%)</title><rect x="1133.0" y="243.0" width="57.0" height="15" fill="#67f867" rx="2" ry="2"/>
<text x="1136.0" y="254.0">one/ni..</text>
</g>
<g>
<title>RequestHandler0_get.handleRequest (72 samples, 4.83%)</title><rect x="1133.0" y="227.0" width="57.0" height="15" fill="#56e756" rx="2" ry="2"/>
<text x="1136.0" y="238.0">Reques..</text>
</g>
<g>
<title>ru/mail/polis/service/dariagap/AsyncServiceImpl.get (72 samples, 4.83%)</title><rect x="1133.0" y="211.0" width="57.0" height="15" fill="#53e453" rx="2" ry="2"/>
<text x="1136.0" y="222.0">ru/mai..</text>
</g>
<g>
<title>java/util/concurrent/AbstractExecutorService.submit (72 samples, 4.83%)</title><rect x="1133.0" y="195.0" width="57.0" height="15" fill="#5aeb5a" rx="2" ry="2"/>
<text x="1136.0" y="206.0">java/u..</text>
</g>
<g>
<title>java/util/concurrent/ThreadPoolExecutor.execute (72 samples, 4.83%)</title><rect x="1133.0" y="179.0" width="57.0" height="15" fill="#67f867" rx="2" ry="2"/>
<text x="1136.0" y="190.0">java/u..</text>
</g>
<g>
<title>java/util/concurrent/ArrayBlockingQueue.offer (72 samples, 4.83%)</title><rect x="1133.0" y="163.0" width="57.0" height="15" fill="#58e958" rx="2" ry="2"/>
<text x="1136.0" y="174.0">java/u..</text>
</g>
<g>
<title>java/util/concurrent/locks/ReentrantLock.lock (72 samples, 4.83%)</title><rect x="1133.0" y="147.0" width="57.0" height="15" fill="#51e251" rx="2" ry="2"/>
<text x="1136.0" y="158.0">java/u..</text>
</g>
<g>
<title>java/util/concurrent/locks/AbstractQueuedSynchronizer.acquire (72 samples, 4.83%)</title><rect x="1133.0" y="131.0" width="57.0" height="15" fill="#5aeb5a" rx="2" ry="2"/>
<text x="1136.0" y="142.0">java/u..</text>
</g>
<g>
<title>java/util/concurrent/locks/AbstractQueuedSynchronizer.acquireQueued (72 samples, 4.83%)</title><rect x="1133.0" y="115.0" width="57.0" height="15" fill="#51e251" rx="2" ry="2"/>
<text x="1136.0" y="126.0">java/u..</text>
</g>
<g>
<title>java/util/concurrent/locks/AbstractQueuedSynchronizer.parkAndCheckInterrupt (72 samples, 4.83%)</title><rect x="1133.0" y="99.0" width="57.0" height="15" fill="#5dee5d" rx="2" ry="2"/>
<text x="1136.0" y="110.0">java/u..</text>
</g>
<g>
<title>java/util/concurrent/locks/LockSupport.park (72 samples, 4.83%)</title><rect x="1133.0" y="83.0" width="57.0" height="15" fill="#5aeb5a" rx="2" ry="2"/>
<text x="1136.0" y="94.0">java/u..</text>
</g>
<g>
<title>jdk/internal/misc/Unsafe.park (72 samples, 4.83%)</title><rect x="1133.0" y="67.0" width="57.0" height="15" fill="#6bfc6b" rx="2" ry="2"/>
<text x="1136.0" y="78.0">jdk/in..</text>
</g>
<g>
<title>java.util.concurrent.locks.ReentrantLock$NonfairSync (72 samples, 4.83%)</title><rect x="1133.0" y="51.0" width="57.0" height="15" fill="#6ddbdb" rx="2" ry="2"/>
<text x="1136.0" y="62.0">java.u..</text>
</g>
</g>
</svg>
