<?xml version="1.0" standalone="no"?>
<!DOCTYPE svg PUBLIC "-//W3C//DTD SVG 1.1//EN" "http://www.w3.org/Graphics/SVG/1.1/DTD/svg11.dtd">
<svg version="1.1" width="1200" height="294" onload="init(evt)" viewBox="0 0 1200 294" xmlns="http://www.w3.org/2000/svg" xmlns:xlink="http://www.w3.org/1999/xlink">
<style type="text/css">
	text { font-family:Verdana; font-size:12px; fill:rgb(0,0,0); }
	#search { opacity:0.1; cursor:pointer; }
	#search:hover, #search.show { opacity:1; }
	#subtitle { text-anchor:middle; font-color:rgb(160,160,160); }
	#title { text-anchor:middle; font-size:17px}
	#unzoom { cursor:pointer; }
	#frames > *:hover { stroke:black; stroke-width:0.5; cursor:pointer; }
	.hide { display:none; }
	.parent { opacity:0.5; }
</style>
<script type="text/ecmascript">
<![CDATA[
	"use strict";
	var details, searchbtn, unzoombtn, matchedtxt, svg, searching;
	function init(evt) {
		details = document.getElementById("details").firstChild;
		searchbtn = document.getElementById("search");
		unzoombtn = document.getElementById("unzoom");
		matchedtxt = document.getElementById("matched");
		svg = document.getElementsByTagName("svg")[0];
		searching = 0;
	}

	window.addEventListener("click", function(e) {
		var target = find_group(e.target);
		if (target) {
			if (target.nodeName == "a") {
				if (e.ctrlKey === false) return;
				e.preventDefault();
			}
			if (target.classList.contains("parent")) unzoom();
			zoom(target);
		}
		else if (e.target.id == "unzoom") unzoom();
		else if (e.target.id == "search") search_prompt();
	}, false)

	// mouse-over for info
	// show
	window.addEventListener("mouseover", function(e) {
		var target = find_group(e.target);
		if (target) details.nodeValue = "Function: " + g_to_text(target);
	}, false)

	// clear
	window.addEventListener("mouseout", function(e) {
		var target = find_group(e.target);
		if (target) details.nodeValue = ' ';
	}, false)

	// ctrl-F for search
	window.addEventListener("keydown",function (e) {
		if (e.keyCode === 114 || (e.ctrlKey && e.keyCode === 70)) {
			e.preventDefault();
			search_prompt();
		}
	}, false)

	// functions
	function find_child(node, selector) {
		var children = node.querySelectorAll(selector);
		if (children.length) return children[0];
		return;
	}
	function find_group(node) {
		var parent = node.parentElement;
		if (!parent) return;
		if (parent.id == "frames") return node;
		return find_group(parent);
	}
	function orig_save(e, attr, val) {
		if (e.attributes["_orig_" + attr] != undefined) return;
		if (e.attributes[attr] == undefined) return;
		if (val == undefined) val = e.attributes[attr].value;
		e.setAttribute("_orig_" + attr, val);
	}
	function orig_load(e, attr) {
		if (e.attributes["_orig_"+attr] == undefined) return;
		e.attributes[attr].value = e.attributes["_orig_" + attr].value;
		e.removeAttribute("_orig_"+attr);
	}
	function g_to_text(e) {
		var text = find_child(e, "title").firstChild.nodeValue;
		return (text)
	}
	function g_to_func(e) {
		var func = g_to_text(e);
		// if there's any manipulation we want to do to the function
		// name before it's searched, do it here before returning.
		return (func);
	}
	function update_text(e) {
		var r = find_child(e, "rect");
		var t = find_child(e, "text");
		var w = parseFloat(r.attributes.width.value) -3;
		var txt = find_child(e, "title").textContent.replace(/\([^(]*\)$/,"");
		t.attributes.x.value = parseFloat(r.attributes.x.value) + 3;

		// Smaller than this size won't fit anything
		if (w < 2 * 12 * 0.59) {
			t.textContent = "";
			return;
		}

		t.textContent = txt;
		// Fit in full text width
		if (/^ *$/.test(txt) || t.getSubStringLength(0, txt.length) < w)
			return;

		for (var x = txt.length - 2; x > 0; x--) {
			if (t.getSubStringLength(0, x + 2) <= w) {
				t.textContent = txt.substring(0, x) + "..";
				return;
			}
		}
		t.textContent = "";
	}

	// zoom
	function zoom_reset(e) {
		if (e.attributes != undefined) {
			orig_load(e, "x");
			orig_load(e, "width");
		}
		if (e.childNodes == undefined) return;
		for (var i = 0, c = e.childNodes; i < c.length; i++) {
			zoom_reset(c[i]);
		}
	}
	function zoom_child(e, x, ratio) {
		if (e.attributes != undefined) {
			if (e.attributes.x != undefined) {
				orig_save(e, "x");
				e.attributes.x.value = (parseFloat(e.attributes.x.value) - x - 10) * ratio + 10;
				if (e.tagName == "text")
					e.attributes.x.value = find_child(e.parentNode, "rect[x]").attributes.x.value + 3;
			}
			if (e.attributes.width != undefined) {
				orig_save(e, "width");
				e.attributes.width.value = parseFloat(e.attributes.width.value) * ratio;
			}
		}

		if (e.childNodes == undefined) return;
		for (var i = 0, c = e.childNodes; i < c.length; i++) {
			zoom_child(c[i], x - 10, ratio);
		}
	}
	function zoom_parent(e) {
		if (e.attributes) {
			if (e.attributes.x != undefined) {
				orig_save(e, "x");
				e.attributes.x.value = 10;
			}
			if (e.attributes.width != undefined) {
				orig_save(e, "width");
				e.attributes.width.value = parseInt(svg.width.baseVal.value) - (10 * 2);
			}
		}
		if (e.childNodes == undefined) return;
		for (var i = 0, c = e.childNodes; i < c.length; i++) {
			zoom_parent(c[i]);
		}
	}
	function zoom(node) {
		var attr = find_child(node, "rect").attributes;
		var width = parseFloat(attr.width.value);
		var xmin = parseFloat(attr.x.value);
		var xmax = parseFloat(xmin + width);
		var ymin = parseFloat(attr.y.value);
		var ratio = (svg.width.baseVal.value - 2 * 10) / width;

		// XXX: Workaround for JavaScript float issues (fix me)
		var fudge = 0.0001;

		unzoombtn.classList.remove("hide");

		var el = document.getElementById("frames").children;
		for (var i = 0; i < el.length; i++) {
			var e = el[i];
			var a = find_child(e, "rect").attributes;
			var ex = parseFloat(a.x.value);
			var ew = parseFloat(a.width.value);
			var upstack;
			// Is it an ancestor
			if (0 == 0) {
				upstack = parseFloat(a.y.value) > ymin;
			} else {
				upstack = parseFloat(a.y.value) < ymin;
			}
			if (upstack) {
				// Direct ancestor
				if (ex <= xmin && (ex+ew+fudge) >= xmax) {
					e.classList.add("parent");
					zoom_parent(e);
					update_text(e);
				}
				// not in current path
				else
					e.classList.add("hide");
			}
			// Children maybe
			else {
				// no common path
				if (ex < xmin || ex + fudge >= xmax) {
					e.classList.add("hide");
				}
				else {
					zoom_child(e, xmin, ratio);
					update_text(e);
				}
			}
		}
	}
	function unzoom() {
		unzoombtn.classList.add("hide");
		var el = document.getElementById("frames").children;
		for(var i = 0; i < el.length; i++) {
			el[i].classList.remove("parent");
			el[i].classList.remove("hide");
			zoom_reset(el[i]);
			update_text(el[i]);
		}
	}

	// search
	function reset_search() {
		var el = document.querySelectorAll("#frames rect");
		for (var i = 0; i < el.length; i++) {
			orig_load(el[i], "fill")
		}
	}
	function search_prompt() {
		if (!searching) {
			var term = prompt("Enter a search term (regexp " +
			    "allowed, eg: ^ext4_)", "");
			if (term != null) {
				search(term)
			}
		} else {
			reset_search();
			searching = 0;
			searchbtn.classList.remove("show");
			searchbtn.firstChild.nodeValue = "Search"
			matchedtxt.classList.add("hide");
			matchedtxt.firstChild.nodeValue = ""
		}
	}
	function search(term) {
		var re = new RegExp(term);
		var el = document.getElementById("frames").children;
		var matches = new Object();
		var maxwidth = 0;
		for (var i = 0; i < el.length; i++) {
			var e = el[i];
			var func = g_to_func(e);
			var rect = find_child(e, "rect");
			if (func == null || rect == null)
				continue;

			// Save max width. Only works as we have a root frame
			var w = parseFloat(rect.attributes.width.value);
			if (w > maxwidth)
				maxwidth = w;

			if (func.match(re)) {
				// highlight
				var x = parseFloat(rect.attributes.x.value);
				orig_save(rect, "fill");
				rect.attributes.fill.value = "rgb(230,0,230)";

				// remember matches
				if (matches[x] == undefined) {
					matches[x] = w;
				} else {
					if (w > matches[x]) {
						// overwrite with parent
						matches[x] = w;
					}
				}
				searching = 1;
			}
		}
		if (!searching)
			return;

		searchbtn.classList.add("show");
		searchbtn.firstChild.nodeValue = "Reset Search";

		// calculate percent matched, excluding vertical overlap
		var count = 0;
		var lastx = -1;
		var lastw = 0;
		var keys = Array();
		for (k in matches) {
			if (matches.hasOwnProperty(k))
				keys.push(k);
		}
		// sort the matched frames by their x location
		// ascending, then width descending
		keys.sort(function(a, b){
			return a - b;
		});
		// Step through frames saving only the biggest bottom-up frames
		// thanks to the sort order. This relies on the tree property
		// where children are always smaller than their parents.
		var fudge = 0.0001;	// JavaScript floating point
		for (var k in keys) {
			var x = parseFloat(keys[k]);
			var w = matches[keys[k]];
			if (x >= lastx + lastw - fudge) {
				count += w;
				lastx = x;
				lastw = w;
			}
		}
		// display matched percent
		matchedtxt.classList.remove("hide");
		var pct = 100 * count / maxwidth;
		if (pct != 100) pct = pct.toFixed(1)
		matchedtxt.firstChild.nodeValue = "Matched: " + pct + "%";
	}
]]>
</script>
<rect x="0" y="0" width="100%" height="100%" fill="rgb(240,240,220)"/>
<text id="title" x="600" y="24">Flame Graph</text>
<text id="details" x="10" y="277"> </text>
<text id="unzoom" x="10" y="24" class="hide">Reset Zoom</text>
<text id="search" x="1090" y="24">Search</text>
<text id="matched" x="1090" y="277"> </text>
<g id="frames">
<g>
<title>all (343 samples, 100.00%)</title><rect x="10.0" y="243.0" width="1180.0" height="15" fill="#e15a5a" rx="2" ry="2"/>
<text x="13.0" y="254.0">all</text>
</g>
<g>
<title>[NIO Selector #0 tid=2296] (85 samples, 24.78%)</title><rect x="10.0" y="227.0" width="292.4" height="15" fill="#e15a5a" rx="2" ry="2"/>
<text x="13.0" y="238.0">[NIO Selector #0 tid=2296]</text>
</g>
<g>
<title>one/nio/server/SelectorThread.run (85 samples, 24.78%)</title><rect x="10.0" y="211.0" width="292.4" height="15" fill="#5eef5e" rx="2" ry="2"/>
<text x="13.0" y="222.0">one/nio/server/SelectorThread.run</text>
</g>
<g>
<title>one/nio/net/NativeSelector.select (4 samples, 1.17%)</title><rect x="10.0" y="195.0" width="13.8" height="15" fill="#58e958" rx="2" ry="2"/>
<text x="13.0" y="206.0"></text>
</g>
<g>
<title>one.nio.net.NativeSelector$2 (4 samples, 1.17%)</title><rect x="10.0" y="179.0" width="13.8" height="15" fill="#65d3d3" rx="2" ry="2"/>
<text x="13.0" y="190.0"></text>
</g>
<g>
<title>one/nio/net/Session.process (81 samples, 23.62%)</title><rect x="23.8" y="195.0" width="278.6" height="15" fill="#68f968" rx="2" ry="2"/>
<text x="26.8" y="206.0">one/nio/net/Session.process</text>
</g>
<g>
<title>one/nio/http/HttpSession.processRead (81 samples, 23.62%)</title><rect x="23.8" y="179.0" width="278.6" height="15" fill="#5ff05f" rx="2" ry="2"/>
<text x="26.8" y="190.0">one/nio/http/HttpSession.processRead</text>
</g>
<g>
<title>one/nio/http/HttpSession.processHttpBuffer (81 samples, 23.62%)</title><rect x="23.8" y="163.0" width="278.6" height="15" fill="#5eef5e" rx="2" ry="2"/>
<text x="26.8" y="174.0">one/nio/http/HttpSession.processHttpB..</text>
</g>
<g>
<title>one/nio/http/HttpSession.handleParsedRequest (35 samples, 10.20%)</title><rect x="23.8" y="147.0" width="120.4" height="15" fill="#52e352" rx="2" ry="2"/>
<text x="26.8" y="158.0">one/nio/http/Ht..</text>
</g>
<g>
<title>one/nio/http/HttpServer.handleRequest (35 samples, 10.20%)</title><rect x="23.8" y="131.0" width="120.4" height="15" fill="#55e655" rx="2" ry="2"/>
<text x="26.8" y="142.0">one/nio/http/Ht..</text>
</g>
<g>
<title>ru/mail/polis/service/basta123/MyAsyncHttpServerImpl.handleDefault (35 samples, 10.20%)</title><rect x="23.8" y="115.0" width="120.4" height="15" fill="#5eef5e" rx="2" ry="2"/>
<text x="26.8" y="126.0">ru/mail/polis/s..</text>
</g>
<g>
<title>one.nio.http.Response (2 samples, 0.58%)</title><rect x="23.8" y="99.0" width="6.8" height="15" fill="#6bd9d9" rx="2" ry="2"/>
<text x="26.8" y="110.0"></text>
</g>
<g>
<title>one/nio/http/HttpSession.sendResponse (16 samples, 4.66%)</title><rect x="30.6" y="99.0" width="55.1" height="15" fill="#51e251" rx="2" ry="2"/>
<text x="33.6" y="110.0">one/n..</text>
</g>
<g>
<title>one/nio/http/HttpSession.writeResponse (16 samples, 4.66%)</title><rect x="30.6" y="83.0" width="55.1" height="15" fill="#52e352" rx="2" ry="2"/>
<text x="33.6" y="94.0">one/n..</text>
</g>
<g>
<title>one/nio/http/Response.toBytes (11 samples, 3.21%)</title><rect x="30.6" y="67.0" width="37.9" height="15" fill="#57e857" rx="2" ry="2"/>
<text x="33.6" y="78.0">one..</text>
</g>
<g>
<title>one/nio/util/ByteArrayBuilder.&lt;init&gt; (11 samples, 3.21%)</title><rect x="30.6" y="51.0" width="37.9" height="15" fill="#65f665" rx="2" ry="2"/>
<text x="33.6" y="62.0">one..</text>
</g>
<g>
<title>byte[] (11 samples, 3.21%)</title><rect x="30.6" y="35.0" width="37.9" height="15" fill="#62d0d0" rx="2" ry="2"/>
<text x="33.6" y="46.0">byt..</text>
</g>
<g>
<title>one/nio/net/Session.write (5 samples, 1.46%)</title><rect x="68.5" y="67.0" width="17.2" height="15" fill="#52e352" rx="2" ry="2"/>
<text x="71.5" y="78.0"></text>
</g>
<g>
<title>one.nio.net.Session$ArrayQueueItem (5 samples, 1.46%)</title><rect x="68.5" y="51.0" width="17.2" height="15" fill="#6cdada" rx="2" ry="2"/>
<text x="71.5" y="62.0"></text>
</g>
<g>
<title>one/nio/http/Response.&lt;init&gt; (17 samples, 4.96%)</title><rect x="85.7" y="99.0" width="58.5" height="15" fill="#6afb6a" rx="2" ry="2"/>
<text x="88.7" y="110.0">one/ni..</text>
</g>
<g>
<title>byte[] (8 samples, 2.33%)</title><rect x="85.7" y="83.0" width="27.5" height="15" fill="#54c2c2" rx="2" ry="2"/>
<text x="88.7" y="94.0">b..</text>
</g>
<g>
<title>java.lang.String[] (3 samples, 0.87%)</title><rect x="113.2" y="83.0" width="10.3" height="15" fill="#5ecccc" rx="2" ry="2"/>
<text x="116.2" y="94.0"></text>
</g>
<g>
<title>java.lang.String (6 samples, 1.75%)</title><rect x="123.5" y="83.0" width="20.7" height="15" fill="#66d4d4" rx="2" ry="2"/>
<text x="126.5" y="94.0"></text>
</g>
<g>
<title>one/nio/http/HttpSession.parseRequest (30 samples, 8.75%)</title><rect x="144.2" y="147.0" width="103.2" height="15" fill="#67f867" rx="2" ry="2"/>
<text x="147.2" y="158.0">one/nio/http..</text>
</g>
<g>
<title>one.nio.http.Request (7 samples, 2.04%)</title><rect x="144.2" y="131.0" width="24.1" height="15" fill="#50bebe" rx="2" ry="2"/>
<text x="147.2" y="142.0">o..</text>
</g>
<g>
<title>one/nio/http/Request.&lt;init&gt; (15 samples, 4.37%)</title><rect x="168.3" y="131.0" width="51.6" height="15" fill="#61f261" rx="2" ry="2"/>
<text x="171.3" y="142.0">one/n..</text>
</g>
<g>
<title>java.lang.String[] (15 samples, 4.37%)</title><rect x="168.3" y="115.0" width="51.6" height="15" fill="#66d4d4" rx="2" ry="2"/>
<text x="171.3" y="126.0">java...</text>
</g>
<g>
<title>one/nio/util/Utf8.read (8 samples, 2.33%)</title><rect x="219.9" y="131.0" width="27.5" height="15" fill="#66f766" rx="2" ry="2"/>
<text x="222.9" y="142.0">o..</text>
</g>
<g>
<title>one/nio/util/Utf8.read (8 samples, 2.33%)</title><rect x="219.9" y="115.0" width="27.5" height="15" fill="#6bfc6b" rx="2" ry="2"/>
<text x="222.9" y="126.0">o..</text>
</g>
<g>
<title>char[] (3 samples, 0.87%)</title><rect x="219.9" y="99.0" width="10.3" height="15" fill="#52c0c0" rx="2" ry="2"/>
<text x="222.9" y="110.0"></text>
</g>
<g>
<title>java.lang.String (4 samples, 1.17%)</title><rect x="230.2" y="99.0" width="13.7" height="15" fill="#67d5d5" rx="2" ry="2"/>
<text x="233.2" y="110.0"></text>
</g>
<g>
<title>java/lang/String.&lt;init&gt; (1 samples, 0.29%)</title><rect x="243.9" y="99.0" width="3.5" height="15" fill="#6cfd6c" rx="2" ry="2"/>
<text x="246.9" y="110.0"></text>
</g>
<g>
<title>java/lang/String.&lt;init&gt; (1 samples, 0.29%)</title><rect x="243.9" y="83.0" width="3.5" height="15" fill="#53e453" rx="2" ry="2"/>
<text x="246.9" y="94.0"></text>
</g>
<g>
<title>java/lang/StringUTF16.compress (1 samples, 0.29%)</title><rect x="243.9" y="67.0" width="3.5" height="15" fill="#58e958" rx="2" ry="2"/>
<text x="246.9" y="78.0"></text>
</g>
<g>
<title>byte[] (1 samples, 0.29%)</title><rect x="243.9" y="51.0" width="3.5" height="15" fill="#57c5c5" rx="2" ry="2"/>
<text x="246.9" y="62.0"></text>
</g>
<g>
<title>one/nio/util/Utf8.read (16 samples, 4.66%)</title><rect x="247.4" y="147.0" width="55.0" height="15" fill="#68f968" rx="2" ry="2"/>
<text x="250.4" y="158.0">one/n..</text>
</g>
<g>
<title>one/nio/util/Utf8.read (16 samples, 4.66%)</title><rect x="247.4" y="131.0" width="55.0" height="15" fill="#52e352" rx="2" ry="2"/>
<text x="250.4" y="142.0">one/n..</text>
</g>
<g>
<title>char[] (8 samples, 2.33%)</title><rect x="247.4" y="115.0" width="27.5" height="15" fill="#66d4d4" rx="2" ry="2"/>
<text x="250.4" y="126.0">c..</text>
</g>
<g>
<title>java.lang.String (4 samples, 1.17%)</title><rect x="274.9" y="115.0" width="13.8" height="15" fill="#58c6c6" rx="2" ry="2"/>
<text x="277.9" y="126.0"></text>
</g>
<g>
<title>java/lang/String.&lt;init&gt; (4 samples, 1.17%)</title><rect x="288.7" y="115.0" width="13.7" height="15" fill="#55e655" rx="2" ry="2"/>
<text x="291.7" y="126.0"></text>
</g>
<g>
<title>java/lang/String.&lt;init&gt; (4 samples, 1.17%)</title><rect x="288.7" y="99.0" width="13.7" height="15" fill="#6cfd6c" rx="2" ry="2"/>
<text x="291.7" y="110.0"></text>
</g>
<g>
<title>java/lang/StringUTF16.compress (4 samples, 1.17%)</title><rect x="288.7" y="83.0" width="13.7" height="15" fill="#66f766" rx="2" ry="2"/>
<text x="291.7" y="94.0"></text>
</g>
<g>
<title>byte[] (4 samples, 1.17%)</title><rect x="288.7" y="67.0" width="13.7" height="15" fill="#52c0c0" rx="2" ry="2"/>
<text x="291.7" y="78.0"></text>
</g>
<g>
<title>[NIO Selector #1 tid=2297] (87 samples, 25.36%)</title><rect x="302.4" y="227.0" width="299.3" height="15" fill="#fe8181" rx="2" ry="2"/>
<text x="305.4" y="238.0">[NIO Selector #1 tid=2297]</text>
</g>
<g>
<title>one/nio/server/SelectorThread.run (87 samples, 25.36%)</title><rect x="302.4" y="211.0" width="299.3" height="15" fill="#69fa69" rx="2" ry="2"/>
<text x="305.4" y="222.0">one/nio/server/SelectorThread.run</text>
</g>
<g>
<title>one/nio/net/NativeSelector.select (1 samples, 0.29%)</title><rect x="302.4" y="195.0" width="3.5" height="15" fill="#5aeb5a" rx="2" ry="2"/>
<text x="305.4" y="206.0"></text>
</g>
<g>
<title>one.nio.net.NativeSelector$2 (1 samples, 0.29%)</title><rect x="302.4" y="179.0" width="3.5" height="15" fill="#64d2d2" rx="2" ry="2"/>
<text x="305.4" y="190.0"></text>
</g>
<g>
<title>one/nio/net/Session.process (86 samples, 25.07%)</title><rect x="305.9" y="195.0" width="295.8" height="15" fill="#5dee5d" rx="2" ry="2"/>
<text x="308.9" y="206.0">one/nio/net/Session.process</text>
</g>
<g>
<title>one/nio/http/HttpSession.processRead (86 samples, 25.07%)</title><rect x="305.9" y="179.0" width="295.8" height="15" fill="#5dee5d" rx="2" ry="2"/>
<text x="308.9" y="190.0">one/nio/http/HttpSession.processRead</text>
</g>
<g>
<title>one/nio/http/HttpSession.processHttpBuffer (86 samples, 25.07%)</title><rect x="305.9" y="163.0" width="295.8" height="15" fill="#63f463" rx="2" ry="2"/>
<text x="308.9" y="174.0">one/nio/http/HttpSession.processHttpBuffer</text>
</g>
<g>
<title>one/nio/http/HttpSession.handleParsedRequest (43 samples, 12.54%)</title><rect x="305.9" y="147.0" width="147.9" height="15" fill="#59ea59" rx="2" ry="2"/>
<text x="308.9" y="158.0">one/nio/http/HttpSe..</text>
</g>
<g>
<title>one/nio/http/HttpServer.handleRequest (43 samples, 12.54%)</title><rect x="305.9" y="131.0" width="147.9" height="15" fill="#62f362" rx="2" ry="2"/>
<text x="308.9" y="142.0">one/nio/http/HttpSe..</text>
</g>
<g>
<title>ru/mail/polis/service/basta123/MyAsyncHttpServerImpl.handleDefault (43 samples, 12.54%)</title><rect x="305.9" y="115.0" width="147.9" height="15" fill="#53e453" rx="2" ry="2"/>
<text x="308.9" y="126.0">ru/mail/polis/servi..</text>
</g>
<g>
<title>byte[] (2 samples, 0.58%)</title><rect x="305.9" y="99.0" width="6.8" height="15" fill="#52c0c0" rx="2" ry="2"/>
<text x="308.9" y="110.0"></text>
</g>
<g>
<title>one.nio.http.Response (3 samples, 0.87%)</title><rect x="312.7" y="99.0" width="10.4" height="15" fill="#5bc9c9" rx="2" ry="2"/>
<text x="315.7" y="110.0"></text>
</g>
<g>
<title>one/nio/http/HttpSession.sendResponse (23 samples, 6.71%)</title><rect x="323.1" y="99.0" width="79.1" height="15" fill="#54e554" rx="2" ry="2"/>
<text x="326.1" y="110.0">one/nio/h..</text>
</g>
<g>
<title>one/nio/http/HttpSession.writeResponse (23 samples, 6.71%)</title><rect x="323.1" y="83.0" width="79.1" height="15" fill="#63f463" rx="2" ry="2"/>
<text x="326.1" y="94.0">one/nio/h..</text>
</g>
<g>
<title>one/nio/http/Response.toBytes (17 samples, 4.96%)</title><rect x="323.1" y="67.0" width="58.4" height="15" fill="#53e453" rx="2" ry="2"/>
<text x="326.1" y="78.0">one/ni..</text>
</g>
<g>
<title>one/nio/util/ByteArrayBuilder.&lt;init&gt; (17 samples, 4.96%)</title><rect x="323.1" y="51.0" width="58.4" height="15" fill="#6afb6a" rx="2" ry="2"/>
<text x="326.1" y="62.0">one/ni..</text>
</g>
<g>
<title>byte[] (17 samples, 4.96%)</title><rect x="323.1" y="35.0" width="58.4" height="15" fill="#61cfcf" rx="2" ry="2"/>
<text x="326.1" y="46.0">byte[]</text>
</g>
<g>
<title>one/nio/net/Session.write (6 samples, 1.75%)</title><rect x="381.5" y="67.0" width="20.7" height="15" fill="#56e756" rx="2" ry="2"/>
<text x="384.5" y="78.0"></text>
</g>
<g>
<title>one.nio.net.Session$ArrayQueueItem (6 samples, 1.75%)</title><rect x="381.5" y="51.0" width="20.7" height="15" fill="#64d2d2" rx="2" ry="2"/>
<text x="384.5" y="62.0"></text>
</g>
<g>
<title>one/nio/http/Response.&lt;init&gt; (15 samples, 4.37%)</title><rect x="402.2" y="99.0" width="51.6" height="15" fill="#5ff05f" rx="2" ry="2"/>
<text x="405.2" y="110.0">one/n..</text>
</g>
<g>
<title>byte[] (9 samples, 2.62%)</title><rect x="402.2" y="83.0" width="30.9" height="15" fill="#59c7c7" rx="2" ry="2"/>
<text x="405.2" y="94.0">by..</text>
</g>
<g>
<title>java.lang.String[] (2 samples, 0.58%)</title><rect x="433.1" y="83.0" width="6.9" height="15" fill="#6cdada" rx="2" ry="2"/>
<text x="436.1" y="94.0"></text>
</g>
<g>
<title>java.lang.String (4 samples, 1.17%)</title><rect x="440.0" y="83.0" width="13.8" height="15" fill="#67d5d5" rx="2" ry="2"/>
<text x="443.0" y="94.0"></text>
</g>
<g>
<title>one/nio/http/HttpSession.parseRequest (25 samples, 7.29%)</title><rect x="453.8" y="147.0" width="86.0" height="15" fill="#53e453" rx="2" ry="2"/>
<text x="456.8" y="158.0">one/nio/ht..</text>
</g>
<g>
<title>one.nio.http.Request (5 samples, 1.46%)</title><rect x="453.8" y="131.0" width="17.2" height="15" fill="#51bfbf" rx="2" ry="2"/>
<text x="456.8" y="142.0"></text>
</g>
<g>
<title>one/nio/http/Request.&lt;init&gt; (12 samples, 3.50%)</title><rect x="471.0" y="131.0" width="41.3" height="15" fill="#5ff05f" rx="2" ry="2"/>
<text x="474.0" y="142.0">one..</text>
</g>
<g>
<title>java.lang.String[] (12 samples, 3.50%)</title><rect x="471.0" y="115.0" width="41.3" height="15" fill="#5bc9c9" rx="2" ry="2"/>
<text x="474.0" y="126.0">jav..</text>
</g>
<g>
<title>one/nio/util/Utf8.read (8 samples, 2.33%)</title><rect x="512.3" y="131.0" width="27.5" height="15" fill="#56e756" rx="2" ry="2"/>
<text x="515.3" y="142.0">o..</text>
</g>
<g>
<title>one/nio/util/Utf8.read (8 samples, 2.33%)</title><rect x="512.3" y="115.0" width="27.5" height="15" fill="#5dee5d" rx="2" ry="2"/>
<text x="515.3" y="126.0">o..</text>
</g>
<g>
<title>char[] (5 samples, 1.46%)</title><rect x="512.3" y="99.0" width="17.2" height="15" fill="#54c2c2" rx="2" ry="2"/>
<text x="515.3" y="110.0"></text>
</g>
<g>
<title>java.lang.String (2 samples, 0.58%)</title><rect x="529.5" y="99.0" width="6.9" height="15" fill="#59c7c7" rx="2" ry="2"/>
<text x="532.5" y="110.0"></text>
</g>
<g>
<title>java/lang/String.&lt;init&gt; (1 samples, 0.29%)</title><rect x="536.4" y="99.0" width="3.4" height="15" fill="#5dee5d" rx="2" ry="2"/>
<text x="539.4" y="110.0"></text>
</g>
<g>
<title>java/lang/String.&lt;init&gt; (1 samples, 0.29%)</title><rect x="536.4" y="83.0" width="3.4" height="15" fill="#50e150" rx="2" ry="2"/>
<text x="539.4" y="94.0"></text>
</g>
<g>
<title>java/lang/StringUTF16.compress (1 samples, 0.29%)</title><rect x="536.4" y="67.0" width="3.4" height="15" fill="#63f463" rx="2" ry="2"/>
<text x="539.4" y="78.0"></text>
</g>
<g>
<title>byte[] (1 samples, 0.29%)</title><rect x="536.4" y="51.0" width="3.4" height="15" fill="#53c1c1" rx="2" ry="2"/>
<text x="539.4" y="62.0"></text>
</g>
<g>
<title>one/nio/util/Utf8.read (18 samples, 5.25%)</title><rect x="539.8" y="147.0" width="61.9" height="15" fill="#5dee5d" rx="2" ry="2"/>
<text x="542.8" y="158.0">one/ni..</text>
</g>
<g>
<title>one/nio/util/Utf8.read (18 samples, 5.25%)</title><rect x="539.8" y="131.0" width="61.9" height="15" fill="#52e352" rx="2" ry="2"/>
<text x="542.8" y="142.0">one/ni..</text>
</g>
<g>
<title>char[] (9 samples, 2.62%)</title><rect x="539.8" y="115.0" width="31.0" height="15" fill="#67d5d5" rx="2" ry="2"/>
<text x="542.8" y="126.0">ch..</text>
</g>
<g>
<title>java.lang.String (1 samples, 0.29%)</title><rect x="570.8" y="115.0" width="3.4" height="15" fill="#67d5d5" rx="2" ry="2"/>
<text x="573.8" y="126.0"></text>
</g>
<g>
<title>java/lang/String.&lt;init&gt; (8 samples, 2.33%)</title><rect x="574.2" y="115.0" width="27.5" height="15" fill="#64f564" rx="2" ry="2"/>
<text x="577.2" y="126.0">j..</text>
</g>
<g>
<title>java/lang/String.&lt;init&gt; (8 samples, 2.33%)</title><rect x="574.2" y="99.0" width="27.5" height="15" fill="#6bfc6b" rx="2" ry="2"/>
<text x="577.2" y="110.0">j..</text>
</g>
<g>
<title>java/lang/StringUTF16.compress (8 samples, 2.33%)</title><rect x="574.2" y="83.0" width="27.5" height="15" fill="#6afb6a" rx="2" ry="2"/>
<text x="577.2" y="94.0">j..</text>
</g>
<g>
<title>byte[] (8 samples, 2.33%)</title><rect x="574.2" y="67.0" width="27.5" height="15" fill="#51bfbf" rx="2" ry="2"/>
<text x="577.2" y="78.0">b..</text>
</g>
<g>
<title>[NIO Selector #2 tid=2298] (86 samples, 25.07%)</title><rect x="601.7" y="227.0" width="295.9" height="15" fill="#e25b5b" rx="2" ry="2"/>
<text x="604.7" y="238.0">[NIO Selector #2 tid=2298]</text>
</g>
<g>
<title>one/nio/server/SelectorThread.run (86 samples, 25.07%)</title><rect x="601.7" y="211.0" width="295.9" height="15" fill="#5ff05f" rx="2" ry="2"/>
<text x="604.7" y="222.0">one/nio/server/SelectorThread.run</text>
</g>
<g>
<title>one/nio/net/NativeSelector.select (5 samples, 1.46%)</title><rect x="601.7" y="195.0" width="17.2" height="15" fill="#55e655" rx="2" ry="2"/>
<text x="604.7" y="206.0"></text>
</g>
<g>
<title>one.nio.net.NativeSelector$2 (5 samples, 1.46%)</title><rect x="601.7" y="179.0" width="17.2" height="15" fill="#6bd9d9" rx="2" ry="2"/>
<text x="604.7" y="190.0"></text>
</g>
<g>
<title>one/nio/net/Session.process (81 samples, 23.62%)</title><rect x="618.9" y="195.0" width="278.7" height="15" fill="#53e453" rx="2" ry="2"/>
<text x="621.9" y="206.0">one/nio/net/Session.process</text>
</g>
<g>
<title>one/nio/http/HttpSession.processRead (81 samples, 23.62%)</title><rect x="618.9" y="179.0" width="278.7" height="15" fill="#5bec5b" rx="2" ry="2"/>
<text x="621.9" y="190.0">one/nio/http/HttpSession.processRead</text>
</g>
<g>
<title>one/nio/http/HttpSession.processHttpBuffer (81 samples, 23.62%)</title><rect x="618.9" y="163.0" width="278.7" height="15" fill="#61f261" rx="2" ry="2"/>
<text x="621.9" y="174.0">one/nio/http/HttpSession.processHttpB..</text>
</g>
<g>
<title>one/nio/http/HttpSession.handleParsedRequest (39 samples, 11.37%)</title><rect x="618.9" y="147.0" width="134.2" height="15" fill="#63f463" rx="2" ry="2"/>
<text x="621.9" y="158.0">one/nio/http/Http..</text>
</g>
<g>
<title>one/nio/http/HttpServer.handleRequest (39 samples, 11.37%)</title><rect x="618.9" y="131.0" width="134.2" height="15" fill="#65f665" rx="2" ry="2"/>
<text x="621.9" y="142.0">one/nio/http/Http..</text>
</g>
<g>
<title>ru/mail/polis/service/basta123/MyAsyncHttpServerImpl.handleDefault (39 samples, 11.37%)</title><rect x="618.9" y="115.0" width="134.2" height="15" fill="#60f160" rx="2" ry="2"/>
<text x="621.9" y="126.0">ru/mail/polis/ser..</text>
</g>
<g>
<title>byte[] (4 samples, 1.17%)</title><rect x="618.9" y="99.0" width="13.8" height="15" fill="#5ccaca" rx="2" ry="2"/>
<text x="621.9" y="110.0"></text>
</g>
<g>
<title>one.nio.http.Response (7 samples, 2.04%)</title><rect x="632.7" y="99.0" width="24.1" height="15" fill="#68d6d6" rx="2" ry="2"/>
<text x="635.7" y="110.0">o..</text>
</g>
<g>
<title>one/nio/http/HttpSession.sendResponse (12 samples, 3.50%)</title><rect x="656.8" y="99.0" width="41.2" height="15" fill="#61f261" rx="2" ry="2"/>
<text x="659.8" y="110.0">one..</text>
</g>
<g>
<title>one/nio/http/HttpSession.writeResponse (12 samples, 3.50%)</title><rect x="656.8" y="83.0" width="41.2" height="15" fill="#6bfc6b" rx="2" ry="2"/>
<text x="659.8" y="94.0">one..</text>
</g>
<g>
<title>one/nio/http/Response.toBytes (8 samples, 2.33%)</title><rect x="656.8" y="67.0" width="27.5" height="15" fill="#56e756" rx="2" ry="2"/>
<text x="659.8" y="78.0">o..</text>
</g>
<g>
<title>one/nio/util/ByteArrayBuilder.&lt;init&gt; (8 samples, 2.33%)</title><rect x="656.8" y="51.0" width="27.5" height="15" fill="#67f867" rx="2" ry="2"/>
<text x="659.8" y="62.0">o..</text>
</g>
<g>
<title>byte[] (8 samples, 2.33%)</title><rect x="656.8" y="35.0" width="27.5" height="15" fill="#5bc9c9" rx="2" ry="2"/>
<text x="659.8" y="46.0">b..</text>
</g>
<g>
<title>one/nio/net/Session.write (4 samples, 1.17%)</title><rect x="684.3" y="67.0" width="13.7" height="15" fill="#5bec5b" rx="2" ry="2"/>
<text x="687.3" y="78.0"></text>
</g>
<g>
<title>one.nio.net.Session$ArrayQueueItem (4 samples, 1.17%)</title><rect x="684.3" y="51.0" width="13.7" height="15" fill="#52c0c0" rx="2" ry="2"/>
<text x="687.3" y="62.0"></text>
</g>
<g>
<title>one/nio/http/Response.&lt;init&gt; (16 samples, 4.66%)</title><rect x="698.0" y="99.0" width="55.1" height="15" fill="#68f968" rx="2" ry="2"/>
<text x="701.0" y="110.0">one/n..</text>
</g>
<g>
<title>byte[] (6 samples, 1.75%)</title><rect x="698.0" y="83.0" width="20.7" height="15" fill="#5bc9c9" rx="2" ry="2"/>
<text x="701.0" y="94.0"></text>
</g>
<g>
<title>java.lang.String[] (4 samples, 1.17%)</title><rect x="718.7" y="83.0" width="13.7" height="15" fill="#66d4d4" rx="2" ry="2"/>
<text x="721.7" y="94.0"></text>
</g>
<g>
<title>java.lang.String (6 samples, 1.75%)</title><rect x="732.4" y="83.0" width="20.7" height="15" fill="#6cdada" rx="2" ry="2"/>
<text x="735.4" y="94.0"></text>
</g>
<g>
<title>one/nio/http/HttpSession.parseRequest (27 samples, 7.87%)</title><rect x="753.1" y="147.0" width="92.9" height="15" fill="#69fa69" rx="2" ry="2"/>
<text x="756.1" y="158.0">one/nio/htt..</text>
</g>
<g>
<title>one.nio.http.Request (6 samples, 1.75%)</title><rect x="753.1" y="131.0" width="20.6" height="15" fill="#68d6d6" rx="2" ry="2"/>
<text x="756.1" y="142.0"></text>
</g>
<g>
<title>one/nio/http/Request.&lt;init&gt; (9 samples, 2.62%)</title><rect x="773.7" y="131.0" width="31.0" height="15" fill="#65f665" rx="2" ry="2"/>
<text x="776.7" y="142.0">on..</text>
</g>
<g>
<title>java.lang.String[] (9 samples, 2.62%)</title><rect x="773.7" y="115.0" width="31.0" height="15" fill="#63d1d1" rx="2" ry="2"/>
<text x="776.7" y="126.0">ja..</text>
</g>
<g>
<title>one/nio/util/Utf8.read (12 samples, 3.50%)</title><rect x="804.7" y="131.0" width="41.3" height="15" fill="#5ff05f" rx="2" ry="2"/>
<text x="807.7" y="142.0">one..</text>
</g>
<g>
<title>one/nio/util/Utf8.read (12 samples, 3.50%)</title><rect x="804.7" y="115.0" width="41.3" height="15" fill="#62f362" rx="2" ry="2"/>
<text x="807.7" y="126.0">one..</text>
</g>
<g>
<title>char[] (4 samples, 1.17%)</title><rect x="804.7" y="99.0" width="13.8" height="15" fill="#5fcdcd" rx="2" ry="2"/>
<text x="807.7" y="110.0"></text>
</g>
<g>
<title>java.lang.String (4 samples, 1.17%)</title><rect x="818.5" y="99.0" width="13.7" height="15" fill="#61cfcf" rx="2" ry="2"/>
<text x="821.5" y="110.0"></text>
</g>
<g>
<title>java/lang/String.&lt;init&gt; (4 samples, 1.17%)</title><rect x="832.2" y="99.0" width="13.8" height="15" fill="#64f564" rx="2" ry="2"/>
<text x="835.2" y="110.0"></text>
</g>
<g>
<title>java/lang/String.&lt;init&gt; (4 samples, 1.17%)</title><rect x="832.2" y="83.0" width="13.8" height="15" fill="#50e150" rx="2" ry="2"/>
<text x="835.2" y="94.0"></text>
</g>
<g>
<title>java/lang/StringUTF16.compress (4 samples, 1.17%)</title><rect x="832.2" y="67.0" width="13.8" height="15" fill="#66f766" rx="2" ry="2"/>
<text x="835.2" y="78.0"></text>
</g>
<g>
<title>byte[] (4 samples, 1.17%)</title><rect x="832.2" y="51.0" width="13.8" height="15" fill="#61cfcf" rx="2" ry="2"/>
<text x="835.2" y="62.0"></text>
</g>
<g>
<title>one/nio/util/Utf8.read (15 samples, 4.37%)</title><rect x="846.0" y="147.0" width="51.6" height="15" fill="#54e554" rx="2" ry="2"/>
<text x="849.0" y="158.0">one/n..</text>
</g>
<g>
<title>one/nio/util/Utf8.read (15 samples, 4.37%)</title><rect x="846.0" y="131.0" width="51.6" height="15" fill="#54e554" rx="2" ry="2"/>
<text x="849.0" y="142.0">one/n..</text>
</g>
<g>
<title>char[] (8 samples, 2.33%)</title><rect x="846.0" y="115.0" width="27.5" height="15" fill="#55c3c3" rx="2" ry="2"/>
<text x="849.0" y="126.0">c..</text>
</g>
<g>
<title>java.lang.String (3 samples, 0.87%)</title><rect x="873.5" y="115.0" width="10.3" height="15" fill="#67d5d5" rx="2" ry="2"/>
<text x="876.5" y="126.0"></text>
</g>
<g>
<title>java/lang/String.&lt;init&gt; (4 samples, 1.17%)</title><rect x="883.8" y="115.0" width="13.8" height="15" fill="#69fa69" rx="2" ry="2"/>
<text x="886.8" y="126.0"></text>
</g>
<g>
<title>java/lang/String.&lt;init&gt; (4 samples, 1.17%)</title><rect x="883.8" y="99.0" width="13.8" height="15" fill="#66f766" rx="2" ry="2"/>
<text x="886.8" y="110.0"></text>
</g>
<g>
<title>java/lang/StringUTF16.compress (4 samples, 1.17%)</title><rect x="883.8" y="83.0" width="13.8" height="15" fill="#55e655" rx="2" ry="2"/>
<text x="886.8" y="94.0"></text>
</g>
<g>
<title>byte[] (4 samples, 1.17%)</title><rect x="883.8" y="67.0" width="13.8" height="15" fill="#64d2d2" rx="2" ry="2"/>
<text x="886.8" y="78.0"></text>
</g>
<g>
<title>[NIO Selector #3 tid=2306] (85 samples, 24.78%)</title><rect x="897.6" y="227.0" width="292.4" height="15" fill="#ea6666" rx="2" ry="2"/>
<text x="900.6" y="238.0">[NIO Selector #3 tid=2306]</text>
</g>
<g>
<title>one/nio/server/SelectorThread.run (85 samples, 24.78%)</title><rect x="897.6" y="211.0" width="292.4" height="15" fill="#53e453" rx="2" ry="2"/>
<text x="900.6" y="222.0">one/nio/server/SelectorThread.run</text>
</g>
<g>
<title>one/nio/net/Session.process (85 samples, 24.78%)</title><rect x="897.6" y="195.0" width="292.4" height="15" fill="#6afb6a" rx="2" ry="2"/>
<text x="900.6" y="206.0">one/nio/net/Session.process</text>
</g>
<g>
<title>one/nio/http/HttpSession.processRead (85 samples, 24.78%)</title><rect x="897.6" y="179.0" width="292.4" height="15" fill="#53e453" rx="2" ry="2"/>
<text x="900.6" y="190.0">one/nio/http/HttpSession.processRead</text>
</g>
<g>
<title>one/nio/http/HttpSession.processHttpBuffer (85 samples, 24.78%)</title><rect x="897.6" y="163.0" width="292.4" height="15" fill="#5eef5e" rx="2" ry="2"/>
<text x="900.6" y="174.0">one/nio/http/HttpSession.processHttpBuf..</text>
</g>
<g>
<title>one/nio/http/HttpSession.handleParsedRequest (41 samples, 11.95%)</title><rect x="897.6" y="147.0" width="141.0" height="15" fill="#58e958" rx="2" ry="2"/>
<text x="900.6" y="158.0">one/nio/http/HttpS..</text>
</g>
<g>
<title>one/nio/http/HttpServer.handleRequest (41 samples, 11.95%)</title><rect x="897.6" y="131.0" width="141.0" height="15" fill="#55e655" rx="2" ry="2"/>
<text x="900.6" y="142.0">one/nio/http/HttpS..</text>
</g>
<g>
<title>ru/mail/polis/service/basta123/MyAsyncHttpServerImpl.handleDefault (41 samples, 11.95%)</title><rect x="897.6" y="115.0" width="141.0" height="15" fill="#58e958" rx="2" ry="2"/>
<text x="900.6" y="126.0">ru/mail/polis/serv..</text>
</g>
<g>
<title>byte[] (4 samples, 1.17%)</title><rect x="897.6" y="99.0" width="13.7" height="15" fill="#63d1d1" rx="2" ry="2"/>
<text x="900.6" y="110.0"></text>
</g>
<g>
<title>one.nio.http.Response (6 samples, 1.75%)</title><rect x="911.3" y="99.0" width="20.7" height="15" fill="#6cdada" rx="2" ry="2"/>
<text x="914.3" y="110.0"></text>
</g>
<g>
<title>one/nio/http/HttpSession.sendResponse (20 samples, 5.83%)</title><rect x="932.0" y="99.0" width="68.8" height="15" fill="#56e756" rx="2" ry="2"/>
<text x="935.0" y="110.0">one/nio..</text>
</g>
<g>
<title>one/nio/http/HttpSession.writeResponse (20 samples, 5.83%)</title><rect x="932.0" y="83.0" width="68.8" height="15" fill="#5ff05f" rx="2" ry="2"/>
<text x="935.0" y="94.0">one/nio..</text>
</g>
<g>
<title>one/nio/http/Response.toBytes (13 samples, 3.79%)</title><rect x="932.0" y="67.0" width="44.7" height="15" fill="#67f867" rx="2" ry="2"/>
<text x="935.0" y="78.0">one/..</text>
</g>
<g>
<title>one/nio/util/ByteArrayBuilder.&lt;init&gt; (13 samples, 3.79%)</title><rect x="932.0" y="51.0" width="44.7" height="15" fill="#6cfd6c" rx="2" ry="2"/>
<text x="935.0" y="62.0">one/..</text>
</g>
<g>
<title>byte[] (13 samples, 3.79%)</title><rect x="932.0" y="35.0" width="44.7" height="15" fill="#54c2c2" rx="2" ry="2"/>
<text x="935.0" y="46.0">byte[]</text>
</g>
<g>
<title>one/nio/net/Session.write (7 samples, 2.04%)</title><rect x="976.7" y="67.0" width="24.1" height="15" fill="#58e958" rx="2" ry="2"/>
<text x="979.7" y="78.0">o..</text>
</g>
<g>
<title>one.nio.net.Session$ArrayQueueItem (7 samples, 2.04%)</title><rect x="976.7" y="51.0" width="24.1" height="15" fill="#60cece" rx="2" ry="2"/>
<text x="979.7" y="62.0">o..</text>
</g>
<g>
<title>one/nio/http/Response.&lt;init&gt; (11 samples, 3.21%)</title><rect x="1000.8" y="99.0" width="37.8" height="15" fill="#63f463" rx="2" ry="2"/>
<text x="1003.8" y="110.0">one..</text>
</g>
<g>
<title>byte[] (5 samples, 1.46%)</title><rect x="1000.8" y="83.0" width="17.2" height="15" fill="#6ad8d8" rx="2" ry="2"/>
<text x="1003.8" y="94.0"></text>
</g>
<g>
<title>java.lang.String[] (1 samples, 0.29%)</title><rect x="1018.0" y="83.0" width="3.4" height="15" fill="#56c4c4" rx="2" ry="2"/>
<text x="1021.0" y="94.0"></text>
</g>
<g>
<title>java.lang.String (5 samples, 1.46%)</title><rect x="1021.4" y="83.0" width="17.2" height="15" fill="#64d2d2" rx="2" ry="2"/>
<text x="1024.4" y="94.0"></text>
</g>
<g>
<title>one/nio/http/HttpSession.parseRequest (28 samples, 8.16%)</title><rect x="1038.6" y="147.0" width="96.4" height="15" fill="#62f362" rx="2" ry="2"/>
<text x="1041.6" y="158.0">one/nio/htt..</text>
</g>
<g>
<title>one.nio.http.Request (8 samples, 2.33%)</title><rect x="1038.6" y="131.0" width="27.6" height="15" fill="#68d6d6" rx="2" ry="2"/>
<text x="1041.6" y="142.0">o..</text>
</g>
<g>
<title>one/nio/http/Request.&lt;init&gt; (12 samples, 3.50%)</title><rect x="1066.2" y="131.0" width="41.2" height="15" fill="#68f968" rx="2" ry="2"/>
<text x="1069.2" y="142.0">one..</text>
</g>
<g>
<title>java.lang.String[] (12 samples, 3.50%)</title><rect x="1066.2" y="115.0" width="41.2" height="15" fill="#67d5d5" rx="2" ry="2"/>
<text x="1069.2" y="126.0">jav..</text>
</g>
<g>
<title>one/nio/util/Utf8.read (8 samples, 2.33%)</title><rect x="1107.4" y="131.0" width="27.6" height="15" fill="#50e150" rx="2" ry="2"/>
<text x="1110.4" y="142.0">o..</text>
</g>
<g>
<title>one/nio/util/Utf8.read (8 samples, 2.33%)</title><rect x="1107.4" y="115.0" width="27.6" height="15" fill="#61f261" rx="2" ry="2"/>
<text x="1110.4" y="126.0">o..</text>
</g>
<g>
<title>char[] (1 samples, 0.29%)</title><rect x="1107.4" y="99.0" width="3.5" height="15" fill="#62d0d0" rx="2" ry="2"/>
<text x="1110.4" y="110.0"></text>
</g>
<g>
<title>java.lang.String (4 samples, 1.17%)</title><rect x="1110.9" y="99.0" width="13.7" height="15" fill="#66d4d4" rx="2" ry="2"/>
<text x="1113.9" y="110.0"></text>
</g>
<g>
<title>java/lang/String.&lt;init&gt; (3 samples, 0.87%)</title><rect x="1124.6" y="99.0" width="10.4" height="15" fill="#67f867" rx="2" ry="2"/>
<text x="1127.6" y="110.0"></text>
</g>
<g>
<title>java/lang/String.&lt;init&gt; (3 samples, 0.87%)</title><rect x="1124.6" y="83.0" width="10.4" height="15" fill="#58e958" rx="2" ry="2"/>
<text x="1127.6" y="94.0"></text>
</g>
<g>
<title>java/lang/StringUTF16.compress (3 samples, 0.87%)</title><rect x="1124.6" y="67.0" width="10.4" height="15" fill="#52e352" rx="2" ry="2"/>
<text x="1127.6" y="78.0"></text>
</g>
<g>
<title>byte[] (3 samples, 0.87%)</title><rect x="1124.6" y="51.0" width="10.4" height="15" fill="#6ad8d8" rx="2" ry="2"/>
<text x="1127.6" y="62.0"></text>
</g>
<g>
<title>one/nio/util/Utf8.read (16 samples, 4.66%)</title><rect x="1135.0" y="147.0" width="55.0" height="15" fill="#55e655" rx="2" ry="2"/>
<text x="1138.0" y="158.0">one/n..</text>
</g>
<g>
<title>one/nio/util/Utf8.read (16 samples, 4.66%)</title><rect x="1135.0" y="131.0" width="55.0" height="15" fill="#55e655" rx="2" ry="2"/>
<text x="1138.0" y="142.0">one/n..</text>
</g>
<g>
<title>char[] (10 samples, 2.92%)</title><rect x="1135.0" y="115.0" width="34.4" height="15" fill="#5ac8c8" rx="2" ry="2"/>
<text x="1138.0" y="126.0">ch..</text>
</g>
<g>
<title>java.lang.String (1 samples, 0.29%)</title><rect x="1169.4" y="115.0" width="3.4" height="15" fill="#5dcbcb" rx="2" ry="2"/>
<text x="1172.4" y="126.0"></text>
</g>
<g>
<title>java/lang/String.&lt;init&gt; (5 samples, 1.46%)</title><rect x="1172.8" y="115.0" width="17.2" height="15" fill="#5bec5b" rx="2" ry="2"/>
<text x="1175.8" y="126.0"></text>
</g>
<g>
<title>java/lang/String.&lt;init&gt; (5 samples, 1.46%)</title><rect x="1172.8" y="99.0" width="17.2" height="15" fill="#63f463" rx="2" ry="2"/>
<text x="1175.8" y="110.0"></text>
</g>
<g>
<title>java/lang/StringUTF16.compress (5 samples, 1.46%)</title><rect x="1172.8" y="83.0" width="17.2" height="15" fill="#53e453" rx="2" ry="2"/>
<text x="1175.8" y="94.0"></text>
</g>
<g>
<title>byte[] (5 samples, 1.46%)</title><rect x="1172.8" y="67.0" width="17.2" height="15" fill="#59c7c7" rx="2" ry="2"/>
<text x="1175.8" y="78.0"></text>
</g>
</g>
</svg>
