<?xml version="1.0" standalone="no"?>
<!DOCTYPE svg PUBLIC "-//W3C//DTD SVG 1.1//EN" "http://www.w3.org/Graphics/SVG/1.1/DTD/svg11.dtd">
<svg version="1.1" width="1200" height="374" onload="init(evt)" viewBox="0 0 1200 374" xmlns="http://www.w3.org/2000/svg" xmlns:xlink="http://www.w3.org/1999/xlink">
<style type="text/css">
	text { font-family:Verdana; font-size:12px; fill:rgb(0,0,0); }
	#search { opacity:0.1; cursor:pointer; }
	#search:hover, #search.show { opacity:1; }
	#subtitle { text-anchor:middle; font-color:rgb(160,160,160); }
	#title { text-anchor:middle; font-size:17px}
	#unzoom { cursor:pointer; }
	#frames > *:hover { stroke:black; stroke-width:0.5; cursor:pointer; }
	.hide { display:none; }
	.parent { opacity:0.5; }
</style>
<script type="text/ecmascript">
<![CDATA[
	"use strict";
	var details, searchbtn, unzoombtn, matchedtxt, svg, searching;
	function init(evt) {
		details = document.getElementById("details").firstChild;
		searchbtn = document.getElementById("search");
		unzoombtn = document.getElementById("unzoom");
		matchedtxt = document.getElementById("matched");
		svg = document.getElementsByTagName("svg")[0];
		searching = 0;
	}

	window.addEventListener("click", function(e) {
		var target = find_group(e.target);
		if (target) {
			if (target.nodeName == "a") {
				if (e.ctrlKey === false) return;
				e.preventDefault();
			}
			if (target.classList.contains("parent")) unzoom();
			zoom(target);
		}
		else if (e.target.id == "unzoom") unzoom();
		else if (e.target.id == "search") search_prompt();
	}, false)

	// mouse-over for info
	// show
	window.addEventListener("mouseover", function(e) {
		var target = find_group(e.target);
		if (target) details.nodeValue = "Function: " + g_to_text(target);
	}, false)

	// clear
	window.addEventListener("mouseout", function(e) {
		var target = find_group(e.target);
		if (target) details.nodeValue = ' ';
	}, false)

	// ctrl-F for search
	window.addEventListener("keydown",function (e) {
		if (e.keyCode === 114 || (e.ctrlKey && e.keyCode === 70)) {
			e.preventDefault();
			search_prompt();
		}
	}, false)

	// functions
	function find_child(node, selector) {
		var children = node.querySelectorAll(selector);
		if (children.length) return children[0];
		return;
	}
	function find_group(node) {
		var parent = node.parentElement;
		if (!parent) return;
		if (parent.id == "frames") return node;
		return find_group(parent);
	}
	function orig_save(e, attr, val) {
		if (e.attributes["_orig_" + attr] != undefined) return;
		if (e.attributes[attr] == undefined) return;
		if (val == undefined) val = e.attributes[attr].value;
		e.setAttribute("_orig_" + attr, val);
	}
	function orig_load(e, attr) {
		if (e.attributes["_orig_"+attr] == undefined) return;
		e.attributes[attr].value = e.attributes["_orig_" + attr].value;
		e.removeAttribute("_orig_"+attr);
	}
	function g_to_text(e) {
		var text = find_child(e, "title").firstChild.nodeValue;
		return (text)
	}
	function g_to_func(e) {
		var func = g_to_text(e);
		// if there's any manipulation we want to do to the function
		// name before it's searched, do it here before returning.
		return (func);
	}
	function update_text(e) {
		var r = find_child(e, "rect");
		var t = find_child(e, "text");
		var w = parseFloat(r.attributes.width.value) -3;
		var txt = find_child(e, "title").textContent.replace(/\([^(]*\)$/,"");
		t.attributes.x.value = parseFloat(r.attributes.x.value) + 3;

		// Smaller than this size won't fit anything
		if (w < 2 * 12 * 0.59) {
			t.textContent = "";
			return;
		}

		t.textContent = txt;
		// Fit in full text width
		if (/^ *$/.test(txt) || t.getSubStringLength(0, txt.length) < w)
			return;

		for (var x = txt.length - 2; x > 0; x--) {
			if (t.getSubStringLength(0, x + 2) <= w) {
				t.textContent = txt.substring(0, x) + "..";
				return;
			}
		}
		t.textContent = "";
	}

	// zoom
	function zoom_reset(e) {
		if (e.attributes != undefined) {
			orig_load(e, "x");
			orig_load(e, "width");
		}
		if (e.childNodes == undefined) return;
		for (var i = 0, c = e.childNodes; i < c.length; i++) {
			zoom_reset(c[i]);
		}
	}
	function zoom_child(e, x, ratio) {
		if (e.attributes != undefined) {
			if (e.attributes.x != undefined) {
				orig_save(e, "x");
				e.attributes.x.value = (parseFloat(e.attributes.x.value) - x - 10) * ratio + 10;
				if (e.tagName == "text")
					e.attributes.x.value = find_child(e.parentNode, "rect[x]").attributes.x.value + 3;
			}
			if (e.attributes.width != undefined) {
				orig_save(e, "width");
				e.attributes.width.value = parseFloat(e.attributes.width.value) * ratio;
			}
		}

		if (e.childNodes == undefined) return;
		for (var i = 0, c = e.childNodes; i < c.length; i++) {
			zoom_child(c[i], x - 10, ratio);
		}
	}
	function zoom_parent(e) {
		if (e.attributes) {
			if (e.attributes.x != undefined) {
				orig_save(e, "x");
				e.attributes.x.value = 10;
			}
			if (e.attributes.width != undefined) {
				orig_save(e, "width");
				e.attributes.width.value = parseInt(svg.width.baseVal.value) - (10 * 2);
			}
		}
		if (e.childNodes == undefined) return;
		for (var i = 0, c = e.childNodes; i < c.length; i++) {
			zoom_parent(c[i]);
		}
	}
	function zoom(node) {
		var attr = find_child(node, "rect").attributes;
		var width = parseFloat(attr.width.value);
		var xmin = parseFloat(attr.x.value);
		var xmax = parseFloat(xmin + width);
		var ymin = parseFloat(attr.y.value);
		var ratio = (svg.width.baseVal.value - 2 * 10) / width;

		// XXX: Workaround for JavaScript float issues (fix me)
		var fudge = 0.0001;

		unzoombtn.classList.remove("hide");

		var el = document.getElementById("frames").children;
		for (var i = 0; i < el.length; i++) {
			var e = el[i];
			var a = find_child(e, "rect").attributes;
			var ex = parseFloat(a.x.value);
			var ew = parseFloat(a.width.value);
			var upstack;
			// Is it an ancestor
			if (0 == 0) {
				upstack = parseFloat(a.y.value) > ymin;
			} else {
				upstack = parseFloat(a.y.value) < ymin;
			}
			if (upstack) {
				// Direct ancestor
				if (ex <= xmin && (ex+ew+fudge) >= xmax) {
					e.classList.add("parent");
					zoom_parent(e);
					update_text(e);
				}
				// not in current path
				else
					e.classList.add("hide");
			}
			// Children maybe
			else {
				// no common path
				if (ex < xmin || ex + fudge >= xmax) {
					e.classList.add("hide");
				}
				else {
					zoom_child(e, xmin, ratio);
					update_text(e);
				}
			}
		}
	}
	function unzoom() {
		unzoombtn.classList.add("hide");
		var el = document.getElementById("frames").children;
		for(var i = 0; i < el.length; i++) {
			el[i].classList.remove("parent");
			el[i].classList.remove("hide");
			zoom_reset(el[i]);
			update_text(el[i]);
		}
	}

	// search
	function reset_search() {
		var el = document.querySelectorAll("#frames rect");
		for (var i = 0; i < el.length; i++) {
			orig_load(el[i], "fill")
		}
	}
	function search_prompt() {
		if (!searching) {
			var term = prompt("Enter a search term (regexp " +
			    "allowed, eg: ^ext4_)", "");
			if (term != null) {
				search(term)
			}
		} else {
			reset_search();
			searching = 0;
			searchbtn.classList.remove("show");
			searchbtn.firstChild.nodeValue = "Search"
			matchedtxt.classList.add("hide");
			matchedtxt.firstChild.nodeValue = ""
		}
	}
	function search(term) {
		var re = new RegExp(term);
		var el = document.getElementById("frames").children;
		var matches = new Object();
		var maxwidth = 0;
		for (var i = 0; i < el.length; i++) {
			var e = el[i];
			var func = g_to_func(e);
			var rect = find_child(e, "rect");
			if (func == null || rect == null)
				continue;

			// Save max width. Only works as we have a root frame
			var w = parseFloat(rect.attributes.width.value);
			if (w > maxwidth)
				maxwidth = w;

			if (func.match(re)) {
				// highlight
				var x = parseFloat(rect.attributes.x.value);
				orig_save(rect, "fill");
				rect.attributes.fill.value = "rgb(230,0,230)";

				// remember matches
				if (matches[x] == undefined) {
					matches[x] = w;
				} else {
					if (w > matches[x]) {
						// overwrite with parent
						matches[x] = w;
					}
				}
				searching = 1;
			}
		}
		if (!searching)
			return;

		searchbtn.classList.add("show");
		searchbtn.firstChild.nodeValue = "Reset Search";

		// calculate percent matched, excluding vertical overlap
		var count = 0;
		var lastx = -1;
		var lastw = 0;
		var keys = Array();
		for (k in matches) {
			if (matches.hasOwnProperty(k))
				keys.push(k);
		}
		// sort the matched frames by their x location
		// ascending, then width descending
		keys.sort(function(a, b){
			return a - b;
		});
		// Step through frames saving only the biggest bottom-up frames
		// thanks to the sort order. This relies on the tree property
		// where children are always smaller than their parents.
		var fudge = 0.0001;	// JavaScript floating point
		for (var k in keys) {
			var x = parseFloat(keys[k]);
			var w = matches[keys[k]];
			if (x >= lastx + lastw - fudge) {
				count += w;
				lastx = x;
				lastw = w;
			}
		}
		// display matched percent
		matchedtxt.classList.remove("hide");
		var pct = 100 * count / maxwidth;
		if (pct != 100) pct = pct.toFixed(1)
		matchedtxt.firstChild.nodeValue = "Matched: " + pct + "%";
	}
]]>
</script>
<rect x="0" y="0" width="100%" height="100%" fill="rgb(240,240,220)"/>
<text id="title" x="600" y="24">Flame Graph</text>
<text id="details" x="10" y="357"> </text>
<text id="unzoom" x="10" y="24" class="hide">Reset Zoom</text>
<text id="search" x="1090" y="24">Search</text>
<text id="matched" x="1090" y="357"> </text>
<g id="frames">
<g>
<title>all (1,130 samples, 100.00%)</title><rect x="10.0" y="323.0" width="1180.0" height="15" fill="#ee6b6b" rx="2" ry="2"/>
<text x="13.0" y="334.0">all</text>
</g>
<g>
<title>[NIO Selector #0 tid=5648] (292 samples, 25.84%)</title><rect x="10.0" y="307.0" width="304.9" height="15" fill="#f67676" rx="2" ry="2"/>
<text x="13.0" y="318.0">[NIO Selector #0 tid=5648]</text>
</g>
<g>
<title>one/nio/server/SelectorThread.run (292 samples, 25.84%)</title><rect x="10.0" y="291.0" width="304.9" height="15" fill="#68f968" rx="2" ry="2"/>
<text x="13.0" y="302.0">one/nio/server/SelectorThread.run</text>
</g>
<g>
<title>one/nio/net/Session.process (292 samples, 25.84%)</title><rect x="10.0" y="275.0" width="304.9" height="15" fill="#5ff05f" rx="2" ry="2"/>
<text x="13.0" y="286.0">one/nio/net/Session.process</text>
</g>
<g>
<title>one.nio.http.HttpSession (273 samples, 24.16%)</title><rect x="10.0" y="259.0" width="285.1" height="15" fill="#5fcdcd" rx="2" ry="2"/>
<text x="13.0" y="270.0">one.nio.http.HttpSession</text>
</g>
<g>
<title>one/nio/http/HttpSession.processRead (19 samples, 1.68%)</title><rect x="295.1" y="259.0" width="19.8" height="15" fill="#60f160" rx="2" ry="2"/>
<text x="298.1" y="270.0"></text>
</g>
<g>
<title>one/nio/http/HttpSession.processHttpBuffer (19 samples, 1.68%)</title><rect x="295.1" y="243.0" width="19.8" height="15" fill="#68f968" rx="2" ry="2"/>
<text x="298.1" y="254.0"></text>
</g>
<g>
<title>one/nio/http/HttpSession.handleParsedRequest (19 samples, 1.68%)</title><rect x="295.1" y="227.0" width="19.8" height="15" fill="#66f766" rx="2" ry="2"/>
<text x="298.1" y="238.0"></text>
</g>
<g>
<title>one/nio/http/HttpServer.handleRequest (19 samples, 1.68%)</title><rect x="295.1" y="211.0" width="19.8" height="15" fill="#53e453" rx="2" ry="2"/>
<text x="298.1" y="222.0"></text>
</g>
<g>
<title>RequestHandler3_putValueByKey.handleRequest (19 samples, 1.68%)</title><rect x="295.1" y="195.0" width="19.8" height="15" fill="#50e150" rx="2" ry="2"/>
<text x="298.1" y="206.0"></text>
</g>
<g>
<title>ru/mail/polis/service/basta123/MyAsyncHttpServerImpl.putValueByKey (19 samples, 1.68%)</title><rect x="295.1" y="179.0" width="19.8" height="15" fill="#62f362" rx="2" ry="2"/>
<text x="298.1" y="190.0"></text>
</g>
<g>
<title>java/util/concurrent/ThreadPoolExecutor.execute (19 samples, 1.68%)</title><rect x="295.1" y="163.0" width="19.8" height="15" fill="#68f968" rx="2" ry="2"/>
<text x="298.1" y="174.0"></text>
</g>
<g>
<title>java/util/concurrent/ArrayBlockingQueue.offer (19 samples, 1.68%)</title><rect x="295.1" y="147.0" width="19.8" height="15" fill="#54e554" rx="2" ry="2"/>
<text x="298.1" y="158.0"></text>
</g>
<g>
<title>java/util/concurrent/locks/ReentrantLock.lock (19 samples, 1.68%)</title><rect x="295.1" y="131.0" width="19.8" height="15" fill="#66f766" rx="2" ry="2"/>
<text x="298.1" y="142.0"></text>
</g>
<g>
<title>java/util/concurrent/locks/AbstractQueuedSynchronizer.acquire (19 samples, 1.68%)</title><rect x="295.1" y="115.0" width="19.8" height="15" fill="#63f463" rx="2" ry="2"/>
<text x="298.1" y="126.0"></text>
</g>
<g>
<title>java/util/concurrent/locks/AbstractQueuedSynchronizer.acquireQueued (19 samples, 1.68%)</title><rect x="295.1" y="99.0" width="19.8" height="15" fill="#64f564" rx="2" ry="2"/>
<text x="298.1" y="110.0"></text>
</g>
<g>
<title>java/util/concurrent/locks/AbstractQueuedSynchronizer.parkAndCheckInterrupt (19 samples, 1.68%)</title><rect x="295.1" y="83.0" width="19.8" height="15" fill="#53e453" rx="2" ry="2"/>
<text x="298.1" y="94.0"></text>
</g>
<g>
<title>java/util/concurrent/locks/LockSupport.park (19 samples, 1.68%)</title><rect x="295.1" y="67.0" width="19.8" height="15" fill="#66f766" rx="2" ry="2"/>
<text x="298.1" y="78.0"></text>
</g>
<g>
<title>jdk/internal/misc/Unsafe.park (19 samples, 1.68%)</title><rect x="295.1" y="51.0" width="19.8" height="15" fill="#65f665" rx="2" ry="2"/>
<text x="298.1" y="62.0"></text>
</g>
<g>
<title>java.util.concurrent.locks.ReentrantLock$NonfairSync (19 samples, 1.68%)</title><rect x="295.1" y="35.0" width="19.8" height="15" fill="#63d1d1" rx="2" ry="2"/>
<text x="298.1" y="46.0"></text>
</g>
<g>
<title>[NIO Selector #1 tid=5649] (243 samples, 21.50%)</title><rect x="314.9" y="307.0" width="253.8" height="15" fill="#eb6767" rx="2" ry="2"/>
<text x="317.9" y="318.0">[NIO Selector #1 tid=5649]</text>
</g>
<g>
<title>one/nio/server/SelectorThread.run (243 samples, 21.50%)</title><rect x="314.9" y="291.0" width="253.8" height="15" fill="#5dee5d" rx="2" ry="2"/>
<text x="317.9" y="302.0">one/nio/server/SelectorThread.run</text>
</g>
<g>
<title>one/nio/net/Session.process (243 samples, 21.50%)</title><rect x="314.9" y="275.0" width="253.8" height="15" fill="#58e958" rx="2" ry="2"/>
<text x="317.9" y="286.0">one/nio/net/Session.process</text>
</g>
<g>
<title>one.nio.http.HttpSession (210 samples, 18.58%)</title><rect x="314.9" y="259.0" width="219.3" height="15" fill="#53c1c1" rx="2" ry="2"/>
<text x="317.9" y="270.0">one.nio.http.HttpSession</text>
</g>
<g>
<title>one/nio/http/HttpSession.processRead (33 samples, 2.92%)</title><rect x="534.2" y="259.0" width="34.5" height="15" fill="#61f261" rx="2" ry="2"/>
<text x="537.2" y="270.0">on..</text>
</g>
<g>
<title>one/nio/http/HttpSession.processHttpBuffer (33 samples, 2.92%)</title><rect x="534.2" y="243.0" width="34.5" height="15" fill="#6dfe6d" rx="2" ry="2"/>
<text x="537.2" y="254.0">on..</text>
</g>
<g>
<title>one/nio/http/HttpSession.handleParsedRequest (33 samples, 2.92%)</title><rect x="534.2" y="227.0" width="34.5" height="15" fill="#55e655" rx="2" ry="2"/>
<text x="537.2" y="238.0">on..</text>
</g>
<g>
<title>one/nio/http/HttpServer.handleRequest (33 samples, 2.92%)</title><rect x="534.2" y="211.0" width="34.5" height="15" fill="#61f261" rx="2" ry="2"/>
<text x="537.2" y="222.0">on..</text>
</g>
<g>
<title>RequestHandler3_putValueByKey.handleRequest (33 samples, 2.92%)</title><rect x="534.2" y="195.0" width="34.5" height="15" fill="#60f160" rx="2" ry="2"/>
<text x="537.2" y="206.0">Re..</text>
</g>
<g>
<title>ru/mail/polis/service/basta123/MyAsyncHttpServerImpl.putValueByKey (33 samples, 2.92%)</title><rect x="534.2" y="179.0" width="34.5" height="15" fill="#59ea59" rx="2" ry="2"/>
<text x="537.2" y="190.0">ru..</text>
</g>
<g>
<title>java/util/concurrent/ThreadPoolExecutor.execute (33 samples, 2.92%)</title><rect x="534.2" y="163.0" width="34.5" height="15" fill="#62f362" rx="2" ry="2"/>
<text x="537.2" y="174.0">ja..</text>
</g>
<g>
<title>java/util/concurrent/ArrayBlockingQueue.offer (33 samples, 2.92%)</title><rect x="534.2" y="147.0" width="34.5" height="15" fill="#50e150" rx="2" ry="2"/>
<text x="537.2" y="158.0">ja..</text>
</g>
<g>
<title>java/util/concurrent/locks/ReentrantLock.lock (33 samples, 2.92%)</title><rect x="534.2" y="131.0" width="34.5" height="15" fill="#51e251" rx="2" ry="2"/>
<text x="537.2" y="142.0">ja..</text>
</g>
<g>
<title>java/util/concurrent/locks/AbstractQueuedSynchronizer.acquire (33 samples, 2.92%)</title><rect x="534.2" y="115.0" width="34.5" height="15" fill="#5ced5c" rx="2" ry="2"/>
<text x="537.2" y="126.0">ja..</text>
</g>
<g>
<title>java/util/concurrent/locks/AbstractQueuedSynchronizer.acquireQueued (33 samples, 2.92%)</title><rect x="534.2" y="99.0" width="34.5" height="15" fill="#5ff05f" rx="2" ry="2"/>
<text x="537.2" y="110.0">ja..</text>
</g>
<g>
<title>java/util/concurrent/locks/AbstractQueuedSynchronizer.parkAndCheckInterrupt (33 samples, 2.92%)</title><rect x="534.2" y="83.0" width="34.5" height="15" fill="#60f160" rx="2" ry="2"/>
<text x="537.2" y="94.0">ja..</text>
</g>
<g>
<title>java/util/concurrent/locks/LockSupport.park (33 samples, 2.92%)</title><rect x="534.2" y="67.0" width="34.5" height="15" fill="#6dfe6d" rx="2" ry="2"/>
<text x="537.2" y="78.0">ja..</text>
</g>
<g>
<title>jdk/internal/misc/Unsafe.park (33 samples, 2.92%)</title><rect x="534.2" y="51.0" width="34.5" height="15" fill="#5aeb5a" rx="2" ry="2"/>
<text x="537.2" y="62.0">jd..</text>
</g>
<g>
<title>java.util.concurrent.locks.ReentrantLock$NonfairSync (33 samples, 2.92%)</title><rect x="534.2" y="35.0" width="34.5" height="15" fill="#58c6c6" rx="2" ry="2"/>
<text x="537.2" y="46.0">ja..</text>
</g>
<g>
<title>[NIO Selector #2 tid=5650] (337 samples, 29.82%)</title><rect x="568.7" y="307.0" width="351.9" height="15" fill="#e45e5e" rx="2" ry="2"/>
<text x="571.7" y="318.0">[NIO Selector #2 tid=5650]</text>
</g>
<g>
<title>one/nio/server/SelectorThread.run (337 samples, 29.82%)</title><rect x="568.7" y="291.0" width="351.9" height="15" fill="#5aeb5a" rx="2" ry="2"/>
<text x="571.7" y="302.0">one/nio/server/SelectorThread.run</text>
</g>
<g>
<title>one/nio/net/Session.process (337 samples, 29.82%)</title><rect x="568.7" y="275.0" width="351.9" height="15" fill="#6bfc6b" rx="2" ry="2"/>
<text x="571.7" y="286.0">one/nio/net/Session.process</text>
</g>
<g>
<title>one.nio.http.HttpSession (304 samples, 26.90%)</title><rect x="568.7" y="259.0" width="317.4" height="15" fill="#6bd9d9" rx="2" ry="2"/>
<text x="571.7" y="270.0">one.nio.http.HttpSession</text>
</g>
<g>
<title>one/nio/http/HttpSession.processRead (33 samples, 2.92%)</title><rect x="886.1" y="259.0" width="34.5" height="15" fill="#5eef5e" rx="2" ry="2"/>
<text x="889.1" y="270.0">on..</text>
</g>
<g>
<title>one/nio/http/HttpSession.processHttpBuffer (33 samples, 2.92%)</title><rect x="886.1" y="243.0" width="34.5" height="15" fill="#64f564" rx="2" ry="2"/>
<text x="889.1" y="254.0">on..</text>
</g>
<g>
<title>one/nio/http/HttpSession.handleParsedRequest (33 samples, 2.92%)</title><rect x="886.1" y="227.0" width="34.5" height="15" fill="#61f261" rx="2" ry="2"/>
<text x="889.1" y="238.0">on..</text>
</g>
<g>
<title>one/nio/http/HttpServer.handleRequest (33 samples, 2.92%)</title><rect x="886.1" y="211.0" width="34.5" height="15" fill="#55e655" rx="2" ry="2"/>
<text x="889.1" y="222.0">on..</text>
</g>
<g>
<title>RequestHandler3_putValueByKey.handleRequest (33 samples, 2.92%)</title><rect x="886.1" y="195.0" width="34.5" height="15" fill="#67f867" rx="2" ry="2"/>
<text x="889.1" y="206.0">Re..</text>
</g>
<g>
<title>ru/mail/polis/service/basta123/MyAsyncHttpServerImpl.putValueByKey (33 samples, 2.92%)</title><rect x="886.1" y="179.0" width="34.5" height="15" fill="#59ea59" rx="2" ry="2"/>
<text x="889.1" y="190.0">ru..</text>
</g>
<g>
<title>java/util/concurrent/ThreadPoolExecutor.execute (33 samples, 2.92%)</title><rect x="886.1" y="163.0" width="34.5" height="15" fill="#6afb6a" rx="2" ry="2"/>
<text x="889.1" y="174.0">ja..</text>
</g>
<g>
<title>java/util/concurrent/ArrayBlockingQueue.offer (33 samples, 2.92%)</title><rect x="886.1" y="147.0" width="34.5" height="15" fill="#5dee5d" rx="2" ry="2"/>
<text x="889.1" y="158.0">ja..</text>
</g>
<g>
<title>java/util/concurrent/locks/ReentrantLock.lock (33 samples, 2.92%)</title><rect x="886.1" y="131.0" width="34.5" height="15" fill="#63f463" rx="2" ry="2"/>
<text x="889.1" y="142.0">ja..</text>
</g>
<g>
<title>java/util/concurrent/locks/AbstractQueuedSynchronizer.acquire (33 samples, 2.92%)</title><rect x="886.1" y="115.0" width="34.5" height="15" fill="#59ea59" rx="2" ry="2"/>
<text x="889.1" y="126.0">ja..</text>
</g>
<g>
<title>java/util/concurrent/locks/AbstractQueuedSynchronizer.acquireQueued (33 samples, 2.92%)</title><rect x="886.1" y="99.0" width="34.5" height="15" fill="#66f766" rx="2" ry="2"/>
<text x="889.1" y="110.0">ja..</text>
</g>
<g>
<title>java/util/concurrent/locks/AbstractQueuedSynchronizer.parkAndCheckInterrupt (33 samples, 2.92%)</title><rect x="886.1" y="83.0" width="34.5" height="15" fill="#67f867" rx="2" ry="2"/>
<text x="889.1" y="94.0">ja..</text>
</g>
<g>
<title>java/util/concurrent/locks/LockSupport.park (33 samples, 2.92%)</title><rect x="886.1" y="67.0" width="34.5" height="15" fill="#6bfc6b" rx="2" ry="2"/>
<text x="889.1" y="78.0">ja..</text>
</g>
<g>
<title>jdk/internal/misc/Unsafe.park (33 samples, 2.92%)</title><rect x="886.1" y="51.0" width="34.5" height="15" fill="#65f665" rx="2" ry="2"/>
<text x="889.1" y="62.0">jd..</text>
</g>
<g>
<title>java.util.concurrent.locks.ReentrantLock$NonfairSync (33 samples, 2.92%)</title><rect x="886.1" y="35.0" width="34.5" height="15" fill="#6ddbdb" rx="2" ry="2"/>
<text x="889.1" y="46.0">ja..</text>
</g>
<g>
<title>[NIO Selector #3 tid=5651] (233 samples, 20.62%)</title><rect x="920.6" y="307.0" width="243.3" height="15" fill="#ef6d6d" rx="2" ry="2"/>
<text x="923.6" y="318.0">[NIO Selector #3 tid=5651]</text>
</g>
<g>
<title>one/nio/server/SelectorThread.run (233 samples, 20.62%)</title><rect x="920.6" y="291.0" width="243.3" height="15" fill="#58e958" rx="2" ry="2"/>
<text x="923.6" y="302.0">one/nio/server/SelectorThread.run</text>
</g>
<g>
<title>one/nio/net/Session.process (233 samples, 20.62%)</title><rect x="920.6" y="275.0" width="243.3" height="15" fill="#59ea59" rx="2" ry="2"/>
<text x="923.6" y="286.0">one/nio/net/Session.process</text>
</g>
<g>
<title>one.nio.http.HttpSession (193 samples, 17.08%)</title><rect x="920.6" y="259.0" width="201.5" height="15" fill="#53c1c1" rx="2" ry="2"/>
<text x="923.6" y="270.0">one.nio.http.HttpSession</text>
</g>
<g>
<title>one/nio/http/HttpSession.processRead (40 samples, 3.54%)</title><rect x="1122.1" y="259.0" width="41.8" height="15" fill="#58e958" rx="2" ry="2"/>
<text x="1125.1" y="270.0">one..</text>
</g>
<g>
<title>one/nio/http/HttpSession.processHttpBuffer (40 samples, 3.54%)</title><rect x="1122.1" y="243.0" width="41.8" height="15" fill="#5aeb5a" rx="2" ry="2"/>
<text x="1125.1" y="254.0">one..</text>
</g>
<g>
<title>one/nio/http/HttpSession.handleParsedRequest (40 samples, 3.54%)</title><rect x="1122.1" y="227.0" width="41.8" height="15" fill="#5ff05f" rx="2" ry="2"/>
<text x="1125.1" y="238.0">one..</text>
</g>
<g>
<title>one/nio/http/HttpServer.handleRequest (40 samples, 3.54%)</title><rect x="1122.1" y="211.0" width="41.8" height="15" fill="#68f968" rx="2" ry="2"/>
<text x="1125.1" y="222.0">one..</text>
</g>
<g>
<title>RequestHandler3_putValueByKey.handleRequest (40 samples, 3.54%)</title><rect x="1122.1" y="195.0" width="41.8" height="15" fill="#6bfc6b" rx="2" ry="2"/>
<text x="1125.1" y="206.0">Req..</text>
</g>
<g>
<title>ru/mail/polis/service/basta123/MyAsyncHttpServerImpl.putValueByKey (40 samples, 3.54%)</title><rect x="1122.1" y="179.0" width="41.8" height="15" fill="#5ff05f" rx="2" ry="2"/>
<text x="1125.1" y="190.0">ru/..</text>
</g>
<g>
<title>java/util/concurrent/ThreadPoolExecutor.execute (40 samples, 3.54%)</title><rect x="1122.1" y="163.0" width="41.8" height="15" fill="#54e554" rx="2" ry="2"/>
<text x="1125.1" y="174.0">jav..</text>
</g>
<g>
<title>java/util/concurrent/ArrayBlockingQueue.offer (40 samples, 3.54%)</title><rect x="1122.1" y="147.0" width="41.8" height="15" fill="#56e756" rx="2" ry="2"/>
<text x="1125.1" y="158.0">jav..</text>
</g>
<g>
<title>java/util/concurrent/locks/ReentrantLock.lock (40 samples, 3.54%)</title><rect x="1122.1" y="131.0" width="41.8" height="15" fill="#63f463" rx="2" ry="2"/>
<text x="1125.1" y="142.0">jav..</text>
</g>
<g>
<title>java/util/concurrent/locks/AbstractQueuedSynchronizer.acquire (40 samples, 3.54%)</title><rect x="1122.1" y="115.0" width="41.8" height="15" fill="#5ff05f" rx="2" ry="2"/>
<text x="1125.1" y="126.0">jav..</text>
</g>
<g>
<title>java/util/concurrent/locks/AbstractQueuedSynchronizer.acquireQueued (40 samples, 3.54%)</title><rect x="1122.1" y="99.0" width="41.8" height="15" fill="#53e453" rx="2" ry="2"/>
<text x="1125.1" y="110.0">jav..</text>
</g>
<g>
<title>java/util/concurrent/locks/AbstractQueuedSynchronizer.parkAndCheckInterrupt (40 samples, 3.54%)</title><rect x="1122.1" y="83.0" width="41.8" height="15" fill="#60f160" rx="2" ry="2"/>
<text x="1125.1" y="94.0">jav..</text>
</g>
<g>
<title>java/util/concurrent/locks/LockSupport.park (40 samples, 3.54%)</title><rect x="1122.1" y="67.0" width="41.8" height="15" fill="#50e150" rx="2" ry="2"/>
<text x="1125.1" y="78.0">jav..</text>
</g>
<g>
<title>jdk/internal/misc/Unsafe.park (40 samples, 3.54%)</title><rect x="1122.1" y="51.0" width="41.8" height="15" fill="#68f968" rx="2" ry="2"/>
<text x="1125.1" y="62.0">jdk..</text>
</g>
<g>
<title>java.util.concurrent.locks.ReentrantLock$NonfairSync (40 samples, 3.54%)</title><rect x="1122.1" y="35.0" width="41.8" height="15" fill="#53c1c1" rx="2" ry="2"/>
<text x="1125.1" y="46.0">jav..</text>
</g>
<g>
<title>[worker-0 tid=5669] (5 samples, 0.44%)</title><rect x="1163.9" y="307.0" width="5.2" height="15" fill="#e66161" rx="2" ry="2"/>
<text x="1166.9" y="318.0"></text>
</g>
<g>
<title>java/lang/Thread.run (5 samples, 0.44%)</title><rect x="1163.9" y="291.0" width="5.2" height="15" fill="#61f261" rx="2" ry="2"/>
<text x="1166.9" y="302.0"></text>
</g>
<g>
<title>java/util/concurrent/ThreadPoolExecutor$Worker.run (5 samples, 0.44%)</title><rect x="1163.9" y="275.0" width="5.2" height="15" fill="#5dee5d" rx="2" ry="2"/>
<text x="1166.9" y="286.0"></text>
</g>
<g>
<title>java/util/concurrent/ThreadPoolExecutor.runWorker (5 samples, 0.44%)</title><rect x="1163.9" y="259.0" width="5.2" height="15" fill="#51e251" rx="2" ry="2"/>
<text x="1166.9" y="270.0"></text>
</g>
<g>
<title>java/util/concurrent/ThreadPoolExecutor.getTask (5 samples, 0.44%)</title><rect x="1163.9" y="243.0" width="5.2" height="15" fill="#50e150" rx="2" ry="2"/>
<text x="1166.9" y="254.0"></text>
</g>
<g>
<title>java/util/concurrent/ArrayBlockingQueue.take (5 samples, 0.44%)</title><rect x="1163.9" y="227.0" width="5.2" height="15" fill="#53e453" rx="2" ry="2"/>
<text x="1166.9" y="238.0"></text>
</g>
<g>
<title>java/util/concurrent/locks/AbstractQueuedSynchronizer$ConditionObject.await (2 samples, 0.18%)</title><rect x="1163.9" y="211.0" width="2.1" height="15" fill="#5bec5b" rx="2" ry="2"/>
<text x="1166.9" y="222.0"></text>
</g>
<g>
<title>java/util/concurrent/locks/AbstractQueuedSynchronizer.acquireQueued (2 samples, 0.18%)</title><rect x="1163.9" y="195.0" width="2.1" height="15" fill="#67f867" rx="2" ry="2"/>
<text x="1166.9" y="206.0"></text>
</g>
<g>
<title>java/util/concurrent/locks/AbstractQueuedSynchronizer.parkAndCheckInterrupt (2 samples, 0.18%)</title><rect x="1163.9" y="179.0" width="2.1" height="15" fill="#6afb6a" rx="2" ry="2"/>
<text x="1166.9" y="190.0"></text>
</g>
<g>
<title>java/util/concurrent/locks/LockSupport.park (2 samples, 0.18%)</title><rect x="1163.9" y="163.0" width="2.1" height="15" fill="#59ea59" rx="2" ry="2"/>
<text x="1166.9" y="174.0"></text>
</g>
<g>
<title>jdk/internal/misc/Unsafe.park (2 samples, 0.18%)</title><rect x="1163.9" y="147.0" width="2.1" height="15" fill="#5eef5e" rx="2" ry="2"/>
<text x="1166.9" y="158.0"></text>
</g>
<g>
<title>java.util.concurrent.locks.ReentrantLock$NonfairSync (2 samples, 0.18%)</title><rect x="1163.9" y="131.0" width="2.1" height="15" fill="#69d7d7" rx="2" ry="2"/>
<text x="1166.9" y="142.0"></text>
</g>
<g>
<title>java/util/concurrent/locks/ReentrantLock.lockInterruptibly (3 samples, 0.27%)</title><rect x="1166.0" y="211.0" width="3.1" height="15" fill="#68f968" rx="2" ry="2"/>
<text x="1169.0" y="222.0"></text>
</g>
<g>
<title>java/util/concurrent/locks/AbstractQueuedSynchronizer.acquireInterruptibly (3 samples, 0.27%)</title><rect x="1166.0" y="195.0" width="3.1" height="15" fill="#67f867" rx="2" ry="2"/>
<text x="1169.0" y="206.0"></text>
</g>
<g>
<title>java/util/concurrent/locks/AbstractQueuedSynchronizer.doAcquireInterruptibly (3 samples, 0.27%)</title><rect x="1166.0" y="179.0" width="3.1" height="15" fill="#54e554" rx="2" ry="2"/>
<text x="1169.0" y="190.0"></text>
</g>
<g>
<title>java/util/concurrent/locks/AbstractQueuedSynchronizer.parkAndCheckInterrupt (3 samples, 0.27%)</title><rect x="1166.0" y="163.0" width="3.1" height="15" fill="#6bfc6b" rx="2" ry="2"/>
<text x="1169.0" y="174.0"></text>
</g>
<g>
<title>java/util/concurrent/locks/LockSupport.park (3 samples, 0.27%)</title><rect x="1166.0" y="147.0" width="3.1" height="15" fill="#52e352" rx="2" ry="2"/>
<text x="1169.0" y="158.0"></text>
</g>
<g>
<title>jdk/internal/misc/Unsafe.park (3 samples, 0.27%)</title><rect x="1166.0" y="131.0" width="3.1" height="15" fill="#5eef5e" rx="2" ry="2"/>
<text x="1169.0" y="142.0"></text>
</g>
<g>
<title>java.util.concurrent.locks.ReentrantLock$NonfairSync (3 samples, 0.27%)</title><rect x="1166.0" y="115.0" width="3.1" height="15" fill="#5ccaca" rx="2" ry="2"/>
<text x="1169.0" y="126.0"></text>
</g>
<g>
<title>[worker-1 tid=5670] (9 samples, 0.80%)</title><rect x="1169.1" y="307.0" width="9.4" height="15" fill="#fb7d7d" rx="2" ry="2"/>
<text x="1172.1" y="318.0"></text>
</g>
<g>
<title>java/lang/Thread.run (9 samples, 0.80%)</title><rect x="1169.1" y="291.0" width="9.4" height="15" fill="#5bec5b" rx="2" ry="2"/>
<text x="1172.1" y="302.0"></text>
</g>
<g>
<title>java/util/concurrent/ThreadPoolExecutor$Worker.run (9 samples, 0.80%)</title><rect x="1169.1" y="275.0" width="9.4" height="15" fill="#6cfd6c" rx="2" ry="2"/>
<text x="1172.1" y="286.0"></text>
</g>
<g>
<title>java/util/concurrent/ThreadPoolExecutor.runWorker (9 samples, 0.80%)</title><rect x="1169.1" y="259.0" width="9.4" height="15" fill="#50e150" rx="2" ry="2"/>
<text x="1172.1" y="270.0"></text>
</g>
<g>
<title>java/util/concurrent/ThreadPoolExecutor.getTask (6 samples, 0.53%)</title><rect x="1169.1" y="243.0" width="6.3" height="15" fill="#61f261" rx="2" ry="2"/>
<text x="1172.1" y="254.0"></text>
</g>
<g>
<title>java/util/concurrent/ArrayBlockingQueue.take (6 samples, 0.53%)</title><rect x="1169.1" y="227.0" width="6.3" height="15" fill="#61f261" rx="2" ry="2"/>
<text x="1172.1" y="238.0"></text>
</g>
<g>
<title>java/util/concurrent/locks/AbstractQueuedSynchronizer$ConditionObject.await (2 samples, 0.18%)</title><rect x="1169.1" y="211.0" width="2.1" height="15" fill="#60f160" rx="2" ry="2"/>
<text x="1172.1" y="222.0"></text>
</g>
<g>
<title>java/util/concurrent/locks/AbstractQueuedSynchronizer.acquireQueued (2 samples, 0.18%)</title><rect x="1169.1" y="195.0" width="2.1" height="15" fill="#65f665" rx="2" ry="2"/>
<text x="1172.1" y="206.0"></text>
</g>
<g>
<title>java/util/concurrent/locks/AbstractQueuedSynchronizer.parkAndCheckInterrupt (2 samples, 0.18%)</title><rect x="1169.1" y="179.0" width="2.1" height="15" fill="#54e554" rx="2" ry="2"/>
<text x="1172.1" y="190.0"></text>
</g>
<g>
<title>java/util/concurrent/locks/LockSupport.park (2 samples, 0.18%)</title><rect x="1169.1" y="163.0" width="2.1" height="15" fill="#60f160" rx="2" ry="2"/>
<text x="1172.1" y="174.0"></text>
</g>
<g>
<title>jdk/internal/misc/Unsafe.park (2 samples, 0.18%)</title><rect x="1169.1" y="147.0" width="2.1" height="15" fill="#5ff05f" rx="2" ry="2"/>
<text x="1172.1" y="158.0"></text>
</g>
<g>
<title>java.util.concurrent.locks.ReentrantLock$NonfairSync (2 samples, 0.18%)</title><rect x="1169.1" y="131.0" width="2.1" height="15" fill="#58c6c6" rx="2" ry="2"/>
<text x="1172.1" y="142.0"></text>
</g>
<g>
<title>java/util/concurrent/locks/ReentrantLock.lockInterruptibly (4 samples, 0.35%)</title><rect x="1171.2" y="211.0" width="4.2" height="15" fill="#66f766" rx="2" ry="2"/>
<text x="1174.2" y="222.0"></text>
</g>
<g>
<title>java/util/concurrent/locks/AbstractQueuedSynchronizer.acquireInterruptibly (4 samples, 0.35%)</title><rect x="1171.2" y="195.0" width="4.2" height="15" fill="#53e453" rx="2" ry="2"/>
<text x="1174.2" y="206.0"></text>
</g>
<g>
<title>java/util/concurrent/locks/AbstractQueuedSynchronizer.doAcquireInterruptibly (4 samples, 0.35%)</title><rect x="1171.2" y="179.0" width="4.2" height="15" fill="#65f665" rx="2" ry="2"/>
<text x="1174.2" y="190.0"></text>
</g>
<g>
<title>java/util/concurrent/locks/AbstractQueuedSynchronizer.parkAndCheckInterrupt (4 samples, 0.35%)</title><rect x="1171.2" y="163.0" width="4.2" height="15" fill="#67f867" rx="2" ry="2"/>
<text x="1174.2" y="174.0"></text>
</g>
<g>
<title>java/util/concurrent/locks/LockSupport.park (4 samples, 0.35%)</title><rect x="1171.2" y="147.0" width="4.2" height="15" fill="#54e554" rx="2" ry="2"/>
<text x="1174.2" y="158.0"></text>
</g>
<g>
<title>jdk/internal/misc/Unsafe.park (4 samples, 0.35%)</title><rect x="1171.2" y="131.0" width="4.2" height="15" fill="#68f968" rx="2" ry="2"/>
<text x="1174.2" y="142.0"></text>
</g>
<g>
<title>java.util.concurrent.locks.ReentrantLock$NonfairSync (4 samples, 0.35%)</title><rect x="1171.2" y="115.0" width="4.2" height="15" fill="#55c3c3" rx="2" ry="2"/>
<text x="1174.2" y="126.0"></text>
</g>
<g>
<title>ru/mail/polis/service/basta123/MyAsyncHttpServerImpl$$Lambda$66/712804772.run (3 samples, 0.27%)</title><rect x="1175.4" y="243.0" width="3.1" height="15" fill="#6bfc6b" rx="2" ry="2"/>
<text x="1178.4" y="254.0"></text>
</g>
<g>
<title>ru/mail/polis/service/basta123/MyAsyncHttpServerImpl.lambda$putValueByKey$2 (3 samples, 0.27%)</title><rect x="1175.4" y="227.0" width="3.1" height="15" fill="#64f564" rx="2" ry="2"/>
<text x="1178.4" y="238.0"></text>
</g>
<g>
<title>one/nio/http/HttpSession.sendResponse (3 samples, 0.27%)</title><rect x="1175.4" y="211.0" width="3.1" height="15" fill="#5eef5e" rx="2" ry="2"/>
<text x="1178.4" y="222.0"></text>
</g>
<g>
<title>one.nio.http.HttpSession (3 samples, 0.27%)</title><rect x="1175.4" y="195.0" width="3.1" height="15" fill="#5ccaca" rx="2" ry="2"/>
<text x="1178.4" y="206.0"></text>
</g>
<g>
<title>[worker-2 tid=5671] (6 samples, 0.53%)</title><rect x="1178.5" y="307.0" width="6.3" height="15" fill="#f06f6f" rx="2" ry="2"/>
<text x="1181.5" y="318.0"></text>
</g>
<g>
<title>java/lang/Thread.run (6 samples, 0.53%)</title><rect x="1178.5" y="291.0" width="6.3" height="15" fill="#58e958" rx="2" ry="2"/>
<text x="1181.5" y="302.0"></text>
</g>
<g>
<title>java/util/concurrent/ThreadPoolExecutor$Worker.run (6 samples, 0.53%)</title><rect x="1178.5" y="275.0" width="6.3" height="15" fill="#55e655" rx="2" ry="2"/>
<text x="1181.5" y="286.0"></text>
</g>
<g>
<title>java/util/concurrent/ThreadPoolExecutor.runWorker (6 samples, 0.53%)</title><rect x="1178.5" y="259.0" width="6.3" height="15" fill="#64f564" rx="2" ry="2"/>
<text x="1181.5" y="270.0"></text>
</g>
<g>
<title>java/util/concurrent/ThreadPoolExecutor.getTask (6 samples, 0.53%)</title><rect x="1178.5" y="243.0" width="6.3" height="15" fill="#56e756" rx="2" ry="2"/>
<text x="1181.5" y="254.0"></text>
</g>
<g>
<title>java/util/concurrent/ArrayBlockingQueue.take (6 samples, 0.53%)</title><rect x="1178.5" y="227.0" width="6.3" height="15" fill="#57e857" rx="2" ry="2"/>
<text x="1181.5" y="238.0"></text>
</g>
<g>
<title>java/util/concurrent/locks/AbstractQueuedSynchronizer$ConditionObject.await (2 samples, 0.18%)</title><rect x="1178.5" y="211.0" width="2.1" height="15" fill="#54e554" rx="2" ry="2"/>
<text x="1181.5" y="222.0"></text>
</g>
<g>
<title>java/util/concurrent/locks/AbstractQueuedSynchronizer.acquireQueued (2 samples, 0.18%)</title><rect x="1178.5" y="195.0" width="2.1" height="15" fill="#63f463" rx="2" ry="2"/>
<text x="1181.5" y="206.0"></text>
</g>
<g>
<title>java/util/concurrent/locks/AbstractQueuedSynchronizer.parkAndCheckInterrupt (2 samples, 0.18%)</title><rect x="1178.5" y="179.0" width="2.1" height="15" fill="#54e554" rx="2" ry="2"/>
<text x="1181.5" y="190.0"></text>
</g>
<g>
<title>java/util/concurrent/locks/LockSupport.park (2 samples, 0.18%)</title><rect x="1178.5" y="163.0" width="2.1" height="15" fill="#60f160" rx="2" ry="2"/>
<text x="1181.5" y="174.0"></text>
</g>
<g>
<title>jdk/internal/misc/Unsafe.park (2 samples, 0.18%)</title><rect x="1178.5" y="147.0" width="2.1" height="15" fill="#61f261" rx="2" ry="2"/>
<text x="1181.5" y="158.0"></text>
</g>
<g>
<title>java.util.concurrent.locks.ReentrantLock$NonfairSync (2 samples, 0.18%)</title><rect x="1178.5" y="131.0" width="2.1" height="15" fill="#55c3c3" rx="2" ry="2"/>
<text x="1181.5" y="142.0"></text>
</g>
<g>
<title>java/util/concurrent/locks/ReentrantLock.lockInterruptibly (4 samples, 0.35%)</title><rect x="1180.6" y="211.0" width="4.2" height="15" fill="#54e554" rx="2" ry="2"/>
<text x="1183.6" y="222.0"></text>
</g>
<g>
<title>java/util/concurrent/locks/AbstractQueuedSynchronizer.acquireInterruptibly (4 samples, 0.35%)</title><rect x="1180.6" y="195.0" width="4.2" height="15" fill="#54e554" rx="2" ry="2"/>
<text x="1183.6" y="206.0"></text>
</g>
<g>
<title>java/util/concurrent/locks/AbstractQueuedSynchronizer.doAcquireInterruptibly (4 samples, 0.35%)</title><rect x="1180.6" y="179.0" width="4.2" height="15" fill="#65f665" rx="2" ry="2"/>
<text x="1183.6" y="190.0"></text>
</g>
<g>
<title>java/util/concurrent/locks/AbstractQueuedSynchronizer.parkAndCheckInterrupt (4 samples, 0.35%)</title><rect x="1180.6" y="163.0" width="4.2" height="15" fill="#6afb6a" rx="2" ry="2"/>
<text x="1183.6" y="174.0"></text>
</g>
<g>
<title>java/util/concurrent/locks/LockSupport.park (4 samples, 0.35%)</title><rect x="1180.6" y="147.0" width="4.2" height="15" fill="#58e958" rx="2" ry="2"/>
<text x="1183.6" y="158.0"></text>
</g>
<g>
<title>jdk/internal/misc/Unsafe.park (4 samples, 0.35%)</title><rect x="1180.6" y="131.0" width="4.2" height="15" fill="#58e958" rx="2" ry="2"/>
<text x="1183.6" y="142.0"></text>
</g>
<g>
<title>java.util.concurrent.locks.ReentrantLock$NonfairSync (4 samples, 0.35%)</title><rect x="1180.6" y="115.0" width="4.2" height="15" fill="#5ccaca" rx="2" ry="2"/>
<text x="1183.6" y="126.0"></text>
</g>
<g>
<title>[worker-3 tid=5672] (5 samples, 0.44%)</title><rect x="1184.8" y="307.0" width="5.2" height="15" fill="#f17070" rx="2" ry="2"/>
<text x="1187.8" y="318.0"></text>
</g>
<g>
<title>java/lang/Thread.run (5 samples, 0.44%)</title><rect x="1184.8" y="291.0" width="5.2" height="15" fill="#50e150" rx="2" ry="2"/>
<text x="1187.8" y="302.0"></text>
</g>
<g>
<title>java/util/concurrent/ThreadPoolExecutor$Worker.run (5 samples, 0.44%)</title><rect x="1184.8" y="275.0" width="5.2" height="15" fill="#5ff05f" rx="2" ry="2"/>
<text x="1187.8" y="286.0"></text>
</g>
<g>
<title>java/util/concurrent/ThreadPoolExecutor.runWorker (5 samples, 0.44%)</title><rect x="1184.8" y="259.0" width="5.2" height="15" fill="#58e958" rx="2" ry="2"/>
<text x="1187.8" y="270.0"></text>
</g>
<g>
<title>java/util/concurrent/ThreadPoolExecutor.getTask (4 samples, 0.35%)</title><rect x="1184.8" y="243.0" width="4.2" height="15" fill="#68f968" rx="2" ry="2"/>
<text x="1187.8" y="254.0"></text>
</g>
<g>
<title>java/util/concurrent/ArrayBlockingQueue.take (4 samples, 0.35%)</title><rect x="1184.8" y="227.0" width="4.2" height="15" fill="#63f463" rx="2" ry="2"/>
<text x="1187.8" y="238.0"></text>
</g>
<g>
<title>java/util/concurrent/locks/AbstractQueuedSynchronizer$ConditionObject.await (3 samples, 0.27%)</title><rect x="1184.8" y="211.0" width="3.1" height="15" fill="#52e352" rx="2" ry="2"/>
<text x="1187.8" y="222.0"></text>
</g>
<g>
<title>java/util/concurrent/locks/AbstractQueuedSynchronizer.acquireQueued (3 samples, 0.27%)</title><rect x="1184.8" y="195.0" width="3.1" height="15" fill="#50e150" rx="2" ry="2"/>
<text x="1187.8" y="206.0"></text>
</g>
<g>
<title>java/util/concurrent/locks/AbstractQueuedSynchronizer.parkAndCheckInterrupt (3 samples, 0.27%)</title><rect x="1184.8" y="179.0" width="3.1" height="15" fill="#61f261" rx="2" ry="2"/>
<text x="1187.8" y="190.0"></text>
</g>
<g>
<title>java/util/concurrent/locks/LockSupport.park (3 samples, 0.27%)</title><rect x="1184.8" y="163.0" width="3.1" height="15" fill="#67f867" rx="2" ry="2"/>
<text x="1187.8" y="174.0"></text>
</g>
<g>
<title>jdk/internal/misc/Unsafe.park (3 samples, 0.27%)</title><rect x="1184.8" y="147.0" width="3.1" height="15" fill="#5eef5e" rx="2" ry="2"/>
<text x="1187.8" y="158.0"></text>
</g>
<g>
<title>java.util.concurrent.locks.ReentrantLock$NonfairSync (3 samples, 0.27%)</title><rect x="1184.8" y="131.0" width="3.1" height="15" fill="#6ddbdb" rx="2" ry="2"/>
<text x="1187.8" y="142.0"></text>
</g>
<g>
<title>java/util/concurrent/locks/ReentrantLock.lockInterruptibly (1 samples, 0.09%)</title><rect x="1187.9" y="211.0" width="1.1" height="15" fill="#59ea59" rx="2" ry="2"/>
<text x="1190.9" y="222.0"></text>
</g>
<g>
<title>java/util/concurrent/locks/AbstractQueuedSynchronizer.acquireInterruptibly (1 samples, 0.09%)</title><rect x="1187.9" y="195.0" width="1.1" height="15" fill="#67f867" rx="2" ry="2"/>
<text x="1190.9" y="206.0"></text>
</g>
<g>
<title>java/util/concurrent/locks/AbstractQueuedSynchronizer.doAcquireInterruptibly (1 samples, 0.09%)</title><rect x="1187.9" y="179.0" width="1.1" height="15" fill="#54e554" rx="2" ry="2"/>
<text x="1190.9" y="190.0"></text>
</g>
<g>
<title>java/util/concurrent/locks/AbstractQueuedSynchronizer.parkAndCheckInterrupt (1 samples, 0.09%)</title><rect x="1187.9" y="163.0" width="1.1" height="15" fill="#6dfe6d" rx="2" ry="2"/>
<text x="1190.9" y="174.0"></text>
</g>
<g>
<title>java/util/concurrent/locks/LockSupport.park (1 samples, 0.09%)</title><rect x="1187.9" y="147.0" width="1.1" height="15" fill="#6dfe6d" rx="2" ry="2"/>
<text x="1190.9" y="158.0"></text>
</g>
<g>
<title>jdk/internal/misc/Unsafe.park (1 samples, 0.09%)</title><rect x="1187.9" y="131.0" width="1.1" height="15" fill="#5ced5c" rx="2" ry="2"/>
<text x="1190.9" y="142.0"></text>
</g>
<g>
<title>java.util.concurrent.locks.ReentrantLock$NonfairSync (1 samples, 0.09%)</title><rect x="1187.9" y="115.0" width="1.1" height="15" fill="#54c2c2" rx="2" ry="2"/>
<text x="1190.9" y="126.0"></text>
</g>
<g>
<title>ru/mail/polis/service/basta123/MyAsyncHttpServerImpl$$Lambda$66/712804772.run (1 samples, 0.09%)</title><rect x="1189.0" y="243.0" width="1.0" height="15" fill="#62f362" rx="2" ry="2"/>
<text x="1192.0" y="254.0"></text>
</g>
<g>
<title>ru/mail/polis/service/basta123/MyAsyncHttpServerImpl.lambda$putValueByKey$2 (1 samples, 0.09%)</title><rect x="1189.0" y="227.0" width="1.0" height="15" fill="#60f160" rx="2" ry="2"/>
<text x="1192.0" y="238.0"></text>
</g>
<g>
<title>one/nio/http/HttpSession.sendResponse (1 samples, 0.09%)</title><rect x="1189.0" y="211.0" width="1.0" height="15" fill="#65f665" rx="2" ry="2"/>
<text x="1192.0" y="222.0"></text>
</g>
<g>
<title>one.nio.http.HttpSession (1 samples, 0.09%)</title><rect x="1189.0" y="195.0" width="1.0" height="15" fill="#56c4c4" rx="2" ry="2"/>
<text x="1192.0" y="206.0"></text>
</g>
</g>
</svg>
