<?xml version="1.0" standalone="no"?>
<!DOCTYPE svg PUBLIC "-//W3C//DTD SVG 1.1//EN" "http://www.w3.org/Graphics/SVG/1.1/DTD/svg11.dtd">
<svg version="1.1" width="1200" height="534" onload="init(evt)" viewBox="0 0 1200 534"
	 xmlns="http://www.w3.org/2000/svg">
<style type="text/css">
	text { font-family:Verdana; font-size:12px; fill:rgb(0,0,0); }
	#search { opacity:0.1; cursor:pointer; }
	#search:hover, #search.show { opacity:1; }
	#subtitle { text-anchor:middle; font-color:rgb(160,160,160); }
	#title { text-anchor:middle; font-size:17px}
	#unzoom { cursor:pointer; }
	#frames > *:hover { stroke:black; stroke-width:0.5; cursor:pointer; }
	.hide { display:none; }
	.parent { opacity:0.5; }
</style>
<script type="text/ecmascript">
<![CDATA[
	"use strict";
	var details, searchbtn, unzoombtn, matchedtxt, svg, searching;
	function init(evt) {
		details = document.getElementById("details").firstChild;
		searchbtn = document.getElementById("search");
		unzoombtn = document.getElementById("unzoom");
		matchedtxt = document.getElementById("matched");
		svg = document.getElementsByTagName("svg")[0];
		searching = 0;
	}

	window.addEventListener("click", function(e) {
		var target = find_group(e.target);
		if (target) {
			if (target.nodeName == "a") {
				if (e.ctrlKey === false) return;
				e.preventDefault();
			}
			if (target.classList.contains("parent")) unzoom();
			zoom(target);
		}
		else if (e.target.id == "unzoom") unzoom();
		else if (e.target.id == "search") search_prompt();
	}, false)

	// mouse-over for info
	// show
	window.addEventListener("mouseover", function(e) {
		var target = find_group(e.target);
		if (target) details.nodeValue = "Function: " + g_to_text(target);
	}, false)

	// clear
	window.addEventListener("mouseout", function(e) {
		var target = find_group(e.target);
		if (target) details.nodeValue = ' ';
	}, false)

	// ctrl-F for search
	window.addEventListener("keydown",function (e) {
		if (e.keyCode === 114 || (e.ctrlKey && e.keyCode === 70)) {
			e.preventDefault();
			search_prompt();
		}
	}, false)

	// functions
	function find_child(node, selector) {
		var children = node.querySelectorAll(selector);
		if (children.length) return children[0];
		return;
	}
	function find_group(node) {
		var parent = node.parentElement;
		if (!parent) return;
		if (parent.id == "frames") return node;
		return find_group(parent);
	}
	function orig_save(e, attr, val) {
		if (e.attributes["_orig_" + attr] != undefined) return;
		if (e.attributes[attr] == undefined) return;
		if (val == undefined) val = e.attributes[attr].value;
		e.setAttribute("_orig_" + attr, val);
	}
	function orig_load(e, attr) {
		if (e.attributes["_orig_"+attr] == undefined) return;
		e.attributes[attr].value = e.attributes["_orig_" + attr].value;
		e.removeAttribute("_orig_"+attr);
	}
	function g_to_text(e) {
		var text = find_child(e, "title").firstChild.nodeValue;
		return (text)
	}
	function g_to_func(e) {
		var func = g_to_text(e);
		// if there's any manipulation we want to do to the function
		// name before it's searched, do it here before returning.
		return (func);
	}
	function update_text(e) {
		var r = find_child(e, "rect");
		var t = find_child(e, "text");
		var w = parseFloat(r.attributes.width.value) -3;
		var txt = find_child(e, "title").textContent.replace(/\([^(]*\)$/,"");
		t.attributes.x.value = parseFloat(r.attributes.x.value) + 3;

		// Smaller than this size won't fit anything
		if (w < 2 * 12 * 0.59) {
			t.textContent = "";
			return;
		}

		t.textContent = txt;
		// Fit in full text width
		if (/^ *$/.test(txt) || t.getSubStringLength(0, txt.length) < w)
			return;

		for (var x = txt.length - 2; x > 0; x--) {
			if (t.getSubStringLength(0, x + 2) <= w) {
				t.textContent = txt.substring(0, x) + "..";
				return;
			}
		}
		t.textContent = "";
	}

	// zoom
	function zoom_reset(e) {
		if (e.attributes != undefined) {
			orig_load(e, "x");
			orig_load(e, "width");
		}
		if (e.childNodes == undefined) return;
		for (var i = 0, c = e.childNodes; i < c.length; i++) {
			zoom_reset(c[i]);
		}
	}
	function zoom_child(e, x, ratio) {
		if (e.attributes != undefined) {
			if (e.attributes.x != undefined) {
				orig_save(e, "x");
				e.attributes.x.value = (parseFloat(e.attributes.x.value) - x - 10) * ratio + 10;
				if (e.tagName == "text")
					e.attributes.x.value = find_child(e.parentNode, "rect[x]").attributes.x.value + 3;
			}
			if (e.attributes.width != undefined) {
				orig_save(e, "width");
				e.attributes.width.value = parseFloat(e.attributes.width.value) * ratio;
			}
		}

		if (e.childNodes == undefined) return;
		for (var i = 0, c = e.childNodes; i < c.length; i++) {
			zoom_child(c[i], x - 10, ratio);
		}
	}
	function zoom_parent(e) {
		if (e.attributes) {
			if (e.attributes.x != undefined) {
				orig_save(e, "x");
				e.attributes.x.value = 10;
			}
			if (e.attributes.width != undefined) {
				orig_save(e, "width");
				e.attributes.width.value = parseInt(svg.width.baseVal.value) - (10 * 2);
			}
		}
		if (e.childNodes == undefined) return;
		for (var i = 0, c = e.childNodes; i < c.length; i++) {
			zoom_parent(c[i]);
		}
	}
	function zoom(node) {
		var attr = find_child(node, "rect").attributes;
		var width = parseFloat(attr.width.value);
		var xmin = parseFloat(attr.x.value);
		var xmax = parseFloat(xmin + width);
		var ymin = parseFloat(attr.y.value);
		var ratio = (svg.width.baseVal.value - 2 * 10) / width;

		// XXX: Workaround for JavaScript float issues (fix me)
		var fudge = 0.0001;

		unzoombtn.classList.remove("hide");

		var el = document.getElementById("frames").children;
		for (var i = 0; i < el.length; i++) {
			var e = el[i];
			var a = find_child(e, "rect").attributes;
			var ex = parseFloat(a.x.value);
			var ew = parseFloat(a.width.value);
			var upstack;
			// Is it an ancestor
			if (0 == 0) {
				upstack = parseFloat(a.y.value) > ymin;
			} else {
				upstack = parseFloat(a.y.value) < ymin;
			}
			if (upstack) {
				// Direct ancestor
				if (ex <= xmin && (ex+ew+fudge) >= xmax) {
					e.classList.add("parent");
					zoom_parent(e);
					update_text(e);
				}
				// not in current path
				else
					e.classList.add("hide");
			}
			// Children maybe
			else {
				// no common path
				if (ex < xmin || ex + fudge >= xmax) {
					e.classList.add("hide");
				}
				else {
					zoom_child(e, xmin, ratio);
					update_text(e);
				}
			}
		}
	}
	function unzoom() {
		unzoombtn.classList.add("hide");
		var el = document.getElementById("frames").children;
		for(var i = 0; i < el.length; i++) {
			el[i].classList.remove("parent");
			el[i].classList.remove("hide");
			zoom_reset(el[i]);
			update_text(el[i]);
		}
	}

	// search
	function reset_search() {
		var el = document.querySelectorAll("#frames rect");
		for (var i = 0; i < el.length; i++) {
			orig_load(el[i], "fill")
		}
	}
	function search_prompt() {
		if (!searching) {
			var term = prompt("Enter a search term (regexp " +
			    "allowed, eg: ^ext4_)", "");
			if (term != null) {
				search(term)
			}
		} else {
			reset_search();
			searching = 0;
			searchbtn.classList.remove("show");
			searchbtn.firstChild.nodeValue = "Search"
			matchedtxt.classList.add("hide");
			matchedtxt.firstChild.nodeValue = ""
		}
	}
	function search(term) {
		var re = new RegExp(term);
		var el = document.getElementById("frames").children;
		var matches = new Object();
		var maxwidth = 0;
		for (var i = 0; i < el.length; i++) {
			var e = el[i];
			var func = g_to_func(e);
			var rect = find_child(e, "rect");
			if (func == null || rect == null)
				continue;

			// Save max width. Only works as we have a root frame
			var w = parseFloat(rect.attributes.width.value);
			if (w > maxwidth)
				maxwidth = w;

			if (func.match(re)) {
				// highlight
				var x = parseFloat(rect.attributes.x.value);
				orig_save(rect, "fill");
				rect.attributes.fill.value = "rgb(230,0,230)";

				// remember matches
				if (matches[x] == undefined) {
					matches[x] = w;
				} else {
					if (w > matches[x]) {
						// overwrite with parent
						matches[x] = w;
					}
				}
				searching = 1;
			}
		}
		if (!searching)
			return;

		searchbtn.classList.add("show");
		searchbtn.firstChild.nodeValue = "Reset Search";

		// calculate percent matched, excluding vertical overlap
		var count = 0;
		var lastx = -1;
		var lastw = 0;
		var keys = Array();
		for (k in matches) {
			if (matches.hasOwnProperty(k))
				keys.push(k);
		}
		// sort the matched frames by their x location
		// ascending, then width descending
		keys.sort(function(a, b){
			return a - b;
		});
		// Step through frames saving only the biggest bottom-up frames
		// thanks to the sort order. This relies on the tree property
		// where children are always smaller than their parents.
		var fudge = 0.0001;	// JavaScript floating point
		for (var k in keys) {
			var x = parseFloat(keys[k]);
			var w = matches[keys[k]];
			if (x >= lastx + lastw - fudge) {
				count += w;
				lastx = x;
				lastw = w;
			}
		}
		// display matched percent
		matchedtxt.classList.remove("hide");
		var pct = 100 * count / maxwidth;
		if (pct != 100) pct = pct.toFixed(1)
		matchedtxt.firstChild.nodeValue = "Matched: " + pct + "%";
	}
]]>
</script>
<rect x="0" y="0" width="100%" height="100%" fill="rgb(240,240,220)"/>
<text id="title" x="600" y="24">Flame Graph</text>
<text id="details" x="10" y="517"> </text>
<text id="unzoom" x="10" y="24" class="hide">Reset Zoom</text>
<text id="search" x="1090" y="24">Search</text>
<text id="matched" x="1090" y="517"> </text>
<g id="frames">
<g>
<title>all (18,697 samples, 100.00%)</title><rect x="10.0" y="483.0" width="1180.0" height="15" fill="#ef6d6d" rx="2" ry="2"/>
<text x="13.0" y="494.0">all</text>
</g>
<g>
<title>java/lang/Thread.run (18,171 samples, 97.19%)</title><rect x="10.0" y="467.0" width="1146.8" height="15" fill="#63f463" rx="2" ry="2"/>
<text x="13.0" y="478.0">java/lang/Thread.run</text>
</g>
<g>
<title>java/util/concurrent/ThreadPoolExecutor$Worker.run (18,171 samples, 97.19%)</title><rect x="10.0" y="451.0" width="1146.8" height="15" fill="#5bec5b" rx="2" ry="2"/>
<text x="13.0" y="462.0">java/util/concurrent/ThreadPoolExecutor$Worker.run</text>
</g>
<g>
<title>java/util/concurrent/ThreadPoolExecutor.runWorker (18,171 samples, 97.19%)</title><rect x="10.0" y="435.0" width="1146.8" height="15" fill="#6cfd6c" rx="2" ry="2"/>
<text x="13.0" y="446.0">java/util/concurrent/ThreadPoolExecutor.runWorker</text>
</g>
<g>
<title>java/util/concurrent/ThreadPoolExecutor.getTask (121 samples, 0.65%)</title><rect x="10.0" y="419.0" width="7.6" height="15" fill="#54e554" rx="2" ry="2"/>
<text x="13.0" y="430.0"></text>
</g>
<g>
<title>java/util/concurrent/ArrayBlockingQueue.take (119 samples, 0.64%)</title><rect x="10.1" y="403.0" width="7.5" height="15" fill="#65f665" rx="2" ry="2"/>
<text x="13.1" y="414.0"></text>
</g>
<g>
<title>java/util/concurrent/locks/AbstractQueuedSynchronizer$ConditionObject.await (42 samples, 0.22%)</title><rect x="10.1" y="387.0" width="2.7" height="15" fill="#65f665" rx="2" ry="2"/>
<text x="13.1" y="398.0"></text>
</g>
<g>
<title>java/util/concurrent/locks/AbstractQueuedSynchronizer.acquireQueued (42 samples, 0.22%)</title><rect x="10.1" y="371.0" width="2.7" height="15" fill="#68f968" rx="2" ry="2"/>
<text x="13.1" y="382.0"></text>
</g>
<g>
<title>java/util/concurrent/locks/AbstractQueuedSynchronizer.parkAndCheckInterrupt (42 samples, 0.22%)</title><rect x="10.1" y="355.0" width="2.7" height="15" fill="#5ced5c" rx="2" ry="2"/>
<text x="13.1" y="366.0"></text>
</g>
<g>
<title>java/util/concurrent/locks/LockSupport.park (42 samples, 0.22%)</title><rect x="10.1" y="339.0" width="2.7" height="15" fill="#69fa69" rx="2" ry="2"/>
<text x="13.1" y="350.0"></text>
</g>
<g>
<title>jdk/internal/misc/Unsafe.park (42 samples, 0.22%)</title><rect x="10.1" y="323.0" width="2.7" height="15" fill="#62f362" rx="2" ry="2"/>
<text x="13.1" y="334.0"></text>
</g>
<g>
<title>java.util.concurrent.locks.ReentrantLock$NonfairSync (42 samples, 0.22%)</title><rect x="10.1" y="307.0" width="2.7" height="15" fill="#58c6c6" rx="2" ry="2"/>
<text x="13.1" y="318.0"></text>
</g>
<g>
<title>java/util/concurrent/locks/ReentrantLock.lockInterruptibly (77 samples, 0.41%)</title><rect x="12.8" y="387.0" width="4.8" height="15" fill="#50e150" rx="2" ry="2"/>
<text x="15.8" y="398.0"></text>
</g>
<g>
<title>java/util/concurrent/locks/AbstractQueuedSynchronizer.acquireInterruptibly (77 samples, 0.41%)</title><rect x="12.8" y="371.0" width="4.8" height="15" fill="#5bec5b" rx="2" ry="2"/>
<text x="15.8" y="382.0"></text>
</g>
<g>
<title>java/util/concurrent/locks/AbstractQueuedSynchronizer.doAcquireInterruptibly (77 samples, 0.41%)</title><rect x="12.8" y="355.0" width="4.8" height="15" fill="#65f665" rx="2" ry="2"/>
<text x="15.8" y="366.0"></text>
</g>
<g>
<title>java/util/concurrent/locks/AbstractQueuedSynchronizer.parkAndCheckInterrupt (77 samples, 0.41%)</title><rect x="12.8" y="339.0" width="4.8" height="15" fill="#6cfd6c" rx="2" ry="2"/>
<text x="15.8" y="350.0"></text>
</g>
<g>
<title>java/util/concurrent/locks/LockSupport.park (77 samples, 0.41%)</title><rect x="12.8" y="323.0" width="4.8" height="15" fill="#52e352" rx="2" ry="2"/>
<text x="15.8" y="334.0"></text>
</g>
<g>
<title>jdk/internal/misc/Unsafe.park (77 samples, 0.41%)</title><rect x="12.8" y="307.0" width="4.8" height="15" fill="#58e958" rx="2" ry="2"/>
<text x="15.8" y="318.0"></text>
</g>
<g>
<title>java.util.concurrent.locks.ReentrantLock$NonfairSync (77 samples, 0.41%)</title><rect x="12.8" y="291.0" width="4.8" height="15" fill="#65d3d3" rx="2" ry="2"/>
<text x="15.8" y="302.0"></text>
</g>
<g>
<title>ru/mail/polis/service/gogun/AsyncServiceImpl$$Lambda$136/145067326.run (18,050 samples, 96.54%)</title><rect x="17.6" y="419.0" width="1139.2" height="15" fill="#59ea59" rx="2" ry="2"/>
<text x="20.6" y="430.0">ru/mail/polis/service/gogun/AsyncServiceImpl$$Lambda$136/145067326.run</text>
</g>
<g>
<title>ru/mail/polis/service/gogun/AsyncServiceImpl.lambda$get$3 (18,050 samples, 96.54%)</title><rect x="17.6" y="403.0" width="1139.2" height="15" fill="#63f463" rx="2" ry="2"/>
<text x="20.6" y="414.0">ru/mail/polis/service/gogun/AsyncServiceImpl.lambda$get$3</text>
</g>
<g>
<title>ru/mail/polis/service/gogun/AsyncServiceImpl.handleGetRequest (18,050 samples, 96.54%)</title><rect x="17.6" y="387.0" width="1139.2" height="15" fill="#65f665" rx="2" ry="2"/>
<text x="20.6" y="398.0">ru/mail/polis/service/gogun/AsyncServiceImpl.handleGetRequest</text>
</g>
<g>
<title>ru/mail/polis/dao/DAO.get (18,050 samples, 96.54%)</title><rect x="17.6" y="371.0" width="1139.2" height="15" fill="#64f564" rx="2" ry="2"/>
<text x="20.6" y="382.0">ru/mail/polis/dao/DAO.get</text>
</g>
<g>
<title>com/google/common/collect/TransformedIterator.hasNext (401 samples, 2.14%)</title><rect x="17.6" y="355.0" width="25.3" height="15" fill="#6dfe6d" rx="2" ry="2"/>
<text x="20.6" y="366.0">c..</text>
</g>
<g>
<title>com/google/common/collect/AbstractIterator.hasNext (401 samples, 2.14%)</title><rect x="17.6" y="339.0" width="25.3" height="15" fill="#5aeb5a" rx="2" ry="2"/>
<text x="20.6" y="350.0">c..</text>
</g>
<g>
<title>com/google/common/collect/AbstractIterator.tryToComputeNext (401 samples, 2.14%)</title><rect x="17.6" y="323.0" width="25.3" height="15" fill="#54e554" rx="2" ry="2"/>
<text x="20.6" y="334.0">c..</text>
</g>
<g>
<title>com/google/common/collect/Iterators$5.computeNext (401 samples, 2.14%)</title><rect x="17.6" y="307.0" width="25.3" height="15" fill="#56e756" rx="2" ry="2"/>
<text x="20.6" y="318.0">c..</text>
</g>
<g>
<title>ru/mail/polis/dao/Iters$CollapseEqualsIterator.next (401 samples, 2.14%)</title><rect x="17.6" y="291.0" width="25.3" height="15" fill="#63f463" rx="2" ry="2"/>
<text x="20.6" y="302.0">r..</text>
</g>
<g>
<title>com/google/common/collect/Iterators$MergingIterator.next (401 samples, 2.14%)</title><rect x="17.6" y="275.0" width="25.3" height="15" fill="#64f564" rx="2" ry="2"/>
<text x="20.6" y="286.0">c..</text>
</g>
<g>
<title>java/util/PriorityQueue.add (401 samples, 2.14%)</title><rect x="17.6" y="259.0" width="25.3" height="15" fill="#54e554" rx="2" ry="2"/>
<text x="20.6" y="270.0">j..</text>
</g>
<g>
<title>java/util/PriorityQueue.offer (401 samples, 2.14%)</title><rect x="17.6" y="243.0" width="25.3" height="15" fill="#6bfc6b" rx="2" ry="2"/>
<text x="20.6" y="254.0">j..</text>
</g>
<g>
<title>java/util/PriorityQueue.siftUp (401 samples, 2.14%)</title><rect x="17.6" y="227.0" width="25.3" height="15" fill="#55e655" rx="2" ry="2"/>
<text x="20.6" y="238.0">j..</text>
</g>
<g>
<title>java/util/PriorityQueue.siftUpUsingComparator (401 samples, 2.14%)</title><rect x="17.6" y="211.0" width="25.3" height="15" fill="#67f867" rx="2" ry="2"/>
<text x="20.6" y="222.0">j..</text>
</g>
<g>
<title>com/google/common/collect/Iterators$MergingIterator$1.compare (401 samples, 2.14%)</title><rect x="17.6" y="195.0" width="25.3" height="15" fill="#59ea59" rx="2" ry="2"/>
<text x="20.6" y="206.0">c..</text>
</g>
<g>
<title>com/google/common/collect/Iterators$MergingIterator$1.compare (401 samples, 2.14%)</title><rect x="17.6" y="179.0" width="25.3" height="15" fill="#53e453" rx="2" ry="2"/>
<text x="20.6" y="190.0">c..</text>
</g>
<g>
<title>com/google/common/collect/Iterators$PeekingImpl.peek (401 samples, 2.14%)</title><rect x="17.6" y="163.0" width="25.3" height="15" fill="#6cfd6c" rx="2" ry="2"/>
<text x="20.6" y="174.0">c..</text>
</g>
<g>
<title>ru/mail/polis/dao/gogun/SSTable$1.next (401 samples, 2.14%)</title><rect x="17.6" y="147.0" width="25.3" height="15" fill="#51e251" rx="2" ry="2"/>
<text x="20.6" y="158.0">r..</text>
</g>
<g>
<title>ru/mail/polis/dao/gogun/SSTable$1.next (401 samples, 2.14%)</title><rect x="17.6" y="131.0" width="25.3" height="15" fill="#69fa69" rx="2" ry="2"/>
<text x="20.6" y="142.0">r..</text>
</g>
<g>
<title>ru/mail/polis/dao/gogun/SSTable.row (401 samples, 2.14%)</title><rect x="17.6" y="115.0" width="25.3" height="15" fill="#67f867" rx="2" ry="2"/>
<text x="20.6" y="126.0">r..</text>
</g>
<g>
<title>ru/mail/polis/dao/gogun/SSTable.key (217 samples, 1.16%)</title><rect x="17.6" y="99.0" width="13.7" height="15" fill="#5eef5e" rx="2" ry="2"/>
<text x="20.6" y="110.0"></text>
</g>
<g>
<title>sun/nio/ch/FileChannelImpl.read (217 samples, 1.16%)</title><rect x="17.6" y="83.0" width="13.7" height="15" fill="#64f564" rx="2" ry="2"/>
<text x="20.6" y="94.0"></text>
</g>
<g>
<title>sun/nio/ch/FileChannelImpl.readInternal (217 samples, 1.16%)</title><rect x="17.6" y="67.0" width="13.7" height="15" fill="#5bec5b" rx="2" ry="2"/>
<text x="20.6" y="78.0"></text>
</g>
<g>
<title>sun/nio/ch/NativeThreadSet.add (100 samples, 0.53%)</title><rect x="17.6" y="51.0" width="6.3" height="15" fill="#66f766" rx="2" ry="2"/>
<text x="20.6" y="62.0"></text>
</g>
<g>
<title>sun.nio.ch.NativeThreadSet (100 samples, 0.53%)</title><rect x="17.6" y="35.0" width="6.3" height="15" fill="#65d3d3" rx="2" ry="2"/>
<text x="20.6" y="46.0"></text>
</g>
<g>
<title>sun/nio/ch/NativeThreadSet.remove (117 samples, 0.63%)</title><rect x="23.9" y="51.0" width="7.4" height="15" fill="#67f867" rx="2" ry="2"/>
<text x="26.9" y="62.0"></text>
</g>
<g>
<title>sun.nio.ch.NativeThreadSet (117 samples, 0.63%)</title><rect x="23.9" y="35.0" width="7.4" height="15" fill="#5dcbcb" rx="2" ry="2"/>
<text x="26.9" y="46.0"></text>
</g>
<g>
<title>sun/nio/ch/FileChannelImpl.read (184 samples, 0.98%)</title><rect x="31.3" y="99.0" width="11.6" height="15" fill="#63f463" rx="2" ry="2"/>
<text x="34.3" y="110.0"></text>
</g>
<g>
<title>sun/nio/ch/FileChannelImpl.readInternal (184 samples, 0.98%)</title><rect x="31.3" y="83.0" width="11.6" height="15" fill="#69fa69" rx="2" ry="2"/>
<text x="34.3" y="94.0"></text>
</g>
<g>
<title>sun/nio/ch/NativeThreadSet.add (27 samples, 0.14%)</title><rect x="31.3" y="67.0" width="1.7" height="15" fill="#65f665" rx="2" ry="2"/>
<text x="34.3" y="78.0"></text>
</g>
<g>
<title>sun.nio.ch.NativeThreadSet (27 samples, 0.14%)</title><rect x="31.3" y="51.0" width="1.7" height="15" fill="#5bc9c9" rx="2" ry="2"/>
<text x="34.3" y="62.0"></text>
</g>
<g>
<title>sun/nio/ch/NativeThreadSet.remove (157 samples, 0.84%)</title><rect x="33.0" y="67.0" width="9.9" height="15" fill="#55e655" rx="2" ry="2"/>
<text x="36.0" y="78.0"></text>
</g>
<g>
<title>sun.nio.ch.NativeThreadSet (157 samples, 0.84%)</title><rect x="33.0" y="51.0" width="9.9" height="15" fill="#5bc9c9" rx="2" ry="2"/>
<text x="36.0" y="62.0"></text>
</g>
<g>
<title>ru/mail/polis/dao/gogun/DAOImpl.iterator (17,649 samples, 94.39%)</title><rect x="42.9" y="355.0" width="1113.9" height="15" fill="#52e352" rx="2" ry="2"/>
<text x="45.9" y="366.0">ru/mail/polis/dao/gogun/DAOImpl.iterator</text>
</g>
<g>
<title>ru/mail/polis/dao/gogun/DAOImpl.rowIterator (17,649 samples, 94.39%)</title><rect x="42.9" y="339.0" width="1113.9" height="15" fill="#69fa69" rx="2" ry="2"/>
<text x="45.9" y="350.0">ru/mail/polis/dao/gogun/DAOImpl.rowIterator</text>
</g>
<g>
<title>com/google/common/collect/Iterators.mergeSorted (2,627 samples, 14.05%)</title><rect x="42.9" y="323.0" width="165.8" height="15" fill="#5bec5b" rx="2" ry="2"/>
<text x="45.9" y="334.0">com/google/common/col..</text>
</g>
<g>
<title>com/google/common/collect/Iterators$MergingIterator.&lt;init&gt; (2,627 samples, 14.05%)</title><rect x="42.9" y="307.0" width="165.8" height="15" fill="#5dee5d" rx="2" ry="2"/>
<text x="45.9" y="318.0">com/google/common/col..</text>
</g>
<g>
<title>java/util/PriorityQueue.add (2,627 samples, 14.05%)</title><rect x="42.9" y="291.0" width="165.8" height="15" fill="#6dfe6d" rx="2" ry="2"/>
<text x="45.9" y="302.0">java/util/PriorityQue..</text>
</g>
<g>
<title>java/util/PriorityQueue.offer (2,627 samples, 14.05%)</title><rect x="42.9" y="275.0" width="165.8" height="15" fill="#61f261" rx="2" ry="2"/>
<text x="45.9" y="286.0">java/util/PriorityQue..</text>
</g>
<g>
<title>java/util/PriorityQueue.siftUp (2,627 samples, 14.05%)</title><rect x="42.9" y="259.0" width="165.8" height="15" fill="#52e352" rx="2" ry="2"/>
<text x="45.9" y="270.0">java/util/PriorityQue..</text>
</g>
<g>
<title>java/util/PriorityQueue.siftUpUsingComparator (2,627 samples, 14.05%)</title><rect x="42.9" y="243.0" width="165.8" height="15" fill="#64f564" rx="2" ry="2"/>
<text x="45.9" y="254.0">java/util/PriorityQue..</text>
</g>
<g>
<title>com/google/common/collect/Iterators$MergingIterator$1.compare (2,627 samples, 14.05%)</title><rect x="42.9" y="227.0" width="165.8" height="15" fill="#65f665" rx="2" ry="2"/>
<text x="45.9" y="238.0">com/google/common/col..</text>
</g>
<g>
<title>com/google/common/collect/Iterators$MergingIterator$1.compare (2,627 samples, 14.05%)</title><rect x="42.9" y="211.0" width="165.8" height="15" fill="#50e150" rx="2" ry="2"/>
<text x="45.9" y="222.0">com/google/common/col..</text>
</g>
<g>
<title>com/google/common/collect/Iterators$PeekingImpl.peek (2,627 samples, 14.05%)</title><rect x="42.9" y="195.0" width="165.8" height="15" fill="#6afb6a" rx="2" ry="2"/>
<text x="45.9" y="206.0">com/google/common/col..</text>
</g>
<g>
<title>ru/mail/polis/dao/gogun/SSTable$1.next (2,627 samples, 14.05%)</title><rect x="42.9" y="179.0" width="165.8" height="15" fill="#5ff05f" rx="2" ry="2"/>
<text x="45.9" y="190.0">ru/mail/polis/dao/gog..</text>
</g>
<g>
<title>ru/mail/polis/dao/gogun/SSTable$1.next (2,627 samples, 14.05%)</title><rect x="42.9" y="163.0" width="165.8" height="15" fill="#5aeb5a" rx="2" ry="2"/>
<text x="45.9" y="174.0">ru/mail/polis/dao/gog..</text>
</g>
<g>
<title>ru/mail/polis/dao/gogun/SSTable.row (2,627 samples, 14.05%)</title><rect x="42.9" y="147.0" width="165.8" height="15" fill="#6dfe6d" rx="2" ry="2"/>
<text x="45.9" y="158.0">ru/mail/polis/dao/gog..</text>
</g>
<g>
<title>ru/mail/polis/dao/gogun/SSTable.key (1,426 samples, 7.63%)</title><rect x="42.9" y="131.0" width="90.0" height="15" fill="#5dee5d" rx="2" ry="2"/>
<text x="45.9" y="142.0">ru/mail/po..</text>
</g>
<g>
<title>sun/nio/ch/FileChannelImpl.read (1,426 samples, 7.63%)</title><rect x="42.9" y="115.0" width="90.0" height="15" fill="#5bec5b" rx="2" ry="2"/>
<text x="45.9" y="126.0">sun/nio/ch..</text>
</g>
<g>
<title>sun/nio/ch/FileChannelImpl.readInternal (1,426 samples, 7.63%)</title><rect x="42.9" y="99.0" width="90.0" height="15" fill="#68f968" rx="2" ry="2"/>
<text x="45.9" y="110.0">sun/nio/ch..</text>
</g>
<g>
<title>sun/nio/ch/NativeThreadSet.add (778 samples, 4.16%)</title><rect x="42.9" y="83.0" width="49.1" height="15" fill="#56e756" rx="2" ry="2"/>
<text x="45.9" y="94.0">sun/n..</text>
</g>
<g>
<title>sun.nio.ch.NativeThreadSet (778 samples, 4.16%)</title><rect x="42.9" y="67.0" width="49.1" height="15" fill="#69d7d7" rx="2" ry="2"/>
<text x="45.9" y="78.0">sun.n..</text>
</g>
<g>
<title>sun/nio/ch/NativeThreadSet.remove (648 samples, 3.47%)</title><rect x="92.0" y="83.0" width="40.9" height="15" fill="#5ff05f" rx="2" ry="2"/>
<text x="95.0" y="94.0">sun..</text>
</g>
<g>
<title>sun.nio.ch.NativeThreadSet (648 samples, 3.47%)</title><rect x="92.0" y="67.0" width="40.9" height="15" fill="#62d0d0" rx="2" ry="2"/>
<text x="95.0" y="78.0">sun..</text>
</g>
<g>
<title>sun/nio/ch/FileChannelImpl.read (1,201 samples, 6.42%)</title><rect x="132.9" y="131.0" width="75.8" height="15" fill="#61f261" rx="2" ry="2"/>
<text x="135.9" y="142.0">sun/nio/..</text>
</g>
<g>
<title>sun/nio/ch/FileChannelImpl.readInternal (1,201 samples, 6.42%)</title><rect x="132.9" y="115.0" width="75.8" height="15" fill="#56e756" rx="2" ry="2"/>
<text x="135.9" y="126.0">sun/nio/..</text>
</g>
<g>
<title>sun/nio/ch/NativeThreadSet.add (175 samples, 0.94%)</title><rect x="132.9" y="99.0" width="11.1" height="15" fill="#5bec5b" rx="2" ry="2"/>
<text x="135.9" y="110.0"></text>
</g>
<g>
<title>sun.nio.ch.NativeThreadSet (175 samples, 0.94%)</title><rect x="132.9" y="83.0" width="11.1" height="15" fill="#51bfbf" rx="2" ry="2"/>
<text x="135.9" y="94.0"></text>
</g>
<g>
<title>sun/nio/ch/NativeThreadSet.remove (1,026 samples, 5.49%)</title><rect x="144.0" y="99.0" width="64.7" height="15" fill="#6afb6a" rx="2" ry="2"/>
<text x="147.0" y="110.0">sun/nio..</text>
</g>
<g>
<title>sun.nio.ch.NativeThreadSet (1,026 samples, 5.49%)</title><rect x="144.0" y="83.0" width="64.7" height="15" fill="#57c5c5" rx="2" ry="2"/>
<text x="147.0" y="94.0">sun.nio..</text>
</g>
<g>
<title>java/lang/Iterable.forEach (14,586 samples, 78.01%)</title><rect x="208.7" y="323.0" width="920.6" height="15" fill="#66f766" rx="2" ry="2"/>
<text x="211.7" y="334.0">java/lang/Iterable.forEach</text>
</g>
<g>
<title>ru/mail/polis/dao/gogun/DAOImpl$$Lambda$142/2067733446.accept (14,586 samples, 78.01%)</title><rect x="208.7" y="307.0" width="920.6" height="15" fill="#58e958" rx="2" ry="2"/>
<text x="211.7" y="318.0">ru/mail/polis/dao/gogun/DAOImpl$$Lambda$142/2067733446.accept</text>
</g>
<g>
<title>ru/mail/polis/dao/gogun/DAOImpl.lambda$rowIterator$7 (14,586 samples, 78.01%)</title><rect x="208.7" y="291.0" width="920.6" height="15" fill="#5dee5d" rx="2" ry="2"/>
<text x="211.7" y="302.0">ru/mail/polis/dao/gogun/DAOImpl.lambda$rowIterator$7</text>
</g>
<g>
<title>ru/mail/polis/dao/gogun/SSTable.iterator (14,586 samples, 78.01%)</title><rect x="208.7" y="275.0" width="920.6" height="15" fill="#53e453" rx="2" ry="2"/>
<text x="211.7" y="286.0">ru/mail/polis/dao/gogun/SSTable.iterator</text>
</g>
<g>
<title>ru/mail/polis/dao/gogun/SSTable$1.&lt;init&gt; (14,586 samples, 78.01%)</title><rect x="208.7" y="259.0" width="920.6" height="15" fill="#5aeb5a" rx="2" ry="2"/>
<text x="211.7" y="270.0">ru/mail/polis/dao/gogun/SSTable$1.&lt;init&gt;</text>
</g>
<g>
<title>ru/mail/polis/dao/gogun/SSTable.binarySearch (14,586 samples, 78.01%)</title><rect x="208.7" y="243.0" width="920.6" height="15" fill="#58e958" rx="2" ry="2"/>
<text x="211.7" y="254.0">ru/mail/polis/dao/gogun/SSTable.binarySearch</text>
</g>
<g>
<title>ru/mail/polis/dao/gogun/SSTable.key (14,586 samples, 78.01%)</title><rect x="208.7" y="227.0" width="920.6" height="15" fill="#5eef5e" rx="2" ry="2"/>
<text x="211.7" y="238.0">ru/mail/polis/dao/gogun/SSTable.key</text>
</g>
<g>
<title>sun/nio/ch/FileChannelImpl.read (14,586 samples, 78.01%)</title><rect x="208.7" y="211.0" width="920.6" height="15" fill="#67f867" rx="2" ry="2"/>
<text x="211.7" y="222.0">sun/nio/ch/FileChannelImpl.read</text>
</g>
<g>
<title>sun/nio/ch/FileChannelImpl.readInternal (14,586 samples, 78.01%)</title><rect x="208.7" y="195.0" width="920.6" height="15" fill="#58e958" rx="2" ry="2"/>
<text x="211.7" y="206.0">sun/nio/ch/FileChannelImpl.readInternal</text>
</g>
<g>
<title>sun/nio/ch/NativeThreadSet.add (2,532 samples, 13.54%)</title><rect x="208.7" y="179.0" width="159.8" height="15" fill="#52e352" rx="2" ry="2"/>
<text x="211.7" y="190.0">sun/nio/ch/NativeThr..</text>
</g>
<g>
<title>sun.nio.ch.NativeThreadSet (2,532 samples, 13.54%)</title><rect x="208.7" y="163.0" width="159.8" height="15" fill="#6ad8d8" rx="2" ry="2"/>
<text x="211.7" y="174.0">sun.nio.ch.NativeThr..</text>
</g>
<g>
<title>sun/nio/ch/NativeThreadSet.remove (12,054 samples, 64.47%)</title><rect x="368.5" y="179.0" width="760.8" height="15" fill="#6dfe6d" rx="2" ry="2"/>
<text x="371.5" y="190.0">sun/nio/ch/NativeThreadSet.remove</text>
</g>
<g>
<title>sun.nio.ch.NativeThreadSet (12,054 samples, 64.47%)</title><rect x="368.5" y="163.0" width="760.8" height="15" fill="#68d6d6" rx="2" ry="2"/>
<text x="371.5" y="174.0">sun.nio.ch.NativeThreadSet</text>
</g>
<g>
<title>ru/mail/polis/dao/Iters.collapseEquals (436 samples, 2.33%)</title><rect x="1129.3" y="323.0" width="27.5" height="15" fill="#6bfc6b" rx="2" ry="2"/>
<text x="1132.3" y="334.0">r..</text>
</g>
<g>
<title>ru/mail/polis/dao/Iters$CollapseEqualsIterator.&lt;init&gt; (436 samples, 2.33%)</title><rect x="1129.3" y="307.0" width="27.5" height="15" fill="#69fa69" rx="2" ry="2"/>
<text x="1132.3" y="318.0">r..</text>
</g>
<g>
<title>com/google/common/collect/Iterators$MergingIterator.next (436 samples, 2.33%)</title><rect x="1129.3" y="291.0" width="27.5" height="15" fill="#5aeb5a" rx="2" ry="2"/>
<text x="1132.3" y="302.0">c..</text>
</g>
<g>
<title>java/util/PriorityQueue.add (436 samples, 2.33%)</title><rect x="1129.3" y="275.0" width="27.5" height="15" fill="#57e857" rx="2" ry="2"/>
<text x="1132.3" y="286.0">j..</text>
</g>
<g>
<title>java/util/PriorityQueue.offer (436 samples, 2.33%)</title><rect x="1129.3" y="259.0" width="27.5" height="15" fill="#69fa69" rx="2" ry="2"/>
<text x="1132.3" y="270.0">j..</text>
</g>
<g>
<title>java/util/PriorityQueue.siftUp (436 samples, 2.33%)</title><rect x="1129.3" y="243.0" width="27.5" height="15" fill="#67f867" rx="2" ry="2"/>
<text x="1132.3" y="254.0">j..</text>
</g>
<g>
<title>java/util/PriorityQueue.siftUpUsingComparator (436 samples, 2.33%)</title><rect x="1129.3" y="227.0" width="27.5" height="15" fill="#62f362" rx="2" ry="2"/>
<text x="1132.3" y="238.0">j..</text>
</g>
<g>
<title>com/google/common/collect/Iterators$MergingIterator$1.compare (436 samples, 2.33%)</title><rect x="1129.3" y="211.0" width="27.5" height="15" fill="#64f564" rx="2" ry="2"/>
<text x="1132.3" y="222.0">c..</text>
</g>
<g>
<title>com/google/common/collect/Iterators$MergingIterator$1.compare (436 samples, 2.33%)</title><rect x="1129.3" y="195.0" width="27.5" height="15" fill="#50e150" rx="2" ry="2"/>
<text x="1132.3" y="206.0">c..</text>
</g>
<g>
<title>com/google/common/collect/Iterators$PeekingImpl.peek (436 samples, 2.33%)</title><rect x="1129.3" y="179.0" width="27.5" height="15" fill="#5eef5e" rx="2" ry="2"/>
<text x="1132.3" y="190.0">c..</text>
</g>
<g>
<title>ru/mail/polis/dao/gogun/SSTable$1.next (436 samples, 2.33%)</title><rect x="1129.3" y="163.0" width="27.5" height="15" fill="#55e655" rx="2" ry="2"/>
<text x="1132.3" y="174.0">r..</text>
</g>
<g>
<title>ru/mail/polis/dao/gogun/SSTable$1.next (436 samples, 2.33%)</title><rect x="1129.3" y="147.0" width="27.5" height="15" fill="#63f463" rx="2" ry="2"/>
<text x="1132.3" y="158.0">r..</text>
</g>
<g>
<title>ru/mail/polis/dao/gogun/SSTable.row (436 samples, 2.33%)</title><rect x="1129.3" y="131.0" width="27.5" height="15" fill="#51e251" rx="2" ry="2"/>
<text x="1132.3" y="142.0">r..</text>
</g>
<g>
<title>ru/mail/polis/dao/gogun/SSTable.key (234 samples, 1.25%)</title><rect x="1129.3" y="115.0" width="14.8" height="15" fill="#5ced5c" rx="2" ry="2"/>
<text x="1132.3" y="126.0"></text>
</g>
<g>
<title>sun/nio/ch/FileChannelImpl.read (234 samples, 1.25%)</title><rect x="1129.3" y="99.0" width="14.8" height="15" fill="#50e150" rx="2" ry="2"/>
<text x="1132.3" y="110.0"></text>
</g>
<g>
<title>sun/nio/ch/FileChannelImpl.readInternal (234 samples, 1.25%)</title><rect x="1129.3" y="83.0" width="14.8" height="15" fill="#53e453" rx="2" ry="2"/>
<text x="1132.3" y="94.0"></text>
</g>
<g>
<title>sun/nio/ch/NativeThreadSet.add (105 samples, 0.56%)</title><rect x="1129.3" y="67.0" width="6.6" height="15" fill="#59ea59" rx="2" ry="2"/>
<text x="1132.3" y="78.0"></text>
</g>
<g>
<title>sun.nio.ch.NativeThreadSet (105 samples, 0.56%)</title><rect x="1129.3" y="51.0" width="6.6" height="15" fill="#58c6c6" rx="2" ry="2"/>
<text x="1132.3" y="62.0"></text>
</g>
<g>
<title>sun/nio/ch/NativeThreadSet.remove (129 samples, 0.69%)</title><rect x="1135.9" y="67.0" width="8.2" height="15" fill="#69fa69" rx="2" ry="2"/>
<text x="1138.9" y="78.0"></text>
</g>
<g>
<title>sun.nio.ch.NativeThreadSet (129 samples, 0.69%)</title><rect x="1135.9" y="51.0" width="8.2" height="15" fill="#61cfcf" rx="2" ry="2"/>
<text x="1138.9" y="62.0"></text>
</g>
<g>
<title>sun/nio/ch/FileChannelImpl.read (202 samples, 1.08%)</title><rect x="1144.1" y="115.0" width="12.7" height="15" fill="#65f665" rx="2" ry="2"/>
<text x="1147.1" y="126.0"></text>
</g>
<g>
<title>sun/nio/ch/FileChannelImpl.readInternal (202 samples, 1.08%)</title><rect x="1144.1" y="99.0" width="12.7" height="15" fill="#6dfe6d" rx="2" ry="2"/>
<text x="1147.1" y="110.0"></text>
</g>
<g>
<title>sun/nio/ch/NativeThreadSet.add (27 samples, 0.14%)</title><rect x="1144.1" y="83.0" width="1.7" height="15" fill="#6bfc6b" rx="2" ry="2"/>
<text x="1147.1" y="94.0"></text>
</g>
<g>
<title>sun.nio.ch.NativeThreadSet (27 samples, 0.14%)</title><rect x="1144.1" y="67.0" width="1.7" height="15" fill="#50bebe" rx="2" ry="2"/>
<text x="1147.1" y="78.0"></text>
</g>
<g>
<title>sun/nio/ch/NativeThreadSet.remove (175 samples, 0.94%)</title><rect x="1145.8" y="83.0" width="11.0" height="15" fill="#5eef5e" rx="2" ry="2"/>
<text x="1148.8" y="94.0"></text>
</g>
<g>
<title>sun.nio.ch.NativeThreadSet (175 samples, 0.94%)</title><rect x="1145.8" y="67.0" width="11.0" height="15" fill="#65d3d3" rx="2" ry="2"/>
<text x="1148.8" y="78.0"></text>
</g>
<g>
<title>one/nio/server/SelectorThread.run (526 samples, 2.81%)</title><rect x="1156.8" y="467.0" width="33.2" height="15" fill="#58e958" rx="2" ry="2"/>
<text x="1159.8" y="478.0">on..</text>
</g>
<g>
<title>one/nio/net/Session.process (526 samples, 2.81%)</title><rect x="1156.8" y="451.0" width="33.2" height="15" fill="#61f261" rx="2" ry="2"/>
<text x="1159.8" y="462.0">on..</text>
</g>
<g>
<title>one.nio.http.HttpSession (315 samples, 1.68%)</title><rect x="1156.8" y="435.0" width="19.9" height="15" fill="#62d0d0" rx="2" ry="2"/>
<text x="1159.8" y="446.0"></text>
</g>
<g>
<title>one/nio/http/HttpSession.processRead (211 samples, 1.13%)</title><rect x="1176.7" y="435.0" width="13.3" height="15" fill="#58e958" rx="2" ry="2"/>
<text x="1179.7" y="446.0"></text>
</g>
<g>
<title>one/nio/http/HttpSession.processHttpBuffer (211 samples, 1.13%)</title><rect x="1176.7" y="419.0" width="13.3" height="15" fill="#5bec5b" rx="2" ry="2"/>
<text x="1179.7" y="430.0"></text>
</g>
<g>
<title>one/nio/http/HttpSession.handleParsedRequest (211 samples, 1.13%)</title><rect x="1176.7" y="403.0" width="13.3" height="15" fill="#60f160" rx="2" ry="2"/>
<text x="1179.7" y="414.0"></text>
</g>
<g>
<title>one/nio/http/HttpServer.handleRequest (211 samples, 1.13%)</title><rect x="1176.7" y="387.0" width="13.3" height="15" fill="#53e453" rx="2" ry="2"/>
<text x="1179.7" y="398.0"></text>
</g>
<g>
<title>RequestHandler0_get.handleRequest (211 samples, 1.13%)</title><rect x="1176.7" y="371.0" width="13.3" height="15" fill="#65f665" rx="2" ry="2"/>
<text x="1179.7" y="382.0"></text>
</g>
<g>
<title>ru/mail/polis/service/gogun/AsyncServiceImpl.get (211 samples, 1.13%)</title><rect x="1176.7" y="355.0" width="13.3" height="15" fill="#67f867" rx="2" ry="2"/>
<text x="1179.7" y="366.0"></text>
</g>
<g>
<title>java/util/concurrent/ThreadPoolExecutor.execute (211 samples, 1.13%)</title><rect x="1176.7" y="339.0" width="13.3" height="15" fill="#6dfe6d" rx="2" ry="2"/>
<text x="1179.7" y="350.0"></text>
</g>
<g>
<title>java/util/concurrent/ArrayBlockingQueue.offer (204 samples, 1.09%)</title><rect x="1176.7" y="323.0" width="12.9" height="15" fill="#5ff05f" rx="2" ry="2"/>
<text x="1179.7" y="334.0"></text>
</g>
<g>
<title>java/util/concurrent/locks/ReentrantLock.lock (204 samples, 1.09%)</title><rect x="1176.7" y="307.0" width="12.9" height="15" fill="#5ced5c" rx="2" ry="2"/>
<text x="1179.7" y="318.0"></text>
</g>
<g>
<title>java/util/concurrent/locks/AbstractQueuedSynchronizer.acquire (204 samples, 1.09%)</title><rect x="1176.7" y="291.0" width="12.9" height="15" fill="#63f463" rx="2" ry="2"/>
<text x="1179.7" y="302.0"></text>
</g>
<g>
<title>java/util/concurrent/locks/AbstractQueuedSynchronizer.acquireQueued (204 samples, 1.09%)</title><rect x="1176.7" y="275.0" width="12.9" height="15" fill="#60f160" rx="2" ry="2"/>
<text x="1179.7" y="286.0"></text>
</g>
<g>
<title>java/util/concurrent/locks/AbstractQueuedSynchronizer.parkAndCheckInterrupt (204 samples, 1.09%)</title><rect x="1176.7" y="259.0" width="12.9" height="15" fill="#6afb6a" rx="2" ry="2"/>
<text x="1179.7" y="270.0"></text>
</g>
<g>
<title>java/util/concurrent/locks/LockSupport.park (204 samples, 1.09%)</title><rect x="1176.7" y="243.0" width="12.9" height="15" fill="#68f968" rx="2" ry="2"/>
<text x="1179.7" y="254.0"></text>
</g>
<g>
<title>jdk/internal/misc/Unsafe.park (204 samples, 1.09%)</title><rect x="1176.7" y="227.0" width="12.9" height="15" fill="#55e655" rx="2" ry="2"/>
<text x="1179.7" y="238.0"></text>
</g>
<g>
<title>java.util.concurrent.locks.ReentrantLock$NonfairSync (204 samples, 1.09%)</title><rect x="1176.7" y="211.0" width="12.9" height="15" fill="#6cdada" rx="2" ry="2"/>
<text x="1179.7" y="222.0"></text>
</g>
<g>
<title>java/util/concurrent/ThreadPoolExecutor.addWorker (7 samples, 0.04%)</title><rect x="1189.6" y="323.0" width="0.4" height="15" fill="#57e857" rx="2" ry="2"/>
<text x="1192.6" y="334.0"></text>
</g>
<g>
<title>java/util/concurrent/locks/ReentrantLock.lock (7 samples, 0.04%)</title><rect x="1189.6" y="307.0" width="0.4" height="15" fill="#56e756" rx="2" ry="2"/>
<text x="1192.6" y="318.0"></text>
</g>
<g>
<title>java/util/concurrent/locks/AbstractQueuedSynchronizer.acquire (7 samples, 0.04%)</title><rect x="1189.6" y="291.0" width="0.4" height="15" fill="#51e251" rx="2" ry="2"/>
<text x="1192.6" y="302.0"></text>
</g>
<g>
<title>java/util/concurrent/locks/AbstractQueuedSynchronizer.acquireQueued (7 samples, 0.04%)</title><rect x="1189.6" y="275.0" width="0.4" height="15" fill="#60f160" rx="2" ry="2"/>
<text x="1192.6" y="286.0"></text>
</g>
<g>
<title>java/util/concurrent/locks/AbstractQueuedSynchronizer.parkAndCheckInterrupt (7 samples, 0.04%)</title><rect x="1189.6" y="259.0" width="0.4" height="15" fill="#5eef5e" rx="2" ry="2"/>
<text x="1192.6" y="270.0"></text>
</g>
<g>
<title>java/util/concurrent/locks/LockSupport.park (7 samples, 0.04%)</title><rect x="1189.6" y="243.0" width="0.4" height="15" fill="#6bfc6b" rx="2" ry="2"/>
<text x="1192.6" y="254.0"></text>
</g>
<g>
<title>jdk/internal/misc/Unsafe.park (7 samples, 0.04%)</title><rect x="1189.6" y="227.0" width="0.4" height="15" fill="#53e453" rx="2" ry="2"/>
<text x="1192.6" y="238.0"></text>
</g>
<g>
<title>java.util.concurrent.locks.ReentrantLock$NonfairSync (7 samples, 0.04%)</title><rect x="1189.6" y="211.0" width="0.4" height="15" fill="#56c4c4" rx="2" ry="2"/>
<text x="1192.6" y="222.0"></text>
</g>
</g>
</svg>
