<?xml version="1.0" standalone="no"?>
<!DOCTYPE svg PUBLIC "-//W3C//DTD SVG 1.1//EN" "http://www.w3.org/Graphics/SVG/1.1/DTD/svg11.dtd">
<svg version="1.1" width="1200" height="390" onload="init(evt)" viewBox="0 0 1200 390" xmlns="http://www.w3.org/2000/svg" xmlns:xlink="http://www.w3.org/1999/xlink">
<style type="text/css">
	text { font-family:Verdana; font-size:12px; fill:rgb(0,0,0); }
	#search { opacity:0.1; cursor:pointer; }
	#search:hover, #search.show { opacity:1; }
	#subtitle { text-anchor:middle; font-color:rgb(160,160,160); }
	#title { text-anchor:middle; font-size:17px}
	#unzoom { cursor:pointer; }
	#frames > *:hover { stroke:black; stroke-width:0.5; cursor:pointer; }
	.hide { display:none; }
	.parent { opacity:0.5; }
</style>
<script type="text/ecmascript">
<![CDATA[
	"use strict";
	var details, searchbtn, unzoombtn, matchedtxt, svg, searching;
	function init(evt) {
		details = document.getElementById("details").firstChild;
		searchbtn = document.getElementById("search");
		unzoombtn = document.getElementById("unzoom");
		matchedtxt = document.getElementById("matched");
		svg = document.getElementsByTagName("svg")[0];
		searching = 0;
	}

	window.addEventListener("click", function(e) {
		var target = find_group(e.target);
		if (target) {
			if (target.nodeName == "a") {
				if (e.ctrlKey === false) return;
				e.preventDefault();
			}
			if (target.classList.contains("parent")) unzoom();
			zoom(target);
		}
		else if (e.target.id == "unzoom") unzoom();
		else if (e.target.id == "search") search_prompt();
	}, false)

	// mouse-over for info
	// show
	window.addEventListener("mouseover", function(e) {
		var target = find_group(e.target);
		if (target) details.nodeValue = "Function: " + g_to_text(target);
	}, false)

	// clear
	window.addEventListener("mouseout", function(e) {
		var target = find_group(e.target);
		if (target) details.nodeValue = ' ';
	}, false)

	// ctrl-F for search
	window.addEventListener("keydown",function (e) {
		if (e.keyCode === 114 || (e.ctrlKey && e.keyCode === 70)) {
			e.preventDefault();
			search_prompt();
		}
	}, false)

	// functions
	function find_child(node, selector) {
		var children = node.querySelectorAll(selector);
		if (children.length) return children[0];
		return;
	}
	function find_group(node) {
		var parent = node.parentElement;
		if (!parent) return;
		if (parent.id == "frames") return node;
		return find_group(parent);
	}
	function orig_save(e, attr, val) {
		if (e.attributes["_orig_" + attr] != undefined) return;
		if (e.attributes[attr] == undefined) return;
		if (val == undefined) val = e.attributes[attr].value;
		e.setAttribute("_orig_" + attr, val);
	}
	function orig_load(e, attr) {
		if (e.attributes["_orig_"+attr] == undefined) return;
		e.attributes[attr].value = e.attributes["_orig_" + attr].value;
		e.removeAttribute("_orig_"+attr);
	}
	function g_to_text(e) {
		var text = find_child(e, "title").firstChild.nodeValue;
		return (text)
	}
	function g_to_func(e) {
		var func = g_to_text(e);
		// if there's any manipulation we want to do to the function
		// name before it's searched, do it here before returning.
		return (func);
	}
	function update_text(e) {
		var r = find_child(e, "rect");
		var t = find_child(e, "text");
		var w = parseFloat(r.attributes.width.value) -3;
		var txt = find_child(e, "title").textContent.replace(/\([^(]*\)$/,"");
		t.attributes.x.value = parseFloat(r.attributes.x.value) + 3;

		// Smaller than this size won't fit anything
		if (w < 2 * 12 * 0.59) {
			t.textContent = "";
			return;
		}

		t.textContent = txt;
		// Fit in full text width
		if (/^ *$/.test(txt) || t.getSubStringLength(0, txt.length) < w)
			return;

		for (var x = txt.length - 2; x > 0; x--) {
			if (t.getSubStringLength(0, x + 2) <= w) {
				t.textContent = txt.substring(0, x) + "..";
				return;
			}
		}
		t.textContent = "";
	}

	// zoom
	function zoom_reset(e) {
		if (e.attributes != undefined) {
			orig_load(e, "x");
			orig_load(e, "width");
		}
		if (e.childNodes == undefined) return;
		for (var i = 0, c = e.childNodes; i < c.length; i++) {
			zoom_reset(c[i]);
		}
	}
	function zoom_child(e, x, ratio) {
		if (e.attributes != undefined) {
			if (e.attributes.x != undefined) {
				orig_save(e, "x");
				e.attributes.x.value = (parseFloat(e.attributes.x.value) - x - 10) * ratio + 10;
				if (e.tagName == "text")
					e.attributes.x.value = find_child(e.parentNode, "rect[x]").attributes.x.value + 3;
			}
			if (e.attributes.width != undefined) {
				orig_save(e, "width");
				e.attributes.width.value = parseFloat(e.attributes.width.value) * ratio;
			}
		}

		if (e.childNodes == undefined) return;
		for (var i = 0, c = e.childNodes; i < c.length; i++) {
			zoom_child(c[i], x - 10, ratio);
		}
	}
	function zoom_parent(e) {
		if (e.attributes) {
			if (e.attributes.x != undefined) {
				orig_save(e, "x");
				e.attributes.x.value = 10;
			}
			if (e.attributes.width != undefined) {
				orig_save(e, "width");
				e.attributes.width.value = parseInt(svg.width.baseVal.value) - (10 * 2);
			}
		}
		if (e.childNodes == undefined) return;
		for (var i = 0, c = e.childNodes; i < c.length; i++) {
			zoom_parent(c[i]);
		}
	}
	function zoom(node) {
		var attr = find_child(node, "rect").attributes;
		var width = parseFloat(attr.width.value);
		var xmin = parseFloat(attr.x.value);
		var xmax = parseFloat(xmin + width);
		var ymin = parseFloat(attr.y.value);
		var ratio = (svg.width.baseVal.value - 2 * 10) / width;

		// XXX: Workaround for JavaScript float issues (fix me)
		var fudge = 0.0001;

		unzoombtn.classList.remove("hide");

		var el = document.getElementById("frames").children;
		for (var i = 0; i < el.length; i++) {
			var e = el[i];
			var a = find_child(e, "rect").attributes;
			var ex = parseFloat(a.x.value);
			var ew = parseFloat(a.width.value);
			var upstack;
			// Is it an ancestor
			if (0 == 0) {
				upstack = parseFloat(a.y.value) > ymin;
			} else {
				upstack = parseFloat(a.y.value) < ymin;
			}
			if (upstack) {
				// Direct ancestor
				if (ex <= xmin && (ex+ew+fudge) >= xmax) {
					e.classList.add("parent");
					zoom_parent(e);
					update_text(e);
				}
				// not in current path
				else
					e.classList.add("hide");
			}
			// Children maybe
			else {
				// no common path
				if (ex < xmin || ex + fudge >= xmax) {
					e.classList.add("hide");
				}
				else {
					zoom_child(e, xmin, ratio);
					update_text(e);
				}
			}
		}
	}
	function unzoom() {
		unzoombtn.classList.add("hide");
		var el = document.getElementById("frames").children;
		for(var i = 0; i < el.length; i++) {
			el[i].classList.remove("parent");
			el[i].classList.remove("hide");
			zoom_reset(el[i]);
			update_text(el[i]);
		}
	}

	// search
	function reset_search() {
		var el = document.querySelectorAll("#frames rect");
		for (var i = 0; i < el.length; i++) {
			orig_load(el[i], "fill")
		}
	}
	function search_prompt() {
		if (!searching) {
			var term = prompt("Enter a search term (regexp " +
			    "allowed, eg: ^ext4_)", "");
			if (term != null) {
				search(term)
			}
		} else {
			reset_search();
			searching = 0;
			searchbtn.classList.remove("show");
			searchbtn.firstChild.nodeValue = "Search"
			matchedtxt.classList.add("hide");
			matchedtxt.firstChild.nodeValue = ""
		}
	}
	function search(term) {
		var re = new RegExp(term);
		var el = document.getElementById("frames").children;
		var matches = new Object();
		var maxwidth = 0;
		for (var i = 0; i < el.length; i++) {
			var e = el[i];
			var func = g_to_func(e);
			var rect = find_child(e, "rect");
			if (func == null || rect == null)
				continue;

			// Save max width. Only works as we have a root frame
			var w = parseFloat(rect.attributes.width.value);
			if (w > maxwidth)
				maxwidth = w;

			if (func.match(re)) {
				// highlight
				var x = parseFloat(rect.attributes.x.value);
				orig_save(rect, "fill");
				rect.attributes.fill.value = "rgb(230,0,230)";

				// remember matches
				if (matches[x] == undefined) {
					matches[x] = w;
				} else {
					if (w > matches[x]) {
						// overwrite with parent
						matches[x] = w;
					}
				}
				searching = 1;
			}
		}
		if (!searching)
			return;

		searchbtn.classList.add("show");
		searchbtn.firstChild.nodeValue = "Reset Search";

		// calculate percent matched, excluding vertical overlap
		var count = 0;
		var lastx = -1;
		var lastw = 0;
		var keys = Array();
		for (k in matches) {
			if (matches.hasOwnProperty(k))
				keys.push(k);
		}
		// sort the matched frames by their x location
		// ascending, then width descending
		keys.sort(function(a, b){
			return a - b;
		});
		// Step through frames saving only the biggest bottom-up frames
		// thanks to the sort order. This relies on the tree property
		// where children are always smaller than their parents.
		var fudge = 0.0001;	// JavaScript floating point
		for (var k in keys) {
			var x = parseFloat(keys[k]);
			var w = matches[keys[k]];
			if (x >= lastx + lastw - fudge) {
				count += w;
				lastx = x;
				lastw = w;
			}
		}
		// display matched percent
		matchedtxt.classList.remove("hide");
		var pct = 100 * count / maxwidth;
		if (pct != 100) pct = pct.toFixed(1)
		matchedtxt.firstChild.nodeValue = "Matched: " + pct + "%";
	}
]]>
</script>
<rect x="0" y="0" width="100%" height="100%" fill="rgb(240,240,220)"/>
<text id="title" x="600" y="24">Flame Graph</text>
<text id="details" x="10" y="373"> </text>
<text id="unzoom" x="10" y="24" class="hide">Reset Zoom</text>
<text id="search" x="1090" y="24">Search</text>
<text id="matched" x="1090" y="373"> </text>
<g id="frames">
<g>
<title>all (626 samples, 100.00%)</title><rect x="10.0" y="339.0" width="1180.0" height="15" fill="#fa7c7c" rx="2" ry="2"/>
<text x="13.0" y="350.0">all</text>
</g>
<g>
<title>one/nio/server/SelectorThread.run (626 samples, 100.00%)</title><rect x="10.0" y="323.0" width="1180.0" height="15" fill="#6dfe6d" rx="2" ry="2"/>
<text x="13.0" y="334.0">one/nio/server/SelectorThread.run</text>
</g>
<g>
<title>one/nio/net/NativeSelector.select (1 samples, 0.16%)</title><rect x="10.0" y="307.0" width="1.9" height="15" fill="#5eef5e" rx="2" ry="2"/>
<text x="13.0" y="318.0"></text>
</g>
<g>
<title>one.nio.net.NativeSelector$2 (1 samples, 0.16%)</title><rect x="10.0" y="291.0" width="1.9" height="15" fill="#69d7d7" rx="2" ry="2"/>
<text x="13.0" y="302.0"></text>
</g>
<g>
<title>one/nio/net/Session.process (625 samples, 99.84%)</title><rect x="11.9" y="307.0" width="1178.1" height="15" fill="#5dee5d" rx="2" ry="2"/>
<text x="14.9" y="318.0">one/nio/net/Session.process</text>
</g>
<g>
<title>one/nio/http/HttpSession.processRead (625 samples, 99.84%)</title><rect x="11.9" y="291.0" width="1178.1" height="15" fill="#69fa69" rx="2" ry="2"/>
<text x="14.9" y="302.0">one/nio/http/HttpSession.processRead</text>
</g>
<g>
<title>one/nio/http/HttpSession.processHttpBuffer (625 samples, 99.84%)</title><rect x="11.9" y="275.0" width="1178.1" height="15" fill="#64f564" rx="2" ry="2"/>
<text x="14.9" y="286.0">one/nio/http/HttpSession.processHttpBuffer</text>
</g>
<g>
<title>one/nio/http/HttpSession.handleParsedRequest (598 samples, 95.53%)</title><rect x="11.9" y="259.0" width="1127.2" height="15" fill="#6afb6a" rx="2" ry="2"/>
<text x="14.9" y="270.0">one/nio/http/HttpSession.handleParsedRequest</text>
</g>
<g>
<title>one/nio/http/HttpServer.handleRequest (598 samples, 95.53%)</title><rect x="11.9" y="243.0" width="1127.2" height="15" fill="#61f261" rx="2" ry="2"/>
<text x="14.9" y="254.0">one/nio/http/HttpServer.handleRequest</text>
</g>
<g>
<title>RequestHandler3_getValueByKey.handleRequest (594 samples, 94.89%)</title><rect x="11.9" y="227.0" width="1119.7" height="15" fill="#6dfe6d" rx="2" ry="2"/>
<text x="14.9" y="238.0">RequestHandler3_getValueByKey.handleRequest</text>
</g>
<g>
<title>one/nio/http/HttpSession.sendResponse (10 samples, 1.60%)</title><rect x="11.9" y="211.0" width="18.8" height="15" fill="#50e150" rx="2" ry="2"/>
<text x="14.9" y="222.0"></text>
</g>
<g>
<title>one/nio/http/HttpSession.writeResponse (10 samples, 1.60%)</title><rect x="11.9" y="195.0" width="18.8" height="15" fill="#5aeb5a" rx="2" ry="2"/>
<text x="14.9" y="206.0"></text>
</g>
<g>
<title>one/nio/http/Response.toBytes (9 samples, 1.44%)</title><rect x="11.9" y="179.0" width="16.9" height="15" fill="#59ea59" rx="2" ry="2"/>
<text x="14.9" y="190.0"></text>
</g>
<g>
<title>one/nio/util/ByteArrayBuilder.&lt;init&gt; (9 samples, 1.44%)</title><rect x="11.9" y="163.0" width="16.9" height="15" fill="#69fa69" rx="2" ry="2"/>
<text x="14.9" y="174.0"></text>
</g>
<g>
<title>byte[] (9 samples, 1.44%)</title><rect x="11.9" y="147.0" width="16.9" height="15" fill="#58c6c6" rx="2" ry="2"/>
<text x="14.9" y="158.0"></text>
</g>
<g>
<title>one/nio/net/Session.write (1 samples, 0.16%)</title><rect x="28.8" y="179.0" width="1.9" height="15" fill="#65f665" rx="2" ry="2"/>
<text x="31.8" y="190.0"></text>
</g>
<g>
<title>one.nio.net.Session$ArrayQueueItem (1 samples, 0.16%)</title><rect x="28.8" y="163.0" width="1.9" height="15" fill="#5ac8c8" rx="2" ry="2"/>
<text x="31.8" y="174.0"></text>
</g>
<g>
<title>one/nio/http/Request.getParameter (3 samples, 0.48%)</title><rect x="30.7" y="211.0" width="5.7" height="15" fill="#67f867" rx="2" ry="2"/>
<text x="33.7" y="222.0"></text>
</g>
<g>
<title>java/lang/String.substring (3 samples, 0.48%)</title><rect x="30.7" y="195.0" width="5.7" height="15" fill="#63f463" rx="2" ry="2"/>
<text x="33.7" y="206.0"></text>
</g>
<g>
<title>java/lang/StringLatin1.newString (3 samples, 0.48%)</title><rect x="30.7" y="179.0" width="5.7" height="15" fill="#50e150" rx="2" ry="2"/>
<text x="33.7" y="190.0"></text>
</g>
<g>
<title>java.lang.String (2 samples, 0.32%)</title><rect x="30.7" y="163.0" width="3.8" height="15" fill="#53c1c1" rx="2" ry="2"/>
<text x="33.7" y="174.0"></text>
</g>
<g>
<title>java/util/Arrays.copyOfRange (1 samples, 0.16%)</title><rect x="34.5" y="163.0" width="1.9" height="15" fill="#56e756" rx="2" ry="2"/>
<text x="37.5" y="174.0"></text>
</g>
<g>
<title>byte[] (1 samples, 0.16%)</title><rect x="34.5" y="147.0" width="1.9" height="15" fill="#5ac8c8" rx="2" ry="2"/>
<text x="37.5" y="158.0"></text>
</g>
<g>
<title>ru/mail/polis/service/basta123/MyHttpServerImpl.getValueByKey (581 samples, 92.81%)</title><rect x="36.4" y="211.0" width="1095.2" height="15" fill="#5ced5c" rx="2" ry="2"/>
<text x="39.4" y="222.0">ru/mail/polis/service/basta123/MyHttpServerImpl.getValueByKey</text>
</g>
<g>
<title>java/lang/String.getBytes (2 samples, 0.32%)</title><rect x="36.4" y="195.0" width="3.8" height="15" fill="#5ff05f" rx="2" ry="2"/>
<text x="39.4" y="206.0"></text>
</g>
<g>
<title>java/lang/StringCoding.encode (2 samples, 0.32%)</title><rect x="36.4" y="179.0" width="3.8" height="15" fill="#6cfd6c" rx="2" ry="2"/>
<text x="39.4" y="190.0"></text>
</g>
<g>
<title>java/lang/StringCoding.encodeUTF8 (2 samples, 0.32%)</title><rect x="36.4" y="163.0" width="3.8" height="15" fill="#5ced5c" rx="2" ry="2"/>
<text x="39.4" y="174.0"></text>
</g>
<g>
<title>java/util/Arrays.copyOf (2 samples, 0.32%)</title><rect x="36.4" y="147.0" width="3.8" height="15" fill="#5bec5b" rx="2" ry="2"/>
<text x="39.4" y="158.0"></text>
</g>
<g>
<title>byte[] (2 samples, 0.32%)</title><rect x="36.4" y="131.0" width="3.8" height="15" fill="#6ad8d8" rx="2" ry="2"/>
<text x="39.4" y="142.0"></text>
</g>
<g>
<title>one.nio.http.Response (1 samples, 0.16%)</title><rect x="40.2" y="195.0" width="1.8" height="15" fill="#69d7d7" rx="2" ry="2"/>
<text x="43.2" y="206.0"></text>
</g>
<g>
<title>one/nio/http/Response.&lt;init&gt; (10 samples, 1.60%)</title><rect x="42.0" y="195.0" width="18.9" height="15" fill="#65f665" rx="2" ry="2"/>
<text x="45.0" y="206.0"></text>
</g>
<g>
<title>byte[] (3 samples, 0.48%)</title><rect x="42.0" y="179.0" width="5.7" height="15" fill="#65d3d3" rx="2" ry="2"/>
<text x="45.0" y="190.0"></text>
</g>
<g>
<title>java.lang.String[] (4 samples, 0.64%)</title><rect x="47.7" y="179.0" width="7.5" height="15" fill="#68d6d6" rx="2" ry="2"/>
<text x="50.7" y="190.0"></text>
</g>
<g>
<title>java.lang.String (3 samples, 0.48%)</title><rect x="55.2" y="179.0" width="5.7" height="15" fill="#55c3c3" rx="2" ry="2"/>
<text x="58.2" y="190.0"></text>
</g>
<g>
<title>ru/mail/polis/dao/basta123/MyDAORocksDB.get (564 samples, 90.10%)</title><rect x="60.9" y="195.0" width="1063.1" height="15" fill="#61f261" rx="2" ry="2"/>
<text x="63.9" y="206.0">ru/mail/polis/dao/basta123/MyDAORocksDB.get</text>
</g>
<g>
<title>ru/mail/polis/Record.getValue (3 samples, 0.48%)</title><rect x="60.9" y="179.0" width="5.6" height="15" fill="#58e958" rx="2" ry="2"/>
<text x="63.9" y="190.0"></text>
</g>
<g>
<title>java/nio/HeapByteBuffer.asReadOnlyBuffer (3 samples, 0.48%)</title><rect x="60.9" y="163.0" width="5.6" height="15" fill="#50e150" rx="2" ry="2"/>
<text x="63.9" y="174.0"></text>
</g>
<g>
<title>java.nio.HeapByteBufferR (3 samples, 0.48%)</title><rect x="60.9" y="147.0" width="5.6" height="15" fill="#58c6c6" rx="2" ry="2"/>
<text x="63.9" y="158.0"></text>
</g>
<g>
<title>ru/mail/polis/dao/basta123/MyDAORocksDB.iterator (238 samples, 38.02%)</title><rect x="66.5" y="179.0" width="448.7" height="15" fill="#55e655" rx="2" ry="2"/>
<text x="69.5" y="190.0">ru/mail/polis/dao/basta123/MyDAORocksDB.iterator</text>
</g>
<g>
<title>org/rocksdb/RocksDB.newIterator (4 samples, 0.64%)</title><rect x="66.5" y="163.0" width="7.6" height="15" fill="#61f261" rx="2" ry="2"/>
<text x="69.5" y="174.0"></text>
</g>
<g>
<title>org.rocksdb.RocksIterator (3 samples, 0.48%)</title><rect x="66.5" y="147.0" width="5.7" height="15" fill="#57c5c5" rx="2" ry="2"/>
<text x="69.5" y="158.0"></text>
</g>
<g>
<title>org/rocksdb/RocksIterator.&lt;init&gt; (1 samples, 0.16%)</title><rect x="72.2" y="147.0" width="1.9" height="15" fill="#55e655" rx="2" ry="2"/>
<text x="75.2" y="158.0"></text>
</g>
<g>
<title>org/rocksdb/AbstractRocksIterator.&lt;init&gt; (1 samples, 0.16%)</title><rect x="72.2" y="131.0" width="1.9" height="15" fill="#6cfd6c" rx="2" ry="2"/>
<text x="75.2" y="142.0"></text>
</g>
<g>
<title>org/rocksdb/RocksObject.&lt;init&gt; (1 samples, 0.16%)</title><rect x="72.2" y="115.0" width="1.9" height="15" fill="#60f160" rx="2" ry="2"/>
<text x="75.2" y="126.0"></text>
</g>
<g>
<title>org/rocksdb/AbstractImmutableNativeReference.&lt;init&gt; (1 samples, 0.16%)</title><rect x="72.2" y="99.0" width="1.9" height="15" fill="#51e251" rx="2" ry="2"/>
<text x="75.2" y="110.0"></text>
</g>
<g>
<title>org/rocksdb/AbstractNativeReference.&lt;init&gt; (1 samples, 0.16%)</title><rect x="72.2" y="83.0" width="1.9" height="15" fill="#57e857" rx="2" ry="2"/>
<text x="75.2" y="94.0"></text>
</g>
<g>
<title>java/lang/Object.&lt;init&gt; (1 samples, 0.16%)</title><rect x="72.2" y="67.0" width="1.9" height="15" fill="#58e958" rx="2" ry="2"/>
<text x="75.2" y="78.0"></text>
</g>
<g>
<title>java/lang/ref/Finalizer.register (1 samples, 0.16%)</title><rect x="72.2" y="51.0" width="1.9" height="15" fill="#5bec5b" rx="2" ry="2"/>
<text x="75.2" y="62.0"></text>
</g>
<g>
<title>java.lang.ref.Finalizer (1 samples, 0.16%)</title><rect x="72.2" y="35.0" width="1.9" height="15" fill="#50bebe" rx="2" ry="2"/>
<text x="75.2" y="46.0"></text>
</g>
<g>
<title>ru.mail.polis.dao.basta123.RecordIter (9 samples, 1.44%)</title><rect x="74.1" y="163.0" width="17.0" height="15" fill="#6cdada" rx="2" ry="2"/>
<text x="77.1" y="174.0"></text>
</g>
<g>
<title>ru/mail/polis/dao/basta123/MyRecordIter.&lt;init&gt; (225 samples, 35.94%)</title><rect x="91.1" y="163.0" width="424.1" height="15" fill="#5ced5c" rx="2" ry="2"/>
<text x="94.1" y="174.0">ru/mail/polis/dao/basta123/MyRecordIter.&lt;init&gt;</text>
</g>
<g>
<title>org/rocksdb/AbstractRocksIterator.seek (223 samples, 35.62%)</title><rect x="91.1" y="147.0" width="420.3" height="15" fill="#54e554" rx="2" ry="2"/>
<text x="94.1" y="158.0">org/rocksdb/AbstractRocksIterator.seek</text>
</g>
<g>
<title>org/rocksdb/RocksIterator.seek0 (223 samples, 35.62%)</title><rect x="91.1" y="131.0" width="420.3" height="15" fill="#54e554" rx="2" ry="2"/>
<text x="94.1" y="142.0">org/rocksdb/RocksIterator.seek0</text>
</g>
<g>
<title>ru/mail/polis/dao/basta123/MyComparator.compare (223 samples, 35.62%)</title><rect x="91.1" y="115.0" width="420.3" height="15" fill="#66f766" rx="2" ry="2"/>
<text x="94.1" y="126.0">ru/mail/polis/dao/basta123/MyComparator.compare</text>
</g>
<g>
<title>ru/mail/polis/dao/basta123/MyComparator.compare (223 samples, 35.62%)</title><rect x="91.1" y="99.0" width="420.3" height="15" fill="#61f261" rx="2" ry="2"/>
<text x="94.1" y="110.0">ru/mail/polis/dao/basta123/MyComparator.compare</text>
</g>
<g>
<title>org/rocksdb/AbstractSlice.data (223 samples, 35.62%)</title><rect x="91.1" y="83.0" width="420.3" height="15" fill="#63f463" rx="2" ry="2"/>
<text x="94.1" y="94.0">org/rocksdb/AbstractSlice.data</text>
</g>
<g>
<title>org/rocksdb/Slice.data0 (223 samples, 35.62%)</title><rect x="91.1" y="67.0" width="420.3" height="15" fill="#64f564" rx="2" ry="2"/>
<text x="94.1" y="78.0">org/rocksdb/Slice.data0</text>
</g>
<g>
<title>org/rocksdb/Slice.data0 (223 samples, 35.62%)</title><rect x="91.1" y="51.0" width="420.3" height="15" fill="#6dfe6d" rx="2" ry="2"/>
<text x="94.1" y="62.0">org/rocksdb/Slice.data0</text>
</g>
<g>
<title>byte[] (223 samples, 35.62%)</title><rect x="91.1" y="35.0" width="420.3" height="15" fill="#51bfbf" rx="2" ry="2"/>
<text x="94.1" y="46.0">byte[]</text>
</g>
<g>
<title>ru/mail/polis/service/basta123/Utils.getByteArrayFromByteBuffer (2 samples, 0.32%)</title><rect x="511.4" y="147.0" width="3.8" height="15" fill="#60f160" rx="2" ry="2"/>
<text x="514.4" y="158.0"></text>
</g>
<g>
<title>byte[] (2 samples, 0.32%)</title><rect x="511.4" y="131.0" width="3.8" height="15" fill="#68d6d6" rx="2" ry="2"/>
<text x="514.4" y="142.0"></text>
</g>
<g>
<title>ru/mail/polis/dao/basta123/MyRecordIter.next (323 samples, 51.60%)</title><rect x="515.2" y="179.0" width="608.8" height="15" fill="#67f867" rx="2" ry="2"/>
<text x="518.2" y="190.0">ru/mail/polis/dao/basta123/MyRecordIter.next</text>
</g>
<g>
<title>ru/mail/polis/dao/basta123/MyRecordIter.next (323 samples, 51.60%)</title><rect x="515.2" y="163.0" width="608.8" height="15" fill="#58e958" rx="2" ry="2"/>
<text x="518.2" y="174.0">ru/mail/polis/dao/basta123/MyRecordIter.next</text>
</g>
<g>
<title>org/rocksdb/AbstractRocksIterator.next (309 samples, 49.36%)</title><rect x="515.2" y="147.0" width="582.4" height="15" fill="#63f463" rx="2" ry="2"/>
<text x="518.2" y="158.0">org/rocksdb/AbstractRocksIterator.next</text>
</g>
<g>
<title>org/rocksdb/RocksIterator.next0 (309 samples, 49.36%)</title><rect x="515.2" y="131.0" width="582.4" height="15" fill="#6cfd6c" rx="2" ry="2"/>
<text x="518.2" y="142.0">org/rocksdb/RocksIterator.next0</text>
</g>
<g>
<title>ru/mail/polis/dao/basta123/MyComparator.compare (309 samples, 49.36%)</title><rect x="515.2" y="115.0" width="582.4" height="15" fill="#69fa69" rx="2" ry="2"/>
<text x="518.2" y="126.0">ru/mail/polis/dao/basta123/MyComparator.compare</text>
</g>
<g>
<title>ru/mail/polis/dao/basta123/MyComparator.compare (309 samples, 49.36%)</title><rect x="515.2" y="99.0" width="582.4" height="15" fill="#6cfd6c" rx="2" ry="2"/>
<text x="518.2" y="110.0">ru/mail/polis/dao/basta123/MyComparator.compare</text>
</g>
<g>
<title>org/rocksdb/AbstractSlice.data (309 samples, 49.36%)</title><rect x="515.2" y="83.0" width="582.4" height="15" fill="#6dfe6d" rx="2" ry="2"/>
<text x="518.2" y="94.0">org/rocksdb/AbstractSlice.data</text>
</g>
<g>
<title>org/rocksdb/Slice.data0 (309 samples, 49.36%)</title><rect x="515.2" y="67.0" width="582.4" height="15" fill="#54e554" rx="2" ry="2"/>
<text x="518.2" y="78.0">org/rocksdb/Slice.data0</text>
</g>
<g>
<title>org/rocksdb/Slice.data0 (309 samples, 49.36%)</title><rect x="515.2" y="51.0" width="582.4" height="15" fill="#53e453" rx="2" ry="2"/>
<text x="518.2" y="62.0">org/rocksdb/Slice.data0</text>
</g>
<g>
<title>byte[] (309 samples, 49.36%)</title><rect x="515.2" y="35.0" width="582.4" height="15" fill="#61cfcf" rx="2" ry="2"/>
<text x="518.2" y="46.0">byte[]</text>
</g>
<g>
<title>org/rocksdb/RocksIterator.key (3 samples, 0.48%)</title><rect x="1097.6" y="147.0" width="5.7" height="15" fill="#5bec5b" rx="2" ry="2"/>
<text x="1100.6" y="158.0"></text>
</g>
<g>
<title>org/rocksdb/RocksIterator.key0 (3 samples, 0.48%)</title><rect x="1097.6" y="131.0" width="5.7" height="15" fill="#58e958" rx="2" ry="2"/>
<text x="1100.6" y="142.0"></text>
</g>
<g>
<title>byte[] (3 samples, 0.48%)</title><rect x="1097.6" y="115.0" width="5.7" height="15" fill="#60cece" rx="2" ry="2"/>
<text x="1100.6" y="126.0"></text>
</g>
<g>
<title>org/rocksdb/RocksIterator.value (2 samples, 0.32%)</title><rect x="1103.3" y="147.0" width="3.8" height="15" fill="#6cfd6c" rx="2" ry="2"/>
<text x="1106.3" y="158.0"></text>
</g>
<g>
<title>org/rocksdb/RocksIterator.value0 (2 samples, 0.32%)</title><rect x="1103.3" y="131.0" width="3.8" height="15" fill="#5aeb5a" rx="2" ry="2"/>
<text x="1106.3" y="142.0"></text>
</g>
<g>
<title>byte[] (2 samples, 0.32%)</title><rect x="1103.3" y="115.0" width="3.8" height="15" fill="#67d5d5" rx="2" ry="2"/>
<text x="1106.3" y="126.0"></text>
</g>
<g>
<title>ru/mail/polis/service/basta123/Utils.getByteBufferFromByteArray (9 samples, 1.44%)</title><rect x="1107.1" y="147.0" width="16.9" height="15" fill="#57e857" rx="2" ry="2"/>
<text x="1110.1" y="158.0"></text>
</g>
<g>
<title>java/nio/ByteBuffer.wrap (9 samples, 1.44%)</title><rect x="1107.1" y="131.0" width="16.9" height="15" fill="#65f665" rx="2" ry="2"/>
<text x="1110.1" y="142.0"></text>
</g>
<g>
<title>java/nio/ByteBuffer.wrap (9 samples, 1.44%)</title><rect x="1107.1" y="115.0" width="16.9" height="15" fill="#68f968" rx="2" ry="2"/>
<text x="1110.1" y="126.0"></text>
</g>
<g>
<title>java.nio.HeapByteBuffer (9 samples, 1.44%)</title><rect x="1107.1" y="99.0" width="16.9" height="15" fill="#55c3c3" rx="2" ry="2"/>
<text x="1110.1" y="110.0"></text>
</g>
<g>
<title>ru/mail/polis/service/basta123/Utils.getByteArrayFromByteBuffer (2 samples, 0.32%)</title><rect x="1124.0" y="195.0" width="3.8" height="15" fill="#54e554" rx="2" ry="2"/>
<text x="1127.0" y="206.0"></text>
</g>
<g>
<title>byte[] (2 samples, 0.32%)</title><rect x="1124.0" y="179.0" width="3.8" height="15" fill="#6ddbdb" rx="2" ry="2"/>
<text x="1127.0" y="190.0"></text>
</g>
<g>
<title>ru/mail/polis/service/basta123/Utils.getByteBufferFromByteArray (2 samples, 0.32%)</title><rect x="1127.8" y="195.0" width="3.8" height="15" fill="#5aeb5a" rx="2" ry="2"/>
<text x="1130.8" y="206.0"></text>
</g>
<g>
<title>java/nio/ByteBuffer.wrap (2 samples, 0.32%)</title><rect x="1127.8" y="179.0" width="3.8" height="15" fill="#6afb6a" rx="2" ry="2"/>
<text x="1130.8" y="190.0"></text>
</g>
<g>
<title>java/nio/ByteBuffer.wrap (2 samples, 0.32%)</title><rect x="1127.8" y="163.0" width="3.8" height="15" fill="#61f261" rx="2" ry="2"/>
<text x="1130.8" y="174.0"></text>
</g>
<g>
<title>java.nio.HeapByteBuffer (2 samples, 0.32%)</title><rect x="1127.8" y="147.0" width="3.8" height="15" fill="#6ddbdb" rx="2" ry="2"/>
<text x="1130.8" y="158.0"></text>
</g>
<g>
<title>one/nio/http/Request.getPath (4 samples, 0.64%)</title><rect x="1131.6" y="227.0" width="7.5" height="15" fill="#61f261" rx="2" ry="2"/>
<text x="1134.6" y="238.0"></text>
</g>
<g>
<title>java/lang/String.substring (4 samples, 0.64%)</title><rect x="1131.6" y="211.0" width="7.5" height="15" fill="#61f261" rx="2" ry="2"/>
<text x="1134.6" y="222.0"></text>
</g>
<g>
<title>java/lang/StringLatin1.newString (4 samples, 0.64%)</title><rect x="1131.6" y="195.0" width="7.5" height="15" fill="#51e251" rx="2" ry="2"/>
<text x="1134.6" y="206.0"></text>
</g>
<g>
<title>java.lang.String (1 samples, 0.16%)</title><rect x="1131.6" y="179.0" width="1.9" height="15" fill="#54c2c2" rx="2" ry="2"/>
<text x="1134.6" y="190.0"></text>
</g>
<g>
<title>java/util/Arrays.copyOfRange (3 samples, 0.48%)</title><rect x="1133.5" y="179.0" width="5.6" height="15" fill="#5ced5c" rx="2" ry="2"/>
<text x="1136.5" y="190.0"></text>
</g>
<g>
<title>byte[] (3 samples, 0.48%)</title><rect x="1133.5" y="163.0" width="5.6" height="15" fill="#68d6d6" rx="2" ry="2"/>
<text x="1136.5" y="174.0"></text>
</g>
<g>
<title>one/nio/http/HttpSession.parseRequest (20 samples, 3.19%)</title><rect x="1139.1" y="259.0" width="37.7" height="15" fill="#5ced5c" rx="2" ry="2"/>
<text x="1142.1" y="270.0">one..</text>
</g>
<g>
<title>one.nio.http.Request (3 samples, 0.48%)</title><rect x="1139.1" y="243.0" width="5.7" height="15" fill="#51bfbf" rx="2" ry="2"/>
<text x="1142.1" y="254.0"></text>
</g>
<g>
<title>one/nio/http/Request.&lt;init&gt; (7 samples, 1.12%)</title><rect x="1144.8" y="243.0" width="13.2" height="15" fill="#67f867" rx="2" ry="2"/>
<text x="1147.8" y="254.0"></text>
</g>
<g>
<title>java.lang.String[] (7 samples, 1.12%)</title><rect x="1144.8" y="227.0" width="13.2" height="15" fill="#58c6c6" rx="2" ry="2"/>
<text x="1147.8" y="238.0"></text>
</g>
<g>
<title>one/nio/util/Utf8.read (10 samples, 1.60%)</title><rect x="1158.0" y="243.0" width="18.8" height="15" fill="#50e150" rx="2" ry="2"/>
<text x="1161.0" y="254.0"></text>
</g>
<g>
<title>one/nio/util/Utf8.read (10 samples, 1.60%)</title><rect x="1158.0" y="227.0" width="18.8" height="15" fill="#67f867" rx="2" ry="2"/>
<text x="1161.0" y="238.0"></text>
</g>
<g>
<title>char[] (5 samples, 0.80%)</title><rect x="1158.0" y="211.0" width="9.4" height="15" fill="#5ccaca" rx="2" ry="2"/>
<text x="1161.0" y="222.0"></text>
</g>
<g>
<title>java.lang.String (1 samples, 0.16%)</title><rect x="1167.4" y="211.0" width="1.9" height="15" fill="#53c1c1" rx="2" ry="2"/>
<text x="1170.4" y="222.0"></text>
</g>
<g>
<title>java/lang/String.&lt;init&gt; (4 samples, 0.64%)</title><rect x="1169.3" y="211.0" width="7.5" height="15" fill="#5bec5b" rx="2" ry="2"/>
<text x="1172.3" y="222.0"></text>
</g>
<g>
<title>java/lang/String.&lt;init&gt; (4 samples, 0.64%)</title><rect x="1169.3" y="195.0" width="7.5" height="15" fill="#68f968" rx="2" ry="2"/>
<text x="1172.3" y="206.0"></text>
</g>
<g>
<title>java/lang/StringUTF16.compress (4 samples, 0.64%)</title><rect x="1169.3" y="179.0" width="7.5" height="15" fill="#5ced5c" rx="2" ry="2"/>
<text x="1172.3" y="190.0"></text>
</g>
<g>
<title>byte[] (4 samples, 0.64%)</title><rect x="1169.3" y="163.0" width="7.5" height="15" fill="#6bd9d9" rx="2" ry="2"/>
<text x="1172.3" y="174.0"></text>
</g>
<g>
<title>one/nio/util/Utf8.read (7 samples, 1.12%)</title><rect x="1176.8" y="259.0" width="13.2" height="15" fill="#67f867" rx="2" ry="2"/>
<text x="1179.8" y="270.0"></text>
</g>
<g>
<title>one/nio/util/Utf8.read (7 samples, 1.12%)</title><rect x="1176.8" y="243.0" width="13.2" height="15" fill="#66f766" rx="2" ry="2"/>
<text x="1179.8" y="254.0"></text>
</g>
<g>
<title>char[] (2 samples, 0.32%)</title><rect x="1176.8" y="227.0" width="3.8" height="15" fill="#64d2d2" rx="2" ry="2"/>
<text x="1179.8" y="238.0"></text>
</g>
<g>
<title>java/lang/String.&lt;init&gt; (5 samples, 0.80%)</title><rect x="1180.6" y="227.0" width="9.4" height="15" fill="#50e150" rx="2" ry="2"/>
<text x="1183.6" y="238.0"></text>
</g>
<g>
<title>java/lang/String.&lt;init&gt; (5 samples, 0.80%)</title><rect x="1180.6" y="211.0" width="9.4" height="15" fill="#5eef5e" rx="2" ry="2"/>
<text x="1183.6" y="222.0"></text>
</g>
<g>
<title>java/lang/StringUTF16.compress (5 samples, 0.80%)</title><rect x="1180.6" y="195.0" width="9.4" height="15" fill="#5ff05f" rx="2" ry="2"/>
<text x="1183.6" y="206.0"></text>
</g>
<g>
<title>byte[] (5 samples, 0.80%)</title><rect x="1180.6" y="179.0" width="9.4" height="15" fill="#55c3c3" rx="2" ry="2"/>
<text x="1183.6" y="190.0"></text>
</g>
</g>
</svg>
