<?xml version="1.0" standalone="no"?>
<!DOCTYPE svg PUBLIC "-//W3C//DTD SVG 1.1//EN" "http://www.w3.org/Graphics/SVG/1.1/DTD/svg11.dtd">
<svg version="1.1" width="1200" height="454" onload="init(evt)" viewBox="0 0 1200 454" xmlns="http://www.w3.org/2000/svg" xmlns:xlink="http://www.w3.org/1999/xlink">
<style type="text/css">
	text { font-family:Verdana; font-size:12px; fill:rgb(0,0,0); }
	#search { opacity:0.1; cursor:pointer; }
	#search:hover, #search.show { opacity:1; }
	#subtitle { text-anchor:middle; font-color:rgb(160,160,160); }
	#title { text-anchor:middle; font-size:17px}
	#unzoom { cursor:pointer; }
	#frames > *:hover { stroke:black; stroke-width:0.5; cursor:pointer; }
	.hide { display:none; }
	.parent { opacity:0.5; }
</style>
<script type="text/ecmascript">
<![CDATA[
	"use strict";
	var details, searchbtn, unzoombtn, matchedtxt, svg, searching;
	function init(evt) {
		details = document.getElementById("details").firstChild;
		searchbtn = document.getElementById("search");
		unzoombtn = document.getElementById("unzoom");
		matchedtxt = document.getElementById("matched");
		svg = document.getElementsByTagName("svg")[0];
		searching = 0;
	}

	window.addEventListener("click", function(e) {
		var target = find_group(e.target);
		if (target) {
			if (target.nodeName == "a") {
				if (e.ctrlKey === false) return;
				e.preventDefault();
			}
			if (target.classList.contains("parent")) unzoom();
			zoom(target);
		}
		else if (e.target.id == "unzoom") unzoom();
		else if (e.target.id == "search") search_prompt();
	}, false)

	// mouse-over for info
	// show
	window.addEventListener("mouseover", function(e) {
		var target = find_group(e.target);
		if (target) details.nodeValue = "Function: " + g_to_text(target);
	}, false)

	// clear
	window.addEventListener("mouseout", function(e) {
		var target = find_group(e.target);
		if (target) details.nodeValue = ' ';
	}, false)

	// ctrl-F for search
	window.addEventListener("keydown",function (e) {
		if (e.keyCode === 114 || (e.ctrlKey && e.keyCode === 70)) {
			e.preventDefault();
			search_prompt();
		}
	}, false)

	// functions
	function find_child(node, selector) {
		var children = node.querySelectorAll(selector);
		if (children.length) return children[0];
		return;
	}
	function find_group(node) {
		var parent = node.parentElement;
		if (!parent) return;
		if (parent.id == "frames") return node;
		return find_group(parent);
	}
	function orig_save(e, attr, val) {
		if (e.attributes["_orig_" + attr] != undefined) return;
		if (e.attributes[attr] == undefined) return;
		if (val == undefined) val = e.attributes[attr].value;
		e.setAttribute("_orig_" + attr, val);
	}
	function orig_load(e, attr) {
		if (e.attributes["_orig_"+attr] == undefined) return;
		e.attributes[attr].value = e.attributes["_orig_" + attr].value;
		e.removeAttribute("_orig_"+attr);
	}
	function g_to_text(e) {
		var text = find_child(e, "title").firstChild.nodeValue;
		return (text)
	}
	function g_to_func(e) {
		var func = g_to_text(e);
		// if there's any manipulation we want to do to the function
		// name before it's searched, do it here before returning.
		return (func);
	}
	function update_text(e) {
		var r = find_child(e, "rect");
		var t = find_child(e, "text");
		var w = parseFloat(r.attributes.width.value) -3;
		var txt = find_child(e, "title").textContent.replace(/\([^(]*\)$/,"");
		t.attributes.x.value = parseFloat(r.attributes.x.value) + 3;

		// Smaller than this size won't fit anything
		if (w < 2 * 12 * 0.59) {
			t.textContent = "";
			return;
		}

		t.textContent = txt;
		// Fit in full text width
		if (/^ *$/.test(txt) || t.getSubStringLength(0, txt.length) < w)
			return;

		for (var x = txt.length - 2; x > 0; x--) {
			if (t.getSubStringLength(0, x + 2) <= w) {
				t.textContent = txt.substring(0, x) + "..";
				return;
			}
		}
		t.textContent = "";
	}

	// zoom
	function zoom_reset(e) {
		if (e.attributes != undefined) {
			orig_load(e, "x");
			orig_load(e, "width");
		}
		if (e.childNodes == undefined) return;
		for (var i = 0, c = e.childNodes; i < c.length; i++) {
			zoom_reset(c[i]);
		}
	}
	function zoom_child(e, x, ratio) {
		if (e.attributes != undefined) {
			if (e.attributes.x != undefined) {
				orig_save(e, "x");
				e.attributes.x.value = (parseFloat(e.attributes.x.value) - x - 10) * ratio + 10;
				if (e.tagName == "text")
					e.attributes.x.value = find_child(e.parentNode, "rect[x]").attributes.x.value + 3;
			}
			if (e.attributes.width != undefined) {
				orig_save(e, "width");
				e.attributes.width.value = parseFloat(e.attributes.width.value) * ratio;
			}
		}

		if (e.childNodes == undefined) return;
		for (var i = 0, c = e.childNodes; i < c.length; i++) {
			zoom_child(c[i], x - 10, ratio);
		}
	}
	function zoom_parent(e) {
		if (e.attributes) {
			if (e.attributes.x != undefined) {
				orig_save(e, "x");
				e.attributes.x.value = 10;
			}
			if (e.attributes.width != undefined) {
				orig_save(e, "width");
				e.attributes.width.value = parseInt(svg.width.baseVal.value) - (10 * 2);
			}
		}
		if (e.childNodes == undefined) return;
		for (var i = 0, c = e.childNodes; i < c.length; i++) {
			zoom_parent(c[i]);
		}
	}
	function zoom(node) {
		var attr = find_child(node, "rect").attributes;
		var width = parseFloat(attr.width.value);
		var xmin = parseFloat(attr.x.value);
		var xmax = parseFloat(xmin + width);
		var ymin = parseFloat(attr.y.value);
		var ratio = (svg.width.baseVal.value - 2 * 10) / width;

		// XXX: Workaround for JavaScript float issues (fix local)
		var fudge = 0.0001;

		unzoombtn.classList.remove("hide");

		var el = document.getElementById("frames").children;
		for (var i = 0; i < el.length; i++) {
			var e = el[i];
			var a = find_child(e, "rect").attributes;
			var ex = parseFloat(a.x.value);
			var ew = parseFloat(a.width.value);
			var upstack;
			// Is it an ancestor
			if (0 == 0) {
				upstack = parseFloat(a.y.value) > ymin;
			} else {
				upstack = parseFloat(a.y.value) < ymin;
			}
			if (upstack) {
				// Direct ancestor
				if (ex <= xmin && (ex+ew+fudge) >= xmax) {
					e.classList.add("parent");
					zoom_parent(e);
					update_text(e);
				}
				// not in current path
				else
					e.classList.add("hide");
			}
			// Children maybe
			else {
				// no common path
				if (ex < xmin || ex + fudge >= xmax) {
					e.classList.add("hide");
				}
				else {
					zoom_child(e, xmin, ratio);
					update_text(e);
				}
			}
		}
	}
	function unzoom() {
		unzoombtn.classList.add("hide");
		var el = document.getElementById("frames").children;
		for(var i = 0; i < el.length; i++) {
			el[i].classList.remove("parent");
			el[i].classList.remove("hide");
			zoom_reset(el[i]);
			update_text(el[i]);
		}
	}

	// search
	function reset_search() {
		var el = document.querySelectorAll("#frames rect");
		for (var i = 0; i < el.length; i++) {
			orig_load(el[i], "fill")
		}
	}
	function search_prompt() {
		if (!searching) {
			var term = prompt("Enter a search term (regexp " +
			    "allowed, eg: ^ext4_)", "");
			if (term != null) {
				search(term)
			}
		} else {
			reset_search();
			searching = 0;
			searchbtn.classList.remove("show");
			searchbtn.firstChild.nodeValue = "Search"
			matchedtxt.classList.add("hide");
			matchedtxt.firstChild.nodeValue = ""
		}
	}
	function search(term) {
		var re = new RegExp(term);
		var el = document.getElementById("frames").children;
		var matches = new Object();
		var maxwidth = 0;
		for (var i = 0; i < el.length; i++) {
			var e = el[i];
			var func = g_to_func(e);
			var rect = find_child(e, "rect");
			if (func == null || rect == null)
				continue;

			// Save max width. Only works as we have a root frame
			var w = parseFloat(rect.attributes.width.value);
			if (w > maxwidth)
				maxwidth = w;

			if (func.match(re)) {
				// highlight
				var x = parseFloat(rect.attributes.x.value);
				orig_save(rect, "fill");
				rect.attributes.fill.value = "rgb(230,0,230)";

				// remember matches
				if (matches[x] == undefined) {
					matches[x] = w;
				} else {
					if (w > matches[x]) {
						// overwrite with parent
						matches[x] = w;
					}
				}
				searching = 1;
			}
		}
		if (!searching)
			return;

		searchbtn.classList.add("show");
		searchbtn.firstChild.nodeValue = "Reset Search";

		// calculate percent matched, excluding vertical overlap
		var count = 0;
		var lastx = -1;
		var lastw = 0;
		var keys = Array();
		for (k in matches) {
			if (matches.hasOwnProperty(k))
				keys.push(k);
		}
		// sort the matched frames by their x location
		// ascending, then width descending
		keys.sort(function(a, b){
			return a - b;
		});
		// Step through frames saving only the biggest bottom-up frames
		// thanks to the sort order. This relies on the tree property
		// where children are always smaller than their parents.
		var fudge = 0.0001;	// JavaScript floating point
		for (var k in keys) {
			var x = parseFloat(keys[k]);
			var w = matches[keys[k]];
			if (x >= lastx + lastw - fudge) {
				count += w;
				lastx = x;
				lastw = w;
			}
		}
		// display matched percent
		matchedtxt.classList.remove("hide");
		var pct = 100 * count / maxwidth;
		if (pct != 100) pct = pct.toFixed(1)
		matchedtxt.firstChild.nodeValue = "Matched: " + pct + "%";
	}
]]>
</script>
<rect x="0" y="0" width="100%" height="100%" fill="rgb(240,240,220)"/>
<text id="title" x="600" y="24">Flame Graph</text>
<text id="details" x="10" y="437"> </text>
<text id="unzoom" x="10" y="24" class="hide">Reset Zoom</text>
<text id="search" x="1090" y="24">Search</text>
<text id="matched" x="1090" y="437"> </text>
<g id="frames">
<g>
<title>all (3,249 samples, 100.00%)</title><rect x="10.0" y="403.0" width="1180.0" height="15" fill="#fa7b7b" rx="2" ry="2"/>
<text x="13.0" y="414.0">all</text>
</g>
<g>
<title>[no_Java_frame] (1 samples, 0.03%)</title><rect x="10.0" y="387.0" width="0.4" height="15" fill="#ec6969" rx="2" ry="2"/>
<text x="13.0" y="398.0"></text>
</g>
<g>
<title>java.lang.String (1 samples, 0.03%)</title><rect x="10.0" y="371.0" width="0.4" height="15" fill="#67d5d5" rx="2" ry="2"/>
<text x="13.0" y="382.0"></text>
</g>
<g>
<title>one/nio/server/SelectorThread.run (3,248 samples, 99.97%)</title><rect x="10.4" y="387.0" width="1179.6" height="15" fill="#67f867" rx="2" ry="2"/>
<text x="13.4" y="398.0">one/nio/server/SelectorThread.run</text>
</g>
<g>
<title>one/nio/net/NativeSelector.select (54 samples, 1.66%)</title><rect x="10.4" y="371.0" width="19.6" height="15" fill="#6bfc6b" rx="2" ry="2"/>
<text x="13.4" y="382.0"></text>
</g>
<g>
<title>one.nio.net.NativeSelector$2 (54 samples, 1.66%)</title><rect x="10.4" y="355.0" width="19.6" height="15" fill="#55c3c3" rx="2" ry="2"/>
<text x="13.4" y="366.0"></text>
</g>
<g>
<title>one/nio/net/Session.process (3,194 samples, 98.31%)</title><rect x="30.0" y="371.0" width="1160.0" height="15" fill="#5aeb5a" rx="2" ry="2"/>
<text x="33.0" y="382.0">one/nio/net/Session.process</text>
</g>
<g>
<title>one/nio/http/HttpSession.processRead (3,194 samples, 98.31%)</title><rect x="30.0" y="355.0" width="1160.0" height="15" fill="#67f867" rx="2" ry="2"/>
<text x="33.0" y="366.0">one/nio/http/HttpSession.processRead</text>
</g>
<g>
<title>one/nio/http/HttpSession.processHttpBuffer (3,194 samples, 98.31%)</title><rect x="30.0" y="339.0" width="1160.0" height="15" fill="#58e958" rx="2" ry="2"/>
<text x="33.0" y="350.0">one/nio/http/HttpSession.processHttpBuffer</text>
</g>
<g>
<title>one/nio/http/HttpSession.handleParsedRequest (2,009 samples, 61.83%)</title><rect x="30.0" y="323.0" width="729.6" height="15" fill="#60f160" rx="2" ry="2"/>
<text x="33.0" y="334.0">one/nio/http/HttpSession.handleParsedRequest</text>
</g>
<g>
<title>one/nio/http/HttpServer.handleRequest (2,009 samples, 61.83%)</title><rect x="30.0" y="307.0" width="729.6" height="15" fill="#5eef5e" rx="2" ry="2"/>
<text x="33.0" y="318.0">one/nio/http/HttpServer.handleRequest</text>
</g>
<g>
<title>RequestHandler3_upsert.handleRequest (1,923 samples, 59.19%)</title><rect x="30.0" y="291.0" width="698.4" height="15" fill="#62f362" rx="2" ry="2"/>
<text x="33.0" y="302.0">RequestHandler3_upsert.handleRequest</text>
</g>
<g>
<title>one/nio/http/HttpSession.sendResponse (193 samples, 5.94%)</title><rect x="30.0" y="275.0" width="70.1" height="15" fill="#5aeb5a" rx="2" ry="2"/>
<text x="33.0" y="286.0">one/nio/..</text>
</g>
<g>
<title>one/nio/http/HttpSession.writeResponse (193 samples, 5.94%)</title><rect x="30.0" y="259.0" width="70.1" height="15" fill="#5ff05f" rx="2" ry="2"/>
<text x="33.0" y="270.0">one/nio/..</text>
</g>
<g>
<title>one/nio/http/Response.toBytes (139 samples, 4.28%)</title><rect x="30.0" y="243.0" width="50.5" height="15" fill="#6cfd6c" rx="2" ry="2"/>
<text x="33.0" y="254.0">one/n..</text>
</g>
<g>
<title>one/nio/util/ByteArrayBuilder.&lt;init&gt; (139 samples, 4.28%)</title><rect x="30.0" y="227.0" width="50.5" height="15" fill="#6bfc6b" rx="2" ry="2"/>
<text x="33.0" y="238.0">one/n..</text>
</g>
<g>
<title>byte[] (139 samples, 4.28%)</title><rect x="30.0" y="211.0" width="50.5" height="15" fill="#63d1d1" rx="2" ry="2"/>
<text x="33.0" y="222.0">byte[]</text>
</g>
<g>
<title>one/nio/net/Session.write (54 samples, 1.66%)</title><rect x="80.5" y="243.0" width="19.6" height="15" fill="#65f665" rx="2" ry="2"/>
<text x="83.5" y="254.0"></text>
</g>
<g>
<title>one.nio.net.Session$ArrayQueueItem (54 samples, 1.66%)</title><rect x="80.5" y="227.0" width="19.6" height="15" fill="#54c2c2" rx="2" ry="2"/>
<text x="83.5" y="238.0"></text>
</g>
<g>
<title>one/nio/http/Request.getRequiredParameter (113 samples, 3.48%)</title><rect x="100.1" y="275.0" width="41.0" height="15" fill="#62f362" rx="2" ry="2"/>
<text x="103.1" y="286.0">one..</text>
</g>
<g>
<title>one/nio/http/Request.getParameter (113 samples, 3.48%)</title><rect x="100.1" y="259.0" width="41.0" height="15" fill="#50e150" rx="2" ry="2"/>
<text x="103.1" y="270.0">one..</text>
</g>
<g>
<title>java/lang/String.substring (113 samples, 3.48%)</title><rect x="100.1" y="243.0" width="41.0" height="15" fill="#57e857" rx="2" ry="2"/>
<text x="103.1" y="254.0">jav..</text>
</g>
<g>
<title>java/lang/StringLatin1.newString (113 samples, 3.48%)</title><rect x="100.1" y="227.0" width="41.0" height="15" fill="#54e554" rx="2" ry="2"/>
<text x="103.1" y="238.0">jav..</text>
</g>
<g>
<title>java.lang.String (23 samples, 0.71%)</title><rect x="100.1" y="211.0" width="8.3" height="15" fill="#68d6d6" rx="2" ry="2"/>
<text x="103.1" y="222.0"></text>
</g>
<g>
<title>java/util/Arrays.copyOfRange (90 samples, 2.77%)</title><rect x="108.4" y="211.0" width="32.7" height="15" fill="#54e554" rx="2" ry="2"/>
<text x="111.4" y="222.0">ja..</text>
</g>
<g>
<title>byte[] (90 samples, 2.77%)</title><rect x="108.4" y="195.0" width="32.7" height="15" fill="#5ccaca" rx="2" ry="2"/>
<text x="111.4" y="206.0">by..</text>
</g>
<g>
<title>ru/mail/polis/service/zvladn7/BasicService.upsert (1,617 samples, 49.77%)</title><rect x="141.1" y="275.0" width="587.3" height="15" fill="#53e453" rx="2" ry="2"/>
<text x="144.1" y="286.0">ru/mail/polis/service/zvladn7/BasicService.upsert</text>
</g>
<g>
<title>java/lang/String.&lt;init&gt; (60 samples, 1.85%)</title><rect x="141.1" y="259.0" width="21.8" height="15" fill="#53e453" rx="2" ry="2"/>
<text x="144.1" y="270.0">j..</text>
</g>
<g>
<title>java/lang/String.&lt;init&gt; (60 samples, 1.85%)</title><rect x="141.1" y="243.0" width="21.8" height="15" fill="#6dfe6d" rx="2" ry="2"/>
<text x="144.1" y="254.0">j..</text>
</g>
<g>
<title>java/lang/StringCoding.decode (60 samples, 1.85%)</title><rect x="141.1" y="227.0" width="21.8" height="15" fill="#56e756" rx="2" ry="2"/>
<text x="144.1" y="238.0">j..</text>
</g>
<g>
<title>java/lang/StringCoding.decodeUTF8 (60 samples, 1.85%)</title><rect x="141.1" y="211.0" width="21.8" height="15" fill="#5ff05f" rx="2" ry="2"/>
<text x="144.1" y="222.0">j..</text>
</g>
<g>
<title>java/util/Arrays.copyOfRange (60 samples, 1.85%)</title><rect x="141.1" y="195.0" width="21.8" height="15" fill="#69fa69" rx="2" ry="2"/>
<text x="144.1" y="206.0">j..</text>
</g>
<g>
<title>byte[] (60 samples, 1.85%)</title><rect x="141.1" y="179.0" width="21.8" height="15" fill="#62d0d0" rx="2" ry="2"/>
<text x="144.1" y="190.0">b..</text>
</g>
<g>
<title>one.nio.http.Response (26 samples, 0.80%)</title><rect x="162.9" y="259.0" width="9.4" height="15" fill="#58c6c6" rx="2" ry="2"/>
<text x="165.9" y="270.0"></text>
</g>
<g>
<title>one/nio/http/Response.&lt;init&gt; (168 samples, 5.17%)</title><rect x="172.3" y="259.0" width="61.1" height="15" fill="#63f463" rx="2" ry="2"/>
<text x="175.3" y="270.0">one/ni..</text>
</g>
<g>
<title>byte[] (60 samples, 1.85%)</title><rect x="172.3" y="243.0" width="21.8" height="15" fill="#5fcdcd" rx="2" ry="2"/>
<text x="175.3" y="254.0">b..</text>
</g>
<g>
<title>java.lang.String[] (74 samples, 2.28%)</title><rect x="194.1" y="243.0" width="26.9" height="15" fill="#5ecccc" rx="2" ry="2"/>
<text x="197.1" y="254.0">j..</text>
</g>
<g>
<title>java.lang.String (32 samples, 0.98%)</title><rect x="221.0" y="243.0" width="11.6" height="15" fill="#6ddbdb" rx="2" ry="2"/>
<text x="224.0" y="254.0"></text>
</g>
<g>
<title>java/lang/StringBuilder.&lt;init&gt; (2 samples, 0.06%)</title><rect x="232.6" y="243.0" width="0.8" height="15" fill="#58e958" rx="2" ry="2"/>
<text x="235.6" y="254.0"></text>
</g>
<g>
<title>java/lang/AbstractStringBuilder.&lt;init&gt; (2 samples, 0.06%)</title><rect x="232.6" y="227.0" width="0.8" height="15" fill="#67f867" rx="2" ry="2"/>
<text x="235.6" y="238.0"></text>
</g>
<g>
<title>byte[] (2 samples, 0.06%)</title><rect x="232.6" y="211.0" width="0.8" height="15" fill="#5fcdcd" rx="2" ry="2"/>
<text x="235.6" y="222.0"></text>
</g>
<g>
<title>ru/mail/polis/dao/zvladn7/LsmDAOImpl.upsert (1,099 samples, 33.83%)</title><rect x="233.4" y="259.0" width="399.1" height="15" fill="#67f867" rx="2" ry="2"/>
<text x="236.4" y="270.0">ru/mail/polis/dao/zvladn7/LsmDAOImpl.upsert</text>
</g>
<g>
<title>ru/mail/polis/dao/zvladn7/LsmDAOImpl.flush (840 samples, 25.85%)</title><rect x="233.4" y="243.0" width="305.0" height="15" fill="#5ced5c" rx="2" ry="2"/>
<text x="236.4" y="254.0">ru/mail/polis/dao/zvladn7/LsmDAOImpl.flush</text>
</g>
<g>
<title>ru/mail/polis/dao/zvladn7/LsmDAOImpl.serialize (840 samples, 25.85%)</title><rect x="233.4" y="227.0" width="305.0" height="15" fill="#6afb6a" rx="2" ry="2"/>
<text x="236.4" y="238.0">ru/mail/polis/dao/zvladn7/LsmDAOImpl.seri..</text>
</g>
<g>
<title>ru/mail/polis/dao/zvladn7/SSTable.serialize (840 samples, 25.85%)</title><rect x="233.4" y="211.0" width="305.0" height="15" fill="#58e958" rx="2" ry="2"/>
<text x="236.4" y="222.0">ru/mail/polis/dao/zvladn7/SSTable.serialize</text>
</g>
<g>
<title>java/lang/Integer.valueOf (49 samples, 1.51%)</title><rect x="233.4" y="195.0" width="17.8" height="15" fill="#5aeb5a" rx="2" ry="2"/>
<text x="236.4" y="206.0"></text>
</g>
<g>
<title>java.lang.Integer (49 samples, 1.51%)</title><rect x="233.4" y="179.0" width="17.8" height="15" fill="#68d6d6" rx="2" ry="2"/>
<text x="236.4" y="190.0"></text>
</g>
<g>
<title>java/nio/ByteBuffer.allocate (595 samples, 18.31%)</title><rect x="251.2" y="195.0" width="216.1" height="15" fill="#6bfc6b" rx="2" ry="2"/>
<text x="254.2" y="206.0">java/nio/ByteBuffer.allocate</text>
</g>
<g>
<title>java.nio.HeapByteBuffer (354 samples, 10.90%)</title><rect x="251.2" y="179.0" width="128.5" height="15" fill="#52c0c0" rx="2" ry="2"/>
<text x="254.2" y="190.0">java.nio.HeapByt..</text>
</g>
<g>
<title>java/nio/HeapByteBuffer.&lt;init&gt; (241 samples, 7.42%)</title><rect x="379.7" y="179.0" width="87.6" height="15" fill="#6cfd6c" rx="2" ry="2"/>
<text x="382.7" y="190.0">java/nio/H..</text>
</g>
<g>
<title>byte[] (241 samples, 7.42%)</title><rect x="379.7" y="163.0" width="87.6" height="15" fill="#5fcdcd" rx="2" ry="2"/>
<text x="382.7" y="174.0">byte[]</text>
</g>
<g>
<title>java/util/ArrayList.add (15 samples, 0.46%)</title><rect x="467.3" y="195.0" width="5.4" height="15" fill="#52e352" rx="2" ry="2"/>
<text x="470.3" y="206.0"></text>
</g>
<g>
<title>java/util/ArrayList.add (15 samples, 0.46%)</title><rect x="467.3" y="179.0" width="5.4" height="15" fill="#55e655" rx="2" ry="2"/>
<text x="470.3" y="190.0"></text>
</g>
<g>
<title>java/util/ArrayList.grow (15 samples, 0.46%)</title><rect x="467.3" y="163.0" width="5.4" height="15" fill="#63f463" rx="2" ry="2"/>
<text x="470.3" y="174.0"></text>
</g>
<g>
<title>java/util/ArrayList.grow (15 samples, 0.46%)</title><rect x="467.3" y="147.0" width="5.4" height="15" fill="#6afb6a" rx="2" ry="2"/>
<text x="470.3" y="158.0"></text>
</g>
<g>
<title>java/util/Arrays.copyOf (15 samples, 0.46%)</title><rect x="467.3" y="131.0" width="5.4" height="15" fill="#5aeb5a" rx="2" ry="2"/>
<text x="470.3" y="142.0"></text>
</g>
<g>
<title>java.lang.Object[] (11 samples, 0.34%)</title><rect x="467.3" y="115.0" width="3.9" height="15" fill="#e27e00" rx="2" ry="2"/>
<text x="470.3" y="126.0"></text>
</g>
<g>
<title>java/util/Arrays.copyOf (4 samples, 0.12%)</title><rect x="471.2" y="115.0" width="1.5" height="15" fill="#50e150" rx="2" ry="2"/>
<text x="474.2" y="126.0"></text>
</g>
<g>
<title>java.lang.Object[] (4 samples, 0.12%)</title><rect x="471.2" y="99.0" width="1.5" height="15" fill="#ee8a00" rx="2" ry="2"/>
<text x="474.2" y="110.0"></text>
</g>
<g>
<title>java/util/Spliterators$1Adapter.hasNext (22 samples, 0.68%)</title><rect x="472.7" y="195.0" width="8.0" height="15" fill="#51e251" rx="2" ry="2"/>
<text x="475.7" y="206.0"></text>
</g>
<g>
<title>java/util/stream/StreamSpliterators$WrappingSpliterator.tryAdvance (22 samples, 0.68%)</title><rect x="472.7" y="179.0" width="8.0" height="15" fill="#57e857" rx="2" ry="2"/>
<text x="475.7" y="190.0"></text>
</g>
<g>
<title>java/util/stream/StreamSpliterators$AbstractWrappingSpliterator.doAdvance (22 samples, 0.68%)</title><rect x="472.7" y="163.0" width="8.0" height="15" fill="#6dfe6d" rx="2" ry="2"/>
<text x="475.7" y="174.0"></text>
</g>
<g>
<title>java/util/stream/StreamSpliterators$AbstractWrappingSpliterator.fillBuffer (22 samples, 0.68%)</title><rect x="472.7" y="147.0" width="8.0" height="15" fill="#6bfc6b" rx="2" ry="2"/>
<text x="475.7" y="158.0"></text>
</g>
<g>
<title>java/util/stream/StreamSpliterators$WrappingSpliterator$$Lambda$85/455945298.getAsBoolean (22 samples, 0.68%)</title><rect x="472.7" y="131.0" width="8.0" height="15" fill="#69fa69" rx="2" ry="2"/>
<text x="475.7" y="142.0"></text>
</g>
<g>
<title>java/util/stream/StreamSpliterators$WrappingSpliterator.lambda$initPartialTraversalState$0 (22 samples, 0.68%)</title><rect x="472.7" y="115.0" width="8.0" height="15" fill="#57e857" rx="2" ry="2"/>
<text x="475.7" y="126.0"></text>
</g>
<g>
<title>java/util/Spliterators$IteratorSpliterator.tryAdvance (22 samples, 0.68%)</title><rect x="472.7" y="99.0" width="8.0" height="15" fill="#60f160" rx="2" ry="2"/>
<text x="475.7" y="110.0"></text>
</g>
<g>
<title>java/util/stream/ReferencePipeline$3$1.accept (22 samples, 0.68%)</title><rect x="472.7" y="83.0" width="8.0" height="15" fill="#5bec5b" rx="2" ry="2"/>
<text x="475.7" y="94.0"></text>
</g>
<g>
<title>ru/mail/polis/dao/zvladn7/MemoryTable$$Lambda$82/1227120841.apply (22 samples, 0.68%)</title><rect x="472.7" y="67.0" width="8.0" height="15" fill="#66f766" rx="2" ry="2"/>
<text x="475.7" y="78.0"></text>
</g>
<g>
<title>ru/mail/polis/dao/zvladn7/MemoryTable.lambda$iterator$0 (22 samples, 0.68%)</title><rect x="472.7" y="51.0" width="8.0" height="15" fill="#5ff05f" rx="2" ry="2"/>
<text x="475.7" y="62.0"></text>
</g>
<g>
<title>ru.mail.polis.dao.zvladn7.Cell (22 samples, 0.68%)</title><rect x="472.7" y="35.0" width="8.0" height="15" fill="#64d2d2" rx="2" ry="2"/>
<text x="475.7" y="46.0"></text>
</g>
<g>
<title>ru/mail/polis/dao/zvladn7/Cell.getKey (75 samples, 2.31%)</title><rect x="480.7" y="195.0" width="27.2" height="15" fill="#5ff05f" rx="2" ry="2"/>
<text x="483.7" y="206.0">r..</text>
</g>
<g>
<title>java/nio/HeapByteBuffer.asReadOnlyBuffer (75 samples, 2.31%)</title><rect x="480.7" y="179.0" width="27.2" height="15" fill="#51e251" rx="2" ry="2"/>
<text x="483.7" y="190.0">j..</text>
</g>
<g>
<title>java.nio.HeapByteBufferR (75 samples, 2.31%)</title><rect x="480.7" y="163.0" width="27.2" height="15" fill="#5dcbcb" rx="2" ry="2"/>
<text x="483.7" y="174.0">j..</text>
</g>
<g>
<title>ru/mail/polis/dao/zvladn7/Value.getData (84 samples, 2.59%)</title><rect x="507.9" y="195.0" width="30.5" height="15" fill="#6bfc6b" rx="2" ry="2"/>
<text x="510.9" y="206.0">ru..</text>
</g>
<g>
<title>java/nio/HeapByteBuffer.asReadOnlyBuffer (84 samples, 2.59%)</title><rect x="507.9" y="179.0" width="30.5" height="15" fill="#6bfc6b" rx="2" ry="2"/>
<text x="510.9" y="190.0">ja..</text>
</g>
<g>
<title>java.nio.HeapByteBufferR (84 samples, 2.59%)</title><rect x="507.9" y="163.0" width="30.5" height="15" fill="#65d3d3" rx="2" ry="2"/>
<text x="510.9" y="174.0">ja..</text>
</g>
<g>
<title>ru/mail/polis/dao/zvladn7/MemoryTable.upsert (259 samples, 7.97%)</title><rect x="538.4" y="243.0" width="94.1" height="15" fill="#58e958" rx="2" ry="2"/>
<text x="541.4" y="254.0">ru/mail/pol..</text>
</g>
<g>
<title>java/nio/HeapByteBuffer.duplicate (165 samples, 5.08%)</title><rect x="538.4" y="227.0" width="60.0" height="15" fill="#66f766" rx="2" ry="2"/>
<text x="541.4" y="238.0">java/n..</text>
</g>
<g>
<title>java.nio.HeapByteBuffer (165 samples, 5.08%)</title><rect x="538.4" y="211.0" width="60.0" height="15" fill="#63d1d1" rx="2" ry="2"/>
<text x="541.4" y="222.0">java.n..</text>
</g>
<g>
<title>java/util/TreeMap.put (60 samples, 1.85%)</title><rect x="598.4" y="227.0" width="21.8" height="15" fill="#5aeb5a" rx="2" ry="2"/>
<text x="601.4" y="238.0">j..</text>
</g>
<g>
<title>java.util.TreeMap$Entry (60 samples, 1.85%)</title><rect x="598.4" y="211.0" width="21.8" height="15" fill="#64d2d2" rx="2" ry="2"/>
<text x="601.4" y="222.0">j..</text>
</g>
<g>
<title>ru.mail.polis.dao.zvladn7.Value (34 samples, 1.05%)</title><rect x="620.2" y="227.0" width="12.3" height="15" fill="#54c2c2" rx="2" ry="2"/>
<text x="623.2" y="238.0"></text>
</g>
<g>
<title>ru/mail/polis/service/zvladn7/BasicService.wrapArray (94 samples, 2.89%)</title><rect x="632.5" y="259.0" width="34.1" height="15" fill="#5dee5d" rx="2" ry="2"/>
<text x="635.5" y="270.0">ru..</text>
</g>
<g>
<title>java/nio/ByteBuffer.wrap (94 samples, 2.89%)</title><rect x="632.5" y="243.0" width="34.1" height="15" fill="#6afb6a" rx="2" ry="2"/>
<text x="635.5" y="254.0">ja..</text>
</g>
<g>
<title>java/nio/ByteBuffer.wrap (94 samples, 2.89%)</title><rect x="632.5" y="227.0" width="34.1" height="15" fill="#68f968" rx="2" ry="2"/>
<text x="635.5" y="238.0">ja..</text>
</g>
<g>
<title>java.nio.HeapByteBuffer (94 samples, 2.89%)</title><rect x="632.5" y="211.0" width="34.1" height="15" fill="#59c7c7" rx="2" ry="2"/>
<text x="635.5" y="222.0">ja..</text>
</g>
<g>
<title>ru/mail/polis/service/zvladn7/BasicService.wrapString (170 samples, 5.23%)</title><rect x="666.6" y="259.0" width="61.8" height="15" fill="#56e756" rx="2" ry="2"/>
<text x="669.6" y="270.0">ru/mai..</text>
</g>
<g>
<title>java/nio/ByteBuffer.wrap (59 samples, 1.82%)</title><rect x="666.6" y="243.0" width="21.5" height="15" fill="#6afb6a" rx="2" ry="2"/>
<text x="669.6" y="254.0">j..</text>
</g>
<g>
<title>java/nio/ByteBuffer.wrap (59 samples, 1.82%)</title><rect x="666.6" y="227.0" width="21.5" height="15" fill="#5aeb5a" rx="2" ry="2"/>
<text x="669.6" y="238.0">j..</text>
</g>
<g>
<title>java.nio.HeapByteBuffer (59 samples, 1.82%)</title><rect x="666.6" y="211.0" width="21.5" height="15" fill="#64d2d2" rx="2" ry="2"/>
<text x="669.6" y="222.0">j..</text>
</g>
<g>
<title>ru/mail/polis/service/zvladn7/BasicService.toBytes (111 samples, 3.42%)</title><rect x="688.1" y="243.0" width="40.3" height="15" fill="#6cfd6c" rx="2" ry="2"/>
<text x="691.1" y="254.0">ru/..</text>
</g>
<g>
<title>one/nio/util/Utf8.toBytes (111 samples, 3.42%)</title><rect x="688.1" y="227.0" width="40.3" height="15" fill="#61f261" rx="2" ry="2"/>
<text x="691.1" y="238.0">one..</text>
</g>
<g>
<title>byte[] (111 samples, 3.42%)</title><rect x="688.1" y="211.0" width="40.3" height="15" fill="#63d1d1" rx="2" ry="2"/>
<text x="691.1" y="222.0">byt..</text>
</g>
<g>
<title>one/nio/http/Request.getPath (86 samples, 2.65%)</title><rect x="728.4" y="291.0" width="31.2" height="15" fill="#69fa69" rx="2" ry="2"/>
<text x="731.4" y="302.0">on..</text>
</g>
<g>
<title>java/lang/String.substring (86 samples, 2.65%)</title><rect x="728.4" y="275.0" width="31.2" height="15" fill="#5dee5d" rx="2" ry="2"/>
<text x="731.4" y="286.0">ja..</text>
</g>
<g>
<title>java/lang/StringLatin1.newString (86 samples, 2.65%)</title><rect x="728.4" y="259.0" width="31.2" height="15" fill="#6bfc6b" rx="2" ry="2"/>
<text x="731.4" y="270.0">ja..</text>
</g>
<g>
<title>java.lang.String (39 samples, 1.20%)</title><rect x="728.4" y="243.0" width="14.2" height="15" fill="#5bc9c9" rx="2" ry="2"/>
<text x="731.4" y="254.0"></text>
</g>
<g>
<title>java/util/Arrays.copyOfRange (47 samples, 1.45%)</title><rect x="742.6" y="243.0" width="17.0" height="15" fill="#68f968" rx="2" ry="2"/>
<text x="745.6" y="254.0"></text>
</g>
<g>
<title>byte[] (47 samples, 1.45%)</title><rect x="742.6" y="227.0" width="17.0" height="15" fill="#64d2d2" rx="2" ry="2"/>
<text x="745.6" y="238.0"></text>
</g>
<g>
<title>one/nio/http/HttpSession.parseRequest (589 samples, 18.13%)</title><rect x="759.6" y="323.0" width="213.9" height="15" fill="#6bfc6b" rx="2" ry="2"/>
<text x="762.6" y="334.0">one/nio/http/HttpSession.par..</text>
</g>
<g>
<title>one.nio.http.Request (64 samples, 1.97%)</title><rect x="759.6" y="307.0" width="23.3" height="15" fill="#5ecccc" rx="2" ry="2"/>
<text x="762.6" y="318.0">o..</text>
</g>
<g>
<title>one/nio/http/Request.&lt;init&gt; (199 samples, 6.12%)</title><rect x="782.9" y="307.0" width="72.2" height="15" fill="#56e756" rx="2" ry="2"/>
<text x="785.9" y="318.0">one/nio/..</text>
</g>
<g>
<title>java.lang.String[] (199 samples, 6.12%)</title><rect x="782.9" y="291.0" width="72.2" height="15" fill="#6cdada" rx="2" ry="2"/>
<text x="785.9" y="302.0">java.lan..</text>
</g>
<g>
<title>one/nio/util/Utf8.read (326 samples, 10.03%)</title><rect x="855.1" y="307.0" width="118.4" height="15" fill="#6bfc6b" rx="2" ry="2"/>
<text x="858.1" y="318.0">one/nio/util/U..</text>
</g>
<g>
<title>one/nio/util/Utf8.read (326 samples, 10.03%)</title><rect x="855.1" y="291.0" width="118.4" height="15" fill="#54e554" rx="2" ry="2"/>
<text x="858.1" y="302.0">one/nio/util/U..</text>
</g>
<g>
<title>char[] (183 samples, 5.63%)</title><rect x="855.1" y="275.0" width="66.5" height="15" fill="#6ad8d8" rx="2" ry="2"/>
<text x="858.1" y="286.0">char[]</text>
</g>
<g>
<title>java.lang.String (21 samples, 0.65%)</title><rect x="921.6" y="275.0" width="7.6" height="15" fill="#63d1d1" rx="2" ry="2"/>
<text x="924.6" y="286.0"></text>
</g>
<g>
<title>java/lang/String.&lt;init&gt; (122 samples, 3.76%)</title><rect x="929.2" y="275.0" width="44.3" height="15" fill="#5ced5c" rx="2" ry="2"/>
<text x="932.2" y="286.0">java..</text>
</g>
<g>
<title>java/lang/String.&lt;init&gt; (122 samples, 3.76%)</title><rect x="929.2" y="259.0" width="44.3" height="15" fill="#62f362" rx="2" ry="2"/>
<text x="932.2" y="270.0">java..</text>
</g>
<g>
<title>java/lang/StringUTF16.compress (122 samples, 3.76%)</title><rect x="929.2" y="243.0" width="44.3" height="15" fill="#58e958" rx="2" ry="2"/>
<text x="932.2" y="254.0">java..</text>
</g>
<g>
<title>byte[] (122 samples, 3.76%)</title><rect x="929.2" y="227.0" width="44.3" height="15" fill="#67d5d5" rx="2" ry="2"/>
<text x="932.2" y="238.0">byte[]</text>
</g>
<g>
<title>one/nio/http/HttpSession.startParsingRequestBody (67 samples, 2.06%)</title><rect x="973.5" y="323.0" width="24.4" height="15" fill="#59ea59" rx="2" ry="2"/>
<text x="976.5" y="334.0">o..</text>
</g>
<g>
<title>byte[] (67 samples, 2.06%)</title><rect x="973.5" y="307.0" width="24.4" height="15" fill="#5dcbcb" rx="2" ry="2"/>
<text x="976.5" y="318.0">b..</text>
</g>
<g>
<title>one/nio/http/Request.getHeader (76 samples, 2.34%)</title><rect x="997.9" y="323.0" width="27.6" height="15" fill="#56e756" rx="2" ry="2"/>
<text x="1000.9" y="334.0">o..</text>
</g>
<g>
<title>java/lang/String.substring (76 samples, 2.34%)</title><rect x="997.9" y="307.0" width="27.6" height="15" fill="#55e655" rx="2" ry="2"/>
<text x="1000.9" y="318.0">j..</text>
</g>
<g>
<title>java/lang/StringLatin1.newString (76 samples, 2.34%)</title><rect x="997.9" y="291.0" width="27.6" height="15" fill="#58e958" rx="2" ry="2"/>
<text x="1000.9" y="302.0">j..</text>
</g>
<g>
<title>java.lang.String (29 samples, 0.89%)</title><rect x="997.9" y="275.0" width="10.5" height="15" fill="#60cece" rx="2" ry="2"/>
<text x="1000.9" y="286.0"></text>
</g>
<g>
<title>java/util/Arrays.copyOfRange (47 samples, 1.45%)</title><rect x="1008.4" y="275.0" width="17.1" height="15" fill="#5ced5c" rx="2" ry="2"/>
<text x="1011.4" y="286.0"></text>
</g>
<g>
<title>byte[] (47 samples, 1.45%)</title><rect x="1008.4" y="259.0" width="17.1" height="15" fill="#55c3c3" rx="2" ry="2"/>
<text x="1011.4" y="270.0"></text>
</g>
<g>
<title>one/nio/util/Utf8.read (453 samples, 13.94%)</title><rect x="1025.5" y="323.0" width="164.5" height="15" fill="#6bfc6b" rx="2" ry="2"/>
<text x="1028.5" y="334.0">one/nio/util/Utf8.read</text>
</g>
<g>
<title>one/nio/util/Utf8.read (453 samples, 13.94%)</title><rect x="1025.5" y="307.0" width="164.5" height="15" fill="#53e453" rx="2" ry="2"/>
<text x="1028.5" y="318.0">one/nio/util/Utf8.read</text>
</g>
<g>
<title>char[] (168 samples, 5.17%)</title><rect x="1025.5" y="291.0" width="61.0" height="15" fill="#53c1c1" rx="2" ry="2"/>
<text x="1028.5" y="302.0">char[]</text>
</g>
<g>
<title>java.lang.String (102 samples, 3.14%)</title><rect x="1086.5" y="291.0" width="37.0" height="15" fill="#5ecccc" rx="2" ry="2"/>
<text x="1089.5" y="302.0">jav..</text>
</g>
<g>
<title>java/lang/String.&lt;init&gt; (183 samples, 5.63%)</title><rect x="1123.5" y="291.0" width="66.5" height="15" fill="#66f766" rx="2" ry="2"/>
<text x="1126.5" y="302.0">java/la..</text>
</g>
<g>
<title>java/lang/String.&lt;init&gt; (183 samples, 5.63%)</title><rect x="1123.5" y="275.0" width="66.5" height="15" fill="#6dfe6d" rx="2" ry="2"/>
<text x="1126.5" y="286.0">java/la..</text>
</g>
<g>
<title>java/lang/StringUTF16.compress (183 samples, 5.63%)</title><rect x="1123.5" y="259.0" width="66.5" height="15" fill="#6cfd6c" rx="2" ry="2"/>
<text x="1126.5" y="270.0">java/la..</text>
</g>
<g>
<title>byte[] (183 samples, 5.63%)</title><rect x="1123.5" y="243.0" width="66.5" height="15" fill="#64d2d2" rx="2" ry="2"/>
<text x="1126.5" y="254.0">byte[]</text>
</g>
</g>
</svg>
