<?xml version="1.0" standalone="no"?>
<!DOCTYPE svg PUBLIC "-//W3C//DTD SVG 1.1//EN" "http://www.w3.org/Graphics/SVG/1.1/DTD/svg11.dtd">
<svg version="1.1" width="1200" height="454" onload="init(evt)" viewBox="0 0 1200 454" xmlns="http://www.w3.org/2000/svg" xmlns:xlink="http://www.w3.org/1999/xlink">
<style type="text/css">
	text { font-family:Verdana; font-size:12px; fill:rgb(0,0,0); }
	#search { opacity:0.1; cursor:pointer; }
	#search:hover, #search.show { opacity:1; }
	#subtitle { text-anchor:middle; font-color:rgb(160,160,160); }
	#title { text-anchor:middle; font-size:17px}
	#unzoom { cursor:pointer; }
	#frames > *:hover { stroke:black; stroke-width:0.5; cursor:pointer; }
	.hide { display:none; }
	.parent { opacity:0.5; }
</style>
<script type="text/ecmascript">
<![CDATA[
	"use strict";
	var details, searchbtn, unzoombtn, matchedtxt, svg, searching;
	function init(evt) {
		details = document.getElementById("details").firstChild;
		searchbtn = document.getElementById("search");
		unzoombtn = document.getElementById("unzoom");
		matchedtxt = document.getElementById("matched");
		svg = document.getElementsByTagName("svg")[0];
		searching = 0;
	}

	window.addEventListener("click", function(e) {
		var target = find_group(e.target);
		if (target) {
			if (target.nodeName == "a") {
				if (e.ctrlKey === false) return;
				e.preventDefault();
			}
			if (target.classList.contains("parent")) unzoom();
			zoom(target);
		}
		else if (e.target.id == "unzoom") unzoom();
		else if (e.target.id == "search") search_prompt();
	}, false)

	// mouse-over for info
	// show
	window.addEventListener("mouseover", function(e) {
		var target = find_group(e.target);
		if (target) details.nodeValue = "Function: " + g_to_text(target);
	}, false)

	// clear
	window.addEventListener("mouseout", function(e) {
		var target = find_group(e.target);
		if (target) details.nodeValue = ' ';
	}, false)

	// ctrl-F for search
	window.addEventListener("keydown",function (e) {
		if (e.keyCode === 114 || (e.ctrlKey && e.keyCode === 70)) {
			e.preventDefault();
			search_prompt();
		}
	}, false)

	// functions
	function find_child(node, selector) {
		var children = node.querySelectorAll(selector);
		if (children.length) return children[0];
		return;
	}
	function find_group(node) {
		var parent = node.parentElement;
		if (!parent) return;
		if (parent.id == "frames") return node;
		return find_group(parent);
	}
	function orig_save(e, attr, val) {
		if (e.attributes["_orig_" + attr] != undefined) return;
		if (e.attributes[attr] == undefined) return;
		if (val == undefined) val = e.attributes[attr].value;
		e.setAttribute("_orig_" + attr, val);
	}
	function orig_load(e, attr) {
		if (e.attributes["_orig_"+attr] == undefined) return;
		e.attributes[attr].value = e.attributes["_orig_" + attr].value;
		e.removeAttribute("_orig_"+attr);
	}
	function g_to_text(e) {
		var text = find_child(e, "title").firstChild.nodeValue;
		return (text)
	}
	function g_to_func(e) {
		var func = g_to_text(e);
		// if there's any manipulation we want to do to the function
		// name before it's searched, do it here before returning.
		return (func);
	}
	function update_text(e) {
		var r = find_child(e, "rect");
		var t = find_child(e, "text");
		var w = parseFloat(r.attributes.width.value) -3;
		var txt = find_child(e, "title").textContent.replace(/\([^(]*\)$/,"");
		t.attributes.x.value = parseFloat(r.attributes.x.value) + 3;

		// Smaller than this size won't fit anything
		if (w < 2 * 12 * 0.59) {
			t.textContent = "";
			return;
		}

		t.textContent = txt;
		// Fit in full text width
		if (/^ *$/.test(txt) || t.getSubStringLength(0, txt.length) < w)
			return;

		for (var x = txt.length - 2; x > 0; x--) {
			if (t.getSubStringLength(0, x + 2) <= w) {
				t.textContent = txt.substring(0, x) + "..";
				return;
			}
		}
		t.textContent = "";
	}

	// zoom
	function zoom_reset(e) {
		if (e.attributes != undefined) {
			orig_load(e, "x");
			orig_load(e, "width");
		}
		if (e.childNodes == undefined) return;
		for (var i = 0, c = e.childNodes; i < c.length; i++) {
			zoom_reset(c[i]);
		}
	}
	function zoom_child(e, x, ratio) {
		if (e.attributes != undefined) {
			if (e.attributes.x != undefined) {
				orig_save(e, "x");
				e.attributes.x.value = (parseFloat(e.attributes.x.value) - x - 10) * ratio + 10;
				if (e.tagName == "text")
					e.attributes.x.value = find_child(e.parentNode, "rect[x]").attributes.x.value + 3;
			}
			if (e.attributes.width != undefined) {
				orig_save(e, "width");
				e.attributes.width.value = parseFloat(e.attributes.width.value) * ratio;
			}
		}

		if (e.childNodes == undefined) return;
		for (var i = 0, c = e.childNodes; i < c.length; i++) {
			zoom_child(c[i], x - 10, ratio);
		}
	}
	function zoom_parent(e) {
		if (e.attributes) {
			if (e.attributes.x != undefined) {
				orig_save(e, "x");
				e.attributes.x.value = 10;
			}
			if (e.attributes.width != undefined) {
				orig_save(e, "width");
				e.attributes.width.value = parseInt(svg.width.baseVal.value) - (10 * 2);
			}
		}
		if (e.childNodes == undefined) return;
		for (var i = 0, c = e.childNodes; i < c.length; i++) {
			zoom_parent(c[i]);
		}
	}
	function zoom(node) {
		var attr = find_child(node, "rect").attributes;
		var width = parseFloat(attr.width.value);
		var xmin = parseFloat(attr.x.value);
		var xmax = parseFloat(xmin + width);
		var ymin = parseFloat(attr.y.value);
		var ratio = (svg.width.baseVal.value - 2 * 10) / width;

		// XXX: Workaround for JavaScript float issues (fix me)
		var fudge = 0.0001;

		unzoombtn.classList.remove("hide");

		var el = document.getElementById("frames").children;
		for (var i = 0; i < el.length; i++) {
			var e = el[i];
			var a = find_child(e, "rect").attributes;
			var ex = parseFloat(a.x.value);
			var ew = parseFloat(a.width.value);
			var upstack;
			// Is it an ancestor
			if (0 == 0) {
				upstack = parseFloat(a.y.value) > ymin;
			} else {
				upstack = parseFloat(a.y.value) < ymin;
			}
			if (upstack) {
				// Direct ancestor
				if (ex <= xmin && (ex+ew+fudge) >= xmax) {
					e.classList.add("parent");
					zoom_parent(e);
					update_text(e);
				}
				// not in current path
				else
					e.classList.add("hide");
			}
			// Children maybe
			else {
				// no common path
				if (ex < xmin || ex + fudge >= xmax) {
					e.classList.add("hide");
				}
				else {
					zoom_child(e, xmin, ratio);
					update_text(e);
				}
			}
		}
	}
	function unzoom() {
		unzoombtn.classList.add("hide");
		var el = document.getElementById("frames").children;
		for(var i = 0; i < el.length; i++) {
			el[i].classList.remove("parent");
			el[i].classList.remove("hide");
			zoom_reset(el[i]);
			update_text(el[i]);
		}
	}

	// search
	function reset_search() {
		var el = document.querySelectorAll("#frames rect");
		for (var i = 0; i < el.length; i++) {
			orig_load(el[i], "fill")
		}
	}
	function search_prompt() {
		if (!searching) {
			var term = prompt("Enter a search term (regexp " +
			    "allowed, eg: ^ext4_)", "");
			if (term != null) {
				search(term)
			}
		} else {
			reset_search();
			searching = 0;
			searchbtn.classList.remove("show");
			searchbtn.firstChild.nodeValue = "Search"
			matchedtxt.classList.add("hide");
			matchedtxt.firstChild.nodeValue = ""
		}
	}
	function search(term) {
		var re = new RegExp(term);
		var el = document.getElementById("frames").children;
		var matches = new Object();
		var maxwidth = 0;
		for (var i = 0; i < el.length; i++) {
			var e = el[i];
			var func = g_to_func(e);
			var rect = find_child(e, "rect");
			if (func == null || rect == null)
				continue;

			// Save max width. Only works as we have a root frame
			var w = parseFloat(rect.attributes.width.value);
			if (w > maxwidth)
				maxwidth = w;

			if (func.match(re)) {
				// highlight
				var x = parseFloat(rect.attributes.x.value);
				orig_save(rect, "fill");
				rect.attributes.fill.value = "rgb(230,0,230)";

				// remember matches
				if (matches[x] == undefined) {
					matches[x] = w;
				} else {
					if (w > matches[x]) {
						// overwrite with parent
						matches[x] = w;
					}
				}
				searching = 1;
			}
		}
		if (!searching)
			return;

		searchbtn.classList.add("show");
		searchbtn.firstChild.nodeValue = "Reset Search";

		// calculate percent matched, excluding vertical overlap
		var count = 0;
		var lastx = -1;
		var lastw = 0;
		var keys = Array();
		for (k in matches) {
			if (matches.hasOwnProperty(k))
				keys.push(k);
		}
		// sort the matched frames by their x location
		// ascending, then width descending
		keys.sort(function(a, b){
			return a - b;
		});
		// Step through frames saving only the biggest bottom-up frames
		// thanks to the sort order. This relies on the tree property
		// where children are always smaller than their parents.
		var fudge = 0.0001;	// JavaScript floating point
		for (var k in keys) {
			var x = parseFloat(keys[k]);
			var w = matches[keys[k]];
			if (x >= lastx + lastw - fudge) {
				count += w;
				lastx = x;
				lastw = w;
			}
		}
		// display matched percent
		matchedtxt.classList.remove("hide");
		var pct = 100 * count / maxwidth;
		if (pct != 100) pct = pct.toFixed(1)
		matchedtxt.firstChild.nodeValue = "Matched: " + pct + "%";
	}
]]>
</script>
<rect x="0" y="0" width="100%" height="100%" fill="rgb(240,240,220)"/>
<text id="title" x="600" y="24">Flame Graph</text>
<text id="details" x="10" y="437"> </text>
<text id="unzoom" x="10" y="24" class="hide">Reset Zoom</text>
<text id="search" x="1090" y="24">Search</text>
<text id="matched" x="1090" y="437"> </text>
<g id="frames">
<g>
<title>all (4,680 samples, 100.00%)</title><rect x="10.0" y="403.0" width="1180.0" height="15" fill="#f37272" rx="2" ry="2"/>
<text x="13.0" y="414.0">all</text>
</g>
<g>
<title>one/nio/server/SelectorThread.run (4,680 samples, 100.00%)</title><rect x="10.0" y="387.0" width="1180.0" height="15" fill="#5aeb5a" rx="2" ry="2"/>
<text x="13.0" y="398.0">one/nio/server/SelectorThread.run</text>
</g>
<g>
<title>one/nio/net/Session.process (4,680 samples, 100.00%)</title><rect x="10.0" y="371.0" width="1180.0" height="15" fill="#5eef5e" rx="2" ry="2"/>
<text x="13.0" y="382.0">one/nio/net/Session.process</text>
</g>
<g>
<title>one/nio/http/HttpSession.processRead (4,680 samples, 100.00%)</title><rect x="10.0" y="355.0" width="1180.0" height="15" fill="#56e756" rx="2" ry="2"/>
<text x="13.0" y="366.0">one/nio/http/HttpSession.processRead</text>
</g>
<g>
<title>one/nio/http/HttpSession.processHttpBuffer (4,680 samples, 100.00%)</title><rect x="10.0" y="339.0" width="1180.0" height="15" fill="#67f867" rx="2" ry="2"/>
<text x="13.0" y="350.0">one/nio/http/HttpSession.processHttpBuffer</text>
</g>
<g>
<title>one/nio/http/HttpSession.handleParsedRequest (2,937 samples, 62.76%)</title><rect x="10.0" y="323.0" width="740.5" height="15" fill="#51e251" rx="2" ry="2"/>
<text x="13.0" y="334.0">one/nio/http/HttpSession.handleParsedRequest</text>
</g>
<g>
<title>one/nio/http/HttpServer.handleRequest (2,937 samples, 62.76%)</title><rect x="10.0" y="307.0" width="740.5" height="15" fill="#66f766" rx="2" ry="2"/>
<text x="13.0" y="318.0">one/nio/http/HttpServer.handleRequest</text>
</g>
<g>
<title>RequestHandler3_upsert.handleRequest (2,773 samples, 59.25%)</title><rect x="10.0" y="291.0" width="699.2" height="15" fill="#59ea59" rx="2" ry="2"/>
<text x="13.0" y="302.0">RequestHandler3_upsert.handleRequest</text>
</g>
<g>
<title>one/nio/http/HttpSession.sendResponse (399 samples, 8.53%)</title><rect x="10.0" y="275.0" width="100.6" height="15" fill="#51e251" rx="2" ry="2"/>
<text x="13.0" y="286.0">one/nio/http..</text>
</g>
<g>
<title>one/nio/http/HttpSession.writeResponse (399 samples, 8.53%)</title><rect x="10.0" y="259.0" width="100.6" height="15" fill="#68f968" rx="2" ry="2"/>
<text x="13.0" y="270.0">one/nio/http..</text>
</g>
<g>
<title>one/nio/http/Response.toBytes (295 samples, 6.30%)</title><rect x="10.0" y="243.0" width="74.4" height="15" fill="#5aeb5a" rx="2" ry="2"/>
<text x="13.0" y="254.0">one/nio/..</text>
</g>
<g>
<title>one/nio/util/ByteArrayBuilder.&lt;init&gt; (295 samples, 6.30%)</title><rect x="10.0" y="227.0" width="74.4" height="15" fill="#5eef5e" rx="2" ry="2"/>
<text x="13.0" y="238.0">one/nio/..</text>
</g>
<g>
<title>byte[] (295 samples, 6.30%)</title><rect x="10.0" y="211.0" width="74.4" height="15" fill="#54c2c2" rx="2" ry="2"/>
<text x="13.0" y="222.0">byte[]</text>
</g>
<g>
<title>one/nio/net/Session.write (104 samples, 2.22%)</title><rect x="84.4" y="243.0" width="26.2" height="15" fill="#59ea59" rx="2" ry="2"/>
<text x="87.4" y="254.0">o..</text>
</g>
<g>
<title>one.nio.net.Session$ArrayQueueItem (104 samples, 2.22%)</title><rect x="84.4" y="227.0" width="26.2" height="15" fill="#6ddbdb" rx="2" ry="2"/>
<text x="87.4" y="238.0">o..</text>
</g>
<g>
<title>one/nio/http/Request.getRequiredParameter (201 samples, 4.29%)</title><rect x="110.6" y="275.0" width="50.7" height="15" fill="#66f766" rx="2" ry="2"/>
<text x="113.6" y="286.0">one/n..</text>
</g>
<g>
<title>one/nio/http/Request.getParameter (201 samples, 4.29%)</title><rect x="110.6" y="259.0" width="50.7" height="15" fill="#51e251" rx="2" ry="2"/>
<text x="113.6" y="270.0">one/n..</text>
</g>
<g>
<title>java/lang/String.substring (201 samples, 4.29%)</title><rect x="110.6" y="243.0" width="50.7" height="15" fill="#6dfe6d" rx="2" ry="2"/>
<text x="113.6" y="254.0">java/..</text>
</g>
<g>
<title>java/lang/StringLatin1.newString (201 samples, 4.29%)</title><rect x="110.6" y="227.0" width="50.7" height="15" fill="#56e756" rx="2" ry="2"/>
<text x="113.6" y="238.0">java/..</text>
</g>
<g>
<title>java.lang.String (73 samples, 1.56%)</title><rect x="110.6" y="211.0" width="18.4" height="15" fill="#61cfcf" rx="2" ry="2"/>
<text x="113.6" y="222.0"></text>
</g>
<g>
<title>java/util/Arrays.copyOfRange (128 samples, 2.74%)</title><rect x="129.0" y="211.0" width="32.3" height="15" fill="#5eef5e" rx="2" ry="2"/>
<text x="132.0" y="222.0">ja..</text>
</g>
<g>
<title>byte[] (128 samples, 2.74%)</title><rect x="129.0" y="195.0" width="32.3" height="15" fill="#5ac8c8" rx="2" ry="2"/>
<text x="132.0" y="206.0">by..</text>
</g>
<g>
<title>ru/mail/polis/service/zvladn7/BasicService.upsert (2,173 samples, 46.43%)</title><rect x="161.3" y="275.0" width="547.9" height="15" fill="#65f665" rx="2" ry="2"/>
<text x="164.3" y="286.0">ru/mail/polis/service/zvladn7/BasicService.upsert</text>
</g>
<g>
<title>java/lang/String.&lt;init&gt; (85 samples, 1.82%)</title><rect x="161.3" y="259.0" width="21.4" height="15" fill="#60f160" rx="2" ry="2"/>
<text x="164.3" y="270.0">j..</text>
</g>
<g>
<title>java/lang/String.&lt;init&gt; (85 samples, 1.82%)</title><rect x="161.3" y="243.0" width="21.4" height="15" fill="#62f362" rx="2" ry="2"/>
<text x="164.3" y="254.0">j..</text>
</g>
<g>
<title>java/lang/StringCoding.decode (85 samples, 1.82%)</title><rect x="161.3" y="227.0" width="21.4" height="15" fill="#66f766" rx="2" ry="2"/>
<text x="164.3" y="238.0">j..</text>
</g>
<g>
<title>java/lang/StringCoding.decodeUTF8 (85 samples, 1.82%)</title><rect x="161.3" y="211.0" width="21.4" height="15" fill="#60f160" rx="2" ry="2"/>
<text x="164.3" y="222.0">j..</text>
</g>
<g>
<title>java/util/Arrays.copyOfRange (85 samples, 1.82%)</title><rect x="161.3" y="195.0" width="21.4" height="15" fill="#53e453" rx="2" ry="2"/>
<text x="164.3" y="206.0">j..</text>
</g>
<g>
<title>byte[] (85 samples, 1.82%)</title><rect x="161.3" y="179.0" width="21.4" height="15" fill="#54c2c2" rx="2" ry="2"/>
<text x="164.3" y="190.0">b..</text>
</g>
<g>
<title>one.nio.http.Response (65 samples, 1.39%)</title><rect x="182.7" y="259.0" width="16.4" height="15" fill="#53c1c1" rx="2" ry="2"/>
<text x="185.7" y="270.0"></text>
</g>
<g>
<title>one/nio/http/Response.&lt;init&gt; (318 samples, 6.79%)</title><rect x="199.1" y="259.0" width="80.2" height="15" fill="#65f665" rx="2" ry="2"/>
<text x="202.1" y="270.0">one/nio/h..</text>
</g>
<g>
<title>byte[] (112 samples, 2.39%)</title><rect x="199.1" y="243.0" width="28.2" height="15" fill="#66d4d4" rx="2" ry="2"/>
<text x="202.1" y="254.0">by..</text>
</g>
<g>
<title>java.lang.String[] (125 samples, 2.67%)</title><rect x="227.3" y="243.0" width="31.6" height="15" fill="#5ecccc" rx="2" ry="2"/>
<text x="230.3" y="254.0">ja..</text>
</g>
<g>
<title>java.lang.String (81 samples, 1.73%)</title><rect x="258.9" y="243.0" width="20.4" height="15" fill="#56c4c4" rx="2" ry="2"/>
<text x="261.9" y="254.0"></text>
</g>
<g>
<title>ru/mail/polis/dao/zvladn7/LsmDAOImpl.upsert (1,307 samples, 27.93%)</title><rect x="279.3" y="259.0" width="329.5" height="15" fill="#6cfd6c" rx="2" ry="2"/>
<text x="282.3" y="270.0">ru/mail/polis/dao/zvladn7/LsmDAOImpl.upsert</text>
</g>
<g>
<title>ru/mail/polis/dao/zvladn7/LsmDAOImpl.flush (820 samples, 17.52%)</title><rect x="279.3" y="243.0" width="206.7" height="15" fill="#57e857" rx="2" ry="2"/>
<text x="282.3" y="254.0">ru/mail/polis/dao/zvladn7/L..</text>
</g>
<g>
<title>ru/mail/polis/dao/zvladn7/LsmDAOImpl.serialize (820 samples, 17.52%)</title><rect x="279.3" y="227.0" width="206.7" height="15" fill="#57e857" rx="2" ry="2"/>
<text x="282.3" y="238.0">ru/mail/polis/dao/zvladn7/L..</text>
</g>
<g>
<title>ru/mail/polis/dao/zvladn7/SSTable.serialize (820 samples, 17.52%)</title><rect x="279.3" y="211.0" width="206.7" height="15" fill="#65f665" rx="2" ry="2"/>
<text x="282.3" y="222.0">ru/mail/polis/dao/zvladn7/S..</text>
</g>
<g>
<title>java/lang/Integer.valueOf (24 samples, 0.51%)</title><rect x="279.3" y="195.0" width="6.0" height="15" fill="#61f261" rx="2" ry="2"/>
<text x="282.3" y="206.0"></text>
</g>
<g>
<title>java.lang.Integer (24 samples, 0.51%)</title><rect x="279.3" y="179.0" width="6.0" height="15" fill="#59c7c7" rx="2" ry="2"/>
<text x="282.3" y="190.0"></text>
</g>
<g>
<title>java/nio/ByteBuffer.allocate (571 samples, 12.20%)</title><rect x="285.3" y="195.0" width="144.0" height="15" fill="#60f160" rx="2" ry="2"/>
<text x="288.3" y="206.0">java/nio/ByteBuffe..</text>
</g>
<g>
<title>java.nio.HeapByteBuffer (389 samples, 8.31%)</title><rect x="285.3" y="179.0" width="98.1" height="15" fill="#6cdada" rx="2" ry="2"/>
<text x="288.3" y="190.0">java.nio.Hea..</text>
</g>
<g>
<title>java/nio/HeapByteBuffer.&lt;init&gt; (182 samples, 3.89%)</title><rect x="383.4" y="179.0" width="45.9" height="15" fill="#67f867" rx="2" ry="2"/>
<text x="386.4" y="190.0">java..</text>
</g>
<g>
<title>byte[] (182 samples, 3.89%)</title><rect x="383.4" y="163.0" width="45.9" height="15" fill="#64d2d2" rx="2" ry="2"/>
<text x="386.4" y="174.0">byte[]</text>
</g>
<g>
<title>java/nio/channels/FileChannel.open (1 samples, 0.02%)</title><rect x="429.3" y="195.0" width="0.3" height="15" fill="#58e958" rx="2" ry="2"/>
<text x="432.3" y="206.0"></text>
</g>
<g>
<title>java/nio/channels/FileChannel.open (1 samples, 0.02%)</title><rect x="429.3" y="179.0" width="0.3" height="15" fill="#67f867" rx="2" ry="2"/>
<text x="432.3" y="190.0"></text>
</g>
<g>
<title>sun/nio/fs/UnixFileSystemProvider.newFileChannel (1 samples, 0.02%)</title><rect x="429.3" y="163.0" width="0.3" height="15" fill="#5dee5d" rx="2" ry="2"/>
<text x="432.3" y="174.0"></text>
</g>
<g>
<title>sun/nio/fs/UnixChannelFactory.newFileChannel (1 samples, 0.02%)</title><rect x="429.3" y="147.0" width="0.3" height="15" fill="#59ea59" rx="2" ry="2"/>
<text x="432.3" y="158.0"></text>
</g>
<g>
<title>sun/nio/fs/UnixChannelFactory.newFileChannel (1 samples, 0.02%)</title><rect x="429.3" y="131.0" width="0.3" height="15" fill="#67f867" rx="2" ry="2"/>
<text x="432.3" y="142.0"></text>
</g>
<g>
<title>sun/nio/fs/UnixChannelFactory$Flags.toFlags (1 samples, 0.02%)</title><rect x="429.3" y="115.0" width="0.3" height="15" fill="#64f564" rx="2" ry="2"/>
<text x="432.3" y="126.0"></text>
</g>
<g>
<title>sun.nio.fs.UnixChannelFactory$Flags (1 samples, 0.02%)</title><rect x="429.3" y="99.0" width="0.3" height="15" fill="#6bd9d9" rx="2" ry="2"/>
<text x="432.3" y="110.0"></text>
</g>
<g>
<title>java/util/ArrayList.add (11 samples, 0.24%)</title><rect x="429.6" y="195.0" width="2.7" height="15" fill="#58e958" rx="2" ry="2"/>
<text x="432.6" y="206.0"></text>
</g>
<g>
<title>java/util/ArrayList.add (11 samples, 0.24%)</title><rect x="429.6" y="179.0" width="2.7" height="15" fill="#50e150" rx="2" ry="2"/>
<text x="432.6" y="190.0"></text>
</g>
<g>
<title>java/util/ArrayList.grow (11 samples, 0.24%)</title><rect x="429.6" y="163.0" width="2.7" height="15" fill="#62f362" rx="2" ry="2"/>
<text x="432.6" y="174.0"></text>
</g>
<g>
<title>java/util/ArrayList.grow (11 samples, 0.24%)</title><rect x="429.6" y="147.0" width="2.7" height="15" fill="#68f968" rx="2" ry="2"/>
<text x="432.6" y="158.0"></text>
</g>
<g>
<title>java/util/Arrays.copyOf (11 samples, 0.24%)</title><rect x="429.6" y="131.0" width="2.7" height="15" fill="#63f463" rx="2" ry="2"/>
<text x="432.6" y="142.0"></text>
</g>
<g>
<title>java.lang.Object[] (11 samples, 0.24%)</title><rect x="429.6" y="115.0" width="2.7" height="15" fill="#eb8700" rx="2" ry="2"/>
<text x="432.6" y="126.0"></text>
</g>
<g>
<title>java/util/Spliterators$1Adapter.hasNext (38 samples, 0.81%)</title><rect x="432.3" y="195.0" width="9.6" height="15" fill="#5bec5b" rx="2" ry="2"/>
<text x="435.3" y="206.0"></text>
</g>
<g>
<title>java/util/stream/StreamSpliterators$WrappingSpliterator.tryAdvance (38 samples, 0.81%)</title><rect x="432.3" y="179.0" width="9.6" height="15" fill="#66f766" rx="2" ry="2"/>
<text x="435.3" y="190.0"></text>
</g>
<g>
<title>java/util/stream/StreamSpliterators$AbstractWrappingSpliterator.doAdvance (38 samples, 0.81%)</title><rect x="432.3" y="163.0" width="9.6" height="15" fill="#5ff05f" rx="2" ry="2"/>
<text x="435.3" y="174.0"></text>
</g>
<g>
<title>java/util/stream/StreamSpliterators$AbstractWrappingSpliterator.fillBuffer (38 samples, 0.81%)</title><rect x="432.3" y="147.0" width="9.6" height="15" fill="#5ff05f" rx="2" ry="2"/>
<text x="435.3" y="158.0"></text>
</g>
<g>
<title>java/util/stream/StreamSpliterators$WrappingSpliterator$$Lambda$85/1999939271.getAsBoolean (38 samples, 0.81%)</title><rect x="432.3" y="131.0" width="9.6" height="15" fill="#5eef5e" rx="2" ry="2"/>
<text x="435.3" y="142.0"></text>
</g>
<g>
<title>java/util/stream/StreamSpliterators$WrappingSpliterator.lambda$initPartialTraversalState$0 (38 samples, 0.81%)</title><rect x="432.3" y="115.0" width="9.6" height="15" fill="#57e857" rx="2" ry="2"/>
<text x="435.3" y="126.0"></text>
</g>
<g>
<title>java/util/Spliterators$IteratorSpliterator.tryAdvance (38 samples, 0.81%)</title><rect x="432.3" y="99.0" width="9.6" height="15" fill="#6dfe6d" rx="2" ry="2"/>
<text x="435.3" y="110.0"></text>
</g>
<g>
<title>java/util/stream/ReferencePipeline$3$1.accept (38 samples, 0.81%)</title><rect x="432.3" y="83.0" width="9.6" height="15" fill="#64f564" rx="2" ry="2"/>
<text x="435.3" y="94.0"></text>
</g>
<g>
<title>ru/mail/polis/dao/zvladn7/MemoryTable$$Lambda$82/338230392.apply (38 samples, 0.81%)</title><rect x="432.3" y="67.0" width="9.6" height="15" fill="#56e756" rx="2" ry="2"/>
<text x="435.3" y="78.0"></text>
</g>
<g>
<title>ru/mail/polis/dao/zvladn7/MemoryTable.lambda$iterator$0 (38 samples, 0.81%)</title><rect x="432.3" y="51.0" width="9.6" height="15" fill="#57e857" rx="2" ry="2"/>
<text x="435.3" y="62.0"></text>
</g>
<g>
<title>ru.mail.polis.dao.zvladn7.Cell (38 samples, 0.81%)</title><rect x="432.3" y="35.0" width="9.6" height="15" fill="#6cdada" rx="2" ry="2"/>
<text x="435.3" y="46.0"></text>
</g>
<g>
<title>ru/mail/polis/dao/zvladn7/Cell.getKey (94 samples, 2.01%)</title><rect x="441.9" y="195.0" width="23.7" height="15" fill="#6cfd6c" rx="2" ry="2"/>
<text x="444.9" y="206.0">r..</text>
</g>
<g>
<title>java/nio/HeapByteBuffer.asReadOnlyBuffer (94 samples, 2.01%)</title><rect x="441.9" y="179.0" width="23.7" height="15" fill="#68f968" rx="2" ry="2"/>
<text x="444.9" y="190.0">j..</text>
</g>
<g>
<title>java.nio.HeapByteBufferR (94 samples, 2.01%)</title><rect x="441.9" y="163.0" width="23.7" height="15" fill="#57c5c5" rx="2" ry="2"/>
<text x="444.9" y="174.0">j..</text>
</g>
<g>
<title>ru/mail/polis/dao/zvladn7/Value.getData (81 samples, 1.73%)</title><rect x="465.6" y="195.0" width="20.4" height="15" fill="#5eef5e" rx="2" ry="2"/>
<text x="468.6" y="206.0"></text>
</g>
<g>
<title>java/nio/HeapByteBuffer.asReadOnlyBuffer (81 samples, 1.73%)</title><rect x="465.6" y="179.0" width="20.4" height="15" fill="#67f867" rx="2" ry="2"/>
<text x="468.6" y="190.0"></text>
</g>
<g>
<title>java.nio.HeapByteBufferR (81 samples, 1.73%)</title><rect x="465.6" y="163.0" width="20.4" height="15" fill="#51bfbf" rx="2" ry="2"/>
<text x="468.6" y="174.0"></text>
</g>
<g>
<title>ru/mail/polis/dao/zvladn7/MemoryTable.upsert (487 samples, 10.41%)</title><rect x="486.0" y="243.0" width="122.8" height="15" fill="#55e655" rx="2" ry="2"/>
<text x="489.0" y="254.0">ru/mail/polis/d..</text>
</g>
<g>
<title>java/nio/HeapByteBuffer.duplicate (288 samples, 6.15%)</title><rect x="486.0" y="227.0" width="72.6" height="15" fill="#51e251" rx="2" ry="2"/>
<text x="489.0" y="238.0">java/nio..</text>
</g>
<g>
<title>java.nio.HeapByteBuffer (288 samples, 6.15%)</title><rect x="486.0" y="211.0" width="72.6" height="15" fill="#69d7d7" rx="2" ry="2"/>
<text x="489.0" y="222.0">java.nio..</text>
</g>
<g>
<title>java/util/TreeMap.put (119 samples, 2.54%)</title><rect x="558.6" y="227.0" width="30.1" height="15" fill="#62f362" rx="2" ry="2"/>
<text x="561.6" y="238.0">ja..</text>
</g>
<g>
<title>java.util.TreeMap$Entry (119 samples, 2.54%)</title><rect x="558.6" y="211.0" width="30.1" height="15" fill="#5bc9c9" rx="2" ry="2"/>
<text x="561.6" y="222.0">ja..</text>
</g>
<g>
<title>ru.mail.polis.dao.zvladn7.Value (80 samples, 1.71%)</title><rect x="588.7" y="227.0" width="20.1" height="15" fill="#62d0d0" rx="2" ry="2"/>
<text x="591.7" y="238.0"></text>
</g>
<g>
<title>ru/mail/polis/service/zvladn7/BasicService.wrapArray (112 samples, 2.39%)</title><rect x="608.8" y="259.0" width="28.3" height="15" fill="#59ea59" rx="2" ry="2"/>
<text x="611.8" y="270.0">ru..</text>
</g>
<g>
<title>java/nio/ByteBuffer.wrap (112 samples, 2.39%)</title><rect x="608.8" y="243.0" width="28.3" height="15" fill="#58e958" rx="2" ry="2"/>
<text x="611.8" y="254.0">ja..</text>
</g>
<g>
<title>java/nio/ByteBuffer.wrap (112 samples, 2.39%)</title><rect x="608.8" y="227.0" width="28.3" height="15" fill="#6bfc6b" rx="2" ry="2"/>
<text x="611.8" y="238.0">ja..</text>
</g>
<g>
<title>java.nio.HeapByteBuffer (112 samples, 2.39%)</title><rect x="608.8" y="211.0" width="28.3" height="15" fill="#59c7c7" rx="2" ry="2"/>
<text x="611.8" y="222.0">ja..</text>
</g>
<g>
<title>ru/mail/polis/service/zvladn7/BasicService.wrapString (286 samples, 6.11%)</title><rect x="637.1" y="259.0" width="72.1" height="15" fill="#6afb6a" rx="2" ry="2"/>
<text x="640.1" y="270.0">ru/mail/..</text>
</g>
<g>
<title>java/nio/ByteBuffer.wrap (180 samples, 3.85%)</title><rect x="637.1" y="243.0" width="45.3" height="15" fill="#65f665" rx="2" ry="2"/>
<text x="640.1" y="254.0">java..</text>
</g>
<g>
<title>java/nio/ByteBuffer.wrap (180 samples, 3.85%)</title><rect x="637.1" y="227.0" width="45.3" height="15" fill="#6cfd6c" rx="2" ry="2"/>
<text x="640.1" y="238.0">java..</text>
</g>
<g>
<title>java.nio.HeapByteBuffer (180 samples, 3.85%)</title><rect x="637.1" y="211.0" width="45.3" height="15" fill="#57c5c5" rx="2" ry="2"/>
<text x="640.1" y="222.0">java..</text>
</g>
<g>
<title>ru/mail/polis/service/zvladn7/BasicService.toBytes (106 samples, 2.26%)</title><rect x="682.4" y="243.0" width="26.8" height="15" fill="#53e453" rx="2" ry="2"/>
<text x="685.4" y="254.0">r..</text>
</g>
<g>
<title>one/nio/util/Utf8.toBytes (106 samples, 2.26%)</title><rect x="682.4" y="227.0" width="26.8" height="15" fill="#64f564" rx="2" ry="2"/>
<text x="685.4" y="238.0">o..</text>
</g>
<g>
<title>byte[] (106 samples, 2.26%)</title><rect x="682.4" y="211.0" width="26.8" height="15" fill="#66d4d4" rx="2" ry="2"/>
<text x="685.4" y="222.0">b..</text>
</g>
<g>
<title>one/nio/http/Request.getPath (164 samples, 3.50%)</title><rect x="709.2" y="291.0" width="41.3" height="15" fill="#62f362" rx="2" ry="2"/>
<text x="712.2" y="302.0">one..</text>
</g>
<g>
<title>java/lang/String.substring (164 samples, 3.50%)</title><rect x="709.2" y="275.0" width="41.3" height="15" fill="#54e554" rx="2" ry="2"/>
<text x="712.2" y="286.0">jav..</text>
</g>
<g>
<title>java/lang/StringLatin1.newString (164 samples, 3.50%)</title><rect x="709.2" y="259.0" width="41.3" height="15" fill="#50e150" rx="2" ry="2"/>
<text x="712.2" y="270.0">jav..</text>
</g>
<g>
<title>java.lang.String (84 samples, 1.79%)</title><rect x="709.2" y="243.0" width="21.2" height="15" fill="#61cfcf" rx="2" ry="2"/>
<text x="712.2" y="254.0">j..</text>
</g>
<g>
<title>java/util/Arrays.copyOfRange (80 samples, 1.71%)</title><rect x="730.4" y="243.0" width="20.1" height="15" fill="#69fa69" rx="2" ry="2"/>
<text x="733.4" y="254.0"></text>
</g>
<g>
<title>byte[] (80 samples, 1.71%)</title><rect x="730.4" y="227.0" width="20.1" height="15" fill="#56c4c4" rx="2" ry="2"/>
<text x="733.4" y="238.0"></text>
</g>
<g>
<title>one/nio/http/HttpSession.parseRequest (810 samples, 17.31%)</title><rect x="750.5" y="323.0" width="204.3" height="15" fill="#68f968" rx="2" ry="2"/>
<text x="753.5" y="334.0">one/nio/http/HttpSession.pa..</text>
</g>
<g>
<title>one.nio.http.Request (106 samples, 2.26%)</title><rect x="750.5" y="307.0" width="26.8" height="15" fill="#67d5d5" rx="2" ry="2"/>
<text x="753.5" y="318.0">o..</text>
</g>
<g>
<title>one/nio/http/Request.&lt;init&gt; (224 samples, 4.79%)</title><rect x="777.3" y="307.0" width="56.4" height="15" fill="#55e655" rx="2" ry="2"/>
<text x="780.3" y="318.0">one/ni..</text>
</g>
<g>
<title>java.lang.String[] (224 samples, 4.79%)</title><rect x="777.3" y="291.0" width="56.4" height="15" fill="#63d1d1" rx="2" ry="2"/>
<text x="780.3" y="302.0">java.l..</text>
</g>
<g>
<title>one/nio/util/Utf8.read (480 samples, 10.26%)</title><rect x="833.7" y="307.0" width="121.1" height="15" fill="#51e251" rx="2" ry="2"/>
<text x="836.7" y="318.0">one/nio/util/Ut..</text>
</g>
<g>
<title>one/nio/util/Utf8.read (480 samples, 10.26%)</title><rect x="833.7" y="291.0" width="121.1" height="15" fill="#63f463" rx="2" ry="2"/>
<text x="836.7" y="302.0">one/nio/util/Ut..</text>
</g>
<g>
<title>char[] (272 samples, 5.81%)</title><rect x="833.7" y="275.0" width="68.6" height="15" fill="#5ccaca" rx="2" ry="2"/>
<text x="836.7" y="286.0">char[]</text>
</g>
<g>
<title>java.lang.String (74 samples, 1.58%)</title><rect x="902.3" y="275.0" width="18.7" height="15" fill="#52c0c0" rx="2" ry="2"/>
<text x="905.3" y="286.0"></text>
</g>
<g>
<title>java/lang/String.&lt;init&gt; (134 samples, 2.86%)</title><rect x="921.0" y="275.0" width="33.8" height="15" fill="#69fa69" rx="2" ry="2"/>
<text x="924.0" y="286.0">ja..</text>
</g>
<g>
<title>java/lang/String.&lt;init&gt; (134 samples, 2.86%)</title><rect x="921.0" y="259.0" width="33.8" height="15" fill="#5dee5d" rx="2" ry="2"/>
<text x="924.0" y="270.0">ja..</text>
</g>
<g>
<title>java/lang/StringUTF16.compress (134 samples, 2.86%)</title><rect x="921.0" y="243.0" width="33.8" height="15" fill="#6cfd6c" rx="2" ry="2"/>
<text x="924.0" y="254.0">ja..</text>
</g>
<g>
<title>byte[] (134 samples, 2.86%)</title><rect x="921.0" y="227.0" width="33.8" height="15" fill="#5dcbcb" rx="2" ry="2"/>
<text x="924.0" y="238.0">by..</text>
</g>
<g>
<title>one/nio/http/HttpSession.startParsingRequestBody (135 samples, 2.88%)</title><rect x="954.8" y="323.0" width="34.0" height="15" fill="#69fa69" rx="2" ry="2"/>
<text x="957.8" y="334.0">on..</text>
</g>
<g>
<title>byte[] (135 samples, 2.88%)</title><rect x="954.8" y="307.0" width="34.0" height="15" fill="#61cfcf" rx="2" ry="2"/>
<text x="957.8" y="318.0">by..</text>
</g>
<g>
<title>one/nio/http/Request.getHeader (124 samples, 2.65%)</title><rect x="988.8" y="323.0" width="31.3" height="15" fill="#66f766" rx="2" ry="2"/>
<text x="991.8" y="334.0">on..</text>
</g>
<g>
<title>java/lang/String.substring (124 samples, 2.65%)</title><rect x="988.8" y="307.0" width="31.3" height="15" fill="#53e453" rx="2" ry="2"/>
<text x="991.8" y="318.0">ja..</text>
</g>
<g>
<title>java/lang/StringLatin1.newString (124 samples, 2.65%)</title><rect x="988.8" y="291.0" width="31.3" height="15" fill="#5eef5e" rx="2" ry="2"/>
<text x="991.8" y="302.0">ja..</text>
</g>
<g>
<title>java.lang.String (64 samples, 1.37%)</title><rect x="988.8" y="275.0" width="16.1" height="15" fill="#52c0c0" rx="2" ry="2"/>
<text x="991.8" y="286.0"></text>
</g>
<g>
<title>java/util/Arrays.copyOfRange (60 samples, 1.28%)</title><rect x="1004.9" y="275.0" width="15.2" height="15" fill="#50e150" rx="2" ry="2"/>
<text x="1007.9" y="286.0"></text>
</g>
<g>
<title>byte[] (60 samples, 1.28%)</title><rect x="1004.9" y="259.0" width="15.2" height="15" fill="#56c4c4" rx="2" ry="2"/>
<text x="1007.9" y="270.0"></text>
</g>
<g>
<title>one/nio/util/Utf8.read (674 samples, 14.40%)</title><rect x="1020.1" y="323.0" width="169.9" height="15" fill="#51e251" rx="2" ry="2"/>
<text x="1023.1" y="334.0">one/nio/util/Utf8.read</text>
</g>
<g>
<title>one/nio/util/Utf8.read (674 samples, 14.40%)</title><rect x="1020.1" y="307.0" width="169.9" height="15" fill="#58e958" rx="2" ry="2"/>
<text x="1023.1" y="318.0">one/nio/util/Utf8.read</text>
</g>
<g>
<title>char[] (296 samples, 6.32%)</title><rect x="1020.1" y="291.0" width="74.6" height="15" fill="#59c7c7" rx="2" ry="2"/>
<text x="1023.1" y="302.0">char[]</text>
</g>
<g>
<title>java.lang.String (140 samples, 2.99%)</title><rect x="1094.7" y="291.0" width="35.3" height="15" fill="#66d4d4" rx="2" ry="2"/>
<text x="1097.7" y="302.0">jav..</text>
</g>
<g>
<title>java/lang/String.&lt;init&gt; (238 samples, 5.09%)</title><rect x="1130.0" y="291.0" width="60.0" height="15" fill="#50e150" rx="2" ry="2"/>
<text x="1133.0" y="302.0">java/l..</text>
</g>
<g>
<title>java/lang/String.&lt;init&gt; (238 samples, 5.09%)</title><rect x="1130.0" y="275.0" width="60.0" height="15" fill="#6bfc6b" rx="2" ry="2"/>
<text x="1133.0" y="286.0">java/l..</text>
</g>
<g>
<title>java/lang/StringUTF16.compress (238 samples, 5.09%)</title><rect x="1130.0" y="259.0" width="60.0" height="15" fill="#6bfc6b" rx="2" ry="2"/>
<text x="1133.0" y="270.0">java/l..</text>
</g>
<g>
<title>byte[] (238 samples, 5.09%)</title><rect x="1130.0" y="243.0" width="60.0" height="15" fill="#51bfbf" rx="2" ry="2"/>
<text x="1133.0" y="254.0">byte[]</text>
</g>
</g>
</svg>
