<?xml version="1.0" standalone="no"?>
<!DOCTYPE svg PUBLIC "-//W3C//DTD SVG 1.1//EN" "http://www.w3.org/Graphics/SVG/1.1/DTD/svg11.dtd">
<svg version="1.1" width="1200" height="390" onload="init(evt)" viewBox="0 0 1200 390" xmlns="http://www.w3.org/2000/svg" xmlns:xlink="http://www.w3.org/1999/xlink">
<style type="text/css">
	text { font-family:Verdana; font-size:12px; fill:rgb(0,0,0); }
	#search { opacity:0.1; cursor:pointer; }
	#search:hover, #search.show { opacity:1; }
	#subtitle { text-anchor:middle; font-color:rgb(160,160,160); }
	#title { text-anchor:middle; font-size:17px}
	#unzoom { cursor:pointer; }
	#frames > *:hover { stroke:black; stroke-width:0.5; cursor:pointer; }
	.hide { display:none; }
	.parent { opacity:0.5; }
</style>
<script type="text/ecmascript">
<![CDATA[
	"use strict";
	var details, searchbtn, unzoombtn, matchedtxt, svg, searching;
	function init(evt) {
		details = document.getElementById("details").firstChild;
		searchbtn = document.getElementById("search");
		unzoombtn = document.getElementById("unzoom");
		matchedtxt = document.getElementById("matched");
		svg = document.getElementsByTagName("svg")[0];
		searching = 0;
	}

	window.addEventListener("click", function(e) {
		var target = find_group(e.target);
		if (target) {
			if (target.nodeName == "a") {
				if (e.ctrlKey === false) return;
				e.preventDefault();
			}
			if (target.classList.contains("parent")) unzoom();
			zoom(target);
		}
		else if (e.target.id == "unzoom") unzoom();
		else if (e.target.id == "search") search_prompt();
	}, false)

	// mouse-over for info
	// show
	window.addEventListener("mouseover", function(e) {
		var target = find_group(e.target);
		if (target) details.nodeValue = "Function: " + g_to_text(target);
	}, false)

	// clear
	window.addEventListener("mouseout", function(e) {
		var target = find_group(e.target);
		if (target) details.nodeValue = ' ';
	}, false)

	// ctrl-F for search
	window.addEventListener("keydown",function (e) {
		if (e.keyCode === 114 || (e.ctrlKey && e.keyCode === 70)) {
			e.preventDefault();
			search_prompt();
		}
	}, false)

	// functions
	function find_child(node, selector) {
		var children = node.querySelectorAll(selector);
		if (children.length) return children[0];
		return;
	}
	function find_group(node) {
		var parent = node.parentElement;
		if (!parent) return;
		if (parent.id == "frames") return node;
		return find_group(parent);
	}
	function orig_save(e, attr, val) {
		if (e.attributes["_orig_" + attr] != undefined) return;
		if (e.attributes[attr] == undefined) return;
		if (val == undefined) val = e.attributes[attr].value;
		e.setAttribute("_orig_" + attr, val);
	}
	function orig_load(e, attr) {
		if (e.attributes["_orig_"+attr] == undefined) return;
		e.attributes[attr].value = e.attributes["_orig_" + attr].value;
		e.removeAttribute("_orig_"+attr);
	}
	function g_to_text(e) {
		var text = find_child(e, "title").firstChild.nodeValue;
		return (text)
	}
	function g_to_func(e) {
		var func = g_to_text(e);
		// if there's any manipulation we want to do to the function
		// name before it's searched, do it here before returning.
		return (func);
	}
	function update_text(e) {
		var r = find_child(e, "rect");
		var t = find_child(e, "text");
		var w = parseFloat(r.attributes.width.value) -3;
		var txt = find_child(e, "title").textContent.replace(/\([^(]*\)$/,"");
		t.attributes.x.value = parseFloat(r.attributes.x.value) + 3;

		// Smaller than this size won't fit anything
		if (w < 2 * 12 * 0.59) {
			t.textContent = "";
			return;
		}

		t.textContent = txt;
		// Fit in full text width
		if (/^ *$/.test(txt) || t.getSubStringLength(0, txt.length) < w)
			return;

		for (var x = txt.length - 2; x > 0; x--) {
			if (t.getSubStringLength(0, x + 2) <= w) {
				t.textContent = txt.substring(0, x) + "..";
				return;
			}
		}
		t.textContent = "";
	}

	// zoom
	function zoom_reset(e) {
		if (e.attributes != undefined) {
			orig_load(e, "x");
			orig_load(e, "width");
		}
		if (e.childNodes == undefined) return;
		for (var i = 0, c = e.childNodes; i < c.length; i++) {
			zoom_reset(c[i]);
		}
	}
	function zoom_child(e, x, ratio) {
		if (e.attributes != undefined) {
			if (e.attributes.x != undefined) {
				orig_save(e, "x");
				e.attributes.x.value = (parseFloat(e.attributes.x.value) - x - 10) * ratio + 10;
				if (e.tagName == "text")
					e.attributes.x.value = find_child(e.parentNode, "rect[x]").attributes.x.value + 3;
			}
			if (e.attributes.width != undefined) {
				orig_save(e, "width");
				e.attributes.width.value = parseFloat(e.attributes.width.value) * ratio;
			}
		}

		if (e.childNodes == undefined) return;
		for (var i = 0, c = e.childNodes; i < c.length; i++) {
			zoom_child(c[i], x - 10, ratio);
		}
	}
	function zoom_parent(e) {
		if (e.attributes) {
			if (e.attributes.x != undefined) {
				orig_save(e, "x");
				e.attributes.x.value = 10;
			}
			if (e.attributes.width != undefined) {
				orig_save(e, "width");
				e.attributes.width.value = parseInt(svg.width.baseVal.value) - (10 * 2);
			}
		}
		if (e.childNodes == undefined) return;
		for (var i = 0, c = e.childNodes; i < c.length; i++) {
			zoom_parent(c[i]);
		}
	}
	function zoom(node) {
		var attr = find_child(node, "rect").attributes;
		var width = parseFloat(attr.width.value);
		var xmin = parseFloat(attr.x.value);
		var xmax = parseFloat(xmin + width);
		var ymin = parseFloat(attr.y.value);
		var ratio = (svg.width.baseVal.value - 2 * 10) / width;

		// XXX: Workaround for JavaScript float issues (fix me)
		var fudge = 0.0001;

		unzoombtn.classList.remove("hide");

		var el = document.getElementById("frames").children;
		for (var i = 0; i < el.length; i++) {
			var e = el[i];
			var a = find_child(e, "rect").attributes;
			var ex = parseFloat(a.x.value);
			var ew = parseFloat(a.width.value);
			var upstack;
			// Is it an ancestor
			if (0 == 0) {
				upstack = parseFloat(a.y.value) > ymin;
			} else {
				upstack = parseFloat(a.y.value) < ymin;
			}
			if (upstack) {
				// Direct ancestor
				if (ex <= xmin && (ex+ew+fudge) >= xmax) {
					e.classList.add("parent");
					zoom_parent(e);
					update_text(e);
				}
				// not in current path
				else
					e.classList.add("hide");
			}
			// Children maybe
			else {
				// no common path
				if (ex < xmin || ex + fudge >= xmax) {
					e.classList.add("hide");
				}
				else {
					zoom_child(e, xmin, ratio);
					update_text(e);
				}
			}
		}
	}
	function unzoom() {
		unzoombtn.classList.add("hide");
		var el = document.getElementById("frames").children;
		for(var i = 0; i < el.length; i++) {
			el[i].classList.remove("parent");
			el[i].classList.remove("hide");
			zoom_reset(el[i]);
			update_text(el[i]);
		}
	}

	// search
	function reset_search() {
		var el = document.querySelectorAll("#frames rect");
		for (var i = 0; i < el.length; i++) {
			orig_load(el[i], "fill")
		}
	}
	function search_prompt() {
		if (!searching) {
			var term = prompt("Enter a search term (regexp " +
			    "allowed, eg: ^ext4_)", "");
			if (term != null) {
				search(term)
			}
		} else {
			reset_search();
			searching = 0;
			searchbtn.classList.remove("show");
			searchbtn.firstChild.nodeValue = "Search"
			matchedtxt.classList.add("hide");
			matchedtxt.firstChild.nodeValue = ""
		}
	}
	function search(term) {
		var re = new RegExp(term);
		var el = document.getElementById("frames").children;
		var matches = new Object();
		var maxwidth = 0;
		for (var i = 0; i < el.length; i++) {
			var e = el[i];
			var func = g_to_func(e);
			var rect = find_child(e, "rect");
			if (func == null || rect == null)
				continue;

			// Save max width. Only works as we have a root frame
			var w = parseFloat(rect.attributes.width.value);
			if (w > maxwidth)
				maxwidth = w;

			if (func.match(re)) {
				// highlight
				var x = parseFloat(rect.attributes.x.value);
				orig_save(rect, "fill");
				rect.attributes.fill.value = "rgb(230,0,230)";

				// remember matches
				if (matches[x] == undefined) {
					matches[x] = w;
				} else {
					if (w > matches[x]) {
						// overwrite with parent
						matches[x] = w;
					}
				}
				searching = 1;
			}
		}
		if (!searching)
			return;

		searchbtn.classList.add("show");
		searchbtn.firstChild.nodeValue = "Reset Search";

		// calculate percent matched, excluding vertical overlap
		var count = 0;
		var lastx = -1;
		var lastw = 0;
		var keys = Array();
		for (k in matches) {
			if (matches.hasOwnProperty(k))
				keys.push(k);
		}
		// sort the matched frames by their x location
		// ascending, then width descending
		keys.sort(function(a, b){
			return a - b;
		});
		// Step through frames saving only the biggest bottom-up frames
		// thanks to the sort order. This relies on the tree property
		// where children are always smaller than their parents.
		var fudge = 0.0001;	// JavaScript floating point
		for (var k in keys) {
			var x = parseFloat(keys[k]);
			var w = matches[keys[k]];
			if (x >= lastx + lastw - fudge) {
				count += w;
				lastx = x;
				lastw = w;
			}
		}
		// display matched percent
		matchedtxt.classList.remove("hide");
		var pct = 100 * count / maxwidth;
		if (pct != 100) pct = pct.toFixed(1)
		matchedtxt.firstChild.nodeValue = "Matched: " + pct + "%";
	}
]]>
</script>
<rect x="0" y="0" width="100%" height="100%" fill="rgb(240,240,220)"/>
<text id="title" x="600" y="24">Flame Graph</text>
<text id="details" x="10" y="373"> </text>
<text id="unzoom" x="10" y="24" class="hide">Reset Zoom</text>
<text id="search" x="1090" y="24">Search</text>
<text id="matched" x="1090" y="373"> </text>
<g id="frames">
<g>
<title>all (32,309 samples, 100.00%)</title><rect x="10.0" y="339.0" width="1180.0" height="15" fill="#f27070" rx="2" ry="2"/>
<text x="13.0" y="350.0">all</text>
</g>
<g>
<title>java/lang/Thread.run (1,455 samples, 4.50%)</title><rect x="10.0" y="323.0" width="53.1" height="15" fill="#59ea59" rx="2" ry="2"/>
<text x="13.0" y="334.0">java/..</text>
</g>
<g>
<title>java/util/concurrent/ThreadPoolExecutor$Worker.run (1,455 samples, 4.50%)</title><rect x="10.0" y="307.0" width="53.1" height="15" fill="#5bec5b" rx="2" ry="2"/>
<text x="13.0" y="318.0">java/..</text>
</g>
<g>
<title>java/util/concurrent/ThreadPoolExecutor.runWorker (1,455 samples, 4.50%)</title><rect x="10.0" y="291.0" width="53.1" height="15" fill="#63f463" rx="2" ry="2"/>
<text x="13.0" y="302.0">java/..</text>
</g>
<g>
<title>ru/mail/polis/dao/zvladn7/LsmDAOImpl$$Lambda$89/677691979.run (1,455 samples, 4.50%)</title><rect x="10.0" y="275.0" width="53.1" height="15" fill="#5aeb5a" rx="2" ry="2"/>
<text x="13.0" y="286.0">ru/ma..</text>
</g>
<g>
<title>ru/mail/polis/dao/zvladn7/LsmDAOImpl.lambda$flush$9 (1,455 samples, 4.50%)</title><rect x="10.0" y="259.0" width="53.1" height="15" fill="#6afb6a" rx="2" ry="2"/>
<text x="13.0" y="270.0">ru/ma..</text>
</g>
<g>
<title>ru/mail/polis/dao/zvladn7/LsmDAOImpl.serialize (1,454 samples, 4.50%)</title><rect x="10.0" y="243.0" width="53.1" height="15" fill="#56e756" rx="2" ry="2"/>
<text x="13.0" y="254.0">ru/ma..</text>
</g>
<g>
<title>ru/mail/polis/dao/zvladn7/SSTable.serialize (1,454 samples, 4.50%)</title><rect x="10.0" y="227.0" width="53.1" height="15" fill="#59ea59" rx="2" ry="2"/>
<text x="13.0" y="238.0">ru/ma..</text>
</g>
<g>
<title>java/lang/Integer.valueOf (41 samples, 0.13%)</title><rect x="10.0" y="211.0" width="1.5" height="15" fill="#63f463" rx="2" ry="2"/>
<text x="13.0" y="222.0"></text>
</g>
<g>
<title>java.lang.Integer (41 samples, 0.13%)</title><rect x="10.0" y="195.0" width="1.5" height="15" fill="#58c6c6" rx="2" ry="2"/>
<text x="13.0" y="206.0"></text>
</g>
<g>
<title>java/nio/ByteBuffer.allocate (845 samples, 2.62%)</title><rect x="11.5" y="211.0" width="30.9" height="15" fill="#5eef5e" rx="2" ry="2"/>
<text x="14.5" y="222.0">ja..</text>
</g>
<g>
<title>java.nio.HeapByteBuffer (646 samples, 2.00%)</title><rect x="11.5" y="195.0" width="23.6" height="15" fill="#66d4d4" rx="2" ry="2"/>
<text x="14.5" y="206.0">j..</text>
</g>
<g>
<title>java/nio/HeapByteBuffer.&lt;init&gt; (199 samples, 0.62%)</title><rect x="35.1" y="195.0" width="7.3" height="15" fill="#6cfd6c" rx="2" ry="2"/>
<text x="38.1" y="206.0"></text>
</g>
<g>
<title>byte[] (199 samples, 0.62%)</title><rect x="35.1" y="179.0" width="7.3" height="15" fill="#5ecccc" rx="2" ry="2"/>
<text x="38.1" y="190.0"></text>
</g>
<g>
<title>java/util/ArrayList.add (9 samples, 0.03%)</title><rect x="42.4" y="211.0" width="0.3" height="15" fill="#66f766" rx="2" ry="2"/>
<text x="45.4" y="222.0"></text>
</g>
<g>
<title>java/util/ArrayList.add (9 samples, 0.03%)</title><rect x="42.4" y="195.0" width="0.3" height="15" fill="#67f867" rx="2" ry="2"/>
<text x="45.4" y="206.0"></text>
</g>
<g>
<title>java/util/ArrayList.grow (9 samples, 0.03%)</title><rect x="42.4" y="179.0" width="0.3" height="15" fill="#68f968" rx="2" ry="2"/>
<text x="45.4" y="190.0"></text>
</g>
<g>
<title>java/util/ArrayList.grow (9 samples, 0.03%)</title><rect x="42.4" y="163.0" width="0.3" height="15" fill="#6cfd6c" rx="2" ry="2"/>
<text x="45.4" y="174.0"></text>
</g>
<g>
<title>java/util/Arrays.copyOf (9 samples, 0.03%)</title><rect x="42.4" y="147.0" width="0.3" height="15" fill="#66f766" rx="2" ry="2"/>
<text x="45.4" y="158.0"></text>
</g>
<g>
<title>java.lang.Object[] (9 samples, 0.03%)</title><rect x="42.4" y="131.0" width="0.3" height="15" fill="#e17d00" rx="2" ry="2"/>
<text x="45.4" y="142.0"></text>
</g>
<g>
<title>java/util/Spliterators$1Adapter.hasNext (182 samples, 0.56%)</title><rect x="42.7" y="211.0" width="6.7" height="15" fill="#52e352" rx="2" ry="2"/>
<text x="45.7" y="222.0"></text>
</g>
<g>
<title>java/util/stream/StreamSpliterators$WrappingSpliterator.tryAdvance (182 samples, 0.56%)</title><rect x="42.7" y="195.0" width="6.7" height="15" fill="#5dee5d" rx="2" ry="2"/>
<text x="45.7" y="206.0"></text>
</g>
<g>
<title>java/util/stream/StreamSpliterators$AbstractWrappingSpliterator.doAdvance (182 samples, 0.56%)</title><rect x="42.7" y="179.0" width="6.7" height="15" fill="#65f665" rx="2" ry="2"/>
<text x="45.7" y="190.0"></text>
</g>
<g>
<title>java/util/stream/StreamSpliterators$AbstractWrappingSpliterator.fillBuffer (182 samples, 0.56%)</title><rect x="42.7" y="163.0" width="6.7" height="15" fill="#5bec5b" rx="2" ry="2"/>
<text x="45.7" y="174.0"></text>
</g>
<g>
<title>java/util/stream/StreamSpliterators$WrappingSpliterator$$Lambda$93/1494427147.getAsBoolean (182 samples, 0.56%)</title><rect x="42.7" y="147.0" width="6.7" height="15" fill="#54e554" rx="2" ry="2"/>
<text x="45.7" y="158.0"></text>
</g>
<g>
<title>java/util/stream/StreamSpliterators$WrappingSpliterator.lambda$initPartialTraversalState$0 (182 samples, 0.56%)</title><rect x="42.7" y="131.0" width="6.7" height="15" fill="#5dee5d" rx="2" ry="2"/>
<text x="45.7" y="142.0"></text>
</g>
<g>
<title>java/util/concurrent/ConcurrentSkipListMap$SubMap$SubMapIter.tryAdvance (182 samples, 0.56%)</title><rect x="42.7" y="115.0" width="6.7" height="15" fill="#6cfd6c" rx="2" ry="2"/>
<text x="45.7" y="126.0"></text>
</g>
<g>
<title>java/util/concurrent/ConcurrentSkipListMap$SubMap$SubMapEntryIterator.next (107 samples, 0.33%)</title><rect x="42.7" y="99.0" width="3.9" height="15" fill="#61f261" rx="2" ry="2"/>
<text x="45.7" y="110.0"></text>
</g>
<g>
<title>java/util/concurrent/ConcurrentSkipListMap$SubMap$SubMapEntryIterator.next (107 samples, 0.33%)</title><rect x="42.7" y="83.0" width="3.9" height="15" fill="#59ea59" rx="2" ry="2"/>
<text x="45.7" y="94.0"></text>
</g>
<g>
<title>java.util.AbstractMap$SimpleImmutableEntry (107 samples, 0.33%)</title><rect x="42.7" y="67.0" width="3.9" height="15" fill="#50bebe" rx="2" ry="2"/>
<text x="45.7" y="78.0"></text>
</g>
<g>
<title>java/util/stream/ReferencePipeline$3$1.accept (75 samples, 0.23%)</title><rect x="46.6" y="99.0" width="2.8" height="15" fill="#67f867" rx="2" ry="2"/>
<text x="49.6" y="110.0"></text>
</g>
<g>
<title>ru/mail/polis/dao/zvladn7/MemoryTable$$Lambda$90/232723180.apply (75 samples, 0.23%)</title><rect x="46.6" y="83.0" width="2.8" height="15" fill="#6bfc6b" rx="2" ry="2"/>
<text x="49.6" y="94.0"></text>
</g>
<g>
<title>ru/mail/polis/dao/zvladn7/MemoryTable.lambda$iterator$0 (75 samples, 0.23%)</title><rect x="46.6" y="67.0" width="2.8" height="15" fill="#59ea59" rx="2" ry="2"/>
<text x="49.6" y="78.0"></text>
</g>
<g>
<title>ru.mail.polis.dao.zvladn7.Cell (75 samples, 0.23%)</title><rect x="46.6" y="51.0" width="2.8" height="15" fill="#55c3c3" rx="2" ry="2"/>
<text x="49.6" y="62.0"></text>
</g>
<g>
<title>ru/mail/polis/dao/zvladn7/Cell.getKey (181 samples, 0.56%)</title><rect x="49.4" y="211.0" width="6.6" height="15" fill="#60f160" rx="2" ry="2"/>
<text x="52.4" y="222.0"></text>
</g>
<g>
<title>java/nio/HeapByteBuffer.asReadOnlyBuffer (181 samples, 0.56%)</title><rect x="49.4" y="195.0" width="6.6" height="15" fill="#64f564" rx="2" ry="2"/>
<text x="52.4" y="206.0"></text>
</g>
<g>
<title>java.nio.HeapByteBufferR (181 samples, 0.56%)</title><rect x="49.4" y="179.0" width="6.6" height="15" fill="#52c0c0" rx="2" ry="2"/>
<text x="52.4" y="190.0"></text>
</g>
<g>
<title>ru/mail/polis/dao/zvladn7/Value.getData (196 samples, 0.61%)</title><rect x="56.0" y="211.0" width="7.1" height="15" fill="#67f867" rx="2" ry="2"/>
<text x="59.0" y="222.0"></text>
</g>
<g>
<title>java/nio/HeapByteBuffer.asReadOnlyBuffer (196 samples, 0.61%)</title><rect x="56.0" y="195.0" width="7.1" height="15" fill="#6dfe6d" rx="2" ry="2"/>
<text x="59.0" y="206.0"></text>
</g>
<g>
<title>java.nio.HeapByteBufferR (196 samples, 0.61%)</title><rect x="56.0" y="179.0" width="7.1" height="15" fill="#65d3d3" rx="2" ry="2"/>
<text x="59.0" y="190.0"></text>
</g>
<g>
<title>one/nio/server/SelectorThread.run (30,854 samples, 95.50%)</title><rect x="63.1" y="323.0" width="1126.9" height="15" fill="#51e251" rx="2" ry="2"/>
<text x="66.1" y="334.0">one/nio/server/SelectorThread.run</text>
</g>
<g>
<title>one/nio/net/NativeSelector.select (1,010 samples, 3.13%)</title><rect x="63.1" y="307.0" width="36.9" height="15" fill="#5eef5e" rx="2" ry="2"/>
<text x="66.1" y="318.0">one..</text>
</g>
<g>
<title>one.nio.net.NativeSelector$2 (1,010 samples, 3.13%)</title><rect x="63.1" y="291.0" width="36.9" height="15" fill="#5ecccc" rx="2" ry="2"/>
<text x="66.1" y="302.0">one..</text>
</g>
<g>
<title>one/nio/net/Session.process (29,844 samples, 92.37%)</title><rect x="100.0" y="307.0" width="1090.0" height="15" fill="#50e150" rx="2" ry="2"/>
<text x="103.0" y="318.0">one/nio/net/Session.process</text>
</g>
<g>
<title>one/nio/http/HttpSession.processRead (29,844 samples, 92.37%)</title><rect x="100.0" y="291.0" width="1090.0" height="15" fill="#6dfe6d" rx="2" ry="2"/>
<text x="103.0" y="302.0">one/nio/http/HttpSession.processRead</text>
</g>
<g>
<title>one/nio/http/HttpSession.processHttpBuffer (29,844 samples, 92.37%)</title><rect x="100.0" y="275.0" width="1090.0" height="15" fill="#56e756" rx="2" ry="2"/>
<text x="103.0" y="286.0">one/nio/http/HttpSession.processHttpBuffer</text>
</g>
<g>
<title>one/nio/http/HttpSession.handleParsedRequest (15,782 samples, 48.85%)</title><rect x="100.0" y="259.0" width="576.4" height="15" fill="#67f867" rx="2" ry="2"/>
<text x="103.0" y="270.0">one/nio/http/HttpSession.handleParsedRequest</text>
</g>
<g>
<title>one/nio/http/HttpServer.handleRequest (15,782 samples, 48.85%)</title><rect x="100.0" y="243.0" width="576.4" height="15" fill="#67f867" rx="2" ry="2"/>
<text x="103.0" y="254.0">one/nio/http/HttpServer.handleRequest</text>
</g>
<g>
<title>RequestHandler3_upsert.handleRequest (14,378 samples, 44.50%)</title><rect x="100.0" y="227.0" width="525.1" height="15" fill="#55e655" rx="2" ry="2"/>
<text x="103.0" y="238.0">RequestHandler3_upsert.handleRequest</text>
</g>
<g>
<title>one/nio/http/HttpSession.sendResponse (3,078 samples, 9.53%)</title><rect x="100.0" y="211.0" width="112.4" height="15" fill="#5ff05f" rx="2" ry="2"/>
<text x="103.0" y="222.0">one/nio/http/H..</text>
</g>
<g>
<title>one/nio/http/HttpSession.writeResponse (3,078 samples, 9.53%)</title><rect x="100.0" y="195.0" width="112.4" height="15" fill="#68f968" rx="2" ry="2"/>
<text x="103.0" y="206.0">one/nio/http/H..</text>
</g>
<g>
<title>one/nio/http/Response.toBytes (2,116 samples, 6.55%)</title><rect x="100.0" y="179.0" width="77.3" height="15" fill="#57e857" rx="2" ry="2"/>
<text x="103.0" y="190.0">one/nio/h..</text>
</g>
<g>
<title>one/nio/util/ByteArrayBuilder.&lt;init&gt; (2,116 samples, 6.55%)</title><rect x="100.0" y="163.0" width="77.3" height="15" fill="#6dfe6d" rx="2" ry="2"/>
<text x="103.0" y="174.0">one/nio/u..</text>
</g>
<g>
<title>byte[] (2,083 samples, 6.45%)</title><rect x="100.0" y="147.0" width="76.1" height="15" fill="#60cece" rx="2" ry="2"/>
<text x="103.0" y="158.0">byte[]</text>
</g>
<g>
<title>byte[] (33 samples, 0.10%)</title><rect x="176.1" y="147.0" width="1.2" height="15" fill="#f49000" rx="2" ry="2"/>
<text x="179.1" y="158.0"></text>
</g>
<g>
<title>one/nio/net/Session.write (962 samples, 2.98%)</title><rect x="177.3" y="179.0" width="35.1" height="15" fill="#54e554" rx="2" ry="2"/>
<text x="180.3" y="190.0">one..</text>
</g>
<g>
<title>one.nio.net.Session$ArrayQueueItem (962 samples, 2.98%)</title><rect x="177.3" y="163.0" width="35.1" height="15" fill="#6ddbdb" rx="2" ry="2"/>
<text x="180.3" y="174.0">one..</text>
</g>
<g>
<title>one/nio/http/Request.getRequiredParameter (1,304 samples, 4.04%)</title><rect x="212.4" y="211.0" width="47.7" height="15" fill="#61f261" rx="2" ry="2"/>
<text x="215.4" y="222.0">one/..</text>
</g>
<g>
<title>one/nio/http/Request.getParameter (1,304 samples, 4.04%)</title><rect x="212.4" y="195.0" width="47.7" height="15" fill="#66f766" rx="2" ry="2"/>
<text x="215.4" y="206.0">one/..</text>
</g>
<g>
<title>java/lang/String.substring (1,304 samples, 4.04%)</title><rect x="212.4" y="179.0" width="47.7" height="15" fill="#59ea59" rx="2" ry="2"/>
<text x="215.4" y="190.0">java..</text>
</g>
<g>
<title>java/lang/StringLatin1.newString (1,304 samples, 4.04%)</title><rect x="212.4" y="163.0" width="47.7" height="15" fill="#61f261" rx="2" ry="2"/>
<text x="215.4" y="174.0">java..</text>
</g>
<g>
<title>java.lang.String (570 samples, 1.76%)</title><rect x="212.4" y="147.0" width="20.9" height="15" fill="#60cece" rx="2" ry="2"/>
<text x="215.4" y="158.0"></text>
</g>
<g>
<title>java/util/Arrays.copyOfRange (734 samples, 2.27%)</title><rect x="233.3" y="147.0" width="26.8" height="15" fill="#56e756" rx="2" ry="2"/>
<text x="236.3" y="158.0">j..</text>
</g>
<g>
<title>byte[] (734 samples, 2.27%)</title><rect x="233.3" y="131.0" width="26.8" height="15" fill="#6ad8d8" rx="2" ry="2"/>
<text x="236.3" y="142.0">b..</text>
</g>
<g>
<title>ru/mail/polis/service/zvladn7/BasicService.upsert (9,996 samples, 30.94%)</title><rect x="260.1" y="211.0" width="365.0" height="15" fill="#65f665" rx="2" ry="2"/>
<text x="263.1" y="222.0">ru/mail/polis/service/zvladn7/BasicService.upsert</text>
</g>
<g>
<title>java/lang/String.&lt;init&gt; (771 samples, 2.39%)</title><rect x="260.1" y="195.0" width="28.1" height="15" fill="#67f867" rx="2" ry="2"/>
<text x="263.1" y="206.0">ja..</text>
</g>
<g>
<title>java/lang/String.&lt;init&gt; (771 samples, 2.39%)</title><rect x="260.1" y="179.0" width="28.1" height="15" fill="#61f261" rx="2" ry="2"/>
<text x="263.1" y="190.0">ja..</text>
</g>
<g>
<title>java/lang/StringCoding.decode (771 samples, 2.39%)</title><rect x="260.1" y="163.0" width="28.1" height="15" fill="#68f968" rx="2" ry="2"/>
<text x="263.1" y="174.0">ja..</text>
</g>
<g>
<title>java/lang/StringCoding.decodeUTF8 (771 samples, 2.39%)</title><rect x="260.1" y="147.0" width="28.1" height="15" fill="#60f160" rx="2" ry="2"/>
<text x="263.1" y="158.0">ja..</text>
</g>
<g>
<title>java/util/Arrays.copyOfRange (771 samples, 2.39%)</title><rect x="260.1" y="131.0" width="28.1" height="15" fill="#60f160" rx="2" ry="2"/>
<text x="263.1" y="142.0">ja..</text>
</g>
<g>
<title>byte[] (771 samples, 2.39%)</title><rect x="260.1" y="115.0" width="28.1" height="15" fill="#60cece" rx="2" ry="2"/>
<text x="263.1" y="126.0">by..</text>
</g>
<g>
<title>one.nio.http.Response (614 samples, 1.90%)</title><rect x="288.2" y="195.0" width="22.5" height="15" fill="#62d0d0" rx="2" ry="2"/>
<text x="291.2" y="206.0">o..</text>
</g>
<g>
<title>one/nio/http/Response.&lt;init&gt; (2,201 samples, 6.81%)</title><rect x="310.7" y="195.0" width="80.3" height="15" fill="#51e251" rx="2" ry="2"/>
<text x="313.7" y="206.0">one/nio/h..</text>
</g>
<g>
<title>byte[] (954 samples, 2.95%)</title><rect x="310.7" y="179.0" width="34.8" height="15" fill="#50bebe" rx="2" ry="2"/>
<text x="313.7" y="190.0">by..</text>
</g>
<g>
<title>java.lang.String[] (733 samples, 2.27%)</title><rect x="345.5" y="179.0" width="26.8" height="15" fill="#62d0d0" rx="2" ry="2"/>
<text x="348.5" y="190.0">j..</text>
</g>
<g>
<title>java.lang.String (514 samples, 1.59%)</title><rect x="372.3" y="179.0" width="18.7" height="15" fill="#51bfbf" rx="2" ry="2"/>
<text x="375.3" y="190.0"></text>
</g>
<g>
<title>ru/mail/polis/dao/zvladn7/LsmDAOImpl.upsert (3,352 samples, 10.37%)</title><rect x="391.0" y="195.0" width="122.5" height="15" fill="#56e756" rx="2" ry="2"/>
<text x="394.0" y="206.0">ru/mail/polis/d..</text>
</g>
<g>
<title>ru/mail/polis/dao/zvladn7/LsmDAOImpl.execute (3,352 samples, 10.37%)</title><rect x="391.0" y="179.0" width="122.5" height="15" fill="#5ced5c" rx="2" ry="2"/>
<text x="394.0" y="190.0">ru/mail/polis/d..</text>
</g>
<g>
<title>java/util/concurrent/locks/ReentrantReadWriteLock$ReadLock.lock (184 samples, 0.57%)</title><rect x="391.0" y="163.0" width="6.8" height="15" fill="#68f968" rx="2" ry="2"/>
<text x="394.0" y="174.0"></text>
</g>
<g>
<title>java/util/concurrent/locks/AbstractQueuedSynchronizer.acquireShared (184 samples, 0.57%)</title><rect x="391.0" y="147.0" width="6.8" height="15" fill="#5bec5b" rx="2" ry="2"/>
<text x="394.0" y="158.0"></text>
</g>
<g>
<title>java/util/concurrent/locks/ReentrantReadWriteLock$Sync.tryAcquireShared (184 samples, 0.57%)</title><rect x="391.0" y="131.0" width="6.8" height="15" fill="#6bfc6b" rx="2" ry="2"/>
<text x="394.0" y="142.0"></text>
</g>
<g>
<title>java/lang/ThreadLocal.get (144 samples, 0.45%)</title><rect x="391.0" y="115.0" width="5.3" height="15" fill="#63f463" rx="2" ry="2"/>
<text x="394.0" y="126.0"></text>
</g>
<g>
<title>java/lang/ThreadLocal.setInitialValue (144 samples, 0.45%)</title><rect x="391.0" y="99.0" width="5.3" height="15" fill="#63f463" rx="2" ry="2"/>
<text x="394.0" y="110.0"></text>
</g>
<g>
<title>java/lang/ThreadLocal$ThreadLocalMap.set (77 samples, 0.24%)</title><rect x="391.0" y="83.0" width="2.8" height="15" fill="#6bfc6b" rx="2" ry="2"/>
<text x="394.0" y="94.0"></text>
</g>
<g>
<title>java.lang.ThreadLocal$ThreadLocalMap$Entry (77 samples, 0.24%)</title><rect x="391.0" y="67.0" width="2.8" height="15" fill="#55c3c3" rx="2" ry="2"/>
<text x="394.0" y="78.0"></text>
</g>
<g>
<title>java/util/concurrent/locks/ReentrantReadWriteLock$Sync$ThreadLocalHoldCounter.initialValue (67 samples, 0.21%)</title><rect x="393.8" y="83.0" width="2.5" height="15" fill="#58e958" rx="2" ry="2"/>
<text x="396.8" y="94.0"></text>
</g>
<g>
<title>java/util/concurrent/locks/ReentrantReadWriteLock$Sync$ThreadLocalHoldCounter.initialValue (67 samples, 0.21%)</title><rect x="393.8" y="67.0" width="2.5" height="15" fill="#51e251" rx="2" ry="2"/>
<text x="396.8" y="78.0"></text>
</g>
<g>
<title>java.util.concurrent.locks.ReentrantReadWriteLock$Sync$HoldCounter (67 samples, 0.21%)</title><rect x="393.8" y="51.0" width="2.5" height="15" fill="#55c3c3" rx="2" ry="2"/>
<text x="396.8" y="62.0"></text>
</g>
<g>
<title>java/lang/ThreadLocal.set (15 samples, 0.05%)</title><rect x="396.3" y="115.0" width="0.5" height="15" fill="#69fa69" rx="2" ry="2"/>
<text x="399.3" y="126.0"></text>
</g>
<g>
<title>java/lang/ThreadLocal$ThreadLocalMap.set (15 samples, 0.05%)</title><rect x="396.3" y="99.0" width="0.5" height="15" fill="#67f867" rx="2" ry="2"/>
<text x="399.3" y="110.0"></text>
</g>
<g>
<title>java.lang.ThreadLocal$ThreadLocalMap$Entry (15 samples, 0.05%)</title><rect x="396.3" y="83.0" width="0.5" height="15" fill="#5ecccc" rx="2" ry="2"/>
<text x="399.3" y="94.0"></text>
</g>
<g>
<title>java/util/concurrent/locks/ReentrantReadWriteLock$Sync.fullTryAcquireShared (25 samples, 0.08%)</title><rect x="396.8" y="115.0" width="1.0" height="15" fill="#5dee5d" rx="2" ry="2"/>
<text x="399.8" y="126.0"></text>
</g>
<g>
<title>java/lang/ThreadLocal.get (23 samples, 0.07%)</title><rect x="396.8" y="99.0" width="0.9" height="15" fill="#59ea59" rx="2" ry="2"/>
<text x="399.8" y="110.0"></text>
</g>
<g>
<title>java/lang/ThreadLocal.setInitialValue (23 samples, 0.07%)</title><rect x="396.8" y="83.0" width="0.9" height="15" fill="#65f665" rx="2" ry="2"/>
<text x="399.8" y="94.0"></text>
</g>
<g>
<title>java/lang/ThreadLocal$ThreadLocalMap.set (16 samples, 0.05%)</title><rect x="396.8" y="67.0" width="0.6" height="15" fill="#5aeb5a" rx="2" ry="2"/>
<text x="399.8" y="78.0"></text>
</g>
<g>
<title>java.lang.ThreadLocal$ThreadLocalMap$Entry (16 samples, 0.05%)</title><rect x="396.8" y="51.0" width="0.6" height="15" fill="#51bfbf" rx="2" ry="2"/>
<text x="399.8" y="62.0"></text>
</g>
<g>
<title>java/util/concurrent/locks/ReentrantReadWriteLock$Sync$ThreadLocalHoldCounter.initialValue (7 samples, 0.02%)</title><rect x="397.4" y="67.0" width="0.3" height="15" fill="#5eef5e" rx="2" ry="2"/>
<text x="400.4" y="78.0"></text>
</g>
<g>
<title>java/util/concurrent/locks/ReentrantReadWriteLock$Sync$ThreadLocalHoldCounter.initialValue (7 samples, 0.02%)</title><rect x="397.4" y="51.0" width="0.3" height="15" fill="#6bfc6b" rx="2" ry="2"/>
<text x="400.4" y="62.0"></text>
</g>
<g>
<title>java.util.concurrent.locks.ReentrantReadWriteLock$Sync$HoldCounter (7 samples, 0.02%)</title><rect x="397.4" y="35.0" width="0.3" height="15" fill="#69d7d7" rx="2" ry="2"/>
<text x="400.4" y="46.0"></text>
</g>
<g>
<title>ru/mail/polis/dao/zvladn7/LsmDAOImpl$$Lambda$86/1928596100.run (3,168 samples, 9.81%)</title><rect x="397.8" y="163.0" width="115.7" height="15" fill="#50e150" rx="2" ry="2"/>
<text x="400.8" y="174.0">ru/mail/polis/..</text>
</g>
<g>
<title>ru/mail/polis/dao/zvladn7/LsmDAOImpl.lambda$upsert$5 (3,168 samples, 9.81%)</title><rect x="397.8" y="147.0" width="115.7" height="15" fill="#5eef5e" rx="2" ry="2"/>
<text x="400.8" y="158.0">ru/mail/polis/..</text>
</g>
<g>
<title>ru/mail/polis/dao/zvladn7/MemoryTable.upsert (3,168 samples, 9.81%)</title><rect x="397.8" y="131.0" width="115.7" height="15" fill="#5ced5c" rx="2" ry="2"/>
<text x="400.8" y="142.0">ru/mail/polis/..</text>
</g>
<g>
<title>java/nio/HeapByteBuffer.duplicate (2,373 samples, 7.34%)</title><rect x="397.8" y="115.0" width="86.6" height="15" fill="#63f463" rx="2" ry="2"/>
<text x="400.8" y="126.0">java/nio/H..</text>
</g>
<g>
<title>java.nio.HeapByteBuffer (2,373 samples, 7.34%)</title><rect x="397.8" y="99.0" width="86.6" height="15" fill="#60cece" rx="2" ry="2"/>
<text x="400.8" y="110.0">java.nio.H..</text>
</g>
<g>
<title>java/util/concurrent/ConcurrentSkipListMap.put (241 samples, 0.75%)</title><rect x="484.4" y="115.0" width="8.8" height="15" fill="#5ced5c" rx="2" ry="2"/>
<text x="487.4" y="126.0"></text>
</g>
<g>
<title>java/util/concurrent/ConcurrentSkipListMap.doPut (241 samples, 0.75%)</title><rect x="484.4" y="99.0" width="8.8" height="15" fill="#57e857" rx="2" ry="2"/>
<text x="487.4" y="110.0"></text>
</g>
<g>
<title>java.util.concurrent.ConcurrentSkipListMap$Index (85 samples, 0.26%)</title><rect x="484.4" y="83.0" width="3.1" height="15" fill="#61cfcf" rx="2" ry="2"/>
<text x="487.4" y="94.0"></text>
</g>
<g>
<title>java.util.concurrent.ConcurrentSkipListMap$Node (156 samples, 0.48%)</title><rect x="487.5" y="83.0" width="5.7" height="15" fill="#63d1d1" rx="2" ry="2"/>
<text x="490.5" y="94.0"></text>
</g>
<g>
<title>ru.mail.polis.dao.zvladn7.Value (554 samples, 1.71%)</title><rect x="493.2" y="115.0" width="20.3" height="15" fill="#63d1d1" rx="2" ry="2"/>
<text x="496.2" y="126.0"></text>
</g>
<g>
<title>ru/mail/polis/service/zvladn7/BasicService.wrapArray (1,103 samples, 3.41%)</title><rect x="513.5" y="195.0" width="40.2" height="15" fill="#5ced5c" rx="2" ry="2"/>
<text x="516.5" y="206.0">ru/..</text>
</g>
<g>
<title>java/nio/ByteBuffer.wrap (1,103 samples, 3.41%)</title><rect x="513.5" y="179.0" width="40.2" height="15" fill="#51e251" rx="2" ry="2"/>
<text x="516.5" y="190.0">jav..</text>
</g>
<g>
<title>java/nio/ByteBuffer.wrap (1,103 samples, 3.41%)</title><rect x="513.5" y="163.0" width="40.2" height="15" fill="#61f261" rx="2" ry="2"/>
<text x="516.5" y="174.0">jav..</text>
</g>
<g>
<title>java.nio.HeapByteBuffer (1,103 samples, 3.41%)</title><rect x="513.5" y="147.0" width="40.2" height="15" fill="#51bfbf" rx="2" ry="2"/>
<text x="516.5" y="158.0">jav..</text>
</g>
<g>
<title>ru/mail/polis/service/zvladn7/BasicService.wrapString (1,955 samples, 6.05%)</title><rect x="553.7" y="195.0" width="71.4" height="15" fill="#64f564" rx="2" ry="2"/>
<text x="556.7" y="206.0">ru/mail/..</text>
</g>
<g>
<title>java/nio/ByteBuffer.wrap (1,188 samples, 3.68%)</title><rect x="553.7" y="179.0" width="43.4" height="15" fill="#5eef5e" rx="2" ry="2"/>
<text x="556.7" y="190.0">java..</text>
</g>
<g>
<title>java/nio/ByteBuffer.wrap (1,188 samples, 3.68%)</title><rect x="553.7" y="163.0" width="43.4" height="15" fill="#57e857" rx="2" ry="2"/>
<text x="556.7" y="174.0">java..</text>
</g>
<g>
<title>java.nio.HeapByteBuffer (1,188 samples, 3.68%)</title><rect x="553.7" y="147.0" width="43.4" height="15" fill="#6ddbdb" rx="2" ry="2"/>
<text x="556.7" y="158.0">java..</text>
</g>
<g>
<title>ru/mail/polis/service/zvladn7/BasicService.toBytes (767 samples, 2.37%)</title><rect x="597.1" y="179.0" width="28.0" height="15" fill="#60f160" rx="2" ry="2"/>
<text x="600.1" y="190.0">ru..</text>
</g>
<g>
<title>one/nio/util/Utf8.toBytes (767 samples, 2.37%)</title><rect x="597.1" y="163.0" width="28.0" height="15" fill="#5ced5c" rx="2" ry="2"/>
<text x="600.1" y="174.0">on..</text>
</g>
<g>
<title>byte[] (767 samples, 2.37%)</title><rect x="597.1" y="147.0" width="28.0" height="15" fill="#69d7d7" rx="2" ry="2"/>
<text x="600.1" y="158.0">by..</text>
</g>
<g>
<title>one/nio/http/Request.getPath (1,404 samples, 4.35%)</title><rect x="625.1" y="227.0" width="51.3" height="15" fill="#5aeb5a" rx="2" ry="2"/>
<text x="628.1" y="238.0">one/n..</text>
</g>
<g>
<title>java/lang/String.substring (1,404 samples, 4.35%)</title><rect x="625.1" y="211.0" width="51.3" height="15" fill="#6bfc6b" rx="2" ry="2"/>
<text x="628.1" y="222.0">java/..</text>
</g>
<g>
<title>java/lang/StringLatin1.newString (1,404 samples, 4.35%)</title><rect x="625.1" y="195.0" width="51.3" height="15" fill="#58e958" rx="2" ry="2"/>
<text x="628.1" y="206.0">java/..</text>
</g>
<g>
<title>java.lang.String (620 samples, 1.92%)</title><rect x="625.1" y="179.0" width="22.7" height="15" fill="#63d1d1" rx="2" ry="2"/>
<text x="628.1" y="190.0">j..</text>
</g>
<g>
<title>java/util/Arrays.copyOfRange (784 samples, 2.43%)</title><rect x="647.8" y="179.0" width="28.6" height="15" fill="#62f362" rx="2" ry="2"/>
<text x="650.8" y="190.0">ja..</text>
</g>
<g>
<title>byte[] (784 samples, 2.43%)</title><rect x="647.8" y="163.0" width="28.6" height="15" fill="#62d0d0" rx="2" ry="2"/>
<text x="650.8" y="174.0">by..</text>
</g>
<g>
<title>one/nio/http/HttpSession.parseRequest (6,374 samples, 19.73%)</title><rect x="676.4" y="259.0" width="232.8" height="15" fill="#65f665" rx="2" ry="2"/>
<text x="679.4" y="270.0">one/nio/http/HttpSession.parseR..</text>
</g>
<g>
<title>one.nio.http.Request (879 samples, 2.72%)</title><rect x="676.4" y="243.0" width="32.1" height="15" fill="#52c0c0" rx="2" ry="2"/>
<text x="679.4" y="254.0">on..</text>
</g>
<g>
<title>one/nio/http/Request.&lt;init&gt; (1,916 samples, 5.93%)</title><rect x="708.5" y="243.0" width="70.0" height="15" fill="#60f160" rx="2" ry="2"/>
<text x="711.5" y="254.0">one/nio..</text>
</g>
<g>
<title>java.lang.String[] (1,884 samples, 5.83%)</title><rect x="708.5" y="227.0" width="68.8" height="15" fill="#61cfcf" rx="2" ry="2"/>
<text x="711.5" y="238.0">java.la..</text>
</g>
<g>
<title>java.lang.String[] (32 samples, 0.10%)</title><rect x="777.3" y="227.0" width="1.2" height="15" fill="#e48000" rx="2" ry="2"/>
<text x="780.3" y="238.0"></text>
</g>
<g>
<title>one/nio/util/Utf8.read (3,579 samples, 11.08%)</title><rect x="778.5" y="243.0" width="130.7" height="15" fill="#50e150" rx="2" ry="2"/>
<text x="781.5" y="254.0">one/nio/util/Utf..</text>
</g>
<g>
<title>one/nio/util/Utf8.read (3,579 samples, 11.08%)</title><rect x="778.5" y="227.0" width="130.7" height="15" fill="#6dfe6d" rx="2" ry="2"/>
<text x="781.5" y="238.0">one/nio/util/Utf..</text>
</g>
<g>
<title>char[] (1,826 samples, 5.65%)</title><rect x="778.5" y="211.0" width="66.7" height="15" fill="#66d4d4" rx="2" ry="2"/>
<text x="781.5" y="222.0">char[]</text>
</g>
<g>
<title>char[] (11 samples, 0.03%)</title><rect x="845.2" y="211.0" width="0.4" height="15" fill="#f18d00" rx="2" ry="2"/>
<text x="848.2" y="222.0"></text>
</g>
<g>
<title>java.lang.String (594 samples, 1.84%)</title><rect x="845.6" y="211.0" width="21.7" height="15" fill="#5ccaca" rx="2" ry="2"/>
<text x="848.6" y="222.0">j..</text>
</g>
<g>
<title>java/lang/String.&lt;init&gt; (1,148 samples, 3.55%)</title><rect x="867.3" y="211.0" width="41.9" height="15" fill="#6dfe6d" rx="2" ry="2"/>
<text x="870.3" y="222.0">jav..</text>
</g>
<g>
<title>java/lang/String.&lt;init&gt; (1,148 samples, 3.55%)</title><rect x="867.3" y="195.0" width="41.9" height="15" fill="#53e453" rx="2" ry="2"/>
<text x="870.3" y="206.0">jav..</text>
</g>
<g>
<title>java/lang/StringUTF16.compress (1,148 samples, 3.55%)</title><rect x="867.3" y="179.0" width="41.9" height="15" fill="#51e251" rx="2" ry="2"/>
<text x="870.3" y="190.0">jav..</text>
</g>
<g>
<title>byte[] (1,148 samples, 3.55%)</title><rect x="867.3" y="163.0" width="41.9" height="15" fill="#63d1d1" rx="2" ry="2"/>
<text x="870.3" y="174.0">byt..</text>
</g>
<g>
<title>one/nio/http/HttpSession.startParsingRequestBody (835 samples, 2.58%)</title><rect x="909.2" y="259.0" width="30.5" height="15" fill="#60f160" rx="2" ry="2"/>
<text x="912.2" y="270.0">on..</text>
</g>
<g>
<title>byte[] (835 samples, 2.58%)</title><rect x="909.2" y="243.0" width="30.5" height="15" fill="#52c0c0" rx="2" ry="2"/>
<text x="912.2" y="254.0">by..</text>
</g>
<g>
<title>one/nio/http/Request.getHeader (1,107 samples, 3.43%)</title><rect x="939.7" y="259.0" width="40.4" height="15" fill="#57e857" rx="2" ry="2"/>
<text x="942.7" y="270.0">one..</text>
</g>
<g>
<title>java/lang/String.substring (1,107 samples, 3.43%)</title><rect x="939.7" y="243.0" width="40.4" height="15" fill="#61f261" rx="2" ry="2"/>
<text x="942.7" y="254.0">jav..</text>
</g>
<g>
<title>java/lang/StringLatin1.newString (1,107 samples, 3.43%)</title><rect x="939.7" y="227.0" width="40.4" height="15" fill="#67f867" rx="2" ry="2"/>
<text x="942.7" y="238.0">jav..</text>
</g>
<g>
<title>java.lang.String (564 samples, 1.75%)</title><rect x="939.7" y="211.0" width="20.6" height="15" fill="#66d4d4" rx="2" ry="2"/>
<text x="942.7" y="222.0"></text>
</g>
<g>
<title>java/util/Arrays.copyOfRange (543 samples, 1.68%)</title><rect x="960.3" y="211.0" width="19.8" height="15" fill="#68f968" rx="2" ry="2"/>
<text x="963.3" y="222.0"></text>
</g>
<g>
<title>byte[] (543 samples, 1.68%)</title><rect x="960.3" y="195.0" width="19.8" height="15" fill="#66d4d4" rx="2" ry="2"/>
<text x="963.3" y="206.0"></text>
</g>
<g>
<title>one/nio/util/Utf8.read (5,746 samples, 17.78%)</title><rect x="980.1" y="259.0" width="209.9" height="15" fill="#59ea59" rx="2" ry="2"/>
<text x="983.1" y="270.0">one/nio/util/Utf8.read</text>
</g>
<g>
<title>one/nio/util/Utf8.read (5,746 samples, 17.78%)</title><rect x="980.1" y="243.0" width="209.9" height="15" fill="#57e857" rx="2" ry="2"/>
<text x="983.1" y="254.0">one/nio/util/Utf8.read</text>
</g>
<g>
<title>char[] (2,700 samples, 8.36%)</title><rect x="980.1" y="227.0" width="98.7" height="15" fill="#61cfcf" rx="2" ry="2"/>
<text x="983.1" y="238.0">char[]</text>
</g>
<g>
<title>java.lang.String (1,174 samples, 3.63%)</title><rect x="1078.8" y="227.0" width="42.8" height="15" fill="#63d1d1" rx="2" ry="2"/>
<text x="1081.8" y="238.0">java..</text>
</g>
<g>
<title>java/lang/String.&lt;init&gt; (1,872 samples, 5.79%)</title><rect x="1121.6" y="227.0" width="68.4" height="15" fill="#54e554" rx="2" ry="2"/>
<text x="1124.6" y="238.0">java/la..</text>
</g>
<g>
<title>java/lang/String.&lt;init&gt; (1,872 samples, 5.79%)</title><rect x="1121.6" y="211.0" width="68.4" height="15" fill="#69fa69" rx="2" ry="2"/>
<text x="1124.6" y="222.0">java/la..</text>
</g>
<g>
<title>java/lang/StringUTF16.compress (1,872 samples, 5.79%)</title><rect x="1121.6" y="195.0" width="68.4" height="15" fill="#59ea59" rx="2" ry="2"/>
<text x="1124.6" y="206.0">java/la..</text>
</g>
<g>
<title>byte[] (1,872 samples, 5.79%)</title><rect x="1121.6" y="179.0" width="68.4" height="15" fill="#66d4d4" rx="2" ry="2"/>
<text x="1124.6" y="190.0">byte[]</text>
</g>
</g>
</svg>
