<?xml version="1.0" standalone="no"?>
<!DOCTYPE svg PUBLIC "-//W3C//DTD SVG 1.1//EN" "http://www.w3.org/Graphics/SVG/1.1/DTD/svg11.dtd">
<svg version="1.1" width="1200" height="582" onload="init(evt)" viewBox="0 0 1200 582" xmlns="http://www.w3.org/2000/svg" xmlns:xlink="http://www.w3.org/1999/xlink">
<style type="text/css">
	text { font-family:Verdana; font-size:12px; fill:rgb(0,0,0); }
	#search { opacity:0.1; cursor:pointer; }
	#search:hover, #search.show { opacity:1; }
	#subtitle { text-anchor:middle; font-color:rgb(160,160,160); }
	#title { text-anchor:middle; font-size:17px}
	#unzoom { cursor:pointer; }
	#frames > *:hover { stroke:black; stroke-width:0.5; cursor:pointer; }
	.hide { display:none; }
	.parent { opacity:0.5; }
</style>
<script type="text/ecmascript">
<![CDATA[
	"use strict";
	var details, searchbtn, unzoombtn, matchedtxt, svg, searching;
	function init(evt) {
		details = document.getElementById("details").firstChild;
		searchbtn = document.getElementById("search");
		unzoombtn = document.getElementById("unzoom");
		matchedtxt = document.getElementById("matched");
		svg = document.getElementsByTagName("svg")[0];
		searching = 0;
	}

	window.addEventListener("click", function(e) {
		var target = find_group(e.target);
		if (target) {
			if (target.nodeName == "a") {
				if (e.ctrlKey === false) return;
				e.preventDefault();
			}
			if (target.classList.contains("parent")) unzoom();
			zoom(target);
		}
		else if (e.target.id == "unzoom") unzoom();
		else if (e.target.id == "search") search_prompt();
	}, false)

	// mouse-over for info
	// show
	window.addEventListener("mouseover", function(e) {
		var target = find_group(e.target);
		if (target) details.nodeValue = "Function: " + g_to_text(target);
	}, false)

	// clear
	window.addEventListener("mouseout", function(e) {
		var target = find_group(e.target);
		if (target) details.nodeValue = ' ';
	}, false)

	// ctrl-F for search
	window.addEventListener("keydown",function (e) {
		if (e.keyCode === 114 || (e.ctrlKey && e.keyCode === 70)) {
			e.preventDefault();
			search_prompt();
		}
	}, false)

	// functions
	function find_child(node, selector) {
		var children = node.querySelectorAll(selector);
		if (children.length) return children[0];
		return;
	}
	function find_group(node) {
		var parent = node.parentElement;
		if (!parent) return;
		if (parent.id == "frames") return node;
		return find_group(parent);
	}
	function orig_save(e, attr, val) {
		if (e.attributes["_orig_" + attr] != undefined) return;
		if (e.attributes[attr] == undefined) return;
		if (val == undefined) val = e.attributes[attr].value;
		e.setAttribute("_orig_" + attr, val);
	}
	function orig_load(e, attr) {
		if (e.attributes["_orig_"+attr] == undefined) return;
		e.attributes[attr].value = e.attributes["_orig_" + attr].value;
		e.removeAttribute("_orig_"+attr);
	}
	function g_to_text(e) {
		var text = find_child(e, "title").firstChild.nodeValue;
		return (text)
	}
	function g_to_func(e) {
		var func = g_to_text(e);
		// if there's any manipulation we want to do to the function
		// name before it's searched, do it here before returning.
		return (func);
	}
	function update_text(e) {
		var r = find_child(e, "rect");
		var t = find_child(e, "text");
		var w = parseFloat(r.attributes.width.value) -3;
		var txt = find_child(e, "title").textContent.replace(/\([^(]*\)$/,"");
		t.attributes.x.value = parseFloat(r.attributes.x.value) + 3;

		// Smaller than this size won't fit anything
		if (w < 2 * 12 * 0.59) {
			t.textContent = "";
			return;
		}

		t.textContent = txt;
		// Fit in full text width
		if (/^ *$/.test(txt) || t.getSubStringLength(0, txt.length) < w)
			return;

		for (var x = txt.length - 2; x > 0; x--) {
			if (t.getSubStringLength(0, x + 2) <= w) {
				t.textContent = txt.substring(0, x) + "..";
				return;
			}
		}
		t.textContent = "";
	}

	// zoom
	function zoom_reset(e) {
		if (e.attributes != undefined) {
			orig_load(e, "x");
			orig_load(e, "width");
		}
		if (e.childNodes == undefined) return;
		for (var i = 0, c = e.childNodes; i < c.length; i++) {
			zoom_reset(c[i]);
		}
	}
	function zoom_child(e, x, ratio) {
		if (e.attributes != undefined) {
			if (e.attributes.x != undefined) {
				orig_save(e, "x");
				e.attributes.x.value = (parseFloat(e.attributes.x.value) - x - 10) * ratio + 10;
				if (e.tagName == "text")
					e.attributes.x.value = find_child(e.parentNode, "rect[x]").attributes.x.value + 3;
			}
			if (e.attributes.width != undefined) {
				orig_save(e, "width");
				e.attributes.width.value = parseFloat(e.attributes.width.value) * ratio;
			}
		}

		if (e.childNodes == undefined) return;
		for (var i = 0, c = e.childNodes; i < c.length; i++) {
			zoom_child(c[i], x - 10, ratio);
		}
	}
	function zoom_parent(e) {
		if (e.attributes) {
			if (e.attributes.x != undefined) {
				orig_save(e, "x");
				e.attributes.x.value = 10;
			}
			if (e.attributes.width != undefined) {
				orig_save(e, "width");
				e.attributes.width.value = parseInt(svg.width.baseVal.value) - (10 * 2);
			}
		}
		if (e.childNodes == undefined) return;
		for (var i = 0, c = e.childNodes; i < c.length; i++) {
			zoom_parent(c[i]);
		}
	}
	function zoom(node) {
		var attr = find_child(node, "rect").attributes;
		var width = parseFloat(attr.width.value);
		var xmin = parseFloat(attr.x.value);
		var xmax = parseFloat(xmin + width);
		var ymin = parseFloat(attr.y.value);
		var ratio = (svg.width.baseVal.value - 2 * 10) / width;

		// XXX: Workaround for JavaScript float issues (fix me)
		var fudge = 0.0001;

		unzoombtn.classList.remove("hide");

		var el = document.getElementById("frames").children;
		for (var i = 0; i < el.length; i++) {
			var e = el[i];
			var a = find_child(e, "rect").attributes;
			var ex = parseFloat(a.x.value);
			var ew = parseFloat(a.width.value);
			var upstack;
			// Is it an ancestor
			if (0 == 0) {
				upstack = parseFloat(a.y.value) > ymin;
			} else {
				upstack = parseFloat(a.y.value) < ymin;
			}
			if (upstack) {
				// Direct ancestor
				if (ex <= xmin && (ex+ew+fudge) >= xmax) {
					e.classList.add("parent");
					zoom_parent(e);
					update_text(e);
				}
				// not in current path
				else
					e.classList.add("hide");
			}
			// Children maybe
			else {
				// no common path
				if (ex < xmin || ex + fudge >= xmax) {
					e.classList.add("hide");
				}
				else {
					zoom_child(e, xmin, ratio);
					update_text(e);
				}
			}
		}
	}
	function unzoom() {
		unzoombtn.classList.add("hide");
		var el = document.getElementById("frames").children;
		for(var i = 0; i < el.length; i++) {
			el[i].classList.remove("parent");
			el[i].classList.remove("hide");
			zoom_reset(el[i]);
			update_text(el[i]);
		}
	}

	// search
	function reset_search() {
		var el = document.querySelectorAll("#frames rect");
		for (var i = 0; i < el.length; i++) {
			orig_load(el[i], "fill")
		}
	}
	function search_prompt() {
		if (!searching) {
			var term = prompt("Enter a search term (regexp " +
			    "allowed, eg: ^ext4_)", "");
			if (term != null) {
				search(term)
			}
		} else {
			reset_search();
			searching = 0;
			searchbtn.classList.remove("show");
			searchbtn.firstChild.nodeValue = "Search"
			matchedtxt.classList.add("hide");
			matchedtxt.firstChild.nodeValue = ""
		}
	}
	function search(term) {
		var re = new RegExp(term);
		var el = document.getElementById("frames").children;
		var matches = new Object();
		var maxwidth = 0;
		for (var i = 0; i < el.length; i++) {
			var e = el[i];
			var func = g_to_func(e);
			var rect = find_child(e, "rect");
			if (func == null || rect == null)
				continue;

			// Save max width. Only works as we have a root frame
			var w = parseFloat(rect.attributes.width.value);
			if (w > maxwidth)
				maxwidth = w;

			if (func.match(re)) {
				// highlight
				var x = parseFloat(rect.attributes.x.value);
				orig_save(rect, "fill");
				rect.attributes.fill.value = "rgb(230,0,230)";

				// remember matches
				if (matches[x] == undefined) {
					matches[x] = w;
				} else {
					if (w > matches[x]) {
						// overwrite with parent
						matches[x] = w;
					}
				}
				searching = 1;
			}
		}
		if (!searching)
			return;

		searchbtn.classList.add("show");
		searchbtn.firstChild.nodeValue = "Reset Search";

		// calculate percent matched, excluding vertical overlap
		var count = 0;
		var lastx = -1;
		var lastw = 0;
		var keys = Array();
		for (k in matches) {
			if (matches.hasOwnProperty(k))
				keys.push(k);
		}
		// sort the matched frames by their x location
		// ascending, then width descending
		keys.sort(function(a, b){
			return a - b;
		});
		// Step through frames saving only the biggest bottom-up frames
		// thanks to the sort order. This relies on the tree property
		// where children are always smaller than their parents.
		var fudge = 0.0001;	// JavaScript floating point
		for (var k in keys) {
			var x = parseFloat(keys[k]);
			var w = matches[keys[k]];
			if (x >= lastx + lastw - fudge) {
				count += w;
				lastx = x;
				lastw = w;
			}
		}
		// display matched percent
		matchedtxt.classList.remove("hide");
		var pct = 100 * count / maxwidth;
		if (pct != 100) pct = pct.toFixed(1)
		matchedtxt.firstChild.nodeValue = "Matched: " + pct + "%";
	}
]]>
</script>
<rect x="0" y="0" width="100%" height="100%" fill="rgb(240,240,220)"/>
<text id="title" x="600" y="24">Flame Graph</text>
<text id="details" x="10" y="565"> </text>
<text id="unzoom" x="10" y="24" class="hide">Reset Zoom</text>
<text id="search" x="1090" y="24">Search</text>
<text id="matched" x="1090" y="565"> </text>
<g id="frames">
<g>
<title>all (1,397 samples, 100.00%)</title><rect x="10.0" y="531.0" width="1180.0" height="15" fill="#fd8080" rx="2" ry="2"/>
<text x="13.0" y="542.0">all</text>
</g>
<g>
<title>one/nio/server/SelectorThread.run (1,397 samples, 100.00%)</title><rect x="10.0" y="515.0" width="1180.0" height="15" fill="#6dfe6d" rx="2" ry="2"/>
<text x="13.0" y="526.0">one/nio/server/SelectorThread.run</text>
</g>
<g>
<title>one/nio/net/Session.process (1,397 samples, 100.00%)</title><rect x="10.0" y="499.0" width="1180.0" height="15" fill="#56e756" rx="2" ry="2"/>
<text x="13.0" y="510.0">one/nio/net/Session.process</text>
</g>
<g>
<title>one/nio/http/HttpSession.processRead (1,397 samples, 100.00%)</title><rect x="10.0" y="483.0" width="1180.0" height="15" fill="#6cfd6c" rx="2" ry="2"/>
<text x="13.0" y="494.0">one/nio/http/HttpSession.processRead</text>
</g>
<g>
<title>one/nio/http/HttpSession.processHttpBuffer (1,397 samples, 100.00%)</title><rect x="10.0" y="467.0" width="1180.0" height="15" fill="#5ff05f" rx="2" ry="2"/>
<text x="13.0" y="478.0">one/nio/http/HttpSession.processHttpBuffer</text>
</g>
<g>
<title>one/nio/http/HttpSession.handleParsedRequest (1,397 samples, 100.00%)</title><rect x="10.0" y="451.0" width="1180.0" height="15" fill="#58e958" rx="2" ry="2"/>
<text x="13.0" y="462.0">one/nio/http/HttpSession.handleParsedRequest</text>
</g>
<g>
<title>one/nio/http/HttpServer.handleRequest (1,397 samples, 100.00%)</title><rect x="10.0" y="435.0" width="1180.0" height="15" fill="#64f564" rx="2" ry="2"/>
<text x="13.0" y="446.0">one/nio/http/HttpServer.handleRequest</text>
</g>
<g>
<title>RequestHandler1_get.handleRequest (1,397 samples, 100.00%)</title><rect x="10.0" y="419.0" width="1180.0" height="15" fill="#6bfc6b" rx="2" ry="2"/>
<text x="13.0" y="430.0">RequestHandler1_get.handleRequest</text>
</g>
<g>
<title>ru/mail/polis/service/zvladn7/BasicService.get (1,397 samples, 100.00%)</title><rect x="10.0" y="403.0" width="1180.0" height="15" fill="#5ced5c" rx="2" ry="2"/>
<text x="13.0" y="414.0">ru/mail/polis/service/zvladn7/BasicService.get</text>
</g>
<g>
<title>java/util/concurrent/locks/ReentrantLock.lock (468 samples, 33.50%)</title><rect x="10.0" y="387.0" width="395.3" height="15" fill="#55e655" rx="2" ry="2"/>
<text x="13.0" y="398.0">java/util/concurrent/locks/ReentrantLock.lock</text>
</g>
<g>
<title>java/util/concurrent/locks/AbstractQueuedSynchronizer.acquire (468 samples, 33.50%)</title><rect x="10.0" y="371.0" width="395.3" height="15" fill="#5bec5b" rx="2" ry="2"/>
<text x="13.0" y="382.0">java/util/concurrent/locks/AbstractQueuedSynchronizer...</text>
</g>
<g>
<title>java/util/concurrent/locks/AbstractQueuedSynchronizer.acquireQueued (468 samples, 33.50%)</title><rect x="10.0" y="355.0" width="395.3" height="15" fill="#5dee5d" rx="2" ry="2"/>
<text x="13.0" y="366.0">java/util/concurrent/locks/AbstractQueuedSynchronizer...</text>
</g>
<g>
<title>java/util/concurrent/locks/AbstractQueuedSynchronizer.parkAndCheckInterrupt (468 samples, 33.50%)</title><rect x="10.0" y="339.0" width="395.3" height="15" fill="#5dee5d" rx="2" ry="2"/>
<text x="13.0" y="350.0">java/util/concurrent/locks/AbstractQueuedSynchronizer...</text>
</g>
<g>
<title>java/util/concurrent/locks/LockSupport.park (468 samples, 33.50%)</title><rect x="10.0" y="323.0" width="395.3" height="15" fill="#57e857" rx="2" ry="2"/>
<text x="13.0" y="334.0">java/util/concurrent/locks/LockSupport.park</text>
</g>
<g>
<title>jdk/internal/misc/Unsafe.park (468 samples, 33.50%)</title><rect x="10.0" y="307.0" width="395.3" height="15" fill="#54e554" rx="2" ry="2"/>
<text x="13.0" y="318.0">jdk/internal/misc/Unsafe.park</text>
</g>
<g>
<title>java.util.concurrent.locks.ReentrantLock$NonfairSync (468 samples, 33.50%)</title><rect x="10.0" y="291.0" width="395.3" height="15" fill="#51bfbf" rx="2" ry="2"/>
<text x="13.0" y="302.0">java.util.concurrent.locks.ReentrantLock$NonfairSync</text>
</g>
<g>
<title>ru/mail/polis/dao/DAO.get (929 samples, 66.50%)</title><rect x="405.3" y="387.0" width="784.7" height="15" fill="#6bfc6b" rx="2" ry="2"/>
<text x="408.3" y="398.0">ru/mail/polis/dao/DAO.get</text>
</g>
<g>
<title>com/google/common/collect/TransformedIterator.hasNext (35 samples, 2.51%)</title><rect x="405.3" y="371.0" width="29.6" height="15" fill="#52e352" rx="2" ry="2"/>
<text x="408.3" y="382.0">co..</text>
</g>
<g>
<title>com/google/common/collect/AbstractIterator.hasNext (35 samples, 2.51%)</title><rect x="405.3" y="355.0" width="29.6" height="15" fill="#56e756" rx="2" ry="2"/>
<text x="408.3" y="366.0">co..</text>
</g>
<g>
<title>com/google/common/collect/AbstractIterator.tryToComputeNext (35 samples, 2.51%)</title><rect x="405.3" y="339.0" width="29.6" height="15" fill="#52e352" rx="2" ry="2"/>
<text x="408.3" y="350.0">co..</text>
</g>
<g>
<title>com/google/common/collect/Iterators$5.computeNext (35 samples, 2.51%)</title><rect x="405.3" y="323.0" width="29.6" height="15" fill="#59ea59" rx="2" ry="2"/>
<text x="408.3" y="334.0">co..</text>
</g>
<g>
<title>ru/mail/polis/dao/Iters$CollapseEqualsIterator.next (35 samples, 2.51%)</title><rect x="405.3" y="307.0" width="29.6" height="15" fill="#5bec5b" rx="2" ry="2"/>
<text x="408.3" y="318.0">ru..</text>
</g>
<g>
<title>com/google/common/collect/Iterators$MergingIterator.next (35 samples, 2.51%)</title><rect x="405.3" y="291.0" width="29.6" height="15" fill="#5eef5e" rx="2" ry="2"/>
<text x="408.3" y="302.0">co..</text>
</g>
<g>
<title>java/util/PriorityQueue.add (35 samples, 2.51%)</title><rect x="405.3" y="275.0" width="29.6" height="15" fill="#6bfc6b" rx="2" ry="2"/>
<text x="408.3" y="286.0">ja..</text>
</g>
<g>
<title>java/util/PriorityQueue.offer (35 samples, 2.51%)</title><rect x="405.3" y="259.0" width="29.6" height="15" fill="#69fa69" rx="2" ry="2"/>
<text x="408.3" y="270.0">ja..</text>
</g>
<g>
<title>java/util/PriorityQueue.siftUp (35 samples, 2.51%)</title><rect x="405.3" y="243.0" width="29.6" height="15" fill="#5bec5b" rx="2" ry="2"/>
<text x="408.3" y="254.0">ja..</text>
</g>
<g>
<title>java/util/PriorityQueue.siftUpUsingComparator (35 samples, 2.51%)</title><rect x="405.3" y="227.0" width="29.6" height="15" fill="#51e251" rx="2" ry="2"/>
<text x="408.3" y="238.0">ja..</text>
</g>
<g>
<title>com/google/common/collect/Iterators$MergingIterator$1.compare (35 samples, 2.51%)</title><rect x="405.3" y="211.0" width="29.6" height="15" fill="#59ea59" rx="2" ry="2"/>
<text x="408.3" y="222.0">co..</text>
</g>
<g>
<title>com/google/common/collect/Iterators$MergingIterator$1.compare (35 samples, 2.51%)</title><rect x="405.3" y="195.0" width="29.6" height="15" fill="#63f463" rx="2" ry="2"/>
<text x="408.3" y="206.0">co..</text>
</g>
<g>
<title>com/google/common/collect/Iterators$PeekingImpl.peek (35 samples, 2.51%)</title><rect x="405.3" y="179.0" width="29.6" height="15" fill="#50e150" rx="2" ry="2"/>
<text x="408.3" y="190.0">co..</text>
</g>
<g>
<title>ru/mail/polis/dao/zvladn7/SSTable$SSTableIter.next (35 samples, 2.51%)</title><rect x="405.3" y="163.0" width="29.6" height="15" fill="#62f362" rx="2" ry="2"/>
<text x="408.3" y="174.0">ru..</text>
</g>
<g>
<title>ru/mail/polis/dao/zvladn7/SSTable$SSTableIter.next (35 samples, 2.51%)</title><rect x="405.3" y="147.0" width="29.6" height="15" fill="#62f362" rx="2" ry="2"/>
<text x="408.3" y="158.0">ru..</text>
</g>
<g>
<title>ru/mail/polis/dao/zvladn7/SSTable.get (35 samples, 2.51%)</title><rect x="405.3" y="131.0" width="29.6" height="15" fill="#50e150" rx="2" ry="2"/>
<text x="408.3" y="142.0">ru..</text>
</g>
<g>
<title>ru/mail/polis/dao/zvladn7/SSTable.getKey (11 samples, 0.79%)</title><rect x="405.3" y="115.0" width="9.3" height="15" fill="#68f968" rx="2" ry="2"/>
<text x="408.3" y="126.0"></text>
</g>
<g>
<title>ru/mail/polis/dao/zvladn7/SSTable.getOffset (6 samples, 0.43%)</title><rect x="405.3" y="99.0" width="5.1" height="15" fill="#60f160" rx="2" ry="2"/>
<text x="408.3" y="110.0"></text>
</g>
<g>
<title>sun/nio/ch/FileChannelImpl.read (6 samples, 0.43%)</title><rect x="405.3" y="83.0" width="5.1" height="15" fill="#5ff05f" rx="2" ry="2"/>
<text x="408.3" y="94.0"></text>
</g>
<g>
<title>sun/nio/ch/FileChannelImpl.readInternal (6 samples, 0.43%)</title><rect x="405.3" y="67.0" width="5.1" height="15" fill="#53e453" rx="2" ry="2"/>
<text x="408.3" y="78.0"></text>
</g>
<g>
<title>sun/nio/ch/NativeThreadSet.remove (6 samples, 0.43%)</title><rect x="405.3" y="51.0" width="5.1" height="15" fill="#57e857" rx="2" ry="2"/>
<text x="408.3" y="62.0"></text>
</g>
<g>
<title>sun.nio.ch.NativeThreadSet (6 samples, 0.43%)</title><rect x="405.3" y="35.0" width="5.1" height="15" fill="#5dcbcb" rx="2" ry="2"/>
<text x="408.3" y="46.0"></text>
</g>
<g>
<title>sun/nio/ch/FileChannelImpl.read (5 samples, 0.36%)</title><rect x="410.4" y="99.0" width="4.2" height="15" fill="#60f160" rx="2" ry="2"/>
<text x="413.4" y="110.0"></text>
</g>
<g>
<title>sun/nio/ch/FileChannelImpl.readInternal (5 samples, 0.36%)</title><rect x="410.4" y="83.0" width="4.2" height="15" fill="#5ced5c" rx="2" ry="2"/>
<text x="413.4" y="94.0"></text>
</g>
<g>
<title>sun/nio/ch/NativeThreadSet.remove (5 samples, 0.36%)</title><rect x="410.4" y="67.0" width="4.2" height="15" fill="#69fa69" rx="2" ry="2"/>
<text x="413.4" y="78.0"></text>
</g>
<g>
<title>sun.nio.ch.NativeThreadSet (5 samples, 0.36%)</title><rect x="410.4" y="51.0" width="4.2" height="15" fill="#50bebe" rx="2" ry="2"/>
<text x="413.4" y="62.0"></text>
</g>
<g>
<title>ru/mail/polis/dao/zvladn7/SSTable.getOffset (14 samples, 1.00%)</title><rect x="414.6" y="115.0" width="11.8" height="15" fill="#6afb6a" rx="2" ry="2"/>
<text x="417.6" y="126.0"></text>
</g>
<g>
<title>sun/nio/ch/FileChannelImpl.read (14 samples, 1.00%)</title><rect x="414.6" y="99.0" width="11.8" height="15" fill="#52e352" rx="2" ry="2"/>
<text x="417.6" y="110.0"></text>
</g>
<g>
<title>sun/nio/ch/FileChannelImpl.readInternal (14 samples, 1.00%)</title><rect x="414.6" y="83.0" width="11.8" height="15" fill="#55e655" rx="2" ry="2"/>
<text x="417.6" y="94.0"></text>
</g>
<g>
<title>sun/nio/ch/NativeThreadSet.add (14 samples, 1.00%)</title><rect x="414.6" y="67.0" width="11.8" height="15" fill="#6bfc6b" rx="2" ry="2"/>
<text x="417.6" y="78.0"></text>
</g>
<g>
<title>sun.nio.ch.NativeThreadSet (14 samples, 1.00%)</title><rect x="414.6" y="51.0" width="11.8" height="15" fill="#50bebe" rx="2" ry="2"/>
<text x="417.6" y="62.0"></text>
</g>
<g>
<title>sun/nio/ch/FileChannelImpl.read (10 samples, 0.72%)</title><rect x="426.4" y="115.0" width="8.5" height="15" fill="#58e958" rx="2" ry="2"/>
<text x="429.4" y="126.0"></text>
</g>
<g>
<title>sun/nio/ch/FileChannelImpl.readInternal (10 samples, 0.72%)</title><rect x="426.4" y="99.0" width="8.5" height="15" fill="#54e554" rx="2" ry="2"/>
<text x="429.4" y="110.0"></text>
</g>
<g>
<title>sun/nio/ch/NativeThreadSet.add (2 samples, 0.14%)</title><rect x="426.4" y="83.0" width="1.7" height="15" fill="#52e352" rx="2" ry="2"/>
<text x="429.4" y="94.0"></text>
</g>
<g>
<title>sun.nio.ch.NativeThreadSet (2 samples, 0.14%)</title><rect x="426.4" y="67.0" width="1.7" height="15" fill="#62d0d0" rx="2" ry="2"/>
<text x="429.4" y="78.0"></text>
</g>
<g>
<title>sun/nio/ch/NativeThreadSet.remove (8 samples, 0.57%)</title><rect x="428.1" y="83.0" width="6.8" height="15" fill="#5ff05f" rx="2" ry="2"/>
<text x="431.1" y="94.0"></text>
</g>
<g>
<title>sun.nio.ch.NativeThreadSet (8 samples, 0.57%)</title><rect x="428.1" y="67.0" width="6.8" height="15" fill="#61cfcf" rx="2" ry="2"/>
<text x="431.1" y="78.0"></text>
</g>
<g>
<title>ru/mail/polis/dao/zvladn7/LsmDAOImpl.iterator (894 samples, 63.99%)</title><rect x="434.9" y="371.0" width="755.1" height="15" fill="#5ff05f" rx="2" ry="2"/>
<text x="437.9" y="382.0">ru/mail/polis/dao/zvladn7/LsmDAOImpl.iterator</text>
</g>
<g>
<title>ru/mail/polis/dao/zvladn7/LsmDAOImpl.freshCellIterator (894 samples, 63.99%)</title><rect x="434.9" y="355.0" width="755.1" height="15" fill="#5aeb5a" rx="2" ry="2"/>
<text x="437.9" y="366.0">ru/mail/polis/dao/zvladn7/LsmDAOImpl.freshCellIterator</text>
</g>
<g>
<title>com/google/common/collect/Iterators.mergeSorted (116 samples, 8.30%)</title><rect x="434.9" y="339.0" width="97.9" height="15" fill="#6cfd6c" rx="2" ry="2"/>
<text x="437.9" y="350.0">com/google/..</text>
</g>
<g>
<title>com/google/common/collect/Iterators$MergingIterator.&lt;init&gt; (116 samples, 8.30%)</title><rect x="434.9" y="323.0" width="97.9" height="15" fill="#60f160" rx="2" ry="2"/>
<text x="437.9" y="334.0">com/google/..</text>
</g>
<g>
<title>java/util/PriorityQueue.add (116 samples, 8.30%)</title><rect x="434.9" y="307.0" width="97.9" height="15" fill="#63f463" rx="2" ry="2"/>
<text x="437.9" y="318.0">java/util/P..</text>
</g>
<g>
<title>java/util/PriorityQueue.offer (116 samples, 8.30%)</title><rect x="434.9" y="291.0" width="97.9" height="15" fill="#62f362" rx="2" ry="2"/>
<text x="437.9" y="302.0">java/util/P..</text>
</g>
<g>
<title>java/util/PriorityQueue.siftUp (116 samples, 8.30%)</title><rect x="434.9" y="275.0" width="97.9" height="15" fill="#61f261" rx="2" ry="2"/>
<text x="437.9" y="286.0">java/util/P..</text>
</g>
<g>
<title>java/util/PriorityQueue.siftUpUsingComparator (116 samples, 8.30%)</title><rect x="434.9" y="259.0" width="97.9" height="15" fill="#58e958" rx="2" ry="2"/>
<text x="437.9" y="270.0">java/util/P..</text>
</g>
<g>
<title>com/google/common/collect/Iterators$MergingIterator$1.compare (116 samples, 8.30%)</title><rect x="434.9" y="243.0" width="97.9" height="15" fill="#56e756" rx="2" ry="2"/>
<text x="437.9" y="254.0">com/google/..</text>
</g>
<g>
<title>com/google/common/collect/Iterators$MergingIterator$1.compare (116 samples, 8.30%)</title><rect x="434.9" y="227.0" width="97.9" height="15" fill="#61f261" rx="2" ry="2"/>
<text x="437.9" y="238.0">com/google/..</text>
</g>
<g>
<title>com/google/common/collect/Iterators$PeekingImpl.peek (116 samples, 8.30%)</title><rect x="434.9" y="211.0" width="97.9" height="15" fill="#53e453" rx="2" ry="2"/>
<text x="437.9" y="222.0">com/google/..</text>
</g>
<g>
<title>ru/mail/polis/dao/zvladn7/SSTable$SSTableIter.next (116 samples, 8.30%)</title><rect x="434.9" y="195.0" width="97.9" height="15" fill="#67f867" rx="2" ry="2"/>
<text x="437.9" y="206.0">ru/mail/pol..</text>
</g>
<g>
<title>ru/mail/polis/dao/zvladn7/SSTable$SSTableIter.next (116 samples, 8.30%)</title><rect x="434.9" y="179.0" width="97.9" height="15" fill="#53e453" rx="2" ry="2"/>
<text x="437.9" y="190.0">ru/mail/pol..</text>
</g>
<g>
<title>ru/mail/polis/dao/zvladn7/SSTable.get (116 samples, 8.30%)</title><rect x="434.9" y="163.0" width="97.9" height="15" fill="#56e756" rx="2" ry="2"/>
<text x="437.9" y="174.0">ru/mail/pol..</text>
</g>
<g>
<title>ru/mail/polis/dao/zvladn7/SSTable.getKey (46 samples, 3.29%)</title><rect x="434.9" y="147.0" width="38.8" height="15" fill="#50e150" rx="2" ry="2"/>
<text x="437.9" y="158.0">ru/..</text>
</g>
<g>
<title>ru/mail/polis/dao/zvladn7/SSTable.getOffset (12 samples, 0.86%)</title><rect x="434.9" y="131.0" width="10.1" height="15" fill="#60f160" rx="2" ry="2"/>
<text x="437.9" y="142.0"></text>
</g>
<g>
<title>sun/nio/ch/FileChannelImpl.read (12 samples, 0.86%)</title><rect x="434.9" y="115.0" width="10.1" height="15" fill="#66f766" rx="2" ry="2"/>
<text x="437.9" y="126.0"></text>
</g>
<g>
<title>sun/nio/ch/FileChannelImpl.readInternal (12 samples, 0.86%)</title><rect x="434.9" y="99.0" width="10.1" height="15" fill="#5ced5c" rx="2" ry="2"/>
<text x="437.9" y="110.0"></text>
</g>
<g>
<title>sun/nio/ch/NativeThreadSet.add (3 samples, 0.21%)</title><rect x="434.9" y="83.0" width="2.5" height="15" fill="#5bec5b" rx="2" ry="2"/>
<text x="437.9" y="94.0"></text>
</g>
<g>
<title>sun.nio.ch.NativeThreadSet (3 samples, 0.21%)</title><rect x="434.9" y="67.0" width="2.5" height="15" fill="#67d5d5" rx="2" ry="2"/>
<text x="437.9" y="78.0"></text>
</g>
<g>
<title>sun/nio/ch/NativeThreadSet.remove (9 samples, 0.64%)</title><rect x="437.4" y="83.0" width="7.6" height="15" fill="#59ea59" rx="2" ry="2"/>
<text x="440.4" y="94.0"></text>
</g>
<g>
<title>sun.nio.ch.NativeThreadSet (9 samples, 0.64%)</title><rect x="437.4" y="67.0" width="7.6" height="15" fill="#5ecccc" rx="2" ry="2"/>
<text x="440.4" y="78.0"></text>
</g>
<g>
<title>sun/nio/ch/FileChannelImpl.read (34 samples, 2.43%)</title><rect x="445.0" y="131.0" width="28.7" height="15" fill="#6cfd6c" rx="2" ry="2"/>
<text x="448.0" y="142.0">su..</text>
</g>
<g>
<title>sun/nio/ch/FileChannelImpl.readInternal (34 samples, 2.43%)</title><rect x="445.0" y="115.0" width="28.7" height="15" fill="#56e756" rx="2" ry="2"/>
<text x="448.0" y="126.0">su..</text>
</g>
<g>
<title>sun/nio/ch/NativeThreadSet.add (5 samples, 0.36%)</title><rect x="445.0" y="99.0" width="4.2" height="15" fill="#5ff05f" rx="2" ry="2"/>
<text x="448.0" y="110.0"></text>
</g>
<g>
<title>sun.nio.ch.NativeThreadSet (5 samples, 0.36%)</title><rect x="445.0" y="83.0" width="4.2" height="15" fill="#56c4c4" rx="2" ry="2"/>
<text x="448.0" y="94.0"></text>
</g>
<g>
<title>sun/nio/ch/NativeThreadSet.remove (29 samples, 2.08%)</title><rect x="449.2" y="99.0" width="24.5" height="15" fill="#5bec5b" rx="2" ry="2"/>
<text x="452.2" y="110.0">s..</text>
</g>
<g>
<title>sun.nio.ch.NativeThreadSet (29 samples, 2.08%)</title><rect x="449.2" y="83.0" width="24.5" height="15" fill="#61cfcf" rx="2" ry="2"/>
<text x="452.2" y="94.0">s..</text>
</g>
<g>
<title>ru/mail/polis/dao/zvladn7/SSTable.getOffset (26 samples, 1.86%)</title><rect x="473.7" y="147.0" width="22.0" height="15" fill="#68f968" rx="2" ry="2"/>
<text x="476.7" y="158.0">r..</text>
</g>
<g>
<title>sun/nio/ch/FileChannelImpl.read (26 samples, 1.86%)</title><rect x="473.7" y="131.0" width="22.0" height="15" fill="#6afb6a" rx="2" ry="2"/>
<text x="476.7" y="142.0">s..</text>
</g>
<g>
<title>sun/nio/ch/FileChannelImpl.readInternal (26 samples, 1.86%)</title><rect x="473.7" y="115.0" width="22.0" height="15" fill="#55e655" rx="2" ry="2"/>
<text x="476.7" y="126.0">s..</text>
</g>
<g>
<title>sun/nio/ch/NativeThreadSet.add (23 samples, 1.65%)</title><rect x="473.7" y="99.0" width="19.4" height="15" fill="#5aeb5a" rx="2" ry="2"/>
<text x="476.7" y="110.0"></text>
</g>
<g>
<title>sun.nio.ch.NativeThreadSet (23 samples, 1.65%)</title><rect x="473.7" y="83.0" width="19.4" height="15" fill="#57c5c5" rx="2" ry="2"/>
<text x="476.7" y="94.0"></text>
</g>
<g>
<title>sun/nio/ch/NativeThreadSet.remove (3 samples, 0.21%)</title><rect x="493.1" y="99.0" width="2.6" height="15" fill="#54e554" rx="2" ry="2"/>
<text x="496.1" y="110.0"></text>
</g>
<g>
<title>sun.nio.ch.NativeThreadSet (3 samples, 0.21%)</title><rect x="493.1" y="83.0" width="2.6" height="15" fill="#6ad8d8" rx="2" ry="2"/>
<text x="496.1" y="94.0"></text>
</g>
<g>
<title>sun/nio/ch/FileChannelImpl.read (44 samples, 3.15%)</title><rect x="495.7" y="147.0" width="37.1" height="15" fill="#6afb6a" rx="2" ry="2"/>
<text x="498.7" y="158.0">sun..</text>
</g>
<g>
<title>sun/nio/ch/FileChannelImpl.readInternal (44 samples, 3.15%)</title><rect x="495.7" y="131.0" width="37.1" height="15" fill="#66f766" rx="2" ry="2"/>
<text x="498.7" y="142.0">sun..</text>
</g>
<g>
<title>sun/nio/ch/NativeThreadSet.add (4 samples, 0.29%)</title><rect x="495.7" y="115.0" width="3.4" height="15" fill="#5eef5e" rx="2" ry="2"/>
<text x="498.7" y="126.0"></text>
</g>
<g>
<title>sun.nio.ch.NativeThreadSet (4 samples, 0.29%)</title><rect x="495.7" y="99.0" width="3.4" height="15" fill="#55c3c3" rx="2" ry="2"/>
<text x="498.7" y="110.0"></text>
</g>
<g>
<title>sun/nio/ch/NativeThreadSet.remove (40 samples, 2.86%)</title><rect x="499.1" y="115.0" width="33.7" height="15" fill="#6dfe6d" rx="2" ry="2"/>
<text x="502.1" y="126.0">su..</text>
</g>
<g>
<title>sun.nio.ch.NativeThreadSet (40 samples, 2.86%)</title><rect x="499.1" y="99.0" width="33.7" height="15" fill="#51bfbf" rx="2" ry="2"/>
<text x="502.1" y="110.0">su..</text>
</g>
<g>
<title>ru/mail/polis/dao/Iters.collapseEquals (7 samples, 0.50%)</title><rect x="532.8" y="339.0" width="6.0" height="15" fill="#58e958" rx="2" ry="2"/>
<text x="535.8" y="350.0"></text>
</g>
<g>
<title>ru/mail/polis/dao/Iters$CollapseEqualsIterator.&lt;init&gt; (7 samples, 0.50%)</title><rect x="532.8" y="323.0" width="6.0" height="15" fill="#66f766" rx="2" ry="2"/>
<text x="535.8" y="334.0"></text>
</g>
<g>
<title>com/google/common/collect/Iterators$MergingIterator.next (7 samples, 0.50%)</title><rect x="532.8" y="307.0" width="6.0" height="15" fill="#54e554" rx="2" ry="2"/>
<text x="535.8" y="318.0"></text>
</g>
<g>
<title>java/util/PriorityQueue.add (7 samples, 0.50%)</title><rect x="532.8" y="291.0" width="6.0" height="15" fill="#5eef5e" rx="2" ry="2"/>
<text x="535.8" y="302.0"></text>
</g>
<g>
<title>java/util/PriorityQueue.offer (7 samples, 0.50%)</title><rect x="532.8" y="275.0" width="6.0" height="15" fill="#66f766" rx="2" ry="2"/>
<text x="535.8" y="286.0"></text>
</g>
<g>
<title>java/util/PriorityQueue.siftUp (7 samples, 0.50%)</title><rect x="532.8" y="259.0" width="6.0" height="15" fill="#64f564" rx="2" ry="2"/>
<text x="535.8" y="270.0"></text>
</g>
<g>
<title>java/util/PriorityQueue.siftUpUsingComparator (7 samples, 0.50%)</title><rect x="532.8" y="243.0" width="6.0" height="15" fill="#57e857" rx="2" ry="2"/>
<text x="535.8" y="254.0"></text>
</g>
<g>
<title>com/google/common/collect/Iterators$MergingIterator$1.compare (7 samples, 0.50%)</title><rect x="532.8" y="227.0" width="6.0" height="15" fill="#55e655" rx="2" ry="2"/>
<text x="535.8" y="238.0"></text>
</g>
<g>
<title>com/google/common/collect/Iterators$MergingIterator$1.compare (7 samples, 0.50%)</title><rect x="532.8" y="211.0" width="6.0" height="15" fill="#52e352" rx="2" ry="2"/>
<text x="535.8" y="222.0"></text>
</g>
<g>
<title>com/google/common/collect/Iterators$PeekingImpl.peek (7 samples, 0.50%)</title><rect x="532.8" y="195.0" width="6.0" height="15" fill="#50e150" rx="2" ry="2"/>
<text x="535.8" y="206.0"></text>
</g>
<g>
<title>ru/mail/polis/dao/zvladn7/SSTable$SSTableIter.next (7 samples, 0.50%)</title><rect x="532.8" y="179.0" width="6.0" height="15" fill="#5ff05f" rx="2" ry="2"/>
<text x="535.8" y="190.0"></text>
</g>
<g>
<title>ru/mail/polis/dao/zvladn7/SSTable$SSTableIter.next (7 samples, 0.50%)</title><rect x="532.8" y="163.0" width="6.0" height="15" fill="#60f160" rx="2" ry="2"/>
<text x="535.8" y="174.0"></text>
</g>
<g>
<title>ru/mail/polis/dao/zvladn7/SSTable.get (7 samples, 0.50%)</title><rect x="532.8" y="147.0" width="6.0" height="15" fill="#6dfe6d" rx="2" ry="2"/>
<text x="535.8" y="158.0"></text>
</g>
<g>
<title>ru/mail/polis/dao/zvladn7/SSTable.getKey (3 samples, 0.21%)</title><rect x="532.8" y="131.0" width="2.6" height="15" fill="#66f766" rx="2" ry="2"/>
<text x="535.8" y="142.0"></text>
</g>
<g>
<title>sun/nio/ch/FileChannelImpl.read (3 samples, 0.21%)</title><rect x="532.8" y="115.0" width="2.6" height="15" fill="#51e251" rx="2" ry="2"/>
<text x="535.8" y="126.0"></text>
</g>
<g>
<title>sun/nio/ch/FileChannelImpl.readInternal (3 samples, 0.21%)</title><rect x="532.8" y="99.0" width="2.6" height="15" fill="#55e655" rx="2" ry="2"/>
<text x="535.8" y="110.0"></text>
</g>
<g>
<title>sun/nio/ch/NativeThreadSet.remove (3 samples, 0.21%)</title><rect x="532.8" y="83.0" width="2.6" height="15" fill="#53e453" rx="2" ry="2"/>
<text x="535.8" y="94.0"></text>
</g>
<g>
<title>sun.nio.ch.NativeThreadSet (3 samples, 0.21%)</title><rect x="532.8" y="67.0" width="2.6" height="15" fill="#63d1d1" rx="2" ry="2"/>
<text x="535.8" y="78.0"></text>
</g>
<g>
<title>ru/mail/polis/dao/zvladn7/SSTable.getOffset (2 samples, 0.14%)</title><rect x="535.4" y="131.0" width="1.7" height="15" fill="#6dfe6d" rx="2" ry="2"/>
<text x="538.4" y="142.0"></text>
</g>
<g>
<title>sun/nio/ch/FileChannelImpl.read (2 samples, 0.14%)</title><rect x="535.4" y="115.0" width="1.7" height="15" fill="#6dfe6d" rx="2" ry="2"/>
<text x="538.4" y="126.0"></text>
</g>
<g>
<title>sun/nio/ch/FileChannelImpl.readInternal (2 samples, 0.14%)</title><rect x="535.4" y="99.0" width="1.7" height="15" fill="#68f968" rx="2" ry="2"/>
<text x="538.4" y="110.0"></text>
</g>
<g>
<title>sun/nio/ch/NativeThreadSet.add (1 samples, 0.07%)</title><rect x="535.4" y="83.0" width="0.8" height="15" fill="#59ea59" rx="2" ry="2"/>
<text x="538.4" y="94.0"></text>
</g>
<g>
<title>sun.nio.ch.NativeThreadSet (1 samples, 0.07%)</title><rect x="535.4" y="67.0" width="0.8" height="15" fill="#56c4c4" rx="2" ry="2"/>
<text x="538.4" y="78.0"></text>
</g>
<g>
<title>sun/nio/ch/NativeThreadSet.remove (1 samples, 0.07%)</title><rect x="536.2" y="83.0" width="0.9" height="15" fill="#6dfe6d" rx="2" ry="2"/>
<text x="539.2" y="94.0"></text>
</g>
<g>
<title>sun.nio.ch.NativeThreadSet (1 samples, 0.07%)</title><rect x="536.2" y="67.0" width="0.9" height="15" fill="#56c4c4" rx="2" ry="2"/>
<text x="539.2" y="78.0"></text>
</g>
<g>
<title>sun/nio/ch/FileChannelImpl.read (2 samples, 0.14%)</title><rect x="537.1" y="131.0" width="1.7" height="15" fill="#53e453" rx="2" ry="2"/>
<text x="540.1" y="142.0"></text>
</g>
<g>
<title>sun/nio/ch/FileChannelImpl.readInternal (2 samples, 0.14%)</title><rect x="537.1" y="115.0" width="1.7" height="15" fill="#65f665" rx="2" ry="2"/>
<text x="540.1" y="126.0"></text>
</g>
<g>
<title>sun/nio/ch/NativeThreadSet.remove (2 samples, 0.14%)</title><rect x="537.1" y="99.0" width="1.7" height="15" fill="#64f564" rx="2" ry="2"/>
<text x="540.1" y="110.0"></text>
</g>
<g>
<title>sun.nio.ch.NativeThreadSet (2 samples, 0.14%)</title><rect x="537.1" y="83.0" width="1.7" height="15" fill="#58c6c6" rx="2" ry="2"/>
<text x="540.1" y="94.0"></text>
</g>
<g>
<title>ru/mail/polis/dao/zvladn7/LsmDAOImpl.getAllCellItersList (771 samples, 55.19%)</title><rect x="538.8" y="339.0" width="651.2" height="15" fill="#64f564" rx="2" ry="2"/>
<text x="541.8" y="350.0">ru/mail/polis/dao/zvladn7/LsmDAOImpl.getAllCellItersList</text>
</g>
<g>
<title>java/lang/Iterable.forEach (771 samples, 55.19%)</title><rect x="538.8" y="323.0" width="651.2" height="15" fill="#65f665" rx="2" ry="2"/>
<text x="541.8" y="334.0">java/lang/Iterable.forEach</text>
</g>
<g>
<title>ru/mail/polis/dao/zvladn7/LsmDAOImpl$$Lambda$104/515740218.accept (771 samples, 55.19%)</title><rect x="538.8" y="307.0" width="651.2" height="15" fill="#60f160" rx="2" ry="2"/>
<text x="541.8" y="318.0">ru/mail/polis/dao/zvladn7/LsmDAOImpl$$Lambda$104/515740218.accept</text>
</g>
<g>
<title>ru/mail/polis/dao/zvladn7/LsmDAOImpl.lambda$getAllCellItersList$10 (771 samples, 55.19%)</title><rect x="538.8" y="291.0" width="651.2" height="15" fill="#5dee5d" rx="2" ry="2"/>
<text x="541.8" y="302.0">ru/mail/polis/dao/zvladn7/LsmDAOImpl.lambda$getAllCellItersList$10</text>
</g>
<g>
<title>ru/mail/polis/dao/zvladn7/SSTable.iterator (771 samples, 55.19%)</title><rect x="538.8" y="275.0" width="651.2" height="15" fill="#6afb6a" rx="2" ry="2"/>
<text x="541.8" y="286.0">ru/mail/polis/dao/zvladn7/SSTable.iterator</text>
</g>
<g>
<title>ru/mail/polis/dao/zvladn7/SSTable$SSTableIter.&lt;init&gt; (771 samples, 55.19%)</title><rect x="538.8" y="259.0" width="651.2" height="15" fill="#51e251" rx="2" ry="2"/>
<text x="541.8" y="270.0">ru/mail/polis/dao/zvladn7/SSTable$SSTableIter.&lt;init&gt;</text>
</g>
<g>
<title>ru/mail/polis/dao/zvladn7/SSTable.getElementPosition (771 samples, 55.19%)</title><rect x="538.8" y="243.0" width="651.2" height="15" fill="#56e756" rx="2" ry="2"/>
<text x="541.8" y="254.0">ru/mail/polis/dao/zvladn7/SSTable.getElementPosition</text>
</g>
<g>
<title>ru/mail/polis/dao/zvladn7/SSTable.getKey (771 samples, 55.19%)</title><rect x="538.8" y="227.0" width="651.2" height="15" fill="#61f261" rx="2" ry="2"/>
<text x="541.8" y="238.0">ru/mail/polis/dao/zvladn7/SSTable.getKey</text>
</g>
<g>
<title>ru/mail/polis/dao/zvladn7/SSTable.getOffset (259 samples, 18.54%)</title><rect x="538.8" y="211.0" width="218.7" height="15" fill="#59ea59" rx="2" ry="2"/>
<text x="541.8" y="222.0">ru/mail/polis/dao/zvladn7/SST..</text>
</g>
<g>
<title>sun/nio/ch/FileChannelImpl.read (259 samples, 18.54%)</title><rect x="538.8" y="195.0" width="218.7" height="15" fill="#5bec5b" rx="2" ry="2"/>
<text x="541.8" y="206.0">sun/nio/ch/FileChannelImpl.read</text>
</g>
<g>
<title>sun/nio/ch/FileChannelImpl.readInternal (259 samples, 18.54%)</title><rect x="538.8" y="179.0" width="218.7" height="15" fill="#63f463" rx="2" ry="2"/>
<text x="541.8" y="190.0">sun/nio/ch/FileChannelImpl.re..</text>
</g>
<g>
<title>sun/nio/ch/NativeThreadSet.add (57 samples, 4.08%)</title><rect x="538.8" y="163.0" width="48.1" height="15" fill="#5aeb5a" rx="2" ry="2"/>
<text x="541.8" y="174.0">sun/..</text>
</g>
<g>
<title>sun.nio.ch.NativeThreadSet (57 samples, 4.08%)</title><rect x="538.8" y="147.0" width="48.1" height="15" fill="#6ad8d8" rx="2" ry="2"/>
<text x="541.8" y="158.0">sun...</text>
</g>
<g>
<title>sun/nio/ch/NativeThreadSet.remove (202 samples, 14.46%)</title><rect x="586.9" y="163.0" width="170.6" height="15" fill="#56e756" rx="2" ry="2"/>
<text x="589.9" y="174.0">sun/nio/ch/NativeThrea..</text>
</g>
<g>
<title>sun.nio.ch.NativeThreadSet (202 samples, 14.46%)</title><rect x="586.9" y="147.0" width="170.6" height="15" fill="#59c7c7" rx="2" ry="2"/>
<text x="589.9" y="158.0">sun.nio.ch.NativeThrea..</text>
</g>
<g>
<title>sun/nio/ch/FileChannelImpl.read (512 samples, 36.65%)</title><rect x="757.5" y="211.0" width="432.5" height="15" fill="#63f463" rx="2" ry="2"/>
<text x="760.5" y="222.0">sun/nio/ch/FileChannelImpl.read</text>
</g>
<g>
<title>sun/nio/ch/FileChannelImpl.readInternal (512 samples, 36.65%)</title><rect x="757.5" y="195.0" width="432.5" height="15" fill="#58e958" rx="2" ry="2"/>
<text x="760.5" y="206.0">sun/nio/ch/FileChannelImpl.readInternal</text>
</g>
<g>
<title>sun/nio/ch/NativeThreadSet.add (71 samples, 5.08%)</title><rect x="757.5" y="179.0" width="60.0" height="15" fill="#5eef5e" rx="2" ry="2"/>
<text x="760.5" y="190.0">sun/ni..</text>
</g>
<g>
<title>sun.nio.ch.NativeThreadSet (71 samples, 5.08%)</title><rect x="757.5" y="163.0" width="60.0" height="15" fill="#66d4d4" rx="2" ry="2"/>
<text x="760.5" y="174.0">sun.ni..</text>
</g>
<g>
<title>sun/nio/ch/NativeThreadSet.remove (441 samples, 31.57%)</title><rect x="817.5" y="179.0" width="372.5" height="15" fill="#6cfd6c" rx="2" ry="2"/>
<text x="820.5" y="190.0">sun/nio/ch/NativeThreadSet.remove</text>
</g>
<g>
<title>sun.nio.ch.NativeThreadSet (441 samples, 31.57%)</title><rect x="817.5" y="163.0" width="372.5" height="15" fill="#5ecccc" rx="2" ry="2"/>
<text x="820.5" y="174.0">sun.nio.ch.NativeThreadSet</text>
</g>
</g>
</svg>
