<?xml version="1.0" standalone="no"?>
<!DOCTYPE svg PUBLIC "-//W3C//DTD SVG 1.1//EN" "http://www.w3.org/Graphics/SVG/1.1/DTD/svg11.dtd">
<svg version="1.1" width="1200" height="438" onload="init(evt)" viewBox="0 0 1200 438" xmlns="http://www.w3.org/2000/svg" xmlns:xlink="http://www.w3.org/1999/xlink">
<style type="text/css">
	text { font-family:Verdana; font-size:12px; fill:rgb(0,0,0); }
	#search { opacity:0.1; cursor:pointer; }
	#search:hover, #search.show { opacity:1; }
	#subtitle { text-anchor:middle; font-color:rgb(160,160,160); }
	#title { text-anchor:middle; font-size:17px}
	#unzoom { cursor:pointer; }
	#frames > *:hover { stroke:black; stroke-width:0.5; cursor:pointer; }
	.hide { display:none; }
	.parent { opacity:0.5; }
</style>
<script type="text/ecmascript">
<![CDATA[
	"use strict";
	var details, searchbtn, unzoombtn, matchedtxt, svg, searching;
	function init(evt) {
		details = document.getElementById("details").firstChild;
		searchbtn = document.getElementById("search");
		unzoombtn = document.getElementById("unzoom");
		matchedtxt = document.getElementById("matched");
		svg = document.getElementsByTagName("svg")[0];
		searching = 0;
	}

	window.addEventListener("click", function(e) {
		var target = find_group(e.target);
		if (target) {
			if (target.nodeName == "a") {
				if (e.ctrlKey === false) return;
				e.preventDefault();
			}
			if (target.classList.contains("parent")) unzoom();
			zoom(target);
		}
		else if (e.target.id == "unzoom") unzoom();
		else if (e.target.id == "search") search_prompt();
	}, false)

	// mouse-over for info
	// show
	window.addEventListener("mouseover", function(e) {
		var target = find_group(e.target);
		if (target) details.nodeValue = "Function: " + g_to_text(target);
	}, false)

	// clear
	window.addEventListener("mouseout", function(e) {
		var target = find_group(e.target);
		if (target) details.nodeValue = ' ';
	}, false)

	// ctrl-F for search
	window.addEventListener("keydown",function (e) {
		if (e.keyCode === 114 || (e.ctrlKey && e.keyCode === 70)) {
			e.preventDefault();
			search_prompt();
		}
	}, false)

	// functions
	function find_child(node, selector) {
		var children = node.querySelectorAll(selector);
		if (children.length) return children[0];
		return;
	}
	function find_group(node) {
		var parent = node.parentElement;
		if (!parent) return;
		if (parent.id == "frames") return node;
		return find_group(parent);
	}
	function orig_save(e, attr, val) {
		if (e.attributes["_orig_" + attr] != undefined) return;
		if (e.attributes[attr] == undefined) return;
		if (val == undefined) val = e.attributes[attr].value;
		e.setAttribute("_orig_" + attr, val);
	}
	function orig_load(e, attr) {
		if (e.attributes["_orig_"+attr] == undefined) return;
		e.attributes[attr].value = e.attributes["_orig_" + attr].value;
		e.removeAttribute("_orig_"+attr);
	}
	function g_to_text(e) {
		var text = find_child(e, "title").firstChild.nodeValue;
		return (text)
	}
	function g_to_func(e) {
		var func = g_to_text(e);
		// if there's any manipulation we want to do to the function
		// name before it's searched, do it here before returning.
		return (func);
	}
	function update_text(e) {
		var r = find_child(e, "rect");
		var t = find_child(e, "text");
		var w = parseFloat(r.attributes.width.value) -3;
		var txt = find_child(e, "title").textContent.replace(/\([^(]*\)$/,"");
		t.attributes.x.value = parseFloat(r.attributes.x.value) + 3;

		// Smaller than this size won't fit anything
		if (w < 2 * 12 * 0.59) {
			t.textContent = "";
			return;
		}

		t.textContent = txt;
		// Fit in full text width
		if (/^ *$/.test(txt) || t.getSubStringLength(0, txt.length) < w)
			return;

		for (var x = txt.length - 2; x > 0; x--) {
			if (t.getSubStringLength(0, x + 2) <= w) {
				t.textContent = txt.substring(0, x) + "..";
				return;
			}
		}
		t.textContent = "";
	}

	// zoom
	function zoom_reset(e) {
		if (e.attributes != undefined) {
			orig_load(e, "x");
			orig_load(e, "width");
		}
		if (e.childNodes == undefined) return;
		for (var i = 0, c = e.childNodes; i < c.length; i++) {
			zoom_reset(c[i]);
		}
	}
	function zoom_child(e, x, ratio) {
		if (e.attributes != undefined) {
			if (e.attributes.x != undefined) {
				orig_save(e, "x");
				e.attributes.x.value = (parseFloat(e.attributes.x.value) - x - 10) * ratio + 10;
				if (e.tagName == "text")
					e.attributes.x.value = find_child(e.parentNode, "rect[x]").attributes.x.value + 3;
			}
			if (e.attributes.width != undefined) {
				orig_save(e, "width");
				e.attributes.width.value = parseFloat(e.attributes.width.value) * ratio;
			}
		}

		if (e.childNodes == undefined) return;
		for (var i = 0, c = e.childNodes; i < c.length; i++) {
			zoom_child(c[i], x - 10, ratio);
		}
	}
	function zoom_parent(e) {
		if (e.attributes) {
			if (e.attributes.x != undefined) {
				orig_save(e, "x");
				e.attributes.x.value = 10;
			}
			if (e.attributes.width != undefined) {
				orig_save(e, "width");
				e.attributes.width.value = parseInt(svg.width.baseVal.value) - (10 * 2);
			}
		}
		if (e.childNodes == undefined) return;
		for (var i = 0, c = e.childNodes; i < c.length; i++) {
			zoom_parent(c[i]);
		}
	}
	function zoom(node) {
		var attr = find_child(node, "rect").attributes;
		var width = parseFloat(attr.width.value);
		var xmin = parseFloat(attr.x.value);
		var xmax = parseFloat(xmin + width);
		var ymin = parseFloat(attr.y.value);
		var ratio = (svg.width.baseVal.value - 2 * 10) / width;

		// XXX: Workaround for JavaScript float issues (fix me)
		var fudge = 0.0001;

		unzoombtn.classList.remove("hide");

		var el = document.getElementById("frames").children;
		for (var i = 0; i < el.length; i++) {
			var e = el[i];
			var a = find_child(e, "rect").attributes;
			var ex = parseFloat(a.x.value);
			var ew = parseFloat(a.width.value);
			var upstack;
			// Is it an ancestor
			if (0 == 0) {
				upstack = parseFloat(a.y.value) > ymin;
			} else {
				upstack = parseFloat(a.y.value) < ymin;
			}
			if (upstack) {
				// Direct ancestor
				if (ex <= xmin && (ex+ew+fudge) >= xmax) {
					e.classList.add("parent");
					zoom_parent(e);
					update_text(e);
				}
				// not in current path
				else
					e.classList.add("hide");
			}
			// Children maybe
			else {
				// no common path
				if (ex < xmin || ex + fudge >= xmax) {
					e.classList.add("hide");
				}
				else {
					zoom_child(e, xmin, ratio);
					update_text(e);
				}
			}
		}
	}
	function unzoom() {
		unzoombtn.classList.add("hide");
		var el = document.getElementById("frames").children;
		for(var i = 0; i < el.length; i++) {
			el[i].classList.remove("parent");
			el[i].classList.remove("hide");
			zoom_reset(el[i]);
			update_text(el[i]);
		}
	}

	// search
	function reset_search() {
		var el = document.querySelectorAll("#frames rect");
		for (var i = 0; i < el.length; i++) {
			orig_load(el[i], "fill")
		}
	}
	function search_prompt() {
		if (!searching) {
			var term = prompt("Enter a search term (regexp " +
			    "allowed, eg: ^ext4_)", "");
			if (term != null) {
				search(term)
			}
		} else {
			reset_search();
			searching = 0;
			searchbtn.classList.remove("show");
			searchbtn.firstChild.nodeValue = "Search"
			matchedtxt.classList.add("hide");
			matchedtxt.firstChild.nodeValue = ""
		}
	}
	function search(term) {
		var re = new RegExp(term);
		var el = document.getElementById("frames").children;
		var matches = new Object();
		var maxwidth = 0;
		for (var i = 0; i < el.length; i++) {
			var e = el[i];
			var func = g_to_func(e);
			var rect = find_child(e, "rect");
			if (func == null || rect == null)
				continue;

			// Save max width. Only works as we have a root frame
			var w = parseFloat(rect.attributes.width.value);
			if (w > maxwidth)
				maxwidth = w;

			if (func.match(re)) {
				// highlight
				var x = parseFloat(rect.attributes.x.value);
				orig_save(rect, "fill");
				rect.attributes.fill.value = "rgb(230,0,230)";

				// remember matches
				if (matches[x] == undefined) {
					matches[x] = w;
				} else {
					if (w > matches[x]) {
						// overwrite with parent
						matches[x] = w;
					}
				}
				searching = 1;
			}
		}
		if (!searching)
			return;

		searchbtn.classList.add("show");
		searchbtn.firstChild.nodeValue = "Reset Search";

		// calculate percent matched, excluding vertical overlap
		var count = 0;
		var lastx = -1;
		var lastw = 0;
		var keys = Array();
		for (k in matches) {
			if (matches.hasOwnProperty(k))
				keys.push(k);
		}
		// sort the matched frames by their x location
		// ascending, then width descending
		keys.sort(function(a, b){
			return a - b;
		});
		// Step through frames saving only the biggest bottom-up frames
		// thanks to the sort order. This relies on the tree property
		// where children are always smaller than their parents.
		var fudge = 0.0001;	// JavaScript floating point
		for (var k in keys) {
			var x = parseFloat(keys[k]);
			var w = matches[keys[k]];
			if (x >= lastx + lastw - fudge) {
				count += w;
				lastx = x;
				lastw = w;
			}
		}
		// display matched percent
		matchedtxt.classList.remove("hide");
		var pct = 100 * count / maxwidth;
		if (pct != 100) pct = pct.toFixed(1)
		matchedtxt.firstChild.nodeValue = "Matched: " + pct + "%";
	}
]]>
</script>
<rect x="0" y="0" width="100%" height="100%" fill="rgb(240,240,220)"/>
<text id="title" x="600" y="24">Flame Graph</text>
<text id="details" x="10" y="421"> </text>
<text id="unzoom" x="10" y="24" class="hide">Reset Zoom</text>
<text id="search" x="1090" y="24">Search</text>
<text id="matched" x="1090" y="421"> </text>
<g id="frames">
<g>
<title>all (32 samples, 100.00%)</title><rect x="10.0" y="387.0" width="1180.0" height="15" fill="#ef6d6d" rx="2" ry="2"/>
<text x="13.0" y="398.0">all</text>
</g>
<g>
<title>one/nio/server/SelectorThread.run (32 samples, 100.00%)</title><rect x="10.0" y="371.0" width="1180.0" height="15" fill="#55e655" rx="2" ry="2"/>
<text x="13.0" y="382.0">one/nio/server/SelectorThread.run</text>
</g>
<g>
<title>one/nio/net/JavaSelector.select (2 samples, 6.25%)</title><rect x="10.0" y="355.0" width="73.8" height="15" fill="#5eef5e" rx="2" ry="2"/>
<text x="13.0" y="366.0">one/nio/..</text>
</g>
<g>
<title>one/nio/net/JavaSelector.iteratorFor (2 samples, 6.25%)</title><rect x="10.0" y="339.0" width="73.8" height="15" fill="#68f968" rx="2" ry="2"/>
<text x="13.0" y="350.0">one/nio/..</text>
</g>
<g>
<title>one.nio.net.JavaSelector$1 (1 samples, 3.12%)</title><rect x="10.0" y="323.0" width="36.9" height="15" fill="#65d3d3" rx="2" ry="2"/>
<text x="13.0" y="334.0">one..</text>
</g>
<g>
<title>one.nio.net.Session[] (1 samples, 3.12%)</title><rect x="46.9" y="323.0" width="36.9" height="15" fill="#63d1d1" rx="2" ry="2"/>
<text x="49.9" y="334.0">one..</text>
</g>
<g>
<title>one/nio/net/Session.process (30 samples, 93.75%)</title><rect x="83.8" y="355.0" width="1106.2" height="15" fill="#60f160" rx="2" ry="2"/>
<text x="86.8" y="366.0">one/nio/net/Session.process</text>
</g>
<g>
<title>one/nio/http/HttpSession.processRead (30 samples, 93.75%)</title><rect x="83.8" y="339.0" width="1106.2" height="15" fill="#57e857" rx="2" ry="2"/>
<text x="86.8" y="350.0">one/nio/http/HttpSession.processRead</text>
</g>
<g>
<title>one/nio/http/HttpSession.processHttpBuffer (30 samples, 93.75%)</title><rect x="83.8" y="323.0" width="1106.2" height="15" fill="#59ea59" rx="2" ry="2"/>
<text x="86.8" y="334.0">one/nio/http/HttpSession.processHttpBuffer</text>
</g>
<g>
<title>one/nio/http/HttpSession.handleParsedRequest (24 samples, 75.00%)</title><rect x="83.8" y="307.0" width="885.0" height="15" fill="#5bec5b" rx="2" ry="2"/>
<text x="86.8" y="318.0">one/nio/http/HttpSession.handleParsedRequest</text>
</g>
<g>
<title>one/nio/http/HttpServer.handleRequest (24 samples, 75.00%)</title><rect x="83.8" y="291.0" width="885.0" height="15" fill="#55e655" rx="2" ry="2"/>
<text x="86.8" y="302.0">one/nio/http/HttpServer.handleRequest</text>
</g>
<g>
<title>RequestHandler1_entity.handleRequest (24 samples, 75.00%)</title><rect x="83.8" y="275.0" width="885.0" height="15" fill="#64f564" rx="2" ry="2"/>
<text x="86.8" y="286.0">RequestHandler1_entity.handleRequest</text>
</g>
<g>
<title>one/nio/http/HttpSession.sendResponse (4 samples, 12.50%)</title><rect x="83.8" y="259.0" width="147.5" height="15" fill="#6cfd6c" rx="2" ry="2"/>
<text x="86.8" y="270.0">one/nio/http/HttpSe..</text>
</g>
<g>
<title>one/nio/http/HttpSession.writeResponse (4 samples, 12.50%)</title><rect x="83.8" y="243.0" width="147.5" height="15" fill="#5eef5e" rx="2" ry="2"/>
<text x="86.8" y="254.0">one/nio/http/HttpSe..</text>
</g>
<g>
<title>one/nio/http/Response.toBytes (4 samples, 12.50%)</title><rect x="83.8" y="227.0" width="147.5" height="15" fill="#57e857" rx="2" ry="2"/>
<text x="86.8" y="238.0">one/nio/http/Respon..</text>
</g>
<g>
<title>one/nio/util/ByteArrayBuilder.&lt;init&gt; (4 samples, 12.50%)</title><rect x="83.8" y="211.0" width="147.5" height="15" fill="#69fa69" rx="2" ry="2"/>
<text x="86.8" y="222.0">one/nio/util/ByteAr..</text>
</g>
<g>
<title>byte[] (4 samples, 12.50%)</title><rect x="83.8" y="195.0" width="147.5" height="15" fill="#6ddbdb" rx="2" ry="2"/>
<text x="86.8" y="206.0">byte[]</text>
</g>
<g>
<title>one/nio/http/Request.getRequiredParameter (1 samples, 3.12%)</title><rect x="231.2" y="259.0" width="36.8" height="15" fill="#51e251" rx="2" ry="2"/>
<text x="234.2" y="270.0">one..</text>
</g>
<g>
<title>one/nio/http/Request.getParameter (1 samples, 3.12%)</title><rect x="231.2" y="243.0" width="36.8" height="15" fill="#62f362" rx="2" ry="2"/>
<text x="234.2" y="254.0">one..</text>
</g>
<g>
<title>java/lang/String.substring (1 samples, 3.12%)</title><rect x="231.2" y="227.0" width="36.8" height="15" fill="#5ff05f" rx="2" ry="2"/>
<text x="234.2" y="238.0">jav..</text>
</g>
<g>
<title>java/lang/StringLatin1.newString (1 samples, 3.12%)</title><rect x="231.2" y="211.0" width="36.8" height="15" fill="#62f362" rx="2" ry="2"/>
<text x="234.2" y="222.0">jav..</text>
</g>
<g>
<title>java/util/Arrays.copyOfRange (1 samples, 3.12%)</title><rect x="231.2" y="195.0" width="36.8" height="15" fill="#53e453" rx="2" ry="2"/>
<text x="234.2" y="206.0">jav..</text>
</g>
<g>
<title>byte[] (1 samples, 3.12%)</title><rect x="231.2" y="179.0" width="36.8" height="15" fill="#59c7c7" rx="2" ry="2"/>
<text x="234.2" y="190.0">byt..</text>
</g>
<g>
<title>ru/mail/polis/service/kuzoliza/MyService.entity (19 samples, 59.38%)</title><rect x="268.1" y="259.0" width="700.7" height="15" fill="#5bec5b" rx="2" ry="2"/>
<text x="271.1" y="270.0">ru/mail/polis/service/kuzoliza/MyService.entity</text>
</g>
<g>
<title>java/lang/String.getBytes (1 samples, 3.12%)</title><rect x="268.1" y="243.0" width="36.9" height="15" fill="#5bec5b" rx="2" ry="2"/>
<text x="271.1" y="254.0">jav..</text>
</g>
<g>
<title>java/lang/StringCoding.encode (1 samples, 3.12%)</title><rect x="268.1" y="227.0" width="36.9" height="15" fill="#5aeb5a" rx="2" ry="2"/>
<text x="271.1" y="238.0">jav..</text>
</g>
<g>
<title>java/lang/StringCoding.encodeUTF8 (1 samples, 3.12%)</title><rect x="268.1" y="211.0" width="36.9" height="15" fill="#64f564" rx="2" ry="2"/>
<text x="271.1" y="222.0">jav..</text>
</g>
<g>
<title>java/util/Arrays.copyOf (1 samples, 3.12%)</title><rect x="268.1" y="195.0" width="36.9" height="15" fill="#61f261" rx="2" ry="2"/>
<text x="271.1" y="206.0">jav..</text>
</g>
<g>
<title>byte[] (1 samples, 3.12%)</title><rect x="268.1" y="179.0" width="36.9" height="15" fill="#62d0d0" rx="2" ry="2"/>
<text x="271.1" y="190.0">byt..</text>
</g>
<g>
<title>java/nio/ByteBuffer.wrap (1 samples, 3.12%)</title><rect x="305.0" y="243.0" width="36.9" height="15" fill="#68f968" rx="2" ry="2"/>
<text x="308.0" y="254.0">jav..</text>
</g>
<g>
<title>java/nio/ByteBuffer.wrap (1 samples, 3.12%)</title><rect x="305.0" y="227.0" width="36.9" height="15" fill="#53e453" rx="2" ry="2"/>
<text x="308.0" y="238.0">jav..</text>
</g>
<g>
<title>java.nio.HeapByteBuffer (1 samples, 3.12%)</title><rect x="305.0" y="211.0" width="36.9" height="15" fill="#67d5d5" rx="2" ry="2"/>
<text x="308.0" y="222.0">jav..</text>
</g>
<g>
<title>ru/mail/polis/service/kuzoliza/MyService.response (17 samples, 53.12%)</title><rect x="341.9" y="243.0" width="626.9" height="15" fill="#5ff05f" rx="2" ry="2"/>
<text x="344.9" y="254.0">ru/mail/polis/service/kuzoliza/MyService.response</text>
</g>
<g>
<title>one/nio/http/Response.ok (2 samples, 6.25%)</title><rect x="341.9" y="227.0" width="73.7" height="15" fill="#6cfd6c" rx="2" ry="2"/>
<text x="344.9" y="238.0">one/nio/..</text>
</g>
<g>
<title>one.nio.http.Response (1 samples, 3.12%)</title><rect x="341.9" y="211.0" width="36.9" height="15" fill="#5ccaca" rx="2" ry="2"/>
<text x="344.9" y="222.0">one..</text>
</g>
<g>
<title>one/nio/http/Response.&lt;init&gt; (1 samples, 3.12%)</title><rect x="378.8" y="211.0" width="36.8" height="15" fill="#56e756" rx="2" ry="2"/>
<text x="381.8" y="222.0">one..</text>
</g>
<g>
<title>byte[] (1 samples, 3.12%)</title><rect x="378.8" y="195.0" width="36.8" height="15" fill="#6ad8d8" rx="2" ry="2"/>
<text x="381.8" y="206.0">byt..</text>
</g>
<g>
<title>ru/mail/polis/dao/DAO.get (15 samples, 46.88%)</title><rect x="415.6" y="227.0" width="553.2" height="15" fill="#68f968" rx="2" ry="2"/>
<text x="418.6" y="238.0">ru/mail/polis/dao/DAO.get</text>
</g>
<g>
<title>com/google/common/collect/TransformedIterator.hasNext (2 samples, 6.25%)</title><rect x="415.6" y="211.0" width="73.8" height="15" fill="#57e857" rx="2" ry="2"/>
<text x="418.6" y="222.0">com/goog..</text>
</g>
<g>
<title>com/google/common/collect/AbstractIterator.hasNext (2 samples, 6.25%)</title><rect x="415.6" y="195.0" width="73.8" height="15" fill="#5ff05f" rx="2" ry="2"/>
<text x="418.6" y="206.0">com/goog..</text>
</g>
<g>
<title>com/google/common/collect/AbstractIterator.tryToComputeNext (2 samples, 6.25%)</title><rect x="415.6" y="179.0" width="73.8" height="15" fill="#67f867" rx="2" ry="2"/>
<text x="418.6" y="190.0">com/goog..</text>
</g>
<g>
<title>com/google/common/collect/Iterators$5.computeNext (2 samples, 6.25%)</title><rect x="415.6" y="163.0" width="73.8" height="15" fill="#5eef5e" rx="2" ry="2"/>
<text x="418.6" y="174.0">com/goog..</text>
</g>
<g>
<title>ru/mail/polis/dao/Iters$CollapseEqualsIterator.next (2 samples, 6.25%)</title><rect x="415.6" y="147.0" width="73.8" height="15" fill="#66f766" rx="2" ry="2"/>
<text x="418.6" y="158.0">ru/mail/..</text>
</g>
<g>
<title>com/google/common/collect/Iterators$MergingIterator.next (2 samples, 6.25%)</title><rect x="415.6" y="131.0" width="73.8" height="15" fill="#59ea59" rx="2" ry="2"/>
<text x="418.6" y="142.0">com/goog..</text>
</g>
<g>
<title>com/google/common/collect/Iterators$PeekingImpl.next (2 samples, 6.25%)</title><rect x="415.6" y="115.0" width="73.8" height="15" fill="#59ea59" rx="2" ry="2"/>
<text x="418.6" y="126.0">com/goog..</text>
</g>
<g>
<title>com/google/common/collect/TransformedIterator.next (2 samples, 6.25%)</title><rect x="415.6" y="99.0" width="73.8" height="15" fill="#57e857" rx="2" ry="2"/>
<text x="418.6" y="110.0">com/goog..</text>
</g>
<g>
<title>com/google/common/collect/Iterators$6.transform (2 samples, 6.25%)</title><rect x="415.6" y="83.0" width="73.8" height="15" fill="#51e251" rx="2" ry="2"/>
<text x="418.6" y="94.0">com/goog..</text>
</g>
<g>
<title>ru/mail/polis/dao/kuzoliza/MemTable$$Lambda$64/731216725.apply (2 samples, 6.25%)</title><rect x="415.6" y="67.0" width="73.8" height="15" fill="#50e150" rx="2" ry="2"/>
<text x="418.6" y="78.0">ru/mail/..</text>
</g>
<g>
<title>ru/mail/polis/dao/kuzoliza/MemTable.lambda$iterator$0 (2 samples, 6.25%)</title><rect x="415.6" y="51.0" width="73.8" height="15" fill="#51e251" rx="2" ry="2"/>
<text x="418.6" y="62.0">ru/mail/..</text>
</g>
<g>
<title>ru.mail.polis.dao.kuzoliza.Cell (2 samples, 6.25%)</title><rect x="415.6" y="35.0" width="73.8" height="15" fill="#64d2d2" rx="2" ry="2"/>
<text x="418.6" y="46.0">ru.mail...</text>
</g>
<g>
<title>ru/mail/polis/Record.getValue (2 samples, 6.25%)</title><rect x="489.4" y="211.0" width="73.7" height="15" fill="#57e857" rx="2" ry="2"/>
<text x="492.4" y="222.0">ru/mail/..</text>
</g>
<g>
<title>java/nio/HeapByteBuffer.asReadOnlyBuffer (2 samples, 6.25%)</title><rect x="489.4" y="195.0" width="73.7" height="15" fill="#69fa69" rx="2" ry="2"/>
<text x="492.4" y="206.0">java/nio..</text>
</g>
<g>
<title>java.nio.HeapByteBufferR (2 samples, 6.25%)</title><rect x="489.4" y="179.0" width="73.7" height="15" fill="#55c3c3" rx="2" ry="2"/>
<text x="492.4" y="190.0">java.nio..</text>
</g>
<g>
<title>ru/mail/polis/dao/kuzoliza/LSM.iterator (11 samples, 34.38%)</title><rect x="563.1" y="211.0" width="405.7" height="15" fill="#60f160" rx="2" ry="2"/>
<text x="566.1" y="222.0">ru/mail/polis/dao/kuzoliza/LSM.iterator</text>
</g>
<g>
<title>ru/mail/polis/dao/kuzoliza/LSM.noTombstones (11 samples, 34.38%)</title><rect x="563.1" y="195.0" width="405.7" height="15" fill="#5bec5b" rx="2" ry="2"/>
<text x="566.1" y="206.0">ru/mail/polis/dao/kuzoliza/LSM.noTombstones</text>
</g>
<g>
<title>com/google/common/collect/Iterators.filter (2 samples, 6.25%)</title><rect x="563.1" y="179.0" width="73.8" height="15" fill="#6bfc6b" rx="2" ry="2"/>
<text x="566.1" y="190.0">com/goog..</text>
</g>
<g>
<title>com.google.common.collect.Iterators$5 (2 samples, 6.25%)</title><rect x="563.1" y="163.0" width="73.8" height="15" fill="#60cece" rx="2" ry="2"/>
<text x="566.1" y="174.0">com.goog..</text>
</g>
<g>
<title>com/google/common/collect/Iterators.mergeSorted (4 samples, 12.50%)</title><rect x="636.9" y="179.0" width="147.5" height="15" fill="#5ff05f" rx="2" ry="2"/>
<text x="639.9" y="190.0">com/google/common/c..</text>
</g>
<g>
<title>com/google/common/collect/Iterators$MergingIterator.&lt;init&gt; (4 samples, 12.50%)</title><rect x="636.9" y="163.0" width="147.5" height="15" fill="#6afb6a" rx="2" ry="2"/>
<text x="639.9" y="174.0">com/google/common/c..</text>
</g>
<g>
<title>com.google.common.collect.Iterators$MergingIterator$1 (1 samples, 3.12%)</title><rect x="636.9" y="147.0" width="36.9" height="15" fill="#58c6c6" rx="2" ry="2"/>
<text x="639.9" y="158.0">com..</text>
</g>
<g>
<title>java.util.PriorityQueue (1 samples, 3.12%)</title><rect x="673.8" y="147.0" width="36.8" height="15" fill="#6ddbdb" rx="2" ry="2"/>
<text x="676.8" y="158.0">jav..</text>
</g>
<g>
<title>java/util/ArrayList.iterator (1 samples, 3.12%)</title><rect x="710.6" y="147.0" width="36.9" height="15" fill="#68f968" rx="2" ry="2"/>
<text x="713.6" y="158.0">jav..</text>
</g>
<g>
<title>java.util.ArrayList$Itr (1 samples, 3.12%)</title><rect x="710.6" y="131.0" width="36.9" height="15" fill="#55c3c3" rx="2" ry="2"/>
<text x="713.6" y="142.0">jav..</text>
</g>
<g>
<title>java/util/PriorityQueue.&lt;init&gt; (1 samples, 3.12%)</title><rect x="747.5" y="147.0" width="36.9" height="15" fill="#5eef5e" rx="2" ry="2"/>
<text x="750.5" y="158.0">jav..</text>
</g>
<g>
<title>java.lang.Object[] (1 samples, 3.12%)</title><rect x="747.5" y="131.0" width="36.9" height="15" fill="#57c5c5" rx="2" ry="2"/>
<text x="750.5" y="142.0">jav..</text>
</g>
<g>
<title>java/lang/Iterable.forEach (1 samples, 3.12%)</title><rect x="784.4" y="179.0" width="36.9" height="15" fill="#60f160" rx="2" ry="2"/>
<text x="787.4" y="190.0">jav..</text>
</g>
<g>
<title>java/util/AbstractMap$2.iterator (1 samples, 3.12%)</title><rect x="784.4" y="163.0" width="36.9" height="15" fill="#55e655" rx="2" ry="2"/>
<text x="787.4" y="174.0">jav..</text>
</g>
<g>
<title>java.util.AbstractMap$2$1 (1 samples, 3.12%)</title><rect x="784.4" y="147.0" width="36.9" height="15" fill="#5ac8c8" rx="2" ry="2"/>
<text x="787.4" y="158.0">jav..</text>
</g>
<g>
<title>ru/mail/polis/dao/kuzoliza/MemTable.iterator (4 samples, 12.50%)</title><rect x="821.2" y="179.0" width="147.5" height="15" fill="#67f867" rx="2" ry="2"/>
<text x="824.2" y="190.0">ru/mail/polis/dao/k..</text>
</g>
<g>
<title>java/util/TreeMap$AscendingSubMap$AscendingEntrySetView.iterator (1 samples, 3.12%)</title><rect x="821.2" y="163.0" width="36.8" height="15" fill="#56e756" rx="2" ry="2"/>
<text x="824.2" y="174.0">jav..</text>
</g>
<g>
<title>java.util.TreeMap$NavigableSubMap$SubMapEntryIterator (1 samples, 3.12%)</title><rect x="821.2" y="147.0" width="36.8" height="15" fill="#5bc9c9" rx="2" ry="2"/>
<text x="824.2" y="158.0">jav..</text>
</g>
<g>
<title>java/util/TreeMap.tailMap (3 samples, 9.38%)</title><rect x="858.1" y="163.0" width="110.7" height="15" fill="#69fa69" rx="2" ry="2"/>
<text x="861.1" y="174.0">java/util/Tre..</text>
</g>
<g>
<title>java/util/TreeMap.tailMap (3 samples, 9.38%)</title><rect x="858.1" y="147.0" width="110.7" height="15" fill="#5ced5c" rx="2" ry="2"/>
<text x="861.1" y="158.0">java/util/Tre..</text>
</g>
<g>
<title>java.util.TreeMap$AscendingSubMap (3 samples, 9.38%)</title><rect x="858.1" y="131.0" width="110.7" height="15" fill="#57c5c5" rx="2" ry="2"/>
<text x="861.1" y="142.0">java.util.Tre..</text>
</g>
<g>
<title>one/nio/http/HttpSession.parseRequest (3 samples, 9.38%)</title><rect x="968.8" y="307.0" width="110.6" height="15" fill="#6cfd6c" rx="2" ry="2"/>
<text x="971.8" y="318.0">one/nio/http/..</text>
</g>
<g>
<title>one.nio.http.Request (2 samples, 6.25%)</title><rect x="968.8" y="291.0" width="73.7" height="15" fill="#68d6d6" rx="2" ry="2"/>
<text x="971.8" y="302.0">one.nio...</text>
</g>
<g>
<title>one/nio/util/Utf8.read (1 samples, 3.12%)</title><rect x="1042.5" y="291.0" width="36.9" height="15" fill="#59ea59" rx="2" ry="2"/>
<text x="1045.5" y="302.0">one..</text>
</g>
<g>
<title>one/nio/util/Utf8.read (1 samples, 3.12%)</title><rect x="1042.5" y="275.0" width="36.9" height="15" fill="#52e352" rx="2" ry="2"/>
<text x="1045.5" y="286.0">one..</text>
</g>
<g>
<title>char[] (1 samples, 3.12%)</title><rect x="1042.5" y="259.0" width="36.9" height="15" fill="#56c4c4" rx="2" ry="2"/>
<text x="1045.5" y="270.0">cha..</text>
</g>
<g>
<title>one/nio/util/Utf8.read (3 samples, 9.38%)</title><rect x="1079.4" y="307.0" width="110.6" height="15" fill="#5ff05f" rx="2" ry="2"/>
<text x="1082.4" y="318.0">one/nio/util/..</text>
</g>
<g>
<title>one/nio/util/Utf8.read (3 samples, 9.38%)</title><rect x="1079.4" y="291.0" width="110.6" height="15" fill="#54e554" rx="2" ry="2"/>
<text x="1082.4" y="302.0">one/nio/util/..</text>
</g>
<g>
<title>char[] (1 samples, 3.12%)</title><rect x="1079.4" y="275.0" width="36.9" height="15" fill="#6ad8d8" rx="2" ry="2"/>
<text x="1082.4" y="286.0">cha..</text>
</g>
<g>
<title>java/lang/String.&lt;init&gt; (2 samples, 6.25%)</title><rect x="1116.2" y="275.0" width="73.7" height="15" fill="#61f261" rx="2" ry="2"/>
<text x="1119.2" y="286.0">java/lan..</text>
</g>
<g>
<title>java/lang/String.&lt;init&gt; (2 samples, 6.25%)</title><rect x="1116.2" y="259.0" width="73.7" height="15" fill="#61f261" rx="2" ry="2"/>
<text x="1119.2" y="270.0">java/lan..</text>
</g>
<g>
<title>java/lang/StringUTF16.compress (2 samples, 6.25%)</title><rect x="1116.2" y="243.0" width="73.7" height="15" fill="#5ced5c" rx="2" ry="2"/>
<text x="1119.2" y="254.0">java/lan..</text>
</g>
<g>
<title>byte[] (2 samples, 6.25%)</title><rect x="1116.2" y="227.0" width="73.7" height="15" fill="#6ddbdb" rx="2" ry="2"/>
<text x="1119.2" y="238.0">byte[]</text>
</g>
</g>
</svg>
