<?xml version="1.0" standalone="no"?>
<!DOCTYPE svg PUBLIC "-//W3C//DTD SVG 1.1//EN" "http://www.w3.org/Graphics/SVG/1.1/DTD/svg11.dtd">
<svg version="1.1" width="1200" height="502" onload="init(evt)" viewBox="0 0 1200 502" xmlns="http://www.w3.org/2000/svg" xmlns:xlink="http://www.w3.org/1999/xlink">
<style type="text/css">
	text { font-family:Verdana; font-size:12px; fill:rgb(0,0,0); }
	#search { opacity:0.1; cursor:pointer; }
	#search:hover, #search.show { opacity:1; }
	#subtitle { text-anchor:middle; font-color:rgb(160,160,160); }
	#title { text-anchor:middle; font-size:17px}
	#unzoom { cursor:pointer; }
	#frames > *:hover { stroke:black; stroke-width:0.5; cursor:pointer; }
	.hide { display:none; }
	.parent { opacity:0.5; }
</style>
<script type="text/ecmascript">
<![CDATA[
	"use strict";
	var details, searchbtn, unzoombtn, matchedtxt, svg, searching;
	function init(evt) {
		details = document.getElementById("details").firstChild;
		searchbtn = document.getElementById("search");
		unzoombtn = document.getElementById("unzoom");
		matchedtxt = document.getElementById("matched");
		svg = document.getElementsByTagName("svg")[0];
		searching = 0;
	}

	window.addEventListener("click", function(e) {
		var target = find_group(e.target);
		if (target) {
			if (target.nodeName == "a") {
				if (e.ctrlKey === false) return;
				e.preventDefault();
			}
			if (target.classList.contains("parent")) unzoom();
			zoom(target);
		}
		else if (e.target.id == "unzoom") unzoom();
		else if (e.target.id == "search") search_prompt();
	}, false)

	// mouse-over for info
	// show
	window.addEventListener("mouseover", function(e) {
		var target = find_group(e.target);
		if (target) details.nodeValue = "Function: " + g_to_text(target);
	}, false)

	// clear
	window.addEventListener("mouseout", function(e) {
		var target = find_group(e.target);
		if (target) details.nodeValue = ' ';
	}, false)

	// ctrl-F for search
	window.addEventListener("keydown",function (e) {
		if (e.keyCode === 114 || (e.ctrlKey && e.keyCode === 70)) {
			e.preventDefault();
			search_prompt();
		}
	}, false)

	// functions
	function find_child(node, selector) {
		var children = node.querySelectorAll(selector);
		if (children.length) return children[0];
		return;
	}
	function find_group(node) {
		var parent = node.parentElement;
		if (!parent) return;
		if (parent.id == "frames") return node;
		return find_group(parent);
	}
	function orig_save(e, attr, val) {
		if (e.attributes["_orig_" + attr] != undefined) return;
		if (e.attributes[attr] == undefined) return;
		if (val == undefined) val = e.attributes[attr].value;
		e.setAttribute("_orig_" + attr, val);
	}
	function orig_load(e, attr) {
		if (e.attributes["_orig_"+attr] == undefined) return;
		e.attributes[attr].value = e.attributes["_orig_" + attr].value;
		e.removeAttribute("_orig_"+attr);
	}
	function g_to_text(e) {
		var text = find_child(e, "title").firstChild.nodeValue;
		return (text)
	}
	function g_to_func(e) {
		var func = g_to_text(e);
		// if there's any manipulation we want to do to the function
		// name before it's searched, do it here before returning.
		return (func);
	}
	function update_text(e) {
		var r = find_child(e, "rect");
		var t = find_child(e, "text");
		var w = parseFloat(r.attributes.width.value) -3;
		var txt = find_child(e, "title").textContent.replace(/\([^(]*\)$/,"");
		t.attributes.x.value = parseFloat(r.attributes.x.value) + 3;

		// Smaller than this size won't fit anything
		if (w < 2 * 12 * 0.59) {
			t.textContent = "";
			return;
		}

		t.textContent = txt;
		// Fit in full text width
		if (/^ *$/.test(txt) || t.getSubStringLength(0, txt.length) < w)
			return;

		for (var x = txt.length - 2; x > 0; x--) {
			if (t.getSubStringLength(0, x + 2) <= w) {
				t.textContent = txt.substring(0, x) + "..";
				return;
			}
		}
		t.textContent = "";
	}

	// zoom
	function zoom_reset(e) {
		if (e.attributes != undefined) {
			orig_load(e, "x");
			orig_load(e, "width");
		}
		if (e.childNodes == undefined) return;
		for (var i = 0, c = e.childNodes; i < c.length; i++) {
			zoom_reset(c[i]);
		}
	}
	function zoom_child(e, x, ratio) {
		if (e.attributes != undefined) {
			if (e.attributes.x != undefined) {
				orig_save(e, "x");
				e.attributes.x.value = (parseFloat(e.attributes.x.value) - x - 10) * ratio + 10;
				if (e.tagName == "text")
					e.attributes.x.value = find_child(e.parentNode, "rect[x]").attributes.x.value + 3;
			}
			if (e.attributes.width != undefined) {
				orig_save(e, "width");
				e.attributes.width.value = parseFloat(e.attributes.width.value) * ratio;
			}
		}

		if (e.childNodes == undefined) return;
		for (var i = 0, c = e.childNodes; i < c.length; i++) {
			zoom_child(c[i], x - 10, ratio);
		}
	}
	function zoom_parent(e) {
		if (e.attributes) {
			if (e.attributes.x != undefined) {
				orig_save(e, "x");
				e.attributes.x.value = 10;
			}
			if (e.attributes.width != undefined) {
				orig_save(e, "width");
				e.attributes.width.value = parseInt(svg.width.baseVal.value) - (10 * 2);
			}
		}
		if (e.childNodes == undefined) return;
		for (var i = 0, c = e.childNodes; i < c.length; i++) {
			zoom_parent(c[i]);
		}
	}
	function zoom(node) {
		var attr = find_child(node, "rect").attributes;
		var width = parseFloat(attr.width.value);
		var xmin = parseFloat(attr.x.value);
		var xmax = parseFloat(xmin + width);
		var ymin = parseFloat(attr.y.value);
		var ratio = (svg.width.baseVal.value - 2 * 10) / width;

		// XXX: Workaround for JavaScript float issues (fix me)
		var fudge = 0.0001;

		unzoombtn.classList.remove("hide");

		var el = document.getElementById("frames").children;
		for (var i = 0; i < el.length; i++) {
			var e = el[i];
			var a = find_child(e, "rect").attributes;
			var ex = parseFloat(a.x.value);
			var ew = parseFloat(a.width.value);
			var upstack;
			// Is it an ancestor
			if (0 == 0) {
				upstack = parseFloat(a.y.value) > ymin;
			} else {
				upstack = parseFloat(a.y.value) < ymin;
			}
			if (upstack) {
				// Direct ancestor
				if (ex <= xmin && (ex+ew+fudge) >= xmax) {
					e.classList.add("parent");
					zoom_parent(e);
					update_text(e);
				}
				// not in current path
				else
					e.classList.add("hide");
			}
			// Children maybe
			else {
				// no common path
				if (ex < xmin || ex + fudge >= xmax) {
					e.classList.add("hide");
				}
				else {
					zoom_child(e, xmin, ratio);
					update_text(e);
				}
			}
		}
	}
	function unzoom() {
		unzoombtn.classList.add("hide");
		var el = document.getElementById("frames").children;
		for(var i = 0; i < el.length; i++) {
			el[i].classList.remove("parent");
			el[i].classList.remove("hide");
			zoom_reset(el[i]);
			update_text(el[i]);
		}
	}

	// search
	function reset_search() {
		var el = document.querySelectorAll("#frames rect");
		for (var i = 0; i < el.length; i++) {
			orig_load(el[i], "fill")
		}
	}
	function search_prompt() {
		if (!searching) {
			var term = prompt("Enter a search term (regexp " +
			    "allowed, eg: ^ext4_)", "");
			if (term != null) {
				search(term)
			}
		} else {
			reset_search();
			searching = 0;
			searchbtn.classList.remove("show");
			searchbtn.firstChild.nodeValue = "Search"
			matchedtxt.classList.add("hide");
			matchedtxt.firstChild.nodeValue = ""
		}
	}
	function search(term) {
		var re = new RegExp(term);
		var el = document.getElementById("frames").children;
		var matches = new Object();
		var maxwidth = 0;
		for (var i = 0; i < el.length; i++) {
			var e = el[i];
			var func = g_to_func(e);
			var rect = find_child(e, "rect");
			if (func == null || rect == null)
				continue;

			// Save max width. Only works as we have a root frame
			var w = parseFloat(rect.attributes.width.value);
			if (w > maxwidth)
				maxwidth = w;

			if (func.match(re)) {
				// highlight
				var x = parseFloat(rect.attributes.x.value);
				orig_save(rect, "fill");
				rect.attributes.fill.value = "rgb(230,0,230)";

				// remember matches
				if (matches[x] == undefined) {
					matches[x] = w;
				} else {
					if (w > matches[x]) {
						// overwrite with parent
						matches[x] = w;
					}
				}
				searching = 1;
			}
		}
		if (!searching)
			return;

		searchbtn.classList.add("show");
		searchbtn.firstChild.nodeValue = "Reset Search";

		// calculate percent matched, excluding vertical overlap
		var count = 0;
		var lastx = -1;
		var lastw = 0;
		var keys = Array();
		for (k in matches) {
			if (matches.hasOwnProperty(k))
				keys.push(k);
		}
		// sort the matched frames by their x location
		// ascending, then width descending
		keys.sort(function(a, b){
			return a - b;
		});
		// Step through frames saving only the biggest bottom-up frames
		// thanks to the sort order. This relies on the tree property
		// where children are always smaller than their parents.
		var fudge = 0.0001;	// JavaScript floating point
		for (var k in keys) {
			var x = parseFloat(keys[k]);
			var w = matches[keys[k]];
			if (x >= lastx + lastw - fudge) {
				count += w;
				lastx = x;
				lastw = w;
			}
		}
		// display matched percent
		matchedtxt.classList.remove("hide");
		var pct = 100 * count / maxwidth;
		if (pct != 100) pct = pct.toFixed(1)
		matchedtxt.firstChild.nodeValue = "Matched: " + pct + "%";
	}
]]>
</script>
<rect x="0" y="0" width="100%" height="100%" fill="rgb(240,240,220)"/>
<text id="title" x="600" y="24">Flame Graph</text>
<text id="details" x="10" y="485"> </text>
<text id="unzoom" x="10" y="24" class="hide">Reset Zoom</text>
<text id="search" x="1090" y="24">Search</text>
<text id="matched" x="1090" y="485"> </text>
<g id="frames">
<g>
<title>all (156 samples, 100.00%)</title><rect x="10.0" y="451.0" width="1180.0" height="15" fill="#f57575" rx="2" ry="2"/>
<text x="13.0" y="462.0">all</text>
</g>
<g>
<title>one/nio/server/SelectorThread.run (156 samples, 100.00%)</title><rect x="10.0" y="435.0" width="1180.0" height="15" fill="#57e857" rx="2" ry="2"/>
<text x="13.0" y="446.0">one/nio/server/SelectorThread.run</text>
</g>
<g>
<title>one/nio/net/JavaSelector.select (11 samples, 7.05%)</title><rect x="10.0" y="419.0" width="83.2" height="15" fill="#5eef5e" rx="2" ry="2"/>
<text x="13.0" y="430.0">one/nio/n..</text>
</g>
<g>
<title>one/nio/net/JavaSelector.iteratorFor (6 samples, 3.85%)</title><rect x="10.0" y="403.0" width="45.4" height="15" fill="#62f362" rx="2" ry="2"/>
<text x="13.0" y="414.0">one/..</text>
</g>
<g>
<title>one.nio.net.JavaSelector$1 (5 samples, 3.21%)</title><rect x="10.0" y="387.0" width="37.8" height="15" fill="#6ad8d8" rx="2" ry="2"/>
<text x="13.0" y="398.0">one..</text>
</g>
<g>
<title>one.nio.net.Session[] (1 samples, 0.64%)</title><rect x="47.8" y="387.0" width="7.6" height="15" fill="#63d1d1" rx="2" ry="2"/>
<text x="50.8" y="398.0"></text>
</g>
<g>
<title>sun/nio/ch/SelectorImpl.select (5 samples, 3.21%)</title><rect x="55.4" y="403.0" width="37.8" height="15" fill="#62f362" rx="2" ry="2"/>
<text x="58.4" y="414.0">sun..</text>
</g>
<g>
<title>sun/nio/ch/SelectorImpl.lockAndDoSelect (5 samples, 3.21%)</title><rect x="55.4" y="387.0" width="37.8" height="15" fill="#55e655" rx="2" ry="2"/>
<text x="58.4" y="398.0">sun..</text>
</g>
<g>
<title>sun/nio/ch/KQueueSelectorImpl.doSelect (5 samples, 3.21%)</title><rect x="55.4" y="371.0" width="37.8" height="15" fill="#62f362" rx="2" ry="2"/>
<text x="58.4" y="382.0">sun..</text>
</g>
<g>
<title>sun/nio/ch/KQueueSelectorImpl.processEvents (5 samples, 3.21%)</title><rect x="55.4" y="355.0" width="37.8" height="15" fill="#5eef5e" rx="2" ry="2"/>
<text x="58.4" y="366.0">sun..</text>
</g>
<g>
<title>sun/nio/ch/SelectorImpl.processReadyEvents (5 samples, 3.21%)</title><rect x="55.4" y="339.0" width="37.8" height="15" fill="#5eef5e" rx="2" ry="2"/>
<text x="58.4" y="350.0">sun..</text>
</g>
<g>
<title>java/util/HashSet.add (5 samples, 3.21%)</title><rect x="55.4" y="323.0" width="37.8" height="15" fill="#63f463" rx="2" ry="2"/>
<text x="58.4" y="334.0">jav..</text>
</g>
<g>
<title>java/util/HashMap.put (5 samples, 3.21%)</title><rect x="55.4" y="307.0" width="37.8" height="15" fill="#66f766" rx="2" ry="2"/>
<text x="58.4" y="318.0">jav..</text>
</g>
<g>
<title>java/util/HashMap.putVal (5 samples, 3.21%)</title><rect x="55.4" y="291.0" width="37.8" height="15" fill="#63f463" rx="2" ry="2"/>
<text x="58.4" y="302.0">jav..</text>
</g>
<g>
<title>java/util/HashMap.newNode (5 samples, 3.21%)</title><rect x="55.4" y="275.0" width="37.8" height="15" fill="#54e554" rx="2" ry="2"/>
<text x="58.4" y="286.0">jav..</text>
</g>
<g>
<title>java.util.HashMap$Node (5 samples, 3.21%)</title><rect x="55.4" y="259.0" width="37.8" height="15" fill="#5bc9c9" rx="2" ry="2"/>
<text x="58.4" y="270.0">jav..</text>
</g>
<g>
<title>one/nio/net/Session.process (145 samples, 92.95%)</title><rect x="93.2" y="419.0" width="1096.8" height="15" fill="#5ff05f" rx="2" ry="2"/>
<text x="96.2" y="430.0">one/nio/net/Session.process</text>
</g>
<g>
<title>one/nio/http/HttpSession.processRead (145 samples, 92.95%)</title><rect x="93.2" y="403.0" width="1096.8" height="15" fill="#6bfc6b" rx="2" ry="2"/>
<text x="96.2" y="414.0">one/nio/http/HttpSession.processRead</text>
</g>
<g>
<title>one/nio/http/HttpSession.processHttpBuffer (141 samples, 90.38%)</title><rect x="93.2" y="387.0" width="1066.5" height="15" fill="#68f968" rx="2" ry="2"/>
<text x="96.2" y="398.0">one/nio/http/HttpSession.processHttpBuffer</text>
</g>
<g>
<title>one/nio/http/HttpSession.handleParsedRequest (110 samples, 70.51%)</title><rect x="93.2" y="371.0" width="832.1" height="15" fill="#59ea59" rx="2" ry="2"/>
<text x="96.2" y="382.0">one/nio/http/HttpSession.handleParsedRequest</text>
</g>
<g>
<title>one/nio/http/HttpServer.handleRequest (110 samples, 70.51%)</title><rect x="93.2" y="355.0" width="832.1" height="15" fill="#66f766" rx="2" ry="2"/>
<text x="96.2" y="366.0">one/nio/http/HttpServer.handleRequest</text>
</g>
<g>
<title>RequestHandler1_entity.handleRequest (109 samples, 69.87%)</title><rect x="93.2" y="339.0" width="824.5" height="15" fill="#66f766" rx="2" ry="2"/>
<text x="96.2" y="350.0">RequestHandler1_entity.handleRequest</text>
</g>
<g>
<title>one/nio/http/HttpSession.sendResponse (13 samples, 8.33%)</title><rect x="93.2" y="323.0" width="98.3" height="15" fill="#56e756" rx="2" ry="2"/>
<text x="96.2" y="334.0">one/nio/http..</text>
</g>
<g>
<title>one/nio/http/HttpSession.writeResponse (13 samples, 8.33%)</title><rect x="93.2" y="307.0" width="98.3" height="15" fill="#56e756" rx="2" ry="2"/>
<text x="96.2" y="318.0">one/nio/http..</text>
</g>
<g>
<title>one/nio/http/Response.toBytes (4 samples, 2.56%)</title><rect x="93.2" y="291.0" width="30.3" height="15" fill="#53e453" rx="2" ry="2"/>
<text x="96.2" y="302.0">on..</text>
</g>
<g>
<title>one/nio/util/ByteArrayBuilder.&lt;init&gt; (4 samples, 2.56%)</title><rect x="93.2" y="275.0" width="30.3" height="15" fill="#69fa69" rx="2" ry="2"/>
<text x="96.2" y="286.0">on..</text>
</g>
<g>
<title>byte[] (4 samples, 2.56%)</title><rect x="93.2" y="259.0" width="30.3" height="15" fill="#6ad8d8" rx="2" ry="2"/>
<text x="96.2" y="270.0">by..</text>
</g>
<g>
<title>one/nio/net/Session.write (9 samples, 5.77%)</title><rect x="123.5" y="291.0" width="68.0" height="15" fill="#59ea59" rx="2" ry="2"/>
<text x="126.5" y="302.0">one/nio..</text>
</g>
<g>
<title>one.nio.net.Session$ArrayQueueItem (5 samples, 3.21%)</title><rect x="123.5" y="275.0" width="37.8" height="15" fill="#59c7c7" rx="2" ry="2"/>
<text x="126.5" y="286.0">one..</text>
</g>
<g>
<title>one/nio/net/Session.write (4 samples, 2.56%)</title><rect x="161.3" y="275.0" width="30.2" height="15" fill="#6cfd6c" rx="2" ry="2"/>
<text x="164.3" y="286.0">on..</text>
</g>
<g>
<title>one/nio/net/Session$ArrayQueueItem.write (4 samples, 2.56%)</title><rect x="161.3" y="259.0" width="30.2" height="15" fill="#57e857" rx="2" ry="2"/>
<text x="164.3" y="270.0">on..</text>
</g>
<g>
<title>one/nio/net/JavaSocket.write (4 samples, 2.56%)</title><rect x="161.3" y="243.0" width="30.2" height="15" fill="#5aeb5a" rx="2" ry="2"/>
<text x="164.3" y="254.0">on..</text>
</g>
<g>
<title>java/nio/ByteBuffer.wrap (4 samples, 2.56%)</title><rect x="161.3" y="227.0" width="30.2" height="15" fill="#5aeb5a" rx="2" ry="2"/>
<text x="164.3" y="238.0">ja..</text>
</g>
<g>
<title>java.nio.HeapByteBuffer (4 samples, 2.56%)</title><rect x="161.3" y="211.0" width="30.2" height="15" fill="#6ad8d8" rx="2" ry="2"/>
<text x="164.3" y="222.0">ja..</text>
</g>
<g>
<title>one/nio/http/Request.getRequiredParameter (7 samples, 4.49%)</title><rect x="191.5" y="323.0" width="53.0" height="15" fill="#61f261" rx="2" ry="2"/>
<text x="194.5" y="334.0">one/n..</text>
</g>
<g>
<title>one/nio/http/Request.getParameter (7 samples, 4.49%)</title><rect x="191.5" y="307.0" width="53.0" height="15" fill="#5eef5e" rx="2" ry="2"/>
<text x="194.5" y="318.0">one/n..</text>
</g>
<g>
<title>java/lang/String.substring (7 samples, 4.49%)</title><rect x="191.5" y="291.0" width="53.0" height="15" fill="#54e554" rx="2" ry="2"/>
<text x="194.5" y="302.0">java/..</text>
</g>
<g>
<title>java/lang/StringLatin1.newString (7 samples, 4.49%)</title><rect x="191.5" y="275.0" width="53.0" height="15" fill="#5ced5c" rx="2" ry="2"/>
<text x="194.5" y="286.0">java/..</text>
</g>
<g>
<title>java.lang.String (2 samples, 1.28%)</title><rect x="191.5" y="259.0" width="15.2" height="15" fill="#54c2c2" rx="2" ry="2"/>
<text x="194.5" y="270.0"></text>
</g>
<g>
<title>java/util/Arrays.copyOfRange (5 samples, 3.21%)</title><rect x="206.7" y="259.0" width="37.8" height="15" fill="#59ea59" rx="2" ry="2"/>
<text x="209.7" y="270.0">jav..</text>
</g>
<g>
<title>byte[] (5 samples, 3.21%)</title><rect x="206.7" y="243.0" width="37.8" height="15" fill="#66d4d4" rx="2" ry="2"/>
<text x="209.7" y="254.0">byt..</text>
</g>
<g>
<title>ru/mail/polis/service/kuzoliza/MyService.entity (89 samples, 57.05%)</title><rect x="244.5" y="323.0" width="673.2" height="15" fill="#51e251" rx="2" ry="2"/>
<text x="247.5" y="334.0">ru/mail/polis/service/kuzoliza/MyService.entity</text>
</g>
<g>
<title>java/lang/String.getBytes (3 samples, 1.92%)</title><rect x="244.5" y="307.0" width="22.7" height="15" fill="#68f968" rx="2" ry="2"/>
<text x="247.5" y="318.0">j..</text>
</g>
<g>
<title>java/lang/StringCoding.encode (3 samples, 1.92%)</title><rect x="244.5" y="291.0" width="22.7" height="15" fill="#66f766" rx="2" ry="2"/>
<text x="247.5" y="302.0">j..</text>
</g>
<g>
<title>java/lang/StringCoding.encodeUTF8 (3 samples, 1.92%)</title><rect x="244.5" y="275.0" width="22.7" height="15" fill="#57e857" rx="2" ry="2"/>
<text x="247.5" y="286.0">j..</text>
</g>
<g>
<title>java/util/Arrays.copyOf (3 samples, 1.92%)</title><rect x="244.5" y="259.0" width="22.7" height="15" fill="#63f463" rx="2" ry="2"/>
<text x="247.5" y="270.0">j..</text>
</g>
<g>
<title>byte[] (3 samples, 1.92%)</title><rect x="244.5" y="243.0" width="22.7" height="15" fill="#5fcdcd" rx="2" ry="2"/>
<text x="247.5" y="254.0">b..</text>
</g>
<g>
<title>java/nio/ByteBuffer.wrap (9 samples, 5.77%)</title><rect x="267.2" y="307.0" width="68.1" height="15" fill="#57e857" rx="2" ry="2"/>
<text x="270.2" y="318.0">java/ni..</text>
</g>
<g>
<title>java/nio/ByteBuffer.wrap (9 samples, 5.77%)</title><rect x="267.2" y="291.0" width="68.1" height="15" fill="#68f968" rx="2" ry="2"/>
<text x="270.2" y="302.0">java/ni..</text>
</g>
<g>
<title>java.nio.HeapByteBuffer (9 samples, 5.77%)</title><rect x="267.2" y="275.0" width="68.1" height="15" fill="#54c2c2" rx="2" ry="2"/>
<text x="270.2" y="286.0">java.ni..</text>
</g>
<g>
<title>ru/mail/polis/service/kuzoliza/MyService.response (77 samples, 49.36%)</title><rect x="335.3" y="307.0" width="582.4" height="15" fill="#5ff05f" rx="2" ry="2"/>
<text x="338.3" y="318.0">ru/mail/polis/service/kuzoliza/MyService.response</text>
</g>
<g>
<title>ch/qos/logback/classic/Logger.error (6 samples, 3.85%)</title><rect x="335.3" y="291.0" width="45.3" height="15" fill="#59ea59" rx="2" ry="2"/>
<text x="338.3" y="302.0">ch/q..</text>
</g>
<g>
<title>ch/qos/logback/classic/Logger.filterAndLog_0_Or3Plus (6 samples, 3.85%)</title><rect x="335.3" y="275.0" width="45.3" height="15" fill="#6afb6a" rx="2" ry="2"/>
<text x="338.3" y="286.0">ch/q..</text>
</g>
<g>
<title>ch/qos/logback/classic/Logger.buildLoggingEventAndAppend (6 samples, 3.85%)</title><rect x="335.3" y="259.0" width="45.3" height="15" fill="#68f968" rx="2" ry="2"/>
<text x="338.3" y="270.0">ch/q..</text>
</g>
<g>
<title>ch/qos/logback/classic/Logger.callAppenders (6 samples, 3.85%)</title><rect x="335.3" y="243.0" width="45.3" height="15" fill="#5aeb5a" rx="2" ry="2"/>
<text x="338.3" y="254.0">ch/q..</text>
</g>
<g>
<title>ch/qos/logback/classic/Logger.appendLoopOnAppenders (6 samples, 3.85%)</title><rect x="335.3" y="227.0" width="45.3" height="15" fill="#5dee5d" rx="2" ry="2"/>
<text x="338.3" y="238.0">ch/q..</text>
</g>
<g>
<title>ch/qos/logback/core/spi/AppenderAttachableImpl.appendLoopOnAppenders (6 samples, 3.85%)</title><rect x="335.3" y="211.0" width="45.3" height="15" fill="#6afb6a" rx="2" ry="2"/>
<text x="338.3" y="222.0">ch/q..</text>
</g>
<g>
<title>ch/qos/logback/core/UnsynchronizedAppenderBase.doAppend (6 samples, 3.85%)</title><rect x="335.3" y="195.0" width="45.3" height="15" fill="#6dfe6d" rx="2" ry="2"/>
<text x="338.3" y="206.0">ch/q..</text>
</g>
<g>
<title>ch/qos/logback/core/OutputStreamAppender.append (6 samples, 3.85%)</title><rect x="335.3" y="179.0" width="45.3" height="15" fill="#62f362" rx="2" ry="2"/>
<text x="338.3" y="190.0">ch/q..</text>
</g>
<g>
<title>ch/qos/logback/core/OutputStreamAppender.subAppend (6 samples, 3.85%)</title><rect x="335.3" y="163.0" width="45.3" height="15" fill="#6bfc6b" rx="2" ry="2"/>
<text x="338.3" y="174.0">ch/q..</text>
</g>
<g>
<title>ch/qos/logback/core/encoder/LayoutWrappingEncoder.encode (6 samples, 3.85%)</title><rect x="335.3" y="147.0" width="45.3" height="15" fill="#5bec5b" rx="2" ry="2"/>
<text x="338.3" y="158.0">ch/q..</text>
</g>
<g>
<title>ch/qos/logback/classic/layout/TTLLLayout.doLayout (5 samples, 3.21%)</title><rect x="335.3" y="131.0" width="37.8" height="15" fill="#6bfc6b" rx="2" ry="2"/>
<text x="338.3" y="142.0">ch/..</text>
</g>
<g>
<title>ch/qos/logback/classic/layout/TTLLLayout.doLayout (5 samples, 3.21%)</title><rect x="335.3" y="115.0" width="37.8" height="15" fill="#54e554" rx="2" ry="2"/>
<text x="338.3" y="126.0">ch/..</text>
</g>
<g>
<title>java/lang/StringBuilder.&lt;init&gt; (1 samples, 0.64%)</title><rect x="335.3" y="99.0" width="7.5" height="15" fill="#6afb6a" rx="2" ry="2"/>
<text x="338.3" y="110.0"></text>
</g>
<g>
<title>java/lang/AbstractStringBuilder.&lt;init&gt; (1 samples, 0.64%)</title><rect x="335.3" y="83.0" width="7.5" height="15" fill="#6bfc6b" rx="2" ry="2"/>
<text x="338.3" y="94.0"></text>
</g>
<g>
<title>byte[] (1 samples, 0.64%)</title><rect x="335.3" y="67.0" width="7.5" height="15" fill="#67d5d5" rx="2" ry="2"/>
<text x="338.3" y="78.0"></text>
</g>
<g>
<title>java/lang/StringBuilder.append (4 samples, 2.56%)</title><rect x="342.8" y="99.0" width="30.3" height="15" fill="#6cfd6c" rx="2" ry="2"/>
<text x="345.8" y="110.0">ja..</text>
</g>
<g>
<title>java/lang/AbstractStringBuilder.append (4 samples, 2.56%)</title><rect x="342.8" y="83.0" width="30.3" height="15" fill="#5dee5d" rx="2" ry="2"/>
<text x="345.8" y="94.0">ja..</text>
</g>
<g>
<title>java/lang/AbstractStringBuilder.ensureCapacityInternal (4 samples, 2.56%)</title><rect x="342.8" y="67.0" width="30.3" height="15" fill="#51e251" rx="2" ry="2"/>
<text x="345.8" y="78.0">ja..</text>
</g>
<g>
<title>java/util/Arrays.copyOf (4 samples, 2.56%)</title><rect x="342.8" y="51.0" width="30.3" height="15" fill="#68f968" rx="2" ry="2"/>
<text x="345.8" y="62.0">ja..</text>
</g>
<g>
<title>byte[] (4 samples, 2.56%)</title><rect x="342.8" y="35.0" width="30.3" height="15" fill="#60cece" rx="2" ry="2"/>
<text x="345.8" y="46.0">by..</text>
</g>
<g>
<title>ch/qos/logback/core/encoder/LayoutWrappingEncoder.convertToBytes (1 samples, 0.64%)</title><rect x="373.1" y="131.0" width="7.5" height="15" fill="#5dee5d" rx="2" ry="2"/>
<text x="376.1" y="142.0"></text>
</g>
<g>
<title>java/lang/String.getBytes (1 samples, 0.64%)</title><rect x="373.1" y="115.0" width="7.5" height="15" fill="#6afb6a" rx="2" ry="2"/>
<text x="376.1" y="126.0"></text>
</g>
<g>
<title>java/lang/StringCoding.encode (1 samples, 0.64%)</title><rect x="373.1" y="99.0" width="7.5" height="15" fill="#56e756" rx="2" ry="2"/>
<text x="376.1" y="110.0"></text>
</g>
<g>
<title>java/lang/StringCoding.encodeUTF8 (1 samples, 0.64%)</title><rect x="373.1" y="83.0" width="7.5" height="15" fill="#51e251" rx="2" ry="2"/>
<text x="376.1" y="94.0"></text>
</g>
<g>
<title>java/util/Arrays.copyOf (1 samples, 0.64%)</title><rect x="373.1" y="67.0" width="7.5" height="15" fill="#6dfe6d" rx="2" ry="2"/>
<text x="376.1" y="78.0"></text>
</g>
<g>
<title>byte[] (1 samples, 0.64%)</title><rect x="373.1" y="51.0" width="7.5" height="15" fill="#6ddbdb" rx="2" ry="2"/>
<text x="376.1" y="62.0"></text>
</g>
<g>
<title>one/nio/http/Response.ok (7 samples, 4.49%)</title><rect x="380.6" y="291.0" width="53.0" height="15" fill="#6dfe6d" rx="2" ry="2"/>
<text x="383.6" y="302.0">one/n..</text>
</g>
<g>
<title>one.nio.http.Response (2 samples, 1.28%)</title><rect x="380.6" y="275.0" width="15.2" height="15" fill="#66d4d4" rx="2" ry="2"/>
<text x="383.6" y="286.0"></text>
</g>
<g>
<title>one/nio/http/Response.&lt;init&gt; (5 samples, 3.21%)</title><rect x="395.8" y="275.0" width="37.8" height="15" fill="#60f160" rx="2" ry="2"/>
<text x="398.8" y="286.0">one..</text>
</g>
<g>
<title>byte[] (3 samples, 1.92%)</title><rect x="395.8" y="259.0" width="22.7" height="15" fill="#66d4d4" rx="2" ry="2"/>
<text x="398.8" y="270.0">b..</text>
</g>
<g>
<title>java.lang.String[] (2 samples, 1.28%)</title><rect x="418.5" y="259.0" width="15.1" height="15" fill="#6cdada" rx="2" ry="2"/>
<text x="421.5" y="270.0"></text>
</g>
<g>
<title>ru/mail/polis/dao/DAO.get (61 samples, 39.10%)</title><rect x="433.6" y="291.0" width="461.4" height="15" fill="#58e958" rx="2" ry="2"/>
<text x="436.6" y="302.0">ru/mail/polis/dao/DAO.get</text>
</g>
<g>
<title>com/google/common/collect/TransformedIterator.hasNext (2 samples, 1.28%)</title><rect x="433.6" y="275.0" width="15.1" height="15" fill="#5bec5b" rx="2" ry="2"/>
<text x="436.6" y="286.0"></text>
</g>
<g>
<title>com/google/common/collect/AbstractIterator.hasNext (2 samples, 1.28%)</title><rect x="433.6" y="259.0" width="15.1" height="15" fill="#6afb6a" rx="2" ry="2"/>
<text x="436.6" y="270.0"></text>
</g>
<g>
<title>com/google/common/collect/AbstractIterator.tryToComputeNext (2 samples, 1.28%)</title><rect x="433.6" y="243.0" width="15.1" height="15" fill="#69fa69" rx="2" ry="2"/>
<text x="436.6" y="254.0"></text>
</g>
<g>
<title>com/google/common/collect/Iterators$5.computeNext (2 samples, 1.28%)</title><rect x="433.6" y="227.0" width="15.1" height="15" fill="#5eef5e" rx="2" ry="2"/>
<text x="436.6" y="238.0"></text>
</g>
<g>
<title>ru/mail/polis/dao/Iters$CollapseEqualsIterator.next (2 samples, 1.28%)</title><rect x="433.6" y="211.0" width="15.1" height="15" fill="#5dee5d" rx="2" ry="2"/>
<text x="436.6" y="222.0"></text>
</g>
<g>
<title>com/google/common/collect/Iterators$MergingIterator.next (2 samples, 1.28%)</title><rect x="433.6" y="195.0" width="15.1" height="15" fill="#54e554" rx="2" ry="2"/>
<text x="436.6" y="206.0"></text>
</g>
<g>
<title>com/google/common/collect/Iterators$PeekingImpl.next (2 samples, 1.28%)</title><rect x="433.6" y="179.0" width="15.1" height="15" fill="#68f968" rx="2" ry="2"/>
<text x="436.6" y="190.0"></text>
</g>
<g>
<title>com/google/common/collect/TransformedIterator.next (2 samples, 1.28%)</title><rect x="433.6" y="163.0" width="15.1" height="15" fill="#5ced5c" rx="2" ry="2"/>
<text x="436.6" y="174.0"></text>
</g>
<g>
<title>com/google/common/collect/Iterators$6.transform (2 samples, 1.28%)</title><rect x="433.6" y="147.0" width="15.1" height="15" fill="#5eef5e" rx="2" ry="2"/>
<text x="436.6" y="158.0"></text>
</g>
<g>
<title>ru/mail/polis/dao/kuzoliza/MemTable$$Lambda$64/731216725.apply (2 samples, 1.28%)</title><rect x="433.6" y="131.0" width="15.1" height="15" fill="#56e756" rx="2" ry="2"/>
<text x="436.6" y="142.0"></text>
</g>
<g>
<title>ru/mail/polis/dao/kuzoliza/MemTable.lambda$iterator$0 (2 samples, 1.28%)</title><rect x="433.6" y="115.0" width="15.1" height="15" fill="#63f463" rx="2" ry="2"/>
<text x="436.6" y="126.0"></text>
</g>
<g>
<title>ru.mail.polis.dao.kuzoliza.Cell (2 samples, 1.28%)</title><rect x="433.6" y="99.0" width="15.1" height="15" fill="#57c5c5" rx="2" ry="2"/>
<text x="436.6" y="110.0"></text>
</g>
<g>
<title>com/google/common/collect/TransformedIterator.next (1 samples, 0.64%)</title><rect x="448.7" y="275.0" width="7.6" height="15" fill="#68f968" rx="2" ry="2"/>
<text x="451.7" y="286.0"></text>
</g>
<g>
<title>com/google/common/collect/Iterators$6.transform (1 samples, 0.64%)</title><rect x="448.7" y="259.0" width="7.6" height="15" fill="#53e453" rx="2" ry="2"/>
<text x="451.7" y="270.0"></text>
</g>
<g>
<title>ru/mail/polis/dao/kuzoliza/LSM$$Lambda$72/108924582.apply (1 samples, 0.64%)</title><rect x="448.7" y="243.0" width="7.6" height="15" fill="#5aeb5a" rx="2" ry="2"/>
<text x="451.7" y="254.0"></text>
</g>
<g>
<title>ru/mail/polis/dao/kuzoliza/LSM.lambda$iterator$2 (1 samples, 0.64%)</title><rect x="448.7" y="227.0" width="7.6" height="15" fill="#66f766" rx="2" ry="2"/>
<text x="451.7" y="238.0"></text>
</g>
<g>
<title>ru/mail/polis/Record.of (1 samples, 0.64%)</title><rect x="448.7" y="211.0" width="7.6" height="15" fill="#5aeb5a" rx="2" ry="2"/>
<text x="451.7" y="222.0"></text>
</g>
<g>
<title>ru.mail.polis.Record (1 samples, 0.64%)</title><rect x="448.7" y="195.0" width="7.6" height="15" fill="#6ddbdb" rx="2" ry="2"/>
<text x="451.7" y="206.0"></text>
</g>
<g>
<title>java/util/NoSuchElementException.&lt;init&gt; (4 samples, 2.56%)</title><rect x="456.3" y="275.0" width="30.2" height="15" fill="#61f261" rx="2" ry="2"/>
<text x="459.3" y="286.0">ja..</text>
</g>
<g>
<title>java/lang/RuntimeException.&lt;init&gt; (4 samples, 2.56%)</title><rect x="456.3" y="259.0" width="30.2" height="15" fill="#58e958" rx="2" ry="2"/>
<text x="459.3" y="270.0">ja..</text>
</g>
<g>
<title>java/lang/Exception.&lt;init&gt; (4 samples, 2.56%)</title><rect x="456.3" y="243.0" width="30.2" height="15" fill="#6bfc6b" rx="2" ry="2"/>
<text x="459.3" y="254.0">ja..</text>
</g>
<g>
<title>java/lang/Throwable.&lt;init&gt; (4 samples, 2.56%)</title><rect x="456.3" y="227.0" width="30.2" height="15" fill="#67f867" rx="2" ry="2"/>
<text x="459.3" y="238.0">ja..</text>
</g>
<g>
<title>java/lang/Throwable.fillInStackTrace (4 samples, 2.56%)</title><rect x="456.3" y="211.0" width="30.2" height="15" fill="#55e655" rx="2" ry="2"/>
<text x="459.3" y="222.0">ja..</text>
</g>
<g>
<title>java/lang/Throwable.fillInStackTrace (4 samples, 2.56%)</title><rect x="456.3" y="195.0" width="30.2" height="15" fill="#5ff05f" rx="2" ry="2"/>
<text x="459.3" y="206.0">ja..</text>
</g>
<g>
<title>int[] (1 samples, 0.64%)</title><rect x="456.3" y="179.0" width="7.5" height="15" fill="#60cece" rx="2" ry="2"/>
<text x="459.3" y="190.0"></text>
</g>
<g>
<title>long[] (2 samples, 1.28%)</title><rect x="463.8" y="179.0" width="15.2" height="15" fill="#61cfcf" rx="2" ry="2"/>
<text x="466.8" y="190.0"></text>
</g>
<g>
<title>short[] (1 samples, 0.64%)</title><rect x="479.0" y="179.0" width="7.5" height="15" fill="#54c2c2" rx="2" ry="2"/>
<text x="482.0" y="190.0"></text>
</g>
<g>
<title>ru/mail/polis/Record.getKey (4 samples, 2.56%)</title><rect x="486.5" y="275.0" width="30.3" height="15" fill="#64f564" rx="2" ry="2"/>
<text x="489.5" y="286.0">ru..</text>
</g>
<g>
<title>java/nio/HeapByteBuffer.asReadOnlyBuffer (4 samples, 2.56%)</title><rect x="486.5" y="259.0" width="30.3" height="15" fill="#67f867" rx="2" ry="2"/>
<text x="489.5" y="270.0">ja..</text>
</g>
<g>
<title>java.nio.HeapByteBufferR (4 samples, 2.56%)</title><rect x="486.5" y="243.0" width="30.3" height="15" fill="#5ccaca" rx="2" ry="2"/>
<text x="489.5" y="254.0">ja..</text>
</g>
<g>
<title>ru/mail/polis/Record.getValue (2 samples, 1.28%)</title><rect x="516.8" y="275.0" width="15.1" height="15" fill="#50e150" rx="2" ry="2"/>
<text x="519.8" y="286.0"></text>
</g>
<g>
<title>java/nio/HeapByteBuffer.asReadOnlyBuffer (2 samples, 1.28%)</title><rect x="516.8" y="259.0" width="15.1" height="15" fill="#5bec5b" rx="2" ry="2"/>
<text x="519.8" y="270.0"></text>
</g>
<g>
<title>java.nio.HeapByteBufferR (2 samples, 1.28%)</title><rect x="516.8" y="243.0" width="15.1" height="15" fill="#5ac8c8" rx="2" ry="2"/>
<text x="519.8" y="254.0"></text>
</g>
<g>
<title>ru/mail/polis/dao/kuzoliza/LSM.iterator (48 samples, 30.77%)</title><rect x="531.9" y="275.0" width="363.1" height="15" fill="#5ced5c" rx="2" ry="2"/>
<text x="534.9" y="286.0">ru/mail/polis/dao/kuzoliza/LSM.iterator</text>
</g>
<g>
<title>com/google/common/collect/Iterators.transform (2 samples, 1.28%)</title><rect x="531.9" y="259.0" width="15.2" height="15" fill="#56e756" rx="2" ry="2"/>
<text x="534.9" y="270.0"></text>
</g>
<g>
<title>com.google.common.collect.Iterators$6 (2 samples, 1.28%)</title><rect x="531.9" y="243.0" width="15.2" height="15" fill="#56c4c4" rx="2" ry="2"/>
<text x="534.9" y="254.0"></text>
</g>
<g>
<title>ru/mail/polis/dao/kuzoliza/LSM.noTombstones (46 samples, 29.49%)</title><rect x="547.1" y="259.0" width="347.9" height="15" fill="#6dfe6d" rx="2" ry="2"/>
<text x="550.1" y="270.0">ru/mail/polis/dao/kuzoliza/LSM.noTombstones</text>
</g>
<g>
<title>com/google/common/collect/Iterators.filter (5 samples, 3.21%)</title><rect x="547.1" y="243.0" width="37.8" height="15" fill="#53e453" rx="2" ry="2"/>
<text x="550.1" y="254.0">com..</text>
</g>
<g>
<title>com.google.common.collect.Iterators$5 (5 samples, 3.21%)</title><rect x="547.1" y="227.0" width="37.8" height="15" fill="#63d1d1" rx="2" ry="2"/>
<text x="550.1" y="238.0">com..</text>
</g>
<g>
<title>com/google/common/collect/Iterators.mergeSorted (15 samples, 9.62%)</title><rect x="584.9" y="243.0" width="113.4" height="15" fill="#54e554" rx="2" ry="2"/>
<text x="587.9" y="254.0">com/google/com..</text>
</g>
<g>
<title>com.google.common.collect.Iterators$MergingIterator (3 samples, 1.92%)</title><rect x="584.9" y="227.0" width="22.7" height="15" fill="#51bfbf" rx="2" ry="2"/>
<text x="587.9" y="238.0">c..</text>
</g>
<g>
<title>com/google/common/collect/Iterators$MergingIterator.&lt;init&gt; (12 samples, 7.69%)</title><rect x="607.6" y="227.0" width="90.7" height="15" fill="#6cfd6c" rx="2" ry="2"/>
<text x="610.6" y="238.0">com/google..</text>
</g>
<g>
<title>com.google.common.collect.Iterators$MergingIterator$1 (2 samples, 1.28%)</title><rect x="607.6" y="211.0" width="15.1" height="15" fill="#64d2d2" rx="2" ry="2"/>
<text x="610.6" y="222.0"></text>
</g>
<g>
<title>java.util.PriorityQueue (4 samples, 2.56%)</title><rect x="622.7" y="211.0" width="30.2" height="15" fill="#6cdada" rx="2" ry="2"/>
<text x="625.7" y="222.0">ja..</text>
</g>
<g>
<title>java/util/ArrayList.iterator (2 samples, 1.28%)</title><rect x="652.9" y="211.0" width="15.2" height="15" fill="#5ced5c" rx="2" ry="2"/>
<text x="655.9" y="222.0"></text>
</g>
<g>
<title>java.util.ArrayList$Itr (2 samples, 1.28%)</title><rect x="652.9" y="195.0" width="15.2" height="15" fill="#53c1c1" rx="2" ry="2"/>
<text x="655.9" y="206.0"></text>
</g>
<g>
<title>java/util/PriorityQueue.&lt;init&gt; (4 samples, 2.56%)</title><rect x="668.1" y="211.0" width="30.2" height="15" fill="#56e756" rx="2" ry="2"/>
<text x="671.1" y="222.0">ja..</text>
</g>
<g>
<title>java.lang.Object[] (4 samples, 2.56%)</title><rect x="668.1" y="195.0" width="30.2" height="15" fill="#53c1c1" rx="2" ry="2"/>
<text x="671.1" y="206.0">ja..</text>
</g>
<g>
<title>java.util.ArrayList (4 samples, 2.56%)</title><rect x="698.3" y="243.0" width="30.3" height="15" fill="#57c5c5" rx="2" ry="2"/>
<text x="701.3" y="254.0">ja..</text>
</g>
<g>
<title>java/lang/Iterable.forEach (5 samples, 3.21%)</title><rect x="728.6" y="243.0" width="37.8" height="15" fill="#58e958" rx="2" ry="2"/>
<text x="731.6" y="254.0">jav..</text>
</g>
<g>
<title>java/util/AbstractMap$2.iterator (5 samples, 3.21%)</title><rect x="728.6" y="227.0" width="37.8" height="15" fill="#59ea59" rx="2" ry="2"/>
<text x="731.6" y="238.0">jav..</text>
</g>
<g>
<title>java.util.AbstractMap$2$1 (2 samples, 1.28%)</title><rect x="728.6" y="211.0" width="15.1" height="15" fill="#5fcdcd" rx="2" ry="2"/>
<text x="731.6" y="222.0"></text>
</g>
<g>
<title>java/util/AbstractMap$2$1.&lt;init&gt; (3 samples, 1.92%)</title><rect x="743.7" y="211.0" width="22.7" height="15" fill="#51e251" rx="2" ry="2"/>
<text x="746.7" y="222.0">j..</text>
</g>
<g>
<title>java/util/TreeMap$DescendingSubMap$DescendingEntrySetView.iterator (3 samples, 1.92%)</title><rect x="743.7" y="195.0" width="22.7" height="15" fill="#50e150" rx="2" ry="2"/>
<text x="746.7" y="206.0">j..</text>
</g>
<g>
<title>java.util.TreeMap$NavigableSubMap$DescendingSubMapEntryIterator (3 samples, 1.92%)</title><rect x="743.7" y="179.0" width="22.7" height="15" fill="#58c6c6" rx="2" ry="2"/>
<text x="746.7" y="190.0">j..</text>
</g>
<g>
<title>java/util/ArrayList.&lt;init&gt; (1 samples, 0.64%)</title><rect x="766.4" y="243.0" width="7.6" height="15" fill="#55e655" rx="2" ry="2"/>
<text x="769.4" y="254.0"></text>
</g>
<g>
<title>java.lang.Object[] (1 samples, 0.64%)</title><rect x="766.4" y="227.0" width="7.6" height="15" fill="#67d5d5" rx="2" ry="2"/>
<text x="769.4" y="238.0"></text>
</g>
<g>
<title>ru/mail/polis/dao/Iters.collapseEquals (6 samples, 3.85%)</title><rect x="774.0" y="243.0" width="45.4" height="15" fill="#5bec5b" rx="2" ry="2"/>
<text x="777.0" y="254.0">ru/m..</text>
</g>
<g>
<title>ru.mail.polis.dao.Iters$CollapseEqualsIterator (4 samples, 2.56%)</title><rect x="774.0" y="227.0" width="30.2" height="15" fill="#56c4c4" rx="2" ry="2"/>
<text x="777.0" y="238.0">ru..</text>
</g>
<g>
<title>ru/mail/polis/dao/Iters$CollapseEqualsIterator.&lt;init&gt; (2 samples, 1.28%)</title><rect x="804.2" y="227.0" width="15.2" height="15" fill="#63f463" rx="2" ry="2"/>
<text x="807.2" y="238.0"></text>
</g>
<g>
<title>com/google/common/collect/Iterators$MergingIterator.next (2 samples, 1.28%)</title><rect x="804.2" y="211.0" width="15.2" height="15" fill="#56e756" rx="2" ry="2"/>
<text x="807.2" y="222.0"></text>
</g>
<g>
<title>com/google/common/collect/Iterators$PeekingImpl.next (2 samples, 1.28%)</title><rect x="804.2" y="195.0" width="15.2" height="15" fill="#51e251" rx="2" ry="2"/>
<text x="807.2" y="206.0"></text>
</g>
<g>
<title>com/google/common/collect/TransformedIterator.next (2 samples, 1.28%)</title><rect x="804.2" y="179.0" width="15.2" height="15" fill="#60f160" rx="2" ry="2"/>
<text x="807.2" y="190.0"></text>
</g>
<g>
<title>com/google/common/collect/Iterators$6.transform (2 samples, 1.28%)</title><rect x="804.2" y="163.0" width="15.2" height="15" fill="#6afb6a" rx="2" ry="2"/>
<text x="807.2" y="174.0"></text>
</g>
<g>
<title>ru/mail/polis/dao/kuzoliza/MemTable$$Lambda$64/731216725.apply (2 samples, 1.28%)</title><rect x="804.2" y="147.0" width="15.2" height="15" fill="#5ff05f" rx="2" ry="2"/>
<text x="807.2" y="158.0"></text>
</g>
<g>
<title>ru/mail/polis/dao/kuzoliza/MemTable.lambda$iterator$0 (2 samples, 1.28%)</title><rect x="804.2" y="131.0" width="15.2" height="15" fill="#5ff05f" rx="2" ry="2"/>
<text x="807.2" y="142.0"></text>
</g>
<g>
<title>ru.mail.polis.dao.kuzoliza.Cell (2 samples, 1.28%)</title><rect x="804.2" y="115.0" width="15.2" height="15" fill="#68d6d6" rx="2" ry="2"/>
<text x="807.2" y="126.0"></text>
</g>
<g>
<title>ru/mail/polis/dao/kuzoliza/MemTable.iterator (10 samples, 6.41%)</title><rect x="819.4" y="243.0" width="75.6" height="15" fill="#69fa69" rx="2" ry="2"/>
<text x="822.4" y="254.0">ru/mail/..</text>
</g>
<g>
<title>com/google/common/collect/Iterators.transform (2 samples, 1.28%)</title><rect x="819.4" y="227.0" width="15.1" height="15" fill="#51e251" rx="2" ry="2"/>
<text x="822.4" y="238.0"></text>
</g>
<g>
<title>com.google.common.collect.Iterators$6 (2 samples, 1.28%)</title><rect x="819.4" y="211.0" width="15.1" height="15" fill="#55c3c3" rx="2" ry="2"/>
<text x="822.4" y="222.0"></text>
</g>
<g>
<title>java/util/TreeMap$AscendingSubMap$AscendingEntrySetView.iterator (1 samples, 0.64%)</title><rect x="834.5" y="227.0" width="7.6" height="15" fill="#67f867" rx="2" ry="2"/>
<text x="837.5" y="238.0"></text>
</g>
<g>
<title>java.util.TreeMap$NavigableSubMap$SubMapEntryIterator (1 samples, 0.64%)</title><rect x="834.5" y="211.0" width="7.6" height="15" fill="#6cdada" rx="2" ry="2"/>
<text x="837.5" y="222.0"></text>
</g>
<g>
<title>java/util/TreeMap.tailMap (7 samples, 4.49%)</title><rect x="842.1" y="227.0" width="52.9" height="15" fill="#63f463" rx="2" ry="2"/>
<text x="845.1" y="238.0">java/..</text>
</g>
<g>
<title>java/util/TreeMap.tailMap (7 samples, 4.49%)</title><rect x="842.1" y="211.0" width="52.9" height="15" fill="#52e352" rx="2" ry="2"/>
<text x="845.1" y="222.0">java/..</text>
</g>
<g>
<title>java.util.TreeMap$AscendingSubMap (7 samples, 4.49%)</title><rect x="842.1" y="195.0" width="52.9" height="15" fill="#6ddbdb" rx="2" ry="2"/>
<text x="845.1" y="206.0">java...</text>
</g>
<g>
<title>ru/mail/polis/service/kuzoliza/MyService.toByteArray (3 samples, 1.92%)</title><rect x="895.0" y="291.0" width="22.7" height="15" fill="#56e756" rx="2" ry="2"/>
<text x="898.0" y="302.0">r..</text>
</g>
<g>
<title>byte[] (3 samples, 1.92%)</title><rect x="895.0" y="275.0" width="22.7" height="15" fill="#54c2c2" rx="2" ry="2"/>
<text x="898.0" y="286.0">b..</text>
</g>
<g>
<title>one/nio/http/Request.getPath (1 samples, 0.64%)</title><rect x="917.7" y="339.0" width="7.6" height="15" fill="#5dee5d" rx="2" ry="2"/>
<text x="920.7" y="350.0"></text>
</g>
<g>
<title>java/lang/String.substring (1 samples, 0.64%)</title><rect x="917.7" y="323.0" width="7.6" height="15" fill="#68f968" rx="2" ry="2"/>
<text x="920.7" y="334.0"></text>
</g>
<g>
<title>java/lang/StringLatin1.newString (1 samples, 0.64%)</title><rect x="917.7" y="307.0" width="7.6" height="15" fill="#53e453" rx="2" ry="2"/>
<text x="920.7" y="318.0"></text>
</g>
<g>
<title>java.lang.String (1 samples, 0.64%)</title><rect x="917.7" y="291.0" width="7.6" height="15" fill="#57c5c5" rx="2" ry="2"/>
<text x="920.7" y="302.0"></text>
</g>
<g>
<title>one/nio/http/HttpSession.parseRequest (22 samples, 14.10%)</title><rect x="925.3" y="371.0" width="166.4" height="15" fill="#6dfe6d" rx="2" ry="2"/>
<text x="928.3" y="382.0">one/nio/http/HttpSess..</text>
</g>
<g>
<title>one.nio.http.Request (3 samples, 1.92%)</title><rect x="925.3" y="355.0" width="22.6" height="15" fill="#63d1d1" rx="2" ry="2"/>
<text x="928.3" y="366.0">o..</text>
</g>
<g>
<title>one/nio/http/Request.&lt;init&gt; (7 samples, 4.49%)</title><rect x="947.9" y="355.0" width="53.0" height="15" fill="#69fa69" rx="2" ry="2"/>
<text x="950.9" y="366.0">one/n..</text>
</g>
<g>
<title>java.lang.String[] (7 samples, 4.49%)</title><rect x="947.9" y="339.0" width="53.0" height="15" fill="#63d1d1" rx="2" ry="2"/>
<text x="950.9" y="350.0">java...</text>
</g>
<g>
<title>one/nio/util/Utf8.read (12 samples, 7.69%)</title><rect x="1000.9" y="355.0" width="90.8" height="15" fill="#60f160" rx="2" ry="2"/>
<text x="1003.9" y="366.0">one/nio/ut..</text>
</g>
<g>
<title>one/nio/util/Utf8.read (12 samples, 7.69%)</title><rect x="1000.9" y="339.0" width="90.8" height="15" fill="#56e756" rx="2" ry="2"/>
<text x="1003.9" y="350.0">one/nio/ut..</text>
</g>
<g>
<title>char[] (7 samples, 4.49%)</title><rect x="1000.9" y="323.0" width="52.9" height="15" fill="#55c3c3" rx="2" ry="2"/>
<text x="1003.9" y="334.0">char[]</text>
</g>
<g>
<title>java.lang.String (3 samples, 1.92%)</title><rect x="1053.8" y="323.0" width="22.7" height="15" fill="#65d3d3" rx="2" ry="2"/>
<text x="1056.8" y="334.0">j..</text>
</g>
<g>
<title>java/lang/String.&lt;init&gt; (2 samples, 1.28%)</title><rect x="1076.5" y="323.0" width="15.2" height="15" fill="#5aeb5a" rx="2" ry="2"/>
<text x="1079.5" y="334.0"></text>
</g>
<g>
<title>java/lang/String.&lt;init&gt; (2 samples, 1.28%)</title><rect x="1076.5" y="307.0" width="15.2" height="15" fill="#67f867" rx="2" ry="2"/>
<text x="1079.5" y="318.0"></text>
</g>
<g>
<title>java/lang/StringUTF16.compress (2 samples, 1.28%)</title><rect x="1076.5" y="291.0" width="15.2" height="15" fill="#5ced5c" rx="2" ry="2"/>
<text x="1079.5" y="302.0"></text>
</g>
<g>
<title>byte[] (2 samples, 1.28%)</title><rect x="1076.5" y="275.0" width="15.2" height="15" fill="#60cece" rx="2" ry="2"/>
<text x="1079.5" y="286.0"></text>
</g>
<g>
<title>one/nio/util/Utf8.read (9 samples, 5.77%)</title><rect x="1091.7" y="371.0" width="68.0" height="15" fill="#61f261" rx="2" ry="2"/>
<text x="1094.7" y="382.0">one/nio..</text>
</g>
<g>
<title>one/nio/util/Utf8.read (9 samples, 5.77%)</title><rect x="1091.7" y="355.0" width="68.0" height="15" fill="#6cfd6c" rx="2" ry="2"/>
<text x="1094.7" y="366.0">one/nio..</text>
</g>
<g>
<title>char[] (5 samples, 3.21%)</title><rect x="1091.7" y="339.0" width="37.8" height="15" fill="#63d1d1" rx="2" ry="2"/>
<text x="1094.7" y="350.0">cha..</text>
</g>
<g>
<title>java.lang.String (3 samples, 1.92%)</title><rect x="1129.5" y="339.0" width="22.7" height="15" fill="#50bebe" rx="2" ry="2"/>
<text x="1132.5" y="350.0">j..</text>
</g>
<g>
<title>java/lang/String.&lt;init&gt; (1 samples, 0.64%)</title><rect x="1152.2" y="339.0" width="7.5" height="15" fill="#50e150" rx="2" ry="2"/>
<text x="1155.2" y="350.0"></text>
</g>
<g>
<title>java/lang/String.&lt;init&gt; (1 samples, 0.64%)</title><rect x="1152.2" y="323.0" width="7.5" height="15" fill="#62f362" rx="2" ry="2"/>
<text x="1155.2" y="334.0"></text>
</g>
<g>
<title>java/lang/StringUTF16.compress (1 samples, 0.64%)</title><rect x="1152.2" y="307.0" width="7.5" height="15" fill="#63f463" rx="2" ry="2"/>
<text x="1155.2" y="318.0"></text>
</g>
<g>
<title>byte[] (1 samples, 0.64%)</title><rect x="1152.2" y="291.0" width="7.5" height="15" fill="#57c5c5" rx="2" ry="2"/>
<text x="1155.2" y="302.0"></text>
</g>
<g>
<title>one/nio/net/Session.read (4 samples, 2.56%)</title><rect x="1159.7" y="387.0" width="30.3" height="15" fill="#61f261" rx="2" ry="2"/>
<text x="1162.7" y="398.0">on..</text>
</g>
<g>
<title>one/nio/net/JavaSocket.read (4 samples, 2.56%)</title><rect x="1159.7" y="371.0" width="30.3" height="15" fill="#69fa69" rx="2" ry="2"/>
<text x="1162.7" y="382.0">on..</text>
</g>
<g>
<title>java/nio/ByteBuffer.wrap (4 samples, 2.56%)</title><rect x="1159.7" y="355.0" width="30.3" height="15" fill="#67f867" rx="2" ry="2"/>
<text x="1162.7" y="366.0">ja..</text>
</g>
<g>
<title>java.nio.HeapByteBuffer (4 samples, 2.56%)</title><rect x="1159.7" y="339.0" width="30.3" height="15" fill="#63d1d1" rx="2" ry="2"/>
<text x="1162.7" y="350.0">ja..</text>
</g>
</g>
</svg>
