<?xml version="1.0" standalone="no"?>
<!DOCTYPE svg PUBLIC "-//W3C//DTD SVG 1.1//EN" "http://www.w3.org/Graphics/SVG/1.1/DTD/svg11.dtd">
<svg version="1.1" width="1200" height="326" onload="init(evt)" viewBox="0 0 1200 326" xmlns="http://www.w3.org/2000/svg" xmlns:xlink="http://www.w3.org/1999/xlink">
<style type="text/css">
	text { font-family:Verdana; font-size:12px; fill:rgb(0,0,0); }
	#search { opacity:0.1; cursor:pointer; }
	#search:hover, #search.show { opacity:1; }
	#subtitle { text-anchor:middle; font-color:rgb(160,160,160); }
	#title { text-anchor:middle; font-size:17px}
	#unzoom { cursor:pointer; }
	#frames > *:hover { stroke:black; stroke-width:0.5; cursor:pointer; }
	.hide { display:none; }
	.parent { opacity:0.5; }
</style>
<script type="text/ecmascript">
<![CDATA[
	"use strict";
	var details, searchbtn, unzoombtn, matchedtxt, svg, searching;
	function init(evt) {
		details = document.getElementById("details").firstChild;
		searchbtn = document.getElementById("search");
		unzoombtn = document.getElementById("unzoom");
		matchedtxt = document.getElementById("matched");
		svg = document.getElementsByTagName("svg")[0];
		searching = 0;
	}

	window.addEventListener("click", function(e) {
		var target = find_group(e.target);
		if (target) {
			if (target.nodeName == "a") {
				if (e.ctrlKey === false) return;
				e.preventDefault();
			}
			if (target.classList.contains("parent")) unzoom();
			zoom(target);
		}
		else if (e.target.id == "unzoom") unzoom();
		else if (e.target.id == "search") search_prompt();
	}, false)

	// mouse-over for info
	// show
	window.addEventListener("mouseover", function(e) {
		var target = find_group(e.target);
		if (target) details.nodeValue = "Function: " + g_to_text(target);
	}, false)

	// clear
	window.addEventListener("mouseout", function(e) {
		var target = find_group(e.target);
		if (target) details.nodeValue = ' ';
	}, false)

	// ctrl-F for search
	window.addEventListener("keydown",function (e) {
		if (e.keyCode === 114 || (e.ctrlKey && e.keyCode === 70)) {
			e.preventDefault();
			search_prompt();
		}
	}, false)

	// functions
	function find_child(node, selector) {
		var children = node.querySelectorAll(selector);
		if (children.length) return children[0];
		return;
	}
	function find_group(node) {
		var parent = node.parentElement;
		if (!parent) return;
		if (parent.id == "frames") return node;
		return find_group(parent);
	}
	function orig_save(e, attr, val) {
		if (e.attributes["_orig_" + attr] != undefined) return;
		if (e.attributes[attr] == undefined) return;
		if (val == undefined) val = e.attributes[attr].value;
		e.setAttribute("_orig_" + attr, val);
	}
	function orig_load(e, attr) {
		if (e.attributes["_orig_"+attr] == undefined) return;
		e.attributes[attr].value = e.attributes["_orig_" + attr].value;
		e.removeAttribute("_orig_"+attr);
	}
	function g_to_text(e) {
		var text = find_child(e, "title").firstChild.nodeValue;
		return (text)
	}
	function g_to_func(e) {
		var func = g_to_text(e);
		// if there's any manipulation we want to do to the function
		// name before it's searched, do it here before returning.
		return (func);
	}
	function update_text(e) {
		var r = find_child(e, "rect");
		var t = find_child(e, "text");
		var w = parseFloat(r.attributes.width.value) -3;
		var txt = find_child(e, "title").textContent.replace(/\([^(]*\)$/,"");
		t.attributes.x.value = parseFloat(r.attributes.x.value) + 3;

		// Smaller than this size won't fit anything
		if (w < 2 * 12 * 0.59) {
			t.textContent = "";
			return;
		}

		t.textContent = txt;
		// Fit in full text width
		if (/^ *$/.test(txt) || t.getSubStringLength(0, txt.length) < w)
			return;

		for (var x = txt.length - 2; x > 0; x--) {
			if (t.getSubStringLength(0, x + 2) <= w) {
				t.textContent = txt.substring(0, x) + "..";
				return;
			}
		}
		t.textContent = "";
	}

	// zoom
	function zoom_reset(e) {
		if (e.attributes != undefined) {
			orig_load(e, "x");
			orig_load(e, "width");
		}
		if (e.childNodes == undefined) return;
		for (var i = 0, c = e.childNodes; i < c.length; i++) {
			zoom_reset(c[i]);
		}
	}
	function zoom_child(e, x, ratio) {
		if (e.attributes != undefined) {
			if (e.attributes.x != undefined) {
				orig_save(e, "x");
				e.attributes.x.value = (parseFloat(e.attributes.x.value) - x - 10) * ratio + 10;
				if (e.tagName == "text")
					e.attributes.x.value = find_child(e.parentNode, "rect[x]").attributes.x.value + 3;
			}
			if (e.attributes.width != undefined) {
				orig_save(e, "width");
				e.attributes.width.value = parseFloat(e.attributes.width.value) * ratio;
			}
		}

		if (e.childNodes == undefined) return;
		for (var i = 0, c = e.childNodes; i < c.length; i++) {
			zoom_child(c[i], x - 10, ratio);
		}
	}
	function zoom_parent(e) {
		if (e.attributes) {
			if (e.attributes.x != undefined) {
				orig_save(e, "x");
				e.attributes.x.value = 10;
			}
			if (e.attributes.width != undefined) {
				orig_save(e, "width");
				e.attributes.width.value = parseInt(svg.width.baseVal.value) - (10 * 2);
			}
		}
		if (e.childNodes == undefined) return;
		for (var i = 0, c = e.childNodes; i < c.length; i++) {
			zoom_parent(c[i]);
		}
	}
	function zoom(node) {
		var attr = find_child(node, "rect").attributes;
		var width = parseFloat(attr.width.value);
		var xmin = parseFloat(attr.x.value);
		var xmax = parseFloat(xmin + width);
		var ymin = parseFloat(attr.y.value);
		var ratio = (svg.width.baseVal.value - 2 * 10) / width;

		// XXX: Workaround for JavaScript float issues (fix me)
		var fudge = 0.0001;

		unzoombtn.classList.remove("hide");

		var el = document.getElementById("frames").children;
		for (var i = 0; i < el.length; i++) {
			var e = el[i];
			var a = find_child(e, "rect").attributes;
			var ex = parseFloat(a.x.value);
			var ew = parseFloat(a.width.value);
			var upstack;
			// Is it an ancestor
			if (0 == 0) {
				upstack = parseFloat(a.y.value) > ymin;
			} else {
				upstack = parseFloat(a.y.value) < ymin;
			}
			if (upstack) {
				// Direct ancestor
				if (ex <= xmin && (ex+ew+fudge) >= xmax) {
					e.classList.add("parent");
					zoom_parent(e);
					update_text(e);
				}
				// not in current path
				else
					e.classList.add("hide");
			}
			// Children maybe
			else {
				// no common path
				if (ex < xmin || ex + fudge >= xmax) {
					e.classList.add("hide");
				}
				else {
					zoom_child(e, xmin, ratio);
					update_text(e);
				}
			}
		}
	}
	function unzoom() {
		unzoombtn.classList.add("hide");
		var el = document.getElementById("frames").children;
		for(var i = 0; i < el.length; i++) {
			el[i].classList.remove("parent");
			el[i].classList.remove("hide");
			zoom_reset(el[i]);
			update_text(el[i]);
		}
	}

	// search
	function reset_search() {
		var el = document.querySelectorAll("#frames rect");
		for (var i = 0; i < el.length; i++) {
			orig_load(el[i], "fill")
		}
	}
	function search_prompt() {
		if (!searching) {
			var term = prompt("Enter a search term (regexp " +
			    "allowed, eg: ^ext4_)", "");
			if (term != null) {
				search(term)
			}
		} else {
			reset_search();
			searching = 0;
			searchbtn.classList.remove("show");
			searchbtn.firstChild.nodeValue = "Search"
			matchedtxt.classList.add("hide");
			matchedtxt.firstChild.nodeValue = ""
		}
	}
	function search(term) {
		var re = new RegExp(term);
		var el = document.getElementById("frames").children;
		var matches = new Object();
		var maxwidth = 0;
		for (var i = 0; i < el.length; i++) {
			var e = el[i];
			var func = g_to_func(e);
			var rect = find_child(e, "rect");
			if (func == null || rect == null)
				continue;

			// Save max width. Only works as we have a root frame
			var w = parseFloat(rect.attributes.width.value);
			if (w > maxwidth)
				maxwidth = w;

			if (func.match(re)) {
				// highlight
				var x = parseFloat(rect.attributes.x.value);
				orig_save(rect, "fill");
				rect.attributes.fill.value = "rgb(230,0,230)";

				// remember matches
				if (matches[x] == undefined) {
					matches[x] = w;
				} else {
					if (w > matches[x]) {
						// overwrite with parent
						matches[x] = w;
					}
				}
				searching = 1;
			}
		}
		if (!searching)
			return;

		searchbtn.classList.add("show");
		searchbtn.firstChild.nodeValue = "Reset Search";

		// calculate percent matched, excluding vertical overlap
		var count = 0;
		var lastx = -1;
		var lastw = 0;
		var keys = Array();
		for (k in matches) {
			if (matches.hasOwnProperty(k))
				keys.push(k);
		}
		// sort the matched frames by their x location
		// ascending, then width descending
		keys.sort(function(a, b){
			return a - b;
		});
		// Step through frames saving only the biggest bottom-up frames
		// thanks to the sort order. This relies on the tree property
		// where children are always smaller than their parents.
		var fudge = 0.0001;	// JavaScript floating point
		for (var k in keys) {
			var x = parseFloat(keys[k]);
			var w = matches[keys[k]];
			if (x >= lastx + lastw - fudge) {
				count += w;
				lastx = x;
				lastw = w;
			}
		}
		// display matched percent
		matchedtxt.classList.remove("hide");
		var pct = 100 * count / maxwidth;
		if (pct != 100) pct = pct.toFixed(1)
		matchedtxt.firstChild.nodeValue = "Matched: " + pct + "%";
	}
]]>
</script>
<rect x="0" y="0" width="100%" height="100%" fill="rgb(240,240,220)"/>
<text id="title" x="600" y="24">Flame Graph</text>
<text id="details" x="10" y="309"> </text>
<text id="unzoom" x="10" y="24" class="hide">Reset Zoom</text>
<text id="search" x="1090" y="24">Search</text>
<text id="matched" x="1090" y="309"> </text>
<g id="frames">
<g>
<title>all (104 samples, 100.00%)</title><rect x="10.0" y="275.0" width="1180.0" height="15" fill="#fa7c7c" rx="2" ry="2"/>
<text x="13.0" y="286.0">all</text>
</g>
<g>
<title>one/nio/server/SelectorThread.run (104 samples, 100.00%)</title><rect x="10.0" y="259.0" width="1180.0" height="15" fill="#63f463" rx="2" ry="2"/>
<text x="13.0" y="270.0">one/nio/server/SelectorThread.run</text>
</g>
<g>
<title>one/nio/net/JavaSelector.select (9 samples, 8.65%)</title><rect x="10.0" y="243.0" width="102.1" height="15" fill="#6bfc6b" rx="2" ry="2"/>
<text x="13.0" y="254.0">one/nio/net/..</text>
</g>
<g>
<title>one/nio/net/JavaSelector.iteratorFor (5 samples, 4.81%)</title><rect x="10.0" y="227.0" width="56.7" height="15" fill="#65f665" rx="2" ry="2"/>
<text x="13.0" y="238.0">one/ni..</text>
</g>
<g>
<title>one.nio.net.JavaSelector$1 (2 samples, 1.92%)</title><rect x="10.0" y="211.0" width="22.7" height="15" fill="#51bfbf" rx="2" ry="2"/>
<text x="13.0" y="222.0">o..</text>
</g>
<g>
<title>one.nio.net.Session[] (3 samples, 2.88%)</title><rect x="32.7" y="211.0" width="34.0" height="15" fill="#5bc9c9" rx="2" ry="2"/>
<text x="35.7" y="222.0">on..</text>
</g>
<g>
<title>sun/nio/ch/SelectorImpl.select (4 samples, 3.85%)</title><rect x="66.7" y="227.0" width="45.4" height="15" fill="#64f564" rx="2" ry="2"/>
<text x="69.7" y="238.0">sun/..</text>
</g>
<g>
<title>sun/nio/ch/SelectorImpl.lockAndDoSelect (4 samples, 3.85%)</title><rect x="66.7" y="211.0" width="45.4" height="15" fill="#59ea59" rx="2" ry="2"/>
<text x="69.7" y="222.0">sun/..</text>
</g>
<g>
<title>sun/nio/ch/KQueueSelectorImpl.doSelect (4 samples, 3.85%)</title><rect x="66.7" y="195.0" width="45.4" height="15" fill="#6dfe6d" rx="2" ry="2"/>
<text x="69.7" y="206.0">sun/..</text>
</g>
<g>
<title>sun/nio/ch/KQueueSelectorImpl.processEvents (4 samples, 3.85%)</title><rect x="66.7" y="179.0" width="45.4" height="15" fill="#5eef5e" rx="2" ry="2"/>
<text x="69.7" y="190.0">sun/..</text>
</g>
<g>
<title>sun/nio/ch/SelectorImpl.processReadyEvents (4 samples, 3.85%)</title><rect x="66.7" y="163.0" width="45.4" height="15" fill="#53e453" rx="2" ry="2"/>
<text x="69.7" y="174.0">sun/..</text>
</g>
<g>
<title>java/util/HashSet.add (4 samples, 3.85%)</title><rect x="66.7" y="147.0" width="45.4" height="15" fill="#5dee5d" rx="2" ry="2"/>
<text x="69.7" y="158.0">java..</text>
</g>
<g>
<title>java/util/HashMap.put (4 samples, 3.85%)</title><rect x="66.7" y="131.0" width="45.4" height="15" fill="#5ff05f" rx="2" ry="2"/>
<text x="69.7" y="142.0">java..</text>
</g>
<g>
<title>java/util/HashMap.putVal (4 samples, 3.85%)</title><rect x="66.7" y="115.0" width="45.4" height="15" fill="#68f968" rx="2" ry="2"/>
<text x="69.7" y="126.0">java..</text>
</g>
<g>
<title>java/util/HashMap.newNode (4 samples, 3.85%)</title><rect x="66.7" y="99.0" width="45.4" height="15" fill="#57e857" rx="2" ry="2"/>
<text x="69.7" y="110.0">java..</text>
</g>
<g>
<title>java.util.HashMap$Node (4 samples, 3.85%)</title><rect x="66.7" y="83.0" width="45.4" height="15" fill="#60cece" rx="2" ry="2"/>
<text x="69.7" y="94.0">java..</text>
</g>
<g>
<title>one/nio/net/Session.process (95 samples, 91.35%)</title><rect x="112.1" y="243.0" width="1077.9" height="15" fill="#65f665" rx="2" ry="2"/>
<text x="115.1" y="254.0">one/nio/net/Session.process</text>
</g>
<g>
<title>one/nio/http/HttpSession.processRead (95 samples, 91.35%)</title><rect x="112.1" y="227.0" width="1077.9" height="15" fill="#68f968" rx="2" ry="2"/>
<text x="115.1" y="238.0">one/nio/http/HttpSession.processRead</text>
</g>
<g>
<title>one/nio/http/HttpSession.processHttpBuffer (93 samples, 89.42%)</title><rect x="112.1" y="211.0" width="1055.2" height="15" fill="#5eef5e" rx="2" ry="2"/>
<text x="115.1" y="222.0">one/nio/http/HttpSession.processHttpBuffer</text>
</g>
<g>
<title>one/nio/http/HttpSession.handleParsedRequest (50 samples, 48.08%)</title><rect x="112.1" y="195.0" width="567.3" height="15" fill="#51e251" rx="2" ry="2"/>
<text x="115.1" y="206.0">one/nio/http/HttpSession.handleParsedRequest</text>
</g>
<g>
<title>one/nio/http/HttpServer.handleRequest (50 samples, 48.08%)</title><rect x="112.1" y="179.0" width="567.3" height="15" fill="#6afb6a" rx="2" ry="2"/>
<text x="115.1" y="190.0">one/nio/http/HttpServer.handleRequest</text>
</g>
<g>
<title>RequestHandler1_entity.handleRequest (47 samples, 45.19%)</title><rect x="112.1" y="163.0" width="533.3" height="15" fill="#65f665" rx="2" ry="2"/>
<text x="115.1" y="174.0">RequestHandler1_entity.handleRequest</text>
</g>
<g>
<title>one/nio/http/HttpSession.sendResponse (17 samples, 16.35%)</title><rect x="112.1" y="147.0" width="192.9" height="15" fill="#65f665" rx="2" ry="2"/>
<text x="115.1" y="158.0">one/nio/http/HttpSession...</text>
</g>
<g>
<title>one/nio/http/HttpSession.writeResponse (17 samples, 16.35%)</title><rect x="112.1" y="131.0" width="192.9" height="15" fill="#5ced5c" rx="2" ry="2"/>
<text x="115.1" y="142.0">one/nio/http/HttpSession...</text>
</g>
<g>
<title>one/nio/http/Response.toBytes (8 samples, 7.69%)</title><rect x="112.1" y="115.0" width="90.8" height="15" fill="#52e352" rx="2" ry="2"/>
<text x="115.1" y="126.0">one/nio/ht..</text>
</g>
<g>
<title>one/nio/util/ByteArrayBuilder.&lt;init&gt; (8 samples, 7.69%)</title><rect x="112.1" y="99.0" width="90.8" height="15" fill="#5dee5d" rx="2" ry="2"/>
<text x="115.1" y="110.0">one/nio/ut..</text>
</g>
<g>
<title>byte[] (8 samples, 7.69%)</title><rect x="112.1" y="83.0" width="90.8" height="15" fill="#50bebe" rx="2" ry="2"/>
<text x="115.1" y="94.0">byte[]</text>
</g>
<g>
<title>one/nio/net/Session.write (9 samples, 8.65%)</title><rect x="202.9" y="115.0" width="102.1" height="15" fill="#50e150" rx="2" ry="2"/>
<text x="205.9" y="126.0">one/nio/net/..</text>
</g>
<g>
<title>one.nio.net.Session$ArrayQueueItem (4 samples, 3.85%)</title><rect x="202.9" y="99.0" width="45.4" height="15" fill="#52c0c0" rx="2" ry="2"/>
<text x="205.9" y="110.0">one...</text>
</g>
<g>
<title>one/nio/net/Session.write (5 samples, 4.81%)</title><rect x="248.3" y="99.0" width="56.7" height="15" fill="#62f362" rx="2" ry="2"/>
<text x="251.3" y="110.0">one/ni..</text>
</g>
<g>
<title>one/nio/net/Session$ArrayQueueItem.write (5 samples, 4.81%)</title><rect x="248.3" y="83.0" width="56.7" height="15" fill="#53e453" rx="2" ry="2"/>
<text x="251.3" y="94.0">one/ni..</text>
</g>
<g>
<title>one/nio/net/JavaSocket.write (5 samples, 4.81%)</title><rect x="248.3" y="67.0" width="56.7" height="15" fill="#57e857" rx="2" ry="2"/>
<text x="251.3" y="78.0">one/ni..</text>
</g>
<g>
<title>java/nio/ByteBuffer.wrap (5 samples, 4.81%)</title><rect x="248.3" y="51.0" width="56.7" height="15" fill="#5ced5c" rx="2" ry="2"/>
<text x="251.3" y="62.0">java/n..</text>
</g>
<g>
<title>java.nio.HeapByteBuffer (5 samples, 4.81%)</title><rect x="248.3" y="35.0" width="56.7" height="15" fill="#57c5c5" rx="2" ry="2"/>
<text x="251.3" y="46.0">java.n..</text>
</g>
<g>
<title>one/nio/http/Request.getRequiredParameter (4 samples, 3.85%)</title><rect x="305.0" y="147.0" width="45.4" height="15" fill="#67f867" rx="2" ry="2"/>
<text x="308.0" y="158.0">one/..</text>
</g>
<g>
<title>one/nio/http/Request.getParameter (4 samples, 3.85%)</title><rect x="305.0" y="131.0" width="45.4" height="15" fill="#5ff05f" rx="2" ry="2"/>
<text x="308.0" y="142.0">one/..</text>
</g>
<g>
<title>java/lang/String.substring (4 samples, 3.85%)</title><rect x="305.0" y="115.0" width="45.4" height="15" fill="#6afb6a" rx="2" ry="2"/>
<text x="308.0" y="126.0">java..</text>
</g>
<g>
<title>java/lang/StringLatin1.newString (4 samples, 3.85%)</title><rect x="305.0" y="99.0" width="45.4" height="15" fill="#5dee5d" rx="2" ry="2"/>
<text x="308.0" y="110.0">java..</text>
</g>
<g>
<title>java/util/Arrays.copyOfRange (4 samples, 3.85%)</title><rect x="305.0" y="83.0" width="45.4" height="15" fill="#57e857" rx="2" ry="2"/>
<text x="308.0" y="94.0">java..</text>
</g>
<g>
<title>byte[] (4 samples, 3.85%)</title><rect x="305.0" y="67.0" width="45.4" height="15" fill="#69d7d7" rx="2" ry="2"/>
<text x="308.0" y="78.0">byte[]</text>
</g>
<g>
<title>ru/mail/polis/service/kuzoliza/MyService.entity (26 samples, 25.00%)</title><rect x="350.4" y="147.0" width="295.0" height="15" fill="#67f867" rx="2" ry="2"/>
<text x="353.4" y="158.0">ru/mail/polis/service/kuzoliza/MyService..</text>
</g>
<g>
<title>java/lang/String.getBytes (4 samples, 3.85%)</title><rect x="350.4" y="131.0" width="45.4" height="15" fill="#62f362" rx="2" ry="2"/>
<text x="353.4" y="142.0">java..</text>
</g>
<g>
<title>java/lang/StringCoding.encode (4 samples, 3.85%)</title><rect x="350.4" y="115.0" width="45.4" height="15" fill="#61f261" rx="2" ry="2"/>
<text x="353.4" y="126.0">java..</text>
</g>
<g>
<title>java/lang/StringCoding.encodeUTF8 (4 samples, 3.85%)</title><rect x="350.4" y="99.0" width="45.4" height="15" fill="#6cfd6c" rx="2" ry="2"/>
<text x="353.4" y="110.0">java..</text>
</g>
<g>
<title>java/util/Arrays.copyOf (4 samples, 3.85%)</title><rect x="350.4" y="83.0" width="45.4" height="15" fill="#50e150" rx="2" ry="2"/>
<text x="353.4" y="94.0">java..</text>
</g>
<g>
<title>byte[] (4 samples, 3.85%)</title><rect x="350.4" y="67.0" width="45.4" height="15" fill="#59c7c7" rx="2" ry="2"/>
<text x="353.4" y="78.0">byte[]</text>
</g>
<g>
<title>java/nio/ByteBuffer.wrap (1 samples, 0.96%)</title><rect x="395.8" y="131.0" width="11.3" height="15" fill="#5ff05f" rx="2" ry="2"/>
<text x="398.8" y="142.0"></text>
</g>
<g>
<title>java/nio/ByteBuffer.wrap (1 samples, 0.96%)</title><rect x="395.8" y="115.0" width="11.3" height="15" fill="#5dee5d" rx="2" ry="2"/>
<text x="398.8" y="126.0"></text>
</g>
<g>
<title>java.nio.HeapByteBuffer (1 samples, 0.96%)</title><rect x="395.8" y="99.0" width="11.3" height="15" fill="#67d5d5" rx="2" ry="2"/>
<text x="398.8" y="110.0"></text>
</g>
<g>
<title>ru/mail/polis/service/kuzoliza/MyService.response (21 samples, 20.19%)</title><rect x="407.1" y="131.0" width="238.3" height="15" fill="#53e453" rx="2" ry="2"/>
<text x="410.1" y="142.0">ru/mail/polis/service/kuzoliza/M..</text>
</g>
<g>
<title>java/nio/ByteBuffer.wrap (3 samples, 2.88%)</title><rect x="407.1" y="115.0" width="34.1" height="15" fill="#5dee5d" rx="2" ry="2"/>
<text x="410.1" y="126.0">ja..</text>
</g>
<g>
<title>java/nio/ByteBuffer.wrap (3 samples, 2.88%)</title><rect x="407.1" y="99.0" width="34.1" height="15" fill="#6bfc6b" rx="2" ry="2"/>
<text x="410.1" y="110.0">ja..</text>
</g>
<g>
<title>java.nio.HeapByteBuffer (3 samples, 2.88%)</title><rect x="407.1" y="83.0" width="34.1" height="15" fill="#6ad8d8" rx="2" ry="2"/>
<text x="410.1" y="94.0">ja..</text>
</g>
<g>
<title>one.nio.http.Response (2 samples, 1.92%)</title><rect x="441.2" y="115.0" width="22.6" height="15" fill="#6ad8d8" rx="2" ry="2"/>
<text x="444.2" y="126.0">o..</text>
</g>
<g>
<title>one/nio/http/Response.&lt;init&gt; (5 samples, 4.81%)</title><rect x="463.8" y="115.0" width="56.8" height="15" fill="#60f160" rx="2" ry="2"/>
<text x="466.8" y="126.0">one/ni..</text>
</g>
<g>
<title>byte[] (4 samples, 3.85%)</title><rect x="463.8" y="99.0" width="45.4" height="15" fill="#67d5d5" rx="2" ry="2"/>
<text x="466.8" y="110.0">byte[]</text>
</g>
<g>
<title>java.lang.String[] (1 samples, 0.96%)</title><rect x="509.2" y="99.0" width="11.4" height="15" fill="#59c7c7" rx="2" ry="2"/>
<text x="512.2" y="110.0"></text>
</g>
<g>
<title>ru/mail/polis/dao/kuzoliza/LSM.upsert (11 samples, 10.58%)</title><rect x="520.6" y="115.0" width="124.8" height="15" fill="#69fa69" rx="2" ry="2"/>
<text x="523.6" y="126.0">ru/mail/polis/d..</text>
</g>
<g>
<title>ru/mail/polis/dao/kuzoliza/MemTable.upsert (11 samples, 10.58%)</title><rect x="520.6" y="99.0" width="124.8" height="15" fill="#5eef5e" rx="2" ry="2"/>
<text x="523.6" y="110.0">ru/mail/polis/d..</text>
</g>
<g>
<title>java/nio/HeapByteBuffer.duplicate (6 samples, 5.77%)</title><rect x="520.6" y="83.0" width="68.1" height="15" fill="#5bec5b" rx="2" ry="2"/>
<text x="523.6" y="94.0">java/ni..</text>
</g>
<g>
<title>java.nio.HeapByteBuffer (6 samples, 5.77%)</title><rect x="520.6" y="67.0" width="68.1" height="15" fill="#64d2d2" rx="2" ry="2"/>
<text x="523.6" y="78.0">java.ni..</text>
</g>
<g>
<title>ru.mail.polis.dao.kuzoliza.Value (5 samples, 4.81%)</title><rect x="588.7" y="83.0" width="56.7" height="15" fill="#57c5c5" rx="2" ry="2"/>
<text x="591.7" y="94.0">ru.mai..</text>
</g>
<g>
<title>one/nio/http/Request.getPath (3 samples, 2.88%)</title><rect x="645.4" y="163.0" width="34.0" height="15" fill="#56e756" rx="2" ry="2"/>
<text x="648.4" y="174.0">on..</text>
</g>
<g>
<title>java/lang/String.substring (3 samples, 2.88%)</title><rect x="645.4" y="147.0" width="34.0" height="15" fill="#60f160" rx="2" ry="2"/>
<text x="648.4" y="158.0">ja..</text>
</g>
<g>
<title>java/lang/StringLatin1.newString (3 samples, 2.88%)</title><rect x="645.4" y="131.0" width="34.0" height="15" fill="#65f665" rx="2" ry="2"/>
<text x="648.4" y="142.0">ja..</text>
</g>
<g>
<title>java.lang.String (1 samples, 0.96%)</title><rect x="645.4" y="115.0" width="11.3" height="15" fill="#6bd9d9" rx="2" ry="2"/>
<text x="648.4" y="126.0"></text>
</g>
<g>
<title>java/util/Arrays.copyOfRange (2 samples, 1.92%)</title><rect x="656.7" y="115.0" width="22.7" height="15" fill="#63f463" rx="2" ry="2"/>
<text x="659.7" y="126.0">j..</text>
</g>
<g>
<title>byte[] (2 samples, 1.92%)</title><rect x="656.7" y="99.0" width="22.7" height="15" fill="#55c3c3" rx="2" ry="2"/>
<text x="659.7" y="110.0">b..</text>
</g>
<g>
<title>one/nio/http/HttpSession.parseRequest (18 samples, 17.31%)</title><rect x="679.4" y="195.0" width="204.3" height="15" fill="#61f261" rx="2" ry="2"/>
<text x="682.4" y="206.0">one/nio/http/HttpSession.pa..</text>
</g>
<g>
<title>one.nio.http.Request (6 samples, 5.77%)</title><rect x="679.4" y="179.0" width="68.1" height="15" fill="#52c0c0" rx="2" ry="2"/>
<text x="682.4" y="190.0">one.nio..</text>
</g>
<g>
<title>one/nio/http/Request.&lt;init&gt; (6 samples, 5.77%)</title><rect x="747.5" y="179.0" width="68.1" height="15" fill="#58e958" rx="2" ry="2"/>
<text x="750.5" y="190.0">one/nio..</text>
</g>
<g>
<title>java.lang.String[] (6 samples, 5.77%)</title><rect x="747.5" y="163.0" width="68.1" height="15" fill="#66d4d4" rx="2" ry="2"/>
<text x="750.5" y="174.0">java.la..</text>
</g>
<g>
<title>one/nio/util/Utf8.read (6 samples, 5.77%)</title><rect x="815.6" y="179.0" width="68.1" height="15" fill="#67f867" rx="2" ry="2"/>
<text x="818.6" y="190.0">one/nio..</text>
</g>
<g>
<title>one/nio/util/Utf8.read (6 samples, 5.77%)</title><rect x="815.6" y="163.0" width="68.1" height="15" fill="#6cfd6c" rx="2" ry="2"/>
<text x="818.6" y="174.0">one/nio..</text>
</g>
<g>
<title>char[] (5 samples, 4.81%)</title><rect x="815.6" y="147.0" width="56.7" height="15" fill="#52c0c0" rx="2" ry="2"/>
<text x="818.6" y="158.0">char[]</text>
</g>
<g>
<title>java.lang.String (1 samples, 0.96%)</title><rect x="872.3" y="147.0" width="11.4" height="15" fill="#51bfbf" rx="2" ry="2"/>
<text x="875.3" y="158.0"></text>
</g>
<g>
<title>one/nio/http/HttpSession.startParsingRequestBody (5 samples, 4.81%)</title><rect x="883.7" y="195.0" width="56.7" height="15" fill="#53e453" rx="2" ry="2"/>
<text x="886.7" y="206.0">one/ni..</text>
</g>
<g>
<title>byte[] (5 samples, 4.81%)</title><rect x="883.7" y="179.0" width="56.7" height="15" fill="#68d6d6" rx="2" ry="2"/>
<text x="886.7" y="190.0">byte[]</text>
</g>
<g>
<title>one/nio/http/Request.getHeader (3 samples, 2.88%)</title><rect x="940.4" y="195.0" width="34.0" height="15" fill="#59ea59" rx="2" ry="2"/>
<text x="943.4" y="206.0">on..</text>
</g>
<g>
<title>java/lang/String.substring (3 samples, 2.88%)</title><rect x="940.4" y="179.0" width="34.0" height="15" fill="#5eef5e" rx="2" ry="2"/>
<text x="943.4" y="190.0">ja..</text>
</g>
<g>
<title>java/lang/StringLatin1.newString (3 samples, 2.88%)</title><rect x="940.4" y="163.0" width="34.0" height="15" fill="#5ced5c" rx="2" ry="2"/>
<text x="943.4" y="174.0">ja..</text>
</g>
<g>
<title>java/util/Arrays.copyOfRange (3 samples, 2.88%)</title><rect x="940.4" y="147.0" width="34.0" height="15" fill="#5bec5b" rx="2" ry="2"/>
<text x="943.4" y="158.0">ja..</text>
</g>
<g>
<title>byte[] (3 samples, 2.88%)</title><rect x="940.4" y="131.0" width="34.0" height="15" fill="#67d5d5" rx="2" ry="2"/>
<text x="943.4" y="142.0">by..</text>
</g>
<g>
<title>one/nio/util/Utf8.read (17 samples, 16.35%)</title><rect x="974.4" y="195.0" width="192.9" height="15" fill="#6afb6a" rx="2" ry="2"/>
<text x="977.4" y="206.0">one/nio/util/Utf8.read</text>
</g>
<g>
<title>one/nio/util/Utf8.read (17 samples, 16.35%)</title><rect x="974.4" y="179.0" width="192.9" height="15" fill="#54e554" rx="2" ry="2"/>
<text x="977.4" y="190.0">one/nio/util/Utf8.read</text>
</g>
<g>
<title>char[] (6 samples, 5.77%)</title><rect x="974.4" y="163.0" width="68.1" height="15" fill="#50bebe" rx="2" ry="2"/>
<text x="977.4" y="174.0">char[]</text>
</g>
<g>
<title>java.lang.String (7 samples, 6.73%)</title><rect x="1042.5" y="163.0" width="79.4" height="15" fill="#59c7c7" rx="2" ry="2"/>
<text x="1045.5" y="174.0">java.lang..</text>
</g>
<g>
<title>java/lang/String.&lt;init&gt; (4 samples, 3.85%)</title><rect x="1121.9" y="163.0" width="45.4" height="15" fill="#5ced5c" rx="2" ry="2"/>
<text x="1124.9" y="174.0">java..</text>
</g>
<g>
<title>java/lang/String.&lt;init&gt; (4 samples, 3.85%)</title><rect x="1121.9" y="147.0" width="45.4" height="15" fill="#5bec5b" rx="2" ry="2"/>
<text x="1124.9" y="158.0">java..</text>
</g>
<g>
<title>java/lang/StringUTF16.compress (4 samples, 3.85%)</title><rect x="1121.9" y="131.0" width="45.4" height="15" fill="#55e655" rx="2" ry="2"/>
<text x="1124.9" y="142.0">java..</text>
</g>
<g>
<title>byte[] (4 samples, 3.85%)</title><rect x="1121.9" y="115.0" width="45.4" height="15" fill="#5dcbcb" rx="2" ry="2"/>
<text x="1124.9" y="126.0">byte[]</text>
</g>
<g>
<title>one/nio/net/Session.read (2 samples, 1.92%)</title><rect x="1167.3" y="211.0" width="22.7" height="15" fill="#6cfd6c" rx="2" ry="2"/>
<text x="1170.3" y="222.0">o..</text>
</g>
<g>
<title>one/nio/net/JavaSocket.read (2 samples, 1.92%)</title><rect x="1167.3" y="195.0" width="22.7" height="15" fill="#63f463" rx="2" ry="2"/>
<text x="1170.3" y="206.0">o..</text>
</g>
<g>
<title>java/nio/ByteBuffer.wrap (2 samples, 1.92%)</title><rect x="1167.3" y="179.0" width="22.7" height="15" fill="#56e756" rx="2" ry="2"/>
<text x="1170.3" y="190.0">j..</text>
</g>
<g>
<title>java.nio.HeapByteBuffer (2 samples, 1.92%)</title><rect x="1167.3" y="163.0" width="22.7" height="15" fill="#57c5c5" rx="2" ry="2"/>
<text x="1170.3" y="174.0">j..</text>
</g>
</g>
</svg>
