<?xml version="1.0" standalone="no"?>
<!DOCTYPE svg PUBLIC "-//W3C//DTD SVG 1.1//EN" "http://www.w3.org/Graphics/SVG/1.1/DTD/svg11.dtd">
<svg version="1.1" width="1200" height="406" onload="init(evt)" viewBox="0 0 1200 406" xmlns="http://www.w3.org/2000/svg" xmlns:xlink="http://www.w3.org/1999/xlink">
<style type="text/css">
	text { font-family:Verdana; font-size:12px; fill:rgb(0,0,0); }
	#search { opacity:0.1; cursor:pointer; }
	#search:hover, #search.show { opacity:1; }
	#subtitle { text-anchor:middle; font-color:rgb(160,160,160); }
	#title { text-anchor:middle; font-size:17px}
	#unzoom { cursor:pointer; }
	#frames > *:hover { stroke:black; stroke-width:0.5; cursor:pointer; }
	.hide { display:none; }
	.parent { opacity:0.5; }
</style>
<script type="text/ecmascript">
<![CDATA[
	"use strict";
	var details, searchbtn, unzoombtn, matchedtxt, svg, searching;
	function init(evt) {
		details = document.getElementById("details").firstChild;
		searchbtn = document.getElementById("search");
		unzoombtn = document.getElementById("unzoom");
		matchedtxt = document.getElementById("matched");
		svg = document.getElementsByTagName("svg")[0];
		searching = 0;
	}

	window.addEventListener("click", function(e) {
		var target = find_group(e.target);
		if (target) {
			if (target.nodeName == "a") {
				if (e.ctrlKey === false) return;
				e.preventDefault();
			}
			if (target.classList.contains("parent")) unzoom();
			zoom(target);
		}
		else if (e.target.id == "unzoom") unzoom();
		else if (e.target.id == "search") search_prompt();
	}, false)

	// mouse-over for info
	// show
	window.addEventListener("mouseover", function(e) {
		var target = find_group(e.target);
		if (target) details.nodeValue = "Function: " + g_to_text(target);
	}, false)

	// clear
	window.addEventListener("mouseout", function(e) {
		var target = find_group(e.target);
		if (target) details.nodeValue = ' ';
	}, false)

	// ctrl-F for search
	window.addEventListener("keydown",function (e) {
		if (e.keyCode === 114 || (e.ctrlKey && e.keyCode === 70)) {
			e.preventDefault();
			search_prompt();
		}
	}, false)

	// functions
	function find_child(node, selector) {
		var children = node.querySelectorAll(selector);
		if (children.length) return children[0];
		return;
	}
	function find_group(node) {
		var parent = node.parentElement;
		if (!parent) return;
		if (parent.id == "frames") return node;
		return find_group(parent);
	}
	function orig_save(e, attr, val) {
		if (e.attributes["_orig_" + attr] != undefined) return;
		if (e.attributes[attr] == undefined) return;
		if (val == undefined) val = e.attributes[attr].value;
		e.setAttribute("_orig_" + attr, val);
	}
	function orig_load(e, attr) {
		if (e.attributes["_orig_"+attr] == undefined) return;
		e.attributes[attr].value = e.attributes["_orig_" + attr].value;
		e.removeAttribute("_orig_"+attr);
	}
	function g_to_text(e) {
		var text = find_child(e, "title").firstChild.nodeValue;
		return (text)
	}
	function g_to_func(e) {
		var func = g_to_text(e);
		// if there's any manipulation we want to do to the function
		// name before it's searched, do it here before returning.
		return (func);
	}
	function update_text(e) {
		var r = find_child(e, "rect");
		var t = find_child(e, "text");
		var w = parseFloat(r.attributes.width.value) -3;
		var txt = find_child(e, "title").textContent.replace(/\([^(]*\)$/,"");
		t.attributes.x.value = parseFloat(r.attributes.x.value) + 3;

		// Smaller than this size won't fit anything
		if (w < 2 * 12 * 0.59) {
			t.textContent = "";
			return;
		}

		t.textContent = txt;
		// Fit in full text width
		if (/^ *$/.test(txt) || t.getSubStringLength(0, txt.length) < w)
			return;

		for (var x = txt.length - 2; x > 0; x--) {
			if (t.getSubStringLength(0, x + 2) <= w) {
				t.textContent = txt.substring(0, x) + "..";
				return;
			}
		}
		t.textContent = "";
	}

	// zoom
	function zoom_reset(e) {
		if (e.attributes != undefined) {
			orig_load(e, "x");
			orig_load(e, "width");
		}
		if (e.childNodes == undefined) return;
		for (var i = 0, c = e.childNodes; i < c.length; i++) {
			zoom_reset(c[i]);
		}
	}
	function zoom_child(e, x, ratio) {
		if (e.attributes != undefined) {
			if (e.attributes.x != undefined) {
				orig_save(e, "x");
				e.attributes.x.value = (parseFloat(e.attributes.x.value) - x - 10) * ratio + 10;
				if (e.tagName == "text")
					e.attributes.x.value = find_child(e.parentNode, "rect[x]").attributes.x.value + 3;
			}
			if (e.attributes.width != undefined) {
				orig_save(e, "width");
				e.attributes.width.value = parseFloat(e.attributes.width.value) * ratio;
			}
		}

		if (e.childNodes == undefined) return;
		for (var i = 0, c = e.childNodes; i < c.length; i++) {
			zoom_child(c[i], x - 10, ratio);
		}
	}
	function zoom_parent(e) {
		if (e.attributes) {
			if (e.attributes.x != undefined) {
				orig_save(e, "x");
				e.attributes.x.value = 10;
			}
			if (e.attributes.width != undefined) {
				orig_save(e, "width");
				e.attributes.width.value = parseInt(svg.width.baseVal.value) - (10 * 2);
			}
		}
		if (e.childNodes == undefined) return;
		for (var i = 0, c = e.childNodes; i < c.length; i++) {
			zoom_parent(c[i]);
		}
	}
	function zoom(node) {
		var attr = find_child(node, "rect").attributes;
		var width = parseFloat(attr.width.value);
		var xmin = parseFloat(attr.x.value);
		var xmax = parseFloat(xmin + width);
		var ymin = parseFloat(attr.y.value);
		var ratio = (svg.width.baseVal.value - 2 * 10) / width;

		// XXX: Workaround for JavaScript float issues (fix me)
		var fudge = 0.0001;

		unzoombtn.classList.remove("hide");

		var el = document.getElementById("frames").children;
		for (var i = 0; i < el.length; i++) {
			var e = el[i];
			var a = find_child(e, "rect").attributes;
			var ex = parseFloat(a.x.value);
			var ew = parseFloat(a.width.value);
			var upstack;
			// Is it an ancestor
			if (0 == 0) {
				upstack = parseFloat(a.y.value) > ymin;
			} else {
				upstack = parseFloat(a.y.value) < ymin;
			}
			if (upstack) {
				// Direct ancestor
				if (ex <= xmin && (ex+ew+fudge) >= xmax) {
					e.classList.add("parent");
					zoom_parent(e);
					update_text(e);
				}
				// not in current path
				else
					e.classList.add("hide");
			}
			// Children maybe
			else {
				// no common path
				if (ex < xmin || ex + fudge >= xmax) {
					e.classList.add("hide");
				}
				else {
					zoom_child(e, xmin, ratio);
					update_text(e);
				}
			}
		}
	}
	function unzoom() {
		unzoombtn.classList.add("hide");
		var el = document.getElementById("frames").children;
		for(var i = 0; i < el.length; i++) {
			el[i].classList.remove("parent");
			el[i].classList.remove("hide");
			zoom_reset(el[i]);
			update_text(el[i]);
		}
	}

	// search
	function reset_search() {
		var el = document.querySelectorAll("#frames rect");
		for (var i = 0; i < el.length; i++) {
			orig_load(el[i], "fill")
		}
	}
	function search_prompt() {
		if (!searching) {
			var term = prompt("Enter a search term (regexp " +
			    "allowed, eg: ^ext4_)", "");
			if (term != null) {
				search(term)
			}
		} else {
			reset_search();
			searching = 0;
			searchbtn.classList.remove("show");
			searchbtn.firstChild.nodeValue = "Search"
			matchedtxt.classList.add("hide");
			matchedtxt.firstChild.nodeValue = ""
		}
	}
	function search(term) {
		var re = new RegExp(term);
		var el = document.getElementById("frames").children;
		var matches = new Object();
		var maxwidth = 0;
		for (var i = 0; i < el.length; i++) {
			var e = el[i];
			var func = g_to_func(e);
			var rect = find_child(e, "rect");
			if (func == null || rect == null)
				continue;

			// Save max width. Only works as we have a root frame
			var w = parseFloat(rect.attributes.width.value);
			if (w > maxwidth)
				maxwidth = w;

			if (func.match(re)) {
				// highlight
				var x = parseFloat(rect.attributes.x.value);
				orig_save(rect, "fill");
				rect.attributes.fill.value = "rgb(230,0,230)";

				// remember matches
				if (matches[x] == undefined) {
					matches[x] = w;
				} else {
					if (w > matches[x]) {
						// overwrite with parent
						matches[x] = w;
					}
				}
				searching = 1;
			}
		}
		if (!searching)
			return;

		searchbtn.classList.add("show");
		searchbtn.firstChild.nodeValue = "Reset Search";

		// calculate percent matched, excluding vertical overlap
		var count = 0;
		var lastx = -1;
		var lastw = 0;
		var keys = Array();
		for (k in matches) {
			if (matches.hasOwnProperty(k))
				keys.push(k);
		}
		// sort the matched frames by their x location
		// ascending, then width descending
		keys.sort(function(a, b){
			return a - b;
		});
		// Step through frames saving only the biggest bottom-up frames
		// thanks to the sort order. This relies on the tree property
		// where children are always smaller than their parents.
		var fudge = 0.0001;	// JavaScript floating point
		for (var k in keys) {
			var x = parseFloat(keys[k]);
			var w = matches[keys[k]];
			if (x >= lastx + lastw - fudge) {
				count += w;
				lastx = x;
				lastw = w;
			}
		}
		// display matched percent
		matchedtxt.classList.remove("hide");
		var pct = 100 * count / maxwidth;
		if (pct != 100) pct = pct.toFixed(1)
		matchedtxt.firstChild.nodeValue = "Matched: " + pct + "%";
	}
]]>
</script>
<rect x="0" y="0" width="100%" height="100%" fill="rgb(240,240,220)"/>
<text id="title" x="600" y="24">Flame Graph</text>
<text id="details" x="10" y="389"> </text>
<text id="unzoom" x="10" y="24" class="hide">Reset Zoom</text>
<text id="search" x="1090" y="24">Search</text>
<text id="matched" x="1090" y="389"> </text>
<g id="frames">
<g>
<title>all (76 samples, 100.00%)</title><rect x="10.0" y="355.0" width="1180.0" height="15" fill="#e56060" rx="2" ry="2"/>
<text x="13.0" y="366.0">all</text>
</g>
<g>
<title>one/nio/server/SelectorThread.run (65 samples, 85.53%)</title><rect x="10.0" y="339.0" width="1009.2" height="15" fill="#69fa69" rx="2" ry="2"/>
<text x="13.0" y="350.0">one/nio/server/SelectorThread.run</text>
</g>
<g>
<title>one/nio/net/JavaSelector.select (39 samples, 51.32%)</title><rect x="25.5" y="323.0" width="605.6" height="15" fill="#68f968" rx="2" ry="2"/>
<text x="28.5" y="334.0">one/nio/net/JavaSelector.select</text>
</g>
<g>
<title>one/nio/net/JavaSelector.registerPendingSessions (1 samples, 1.32%)</title><rect x="25.5" y="307.0" width="15.6" height="15" fill="#5eef5e" rx="2" ry="2"/>
<text x="28.5" y="318.0"></text>
</g>
<g>
<title>java/util/concurrent/ConcurrentLinkedQueue.poll (1 samples, 1.32%)</title><rect x="25.5" y="291.0" width="15.6" height="15" fill="#50e150" rx="2" ry="2"/>
<text x="28.5" y="302.0"></text>
</g>
<g>
<title>sun/nio/ch/SelectorImpl.select (38 samples, 50.00%)</title><rect x="41.1" y="307.0" width="590.0" height="15" fill="#60f160" rx="2" ry="2"/>
<text x="44.1" y="318.0">sun/nio/ch/SelectorImpl.select</text>
</g>
<g>
<title>sun/nio/ch/SelectorImpl.lockAndDoSelect (38 samples, 50.00%)</title><rect x="41.1" y="291.0" width="590.0" height="15" fill="#51e251" rx="2" ry="2"/>
<text x="44.1" y="302.0">sun/nio/ch/SelectorImpl.lockAndDoSelect</text>
</g>
<g>
<title>sun/nio/ch/KQueueSelectorImpl.doSelect (38 samples, 50.00%)</title><rect x="41.1" y="275.0" width="590.0" height="15" fill="#62f362" rx="2" ry="2"/>
<text x="44.1" y="286.0">sun/nio/ch/KQueueSelectorImpl.doSelect</text>
</g>
<g>
<title>sun/nio/ch/KQueue.poll (33 samples, 43.42%)</title><rect x="41.1" y="259.0" width="512.3" height="15" fill="#64f564" rx="2" ry="2"/>
<text x="44.1" y="270.0">sun/nio/ch/KQueue.poll</text>
</g>
<g>
<title>kevent (31 samples, 40.79%)</title><rect x="72.1" y="243.0" width="481.3" height="15" fill="#e25b5b" rx="2" ry="2"/>
<text x="75.1" y="254.0">kevent</text>
</g>
<g>
<title>sun/nio/ch/KQueueSelectorImpl.processEvents (2 samples, 2.63%)</title><rect x="553.4" y="259.0" width="31.1" height="15" fill="#55e655" rx="2" ry="2"/>
<text x="556.4" y="270.0">su..</text>
</g>
<g>
<title>java/util/HashMap.get (1 samples, 1.32%)</title><rect x="553.4" y="243.0" width="15.5" height="15" fill="#51e251" rx="2" ry="2"/>
<text x="556.4" y="254.0"></text>
</g>
<g>
<title>java/util/HashMap.getNode (1 samples, 1.32%)</title><rect x="553.4" y="227.0" width="15.5" height="15" fill="#62f362" rx="2" ry="2"/>
<text x="556.4" y="238.0"></text>
</g>
<g>
<title>sun/nio/ch/SelectorImpl.processReadyEvents (1 samples, 1.32%)</title><rect x="568.9" y="243.0" width="15.6" height="15" fill="#63f463" rx="2" ry="2"/>
<text x="571.9" y="254.0"></text>
</g>
<g>
<title>sun/nio/ch/SelectionKeyImpl.translateAndSetReadyOps (1 samples, 1.32%)</title><rect x="568.9" y="227.0" width="15.6" height="15" fill="#5ff05f" rx="2" ry="2"/>
<text x="571.9" y="238.0"></text>
</g>
<g>
<title>sun/nio/ch/SelectorImpl.begin (2 samples, 2.63%)</title><rect x="584.5" y="259.0" width="31.0" height="15" fill="#69fa69" rx="2" ry="2"/>
<text x="587.5" y="270.0">su..</text>
</g>
<g>
<title>java/nio/channels/spi/AbstractSelector.begin (2 samples, 2.63%)</title><rect x="584.5" y="243.0" width="31.0" height="15" fill="#58e958" rx="2" ry="2"/>
<text x="587.5" y="254.0">ja..</text>
</g>
<g>
<title>java/nio/channels/spi/AbstractInterruptibleChannel.blockedOn (2 samples, 2.63%)</title><rect x="584.5" y="227.0" width="31.0" height="15" fill="#58e958" rx="2" ry="2"/>
<text x="587.5" y="238.0">ja..</text>
</g>
<g>
<title>java/lang/System$2.blockedOn (2 samples, 2.63%)</title><rect x="584.5" y="211.0" width="31.0" height="15" fill="#6afb6a" rx="2" ry="2"/>
<text x="587.5" y="222.0">ja..</text>
</g>
<g>
<title>java/lang/Thread.blockedOn (2 samples, 2.63%)</title><rect x="584.5" y="195.0" width="31.0" height="15" fill="#68f968" rx="2" ry="2"/>
<text x="587.5" y="206.0">ja..</text>
</g>
<g>
<title>sun/nio/ch/SelectorImpl.processDeregisterQueue (1 samples, 1.32%)</title><rect x="615.5" y="259.0" width="15.6" height="15" fill="#55e655" rx="2" ry="2"/>
<text x="618.5" y="270.0"></text>
</g>
<g>
<title>java/util/HashSet.iterator (1 samples, 1.32%)</title><rect x="615.5" y="243.0" width="15.6" height="15" fill="#6bfc6b" rx="2" ry="2"/>
<text x="618.5" y="254.0"></text>
</g>
<g>
<title>java/util/HashMap.keySet (1 samples, 1.32%)</title><rect x="615.5" y="227.0" width="15.6" height="15" fill="#50e150" rx="2" ry="2"/>
<text x="618.5" y="238.0"></text>
</g>
<g>
<title>one/nio/net/Session.process (25 samples, 32.89%)</title><rect x="631.1" y="323.0" width="388.1" height="15" fill="#51e251" rx="2" ry="2"/>
<text x="634.1" y="334.0">one/nio/net/Session.process</text>
</g>
<g>
<title>one/nio/http/HttpSession.processRead (25 samples, 32.89%)</title><rect x="631.1" y="307.0" width="388.1" height="15" fill="#6cfd6c" rx="2" ry="2"/>
<text x="634.1" y="318.0">one/nio/http/HttpSession.processRead</text>
</g>
<g>
<title>one/nio/http/HttpSession.processHttpBuffer (17 samples, 22.37%)</title><rect x="631.1" y="291.0" width="263.9" height="15" fill="#6bfc6b" rx="2" ry="2"/>
<text x="634.1" y="302.0">one/nio/http/HttpSession.processHtt..</text>
</g>
<g>
<title>one/nio/http/HttpSession.handleParsedRequest (15 samples, 19.74%)</title><rect x="631.1" y="275.0" width="232.8" height="15" fill="#5ced5c" rx="2" ry="2"/>
<text x="634.1" y="286.0">one/nio/http/HttpSession.handle..</text>
</g>
<g>
<title>one/nio/http/HttpServer.handleRequest (15 samples, 19.74%)</title><rect x="631.1" y="259.0" width="232.8" height="15" fill="#5bec5b" rx="2" ry="2"/>
<text x="634.1" y="270.0">one/nio/http/HttpServer.handleR..</text>
</g>
<g>
<title>RequestHandler1_entity.handleRequest (15 samples, 19.74%)</title><rect x="631.1" y="243.0" width="232.8" height="15" fill="#5ced5c" rx="2" ry="2"/>
<text x="634.1" y="254.0">RequestHandler1_entity.handleRe..</text>
</g>
<g>
<title>one/nio/http/HttpSession.sendResponse (11 samples, 14.47%)</title><rect x="631.1" y="227.0" width="170.7" height="15" fill="#6dfe6d" rx="2" ry="2"/>
<text x="634.1" y="238.0">one/nio/http/HttpSessi..</text>
</g>
<g>
<title>one/nio/http/HttpSession.writeResponse (11 samples, 14.47%)</title><rect x="631.1" y="211.0" width="170.7" height="15" fill="#55e655" rx="2" ry="2"/>
<text x="634.1" y="222.0">one/nio/http/HttpSessi..</text>
</g>
<g>
<title>one/nio/net/Session.write (11 samples, 14.47%)</title><rect x="631.1" y="195.0" width="170.7" height="15" fill="#67f867" rx="2" ry="2"/>
<text x="634.1" y="206.0">one/nio/net/Session.wr..</text>
</g>
<g>
<title>one/nio/net/Session.write (11 samples, 14.47%)</title><rect x="631.1" y="179.0" width="170.7" height="15" fill="#60f160" rx="2" ry="2"/>
<text x="634.1" y="190.0">one/nio/net/Session.wr..</text>
</g>
<g>
<title>one/nio/net/Session$ArrayQueueItem.write (11 samples, 14.47%)</title><rect x="631.1" y="163.0" width="170.7" height="15" fill="#55e655" rx="2" ry="2"/>
<text x="634.1" y="174.0">one/nio/net/Session$Ar..</text>
</g>
<g>
<title>one/nio/net/JavaSocket.write (11 samples, 14.47%)</title><rect x="631.1" y="147.0" width="170.7" height="15" fill="#69fa69" rx="2" ry="2"/>
<text x="634.1" y="158.0">one/nio/net/JavaSocket..</text>
</g>
<g>
<title>sun/nio/ch/SocketChannelImpl.write (11 samples, 14.47%)</title><rect x="631.1" y="131.0" width="170.7" height="15" fill="#54e554" rx="2" ry="2"/>
<text x="634.1" y="142.0">sun/nio/ch/SocketChann..</text>
</g>
<g>
<title>sun/nio/ch/IOUtil.write (11 samples, 14.47%)</title><rect x="631.1" y="115.0" width="170.7" height="15" fill="#51e251" rx="2" ry="2"/>
<text x="634.1" y="126.0">sun/nio/ch/IOUtil.write</text>
</g>
<g>
<title>sun/nio/ch/IOUtil.write (11 samples, 14.47%)</title><rect x="631.1" y="99.0" width="170.7" height="15" fill="#63f463" rx="2" ry="2"/>
<text x="634.1" y="110.0">sun/nio/ch/IOUtil.write</text>
</g>
<g>
<title>sun/nio/ch/IOUtil.writeFromNativeBuffer (11 samples, 14.47%)</title><rect x="631.1" y="83.0" width="170.7" height="15" fill="#67f867" rx="2" ry="2"/>
<text x="634.1" y="94.0">sun/nio/ch/IOUtil.writ..</text>
</g>
<g>
<title>sun/nio/ch/SocketDispatcher.write (11 samples, 14.47%)</title><rect x="631.1" y="67.0" width="170.7" height="15" fill="#59ea59" rx="2" ry="2"/>
<text x="634.1" y="78.0">sun/nio/ch/SocketDispa..</text>
</g>
<g>
<title>sun/nio/ch/FileDispatcherImpl.write0 (11 samples, 14.47%)</title><rect x="631.1" y="51.0" width="170.7" height="15" fill="#5eef5e" rx="2" ry="2"/>
<text x="634.1" y="62.0">sun/nio/ch/FileDispatc..</text>
</g>
<g>
<title>write (11 samples, 14.47%)</title><rect x="631.1" y="35.0" width="170.7" height="15" fill="#e66161" rx="2" ry="2"/>
<text x="634.1" y="46.0">write</text>
</g>
<g>
<title>one/nio/http/Request.getRequiredParameter (1 samples, 1.32%)</title><rect x="801.8" y="227.0" width="15.6" height="15" fill="#66f766" rx="2" ry="2"/>
<text x="804.8" y="238.0"></text>
</g>
<g>
<title>one/nio/http/Request.getParameter (1 samples, 1.32%)</title><rect x="801.8" y="211.0" width="15.6" height="15" fill="#60f160" rx="2" ry="2"/>
<text x="804.8" y="222.0"></text>
</g>
<g>
<title>ru/mail/polis/service/kuzoliza/MyService.entity (3 samples, 3.95%)</title><rect x="817.4" y="227.0" width="46.5" height="15" fill="#67f867" rx="2" ry="2"/>
<text x="820.4" y="238.0">ru/m..</text>
</g>
<g>
<title>ru/mail/polis/service/kuzoliza/MyService.response (3 samples, 3.95%)</title><rect x="817.4" y="211.0" width="46.5" height="15" fill="#65f665" rx="2" ry="2"/>
<text x="820.4" y="222.0">ru/m..</text>
</g>
<g>
<title>ru/mail/polis/dao/kuzoliza/LSM.remove (3 samples, 3.95%)</title><rect x="817.4" y="195.0" width="46.5" height="15" fill="#6cfd6c" rx="2" ry="2"/>
<text x="820.4" y="206.0">ru/m..</text>
</g>
<g>
<title>ru/mail/polis/dao/kuzoliza/MemTable.remove (3 samples, 3.95%)</title><rect x="817.4" y="179.0" width="46.5" height="15" fill="#5bec5b" rx="2" ry="2"/>
<text x="820.4" y="190.0">ru/m..</text>
</g>
<g>
<title>java/util/TreeMap.put (3 samples, 3.95%)</title><rect x="817.4" y="163.0" width="46.5" height="15" fill="#67f867" rx="2" ry="2"/>
<text x="820.4" y="174.0">java..</text>
</g>
<g>
<title>java/nio/ByteBuffer.compareTo (1 samples, 1.32%)</title><rect x="848.4" y="147.0" width="15.5" height="15" fill="#55e655" rx="2" ry="2"/>
<text x="851.4" y="158.0"></text>
</g>
<g>
<title>java/nio/ByteBuffer.compareTo (1 samples, 1.32%)</title><rect x="848.4" y="131.0" width="15.5" height="15" fill="#57e857" rx="2" ry="2"/>
<text x="851.4" y="142.0"></text>
</g>
<g>
<title>one/nio/http/HttpSession.startParsingRequestBody (1 samples, 1.32%)</title><rect x="863.9" y="275.0" width="15.6" height="15" fill="#52e352" rx="2" ry="2"/>
<text x="866.9" y="286.0"></text>
</g>
<g>
<title>java/lang/Integer.parseInt (1 samples, 1.32%)</title><rect x="863.9" y="259.0" width="15.6" height="15" fill="#6afb6a" rx="2" ry="2"/>
<text x="866.9" y="270.0"></text>
</g>
<g>
<title>java/lang/Integer.parseInt (1 samples, 1.32%)</title><rect x="863.9" y="243.0" width="15.6" height="15" fill="#60f160" rx="2" ry="2"/>
<text x="866.9" y="254.0"></text>
</g>
<g>
<title>one/nio/http/Request.getHeader (1 samples, 1.32%)</title><rect x="879.5" y="275.0" width="15.5" height="15" fill="#5bec5b" rx="2" ry="2"/>
<text x="882.5" y="286.0"></text>
</g>
<g>
<title>one/nio/net/Session.read (8 samples, 10.53%)</title><rect x="895.0" y="291.0" width="124.2" height="15" fill="#51e251" rx="2" ry="2"/>
<text x="898.0" y="302.0">one/nio/net/Ses..</text>
</g>
<g>
<title>one/nio/net/JavaSocket.read (8 samples, 10.53%)</title><rect x="895.0" y="275.0" width="124.2" height="15" fill="#5ff05f" rx="2" ry="2"/>
<text x="898.0" y="286.0">one/nio/net/Jav..</text>
</g>
<g>
<title>sun/nio/ch/SocketChannelImpl.read (8 samples, 10.53%)</title><rect x="895.0" y="259.0" width="124.2" height="15" fill="#53e453" rx="2" ry="2"/>
<text x="898.0" y="270.0">sun/nio/ch/Sock..</text>
</g>
<g>
<title>sun/nio/ch/IOUtil.read (8 samples, 10.53%)</title><rect x="895.0" y="243.0" width="124.2" height="15" fill="#6cfd6c" rx="2" ry="2"/>
<text x="898.0" y="254.0">sun/nio/ch/IOUt..</text>
</g>
<g>
<title>sun/nio/ch/IOUtil.read (7 samples, 9.21%)</title><rect x="910.5" y="227.0" width="108.7" height="15" fill="#66f766" rx="2" ry="2"/>
<text x="913.5" y="238.0">sun/nio/ch/IO..</text>
</g>
<g>
<title>sun/nio/ch/IOUtil.readIntoNativeBuffer (7 samples, 9.21%)</title><rect x="910.5" y="211.0" width="108.7" height="15" fill="#68f968" rx="2" ry="2"/>
<text x="913.5" y="222.0">sun/nio/ch/IO..</text>
</g>
<g>
<title>sun/nio/ch/SocketDispatcher.read (7 samples, 9.21%)</title><rect x="910.5" y="195.0" width="108.7" height="15" fill="#5aeb5a" rx="2" ry="2"/>
<text x="913.5" y="206.0">sun/nio/ch/So..</text>
</g>
<g>
<title>sun/nio/ch/FileDispatcherImpl.read0 (6 samples, 7.89%)</title><rect x="926.1" y="179.0" width="93.1" height="15" fill="#53e453" rx="2" ry="2"/>
<text x="929.1" y="190.0">sun/nio/ch/..</text>
</g>
<g>
<title>Java_sun_nio_ch_FileDispatcherImpl_read0 (1 samples, 1.32%)</title><rect x="926.1" y="163.0" width="15.5" height="15" fill="#f27171" rx="2" ry="2"/>
<text x="929.1" y="174.0"></text>
</g>
<g>
<title>fdval (1 samples, 1.32%)</title><rect x="926.1" y="147.0" width="15.5" height="15" fill="#ed6a6a" rx="2" ry="2"/>
<text x="929.1" y="158.0"></text>
</g>
<g>
<title>read (5 samples, 6.58%)</title><rect x="941.6" y="163.0" width="77.6" height="15" fill="#f47373" rx="2" ry="2"/>
<text x="944.6" y="174.0">read</text>
</g>
<g>
<title>thread_start (11 samples, 14.47%)</title><rect x="1019.2" y="339.0" width="170.8" height="15" fill="#f47373" rx="2" ry="2"/>
<text x="1022.2" y="350.0">thread_start</text>
</g>
<g>
<title>_pthread_start (11 samples, 14.47%)</title><rect x="1019.2" y="323.0" width="170.8" height="15" fill="#e96565" rx="2" ry="2"/>
<text x="1022.2" y="334.0">_pthread_start</text>
</g>
<g>
<title>_pthread_body (11 samples, 14.47%)</title><rect x="1019.2" y="307.0" width="170.8" height="15" fill="#ee6c6c" rx="2" ry="2"/>
<text x="1022.2" y="318.0">_pthread_body</text>
</g>
<g>
<title>thread_native_entry(Thread*) (11 samples, 14.47%)</title><rect x="1019.2" y="291.0" width="170.8" height="15" fill="#e56060" rx="2" ry="2"/>
<text x="1022.2" y="302.0">thread_native_entry(Th..</text>
</g>
<g>
<title>Thread::call_run() (11 samples, 14.47%)</title><rect x="1019.2" y="275.0" width="170.8" height="15" fill="#d8d841" rx="2" ry="2"/>
<text x="1022.2" y="286.0">Thread::call_run()</text>
</g>
<g>
<title>ConcurrentGCThread::run() (1 samples, 1.32%)</title><rect x="1019.2" y="259.0" width="15.5" height="15" fill="#c9c93c" rx="2" ry="2"/>
<text x="1022.2" y="270.0"></text>
</g>
<g>
<title>G1YoungRemSetSamplingThread::run_service() (1 samples, 1.32%)</title><rect x="1019.2" y="243.0" width="15.5" height="15" fill="#d4d440" rx="2" ry="2"/>
<text x="1022.2" y="254.0"></text>
</g>
<g>
<title>G1YoungRemSetSamplingThread::sleep_before_next_cycle() (1 samples, 1.32%)</title><rect x="1019.2" y="227.0" width="15.5" height="15" fill="#caca3c" rx="2" ry="2"/>
<text x="1022.2" y="238.0"></text>
</g>
<g>
<title>Monitor::wait(bool, long, bool) (1 samples, 1.32%)</title><rect x="1019.2" y="211.0" width="15.5" height="15" fill="#cfcf3e" rx="2" ry="2"/>
<text x="1022.2" y="222.0"></text>
</g>
<g>
<title>Monitor::IWait(Thread*, long) (1 samples, 1.32%)</title><rect x="1019.2" y="195.0" width="15.5" height="15" fill="#e1e144" rx="2" ry="2"/>
<text x="1022.2" y="206.0"></text>
</g>
<g>
<title>os::PlatformEvent::park(long) (1 samples, 1.32%)</title><rect x="1019.2" y="179.0" width="15.5" height="15" fill="#c8c83c" rx="2" ry="2"/>
<text x="1022.2" y="190.0"></text>
</g>
<g>
<title>__psynch_cvwait (1 samples, 1.32%)</title><rect x="1019.2" y="163.0" width="15.5" height="15" fill="#ee6c6c" rx="2" ry="2"/>
<text x="1022.2" y="174.0"></text>
</g>
<g>
<title>GangWorker::loop() (4 samples, 5.26%)</title><rect x="1034.7" y="259.0" width="62.1" height="15" fill="#caca3c" rx="2" ry="2"/>
<text x="1037.7" y="270.0">GangWo..</text>
</g>
<g>
<title>G1ParTask::work(unsigned int) (4 samples, 5.26%)</title><rect x="1034.7" y="243.0" width="62.1" height="15" fill="#d7d741" rx="2" ry="2"/>
<text x="1037.7" y="254.0">G1ParT..</text>
</g>
<g>
<title>G1ParEvacuateFollowersClosure::do_void() (2 samples, 2.63%)</title><rect x="1034.7" y="227.0" width="31.1" height="15" fill="#dcdc42" rx="2" ry="2"/>
<text x="1037.7" y="238.0">G1..</text>
</g>
<g>
<title>SpinPause (2 samples, 2.63%)</title><rect x="1034.7" y="211.0" width="31.1" height="15" fill="#e76262" rx="2" ry="2"/>
<text x="1037.7" y="222.0">Sp..</text>
</g>
<g>
<title>G1RemSet::oops_into_collection_set_do(G1ParScanThreadState*, unsigned int) (2 samples, 2.63%)</title><rect x="1065.8" y="227.0" width="31.0" height="15" fill="#dddd43" rx="2" ry="2"/>
<text x="1068.8" y="238.0">G1..</text>
</g>
<g>
<title>G1RemSet::update_rem_set(G1ParScanThreadState*, unsigned int) (2 samples, 2.63%)</title><rect x="1065.8" y="211.0" width="31.0" height="15" fill="#dada42" rx="2" ry="2"/>
<text x="1068.8" y="222.0">G1..</text>
</g>
<g>
<title>G1CollectedHeap::iterate_dirty_card_closure(CardTableEntryClosure*, unsigned int) (2 samples, 2.63%)</title><rect x="1065.8" y="195.0" width="31.0" height="15" fill="#d8d841" rx="2" ry="2"/>
<text x="1068.8" y="206.0">G1..</text>
</g>
<g>
<title>DirtyCardQueueSet::apply_closure_to_completed_buffer(CardTableEntryClosure*, unsigned int, unsigned long, bool) (2 samples, 2.63%)</title><rect x="1065.8" y="179.0" width="31.0" height="15" fill="#c9c93c" rx="2" ry="2"/>
<text x="1068.8" y="190.0">Di..</text>
</g>
<g>
<title>G1RefineCardClosure::do_card_ptr(signed char*, unsigned int) (2 samples, 2.63%)</title><rect x="1065.8" y="163.0" width="31.0" height="15" fill="#cece3e" rx="2" ry="2"/>
<text x="1068.8" y="174.0">G1..</text>
</g>
<g>
<title>G1ParScanThreadState::trim_queue_to_threshold(unsigned int) (2 samples, 2.63%)</title><rect x="1065.8" y="147.0" width="31.0" height="15" fill="#dada42" rx="2" ry="2"/>
<text x="1068.8" y="158.0">G1..</text>
</g>
<g>
<title>void G1ParScanThreadState::do_oop_evac&lt;unsigned int&gt;(unsigned int*) (2 samples, 2.63%)</title><rect x="1065.8" y="131.0" width="31.0" height="15" fill="#e1e144" rx="2" ry="2"/>
<text x="1068.8" y="142.0">vo..</text>
</g>
<g>
<title>G1ParScanThreadState::copy_to_survivor_space(InCSetState, oopDesc*, markOopDesc*) (1 samples, 1.32%)</title><rect x="1081.3" y="115.0" width="15.5" height="15" fill="#cfcf3e" rx="2" ry="2"/>
<text x="1084.3" y="126.0"></text>
</g>
<g>
<title>Copy::pd_disjoint_words(HeapWord const*, HeapWord*, unsigned long) (1 samples, 1.32%)</title><rect x="1081.3" y="99.0" width="15.5" height="15" fill="#d9d941" rx="2" ry="2"/>
<text x="1084.3" y="110.0"></text>
</g>
<g>
<title>JavaThread::run() (2 samples, 2.63%)</title><rect x="1096.8" y="259.0" width="31.1" height="15" fill="#d2d23f" rx="2" ry="2"/>
<text x="1099.8" y="270.0">Ja..</text>
</g>
<g>
<title>JavaThread::thread_main_inner() (2 samples, 2.63%)</title><rect x="1096.8" y="243.0" width="31.1" height="15" fill="#dcdc42" rx="2" ry="2"/>
<text x="1099.8" y="254.0">Ja..</text>
</g>
<g>
<title>attach_listener_thread_entry(JavaThread*, Thread*) (2 samples, 2.63%)</title><rect x="1096.8" y="227.0" width="31.1" height="15" fill="#e56060" rx="2" ry="2"/>
<text x="1099.8" y="238.0">at..</text>
</g>
<g>
<title>load_agent(AttachOperation*, outputStream*) (2 samples, 2.63%)</title><rect x="1096.8" y="211.0" width="31.1" height="15" fill="#fb7d7d" rx="2" ry="2"/>
<text x="1099.8" y="222.0">lo..</text>
</g>
<g>
<title>JvmtiExport::load_agent_library(char const*, char const*, char const*, outputStream*) (2 samples, 2.63%)</title><rect x="1096.8" y="195.0" width="31.1" height="15" fill="#d3d33f" rx="2" ry="2"/>
<text x="1099.8" y="206.0">Jv..</text>
</g>
<g>
<title>Agent_OnAttach (2 samples, 2.63%)</title><rect x="1096.8" y="179.0" width="31.1" height="15" fill="#f37272" rx="2" ry="2"/>
<text x="1099.8" y="190.0">Ag..</text>
</g>
<g>
<title>Profiler::run(Arguments&amp;) (2 samples, 2.63%)</title><rect x="1096.8" y="163.0" width="31.1" height="15" fill="#dddd43" rx="2" ry="2"/>
<text x="1099.8" y="174.0">Pr..</text>
</g>
<g>
<title>rcmd_af.canonnamebuf (2 samples, 2.63%)</title><rect x="1096.8" y="147.0" width="31.1" height="15" fill="#fe8080" rx="2" ry="2"/>
<text x="1099.8" y="158.0">rc..</text>
</g>
<g>
<title>VMThread::run() (1 samples, 1.32%)</title><rect x="1127.9" y="259.0" width="15.5" height="15" fill="#dbdb42" rx="2" ry="2"/>
<text x="1130.9" y="270.0"></text>
</g>
<g>
<title>VMThread::loop() (1 samples, 1.32%)</title><rect x="1127.9" y="243.0" width="15.5" height="15" fill="#c9c93c" rx="2" ry="2"/>
<text x="1130.9" y="254.0"></text>
</g>
<g>
<title>SafepointSynchronize::begin() (1 samples, 1.32%)</title><rect x="1127.9" y="227.0" width="15.5" height="15" fill="#e1e144" rx="2" ry="2"/>
<text x="1130.9" y="238.0"></text>
</g>
<g>
<title>SafepointSynchronize::do_cleanup_tasks() (1 samples, 1.32%)</title><rect x="1127.9" y="211.0" width="15.5" height="15" fill="#dada42" rx="2" ry="2"/>
<text x="1130.9" y="222.0"></text>
</g>
<g>
<title>ObjectSynchronizer::finish_deflate_idle_monitors(DeflateMonitorCounters*) (1 samples, 1.32%)</title><rect x="1127.9" y="195.0" width="15.5" height="15" fill="#cccc3d" rx="2" ry="2"/>
<text x="1130.9" y="206.0"></text>
</g>
<g>
<title>WatcherThread::run() (3 samples, 3.95%)</title><rect x="1143.4" y="259.0" width="46.6" height="15" fill="#dddd43" rx="2" ry="2"/>
<text x="1146.4" y="270.0">Watc..</text>
</g>
<g>
<title>WatcherThread::sleep() const (3 samples, 3.95%)</title><rect x="1143.4" y="243.0" width="46.6" height="15" fill="#d5d540" rx="2" ry="2"/>
<text x="1146.4" y="254.0">Watc..</text>
</g>
<g>
<title>Monitor::wait(bool, long, bool) (3 samples, 3.95%)</title><rect x="1143.4" y="227.0" width="46.6" height="15" fill="#dada42" rx="2" ry="2"/>
<text x="1146.4" y="238.0">Moni..</text>
</g>
<g>
<title>Monitor::IWait(Thread*, long) (3 samples, 3.95%)</title><rect x="1143.4" y="211.0" width="46.6" height="15" fill="#cece3e" rx="2" ry="2"/>
<text x="1146.4" y="222.0">Moni..</text>
</g>
<g>
<title>os::PlatformEvent::park(long) (3 samples, 3.95%)</title><rect x="1143.4" y="195.0" width="46.6" height="15" fill="#d5d540" rx="2" ry="2"/>
<text x="1146.4" y="206.0">os::..</text>
</g>
<g>
<title>__psynch_cvwait (3 samples, 3.95%)</title><rect x="1143.4" y="179.0" width="46.6" height="15" fill="#eb6767" rx="2" ry="2"/>
<text x="1146.4" y="190.0">__ps..</text>
</g>
</g>
</svg>
