<?xml version="1.0" standalone="no"?>
<!DOCTYPE svg PUBLIC "-//W3C//DTD SVG 1.1//EN" "http://www.w3.org/Graphics/SVG/1.1/DTD/svg11.dtd">
<svg version="1.1" width="1200" height="406" onload="init(evt)" viewBox="0 0 1200 406" xmlns="http://www.w3.org/2000/svg" xmlns:xlink="http://www.w3.org/1999/xlink">
<style type="text/css">
	text { font-family:Verdana; font-size:12px; fill:rgb(0,0,0); }
	#search { opacity:0.1; cursor:pointer; }
	#search:hover, #search.show { opacity:1; }
	#subtitle { text-anchor:middle; font-color:rgb(160,160,160); }
	#title { text-anchor:middle; font-size:17px}
	#unzoom { cursor:pointer; }
	#frames > *:hover { stroke:black; stroke-width:0.5; cursor:pointer; }
	.hide { display:none; }
	.parent { opacity:0.5; }
</style>
<script type="text/ecmascript">
<![CDATA[
	"use strict";
	var details, searchbtn, unzoombtn, matchedtxt, svg, searching;
	function init(evt) {
		details = document.getElementById("details").firstChild;
		searchbtn = document.getElementById("search");
		unzoombtn = document.getElementById("unzoom");
		matchedtxt = document.getElementById("matched");
		svg = document.getElementsByTagName("svg")[0];
		searching = 0;
	}

	window.addEventListener("click", function(e) {
		var target = find_group(e.target);
		if (target) {
			if (target.nodeName == "a") {
				if (e.ctrlKey === false) return;
				e.preventDefault();
			}
			if (target.classList.contains("parent")) unzoom();
			zoom(target);
		}
		else if (e.target.id == "unzoom") unzoom();
		else if (e.target.id == "search") search_prompt();
	}, false)

	// mouse-over for info
	// show
	window.addEventListener("mouseover", function(e) {
		var target = find_group(e.target);
		if (target) details.nodeValue = "Function: " + g_to_text(target);
	}, false)

	// clear
	window.addEventListener("mouseout", function(e) {
		var target = find_group(e.target);
		if (target) details.nodeValue = ' ';
	}, false)

	// ctrl-F for search
	window.addEventListener("keydown",function (e) {
		if (e.keyCode === 114 || (e.ctrlKey && e.keyCode === 70)) {
			e.preventDefault();
			search_prompt();
		}
	}, false)

	// functions
	function find_child(node, selector) {
		var children = node.querySelectorAll(selector);
		if (children.length) return children[0];
		return;
	}
	function find_group(node) {
		var parent = node.parentElement;
		if (!parent) return;
		if (parent.id == "frames") return node;
		return find_group(parent);
	}
	function orig_save(e, attr, val) {
		if (e.attributes["_orig_" + attr] != undefined) return;
		if (e.attributes[attr] == undefined) return;
		if (val == undefined) val = e.attributes[attr].value;
		e.setAttribute("_orig_" + attr, val);
	}
	function orig_load(e, attr) {
		if (e.attributes["_orig_"+attr] == undefined) return;
		e.attributes[attr].value = e.attributes["_orig_" + attr].value;
		e.removeAttribute("_orig_"+attr);
	}
	function g_to_text(e) {
		var text = find_child(e, "title").firstChild.nodeValue;
		return (text)
	}
	function g_to_func(e) {
		var func = g_to_text(e);
		// if there's any manipulation we want to do to the function
		// name before it's searched, do it here before returning.
		return (func);
	}
	function update_text(e) {
		var r = find_child(e, "rect");
		var t = find_child(e, "text");
		var w = parseFloat(r.attributes.width.value) -3;
		var txt = find_child(e, "title").textContent.replace(/\([^(]*\)$/,"");
		t.attributes.x.value = parseFloat(r.attributes.x.value) + 3;

		// Smaller than this size won't fit anything
		if (w < 2 * 12 * 0.59) {
			t.textContent = "";
			return;
		}

		t.textContent = txt;
		// Fit in full text width
		if (/^ *$/.test(txt) || t.getSubStringLength(0, txt.length) < w)
			return;

		for (var x = txt.length - 2; x > 0; x--) {
			if (t.getSubStringLength(0, x + 2) <= w) {
				t.textContent = txt.substring(0, x) + "..";
				return;
			}
		}
		t.textContent = "";
	}

	// zoom
	function zoom_reset(e) {
		if (e.attributes != undefined) {
			orig_load(e, "x");
			orig_load(e, "width");
		}
		if (e.childNodes == undefined) return;
		for (var i = 0, c = e.childNodes; i < c.length; i++) {
			zoom_reset(c[i]);
		}
	}
	function zoom_child(e, x, ratio) {
		if (e.attributes != undefined) {
			if (e.attributes.x != undefined) {
				orig_save(e, "x");
				e.attributes.x.value = (parseFloat(e.attributes.x.value) - x - 10) * ratio + 10;
				if (e.tagName == "text")
					e.attributes.x.value = find_child(e.parentNode, "rect[x]").attributes.x.value + 3;
			}
			if (e.attributes.width != undefined) {
				orig_save(e, "width");
				e.attributes.width.value = parseFloat(e.attributes.width.value) * ratio;
			}
		}

		if (e.childNodes == undefined) return;
		for (var i = 0, c = e.childNodes; i < c.length; i++) {
			zoom_child(c[i], x - 10, ratio);
		}
	}
	function zoom_parent(e) {
		if (e.attributes) {
			if (e.attributes.x != undefined) {
				orig_save(e, "x");
				e.attributes.x.value = 10;
			}
			if (e.attributes.width != undefined) {
				orig_save(e, "width");
				e.attributes.width.value = parseInt(svg.width.baseVal.value) - (10 * 2);
			}
		}
		if (e.childNodes == undefined) return;
		for (var i = 0, c = e.childNodes; i < c.length; i++) {
			zoom_parent(c[i]);
		}
	}
	function zoom(node) {
		var attr = find_child(node, "rect").attributes;
		var width = parseFloat(attr.width.value);
		var xmin = parseFloat(attr.x.value);
		var xmax = parseFloat(xmin + width);
		var ymin = parseFloat(attr.y.value);
		var ratio = (svg.width.baseVal.value - 2 * 10) / width;

		// XXX: Workaround for JavaScript float issues (fix me)
		var fudge = 0.0001;

		unzoombtn.classList.remove("hide");

		var el = document.getElementById("frames").children;
		for (var i = 0; i < el.length; i++) {
			var e = el[i];
			var a = find_child(e, "rect").attributes;
			var ex = parseFloat(a.x.value);
			var ew = parseFloat(a.width.value);
			var upstack;
			// Is it an ancestor
			if (0 == 0) {
				upstack = parseFloat(a.y.value) > ymin;
			} else {
				upstack = parseFloat(a.y.value) < ymin;
			}
			if (upstack) {
				// Direct ancestor
				if (ex <= xmin && (ex+ew+fudge) >= xmax) {
					e.classList.add("parent");
					zoom_parent(e);
					update_text(e);
				}
				// not in current path
				else
					e.classList.add("hide");
			}
			// Children maybe
			else {
				// no common path
				if (ex < xmin || ex + fudge >= xmax) {
					e.classList.add("hide");
				}
				else {
					zoom_child(e, xmin, ratio);
					update_text(e);
				}
			}
		}
	}
	function unzoom() {
		unzoombtn.classList.add("hide");
		var el = document.getElementById("frames").children;
		for(var i = 0; i < el.length; i++) {
			el[i].classList.remove("parent");
			el[i].classList.remove("hide");
			zoom_reset(el[i]);
			update_text(el[i]);
		}
	}

	// search
	function reset_search() {
		var el = document.querySelectorAll("#frames rect");
		for (var i = 0; i < el.length; i++) {
			orig_load(el[i], "fill")
		}
	}
	function search_prompt() {
		if (!searching) {
			var term = prompt("Enter a search term (regexp " +
			    "allowed, eg: ^ext4_)", "");
			if (term != null) {
				search(term)
			}
		} else {
			reset_search();
			searching = 0;
			searchbtn.classList.remove("show");
			searchbtn.firstChild.nodeValue = "Search"
			matchedtxt.classList.add("hide");
			matchedtxt.firstChild.nodeValue = ""
		}
	}
	function search(term) {
		var re = new RegExp(term);
		var el = document.getElementById("frames").children;
		var matches = new Object();
		var maxwidth = 0;
		for (var i = 0; i < el.length; i++) {
			var e = el[i];
			var func = g_to_func(e);
			var rect = find_child(e, "rect");
			if (func == null || rect == null)
				continue;

			// Save max width. Only works as we have a root frame
			var w = parseFloat(rect.attributes.width.value);
			if (w > maxwidth)
				maxwidth = w;

			if (func.match(re)) {
				// highlight
				var x = parseFloat(rect.attributes.x.value);
				orig_save(rect, "fill");
				rect.attributes.fill.value = "rgb(230,0,230)";

				// remember matches
				if (matches[x] == undefined) {
					matches[x] = w;
				} else {
					if (w > matches[x]) {
						// overwrite with parent
						matches[x] = w;
					}
				}
				searching = 1;
			}
		}
		if (!searching)
			return;

		searchbtn.classList.add("show");
		searchbtn.firstChild.nodeValue = "Reset Search";

		// calculate percent matched, excluding vertical overlap
		var count = 0;
		var lastx = -1;
		var lastw = 0;
		var keys = Array();
		for (k in matches) {
			if (matches.hasOwnProperty(k))
				keys.push(k);
		}
		// sort the matched frames by their x location
		// ascending, then width descending
		keys.sort(function(a, b){
			return a - b;
		});
		// Step through frames saving only the biggest bottom-up frames
		// thanks to the sort order. This relies on the tree property
		// where children are always smaller than their parents.
		var fudge = 0.0001;	// JavaScript floating point
		for (var k in keys) {
			var x = parseFloat(keys[k]);
			var w = matches[keys[k]];
			if (x >= lastx + lastw - fudge) {
				count += w;
				lastx = x;
				lastw = w;
			}
		}
		// display matched percent
		matchedtxt.classList.remove("hide");
		var pct = 100 * count / maxwidth;
		if (pct != 100) pct = pct.toFixed(1)
		matchedtxt.firstChild.nodeValue = "Matched: " + pct + "%";
	}
]]>
</script>
<rect x="0" y="0" width="100%" height="100%" fill="rgb(240,240,220)"/>
<text id="title" x="600" y="24">Flame Graph</text>
<text id="details" x="10" y="389"> </text>
<text id="unzoom" x="10" y="24" class="hide">Reset Zoom</text>
<text id="search" x="1090" y="24">Search</text>
<text id="matched" x="1090" y="389"> </text>
<g id="frames">
<g>
<title>all (330 samples, 100.00%)</title><rect x="10.0" y="355.0" width="1180.0" height="15" fill="#f87878" rx="2" ry="2"/>
<text x="13.0" y="366.0">all</text>
</g>
<g>
<title>one/nio/server/SelectorThread.run (319 samples, 96.67%)</title><rect x="10.0" y="339.0" width="1140.7" height="15" fill="#56e756" rx="2" ry="2"/>
<text x="13.0" y="350.0">one/nio/server/SelectorThread.run</text>
</g>
<g>
<title>one/nio/net/JavaSelector.select (205 samples, 62.12%)</title><rect x="13.6" y="323.0" width="733.0" height="15" fill="#6cfd6c" rx="2" ry="2"/>
<text x="16.6" y="334.0">one/nio/net/JavaSelector.select</text>
</g>
<g>
<title>_res (2 samples, 0.61%)</title><rect x="13.6" y="307.0" width="7.1" height="15" fill="#ef6d6d" rx="2" ry="2"/>
<text x="16.6" y="318.0"></text>
</g>
<g>
<title>one/nio/net/JavaSelector.iteratorFor (3 samples, 0.91%)</title><rect x="20.7" y="307.0" width="10.8" height="15" fill="#6cfd6c" rx="2" ry="2"/>
<text x="23.7" y="318.0"></text>
</g>
<g>
<title>OptoRuntime::new_instance_C(Klass*, JavaThread*) (1 samples, 0.30%)</title><rect x="24.3" y="291.0" width="3.6" height="15" fill="#cccc3d" rx="2" ry="2"/>
<text x="27.3" y="302.0"></text>
</g>
<g>
<title>InstanceKlass::allocate_instance(Thread*) (1 samples, 0.30%)</title><rect x="24.3" y="275.0" width="3.6" height="15" fill="#d5d540" rx="2" ry="2"/>
<text x="27.3" y="286.0"></text>
</g>
<g>
<title>CollectedHeap::obj_allocate(Klass*, int, Thread*) (1 samples, 0.30%)</title><rect x="24.3" y="259.0" width="3.6" height="15" fill="#e1e144" rx="2" ry="2"/>
<text x="27.3" y="270.0"></text>
</g>
<g>
<title>MemAllocator::allocate() const (1 samples, 0.30%)</title><rect x="24.3" y="243.0" width="3.6" height="15" fill="#e5e545" rx="2" ry="2"/>
<text x="27.3" y="254.0"></text>
</g>
<g>
<title>ObjAllocator::initialize(HeapWord*) const (1 samples, 0.30%)</title><rect x="24.3" y="227.0" width="3.6" height="15" fill="#c8c83c" rx="2" ry="2"/>
<text x="27.3" y="238.0"></text>
</g>
<g>
<title>sun/nio/ch/Util$2.iterator (1 samples, 0.30%)</title><rect x="27.9" y="291.0" width="3.6" height="15" fill="#53e453" rx="2" ry="2"/>
<text x="30.9" y="302.0"></text>
</g>
<g>
<title>java/util/HashSet.iterator (1 samples, 0.30%)</title><rect x="27.9" y="275.0" width="3.6" height="15" fill="#5ced5c" rx="2" ry="2"/>
<text x="30.9" y="286.0"></text>
</g>
<g>
<title>java/util/HashMap$KeySet.iterator (1 samples, 0.30%)</title><rect x="27.9" y="259.0" width="3.6" height="15" fill="#65f665" rx="2" ry="2"/>
<text x="30.9" y="270.0"></text>
</g>
<g>
<title>java/util/HashMap$KeyIterator.&lt;init&gt; (1 samples, 0.30%)</title><rect x="27.9" y="243.0" width="3.6" height="15" fill="#60f160" rx="2" ry="2"/>
<text x="30.9" y="254.0"></text>
</g>
<g>
<title>java/util/HashMap$HashIterator.&lt;init&gt; (1 samples, 0.30%)</title><rect x="27.9" y="227.0" width="3.6" height="15" fill="#52e352" rx="2" ry="2"/>
<text x="30.9" y="238.0"></text>
</g>
<g>
<title>one/nio/net/JavaSelector.registerPendingSessions (1 samples, 0.30%)</title><rect x="31.5" y="307.0" width="3.5" height="15" fill="#6afb6a" rx="2" ry="2"/>
<text x="34.5" y="318.0"></text>
</g>
<g>
<title>sun/nio/ch/SelectorImpl.select (199 samples, 60.30%)</title><rect x="35.0" y="307.0" width="711.6" height="15" fill="#66f766" rx="2" ry="2"/>
<text x="38.0" y="318.0">sun/nio/ch/SelectorImpl.select</text>
</g>
<g>
<title>sun/nio/ch/SelectorImpl.lockAndDoSelect (199 samples, 60.30%)</title><rect x="35.0" y="291.0" width="711.6" height="15" fill="#6cfd6c" rx="2" ry="2"/>
<text x="38.0" y="302.0">sun/nio/ch/SelectorImpl.lockAndDoSelect</text>
</g>
<g>
<title>sun/nio/ch/KQueueSelectorImpl.doSelect (197 samples, 59.70%)</title><rect x="35.0" y="275.0" width="704.5" height="15" fill="#6dfe6d" rx="2" ry="2"/>
<text x="38.0" y="286.0">sun/nio/ch/KQueueSelectorImpl.doSelect</text>
</g>
<g>
<title>sun/nio/ch/KQueue.poll (188 samples, 56.97%)</title><rect x="35.0" y="259.0" width="672.3" height="15" fill="#62f362" rx="2" ry="2"/>
<text x="38.0" y="270.0">sun/nio/ch/KQueue.poll</text>
</g>
<g>
<title>Java_sun_nio_ch_KQueue_poll (2 samples, 0.61%)</title><rect x="63.6" y="243.0" width="7.2" height="15" fill="#f06e6e" rx="2" ry="2"/>
<text x="66.6" y="254.0"></text>
</g>
<g>
<title>kevent (178 samples, 53.94%)</title><rect x="70.8" y="243.0" width="636.5" height="15" fill="#f37272" rx="2" ry="2"/>
<text x="73.8" y="254.0">kevent</text>
</g>
<g>
<title>sun/nio/ch/KQueueSelectorImpl.processEvents (5 samples, 1.52%)</title><rect x="707.3" y="259.0" width="17.9" height="15" fill="#65f665" rx="2" ry="2"/>
<text x="710.3" y="270.0"></text>
</g>
<g>
<title>sun/nio/ch/SelectorImpl.processReadyEvents (4 samples, 1.21%)</title><rect x="710.8" y="243.0" width="14.4" height="15" fill="#66f766" rx="2" ry="2"/>
<text x="713.8" y="254.0"></text>
</g>
<g>
<title>java/util/HashSet.add (3 samples, 0.91%)</title><rect x="710.8" y="227.0" width="10.8" height="15" fill="#6afb6a" rx="2" ry="2"/>
<text x="713.8" y="238.0"></text>
</g>
<g>
<title>java/util/HashMap.put (3 samples, 0.91%)</title><rect x="710.8" y="211.0" width="10.8" height="15" fill="#61f261" rx="2" ry="2"/>
<text x="713.8" y="222.0"></text>
</g>
<g>
<title>java/util/HashMap.putVal (3 samples, 0.91%)</title><rect x="710.8" y="195.0" width="10.8" height="15" fill="#62f362" rx="2" ry="2"/>
<text x="713.8" y="206.0"></text>
</g>
<g>
<title>java/util/HashMap.afterNodeInsertion (1 samples, 0.30%)</title><rect x="710.8" y="179.0" width="3.6" height="15" fill="#60f160" rx="2" ry="2"/>
<text x="713.8" y="190.0"></text>
</g>
<g>
<title>java/util/HashMap.newNode (2 samples, 0.61%)</title><rect x="714.4" y="179.0" width="7.2" height="15" fill="#58e958" rx="2" ry="2"/>
<text x="717.4" y="190.0"></text>
</g>
<g>
<title>java/util/HashSet.contains (1 samples, 0.30%)</title><rect x="721.6" y="227.0" width="3.6" height="15" fill="#5aeb5a" rx="2" ry="2"/>
<text x="724.6" y="238.0"></text>
</g>
<g>
<title>java/util/HashMap.containsKey (1 samples, 0.30%)</title><rect x="721.6" y="211.0" width="3.6" height="15" fill="#55e655" rx="2" ry="2"/>
<text x="724.6" y="222.0"></text>
</g>
<g>
<title>java/util/HashMap.getNode (1 samples, 0.30%)</title><rect x="721.6" y="195.0" width="3.6" height="15" fill="#5aeb5a" rx="2" ry="2"/>
<text x="724.6" y="206.0"></text>
</g>
<g>
<title>sun/nio/ch/KQueueSelectorImpl.processUpdateQueue (1 samples, 0.30%)</title><rect x="725.2" y="259.0" width="3.5" height="15" fill="#69fa69" rx="2" ry="2"/>
<text x="728.2" y="270.0"></text>
</g>
<g>
<title>java/util/ArrayDeque.pollFirst (1 samples, 0.30%)</title><rect x="725.2" y="243.0" width="3.5" height="15" fill="#60f160" rx="2" ry="2"/>
<text x="728.2" y="254.0"></text>
</g>
<g>
<title>sun/nio/ch/SelectorImpl.begin (1 samples, 0.30%)</title><rect x="728.7" y="259.0" width="3.6" height="15" fill="#57e857" rx="2" ry="2"/>
<text x="731.7" y="270.0"></text>
</g>
<g>
<title>java/nio/channels/spi/AbstractSelector.begin (1 samples, 0.30%)</title><rect x="728.7" y="243.0" width="3.6" height="15" fill="#5eef5e" rx="2" ry="2"/>
<text x="731.7" y="254.0"></text>
</g>
<g>
<title>java/nio/channels/spi/AbstractInterruptibleChannel.blockedOn (1 samples, 0.30%)</title><rect x="728.7" y="227.0" width="3.6" height="15" fill="#5dee5d" rx="2" ry="2"/>
<text x="731.7" y="238.0"></text>
</g>
<g>
<title>java/lang/System$2.blockedOn (1 samples, 0.30%)</title><rect x="728.7" y="211.0" width="3.6" height="15" fill="#5eef5e" rx="2" ry="2"/>
<text x="731.7" y="222.0"></text>
</g>
<g>
<title>java/lang/Thread.blockedOn (1 samples, 0.30%)</title><rect x="728.7" y="195.0" width="3.6" height="15" fill="#61f261" rx="2" ry="2"/>
<text x="731.7" y="206.0"></text>
</g>
<g>
<title>sun/nio/ch/SelectorImpl.end (1 samples, 0.30%)</title><rect x="732.3" y="259.0" width="3.6" height="15" fill="#67f867" rx="2" ry="2"/>
<text x="735.3" y="270.0"></text>
</g>
<g>
<title>java/nio/channels/spi/AbstractSelector.end (1 samples, 0.30%)</title><rect x="732.3" y="243.0" width="3.6" height="15" fill="#64f564" rx="2" ry="2"/>
<text x="735.3" y="254.0"></text>
</g>
<g>
<title>java/nio/channels/spi/AbstractInterruptibleChannel.blockedOn (1 samples, 0.30%)</title><rect x="732.3" y="227.0" width="3.6" height="15" fill="#52e352" rx="2" ry="2"/>
<text x="735.3" y="238.0"></text>
</g>
<g>
<title>java/lang/System$2.blockedOn (1 samples, 0.30%)</title><rect x="732.3" y="211.0" width="3.6" height="15" fill="#56e756" rx="2" ry="2"/>
<text x="735.3" y="222.0"></text>
</g>
<g>
<title>java/lang/Thread.blockedOn (1 samples, 0.30%)</title><rect x="732.3" y="195.0" width="3.6" height="15" fill="#65f665" rx="2" ry="2"/>
<text x="735.3" y="206.0"></text>
</g>
<g>
<title>sun/nio/ch/SelectorImpl.processDeregisterQueue (1 samples, 0.30%)</title><rect x="735.9" y="259.0" width="3.6" height="15" fill="#50e150" rx="2" ry="2"/>
<text x="738.9" y="270.0"></text>
</g>
<g>
<title>java/util/HashSet.iterator (1 samples, 0.30%)</title><rect x="735.9" y="243.0" width="3.6" height="15" fill="#55e655" rx="2" ry="2"/>
<text x="738.9" y="254.0"></text>
</g>
<g>
<title>java/util/HashMap.keySet (1 samples, 0.30%)</title><rect x="735.9" y="227.0" width="3.6" height="15" fill="#59ea59" rx="2" ry="2"/>
<text x="738.9" y="238.0"></text>
</g>
<g>
<title>sun/nio/ch/KQueueSelectorImpl.processEvents (1 samples, 0.30%)</title><rect x="739.5" y="275.0" width="3.5" height="15" fill="#50e150" rx="2" ry="2"/>
<text x="742.5" y="286.0"></text>
</g>
<g>
<title>sun/nio/ch/SelectorImpl.ensureOpen (1 samples, 0.30%)</title><rect x="743.0" y="275.0" width="3.6" height="15" fill="#57e857" rx="2" ry="2"/>
<text x="746.0" y="286.0"></text>
</g>
<g>
<title>java/nio/channels/spi/AbstractSelector.isOpen (1 samples, 0.30%)</title><rect x="743.0" y="259.0" width="3.6" height="15" fill="#5eef5e" rx="2" ry="2"/>
<text x="746.0" y="270.0"></text>
</g>
<g>
<title>java/util/concurrent/atomic/AtomicBoolean.get (1 samples, 0.30%)</title><rect x="743.0" y="243.0" width="3.6" height="15" fill="#6afb6a" rx="2" ry="2"/>
<text x="746.0" y="254.0"></text>
</g>
<g>
<title>one/nio/net/Session.process (113 samples, 34.24%)</title><rect x="746.6" y="323.0" width="404.1" height="15" fill="#64f564" rx="2" ry="2"/>
<text x="749.6" y="334.0">one/nio/net/Session.process</text>
</g>
<g>
<title>one/nio/http/HttpSession.processRead (113 samples, 34.24%)</title><rect x="746.6" y="307.0" width="404.1" height="15" fill="#66f766" rx="2" ry="2"/>
<text x="749.6" y="318.0">one/nio/http/HttpSession.processRead</text>
</g>
<g>
<title>one/nio/http/HttpSession.processHttpBuffer (83 samples, 25.15%)</title><rect x="746.6" y="291.0" width="296.8" height="15" fill="#6afb6a" rx="2" ry="2"/>
<text x="749.6" y="302.0">one/nio/http/HttpSession.processHttpBuffer</text>
</g>
<g>
<title>one/nio/http/HttpSession.handleParsedRequest (73 samples, 22.12%)</title><rect x="753.8" y="275.0" width="261.0" height="15" fill="#6afb6a" rx="2" ry="2"/>
<text x="756.8" y="286.0">one/nio/http/HttpSession.handlePars..</text>
</g>
<g>
<title>one/nio/http/HttpServer.handleRequest (73 samples, 22.12%)</title><rect x="753.8" y="259.0" width="261.0" height="15" fill="#61f261" rx="2" ry="2"/>
<text x="756.8" y="270.0">one/nio/http/HttpServer.handleRequest</text>
</g>
<g>
<title>RequestHandler0_status.handleRequest (2 samples, 0.61%)</title><rect x="753.8" y="243.0" width="7.1" height="15" fill="#60f160" rx="2" ry="2"/>
<text x="756.8" y="254.0"></text>
</g>
<g>
<title>ru/mail/polis/service/kuzoliza/MyService.status (2 samples, 0.61%)</title><rect x="753.8" y="227.0" width="7.1" height="15" fill="#50e150" rx="2" ry="2"/>
<text x="756.8" y="238.0"></text>
</g>
<g>
<title>one/nio/http/Response.ok (2 samples, 0.61%)</title><rect x="753.8" y="211.0" width="7.1" height="15" fill="#68f968" rx="2" ry="2"/>
<text x="756.8" y="222.0"></text>
</g>
<g>
<title>one/nio/http/Response.&lt;init&gt; (2 samples, 0.61%)</title><rect x="753.8" y="195.0" width="7.1" height="15" fill="#57e857" rx="2" ry="2"/>
<text x="756.8" y="206.0"></text>
</g>
<g>
<title>ru/mail/polis/dao/kuzoliza/MemTable.remove (1 samples, 0.30%)</title><rect x="757.3" y="179.0" width="3.6" height="15" fill="#5dee5d" rx="2" ry="2"/>
<text x="760.3" y="190.0"></text>
</g>
<g>
<title>RequestHandler1_entity.handleRequest (71 samples, 21.52%)</title><rect x="760.9" y="243.0" width="253.9" height="15" fill="#61f261" rx="2" ry="2"/>
<text x="763.9" y="254.0">RequestHandler1_entity.handleRequest</text>
</g>
<g>
<title>one/nio/http/HttpSession.sendResponse (52 samples, 15.76%)</title><rect x="760.9" y="227.0" width="185.9" height="15" fill="#57e857" rx="2" ry="2"/>
<text x="763.9" y="238.0">one/nio/http/HttpSession..</text>
</g>
<g>
<title>one/nio/http/HttpSession.writeResponse (52 samples, 15.76%)</title><rect x="760.9" y="211.0" width="185.9" height="15" fill="#62f362" rx="2" ry="2"/>
<text x="763.9" y="222.0">one/nio/http/HttpSession..</text>
</g>
<g>
<title>one/nio/http/Response.toBytes (5 samples, 1.52%)</title><rect x="760.9" y="195.0" width="17.9" height="15" fill="#67f867" rx="2" ry="2"/>
<text x="763.9" y="206.0"></text>
</g>
<g>
<title>one/nio/util/ByteArrayBuilder.append (4 samples, 1.21%)</title><rect x="764.5" y="179.0" width="14.3" height="15" fill="#5ff05f" rx="2" ry="2"/>
<text x="767.5" y="190.0"></text>
</g>
<g>
<title>one/nio/util/Utf8.length (4 samples, 1.21%)</title><rect x="764.5" y="163.0" width="14.3" height="15" fill="#5aeb5a" rx="2" ry="2"/>
<text x="767.5" y="174.0"></text>
</g>
<g>
<title>java/lang/String.charAt (4 samples, 1.21%)</title><rect x="764.5" y="147.0" width="14.3" height="15" fill="#5ced5c" rx="2" ry="2"/>
<text x="767.5" y="158.0"></text>
</g>
<g>
<title>one/nio/net/Session.write (47 samples, 14.24%)</title><rect x="778.8" y="195.0" width="168.0" height="15" fill="#5ced5c" rx="2" ry="2"/>
<text x="781.8" y="206.0">one/nio/net/Session.wr..</text>
</g>
<g>
<title>one/nio/net/Session.write (46 samples, 13.94%)</title><rect x="782.4" y="179.0" width="164.4" height="15" fill="#6afb6a" rx="2" ry="2"/>
<text x="785.4" y="190.0">one/nio/net/Session.w..</text>
</g>
<g>
<title>one/nio/net/Session$ArrayQueueItem.write (45 samples, 13.64%)</title><rect x="785.9" y="163.0" width="160.9" height="15" fill="#59ea59" rx="2" ry="2"/>
<text x="788.9" y="174.0">one/nio/net/Session$..</text>
</g>
<g>
<title>one/nio/net/JavaSocket.write (45 samples, 13.64%)</title><rect x="785.9" y="147.0" width="160.9" height="15" fill="#68f968" rx="2" ry="2"/>
<text x="788.9" y="158.0">one/nio/net/JavaSock..</text>
</g>
<g>
<title>sun/nio/ch/SocketChannelImpl.write (45 samples, 13.64%)</title><rect x="785.9" y="131.0" width="160.9" height="15" fill="#6afb6a" rx="2" ry="2"/>
<text x="788.9" y="142.0">sun/nio/ch/SocketCha..</text>
</g>
<g>
<title>sun/nio/ch/IOUtil.write (45 samples, 13.64%)</title><rect x="785.9" y="115.0" width="160.9" height="15" fill="#66f766" rx="2" ry="2"/>
<text x="788.9" y="126.0">sun/nio/ch/IOUtil.wr..</text>
</g>
<g>
<title>sun/nio/ch/IOUtil.write (44 samples, 13.33%)</title><rect x="789.5" y="99.0" width="157.3" height="15" fill="#6bfc6b" rx="2" ry="2"/>
<text x="792.5" y="110.0">sun/nio/ch/IOUtil.wr..</text>
</g>
<g>
<title>sun/nio/ch/IOUtil.writeFromNativeBuffer (43 samples, 13.03%)</title><rect x="789.5" y="83.0" width="153.8" height="15" fill="#56e756" rx="2" ry="2"/>
<text x="792.5" y="94.0">sun/nio/ch/IOUtil.w..</text>
</g>
<g>
<title>sun/nio/ch/SocketDispatcher.write (43 samples, 13.03%)</title><rect x="789.5" y="67.0" width="153.8" height="15" fill="#5ff05f" rx="2" ry="2"/>
<text x="792.5" y="78.0">sun/nio/ch/SocketDi..</text>
</g>
<g>
<title>sun/nio/ch/FileDispatcherImpl.write0 (43 samples, 13.03%)</title><rect x="789.5" y="51.0" width="153.8" height="15" fill="#58e958" rx="2" ry="2"/>
<text x="792.5" y="62.0">sun/nio/ch/FileDisp..</text>
</g>
<g>
<title>convertReturnVal (1 samples, 0.30%)</title><rect x="793.1" y="35.0" width="3.6" height="15" fill="#e66161" rx="2" ry="2"/>
<text x="796.1" y="46.0"></text>
</g>
<g>
<title>write (41 samples, 12.42%)</title><rect x="796.7" y="35.0" width="146.6" height="15" fill="#f97a7a" rx="2" ry="2"/>
<text x="799.7" y="46.0">write</text>
</g>
<g>
<title>sun/nio/ch/Util.getTemporaryDirectBuffer (1 samples, 0.30%)</title><rect x="943.3" y="83.0" width="3.5" height="15" fill="#67f867" rx="2" ry="2"/>
<text x="946.3" y="94.0"></text>
</g>
<g>
<title>java/lang/ThreadLocal.get (1 samples, 0.30%)</title><rect x="943.3" y="67.0" width="3.5" height="15" fill="#55e655" rx="2" ry="2"/>
<text x="946.3" y="78.0"></text>
</g>
<g>
<title>java/lang/ThreadLocal$ThreadLocalMap.getEntry (1 samples, 0.30%)</title><rect x="943.3" y="51.0" width="3.5" height="15" fill="#5aeb5a" rx="2" ry="2"/>
<text x="946.3" y="62.0"></text>
</g>
<g>
<title>sun/nio/ch/FileDispatcherImpl.write0 (1 samples, 0.30%)</title><rect x="943.3" y="35.0" width="3.5" height="15" fill="#64f564" rx="2" ry="2"/>
<text x="946.3" y="46.0"></text>
</g>
<g>
<title>one/nio/http/Request.getRequiredParameter (2 samples, 0.61%)</title><rect x="946.8" y="227.0" width="7.2" height="15" fill="#51e251" rx="2" ry="2"/>
<text x="949.8" y="238.0"></text>
</g>
<g>
<title>one/nio/http/Request.getParameter (2 samples, 0.61%)</title><rect x="946.8" y="211.0" width="7.2" height="15" fill="#55e655" rx="2" ry="2"/>
<text x="949.8" y="222.0"></text>
</g>
<g>
<title>ru/mail/polis/service/kuzoliza/MyService.entity (17 samples, 5.15%)</title><rect x="954.0" y="227.0" width="60.8" height="15" fill="#5eef5e" rx="2" ry="2"/>
<text x="957.0" y="238.0">ru/mai..</text>
</g>
<g>
<title>ru/mail/polis/service/kuzoliza/MyService.response (17 samples, 5.15%)</title><rect x="954.0" y="211.0" width="60.8" height="15" fill="#67f867" rx="2" ry="2"/>
<text x="957.0" y="222.0">ru/mai..</text>
</g>
<g>
<title>one/nio/http/Response.&lt;init&gt; (1 samples, 0.30%)</title><rect x="957.6" y="195.0" width="3.6" height="15" fill="#52e352" rx="2" ry="2"/>
<text x="960.6" y="206.0"></text>
</g>
<g>
<title>jlong_disjoint_arraycopy (1 samples, 0.30%)</title><rect x="957.6" y="179.0" width="3.6" height="15" fill="#fd7f7f" rx="2" ry="2"/>
<text x="960.6" y="190.0"></text>
</g>
<g>
<title>ru/mail/polis/dao/kuzoliza/LSM.remove (15 samples, 4.55%)</title><rect x="961.2" y="195.0" width="53.6" height="15" fill="#58e958" rx="2" ry="2"/>
<text x="964.2" y="206.0">ru/ma..</text>
</g>
<g>
<title>ru/mail/polis/dao/kuzoliza/MemTable.remove (15 samples, 4.55%)</title><rect x="961.2" y="179.0" width="53.6" height="15" fill="#62f362" rx="2" ry="2"/>
<text x="964.2" y="190.0">ru/ma..</text>
</g>
<g>
<title>java/util/TreeMap.put (15 samples, 4.55%)</title><rect x="961.2" y="163.0" width="53.6" height="15" fill="#69fa69" rx="2" ry="2"/>
<text x="964.2" y="174.0">java/..</text>
</g>
<g>
<title>java/nio/ByteBuffer.compareTo (9 samples, 2.73%)</title><rect x="971.9" y="147.0" width="32.2" height="15" fill="#53e453" rx="2" ry="2"/>
<text x="974.9" y="158.0">ja..</text>
</g>
<g>
<title>java/nio/ByteBuffer.compareTo (9 samples, 2.73%)</title><rect x="971.9" y="131.0" width="32.2" height="15" fill="#5eef5e" rx="2" ry="2"/>
<text x="974.9" y="142.0">ja..</text>
</g>
<g>
<title>java/nio/BufferMismatch.mismatch (3 samples, 0.91%)</title><rect x="993.3" y="115.0" width="10.8" height="15" fill="#5aeb5a" rx="2" ry="2"/>
<text x="996.3" y="126.0"></text>
</g>
<g>
<title>os::javaTimeMillis() (3 samples, 0.91%)</title><rect x="1004.1" y="147.0" width="10.7" height="15" fill="#dbdb42" rx="2" ry="2"/>
<text x="1007.1" y="158.0"></text>
</g>
<g>
<title>gettimeofday (2 samples, 0.61%)</title><rect x="1004.1" y="131.0" width="7.1" height="15" fill="#f27070" rx="2" ry="2"/>
<text x="1007.1" y="142.0"></text>
</g>
<g>
<title>rcmd_af.canonnamebuf (1 samples, 0.30%)</title><rect x="1007.6" y="115.0" width="3.6" height="15" fill="#e25b5b" rx="2" ry="2"/>
<text x="1010.6" y="126.0"></text>
</g>
<g>
<title>_res (1 samples, 0.30%)</title><rect x="1007.6" y="99.0" width="3.6" height="15" fill="#f47373" rx="2" ry="2"/>
<text x="1010.6" y="110.0"></text>
</g>
<g>
<title>rcmd_af.canonnamebuf (1 samples, 0.30%)</title><rect x="1011.2" y="131.0" width="3.6" height="15" fill="#e55f5f" rx="2" ry="2"/>
<text x="1014.2" y="142.0"></text>
</g>
<g>
<title>one/nio/http/HttpSession.parseRequest (4 samples, 1.21%)</title><rect x="1014.8" y="275.0" width="14.3" height="15" fill="#5bec5b" rx="2" ry="2"/>
<text x="1017.8" y="286.0"></text>
</g>
<g>
<title>one/nio/http/Request.&lt;init&gt; (3 samples, 0.91%)</title><rect x="1014.8" y="259.0" width="10.7" height="15" fill="#69fa69" rx="2" ry="2"/>
<text x="1017.8" y="270.0"></text>
</g>
<g>
<title>java/lang/String.indexOf (3 samples, 0.91%)</title><rect x="1014.8" y="243.0" width="10.7" height="15" fill="#56e756" rx="2" ry="2"/>
<text x="1017.8" y="254.0"></text>
</g>
<g>
<title>java/lang/String.indexOf (3 samples, 0.91%)</title><rect x="1014.8" y="227.0" width="10.7" height="15" fill="#62f362" rx="2" ry="2"/>
<text x="1017.8" y="238.0"></text>
</g>
<g>
<title>java/lang/StringLatin1.indexOf (3 samples, 0.91%)</title><rect x="1014.8" y="211.0" width="10.7" height="15" fill="#50e150" rx="2" ry="2"/>
<text x="1017.8" y="222.0"></text>
</g>
<g>
<title>one/nio/util/Utf8.startsWith (1 samples, 0.30%)</title><rect x="1025.5" y="259.0" width="3.6" height="15" fill="#6dfe6d" rx="2" ry="2"/>
<text x="1028.5" y="270.0"></text>
</g>
<g>
<title>one/nio/http/HttpSession.startParsingRequestBody (1 samples, 0.30%)</title><rect x="1029.1" y="275.0" width="3.6" height="15" fill="#5dee5d" rx="2" ry="2"/>
<text x="1032.1" y="286.0"></text>
</g>
<g>
<title>java/lang/Integer.parseInt (1 samples, 0.30%)</title><rect x="1029.1" y="259.0" width="3.6" height="15" fill="#58e958" rx="2" ry="2"/>
<text x="1032.1" y="270.0"></text>
</g>
<g>
<title>java/lang/Integer.parseInt (1 samples, 0.30%)</title><rect x="1029.1" y="243.0" width="3.6" height="15" fill="#54e554" rx="2" ry="2"/>
<text x="1032.1" y="254.0"></text>
</g>
<g>
<title>one/nio/util/Utf8.read (3 samples, 0.91%)</title><rect x="1032.7" y="275.0" width="10.7" height="15" fill="#6bfc6b" rx="2" ry="2"/>
<text x="1035.7" y="286.0"></text>
</g>
<g>
<title>one/nio/util/Utf8.read (3 samples, 0.91%)</title><rect x="1032.7" y="259.0" width="10.7" height="15" fill="#51e251" rx="2" ry="2"/>
<text x="1035.7" y="270.0"></text>
</g>
<g>
<title>one/nio/net/Session.read (30 samples, 9.09%)</title><rect x="1043.4" y="291.0" width="107.3" height="15" fill="#53e453" rx="2" ry="2"/>
<text x="1046.4" y="302.0">one/nio/net/S..</text>
</g>
<g>
<title>one/nio/net/JavaSocket.read (30 samples, 9.09%)</title><rect x="1043.4" y="275.0" width="107.3" height="15" fill="#61f261" rx="2" ry="2"/>
<text x="1046.4" y="286.0">one/nio/net/J..</text>
</g>
<g>
<title>sun/nio/ch/SocketChannelImpl.read (30 samples, 9.09%)</title><rect x="1043.4" y="259.0" width="107.3" height="15" fill="#5eef5e" rx="2" ry="2"/>
<text x="1046.4" y="270.0">sun/nio/ch/So..</text>
</g>
<g>
<title>gettimeofday (1 samples, 0.30%)</title><rect x="1043.4" y="243.0" width="3.6" height="15" fill="#e15a5a" rx="2" ry="2"/>
<text x="1046.4" y="254.0"></text>
</g>
<g>
<title>sun/nio/ch/IOUtil.read (29 samples, 8.79%)</title><rect x="1047.0" y="243.0" width="103.7" height="15" fill="#6afb6a" rx="2" ry="2"/>
<text x="1050.0" y="254.0">sun/nio/ch/I..</text>
</g>
<g>
<title>sun/nio/ch/IOUtil.read (26 samples, 7.88%)</title><rect x="1057.7" y="227.0" width="93.0" height="15" fill="#5dee5d" rx="2" ry="2"/>
<text x="1060.7" y="238.0">sun/nio/ch/..</text>
</g>
<g>
<title>sun/nio/ch/IOUtil.readIntoNativeBuffer (22 samples, 6.67%)</title><rect x="1057.7" y="211.0" width="78.7" height="15" fill="#67f867" rx="2" ry="2"/>
<text x="1060.7" y="222.0">sun/nio/c..</text>
</g>
<g>
<title>sun/nio/ch/SocketDispatcher.read (22 samples, 6.67%)</title><rect x="1057.7" y="195.0" width="78.7" height="15" fill="#53e453" rx="2" ry="2"/>
<text x="1060.7" y="206.0">sun/nio/c..</text>
</g>
<g>
<title>sun/nio/ch/FileDispatcherImpl.read0 (20 samples, 6.06%)</title><rect x="1064.8" y="179.0" width="71.6" height="15" fill="#62f362" rx="2" ry="2"/>
<text x="1067.8" y="190.0">sun/nio/..</text>
</g>
<g>
<title>Java_sun_nio_ch_FileDispatcherImpl_read0 (2 samples, 0.61%)</title><rect x="1068.4" y="163.0" width="7.2" height="15" fill="#f77777" rx="2" ry="2"/>
<text x="1071.4" y="174.0"></text>
</g>
<g>
<title>fdval (1 samples, 0.30%)</title><rect x="1072.0" y="147.0" width="3.6" height="15" fill="#f17070" rx="2" ry="2"/>
<text x="1075.0" y="158.0"></text>
</g>
<g>
<title>read (17 samples, 5.15%)</title><rect x="1075.6" y="163.0" width="60.8" height="15" fill="#ed6a6a" rx="2" ry="2"/>
<text x="1078.6" y="174.0">read</text>
</g>
<g>
<title>sun/nio/ch/Util.getTemporaryDirectBuffer (4 samples, 1.21%)</title><rect x="1136.4" y="211.0" width="14.3" height="15" fill="#50e150" rx="2" ry="2"/>
<text x="1139.4" y="222.0"></text>
</g>
<g>
<title>java/lang/ThreadLocal.get (4 samples, 1.21%)</title><rect x="1136.4" y="195.0" width="14.3" height="15" fill="#66f766" rx="2" ry="2"/>
<text x="1139.4" y="206.0"></text>
</g>
<g>
<title>java/lang/ThreadLocal$ThreadLocalMap.getEntry (4 samples, 1.21%)</title><rect x="1136.4" y="179.0" width="14.3" height="15" fill="#63f463" rx="2" ry="2"/>
<text x="1139.4" y="190.0"></text>
</g>
<g>
<title>sun/nio/ch/FileDispatcherImpl.read0 (1 samples, 0.30%)</title><rect x="1147.1" y="163.0" width="3.6" height="15" fill="#5dee5d" rx="2" ry="2"/>
<text x="1150.1" y="174.0"></text>
</g>
<g>
<title>thread_start (11 samples, 3.33%)</title><rect x="1150.7" y="339.0" width="39.3" height="15" fill="#fb7d7d" rx="2" ry="2"/>
<text x="1153.7" y="350.0">thr..</text>
</g>
<g>
<title>_pthread_start (11 samples, 3.33%)</title><rect x="1150.7" y="323.0" width="39.3" height="15" fill="#fe8181" rx="2" ry="2"/>
<text x="1153.7" y="334.0">_pt..</text>
</g>
<g>
<title>_pthread_body (11 samples, 3.33%)</title><rect x="1150.7" y="307.0" width="39.3" height="15" fill="#fa7c7c" rx="2" ry="2"/>
<text x="1153.7" y="318.0">_pt..</text>
</g>
<g>
<title>thread_native_entry(Thread*) (11 samples, 3.33%)</title><rect x="1150.7" y="291.0" width="39.3" height="15" fill="#fe8181" rx="2" ry="2"/>
<text x="1153.7" y="302.0">thr..</text>
</g>
<g>
<title>Thread::call_run() (11 samples, 3.33%)</title><rect x="1150.7" y="275.0" width="39.3" height="15" fill="#c8c83c" rx="2" ry="2"/>
<text x="1153.7" y="286.0">Thr..</text>
</g>
<g>
<title>GangWorker::loop() (5 samples, 1.52%)</title><rect x="1150.7" y="259.0" width="17.8" height="15" fill="#e0e044" rx="2" ry="2"/>
<text x="1153.7" y="270.0"></text>
</g>
<g>
<title>G1ParTask::work(unsigned int) (4 samples, 1.21%)</title><rect x="1150.7" y="243.0" width="14.3" height="15" fill="#dfdf43" rx="2" ry="2"/>
<text x="1153.7" y="254.0"></text>
</g>
<g>
<title>G1RemSet::oops_into_collection_set_do(G1ParScanThreadState*, unsigned int) (4 samples, 1.21%)</title><rect x="1150.7" y="227.0" width="14.3" height="15" fill="#d0d03e" rx="2" ry="2"/>
<text x="1153.7" y="238.0"></text>
</g>
<g>
<title>G1RemSet::update_rem_set(G1ParScanThreadState*, unsigned int) (4 samples, 1.21%)</title><rect x="1150.7" y="211.0" width="14.3" height="15" fill="#d8d841" rx="2" ry="2"/>
<text x="1153.7" y="222.0"></text>
</g>
<g>
<title>G1CollectedHeap::iterate_dirty_card_closure(CardTableEntryClosure*, unsigned int) (4 samples, 1.21%)</title><rect x="1150.7" y="195.0" width="14.3" height="15" fill="#e1e144" rx="2" ry="2"/>
<text x="1153.7" y="206.0"></text>
</g>
<g>
<title>DirtyCardQueueSet::apply_closure_to_completed_buffer(CardTableEntryClosure*, unsigned int, unsigned long, bool) (4 samples, 1.21%)</title><rect x="1150.7" y="179.0" width="14.3" height="15" fill="#dddd43" rx="2" ry="2"/>
<text x="1153.7" y="190.0"></text>
</g>
<g>
<title>G1RefineCardClosure::do_card_ptr(signed char*, unsigned int) (4 samples, 1.21%)</title><rect x="1150.7" y="163.0" width="14.3" height="15" fill="#e3e345" rx="2" ry="2"/>
<text x="1153.7" y="174.0"></text>
</g>
<g>
<title>G1RemSet::refine_card_during_gc(signed char*, G1ScanObjsDuringUpdateRSClosure*) (4 samples, 1.21%)</title><rect x="1150.7" y="147.0" width="14.3" height="15" fill="#d0d03e" rx="2" ry="2"/>
<text x="1153.7" y="158.0"></text>
</g>
<g>
<title>bool HeapRegion::oops_on_card_seq_iterate_careful&lt;true, G1ScanObjsDuringUpdateRSClosure&gt;(MemRegion, G1ScanObjsDuringUpdateRSClosure*) (4 samples, 1.21%)</title><rect x="1150.7" y="131.0" width="14.3" height="15" fill="#d9d941" rx="2" ry="2"/>
<text x="1153.7" y="142.0"></text>
</g>
<g>
<title>HeapRegion::is_obj_dead_with_size(oopDesc*, G1CMBitMap const*, unsigned long*) const (2 samples, 0.61%)</title><rect x="1154.2" y="115.0" width="7.2" height="15" fill="#e0e044" rx="2" ry="2"/>
<text x="1157.2" y="126.0"></text>
</g>
<g>
<title>void OopOopIterateDispatch&lt;G1ScanObjsDuringUpdateRSClosure&gt;::Table::oop_oop_iterate&lt;InstanceKlass, unsigned int&gt;(G1ScanObjsDuringUpdateRSClosure*, oopDesc*, Klass*) (1 samples, 0.30%)</title><rect x="1161.4" y="115.0" width="3.6" height="15" fill="#d6d640" rx="2" ry="2"/>
<text x="1164.4" y="126.0"></text>
</g>
<g>
<title>_block_invoke.modules (1 samples, 0.30%)</title><rect x="1165.0" y="243.0" width="3.5" height="15" fill="#f67676" rx="2" ry="2"/>
<text x="1168.0" y="254.0"></text>
</g>
<g>
<title>JavaThread::run() (1 samples, 0.30%)</title><rect x="1168.5" y="259.0" width="3.6" height="15" fill="#cece3e" rx="2" ry="2"/>
<text x="1171.5" y="270.0"></text>
</g>
<g>
<title>JavaThread::thread_main_inner() (1 samples, 0.30%)</title><rect x="1168.5" y="243.0" width="3.6" height="15" fill="#dfdf43" rx="2" ry="2"/>
<text x="1171.5" y="254.0"></text>
</g>
<g>
<title>attach_listener_thread_entry(JavaThread*, Thread*) (1 samples, 0.30%)</title><rect x="1168.5" y="227.0" width="3.6" height="15" fill="#f67676" rx="2" ry="2"/>
<text x="1171.5" y="238.0"></text>
</g>
<g>
<title>load_agent(AttachOperation*, outputStream*) (1 samples, 0.30%)</title><rect x="1168.5" y="211.0" width="3.6" height="15" fill="#e66060" rx="2" ry="2"/>
<text x="1171.5" y="222.0"></text>
</g>
<g>
<title>JvmtiExport::load_agent_library(char const*, char const*, char const*, outputStream*) (1 samples, 0.30%)</title><rect x="1168.5" y="195.0" width="3.6" height="15" fill="#cbcb3d" rx="2" ry="2"/>
<text x="1171.5" y="206.0"></text>
</g>
<g>
<title>Agent_OnAttach (1 samples, 0.30%)</title><rect x="1168.5" y="179.0" width="3.6" height="15" fill="#f06e6e" rx="2" ry="2"/>
<text x="1171.5" y="190.0"></text>
</g>
<g>
<title>Profiler::run(Arguments&amp;) (1 samples, 0.30%)</title><rect x="1168.5" y="163.0" width="3.6" height="15" fill="#dcdc42" rx="2" ry="2"/>
<text x="1171.5" y="174.0"></text>
</g>
<g>
<title>rcmd_af.canonnamebuf (1 samples, 0.30%)</title><rect x="1168.5" y="147.0" width="3.6" height="15" fill="#e25c5c" rx="2" ry="2"/>
<text x="1171.5" y="158.0"></text>
</g>
<g>
<title>VMThread::run() (1 samples, 0.30%)</title><rect x="1172.1" y="259.0" width="3.6" height="15" fill="#d8d841" rx="2" ry="2"/>
<text x="1175.1" y="270.0"></text>
</g>
<g>
<title>VMThread::loop() (1 samples, 0.30%)</title><rect x="1172.1" y="243.0" width="3.6" height="15" fill="#dada42" rx="2" ry="2"/>
<text x="1175.1" y="254.0"></text>
</g>
<g>
<title>VMThread::evaluate_operation(VM_Operation*) (1 samples, 0.30%)</title><rect x="1172.1" y="227.0" width="3.6" height="15" fill="#dcdc42" rx="2" ry="2"/>
<text x="1175.1" y="238.0"></text>
</g>
<g>
<title>VM_Operation::evaluate() (1 samples, 0.30%)</title><rect x="1172.1" y="211.0" width="3.6" height="15" fill="#d1d13f" rx="2" ry="2"/>
<text x="1175.1" y="222.0"></text>
</g>
<g>
<title>VM_G1CollectForAllocation::doit() (1 samples, 0.30%)</title><rect x="1172.1" y="195.0" width="3.6" height="15" fill="#dede43" rx="2" ry="2"/>
<text x="1175.1" y="206.0"></text>
</g>
<g>
<title>G1CollectedHeap::do_collection_pause_at_safepoint(double) (1 samples, 0.30%)</title><rect x="1172.1" y="179.0" width="3.6" height="15" fill="#d3d33f" rx="2" ry="2"/>
<text x="1175.1" y="190.0"></text>
</g>
<g>
<title>G1CollectedHeap::pre_evacuate_collection_set() (1 samples, 0.30%)</title><rect x="1172.1" y="163.0" width="3.6" height="15" fill="#c8c83c" rx="2" ry="2"/>
<text x="1175.1" y="174.0"></text>
</g>
<g>
<title>G1RemSet::prepare_for_oops_into_collection_set_do() (1 samples, 0.30%)</title><rect x="1172.1" y="147.0" width="3.6" height="15" fill="#dcdc42" rx="2" ry="2"/>
<text x="1175.1" y="158.0"></text>
</g>
<g>
<title>DirtyCardQueueSet::concatenate_logs() (1 samples, 0.30%)</title><rect x="1172.1" y="131.0" width="3.6" height="15" fill="#cdcd3d" rx="2" ry="2"/>
<text x="1175.1" y="142.0"></text>
</g>
<g>
<title>PtrQueue::flush_impl() (1 samples, 0.30%)</title><rect x="1172.1" y="115.0" width="3.6" height="15" fill="#d5d540" rx="2" ry="2"/>
<text x="1175.1" y="126.0"></text>
</g>
<g>
<title>WatcherThread::run() (4 samples, 1.21%)</title><rect x="1175.7" y="259.0" width="14.3" height="15" fill="#e5e545" rx="2" ry="2"/>
<text x="1178.7" y="270.0"></text>
</g>
<g>
<title>WatcherThread::sleep() const (4 samples, 1.21%)</title><rect x="1175.7" y="243.0" width="14.3" height="15" fill="#dfdf43" rx="2" ry="2"/>
<text x="1178.7" y="254.0"></text>
</g>
<g>
<title>Monitor::wait(bool, long, bool) (4 samples, 1.21%)</title><rect x="1175.7" y="227.0" width="14.3" height="15" fill="#d1d13f" rx="2" ry="2"/>
<text x="1178.7" y="238.0"></text>
</g>
<g>
<title>Monitor::IWait(Thread*, long) (4 samples, 1.21%)</title><rect x="1175.7" y="211.0" width="14.3" height="15" fill="#cbcb3d" rx="2" ry="2"/>
<text x="1178.7" y="222.0"></text>
</g>
<g>
<title>os::PlatformEvent::park(long) (4 samples, 1.21%)</title><rect x="1175.7" y="195.0" width="14.3" height="15" fill="#d9d941" rx="2" ry="2"/>
<text x="1178.7" y="206.0"></text>
</g>
<g>
<title>__psynch_cvwait (4 samples, 1.21%)</title><rect x="1175.7" y="179.0" width="14.3" height="15" fill="#f67777" rx="2" ry="2"/>
<text x="1178.7" y="190.0"></text>
</g>
</g>
</svg>
