<?xml version="1.0" standalone="no"?>
<!DOCTYPE svg PUBLIC "-//W3C//DTD SVG 1.1//EN" "http://www.w3.org/Graphics/SVG/1.1/DTD/svg11.dtd">
<svg version="1.1" width="1200" height="422" onload="init(evt)" viewBox="0 0 1200 422" xmlns="http://www.w3.org/2000/svg" xmlns:xlink="http://www.w3.org/1999/xlink">
<style type="text/css">
	text { font-family:Verdana; font-size:12px; fill:rgb(0,0,0); }
	#search { opacity:0.1; cursor:pointer; }
	#search:hover, #search.show { opacity:1; }
	#subtitle { text-anchor:middle; font-color:rgb(160,160,160); }
	#title { text-anchor:middle; font-size:17px}
	#unzoom { cursor:pointer; }
	#frames > *:hover { stroke:black; stroke-width:0.5; cursor:pointer; }
	.hide { display:none; }
	.parent { opacity:0.5; }
</style>
<script type="text/ecmascript">
<![CDATA[
	"use strict";
	var details, searchbtn, unzoombtn, matchedtxt, svg, searching;
	function init(evt) {
		details = document.getElementById("details").firstChild;
		searchbtn = document.getElementById("search");
		unzoombtn = document.getElementById("unzoom");
		matchedtxt = document.getElementById("matched");
		svg = document.getElementsByTagName("svg")[0];
		searching = 0;
	}

	window.addEventListener("click", function(e) {
		var target = find_group(e.target);
		if (target) {
			if (target.nodeName == "a") {
				if (e.ctrlKey === false) return;
				e.preventDefault();
			}
			if (target.classList.contains("parent")) unzoom();
			zoom(target);
		}
		else if (e.target.id == "unzoom") unzoom();
		else if (e.target.id == "search") search_prompt();
	}, false)

	// mouse-over for info
	// show
	window.addEventListener("mouseover", function(e) {
		var target = find_group(e.target);
		if (target) details.nodeValue = "Function: " + g_to_text(target);
	}, false)

	// clear
	window.addEventListener("mouseout", function(e) {
		var target = find_group(e.target);
		if (target) details.nodeValue = ' ';
	}, false)

	// ctrl-F for search
	window.addEventListener("keydown",function (e) {
		if (e.keyCode === 114 || (e.ctrlKey && e.keyCode === 70)) {
			e.preventDefault();
			search_prompt();
		}
	}, false)

	// functions
	function find_child(node, selector) {
		var children = node.querySelectorAll(selector);
		if (children.length) return children[0];
		return;
	}
	function find_group(node) {
		var parent = node.parentElement;
		if (!parent) return;
		if (parent.id == "frames") return node;
		return find_group(parent);
	}
	function orig_save(e, attr, val) {
		if (e.attributes["_orig_" + attr] != undefined) return;
		if (e.attributes[attr] == undefined) return;
		if (val == undefined) val = e.attributes[attr].value;
		e.setAttribute("_orig_" + attr, val);
	}
	function orig_load(e, attr) {
		if (e.attributes["_orig_"+attr] == undefined) return;
		e.attributes[attr].value = e.attributes["_orig_" + attr].value;
		e.removeAttribute("_orig_"+attr);
	}
	function g_to_text(e) {
		var text = find_child(e, "title").firstChild.nodeValue;
		return (text)
	}
	function g_to_func(e) {
		var func = g_to_text(e);
		// if there's any manipulation we want to do to the function
		// name before it's searched, do it here before returning.
		return (func);
	}
	function update_text(e) {
		var r = find_child(e, "rect");
		var t = find_child(e, "text");
		var w = parseFloat(r.attributes.width.value) -3;
		var txt = find_child(e, "title").textContent.replace(/\([^(]*\)$/,"");
		t.attributes.x.value = parseFloat(r.attributes.x.value) + 3;

		// Smaller than this size won't fit anything
		if (w < 2 * 12 * 0.59) {
			t.textContent = "";
			return;
		}

		t.textContent = txt;
		// Fit in full text width
		if (/^ *$/.test(txt) || t.getSubStringLength(0, txt.length) < w)
			return;

		for (var x = txt.length - 2; x > 0; x--) {
			if (t.getSubStringLength(0, x + 2) <= w) {
				t.textContent = txt.substring(0, x) + "..";
				return;
			}
		}
		t.textContent = "";
	}

	// zoom
	function zoom_reset(e) {
		if (e.attributes != undefined) {
			orig_load(e, "x");
			orig_load(e, "width");
		}
		if (e.childNodes == undefined) return;
		for (var i = 0, c = e.childNodes; i < c.length; i++) {
			zoom_reset(c[i]);
		}
	}
	function zoom_child(e, x, ratio) {
		if (e.attributes != undefined) {
			if (e.attributes.x != undefined) {
				orig_save(e, "x");
				e.attributes.x.value = (parseFloat(e.attributes.x.value) - x - 10) * ratio + 10;
				if (e.tagName == "text")
					e.attributes.x.value = find_child(e.parentNode, "rect[x]").attributes.x.value + 3;
			}
			if (e.attributes.width != undefined) {
				orig_save(e, "width");
				e.attributes.width.value = parseFloat(e.attributes.width.value) * ratio;
			}
		}

		if (e.childNodes == undefined) return;
		for (var i = 0, c = e.childNodes; i < c.length; i++) {
			zoom_child(c[i], x - 10, ratio);
		}
	}
	function zoom_parent(e) {
		if (e.attributes) {
			if (e.attributes.x != undefined) {
				orig_save(e, "x");
				e.attributes.x.value = 10;
			}
			if (e.attributes.width != undefined) {
				orig_save(e, "width");
				e.attributes.width.value = parseInt(svg.width.baseVal.value) - (10 * 2);
			}
		}
		if (e.childNodes == undefined) return;
		for (var i = 0, c = e.childNodes; i < c.length; i++) {
			zoom_parent(c[i]);
		}
	}
	function zoom(node) {
		var attr = find_child(node, "rect").attributes;
		var width = parseFloat(attr.width.value);
		var xmin = parseFloat(attr.x.value);
		var xmax = parseFloat(xmin + width);
		var ymin = parseFloat(attr.y.value);
		var ratio = (svg.width.baseVal.value - 2 * 10) / width;

		// XXX: Workaround for JavaScript float issues (fix me)
		var fudge = 0.0001;

		unzoombtn.classList.remove("hide");

		var el = document.getElementById("frames").children;
		for (var i = 0; i < el.length; i++) {
			var e = el[i];
			var a = find_child(e, "rect").attributes;
			var ex = parseFloat(a.x.value);
			var ew = parseFloat(a.width.value);
			var upstack;
			// Is it an ancestor
			if (0 == 0) {
				upstack = parseFloat(a.y.value) > ymin;
			} else {
				upstack = parseFloat(a.y.value) < ymin;
			}
			if (upstack) {
				// Direct ancestor
				if (ex <= xmin && (ex+ew+fudge) >= xmax) {
					e.classList.add("parent");
					zoom_parent(e);
					update_text(e);
				}
				// not in current path
				else
					e.classList.add("hide");
			}
			// Children maybe
			else {
				// no common path
				if (ex < xmin || ex + fudge >= xmax) {
					e.classList.add("hide");
				}
				else {
					zoom_child(e, xmin, ratio);
					update_text(e);
				}
			}
		}
	}
	function unzoom() {
		unzoombtn.classList.add("hide");
		var el = document.getElementById("frames").children;
		for(var i = 0; i < el.length; i++) {
			el[i].classList.remove("parent");
			el[i].classList.remove("hide");
			zoom_reset(el[i]);
			update_text(el[i]);
		}
	}

	// search
	function reset_search() {
		var el = document.querySelectorAll("#frames rect");
		for (var i = 0; i < el.length; i++) {
			orig_load(el[i], "fill")
		}
	}
	function search_prompt() {
		if (!searching) {
			var term = prompt("Enter a search term (regexp " +
			    "allowed, eg: ^ext4_)", "");
			if (term != null) {
				search(term)
			}
		} else {
			reset_search();
			searching = 0;
			searchbtn.classList.remove("show");
			searchbtn.firstChild.nodeValue = "Search"
			matchedtxt.classList.add("hide");
			matchedtxt.firstChild.nodeValue = ""
		}
	}
	function search(term) {
		var re = new RegExp(term);
		var el = document.getElementById("frames").children;
		var matches = new Object();
		var maxwidth = 0;
		for (var i = 0; i < el.length; i++) {
			var e = el[i];
			var func = g_to_func(e);
			var rect = find_child(e, "rect");
			if (func == null || rect == null)
				continue;

			// Save max width. Only works as we have a root frame
			var w = parseFloat(rect.attributes.width.value);
			if (w > maxwidth)
				maxwidth = w;

			if (func.match(re)) {
				// highlight
				var x = parseFloat(rect.attributes.x.value);
				orig_save(rect, "fill");
				rect.attributes.fill.value = "rgb(230,0,230)";

				// remember matches
				if (matches[x] == undefined) {
					matches[x] = w;
				} else {
					if (w > matches[x]) {
						// overwrite with parent
						matches[x] = w;
					}
				}
				searching = 1;
			}
		}
		if (!searching)
			return;

		searchbtn.classList.add("show");
		searchbtn.firstChild.nodeValue = "Reset Search";

		// calculate percent matched, excluding vertical overlap
		var count = 0;
		var lastx = -1;
		var lastw = 0;
		var keys = Array();
		for (k in matches) {
			if (matches.hasOwnProperty(k))
				keys.push(k);
		}
		// sort the matched frames by their x location
		// ascending, then width descending
		keys.sort(function(a, b){
			return a - b;
		});
		// Step through frames saving only the biggest bottom-up frames
		// thanks to the sort order. This relies on the tree property
		// where children are always smaller than their parents.
		var fudge = 0.0001;	// JavaScript floating point
		for (var k in keys) {
			var x = parseFloat(keys[k]);
			var w = matches[keys[k]];
			if (x >= lastx + lastw - fudge) {
				count += w;
				lastx = x;
				lastw = w;
			}
		}
		// display matched percent
		matchedtxt.classList.remove("hide");
		var pct = 100 * count / maxwidth;
		if (pct != 100) pct = pct.toFixed(1)
		matchedtxt.firstChild.nodeValue = "Matched: " + pct + "%";
	}
]]>
</script>
<rect x="0" y="0" width="100%" height="100%" fill="rgb(240,240,220)"/>
<text id="title" x="600" y="24">Flame Graph</text>
<text id="details" x="10" y="405"> </text>
<text id="unzoom" x="10" y="24" class="hide">Reset Zoom</text>
<text id="search" x="1090" y="24">Search</text>
<text id="matched" x="1090" y="405"> </text>
<g id="frames">
<g>
<title>all (374 samples, 100.00%)</title><rect x="10.0" y="371.0" width="1180.0" height="15" fill="#f87878" rx="2" ry="2"/>
<text x="13.0" y="382.0">all</text>
</g>
<g>
<title>one/nio/server/SelectorThread.run (363 samples, 97.06%)</title><rect x="10.0" y="355.0" width="1145.3" height="15" fill="#66f766" rx="2" ry="2"/>
<text x="13.0" y="366.0">one/nio/server/SelectorThread.run</text>
</g>
<g>
<title>one/nio/net/JavaSelector.select (147 samples, 39.30%)</title><rect x="10.0" y="339.0" width="463.8" height="15" fill="#56e756" rx="2" ry="2"/>
<text x="13.0" y="350.0">one/nio/net/JavaSelector.select</text>
</g>
<g>
<title>one/nio/net/JavaSelector.iteratorFor (3 samples, 0.80%)</title><rect x="16.3" y="323.0" width="9.5" height="15" fill="#52e352" rx="2" ry="2"/>
<text x="19.3" y="334.0"></text>
</g>
<g>
<title>sun/nio/ch/Util$2.iterator (1 samples, 0.27%)</title><rect x="22.6" y="307.0" width="3.2" height="15" fill="#54e554" rx="2" ry="2"/>
<text x="25.6" y="318.0"></text>
</g>
<g>
<title>java/util/HashSet.iterator (1 samples, 0.27%)</title><rect x="22.6" y="291.0" width="3.2" height="15" fill="#61f261" rx="2" ry="2"/>
<text x="25.6" y="302.0"></text>
</g>
<g>
<title>java/util/HashMap$KeySet.iterator (1 samples, 0.27%)</title><rect x="22.6" y="275.0" width="3.2" height="15" fill="#58e958" rx="2" ry="2"/>
<text x="25.6" y="286.0"></text>
</g>
<g>
<title>java/util/HashMap$KeyIterator.&lt;init&gt; (1 samples, 0.27%)</title><rect x="22.6" y="259.0" width="3.2" height="15" fill="#5dee5d" rx="2" ry="2"/>
<text x="25.6" y="270.0"></text>
</g>
<g>
<title>java/util/HashMap$HashIterator.&lt;init&gt; (1 samples, 0.27%)</title><rect x="22.6" y="243.0" width="3.2" height="15" fill="#6afb6a" rx="2" ry="2"/>
<text x="25.6" y="254.0"></text>
</g>
<g>
<title>one/nio/net/JavaSelector.registerPendingSessions (2 samples, 0.53%)</title><rect x="25.8" y="323.0" width="6.3" height="15" fill="#61f261" rx="2" ry="2"/>
<text x="28.8" y="334.0"></text>
</g>
<g>
<title>java/util/concurrent/ConcurrentLinkedQueue.poll (2 samples, 0.53%)</title><rect x="25.8" y="307.0" width="6.3" height="15" fill="#5ff05f" rx="2" ry="2"/>
<text x="28.8" y="318.0"></text>
</g>
<g>
<title>os::javaTimeNanos() (2 samples, 0.53%)</title><rect x="32.1" y="323.0" width="6.3" height="15" fill="#e3e345" rx="2" ry="2"/>
<text x="35.1" y="334.0"></text>
</g>
<g>
<title>_res (1 samples, 0.27%)</title><rect x="35.2" y="307.0" width="3.2" height="15" fill="#ec6868" rx="2" ry="2"/>
<text x="38.2" y="318.0"></text>
</g>
<g>
<title>sun/nio/ch/SelectorImpl.select (137 samples, 36.63%)</title><rect x="38.4" y="323.0" width="432.2" height="15" fill="#57e857" rx="2" ry="2"/>
<text x="41.4" y="334.0">sun/nio/ch/SelectorImpl.select</text>
</g>
<g>
<title>sun/nio/ch/SelectorImpl.lockAndDoSelect (137 samples, 36.63%)</title><rect x="38.4" y="307.0" width="432.2" height="15" fill="#59ea59" rx="2" ry="2"/>
<text x="41.4" y="318.0">sun/nio/ch/SelectorImpl.lockAndDoSelect</text>
</g>
<g>
<title>sun/nio/ch/KQueueSelectorImpl.doSelect (136 samples, 36.36%)</title><rect x="41.6" y="291.0" width="429.0" height="15" fill="#53e453" rx="2" ry="2"/>
<text x="44.6" y="302.0">sun/nio/ch/KQueueSelectorImpl.doSelect</text>
</g>
<g>
<title>sun/nio/ch/KQueue.poll (120 samples, 32.09%)</title><rect x="41.6" y="275.0" width="378.6" height="15" fill="#54e554" rx="2" ry="2"/>
<text x="44.6" y="286.0">sun/nio/ch/KQueue.poll</text>
</g>
<g>
<title>Java_sun_nio_ch_KQueue_poll (3 samples, 0.80%)</title><rect x="66.8" y="259.0" width="9.5" height="15" fill="#f06e6e" rx="2" ry="2"/>
<text x="69.8" y="270.0"></text>
</g>
<g>
<title>kevent (109 samples, 29.14%)</title><rect x="76.3" y="259.0" width="343.9" height="15" fill="#fd7f7f" rx="2" ry="2"/>
<text x="79.3" y="270.0">kevent</text>
</g>
<g>
<title>sun/nio/ch/KQueueSelectorImpl.processEvents (9 samples, 2.41%)</title><rect x="420.2" y="275.0" width="28.4" height="15" fill="#58e958" rx="2" ry="2"/>
<text x="423.2" y="286.0">su..</text>
</g>
<g>
<title>java/util/HashMap.get (2 samples, 0.53%)</title><rect x="420.2" y="259.0" width="6.3" height="15" fill="#60f160" rx="2" ry="2"/>
<text x="423.2" y="270.0"></text>
</g>
<g>
<title>java/util/HashMap.getNode (2 samples, 0.53%)</title><rect x="420.2" y="243.0" width="6.3" height="15" fill="#51e251" rx="2" ry="2"/>
<text x="423.2" y="254.0"></text>
</g>
<g>
<title>sun/nio/ch/SelectorImpl.processReadyEvents (7 samples, 1.87%)</title><rect x="426.5" y="259.0" width="22.1" height="15" fill="#66f766" rx="2" ry="2"/>
<text x="429.5" y="270.0">s..</text>
</g>
<g>
<title>java/util/HashSet.add (7 samples, 1.87%)</title><rect x="426.5" y="243.0" width="22.1" height="15" fill="#5dee5d" rx="2" ry="2"/>
<text x="429.5" y="254.0">j..</text>
</g>
<g>
<title>java/util/HashMap.put (7 samples, 1.87%)</title><rect x="426.5" y="227.0" width="22.1" height="15" fill="#6dfe6d" rx="2" ry="2"/>
<text x="429.5" y="238.0">j..</text>
</g>
<g>
<title>java/util/HashMap.putVal (7 samples, 1.87%)</title><rect x="426.5" y="211.0" width="22.1" height="15" fill="#55e655" rx="2" ry="2"/>
<text x="429.5" y="222.0">j..</text>
</g>
<g>
<title>java/util/HashMap.afterNodeInsertion (1 samples, 0.27%)</title><rect x="426.5" y="195.0" width="3.1" height="15" fill="#6dfe6d" rx="2" ry="2"/>
<text x="429.5" y="206.0"></text>
</g>
<g>
<title>java/util/HashMap.newNode (6 samples, 1.60%)</title><rect x="429.6" y="195.0" width="19.0" height="15" fill="#51e251" rx="2" ry="2"/>
<text x="432.6" y="206.0"></text>
</g>
<g>
<title>sun/nio/ch/KQueueSelectorImpl.processUpdateQueue (2 samples, 0.53%)</title><rect x="448.6" y="275.0" width="6.3" height="15" fill="#68f968" rx="2" ry="2"/>
<text x="451.6" y="286.0"></text>
</g>
<g>
<title>java/util/ArrayDeque.pollFirst (1 samples, 0.27%)</title><rect x="451.7" y="259.0" width="3.2" height="15" fill="#63f463" rx="2" ry="2"/>
<text x="454.7" y="270.0"></text>
</g>
<g>
<title>sun/nio/ch/SelectorImpl.begin (2 samples, 0.53%)</title><rect x="454.9" y="275.0" width="6.3" height="15" fill="#65f665" rx="2" ry="2"/>
<text x="457.9" y="286.0"></text>
</g>
<g>
<title>java/nio/channels/spi/AbstractSelector.begin (2 samples, 0.53%)</title><rect x="454.9" y="259.0" width="6.3" height="15" fill="#54e554" rx="2" ry="2"/>
<text x="457.9" y="270.0"></text>
</g>
<g>
<title>java/lang/Thread.isInterrupted (2 samples, 0.53%)</title><rect x="454.9" y="243.0" width="6.3" height="15" fill="#6afb6a" rx="2" ry="2"/>
<text x="457.9" y="254.0"></text>
</g>
<g>
<title>sun/nio/ch/SelectorImpl.processDeregisterQueue (3 samples, 0.80%)</title><rect x="461.2" y="275.0" width="9.4" height="15" fill="#54e554" rx="2" ry="2"/>
<text x="464.2" y="286.0"></text>
</g>
<g>
<title>java/util/HashSet.isEmpty (1 samples, 0.27%)</title><rect x="464.3" y="259.0" width="3.2" height="15" fill="#5aeb5a" rx="2" ry="2"/>
<text x="467.3" y="270.0"></text>
</g>
<g>
<title>java/util/HashSet.iterator (1 samples, 0.27%)</title><rect x="467.5" y="259.0" width="3.1" height="15" fill="#61f261" rx="2" ry="2"/>
<text x="470.5" y="270.0"></text>
</g>
<g>
<title>java/util/HashMap.keySet (1 samples, 0.27%)</title><rect x="467.5" y="243.0" width="3.1" height="15" fill="#62f362" rx="2" ry="2"/>
<text x="470.5" y="254.0"></text>
</g>
<g>
<title>sun/nio/ch/Util$2.clear (1 samples, 0.27%)</title><rect x="470.6" y="323.0" width="3.2" height="15" fill="#5ced5c" rx="2" ry="2"/>
<text x="473.6" y="334.0"></text>
</g>
<g>
<title>java/util/HashSet.clear (1 samples, 0.27%)</title><rect x="470.6" y="307.0" width="3.2" height="15" fill="#5bec5b" rx="2" ry="2"/>
<text x="473.6" y="318.0"></text>
</g>
<g>
<title>java/util/HashMap.clear (1 samples, 0.27%)</title><rect x="470.6" y="291.0" width="3.2" height="15" fill="#55e655" rx="2" ry="2"/>
<text x="473.6" y="302.0"></text>
</g>
<g>
<title>one/nio/net/Session.process (216 samples, 57.75%)</title><rect x="473.8" y="339.0" width="681.5" height="15" fill="#5ff05f" rx="2" ry="2"/>
<text x="476.8" y="350.0">one/nio/net/Session.process</text>
</g>
<g>
<title>one/nio/http/HttpSession.processRead (216 samples, 57.75%)</title><rect x="473.8" y="323.0" width="681.5" height="15" fill="#56e756" rx="2" ry="2"/>
<text x="476.8" y="334.0">one/nio/http/HttpSession.processRead</text>
</g>
<g>
<title>one/nio/http/HttpSession.processHttpBuffer (185 samples, 49.47%)</title><rect x="473.8" y="307.0" width="583.7" height="15" fill="#63f463" rx="2" ry="2"/>
<text x="476.8" y="318.0">one/nio/http/HttpSession.processHttpBuffer</text>
</g>
<g>
<title>one/nio/http/HttpSession.handleParsedRequest (158 samples, 42.25%)</title><rect x="480.1" y="291.0" width="498.5" height="15" fill="#67f867" rx="2" ry="2"/>
<text x="483.1" y="302.0">one/nio/http/HttpSession.handleParsedRequest</text>
</g>
<g>
<title>one/nio/http/HttpServer.handleRequest (158 samples, 42.25%)</title><rect x="480.1" y="275.0" width="498.5" height="15" fill="#52e352" rx="2" ry="2"/>
<text x="483.1" y="286.0">one/nio/http/HttpServer.handleRequest</text>
</g>
<g>
<title>RequestHandler0_status.handleRequest (2 samples, 0.53%)</title><rect x="480.1" y="259.0" width="6.3" height="15" fill="#6afb6a" rx="2" ry="2"/>
<text x="483.1" y="270.0"></text>
</g>
<g>
<title>ru/mail/polis/service/kuzoliza/MyService.status (2 samples, 0.53%)</title><rect x="480.1" y="243.0" width="6.3" height="15" fill="#58e958" rx="2" ry="2"/>
<text x="483.1" y="254.0"></text>
</g>
<g>
<title>one/nio/http/Response.ok (2 samples, 0.53%)</title><rect x="480.1" y="227.0" width="6.3" height="15" fill="#67f867" rx="2" ry="2"/>
<text x="483.1" y="238.0"></text>
</g>
<g>
<title>java/lang/String.getBytes (1 samples, 0.27%)</title><rect x="480.1" y="211.0" width="3.2" height="15" fill="#5ff05f" rx="2" ry="2"/>
<text x="483.1" y="222.0"></text>
</g>
<g>
<title>java/lang/StringCoding.encode (1 samples, 0.27%)</title><rect x="480.1" y="195.0" width="3.2" height="15" fill="#66f766" rx="2" ry="2"/>
<text x="483.1" y="206.0"></text>
</g>
<g>
<title>java/lang/StringCoding.encodeUTF8 (1 samples, 0.27%)</title><rect x="480.1" y="179.0" width="3.2" height="15" fill="#51e251" rx="2" ry="2"/>
<text x="483.1" y="190.0"></text>
</g>
<g>
<title>java/util/Arrays.copyOf (1 samples, 0.27%)</title><rect x="480.1" y="163.0" width="3.2" height="15" fill="#6bfc6b" rx="2" ry="2"/>
<text x="483.1" y="174.0"></text>
</g>
<g>
<title>one/nio/http/Response.&lt;init&gt; (1 samples, 0.27%)</title><rect x="483.3" y="211.0" width="3.1" height="15" fill="#5dee5d" rx="2" ry="2"/>
<text x="486.3" y="222.0"></text>
</g>
<g>
<title>RequestHandler1_entity.handleRequest (150 samples, 40.11%)</title><rect x="486.4" y="259.0" width="473.3" height="15" fill="#6afb6a" rx="2" ry="2"/>
<text x="489.4" y="270.0">RequestHandler1_entity.handleRequest</text>
</g>
<g>
<title>one/nio/http/HttpSession.sendResponse (100 samples, 26.74%)</title><rect x="486.4" y="243.0" width="315.5" height="15" fill="#55e655" rx="2" ry="2"/>
<text x="489.4" y="254.0">one/nio/http/HttpSession.sendResponse</text>
</g>
<g>
<title>one/nio/http/HttpSession.writeResponse (100 samples, 26.74%)</title><rect x="486.4" y="227.0" width="315.5" height="15" fill="#61f261" rx="2" ry="2"/>
<text x="489.4" y="238.0">one/nio/http/HttpSession.writeResponse</text>
</g>
<g>
<title>one/nio/http/Response.toBytes (3 samples, 0.80%)</title><rect x="486.4" y="211.0" width="9.5" height="15" fill="#55e655" rx="2" ry="2"/>
<text x="489.4" y="222.0"></text>
</g>
<g>
<title>one/nio/util/ByteArrayBuilder.append (2 samples, 0.53%)</title><rect x="489.6" y="195.0" width="6.3" height="15" fill="#60f160" rx="2" ry="2"/>
<text x="492.6" y="206.0"></text>
</g>
<g>
<title>one/nio/util/Utf8.length (2 samples, 0.53%)</title><rect x="489.6" y="179.0" width="6.3" height="15" fill="#5ff05f" rx="2" ry="2"/>
<text x="492.6" y="190.0"></text>
</g>
<g>
<title>java/lang/String.charAt (2 samples, 0.53%)</title><rect x="489.6" y="163.0" width="6.3" height="15" fill="#55e655" rx="2" ry="2"/>
<text x="492.6" y="174.0"></text>
</g>
<g>
<title>one/nio/net/Session.write (97 samples, 25.94%)</title><rect x="495.9" y="211.0" width="306.0" height="15" fill="#51e251" rx="2" ry="2"/>
<text x="498.9" y="222.0">one/nio/net/Session.write</text>
</g>
<g>
<title>one/nio/net/Session.write (96 samples, 25.67%)</title><rect x="499.0" y="195.0" width="302.9" height="15" fill="#62f362" rx="2" ry="2"/>
<text x="502.0" y="206.0">one/nio/net/Session.write</text>
</g>
<g>
<title>one/nio/net/Session$ArrayQueueItem.write (95 samples, 25.40%)</title><rect x="502.2" y="179.0" width="299.7" height="15" fill="#51e251" rx="2" ry="2"/>
<text x="505.2" y="190.0">one/nio/net/Session$ArrayQueueItem.write</text>
</g>
<g>
<title>one/nio/net/JavaSocket.write (95 samples, 25.40%)</title><rect x="502.2" y="163.0" width="299.7" height="15" fill="#61f261" rx="2" ry="2"/>
<text x="505.2" y="174.0">one/nio/net/JavaSocket.write</text>
</g>
<g>
<title>sun/nio/ch/SocketChannelImpl.write (95 samples, 25.40%)</title><rect x="502.2" y="147.0" width="299.7" height="15" fill="#5bec5b" rx="2" ry="2"/>
<text x="505.2" y="158.0">sun/nio/ch/SocketChannelImpl.write</text>
</g>
<g>
<title>sun/nio/ch/IOUtil.write (95 samples, 25.40%)</title><rect x="502.2" y="131.0" width="299.7" height="15" fill="#64f564" rx="2" ry="2"/>
<text x="505.2" y="142.0">sun/nio/ch/IOUtil.write</text>
</g>
<g>
<title>sun/nio/ch/IOUtil.write (93 samples, 24.87%)</title><rect x="508.5" y="115.0" width="293.4" height="15" fill="#60f160" rx="2" ry="2"/>
<text x="511.5" y="126.0">sun/nio/ch/IOUtil.write</text>
</g>
<g>
<title>sun/nio/ch/IOUtil.writeFromNativeBuffer (91 samples, 24.33%)</title><rect x="508.5" y="99.0" width="287.1" height="15" fill="#51e251" rx="2" ry="2"/>
<text x="511.5" y="110.0">sun/nio/ch/IOUtil.writeFromNativeBuffer</text>
</g>
<g>
<title>sun/nio/ch/SocketDispatcher.write (91 samples, 24.33%)</title><rect x="508.5" y="83.0" width="287.1" height="15" fill="#6bfc6b" rx="2" ry="2"/>
<text x="511.5" y="94.0">sun/nio/ch/SocketDispatcher.write</text>
</g>
<g>
<title>sun/nio/ch/FileDispatcherImpl.write0 (90 samples, 24.06%)</title><rect x="511.7" y="67.0" width="283.9" height="15" fill="#67f867" rx="2" ry="2"/>
<text x="514.7" y="78.0">sun/nio/ch/FileDispatcherImpl.write0</text>
</g>
<g>
<title>Java_sun_nio_ch_FileDispatcherImpl_write0 (1 samples, 0.27%)</title><rect x="521.1" y="51.0" width="3.2" height="15" fill="#fd8080" rx="2" ry="2"/>
<text x="524.1" y="62.0"></text>
</g>
<g>
<title>fdval (1 samples, 0.27%)</title><rect x="521.1" y="35.0" width="3.2" height="15" fill="#e25c5c" rx="2" ry="2"/>
<text x="524.1" y="46.0"></text>
</g>
<g>
<title>write (86 samples, 22.99%)</title><rect x="524.3" y="51.0" width="271.3" height="15" fill="#f47474" rx="2" ry="2"/>
<text x="527.3" y="62.0">write</text>
</g>
<g>
<title>sun/nio/ch/Util.getTemporaryDirectBuffer (2 samples, 0.53%)</title><rect x="795.6" y="99.0" width="6.3" height="15" fill="#5ff05f" rx="2" ry="2"/>
<text x="798.6" y="110.0"></text>
</g>
<g>
<title>java/lang/ThreadLocal.get (2 samples, 0.53%)</title><rect x="795.6" y="83.0" width="6.3" height="15" fill="#6dfe6d" rx="2" ry="2"/>
<text x="798.6" y="94.0"></text>
</g>
<g>
<title>java/lang/ThreadLocal$ThreadLocalMap.getEntry (2 samples, 0.53%)</title><rect x="795.6" y="67.0" width="6.3" height="15" fill="#52e352" rx="2" ry="2"/>
<text x="798.6" y="78.0"></text>
</g>
<g>
<title>sun/nio/ch/FileDispatcherImpl.write0 (1 samples, 0.27%)</title><rect x="798.8" y="51.0" width="3.1" height="15" fill="#5ff05f" rx="2" ry="2"/>
<text x="801.8" y="62.0"></text>
</g>
<g>
<title>one/nio/http/Request.getRequiredParameter (5 samples, 1.34%)</title><rect x="801.9" y="243.0" width="15.8" height="15" fill="#60f160" rx="2" ry="2"/>
<text x="804.9" y="254.0"></text>
</g>
<g>
<title>one/nio/http/Request.getParameter (5 samples, 1.34%)</title><rect x="801.9" y="227.0" width="15.8" height="15" fill="#59ea59" rx="2" ry="2"/>
<text x="804.9" y="238.0"></text>
</g>
<g>
<title>jbyte_arraycopy (1 samples, 0.27%)</title><rect x="808.2" y="211.0" width="3.2" height="15" fill="#e66161" rx="2" ry="2"/>
<text x="811.2" y="222.0"></text>
</g>
<g>
<title>jbyte_disjoint_arraycopy (1 samples, 0.27%)</title><rect x="811.4" y="211.0" width="3.1" height="15" fill="#e15a5a" rx="2" ry="2"/>
<text x="814.4" y="222.0"></text>
</g>
<g>
<title>one/nio/util/URLEncoder.decode (1 samples, 0.27%)</title><rect x="814.5" y="211.0" width="3.2" height="15" fill="#51e251" rx="2" ry="2"/>
<text x="817.5" y="222.0"></text>
</g>
<g>
<title>ru/mail/polis/service/kuzoliza/MyService.entity (45 samples, 12.03%)</title><rect x="817.7" y="243.0" width="142.0" height="15" fill="#5bec5b" rx="2" ry="2"/>
<text x="820.7" y="254.0">ru/mail/polis/serv..</text>
</g>
<g>
<title>ru/mail/polis/service/kuzoliza/MyService.response (45 samples, 12.03%)</title><rect x="817.7" y="227.0" width="142.0" height="15" fill="#58e958" rx="2" ry="2"/>
<text x="820.7" y="238.0">ru/mail/polis/serv..</text>
</g>
<g>
<title>ru/mail/polis/dao/DAO.get (1 samples, 0.27%)</title><rect x="817.7" y="211.0" width="3.2" height="15" fill="#63f463" rx="2" ry="2"/>
<text x="820.7" y="222.0"></text>
</g>
<g>
<title>com/google/common/collect/TransformedIterator.hasNext (1 samples, 0.27%)</title><rect x="817.7" y="195.0" width="3.2" height="15" fill="#56e756" rx="2" ry="2"/>
<text x="820.7" y="206.0"></text>
</g>
<g>
<title>ru/mail/polis/dao/kuzoliza/LSM.remove (38 samples, 10.16%)</title><rect x="820.9" y="211.0" width="119.8" height="15" fill="#58e958" rx="2" ry="2"/>
<text x="823.9" y="222.0">ru/mail/polis/d..</text>
</g>
<g>
<title>ru/mail/polis/dao/kuzoliza/MemTable.remove (38 samples, 10.16%)</title><rect x="820.9" y="195.0" width="119.8" height="15" fill="#50e150" rx="2" ry="2"/>
<text x="823.9" y="206.0">ru/mail/polis/d..</text>
</g>
<g>
<title>java/util/TreeMap.put (38 samples, 10.16%)</title><rect x="820.9" y="179.0" width="119.8" height="15" fill="#55e655" rx="2" ry="2"/>
<text x="823.9" y="190.0">java/util/TreeM..</text>
</g>
<g>
<title>java/nio/BufferMismatch.mismatch (2 samples, 0.53%)</title><rect x="874.5" y="163.0" width="6.3" height="15" fill="#5ff05f" rx="2" ry="2"/>
<text x="877.5" y="174.0"></text>
</g>
<g>
<title>java/nio/ByteBuffer.compareTo (17 samples, 4.55%)</title><rect x="880.8" y="163.0" width="53.6" height="15" fill="#51e251" rx="2" ry="2"/>
<text x="883.8" y="174.0">java/..</text>
</g>
<g>
<title>java/nio/ByteBuffer.compareTo (17 samples, 4.55%)</title><rect x="880.8" y="147.0" width="53.6" height="15" fill="#5ced5c" rx="2" ry="2"/>
<text x="883.8" y="158.0">java/..</text>
</g>
<g>
<title>java/nio/BufferMismatch.mismatch (6 samples, 1.60%)</title><rect x="915.5" y="131.0" width="18.9" height="15" fill="#6bfc6b" rx="2" ry="2"/>
<text x="918.5" y="142.0"></text>
</g>
<g>
<title>os::javaTimeMillis() (2 samples, 0.53%)</title><rect x="934.4" y="163.0" width="6.3" height="15" fill="#cece3e" rx="2" ry="2"/>
<text x="937.4" y="174.0"></text>
</g>
<g>
<title>gettimeofday (1 samples, 0.27%)</title><rect x="934.4" y="147.0" width="3.2" height="15" fill="#fd8080" rx="2" ry="2"/>
<text x="937.4" y="158.0"></text>
</g>
<g>
<title>rcmd_af.canonnamebuf (1 samples, 0.27%)</title><rect x="934.4" y="131.0" width="3.2" height="15" fill="#ec6868" rx="2" ry="2"/>
<text x="937.4" y="142.0"></text>
</g>
<g>
<title>_res (1 samples, 0.27%)</title><rect x="934.4" y="115.0" width="3.2" height="15" fill="#f17070" rx="2" ry="2"/>
<text x="937.4" y="126.0"></text>
</g>
<g>
<title>rcmd_af.canonnamebuf (1 samples, 0.27%)</title><rect x="937.6" y="147.0" width="3.1" height="15" fill="#f37272" rx="2" ry="2"/>
<text x="940.6" y="158.0"></text>
</g>
<g>
<title>ru/mail/polis/service/kuzoliza/MyService.toByteArray (6 samples, 1.60%)</title><rect x="940.7" y="211.0" width="19.0" height="15" fill="#56e756" rx="2" ry="2"/>
<text x="943.7" y="222.0"></text>
</g>
<g>
<title>java/nio/ByteBuffer.get (6 samples, 1.60%)</title><rect x="940.7" y="195.0" width="19.0" height="15" fill="#68f968" rx="2" ry="2"/>
<text x="943.7" y="206.0"></text>
</g>
<g>
<title>java/nio/HeapByteBuffer.get (6 samples, 1.60%)</title><rect x="940.7" y="179.0" width="19.0" height="15" fill="#66f766" rx="2" ry="2"/>
<text x="943.7" y="190.0"></text>
</g>
<g>
<title>jlong_disjoint_arraycopy (2 samples, 0.53%)</title><rect x="953.4" y="163.0" width="6.3" height="15" fill="#fa7c7c" rx="2" ry="2"/>
<text x="956.4" y="174.0"></text>
</g>
<g>
<title>one/nio/http/HttpServer.findHandlerByHost (1 samples, 0.27%)</title><rect x="959.7" y="259.0" width="3.1" height="15" fill="#5eef5e" rx="2" ry="2"/>
<text x="962.7" y="270.0"></text>
</g>
<g>
<title>one/nio/http/PathMapper.find (5 samples, 1.34%)</title><rect x="962.8" y="259.0" width="15.8" height="15" fill="#66f766" rx="2" ry="2"/>
<text x="965.8" y="270.0"></text>
</g>
<g>
<title>java/util/HashMap.get (5 samples, 1.34%)</title><rect x="962.8" y="243.0" width="15.8" height="15" fill="#62f362" rx="2" ry="2"/>
<text x="965.8" y="254.0"></text>
</g>
<g>
<title>java/util/HashMap.getNode (5 samples, 1.34%)</title><rect x="962.8" y="227.0" width="15.8" height="15" fill="#50e150" rx="2" ry="2"/>
<text x="965.8" y="238.0"></text>
</g>
<g>
<title>one/nio/http/HttpSession.parseRequest (8 samples, 2.14%)</title><rect x="978.6" y="291.0" width="25.3" height="15" fill="#5aeb5a" rx="2" ry="2"/>
<text x="981.6" y="302.0">o..</text>
</g>
<g>
<title>one/nio/http/Request.&lt;init&gt; (4 samples, 1.07%)</title><rect x="978.6" y="275.0" width="12.6" height="15" fill="#50e150" rx="2" ry="2"/>
<text x="981.6" y="286.0"></text>
</g>
<g>
<title>java/lang/String.indexOf (4 samples, 1.07%)</title><rect x="978.6" y="259.0" width="12.6" height="15" fill="#62f362" rx="2" ry="2"/>
<text x="981.6" y="270.0"></text>
</g>
<g>
<title>java/lang/String.indexOf (4 samples, 1.07%)</title><rect x="978.6" y="243.0" width="12.6" height="15" fill="#52e352" rx="2" ry="2"/>
<text x="981.6" y="254.0"></text>
</g>
<g>
<title>java/lang/StringLatin1.indexOf (4 samples, 1.07%)</title><rect x="978.6" y="227.0" width="12.6" height="15" fill="#58e958" rx="2" ry="2"/>
<text x="981.6" y="238.0"></text>
</g>
<g>
<title>one/nio/util/Utf8.read (3 samples, 0.80%)</title><rect x="991.2" y="275.0" width="9.5" height="15" fill="#65f665" rx="2" ry="2"/>
<text x="994.2" y="286.0"></text>
</g>
<g>
<title>one/nio/util/Utf8.read (3 samples, 0.80%)</title><rect x="991.2" y="259.0" width="9.5" height="15" fill="#64f564" rx="2" ry="2"/>
<text x="994.2" y="270.0"></text>
</g>
<g>
<title>one/nio/util/Utf8.startsWith (1 samples, 0.27%)</title><rect x="1000.7" y="275.0" width="3.2" height="15" fill="#5ff05f" rx="2" ry="2"/>
<text x="1003.7" y="286.0"></text>
</g>
<g>
<title>one/nio/http/HttpSession.startParsingRequestBody (10 samples, 2.67%)</title><rect x="1003.9" y="291.0" width="31.5" height="15" fill="#50e150" rx="2" ry="2"/>
<text x="1006.9" y="302.0">on..</text>
</g>
<g>
<title>java/lang/Integer.parseInt (4 samples, 1.07%)</title><rect x="1019.6" y="275.0" width="12.6" height="15" fill="#65f665" rx="2" ry="2"/>
<text x="1022.6" y="286.0"></text>
</g>
<g>
<title>java/lang/Integer.parseInt (4 samples, 1.07%)</title><rect x="1019.6" y="259.0" width="12.6" height="15" fill="#60f160" rx="2" ry="2"/>
<text x="1022.6" y="270.0"></text>
</g>
<g>
<title>java/lang/String.charAt (1 samples, 0.27%)</title><rect x="1029.1" y="243.0" width="3.1" height="15" fill="#50e150" rx="2" ry="2"/>
<text x="1032.1" y="254.0"></text>
</g>
<g>
<title>one/nio/http/Request.setBody (1 samples, 0.27%)</title><rect x="1032.2" y="275.0" width="3.2" height="15" fill="#62f362" rx="2" ry="2"/>
<text x="1035.2" y="286.0"></text>
</g>
<g>
<title>one/nio/http/Request.getHeader (1 samples, 0.27%)</title><rect x="1035.4" y="291.0" width="3.2" height="15" fill="#64f564" rx="2" ry="2"/>
<text x="1038.4" y="302.0"></text>
</g>
<g>
<title>one/nio/util/Utf8.read (6 samples, 1.60%)</title><rect x="1038.6" y="291.0" width="18.9" height="15" fill="#55e655" rx="2" ry="2"/>
<text x="1041.6" y="302.0"></text>
</g>
<g>
<title>one/nio/util/Utf8.read (6 samples, 1.60%)</title><rect x="1038.6" y="275.0" width="18.9" height="15" fill="#5ff05f" rx="2" ry="2"/>
<text x="1041.6" y="286.0"></text>
</g>
<g>
<title>one/nio/net/Session.read (31 samples, 8.29%)</title><rect x="1057.5" y="307.0" width="97.8" height="15" fill="#6dfe6d" rx="2" ry="2"/>
<text x="1060.5" y="318.0">one/nio/net..</text>
</g>
<g>
<title>one/nio/net/JavaSocket.read (31 samples, 8.29%)</title><rect x="1057.5" y="291.0" width="97.8" height="15" fill="#56e756" rx="2" ry="2"/>
<text x="1060.5" y="302.0">one/nio/net..</text>
</g>
<g>
<title>sun/nio/ch/SocketChannelImpl.read (31 samples, 8.29%)</title><rect x="1057.5" y="275.0" width="97.8" height="15" fill="#57e857" rx="2" ry="2"/>
<text x="1060.5" y="286.0">sun/nio/ch/..</text>
</g>
<g>
<title>one/nio/http/HttpSession.processHttpBuffer (1 samples, 0.27%)</title><rect x="1060.6" y="259.0" width="3.2" height="15" fill="#63f463" rx="2" ry="2"/>
<text x="1063.6" y="270.0"></text>
</g>
<g>
<title>os::javaTimeMillis() (1 samples, 0.27%)</title><rect x="1063.8" y="259.0" width="3.2" height="15" fill="#dada42" rx="2" ry="2"/>
<text x="1066.8" y="270.0"></text>
</g>
<g>
<title>gettimeofday (1 samples, 0.27%)</title><rect x="1063.8" y="243.0" width="3.2" height="15" fill="#f06e6e" rx="2" ry="2"/>
<text x="1066.8" y="254.0"></text>
</g>
<g>
<title>rcmd_af.canonnamebuf (1 samples, 0.27%)</title><rect x="1063.8" y="227.0" width="3.2" height="15" fill="#e15a5a" rx="2" ry="2"/>
<text x="1066.8" y="238.0"></text>
</g>
<g>
<title>_res (1 samples, 0.27%)</title><rect x="1063.8" y="211.0" width="3.2" height="15" fill="#e96565" rx="2" ry="2"/>
<text x="1066.8" y="222.0"></text>
</g>
<g>
<title>sun/nio/ch/IOUtil.read (28 samples, 7.49%)</title><rect x="1067.0" y="259.0" width="88.3" height="15" fill="#60f160" rx="2" ry="2"/>
<text x="1070.0" y="270.0">sun/nio/ch..</text>
</g>
<g>
<title>sun/nio/ch/IOUtil.read (26 samples, 6.95%)</title><rect x="1073.3" y="243.0" width="82.0" height="15" fill="#5aeb5a" rx="2" ry="2"/>
<text x="1076.3" y="254.0">sun/nio/c..</text>
</g>
<g>
<title>sun/nio/ch/IOUtil.readIntoNativeBuffer (26 samples, 6.95%)</title><rect x="1073.3" y="227.0" width="82.0" height="15" fill="#5ced5c" rx="2" ry="2"/>
<text x="1076.3" y="238.0">sun/nio/c..</text>
</g>
<g>
<title>sun/nio/ch/SocketDispatcher.read (26 samples, 6.95%)</title><rect x="1073.3" y="211.0" width="82.0" height="15" fill="#5dee5d" rx="2" ry="2"/>
<text x="1076.3" y="222.0">sun/nio/c..</text>
</g>
<g>
<title>sun/nio/ch/FileDispatcherImpl.read0 (25 samples, 6.68%)</title><rect x="1076.4" y="195.0" width="78.9" height="15" fill="#50e150" rx="2" ry="2"/>
<text x="1079.4" y="206.0">sun/nio/c..</text>
</g>
<g>
<title>read (24 samples, 6.42%)</title><rect x="1079.6" y="179.0" width="75.7" height="15" fill="#fe8181" rx="2" ry="2"/>
<text x="1082.6" y="190.0">read</text>
</g>
<g>
<title>thread_start (11 samples, 2.94%)</title><rect x="1155.3" y="355.0" width="34.7" height="15" fill="#fe8181" rx="2" ry="2"/>
<text x="1158.3" y="366.0">th..</text>
</g>
<g>
<title>_pthread_start (11 samples, 2.94%)</title><rect x="1155.3" y="339.0" width="34.7" height="15" fill="#fa7b7b" rx="2" ry="2"/>
<text x="1158.3" y="350.0">_p..</text>
</g>
<g>
<title>_pthread_body (11 samples, 2.94%)</title><rect x="1155.3" y="323.0" width="34.7" height="15" fill="#e15a5a" rx="2" ry="2"/>
<text x="1158.3" y="334.0">_p..</text>
</g>
<g>
<title>thread_native_entry(Thread*) (11 samples, 2.94%)</title><rect x="1155.3" y="307.0" width="34.7" height="15" fill="#fa7c7c" rx="2" ry="2"/>
<text x="1158.3" y="318.0">th..</text>
</g>
<g>
<title>Thread::call_run() (11 samples, 2.94%)</title><rect x="1155.3" y="291.0" width="34.7" height="15" fill="#e4e445" rx="2" ry="2"/>
<text x="1158.3" y="302.0">Th..</text>
</g>
<g>
<title>ConcurrentGCThread::run() (1 samples, 0.27%)</title><rect x="1155.3" y="275.0" width="3.1" height="15" fill="#e5e545" rx="2" ry="2"/>
<text x="1158.3" y="286.0"></text>
</g>
<g>
<title>G1YoungRemSetSamplingThread::run_service() (1 samples, 0.27%)</title><rect x="1155.3" y="259.0" width="3.1" height="15" fill="#cece3e" rx="2" ry="2"/>
<text x="1158.3" y="270.0"></text>
</g>
<g>
<title>G1YoungRemSetSamplingThread::sleep_before_next_cycle() (1 samples, 0.27%)</title><rect x="1155.3" y="243.0" width="3.1" height="15" fill="#e5e545" rx="2" ry="2"/>
<text x="1158.3" y="254.0"></text>
</g>
<g>
<title>Monitor::wait(bool, long, bool) (1 samples, 0.27%)</title><rect x="1155.3" y="227.0" width="3.1" height="15" fill="#d7d741" rx="2" ry="2"/>
<text x="1158.3" y="238.0"></text>
</g>
<g>
<title>Monitor::IWait(Thread*, long) (1 samples, 0.27%)</title><rect x="1155.3" y="211.0" width="3.1" height="15" fill="#d0d03e" rx="2" ry="2"/>
<text x="1158.3" y="222.0"></text>
</g>
<g>
<title>os::PlatformEvent::park(long) (1 samples, 0.27%)</title><rect x="1155.3" y="195.0" width="3.1" height="15" fill="#e5e545" rx="2" ry="2"/>
<text x="1158.3" y="206.0"></text>
</g>
<g>
<title>__psynch_cvwait (1 samples, 0.27%)</title><rect x="1155.3" y="179.0" width="3.1" height="15" fill="#ef6d6d" rx="2" ry="2"/>
<text x="1158.3" y="190.0"></text>
</g>
<g>
<title>GangWorker::loop() (5 samples, 1.34%)</title><rect x="1158.4" y="275.0" width="15.8" height="15" fill="#e3e345" rx="2" ry="2"/>
<text x="1161.4" y="286.0"></text>
</g>
<g>
<title>SemaphoreGangTaskDispatcher::worker_wait_for_task() (5 samples, 1.34%)</title><rect x="1158.4" y="259.0" width="15.8" height="15" fill="#dada42" rx="2" ry="2"/>
<text x="1161.4" y="270.0"></text>
</g>
<g>
<title>__block_descriptor_tmp (5 samples, 1.34%)</title><rect x="1158.4" y="243.0" width="15.8" height="15" fill="#ea6666" rx="2" ry="2"/>
<text x="1161.4" y="254.0"></text>
</g>
<g>
<title>JavaThread::run() (1 samples, 0.27%)</title><rect x="1174.2" y="275.0" width="3.2" height="15" fill="#e0e044" rx="2" ry="2"/>
<text x="1177.2" y="286.0"></text>
</g>
<g>
<title>JavaThread::thread_main_inner() (1 samples, 0.27%)</title><rect x="1174.2" y="259.0" width="3.2" height="15" fill="#cccc3d" rx="2" ry="2"/>
<text x="1177.2" y="270.0"></text>
</g>
<g>
<title>attach_listener_thread_entry(JavaThread*, Thread*) (1 samples, 0.27%)</title><rect x="1174.2" y="243.0" width="3.2" height="15" fill="#f27070" rx="2" ry="2"/>
<text x="1177.2" y="254.0"></text>
</g>
<g>
<title>load_agent(AttachOperation*, outputStream*) (1 samples, 0.27%)</title><rect x="1174.2" y="227.0" width="3.2" height="15" fill="#e66060" rx="2" ry="2"/>
<text x="1177.2" y="238.0"></text>
</g>
<g>
<title>JvmtiExport::load_agent_library(char const*, char const*, char const*, outputStream*) (1 samples, 0.27%)</title><rect x="1174.2" y="211.0" width="3.2" height="15" fill="#e0e044" rx="2" ry="2"/>
<text x="1177.2" y="222.0"></text>
</g>
<g>
<title>Agent_OnAttach (1 samples, 0.27%)</title><rect x="1174.2" y="195.0" width="3.2" height="15" fill="#ec6969" rx="2" ry="2"/>
<text x="1177.2" y="206.0"></text>
</g>
<g>
<title>Profiler::run(Arguments&amp;) (1 samples, 0.27%)</title><rect x="1174.2" y="179.0" width="3.2" height="15" fill="#e5e545" rx="2" ry="2"/>
<text x="1177.2" y="190.0"></text>
</g>
<g>
<title>rcmd_af.canonnamebuf (1 samples, 0.27%)</title><rect x="1174.2" y="163.0" width="3.2" height="15" fill="#fb7c7c" rx="2" ry="2"/>
<text x="1177.2" y="174.0"></text>
</g>
<g>
<title>VMThread::run() (1 samples, 0.27%)</title><rect x="1177.4" y="275.0" width="3.1" height="15" fill="#c8c83c" rx="2" ry="2"/>
<text x="1180.4" y="286.0"></text>
</g>
<g>
<title>VMThread::loop() (1 samples, 0.27%)</title><rect x="1177.4" y="259.0" width="3.1" height="15" fill="#d6d640" rx="2" ry="2"/>
<text x="1180.4" y="270.0"></text>
</g>
<g>
<title>Monitor::wait(bool, long, bool) (1 samples, 0.27%)</title><rect x="1177.4" y="243.0" width="3.1" height="15" fill="#dcdc42" rx="2" ry="2"/>
<text x="1180.4" y="254.0"></text>
</g>
<g>
<title>Monitor::IWait(Thread*, long) (1 samples, 0.27%)</title><rect x="1177.4" y="227.0" width="3.1" height="15" fill="#d9d941" rx="2" ry="2"/>
<text x="1180.4" y="238.0"></text>
</g>
<g>
<title>os::PlatformEvent::park(long) (1 samples, 0.27%)</title><rect x="1177.4" y="211.0" width="3.1" height="15" fill="#c8c83c" rx="2" ry="2"/>
<text x="1180.4" y="222.0"></text>
</g>
<g>
<title>__psynch_cvwait (1 samples, 0.27%)</title><rect x="1177.4" y="195.0" width="3.1" height="15" fill="#ee6c6c" rx="2" ry="2"/>
<text x="1180.4" y="206.0"></text>
</g>
<g>
<title>WatcherThread::run() (3 samples, 0.80%)</title><rect x="1180.5" y="275.0" width="9.5" height="15" fill="#e5e545" rx="2" ry="2"/>
<text x="1183.5" y="286.0"></text>
</g>
<g>
<title>WatcherThread::sleep() const (3 samples, 0.80%)</title><rect x="1180.5" y="259.0" width="9.5" height="15" fill="#dfdf43" rx="2" ry="2"/>
<text x="1183.5" y="270.0"></text>
</g>
<g>
<title>Monitor::wait(bool, long, bool) (3 samples, 0.80%)</title><rect x="1180.5" y="243.0" width="9.5" height="15" fill="#e5e545" rx="2" ry="2"/>
<text x="1183.5" y="254.0"></text>
</g>
<g>
<title>Monitor::IWait(Thread*, long) (3 samples, 0.80%)</title><rect x="1180.5" y="227.0" width="9.5" height="15" fill="#d3d33f" rx="2" ry="2"/>
<text x="1183.5" y="238.0"></text>
</g>
<g>
<title>os::PlatformEvent::park(long) (3 samples, 0.80%)</title><rect x="1180.5" y="211.0" width="9.5" height="15" fill="#e5e545" rx="2" ry="2"/>
<text x="1183.5" y="222.0"></text>
</g>
<g>
<title>__psynch_cvwait (3 samples, 0.80%)</title><rect x="1180.5" y="195.0" width="9.5" height="15" fill="#e76363" rx="2" ry="2"/>
<text x="1183.5" y="206.0"></text>
</g>
</g>
</svg>
