<?xml version="1.0" standalone="no"?>
<!DOCTYPE svg PUBLIC "-//W3C//DTD SVG 1.1//EN" "http://www.w3.org/Graphics/SVG/1.1/DTD/svg11.dtd">
<svg version="1.1" width="1200" height="422" onload="init(evt)" viewBox="0 0 1200 422" xmlns="http://www.w3.org/2000/svg" xmlns:xlink="http://www.w3.org/1999/xlink">
<style type="text/css">
	text { font-family:Verdana; font-size:12px; fill:rgb(0,0,0); }
	#search { opacity:0.1; cursor:pointer; }
	#search:hover, #search.show { opacity:1; }
	#subtitle { text-anchor:middle; font-color:rgb(160,160,160); }
	#title { text-anchor:middle; font-size:17px}
	#unzoom { cursor:pointer; }
	#frames > *:hover { stroke:black; stroke-width:0.5; cursor:pointer; }
	.hide { display:none; }
	.parent { opacity:0.5; }
</style>
<script type="text/ecmascript">
<![CDATA[
	"use strict";
	var details, searchbtn, unzoombtn, matchedtxt, svg, searching;
	function init(evt) {
		details = document.getElementById("details").firstChild;
		searchbtn = document.getElementById("search");
		unzoombtn = document.getElementById("unzoom");
		matchedtxt = document.getElementById("matched");
		svg = document.getElementsByTagName("svg")[0];
		searching = 0;
	}

	window.addEventListener("click", function(e) {
		var target = find_group(e.target);
		if (target) {
			if (target.nodeName == "a") {
				if (e.ctrlKey === false) return;
				e.preventDefault();
			}
			if (target.classList.contains("parent")) unzoom();
			zoom(target);
		}
		else if (e.target.id == "unzoom") unzoom();
		else if (e.target.id == "search") search_prompt();
	}, false)

	// mouse-over for info
	// show
	window.addEventListener("mouseover", function(e) {
		var target = find_group(e.target);
		if (target) details.nodeValue = "Function: " + g_to_text(target);
	}, false)

	// clear
	window.addEventListener("mouseout", function(e) {
		var target = find_group(e.target);
		if (target) details.nodeValue = ' ';
	}, false)

	// ctrl-F for search
	window.addEventListener("keydown",function (e) {
		if (e.keyCode === 114 || (e.ctrlKey && e.keyCode === 70)) {
			e.preventDefault();
			search_prompt();
		}
	}, false)

	// functions
	function find_child(node, selector) {
		var children = node.querySelectorAll(selector);
		if (children.length) return children[0];
		return;
	}
	function find_group(node) {
		var parent = node.parentElement;
		if (!parent) return;
		if (parent.id == "frames") return node;
		return find_group(parent);
	}
	function orig_save(e, attr, val) {
		if (e.attributes["_orig_" + attr] != undefined) return;
		if (e.attributes[attr] == undefined) return;
		if (val == undefined) val = e.attributes[attr].value;
		e.setAttribute("_orig_" + attr, val);
	}
	function orig_load(e, attr) {
		if (e.attributes["_orig_"+attr] == undefined) return;
		e.attributes[attr].value = e.attributes["_orig_" + attr].value;
		e.removeAttribute("_orig_"+attr);
	}
	function g_to_text(e) {
		var text = find_child(e, "title").firstChild.nodeValue;
		return (text)
	}
	function g_to_func(e) {
		var func = g_to_text(e);
		// if there's any manipulation we want to do to the function
		// name before it's searched, do it here before returning.
		return (func);
	}
	function update_text(e) {
		var r = find_child(e, "rect");
		var t = find_child(e, "text");
		var w = parseFloat(r.attributes.width.value) -3;
		var txt = find_child(e, "title").textContent.replace(/\([^(]*\)$/,"");
		t.attributes.x.value = parseFloat(r.attributes.x.value) + 3;

		// Smaller than this size won't fit anything
		if (w < 2 * 12 * 0.59) {
			t.textContent = "";
			return;
		}

		t.textContent = txt;
		// Fit in full text width
		if (/^ *$/.test(txt) || t.getSubStringLength(0, txt.length) < w)
			return;

		for (var x = txt.length - 2; x > 0; x--) {
			if (t.getSubStringLength(0, x + 2) <= w) {
				t.textContent = txt.substring(0, x) + "..";
				return;
			}
		}
		t.textContent = "";
	}

	// zoom
	function zoom_reset(e) {
		if (e.attributes != undefined) {
			orig_load(e, "x");
			orig_load(e, "width");
		}
		if (e.childNodes == undefined) return;
		for (var i = 0, c = e.childNodes; i < c.length; i++) {
			zoom_reset(c[i]);
		}
	}
	function zoom_child(e, x, ratio) {
		if (e.attributes != undefined) {
			if (e.attributes.x != undefined) {
				orig_save(e, "x");
				e.attributes.x.value = (parseFloat(e.attributes.x.value) - x - 10) * ratio + 10;
				if (e.tagName == "text")
					e.attributes.x.value = find_child(e.parentNode, "rect[x]").attributes.x.value + 3;
			}
			if (e.attributes.width != undefined) {
				orig_save(e, "width");
				e.attributes.width.value = parseFloat(e.attributes.width.value) * ratio;
			}
		}

		if (e.childNodes == undefined) return;
		for (var i = 0, c = e.childNodes; i < c.length; i++) {
			zoom_child(c[i], x - 10, ratio);
		}
	}
	function zoom_parent(e) {
		if (e.attributes) {
			if (e.attributes.x != undefined) {
				orig_save(e, "x");
				e.attributes.x.value = 10;
			}
			if (e.attributes.width != undefined) {
				orig_save(e, "width");
				e.attributes.width.value = parseInt(svg.width.baseVal.value) - (10 * 2);
			}
		}
		if (e.childNodes == undefined) return;
		for (var i = 0, c = e.childNodes; i < c.length; i++) {
			zoom_parent(c[i]);
		}
	}
	function zoom(node) {
		var attr = find_child(node, "rect").attributes;
		var width = parseFloat(attr.width.value);
		var xmin = parseFloat(attr.x.value);
		var xmax = parseFloat(xmin + width);
		var ymin = parseFloat(attr.y.value);
		var ratio = (svg.width.baseVal.value - 2 * 10) / width;

		// XXX: Workaround for JavaScript float issues (fix me)
		var fudge = 0.0001;

		unzoombtn.classList.remove("hide");

		var el = document.getElementById("frames").children;
		for (var i = 0; i < el.length; i++) {
			var e = el[i];
			var a = find_child(e, "rect").attributes;
			var ex = parseFloat(a.x.value);
			var ew = parseFloat(a.width.value);
			var upstack;
			// Is it an ancestor
			if (0 == 0) {
				upstack = parseFloat(a.y.value) > ymin;
			} else {
				upstack = parseFloat(a.y.value) < ymin;
			}
			if (upstack) {
				// Direct ancestor
				if (ex <= xmin && (ex+ew+fudge) >= xmax) {
					e.classList.add("parent");
					zoom_parent(e);
					update_text(e);
				}
				// not in current path
				else
					e.classList.add("hide");
			}
			// Children maybe
			else {
				// no common path
				if (ex < xmin || ex + fudge >= xmax) {
					e.classList.add("hide");
				}
				else {
					zoom_child(e, xmin, ratio);
					update_text(e);
				}
			}
		}
	}
	function unzoom() {
		unzoombtn.classList.add("hide");
		var el = document.getElementById("frames").children;
		for(var i = 0; i < el.length; i++) {
			el[i].classList.remove("parent");
			el[i].classList.remove("hide");
			zoom_reset(el[i]);
			update_text(el[i]);
		}
	}

	// search
	function reset_search() {
		var el = document.querySelectorAll("#frames rect");
		for (var i = 0; i < el.length; i++) {
			orig_load(el[i], "fill")
		}
	}
	function search_prompt() {
		if (!searching) {
			var term = prompt("Enter a search term (regexp " +
			    "allowed, eg: ^ext4_)", "");
			if (term != null) {
				search(term)
			}
		} else {
			reset_search();
			searching = 0;
			searchbtn.classList.remove("show");
			searchbtn.firstChild.nodeValue = "Search"
			matchedtxt.classList.add("hide");
			matchedtxt.firstChild.nodeValue = ""
		}
	}
	function search(term) {
		var re = new RegExp(term);
		var el = document.getElementById("frames").children;
		var matches = new Object();
		var maxwidth = 0;
		for (var i = 0; i < el.length; i++) {
			var e = el[i];
			var func = g_to_func(e);
			var rect = find_child(e, "rect");
			if (func == null || rect == null)
				continue;

			// Save max width. Only works as we have a root frame
			var w = parseFloat(rect.attributes.width.value);
			if (w > maxwidth)
				maxwidth = w;

			if (func.match(re)) {
				// highlight
				var x = parseFloat(rect.attributes.x.value);
				orig_save(rect, "fill");
				rect.attributes.fill.value = "rgb(230,0,230)";

				// remember matches
				if (matches[x] == undefined) {
					matches[x] = w;
				} else {
					if (w > matches[x]) {
						// overwrite with parent
						matches[x] = w;
					}
				}
				searching = 1;
			}
		}
		if (!searching)
			return;

		searchbtn.classList.add("show");
		searchbtn.firstChild.nodeValue = "Reset Search";

		// calculate percent matched, excluding vertical overlap
		var count = 0;
		var lastx = -1;
		var lastw = 0;
		var keys = Array();
		for (k in matches) {
			if (matches.hasOwnProperty(k))
				keys.push(k);
		}
		// sort the matched frames by their x location
		// ascending, then width descending
		keys.sort(function(a, b){
			return a - b;
		});
		// Step through frames saving only the biggest bottom-up frames
		// thanks to the sort order. This relies on the tree property
		// where children are always smaller than their parents.
		var fudge = 0.0001;	// JavaScript floating point
		for (var k in keys) {
			var x = parseFloat(keys[k]);
			var w = matches[keys[k]];
			if (x >= lastx + lastw - fudge) {
				count += w;
				lastx = x;
				lastw = w;
			}
		}
		// display matched percent
		matchedtxt.classList.remove("hide");
		var pct = 100 * count / maxwidth;
		if (pct != 100) pct = pct.toFixed(1)
		matchedtxt.firstChild.nodeValue = "Matched: " + pct + "%";
	}
]]>
</script>
<rect x="0" y="0" width="100%" height="100%" fill="rgb(240,240,220)"/>
<text id="title" x="600" y="24">Flame Graph</text>
<text id="details" x="10" y="405"> </text>
<text id="unzoom" x="10" y="24" class="hide">Reset Zoom</text>
<text id="search" x="1090" y="24">Search</text>
<text id="matched" x="1090" y="405"> </text>
<g id="frames">
<g>
<title>all (89 samples, 100.00%)</title><rect x="10.0" y="371.0" width="1180.0" height="15" fill="#ee6b6b" rx="2" ry="2"/>
<text x="13.0" y="382.0">all</text>
</g>
<g>
<title>one/nio/server/SelectorThread.run (78 samples, 87.64%)</title><rect x="10.0" y="355.0" width="1034.2" height="15" fill="#5bec5b" rx="2" ry="2"/>
<text x="13.0" y="366.0">one/nio/server/SelectorThread.run</text>
</g>
<g>
<title>one/nio/net/JavaSelector.select (35 samples, 39.33%)</title><rect x="10.0" y="339.0" width="464.0" height="15" fill="#5bec5b" rx="2" ry="2"/>
<text x="13.0" y="350.0">one/nio/net/JavaSelector.select</text>
</g>
<g>
<title>one/nio/net/JavaSelector.iteratorFor (2 samples, 2.25%)</title><rect x="10.0" y="323.0" width="26.5" height="15" fill="#59ea59" rx="2" ry="2"/>
<text x="13.0" y="334.0">o..</text>
</g>
<g>
<title>sun/nio/ch/Util$2.iterator (1 samples, 1.12%)</title><rect x="23.3" y="307.0" width="13.2" height="15" fill="#50e150" rx="2" ry="2"/>
<text x="26.3" y="318.0"></text>
</g>
<g>
<title>java/util/HashSet.iterator (1 samples, 1.12%)</title><rect x="23.3" y="291.0" width="13.2" height="15" fill="#55e655" rx="2" ry="2"/>
<text x="26.3" y="302.0"></text>
</g>
<g>
<title>java/util/HashMap$KeySet.iterator (1 samples, 1.12%)</title><rect x="23.3" y="275.0" width="13.2" height="15" fill="#5aeb5a" rx="2" ry="2"/>
<text x="26.3" y="286.0"></text>
</g>
<g>
<title>java/util/HashMap$KeyIterator.&lt;init&gt; (1 samples, 1.12%)</title><rect x="23.3" y="259.0" width="13.2" height="15" fill="#52e352" rx="2" ry="2"/>
<text x="26.3" y="270.0"></text>
</g>
<g>
<title>java/util/HashMap$HashIterator.&lt;init&gt; (1 samples, 1.12%)</title><rect x="23.3" y="243.0" width="13.2" height="15" fill="#5aeb5a" rx="2" ry="2"/>
<text x="26.3" y="254.0"></text>
</g>
<g>
<title>sun/nio/ch/SelectorImpl.select (33 samples, 37.08%)</title><rect x="36.5" y="323.0" width="437.5" height="15" fill="#54e554" rx="2" ry="2"/>
<text x="39.5" y="334.0">sun/nio/ch/SelectorImpl.select</text>
</g>
<g>
<title>sun/nio/ch/SelectorImpl.lockAndDoSelect (33 samples, 37.08%)</title><rect x="36.5" y="307.0" width="437.5" height="15" fill="#60f160" rx="2" ry="2"/>
<text x="39.5" y="318.0">sun/nio/ch/SelectorImpl.lockAndDoSelect</text>
</g>
<g>
<title>sun/nio/ch/KQueueSelectorImpl.doSelect (33 samples, 37.08%)</title><rect x="36.5" y="291.0" width="437.5" height="15" fill="#6dfe6d" rx="2" ry="2"/>
<text x="39.5" y="302.0">sun/nio/ch/KQueueSelectorImpl.doSelect</text>
</g>
<g>
<title>sun/nio/ch/KQueue.poll (30 samples, 33.71%)</title><rect x="49.8" y="275.0" width="397.7" height="15" fill="#63f463" rx="2" ry="2"/>
<text x="52.8" y="286.0">sun/nio/ch/KQueue.poll</text>
</g>
<g>
<title>kevent (29 samples, 32.58%)</title><rect x="63.0" y="259.0" width="384.5" height="15" fill="#fd8080" rx="2" ry="2"/>
<text x="66.0" y="270.0">kevent</text>
</g>
<g>
<title>sun/nio/ch/KQueueSelectorImpl.processEvents (1 samples, 1.12%)</title><rect x="447.5" y="275.0" width="13.3" height="15" fill="#6bfc6b" rx="2" ry="2"/>
<text x="450.5" y="286.0"></text>
</g>
<g>
<title>java/util/HashMap.putVal (1 samples, 1.12%)</title><rect x="447.5" y="259.0" width="13.3" height="15" fill="#63f463" rx="2" ry="2"/>
<text x="450.5" y="270.0"></text>
</g>
<g>
<title>sun/nio/ch/SelectorImpl.processDeregisterQueue (1 samples, 1.12%)</title><rect x="460.8" y="275.0" width="13.2" height="15" fill="#65f665" rx="2" ry="2"/>
<text x="463.8" y="286.0"></text>
</g>
<g>
<title>one/nio/net/Session.process (43 samples, 48.31%)</title><rect x="474.0" y="339.0" width="570.2" height="15" fill="#54e554" rx="2" ry="2"/>
<text x="477.0" y="350.0">one/nio/net/Session.process</text>
</g>
<g>
<title>one/nio/http/HttpSession.processRead (43 samples, 48.31%)</title><rect x="474.0" y="323.0" width="570.2" height="15" fill="#66f766" rx="2" ry="2"/>
<text x="477.0" y="334.0">one/nio/http/HttpSession.processRead</text>
</g>
<g>
<title>one/nio/http/HttpSession.processHttpBuffer (36 samples, 40.45%)</title><rect x="474.0" y="307.0" width="477.3" height="15" fill="#55e655" rx="2" ry="2"/>
<text x="477.0" y="318.0">one/nio/http/HttpSession.processHttpBuffer</text>
</g>
<g>
<title>one/nio/http/HttpSession.handleParsedRequest (30 samples, 33.71%)</title><rect x="474.0" y="291.0" width="397.8" height="15" fill="#6cfd6c" rx="2" ry="2"/>
<text x="477.0" y="302.0">one/nio/http/HttpSession.handleParsedRequest</text>
</g>
<g>
<title>one/nio/http/HttpServer.handleRequest (30 samples, 33.71%)</title><rect x="474.0" y="275.0" width="397.8" height="15" fill="#52e352" rx="2" ry="2"/>
<text x="477.0" y="286.0">one/nio/http/HttpServer.handleRequest</text>
</g>
<g>
<title>RequestHandler1_entity.handleRequest (29 samples, 32.58%)</title><rect x="474.0" y="259.0" width="384.5" height="15" fill="#5bec5b" rx="2" ry="2"/>
<text x="477.0" y="270.0">RequestHandler1_entity.handleRequest</text>
</g>
<g>
<title>one/nio/http/HttpSession.sendResponse (16 samples, 17.98%)</title><rect x="474.0" y="243.0" width="212.2" height="15" fill="#55e655" rx="2" ry="2"/>
<text x="477.0" y="254.0">one/nio/http/HttpSession.sen..</text>
</g>
<g>
<title>one/nio/http/HttpSession.writeResponse (16 samples, 17.98%)</title><rect x="474.0" y="227.0" width="212.2" height="15" fill="#6dfe6d" rx="2" ry="2"/>
<text x="477.0" y="238.0">one/nio/http/HttpSession.wri..</text>
</g>
<g>
<title>one/nio/net/Session.write (16 samples, 17.98%)</title><rect x="474.0" y="211.0" width="212.2" height="15" fill="#5eef5e" rx="2" ry="2"/>
<text x="477.0" y="222.0">one/nio/net/Session.write</text>
</g>
<g>
<title>one/nio/net/Session.write (16 samples, 17.98%)</title><rect x="474.0" y="195.0" width="212.2" height="15" fill="#6bfc6b" rx="2" ry="2"/>
<text x="477.0" y="206.0">one/nio/net/Session.write</text>
</g>
<g>
<title>one/nio/net/Session$ArrayQueueItem.write (16 samples, 17.98%)</title><rect x="474.0" y="179.0" width="212.2" height="15" fill="#61f261" rx="2" ry="2"/>
<text x="477.0" y="190.0">one/nio/net/Session$ArrayQue..</text>
</g>
<g>
<title>one/nio/net/JavaSocket.write (16 samples, 17.98%)</title><rect x="474.0" y="163.0" width="212.2" height="15" fill="#53e453" rx="2" ry="2"/>
<text x="477.0" y="174.0">one/nio/net/JavaSocket.write</text>
</g>
<g>
<title>sun/nio/ch/SocketChannelImpl.write (16 samples, 17.98%)</title><rect x="474.0" y="147.0" width="212.2" height="15" fill="#61f261" rx="2" ry="2"/>
<text x="477.0" y="158.0">sun/nio/ch/SocketChannelImpl..</text>
</g>
<g>
<title>sun/nio/ch/IOUtil.write (16 samples, 17.98%)</title><rect x="474.0" y="131.0" width="212.2" height="15" fill="#5eef5e" rx="2" ry="2"/>
<text x="477.0" y="142.0">sun/nio/ch/IOUtil.write</text>
</g>
<g>
<title>sun/nio/ch/IOUtil.write (16 samples, 17.98%)</title><rect x="474.0" y="115.0" width="212.2" height="15" fill="#59ea59" rx="2" ry="2"/>
<text x="477.0" y="126.0">sun/nio/ch/IOUtil.write</text>
</g>
<g>
<title>sun/nio/ch/IOUtil.writeFromNativeBuffer (16 samples, 17.98%)</title><rect x="474.0" y="99.0" width="212.2" height="15" fill="#6afb6a" rx="2" ry="2"/>
<text x="477.0" y="110.0">sun/nio/ch/IOUtil.writeFromN..</text>
</g>
<g>
<title>sun/nio/ch/SocketDispatcher.write (16 samples, 17.98%)</title><rect x="474.0" y="83.0" width="212.2" height="15" fill="#64f564" rx="2" ry="2"/>
<text x="477.0" y="94.0">sun/nio/ch/SocketDispatcher...</text>
</g>
<g>
<title>sun/nio/ch/FileDispatcherImpl.write0 (16 samples, 17.98%)</title><rect x="474.0" y="67.0" width="212.2" height="15" fill="#6dfe6d" rx="2" ry="2"/>
<text x="477.0" y="78.0">sun/nio/ch/FileDispatcherImp..</text>
</g>
<g>
<title>write (15 samples, 16.85%)</title><rect x="487.3" y="51.0" width="198.9" height="15" fill="#e25c5c" rx="2" ry="2"/>
<text x="490.3" y="62.0">write</text>
</g>
<g>
<title>ru/mail/polis/service/kuzoliza/MyService.entity (13 samples, 14.61%)</title><rect x="686.2" y="243.0" width="172.3" height="15" fill="#51e251" rx="2" ry="2"/>
<text x="689.2" y="254.0">ru/mail/polis/service/..</text>
</g>
<g>
<title>ru/mail/polis/service/kuzoliza/MyService.response (13 samples, 14.61%)</title><rect x="686.2" y="227.0" width="172.3" height="15" fill="#69fa69" rx="2" ry="2"/>
<text x="689.2" y="238.0">ru/mail/polis/service/..</text>
</g>
<g>
<title>one/nio/http/Response.&lt;init&gt; (1 samples, 1.12%)</title><rect x="686.2" y="211.0" width="13.2" height="15" fill="#57e857" rx="2" ry="2"/>
<text x="689.2" y="222.0"></text>
</g>
<g>
<title>ru/mail/polis/dao/DAO.get (12 samples, 13.48%)</title><rect x="699.4" y="211.0" width="159.1" height="15" fill="#5ced5c" rx="2" ry="2"/>
<text x="702.4" y="222.0">ru/mail/polis/dao/DA..</text>
</g>
<g>
<title>com/google/common/collect/TransformedIterator.hasNext (2 samples, 2.25%)</title><rect x="699.4" y="195.0" width="26.6" height="15" fill="#64f564" rx="2" ry="2"/>
<text x="702.4" y="206.0">c..</text>
</g>
<g>
<title>com/google/common/collect/AbstractIterator.hasNext (2 samples, 2.25%)</title><rect x="699.4" y="179.0" width="26.6" height="15" fill="#68f968" rx="2" ry="2"/>
<text x="702.4" y="190.0">c..</text>
</g>
<g>
<title>com/google/common/collect/AbstractIterator.tryToComputeNext (2 samples, 2.25%)</title><rect x="699.4" y="163.0" width="26.6" height="15" fill="#67f867" rx="2" ry="2"/>
<text x="702.4" y="174.0">c..</text>
</g>
<g>
<title>com/google/common/collect/Iterators$5.computeNext (2 samples, 2.25%)</title><rect x="699.4" y="147.0" width="26.6" height="15" fill="#66f766" rx="2" ry="2"/>
<text x="702.4" y="158.0">c..</text>
</g>
<g>
<title>ru/mail/polis/dao/Iters$CollapseEqualsIterator.next (2 samples, 2.25%)</title><rect x="699.4" y="131.0" width="26.6" height="15" fill="#5ced5c" rx="2" ry="2"/>
<text x="702.4" y="142.0">r..</text>
</g>
<g>
<title>com/google/common/collect/Iterators$MergingIterator.next (2 samples, 2.25%)</title><rect x="699.4" y="115.0" width="26.6" height="15" fill="#6afb6a" rx="2" ry="2"/>
<text x="702.4" y="126.0">c..</text>
</g>
<g>
<title>com/google/common/collect/Iterators$PeekingImpl.next (2 samples, 2.25%)</title><rect x="699.4" y="99.0" width="26.6" height="15" fill="#5bec5b" rx="2" ry="2"/>
<text x="702.4" y="110.0">c..</text>
</g>
<g>
<title>com/google/common/collect/TransformedIterator.next (2 samples, 2.25%)</title><rect x="699.4" y="83.0" width="26.6" height="15" fill="#55e655" rx="2" ry="2"/>
<text x="702.4" y="94.0">c..</text>
</g>
<g>
<title>com/google/common/collect/Iterators$6.transform (2 samples, 2.25%)</title><rect x="699.4" y="67.0" width="26.6" height="15" fill="#52e352" rx="2" ry="2"/>
<text x="702.4" y="78.0">c..</text>
</g>
<g>
<title>ru/mail/polis/dao/kuzoliza/MemTable$$Lambda$64/731216725.apply (2 samples, 2.25%)</title><rect x="699.4" y="51.0" width="26.6" height="15" fill="#60f160" rx="2" ry="2"/>
<text x="702.4" y="62.0">r..</text>
</g>
<g>
<title>ru/mail/polis/dao/kuzoliza/MemTable.lambda$iterator$0 (2 samples, 2.25%)</title><rect x="699.4" y="35.0" width="26.6" height="15" fill="#50e150" rx="2" ry="2"/>
<text x="702.4" y="46.0">r..</text>
</g>
<g>
<title>ru/mail/polis/dao/kuzoliza/LSM.iterator (10 samples, 11.24%)</title><rect x="726.0" y="195.0" width="132.5" height="15" fill="#61f261" rx="2" ry="2"/>
<text x="729.0" y="206.0">ru/mail/polis/da..</text>
</g>
<g>
<title>ru/mail/polis/dao/kuzoliza/LSM.noTombstones (10 samples, 11.24%)</title><rect x="726.0" y="179.0" width="132.5" height="15" fill="#5ff05f" rx="2" ry="2"/>
<text x="729.0" y="190.0">ru/mail/polis/da..</text>
</g>
<g>
<title>ru/mail/polis/dao/Iters.collapseEquals (4 samples, 4.49%)</title><rect x="726.0" y="163.0" width="53.0" height="15" fill="#6cfd6c" rx="2" ry="2"/>
<text x="729.0" y="174.0">ru/ma..</text>
</g>
<g>
<title>ru/mail/polis/dao/Iters$CollapseEqualsIterator.&lt;init&gt; (4 samples, 4.49%)</title><rect x="726.0" y="147.0" width="53.0" height="15" fill="#55e655" rx="2" ry="2"/>
<text x="729.0" y="158.0">ru/ma..</text>
</g>
<g>
<title>com/google/common/collect/Iterators$MergingIterator.next (4 samples, 4.49%)</title><rect x="726.0" y="131.0" width="53.0" height="15" fill="#66f766" rx="2" ry="2"/>
<text x="729.0" y="142.0">com/g..</text>
</g>
<g>
<title>com/google/common/collect/Iterators$PeekingImpl.next (4 samples, 4.49%)</title><rect x="726.0" y="115.0" width="53.0" height="15" fill="#64f564" rx="2" ry="2"/>
<text x="729.0" y="126.0">com/g..</text>
</g>
<g>
<title>com/google/common/collect/TransformedIterator.next (4 samples, 4.49%)</title><rect x="726.0" y="99.0" width="53.0" height="15" fill="#66f766" rx="2" ry="2"/>
<text x="729.0" y="110.0">com/g..</text>
</g>
<g>
<title>com/google/common/collect/Iterators$6.transform (2 samples, 2.25%)</title><rect x="726.0" y="83.0" width="26.5" height="15" fill="#5eef5e" rx="2" ry="2"/>
<text x="729.0" y="94.0">c..</text>
</g>
<g>
<title>ru/mail/polis/dao/kuzoliza/MemTable$$Lambda$64/731216725.apply (2 samples, 2.25%)</title><rect x="726.0" y="67.0" width="26.5" height="15" fill="#56e756" rx="2" ry="2"/>
<text x="729.0" y="78.0">r..</text>
</g>
<g>
<title>ru/mail/polis/dao/kuzoliza/MemTable.lambda$iterator$0 (2 samples, 2.25%)</title><rect x="726.0" y="51.0" width="26.5" height="15" fill="#69fa69" rx="2" ry="2"/>
<text x="729.0" y="62.0">r..</text>
</g>
<g>
<title>java/util/TreeMap$NavigableSubMap$SubMapEntryIterator.next (2 samples, 2.25%)</title><rect x="752.5" y="83.0" width="26.5" height="15" fill="#51e251" rx="2" ry="2"/>
<text x="755.5" y="94.0">j..</text>
</g>
<g>
<title>java/util/TreeMap$NavigableSubMap$SubMapEntryIterator.next (2 samples, 2.25%)</title><rect x="752.5" y="67.0" width="26.5" height="15" fill="#5aeb5a" rx="2" ry="2"/>
<text x="755.5" y="78.0">j..</text>
</g>
<g>
<title>java/util/TreeMap$NavigableSubMap$SubMapIterator.nextEntry (2 samples, 2.25%)</title><rect x="752.5" y="51.0" width="26.5" height="15" fill="#64f564" rx="2" ry="2"/>
<text x="755.5" y="62.0">j..</text>
</g>
<g>
<title>java/util/TreeMap.successor (2 samples, 2.25%)</title><rect x="752.5" y="35.0" width="26.5" height="15" fill="#51e251" rx="2" ry="2"/>
<text x="755.5" y="46.0">j..</text>
</g>
<g>
<title>ru/mail/polis/dao/kuzoliza/MemTable.iterator (6 samples, 6.74%)</title><rect x="779.0" y="163.0" width="79.5" height="15" fill="#69fa69" rx="2" ry="2"/>
<text x="782.0" y="174.0">ru/mail/p..</text>
</g>
<g>
<title>java/util/TreeMap$AscendingSubMap$AscendingEntrySetView.iterator (5 samples, 5.62%)</title><rect x="779.0" y="147.0" width="66.3" height="15" fill="#52e352" rx="2" ry="2"/>
<text x="782.0" y="158.0">java/ut..</text>
</g>
<g>
<title>java/util/TreeMap$NavigableSubMap$SubMapEntryIterator.&lt;init&gt; (1 samples, 1.12%)</title><rect x="779.0" y="131.0" width="13.2" height="15" fill="#5ff05f" rx="2" ry="2"/>
<text x="782.0" y="142.0"></text>
</g>
<g>
<title>java/util/TreeMap$NavigableSubMap$SubMapIterator.&lt;init&gt; (1 samples, 1.12%)</title><rect x="779.0" y="115.0" width="13.2" height="15" fill="#6cfd6c" rx="2" ry="2"/>
<text x="782.0" y="126.0"></text>
</g>
<g>
<title>java/util/TreeMap$NavigableSubMap.absLowest (4 samples, 4.49%)</title><rect x="792.2" y="131.0" width="53.1" height="15" fill="#66f766" rx="2" ry="2"/>
<text x="795.2" y="142.0">java/..</text>
</g>
<g>
<title>java/util/TreeMap.getCeilingEntry (4 samples, 4.49%)</title><rect x="792.2" y="115.0" width="53.1" height="15" fill="#64f564" rx="2" ry="2"/>
<text x="795.2" y="126.0">java/..</text>
</g>
<g>
<title>java/util/TreeMap.compare (2 samples, 2.25%)</title><rect x="818.8" y="99.0" width="26.5" height="15" fill="#52e352" rx="2" ry="2"/>
<text x="821.8" y="110.0">j..</text>
</g>
<g>
<title>java/nio/ByteBuffer.compareTo (1 samples, 1.12%)</title><rect x="832.0" y="83.0" width="13.3" height="15" fill="#5ff05f" rx="2" ry="2"/>
<text x="835.0" y="94.0"></text>
</g>
<g>
<title>java/nio/ByteBuffer.compareTo (1 samples, 1.12%)</title><rect x="832.0" y="67.0" width="13.3" height="15" fill="#66f766" rx="2" ry="2"/>
<text x="835.0" y="78.0"></text>
</g>
<g>
<title>java/nio/BufferMismatch.mismatch (1 samples, 1.12%)</title><rect x="832.0" y="51.0" width="13.3" height="15" fill="#61f261" rx="2" ry="2"/>
<text x="835.0" y="62.0"></text>
</g>
<g>
<title>java/util/TreeMap.tailMap (1 samples, 1.12%)</title><rect x="845.3" y="147.0" width="13.2" height="15" fill="#65f665" rx="2" ry="2"/>
<text x="848.3" y="158.0"></text>
</g>
<g>
<title>java/util/TreeMap.tailMap (1 samples, 1.12%)</title><rect x="845.3" y="131.0" width="13.2" height="15" fill="#58e958" rx="2" ry="2"/>
<text x="848.3" y="142.0"></text>
</g>
<g>
<title>java/util/TreeMap$AscendingSubMap.&lt;init&gt; (1 samples, 1.12%)</title><rect x="845.3" y="115.0" width="13.2" height="15" fill="#65f665" rx="2" ry="2"/>
<text x="848.3" y="126.0"></text>
</g>
<g>
<title>java/util/TreeMap$NavigableSubMap.&lt;init&gt; (1 samples, 1.12%)</title><rect x="845.3" y="99.0" width="13.2" height="15" fill="#5bec5b" rx="2" ry="2"/>
<text x="848.3" y="110.0"></text>
</g>
<g>
<title>java/util/TreeMap.compare (1 samples, 1.12%)</title><rect x="845.3" y="83.0" width="13.2" height="15" fill="#58e958" rx="2" ry="2"/>
<text x="848.3" y="94.0"></text>
</g>
<g>
<title>java/nio/ByteBuffer.compareTo (1 samples, 1.12%)</title><rect x="845.3" y="67.0" width="13.2" height="15" fill="#5dee5d" rx="2" ry="2"/>
<text x="848.3" y="78.0"></text>
</g>
<g>
<title>java/nio/ByteBuffer.compareTo (1 samples, 1.12%)</title><rect x="845.3" y="51.0" width="13.2" height="15" fill="#6dfe6d" rx="2" ry="2"/>
<text x="848.3" y="62.0"></text>
</g>
<g>
<title>java/nio/BufferMismatch.mismatch (1 samples, 1.12%)</title><rect x="845.3" y="35.0" width="13.2" height="15" fill="#69fa69" rx="2" ry="2"/>
<text x="848.3" y="46.0"></text>
</g>
<g>
<title>one/nio/http/PathMapper.find (1 samples, 1.12%)</title><rect x="858.5" y="259.0" width="13.3" height="15" fill="#6afb6a" rx="2" ry="2"/>
<text x="861.5" y="270.0"></text>
</g>
<g>
<title>java/util/HashMap.get (1 samples, 1.12%)</title><rect x="858.5" y="243.0" width="13.3" height="15" fill="#68f968" rx="2" ry="2"/>
<text x="861.5" y="254.0"></text>
</g>
<g>
<title>java/util/ArrayList$Itr.next (1 samples, 1.12%)</title><rect x="858.5" y="227.0" width="13.3" height="15" fill="#6dfe6d" rx="2" ry="2"/>
<text x="861.5" y="238.0"></text>
</g>
<g>
<title>one/nio/http/HttpSession.parseRequest (4 samples, 4.49%)</title><rect x="871.8" y="291.0" width="53.0" height="15" fill="#5ff05f" rx="2" ry="2"/>
<text x="874.8" y="302.0">one/n..</text>
</g>
<g>
<title>one/nio/http/Request.&lt;init&gt; (3 samples, 3.37%)</title><rect x="871.8" y="275.0" width="39.8" height="15" fill="#58e958" rx="2" ry="2"/>
<text x="874.8" y="286.0">one..</text>
</g>
<g>
<title>java/lang/String.indexOf (3 samples, 3.37%)</title><rect x="871.8" y="259.0" width="39.8" height="15" fill="#6dfe6d" rx="2" ry="2"/>
<text x="874.8" y="270.0">jav..</text>
</g>
<g>
<title>java/lang/String.indexOf (3 samples, 3.37%)</title><rect x="871.8" y="243.0" width="39.8" height="15" fill="#5eef5e" rx="2" ry="2"/>
<text x="874.8" y="254.0">jav..</text>
</g>
<g>
<title>java/lang/StringLatin1.indexOf (3 samples, 3.37%)</title><rect x="871.8" y="227.0" width="39.8" height="15" fill="#65f665" rx="2" ry="2"/>
<text x="874.8" y="238.0">jav..</text>
</g>
<g>
<title>one/nio/util/Utf8.read (1 samples, 1.12%)</title><rect x="911.6" y="275.0" width="13.2" height="15" fill="#5dee5d" rx="2" ry="2"/>
<text x="914.6" y="286.0"></text>
</g>
<g>
<title>one/nio/util/Utf8.read (1 samples, 1.12%)</title><rect x="911.6" y="259.0" width="13.2" height="15" fill="#62f362" rx="2" ry="2"/>
<text x="914.6" y="270.0"></text>
</g>
<g>
<title>one/nio/http/HttpSession.startParsingRequestBody (2 samples, 2.25%)</title><rect x="924.8" y="291.0" width="26.5" height="15" fill="#66f766" rx="2" ry="2"/>
<text x="927.8" y="302.0">o..</text>
</g>
<g>
<title>java/lang/Integer.parseInt (2 samples, 2.25%)</title><rect x="924.8" y="275.0" width="26.5" height="15" fill="#53e453" rx="2" ry="2"/>
<text x="927.8" y="286.0">j..</text>
</g>
<g>
<title>java/lang/Integer.parseInt (2 samples, 2.25%)</title><rect x="924.8" y="259.0" width="26.5" height="15" fill="#52e352" rx="2" ry="2"/>
<text x="927.8" y="270.0">j..</text>
</g>
<g>
<title>java/lang/Character.digit (1 samples, 1.12%)</title><rect x="924.8" y="243.0" width="13.3" height="15" fill="#5dee5d" rx="2" ry="2"/>
<text x="927.8" y="254.0"></text>
</g>
<g>
<title>java/lang/Character.digit (1 samples, 1.12%)</title><rect x="924.8" y="227.0" width="13.3" height="15" fill="#51e251" rx="2" ry="2"/>
<text x="927.8" y="238.0"></text>
</g>
<g>
<title>java/lang/String.charAt (1 samples, 1.12%)</title><rect x="938.1" y="243.0" width="13.2" height="15" fill="#5eef5e" rx="2" ry="2"/>
<text x="941.1" y="254.0"></text>
</g>
<g>
<title>one/nio/net/Session.read (7 samples, 7.87%)</title><rect x="951.3" y="307.0" width="92.9" height="15" fill="#65f665" rx="2" ry="2"/>
<text x="954.3" y="318.0">one/nio/net..</text>
</g>
<g>
<title>one/nio/net/JavaSocket.read (7 samples, 7.87%)</title><rect x="951.3" y="291.0" width="92.9" height="15" fill="#57e857" rx="2" ry="2"/>
<text x="954.3" y="302.0">one/nio/net..</text>
</g>
<g>
<title>sun/nio/ch/SocketChannelImpl.read (7 samples, 7.87%)</title><rect x="951.3" y="275.0" width="92.9" height="15" fill="#5ced5c" rx="2" ry="2"/>
<text x="954.3" y="286.0">sun/nio/ch/..</text>
</g>
<g>
<title>sun/nio/ch/IOUtil.read (7 samples, 7.87%)</title><rect x="951.3" y="259.0" width="92.9" height="15" fill="#5bec5b" rx="2" ry="2"/>
<text x="954.3" y="270.0">sun/nio/ch/..</text>
</g>
<g>
<title>sun/nio/ch/IOUtil.read (7 samples, 7.87%)</title><rect x="951.3" y="243.0" width="92.9" height="15" fill="#6cfd6c" rx="2" ry="2"/>
<text x="954.3" y="254.0">sun/nio/ch/..</text>
</g>
<g>
<title>sun/nio/ch/IOUtil.readIntoNativeBuffer (7 samples, 7.87%)</title><rect x="951.3" y="227.0" width="92.9" height="15" fill="#62f362" rx="2" ry="2"/>
<text x="954.3" y="238.0">sun/nio/ch/..</text>
</g>
<g>
<title>sun/nio/ch/SocketDispatcher.read (7 samples, 7.87%)</title><rect x="951.3" y="211.0" width="92.9" height="15" fill="#60f160" rx="2" ry="2"/>
<text x="954.3" y="222.0">sun/nio/ch/..</text>
</g>
<g>
<title>sun/nio/ch/FileDispatcherImpl.read0 (7 samples, 7.87%)</title><rect x="951.3" y="195.0" width="92.9" height="15" fill="#56e756" rx="2" ry="2"/>
<text x="954.3" y="206.0">sun/nio/ch/..</text>
</g>
<g>
<title>read (7 samples, 7.87%)</title><rect x="951.3" y="179.0" width="92.9" height="15" fill="#f67676" rx="2" ry="2"/>
<text x="954.3" y="190.0">read</text>
</g>
<g>
<title>thread_start (11 samples, 12.36%)</title><rect x="1044.2" y="355.0" width="145.8" height="15" fill="#f47373" rx="2" ry="2"/>
<text x="1047.2" y="366.0">thread_start</text>
</g>
<g>
<title>_pthread_start (11 samples, 12.36%)</title><rect x="1044.2" y="339.0" width="145.8" height="15" fill="#f47373" rx="2" ry="2"/>
<text x="1047.2" y="350.0">_pthread_start</text>
</g>
<g>
<title>_pthread_body (11 samples, 12.36%)</title><rect x="1044.2" y="323.0" width="145.8" height="15" fill="#ed6a6a" rx="2" ry="2"/>
<text x="1047.2" y="334.0">_pthread_body</text>
</g>
<g>
<title>thread_native_entry(Thread*) (11 samples, 12.36%)</title><rect x="1044.2" y="307.0" width="145.8" height="15" fill="#e45e5e" rx="2" ry="2"/>
<text x="1047.2" y="318.0">thread_native_entr..</text>
</g>
<g>
<title>Thread::call_run() (11 samples, 12.36%)</title><rect x="1044.2" y="291.0" width="145.8" height="15" fill="#d5d540" rx="2" ry="2"/>
<text x="1047.2" y="302.0">Thread::call_run()</text>
</g>
<g>
<title>ConcurrentGCThread::run() (4 samples, 4.49%)</title><rect x="1044.2" y="275.0" width="53.0" height="15" fill="#dcdc42" rx="2" ry="2"/>
<text x="1047.2" y="286.0">Concu..</text>
</g>
<g>
<title>G1YoungRemSetSamplingThread::run_service() (4 samples, 4.49%)</title><rect x="1044.2" y="259.0" width="53.0" height="15" fill="#d2d23f" rx="2" ry="2"/>
<text x="1047.2" y="270.0">G1You..</text>
</g>
<g>
<title>G1YoungRemSetSamplingThread::sleep_before_next_cycle() (4 samples, 4.49%)</title><rect x="1044.2" y="243.0" width="53.0" height="15" fill="#c8c83c" rx="2" ry="2"/>
<text x="1047.2" y="254.0">G1You..</text>
</g>
<g>
<title>Monitor::wait(bool, long, bool) (4 samples, 4.49%)</title><rect x="1044.2" y="227.0" width="53.0" height="15" fill="#d9d941" rx="2" ry="2"/>
<text x="1047.2" y="238.0">Monit..</text>
</g>
<g>
<title>Monitor::IWait(Thread*, long) (4 samples, 4.49%)</title><rect x="1044.2" y="211.0" width="53.0" height="15" fill="#dada42" rx="2" ry="2"/>
<text x="1047.2" y="222.0">Monit..</text>
</g>
<g>
<title>os::PlatformEvent::park(long) (4 samples, 4.49%)</title><rect x="1044.2" y="195.0" width="53.0" height="15" fill="#dddd43" rx="2" ry="2"/>
<text x="1047.2" y="206.0">os::P..</text>
</g>
<g>
<title>__psynch_cvwait (4 samples, 4.49%)</title><rect x="1044.2" y="179.0" width="53.0" height="15" fill="#ea6767" rx="2" ry="2"/>
<text x="1047.2" y="190.0">__psy..</text>
</g>
<g>
<title>GangWorker::loop() (1 samples, 1.12%)</title><rect x="1097.2" y="275.0" width="13.2" height="15" fill="#d5d540" rx="2" ry="2"/>
<text x="1100.2" y="286.0"></text>
</g>
<g>
<title>SemaphoreGangTaskDispatcher::worker_wait_for_task() (1 samples, 1.12%)</title><rect x="1097.2" y="259.0" width="13.2" height="15" fill="#d9d941" rx="2" ry="2"/>
<text x="1100.2" y="270.0"></text>
</g>
<g>
<title>__block_descriptor_tmp (1 samples, 1.12%)</title><rect x="1097.2" y="243.0" width="13.2" height="15" fill="#f06e6e" rx="2" ry="2"/>
<text x="1100.2" y="254.0"></text>
</g>
<g>
<title>JavaThread::run() (1 samples, 1.12%)</title><rect x="1110.4" y="275.0" width="13.3" height="15" fill="#d8d841" rx="2" ry="2"/>
<text x="1113.4" y="286.0"></text>
</g>
<g>
<title>JavaThread::thread_main_inner() (1 samples, 1.12%)</title><rect x="1110.4" y="259.0" width="13.3" height="15" fill="#e3e345" rx="2" ry="2"/>
<text x="1113.4" y="270.0"></text>
</g>
<g>
<title>attach_listener_thread_entry(JavaThread*, Thread*) (1 samples, 1.12%)</title><rect x="1110.4" y="243.0" width="13.3" height="15" fill="#ee6c6c" rx="2" ry="2"/>
<text x="1113.4" y="254.0"></text>
</g>
<g>
<title>load_agent(AttachOperation*, outputStream*) (1 samples, 1.12%)</title><rect x="1110.4" y="227.0" width="13.3" height="15" fill="#eb6767" rx="2" ry="2"/>
<text x="1113.4" y="238.0"></text>
</g>
<g>
<title>JvmtiExport::load_agent_library(char const*, char const*, char const*, outputStream*) (1 samples, 1.12%)</title><rect x="1110.4" y="211.0" width="13.3" height="15" fill="#d2d23f" rx="2" ry="2"/>
<text x="1113.4" y="222.0"></text>
</g>
<g>
<title>Agent_OnAttach (1 samples, 1.12%)</title><rect x="1110.4" y="195.0" width="13.3" height="15" fill="#e66161" rx="2" ry="2"/>
<text x="1113.4" y="206.0"></text>
</g>
<g>
<title>Profiler::run(Arguments&amp;) (1 samples, 1.12%)</title><rect x="1110.4" y="179.0" width="13.3" height="15" fill="#e0e044" rx="2" ry="2"/>
<text x="1113.4" y="190.0"></text>
</g>
<g>
<title>Profiler::runInternal(Arguments&amp;, std::__1::basic_ostream&lt;char, std::__1::char_traits&lt;char&gt; &gt;&amp;) (1 samples, 1.12%)</title><rect x="1110.4" y="163.0" width="13.3" height="15" fill="#d7d741" rx="2" ry="2"/>
<text x="1113.4" y="174.0"></text>
</g>
<g>
<title>Profiler::start(Arguments&amp;, bool) (1 samples, 1.12%)</title><rect x="1110.4" y="147.0" width="13.3" height="15" fill="#e1e144" rx="2" ry="2"/>
<text x="1113.4" y="158.0"></text>
</g>
<g>
<title>Profiler::bindNativeLibraryLoad(JNIEnv_*, unsigned char (*)(JNIEnv_*, _jobject*, _jstring*, unsigned char)) (1 samples, 1.12%)</title><rect x="1110.4" y="131.0" width="13.3" height="15" fill="#d7d741" rx="2" ry="2"/>
<text x="1113.4" y="142.0"></text>
</g>
<g>
<title>jni_RegisterNatives (1 samples, 1.12%)</title><rect x="1110.4" y="115.0" width="13.3" height="15" fill="#f47474" rx="2" ry="2"/>
<text x="1113.4" y="126.0"></text>
</g>
<g>
<title>SymbolTable::lookup(int, char const*, int, unsigned int) (1 samples, 1.12%)</title><rect x="1110.4" y="99.0" width="13.3" height="15" fill="#d0d03e" rx="2" ry="2"/>
<text x="1113.4" y="110.0"></text>
</g>
<g>
<title>SymbolTable::lookup_dynamic(int, char const*, int, unsigned int) (1 samples, 1.12%)</title><rect x="1110.4" y="83.0" width="13.3" height="15" fill="#d6d640" rx="2" ry="2"/>
<text x="1113.4" y="94.0"></text>
</g>
<g>
<title>WatcherThread::run() (5 samples, 5.62%)</title><rect x="1123.7" y="275.0" width="66.3" height="15" fill="#d5d540" rx="2" ry="2"/>
<text x="1126.7" y="286.0">Watcher..</text>
</g>
<g>
<title>PeriodicTask::real_time_tick(int) (1 samples, 1.12%)</title><rect x="1123.7" y="259.0" width="13.3" height="15" fill="#cccc3d" rx="2" ry="2"/>
<text x="1126.7" y="270.0"></text>
</g>
<g>
<title>ChunkPool::free_all_but(unsigned long) (1 samples, 1.12%)</title><rect x="1123.7" y="243.0" width="13.3" height="15" fill="#dada42" rx="2" ry="2"/>
<text x="1126.7" y="254.0"></text>
</g>
<g>
<title>free_small (1 samples, 1.12%)</title><rect x="1123.7" y="227.0" width="13.3" height="15" fill="#e45e5e" rx="2" ry="2"/>
<text x="1126.7" y="238.0"></text>
</g>
<g>
<title>small_free_list_remove_ptr_no_clear (1 samples, 1.12%)</title><rect x="1123.7" y="211.0" width="13.3" height="15" fill="#e86363" rx="2" ry="2"/>
<text x="1126.7" y="222.0"></text>
</g>
<g>
<title>WatcherThread::sleep() const (4 samples, 4.49%)</title><rect x="1137.0" y="259.0" width="53.0" height="15" fill="#dcdc42" rx="2" ry="2"/>
<text x="1140.0" y="270.0">Watch..</text>
</g>
<g>
<title>Monitor::wait(bool, long, bool) (4 samples, 4.49%)</title><rect x="1137.0" y="243.0" width="53.0" height="15" fill="#d8d841" rx="2" ry="2"/>
<text x="1140.0" y="254.0">Monit..</text>
</g>
<g>
<title>Monitor::IWait(Thread*, long) (4 samples, 4.49%)</title><rect x="1137.0" y="227.0" width="53.0" height="15" fill="#dcdc42" rx="2" ry="2"/>
<text x="1140.0" y="238.0">Monit..</text>
</g>
<g>
<title>os::PlatformEvent::park(long) (4 samples, 4.49%)</title><rect x="1137.0" y="211.0" width="53.0" height="15" fill="#c9c93c" rx="2" ry="2"/>
<text x="1140.0" y="222.0">os::P..</text>
</g>
<g>
<title>__psynch_cvwait (4 samples, 4.49%)</title><rect x="1137.0" y="195.0" width="53.0" height="15" fill="#e96565" rx="2" ry="2"/>
<text x="1140.0" y="206.0">__psy..</text>
</g>
</g>
</svg>
