<?xml version="1.0" standalone="no"?>
<!DOCTYPE svg PUBLIC "-//W3C//DTD SVG 1.1//EN" "http://www.w3.org/Graphics/SVG/1.1/DTD/svg11.dtd">
<svg version="1.1" width="1200" height="406" onload="init(evt)" viewBox="0 0 1200 406" xmlns="http://www.w3.org/2000/svg" xmlns:xlink="http://www.w3.org/1999/xlink">
<style type="text/css">
	text { font-family:Verdana; font-size:12px; fill:rgb(0,0,0); }
	#search { opacity:0.1; cursor:pointer; }
	#search:hover, #search.show { opacity:1; }
	#subtitle { text-anchor:middle; font-color:rgb(160,160,160); }
	#title { text-anchor:middle; font-size:17px}
	#unzoom { cursor:pointer; }
	#frames > *:hover { stroke:black; stroke-width:0.5; cursor:pointer; }
	.hide { display:none; }
	.parent { opacity:0.5; }
</style>
<script type="text/ecmascript">
<![CDATA[
	"use strict";
	var details, searchbtn, unzoombtn, matchedtxt, svg, searching;
	function init(evt) {
		details = document.getElementById("details").firstChild;
		searchbtn = document.getElementById("search");
		unzoombtn = document.getElementById("unzoom");
		matchedtxt = document.getElementById("matched");
		svg = document.getElementsByTagName("svg")[0];
		searching = 0;
	}

	window.addEventListener("click", function(e) {
		var target = find_group(e.target);
		if (target) {
			if (target.nodeName == "a") {
				if (e.ctrlKey === false) return;
				e.preventDefault();
			}
			if (target.classList.contains("parent")) unzoom();
			zoom(target);
		}
		else if (e.target.id == "unzoom") unzoom();
		else if (e.target.id == "search") search_prompt();
	}, false)

	// mouse-over for info
	// show
	window.addEventListener("mouseover", function(e) {
		var target = find_group(e.target);
		if (target) details.nodeValue = "Function: " + g_to_text(target);
	}, false)

	// clear
	window.addEventListener("mouseout", function(e) {
		var target = find_group(e.target);
		if (target) details.nodeValue = ' ';
	}, false)

	// ctrl-F for search
	window.addEventListener("keydown",function (e) {
		if (e.keyCode === 114 || (e.ctrlKey && e.keyCode === 70)) {
			e.preventDefault();
			search_prompt();
		}
	}, false)

	// functions
	function find_child(node, selector) {
		var children = node.querySelectorAll(selector);
		if (children.length) return children[0];
		return;
	}
	function find_group(node) {
		var parent = node.parentElement;
		if (!parent) return;
		if (parent.id == "frames") return node;
		return find_group(parent);
	}
	function orig_save(e, attr, val) {
		if (e.attributes["_orig_" + attr] != undefined) return;
		if (e.attributes[attr] == undefined) return;
		if (val == undefined) val = e.attributes[attr].value;
		e.setAttribute("_orig_" + attr, val);
	}
	function orig_load(e, attr) {
		if (e.attributes["_orig_"+attr] == undefined) return;
		e.attributes[attr].value = e.attributes["_orig_" + attr].value;
		e.removeAttribute("_orig_"+attr);
	}
	function g_to_text(e) {
		var text = find_child(e, "title").firstChild.nodeValue;
		return (text)
	}
	function g_to_func(e) {
		var func = g_to_text(e);
		// if there's any manipulation we want to do to the function
		// name before it's searched, do it here before returning.
		return (func);
	}
	function update_text(e) {
		var r = find_child(e, "rect");
		var t = find_child(e, "text");
		var w = parseFloat(r.attributes.width.value) -3;
		var txt = find_child(e, "title").textContent.replace(/\([^(]*\)$/,"");
		t.attributes.x.value = parseFloat(r.attributes.x.value) + 3;

		// Smaller than this size won't fit anything
		if (w < 2 * 12 * 0.59) {
			t.textContent = "";
			return;
		}

		t.textContent = txt;
		// Fit in full text width
		if (/^ *$/.test(txt) || t.getSubStringLength(0, txt.length) < w)
			return;

		for (var x = txt.length - 2; x > 0; x--) {
			if (t.getSubStringLength(0, x + 2) <= w) {
				t.textContent = txt.substring(0, x) + "..";
				return;
			}
		}
		t.textContent = "";
	}

	// zoom
	function zoom_reset(e) {
		if (e.attributes != undefined) {
			orig_load(e, "x");
			orig_load(e, "width");
		}
		if (e.childNodes == undefined) return;
		for (var i = 0, c = e.childNodes; i < c.length; i++) {
			zoom_reset(c[i]);
		}
	}
	function zoom_child(e, x, ratio) {
		if (e.attributes != undefined) {
			if (e.attributes.x != undefined) {
				orig_save(e, "x");
				e.attributes.x.value = (parseFloat(e.attributes.x.value) - x - 10) * ratio + 10;
				if (e.tagName == "text")
					e.attributes.x.value = find_child(e.parentNode, "rect[x]").attributes.x.value + 3;
			}
			if (e.attributes.width != undefined) {
				orig_save(e, "width");
				e.attributes.width.value = parseFloat(e.attributes.width.value) * ratio;
			}
		}

		if (e.childNodes == undefined) return;
		for (var i = 0, c = e.childNodes; i < c.length; i++) {
			zoom_child(c[i], x - 10, ratio);
		}
	}
	function zoom_parent(e) {
		if (e.attributes) {
			if (e.attributes.x != undefined) {
				orig_save(e, "x");
				e.attributes.x.value = 10;
			}
			if (e.attributes.width != undefined) {
				orig_save(e, "width");
				e.attributes.width.value = parseInt(svg.width.baseVal.value) - (10 * 2);
			}
		}
		if (e.childNodes == undefined) return;
		for (var i = 0, c = e.childNodes; i < c.length; i++) {
			zoom_parent(c[i]);
		}
	}
	function zoom(node) {
		var attr = find_child(node, "rect").attributes;
		var width = parseFloat(attr.width.value);
		var xmin = parseFloat(attr.x.value);
		var xmax = parseFloat(xmin + width);
		var ymin = parseFloat(attr.y.value);
		var ratio = (svg.width.baseVal.value - 2 * 10) / width;

		// XXX: Workaround for JavaScript float issues (fix me)
		var fudge = 0.0001;

		unzoombtn.classList.remove("hide");

		var el = document.getElementById("frames").children;
		for (var i = 0; i < el.length; i++) {
			var e = el[i];
			var a = find_child(e, "rect").attributes;
			var ex = parseFloat(a.x.value);
			var ew = parseFloat(a.width.value);
			var upstack;
			// Is it an ancestor
			if (0 == 0) {
				upstack = parseFloat(a.y.value) > ymin;
			} else {
				upstack = parseFloat(a.y.value) < ymin;
			}
			if (upstack) {
				// Direct ancestor
				if (ex <= xmin && (ex+ew+fudge) >= xmax) {
					e.classList.add("parent");
					zoom_parent(e);
					update_text(e);
				}
				// not in current path
				else
					e.classList.add("hide");
			}
			// Children maybe
			else {
				// no common path
				if (ex < xmin || ex + fudge >= xmax) {
					e.classList.add("hide");
				}
				else {
					zoom_child(e, xmin, ratio);
					update_text(e);
				}
			}
		}
	}
	function unzoom() {
		unzoombtn.classList.add("hide");
		var el = document.getElementById("frames").children;
		for(var i = 0; i < el.length; i++) {
			el[i].classList.remove("parent");
			el[i].classList.remove("hide");
			zoom_reset(el[i]);
			update_text(el[i]);
		}
	}

	// search
	function reset_search() {
		var el = document.querySelectorAll("#frames rect");
		for (var i = 0; i < el.length; i++) {
			orig_load(el[i], "fill")
		}
	}
	function search_prompt() {
		if (!searching) {
			var term = prompt("Enter a search term (regexp " +
			    "allowed, eg: ^ext4_)", "");
			if (term != null) {
				search(term)
			}
		} else {
			reset_search();
			searching = 0;
			searchbtn.classList.remove("show");
			searchbtn.firstChild.nodeValue = "Search"
			matchedtxt.classList.add("hide");
			matchedtxt.firstChild.nodeValue = ""
		}
	}
	function search(term) {
		var re = new RegExp(term);
		var el = document.getElementById("frames").children;
		var matches = new Object();
		var maxwidth = 0;
		for (var i = 0; i < el.length; i++) {
			var e = el[i];
			var func = g_to_func(e);
			var rect = find_child(e, "rect");
			if (func == null || rect == null)
				continue;

			// Save max width. Only works as we have a root frame
			var w = parseFloat(rect.attributes.width.value);
			if (w > maxwidth)
				maxwidth = w;

			if (func.match(re)) {
				// highlight
				var x = parseFloat(rect.attributes.x.value);
				orig_save(rect, "fill");
				rect.attributes.fill.value = "rgb(230,0,230)";

				// remember matches
				if (matches[x] == undefined) {
					matches[x] = w;
				} else {
					if (w > matches[x]) {
						// overwrite with parent
						matches[x] = w;
					}
				}
				searching = 1;
			}
		}
		if (!searching)
			return;

		searchbtn.classList.add("show");
		searchbtn.firstChild.nodeValue = "Reset Search";

		// calculate percent matched, excluding vertical overlap
		var count = 0;
		var lastx = -1;
		var lastw = 0;
		var keys = Array();
		for (k in matches) {
			if (matches.hasOwnProperty(k))
				keys.push(k);
		}
		// sort the matched frames by their x location
		// ascending, then width descending
		keys.sort(function(a, b){
			return a - b;
		});
		// Step through frames saving only the biggest bottom-up frames
		// thanks to the sort order. This relies on the tree property
		// where children are always smaller than their parents.
		var fudge = 0.0001;	// JavaScript floating point
		for (var k in keys) {
			var x = parseFloat(keys[k]);
			var w = matches[keys[k]];
			if (x >= lastx + lastw - fudge) {
				count += w;
				lastx = x;
				lastw = w;
			}
		}
		// display matched percent
		matchedtxt.classList.remove("hide");
		var pct = 100 * count / maxwidth;
		if (pct != 100) pct = pct.toFixed(1)
		matchedtxt.firstChild.nodeValue = "Matched: " + pct + "%";
	}
]]>
</script>
<rect x="0" y="0" width="100%" height="100%" fill="rgb(240,240,220)"/>
<text id="title" x="600" y="24">Flame Graph</text>
<text id="details" x="10" y="389"> </text>
<text id="unzoom" x="10" y="24" class="hide">Reset Zoom</text>
<text id="search" x="1090" y="24">Search</text>
<text id="matched" x="1090" y="389"> </text>
<g id="frames">
<g>
<title>all (377 samples, 100.00%)</title><rect x="10.0" y="355.0" width="1180.0" height="15" fill="#e56060" rx="2" ry="2"/>
<text x="13.0" y="366.0">all</text>
</g>
<g>
<title>one/nio/server/SelectorThread.run (372 samples, 98.67%)</title><rect x="10.0" y="339.0" width="1164.4" height="15" fill="#58e958" rx="2" ry="2"/>
<text x="13.0" y="350.0">one/nio/server/SelectorThread.run</text>
</g>
<g>
<title>one/nio/net/JavaSelector.select (120 samples, 31.83%)</title><rect x="10.0" y="323.0" width="375.6" height="15" fill="#5ced5c" rx="2" ry="2"/>
<text x="13.0" y="334.0">one/nio/net/JavaSelector.select</text>
</g>
<g>
<title>one/nio/net/JavaSelector.iteratorFor (4 samples, 1.06%)</title><rect x="10.0" y="307.0" width="12.5" height="15" fill="#5ced5c" rx="2" ry="2"/>
<text x="13.0" y="318.0"></text>
</g>
<g>
<title>sun/nio/ch/Util$2.iterator (1 samples, 0.27%)</title><rect x="19.4" y="291.0" width="3.1" height="15" fill="#60f160" rx="2" ry="2"/>
<text x="22.4" y="302.0"></text>
</g>
<g>
<title>java/util/HashSet.iterator (1 samples, 0.27%)</title><rect x="19.4" y="275.0" width="3.1" height="15" fill="#53e453" rx="2" ry="2"/>
<text x="22.4" y="286.0"></text>
</g>
<g>
<title>java/util/HashMap$KeySet.iterator (1 samples, 0.27%)</title><rect x="19.4" y="259.0" width="3.1" height="15" fill="#58e958" rx="2" ry="2"/>
<text x="22.4" y="270.0"></text>
</g>
<g>
<title>java/util/HashMap$KeyIterator.&lt;init&gt; (1 samples, 0.27%)</title><rect x="19.4" y="243.0" width="3.1" height="15" fill="#6bfc6b" rx="2" ry="2"/>
<text x="22.4" y="254.0"></text>
</g>
<g>
<title>java/util/HashMap$HashIterator.&lt;init&gt; (1 samples, 0.27%)</title><rect x="19.4" y="227.0" width="3.1" height="15" fill="#6dfe6d" rx="2" ry="2"/>
<text x="22.4" y="238.0"></text>
</g>
<g>
<title>one/nio/net/JavaSelector.registerPendingSessions (1 samples, 0.27%)</title><rect x="22.5" y="307.0" width="3.1" height="15" fill="#69fa69" rx="2" ry="2"/>
<text x="25.5" y="318.0"></text>
</g>
<g>
<title>java/util/concurrent/ConcurrentLinkedQueue.poll (1 samples, 0.27%)</title><rect x="22.5" y="291.0" width="3.1" height="15" fill="#56e756" rx="2" ry="2"/>
<text x="25.5" y="302.0"></text>
</g>
<g>
<title>os::javaTimeNanos() (1 samples, 0.27%)</title><rect x="25.6" y="307.0" width="3.2" height="15" fill="#d9d941" rx="2" ry="2"/>
<text x="28.6" y="318.0"></text>
</g>
<g>
<title>sun/nio/ch/SelectorImpl.select (112 samples, 29.71%)</title><rect x="28.8" y="307.0" width="350.5" height="15" fill="#63f463" rx="2" ry="2"/>
<text x="31.8" y="318.0">sun/nio/ch/SelectorImpl.select</text>
</g>
<g>
<title>sun/nio/ch/SelectorImpl.lockAndDoSelect (111 samples, 29.44%)</title><rect x="31.9" y="291.0" width="347.4" height="15" fill="#6cfd6c" rx="2" ry="2"/>
<text x="34.9" y="302.0">sun/nio/ch/SelectorImpl.lockAndDoSelect</text>
</g>
<g>
<title>sun/nio/ch/KQueueSelectorImpl.doSelect (111 samples, 29.44%)</title><rect x="31.9" y="275.0" width="347.4" height="15" fill="#65f665" rx="2" ry="2"/>
<text x="34.9" y="286.0">sun/nio/ch/KQueueSelectorImpl.doSelect</text>
</g>
<g>
<title>sun/nio/ch/KQueue.poll (95 samples, 25.20%)</title><rect x="35.0" y="259.0" width="297.4" height="15" fill="#61f261" rx="2" ry="2"/>
<text x="38.0" y="270.0">sun/nio/ch/KQueue.poll</text>
</g>
<g>
<title>Java_sun_nio_ch_KQueue_poll (1 samples, 0.27%)</title><rect x="60.1" y="243.0" width="3.1" height="15" fill="#e55f5f" rx="2" ry="2"/>
<text x="63.1" y="254.0"></text>
</g>
<g>
<title>kevent (86 samples, 22.81%)</title><rect x="63.2" y="243.0" width="269.2" height="15" fill="#eb6868" rx="2" ry="2"/>
<text x="66.2" y="254.0">kevent</text>
</g>
<g>
<title>sun/nio/ch/KQueueSelectorImpl.processEvents (11 samples, 2.92%)</title><rect x="332.4" y="259.0" width="34.4" height="15" fill="#53e453" rx="2" ry="2"/>
<text x="335.4" y="270.0">su..</text>
</g>
<g>
<title>java/util/HashMap.get (4 samples, 1.06%)</title><rect x="341.8" y="243.0" width="12.5" height="15" fill="#56e756" rx="2" ry="2"/>
<text x="344.8" y="254.0"></text>
</g>
<g>
<title>java/util/HashMap.getNode (3 samples, 0.80%)</title><rect x="341.8" y="227.0" width="9.4" height="15" fill="#56e756" rx="2" ry="2"/>
<text x="344.8" y="238.0"></text>
</g>
<g>
<title>java/util/HashMap.hash (1 samples, 0.27%)</title><rect x="351.2" y="227.0" width="3.1" height="15" fill="#50e150" rx="2" ry="2"/>
<text x="354.2" y="238.0"></text>
</g>
<g>
<title>sun/nio/ch/SelectorImpl.processReadyEvents (4 samples, 1.06%)</title><rect x="354.3" y="243.0" width="12.5" height="15" fill="#5ced5c" rx="2" ry="2"/>
<text x="357.3" y="254.0"></text>
</g>
<g>
<title>java/util/HashSet.add (2 samples, 0.53%)</title><rect x="354.3" y="227.0" width="6.3" height="15" fill="#53e453" rx="2" ry="2"/>
<text x="357.3" y="238.0"></text>
</g>
<g>
<title>java/util/HashMap.put (2 samples, 0.53%)</title><rect x="354.3" y="211.0" width="6.3" height="15" fill="#61f261" rx="2" ry="2"/>
<text x="357.3" y="222.0"></text>
</g>
<g>
<title>java/util/HashMap.putVal (2 samples, 0.53%)</title><rect x="354.3" y="195.0" width="6.3" height="15" fill="#59ea59" rx="2" ry="2"/>
<text x="357.3" y="206.0"></text>
</g>
<g>
<title>java/util/HashMap.afterNodeInsertion (1 samples, 0.27%)</title><rect x="354.3" y="179.0" width="3.1" height="15" fill="#6cfd6c" rx="2" ry="2"/>
<text x="357.3" y="190.0"></text>
</g>
<g>
<title>java/util/HashMap.newNode (1 samples, 0.27%)</title><rect x="357.4" y="179.0" width="3.2" height="15" fill="#56e756" rx="2" ry="2"/>
<text x="360.4" y="190.0"></text>
</g>
<g>
<title>java/util/HashSet.contains (1 samples, 0.27%)</title><rect x="360.6" y="227.0" width="3.1" height="15" fill="#5dee5d" rx="2" ry="2"/>
<text x="363.6" y="238.0"></text>
</g>
<g>
<title>java/util/HashMap.containsKey (1 samples, 0.27%)</title><rect x="360.6" y="211.0" width="3.1" height="15" fill="#5bec5b" rx="2" ry="2"/>
<text x="363.6" y="222.0"></text>
</g>
<g>
<title>java/util/HashMap.getNode (1 samples, 0.27%)</title><rect x="360.6" y="195.0" width="3.1" height="15" fill="#51e251" rx="2" ry="2"/>
<text x="363.6" y="206.0"></text>
</g>
<g>
<title>sun/nio/ch/SelectionKeyImpl.translateAndSetReadyOps (1 samples, 0.27%)</title><rect x="363.7" y="227.0" width="3.1" height="15" fill="#6bfc6b" rx="2" ry="2"/>
<text x="366.7" y="238.0"></text>
</g>
<g>
<title>sun/nio/ch/SocketChannelImpl.translateAndSetReadyOps (1 samples, 0.27%)</title><rect x="363.7" y="211.0" width="3.1" height="15" fill="#51e251" rx="2" ry="2"/>
<text x="366.7" y="222.0"></text>
</g>
<g>
<title>sun/nio/ch/SocketChannelImpl.translateReadyOps (1 samples, 0.27%)</title><rect x="363.7" y="195.0" width="3.1" height="15" fill="#51e251" rx="2" ry="2"/>
<text x="366.7" y="206.0"></text>
</g>
<g>
<title>sun/nio/ch/SelectionKeyImpl.nioInterestOps (1 samples, 0.27%)</title><rect x="363.7" y="179.0" width="3.1" height="15" fill="#66f766" rx="2" ry="2"/>
<text x="366.7" y="190.0"></text>
</g>
<g>
<title>sun/nio/ch/SelectorImpl.begin (4 samples, 1.06%)</title><rect x="366.8" y="259.0" width="12.5" height="15" fill="#5ff05f" rx="2" ry="2"/>
<text x="369.8" y="270.0"></text>
</g>
<g>
<title>java/nio/channels/spi/AbstractSelector.begin (4 samples, 1.06%)</title><rect x="366.8" y="243.0" width="12.5" height="15" fill="#5eef5e" rx="2" ry="2"/>
<text x="369.8" y="254.0"></text>
</g>
<g>
<title>java/nio/channels/spi/AbstractInterruptibleChannel.blockedOn (4 samples, 1.06%)</title><rect x="366.8" y="227.0" width="12.5" height="15" fill="#56e756" rx="2" ry="2"/>
<text x="369.8" y="238.0"></text>
</g>
<g>
<title>java/lang/System$2.blockedOn (4 samples, 1.06%)</title><rect x="366.8" y="211.0" width="12.5" height="15" fill="#57e857" rx="2" ry="2"/>
<text x="369.8" y="222.0"></text>
</g>
<g>
<title>java/lang/Thread.blockedOn (4 samples, 1.06%)</title><rect x="366.8" y="195.0" width="12.5" height="15" fill="#68f968" rx="2" ry="2"/>
<text x="369.8" y="206.0"></text>
</g>
<g>
<title>sun/nio/ch/Util$2.clear (2 samples, 0.53%)</title><rect x="379.3" y="307.0" width="6.3" height="15" fill="#51e251" rx="2" ry="2"/>
<text x="382.3" y="318.0"></text>
</g>
<g>
<title>java/util/HashSet.clear (2 samples, 0.53%)</title><rect x="379.3" y="291.0" width="6.3" height="15" fill="#6afb6a" rx="2" ry="2"/>
<text x="382.3" y="302.0"></text>
</g>
<g>
<title>java/util/HashMap.clear (2 samples, 0.53%)</title><rect x="379.3" y="275.0" width="6.3" height="15" fill="#6afb6a" rx="2" ry="2"/>
<text x="382.3" y="286.0"></text>
</g>
<g>
<title>one/nio/net/JavaSelector.iteratorFor (1 samples, 0.27%)</title><rect x="382.5" y="259.0" width="3.1" height="15" fill="#5dee5d" rx="2" ry="2"/>
<text x="385.5" y="270.0"></text>
</g>
<g>
<title>one/nio/net/Session.process (252 samples, 66.84%)</title><rect x="385.6" y="323.0" width="788.8" height="15" fill="#52e352" rx="2" ry="2"/>
<text x="388.6" y="334.0">one/nio/net/Session.process</text>
</g>
<g>
<title>one/nio/http/HttpSession.processRead (252 samples, 66.84%)</title><rect x="385.6" y="307.0" width="788.8" height="15" fill="#50e150" rx="2" ry="2"/>
<text x="388.6" y="318.0">one/nio/http/HttpSession.processRead</text>
</g>
<g>
<title>one/nio/http/HttpSession.processHttpBuffer (203 samples, 53.85%)</title><rect x="388.7" y="291.0" width="635.4" height="15" fill="#66f766" rx="2" ry="2"/>
<text x="391.7" y="302.0">one/nio/http/HttpSession.processHttpBuffer</text>
</g>
<g>
<title>one/nio/http/HttpSession.handleParsedRequest (176 samples, 46.68%)</title><rect x="391.9" y="275.0" width="550.8" height="15" fill="#51e251" rx="2" ry="2"/>
<text x="394.9" y="286.0">one/nio/http/HttpSession.handleParsedRequest</text>
</g>
<g>
<title>one/nio/http/HttpServer.handleRequest (176 samples, 46.68%)</title><rect x="391.9" y="259.0" width="550.8" height="15" fill="#64f564" rx="2" ry="2"/>
<text x="394.9" y="270.0">one/nio/http/HttpServer.handleRequest</text>
</g>
<g>
<title>RequestHandler0_status.handleRequest (5 samples, 1.33%)</title><rect x="391.9" y="243.0" width="15.6" height="15" fill="#69fa69" rx="2" ry="2"/>
<text x="394.9" y="254.0"></text>
</g>
<g>
<title>ru/mail/polis/service/kuzoliza/MyService.status (5 samples, 1.33%)</title><rect x="391.9" y="227.0" width="15.6" height="15" fill="#5ff05f" rx="2" ry="2"/>
<text x="394.9" y="238.0"></text>
</g>
<g>
<title>one/nio/http/Response.ok (5 samples, 1.33%)</title><rect x="391.9" y="211.0" width="15.6" height="15" fill="#59ea59" rx="2" ry="2"/>
<text x="394.9" y="222.0"></text>
</g>
<g>
<title>java/lang/String.getBytes (2 samples, 0.53%)</title><rect x="391.9" y="195.0" width="6.2" height="15" fill="#6dfe6d" rx="2" ry="2"/>
<text x="394.9" y="206.0"></text>
</g>
<g>
<title>java/lang/StringCoding.encode (2 samples, 0.53%)</title><rect x="391.9" y="179.0" width="6.2" height="15" fill="#63f463" rx="2" ry="2"/>
<text x="394.9" y="190.0"></text>
</g>
<g>
<title>java/lang/StringCoding.encodeUTF8 (2 samples, 0.53%)</title><rect x="391.9" y="163.0" width="6.2" height="15" fill="#59ea59" rx="2" ry="2"/>
<text x="394.9" y="174.0"></text>
</g>
<g>
<title>java/util/Arrays.copyOf (1 samples, 0.27%)</title><rect x="395.0" y="147.0" width="3.1" height="15" fill="#53e453" rx="2" ry="2"/>
<text x="398.0" y="158.0"></text>
</g>
<g>
<title>one/nio/http/Response.&lt;init&gt; (3 samples, 0.80%)</title><rect x="398.1" y="195.0" width="9.4" height="15" fill="#56e756" rx="2" ry="2"/>
<text x="401.1" y="206.0"></text>
</g>
<g>
<title>RequestHandler1_entity.handleRequest (170 samples, 45.09%)</title><rect x="407.5" y="243.0" width="532.1" height="15" fill="#62f362" rx="2" ry="2"/>
<text x="410.5" y="254.0">RequestHandler1_entity.handleRequest</text>
</g>
<g>
<title>one/nio/http/HttpSession.sendResponse (127 samples, 33.69%)</title><rect x="407.5" y="227.0" width="397.5" height="15" fill="#64f564" rx="2" ry="2"/>
<text x="410.5" y="238.0">one/nio/http/HttpSession.sendResponse</text>
</g>
<g>
<title>java/lang/String.equalsIgnoreCase (1 samples, 0.27%)</title><rect x="410.6" y="211.0" width="3.2" height="15" fill="#63f463" rx="2" ry="2"/>
<text x="413.6" y="222.0"></text>
</g>
<g>
<title>java/lang/String.regionMatches (1 samples, 0.27%)</title><rect x="410.6" y="195.0" width="3.2" height="15" fill="#62f362" rx="2" ry="2"/>
<text x="413.6" y="206.0"></text>
</g>
<g>
<title>java/lang/StringLatin1.regionMatchesCI (1 samples, 0.27%)</title><rect x="410.6" y="179.0" width="3.2" height="15" fill="#53e453" rx="2" ry="2"/>
<text x="413.6" y="190.0"></text>
</g>
<g>
<title>one/nio/http/HttpSession.writeResponse (124 samples, 32.89%)</title><rect x="413.8" y="211.0" width="388.1" height="15" fill="#68f968" rx="2" ry="2"/>
<text x="416.8" y="222.0">one/nio/http/HttpSession.writeResponse</text>
</g>
<g>
<title>one/nio/http/Response.toBytes (8 samples, 2.12%)</title><rect x="413.8" y="195.0" width="25.0" height="15" fill="#54e554" rx="2" ry="2"/>
<text x="416.8" y="206.0">o..</text>
</g>
<g>
<title>one/nio/util/ByteArrayBuilder.append (4 samples, 1.06%)</title><rect x="426.3" y="179.0" width="12.5" height="15" fill="#59ea59" rx="2" ry="2"/>
<text x="429.3" y="190.0"></text>
</g>
<g>
<title>one/nio/util/Utf8.length (4 samples, 1.06%)</title><rect x="426.3" y="163.0" width="12.5" height="15" fill="#60f160" rx="2" ry="2"/>
<text x="429.3" y="174.0"></text>
</g>
<g>
<title>java/lang/String.charAt (4 samples, 1.06%)</title><rect x="426.3" y="147.0" width="12.5" height="15" fill="#56e756" rx="2" ry="2"/>
<text x="429.3" y="158.0"></text>
</g>
<g>
<title>jbyte_disjoint_arraycopy (1 samples, 0.27%)</title><rect x="435.7" y="131.0" width="3.1" height="15" fill="#f87979" rx="2" ry="2"/>
<text x="438.7" y="142.0"></text>
</g>
<g>
<title>one/nio/net/Session.write (116 samples, 30.77%)</title><rect x="438.8" y="195.0" width="363.1" height="15" fill="#56e756" rx="2" ry="2"/>
<text x="441.8" y="206.0">one/nio/net/Session.write</text>
</g>
<g>
<title>one/nio/http/Response.toBytes (2 samples, 0.53%)</title><rect x="448.2" y="179.0" width="6.3" height="15" fill="#5aeb5a" rx="2" ry="2"/>
<text x="451.2" y="190.0"></text>
</g>
<g>
<title>one/nio/net/Session.write (111 samples, 29.44%)</title><rect x="454.5" y="179.0" width="347.4" height="15" fill="#57e857" rx="2" ry="2"/>
<text x="457.5" y="190.0">one/nio/net/Session.write</text>
</g>
<g>
<title>one/nio/net/Session$ArrayQueueItem.write (111 samples, 29.44%)</title><rect x="454.5" y="163.0" width="347.4" height="15" fill="#6dfe6d" rx="2" ry="2"/>
<text x="457.5" y="174.0">one/nio/net/Session$ArrayQueueItem.write</text>
</g>
<g>
<title>one/nio/net/JavaSocket.write (111 samples, 29.44%)</title><rect x="454.5" y="147.0" width="347.4" height="15" fill="#6afb6a" rx="2" ry="2"/>
<text x="457.5" y="158.0">one/nio/net/JavaSocket.write</text>
</g>
<g>
<title>java/nio/ByteBuffer.wrap (1 samples, 0.27%)</title><rect x="454.5" y="131.0" width="3.1" height="15" fill="#6bfc6b" rx="2" ry="2"/>
<text x="457.5" y="142.0"></text>
</g>
<g>
<title>os::javaTimeMillis() (1 samples, 0.27%)</title><rect x="454.5" y="115.0" width="3.1" height="15" fill="#e3e345" rx="2" ry="2"/>
<text x="457.5" y="126.0"></text>
</g>
<g>
<title>rcmd_af.canonnamebuf (1 samples, 0.27%)</title><rect x="454.5" y="99.0" width="3.1" height="15" fill="#e76262" rx="2" ry="2"/>
<text x="457.5" y="110.0"></text>
</g>
<g>
<title>sun/nio/ch/SocketChannelImpl.write (110 samples, 29.18%)</title><rect x="457.6" y="131.0" width="344.3" height="15" fill="#66f766" rx="2" ry="2"/>
<text x="460.6" y="142.0">sun/nio/ch/SocketChannelImpl.write</text>
</g>
<g>
<title>sun/nio/ch/IOUtil.write (110 samples, 29.18%)</title><rect x="457.6" y="115.0" width="344.3" height="15" fill="#6cfd6c" rx="2" ry="2"/>
<text x="460.6" y="126.0">sun/nio/ch/IOUtil.write</text>
</g>
<g>
<title>sun/nio/ch/IOUtil.write (110 samples, 29.18%)</title><rect x="457.6" y="99.0" width="344.3" height="15" fill="#58e958" rx="2" ry="2"/>
<text x="460.6" y="110.0">sun/nio/ch/IOUtil.write</text>
</g>
<g>
<title>sun/nio/ch/IOUtil.writeFromNativeBuffer (109 samples, 28.91%)</title><rect x="457.6" y="83.0" width="341.2" height="15" fill="#6cfd6c" rx="2" ry="2"/>
<text x="460.6" y="94.0">sun/nio/ch/IOUtil.writeFromNativeBuffer</text>
</g>
<g>
<title>sun/nio/ch/SocketDispatcher.write (109 samples, 28.91%)</title><rect x="457.6" y="67.0" width="341.2" height="15" fill="#55e655" rx="2" ry="2"/>
<text x="460.6" y="78.0">sun/nio/ch/SocketDispatcher.write</text>
</g>
<g>
<title>sun/nio/ch/FileDispatcherImpl.write0 (107 samples, 28.38%)</title><rect x="463.8" y="51.0" width="335.0" height="15" fill="#5ced5c" rx="2" ry="2"/>
<text x="466.8" y="62.0">sun/nio/ch/FileDispatcherImpl.write0</text>
</g>
<g>
<title>write (105 samples, 27.85%)</title><rect x="470.1" y="35.0" width="328.7" height="15" fill="#f57575" rx="2" ry="2"/>
<text x="473.1" y="46.0">write</text>
</g>
<g>
<title>sun/nio/ch/Util.getTemporaryDirectBuffer (1 samples, 0.27%)</title><rect x="798.8" y="83.0" width="3.1" height="15" fill="#63f463" rx="2" ry="2"/>
<text x="801.8" y="94.0"></text>
</g>
<g>
<title>java/lang/ThreadLocal.get (1 samples, 0.27%)</title><rect x="798.8" y="67.0" width="3.1" height="15" fill="#61f261" rx="2" ry="2"/>
<text x="801.8" y="78.0"></text>
</g>
<g>
<title>java/lang/ThreadLocal$ThreadLocalMap.getEntry (1 samples, 0.27%)</title><rect x="798.8" y="51.0" width="3.1" height="15" fill="#56e756" rx="2" ry="2"/>
<text x="801.8" y="62.0"></text>
</g>
<g>
<title>one/nio/http/Request.getHeader (1 samples, 0.27%)</title><rect x="801.9" y="211.0" width="3.1" height="15" fill="#6bfc6b" rx="2" ry="2"/>
<text x="804.9" y="222.0"></text>
</g>
<g>
<title>java/lang/String.regionMatches (1 samples, 0.27%)</title><rect x="801.9" y="195.0" width="3.1" height="15" fill="#5dee5d" rx="2" ry="2"/>
<text x="804.9" y="206.0"></text>
</g>
<g>
<title>java/lang/StringLatin1.regionMatchesCI (1 samples, 0.27%)</title><rect x="801.9" y="179.0" width="3.1" height="15" fill="#60f160" rx="2" ry="2"/>
<text x="804.9" y="190.0"></text>
</g>
<g>
<title>one/nio/http/Request.getRequiredParameter (8 samples, 2.12%)</title><rect x="805.0" y="227.0" width="25.1" height="15" fill="#5ced5c" rx="2" ry="2"/>
<text x="808.0" y="238.0">o..</text>
</g>
<g>
<title>one/nio/http/Request.getParameter (8 samples, 2.12%)</title><rect x="805.0" y="211.0" width="25.1" height="15" fill="#61f261" rx="2" ry="2"/>
<text x="808.0" y="222.0">o..</text>
</g>
<g>
<title>java/lang/String.substring (1 samples, 0.27%)</title><rect x="814.4" y="195.0" width="3.1" height="15" fill="#57e857" rx="2" ry="2"/>
<text x="817.4" y="206.0"></text>
</g>
<g>
<title>java/lang/StringLatin1.newString (1 samples, 0.27%)</title><rect x="814.4" y="179.0" width="3.1" height="15" fill="#55e655" rx="2" ry="2"/>
<text x="817.4" y="190.0"></text>
</g>
<g>
<title>jbyte_arraycopy (1 samples, 0.27%)</title><rect x="817.5" y="195.0" width="3.2" height="15" fill="#fe8181" rx="2" ry="2"/>
<text x="820.5" y="206.0"></text>
</g>
<g>
<title>one/nio/util/URLEncoder.decode (3 samples, 0.80%)</title><rect x="820.7" y="195.0" width="9.4" height="15" fill="#51e251" rx="2" ry="2"/>
<text x="823.7" y="206.0"></text>
</g>
<g>
<title>ru/mail/polis/service/kuzoliza/MyService.entity (35 samples, 9.28%)</title><rect x="830.1" y="227.0" width="109.5" height="15" fill="#50e150" rx="2" ry="2"/>
<text x="833.1" y="238.0">ru/mail/polis..</text>
</g>
<g>
<title>ru/mail/polis/service/kuzoliza/MyService.response (35 samples, 9.28%)</title><rect x="830.1" y="211.0" width="109.5" height="15" fill="#5eef5e" rx="2" ry="2"/>
<text x="833.1" y="222.0">ru/mail/polis..</text>
</g>
<g>
<title>java/nio/ByteBuffer.wrap (1 samples, 0.27%)</title><rect x="836.3" y="195.0" width="3.1" height="15" fill="#53e453" rx="2" ry="2"/>
<text x="839.3" y="206.0"></text>
</g>
<g>
<title>java/nio/ByteBuffer.wrap (1 samples, 0.27%)</title><rect x="836.3" y="179.0" width="3.1" height="15" fill="#6dfe6d" rx="2" ry="2"/>
<text x="839.3" y="190.0"></text>
</g>
<g>
<title>java/nio/HeapByteBuffer.&lt;init&gt; (1 samples, 0.27%)</title><rect x="836.3" y="163.0" width="3.1" height="15" fill="#61f261" rx="2" ry="2"/>
<text x="839.3" y="174.0"></text>
</g>
<g>
<title>java/nio/ByteBuffer.&lt;init&gt; (1 samples, 0.27%)</title><rect x="836.3" y="147.0" width="3.1" height="15" fill="#5ced5c" rx="2" ry="2"/>
<text x="839.3" y="158.0"></text>
</g>
<g>
<title>java/nio/Buffer.&lt;init&gt; (1 samples, 0.27%)</title><rect x="836.3" y="131.0" width="3.1" height="15" fill="#50e150" rx="2" ry="2"/>
<text x="839.3" y="142.0"></text>
</g>
<g>
<title>one/nio/http/Response.&lt;init&gt; (1 samples, 0.27%)</title><rect x="839.4" y="195.0" width="3.2" height="15" fill="#6afb6a" rx="2" ry="2"/>
<text x="842.4" y="206.0"></text>
</g>
<g>
<title>ru/mail/polis/dao/DAO.get (2 samples, 0.53%)</title><rect x="842.6" y="195.0" width="6.2" height="15" fill="#6afb6a" rx="2" ry="2"/>
<text x="845.6" y="206.0"></text>
</g>
<g>
<title>com/google/common/collect/TransformedIterator.hasNext (2 samples, 0.53%)</title><rect x="842.6" y="179.0" width="6.2" height="15" fill="#57e857" rx="2" ry="2"/>
<text x="845.6" y="190.0"></text>
</g>
<g>
<title>com/google/common/collect/AbstractIterator.hasNext (2 samples, 0.53%)</title><rect x="842.6" y="163.0" width="6.2" height="15" fill="#58e958" rx="2" ry="2"/>
<text x="845.6" y="174.0"></text>
</g>
<g>
<title>com/google/common/collect/AbstractIterator.tryToComputeNext (2 samples, 0.53%)</title><rect x="842.6" y="147.0" width="6.2" height="15" fill="#6bfc6b" rx="2" ry="2"/>
<text x="845.6" y="158.0"></text>
</g>
<g>
<title>com/google/common/collect/Iterators$5.computeNext (2 samples, 0.53%)</title><rect x="842.6" y="131.0" width="6.2" height="15" fill="#51e251" rx="2" ry="2"/>
<text x="845.6" y="142.0"></text>
</g>
<g>
<title>jbyte_disjoint_arraycopy (2 samples, 0.53%)</title><rect x="842.6" y="115.0" width="6.2" height="15" fill="#fe8181" rx="2" ry="2"/>
<text x="845.6" y="126.0"></text>
</g>
<g>
<title>ru/mail/polis/dao/kuzoliza/LSM.upsert (27 samples, 7.16%)</title><rect x="848.8" y="195.0" width="84.5" height="15" fill="#5ff05f" rx="2" ry="2"/>
<text x="851.8" y="206.0">ru/mail/po..</text>
</g>
<g>
<title>ru/mail/polis/dao/kuzoliza/MemTable.upsert (27 samples, 7.16%)</title><rect x="848.8" y="179.0" width="84.5" height="15" fill="#51e251" rx="2" ry="2"/>
<text x="851.8" y="190.0">ru/mail/po..</text>
</g>
<g>
<title>java/util/TreeMap.put (19 samples, 5.04%)</title><rect x="870.7" y="163.0" width="59.5" height="15" fill="#55e655" rx="2" ry="2"/>
<text x="873.7" y="174.0">java/u..</text>
</g>
<g>
<title>java/lang/String$CaseInsensitiveComparator.compare (5 samples, 1.33%)</title><rect x="873.9" y="147.0" width="15.6" height="15" fill="#6dfe6d" rx="2" ry="2"/>
<text x="876.9" y="158.0"></text>
</g>
<g>
<title>java/lang/String$CaseInsensitiveComparator.compare (5 samples, 1.33%)</title><rect x="873.9" y="131.0" width="15.6" height="15" fill="#68f968" rx="2" ry="2"/>
<text x="876.9" y="142.0"></text>
</g>
<g>
<title>java/lang/StringLatin1.compareToCI (5 samples, 1.33%)</title><rect x="873.9" y="115.0" width="15.6" height="15" fill="#57e857" rx="2" ry="2"/>
<text x="876.9" y="126.0"></text>
</g>
<g>
<title>java/nio/BufferMismatch.mismatch (2 samples, 0.53%)</title><rect x="883.3" y="99.0" width="6.2" height="15" fill="#5aeb5a" rx="2" ry="2"/>
<text x="886.3" y="110.0"></text>
</g>
<g>
<title>java/nio/ByteBuffer.compareTo (13 samples, 3.45%)</title><rect x="889.5" y="147.0" width="40.7" height="15" fill="#5eef5e" rx="2" ry="2"/>
<text x="892.5" y="158.0">jav..</text>
</g>
<g>
<title>java/nio/ByteBuffer.compareTo (13 samples, 3.45%)</title><rect x="889.5" y="131.0" width="40.7" height="15" fill="#5ced5c" rx="2" ry="2"/>
<text x="892.5" y="142.0">jav..</text>
</g>
<g>
<title>java/nio/BufferMismatch.mismatch (8 samples, 2.12%)</title><rect x="905.2" y="115.0" width="25.0" height="15" fill="#67f867" rx="2" ry="2"/>
<text x="908.2" y="126.0">j..</text>
</g>
<g>
<title>os::javaTimeMillis() (1 samples, 0.27%)</title><rect x="930.2" y="163.0" width="3.1" height="15" fill="#e2e244" rx="2" ry="2"/>
<text x="933.2" y="174.0"></text>
</g>
<g>
<title>rcmd_af.canonnamebuf (1 samples, 0.27%)</title><rect x="930.2" y="147.0" width="3.1" height="15" fill="#e76363" rx="2" ry="2"/>
<text x="933.2" y="158.0"></text>
</g>
<g>
<title>ru/mail/polis/service/kuzoliza/MyService.toByteArray (2 samples, 0.53%)</title><rect x="933.3" y="195.0" width="6.3" height="15" fill="#58e958" rx="2" ry="2"/>
<text x="936.3" y="206.0"></text>
</g>
<g>
<title>java/nio/ByteBuffer.get (1 samples, 0.27%)</title><rect x="936.5" y="179.0" width="3.1" height="15" fill="#5ced5c" rx="2" ry="2"/>
<text x="939.5" y="190.0"></text>
</g>
<g>
<title>java/nio/HeapByteBuffer.get (1 samples, 0.27%)</title><rect x="936.5" y="163.0" width="3.1" height="15" fill="#64f564" rx="2" ry="2"/>
<text x="939.5" y="174.0"></text>
</g>
<g>
<title>java/nio/ByteBuffer.position (1 samples, 0.27%)</title><rect x="936.5" y="147.0" width="3.1" height="15" fill="#5dee5d" rx="2" ry="2"/>
<text x="939.5" y="158.0"></text>
</g>
<g>
<title>java/nio/Buffer.position (1 samples, 0.27%)</title><rect x="936.5" y="131.0" width="3.1" height="15" fill="#69fa69" rx="2" ry="2"/>
<text x="939.5" y="142.0"></text>
</g>
<g>
<title>one/nio/http/PathMapper.find (1 samples, 0.27%)</title><rect x="939.6" y="243.0" width="3.1" height="15" fill="#53e453" rx="2" ry="2"/>
<text x="942.6" y="254.0"></text>
</g>
<g>
<title>java/util/HashMap.get (1 samples, 0.27%)</title><rect x="939.6" y="227.0" width="3.1" height="15" fill="#56e756" rx="2" ry="2"/>
<text x="942.6" y="238.0"></text>
</g>
<g>
<title>java/util/HashMap.getNode (1 samples, 0.27%)</title><rect x="939.6" y="211.0" width="3.1" height="15" fill="#57e857" rx="2" ry="2"/>
<text x="942.6" y="222.0"></text>
</g>
<g>
<title>java/lang/String.equals (1 samples, 0.27%)</title><rect x="939.6" y="195.0" width="3.1" height="15" fill="#56e756" rx="2" ry="2"/>
<text x="942.6" y="206.0"></text>
</g>
<g>
<title>one/nio/http/HttpSession.parseRequest (11 samples, 2.92%)</title><rect x="942.7" y="275.0" width="34.5" height="15" fill="#6afb6a" rx="2" ry="2"/>
<text x="945.7" y="286.0">on..</text>
</g>
<g>
<title>one/nio/http/Request.&lt;init&gt; (5 samples, 1.33%)</title><rect x="945.9" y="259.0" width="15.6" height="15" fill="#6bfc6b" rx="2" ry="2"/>
<text x="948.9" y="270.0"></text>
</g>
<g>
<title>java/lang/String.indexOf (5 samples, 1.33%)</title><rect x="945.9" y="243.0" width="15.6" height="15" fill="#65f665" rx="2" ry="2"/>
<text x="948.9" y="254.0"></text>
</g>
<g>
<title>java/lang/String.indexOf (5 samples, 1.33%)</title><rect x="945.9" y="227.0" width="15.6" height="15" fill="#52e352" rx="2" ry="2"/>
<text x="948.9" y="238.0"></text>
</g>
<g>
<title>java/lang/StringLatin1.indexOf (5 samples, 1.33%)</title><rect x="945.9" y="211.0" width="15.6" height="15" fill="#5eef5e" rx="2" ry="2"/>
<text x="948.9" y="222.0"></text>
</g>
<g>
<title>one/nio/util/Utf8.read (3 samples, 0.80%)</title><rect x="961.5" y="259.0" width="9.4" height="15" fill="#56e756" rx="2" ry="2"/>
<text x="964.5" y="270.0"></text>
</g>
<g>
<title>one/nio/util/Utf8.read (3 samples, 0.80%)</title><rect x="961.5" y="243.0" width="9.4" height="15" fill="#69fa69" rx="2" ry="2"/>
<text x="964.5" y="254.0"></text>
</g>
<g>
<title>one/nio/util/Utf8.startsWith (2 samples, 0.53%)</title><rect x="970.9" y="259.0" width="6.3" height="15" fill="#5bec5b" rx="2" ry="2"/>
<text x="973.9" y="270.0"></text>
</g>
<g>
<title>one/nio/http/HttpSession.startParsingRequestBody (11 samples, 2.92%)</title><rect x="977.2" y="275.0" width="34.4" height="15" fill="#64f564" rx="2" ry="2"/>
<text x="980.2" y="286.0">on..</text>
</g>
<g>
<title>java/lang/Integer.parseInt (8 samples, 2.12%)</title><rect x="986.6" y="259.0" width="25.0" height="15" fill="#68f968" rx="2" ry="2"/>
<text x="989.6" y="270.0">j..</text>
</g>
<g>
<title>java/lang/Integer.parseInt (8 samples, 2.12%)</title><rect x="986.6" y="243.0" width="25.0" height="15" fill="#65f665" rx="2" ry="2"/>
<text x="989.6" y="254.0">j..</text>
</g>
<g>
<title>java/lang/String.charAt (2 samples, 0.53%)</title><rect x="1005.3" y="227.0" width="6.3" height="15" fill="#5aeb5a" rx="2" ry="2"/>
<text x="1008.3" y="238.0"></text>
</g>
<g>
<title>one/nio/http/Request.getHeader (1 samples, 0.27%)</title><rect x="1011.6" y="275.0" width="3.1" height="15" fill="#59ea59" rx="2" ry="2"/>
<text x="1014.6" y="286.0"></text>
</g>
<g>
<title>java/lang/String.regionMatches (1 samples, 0.27%)</title><rect x="1011.6" y="259.0" width="3.1" height="15" fill="#62f362" rx="2" ry="2"/>
<text x="1014.6" y="270.0"></text>
</g>
<g>
<title>java/lang/StringLatin1.regionMatchesCI (1 samples, 0.27%)</title><rect x="1011.6" y="243.0" width="3.1" height="15" fill="#56e756" rx="2" ry="2"/>
<text x="1014.6" y="254.0"></text>
</g>
<g>
<title>one/nio/util/Utf8.read (3 samples, 0.80%)</title><rect x="1014.7" y="275.0" width="9.4" height="15" fill="#58e958" rx="2" ry="2"/>
<text x="1017.7" y="286.0"></text>
</g>
<g>
<title>one/nio/util/Utf8.read (3 samples, 0.80%)</title><rect x="1014.7" y="259.0" width="9.4" height="15" fill="#6dfe6d" rx="2" ry="2"/>
<text x="1017.7" y="270.0"></text>
</g>
<g>
<title>one/nio/net/Session.read (48 samples, 12.73%)</title><rect x="1024.1" y="291.0" width="150.3" height="15" fill="#6cfd6c" rx="2" ry="2"/>
<text x="1027.1" y="302.0">one/nio/net/Session..</text>
</g>
<g>
<title>one/nio/net/JavaSocket.read (48 samples, 12.73%)</title><rect x="1024.1" y="275.0" width="150.3" height="15" fill="#66f766" rx="2" ry="2"/>
<text x="1027.1" y="286.0">one/nio/net/JavaSoc..</text>
</g>
<g>
<title>sun/nio/ch/SocketChannelImpl.read (48 samples, 12.73%)</title><rect x="1024.1" y="259.0" width="150.3" height="15" fill="#6bfc6b" rx="2" ry="2"/>
<text x="1027.1" y="270.0">sun/nio/ch/SocketCh..</text>
</g>
<g>
<title>os::javaTimeMillis() (1 samples, 0.27%)</title><rect x="1024.1" y="243.0" width="3.1" height="15" fill="#dbdb42" rx="2" ry="2"/>
<text x="1027.1" y="254.0"></text>
</g>
<g>
<title>gettimeofday (1 samples, 0.27%)</title><rect x="1024.1" y="227.0" width="3.1" height="15" fill="#ef6c6c" rx="2" ry="2"/>
<text x="1027.1" y="238.0"></text>
</g>
<g>
<title>rcmd_af.canonnamebuf (1 samples, 0.27%)</title><rect x="1024.1" y="211.0" width="3.1" height="15" fill="#e55f5f" rx="2" ry="2"/>
<text x="1027.1" y="222.0"></text>
</g>
<g>
<title>sun/nio/ch/IOUtil.read (47 samples, 12.47%)</title><rect x="1027.2" y="243.0" width="147.2" height="15" fill="#63f463" rx="2" ry="2"/>
<text x="1030.2" y="254.0">sun/nio/ch/IOUtil.r..</text>
</g>
<g>
<title>sun/nio/ch/IOUtil.read (44 samples, 11.67%)</title><rect x="1036.6" y="227.0" width="137.8" height="15" fill="#53e453" rx="2" ry="2"/>
<text x="1039.6" y="238.0">sun/nio/ch/IOUtil..</text>
</g>
<g>
<title>sun/nio/ch/IOUtil.readIntoNativeBuffer (41 samples, 10.88%)</title><rect x="1036.6" y="211.0" width="128.4" height="15" fill="#50e150" rx="2" ry="2"/>
<text x="1039.6" y="222.0">sun/nio/ch/IOUti..</text>
</g>
<g>
<title>sun/nio/ch/SocketDispatcher.read (41 samples, 10.88%)</title><rect x="1036.6" y="195.0" width="128.4" height="15" fill="#5bec5b" rx="2" ry="2"/>
<text x="1039.6" y="206.0">sun/nio/ch/Socke..</text>
</g>
<g>
<title>sun/nio/ch/FileDispatcherImpl.read0 (36 samples, 9.55%)</title><rect x="1052.3" y="179.0" width="112.7" height="15" fill="#55e655" rx="2" ry="2"/>
<text x="1055.3" y="190.0">sun/nio/ch/Fil..</text>
</g>
<g>
<title>JNI_OnLoad (1 samples, 0.27%)</title><rect x="1058.5" y="163.0" width="3.2" height="15" fill="#eb6767" rx="2" ry="2"/>
<text x="1061.5" y="174.0"></text>
</g>
<g>
<title>read (33 samples, 8.75%)</title><rect x="1061.7" y="163.0" width="103.3" height="15" fill="#ef6d6d" rx="2" ry="2"/>
<text x="1064.7" y="174.0">read</text>
</g>
<g>
<title>sun/nio/ch/Util.getTemporaryDirectBuffer (3 samples, 0.80%)</title><rect x="1165.0" y="211.0" width="9.4" height="15" fill="#53e453" rx="2" ry="2"/>
<text x="1168.0" y="222.0"></text>
</g>
<g>
<title>java/lang/ThreadLocal.get (3 samples, 0.80%)</title><rect x="1165.0" y="195.0" width="9.4" height="15" fill="#66f766" rx="2" ry="2"/>
<text x="1168.0" y="206.0"></text>
</g>
<g>
<title>java/lang/ThreadLocal$ThreadLocalMap.getEntry (3 samples, 0.80%)</title><rect x="1165.0" y="179.0" width="9.4" height="15" fill="#5aeb5a" rx="2" ry="2"/>
<text x="1168.0" y="190.0"></text>
</g>
<g>
<title>jlong_disjoint_arraycopy (1 samples, 0.27%)</title><rect x="1171.2" y="163.0" width="3.2" height="15" fill="#f57474" rx="2" ry="2"/>
<text x="1174.2" y="174.0"></text>
</g>
<g>
<title>thread_start (5 samples, 1.33%)</title><rect x="1174.4" y="339.0" width="15.6" height="15" fill="#fb7c7c" rx="2" ry="2"/>
<text x="1177.4" y="350.0"></text>
</g>
<g>
<title>_pthread_start (5 samples, 1.33%)</title><rect x="1174.4" y="323.0" width="15.6" height="15" fill="#ec6969" rx="2" ry="2"/>
<text x="1177.4" y="334.0"></text>
</g>
<g>
<title>_pthread_body (5 samples, 1.33%)</title><rect x="1174.4" y="307.0" width="15.6" height="15" fill="#f37272" rx="2" ry="2"/>
<text x="1177.4" y="318.0"></text>
</g>
<g>
<title>thread_native_entry(Thread*) (5 samples, 1.33%)</title><rect x="1174.4" y="291.0" width="15.6" height="15" fill="#f06e6e" rx="2" ry="2"/>
<text x="1177.4" y="302.0"></text>
</g>
<g>
<title>Thread::call_run() (5 samples, 1.33%)</title><rect x="1174.4" y="275.0" width="15.6" height="15" fill="#caca3c" rx="2" ry="2"/>
<text x="1177.4" y="286.0"></text>
</g>
<g>
<title>ConcurrentGCThread::run() (2 samples, 0.53%)</title><rect x="1174.4" y="259.0" width="6.2" height="15" fill="#e4e445" rx="2" ry="2"/>
<text x="1177.4" y="270.0"></text>
</g>
<g>
<title>G1YoungRemSetSamplingThread::run_service() (2 samples, 0.53%)</title><rect x="1174.4" y="243.0" width="6.2" height="15" fill="#cbcb3d" rx="2" ry="2"/>
<text x="1177.4" y="254.0"></text>
</g>
<g>
<title>G1YoungRemSetSamplingThread::sleep_before_next_cycle() (2 samples, 0.53%)</title><rect x="1174.4" y="227.0" width="6.2" height="15" fill="#e4e445" rx="2" ry="2"/>
<text x="1177.4" y="238.0"></text>
</g>
<g>
<title>Monitor::wait(bool, long, bool) (2 samples, 0.53%)</title><rect x="1174.4" y="211.0" width="6.2" height="15" fill="#e4e445" rx="2" ry="2"/>
<text x="1177.4" y="222.0"></text>
</g>
<g>
<title>Monitor::IWait(Thread*, long) (2 samples, 0.53%)</title><rect x="1174.4" y="195.0" width="6.2" height="15" fill="#d1d13f" rx="2" ry="2"/>
<text x="1177.4" y="206.0"></text>
</g>
<g>
<title>os::PlatformEvent::park(long) (2 samples, 0.53%)</title><rect x="1174.4" y="179.0" width="6.2" height="15" fill="#d7d741" rx="2" ry="2"/>
<text x="1177.4" y="190.0"></text>
</g>
<g>
<title>__psynch_cvwait (1 samples, 0.27%)</title><rect x="1174.4" y="163.0" width="3.1" height="15" fill="#f67676" rx="2" ry="2"/>
<text x="1177.4" y="174.0"></text>
</g>
<g>
<title>_pthread_cond_wait (1 samples, 0.27%)</title><rect x="1177.5" y="163.0" width="3.1" height="15" fill="#fc7e7e" rx="2" ry="2"/>
<text x="1180.5" y="174.0"></text>
</g>
<g>
<title>JavaThread::run() (1 samples, 0.27%)</title><rect x="1180.6" y="259.0" width="3.1" height="15" fill="#d2d23f" rx="2" ry="2"/>
<text x="1183.6" y="270.0"></text>
</g>
<g>
<title>JavaThread::thread_main_inner() (1 samples, 0.27%)</title><rect x="1180.6" y="243.0" width="3.1" height="15" fill="#c9c93c" rx="2" ry="2"/>
<text x="1183.6" y="254.0"></text>
</g>
<g>
<title>attach_listener_thread_entry(JavaThread*, Thread*) (1 samples, 0.27%)</title><rect x="1180.6" y="227.0" width="3.1" height="15" fill="#e96565" rx="2" ry="2"/>
<text x="1183.6" y="238.0"></text>
</g>
<g>
<title>load_agent(AttachOperation*, outputStream*) (1 samples, 0.27%)</title><rect x="1180.6" y="211.0" width="3.1" height="15" fill="#e66161" rx="2" ry="2"/>
<text x="1183.6" y="222.0"></text>
</g>
<g>
<title>JvmtiExport::load_agent_library(char const*, char const*, char const*, outputStream*) (1 samples, 0.27%)</title><rect x="1180.6" y="195.0" width="3.1" height="15" fill="#caca3c" rx="2" ry="2"/>
<text x="1183.6" y="206.0"></text>
</g>
<g>
<title>Agent_OnAttach (1 samples, 0.27%)</title><rect x="1180.6" y="179.0" width="3.1" height="15" fill="#e66161" rx="2" ry="2"/>
<text x="1183.6" y="190.0"></text>
</g>
<g>
<title>Profiler::run(Arguments&amp;) (1 samples, 0.27%)</title><rect x="1180.6" y="163.0" width="3.1" height="15" fill="#cbcb3d" rx="2" ry="2"/>
<text x="1183.6" y="174.0"></text>
</g>
<g>
<title>rcmd_af.canonnamebuf (1 samples, 0.27%)</title><rect x="1180.6" y="147.0" width="3.1" height="15" fill="#ee6b6b" rx="2" ry="2"/>
<text x="1183.6" y="158.0"></text>
</g>
<g>
<title>WatcherThread::run() (2 samples, 0.53%)</title><rect x="1183.7" y="259.0" width="6.3" height="15" fill="#e3e345" rx="2" ry="2"/>
<text x="1186.7" y="270.0"></text>
</g>
<g>
<title>WatcherThread::sleep() const (2 samples, 0.53%)</title><rect x="1183.7" y="243.0" width="6.3" height="15" fill="#caca3c" rx="2" ry="2"/>
<text x="1186.7" y="254.0"></text>
</g>
<g>
<title>Monitor::wait(bool, long, bool) (2 samples, 0.53%)</title><rect x="1183.7" y="227.0" width="6.3" height="15" fill="#e2e244" rx="2" ry="2"/>
<text x="1186.7" y="238.0"></text>
</g>
<g>
<title>Monitor::IWait(Thread*, long) (2 samples, 0.53%)</title><rect x="1183.7" y="211.0" width="6.3" height="15" fill="#caca3c" rx="2" ry="2"/>
<text x="1186.7" y="222.0"></text>
</g>
<g>
<title>os::PlatformEvent::park(long) (2 samples, 0.53%)</title><rect x="1183.7" y="195.0" width="6.3" height="15" fill="#d3d33f" rx="2" ry="2"/>
<text x="1186.7" y="206.0"></text>
</g>
<g>
<title>__psynch_cvwait (2 samples, 0.53%)</title><rect x="1183.7" y="179.0" width="6.3" height="15" fill="#e56060" rx="2" ry="2"/>
<text x="1186.7" y="190.0"></text>
</g>
</g>
</svg>
