<?xml version="1.0" standalone="no"?>
<!DOCTYPE svg PUBLIC "-//W3C//DTD SVG 1.1//EN" "http://www.w3.org/Graphics/SVG/1.1/DTD/svg11.dtd">
<svg version="1.1" width="1200" height="502" onload="init(evt)" viewBox="0 0 1200 502" xmlns="http://www.w3.org/2000/svg" xmlns:xlink="http://www.w3.org/1999/xlink">
<style type="text/css">
	text { font-family:Verdana; font-size:12px; fill:rgb(0,0,0); }
	#search { opacity:0.1; cursor:pointer; }
	#search:hover, #search.show { opacity:1; }
	#subtitle { text-anchor:middle; font-color:rgb(160,160,160); }
	#title { text-anchor:middle; font-size:17px}
	#unzoom { cursor:pointer; }
	#frames > *:hover { stroke:black; stroke-width:0.5; cursor:pointer; }
	.hide { display:none; }
	.parent { opacity:0.5; }
</style>
<script type="text/ecmascript">
<![CDATA[
	"use strict";
	var details, searchbtn, unzoombtn, matchedtxt, svg, searching;
	function init(evt) {
		details = document.getElementById("details").firstChild;
		searchbtn = document.getElementById("search");
		unzoombtn = document.getElementById("unzoom");
		matchedtxt = document.getElementById("matched");
		svg = document.getElementsByTagName("svg")[0];
		searching = 0;
	}

	window.addEventListener("click", function(e) {
		var target = find_group(e.target);
		if (target) {
			if (target.nodeName == "a") {
				if (e.ctrlKey === false) return;
				e.preventDefault();
			}
			if (target.classList.contains("parent")) unzoom();
			zoom(target);
		}
		else if (e.target.id == "unzoom") unzoom();
		else if (e.target.id == "search") search_prompt();
	}, false)

	// mouse-over for info
	// show
	window.addEventListener("mouseover", function(e) {
		var target = find_group(e.target);
		if (target) details.nodeValue = "Function: " + g_to_text(target);
	}, false)

	// clear
	window.addEventListener("mouseout", function(e) {
		var target = find_group(e.target);
		if (target) details.nodeValue = ' ';
	}, false)

	// ctrl-F for search
	window.addEventListener("keydown",function (e) {
		if (e.keyCode === 114 || (e.ctrlKey && e.keyCode === 70)) {
			e.preventDefault();
			search_prompt();
		}
	}, false)

	// functions
	function find_child(node, selector) {
		var children = node.querySelectorAll(selector);
		if (children.length) return children[0];
		return;
	}
	function find_group(node) {
		var parent = node.parentElement;
		if (!parent) return;
		if (parent.id == "frames") return node;
		return find_group(parent);
	}
	function orig_save(e, attr, val) {
		if (e.attributes["_orig_" + attr] != undefined) return;
		if (e.attributes[attr] == undefined) return;
		if (val == undefined) val = e.attributes[attr].value;
		e.setAttribute("_orig_" + attr, val);
	}
	function orig_load(e, attr) {
		if (e.attributes["_orig_"+attr] == undefined) return;
		e.attributes[attr].value = e.attributes["_orig_" + attr].value;
		e.removeAttribute("_orig_"+attr);
	}
	function g_to_text(e) {
		var text = find_child(e, "title").firstChild.nodeValue;
		return (text)
	}
	function g_to_func(e) {
		var func = g_to_text(e);
		// if there's any manipulation we want to do to the function
		// name before it's searched, do it here before returning.
		return (func);
	}
	function update_text(e) {
		var r = find_child(e, "rect");
		var t = find_child(e, "text");
		var w = parseFloat(r.attributes.width.value) -3;
		var txt = find_child(e, "title").textContent.replace(/\([^(]*\)$/,"");
		t.attributes.x.value = parseFloat(r.attributes.x.value) + 3;

		// Smaller than this size won't fit anything
		if (w < 2 * 12 * 0.59) {
			t.textContent = "";
			return;
		}

		t.textContent = txt;
		// Fit in full text width
		if (/^ *$/.test(txt) || t.getSubStringLength(0, txt.length) < w)
			return;

		for (var x = txt.length - 2; x > 0; x--) {
			if (t.getSubStringLength(0, x + 2) <= w) {
				t.textContent = txt.substring(0, x) + "..";
				return;
			}
		}
		t.textContent = "";
	}

	// zoom
	function zoom_reset(e) {
		if (e.attributes != undefined) {
			orig_load(e, "x");
			orig_load(e, "width");
		}
		if (e.childNodes == undefined) return;
		for (var i = 0, c = e.childNodes; i < c.length; i++) {
			zoom_reset(c[i]);
		}
	}
	function zoom_child(e, x, ratio) {
		if (e.attributes != undefined) {
			if (e.attributes.x != undefined) {
				orig_save(e, "x");
				e.attributes.x.value = (parseFloat(e.attributes.x.value) - x - 10) * ratio + 10;
				if (e.tagName == "text")
					e.attributes.x.value = find_child(e.parentNode, "rect[x]").attributes.x.value + 3;
			}
			if (e.attributes.width != undefined) {
				orig_save(e, "width");
				e.attributes.width.value = parseFloat(e.attributes.width.value) * ratio;
			}
		}

		if (e.childNodes == undefined) return;
		for (var i = 0, c = e.childNodes; i < c.length; i++) {
			zoom_child(c[i], x - 10, ratio);
		}
	}
	function zoom_parent(e) {
		if (e.attributes) {
			if (e.attributes.x != undefined) {
				orig_save(e, "x");
				e.attributes.x.value = 10;
			}
			if (e.attributes.width != undefined) {
				orig_save(e, "width");
				e.attributes.width.value = parseInt(svg.width.baseVal.value) - (10 * 2);
			}
		}
		if (e.childNodes == undefined) return;
		for (var i = 0, c = e.childNodes; i < c.length; i++) {
			zoom_parent(c[i]);
		}
	}
	function zoom(node) {
		var attr = find_child(node, "rect").attributes;
		var width = parseFloat(attr.width.value);
		var xmin = parseFloat(attr.x.value);
		var xmax = parseFloat(xmin + width);
		var ymin = parseFloat(attr.y.value);
		var ratio = (svg.width.baseVal.value - 2 * 10) / width;

		// XXX: Workaround for JavaScript float issues (fix me)
		var fudge = 0.0001;

		unzoombtn.classList.remove("hide");

		var el = document.getElementById("frames").children;
		for (var i = 0; i < el.length; i++) {
			var e = el[i];
			var a = find_child(e, "rect").attributes;
			var ex = parseFloat(a.x.value);
			var ew = parseFloat(a.width.value);
			var upstack;
			// Is it an ancestor
			if (0 == 0) {
				upstack = parseFloat(a.y.value) > ymin;
			} else {
				upstack = parseFloat(a.y.value) < ymin;
			}
			if (upstack) {
				// Direct ancestor
				if (ex <= xmin && (ex+ew+fudge) >= xmax) {
					e.classList.add("parent");
					zoom_parent(e);
					update_text(e);
				}
				// not in current path
				else
					e.classList.add("hide");
			}
			// Children maybe
			else {
				// no common path
				if (ex < xmin || ex + fudge >= xmax) {
					e.classList.add("hide");
				}
				else {
					zoom_child(e, xmin, ratio);
					update_text(e);
				}
			}
		}
	}
	function unzoom() {
		unzoombtn.classList.add("hide");
		var el = document.getElementById("frames").children;
		for(var i = 0; i < el.length; i++) {
			el[i].classList.remove("parent");
			el[i].classList.remove("hide");
			zoom_reset(el[i]);
			update_text(el[i]);
		}
	}

	// search
	function reset_search() {
		var el = document.querySelectorAll("#frames rect");
		for (var i = 0; i < el.length; i++) {
			orig_load(el[i], "fill")
		}
	}
	function search_prompt() {
		if (!searching) {
			var term = prompt("Enter a search term (regexp " +
			    "allowed, eg: ^ext4_)", "");
			if (term != null) {
				search(term)
			}
		} else {
			reset_search();
			searching = 0;
			searchbtn.classList.remove("show");
			searchbtn.firstChild.nodeValue = "Search"
			matchedtxt.classList.add("hide");
			matchedtxt.firstChild.nodeValue = ""
		}
	}
	function search(term) {
		var re = new RegExp(term);
		var el = document.getElementById("frames").children;
		var matches = new Object();
		var maxwidth = 0;
		for (var i = 0; i < el.length; i++) {
			var e = el[i];
			var func = g_to_func(e);
			var rect = find_child(e, "rect");
			if (func == null || rect == null)
				continue;

			// Save max width. Only works as we have a root frame
			var w = parseFloat(rect.attributes.width.value);
			if (w > maxwidth)
				maxwidth = w;

			if (func.match(re)) {
				// highlight
				var x = parseFloat(rect.attributes.x.value);
				orig_save(rect, "fill");
				rect.attributes.fill.value = "rgb(230,0,230)";

				// remember matches
				if (matches[x] == undefined) {
					matches[x] = w;
				} else {
					if (w > matches[x]) {
						// overwrite with parent
						matches[x] = w;
					}
				}
				searching = 1;
			}
		}
		if (!searching)
			return;

		searchbtn.classList.add("show");
		searchbtn.firstChild.nodeValue = "Reset Search";

		// calculate percent matched, excluding vertical overlap
		var count = 0;
		var lastx = -1;
		var lastw = 0;
		var keys = Array();
		for (k in matches) {
			if (matches.hasOwnProperty(k))
				keys.push(k);
		}
		// sort the matched frames by their x location
		// ascending, then width descending
		keys.sort(function(a, b){
			return a - b;
		});
		// Step through frames saving only the biggest bottom-up frames
		// thanks to the sort order. This relies on the tree property
		// where children are always smaller than their parents.
		var fudge = 0.0001;	// JavaScript floating point
		for (var k in keys) {
			var x = parseFloat(keys[k]);
			var w = matches[keys[k]];
			if (x >= lastx + lastw - fudge) {
				count += w;
				lastx = x;
				lastw = w;
			}
		}
		// display matched percent
		matchedtxt.classList.remove("hide");
		var pct = 100 * count / maxwidth;
		if (pct != 100) pct = pct.toFixed(1)
		matchedtxt.firstChild.nodeValue = "Matched: " + pct + "%";
	}
]]>
</script>
<rect x="0" y="0" width="100%" height="100%" fill="rgb(240,240,220)"/>
<text id="title" x="600" y="24">Flame Graph</text>
<text id="details" x="10" y="485"> </text>
<text id="unzoom" x="10" y="24" class="hide">Reset Zoom</text>
<text id="search" x="1090" y="24">Search</text>
<text id="matched" x="1090" y="485"> </text>
<g id="frames">
<g>
<title>all (97 samples, 100.00%)</title><rect x="10.0" y="451.0" width="1180.0" height="15" fill="#f77777" rx="2" ry="2"/>
<text x="13.0" y="462.0">all</text>
</g>
<g>
<title>one/nio/server/SelectorThread.run (86 samples, 88.66%)</title><rect x="10.0" y="435.0" width="1046.2" height="15" fill="#5ff05f" rx="2" ry="2"/>
<text x="13.0" y="446.0">one/nio/server/SelectorThread.run</text>
</g>
<g>
<title>one/nio/net/JavaSelector.select (57 samples, 58.76%)</title><rect x="10.0" y="419.0" width="693.4" height="15" fill="#65f665" rx="2" ry="2"/>
<text x="13.0" y="430.0">one/nio/net/JavaSelector.select</text>
</g>
<g>
<title>one/nio/net/JavaSelector.iteratorFor (1 samples, 1.03%)</title><rect x="10.0" y="403.0" width="12.2" height="15" fill="#54e554" rx="2" ry="2"/>
<text x="13.0" y="414.0"></text>
</g>
<g>
<title>one/nio/net/JavaSelector.registerPendingSessions (1 samples, 1.03%)</title><rect x="22.2" y="403.0" width="12.1" height="15" fill="#65f665" rx="2" ry="2"/>
<text x="25.2" y="414.0"></text>
</g>
<g>
<title>java/util/concurrent/ConcurrentLinkedQueue.poll (1 samples, 1.03%)</title><rect x="22.2" y="387.0" width="12.1" height="15" fill="#65f665" rx="2" ry="2"/>
<text x="25.2" y="398.0"></text>
</g>
<g>
<title>sun/nio/ch/SelectorImpl.select (55 samples, 56.70%)</title><rect x="34.3" y="403.0" width="669.1" height="15" fill="#56e756" rx="2" ry="2"/>
<text x="37.3" y="414.0">sun/nio/ch/SelectorImpl.select</text>
</g>
<g>
<title>sun/nio/ch/SelectorImpl.lockAndDoSelect (55 samples, 56.70%)</title><rect x="34.3" y="387.0" width="669.1" height="15" fill="#63f463" rx="2" ry="2"/>
<text x="37.3" y="398.0">sun/nio/ch/SelectorImpl.lockAndDoSelect</text>
</g>
<g>
<title>sun/nio/ch/KQueueSelectorImpl.doSelect (55 samples, 56.70%)</title><rect x="34.3" y="371.0" width="669.1" height="15" fill="#6afb6a" rx="2" ry="2"/>
<text x="37.3" y="382.0">sun/nio/ch/KQueueSelectorImpl.doSelect</text>
</g>
<g>
<title>sun/nio/ch/KQueue.poll (54 samples, 55.67%)</title><rect x="34.3" y="355.0" width="656.9" height="15" fill="#6dfe6d" rx="2" ry="2"/>
<text x="37.3" y="366.0">sun/nio/ch/KQueue.poll</text>
</g>
<g>
<title>kevent (53 samples, 54.64%)</title><rect x="46.5" y="339.0" width="644.7" height="15" fill="#f06e6e" rx="2" ry="2"/>
<text x="49.5" y="350.0">kevent</text>
</g>
<g>
<title>sun/nio/ch/SelectorImpl.begin (1 samples, 1.03%)</title><rect x="691.2" y="355.0" width="12.2" height="15" fill="#6bfc6b" rx="2" ry="2"/>
<text x="694.2" y="366.0"></text>
</g>
<g>
<title>java/nio/channels/spi/AbstractSelector.begin (1 samples, 1.03%)</title><rect x="691.2" y="339.0" width="12.2" height="15" fill="#61f261" rx="2" ry="2"/>
<text x="694.2" y="350.0"></text>
</g>
<g>
<title>java/lang/Thread.isInterrupted (1 samples, 1.03%)</title><rect x="691.2" y="323.0" width="12.2" height="15" fill="#62f362" rx="2" ry="2"/>
<text x="694.2" y="334.0"></text>
</g>
<g>
<title>one/nio/net/Session.process (29 samples, 29.90%)</title><rect x="703.4" y="419.0" width="352.8" height="15" fill="#5dee5d" rx="2" ry="2"/>
<text x="706.4" y="430.0">one/nio/net/Session.process</text>
</g>
<g>
<title>one/nio/http/HttpSession.processRead (29 samples, 29.90%)</title><rect x="703.4" y="403.0" width="352.8" height="15" fill="#69fa69" rx="2" ry="2"/>
<text x="706.4" y="414.0">one/nio/http/HttpSession.processRead</text>
</g>
<g>
<title>one/nio/http/HttpSession.processHttpBuffer (24 samples, 24.74%)</title><rect x="703.4" y="387.0" width="292.0" height="15" fill="#64f564" rx="2" ry="2"/>
<text x="706.4" y="398.0">one/nio/http/HttpSession.processHttpBuf..</text>
</g>
<g>
<title>one/nio/http/HttpSession.handleParsedRequest (24 samples, 24.74%)</title><rect x="703.4" y="371.0" width="292.0" height="15" fill="#52e352" rx="2" ry="2"/>
<text x="706.4" y="382.0">one/nio/http/HttpSession.handleParsedRe..</text>
</g>
<g>
<title>one/nio/http/HttpServer.handleRequest (24 samples, 24.74%)</title><rect x="703.4" y="355.0" width="292.0" height="15" fill="#58e958" rx="2" ry="2"/>
<text x="706.4" y="366.0">one/nio/http/HttpServer.handleRequest</text>
</g>
<g>
<title>RequestHandler0_status.handleRequest (1 samples, 1.03%)</title><rect x="703.4" y="339.0" width="12.2" height="15" fill="#67f867" rx="2" ry="2"/>
<text x="706.4" y="350.0"></text>
</g>
<g>
<title>ru/mail/polis/service/kuzoliza/MyService.status (1 samples, 1.03%)</title><rect x="703.4" y="323.0" width="12.2" height="15" fill="#69fa69" rx="2" ry="2"/>
<text x="706.4" y="334.0"></text>
</g>
<g>
<title>one/nio/http/Response.ok (1 samples, 1.03%)</title><rect x="703.4" y="307.0" width="12.2" height="15" fill="#5dee5d" rx="2" ry="2"/>
<text x="706.4" y="318.0"></text>
</g>
<g>
<title>java/lang/String.getBytes (1 samples, 1.03%)</title><rect x="703.4" y="291.0" width="12.2" height="15" fill="#5eef5e" rx="2" ry="2"/>
<text x="706.4" y="302.0"></text>
</g>
<g>
<title>java/lang/StringCoding.encode (1 samples, 1.03%)</title><rect x="703.4" y="275.0" width="12.2" height="15" fill="#52e352" rx="2" ry="2"/>
<text x="706.4" y="286.0"></text>
</g>
<g>
<title>java/lang/StringCoding.encodeUTF8 (1 samples, 1.03%)</title><rect x="703.4" y="259.0" width="12.2" height="15" fill="#57e857" rx="2" ry="2"/>
<text x="706.4" y="270.0"></text>
</g>
<g>
<title>one/nio/http/HttpSession.parseRequest (1 samples, 1.03%)</title><rect x="703.4" y="243.0" width="12.2" height="15" fill="#6afb6a" rx="2" ry="2"/>
<text x="706.4" y="254.0"></text>
</g>
<g>
<title>RequestHandler1_entity.handleRequest (23 samples, 23.71%)</title><rect x="715.6" y="339.0" width="279.8" height="15" fill="#65f665" rx="2" ry="2"/>
<text x="718.6" y="350.0">RequestHandler1_entity.handleRequest</text>
</g>
<g>
<title>one/nio/http/HttpSession.sendResponse (17 samples, 17.53%)</title><rect x="715.6" y="323.0" width="206.8" height="15" fill="#6dfe6d" rx="2" ry="2"/>
<text x="718.6" y="334.0">one/nio/http/HttpSession.se..</text>
</g>
<g>
<title>one/nio/http/HttpSession.writeResponse (17 samples, 17.53%)</title><rect x="715.6" y="307.0" width="206.8" height="15" fill="#55e655" rx="2" ry="2"/>
<text x="718.6" y="318.0">one/nio/http/HttpSession.wr..</text>
</g>
<g>
<title>one/nio/net/Session.write (17 samples, 17.53%)</title><rect x="715.6" y="291.0" width="206.8" height="15" fill="#58e958" rx="2" ry="2"/>
<text x="718.6" y="302.0">one/nio/net/Session.write</text>
</g>
<g>
<title>one/nio/net/Session.write (17 samples, 17.53%)</title><rect x="715.6" y="275.0" width="206.8" height="15" fill="#5bec5b" rx="2" ry="2"/>
<text x="718.6" y="286.0">one/nio/net/Session.write</text>
</g>
<g>
<title>one/nio/net/Session$ArrayQueueItem.write (17 samples, 17.53%)</title><rect x="715.6" y="259.0" width="206.8" height="15" fill="#65f665" rx="2" ry="2"/>
<text x="718.6" y="270.0">one/nio/net/Session$ArrayQu..</text>
</g>
<g>
<title>one/nio/net/JavaSocket.write (17 samples, 17.53%)</title><rect x="715.6" y="243.0" width="206.8" height="15" fill="#60f160" rx="2" ry="2"/>
<text x="718.6" y="254.0">one/nio/net/JavaSocket.write</text>
</g>
<g>
<title>sun/nio/ch/SocketChannelImpl.write (17 samples, 17.53%)</title><rect x="715.6" y="227.0" width="206.8" height="15" fill="#60f160" rx="2" ry="2"/>
<text x="718.6" y="238.0">sun/nio/ch/SocketChannelImp..</text>
</g>
<g>
<title>sun/nio/ch/IOUtil.write (17 samples, 17.53%)</title><rect x="715.6" y="211.0" width="206.8" height="15" fill="#66f766" rx="2" ry="2"/>
<text x="718.6" y="222.0">sun/nio/ch/IOUtil.write</text>
</g>
<g>
<title>sun/nio/ch/IOUtil.write (17 samples, 17.53%)</title><rect x="715.6" y="195.0" width="206.8" height="15" fill="#5eef5e" rx="2" ry="2"/>
<text x="718.6" y="206.0">sun/nio/ch/IOUtil.write</text>
</g>
<g>
<title>sun/nio/ch/IOUtil.writeFromNativeBuffer (17 samples, 17.53%)</title><rect x="715.6" y="179.0" width="206.8" height="15" fill="#5dee5d" rx="2" ry="2"/>
<text x="718.6" y="190.0">sun/nio/ch/IOUtil.writeFrom..</text>
</g>
<g>
<title>sun/nio/ch/SocketDispatcher.write (17 samples, 17.53%)</title><rect x="715.6" y="163.0" width="206.8" height="15" fill="#54e554" rx="2" ry="2"/>
<text x="718.6" y="174.0">sun/nio/ch/SocketDispatcher..</text>
</g>
<g>
<title>sun/nio/ch/FileDispatcherImpl.write0 (17 samples, 17.53%)</title><rect x="715.6" y="147.0" width="206.8" height="15" fill="#63f463" rx="2" ry="2"/>
<text x="718.6" y="158.0">sun/nio/ch/FileDispatcherIm..</text>
</g>
<g>
<title>JavaThread::check_special_condition_for_native_trans(JavaThread*) (1 samples, 1.03%)</title><rect x="715.6" y="131.0" width="12.1" height="15" fill="#e0e044" rx="2" ry="2"/>
<text x="718.6" y="142.0"></text>
</g>
<g>
<title>JavaThread::check_safepoint_and_suspend_for_native_trans(JavaThread*) (1 samples, 1.03%)</title><rect x="715.6" y="115.0" width="12.1" height="15" fill="#cfcf3e" rx="2" ry="2"/>
<text x="718.6" y="126.0"></text>
</g>
<g>
<title>SafepointSynchronize::block(JavaThread*) (1 samples, 1.03%)</title><rect x="715.6" y="99.0" width="12.1" height="15" fill="#dfdf43" rx="2" ry="2"/>
<text x="718.6" y="110.0"></text>
</g>
<g>
<title>Monitor::lock_without_safepoint_check() (1 samples, 1.03%)</title><rect x="715.6" y="83.0" width="12.1" height="15" fill="#e1e144" rx="2" ry="2"/>
<text x="718.6" y="94.0"></text>
</g>
<g>
<title>Monitor::ILock(Thread*) (1 samples, 1.03%)</title><rect x="715.6" y="67.0" width="12.1" height="15" fill="#c9c93c" rx="2" ry="2"/>
<text x="718.6" y="78.0"></text>
</g>
<g>
<title>os::PlatformEvent::park() (1 samples, 1.03%)</title><rect x="715.6" y="51.0" width="12.1" height="15" fill="#d1d13f" rx="2" ry="2"/>
<text x="718.6" y="62.0"></text>
</g>
<g>
<title>__psynch_cvwait (1 samples, 1.03%)</title><rect x="715.6" y="35.0" width="12.1" height="15" fill="#fc7e7e" rx="2" ry="2"/>
<text x="718.6" y="46.0"></text>
</g>
<g>
<title>write (16 samples, 16.49%)</title><rect x="727.7" y="131.0" width="194.7" height="15" fill="#e96464" rx="2" ry="2"/>
<text x="730.7" y="142.0">write</text>
</g>
<g>
<title>ru/mail/polis/service/kuzoliza/MyService.entity (6 samples, 6.19%)</title><rect x="922.4" y="323.0" width="73.0" height="15" fill="#5ff05f" rx="2" ry="2"/>
<text x="925.4" y="334.0">ru/mail/..</text>
</g>
<g>
<title>java/nio/ByteBuffer.wrap (1 samples, 1.03%)</title><rect x="922.4" y="307.0" width="12.1" height="15" fill="#59ea59" rx="2" ry="2"/>
<text x="925.4" y="318.0"></text>
</g>
<g>
<title>java/nio/ByteBuffer.wrap (1 samples, 1.03%)</title><rect x="922.4" y="291.0" width="12.1" height="15" fill="#5ced5c" rx="2" ry="2"/>
<text x="925.4" y="302.0"></text>
</g>
<g>
<title>java/nio/HeapByteBuffer.&lt;init&gt; (1 samples, 1.03%)</title><rect x="922.4" y="275.0" width="12.1" height="15" fill="#50e150" rx="2" ry="2"/>
<text x="925.4" y="286.0"></text>
</g>
<g>
<title>java/nio/ByteBuffer.&lt;init&gt; (1 samples, 1.03%)</title><rect x="922.4" y="259.0" width="12.1" height="15" fill="#67f867" rx="2" ry="2"/>
<text x="925.4" y="270.0"></text>
</g>
<g>
<title>java/nio/Buffer.&lt;init&gt; (1 samples, 1.03%)</title><rect x="922.4" y="243.0" width="12.1" height="15" fill="#6afb6a" rx="2" ry="2"/>
<text x="925.4" y="254.0"></text>
</g>
<g>
<title>java/nio/ByteBuffer.position (1 samples, 1.03%)</title><rect x="922.4" y="227.0" width="12.1" height="15" fill="#52e352" rx="2" ry="2"/>
<text x="925.4" y="238.0"></text>
</g>
<g>
<title>java/nio/ByteBuffer.limit (1 samples, 1.03%)</title><rect x="922.4" y="211.0" width="12.1" height="15" fill="#52e352" rx="2" ry="2"/>
<text x="925.4" y="222.0"></text>
</g>
<g>
<title>ru/mail/polis/service/kuzoliza/MyService.response (5 samples, 5.15%)</title><rect x="934.5" y="307.0" width="60.9" height="15" fill="#69fa69" rx="2" ry="2"/>
<text x="937.5" y="318.0">ru/mai..</text>
</g>
<g>
<title>ru/mail/polis/dao/DAO.get (1 samples, 1.03%)</title><rect x="946.7" y="291.0" width="12.2" height="15" fill="#5bec5b" rx="2" ry="2"/>
<text x="949.7" y="302.0"></text>
</g>
<g>
<title>com/google/common/collect/TransformedIterator.hasNext (1 samples, 1.03%)</title><rect x="946.7" y="275.0" width="12.2" height="15" fill="#68f968" rx="2" ry="2"/>
<text x="949.7" y="286.0"></text>
</g>
<g>
<title>com/google/common/collect/AbstractIterator.hasNext (1 samples, 1.03%)</title><rect x="946.7" y="259.0" width="12.2" height="15" fill="#67f867" rx="2" ry="2"/>
<text x="949.7" y="270.0"></text>
</g>
<g>
<title>com/google/common/collect/AbstractIterator.tryToComputeNext (1 samples, 1.03%)</title><rect x="946.7" y="243.0" width="12.2" height="15" fill="#62f362" rx="2" ry="2"/>
<text x="949.7" y="254.0"></text>
</g>
<g>
<title>com/google/common/collect/Iterators$5.computeNext (1 samples, 1.03%)</title><rect x="946.7" y="227.0" width="12.2" height="15" fill="#52e352" rx="2" ry="2"/>
<text x="949.7" y="238.0"></text>
</g>
<g>
<title>jbyte_disjoint_arraycopy (1 samples, 1.03%)</title><rect x="946.7" y="211.0" width="12.2" height="15" fill="#fc7f7f" rx="2" ry="2"/>
<text x="949.7" y="222.0"></text>
</g>
<g>
<title>ru/mail/polis/dao/kuzoliza/LSM.upsert (3 samples, 3.09%)</title><rect x="958.9" y="291.0" width="36.5" height="15" fill="#68f968" rx="2" ry="2"/>
<text x="961.9" y="302.0">ru/..</text>
</g>
<g>
<title>ru/mail/polis/dao/kuzoliza/MemTable.upsert (3 samples, 3.09%)</title><rect x="958.9" y="275.0" width="36.5" height="15" fill="#6dfe6d" rx="2" ry="2"/>
<text x="961.9" y="286.0">ru/..</text>
</g>
<g>
<title>java/util/TreeMap.put (3 samples, 3.09%)</title><rect x="958.9" y="259.0" width="36.5" height="15" fill="#6afb6a" rx="2" ry="2"/>
<text x="961.9" y="270.0">jav..</text>
</g>
<g>
<title>java/nio/ByteBuffer.compareTo (3 samples, 3.09%)</title><rect x="958.9" y="243.0" width="36.5" height="15" fill="#52e352" rx="2" ry="2"/>
<text x="961.9" y="254.0">jav..</text>
</g>
<g>
<title>java/nio/ByteBuffer.compareTo (3 samples, 3.09%)</title><rect x="958.9" y="227.0" width="36.5" height="15" fill="#53e453" rx="2" ry="2"/>
<text x="961.9" y="238.0">jav..</text>
</g>
<g>
<title>one/nio/net/Session.read (5 samples, 5.15%)</title><rect x="995.4" y="387.0" width="60.8" height="15" fill="#57e857" rx="2" ry="2"/>
<text x="998.4" y="398.0">one/ni..</text>
</g>
<g>
<title>one/nio/net/JavaSocket.read (5 samples, 5.15%)</title><rect x="995.4" y="371.0" width="60.8" height="15" fill="#6afb6a" rx="2" ry="2"/>
<text x="998.4" y="382.0">one/ni..</text>
</g>
<g>
<title>sun/nio/ch/SocketChannelImpl.read (5 samples, 5.15%)</title><rect x="995.4" y="355.0" width="60.8" height="15" fill="#5ced5c" rx="2" ry="2"/>
<text x="998.4" y="366.0">sun/ni..</text>
</g>
<g>
<title>sun/nio/ch/IOUtil.read (5 samples, 5.15%)</title><rect x="995.4" y="339.0" width="60.8" height="15" fill="#61f261" rx="2" ry="2"/>
<text x="998.4" y="350.0">sun/ni..</text>
</g>
<g>
<title>sun/nio/ch/IOUtil.read (5 samples, 5.15%)</title><rect x="995.4" y="323.0" width="60.8" height="15" fill="#63f463" rx="2" ry="2"/>
<text x="998.4" y="334.0">sun/ni..</text>
</g>
<g>
<title>sun/nio/ch/IOUtil.readIntoNativeBuffer (4 samples, 4.12%)</title><rect x="995.4" y="307.0" width="48.6" height="15" fill="#57e857" rx="2" ry="2"/>
<text x="998.4" y="318.0">sun/..</text>
</g>
<g>
<title>sun/nio/ch/SocketDispatcher.read (4 samples, 4.12%)</title><rect x="995.4" y="291.0" width="48.6" height="15" fill="#6cfd6c" rx="2" ry="2"/>
<text x="998.4" y="302.0">sun/..</text>
</g>
<g>
<title>sun/nio/ch/FileDispatcherImpl.read0 (3 samples, 3.09%)</title><rect x="1007.5" y="275.0" width="36.5" height="15" fill="#54e554" rx="2" ry="2"/>
<text x="1010.5" y="286.0">sun..</text>
</g>
<g>
<title>read (3 samples, 3.09%)</title><rect x="1007.5" y="259.0" width="36.5" height="15" fill="#f37272" rx="2" ry="2"/>
<text x="1010.5" y="270.0">read</text>
</g>
<g>
<title>sun/nio/ch/Util.getTemporaryDirectBuffer (1 samples, 1.03%)</title><rect x="1044.0" y="307.0" width="12.2" height="15" fill="#67f867" rx="2" ry="2"/>
<text x="1047.0" y="318.0"></text>
</g>
<g>
<title>java/lang/ThreadLocal.get (1 samples, 1.03%)</title><rect x="1044.0" y="291.0" width="12.2" height="15" fill="#65f665" rx="2" ry="2"/>
<text x="1047.0" y="302.0"></text>
</g>
<g>
<title>java/lang/ThreadLocal$ThreadLocalMap.getEntry (1 samples, 1.03%)</title><rect x="1044.0" y="275.0" width="12.2" height="15" fill="#5bec5b" rx="2" ry="2"/>
<text x="1047.0" y="286.0"></text>
</g>
<g>
<title>thread_start (11 samples, 11.34%)</title><rect x="1056.2" y="435.0" width="133.8" height="15" fill="#e35c5c" rx="2" ry="2"/>
<text x="1059.2" y="446.0">thread_start</text>
</g>
<g>
<title>_pthread_start (11 samples, 11.34%)</title><rect x="1056.2" y="419.0" width="133.8" height="15" fill="#f87979" rx="2" ry="2"/>
<text x="1059.2" y="430.0">_pthread_start</text>
</g>
<g>
<title>_pthread_body (11 samples, 11.34%)</title><rect x="1056.2" y="403.0" width="133.8" height="15" fill="#e66161" rx="2" ry="2"/>
<text x="1059.2" y="414.0">_pthread_body</text>
</g>
<g>
<title>thread_native_entry(Thread*) (11 samples, 11.34%)</title><rect x="1056.2" y="387.0" width="133.8" height="15" fill="#f77777" rx="2" ry="2"/>
<text x="1059.2" y="398.0">thread_native_ent..</text>
</g>
<g>
<title>Thread::call_run() (11 samples, 11.34%)</title><rect x="1056.2" y="371.0" width="133.8" height="15" fill="#e1e144" rx="2" ry="2"/>
<text x="1059.2" y="382.0">Thread::call_run()</text>
</g>
<g>
<title>ConcurrentGCThread::run() (2 samples, 2.06%)</title><rect x="1056.2" y="355.0" width="24.3" height="15" fill="#dbdb42" rx="2" ry="2"/>
<text x="1059.2" y="366.0">C..</text>
</g>
<g>
<title>G1YoungRemSetSamplingThread::run_service() (2 samples, 2.06%)</title><rect x="1056.2" y="339.0" width="24.3" height="15" fill="#dfdf43" rx="2" ry="2"/>
<text x="1059.2" y="350.0">G..</text>
</g>
<g>
<title>G1YoungRemSetSamplingThread::sleep_before_next_cycle() (2 samples, 2.06%)</title><rect x="1056.2" y="323.0" width="24.3" height="15" fill="#d9d941" rx="2" ry="2"/>
<text x="1059.2" y="334.0">G..</text>
</g>
<g>
<title>Monitor::wait(bool, long, bool) (2 samples, 2.06%)</title><rect x="1056.2" y="307.0" width="24.3" height="15" fill="#d6d640" rx="2" ry="2"/>
<text x="1059.2" y="318.0">M..</text>
</g>
<g>
<title>Monitor::IWait(Thread*, long) (2 samples, 2.06%)</title><rect x="1056.2" y="291.0" width="24.3" height="15" fill="#d4d440" rx="2" ry="2"/>
<text x="1059.2" y="302.0">M..</text>
</g>
<g>
<title>os::PlatformEvent::park(long) (2 samples, 2.06%)</title><rect x="1056.2" y="275.0" width="24.3" height="15" fill="#dcdc42" rx="2" ry="2"/>
<text x="1059.2" y="286.0">o..</text>
</g>
<g>
<title>__psynch_cvwait (2 samples, 2.06%)</title><rect x="1056.2" y="259.0" width="24.3" height="15" fill="#f27171" rx="2" ry="2"/>
<text x="1059.2" y="270.0">_..</text>
</g>
<g>
<title>GangWorker::loop() (1 samples, 1.03%)</title><rect x="1080.5" y="355.0" width="12.2" height="15" fill="#e1e144" rx="2" ry="2"/>
<text x="1083.5" y="366.0"></text>
</g>
<g>
<title>SemaphoreGangTaskDispatcher::worker_wait_for_task() (1 samples, 1.03%)</title><rect x="1080.5" y="339.0" width="12.2" height="15" fill="#dcdc42" rx="2" ry="2"/>
<text x="1083.5" y="350.0"></text>
</g>
<g>
<title>__block_descriptor_tmp (1 samples, 1.03%)</title><rect x="1080.5" y="323.0" width="12.2" height="15" fill="#f77878" rx="2" ry="2"/>
<text x="1083.5" y="334.0"></text>
</g>
<g>
<title>JavaThread::run() (1 samples, 1.03%)</title><rect x="1092.7" y="355.0" width="12.1" height="15" fill="#d2d23f" rx="2" ry="2"/>
<text x="1095.7" y="366.0"></text>
</g>
<g>
<title>JavaThread::thread_main_inner() (1 samples, 1.03%)</title><rect x="1092.7" y="339.0" width="12.1" height="15" fill="#dada42" rx="2" ry="2"/>
<text x="1095.7" y="350.0"></text>
</g>
<g>
<title>attach_listener_thread_entry(JavaThread*, Thread*) (1 samples, 1.03%)</title><rect x="1092.7" y="323.0" width="12.1" height="15" fill="#e96565" rx="2" ry="2"/>
<text x="1095.7" y="334.0"></text>
</g>
<g>
<title>load_agent(AttachOperation*, outputStream*) (1 samples, 1.03%)</title><rect x="1092.7" y="307.0" width="12.1" height="15" fill="#f06e6e" rx="2" ry="2"/>
<text x="1095.7" y="318.0"></text>
</g>
<g>
<title>JvmtiExport::load_agent_library(char const*, char const*, char const*, outputStream*) (1 samples, 1.03%)</title><rect x="1092.7" y="291.0" width="12.1" height="15" fill="#e4e445" rx="2" ry="2"/>
<text x="1095.7" y="302.0"></text>
</g>
<g>
<title>Agent_OnAttach (1 samples, 1.03%)</title><rect x="1092.7" y="275.0" width="12.1" height="15" fill="#e96565" rx="2" ry="2"/>
<text x="1095.7" y="286.0"></text>
</g>
<g>
<title>Profiler::run(Arguments&amp;) (1 samples, 1.03%)</title><rect x="1092.7" y="259.0" width="12.1" height="15" fill="#c8c83c" rx="2" ry="2"/>
<text x="1095.7" y="270.0"></text>
</g>
<g>
<title>Profiler::runInternal(Arguments&amp;, std::__1::basic_ostream&lt;char, std::__1::char_traits&lt;char&gt; &gt;&amp;) (1 samples, 1.03%)</title><rect x="1092.7" y="243.0" width="12.1" height="15" fill="#e2e244" rx="2" ry="2"/>
<text x="1095.7" y="254.0"></text>
</g>
<g>
<title>Profiler::start(Arguments&amp;, bool) (1 samples, 1.03%)</title><rect x="1092.7" y="227.0" width="12.1" height="15" fill="#e0e044" rx="2" ry="2"/>
<text x="1095.7" y="238.0"></text>
</g>
<g>
<title>Profiler::bindNativeLibraryLoad(JNIEnv_*, unsigned char (*)(JNIEnv_*, _jobject*, _jstring*, unsigned char)) (1 samples, 1.03%)</title><rect x="1092.7" y="211.0" width="12.1" height="15" fill="#cfcf3e" rx="2" ry="2"/>
<text x="1095.7" y="222.0"></text>
</g>
<g>
<title>jni_FindClass (1 samples, 1.03%)</title><rect x="1092.7" y="195.0" width="12.1" height="15" fill="#fb7d7d" rx="2" ry="2"/>
<text x="1095.7" y="206.0"></text>
</g>
<g>
<title>SymbolTable::lookup(char const*, int, Thread*) (1 samples, 1.03%)</title><rect x="1092.7" y="179.0" width="12.1" height="15" fill="#e0e044" rx="2" ry="2"/>
<text x="1095.7" y="190.0"></text>
</g>
<g>
<title>SymbolTable::lookup(int, char const*, int, unsigned int) (1 samples, 1.03%)</title><rect x="1092.7" y="163.0" width="12.1" height="15" fill="#dcdc42" rx="2" ry="2"/>
<text x="1095.7" y="174.0"></text>
</g>
<g>
<title>SymbolTable::lookup_dynamic(int, char const*, int, unsigned int) (1 samples, 1.03%)</title><rect x="1092.7" y="147.0" width="12.1" height="15" fill="#e1e144" rx="2" ry="2"/>
<text x="1095.7" y="158.0"></text>
</g>
<g>
<title>VMThread::run() (2 samples, 2.06%)</title><rect x="1104.8" y="355.0" width="24.4" height="15" fill="#cccc3d" rx="2" ry="2"/>
<text x="1107.8" y="366.0">V..</text>
</g>
<g>
<title>VMThread::loop() (2 samples, 2.06%)</title><rect x="1104.8" y="339.0" width="24.4" height="15" fill="#dbdb42" rx="2" ry="2"/>
<text x="1107.8" y="350.0">V..</text>
</g>
<g>
<title>SafepointSynchronize::begin() (2 samples, 2.06%)</title><rect x="1104.8" y="323.0" width="24.4" height="15" fill="#d3d33f" rx="2" ry="2"/>
<text x="1107.8" y="334.0">S..</text>
</g>
<g>
<title>SafepointSynchronize::do_cleanup_tasks() (2 samples, 2.06%)</title><rect x="1104.8" y="307.0" width="24.4" height="15" fill="#cccc3d" rx="2" ry="2"/>
<text x="1107.8" y="318.0">S..</text>
</g>
<g>
<title>WorkGang::run_task(AbstractGangTask*, unsigned int) (2 samples, 2.06%)</title><rect x="1104.8" y="291.0" width="24.4" height="15" fill="#d6d640" rx="2" ry="2"/>
<text x="1107.8" y="302.0">W..</text>
</g>
<g>
<title>SemaphoreGangTaskDispatcher::coordinator_execute_on_workers(AbstractGangTask*, unsigned int) (2 samples, 2.06%)</title><rect x="1104.8" y="275.0" width="24.4" height="15" fill="#c8c83c" rx="2" ry="2"/>
<text x="1107.8" y="286.0">S..</text>
</g>
<g>
<title>__block_descriptor_tmp (1 samples, 1.03%)</title><rect x="1104.8" y="259.0" width="12.2" height="15" fill="#f17070" rx="2" ry="2"/>
<text x="1107.8" y="270.0"></text>
</g>
<g>
<title>_block_invoke.modules (1 samples, 1.03%)</title><rect x="1117.0" y="259.0" width="12.2" height="15" fill="#e45f5f" rx="2" ry="2"/>
<text x="1120.0" y="270.0"></text>
</g>
<g>
<title>WatcherThread::run() (5 samples, 5.15%)</title><rect x="1129.2" y="355.0" width="60.8" height="15" fill="#dcdc42" rx="2" ry="2"/>
<text x="1132.2" y="366.0">Watche..</text>
</g>
<g>
<title>WatcherThread::sleep() const (5 samples, 5.15%)</title><rect x="1129.2" y="339.0" width="60.8" height="15" fill="#e5e545" rx="2" ry="2"/>
<text x="1132.2" y="350.0">Watche..</text>
</g>
<g>
<title>Monitor::wait(bool, long, bool) (5 samples, 5.15%)</title><rect x="1129.2" y="323.0" width="60.8" height="15" fill="#cece3e" rx="2" ry="2"/>
<text x="1132.2" y="334.0">Monito..</text>
</g>
<g>
<title>Monitor::IWait(Thread*, long) (5 samples, 5.15%)</title><rect x="1129.2" y="307.0" width="60.8" height="15" fill="#caca3c" rx="2" ry="2"/>
<text x="1132.2" y="318.0">Monito..</text>
</g>
<g>
<title>os::PlatformEvent::park(long) (5 samples, 5.15%)</title><rect x="1129.2" y="291.0" width="60.8" height="15" fill="#d6d640" rx="2" ry="2"/>
<text x="1132.2" y="302.0">os::Pl..</text>
</g>
<g>
<title>__gettimeofday (1 samples, 1.03%)</title><rect x="1129.2" y="275.0" width="12.1" height="15" fill="#f77878" rx="2" ry="2"/>
<text x="1132.2" y="286.0"></text>
</g>
<g>
<title>__psynch_cvwait (4 samples, 4.12%)</title><rect x="1141.3" y="275.0" width="48.7" height="15" fill="#f37272" rx="2" ry="2"/>
<text x="1144.3" y="286.0">__ps..</text>
</g>
</g>
</svg>
