<?xml version="1.0" standalone="no"?>
<!DOCTYPE svg PUBLIC "-//W3C//DTD SVG 1.1//EN" "http://www.w3.org/Graphics/SVG/1.1/DTD/svg11.dtd">
<svg version="1.1" width="1200" height="406" onload="init(evt)" viewBox="0 0 1200 406" xmlns="http://www.w3.org/2000/svg" xmlns:xlink="http://www.w3.org/1999/xlink">
<style type="text/css">
	text { font-family:Verdana; font-size:12px; fill:rgb(0,0,0); }
	#search { opacity:0.1; cursor:pointer; }
	#search:hover, #search.show { opacity:1; }
	#subtitle { text-anchor:middle; font-color:rgb(160,160,160); }
	#title { text-anchor:middle; font-size:17px}
	#unzoom { cursor:pointer; }
	#frames > *:hover { stroke:black; stroke-width:0.5; cursor:pointer; }
	.hide { display:none; }
	.parent { opacity:0.5; }
</style>
<script type="text/ecmascript">
<![CDATA[
	"use strict";
	var details, searchbtn, unzoombtn, matchedtxt, svg, searching;
	function init(evt) {
		details = document.getElementById("details").firstChild;
		searchbtn = document.getElementById("search");
		unzoombtn = document.getElementById("unzoom");
		matchedtxt = document.getElementById("matched");
		svg = document.getElementsByTagName("svg")[0];
		searching = 0;
	}

	window.addEventListener("click", function(e) {
		var target = find_group(e.target);
		if (target) {
			if (target.nodeName == "a") {
				if (e.ctrlKey === false) return;
				e.preventDefault();
			}
			if (target.classList.contains("parent")) unzoom();
			zoom(target);
		}
		else if (e.target.id == "unzoom") unzoom();
		else if (e.target.id == "search") search_prompt();
	}, false)

	// mouse-over for info
	// show
	window.addEventListener("mouseover", function(e) {
		var target = find_group(e.target);
		if (target) details.nodeValue = "Function: " + g_to_text(target);
	}, false)

	// clear
	window.addEventListener("mouseout", function(e) {
		var target = find_group(e.target);
		if (target) details.nodeValue = ' ';
	}, false)

	// ctrl-F for search
	window.addEventListener("keydown",function (e) {
		if (e.keyCode === 114 || (e.ctrlKey && e.keyCode === 70)) {
			e.preventDefault();
			search_prompt();
		}
	}, false)

	// functions
	function find_child(node, selector) {
		var children = node.querySelectorAll(selector);
		if (children.length) return children[0];
		return;
	}
	function find_group(node) {
		var parent = node.parentElement;
		if (!parent) return;
		if (parent.id == "frames") return node;
		return find_group(parent);
	}
	function orig_save(e, attr, val) {
		if (e.attributes["_orig_" + attr] != undefined) return;
		if (e.attributes[attr] == undefined) return;
		if (val == undefined) val = e.attributes[attr].value;
		e.setAttribute("_orig_" + attr, val);
	}
	function orig_load(e, attr) {
		if (e.attributes["_orig_"+attr] == undefined) return;
		e.attributes[attr].value = e.attributes["_orig_" + attr].value;
		e.removeAttribute("_orig_"+attr);
	}
	function g_to_text(e) {
		var text = find_child(e, "title").firstChild.nodeValue;
		return (text)
	}
	function g_to_func(e) {
		var func = g_to_text(e);
		// if there's any manipulation we want to do to the function
		// name before it's searched, do it here before returning.
		return (func);
	}
	function update_text(e) {
		var r = find_child(e, "rect");
		var t = find_child(e, "text");
		var w = parseFloat(r.attributes.width.value) -3;
		var txt = find_child(e, "title").textContent.replace(/\([^(]*\)$/,"");
		t.attributes.x.value = parseFloat(r.attributes.x.value) + 3;

		// Smaller than this size won't fit anything
		if (w < 2 * 12 * 0.59) {
			t.textContent = "";
			return;
		}

		t.textContent = txt;
		// Fit in full text width
		if (/^ *$/.test(txt) || t.getSubStringLength(0, txt.length) < w)
			return;

		for (var x = txt.length - 2; x > 0; x--) {
			if (t.getSubStringLength(0, x + 2) <= w) {
				t.textContent = txt.substring(0, x) + "..";
				return;
			}
		}
		t.textContent = "";
	}

	// zoom
	function zoom_reset(e) {
		if (e.attributes != undefined) {
			orig_load(e, "x");
			orig_load(e, "width");
		}
		if (e.childNodes == undefined) return;
		for (var i = 0, c = e.childNodes; i < c.length; i++) {
			zoom_reset(c[i]);
		}
	}
	function zoom_child(e, x, ratio) {
		if (e.attributes != undefined) {
			if (e.attributes.x != undefined) {
				orig_save(e, "x");
				e.attributes.x.value = (parseFloat(e.attributes.x.value) - x - 10) * ratio + 10;
				if (e.tagName == "text")
					e.attributes.x.value = find_child(e.parentNode, "rect[x]").attributes.x.value + 3;
			}
			if (e.attributes.width != undefined) {
				orig_save(e, "width");
				e.attributes.width.value = parseFloat(e.attributes.width.value) * ratio;
			}
		}

		if (e.childNodes == undefined) return;
		for (var i = 0, c = e.childNodes; i < c.length; i++) {
			zoom_child(c[i], x - 10, ratio);
		}
	}
	function zoom_parent(e) {
		if (e.attributes) {
			if (e.attributes.x != undefined) {
				orig_save(e, "x");
				e.attributes.x.value = 10;
			}
			if (e.attributes.width != undefined) {
				orig_save(e, "width");
				e.attributes.width.value = parseInt(svg.width.baseVal.value) - (10 * 2);
			}
		}
		if (e.childNodes == undefined) return;
		for (var i = 0, c = e.childNodes; i < c.length; i++) {
			zoom_parent(c[i]);
		}
	}
	function zoom(node) {
		var attr = find_child(node, "rect").attributes;
		var width = parseFloat(attr.width.value);
		var xmin = parseFloat(attr.x.value);
		var xmax = parseFloat(xmin + width);
		var ymin = parseFloat(attr.y.value);
		var ratio = (svg.width.baseVal.value - 2 * 10) / width;

		// XXX: Workaround for JavaScript float issues (fix me)
		var fudge = 0.0001;

		unzoombtn.classList.remove("hide");

		var el = document.getElementById("frames").children;
		for (var i = 0; i < el.length; i++) {
			var e = el[i];
			var a = find_child(e, "rect").attributes;
			var ex = parseFloat(a.x.value);
			var ew = parseFloat(a.width.value);
			var upstack;
			// Is it an ancestor
			if (0 == 0) {
				upstack = parseFloat(a.y.value) > ymin;
			} else {
				upstack = parseFloat(a.y.value) < ymin;
			}
			if (upstack) {
				// Direct ancestor
				if (ex <= xmin && (ex+ew+fudge) >= xmax) {
					e.classList.add("parent");
					zoom_parent(e);
					update_text(e);
				}
				// not in current path
				else
					e.classList.add("hide");
			}
			// Children maybe
			else {
				// no common path
				if (ex < xmin || ex + fudge >= xmax) {
					e.classList.add("hide");
				}
				else {
					zoom_child(e, xmin, ratio);
					update_text(e);
				}
			}
		}
	}
	function unzoom() {
		unzoombtn.classList.add("hide");
		var el = document.getElementById("frames").children;
		for(var i = 0; i < el.length; i++) {
			el[i].classList.remove("parent");
			el[i].classList.remove("hide");
			zoom_reset(el[i]);
			update_text(el[i]);
		}
	}

	// search
	function reset_search() {
		var el = document.querySelectorAll("#frames rect");
		for (var i = 0; i < el.length; i++) {
			orig_load(el[i], "fill")
		}
	}
	function search_prompt() {
		if (!searching) {
			var term = prompt("Enter a search term (regexp " +
			    "allowed, eg: ^ext4_)", "");
			if (term != null) {
				search(term)
			}
		} else {
			reset_search();
			searching = 0;
			searchbtn.classList.remove("show");
			searchbtn.firstChild.nodeValue = "Search"
			matchedtxt.classList.add("hide");
			matchedtxt.firstChild.nodeValue = ""
		}
	}
	function search(term) {
		var re = new RegExp(term);
		var el = document.getElementById("frames").children;
		var matches = new Object();
		var maxwidth = 0;
		for (var i = 0; i < el.length; i++) {
			var e = el[i];
			var func = g_to_func(e);
			var rect = find_child(e, "rect");
			if (func == null || rect == null)
				continue;

			// Save max width. Only works as we have a root frame
			var w = parseFloat(rect.attributes.width.value);
			if (w > maxwidth)
				maxwidth = w;

			if (func.match(re)) {
				// highlight
				var x = parseFloat(rect.attributes.x.value);
				orig_save(rect, "fill");
				rect.attributes.fill.value = "rgb(230,0,230)";

				// remember matches
				if (matches[x] == undefined) {
					matches[x] = w;
				} else {
					if (w > matches[x]) {
						// overwrite with parent
						matches[x] = w;
					}
				}
				searching = 1;
			}
		}
		if (!searching)
			return;

		searchbtn.classList.add("show");
		searchbtn.firstChild.nodeValue = "Reset Search";

		// calculate percent matched, excluding vertical overlap
		var count = 0;
		var lastx = -1;
		var lastw = 0;
		var keys = Array();
		for (k in matches) {
			if (matches.hasOwnProperty(k))
				keys.push(k);
		}
		// sort the matched frames by their x location
		// ascending, then width descending
		keys.sort(function(a, b){
			return a - b;
		});
		// Step through frames saving only the biggest bottom-up frames
		// thanks to the sort order. This relies on the tree property
		// where children are always smaller than their parents.
		var fudge = 0.0001;	// JavaScript floating point
		for (var k in keys) {
			var x = parseFloat(keys[k]);
			var w = matches[keys[k]];
			if (x >= lastx + lastw - fudge) {
				count += w;
				lastx = x;
				lastw = w;
			}
		}
		// display matched percent
		matchedtxt.classList.remove("hide");
		var pct = 100 * count / maxwidth;
		if (pct != 100) pct = pct.toFixed(1)
		matchedtxt.firstChild.nodeValue = "Matched: " + pct + "%";
	}
]]>
</script>
<rect x="0" y="0" width="100%" height="100%" fill="rgb(240,240,220)"/>
<text id="title" x="600" y="24">Flame Graph</text>
<text id="details" x="10" y="389"> </text>
<text id="unzoom" x="10" y="24" class="hide">Reset Zoom</text>
<text id="search" x="1090" y="24">Search</text>
<text id="matched" x="1090" y="389"> </text>
<g id="frames">
<g>
<title>all (290 samples, 100.00%)</title><rect x="10.0" y="355.0" width="1180.0" height="15" fill="#fa7b7b" rx="2" ry="2"/>
<text x="13.0" y="366.0">all</text>
</g>
<g>
<title>one/nio/server/SelectorThread.run (284 samples, 97.93%)</title><rect x="10.0" y="339.0" width="1155.6" height="15" fill="#68f968" rx="2" ry="2"/>
<text x="13.0" y="350.0">one/nio/server/SelectorThread.run</text>
</g>
<g>
<title>one/nio/net/JavaSelector.select (138 samples, 47.59%)</title><rect x="10.0" y="323.0" width="561.5" height="15" fill="#6afb6a" rx="2" ry="2"/>
<text x="13.0" y="334.0">one/nio/net/JavaSelector.select</text>
</g>
<g>
<title>__cxx_global_var_init.4 (1 samples, 0.34%)</title><rect x="14.1" y="307.0" width="4.0" height="15" fill="#f27171" rx="2" ry="2"/>
<text x="17.1" y="318.0"></text>
</g>
<g>
<title>one/nio/net/JavaSelector.iteratorFor (2 samples, 0.69%)</title><rect x="18.1" y="307.0" width="8.2" height="15" fill="#59ea59" rx="2" ry="2"/>
<text x="21.1" y="318.0"></text>
</g>
<g>
<title>one/nio/net/JavaSelector.registerPendingSessions (1 samples, 0.34%)</title><rect x="26.3" y="307.0" width="4.0" height="15" fill="#5aeb5a" rx="2" ry="2"/>
<text x="29.3" y="318.0"></text>
</g>
<g>
<title>java/util/concurrent/ConcurrentLinkedQueue.poll (1 samples, 0.34%)</title><rect x="26.3" y="291.0" width="4.0" height="15" fill="#67f867" rx="2" ry="2"/>
<text x="29.3" y="302.0"></text>
</g>
<g>
<title>sun/nio/ch/SelectorImpl.select (132 samples, 45.52%)</title><rect x="30.3" y="307.0" width="537.1" height="15" fill="#56e756" rx="2" ry="2"/>
<text x="33.3" y="318.0">sun/nio/ch/SelectorImpl.select</text>
</g>
<g>
<title>sun/nio/ch/SelectorImpl.lockAndDoSelect (131 samples, 45.17%)</title><rect x="34.4" y="291.0" width="533.0" height="15" fill="#63f463" rx="2" ry="2"/>
<text x="37.4" y="302.0">sun/nio/ch/SelectorImpl.lockAndDoSelect</text>
</g>
<g>
<title>sun/nio/ch/KQueueSelectorImpl.doSelect (131 samples, 45.17%)</title><rect x="34.4" y="275.0" width="533.0" height="15" fill="#56e756" rx="2" ry="2"/>
<text x="37.4" y="286.0">sun/nio/ch/KQueueSelectorImpl.doSelect</text>
</g>
<g>
<title>sun/nio/ch/KQueue.poll (113 samples, 38.97%)</title><rect x="34.4" y="259.0" width="459.8" height="15" fill="#6dfe6d" rx="2" ry="2"/>
<text x="37.4" y="270.0">sun/nio/ch/KQueue.poll</text>
</g>
<g>
<title>JNI_OnLoad (1 samples, 0.34%)</title><rect x="75.1" y="243.0" width="4.1" height="15" fill="#ea6666" rx="2" ry="2"/>
<text x="78.1" y="254.0"></text>
</g>
<g>
<title>Java_sun_nio_ch_KQueue_poll (2 samples, 0.69%)</title><rect x="79.2" y="243.0" width="8.1" height="15" fill="#e86363" rx="2" ry="2"/>
<text x="82.2" y="254.0"></text>
</g>
<g>
<title>kevent (100 samples, 34.48%)</title><rect x="87.3" y="243.0" width="406.9" height="15" fill="#ec6969" rx="2" ry="2"/>
<text x="90.3" y="254.0">kevent</text>
</g>
<g>
<title>sun/nio/ch/KQueueSelectorImpl.processEvents (10 samples, 3.45%)</title><rect x="494.2" y="259.0" width="40.7" height="15" fill="#50e150" rx="2" ry="2"/>
<text x="497.2" y="270.0">sun..</text>
</g>
<g>
<title>java/util/HashMap.get (5 samples, 1.72%)</title><rect x="494.2" y="243.0" width="20.4" height="15" fill="#68f968" rx="2" ry="2"/>
<text x="497.2" y="254.0"></text>
</g>
<g>
<title>java/util/HashMap.getNode (4 samples, 1.38%)</title><rect x="494.2" y="227.0" width="16.3" height="15" fill="#67f867" rx="2" ry="2"/>
<text x="497.2" y="238.0"></text>
</g>
<g>
<title>java/util/HashMap.hash (1 samples, 0.34%)</title><rect x="510.5" y="227.0" width="4.1" height="15" fill="#50e150" rx="2" ry="2"/>
<text x="513.5" y="238.0"></text>
</g>
<g>
<title>sun/nio/ch/SelectorImpl.processReadyEvents (5 samples, 1.72%)</title><rect x="514.6" y="243.0" width="20.3" height="15" fill="#59ea59" rx="2" ry="2"/>
<text x="517.6" y="254.0"></text>
</g>
<g>
<title>java/util/HashSet.add (5 samples, 1.72%)</title><rect x="514.6" y="227.0" width="20.3" height="15" fill="#64f564" rx="2" ry="2"/>
<text x="517.6" y="238.0"></text>
</g>
<g>
<title>java/util/HashMap.put (5 samples, 1.72%)</title><rect x="514.6" y="211.0" width="20.3" height="15" fill="#53e453" rx="2" ry="2"/>
<text x="517.6" y="222.0"></text>
</g>
<g>
<title>java/util/HashMap.putVal (5 samples, 1.72%)</title><rect x="514.6" y="195.0" width="20.3" height="15" fill="#59ea59" rx="2" ry="2"/>
<text x="517.6" y="206.0"></text>
</g>
<g>
<title>java/util/HashMap.afterNodeInsertion (1 samples, 0.34%)</title><rect x="514.6" y="179.0" width="4.0" height="15" fill="#62f362" rx="2" ry="2"/>
<text x="517.6" y="190.0"></text>
</g>
<g>
<title>java/util/HashMap.newNode (2 samples, 0.69%)</title><rect x="518.6" y="179.0" width="8.2" height="15" fill="#61f261" rx="2" ry="2"/>
<text x="521.6" y="190.0"></text>
</g>
<g>
<title>vtable stub (2 samples, 0.69%)</title><rect x="526.8" y="179.0" width="8.1" height="15" fill="#fe8181" rx="2" ry="2"/>
<text x="529.8" y="190.0"></text>
</g>
<g>
<title>sun/nio/ch/KQueueSelectorImpl.processUpdateQueue (1 samples, 0.34%)</title><rect x="534.9" y="259.0" width="4.1" height="15" fill="#59ea59" rx="2" ry="2"/>
<text x="537.9" y="270.0"></text>
</g>
<g>
<title>sun/nio/ch/SelectorImpl.begin (5 samples, 1.72%)</title><rect x="539.0" y="259.0" width="20.3" height="15" fill="#6bfc6b" rx="2" ry="2"/>
<text x="542.0" y="270.0"></text>
</g>
<g>
<title>java/nio/channels/spi/AbstractSelector.begin (5 samples, 1.72%)</title><rect x="539.0" y="243.0" width="20.3" height="15" fill="#5eef5e" rx="2" ry="2"/>
<text x="542.0" y="254.0"></text>
</g>
<g>
<title>java/lang/Thread.isInterrupted (1 samples, 0.34%)</title><rect x="539.0" y="227.0" width="4.0" height="15" fill="#53e453" rx="2" ry="2"/>
<text x="542.0" y="238.0"></text>
</g>
<g>
<title>java/nio/channels/spi/AbstractInterruptibleChannel.blockedOn (3 samples, 1.03%)</title><rect x="543.0" y="227.0" width="12.2" height="15" fill="#6cfd6c" rx="2" ry="2"/>
<text x="546.0" y="238.0"></text>
</g>
<g>
<title>java/lang/System$2.blockedOn (3 samples, 1.03%)</title><rect x="543.0" y="211.0" width="12.2" height="15" fill="#65f665" rx="2" ry="2"/>
<text x="546.0" y="222.0"></text>
</g>
<g>
<title>java/lang/Thread.blockedOn (3 samples, 1.03%)</title><rect x="543.0" y="195.0" width="12.2" height="15" fill="#6afb6a" rx="2" ry="2"/>
<text x="546.0" y="206.0"></text>
</g>
<g>
<title>sun/nio/ch/SelectorImpl.processDeregisterQueue (1 samples, 0.34%)</title><rect x="555.2" y="227.0" width="4.1" height="15" fill="#61f261" rx="2" ry="2"/>
<text x="558.2" y="238.0"></text>
</g>
<g>
<title>sun/nio/ch/SelectorImpl.end (1 samples, 0.34%)</title><rect x="559.3" y="259.0" width="4.1" height="15" fill="#54e554" rx="2" ry="2"/>
<text x="562.3" y="270.0"></text>
</g>
<g>
<title>java/nio/channels/spi/AbstractSelector.end (1 samples, 0.34%)</title><rect x="559.3" y="243.0" width="4.1" height="15" fill="#69fa69" rx="2" ry="2"/>
<text x="562.3" y="254.0"></text>
</g>
<g>
<title>java/nio/channels/spi/AbstractInterruptibleChannel.blockedOn (1 samples, 0.34%)</title><rect x="559.3" y="227.0" width="4.1" height="15" fill="#54e554" rx="2" ry="2"/>
<text x="562.3" y="238.0"></text>
</g>
<g>
<title>java/lang/System$2.blockedOn (1 samples, 0.34%)</title><rect x="559.3" y="211.0" width="4.1" height="15" fill="#5dee5d" rx="2" ry="2"/>
<text x="562.3" y="222.0"></text>
</g>
<g>
<title>java/lang/Thread.blockedOn (1 samples, 0.34%)</title><rect x="559.3" y="195.0" width="4.1" height="15" fill="#5aeb5a" rx="2" ry="2"/>
<text x="562.3" y="206.0"></text>
</g>
<g>
<title>sun/nio/ch/SelectorImpl.processDeregisterQueue (1 samples, 0.34%)</title><rect x="563.4" y="259.0" width="4.0" height="15" fill="#54e554" rx="2" ry="2"/>
<text x="566.4" y="270.0"></text>
</g>
<g>
<title>sun/nio/ch/Util$2.clear (1 samples, 0.34%)</title><rect x="567.4" y="307.0" width="4.1" height="15" fill="#50e150" rx="2" ry="2"/>
<text x="570.4" y="318.0"></text>
</g>
<g>
<title>java/util/HashSet.clear (1 samples, 0.34%)</title><rect x="567.4" y="291.0" width="4.1" height="15" fill="#53e453" rx="2" ry="2"/>
<text x="570.4" y="302.0"></text>
</g>
<g>
<title>java/util/HashMap.clear (1 samples, 0.34%)</title><rect x="567.4" y="275.0" width="4.1" height="15" fill="#57e857" rx="2" ry="2"/>
<text x="570.4" y="286.0"></text>
</g>
<g>
<title>one/nio/net/JavaSelector.iteratorFor (1 samples, 0.34%)</title><rect x="567.4" y="259.0" width="4.1" height="15" fill="#65f665" rx="2" ry="2"/>
<text x="570.4" y="270.0"></text>
</g>
<g>
<title>one/nio/net/Session.process (146 samples, 50.34%)</title><rect x="571.5" y="323.0" width="594.1" height="15" fill="#66f766" rx="2" ry="2"/>
<text x="574.5" y="334.0">one/nio/net/Session.process</text>
</g>
<g>
<title>one/nio/http/HttpSession.processRead (145 samples, 50.00%)</title><rect x="575.6" y="307.0" width="590.0" height="15" fill="#56e756" rx="2" ry="2"/>
<text x="578.6" y="318.0">one/nio/http/HttpSession.processRead</text>
</g>
<g>
<title>one/nio/http/HttpSession.processHttpBuffer (111 samples, 38.28%)</title><rect x="575.6" y="291.0" width="451.6" height="15" fill="#5bec5b" rx="2" ry="2"/>
<text x="578.6" y="302.0">one/nio/http/HttpSession.processHttpBuffer</text>
</g>
<g>
<title>one/nio/http/HttpSession.handleParsedRequest (103 samples, 35.52%)</title><rect x="579.7" y="275.0" width="419.1" height="15" fill="#50e150" rx="2" ry="2"/>
<text x="582.7" y="286.0">one/nio/http/HttpSession.handleParsedRequest</text>
</g>
<g>
<title>one/nio/http/HttpServer.handleRequest (103 samples, 35.52%)</title><rect x="579.7" y="259.0" width="419.1" height="15" fill="#57e857" rx="2" ry="2"/>
<text x="582.7" y="270.0">one/nio/http/HttpServer.handleRequest</text>
</g>
<g>
<title>RequestHandler0_status.handleRequest (102 samples, 35.17%)</title><rect x="579.7" y="243.0" width="415.0" height="15" fill="#58e958" rx="2" ry="2"/>
<text x="582.7" y="254.0">RequestHandler0_status.handleRequest</text>
</g>
<g>
<title>one/nio/http/HttpSession.sendResponse (100 samples, 34.48%)</title><rect x="579.7" y="227.0" width="406.9" height="15" fill="#65f665" rx="2" ry="2"/>
<text x="582.7" y="238.0">one/nio/http/HttpSession.sendResponse</text>
</g>
<g>
<title>java/lang/String.equalsIgnoreCase (3 samples, 1.03%)</title><rect x="579.7" y="211.0" width="12.2" height="15" fill="#5aeb5a" rx="2" ry="2"/>
<text x="582.7" y="222.0"></text>
</g>
<g>
<title>java/lang/String.regionMatches (3 samples, 1.03%)</title><rect x="579.7" y="195.0" width="12.2" height="15" fill="#5ced5c" rx="2" ry="2"/>
<text x="582.7" y="206.0"></text>
</g>
<g>
<title>java/lang/StringLatin1.regionMatchesCI (3 samples, 1.03%)</title><rect x="579.7" y="179.0" width="12.2" height="15" fill="#5ff05f" rx="2" ry="2"/>
<text x="582.7" y="190.0"></text>
</g>
<g>
<title>one/nio/net/Session.write (1 samples, 0.34%)</title><rect x="587.8" y="163.0" width="4.1" height="15" fill="#53e453" rx="2" ry="2"/>
<text x="590.8" y="174.0"></text>
</g>
<g>
<title>one/nio/http/HttpSession.writeResponse (97 samples, 33.45%)</title><rect x="591.9" y="211.0" width="394.7" height="15" fill="#67f867" rx="2" ry="2"/>
<text x="594.9" y="222.0">one/nio/http/HttpSession.writeResponse</text>
</g>
<g>
<title>one/nio/http/Response.toBytes (9 samples, 3.10%)</title><rect x="591.9" y="195.0" width="36.6" height="15" fill="#51e251" rx="2" ry="2"/>
<text x="594.9" y="206.0">one..</text>
</g>
<g>
<title>one/nio/util/ByteArrayBuilder.append (5 samples, 1.72%)</title><rect x="608.1" y="179.0" width="20.4" height="15" fill="#52e352" rx="2" ry="2"/>
<text x="611.1" y="190.0"></text>
</g>
<g>
<title>one/nio/util/Utf8.length (5 samples, 1.72%)</title><rect x="608.1" y="163.0" width="20.4" height="15" fill="#55e655" rx="2" ry="2"/>
<text x="611.1" y="174.0"></text>
</g>
<g>
<title>java/lang/String.charAt (5 samples, 1.72%)</title><rect x="608.1" y="147.0" width="20.4" height="15" fill="#55e655" rx="2" ry="2"/>
<text x="611.1" y="158.0"></text>
</g>
<g>
<title>jbyte_arraycopy (1 samples, 0.34%)</title><rect x="624.4" y="131.0" width="4.1" height="15" fill="#f16f6f" rx="2" ry="2"/>
<text x="627.4" y="142.0"></text>
</g>
<g>
<title>one/nio/net/Session.write (88 samples, 30.34%)</title><rect x="628.5" y="195.0" width="358.1" height="15" fill="#6dfe6d" rx="2" ry="2"/>
<text x="631.5" y="206.0">one/nio/net/Session.write</text>
</g>
<g>
<title>one/nio/net/Session.write (87 samples, 30.00%)</title><rect x="632.6" y="179.0" width="354.0" height="15" fill="#68f968" rx="2" ry="2"/>
<text x="635.6" y="190.0">one/nio/net/Session.write</text>
</g>
<g>
<title>one/nio/net/Session$ArrayQueueItem.write (86 samples, 29.66%)</title><rect x="636.6" y="163.0" width="350.0" height="15" fill="#6bfc6b" rx="2" ry="2"/>
<text x="639.6" y="174.0">one/nio/net/Session$ArrayQueueItem.write</text>
</g>
<g>
<title>one/nio/net/JavaSocket.write (86 samples, 29.66%)</title><rect x="636.6" y="147.0" width="350.0" height="15" fill="#64f564" rx="2" ry="2"/>
<text x="639.6" y="158.0">one/nio/net/JavaSocket.write</text>
</g>
<g>
<title>java/nio/ByteBuffer.wrap (1 samples, 0.34%)</title><rect x="636.6" y="131.0" width="4.1" height="15" fill="#56e756" rx="2" ry="2"/>
<text x="639.6" y="142.0"></text>
</g>
<g>
<title>os::javaTimeMillis() (1 samples, 0.34%)</title><rect x="636.6" y="115.0" width="4.1" height="15" fill="#d4d440" rx="2" ry="2"/>
<text x="639.6" y="126.0"></text>
</g>
<g>
<title>rcmd_af.canonnamebuf (1 samples, 0.34%)</title><rect x="636.6" y="99.0" width="4.1" height="15" fill="#f17070" rx="2" ry="2"/>
<text x="639.6" y="110.0"></text>
</g>
<g>
<title>sun/nio/ch/SocketChannelImpl.write (85 samples, 29.31%)</title><rect x="640.7" y="131.0" width="345.9" height="15" fill="#55e655" rx="2" ry="2"/>
<text x="643.7" y="142.0">sun/nio/ch/SocketChannelImpl.write</text>
</g>
<g>
<title>sun/nio/ch/IOUtil.write (85 samples, 29.31%)</title><rect x="640.7" y="115.0" width="345.9" height="15" fill="#62f362" rx="2" ry="2"/>
<text x="643.7" y="126.0">sun/nio/ch/IOUtil.write</text>
</g>
<g>
<title>sun/nio/ch/IOUtil.write (84 samples, 28.97%)</title><rect x="644.8" y="99.0" width="341.8" height="15" fill="#69fa69" rx="2" ry="2"/>
<text x="647.8" y="110.0">sun/nio/ch/IOUtil.write</text>
</g>
<g>
<title>sun/nio/ch/IOUtil.writeFromNativeBuffer (81 samples, 27.93%)</title><rect x="644.8" y="83.0" width="329.5" height="15" fill="#65f665" rx="2" ry="2"/>
<text x="647.8" y="94.0">sun/nio/ch/IOUtil.writeFromNativeBuffer</text>
</g>
<g>
<title>sun/nio/ch/SocketDispatcher.write (81 samples, 27.93%)</title><rect x="644.8" y="67.0" width="329.5" height="15" fill="#69fa69" rx="2" ry="2"/>
<text x="647.8" y="78.0">sun/nio/ch/SocketDispatcher.write</text>
</g>
<g>
<title>jbyte_disjoint_arraycopy (1 samples, 0.34%)</title><rect x="652.9" y="51.0" width="4.1" height="15" fill="#e56060" rx="2" ry="2"/>
<text x="655.9" y="62.0"></text>
</g>
<g>
<title>sun/nio/ch/FileDispatcherImpl.write0 (77 samples, 26.55%)</title><rect x="657.0" y="51.0" width="313.3" height="15" fill="#5ced5c" rx="2" ry="2"/>
<text x="660.0" y="62.0">sun/nio/ch/FileDispatcherImpl.write0</text>
</g>
<g>
<title>Java_sun_nio_ch_FileDispatcherImpl_write0 (1 samples, 0.34%)</title><rect x="669.2" y="35.0" width="4.0" height="15" fill="#f27171" rx="2" ry="2"/>
<text x="672.2" y="46.0"></text>
</g>
<g>
<title>write (73 samples, 25.17%)</title><rect x="673.2" y="35.0" width="297.1" height="15" fill="#f67676" rx="2" ry="2"/>
<text x="676.2" y="46.0">write</text>
</g>
<g>
<title>unsafe_arraycopy (1 samples, 0.34%)</title><rect x="970.3" y="51.0" width="4.0" height="15" fill="#e96464" rx="2" ry="2"/>
<text x="973.3" y="62.0"></text>
</g>
<g>
<title>sun/nio/ch/Util.getTemporaryDirectBuffer (3 samples, 1.03%)</title><rect x="974.3" y="83.0" width="12.3" height="15" fill="#65f665" rx="2" ry="2"/>
<text x="977.3" y="94.0"></text>
</g>
<g>
<title>java/lang/ThreadLocal.get (3 samples, 1.03%)</title><rect x="974.3" y="67.0" width="12.3" height="15" fill="#6afb6a" rx="2" ry="2"/>
<text x="977.3" y="78.0"></text>
</g>
<g>
<title>java/lang/ThreadLocal$ThreadLocalMap.getEntry (3 samples, 1.03%)</title><rect x="974.3" y="51.0" width="12.3" height="15" fill="#65f665" rx="2" ry="2"/>
<text x="977.3" y="62.0"></text>
</g>
<g>
<title>sun/nio/ch/FileDispatcherImpl.write0 (1 samples, 0.34%)</title><rect x="982.5" y="35.0" width="4.1" height="15" fill="#5eef5e" rx="2" ry="2"/>
<text x="985.5" y="46.0"></text>
</g>
<g>
<title>ru/mail/polis/service/kuzoliza/MyService.status (2 samples, 0.69%)</title><rect x="986.6" y="227.0" width="8.1" height="15" fill="#63f463" rx="2" ry="2"/>
<text x="989.6" y="238.0"></text>
</g>
<g>
<title>one/nio/http/Response.ok (2 samples, 0.69%)</title><rect x="986.6" y="211.0" width="8.1" height="15" fill="#66f766" rx="2" ry="2"/>
<text x="989.6" y="222.0"></text>
</g>
<g>
<title>OptoRuntime::new_instance_C(Klass*, JavaThread*) (1 samples, 0.34%)</title><rect x="986.6" y="195.0" width="4.0" height="15" fill="#caca3c" rx="2" ry="2"/>
<text x="989.6" y="206.0"></text>
</g>
<g>
<title>InstanceKlass::allocate_instance(Thread*) (1 samples, 0.34%)</title><rect x="986.6" y="179.0" width="4.0" height="15" fill="#d9d941" rx="2" ry="2"/>
<text x="989.6" y="190.0"></text>
</g>
<g>
<title>CollectedHeap::obj_allocate(Klass*, int, Thread*) (1 samples, 0.34%)</title><rect x="986.6" y="163.0" width="4.0" height="15" fill="#cdcd3d" rx="2" ry="2"/>
<text x="989.6" y="174.0"></text>
</g>
<g>
<title>MemAllocator::allocate() const (1 samples, 0.34%)</title><rect x="986.6" y="147.0" width="4.0" height="15" fill="#cdcd3d" rx="2" ry="2"/>
<text x="989.6" y="158.0"></text>
</g>
<g>
<title>MemAllocator::mem_allocate(MemAllocator::Allocation&amp;) const (1 samples, 0.34%)</title><rect x="986.6" y="131.0" width="4.0" height="15" fill="#c9c93c" rx="2" ry="2"/>
<text x="989.6" y="142.0"></text>
</g>
<g>
<title>MemAllocator::allocate_inside_tlab_slow(MemAllocator::Allocation&amp;) const (1 samples, 0.34%)</title><rect x="986.6" y="115.0" width="4.0" height="15" fill="#d7d741" rx="2" ry="2"/>
<text x="989.6" y="126.0"></text>
</g>
<g>
<title>G1Allocator::unsafe_max_tlab_alloc() (1 samples, 0.34%)</title><rect x="986.6" y="99.0" width="4.0" height="15" fill="#e0e044" rx="2" ry="2"/>
<text x="989.6" y="110.0"></text>
</g>
<g>
<title>java/lang/String.getBytes (1 samples, 0.34%)</title><rect x="990.6" y="195.0" width="4.1" height="15" fill="#57e857" rx="2" ry="2"/>
<text x="993.6" y="206.0"></text>
</g>
<g>
<title>java/lang/StringCoding.encode (1 samples, 0.34%)</title><rect x="990.6" y="179.0" width="4.1" height="15" fill="#67f867" rx="2" ry="2"/>
<text x="993.6" y="190.0"></text>
</g>
<g>
<title>java/lang/StringCoding.encodeUTF8 (1 samples, 0.34%)</title><rect x="990.6" y="163.0" width="4.1" height="15" fill="#53e453" rx="2" ry="2"/>
<text x="993.6" y="174.0"></text>
</g>
<g>
<title>java/util/Arrays.copyOf (1 samples, 0.34%)</title><rect x="990.6" y="147.0" width="4.1" height="15" fill="#64f564" rx="2" ry="2"/>
<text x="993.6" y="158.0"></text>
</g>
<g>
<title>one/nio/http/PathMapper.find (1 samples, 0.34%)</title><rect x="994.7" y="243.0" width="4.1" height="15" fill="#5bec5b" rx="2" ry="2"/>
<text x="997.7" y="254.0"></text>
</g>
<g>
<title>java/util/HashMap.get (1 samples, 0.34%)</title><rect x="994.7" y="227.0" width="4.1" height="15" fill="#6afb6a" rx="2" ry="2"/>
<text x="997.7" y="238.0"></text>
</g>
<g>
<title>java/util/HashMap.hash (1 samples, 0.34%)</title><rect x="994.7" y="211.0" width="4.1" height="15" fill="#57e857" rx="2" ry="2"/>
<text x="997.7" y="222.0"></text>
</g>
<g>
<title>java/lang/String.hashCode (1 samples, 0.34%)</title><rect x="994.7" y="195.0" width="4.1" height="15" fill="#51e251" rx="2" ry="2"/>
<text x="997.7" y="206.0"></text>
</g>
<g>
<title>java/lang/StringLatin1.hashCode (1 samples, 0.34%)</title><rect x="994.7" y="179.0" width="4.1" height="15" fill="#50e150" rx="2" ry="2"/>
<text x="997.7" y="190.0"></text>
</g>
<g>
<title>one/nio/http/HttpSession.parseRequest (1 samples, 0.34%)</title><rect x="998.8" y="275.0" width="4.0" height="15" fill="#51e251" rx="2" ry="2"/>
<text x="1001.8" y="286.0"></text>
</g>
<g>
<title>one/nio/util/Utf8.startsWith (1 samples, 0.34%)</title><rect x="998.8" y="259.0" width="4.0" height="15" fill="#5bec5b" rx="2" ry="2"/>
<text x="1001.8" y="270.0"></text>
</g>
<g>
<title>one/nio/http/HttpSession.startParsingRequestBody (2 samples, 0.69%)</title><rect x="1002.8" y="275.0" width="8.2" height="15" fill="#5ced5c" rx="2" ry="2"/>
<text x="1005.8" y="286.0"></text>
</g>
<g>
<title>java/lang/Integer.parseInt (2 samples, 0.69%)</title><rect x="1002.8" y="259.0" width="8.2" height="15" fill="#5ced5c" rx="2" ry="2"/>
<text x="1005.8" y="270.0"></text>
</g>
<g>
<title>java/lang/Integer.parseInt (2 samples, 0.69%)</title><rect x="1002.8" y="243.0" width="8.2" height="15" fill="#5eef5e" rx="2" ry="2"/>
<text x="1005.8" y="254.0"></text>
</g>
<g>
<title>one/nio/http/Request.getHeader (2 samples, 0.69%)</title><rect x="1011.0" y="275.0" width="8.1" height="15" fill="#61f261" rx="2" ry="2"/>
<text x="1014.0" y="286.0"></text>
</g>
<g>
<title>one/nio/util/Utf8.read (2 samples, 0.69%)</title><rect x="1019.1" y="275.0" width="8.1" height="15" fill="#56e756" rx="2" ry="2"/>
<text x="1022.1" y="286.0"></text>
</g>
<g>
<title>one/nio/util/Utf8.read (2 samples, 0.69%)</title><rect x="1019.1" y="259.0" width="8.1" height="15" fill="#57e857" rx="2" ry="2"/>
<text x="1022.1" y="270.0"></text>
</g>
<g>
<title>one/nio/net/Session.read (34 samples, 11.72%)</title><rect x="1027.2" y="291.0" width="138.4" height="15" fill="#6bfc6b" rx="2" ry="2"/>
<text x="1030.2" y="302.0">one/nio/net/Sessi..</text>
</g>
<g>
<title>one/nio/net/JavaSocket.read (34 samples, 11.72%)</title><rect x="1027.2" y="275.0" width="138.4" height="15" fill="#6afb6a" rx="2" ry="2"/>
<text x="1030.2" y="286.0">one/nio/net/JavaS..</text>
</g>
<g>
<title>sun/nio/ch/SocketChannelImpl.read (34 samples, 11.72%)</title><rect x="1027.2" y="259.0" width="138.4" height="15" fill="#56e756" rx="2" ry="2"/>
<text x="1030.2" y="270.0">sun/nio/ch/Socket..</text>
</g>
<g>
<title>os::javaTimeMillis() (1 samples, 0.34%)</title><rect x="1027.2" y="243.0" width="4.1" height="15" fill="#e0e044" rx="2" ry="2"/>
<text x="1030.2" y="254.0"></text>
</g>
<g>
<title>gettimeofday (1 samples, 0.34%)</title><rect x="1027.2" y="227.0" width="4.1" height="15" fill="#f37272" rx="2" ry="2"/>
<text x="1030.2" y="238.0"></text>
</g>
<g>
<title>rcmd_af.canonnamebuf (1 samples, 0.34%)</title><rect x="1027.2" y="211.0" width="4.1" height="15" fill="#fc7e7e" rx="2" ry="2"/>
<text x="1030.2" y="222.0"></text>
</g>
<g>
<title>_res (1 samples, 0.34%)</title><rect x="1027.2" y="195.0" width="4.1" height="15" fill="#eb6868" rx="2" ry="2"/>
<text x="1030.2" y="206.0"></text>
</g>
<g>
<title>sun/nio/ch/IOUtil.read (33 samples, 11.38%)</title><rect x="1031.3" y="243.0" width="134.3" height="15" fill="#50e150" rx="2" ry="2"/>
<text x="1034.3" y="254.0">sun/nio/ch/IOUtil..</text>
</g>
<g>
<title>sun/nio/ch/IOUtil.read (31 samples, 10.69%)</title><rect x="1039.4" y="227.0" width="126.2" height="15" fill="#6afb6a" rx="2" ry="2"/>
<text x="1042.4" y="238.0">sun/nio/ch/IOUti..</text>
</g>
<g>
<title>sun/nio/ch/IOUtil.readIntoNativeBuffer (23 samples, 7.93%)</title><rect x="1039.4" y="211.0" width="93.6" height="15" fill="#5eef5e" rx="2" ry="2"/>
<text x="1042.4" y="222.0">sun/nio/ch/..</text>
</g>
<g>
<title>sun/nio/ch/SocketDispatcher.read (23 samples, 7.93%)</title><rect x="1039.4" y="195.0" width="93.6" height="15" fill="#5dee5d" rx="2" ry="2"/>
<text x="1042.4" y="206.0">sun/nio/ch/..</text>
</g>
<g>
<title>sun/nio/ch/FileDispatcherImpl.read0 (20 samples, 6.90%)</title><rect x="1051.7" y="179.0" width="81.3" height="15" fill="#58e958" rx="2" ry="2"/>
<text x="1054.7" y="190.0">sun/nio/c..</text>
</g>
<g>
<title>read (20 samples, 6.90%)</title><rect x="1051.7" y="163.0" width="81.3" height="15" fill="#ed6a6a" rx="2" ry="2"/>
<text x="1054.7" y="174.0">read</text>
</g>
<g>
<title>sun/nio/ch/Util.getTemporaryDirectBuffer (8 samples, 2.76%)</title><rect x="1133.0" y="211.0" width="32.6" height="15" fill="#54e554" rx="2" ry="2"/>
<text x="1136.0" y="222.0">su..</text>
</g>
<g>
<title>java/lang/ThreadLocal.get (8 samples, 2.76%)</title><rect x="1133.0" y="195.0" width="32.6" height="15" fill="#6cfd6c" rx="2" ry="2"/>
<text x="1136.0" y="206.0">ja..</text>
</g>
<g>
<title>java/lang/ThreadLocal$ThreadLocalMap.getEntry (8 samples, 2.76%)</title><rect x="1133.0" y="179.0" width="32.6" height="15" fill="#59ea59" rx="2" ry="2"/>
<text x="1136.0" y="190.0">ja..</text>
</g>
<g>
<title>jbyte_disjoint_arraycopy (1 samples, 0.34%)</title><rect x="1161.5" y="163.0" width="4.1" height="15" fill="#e76262" rx="2" ry="2"/>
<text x="1164.5" y="174.0"></text>
</g>
<g>
<title>thread_start (6 samples, 2.07%)</title><rect x="1165.6" y="339.0" width="24.4" height="15" fill="#e86464" rx="2" ry="2"/>
<text x="1168.6" y="350.0">t..</text>
</g>
<g>
<title>_pthread_start (6 samples, 2.07%)</title><rect x="1165.6" y="323.0" width="24.4" height="15" fill="#e35d5d" rx="2" ry="2"/>
<text x="1168.6" y="334.0">_..</text>
</g>
<g>
<title>_pthread_body (6 samples, 2.07%)</title><rect x="1165.6" y="307.0" width="24.4" height="15" fill="#f06e6e" rx="2" ry="2"/>
<text x="1168.6" y="318.0">_..</text>
</g>
<g>
<title>thread_native_entry(Thread*) (6 samples, 2.07%)</title><rect x="1165.6" y="291.0" width="24.4" height="15" fill="#fe8181" rx="2" ry="2"/>
<text x="1168.6" y="302.0">t..</text>
</g>
<g>
<title>Thread::call_run() (6 samples, 2.07%)</title><rect x="1165.6" y="275.0" width="24.4" height="15" fill="#d4d440" rx="2" ry="2"/>
<text x="1168.6" y="286.0">T..</text>
</g>
<g>
<title>ConcurrentGCThread::run() (2 samples, 0.69%)</title><rect x="1165.6" y="259.0" width="8.1" height="15" fill="#dfdf43" rx="2" ry="2"/>
<text x="1168.6" y="270.0"></text>
</g>
<g>
<title>G1YoungRemSetSamplingThread::run_service() (2 samples, 0.69%)</title><rect x="1165.6" y="243.0" width="8.1" height="15" fill="#d9d941" rx="2" ry="2"/>
<text x="1168.6" y="254.0"></text>
</g>
<g>
<title>G1YoungRemSetSamplingThread::sleep_before_next_cycle() (2 samples, 0.69%)</title><rect x="1165.6" y="227.0" width="8.1" height="15" fill="#e4e445" rx="2" ry="2"/>
<text x="1168.6" y="238.0"></text>
</g>
<g>
<title>Monitor::wait(bool, long, bool) (2 samples, 0.69%)</title><rect x="1165.6" y="211.0" width="8.1" height="15" fill="#e0e044" rx="2" ry="2"/>
<text x="1168.6" y="222.0"></text>
</g>
<g>
<title>Monitor::IWait(Thread*, long) (2 samples, 0.69%)</title><rect x="1165.6" y="195.0" width="8.1" height="15" fill="#d1d13f" rx="2" ry="2"/>
<text x="1168.6" y="206.0"></text>
</g>
<g>
<title>os::PlatformEvent::park(long) (2 samples, 0.69%)</title><rect x="1165.6" y="179.0" width="8.1" height="15" fill="#dcdc42" rx="2" ry="2"/>
<text x="1168.6" y="190.0"></text>
</g>
<g>
<title>__psynch_cvwait (2 samples, 0.69%)</title><rect x="1165.6" y="163.0" width="8.1" height="15" fill="#e66060" rx="2" ry="2"/>
<text x="1168.6" y="174.0"></text>
</g>
<g>
<title>JavaThread::run() (1 samples, 0.34%)</title><rect x="1173.7" y="259.0" width="4.1" height="15" fill="#dddd43" rx="2" ry="2"/>
<text x="1176.7" y="270.0"></text>
</g>
<g>
<title>JavaThread::thread_main_inner() (1 samples, 0.34%)</title><rect x="1173.7" y="243.0" width="4.1" height="15" fill="#e4e445" rx="2" ry="2"/>
<text x="1176.7" y="254.0"></text>
</g>
<g>
<title>attach_listener_thread_entry(JavaThread*, Thread*) (1 samples, 0.34%)</title><rect x="1173.7" y="227.0" width="4.1" height="15" fill="#e35d5d" rx="2" ry="2"/>
<text x="1176.7" y="238.0"></text>
</g>
<g>
<title>load_agent(AttachOperation*, outputStream*) (1 samples, 0.34%)</title><rect x="1173.7" y="211.0" width="4.1" height="15" fill="#f47474" rx="2" ry="2"/>
<text x="1176.7" y="222.0"></text>
</g>
<g>
<title>JvmtiExport::load_agent_library(char const*, char const*, char const*, outputStream*) (1 samples, 0.34%)</title><rect x="1173.7" y="195.0" width="4.1" height="15" fill="#cdcd3d" rx="2" ry="2"/>
<text x="1176.7" y="206.0"></text>
</g>
<g>
<title>Agent_OnAttach (1 samples, 0.34%)</title><rect x="1173.7" y="179.0" width="4.1" height="15" fill="#f97a7a" rx="2" ry="2"/>
<text x="1176.7" y="190.0"></text>
</g>
<g>
<title>Profiler::run(Arguments&amp;) (1 samples, 0.34%)</title><rect x="1173.7" y="163.0" width="4.1" height="15" fill="#d5d540" rx="2" ry="2"/>
<text x="1176.7" y="174.0"></text>
</g>
<g>
<title>Profiler::runInternal(Arguments&amp;, std::__1::basic_ostream&lt;char, std::__1::char_traits&lt;char&gt; &gt;&amp;) (1 samples, 0.34%)</title><rect x="1173.7" y="147.0" width="4.1" height="15" fill="#d9d941" rx="2" ry="2"/>
<text x="1176.7" y="158.0"></text>
</g>
<g>
<title>std::__1::basic_ostream&lt;char, std::__1::char_traits&lt;char&gt; &gt;::flush() (1 samples, 0.34%)</title><rect x="1173.7" y="131.0" width="4.1" height="15" fill="#dddd43" rx="2" ry="2"/>
<text x="1176.7" y="142.0"></text>
</g>
<g>
<title>std::__1::basic_filebuf&lt;char, std::__1::char_traits&lt;char&gt; &gt;::sync() (1 samples, 0.34%)</title><rect x="1173.7" y="115.0" width="4.1" height="15" fill="#d9d941" rx="2" ry="2"/>
<text x="1176.7" y="126.0"></text>
</g>
<g>
<title>std::__1::basic_filebuf&lt;char, std::__1::char_traits&lt;char&gt; &gt;::overflow(int) (1 samples, 0.34%)</title><rect x="1173.7" y="99.0" width="4.1" height="15" fill="#d0d03e" rx="2" ry="2"/>
<text x="1176.7" y="110.0"></text>
</g>
<g>
<title>fwrite (1 samples, 0.34%)</title><rect x="1173.7" y="83.0" width="4.1" height="15" fill="#f97a7a" rx="2" ry="2"/>
<text x="1176.7" y="94.0"></text>
</g>
<g>
<title>pthread_mutex_lock (1 samples, 0.34%)</title><rect x="1173.7" y="67.0" width="4.1" height="15" fill="#e56060" rx="2" ry="2"/>
<text x="1176.7" y="78.0"></text>
</g>
<g>
<title>VMThread::run() (1 samples, 0.34%)</title><rect x="1177.8" y="259.0" width="4.1" height="15" fill="#e0e044" rx="2" ry="2"/>
<text x="1180.8" y="270.0"></text>
</g>
<g>
<title>VMThread::loop() (1 samples, 0.34%)</title><rect x="1177.8" y="243.0" width="4.1" height="15" fill="#e3e345" rx="2" ry="2"/>
<text x="1180.8" y="254.0"></text>
</g>
<g>
<title>SafepointSynchronize::begin() (1 samples, 0.34%)</title><rect x="1177.8" y="227.0" width="4.1" height="15" fill="#d9d941" rx="2" ry="2"/>
<text x="1180.8" y="238.0"></text>
</g>
<g>
<title>SafepointSynchronize::do_cleanup_tasks() (1 samples, 0.34%)</title><rect x="1177.8" y="211.0" width="4.1" height="15" fill="#d7d741" rx="2" ry="2"/>
<text x="1180.8" y="222.0"></text>
</g>
<g>
<title>WorkGang::run_task(AbstractGangTask*, unsigned int) (1 samples, 0.34%)</title><rect x="1177.8" y="195.0" width="4.1" height="15" fill="#c9c93c" rx="2" ry="2"/>
<text x="1180.8" y="206.0"></text>
</g>
<g>
<title>SemaphoreGangTaskDispatcher::coordinator_execute_on_workers(AbstractGangTask*, unsigned int) (1 samples, 0.34%)</title><rect x="1177.8" y="179.0" width="4.1" height="15" fill="#e1e144" rx="2" ry="2"/>
<text x="1180.8" y="190.0"></text>
</g>
<g>
<title>_block_invoke.modules (1 samples, 0.34%)</title><rect x="1177.8" y="163.0" width="4.1" height="15" fill="#ec6868" rx="2" ry="2"/>
<text x="1180.8" y="174.0"></text>
</g>
<g>
<title>WatcherThread::run() (2 samples, 0.69%)</title><rect x="1181.9" y="259.0" width="8.1" height="15" fill="#d4d440" rx="2" ry="2"/>
<text x="1184.9" y="270.0"></text>
</g>
<g>
<title>WatcherThread::sleep() const (2 samples, 0.69%)</title><rect x="1181.9" y="243.0" width="8.1" height="15" fill="#d6d640" rx="2" ry="2"/>
<text x="1184.9" y="254.0"></text>
</g>
<g>
<title>Monitor::wait(bool, long, bool) (2 samples, 0.69%)</title><rect x="1181.9" y="227.0" width="8.1" height="15" fill="#c9c93c" rx="2" ry="2"/>
<text x="1184.9" y="238.0"></text>
</g>
<g>
<title>Monitor::IWait(Thread*, long) (2 samples, 0.69%)</title><rect x="1181.9" y="211.0" width="8.1" height="15" fill="#cdcd3d" rx="2" ry="2"/>
<text x="1184.9" y="222.0"></text>
</g>
<g>
<title>os::PlatformEvent::park(long) (2 samples, 0.69%)</title><rect x="1181.9" y="195.0" width="8.1" height="15" fill="#dcdc42" rx="2" ry="2"/>
<text x="1184.9" y="206.0"></text>
</g>
<g>
<title>__psynch_cvwait (2 samples, 0.69%)</title><rect x="1181.9" y="179.0" width="8.1" height="15" fill="#f17070" rx="2" ry="2"/>
<text x="1184.9" y="190.0"></text>
</g>
</g>
</svg>
