<?xml version="1.0" standalone="no"?>
<!DOCTYPE svg PUBLIC "-//W3C//DTD SVG 1.1//EN" "http://www.w3.org/Graphics/SVG/1.1/DTD/svg11.dtd">
<svg version="1.1" width="1200" height="342" onload="init(evt)" viewBox="0 0 1200 342" xmlns="http://www.w3.org/2000/svg" xmlns:xlink="http://www.w3.org/1999/xlink">
<style type="text/css">
	text { font-family:Verdana; font-size:12px; fill:rgb(0,0,0); }
	#search { opacity:0.1; cursor:pointer; }
	#search:hover, #search.show { opacity:1; }
	#subtitle { text-anchor:middle; font-color:rgb(160,160,160); }
	#title { text-anchor:middle; font-size:17px}
	#unzoom { cursor:pointer; }
	#frames > *:hover { stroke:black; stroke-width:0.5; cursor:pointer; }
	.hide { display:none; }
	.parent { opacity:0.5; }
</style>
<script type="text/ecmascript">
<![CDATA[
	"use strict";
	var details, searchbtn, unzoombtn, matchedtxt, svg, searching;
	function init(evt) {
		details = document.getElementById("details").firstChild;
		searchbtn = document.getElementById("search");
		unzoombtn = document.getElementById("unzoom");
		matchedtxt = document.getElementById("matched");
		svg = document.getElementsByTagName("svg")[0];
		searching = 0;
	}

	window.addEventListener("click", function(e) {
		var target = find_group(e.target);
		if (target) {
			if (target.nodeName == "a") {
				if (e.ctrlKey === false) return;
				e.preventDefault();
			}
			if (target.classList.contains("parent")) unzoom();
			zoom(target);
		}
		else if (e.target.id == "unzoom") unzoom();
		else if (e.target.id == "search") search_prompt();
	}, false)

	// mouse-over for info
	// show
	window.addEventListener("mouseover", function(e) {
		var target = find_group(e.target);
		if (target) details.nodeValue = "Function: " + g_to_text(target);
	}, false)

	// clear
	window.addEventListener("mouseout", function(e) {
		var target = find_group(e.target);
		if (target) details.nodeValue = ' ';
	}, false)

	// ctrl-F for search
	window.addEventListener("keydown",function (e) {
		if (e.keyCode === 114 || (e.ctrlKey && e.keyCode === 70)) {
			e.preventDefault();
			search_prompt();
		}
	}, false)

	// functions
	function find_child(node, selector) {
		var children = node.querySelectorAll(selector);
		if (children.length) return children[0];
		return;
	}
	function find_group(node) {
		var parent = node.parentElement;
		if (!parent) return;
		if (parent.id == "frames") return node;
		return find_group(parent);
	}
	function orig_save(e, attr, val) {
		if (e.attributes["_orig_" + attr] != undefined) return;
		if (e.attributes[attr] == undefined) return;
		if (val == undefined) val = e.attributes[attr].value;
		e.setAttribute("_orig_" + attr, val);
	}
	function orig_load(e, attr) {
		if (e.attributes["_orig_"+attr] == undefined) return;
		e.attributes[attr].value = e.attributes["_orig_" + attr].value;
		e.removeAttribute("_orig_"+attr);
	}
	function g_to_text(e) {
		var text = find_child(e, "title").firstChild.nodeValue;
		return (text)
	}
	function g_to_func(e) {
		var func = g_to_text(e);
		// if there's any manipulation we want to do to the function
		// name before it's searched, do it here before returning.
		return (func);
	}
	function update_text(e) {
		var r = find_child(e, "rect");
		var t = find_child(e, "text");
		var w = parseFloat(r.attributes.width.value) -3;
		var txt = find_child(e, "title").textContent.replace(/\([^(]*\)$/,"");
		t.attributes.x.value = parseFloat(r.attributes.x.value) + 3;

		// Smaller than this size won't fit anything
		if (w < 2 * 12 * 0.59) {
			t.textContent = "";
			return;
		}

		t.textContent = txt;
		// Fit in full text width
		if (/^ *$/.test(txt) || t.getSubStringLength(0, txt.length) < w)
			return;

		for (var x = txt.length - 2; x > 0; x--) {
			if (t.getSubStringLength(0, x + 2) <= w) {
				t.textContent = txt.substring(0, x) + "..";
				return;
			}
		}
		t.textContent = "";
	}

	// zoom
	function zoom_reset(e) {
		if (e.attributes != undefined) {
			orig_load(e, "x");
			orig_load(e, "width");
		}
		if (e.childNodes == undefined) return;
		for (var i = 0, c = e.childNodes; i < c.length; i++) {
			zoom_reset(c[i]);
		}
	}
	function zoom_child(e, x, ratio) {
		if (e.attributes != undefined) {
			if (e.attributes.x != undefined) {
				orig_save(e, "x");
				e.attributes.x.value = (parseFloat(e.attributes.x.value) - x - 10) * ratio + 10;
				if (e.tagName == "text")
					e.attributes.x.value = find_child(e.parentNode, "rect[x]").attributes.x.value + 3;
			}
			if (e.attributes.width != undefined) {
				orig_save(e, "width");
				e.attributes.width.value = parseFloat(e.attributes.width.value) * ratio;
			}
		}

		if (e.childNodes == undefined) return;
		for (var i = 0, c = e.childNodes; i < c.length; i++) {
			zoom_child(c[i], x - 10, ratio);
		}
	}
	function zoom_parent(e) {
		if (e.attributes) {
			if (e.attributes.x != undefined) {
				orig_save(e, "x");
				e.attributes.x.value = 10;
			}
			if (e.attributes.width != undefined) {
				orig_save(e, "width");
				e.attributes.width.value = parseInt(svg.width.baseVal.value) - (10 * 2);
			}
		}
		if (e.childNodes == undefined) return;
		for (var i = 0, c = e.childNodes; i < c.length; i++) {
			zoom_parent(c[i]);
		}
	}
	function zoom(node) {
		var attr = find_child(node, "rect").attributes;
		var width = parseFloat(attr.width.value);
		var xmin = parseFloat(attr.x.value);
		var xmax = parseFloat(xmin + width);
		var ymin = parseFloat(attr.y.value);
		var ratio = (svg.width.baseVal.value - 2 * 10) / width;

		// XXX: Workaround for JavaScript float issues (fix me)
		var fudge = 0.0001;

		unzoombtn.classList.remove("hide");

		var el = document.getElementById("frames").children;
		for (var i = 0; i < el.length; i++) {
			var e = el[i];
			var a = find_child(e, "rect").attributes;
			var ex = parseFloat(a.x.value);
			var ew = parseFloat(a.width.value);
			var upstack;
			// Is it an ancestor
			if (0 == 0) {
				upstack = parseFloat(a.y.value) > ymin;
			} else {
				upstack = parseFloat(a.y.value) < ymin;
			}
			if (upstack) {
				// Direct ancestor
				if (ex <= xmin && (ex+ew+fudge) >= xmax) {
					e.classList.add("parent");
					zoom_parent(e);
					update_text(e);
				}
				// not in current path
				else
					e.classList.add("hide");
			}
			// Children maybe
			else {
				// no common path
				if (ex < xmin || ex + fudge >= xmax) {
					e.classList.add("hide");
				}
				else {
					zoom_child(e, xmin, ratio);
					update_text(e);
				}
			}
		}
	}
	function unzoom() {
		unzoombtn.classList.add("hide");
		var el = document.getElementById("frames").children;
		for(var i = 0; i < el.length; i++) {
			el[i].classList.remove("parent");
			el[i].classList.remove("hide");
			zoom_reset(el[i]);
			update_text(el[i]);
		}
	}

	// search
	function reset_search() {
		var el = document.querySelectorAll("#frames rect");
		for (var i = 0; i < el.length; i++) {
			orig_load(el[i], "fill")
		}
	}
	function search_prompt() {
		if (!searching) {
			var term = prompt("Enter a search term (regexp " +
			    "allowed, eg: ^ext4_)", "");
			if (term != null) {
				search(term)
			}
		} else {
			reset_search();
			searching = 0;
			searchbtn.classList.remove("show");
			searchbtn.firstChild.nodeValue = "Search"
			matchedtxt.classList.add("hide");
			matchedtxt.firstChild.nodeValue = ""
		}
	}
	function search(term) {
		var re = new RegExp(term);
		var el = document.getElementById("frames").children;
		var matches = new Object();
		var maxwidth = 0;
		for (var i = 0; i < el.length; i++) {
			var e = el[i];
			var func = g_to_func(e);
			var rect = find_child(e, "rect");
			if (func == null || rect == null)
				continue;

			// Save max width. Only works as we have a root frame
			var w = parseFloat(rect.attributes.width.value);
			if (w > maxwidth)
				maxwidth = w;

			if (func.match(re)) {
				// highlight
				var x = parseFloat(rect.attributes.x.value);
				orig_save(rect, "fill");
				rect.attributes.fill.value = "rgb(230,0,230)";

				// remember matches
				if (matches[x] == undefined) {
					matches[x] = w;
				} else {
					if (w > matches[x]) {
						// overwrite with parent
						matches[x] = w;
					}
				}
				searching = 1;
			}
		}
		if (!searching)
			return;

		searchbtn.classList.add("show");
		searchbtn.firstChild.nodeValue = "Reset Search";

		// calculate percent matched, excluding vertical overlap
		var count = 0;
		var lastx = -1;
		var lastw = 0;
		var keys = Array();
		for (k in matches) {
			if (matches.hasOwnProperty(k))
				keys.push(k);
		}
		// sort the matched frames by their x location
		// ascending, then width descending
		keys.sort(function(a, b){
			return a - b;
		});
		// Step through frames saving only the biggest bottom-up frames
		// thanks to the sort order. This relies on the tree property
		// where children are always smaller than their parents.
		var fudge = 0.0001;	// JavaScript floating point
		for (var k in keys) {
			var x = parseFloat(keys[k]);
			var w = matches[keys[k]];
			if (x >= lastx + lastw - fudge) {
				count += w;
				lastx = x;
				lastw = w;
			}
		}
		// display matched percent
		matchedtxt.classList.remove("hide");
		var pct = 100 * count / maxwidth;
		if (pct != 100) pct = pct.toFixed(1)
		matchedtxt.firstChild.nodeValue = "Matched: " + pct + "%";
	}
]]>
</script>
<rect x="0" y="0" width="100%" height="100%" fill="rgb(240,240,220)"/>
<text id="title" x="600" y="24">Flame Graph</text>
<text id="details" x="10" y="325"> </text>
<text id="unzoom" x="10" y="24" class="hide">Reset Zoom</text>
<text id="search" x="1090" y="24">Search</text>
<text id="matched" x="1090" y="325"> </text>
<g id="frames">
<g>
<title>all (269,135 samples, 100.00%)</title><rect x="10.0" y="291.0" width="1180.0" height="15" fill="#fa7b7b" rx="2" ry="2"/>
<text x="13.0" y="302.0">all</text>
</g>
<g>
<title>java/lang/Thread.run (175,318 samples, 65.14%)</title><rect x="10.0" y="275.0" width="768.7" height="15" fill="#5bec5b" rx="2" ry="2"/>
<text x="13.0" y="286.0">java/lang/Thread.run</text>
</g>
<g>
<title>java/util/concurrent/ThreadPoolExecutor$Worker.run (175,318 samples, 65.14%)</title><rect x="10.0" y="259.0" width="768.7" height="15" fill="#67f867" rx="2" ry="2"/>
<text x="13.0" y="270.0">java/util/concurrent/ThreadPoolExecutor$Worker.run</text>
</g>
<g>
<title>java/util/concurrent/ThreadPoolExecutor.runWorker (175,318 samples, 65.14%)</title><rect x="10.0" y="243.0" width="768.7" height="15" fill="#67f867" rx="2" ry="2"/>
<text x="13.0" y="254.0">java/util/concurrent/ThreadPoolExecutor.runWorker</text>
</g>
<g>
<title>java/util/concurrent/ThreadPoolExecutor.getTask (6,978 samples, 2.59%)</title><rect x="10.0" y="227.0" width="30.6" height="15" fill="#6bfc6b" rx="2" ry="2"/>
<text x="13.0" y="238.0">ja..</text>
</g>
<g>
<title>java/util/concurrent/ArrayBlockingQueue.take (6,978 samples, 2.59%)</title><rect x="10.0" y="211.0" width="30.6" height="15" fill="#55e655" rx="2" ry="2"/>
<text x="13.0" y="222.0">ja..</text>
</g>
<g>
<title>java/util/concurrent/locks/AbstractQueuedSynchronizer$ConditionObject.await (6,912 samples, 2.57%)</title><rect x="10.0" y="195.0" width="30.3" height="15" fill="#5aeb5a" rx="2" ry="2"/>
<text x="13.0" y="206.0">ja..</text>
</g>
<g>
<title>java/util/concurrent/locks/AbstractQueuedSynchronizer$ConditionObject.addConditionWaiter (6,912 samples, 2.57%)</title><rect x="10.0" y="179.0" width="30.3" height="15" fill="#67f867" rx="2" ry="2"/>
<text x="13.0" y="190.0">ja..</text>
</g>
<g>
<title>java.util.concurrent.locks.AbstractQueuedSynchronizer$Node (6,912 samples, 2.57%)</title><rect x="10.0" y="163.0" width="30.3" height="15" fill="#58c6c6" rx="2" ry="2"/>
<text x="13.0" y="174.0">ja..</text>
</g>
<g>
<title>java/util/concurrent/locks/ReentrantLock.lockInterruptibly (66 samples, 0.02%)</title><rect x="40.3" y="195.0" width="0.3" height="15" fill="#60f160" rx="2" ry="2"/>
<text x="43.3" y="206.0"></text>
</g>
<g>
<title>java/util/concurrent/locks/AbstractQueuedSynchronizer.acquireInterruptibly (66 samples, 0.02%)</title><rect x="40.3" y="179.0" width="0.3" height="15" fill="#5eef5e" rx="2" ry="2"/>
<text x="43.3" y="190.0"></text>
</g>
<g>
<title>java/util/concurrent/locks/AbstractQueuedSynchronizer.doAcquireInterruptibly (66 samples, 0.02%)</title><rect x="40.3" y="163.0" width="0.3" height="15" fill="#62f362" rx="2" ry="2"/>
<text x="43.3" y="174.0"></text>
</g>
<g>
<title>java/util/concurrent/locks/AbstractQueuedSynchronizer.addWaiter (66 samples, 0.02%)</title><rect x="40.3" y="147.0" width="0.3" height="15" fill="#5aeb5a" rx="2" ry="2"/>
<text x="43.3" y="158.0"></text>
</g>
<g>
<title>java.util.concurrent.locks.AbstractQueuedSynchronizer$Node (66 samples, 0.02%)</title><rect x="40.3" y="131.0" width="0.3" height="15" fill="#5fcdcd" rx="2" ry="2"/>
<text x="43.3" y="142.0"></text>
</g>
<g>
<title>ru/mail/polis/service/kovalkov/SharedAsyncServiceImpl$$Lambda$70/1453628131.run (91,024 samples, 33.82%)</title><rect x="40.6" y="227.0" width="399.1" height="15" fill="#6cfd6c" rx="2" ry="2"/>
<text x="43.6" y="238.0">ru/mail/polis/service/kovalkov/SharedAsyncServiceImpl$$..</text>
</g>
<g>
<title>ru/mail/polis/service/kovalkov/SharedAsyncServiceImpl.lambda$proxyForwarding$2 (91,024 samples, 33.82%)</title><rect x="40.6" y="211.0" width="399.1" height="15" fill="#6bfc6b" rx="2" ry="2"/>
<text x="43.6" y="222.0">ru/mail/polis/service/kovalkov/SharedAsyncServiceImpl.l..</text>
</g>
<g>
<title>one/nio/http/HttpSession.sendResponse (750 samples, 0.28%)</title><rect x="40.6" y="195.0" width="3.3" height="15" fill="#63f463" rx="2" ry="2"/>
<text x="43.6" y="206.0"></text>
</g>
<g>
<title>one/nio/http/HttpSession.writeResponse (750 samples, 0.28%)</title><rect x="40.6" y="179.0" width="3.3" height="15" fill="#65f665" rx="2" ry="2"/>
<text x="43.6" y="190.0"></text>
</g>
<g>
<title>one/nio/http/Response.toBytes (549 samples, 0.20%)</title><rect x="40.6" y="163.0" width="2.4" height="15" fill="#54e554" rx="2" ry="2"/>
<text x="43.6" y="174.0"></text>
</g>
<g>
<title>one/nio/util/ByteArrayBuilder.&lt;init&gt; (549 samples, 0.20%)</title><rect x="40.6" y="147.0" width="2.4" height="15" fill="#62f362" rx="2" ry="2"/>
<text x="43.6" y="158.0"></text>
</g>
<g>
<title>byte[] (549 samples, 0.20%)</title><rect x="40.6" y="131.0" width="2.4" height="15" fill="#50bebe" rx="2" ry="2"/>
<text x="43.6" y="142.0"></text>
</g>
<g>
<title>one/nio/net/Session.write (201 samples, 0.07%)</title><rect x="43.0" y="163.0" width="0.9" height="15" fill="#57e857" rx="2" ry="2"/>
<text x="46.0" y="174.0"></text>
</g>
<g>
<title>one.nio.net.Session$ArrayQueueItem (201 samples, 0.07%)</title><rect x="43.0" y="147.0" width="0.9" height="15" fill="#54c2c2" rx="2" ry="2"/>
<text x="46.0" y="158.0"></text>
</g>
<g>
<title>ru/mail/polis/service/kovalkov/SharedAsyncServiceImpl.proxy (90,274 samples, 33.54%)</title><rect x="43.9" y="195.0" width="395.8" height="15" fill="#68f968" rx="2" ry="2"/>
<text x="46.9" y="206.0">ru/mail/polis/service/kovalkov/SharedAsyncServiceImpl...</text>
</g>
<g>
<title>one/nio/http/HttpClient.invoke (90,274 samples, 33.54%)</title><rect x="43.9" y="179.0" width="395.8" height="15" fill="#54e554" rx="2" ry="2"/>
<text x="46.9" y="190.0">one/nio/http/HttpClient.invoke</text>
</g>
<g>
<title>one/nio/http/HttpClient.invoke (90,274 samples, 33.54%)</title><rect x="43.9" y="163.0" width="395.8" height="15" fill="#5ced5c" rx="2" ry="2"/>
<text x="46.9" y="174.0">one/nio/http/HttpClient.invoke</text>
</g>
<g>
<title>one.nio.http.HttpClient$ResponseReader (188 samples, 0.07%)</title><rect x="43.9" y="147.0" width="0.8" height="15" fill="#53c1c1" rx="2" ry="2"/>
<text x="46.9" y="158.0"></text>
</g>
<g>
<title>one/nio/http/HttpClient$ResponseReader.&lt;init&gt; (85,075 samples, 31.61%)</title><rect x="44.7" y="147.0" width="373.0" height="15" fill="#53e453" rx="2" ry="2"/>
<text x="47.7" y="158.0">one/nio/http/HttpClient$ResponseReader.&lt;init&gt;</text>
</g>
<g>
<title>byte[] (27,084 samples, 10.06%)</title><rect x="44.7" y="131.0" width="118.8" height="15" fill="#6ddbdb" rx="2" ry="2"/>
<text x="47.7" y="142.0">byte[]</text>
</g>
<g>
<title>byte[] (57,991 samples, 21.55%)</title><rect x="163.5" y="131.0" width="254.2" height="15" fill="#e78300" rx="2" ry="2"/>
<text x="166.5" y="142.0">byte[]</text>
</g>
<g>
<title>one/nio/http/HttpClient$ResponseReader.readResponse (4,107 samples, 1.53%)</title><rect x="417.7" y="147.0" width="18.0" height="15" fill="#5ff05f" rx="2" ry="2"/>
<text x="420.7" y="158.0"></text>
</g>
<g>
<title>byte[] (83 samples, 0.03%)</title><rect x="417.7" y="131.0" width="0.4" height="15" fill="#69d7d7" rx="2" ry="2"/>
<text x="420.7" y="142.0"></text>
</g>
<g>
<title>java/lang/String.substring (261 samples, 0.10%)</title><rect x="418.1" y="131.0" width="1.1" height="15" fill="#62f362" rx="2" ry="2"/>
<text x="421.1" y="142.0"></text>
</g>
<g>
<title>java/lang/StringLatin1.newString (261 samples, 0.10%)</title><rect x="418.1" y="115.0" width="1.1" height="15" fill="#58e958" rx="2" ry="2"/>
<text x="421.1" y="126.0"></text>
</g>
<g>
<title>java.lang.String (105 samples, 0.04%)</title><rect x="418.1" y="99.0" width="0.4" height="15" fill="#63d1d1" rx="2" ry="2"/>
<text x="421.1" y="110.0"></text>
</g>
<g>
<title>java/util/Arrays.copyOfRange (156 samples, 0.06%)</title><rect x="418.5" y="99.0" width="0.7" height="15" fill="#5ff05f" rx="2" ry="2"/>
<text x="421.5" y="110.0"></text>
</g>
<g>
<title>byte[] (156 samples, 0.06%)</title><rect x="418.5" y="83.0" width="0.7" height="15" fill="#5ecccc" rx="2" ry="2"/>
<text x="421.5" y="94.0"></text>
</g>
<g>
<title>one.nio.http.Response (98 samples, 0.04%)</title><rect x="419.2" y="131.0" width="0.5" height="15" fill="#6ddbdb" rx="2" ry="2"/>
<text x="422.2" y="142.0"></text>
</g>
<g>
<title>one/nio/http/HttpClient$ResponseReader.readLine (3,281 samples, 1.22%)</title><rect x="419.7" y="131.0" width="14.3" height="15" fill="#58e958" rx="2" ry="2"/>
<text x="422.7" y="142.0"></text>
</g>
<g>
<title>one/nio/util/Utf8.read (3,281 samples, 1.22%)</title><rect x="419.7" y="115.0" width="14.3" height="15" fill="#67f867" rx="2" ry="2"/>
<text x="422.7" y="126.0"></text>
</g>
<g>
<title>one/nio/util/Utf8.read (3,281 samples, 1.22%)</title><rect x="419.7" y="99.0" width="14.3" height="15" fill="#5ff05f" rx="2" ry="2"/>
<text x="422.7" y="110.0"></text>
</g>
<g>
<title>char[] (2,151 samples, 0.80%)</title><rect x="419.7" y="83.0" width="9.4" height="15" fill="#67d5d5" rx="2" ry="2"/>
<text x="422.7" y="94.0"></text>
</g>
<g>
<title>java.lang.String (461 samples, 0.17%)</title><rect x="429.1" y="83.0" width="2.0" height="15" fill="#5ccaca" rx="2" ry="2"/>
<text x="432.1" y="94.0"></text>
</g>
<g>
<title>java/lang/String.&lt;init&gt; (669 samples, 0.25%)</title><rect x="431.1" y="83.0" width="2.9" height="15" fill="#6afb6a" rx="2" ry="2"/>
<text x="434.1" y="94.0"></text>
</g>
<g>
<title>java/lang/String.&lt;init&gt; (669 samples, 0.25%)</title><rect x="431.1" y="67.0" width="2.9" height="15" fill="#58e958" rx="2" ry="2"/>
<text x="434.1" y="78.0"></text>
</g>
<g>
<title>java/lang/StringUTF16.compress (669 samples, 0.25%)</title><rect x="431.1" y="51.0" width="2.9" height="15" fill="#5aeb5a" rx="2" ry="2"/>
<text x="434.1" y="62.0"></text>
</g>
<g>
<title>byte[] (669 samples, 0.25%)</title><rect x="431.1" y="35.0" width="2.9" height="15" fill="#68d6d6" rx="2" ry="2"/>
<text x="434.1" y="46.0"></text>
</g>
<g>
<title>one/nio/http/Response.&lt;init&gt; (175 samples, 0.07%)</title><rect x="434.0" y="131.0" width="0.8" height="15" fill="#6bfc6b" rx="2" ry="2"/>
<text x="437.0" y="142.0"></text>
</g>
<g>
<title>java.lang.String[] (175 samples, 0.07%)</title><rect x="434.0" y="115.0" width="0.8" height="15" fill="#52c0c0" rx="2" ry="2"/>
<text x="437.0" y="126.0"></text>
</g>
<g>
<title>one/nio/http/Response.getHeader (209 samples, 0.08%)</title><rect x="434.8" y="131.0" width="0.9" height="15" fill="#6cfd6c" rx="2" ry="2"/>
<text x="437.8" y="142.0"></text>
</g>
<g>
<title>java/lang/String.substring (209 samples, 0.08%)</title><rect x="434.8" y="115.0" width="0.9" height="15" fill="#5ff05f" rx="2" ry="2"/>
<text x="437.8" y="126.0"></text>
</g>
<g>
<title>java/lang/StringLatin1.newString (209 samples, 0.08%)</title><rect x="434.8" y="99.0" width="0.9" height="15" fill="#52e352" rx="2" ry="2"/>
<text x="437.8" y="110.0"></text>
</g>
<g>
<title>java.lang.String (101 samples, 0.04%)</title><rect x="434.8" y="83.0" width="0.4" height="15" fill="#55c3c3" rx="2" ry="2"/>
<text x="437.8" y="94.0"></text>
</g>
<g>
<title>java/util/Arrays.copyOfRange (108 samples, 0.04%)</title><rect x="435.2" y="83.0" width="0.5" height="15" fill="#63f463" rx="2" ry="2"/>
<text x="438.2" y="94.0"></text>
</g>
<g>
<title>byte[] (108 samples, 0.04%)</title><rect x="435.2" y="67.0" width="0.5" height="15" fill="#6ad8d8" rx="2" ry="2"/>
<text x="438.2" y="78.0"></text>
</g>
<g>
<title>one/nio/http/Request.toBytes (531 samples, 0.20%)</title><rect x="435.7" y="147.0" width="2.4" height="15" fill="#5aeb5a" rx="2" ry="2"/>
<text x="438.7" y="158.0"></text>
</g>
<g>
<title>one/nio/util/ByteArrayBuilder.&lt;init&gt; (531 samples, 0.20%)</title><rect x="435.7" y="131.0" width="2.4" height="15" fill="#51e251" rx="2" ry="2"/>
<text x="438.7" y="142.0"></text>
</g>
<g>
<title>byte[] (531 samples, 0.20%)</title><rect x="435.7" y="115.0" width="2.4" height="15" fill="#50bebe" rx="2" ry="2"/>
<text x="438.7" y="126.0"></text>
</g>
<g>
<title>one/nio/http/Response.getHeader (250 samples, 0.09%)</title><rect x="438.1" y="147.0" width="1.0" height="15" fill="#5dee5d" rx="2" ry="2"/>
<text x="441.1" y="158.0"></text>
</g>
<g>
<title>java/lang/String.substring (250 samples, 0.09%)</title><rect x="438.1" y="131.0" width="1.0" height="15" fill="#51e251" rx="2" ry="2"/>
<text x="441.1" y="142.0"></text>
</g>
<g>
<title>java/lang/StringLatin1.newString (250 samples, 0.09%)</title><rect x="438.1" y="115.0" width="1.0" height="15" fill="#57e857" rx="2" ry="2"/>
<text x="441.1" y="126.0"></text>
</g>
<g>
<title>java.lang.String (112 samples, 0.04%)</title><rect x="438.1" y="99.0" width="0.4" height="15" fill="#6ddbdb" rx="2" ry="2"/>
<text x="441.1" y="110.0"></text>
</g>
<g>
<title>java/util/Arrays.copyOfRange (138 samples, 0.05%)</title><rect x="438.5" y="99.0" width="0.6" height="15" fill="#6bfc6b" rx="2" ry="2"/>
<text x="441.5" y="110.0"></text>
</g>
<g>
<title>byte[] (138 samples, 0.05%)</title><rect x="438.5" y="83.0" width="0.6" height="15" fill="#69d7d7" rx="2" ry="2"/>
<text x="441.5" y="94.0"></text>
</g>
<g>
<title>one/nio/pool/Pool.returnObject (123 samples, 0.05%)</title><rect x="439.1" y="147.0" width="0.6" height="15" fill="#57e857" rx="2" ry="2"/>
<text x="442.1" y="158.0"></text>
</g>
<g>
<title>java/util/LinkedList.addFirst (123 samples, 0.05%)</title><rect x="439.1" y="131.0" width="0.6" height="15" fill="#60f160" rx="2" ry="2"/>
<text x="442.1" y="142.0"></text>
</g>
<g>
<title>java/util/LinkedList.linkFirst (123 samples, 0.05%)</title><rect x="439.1" y="115.0" width="0.6" height="15" fill="#5bec5b" rx="2" ry="2"/>
<text x="442.1" y="126.0"></text>
</g>
<g>
<title>java.util.LinkedList$Node (123 samples, 0.05%)</title><rect x="439.1" y="99.0" width="0.6" height="15" fill="#66d4d4" rx="2" ry="2"/>
<text x="442.1" y="110.0"></text>
</g>
<g>
<title>ru/mail/polis/service/kovalkov/SharedAsyncServiceImpl$$Lambda$77/2003223169.run (77,316 samples, 28.73%)</title><rect x="439.7" y="227.0" width="339.0" height="15" fill="#5ff05f" rx="2" ry="2"/>
<text x="442.7" y="238.0">ru/mail/polis/service/kovalkov/SharedAsyncServ..</text>
</g>
<g>
<title>ru/mail/polis/service/kovalkov/SharedAsyncServiceImpl.lambda$put$4 (77,316 samples, 28.73%)</title><rect x="439.7" y="211.0" width="339.0" height="15" fill="#64f564" rx="2" ry="2"/>
<text x="442.7" y="222.0">ru/mail/polis/service/kovalkov/SharedAsyncServ..</text>
</g>
<g>
<title>java/lang/String.getBytes (7,850 samples, 2.92%)</title><rect x="439.7" y="195.0" width="34.4" height="15" fill="#5ff05f" rx="2" ry="2"/>
<text x="442.7" y="206.0">ja..</text>
</g>
<g>
<title>java/lang/StringCoding.encode (7,850 samples, 2.92%)</title><rect x="439.7" y="179.0" width="34.4" height="15" fill="#51e251" rx="2" ry="2"/>
<text x="442.7" y="190.0">ja..</text>
</g>
<g>
<title>java/lang/StringCoding.encodeUTF8 (7,850 samples, 2.92%)</title><rect x="439.7" y="163.0" width="34.4" height="15" fill="#5dee5d" rx="2" ry="2"/>
<text x="442.7" y="174.0">ja..</text>
</g>
<g>
<title>java/util/Arrays.copyOf (7,850 samples, 2.92%)</title><rect x="439.7" y="147.0" width="34.4" height="15" fill="#6bfc6b" rx="2" ry="2"/>
<text x="442.7" y="158.0">ja..</text>
</g>
<g>
<title>byte[] (7,850 samples, 2.92%)</title><rect x="439.7" y="131.0" width="34.4" height="15" fill="#6bd9d9" rx="2" ry="2"/>
<text x="442.7" y="142.0">by..</text>
</g>
<g>
<title>one.nio.http.Response (4,710 samples, 1.75%)</title><rect x="474.1" y="195.0" width="20.7" height="15" fill="#65d3d3" rx="2" ry="2"/>
<text x="477.1" y="206.0"></text>
</g>
<g>
<title>one/nio/http/HttpSession.sendResponse (23,880 samples, 8.87%)</title><rect x="494.8" y="195.0" width="104.7" height="15" fill="#58e958" rx="2" ry="2"/>
<text x="497.8" y="206.0">one/nio/http..</text>
</g>
<g>
<title>one/nio/http/HttpSession.writeResponse (23,880 samples, 8.87%)</title><rect x="494.8" y="179.0" width="104.7" height="15" fill="#66f766" rx="2" ry="2"/>
<text x="497.8" y="190.0">one/nio/http..</text>
</g>
<g>
<title>one/nio/http/Response.toBytes (16,501 samples, 6.13%)</title><rect x="494.8" y="163.0" width="72.3" height="15" fill="#63f463" rx="2" ry="2"/>
<text x="497.8" y="174.0">one/nio/..</text>
</g>
<g>
<title>one/nio/util/ByteArrayBuilder.&lt;init&gt; (16,501 samples, 6.13%)</title><rect x="494.8" y="147.0" width="72.3" height="15" fill="#5aeb5a" rx="2" ry="2"/>
<text x="497.8" y="158.0">one/nio/..</text>
</g>
<g>
<title>byte[] (13,476 samples, 5.01%)</title><rect x="494.8" y="131.0" width="59.0" height="15" fill="#64d2d2" rx="2" ry="2"/>
<text x="497.8" y="142.0">byte[]</text>
</g>
<g>
<title>byte[] (3,025 samples, 1.12%)</title><rect x="553.8" y="131.0" width="13.3" height="15" fill="#e58100" rx="2" ry="2"/>
<text x="556.8" y="142.0"></text>
</g>
<g>
<title>one/nio/net/Session.write (7,379 samples, 2.74%)</title><rect x="567.1" y="163.0" width="32.4" height="15" fill="#5dee5d" rx="2" ry="2"/>
<text x="570.1" y="174.0">on..</text>
</g>
<g>
<title>one.nio.net.Session$ArrayQueueItem (7,379 samples, 2.74%)</title><rect x="567.1" y="147.0" width="32.4" height="15" fill="#6ad8d8" rx="2" ry="2"/>
<text x="570.1" y="158.0">on..</text>
</g>
<g>
<title>one/nio/http/Response.&lt;init&gt; (18,271 samples, 6.79%)</title><rect x="599.5" y="195.0" width="80.1" height="15" fill="#68f968" rx="2" ry="2"/>
<text x="602.5" y="206.0">one/nio/h..</text>
</g>
<g>
<title>byte[] (7,744 samples, 2.88%)</title><rect x="599.5" y="179.0" width="33.9" height="15" fill="#59c7c7" rx="2" ry="2"/>
<text x="602.5" y="190.0">by..</text>
</g>
<g>
<title>java.lang.String[] (6,143 samples, 2.28%)</title><rect x="633.4" y="179.0" width="26.9" height="15" fill="#56c4c4" rx="2" ry="2"/>
<text x="636.4" y="190.0">j..</text>
</g>
<g>
<title>java.lang.String (4,384 samples, 1.63%)</title><rect x="660.3" y="179.0" width="19.3" height="15" fill="#6ad8d8" rx="2" ry="2"/>
<text x="663.3" y="190.0"></text>
</g>
<g>
<title>ru/mail/polis/dao/kovalkov/DAOImpl.upsert (22,605 samples, 8.40%)</title><rect x="679.6" y="195.0" width="99.1" height="15" fill="#5aeb5a" rx="2" ry="2"/>
<text x="682.6" y="206.0">ru/mail/poli..</text>
</g>
<g>
<title>ru/mail/polis/dao/kovalkov/DAOImpl.unfoldToBytes (5,998 samples, 2.23%)</title><rect x="679.6" y="179.0" width="26.3" height="15" fill="#64f564" rx="2" ry="2"/>
<text x="682.6" y="190.0">r..</text>
</g>
<g>
<title>byte[] (5,998 samples, 2.23%)</title><rect x="679.6" y="163.0" width="26.3" height="15" fill="#6cdada" rx="2" ry="2"/>
<text x="682.6" y="174.0">b..</text>
</g>
<g>
<title>ru/mail/polis/dao/kovalkov/utils/BufferConverter.convertBytes (16,607 samples, 6.17%)</title><rect x="705.9" y="179.0" width="72.8" height="15" fill="#61f261" rx="2" ry="2"/>
<text x="708.9" y="190.0">ru/mail/..</text>
</g>
<g>
<title>ru/mail/polis/dao/kovalkov/utils/BufferConverter.unfoldToBytes (16,607 samples, 6.17%)</title><rect x="705.9" y="163.0" width="72.8" height="15" fill="#63f463" rx="2" ry="2"/>
<text x="708.9" y="174.0">ru/mail/..</text>
</g>
<g>
<title>byte[] (5,988 samples, 2.22%)</title><rect x="705.9" y="147.0" width="26.2" height="15" fill="#69d7d7" rx="2" ry="2"/>
<text x="708.9" y="158.0">b..</text>
</g>
<g>
<title>java/nio/HeapByteBuffer.duplicate (10,619 samples, 3.95%)</title><rect x="732.1" y="147.0" width="46.6" height="15" fill="#5dee5d" rx="2" ry="2"/>
<text x="735.1" y="158.0">java..</text>
</g>
<g>
<title>java.nio.HeapByteBuffer (10,619 samples, 3.95%)</title><rect x="732.1" y="131.0" width="46.6" height="15" fill="#6bd9d9" rx="2" ry="2"/>
<text x="735.1" y="142.0">java..</text>
</g>
<g>
<title>one/nio/server/SelectorThread.run (93,816 samples, 34.86%)</title><rect x="778.7" y="275.0" width="411.3" height="15" fill="#5bec5b" rx="2" ry="2"/>
<text x="781.7" y="286.0">one/nio/server/SelectorThread.run</text>
</g>
<g>
<title>one/nio/net/NativeSelector.select (3,807 samples, 1.41%)</title><rect x="778.7" y="259.0" width="16.7" height="15" fill="#68f968" rx="2" ry="2"/>
<text x="781.7" y="270.0"></text>
</g>
<g>
<title>one.nio.net.NativeSelector$2 (3,807 samples, 1.41%)</title><rect x="778.7" y="243.0" width="16.7" height="15" fill="#64d2d2" rx="2" ry="2"/>
<text x="781.7" y="254.0"></text>
</g>
<g>
<title>one/nio/net/Session.process (90,009 samples, 33.44%)</title><rect x="795.4" y="259.0" width="394.6" height="15" fill="#6bfc6b" rx="2" ry="2"/>
<text x="798.4" y="270.0">one/nio/net/Session.process</text>
</g>
<g>
<title>one/nio/http/HttpSession.processRead (90,009 samples, 33.44%)</title><rect x="795.4" y="243.0" width="394.6" height="15" fill="#5eef5e" rx="2" ry="2"/>
<text x="798.4" y="254.0">one/nio/http/HttpSession.processRead</text>
</g>
<g>
<title>one/nio/http/HttpSession.processHttpBuffer (90,009 samples, 33.44%)</title><rect x="795.4" y="227.0" width="394.6" height="15" fill="#56e756" rx="2" ry="2"/>
<text x="798.4" y="238.0">one/nio/http/HttpSession.processHttpBuffer</text>
</g>
<g>
<title>one/nio/http/HttpSession.handleParsedRequest (21,544 samples, 8.00%)</title><rect x="795.4" y="211.0" width="94.4" height="15" fill="#6cfd6c" rx="2" ry="2"/>
<text x="798.4" y="222.0">one/nio/htt..</text>
</g>
<g>
<title>one/nio/http/HttpServer.handleRequest (21,544 samples, 8.00%)</title><rect x="795.4" y="195.0" width="94.4" height="15" fill="#6bfc6b" rx="2" ry="2"/>
<text x="798.4" y="206.0">one/nio/htt..</text>
</g>
<g>
<title>RequestHandler1_put.handleRequest (14,663 samples, 5.45%)</title><rect x="795.4" y="179.0" width="64.3" height="15" fill="#54e554" rx="2" ry="2"/>
<text x="798.4" y="190.0">Request..</text>
</g>
<g>
<title>one/nio/http/Request.getRequiredParameter (6,609 samples, 2.46%)</title><rect x="795.4" y="163.0" width="28.9" height="15" fill="#6afb6a" rx="2" ry="2"/>
<text x="798.4" y="174.0">on..</text>
</g>
<g>
<title>one/nio/http/Request.getParameter (6,609 samples, 2.46%)</title><rect x="795.4" y="147.0" width="28.9" height="15" fill="#63f463" rx="2" ry="2"/>
<text x="798.4" y="158.0">on..</text>
</g>
<g>
<title>java/lang/String.substring (6,609 samples, 2.46%)</title><rect x="795.4" y="131.0" width="28.9" height="15" fill="#5ced5c" rx="2" ry="2"/>
<text x="798.4" y="142.0">ja..</text>
</g>
<g>
<title>java/lang/StringLatin1.newString (6,609 samples, 2.46%)</title><rect x="795.4" y="115.0" width="28.9" height="15" fill="#62f362" rx="2" ry="2"/>
<text x="798.4" y="126.0">ja..</text>
</g>
<g>
<title>java.lang.String (2,942 samples, 1.09%)</title><rect x="795.4" y="99.0" width="12.9" height="15" fill="#58c6c6" rx="2" ry="2"/>
<text x="798.4" y="110.0"></text>
</g>
<g>
<title>java/util/Arrays.copyOfRange (3,667 samples, 1.36%)</title><rect x="808.3" y="99.0" width="16.0" height="15" fill="#67f867" rx="2" ry="2"/>
<text x="811.3" y="110.0"></text>
</g>
<g>
<title>byte[] (3,667 samples, 1.36%)</title><rect x="808.3" y="83.0" width="16.0" height="15" fill="#59c7c7" rx="2" ry="2"/>
<text x="811.3" y="94.0"></text>
</g>
<g>
<title>ru/mail/polis/service/kovalkov/SharedAsyncServiceImpl.put (8,054 samples, 2.99%)</title><rect x="824.3" y="163.0" width="35.4" height="15" fill="#5dee5d" rx="2" ry="2"/>
<text x="827.3" y="174.0">ru/..</text>
</g>
<g>
<title>java/lang/invoke/Invokers$Holder.linkToTargetMethod (3,141 samples, 1.17%)</title><rect x="824.3" y="147.0" width="13.8" height="15" fill="#56e756" rx="2" ry="2"/>
<text x="827.3" y="158.0"></text>
</g>
<g>
<title>java/lang/invoke/DirectMethodHandle$Holder.invokeStatic (3,141 samples, 1.17%)</title><rect x="824.3" y="131.0" width="13.8" height="15" fill="#55e655" rx="2" ry="2"/>
<text x="827.3" y="142.0"></text>
</g>
<g>
<title>ru/mail/polis/service/kovalkov/SharedAsyncServiceImpl$$Lambda$77/2003223169.get$Lambda (3,141 samples, 1.17%)</title><rect x="824.3" y="115.0" width="13.8" height="15" fill="#58e958" rx="2" ry="2"/>
<text x="827.3" y="126.0"></text>
</g>
<g>
<title>ru.mail.polis.service.kovalkov.SharedAsyncServiceImpl$$Lambda$77 (3,141 samples, 1.17%)</title><rect x="824.3" y="99.0" width="13.8" height="15" fill="#60cece" rx="2" ry="2"/>
<text x="827.3" y="110.0"></text>
</g>
<g>
<title>ru/mail/polis/service/kovalkov/SharedAsyncServiceImpl.checkIdAndReturnTargetNode (3,838 samples, 1.43%)</title><rect x="838.3" y="147.0" width="16.8" height="15" fill="#5ced5c" rx="2" ry="2"/>
<text x="841.3" y="158.0"></text>
</g>
<g>
<title>java/lang/String.getBytes (3,838 samples, 1.43%)</title><rect x="838.3" y="131.0" width="16.8" height="15" fill="#55e655" rx="2" ry="2"/>
<text x="841.3" y="142.0"></text>
</g>
<g>
<title>java/lang/StringCoding.encode (3,838 samples, 1.43%)</title><rect x="838.3" y="115.0" width="16.8" height="15" fill="#6bfc6b" rx="2" ry="2"/>
<text x="841.3" y="126.0"></text>
</g>
<g>
<title>java/lang/StringCoding.encodeUTF8 (3,838 samples, 1.43%)</title><rect x="838.3" y="99.0" width="16.8" height="15" fill="#53e453" rx="2" ry="2"/>
<text x="841.3" y="110.0"></text>
</g>
<g>
<title>java/util/Arrays.copyOf (3,838 samples, 1.43%)</title><rect x="838.3" y="83.0" width="16.8" height="15" fill="#53e453" rx="2" ry="2"/>
<text x="841.3" y="94.0"></text>
</g>
<g>
<title>byte[] (3,838 samples, 1.43%)</title><rect x="838.3" y="67.0" width="16.8" height="15" fill="#5ecccc" rx="2" ry="2"/>
<text x="841.3" y="78.0"></text>
</g>
<g>
<title>ru/mail/polis/service/kovalkov/SharedAsyncServiceImpl.proxyForwarding (1,032 samples, 0.38%)</title><rect x="855.1" y="147.0" width="4.6" height="15" fill="#66f766" rx="2" ry="2"/>
<text x="858.1" y="158.0"></text>
</g>
<g>
<title>java/lang/invoke/Invokers$Holder.linkToTargetMethod (1,023 samples, 0.38%)</title><rect x="855.1" y="131.0" width="4.5" height="15" fill="#6dfe6d" rx="2" ry="2"/>
<text x="858.1" y="142.0"></text>
</g>
<g>
<title>java/lang/invoke/DirectMethodHandle$Holder.invokeStatic (1,023 samples, 0.38%)</title><rect x="855.1" y="115.0" width="4.5" height="15" fill="#6cfd6c" rx="2" ry="2"/>
<text x="858.1" y="126.0"></text>
</g>
<g>
<title>ru/mail/polis/service/kovalkov/SharedAsyncServiceImpl$$Lambda$70/1453628131.get$Lambda (1,023 samples, 0.38%)</title><rect x="855.1" y="99.0" width="4.5" height="15" fill="#64f564" rx="2" ry="2"/>
<text x="858.1" y="110.0"></text>
</g>
<g>
<title>ru.mail.polis.service.kovalkov.SharedAsyncServiceImpl$$Lambda$70 (1,023 samples, 0.38%)</title><rect x="855.1" y="83.0" width="4.5" height="15" fill="#5bc9c9" rx="2" ry="2"/>
<text x="858.1" y="94.0"></text>
</g>
<g>
<title>one/nio/http/Request.getPath (6,881 samples, 2.56%)</title><rect x="859.7" y="179.0" width="30.1" height="15" fill="#66f766" rx="2" ry="2"/>
<text x="862.7" y="190.0">on..</text>
</g>
<g>
<title>java/lang/String.substring (6,881 samples, 2.56%)</title><rect x="859.7" y="163.0" width="30.1" height="15" fill="#5bec5b" rx="2" ry="2"/>
<text x="862.7" y="174.0">ja..</text>
</g>
<g>
<title>java/lang/StringLatin1.newString (6,881 samples, 2.56%)</title><rect x="859.7" y="147.0" width="30.1" height="15" fill="#58e958" rx="2" ry="2"/>
<text x="862.7" y="158.0">ja..</text>
</g>
<g>
<title>java.lang.String (2,974 samples, 1.11%)</title><rect x="859.7" y="131.0" width="13.0" height="15" fill="#56c4c4" rx="2" ry="2"/>
<text x="862.7" y="142.0"></text>
</g>
<g>
<title>java/util/Arrays.copyOfRange (3,907 samples, 1.45%)</title><rect x="872.7" y="131.0" width="17.1" height="15" fill="#61f261" rx="2" ry="2"/>
<text x="875.7" y="142.0"></text>
</g>
<g>
<title>byte[] (3,907 samples, 1.45%)</title><rect x="872.7" y="115.0" width="17.1" height="15" fill="#57c5c5" rx="2" ry="2"/>
<text x="875.7" y="126.0"></text>
</g>
<g>
<title>one/nio/http/HttpSession.parseRequest (30,613 samples, 11.37%)</title><rect x="889.8" y="211.0" width="134.2" height="15" fill="#54e554" rx="2" ry="2"/>
<text x="892.8" y="222.0">one/nio/http/Http..</text>
</g>
<g>
<title>one.nio.http.Request (4,823 samples, 1.79%)</title><rect x="889.8" y="195.0" width="21.2" height="15" fill="#65d3d3" rx="2" ry="2"/>
<text x="892.8" y="206.0">o..</text>
</g>
<g>
<title>one/nio/http/Request.&lt;init&gt; (9,892 samples, 3.68%)</title><rect x="911.0" y="195.0" width="43.3" height="15" fill="#53e453" rx="2" ry="2"/>
<text x="914.0" y="206.0">one/..</text>
</g>
<g>
<title>java.lang.String[] (9,892 samples, 3.68%)</title><rect x="911.0" y="179.0" width="43.3" height="15" fill="#67d5d5" rx="2" ry="2"/>
<text x="914.0" y="190.0">java..</text>
</g>
<g>
<title>one/nio/util/Utf8.read (15,898 samples, 5.91%)</title><rect x="954.3" y="195.0" width="69.7" height="15" fill="#54e554" rx="2" ry="2"/>
<text x="957.3" y="206.0">one/nio..</text>
</g>
<g>
<title>one/nio/util/Utf8.read (15,898 samples, 5.91%)</title><rect x="954.3" y="179.0" width="69.7" height="15" fill="#66f766" rx="2" ry="2"/>
<text x="957.3" y="190.0">one/nio..</text>
</g>
<g>
<title>char[] (8,613 samples, 3.20%)</title><rect x="954.3" y="163.0" width="37.8" height="15" fill="#52c0c0" rx="2" ry="2"/>
<text x="957.3" y="174.0">cha..</text>
</g>
<g>
<title>java.lang.String (2,825 samples, 1.05%)</title><rect x="992.1" y="163.0" width="12.4" height="15" fill="#6cdada" rx="2" ry="2"/>
<text x="995.1" y="174.0"></text>
</g>
<g>
<title>java/lang/String.&lt;init&gt; (4,460 samples, 1.66%)</title><rect x="1004.5" y="163.0" width="19.5" height="15" fill="#51e251" rx="2" ry="2"/>
<text x="1007.5" y="174.0"></text>
</g>
<g>
<title>java/lang/String.&lt;init&gt; (4,460 samples, 1.66%)</title><rect x="1004.5" y="147.0" width="19.5" height="15" fill="#5ff05f" rx="2" ry="2"/>
<text x="1007.5" y="158.0"></text>
</g>
<g>
<title>java/lang/StringUTF16.compress (4,460 samples, 1.66%)</title><rect x="1004.5" y="131.0" width="19.5" height="15" fill="#55e655" rx="2" ry="2"/>
<text x="1007.5" y="142.0"></text>
</g>
<g>
<title>byte[] (4,460 samples, 1.66%)</title><rect x="1004.5" y="115.0" width="19.5" height="15" fill="#57c5c5" rx="2" ry="2"/>
<text x="1007.5" y="126.0"></text>
</g>
<g>
<title>one/nio/http/HttpSession.startParsingRequestBody (3,918 samples, 1.46%)</title><rect x="1024.0" y="211.0" width="17.2" height="15" fill="#67f867" rx="2" ry="2"/>
<text x="1027.0" y="222.0"></text>
</g>
<g>
<title>byte[] (3,918 samples, 1.46%)</title><rect x="1024.0" y="195.0" width="17.2" height="15" fill="#65d3d3" rx="2" ry="2"/>
<text x="1027.0" y="206.0"></text>
</g>
<g>
<title>one/nio/http/Request.getHeader (5,623 samples, 2.09%)</title><rect x="1041.2" y="211.0" width="24.7" height="15" fill="#63f463" rx="2" ry="2"/>
<text x="1044.2" y="222.0">o..</text>
</g>
<g>
<title>java/lang/String.substring (5,623 samples, 2.09%)</title><rect x="1041.2" y="195.0" width="24.7" height="15" fill="#6dfe6d" rx="2" ry="2"/>
<text x="1044.2" y="206.0">j..</text>
</g>
<g>
<title>java/lang/StringLatin1.newString (5,623 samples, 2.09%)</title><rect x="1041.2" y="179.0" width="24.7" height="15" fill="#63f463" rx="2" ry="2"/>
<text x="1044.2" y="190.0">j..</text>
</g>
<g>
<title>java.lang.String (2,790 samples, 1.04%)</title><rect x="1041.2" y="163.0" width="12.3" height="15" fill="#66d4d4" rx="2" ry="2"/>
<text x="1044.2" y="174.0"></text>
</g>
<g>
<title>java/util/Arrays.copyOfRange (2,833 samples, 1.05%)</title><rect x="1053.5" y="163.0" width="12.4" height="15" fill="#52e352" rx="2" ry="2"/>
<text x="1056.5" y="174.0"></text>
</g>
<g>
<title>byte[] (2,833 samples, 1.05%)</title><rect x="1053.5" y="147.0" width="12.4" height="15" fill="#54c2c2" rx="2" ry="2"/>
<text x="1056.5" y="158.0"></text>
</g>
<g>
<title>one/nio/util/Utf8.read (28,311 samples, 10.52%)</title><rect x="1065.9" y="211.0" width="124.1" height="15" fill="#5ff05f" rx="2" ry="2"/>
<text x="1068.9" y="222.0">one/nio/util/Ut..</text>
</g>
<g>
<title>one/nio/util/Utf8.read (28,311 samples, 10.52%)</title><rect x="1065.9" y="195.0" width="124.1" height="15" fill="#52e352" rx="2" ry="2"/>
<text x="1068.9" y="206.0">one/nio/util/Ut..</text>
</g>
<g>
<title>char[] (13,117 samples, 4.87%)</title><rect x="1065.9" y="179.0" width="57.5" height="15" fill="#52c0c0" rx="2" ry="2"/>
<text x="1068.9" y="190.0">char[]</text>
</g>
<g>
<title>java.lang.String (5,727 samples, 2.13%)</title><rect x="1123.4" y="179.0" width="25.1" height="15" fill="#56c4c4" rx="2" ry="2"/>
<text x="1126.4" y="190.0">j..</text>
</g>
<g>
<title>java/lang/String.&lt;init&gt; (9,467 samples, 3.52%)</title><rect x="1148.5" y="179.0" width="41.5" height="15" fill="#5dee5d" rx="2" ry="2"/>
<text x="1151.5" y="190.0">jav..</text>
</g>
<g>
<title>java/lang/String.&lt;init&gt; (9,467 samples, 3.52%)</title><rect x="1148.5" y="163.0" width="41.5" height="15" fill="#68f968" rx="2" ry="2"/>
<text x="1151.5" y="174.0">jav..</text>
</g>
<g>
<title>java/lang/StringUTF16.compress (9,467 samples, 3.52%)</title><rect x="1148.5" y="147.0" width="41.5" height="15" fill="#61f261" rx="2" ry="2"/>
<text x="1151.5" y="158.0">jav..</text>
</g>
<g>
<title>byte[] (9,467 samples, 3.52%)</title><rect x="1148.5" y="131.0" width="41.5" height="15" fill="#66d4d4" rx="2" ry="2"/>
<text x="1151.5" y="142.0">byt..</text>
</g>
</g>
</svg>
