<?xml version="1.0" standalone="no"?>
<!DOCTYPE svg PUBLIC "-//W3C//DTD SVG 1.1//EN" "http://www.w3.org/Graphics/SVG/1.1/DTD/svg11.dtd">
<svg version="1.1" width="1200" height="342" onload="init(evt)" viewBox="0 0 1200 342" xmlns="http://www.w3.org/2000/svg" xmlns:xlink="http://www.w3.org/1999/xlink">
<style type="text/css">
	text { font-family:Verdana; font-size:12px; fill:rgb(0,0,0); }
	#search { opacity:0.1; cursor:pointer; }
	#search:hover, #search.show { opacity:1; }
	#subtitle { text-anchor:middle; font-color:rgb(160,160,160); }
	#title { text-anchor:middle; font-size:17px}
	#unzoom { cursor:pointer; }
	#frames > *:hover { stroke:black; stroke-width:0.5; cursor:pointer; }
	.hide { display:none; }
	.parent { opacity:0.5; }
</style>
<script type="text/ecmascript">
<![CDATA[
	"use strict";
	var details, searchbtn, unzoombtn, matchedtxt, svg, searching;
	function init(evt) {
		details = document.getElementById("details").firstChild;
		searchbtn = document.getElementById("search");
		unzoombtn = document.getElementById("unzoom");
		matchedtxt = document.getElementById("matched");
		svg = document.getElementsByTagName("svg")[0];
		searching = 0;
	}

	window.addEventListener("click", function(e) {
		var target = find_group(e.target);
		if (target) {
			if (target.nodeName == "a") {
				if (e.ctrlKey === false) return;
				e.preventDefault();
			}
			if (target.classList.contains("parent")) unzoom();
			zoom(target);
		}
		else if (e.target.id == "unzoom") unzoom();
		else if (e.target.id == "search") search_prompt();
	}, false)

	// mouse-over for info
	// show
	window.addEventListener("mouseover", function(e) {
		var target = find_group(e.target);
		if (target) details.nodeValue = "Function: " + g_to_text(target);
	}, false)

	// clear
	window.addEventListener("mouseout", function(e) {
		var target = find_group(e.target);
		if (target) details.nodeValue = ' ';
	}, false)

	// ctrl-F for search
	window.addEventListener("keydown",function (e) {
		if (e.keyCode === 114 || (e.ctrlKey && e.keyCode === 70)) {
			e.preventDefault();
			search_prompt();
		}
	}, false)

	// functions
	function find_child(node, selector) {
		var children = node.querySelectorAll(selector);
		if (children.length) return children[0];
		return;
	}
	function find_group(node) {
		var parent = node.parentElement;
		if (!parent) return;
		if (parent.id == "frames") return node;
		return find_group(parent);
	}
	function orig_save(e, attr, val) {
		if (e.attributes["_orig_" + attr] != undefined) return;
		if (e.attributes[attr] == undefined) return;
		if (val == undefined) val = e.attributes[attr].value;
		e.setAttribute("_orig_" + attr, val);
	}
	function orig_load(e, attr) {
		if (e.attributes["_orig_"+attr] == undefined) return;
		e.attributes[attr].value = e.attributes["_orig_" + attr].value;
		e.removeAttribute("_orig_"+attr);
	}
	function g_to_text(e) {
		var text = find_child(e, "title").firstChild.nodeValue;
		return (text)
	}
	function g_to_func(e) {
		var func = g_to_text(e);
		// if there's any manipulation we want to do to the function
		// name before it's searched, do it here before returning.
		return (func);
	}
	function update_text(e) {
		var r = find_child(e, "rect");
		var t = find_child(e, "text");
		var w = parseFloat(r.attributes.width.value) -3;
		var txt = find_child(e, "title").textContent.replace(/\([^(]*\)$/,"");
		t.attributes.x.value = parseFloat(r.attributes.x.value) + 3;

		// Smaller than this size won't fit anything
		if (w < 2 * 12 * 0.59) {
			t.textContent = "";
			return;
		}

		t.textContent = txt;
		// Fit in full text width
		if (/^ *$/.test(txt) || t.getSubStringLength(0, txt.length) < w)
			return;

		for (var x = txt.length - 2; x > 0; x--) {
			if (t.getSubStringLength(0, x + 2) <= w) {
				t.textContent = txt.substring(0, x) + "..";
				return;
			}
		}
		t.textContent = "";
	}

	// zoom
	function zoom_reset(e) {
		if (e.attributes != undefined) {
			orig_load(e, "x");
			orig_load(e, "width");
		}
		if (e.childNodes == undefined) return;
		for (var i = 0, c = e.childNodes; i < c.length; i++) {
			zoom_reset(c[i]);
		}
	}
	function zoom_child(e, x, ratio) {
		if (e.attributes != undefined) {
			if (e.attributes.x != undefined) {
				orig_save(e, "x");
				e.attributes.x.value = (parseFloat(e.attributes.x.value) - x - 10) * ratio + 10;
				if (e.tagName == "text")
					e.attributes.x.value = find_child(e.parentNode, "rect[x]").attributes.x.value + 3;
			}
			if (e.attributes.width != undefined) {
				orig_save(e, "width");
				e.attributes.width.value = parseFloat(e.attributes.width.value) * ratio;
			}
		}

		if (e.childNodes == undefined) return;
		for (var i = 0, c = e.childNodes; i < c.length; i++) {
			zoom_child(c[i], x - 10, ratio);
		}
	}
	function zoom_parent(e) {
		if (e.attributes) {
			if (e.attributes.x != undefined) {
				orig_save(e, "x");
				e.attributes.x.value = 10;
			}
			if (e.attributes.width != undefined) {
				orig_save(e, "width");
				e.attributes.width.value = parseInt(svg.width.baseVal.value) - (10 * 2);
			}
		}
		if (e.childNodes == undefined) return;
		for (var i = 0, c = e.childNodes; i < c.length; i++) {
			zoom_parent(c[i]);
		}
	}
	function zoom(node) {
		var attr = find_child(node, "rect").attributes;
		var width = parseFloat(attr.width.value);
		var xmin = parseFloat(attr.x.value);
		var xmax = parseFloat(xmin + width);
		var ymin = parseFloat(attr.y.value);
		var ratio = (svg.width.baseVal.value - 2 * 10) / width;

		// XXX: Workaround for JavaScript float issues (fix me)
		var fudge = 0.0001;

		unzoombtn.classList.remove("hide");

		var el = document.getElementById("frames").children;
		for (var i = 0; i < el.length; i++) {
			var e = el[i];
			var a = find_child(e, "rect").attributes;
			var ex = parseFloat(a.x.value);
			var ew = parseFloat(a.width.value);
			var upstack;
			// Is it an ancestor
			if (0 == 0) {
				upstack = parseFloat(a.y.value) > ymin;
			} else {
				upstack = parseFloat(a.y.value) < ymin;
			}
			if (upstack) {
				// Direct ancestor
				if (ex <= xmin && (ex+ew+fudge) >= xmax) {
					e.classList.add("parent");
					zoom_parent(e);
					update_text(e);
				}
				// not in current path
				else
					e.classList.add("hide");
			}
			// Children maybe
			else {
				// no common path
				if (ex < xmin || ex + fudge >= xmax) {
					e.classList.add("hide");
				}
				else {
					zoom_child(e, xmin, ratio);
					update_text(e);
				}
			}
		}
	}
	function unzoom() {
		unzoombtn.classList.add("hide");
		var el = document.getElementById("frames").children;
		for(var i = 0; i < el.length; i++) {
			el[i].classList.remove("parent");
			el[i].classList.remove("hide");
			zoom_reset(el[i]);
			update_text(el[i]);
		}
	}

	// search
	function reset_search() {
		var el = document.querySelectorAll("#frames rect");
		for (var i = 0; i < el.length; i++) {
			orig_load(el[i], "fill")
		}
	}
	function search_prompt() {
		if (!searching) {
			var term = prompt("Enter a search term (regexp " +
			    "allowed, eg: ^ext4_)", "");
			if (term != null) {
				search(term)
			}
		} else {
			reset_search();
			searching = 0;
			searchbtn.classList.remove("show");
			searchbtn.firstChild.nodeValue = "Search"
			matchedtxt.classList.add("hide");
			matchedtxt.firstChild.nodeValue = ""
		}
	}
	function search(term) {
		var re = new RegExp(term);
		var el = document.getElementById("frames").children;
		var matches = new Object();
		var maxwidth = 0;
		for (var i = 0; i < el.length; i++) {
			var e = el[i];
			var func = g_to_func(e);
			var rect = find_child(e, "rect");
			if (func == null || rect == null)
				continue;

			// Save max width. Only works as we have a root frame
			var w = parseFloat(rect.attributes.width.value);
			if (w > maxwidth)
				maxwidth = w;

			if (func.match(re)) {
				// highlight
				var x = parseFloat(rect.attributes.x.value);
				orig_save(rect, "fill");
				rect.attributes.fill.value = "rgb(230,0,230)";

				// remember matches
				if (matches[x] == undefined) {
					matches[x] = w;
				} else {
					if (w > matches[x]) {
						// overwrite with parent
						matches[x] = w;
					}
				}
				searching = 1;
			}
		}
		if (!searching)
			return;

		searchbtn.classList.add("show");
		searchbtn.firstChild.nodeValue = "Reset Search";

		// calculate percent matched, excluding vertical overlap
		var count = 0;
		var lastx = -1;
		var lastw = 0;
		var keys = Array();
		for (k in matches) {
			if (matches.hasOwnProperty(k))
				keys.push(k);
		}
		// sort the matched frames by their x location
		// ascending, then width descending
		keys.sort(function(a, b){
			return a - b;
		});
		// Step through frames saving only the biggest bottom-up frames
		// thanks to the sort order. This relies on the tree property
		// where children are always smaller than their parents.
		var fudge = 0.0001;	// JavaScript floating point
		for (var k in keys) {
			var x = parseFloat(keys[k]);
			var w = matches[keys[k]];
			if (x >= lastx + lastw - fudge) {
				count += w;
				lastx = x;
				lastw = w;
			}
		}
		// display matched percent
		matchedtxt.classList.remove("hide");
		var pct = 100 * count / maxwidth;
		if (pct != 100) pct = pct.toFixed(1)
		matchedtxt.firstChild.nodeValue = "Matched: " + pct + "%";
	}
]]>
</script>
<rect x="0" y="0" width="100%" height="100%" fill="rgb(240,240,220)"/>
<text id="title" x="600" y="24">Flame Graph</text>
<text id="details" x="10" y="325"> </text>
<text id="unzoom" x="10" y="24" class="hide">Reset Zoom</text>
<text id="search" x="1090" y="24">Search</text>
<text id="matched" x="1090" y="325"> </text>
<g id="frames">
<g>
<title>all (222,684 samples, 100.00%)</title><rect x="10.0" y="291.0" width="1180.0" height="15" fill="#e56060" rx="2" ry="2"/>
<text x="13.0" y="302.0">all</text>
</g>
<g>
<title>java/lang/Thread.run (144,723 samples, 64.99%)</title><rect x="10.0" y="275.0" width="766.9" height="15" fill="#62f362" rx="2" ry="2"/>
<text x="13.0" y="286.0">java/lang/Thread.run</text>
</g>
<g>
<title>java/util/concurrent/ThreadPoolExecutor$Worker.run (144,723 samples, 64.99%)</title><rect x="10.0" y="259.0" width="766.9" height="15" fill="#61f261" rx="2" ry="2"/>
<text x="13.0" y="270.0">java/util/concurrent/ThreadPoolExecutor$Worker.run</text>
</g>
<g>
<title>java/util/concurrent/ThreadPoolExecutor.runWorker (144,723 samples, 64.99%)</title><rect x="10.0" y="243.0" width="766.9" height="15" fill="#68f968" rx="2" ry="2"/>
<text x="13.0" y="254.0">java/util/concurrent/ThreadPoolExecutor.runWorker</text>
</g>
<g>
<title>java/util/concurrent/ThreadPoolExecutor.getTask (5,089 samples, 2.29%)</title><rect x="10.0" y="227.0" width="27.0" height="15" fill="#5ff05f" rx="2" ry="2"/>
<text x="13.0" y="238.0">j..</text>
</g>
<g>
<title>java/util/concurrent/ArrayBlockingQueue.take (5,089 samples, 2.29%)</title><rect x="10.0" y="211.0" width="27.0" height="15" fill="#68f968" rx="2" ry="2"/>
<text x="13.0" y="222.0">j..</text>
</g>
<g>
<title>java/util/concurrent/locks/AbstractQueuedSynchronizer$ConditionObject.await (5,027 samples, 2.26%)</title><rect x="10.0" y="195.0" width="26.6" height="15" fill="#52e352" rx="2" ry="2"/>
<text x="13.0" y="206.0">j..</text>
</g>
<g>
<title>java/util/concurrent/locks/AbstractQueuedSynchronizer$ConditionObject.addConditionWaiter (5,027 samples, 2.26%)</title><rect x="10.0" y="179.0" width="26.6" height="15" fill="#61f261" rx="2" ry="2"/>
<text x="13.0" y="190.0">j..</text>
</g>
<g>
<title>java.util.concurrent.locks.AbstractQueuedSynchronizer$Node (5,027 samples, 2.26%)</title><rect x="10.0" y="163.0" width="26.6" height="15" fill="#6bd9d9" rx="2" ry="2"/>
<text x="13.0" y="174.0">j..</text>
</g>
<g>
<title>java/util/concurrent/locks/ReentrantLock.lockInterruptibly (62 samples, 0.03%)</title><rect x="36.6" y="195.0" width="0.4" height="15" fill="#64f564" rx="2" ry="2"/>
<text x="39.6" y="206.0"></text>
</g>
<g>
<title>java/util/concurrent/locks/AbstractQueuedSynchronizer.acquireInterruptibly (62 samples, 0.03%)</title><rect x="36.6" y="179.0" width="0.4" height="15" fill="#5bec5b" rx="2" ry="2"/>
<text x="39.6" y="190.0"></text>
</g>
<g>
<title>java/util/concurrent/locks/AbstractQueuedSynchronizer.doAcquireInterruptibly (62 samples, 0.03%)</title><rect x="36.6" y="163.0" width="0.4" height="15" fill="#5ff05f" rx="2" ry="2"/>
<text x="39.6" y="174.0"></text>
</g>
<g>
<title>java/util/concurrent/locks/AbstractQueuedSynchronizer.addWaiter (62 samples, 0.03%)</title><rect x="36.6" y="147.0" width="0.4" height="15" fill="#58e958" rx="2" ry="2"/>
<text x="39.6" y="158.0"></text>
</g>
<g>
<title>java.util.concurrent.locks.AbstractQueuedSynchronizer$Node (62 samples, 0.03%)</title><rect x="36.6" y="131.0" width="0.4" height="15" fill="#50bebe" rx="2" ry="2"/>
<text x="39.6" y="142.0"></text>
</g>
<g>
<title>ru/mail/polis/service/kovalkov/SharedAsyncServiceImpl$$Lambda$78/1266216553.run (75,321 samples, 33.82%)</title><rect x="37.0" y="227.0" width="399.1" height="15" fill="#53e453" rx="2" ry="2"/>
<text x="40.0" y="238.0">ru/mail/polis/service/kovalkov/SharedAsyncServiceImpl$$..</text>
</g>
<g>
<title>ru/mail/polis/service/kovalkov/SharedAsyncServiceImpl.lambda$proxyForwarding$1 (75,321 samples, 33.82%)</title><rect x="37.0" y="211.0" width="399.1" height="15" fill="#5ff05f" rx="2" ry="2"/>
<text x="40.0" y="222.0">ru/mail/polis/service/kovalkov/SharedAsyncServiceImpl.l..</text>
</g>
<g>
<title>one/nio/http/HttpSession.sendResponse (668 samples, 0.30%)</title><rect x="37.0" y="195.0" width="3.5" height="15" fill="#61f261" rx="2" ry="2"/>
<text x="40.0" y="206.0"></text>
</g>
<g>
<title>one/nio/http/HttpSession.writeResponse (668 samples, 0.30%)</title><rect x="37.0" y="179.0" width="3.5" height="15" fill="#65f665" rx="2" ry="2"/>
<text x="40.0" y="190.0"></text>
</g>
<g>
<title>one/nio/http/Response.toBytes (495 samples, 0.22%)</title><rect x="37.0" y="163.0" width="2.6" height="15" fill="#59ea59" rx="2" ry="2"/>
<text x="40.0" y="174.0"></text>
</g>
<g>
<title>one/nio/util/ByteArrayBuilder.&lt;init&gt; (495 samples, 0.22%)</title><rect x="37.0" y="147.0" width="2.6" height="15" fill="#68f968" rx="2" ry="2"/>
<text x="40.0" y="158.0"></text>
</g>
<g>
<title>byte[] (495 samples, 0.22%)</title><rect x="37.0" y="131.0" width="2.6" height="15" fill="#6bd9d9" rx="2" ry="2"/>
<text x="40.0" y="142.0"></text>
</g>
<g>
<title>one/nio/net/Session.write (173 samples, 0.08%)</title><rect x="39.6" y="163.0" width="0.9" height="15" fill="#53e453" rx="2" ry="2"/>
<text x="42.6" y="174.0"></text>
</g>
<g>
<title>one.nio.net.Session$ArrayQueueItem (173 samples, 0.08%)</title><rect x="39.6" y="147.0" width="0.9" height="15" fill="#65d3d3" rx="2" ry="2"/>
<text x="42.6" y="158.0"></text>
</g>
<g>
<title>ru/mail/polis/service/kovalkov/SharedAsyncServiceImpl.proxy (74,653 samples, 33.52%)</title><rect x="40.5" y="195.0" width="395.6" height="15" fill="#68f968" rx="2" ry="2"/>
<text x="43.5" y="206.0">ru/mail/polis/service/kovalkov/SharedAsyncServiceImpl...</text>
</g>
<g>
<title>java/lang/invoke/Invokers$Holder.linkToTargetMethod (340 samples, 0.15%)</title><rect x="40.5" y="179.0" width="1.8" height="15" fill="#6dfe6d" rx="2" ry="2"/>
<text x="43.5" y="190.0"></text>
</g>
<g>
<title>java/lang/invoke/LambdaForm$MH/817406040.invoke (340 samples, 0.15%)</title><rect x="40.5" y="163.0" width="1.8" height="15" fill="#6cfd6c" rx="2" ry="2"/>
<text x="43.5" y="174.0"></text>
</g>
<g>
<title>java/lang/invoke/DirectMethodHandle$Holder.invokeStatic (340 samples, 0.15%)</title><rect x="40.5" y="147.0" width="1.8" height="15" fill="#6cfd6c" rx="2" ry="2"/>
<text x="43.5" y="158.0"></text>
</g>
<g>
<title>java/lang/StringConcatHelper.newString (65 samples, 0.03%)</title><rect x="40.5" y="131.0" width="0.4" height="15" fill="#6dfe6d" rx="2" ry="2"/>
<text x="43.5" y="142.0"></text>
</g>
<g>
<title>java.lang.String (65 samples, 0.03%)</title><rect x="40.5" y="115.0" width="0.4" height="15" fill="#67d5d5" rx="2" ry="2"/>
<text x="43.5" y="126.0"></text>
</g>
<g>
<title>java/lang/invoke/StringConcatFactory$MethodHandleInlineCopyStrategy.newArray (275 samples, 0.12%)</title><rect x="40.9" y="131.0" width="1.4" height="15" fill="#6bfc6b" rx="2" ry="2"/>
<text x="43.9" y="142.0"></text>
</g>
<g>
<title>jdk/internal/misc/Unsafe.allocateUninitializedArray (275 samples, 0.12%)</title><rect x="40.9" y="115.0" width="1.4" height="15" fill="#6bfc6b" rx="2" ry="2"/>
<text x="43.9" y="126.0"></text>
</g>
<g>
<title>byte[] (275 samples, 0.12%)</title><rect x="40.9" y="99.0" width="1.4" height="15" fill="#6cdada" rx="2" ry="2"/>
<text x="43.9" y="110.0"></text>
</g>
<g>
<title>one/nio/http/HttpClient.invoke (74,313 samples, 33.37%)</title><rect x="42.3" y="179.0" width="393.8" height="15" fill="#60f160" rx="2" ry="2"/>
<text x="45.3" y="190.0">one/nio/http/HttpClient.invoke</text>
</g>
<g>
<title>one/nio/http/HttpClient.invoke (74,313 samples, 33.37%)</title><rect x="42.3" y="163.0" width="393.8" height="15" fill="#5eef5e" rx="2" ry="2"/>
<text x="45.3" y="174.0">one/nio/http/HttpClient.invoke</text>
</g>
<g>
<title>one.nio.http.HttpClient$ResponseReader (146 samples, 0.07%)</title><rect x="42.3" y="147.0" width="0.8" height="15" fill="#66d4d4" rx="2" ry="2"/>
<text x="45.3" y="158.0"></text>
</g>
<g>
<title>one/nio/http/HttpClient$ResponseReader.&lt;init&gt; (69,938 samples, 31.41%)</title><rect x="43.1" y="147.0" width="370.6" height="15" fill="#52e352" rx="2" ry="2"/>
<text x="46.1" y="158.0">one/nio/http/HttpClient$ResponseReader.&lt;init&gt;</text>
</g>
<g>
<title>byte[] (22,197 samples, 9.97%)</title><rect x="43.1" y="131.0" width="117.6" height="15" fill="#59c7c7" rx="2" ry="2"/>
<text x="46.1" y="142.0">byte[]</text>
</g>
<g>
<title>byte[] (47,741 samples, 21.44%)</title><rect x="160.7" y="131.0" width="253.0" height="15" fill="#fa9600" rx="2" ry="2"/>
<text x="163.7" y="142.0">byte[]</text>
</g>
<g>
<title>one/nio/http/HttpClient$ResponseReader.readResponse (3,511 samples, 1.58%)</title><rect x="413.7" y="147.0" width="18.6" height="15" fill="#63f463" rx="2" ry="2"/>
<text x="416.7" y="158.0"></text>
</g>
<g>
<title>byte[] (133 samples, 0.06%)</title><rect x="413.7" y="131.0" width="0.7" height="15" fill="#57c5c5" rx="2" ry="2"/>
<text x="416.7" y="142.0"></text>
</g>
<g>
<title>java/lang/String.substring (196 samples, 0.09%)</title><rect x="414.4" y="131.0" width="1.0" height="15" fill="#5ff05f" rx="2" ry="2"/>
<text x="417.4" y="142.0"></text>
</g>
<g>
<title>java/lang/StringLatin1.newString (196 samples, 0.09%)</title><rect x="414.4" y="115.0" width="1.0" height="15" fill="#51e251" rx="2" ry="2"/>
<text x="417.4" y="126.0"></text>
</g>
<g>
<title>java.lang.String (97 samples, 0.04%)</title><rect x="414.4" y="99.0" width="0.5" height="15" fill="#66d4d4" rx="2" ry="2"/>
<text x="417.4" y="110.0"></text>
</g>
<g>
<title>java/util/Arrays.copyOfRange (99 samples, 0.04%)</title><rect x="414.9" y="99.0" width="0.5" height="15" fill="#68f968" rx="2" ry="2"/>
<text x="417.9" y="110.0"></text>
</g>
<g>
<title>byte[] (99 samples, 0.04%)</title><rect x="414.9" y="83.0" width="0.5" height="15" fill="#52c0c0" rx="2" ry="2"/>
<text x="417.9" y="94.0"></text>
</g>
<g>
<title>one.nio.http.Response (104 samples, 0.05%)</title><rect x="415.4" y="131.0" width="0.6" height="15" fill="#69d7d7" rx="2" ry="2"/>
<text x="418.4" y="142.0"></text>
</g>
<g>
<title>one/nio/http/HttpClient$ResponseReader.readLine (2,761 samples, 1.24%)</title><rect x="416.0" y="131.0" width="14.6" height="15" fill="#59ea59" rx="2" ry="2"/>
<text x="419.0" y="142.0"></text>
</g>
<g>
<title>one/nio/util/Utf8.read (2,761 samples, 1.24%)</title><rect x="416.0" y="115.0" width="14.6" height="15" fill="#63f463" rx="2" ry="2"/>
<text x="419.0" y="126.0"></text>
</g>
<g>
<title>one/nio/util/Utf8.read (2,761 samples, 1.24%)</title><rect x="416.0" y="99.0" width="14.6" height="15" fill="#61f261" rx="2" ry="2"/>
<text x="419.0" y="110.0"></text>
</g>
<g>
<title>char[] (1,812 samples, 0.81%)</title><rect x="416.0" y="83.0" width="9.6" height="15" fill="#62d0d0" rx="2" ry="2"/>
<text x="419.0" y="94.0"></text>
</g>
<g>
<title>java.lang.String (404 samples, 0.18%)</title><rect x="425.6" y="83.0" width="2.1" height="15" fill="#5ecccc" rx="2" ry="2"/>
<text x="428.6" y="94.0"></text>
</g>
<g>
<title>java/lang/String.&lt;init&gt; (545 samples, 0.24%)</title><rect x="427.7" y="83.0" width="2.9" height="15" fill="#5eef5e" rx="2" ry="2"/>
<text x="430.7" y="94.0"></text>
</g>
<g>
<title>java/lang/String.&lt;init&gt; (545 samples, 0.24%)</title><rect x="427.7" y="67.0" width="2.9" height="15" fill="#66f766" rx="2" ry="2"/>
<text x="430.7" y="78.0"></text>
</g>
<g>
<title>java/lang/StringUTF16.compress (545 samples, 0.24%)</title><rect x="427.7" y="51.0" width="2.9" height="15" fill="#55e655" rx="2" ry="2"/>
<text x="430.7" y="62.0"></text>
</g>
<g>
<title>byte[] (545 samples, 0.24%)</title><rect x="427.7" y="35.0" width="2.9" height="15" fill="#59c7c7" rx="2" ry="2"/>
<text x="430.7" y="46.0"></text>
</g>
<g>
<title>one/nio/http/Response.&lt;init&gt; (142 samples, 0.06%)</title><rect x="430.6" y="131.0" width="0.8" height="15" fill="#65f665" rx="2" ry="2"/>
<text x="433.6" y="142.0"></text>
</g>
<g>
<title>java.lang.String[] (142 samples, 0.06%)</title><rect x="430.6" y="115.0" width="0.8" height="15" fill="#54c2c2" rx="2" ry="2"/>
<text x="433.6" y="126.0"></text>
</g>
<g>
<title>one/nio/http/Response.getHeader (175 samples, 0.08%)</title><rect x="431.4" y="131.0" width="0.9" height="15" fill="#57e857" rx="2" ry="2"/>
<text x="434.4" y="142.0"></text>
</g>
<g>
<title>java/lang/String.substring (175 samples, 0.08%)</title><rect x="431.4" y="115.0" width="0.9" height="15" fill="#64f564" rx="2" ry="2"/>
<text x="434.4" y="126.0"></text>
</g>
<g>
<title>java/lang/StringLatin1.newString (175 samples, 0.08%)</title><rect x="431.4" y="99.0" width="0.9" height="15" fill="#6cfd6c" rx="2" ry="2"/>
<text x="434.4" y="110.0"></text>
</g>
<g>
<title>java.lang.String (110 samples, 0.05%)</title><rect x="431.4" y="83.0" width="0.5" height="15" fill="#55c3c3" rx="2" ry="2"/>
<text x="434.4" y="94.0"></text>
</g>
<g>
<title>java/util/Arrays.copyOfRange (65 samples, 0.03%)</title><rect x="431.9" y="83.0" width="0.4" height="15" fill="#61f261" rx="2" ry="2"/>
<text x="434.9" y="94.0"></text>
</g>
<g>
<title>byte[] (65 samples, 0.03%)</title><rect x="431.9" y="67.0" width="0.4" height="15" fill="#6ad8d8" rx="2" ry="2"/>
<text x="434.9" y="78.0"></text>
</g>
<g>
<title>one/nio/http/Request.toBytes (397 samples, 0.18%)</title><rect x="432.3" y="147.0" width="2.1" height="15" fill="#65f665" rx="2" ry="2"/>
<text x="435.3" y="158.0"></text>
</g>
<g>
<title>one/nio/util/ByteArrayBuilder.&lt;init&gt; (397 samples, 0.18%)</title><rect x="432.3" y="131.0" width="2.1" height="15" fill="#52e352" rx="2" ry="2"/>
<text x="435.3" y="142.0"></text>
</g>
<g>
<title>byte[] (397 samples, 0.18%)</title><rect x="432.3" y="115.0" width="2.1" height="15" fill="#63d1d1" rx="2" ry="2"/>
<text x="435.3" y="126.0"></text>
</g>
<g>
<title>one/nio/http/Response.getHeader (222 samples, 0.10%)</title><rect x="434.4" y="147.0" width="1.2" height="15" fill="#68f968" rx="2" ry="2"/>
<text x="437.4" y="158.0"></text>
</g>
<g>
<title>java/lang/String.substring (222 samples, 0.10%)</title><rect x="434.4" y="131.0" width="1.2" height="15" fill="#5ced5c" rx="2" ry="2"/>
<text x="437.4" y="142.0"></text>
</g>
<g>
<title>java/lang/StringLatin1.newString (222 samples, 0.10%)</title><rect x="434.4" y="115.0" width="1.2" height="15" fill="#5eef5e" rx="2" ry="2"/>
<text x="437.4" y="126.0"></text>
</g>
<g>
<title>java.lang.String (100 samples, 0.04%)</title><rect x="434.4" y="99.0" width="0.5" height="15" fill="#5ecccc" rx="2" ry="2"/>
<text x="437.4" y="110.0"></text>
</g>
<g>
<title>java/util/Arrays.copyOfRange (122 samples, 0.05%)</title><rect x="434.9" y="99.0" width="0.7" height="15" fill="#63f463" rx="2" ry="2"/>
<text x="437.9" y="110.0"></text>
</g>
<g>
<title>byte[] (122 samples, 0.05%)</title><rect x="434.9" y="83.0" width="0.7" height="15" fill="#50bebe" rx="2" ry="2"/>
<text x="437.9" y="94.0"></text>
</g>
<g>
<title>one/nio/pool/Pool.returnObject (99 samples, 0.04%)</title><rect x="435.6" y="147.0" width="0.5" height="15" fill="#5ff05f" rx="2" ry="2"/>
<text x="438.6" y="158.0"></text>
</g>
<g>
<title>java/util/LinkedList.addFirst (99 samples, 0.04%)</title><rect x="435.6" y="131.0" width="0.5" height="15" fill="#5ced5c" rx="2" ry="2"/>
<text x="438.6" y="142.0"></text>
</g>
<g>
<title>java/util/LinkedList.linkFirst (99 samples, 0.04%)</title><rect x="435.6" y="115.0" width="0.5" height="15" fill="#68f968" rx="2" ry="2"/>
<text x="438.6" y="126.0"></text>
</g>
<g>
<title>java.util.LinkedList$Node (99 samples, 0.04%)</title><rect x="435.6" y="99.0" width="0.5" height="15" fill="#61cfcf" rx="2" ry="2"/>
<text x="438.6" y="110.0"></text>
</g>
<g>
<title>ru/mail/polis/service/kovalkov/SharedAsyncServiceImpl$$Lambda$82/44403649.run (64,313 samples, 28.88%)</title><rect x="436.1" y="227.0" width="340.8" height="15" fill="#57e857" rx="2" ry="2"/>
<text x="439.1" y="238.0">ru/mail/polis/service/kovalkov/SharedAsyncServ..</text>
</g>
<g>
<title>ru/mail/polis/service/kovalkov/SharedAsyncServiceImpl.lambda$asyncGet$2 (64,313 samples, 28.88%)</title><rect x="436.1" y="211.0" width="340.8" height="15" fill="#54e554" rx="2" ry="2"/>
<text x="439.1" y="222.0">ru/mail/polis/service/kovalkov/SharedAsyncServ..</text>
</g>
<g>
<title>ru/mail/polis/service/kovalkov/SharedAsyncServiceImpl.getInternal (64,313 samples, 28.88%)</title><rect x="436.1" y="195.0" width="340.8" height="15" fill="#57e857" rx="2" ry="2"/>
<text x="439.1" y="206.0">ru/mail/polis/service/kovalkov/SharedAsyncServ..</text>
</g>
<g>
<title>one/nio/http/HttpSession.sendResponse (18,614 samples, 8.36%)</title><rect x="436.1" y="179.0" width="98.6" height="15" fill="#69fa69" rx="2" ry="2"/>
<text x="439.1" y="190.0">one/nio/http..</text>
</g>
<g>
<title>one/nio/http/HttpSession.writeResponse (18,614 samples, 8.36%)</title><rect x="436.1" y="163.0" width="98.6" height="15" fill="#66f766" rx="2" ry="2"/>
<text x="439.1" y="174.0">one/nio/http..</text>
</g>
<g>
<title>one/nio/http/Response.toBytes (13,169 samples, 5.91%)</title><rect x="436.1" y="147.0" width="69.8" height="15" fill="#65f665" rx="2" ry="2"/>
<text x="439.1" y="158.0">one/nio..</text>
</g>
<g>
<title>one/nio/util/ByteArrayBuilder.&lt;init&gt; (13,169 samples, 5.91%)</title><rect x="436.1" y="131.0" width="69.8" height="15" fill="#59ea59" rx="2" ry="2"/>
<text x="439.1" y="142.0">one/nio..</text>
</g>
<g>
<title>byte[] (11,370 samples, 5.11%)</title><rect x="436.1" y="115.0" width="60.2" height="15" fill="#5fcdcd" rx="2" ry="2"/>
<text x="439.1" y="126.0">byte[]</text>
</g>
<g>
<title>byte[] (1,799 samples, 0.81%)</title><rect x="496.3" y="115.0" width="9.6" height="15" fill="#fc9800" rx="2" ry="2"/>
<text x="499.3" y="126.0"></text>
</g>
<g>
<title>one/nio/net/Session.write (5,445 samples, 2.45%)</title><rect x="505.9" y="147.0" width="28.8" height="15" fill="#63f463" rx="2" ry="2"/>
<text x="508.9" y="158.0">on..</text>
</g>
<g>
<title>one.nio.net.Session$ArrayQueueItem (5,445 samples, 2.45%)</title><rect x="505.9" y="131.0" width="28.8" height="15" fill="#56c4c4" rx="2" ry="2"/>
<text x="508.9" y="142.0">on..</text>
</g>
<g>
<title>one/nio/http/Response.ok (16,975 samples, 7.62%)</title><rect x="534.7" y="179.0" width="90.0" height="15" fill="#51e251" rx="2" ry="2"/>
<text x="537.7" y="190.0">one/nio/ht..</text>
</g>
<g>
<title>one.nio.http.Response (3,400 samples, 1.53%)</title><rect x="534.7" y="163.0" width="18.0" height="15" fill="#6ad8d8" rx="2" ry="2"/>
<text x="537.7" y="174.0"></text>
</g>
<g>
<title>one/nio/http/Response.&lt;init&gt; (13,575 samples, 6.10%)</title><rect x="552.7" y="163.0" width="72.0" height="15" fill="#6bfc6b" rx="2" ry="2"/>
<text x="555.7" y="174.0">one/nio/..</text>
</g>
<g>
<title>byte[] (5,719 samples, 2.57%)</title><rect x="552.7" y="147.0" width="30.3" height="15" fill="#6ddbdb" rx="2" ry="2"/>
<text x="555.7" y="158.0">by..</text>
</g>
<g>
<title>java.lang.String[] (4,598 samples, 2.06%)</title><rect x="583.0" y="147.0" width="24.4" height="15" fill="#51bfbf" rx="2" ry="2"/>
<text x="586.0" y="158.0">j..</text>
</g>
<g>
<title>java.lang.String (3,258 samples, 1.46%)</title><rect x="607.4" y="147.0" width="17.3" height="15" fill="#5fcdcd" rx="2" ry="2"/>
<text x="610.4" y="158.0"></text>
</g>
<g>
<title>ru/mail/polis/dao/kovalkov/DAOImpl.get (24,297 samples, 10.91%)</title><rect x="624.7" y="179.0" width="128.7" height="15" fill="#6afb6a" rx="2" ry="2"/>
<text x="627.7" y="190.0">ru/mail/polis/da..</text>
</g>
<g>
<title>java/nio/ByteBuffer.wrap (6,750 samples, 3.03%)</title><rect x="624.7" y="163.0" width="35.7" height="15" fill="#67f867" rx="2" ry="2"/>
<text x="627.7" y="174.0">jav..</text>
</g>
<g>
<title>java/nio/ByteBuffer.wrap (6,750 samples, 3.03%)</title><rect x="624.7" y="147.0" width="35.7" height="15" fill="#62f362" rx="2" ry="2"/>
<text x="627.7" y="158.0">jav..</text>
</g>
<g>
<title>java.nio.HeapByteBuffer (6,750 samples, 3.03%)</title><rect x="624.7" y="131.0" width="35.7" height="15" fill="#60cece" rx="2" ry="2"/>
<text x="627.7" y="142.0">jav..</text>
</g>
<g>
<title>org/rocksdb/RocksDB.get (4,493 samples, 2.02%)</title><rect x="660.4" y="163.0" width="23.9" height="15" fill="#61f261" rx="2" ry="2"/>
<text x="663.4" y="174.0">o..</text>
</g>
<g>
<title>org/rocksdb/RocksDB.get (4,493 samples, 2.02%)</title><rect x="660.4" y="147.0" width="23.9" height="15" fill="#50e150" rx="2" ry="2"/>
<text x="663.4" y="158.0">o..</text>
</g>
<g>
<title>byte[] (4,493 samples, 2.02%)</title><rect x="660.4" y="131.0" width="23.9" height="15" fill="#50bebe" rx="2" ry="2"/>
<text x="663.4" y="142.0">b..</text>
</g>
<g>
<title>ru/mail/polis/dao/kovalkov/utils/BufferConverter.convertBytes (13,054 samples, 5.86%)</title><rect x="684.3" y="163.0" width="69.1" height="15" fill="#51e251" rx="2" ry="2"/>
<text x="687.3" y="174.0">ru/mail..</text>
</g>
<g>
<title>ru/mail/polis/dao/kovalkov/utils/BufferConverter.unfoldToBytes (13,054 samples, 5.86%)</title><rect x="684.3" y="147.0" width="69.1" height="15" fill="#63f463" rx="2" ry="2"/>
<text x="687.3" y="158.0">ru/mail..</text>
</g>
<g>
<title>byte[] (4,813 samples, 2.16%)</title><rect x="684.3" y="131.0" width="25.5" height="15" fill="#51bfbf" rx="2" ry="2"/>
<text x="687.3" y="142.0">b..</text>
</g>
<g>
<title>java/nio/HeapByteBuffer.duplicate (8,241 samples, 3.70%)</title><rect x="709.8" y="131.0" width="43.6" height="15" fill="#61f261" rx="2" ry="2"/>
<text x="712.8" y="142.0">java..</text>
</g>
<g>
<title>java.nio.HeapByteBuffer (8,241 samples, 3.70%)</title><rect x="709.8" y="115.0" width="43.6" height="15" fill="#51bfbf" rx="2" ry="2"/>
<text x="712.8" y="126.0">java..</text>
</g>
<g>
<title>ru/mail/polis/dao/kovalkov/utils/BufferConverter.unfoldToBytes (4,427 samples, 1.99%)</title><rect x="753.4" y="179.0" width="23.5" height="15" fill="#69fa69" rx="2" ry="2"/>
<text x="756.4" y="190.0">r..</text>
</g>
<g>
<title>byte[] (4,427 samples, 1.99%)</title><rect x="753.4" y="163.0" width="23.5" height="15" fill="#55c3c3" rx="2" ry="2"/>
<text x="756.4" y="174.0">b..</text>
</g>
<g>
<title>one/nio/server/SelectorThread.run (77,961 samples, 35.01%)</title><rect x="776.9" y="275.0" width="413.1" height="15" fill="#59ea59" rx="2" ry="2"/>
<text x="779.9" y="286.0">one/nio/server/SelectorThread.run</text>
</g>
<g>
<title>one/nio/net/NativeSelector.select (2,470 samples, 1.11%)</title><rect x="776.9" y="259.0" width="13.1" height="15" fill="#6dfe6d" rx="2" ry="2"/>
<text x="779.9" y="270.0"></text>
</g>
<g>
<title>one.nio.net.NativeSelector$2 (2,470 samples, 1.11%)</title><rect x="776.9" y="243.0" width="13.1" height="15" fill="#5ccaca" rx="2" ry="2"/>
<text x="779.9" y="254.0"></text>
</g>
<g>
<title>one/nio/net/Session.process (75,491 samples, 33.90%)</title><rect x="790.0" y="259.0" width="400.0" height="15" fill="#55e655" rx="2" ry="2"/>
<text x="793.0" y="270.0">one/nio/net/Session.process</text>
</g>
<g>
<title>one/nio/http/HttpSession.processRead (75,491 samples, 33.90%)</title><rect x="790.0" y="243.0" width="400.0" height="15" fill="#66f766" rx="2" ry="2"/>
<text x="793.0" y="254.0">one/nio/http/HttpSession.processRead</text>
</g>
<g>
<title>one/nio/http/HttpSession.processHttpBuffer (75,491 samples, 33.90%)</title><rect x="790.0" y="227.0" width="400.0" height="15" fill="#53e453" rx="2" ry="2"/>
<text x="793.0" y="238.0">one/nio/http/HttpSession.processHttpBuffer</text>
</g>
<g>
<title>one/nio/http/HttpSession.handleParsedRequest (26,454 samples, 11.88%)</title><rect x="790.0" y="211.0" width="140.2" height="15" fill="#5ff05f" rx="2" ry="2"/>
<text x="793.0" y="222.0">one/nio/http/HttpS..</text>
</g>
<g>
<title>one/nio/http/HttpServer.handleRequest (26,454 samples, 11.88%)</title><rect x="790.0" y="195.0" width="140.2" height="15" fill="#58e958" rx="2" ry="2"/>
<text x="793.0" y="206.0">one/nio/http/HttpS..</text>
</g>
<g>
<title>RequestHandler1_entity.handleRequest (20,468 samples, 9.19%)</title><rect x="790.0" y="179.0" width="108.4" height="15" fill="#51e251" rx="2" ry="2"/>
<text x="793.0" y="190.0">RequestHandle..</text>
</g>
<g>
<title>one/nio/http/Request.getRequiredParameter (5,718 samples, 2.57%)</title><rect x="790.0" y="163.0" width="30.3" height="15" fill="#54e554" rx="2" ry="2"/>
<text x="793.0" y="174.0">on..</text>
</g>
<g>
<title>one/nio/http/Request.getParameter (5,718 samples, 2.57%)</title><rect x="790.0" y="147.0" width="30.3" height="15" fill="#5ff05f" rx="2" ry="2"/>
<text x="793.0" y="158.0">on..</text>
</g>
<g>
<title>java/lang/String.substring (5,718 samples, 2.57%)</title><rect x="790.0" y="131.0" width="30.3" height="15" fill="#52e352" rx="2" ry="2"/>
<text x="793.0" y="142.0">ja..</text>
</g>
<g>
<title>java/lang/StringLatin1.newString (5,718 samples, 2.57%)</title><rect x="790.0" y="115.0" width="30.3" height="15" fill="#50e150" rx="2" ry="2"/>
<text x="793.0" y="126.0">ja..</text>
</g>
<g>
<title>java.lang.String (2,512 samples, 1.13%)</title><rect x="790.0" y="99.0" width="13.3" height="15" fill="#5ccaca" rx="2" ry="2"/>
<text x="793.0" y="110.0"></text>
</g>
<g>
<title>java/util/Arrays.copyOfRange (3,206 samples, 1.44%)</title><rect x="803.3" y="99.0" width="17.0" height="15" fill="#52e352" rx="2" ry="2"/>
<text x="806.3" y="110.0"></text>
</g>
<g>
<title>byte[] (3,206 samples, 1.44%)</title><rect x="803.3" y="83.0" width="17.0" height="15" fill="#52c0c0" rx="2" ry="2"/>
<text x="806.3" y="94.0"></text>
</g>
<g>
<title>ru/mail/polis/service/kovalkov/SharedAsyncServiceImpl.entity (14,750 samples, 6.62%)</title><rect x="820.3" y="163.0" width="78.1" height="15" fill="#6cfd6c" rx="2" ry="2"/>
<text x="823.3" y="174.0">ru/mail/p..</text>
</g>
<g>
<title>java/lang/String.getBytes (3,296 samples, 1.48%)</title><rect x="820.3" y="147.0" width="17.4" height="15" fill="#6dfe6d" rx="2" ry="2"/>
<text x="823.3" y="158.0"></text>
</g>
<g>
<title>java/lang/StringCoding.encode (3,296 samples, 1.48%)</title><rect x="820.3" y="131.0" width="17.4" height="15" fill="#6afb6a" rx="2" ry="2"/>
<text x="823.3" y="142.0"></text>
</g>
<g>
<title>java/lang/StringCoding.encodeUTF8 (3,296 samples, 1.48%)</title><rect x="820.3" y="115.0" width="17.4" height="15" fill="#60f160" rx="2" ry="2"/>
<text x="823.3" y="126.0"></text>
</g>
<g>
<title>java/util/Arrays.copyOf (3,296 samples, 1.48%)</title><rect x="820.3" y="99.0" width="17.4" height="15" fill="#5ff05f" rx="2" ry="2"/>
<text x="823.3" y="110.0"></text>
</g>
<g>
<title>byte[] (3,296 samples, 1.48%)</title><rect x="820.3" y="83.0" width="17.4" height="15" fill="#5dcbcb" rx="2" ry="2"/>
<text x="823.3" y="94.0"></text>
</g>
<g>
<title>java/nio/ByteBuffer.wrap (5,039 samples, 2.26%)</title><rect x="837.7" y="147.0" width="26.7" height="15" fill="#61f261" rx="2" ry="2"/>
<text x="840.7" y="158.0">j..</text>
</g>
<g>
<title>java/nio/ByteBuffer.wrap (5,039 samples, 2.26%)</title><rect x="837.7" y="131.0" width="26.7" height="15" fill="#60f160" rx="2" ry="2"/>
<text x="840.7" y="142.0">j..</text>
</g>
<g>
<title>java.nio.HeapByteBuffer (5,039 samples, 2.26%)</title><rect x="837.7" y="115.0" width="26.7" height="15" fill="#5fcdcd" rx="2" ry="2"/>
<text x="840.7" y="126.0">j..</text>
</g>
<g>
<title>ru/mail/polis/service/kovalkov/SharedAsyncServiceImpl.asyncGet (1,989 samples, 0.89%)</title><rect x="864.4" y="147.0" width="10.6" height="15" fill="#56e756" rx="2" ry="2"/>
<text x="867.4" y="158.0"></text>
</g>
<g>
<title>java/lang/invoke/Invokers$Holder.linkToTargetMethod (1,946 samples, 0.87%)</title><rect x="864.4" y="131.0" width="10.4" height="15" fill="#61f261" rx="2" ry="2"/>
<text x="867.4" y="142.0"></text>
</g>
<g>
<title>java/lang/invoke/DirectMethodHandle$Holder.invokeStatic (1,946 samples, 0.87%)</title><rect x="864.4" y="115.0" width="10.4" height="15" fill="#52e352" rx="2" ry="2"/>
<text x="867.4" y="126.0"></text>
</g>
<g>
<title>ru/mail/polis/service/kovalkov/SharedAsyncServiceImpl$$Lambda$82/44403649.get$Lambda (1,946 samples, 0.87%)</title><rect x="864.4" y="99.0" width="10.4" height="15" fill="#58e958" rx="2" ry="2"/>
<text x="867.4" y="110.0"></text>
</g>
<g>
<title>ru.mail.polis.service.kovalkov.SharedAsyncServiceImpl$$Lambda$82 (1,946 samples, 0.87%)</title><rect x="864.4" y="83.0" width="10.4" height="15" fill="#5dcbcb" rx="2" ry="2"/>
<text x="867.4" y="94.0"></text>
</g>
<g>
<title>ru/mail/polis/service/kovalkov/SharedAsyncServiceImpl.checkIdAndReturnTargetNode (3,367 samples, 1.51%)</title><rect x="875.0" y="147.0" width="17.8" height="15" fill="#57e857" rx="2" ry="2"/>
<text x="878.0" y="158.0"></text>
</g>
<g>
<title>java/lang/String.getBytes (3,367 samples, 1.51%)</title><rect x="875.0" y="131.0" width="17.8" height="15" fill="#62f362" rx="2" ry="2"/>
<text x="878.0" y="142.0"></text>
</g>
<g>
<title>java/lang/StringCoding.encode (3,367 samples, 1.51%)</title><rect x="875.0" y="115.0" width="17.8" height="15" fill="#5dee5d" rx="2" ry="2"/>
<text x="878.0" y="126.0"></text>
</g>
<g>
<title>java/lang/StringCoding.encodeUTF8 (3,367 samples, 1.51%)</title><rect x="875.0" y="99.0" width="17.8" height="15" fill="#64f564" rx="2" ry="2"/>
<text x="878.0" y="110.0"></text>
</g>
<g>
<title>java/util/Arrays.copyOf (3,367 samples, 1.51%)</title><rect x="875.0" y="83.0" width="17.8" height="15" fill="#67f867" rx="2" ry="2"/>
<text x="878.0" y="94.0"></text>
</g>
<g>
<title>byte[] (3,367 samples, 1.51%)</title><rect x="875.0" y="67.0" width="17.8" height="15" fill="#56c4c4" rx="2" ry="2"/>
<text x="878.0" y="78.0"></text>
</g>
<g>
<title>ru/mail/polis/service/kovalkov/SharedAsyncServiceImpl.proxyForwarding (1,059 samples, 0.48%)</title><rect x="892.8" y="147.0" width="5.6" height="15" fill="#68f968" rx="2" ry="2"/>
<text x="895.8" y="158.0"></text>
</g>
<g>
<title>java/lang/invoke/Invokers$Holder.linkToTargetMethod (1,046 samples, 0.47%)</title><rect x="892.8" y="131.0" width="5.6" height="15" fill="#58e958" rx="2" ry="2"/>
<text x="895.8" y="142.0"></text>
</g>
<g>
<title>java/lang/invoke/DirectMethodHandle$Holder.invokeStatic (1,046 samples, 0.47%)</title><rect x="892.8" y="115.0" width="5.6" height="15" fill="#5eef5e" rx="2" ry="2"/>
<text x="895.8" y="126.0"></text>
</g>
<g>
<title>ru/mail/polis/service/kovalkov/SharedAsyncServiceImpl$$Lambda$78/1266216553.get$Lambda (1,046 samples, 0.47%)</title><rect x="892.8" y="99.0" width="5.6" height="15" fill="#69fa69" rx="2" ry="2"/>
<text x="895.8" y="110.0"></text>
</g>
<g>
<title>ru.mail.polis.service.kovalkov.SharedAsyncServiceImpl$$Lambda$78 (1,046 samples, 0.47%)</title><rect x="892.8" y="83.0" width="5.6" height="15" fill="#5ccaca" rx="2" ry="2"/>
<text x="895.8" y="94.0"></text>
</g>
<g>
<title>one/nio/http/Request.getPath (5,986 samples, 2.69%)</title><rect x="898.4" y="179.0" width="31.8" height="15" fill="#6dfe6d" rx="2" ry="2"/>
<text x="901.4" y="190.0">on..</text>
</g>
<g>
<title>java/lang/String.substring (5,986 samples, 2.69%)</title><rect x="898.4" y="163.0" width="31.8" height="15" fill="#6cfd6c" rx="2" ry="2"/>
<text x="901.4" y="174.0">ja..</text>
</g>
<g>
<title>java/lang/StringLatin1.newString (5,986 samples, 2.69%)</title><rect x="898.4" y="147.0" width="31.8" height="15" fill="#5dee5d" rx="2" ry="2"/>
<text x="901.4" y="158.0">ja..</text>
</g>
<g>
<title>java.lang.String (2,403 samples, 1.08%)</title><rect x="898.4" y="131.0" width="12.8" height="15" fill="#5ccaca" rx="2" ry="2"/>
<text x="901.4" y="142.0"></text>
</g>
<g>
<title>java/util/Arrays.copyOfRange (3,583 samples, 1.61%)</title><rect x="911.2" y="131.0" width="19.0" height="15" fill="#51e251" rx="2" ry="2"/>
<text x="914.2" y="142.0"></text>
</g>
<g>
<title>byte[] (3,583 samples, 1.61%)</title><rect x="911.2" y="115.0" width="19.0" height="15" fill="#5fcdcd" rx="2" ry="2"/>
<text x="914.2" y="126.0"></text>
</g>
<g>
<title>one/nio/http/HttpSession.parseRequest (26,917 samples, 12.09%)</title><rect x="930.2" y="211.0" width="142.6" height="15" fill="#5aeb5a" rx="2" ry="2"/>
<text x="933.2" y="222.0">one/nio/http/HttpS..</text>
</g>
<g>
<title>one.nio.http.Request (4,259 samples, 1.91%)</title><rect x="930.2" y="195.0" width="22.5" height="15" fill="#50bebe" rx="2" ry="2"/>
<text x="933.2" y="206.0">o..</text>
</g>
<g>
<title>one/nio/http/Request.&lt;init&gt; (8,399 samples, 3.77%)</title><rect x="952.7" y="195.0" width="44.5" height="15" fill="#5bec5b" rx="2" ry="2"/>
<text x="955.7" y="206.0">one/..</text>
</g>
<g>
<title>java.lang.String[] (8,397 samples, 3.77%)</title><rect x="952.7" y="179.0" width="44.5" height="15" fill="#6bd9d9" rx="2" ry="2"/>
<text x="955.7" y="190.0">java..</text>
</g>
<g>
<title>one/nio/util/Utf8.read (14,259 samples, 6.40%)</title><rect x="997.2" y="195.0" width="75.6" height="15" fill="#60f160" rx="2" ry="2"/>
<text x="1000.2" y="206.0">one/nio/..</text>
</g>
<g>
<title>one/nio/util/Utf8.read (14,259 samples, 6.40%)</title><rect x="997.2" y="179.0" width="75.6" height="15" fill="#69fa69" rx="2" ry="2"/>
<text x="1000.2" y="190.0">one/nio/..</text>
</g>
<g>
<title>char[] (7,780 samples, 3.49%)</title><rect x="997.2" y="163.0" width="41.3" height="15" fill="#5ecccc" rx="2" ry="2"/>
<text x="1000.2" y="174.0">cha..</text>
</g>
<g>
<title>java.lang.String (2,353 samples, 1.06%)</title><rect x="1038.5" y="163.0" width="12.4" height="15" fill="#52c0c0" rx="2" ry="2"/>
<text x="1041.5" y="174.0"></text>
</g>
<g>
<title>java/lang/String.&lt;init&gt; (4,126 samples, 1.85%)</title><rect x="1050.9" y="163.0" width="21.9" height="15" fill="#5aeb5a" rx="2" ry="2"/>
<text x="1053.9" y="174.0">j..</text>
</g>
<g>
<title>java/lang/String.&lt;init&gt; (4,126 samples, 1.85%)</title><rect x="1050.9" y="147.0" width="21.9" height="15" fill="#65f665" rx="2" ry="2"/>
<text x="1053.9" y="158.0">j..</text>
</g>
<g>
<title>java/lang/StringUTF16.compress (4,126 samples, 1.85%)</title><rect x="1050.9" y="131.0" width="21.9" height="15" fill="#64f564" rx="2" ry="2"/>
<text x="1053.9" y="142.0">j..</text>
</g>
<g>
<title>byte[] (4,126 samples, 1.85%)</title><rect x="1050.9" y="115.0" width="21.9" height="15" fill="#5dcbcb" rx="2" ry="2"/>
<text x="1053.9" y="126.0">b..</text>
</g>
<g>
<title>one/nio/util/Utf8.read (22,120 samples, 9.93%)</title><rect x="1072.8" y="211.0" width="117.2" height="15" fill="#50e150" rx="2" ry="2"/>
<text x="1075.8" y="222.0">one/nio/util/U..</text>
</g>
<g>
<title>one/nio/util/Utf8.read (22,120 samples, 9.93%)</title><rect x="1072.8" y="195.0" width="117.2" height="15" fill="#53e453" rx="2" ry="2"/>
<text x="1075.8" y="206.0">one/nio/util/U..</text>
</g>
<g>
<title>char[] (10,826 samples, 4.86%)</title><rect x="1072.8" y="179.0" width="57.4" height="15" fill="#65d3d3" rx="2" ry="2"/>
<text x="1075.8" y="190.0">char[]</text>
</g>
<g>
<title>java.lang.String (3,839 samples, 1.72%)</title><rect x="1130.3" y="179.0" width="20.4" height="15" fill="#62d0d0" rx="2" ry="2"/>
<text x="1133.3" y="190.0"></text>
</g>
<g>
<title>java/lang/String.&lt;init&gt; (7,423 samples, 3.33%)</title><rect x="1150.7" y="179.0" width="39.3" height="15" fill="#61f261" rx="2" ry="2"/>
<text x="1153.7" y="190.0">jav..</text>
</g>
<g>
<title>java/lang/String.&lt;init&gt; (7,423 samples, 3.33%)</title><rect x="1150.7" y="163.0" width="39.3" height="15" fill="#5bec5b" rx="2" ry="2"/>
<text x="1153.7" y="174.0">jav..</text>
</g>
<g>
<title>java/lang/StringUTF16.compress (7,423 samples, 3.33%)</title><rect x="1150.7" y="147.0" width="39.3" height="15" fill="#5ced5c" rx="2" ry="2"/>
<text x="1153.7" y="158.0">jav..</text>
</g>
<g>
<title>byte[] (7,423 samples, 3.33%)</title><rect x="1150.7" y="131.0" width="39.3" height="15" fill="#67d5d5" rx="2" ry="2"/>
<text x="1153.7" y="142.0">byt..</text>
</g>
</g>
</svg>
