<?xml version="1.0" standalone="no"?>
<!DOCTYPE svg PUBLIC "-//W3C//DTD SVG 1.1//EN" "http://www.w3.org/Graphics/SVG/1.1/DTD/svg11.dtd">
<svg version="1.1" width="1200" height="342" onload="init(evt)" viewBox="0 0 1200 342" xmlns="http://www.w3.org/2000/svg" xmlns:xlink="http://www.w3.org/1999/xlink">
<style type="text/css">
	text { font-family:Verdana; font-size:12px; fill:rgb(0,0,0); }
	#search { opacity:0.1; cursor:pointer; }
	#search:hover, #search.show { opacity:1; }
	#subtitle { text-anchor:middle; font-color:rgb(160,160,160); }
	#title { text-anchor:middle; font-size:17px}
	#unzoom { cursor:pointer; }
	#frames > *:hover { stroke:black; stroke-width:0.5; cursor:pointer; }
	.hide { display:none; }
	.parent { opacity:0.5; }
</style>
<script type="text/ecmascript">
<![CDATA[
	"use strict";
	var details, searchbtn, unzoombtn, matchedtxt, svg, searching;
	function init(evt) {
		details = document.getElementById("details").firstChild;
		searchbtn = document.getElementById("search");
		unzoombtn = document.getElementById("unzoom");
		matchedtxt = document.getElementById("matched");
		svg = document.getElementsByTagName("svg")[0];
		searching = 0;
	}

	window.addEventListener("click", function(e) {
		var target = find_group(e.target);
		if (target) {
			if (target.nodeName == "a") {
				if (e.ctrlKey === false) return;
				e.preventDefault();
			}
			if (target.classList.contains("parent")) unzoom();
			zoom(target);
		}
		else if (e.target.id == "unzoom") unzoom();
		else if (e.target.id == "search") search_prompt();
	}, false)

	// mouse-over for info
	// show
	window.addEventListener("mouseover", function(e) {
		var target = find_group(e.target);
		if (target) details.nodeValue = "Function: " + g_to_text(target);
	}, false)

	// clear
	window.addEventListener("mouseout", function(e) {
		var target = find_group(e.target);
		if (target) details.nodeValue = ' ';
	}, false)

	// ctrl-F for search
	window.addEventListener("keydown",function (e) {
		if (e.keyCode === 114 || (e.ctrlKey && e.keyCode === 70)) {
			e.preventDefault();
			search_prompt();
		}
	}, false)

	// functions
	function find_child(node, selector) {
		var children = node.querySelectorAll(selector);
		if (children.length) return children[0];
		return;
	}
	function find_group(node) {
		var parent = node.parentElement;
		if (!parent) return;
		if (parent.id == "frames") return node;
		return find_group(parent);
	}
	function orig_save(e, attr, val) {
		if (e.attributes["_orig_" + attr] != undefined) return;
		if (e.attributes[attr] == undefined) return;
		if (val == undefined) val = e.attributes[attr].value;
		e.setAttribute("_orig_" + attr, val);
	}
	function orig_load(e, attr) {
		if (e.attributes["_orig_"+attr] == undefined) return;
		e.attributes[attr].value = e.attributes["_orig_" + attr].value;
		e.removeAttribute("_orig_"+attr);
	}
	function g_to_text(e) {
		var text = find_child(e, "title").firstChild.nodeValue;
		return (text)
	}
	function g_to_func(e) {
		var func = g_to_text(e);
		// if there's any manipulation we want to do to the function
		// name before it's searched, do it here before returning.
		return (func);
	}
	function update_text(e) {
		var r = find_child(e, "rect");
		var t = find_child(e, "text");
		var w = parseFloat(r.attributes.width.value) -3;
		var txt = find_child(e, "title").textContent.replace(/\([^(]*\)$/,"");
		t.attributes.x.value = parseFloat(r.attributes.x.value) + 3;

		// Smaller than this size won't fit anything
		if (w < 2 * 12 * 0.59) {
			t.textContent = "";
			return;
		}

		t.textContent = txt;
		// Fit in full text width
		if (/^ *$/.test(txt) || t.getSubStringLength(0, txt.length) < w)
			return;

		for (var x = txt.length - 2; x > 0; x--) {
			if (t.getSubStringLength(0, x + 2) <= w) {
				t.textContent = txt.substring(0, x) + "..";
				return;
			}
		}
		t.textContent = "";
	}

	// zoom
	function zoom_reset(e) {
		if (e.attributes != undefined) {
			orig_load(e, "x");
			orig_load(e, "width");
		}
		if (e.childNodes == undefined) return;
		for (var i = 0, c = e.childNodes; i < c.length; i++) {
			zoom_reset(c[i]);
		}
	}
	function zoom_child(e, x, ratio) {
		if (e.attributes != undefined) {
			if (e.attributes.x != undefined) {
				orig_save(e, "x");
				e.attributes.x.value = (parseFloat(e.attributes.x.value) - x - 10) * ratio + 10;
				if (e.tagName == "text")
					e.attributes.x.value = find_child(e.parentNode, "rect[x]").attributes.x.value + 3;
			}
			if (e.attributes.width != undefined) {
				orig_save(e, "width");
				e.attributes.width.value = parseFloat(e.attributes.width.value) * ratio;
			}
		}

		if (e.childNodes == undefined) return;
		for (var i = 0, c = e.childNodes; i < c.length; i++) {
			zoom_child(c[i], x - 10, ratio);
		}
	}
	function zoom_parent(e) {
		if (e.attributes) {
			if (e.attributes.x != undefined) {
				orig_save(e, "x");
				e.attributes.x.value = 10;
			}
			if (e.attributes.width != undefined) {
				orig_save(e, "width");
				e.attributes.width.value = parseInt(svg.width.baseVal.value) - (10 * 2);
			}
		}
		if (e.childNodes == undefined) return;
		for (var i = 0, c = e.childNodes; i < c.length; i++) {
			zoom_parent(c[i]);
		}
	}
	function zoom(node) {
		var attr = find_child(node, "rect").attributes;
		var width = parseFloat(attr.width.value);
		var xmin = parseFloat(attr.x.value);
		var xmax = parseFloat(xmin + width);
		var ymin = parseFloat(attr.y.value);
		var ratio = (svg.width.baseVal.value - 2 * 10) / width;

		// XXX: Workaround for JavaScript float issues (fix me)
		var fudge = 0.0001;

		unzoombtn.classList.remove("hide");

		var el = document.getElementById("frames").children;
		for (var i = 0; i < el.length; i++) {
			var e = el[i];
			var a = find_child(e, "rect").attributes;
			var ex = parseFloat(a.x.value);
			var ew = parseFloat(a.width.value);
			var upstack;
			// Is it an ancestor
			if (0 == 0) {
				upstack = parseFloat(a.y.value) > ymin;
			} else {
				upstack = parseFloat(a.y.value) < ymin;
			}
			if (upstack) {
				// Direct ancestor
				if (ex <= xmin && (ex+ew+fudge) >= xmax) {
					e.classList.add("parent");
					zoom_parent(e);
					update_text(e);
				}
				// not in current path
				else
					e.classList.add("hide");
			}
			// Children maybe
			else {
				// no common path
				if (ex < xmin || ex + fudge >= xmax) {
					e.classList.add("hide");
				}
				else {
					zoom_child(e, xmin, ratio);
					update_text(e);
				}
			}
		}
	}
	function unzoom() {
		unzoombtn.classList.add("hide");
		var el = document.getElementById("frames").children;
		for(var i = 0; i < el.length; i++) {
			el[i].classList.remove("parent");
			el[i].classList.remove("hide");
			zoom_reset(el[i]);
			update_text(el[i]);
		}
	}

	// search
	function reset_search() {
		var el = document.querySelectorAll("#frames rect");
		for (var i = 0; i < el.length; i++) {
			orig_load(el[i], "fill")
		}
	}
	function search_prompt() {
		if (!searching) {
			var term = prompt("Enter a search term (regexp " +
			    "allowed, eg: ^ext4_)", "");
			if (term != null) {
				search(term)
			}
		} else {
			reset_search();
			searching = 0;
			searchbtn.classList.remove("show");
			searchbtn.firstChild.nodeValue = "Search"
			matchedtxt.classList.add("hide");
			matchedtxt.firstChild.nodeValue = ""
		}
	}
	function search(term) {
		var re = new RegExp(term);
		var el = document.getElementById("frames").children;
		var matches = new Object();
		var maxwidth = 0;
		for (var i = 0; i < el.length; i++) {
			var e = el[i];
			var func = g_to_func(e);
			var rect = find_child(e, "rect");
			if (func == null || rect == null)
				continue;

			// Save max width. Only works as we have a root frame
			var w = parseFloat(rect.attributes.width.value);
			if (w > maxwidth)
				maxwidth = w;

			if (func.match(re)) {
				// highlight
				var x = parseFloat(rect.attributes.x.value);
				orig_save(rect, "fill");
				rect.attributes.fill.value = "rgb(230,0,230)";

				// remember matches
				if (matches[x] == undefined) {
					matches[x] = w;
				} else {
					if (w > matches[x]) {
						// overwrite with parent
						matches[x] = w;
					}
				}
				searching = 1;
			}
		}
		if (!searching)
			return;

		searchbtn.classList.add("show");
		searchbtn.firstChild.nodeValue = "Reset Search";

		// calculate percent matched, excluding vertical overlap
		var count = 0;
		var lastx = -1;
		var lastw = 0;
		var keys = Array();
		for (k in matches) {
			if (matches.hasOwnProperty(k))
				keys.push(k);
		}
		// sort the matched frames by their x location
		// ascending, then width descending
		keys.sort(function(a, b){
			return a - b;
		});
		// Step through frames saving only the biggest bottom-up frames
		// thanks to the sort order. This relies on the tree property
		// where children are always smaller than their parents.
		var fudge = 0.0001;	// JavaScript floating point
		for (var k in keys) {
			var x = parseFloat(keys[k]);
			var w = matches[keys[k]];
			if (x >= lastx + lastw - fudge) {
				count += w;
				lastx = x;
				lastw = w;
			}
		}
		// display matched percent
		matchedtxt.classList.remove("hide");
		var pct = 100 * count / maxwidth;
		if (pct != 100) pct = pct.toFixed(1)
		matchedtxt.firstChild.nodeValue = "Matched: " + pct + "%";
	}
]]>
</script>
<rect x="0" y="0" width="100%" height="100%" fill="rgb(240,240,220)"/>
<text id="title" x="600" y="24">Flame Graph</text>
<text id="details" x="10" y="325"> </text>
<text id="unzoom" x="10" y="24" class="hide">Reset Zoom</text>
<text id="search" x="1090" y="24">Search</text>
<text id="matched" x="1090" y="325"> </text>
<g id="frames">
<g>
<title>all (294,932 samples, 100.00%)</title><rect x="10.0" y="291.0" width="1180.0" height="15" fill="#e15a5a" rx="2" ry="2"/>
<text x="13.0" y="302.0">all</text>
</g>
<g>
<title>java/lang/Thread.run (173,935 samples, 58.97%)</title><rect x="10.0" y="275.0" width="695.9" height="15" fill="#5bec5b" rx="2" ry="2"/>
<text x="13.0" y="286.0">java/lang/Thread.run</text>
</g>
<g>
<title>java/util/concurrent/ThreadPoolExecutor$Worker.run (173,935 samples, 58.97%)</title><rect x="10.0" y="259.0" width="695.9" height="15" fill="#5bec5b" rx="2" ry="2"/>
<text x="13.0" y="270.0">java/util/concurrent/ThreadPoolExecutor$Worker.run</text>
</g>
<g>
<title>java/util/concurrent/ThreadPoolExecutor.runWorker (173,935 samples, 58.97%)</title><rect x="10.0" y="243.0" width="695.9" height="15" fill="#6afb6a" rx="2" ry="2"/>
<text x="13.0" y="254.0">java/util/concurrent/ThreadPoolExecutor.runWorker</text>
</g>
<g>
<title>java/util/concurrent/ThreadPoolExecutor.getTask (8,469 samples, 2.87%)</title><rect x="10.0" y="227.0" width="33.9" height="15" fill="#64f564" rx="2" ry="2"/>
<text x="13.0" y="238.0">ja..</text>
</g>
<g>
<title>java/util/concurrent/ArrayBlockingQueue.take (8,469 samples, 2.87%)</title><rect x="10.0" y="211.0" width="33.9" height="15" fill="#56e756" rx="2" ry="2"/>
<text x="13.0" y="222.0">ja..</text>
</g>
<g>
<title>java/util/concurrent/locks/AbstractQueuedSynchronizer$ConditionObject.await (8,340 samples, 2.83%)</title><rect x="10.0" y="195.0" width="33.4" height="15" fill="#65f665" rx="2" ry="2"/>
<text x="13.0" y="206.0">ja..</text>
</g>
<g>
<title>java/util/concurrent/locks/AbstractQueuedSynchronizer$ConditionObject.addConditionWaiter (8,340 samples, 2.83%)</title><rect x="10.0" y="179.0" width="33.4" height="15" fill="#64f564" rx="2" ry="2"/>
<text x="13.0" y="190.0">ja..</text>
</g>
<g>
<title>java.util.concurrent.locks.AbstractQueuedSynchronizer$Node (8,340 samples, 2.83%)</title><rect x="10.0" y="163.0" width="33.4" height="15" fill="#53c1c1" rx="2" ry="2"/>
<text x="13.0" y="174.0">ja..</text>
</g>
<g>
<title>java/util/concurrent/locks/ReentrantLock.lockInterruptibly (129 samples, 0.04%)</title><rect x="43.4" y="195.0" width="0.5" height="15" fill="#50e150" rx="2" ry="2"/>
<text x="46.4" y="206.0"></text>
</g>
<g>
<title>java/util/concurrent/locks/AbstractQueuedSynchronizer.acquireInterruptibly (129 samples, 0.04%)</title><rect x="43.4" y="179.0" width="0.5" height="15" fill="#55e655" rx="2" ry="2"/>
<text x="46.4" y="190.0"></text>
</g>
<g>
<title>java/util/concurrent/locks/AbstractQueuedSynchronizer.doAcquireInterruptibly (129 samples, 0.04%)</title><rect x="43.4" y="163.0" width="0.5" height="15" fill="#51e251" rx="2" ry="2"/>
<text x="46.4" y="174.0"></text>
</g>
<g>
<title>java/util/concurrent/locks/AbstractQueuedSynchronizer.addWaiter (129 samples, 0.04%)</title><rect x="43.4" y="147.0" width="0.5" height="15" fill="#66f766" rx="2" ry="2"/>
<text x="46.4" y="158.0"></text>
</g>
<g>
<title>java.util.concurrent.locks.AbstractQueuedSynchronizer$Node (129 samples, 0.04%)</title><rect x="43.4" y="131.0" width="0.5" height="15" fill="#53c1c1" rx="2" ry="2"/>
<text x="46.4" y="142.0"></text>
</g>
<g>
<title>ru/mail/polis/service/kovalkov/SharedAsyncServiceImpl$$Lambda$75/1621478068.run (95,484 samples, 32.37%)</title><rect x="43.9" y="227.0" width="382.0" height="15" fill="#6dfe6d" rx="2" ry="2"/>
<text x="46.9" y="238.0">ru/mail/polis/service/kovalkov/SharedAsyncServiceImp..</text>
</g>
<g>
<title>ru/mail/polis/service/kovalkov/SharedAsyncServiceImpl.lambda$asyncPut$3 (95,484 samples, 32.37%)</title><rect x="43.9" y="211.0" width="382.0" height="15" fill="#50e150" rx="2" ry="2"/>
<text x="46.9" y="222.0">ru/mail/polis/service/kovalkov/SharedAsyncServiceImp..</text>
</g>
<g>
<title>ru/mail/polis/service/kovalkov/SharedAsyncServiceImpl.putInternal (95,484 samples, 32.37%)</title><rect x="43.9" y="195.0" width="382.0" height="15" fill="#58e958" rx="2" ry="2"/>
<text x="46.9" y="206.0">ru/mail/polis/service/kovalkov/SharedAsyncServiceImp..</text>
</g>
<g>
<title>one.nio.http.Response (5,524 samples, 1.87%)</title><rect x="43.9" y="179.0" width="22.1" height="15" fill="#68d6d6" rx="2" ry="2"/>
<text x="46.9" y="190.0">o..</text>
</g>
<g>
<title>one/nio/http/HttpSession.sendResponse (28,764 samples, 9.75%)</title><rect x="66.0" y="179.0" width="115.1" height="15" fill="#66f766" rx="2" ry="2"/>
<text x="69.0" y="190.0">one/nio/http/H..</text>
</g>
<g>
<title>one/nio/http/HttpSession.writeResponse (28,764 samples, 9.75%)</title><rect x="66.0" y="163.0" width="115.1" height="15" fill="#60f160" rx="2" ry="2"/>
<text x="69.0" y="174.0">one/nio/http/H..</text>
</g>
<g>
<title>one/nio/http/Response.toBytes (19,738 samples, 6.69%)</title><rect x="66.0" y="147.0" width="79.0" height="15" fill="#58e958" rx="2" ry="2"/>
<text x="69.0" y="158.0">one/nio/h..</text>
</g>
<g>
<title>one/nio/util/ByteArrayBuilder.&lt;init&gt; (19,738 samples, 6.69%)</title><rect x="66.0" y="131.0" width="79.0" height="15" fill="#69fa69" rx="2" ry="2"/>
<text x="69.0" y="142.0">one/nio/u..</text>
</g>
<g>
<title>byte[] (16,095 samples, 5.46%)</title><rect x="66.0" y="115.0" width="64.4" height="15" fill="#63d1d1" rx="2" ry="2"/>
<text x="69.0" y="126.0">byte[]</text>
</g>
<g>
<title>byte[] (3,643 samples, 1.24%)</title><rect x="130.4" y="115.0" width="14.6" height="15" fill="#f38f00" rx="2" ry="2"/>
<text x="133.4" y="126.0"></text>
</g>
<g>
<title>one/nio/net/Session.write (9,026 samples, 3.06%)</title><rect x="145.0" y="147.0" width="36.1" height="15" fill="#65f665" rx="2" ry="2"/>
<text x="148.0" y="158.0">one..</text>
</g>
<g>
<title>one.nio.net.Session$ArrayQueueItem (9,026 samples, 3.06%)</title><rect x="145.0" y="131.0" width="36.1" height="15" fill="#5fcdcd" rx="2" ry="2"/>
<text x="148.0" y="142.0">one..</text>
</g>
<g>
<title>one/nio/http/Response.&lt;init&gt; (22,075 samples, 7.48%)</title><rect x="181.1" y="179.0" width="88.3" height="15" fill="#67f867" rx="2" ry="2"/>
<text x="184.1" y="190.0">one/nio/ht..</text>
</g>
<g>
<title>byte[] (9,295 samples, 3.15%)</title><rect x="181.1" y="163.0" width="37.2" height="15" fill="#60cece" rx="2" ry="2"/>
<text x="184.1" y="174.0">byt..</text>
</g>
<g>
<title>java.lang.String[] (7,328 samples, 2.48%)</title><rect x="218.3" y="163.0" width="29.3" height="15" fill="#56c4c4" rx="2" ry="2"/>
<text x="221.3" y="174.0">ja..</text>
</g>
<g>
<title>java.lang.String (5,452 samples, 1.85%)</title><rect x="247.6" y="163.0" width="21.8" height="15" fill="#50bebe" rx="2" ry="2"/>
<text x="250.6" y="174.0">j..</text>
</g>
<g>
<title>ru/mail/polis/dao/kovalkov/DAOImpl.upsert (39,121 samples, 13.26%)</title><rect x="269.4" y="179.0" width="156.5" height="15" fill="#66f766" rx="2" ry="2"/>
<text x="272.4" y="190.0">ru/mail/polis/dao/ko..</text>
</g>
<g>
<title>ru/mail/polis/dao/kovalkov/DAOImpl.unfoldToBytes (18,317 samples, 6.21%)</title><rect x="269.4" y="163.0" width="73.3" height="15" fill="#56e756" rx="2" ry="2"/>
<text x="272.4" y="174.0">ru/mail/..</text>
</g>
<g>
<title>byte[] (7,347 samples, 2.49%)</title><rect x="269.4" y="147.0" width="29.4" height="15" fill="#5bc9c9" rx="2" ry="2"/>
<text x="272.4" y="158.0">by..</text>
</g>
<g>
<title>java/nio/HeapByteBuffer.duplicate (10,970 samples, 3.72%)</title><rect x="298.8" y="147.0" width="43.9" height="15" fill="#54e554" rx="2" ry="2"/>
<text x="301.8" y="158.0">java..</text>
</g>
<g>
<title>java.nio.HeapByteBuffer (10,970 samples, 3.72%)</title><rect x="298.8" y="131.0" width="43.9" height="15" fill="#52c0c0" rx="2" ry="2"/>
<text x="301.8" y="142.0">java..</text>
</g>
<g>
<title>ru/mail/polis/dao/kovalkov/utils/BufferConverter.convertBytes (20,804 samples, 7.05%)</title><rect x="342.7" y="163.0" width="83.2" height="15" fill="#51e251" rx="2" ry="2"/>
<text x="345.7" y="174.0">ru/mail/p..</text>
</g>
<g>
<title>ru/mail/polis/dao/kovalkov/utils/BufferConverter.unfoldToBytes (20,804 samples, 7.05%)</title><rect x="342.7" y="147.0" width="83.2" height="15" fill="#5aeb5a" rx="2" ry="2"/>
<text x="345.7" y="158.0">ru/mail/p..</text>
</g>
<g>
<title>byte[] (7,020 samples, 2.38%)</title><rect x="342.7" y="131.0" width="28.1" height="15" fill="#67d5d5" rx="2" ry="2"/>
<text x="345.7" y="142.0">by..</text>
</g>
<g>
<title>java/nio/HeapByteBuffer.duplicate (13,784 samples, 4.67%)</title><rect x="370.8" y="131.0" width="55.1" height="15" fill="#65f665" rx="2" ry="2"/>
<text x="373.8" y="142.0">java/..</text>
</g>
<g>
<title>java.nio.HeapByteBuffer (13,784 samples, 4.67%)</title><rect x="370.8" y="115.0" width="55.1" height="15" fill="#5dcbcb" rx="2" ry="2"/>
<text x="373.8" y="126.0">java...</text>
</g>
<g>
<title>ru/mail/polis/service/kovalkov/SharedAsyncServiceImpl$$Lambda$76/128399682.run (69,982 samples, 23.73%)</title><rect x="425.9" y="227.0" width="280.0" height="15" fill="#68f968" rx="2" ry="2"/>
<text x="428.9" y="238.0">ru/mail/polis/service/kovalkov/Shared..</text>
</g>
<g>
<title>ru/mail/polis/service/kovalkov/SharedAsyncServiceImpl.lambda$proxyForwarding$1 (69,982 samples, 23.73%)</title><rect x="425.9" y="211.0" width="280.0" height="15" fill="#6bfc6b" rx="2" ry="2"/>
<text x="428.9" y="222.0">ru/mail/polis/service/kovalkov/Shared..</text>
</g>
<g>
<title>one/nio/http/HttpSession.sendResponse (980 samples, 0.33%)</title><rect x="425.9" y="195.0" width="3.9" height="15" fill="#5ff05f" rx="2" ry="2"/>
<text x="428.9" y="206.0"></text>
</g>
<g>
<title>one/nio/http/HttpSession.writeResponse (980 samples, 0.33%)</title><rect x="425.9" y="179.0" width="3.9" height="15" fill="#60f160" rx="2" ry="2"/>
<text x="428.9" y="190.0"></text>
</g>
<g>
<title>one/nio/http/Response.toBytes (713 samples, 0.24%)</title><rect x="425.9" y="163.0" width="2.9" height="15" fill="#51e251" rx="2" ry="2"/>
<text x="428.9" y="174.0"></text>
</g>
<g>
<title>one/nio/util/ByteArrayBuilder.&lt;init&gt; (713 samples, 0.24%)</title><rect x="425.9" y="147.0" width="2.9" height="15" fill="#5eef5e" rx="2" ry="2"/>
<text x="428.9" y="158.0"></text>
</g>
<g>
<title>byte[] (713 samples, 0.24%)</title><rect x="425.9" y="131.0" width="2.9" height="15" fill="#61cfcf" rx="2" ry="2"/>
<text x="428.9" y="142.0"></text>
</g>
<g>
<title>one/nio/net/Session.write (267 samples, 0.09%)</title><rect x="428.8" y="163.0" width="1.0" height="15" fill="#59ea59" rx="2" ry="2"/>
<text x="431.8" y="174.0"></text>
</g>
<g>
<title>one.nio.net.Session$ArrayQueueItem (267 samples, 0.09%)</title><rect x="428.8" y="147.0" width="1.0" height="15" fill="#58c6c6" rx="2" ry="2"/>
<text x="431.8" y="158.0"></text>
</g>
<g>
<title>ru/mail/polis/service/kovalkov/SharedAsyncServiceImpl.proxy (69,002 samples, 23.40%)</title><rect x="429.8" y="195.0" width="276.1" height="15" fill="#59ea59" rx="2" ry="2"/>
<text x="432.8" y="206.0">ru/mail/polis/service/kovalkov/Shared..</text>
</g>
<g>
<title>java/lang/invoke/Invokers$Holder.linkToTargetMethod (691 samples, 0.23%)</title><rect x="429.8" y="179.0" width="2.8" height="15" fill="#69fa69" rx="2" ry="2"/>
<text x="432.8" y="190.0"></text>
</g>
<g>
<title>java/lang/invoke/LambdaForm$MH/377478451.invoke (691 samples, 0.23%)</title><rect x="429.8" y="163.0" width="2.8" height="15" fill="#60f160" rx="2" ry="2"/>
<text x="432.8" y="174.0"></text>
</g>
<g>
<title>java/lang/invoke/DirectMethodHandle$Holder.invokeStatic (691 samples, 0.23%)</title><rect x="429.8" y="147.0" width="2.8" height="15" fill="#55e655" rx="2" ry="2"/>
<text x="432.8" y="158.0"></text>
</g>
<g>
<title>java/lang/StringConcatHelper.newString (184 samples, 0.06%)</title><rect x="429.8" y="131.0" width="0.8" height="15" fill="#5ff05f" rx="2" ry="2"/>
<text x="432.8" y="142.0"></text>
</g>
<g>
<title>java.lang.String (184 samples, 0.06%)</title><rect x="429.8" y="115.0" width="0.8" height="15" fill="#55c3c3" rx="2" ry="2"/>
<text x="432.8" y="126.0"></text>
</g>
<g>
<title>java/lang/invoke/StringConcatFactory$MethodHandleInlineCopyStrategy.newArray (507 samples, 0.17%)</title><rect x="430.6" y="131.0" width="2.0" height="15" fill="#6afb6a" rx="2" ry="2"/>
<text x="433.6" y="142.0"></text>
</g>
<g>
<title>jdk/internal/misc/Unsafe.allocateUninitializedArray (507 samples, 0.17%)</title><rect x="430.6" y="115.0" width="2.0" height="15" fill="#51e251" rx="2" ry="2"/>
<text x="433.6" y="126.0"></text>
</g>
<g>
<title>byte[] (507 samples, 0.17%)</title><rect x="430.6" y="99.0" width="2.0" height="15" fill="#6cdada" rx="2" ry="2"/>
<text x="433.6" y="110.0"></text>
</g>
<g>
<title>one/nio/http/HttpClient.invoke (68,311 samples, 23.16%)</title><rect x="432.6" y="179.0" width="273.3" height="15" fill="#5ced5c" rx="2" ry="2"/>
<text x="435.6" y="190.0">one/nio/http/HttpClient.invoke</text>
</g>
<g>
<title>one/nio/http/HttpClient.invoke (68,311 samples, 23.16%)</title><rect x="432.6" y="163.0" width="273.3" height="15" fill="#57e857" rx="2" ry="2"/>
<text x="435.6" y="174.0">one/nio/http/HttpClient.invoke</text>
</g>
<g>
<title>one.nio.http.HttpClient$ResponseReader (347 samples, 0.12%)</title><rect x="432.6" y="147.0" width="1.4" height="15" fill="#6cdada" rx="2" ry="2"/>
<text x="435.6" y="158.0"></text>
</g>
<g>
<title>one/nio/http/HttpClient$ResponseReader.&lt;init&gt; (61,763 samples, 20.94%)</title><rect x="434.0" y="147.0" width="247.1" height="15" fill="#55e655" rx="2" ry="2"/>
<text x="437.0" y="158.0">one/nio/http/HttpClient$ResponseR..</text>
</g>
<g>
<title>byte[] (35,264 samples, 11.96%)</title><rect x="434.0" y="131.0" width="141.1" height="15" fill="#5dcbcb" rx="2" ry="2"/>
<text x="437.0" y="142.0">byte[]</text>
</g>
<g>
<title>byte[] (26,499 samples, 8.98%)</title><rect x="575.1" y="131.0" width="106.0" height="15" fill="#eb8700" rx="2" ry="2"/>
<text x="578.1" y="142.0">byte[]</text>
</g>
<g>
<title>one/nio/http/HttpClient$ResponseReader.readResponse (4,630 samples, 1.57%)</title><rect x="681.1" y="147.0" width="18.5" height="15" fill="#59ea59" rx="2" ry="2"/>
<text x="684.1" y="158.0"></text>
</g>
<g>
<title>byte[] (90 samples, 0.03%)</title><rect x="681.1" y="131.0" width="0.4" height="15" fill="#5fcdcd" rx="2" ry="2"/>
<text x="684.1" y="142.0"></text>
</g>
<g>
<title>java/lang/String.substring (227 samples, 0.08%)</title><rect x="681.5" y="131.0" width="0.9" height="15" fill="#5bec5b" rx="2" ry="2"/>
<text x="684.5" y="142.0"></text>
</g>
<g>
<title>java/lang/StringLatin1.newString (227 samples, 0.08%)</title><rect x="681.5" y="115.0" width="0.9" height="15" fill="#63f463" rx="2" ry="2"/>
<text x="684.5" y="126.0"></text>
</g>
<g>
<title>java.lang.String (90 samples, 0.03%)</title><rect x="681.5" y="99.0" width="0.3" height="15" fill="#59c7c7" rx="2" ry="2"/>
<text x="684.5" y="110.0"></text>
</g>
<g>
<title>java/util/Arrays.copyOfRange (137 samples, 0.05%)</title><rect x="681.8" y="99.0" width="0.6" height="15" fill="#53e453" rx="2" ry="2"/>
<text x="684.8" y="110.0"></text>
</g>
<g>
<title>byte[] (137 samples, 0.05%)</title><rect x="681.8" y="83.0" width="0.6" height="15" fill="#53c1c1" rx="2" ry="2"/>
<text x="684.8" y="94.0"></text>
</g>
<g>
<title>one.nio.http.Response (70 samples, 0.02%)</title><rect x="682.4" y="131.0" width="0.2" height="15" fill="#53c1c1" rx="2" ry="2"/>
<text x="685.4" y="142.0"></text>
</g>
<g>
<title>one/nio/http/HttpClient$ResponseReader.readLine (3,866 samples, 1.31%)</title><rect x="682.6" y="131.0" width="15.5" height="15" fill="#51e251" rx="2" ry="2"/>
<text x="685.6" y="142.0"></text>
</g>
<g>
<title>one/nio/util/Utf8.read (3,866 samples, 1.31%)</title><rect x="682.6" y="115.0" width="15.5" height="15" fill="#63f463" rx="2" ry="2"/>
<text x="685.6" y="126.0"></text>
</g>
<g>
<title>one/nio/util/Utf8.read (3,866 samples, 1.31%)</title><rect x="682.6" y="99.0" width="15.5" height="15" fill="#64f564" rx="2" ry="2"/>
<text x="685.6" y="110.0"></text>
</g>
<g>
<title>char[] (2,808 samples, 0.95%)</title><rect x="682.6" y="83.0" width="11.3" height="15" fill="#52c0c0" rx="2" ry="2"/>
<text x="685.6" y="94.0"></text>
</g>
<g>
<title>java.lang.String (459 samples, 0.16%)</title><rect x="693.9" y="83.0" width="1.8" height="15" fill="#53c1c1" rx="2" ry="2"/>
<text x="696.9" y="94.0"></text>
</g>
<g>
<title>java/lang/String.&lt;init&gt; (599 samples, 0.20%)</title><rect x="695.7" y="83.0" width="2.4" height="15" fill="#58e958" rx="2" ry="2"/>
<text x="698.7" y="94.0"></text>
</g>
<g>
<title>java/lang/String.&lt;init&gt; (599 samples, 0.20%)</title><rect x="695.7" y="67.0" width="2.4" height="15" fill="#5bec5b" rx="2" ry="2"/>
<text x="698.7" y="78.0"></text>
</g>
<g>
<title>java/lang/StringUTF16.compress (599 samples, 0.20%)</title><rect x="695.7" y="51.0" width="2.4" height="15" fill="#5ced5c" rx="2" ry="2"/>
<text x="698.7" y="62.0"></text>
</g>
<g>
<title>byte[] (599 samples, 0.20%)</title><rect x="695.7" y="35.0" width="2.4" height="15" fill="#61cfcf" rx="2" ry="2"/>
<text x="698.7" y="46.0"></text>
</g>
<g>
<title>one/nio/http/Response.&lt;init&gt; (136 samples, 0.05%)</title><rect x="698.1" y="131.0" width="0.6" height="15" fill="#57e857" rx="2" ry="2"/>
<text x="701.1" y="142.0"></text>
</g>
<g>
<title>java.lang.String[] (136 samples, 0.05%)</title><rect x="698.1" y="115.0" width="0.6" height="15" fill="#6ddbdb" rx="2" ry="2"/>
<text x="701.1" y="126.0"></text>
</g>
<g>
<title>one/nio/http/Response.getHeader (241 samples, 0.08%)</title><rect x="698.7" y="131.0" width="0.9" height="15" fill="#66f766" rx="2" ry="2"/>
<text x="701.7" y="142.0"></text>
</g>
<g>
<title>java/lang/String.substring (241 samples, 0.08%)</title><rect x="698.7" y="115.0" width="0.9" height="15" fill="#67f867" rx="2" ry="2"/>
<text x="701.7" y="126.0"></text>
</g>
<g>
<title>java/lang/StringLatin1.newString (241 samples, 0.08%)</title><rect x="698.7" y="99.0" width="0.9" height="15" fill="#54e554" rx="2" ry="2"/>
<text x="701.7" y="110.0"></text>
</g>
<g>
<title>java.lang.String (129 samples, 0.04%)</title><rect x="698.7" y="83.0" width="0.5" height="15" fill="#62d0d0" rx="2" ry="2"/>
<text x="701.7" y="94.0"></text>
</g>
<g>
<title>java/util/Arrays.copyOfRange (112 samples, 0.04%)</title><rect x="699.2" y="83.0" width="0.4" height="15" fill="#68f968" rx="2" ry="2"/>
<text x="702.2" y="94.0"></text>
</g>
<g>
<title>byte[] (112 samples, 0.04%)</title><rect x="699.2" y="67.0" width="0.4" height="15" fill="#53c1c1" rx="2" ry="2"/>
<text x="702.2" y="78.0"></text>
</g>
<g>
<title>one/nio/http/Request.toBytes (1,055 samples, 0.36%)</title><rect x="699.6" y="147.0" width="4.2" height="15" fill="#51e251" rx="2" ry="2"/>
<text x="702.6" y="158.0"></text>
</g>
<g>
<title>one/nio/util/ByteArrayBuilder.&lt;init&gt; (1,055 samples, 0.36%)</title><rect x="699.6" y="131.0" width="4.2" height="15" fill="#51e251" rx="2" ry="2"/>
<text x="702.6" y="142.0"></text>
</g>
<g>
<title>byte[] (1,055 samples, 0.36%)</title><rect x="699.6" y="115.0" width="4.2" height="15" fill="#52c0c0" rx="2" ry="2"/>
<text x="702.6" y="126.0"></text>
</g>
<g>
<title>one/nio/http/Response.getHeader (343 samples, 0.12%)</title><rect x="703.8" y="147.0" width="1.4" height="15" fill="#56e756" rx="2" ry="2"/>
<text x="706.8" y="158.0"></text>
</g>
<g>
<title>java/lang/String.substring (343 samples, 0.12%)</title><rect x="703.8" y="131.0" width="1.4" height="15" fill="#5ff05f" rx="2" ry="2"/>
<text x="706.8" y="142.0"></text>
</g>
<g>
<title>java/lang/StringLatin1.newString (343 samples, 0.12%)</title><rect x="703.8" y="115.0" width="1.4" height="15" fill="#5ced5c" rx="2" ry="2"/>
<text x="706.8" y="126.0"></text>
</g>
<g>
<title>java.lang.String (137 samples, 0.05%)</title><rect x="703.8" y="99.0" width="0.6" height="15" fill="#60cece" rx="2" ry="2"/>
<text x="706.8" y="110.0"></text>
</g>
<g>
<title>java/util/Arrays.copyOfRange (206 samples, 0.07%)</title><rect x="704.4" y="99.0" width="0.8" height="15" fill="#51e251" rx="2" ry="2"/>
<text x="707.4" y="110.0"></text>
</g>
<g>
<title>byte[] (206 samples, 0.07%)</title><rect x="704.4" y="83.0" width="0.8" height="15" fill="#67d5d5" rx="2" ry="2"/>
<text x="707.4" y="94.0"></text>
</g>
<g>
<title>one/nio/pool/Pool.returnObject (173 samples, 0.06%)</title><rect x="705.2" y="147.0" width="0.7" height="15" fill="#55e655" rx="2" ry="2"/>
<text x="708.2" y="158.0"></text>
</g>
<g>
<title>java/util/LinkedList.addFirst (173 samples, 0.06%)</title><rect x="705.2" y="131.0" width="0.7" height="15" fill="#5bec5b" rx="2" ry="2"/>
<text x="708.2" y="142.0"></text>
</g>
<g>
<title>java/util/LinkedList.linkFirst (173 samples, 0.06%)</title><rect x="705.2" y="115.0" width="0.7" height="15" fill="#6bfc6b" rx="2" ry="2"/>
<text x="708.2" y="126.0"></text>
</g>
<g>
<title>java.util.LinkedList$Node (173 samples, 0.06%)</title><rect x="705.2" y="99.0" width="0.7" height="15" fill="#59c7c7" rx="2" ry="2"/>
<text x="708.2" y="110.0"></text>
</g>
<g>
<title>one/nio/server/SelectorThread.run (120,997 samples, 41.03%)</title><rect x="705.9" y="275.0" width="484.1" height="15" fill="#5ff05f" rx="2" ry="2"/>
<text x="708.9" y="286.0">one/nio/server/SelectorThread.run</text>
</g>
<g>
<title>one/nio/net/NativeSelector.select (3,975 samples, 1.35%)</title><rect x="705.9" y="259.0" width="15.9" height="15" fill="#6cfd6c" rx="2" ry="2"/>
<text x="708.9" y="270.0"></text>
</g>
<g>
<title>one.nio.net.NativeSelector$2 (3,975 samples, 1.35%)</title><rect x="705.9" y="243.0" width="15.9" height="15" fill="#6cdada" rx="2" ry="2"/>
<text x="708.9" y="254.0"></text>
</g>
<g>
<title>one/nio/net/Session.process (117,022 samples, 39.68%)</title><rect x="721.8" y="259.0" width="468.2" height="15" fill="#55e655" rx="2" ry="2"/>
<text x="724.8" y="270.0">one/nio/net/Session.process</text>
</g>
<g>
<title>one/nio/http/HttpSession.processRead (117,022 samples, 39.68%)</title><rect x="721.8" y="243.0" width="468.2" height="15" fill="#50e150" rx="2" ry="2"/>
<text x="724.8" y="254.0">one/nio/http/HttpSession.processRead</text>
</g>
<g>
<title>one/nio/http/HttpSession.processHttpBuffer (117,022 samples, 39.68%)</title><rect x="721.8" y="227.0" width="468.2" height="15" fill="#52e352" rx="2" ry="2"/>
<text x="724.8" y="238.0">one/nio/http/HttpSession.processHttpBuffer</text>
</g>
<g>
<title>one/nio/http/HttpSession.handleParsedRequest (47,544 samples, 16.12%)</title><rect x="721.8" y="211.0" width="190.2" height="15" fill="#5eef5e" rx="2" ry="2"/>
<text x="724.8" y="222.0">one/nio/http/HttpSession...</text>
</g>
<g>
<title>one/nio/http/HttpServer.handleRequest (47,544 samples, 16.12%)</title><rect x="721.8" y="195.0" width="190.2" height="15" fill="#5ced5c" rx="2" ry="2"/>
<text x="724.8" y="206.0">one/nio/http/HttpServer.h..</text>
</g>
<g>
<title>RequestHandler1_entity.handleRequest (41,969 samples, 14.23%)</title><rect x="721.8" y="179.0" width="167.9" height="15" fill="#5eef5e" rx="2" ry="2"/>
<text x="724.8" y="190.0">RequestHandler1_entit..</text>
</g>
<g>
<title>one/nio/http/Request.getRequiredParameter (5,748 samples, 1.95%)</title><rect x="721.8" y="163.0" width="23.0" height="15" fill="#51e251" rx="2" ry="2"/>
<text x="724.8" y="174.0">o..</text>
</g>
<g>
<title>one/nio/http/Request.getParameter (5,748 samples, 1.95%)</title><rect x="721.8" y="147.0" width="23.0" height="15" fill="#63f463" rx="2" ry="2"/>
<text x="724.8" y="158.0">o..</text>
</g>
<g>
<title>java/lang/String.substring (5,748 samples, 1.95%)</title><rect x="721.8" y="131.0" width="23.0" height="15" fill="#5eef5e" rx="2" ry="2"/>
<text x="724.8" y="142.0">j..</text>
</g>
<g>
<title>java/lang/StringLatin1.newString (5,748 samples, 1.95%)</title><rect x="721.8" y="115.0" width="23.0" height="15" fill="#68f968" rx="2" ry="2"/>
<text x="724.8" y="126.0">j..</text>
</g>
<g>
<title>java.lang.String (2,453 samples, 0.83%)</title><rect x="721.8" y="99.0" width="9.8" height="15" fill="#5ccaca" rx="2" ry="2"/>
<text x="724.8" y="110.0"></text>
</g>
<g>
<title>java/util/Arrays.copyOfRange (3,295 samples, 1.12%)</title><rect x="731.6" y="99.0" width="13.2" height="15" fill="#62f362" rx="2" ry="2"/>
<text x="734.6" y="110.0"></text>
</g>
<g>
<title>byte[] (3,295 samples, 1.12%)</title><rect x="731.6" y="83.0" width="13.2" height="15" fill="#5dcbcb" rx="2" ry="2"/>
<text x="734.6" y="94.0"></text>
</g>
<g>
<title>ru/mail/polis/service/kovalkov/SharedAsyncServiceImpl.entity (36,221 samples, 12.28%)</title><rect x="744.8" y="163.0" width="144.9" height="15" fill="#57e857" rx="2" ry="2"/>
<text x="747.8" y="174.0">ru/mail/polis/serv..</text>
</g>
<g>
<title>java/lang/String.getBytes (3,217 samples, 1.09%)</title><rect x="744.8" y="147.0" width="12.9" height="15" fill="#65f665" rx="2" ry="2"/>
<text x="747.8" y="158.0"></text>
</g>
<g>
<title>java/lang/StringCoding.encode (3,217 samples, 1.09%)</title><rect x="744.8" y="131.0" width="12.9" height="15" fill="#5eef5e" rx="2" ry="2"/>
<text x="747.8" y="142.0"></text>
</g>
<g>
<title>java/lang/StringCoding.encodeUTF8 (3,217 samples, 1.09%)</title><rect x="744.8" y="115.0" width="12.9" height="15" fill="#59ea59" rx="2" ry="2"/>
<text x="747.8" y="126.0"></text>
</g>
<g>
<title>java/util/Arrays.copyOf (3,217 samples, 1.09%)</title><rect x="744.8" y="99.0" width="12.9" height="15" fill="#68f968" rx="2" ry="2"/>
<text x="747.8" y="110.0"></text>
</g>
<g>
<title>byte[] (3,217 samples, 1.09%)</title><rect x="744.8" y="83.0" width="12.9" height="15" fill="#65d3d3" rx="2" ry="2"/>
<text x="747.8" y="94.0"></text>
</g>
<g>
<title>java/nio/ByteBuffer.wrap (5,130 samples, 1.74%)</title><rect x="757.7" y="147.0" width="20.5" height="15" fill="#68f968" rx="2" ry="2"/>
<text x="760.7" y="158.0"></text>
</g>
<g>
<title>java/nio/ByteBuffer.wrap (5,130 samples, 1.74%)</title><rect x="757.7" y="131.0" width="20.5" height="15" fill="#56e756" rx="2" ry="2"/>
<text x="760.7" y="142.0"></text>
</g>
<g>
<title>java.nio.HeapByteBuffer (5,130 samples, 1.74%)</title><rect x="757.7" y="115.0" width="20.5" height="15" fill="#57c5c5" rx="2" ry="2"/>
<text x="760.7" y="126.0"></text>
</g>
<g>
<title>ru/mail/polis/service/kovalkov/SharedAsyncServiceImpl.asyncPut (1,914 samples, 0.65%)</title><rect x="778.2" y="147.0" width="7.7" height="15" fill="#69fa69" rx="2" ry="2"/>
<text x="781.2" y="158.0"></text>
</g>
<g>
<title>java/lang/invoke/Invokers$Holder.linkToTargetMethod (1,886 samples, 0.64%)</title><rect x="778.2" y="131.0" width="7.5" height="15" fill="#50e150" rx="2" ry="2"/>
<text x="781.2" y="142.0"></text>
</g>
<g>
<title>java/lang/invoke/DirectMethodHandle$Holder.invokeStatic (1,886 samples, 0.64%)</title><rect x="778.2" y="115.0" width="7.5" height="15" fill="#5dee5d" rx="2" ry="2"/>
<text x="781.2" y="126.0"></text>
</g>
<g>
<title>ru/mail/polis/service/kovalkov/SharedAsyncServiceImpl$$Lambda$75/1621478068.get$Lambda (1,886 samples, 0.64%)</title><rect x="778.2" y="99.0" width="7.5" height="15" fill="#56e756" rx="2" ry="2"/>
<text x="781.2" y="110.0"></text>
</g>
<g>
<title>ru.mail.polis.service.kovalkov.SharedAsyncServiceImpl$$Lambda$75 (1,886 samples, 0.64%)</title><rect x="778.2" y="83.0" width="7.5" height="15" fill="#6bd9d9" rx="2" ry="2"/>
<text x="781.2" y="94.0"></text>
</g>
<g>
<title>ru/mail/polis/service/kovalkov/SharedAsyncServiceImpl.checkIdAndReturnTargetNode (24,689 samples, 8.37%)</title><rect x="785.9" y="147.0" width="98.7" height="15" fill="#66f766" rx="2" ry="2"/>
<text x="788.9" y="158.0">ru/mail/poli..</text>
</g>
<g>
<title>java/lang/String.getBytes (3,120 samples, 1.06%)</title><rect x="785.9" y="131.0" width="12.4" height="15" fill="#65f665" rx="2" ry="2"/>
<text x="788.9" y="142.0"></text>
</g>
<g>
<title>java/lang/StringCoding.encode (3,120 samples, 1.06%)</title><rect x="785.9" y="115.0" width="12.4" height="15" fill="#6afb6a" rx="2" ry="2"/>
<text x="788.9" y="126.0"></text>
</g>
<g>
<title>java/lang/StringCoding.encodeUTF8 (3,120 samples, 1.06%)</title><rect x="785.9" y="99.0" width="12.4" height="15" fill="#64f564" rx="2" ry="2"/>
<text x="788.9" y="110.0"></text>
</g>
<g>
<title>java/util/Arrays.copyOf (3,120 samples, 1.06%)</title><rect x="785.9" y="83.0" width="12.4" height="15" fill="#6bfc6b" rx="2" ry="2"/>
<text x="788.9" y="94.0"></text>
</g>
<g>
<title>byte[] (3,120 samples, 1.06%)</title><rect x="785.9" y="67.0" width="12.4" height="15" fill="#6bd9d9" rx="2" ry="2"/>
<text x="788.9" y="78.0"></text>
</g>
<g>
<title>ru/mail/polis/service/kovalkov/RendezvousHashingImpl.identifyByKey (21,569 samples, 7.31%)</title><rect x="798.3" y="131.0" width="86.3" height="15" fill="#67f867" rx="2" ry="2"/>
<text x="801.3" y="142.0">ru/mail/po..</text>
</g>
<g>
<title>ru/mail/polis/service/kovalkov/RendezvousHashingImpl.identifyByKey (21,569 samples, 7.31%)</title><rect x="798.3" y="115.0" width="86.3" height="15" fill="#5bec5b" rx="2" ry="2"/>
<text x="801.3" y="126.0">ru/mail/po..</text>
</g>
<g>
<title>java.util.TreeMap (4,881 samples, 1.65%)</title><rect x="798.3" y="99.0" width="19.6" height="15" fill="#59c7c7" rx="2" ry="2"/>
<text x="801.3" y="110.0"></text>
</g>
<g>
<title>java/lang/Integer.valueOf (4,945 samples, 1.68%)</title><rect x="817.9" y="99.0" width="19.8" height="15" fill="#57e857" rx="2" ry="2"/>
<text x="820.9" y="110.0"></text>
</g>
<g>
<title>java.lang.Integer (4,945 samples, 1.68%)</title><rect x="817.9" y="83.0" width="19.8" height="15" fill="#5dcbcb" rx="2" ry="2"/>
<text x="820.9" y="94.0"></text>
</g>
<g>
<title>java/util/TreeMap.put (11,743 samples, 3.98%)</title><rect x="837.7" y="99.0" width="46.9" height="15" fill="#6dfe6d" rx="2" ry="2"/>
<text x="840.7" y="110.0">java..</text>
</g>
<g>
<title>java.util.TreeMap$Entry (11,743 samples, 3.98%)</title><rect x="837.7" y="83.0" width="46.9" height="15" fill="#65d3d3" rx="2" ry="2"/>
<text x="840.7" y="94.0">java..</text>
</g>
<g>
<title>ru/mail/polis/service/kovalkov/SharedAsyncServiceImpl.proxyForwarding (1,271 samples, 0.43%)</title><rect x="884.6" y="147.0" width="5.1" height="15" fill="#57e857" rx="2" ry="2"/>
<text x="887.6" y="158.0"></text>
</g>
<g>
<title>java/lang/invoke/Invokers$Holder.linkToTargetMethod (1,253 samples, 0.42%)</title><rect x="884.6" y="131.0" width="5.0" height="15" fill="#5ced5c" rx="2" ry="2"/>
<text x="887.6" y="142.0"></text>
</g>
<g>
<title>java/lang/invoke/DirectMethodHandle$Holder.invokeStatic (1,253 samples, 0.42%)</title><rect x="884.6" y="115.0" width="5.0" height="15" fill="#5aeb5a" rx="2" ry="2"/>
<text x="887.6" y="126.0"></text>
</g>
<g>
<title>ru/mail/polis/service/kovalkov/SharedAsyncServiceImpl$$Lambda$76/128399682.get$Lambda (1,253 samples, 0.42%)</title><rect x="884.6" y="99.0" width="5.0" height="15" fill="#64f564" rx="2" ry="2"/>
<text x="887.6" y="110.0"></text>
</g>
<g>
<title>ru.mail.polis.service.kovalkov.SharedAsyncServiceImpl$$Lambda$76 (1,253 samples, 0.42%)</title><rect x="884.6" y="83.0" width="5.0" height="15" fill="#64d2d2" rx="2" ry="2"/>
<text x="887.6" y="94.0"></text>
</g>
<g>
<title>one/nio/http/Request.getPath (5,575 samples, 1.89%)</title><rect x="889.7" y="179.0" width="22.3" height="15" fill="#52e352" rx="2" ry="2"/>
<text x="892.7" y="190.0">o..</text>
</g>
<g>
<title>java/lang/String.substring (5,575 samples, 1.89%)</title><rect x="889.7" y="163.0" width="22.3" height="15" fill="#55e655" rx="2" ry="2"/>
<text x="892.7" y="174.0">j..</text>
</g>
<g>
<title>java/lang/StringLatin1.newString (5,575 samples, 1.89%)</title><rect x="889.7" y="147.0" width="22.3" height="15" fill="#6dfe6d" rx="2" ry="2"/>
<text x="892.7" y="158.0">j..</text>
</g>
<g>
<title>java.lang.String (2,349 samples, 0.80%)</title><rect x="889.7" y="131.0" width="9.4" height="15" fill="#6ad8d8" rx="2" ry="2"/>
<text x="892.7" y="142.0"></text>
</g>
<g>
<title>java/util/Arrays.copyOfRange (3,226 samples, 1.09%)</title><rect x="899.1" y="131.0" width="12.9" height="15" fill="#6afb6a" rx="2" ry="2"/>
<text x="902.1" y="142.0"></text>
</g>
<g>
<title>byte[] (3,226 samples, 1.09%)</title><rect x="899.1" y="115.0" width="12.9" height="15" fill="#67d5d5" rx="2" ry="2"/>
<text x="902.1" y="126.0"></text>
</g>
<g>
<title>one/nio/http/HttpSession.parseRequest (26,678 samples, 9.05%)</title><rect x="912.0" y="211.0" width="106.8" height="15" fill="#52e352" rx="2" ry="2"/>
<text x="915.0" y="222.0">one/nio/http/..</text>
</g>
<g>
<title>one.nio.http.Request (4,345 samples, 1.47%)</title><rect x="912.0" y="195.0" width="17.4" height="15" fill="#54c2c2" rx="2" ry="2"/>
<text x="915.0" y="206.0"></text>
</g>
<g>
<title>one/nio/http/Request.&lt;init&gt; (8,388 samples, 2.84%)</title><rect x="929.4" y="195.0" width="33.6" height="15" fill="#62f362" rx="2" ry="2"/>
<text x="932.4" y="206.0">on..</text>
</g>
<g>
<title>java.lang.String[] (8,388 samples, 2.84%)</title><rect x="929.4" y="179.0" width="33.6" height="15" fill="#53c1c1" rx="2" ry="2"/>
<text x="932.4" y="190.0">ja..</text>
</g>
<g>
<title>one/nio/util/Utf8.read (13,945 samples, 4.73%)</title><rect x="963.0" y="195.0" width="55.8" height="15" fill="#61f261" rx="2" ry="2"/>
<text x="966.0" y="206.0">one/n..</text>
</g>
<g>
<title>one/nio/util/Utf8.read (13,945 samples, 4.73%)</title><rect x="963.0" y="179.0" width="55.8" height="15" fill="#69fa69" rx="2" ry="2"/>
<text x="966.0" y="190.0">one/n..</text>
</g>
<g>
<title>char[] (7,760 samples, 2.63%)</title><rect x="963.0" y="163.0" width="31.0" height="15" fill="#50bebe" rx="2" ry="2"/>
<text x="966.0" y="174.0">ch..</text>
</g>
<g>
<title>java.lang.String (2,280 samples, 0.77%)</title><rect x="994.0" y="163.0" width="9.1" height="15" fill="#5ac8c8" rx="2" ry="2"/>
<text x="997.0" y="174.0"></text>
</g>
<g>
<title>java/lang/String.&lt;init&gt; (3,905 samples, 1.32%)</title><rect x="1003.1" y="163.0" width="15.7" height="15" fill="#61f261" rx="2" ry="2"/>
<text x="1006.1" y="174.0"></text>
</g>
<g>
<title>java/lang/String.&lt;init&gt; (3,905 samples, 1.32%)</title><rect x="1003.1" y="147.0" width="15.7" height="15" fill="#6bfc6b" rx="2" ry="2"/>
<text x="1006.1" y="158.0"></text>
</g>
<g>
<title>java/lang/StringUTF16.compress (3,905 samples, 1.32%)</title><rect x="1003.1" y="131.0" width="15.7" height="15" fill="#51e251" rx="2" ry="2"/>
<text x="1006.1" y="142.0"></text>
</g>
<g>
<title>byte[] (3,905 samples, 1.32%)</title><rect x="1003.1" y="115.0" width="15.7" height="15" fill="#5ecccc" rx="2" ry="2"/>
<text x="1006.1" y="126.0"></text>
</g>
<g>
<title>one/nio/http/HttpSession.startParsingRequestBody (3,427 samples, 1.16%)</title><rect x="1018.8" y="211.0" width="13.7" height="15" fill="#68f968" rx="2" ry="2"/>
<text x="1021.8" y="222.0"></text>
</g>
<g>
<title>byte[] (3,427 samples, 1.16%)</title><rect x="1018.8" y="195.0" width="13.7" height="15" fill="#68d6d6" rx="2" ry="2"/>
<text x="1021.8" y="206.0"></text>
</g>
<g>
<title>one/nio/http/Request.getHeader (4,622 samples, 1.57%)</title><rect x="1032.5" y="211.0" width="18.5" height="15" fill="#6afb6a" rx="2" ry="2"/>
<text x="1035.5" y="222.0"></text>
</g>
<g>
<title>java/lang/String.substring (4,622 samples, 1.57%)</title><rect x="1032.5" y="195.0" width="18.5" height="15" fill="#54e554" rx="2" ry="2"/>
<text x="1035.5" y="206.0"></text>
</g>
<g>
<title>java/lang/StringLatin1.newString (4,622 samples, 1.57%)</title><rect x="1032.5" y="179.0" width="18.5" height="15" fill="#52e352" rx="2" ry="2"/>
<text x="1035.5" y="190.0"></text>
</g>
<g>
<title>java.lang.String (2,376 samples, 0.81%)</title><rect x="1032.5" y="163.0" width="9.5" height="15" fill="#59c7c7" rx="2" ry="2"/>
<text x="1035.5" y="174.0"></text>
</g>
<g>
<title>java/util/Arrays.copyOfRange (2,246 samples, 0.76%)</title><rect x="1042.0" y="163.0" width="9.0" height="15" fill="#54e554" rx="2" ry="2"/>
<text x="1045.0" y="174.0"></text>
</g>
<g>
<title>byte[] (2,246 samples, 0.76%)</title><rect x="1042.0" y="147.0" width="9.0" height="15" fill="#67d5d5" rx="2" ry="2"/>
<text x="1045.0" y="158.0"></text>
</g>
<g>
<title>one/nio/util/Utf8.read (34,751 samples, 11.78%)</title><rect x="1051.0" y="211.0" width="139.0" height="15" fill="#61f261" rx="2" ry="2"/>
<text x="1054.0" y="222.0">one/nio/util/Utf8..</text>
</g>
<g>
<title>one/nio/util/Utf8.read (34,751 samples, 11.78%)</title><rect x="1051.0" y="195.0" width="139.0" height="15" fill="#61f261" rx="2" ry="2"/>
<text x="1054.0" y="206.0">one/nio/util/Utf8..</text>
</g>
<g>
<title>char[] (17,133 samples, 5.81%)</title><rect x="1051.0" y="179.0" width="68.5" height="15" fill="#53c1c1" rx="2" ry="2"/>
<text x="1054.0" y="190.0">char[]</text>
</g>
<g>
<title>java.lang.String (6,212 samples, 2.11%)</title><rect x="1119.5" y="179.0" width="24.9" height="15" fill="#57c5c5" rx="2" ry="2"/>
<text x="1122.5" y="190.0">j..</text>
</g>
<g>
<title>java/lang/String.&lt;init&gt; (11,406 samples, 3.87%)</title><rect x="1144.4" y="179.0" width="45.6" height="15" fill="#57e857" rx="2" ry="2"/>
<text x="1147.4" y="190.0">java..</text>
</g>
<g>
<title>java/lang/String.&lt;init&gt; (11,406 samples, 3.87%)</title><rect x="1144.4" y="163.0" width="45.6" height="15" fill="#56e756" rx="2" ry="2"/>
<text x="1147.4" y="174.0">java..</text>
</g>
<g>
<title>java/lang/StringUTF16.compress (11,406 samples, 3.87%)</title><rect x="1144.4" y="147.0" width="45.6" height="15" fill="#5ced5c" rx="2" ry="2"/>
<text x="1147.4" y="158.0">java..</text>
</g>
<g>
<title>byte[] (11,406 samples, 3.87%)</title><rect x="1144.4" y="131.0" width="45.6" height="15" fill="#56c4c4" rx="2" ry="2"/>
<text x="1147.4" y="142.0">byte[]</text>
</g>
</g>
</svg>
