<?xml version="1.0" standalone="no"?>
<!DOCTYPE svg PUBLIC "-//W3C//DTD SVG 1.1//EN" "http://www.w3.org/Graphics/SVG/1.1/DTD/svg11.dtd">
<svg version="1.1" width="1200" height="294" onload="init(evt)" viewBox="0 0 1200 294" xmlns="http://www.w3.org/2000/svg" xmlns:xlink="http://www.w3.org/1999/xlink">
<style type="text/css">
	text { font-family:Verdana; font-size:12px; fill:rgb(0,0,0); }
	#search { opacity:0.1; cursor:pointer; }
	#search:hover, #search.show { opacity:1; }
	#subtitle { text-anchor:middle; font-color:rgb(160,160,160); }
	#title { text-anchor:middle; font-size:17px}
	#unzoom { cursor:pointer; }
	#frames > *:hover { stroke:black; stroke-width:0.5; cursor:pointer; }
	.hide { display:none; }
	.parent { opacity:0.5; }
</style>
<script type="text/ecmascript">
<![CDATA[
	"use strict";
	var details, searchbtn, unzoombtn, matchedtxt, svg, searching;
	function init(evt) {
		details = document.getElementById("details").firstChild;
		searchbtn = document.getElementById("search");
		unzoombtn = document.getElementById("unzoom");
		matchedtxt = document.getElementById("matched");
		svg = document.getElementsByTagName("svg")[0];
		searching = 0;
	}

	window.addEventListener("click", function(e) {
		var target = find_group(e.target);
		if (target) {
			if (target.nodeName == "a") {
				if (e.ctrlKey === false) return;
				e.preventDefault();
			}
			if (target.classList.contains("parent")) unzoom();
			zoom(target);
		}
		else if (e.target.id == "unzoom") unzoom();
		else if (e.target.id == "search") search_prompt();
	}, false)

	// mouse-over for info
	// show
	window.addEventListener("mouseover", function(e) {
		var target = find_group(e.target);
		if (target) details.nodeValue = "Function: " + g_to_text(target);
	}, false)

	// clear
	window.addEventListener("mouseout", function(e) {
		var target = find_group(e.target);
		if (target) details.nodeValue = ' ';
	}, false)

	// ctrl-F for search
	window.addEventListener("keydown",function (e) {
		if (e.keyCode === 114 || (e.ctrlKey && e.keyCode === 70)) {
			e.preventDefault();
			search_prompt();
		}
	}, false)

	// functions
	function find_child(node, selector) {
		var children = node.querySelectorAll(selector);
		if (children.length) return children[0];
		return;
	}
	function find_group(node) {
		var parent = node.parentElement;
		if (!parent) return;
		if (parent.id == "frames") return node;
		return find_group(parent);
	}
	function orig_save(e, attr, val) {
		if (e.attributes["_orig_" + attr] != undefined) return;
		if (e.attributes[attr] == undefined) return;
		if (val == undefined) val = e.attributes[attr].value;
		e.setAttribute("_orig_" + attr, val);
	}
	function orig_load(e, attr) {
		if (e.attributes["_orig_"+attr] == undefined) return;
		e.attributes[attr].value = e.attributes["_orig_" + attr].value;
		e.removeAttribute("_orig_"+attr);
	}
	function g_to_text(e) {
		var text = find_child(e, "title").firstChild.nodeValue;
		return (text)
	}
	function g_to_func(e) {
		var func = g_to_text(e);
		// if there's any manipulation we want to do to the function
		// name before it's searched, do it here before returning.
		return (func);
	}
	function update_text(e) {
		var r = find_child(e, "rect");
		var t = find_child(e, "text");
		var w = parseFloat(r.attributes.width.value) -3;
		var txt = find_child(e, "title").textContent.replace(/\([^(]*\)$/,"");
		t.attributes.x.value = parseFloat(r.attributes.x.value) + 3;

		// Smaller than this size won't fit anything
		if (w < 2 * 12 * 0.59) {
			t.textContent = "";
			return;
		}

		t.textContent = txt;
		// Fit in full text width
		if (/^ *$/.test(txt) || t.getSubStringLength(0, txt.length) < w)
			return;

		for (var x = txt.length - 2; x > 0; x--) {
			if (t.getSubStringLength(0, x + 2) <= w) {
				t.textContent = txt.substring(0, x) + "..";
				return;
			}
		}
		t.textContent = "";
	}

	// zoom
	function zoom_reset(e) {
		if (e.attributes != undefined) {
			orig_load(e, "x");
			orig_load(e, "width");
		}
		if (e.childNodes == undefined) return;
		for (var i = 0, c = e.childNodes; i < c.length; i++) {
			zoom_reset(c[i]);
		}
	}
	function zoom_child(e, x, ratio) {
		if (e.attributes != undefined) {
			if (e.attributes.x != undefined) {
				orig_save(e, "x");
				e.attributes.x.value = (parseFloat(e.attributes.x.value) - x - 10) * ratio + 10;
				if (e.tagName == "text")
					e.attributes.x.value = find_child(e.parentNode, "rect[x]").attributes.x.value + 3;
			}
			if (e.attributes.width != undefined) {
				orig_save(e, "width");
				e.attributes.width.value = parseFloat(e.attributes.width.value) * ratio;
			}
		}

		if (e.childNodes == undefined) return;
		for (var i = 0, c = e.childNodes; i < c.length; i++) {
			zoom_child(c[i], x - 10, ratio);
		}
	}
	function zoom_parent(e) {
		if (e.attributes) {
			if (e.attributes.x != undefined) {
				orig_save(e, "x");
				e.attributes.x.value = 10;
			}
			if (e.attributes.width != undefined) {
				orig_save(e, "width");
				e.attributes.width.value = parseInt(svg.width.baseVal.value) - (10 * 2);
			}
		}
		if (e.childNodes == undefined) return;
		for (var i = 0, c = e.childNodes; i < c.length; i++) {
			zoom_parent(c[i]);
		}
	}
	function zoom(node) {
		var attr = find_child(node, "rect").attributes;
		var width = parseFloat(attr.width.value);
		var xmin = parseFloat(attr.x.value);
		var xmax = parseFloat(xmin + width);
		var ymin = parseFloat(attr.y.value);
		var ratio = (svg.width.baseVal.value - 2 * 10) / width;

		// XXX: Workaround for JavaScript float issues (fix me)
		var fudge = 0.0001;

		unzoombtn.classList.remove("hide");

		var el = document.getElementById("frames").children;
		for (var i = 0; i < el.length; i++) {
			var e = el[i];
			var a = find_child(e, "rect").attributes;
			var ex = parseFloat(a.x.value);
			var ew = parseFloat(a.width.value);
			var upstack;
			// Is it an ancestor
			if (0 == 0) {
				upstack = parseFloat(a.y.value) > ymin;
			} else {
				upstack = parseFloat(a.y.value) < ymin;
			}
			if (upstack) {
				// Direct ancestor
				if (ex <= xmin && (ex+ew+fudge) >= xmax) {
					e.classList.add("parent");
					zoom_parent(e);
					update_text(e);
				}
				// not in current path
				else
					e.classList.add("hide");
			}
			// Children maybe
			else {
				// no common path
				if (ex < xmin || ex + fudge >= xmax) {
					e.classList.add("hide");
				}
				else {
					zoom_child(e, xmin, ratio);
					update_text(e);
				}
			}
		}
	}
	function unzoom() {
		unzoombtn.classList.add("hide");
		var el = document.getElementById("frames").children;
		for(var i = 0; i < el.length; i++) {
			el[i].classList.remove("parent");
			el[i].classList.remove("hide");
			zoom_reset(el[i]);
			update_text(el[i]);
		}
	}

	// search
	function reset_search() {
		var el = document.querySelectorAll("#frames rect");
		for (var i = 0; i < el.length; i++) {
			orig_load(el[i], "fill")
		}
	}
	function search_prompt() {
		if (!searching) {
			var term = prompt("Enter a search term (regexp " +
			    "allowed, eg: ^ext4_)", "");
			if (term != null) {
				search(term)
			}
		} else {
			reset_search();
			searching = 0;
			searchbtn.classList.remove("show");
			searchbtn.firstChild.nodeValue = "Search"
			matchedtxt.classList.add("hide");
			matchedtxt.firstChild.nodeValue = ""
		}
	}
	function search(term) {
		var re = new RegExp(term);
		var el = document.getElementById("frames").children;
		var matches = new Object();
		var maxwidth = 0;
		for (var i = 0; i < el.length; i++) {
			var e = el[i];
			var func = g_to_func(e);
			var rect = find_child(e, "rect");
			if (func == null || rect == null)
				continue;

			// Save max width. Only works as we have a root frame
			var w = parseFloat(rect.attributes.width.value);
			if (w > maxwidth)
				maxwidth = w;

			if (func.match(re)) {
				// highlight
				var x = parseFloat(rect.attributes.x.value);
				orig_save(rect, "fill");
				rect.attributes.fill.value = "rgb(230,0,230)";

				// remember matches
				if (matches[x] == undefined) {
					matches[x] = w;
				} else {
					if (w > matches[x]) {
						// overwrite with parent
						matches[x] = w;
					}
				}
				searching = 1;
			}
		}
		if (!searching)
			return;

		searchbtn.classList.add("show");
		searchbtn.firstChild.nodeValue = "Reset Search";

		// calculate percent matched, excluding vertical overlap
		var count = 0;
		var lastx = -1;
		var lastw = 0;
		var keys = Array();
		for (k in matches) {
			if (matches.hasOwnProperty(k))
				keys.push(k);
		}
		// sort the matched frames by their x location
		// ascending, then width descending
		keys.sort(function(a, b){
			return a - b;
		});
		// Step through frames saving only the biggest bottom-up frames
		// thanks to the sort order. This relies on the tree property
		// where children are always smaller than their parents.
		var fudge = 0.0001;	// JavaScript floating point
		for (var k in keys) {
			var x = parseFloat(keys[k]);
			var w = matches[keys[k]];
			if (x >= lastx + lastw - fudge) {
				count += w;
				lastx = x;
				lastw = w;
			}
		}
		// display matched percent
		matchedtxt.classList.remove("hide");
		var pct = 100 * count / maxwidth;
		if (pct != 100) pct = pct.toFixed(1)
		matchedtxt.firstChild.nodeValue = "Matched: " + pct + "%";
	}
]]>
</script>
<rect x="0" y="0" width="100%" height="100%" fill="rgb(240,240,220)"/>
<text id="title" x="600" y="24">Flame Graph</text>
<text id="details" x="10" y="277"> </text>
<text id="unzoom" x="10" y="24" class="hide">Reset Zoom</text>
<text id="search" x="1090" y="24">Search</text>
<text id="matched" x="1090" y="277"> </text>
<g id="frames">
<g>
<title>all (3,836 samples, 100.00%)</title><rect x="10.0" y="243.0" width="1180.0" height="15" fill="#fb7c7c" rx="2" ry="2"/>
<text x="13.0" y="254.0">all</text>
</g>
<g>
<title>one/nio/server/SelectorThread.run (3,836 samples, 100.00%)</title><rect x="10.0" y="227.0" width="1180.0" height="15" fill="#60f160" rx="2" ry="2"/>
<text x="13.0" y="238.0">one/nio/server/SelectorThread.run</text>
</g>
<g>
<title>one/nio/net/NativeSelector.select (78 samples, 2.03%)</title><rect x="10.0" y="211.0" width="24.0" height="15" fill="#5ff05f" rx="2" ry="2"/>
<text x="13.0" y="222.0">o..</text>
</g>
<g>
<title>one.nio.net.NativeSelector$2 (78 samples, 2.03%)</title><rect x="10.0" y="195.0" width="24.0" height="15" fill="#5dcbcb" rx="2" ry="2"/>
<text x="13.0" y="206.0">o..</text>
</g>
<g>
<title>one/nio/net/Session.process (3,758 samples, 97.97%)</title><rect x="34.0" y="211.0" width="1156.0" height="15" fill="#61f261" rx="2" ry="2"/>
<text x="37.0" y="222.0">one/nio/net/Session.process</text>
</g>
<g>
<title>one/nio/http/HttpSession.processRead (3,758 samples, 97.97%)</title><rect x="34.0" y="195.0" width="1156.0" height="15" fill="#60f160" rx="2" ry="2"/>
<text x="37.0" y="206.0">one/nio/http/HttpSession.processRead</text>
</g>
<g>
<title>one/nio/http/HttpSession.processHttpBuffer (3,758 samples, 97.97%)</title><rect x="34.0" y="179.0" width="1156.0" height="15" fill="#5ff05f" rx="2" ry="2"/>
<text x="37.0" y="190.0">one/nio/http/HttpSession.processHttpBuffer</text>
</g>
<g>
<title>one/nio/http/HttpSession.handleParsedRequest (1,998 samples, 52.09%)</title><rect x="34.0" y="163.0" width="614.6" height="15" fill="#56e756" rx="2" ry="2"/>
<text x="37.0" y="174.0">one/nio/http/HttpSession.handleParsedRequest</text>
</g>
<g>
<title>one/nio/http/HttpServer.handleRequest (1,998 samples, 52.09%)</title><rect x="34.0" y="147.0" width="614.6" height="15" fill="#61f261" rx="2" ry="2"/>
<text x="37.0" y="158.0">one/nio/http/HttpServer.handleRequest</text>
</g>
<g>
<title>RequestHandler1_put.handleRequest (1,810 samples, 47.18%)</title><rect x="34.0" y="131.0" width="556.8" height="15" fill="#52e352" rx="2" ry="2"/>
<text x="37.0" y="142.0">RequestHandler1_put.handleRequest</text>
</g>
<g>
<title>one/nio/http/HttpSession.sendResponse (426 samples, 11.11%)</title><rect x="34.0" y="115.0" width="131.0" height="15" fill="#58e958" rx="2" ry="2"/>
<text x="37.0" y="126.0">one/nio/http/Htt..</text>
</g>
<g>
<title>one/nio/http/HttpSession.writeResponse (426 samples, 11.11%)</title><rect x="34.0" y="99.0" width="131.0" height="15" fill="#5dee5d" rx="2" ry="2"/>
<text x="37.0" y="110.0">one/nio/http/Htt..</text>
</g>
<g>
<title>one/nio/http/Response.toBytes (296 samples, 7.72%)</title><rect x="34.0" y="83.0" width="91.0" height="15" fill="#57e857" rx="2" ry="2"/>
<text x="37.0" y="94.0">one/nio/htt..</text>
</g>
<g>
<title>one/nio/util/ByteArrayBuilder.&lt;init&gt; (296 samples, 7.72%)</title><rect x="34.0" y="67.0" width="91.0" height="15" fill="#62f362" rx="2" ry="2"/>
<text x="37.0" y="78.0">one/nio/uti..</text>
</g>
<g>
<title>byte[] (296 samples, 7.72%)</title><rect x="34.0" y="51.0" width="91.0" height="15" fill="#5dcbcb" rx="2" ry="2"/>
<text x="37.0" y="62.0">byte[]</text>
</g>
<g>
<title>one/nio/net/Session.write (130 samples, 3.39%)</title><rect x="125.0" y="83.0" width="40.0" height="15" fill="#64f564" rx="2" ry="2"/>
<text x="128.0" y="94.0">one..</text>
</g>
<g>
<title>one.nio.net.Session$ArrayQueueItem (130 samples, 3.39%)</title><rect x="125.0" y="67.0" width="40.0" height="15" fill="#67d5d5" rx="2" ry="2"/>
<text x="128.0" y="78.0">one..</text>
</g>
<g>
<title>one/nio/http/Request.getParameter (153 samples, 3.99%)</title><rect x="165.0" y="115.0" width="47.1" height="15" fill="#56e756" rx="2" ry="2"/>
<text x="168.0" y="126.0">one/..</text>
</g>
<g>
<title>java/lang/String.substring (153 samples, 3.99%)</title><rect x="165.0" y="99.0" width="47.1" height="15" fill="#68f968" rx="2" ry="2"/>
<text x="168.0" y="110.0">java..</text>
</g>
<g>
<title>java/lang/StringLatin1.newString (153 samples, 3.99%)</title><rect x="165.0" y="83.0" width="47.1" height="15" fill="#58e958" rx="2" ry="2"/>
<text x="168.0" y="94.0">java..</text>
</g>
<g>
<title>java.lang.String (76 samples, 1.98%)</title><rect x="165.0" y="67.0" width="23.4" height="15" fill="#5ecccc" rx="2" ry="2"/>
<text x="168.0" y="78.0">j..</text>
</g>
<g>
<title>java/util/Arrays.copyOfRange (77 samples, 2.01%)</title><rect x="188.4" y="67.0" width="23.7" height="15" fill="#69fa69" rx="2" ry="2"/>
<text x="191.4" y="78.0">j..</text>
</g>
<g>
<title>byte[] (77 samples, 2.01%)</title><rect x="188.4" y="51.0" width="23.7" height="15" fill="#5ccaca" rx="2" ry="2"/>
<text x="191.4" y="62.0">b..</text>
</g>
<g>
<title>ru/mail/polis/service/kovalkov/ServiceImpl.put (1,231 samples, 32.09%)</title><rect x="212.1" y="115.0" width="378.7" height="15" fill="#6dfe6d" rx="2" ry="2"/>
<text x="215.1" y="126.0">ru/mail/polis/service/kovalkov/ServiceImpl.put</text>
</g>
<g>
<title>java/lang/String.getBytes (96 samples, 2.50%)</title><rect x="212.1" y="99.0" width="29.5" height="15" fill="#6cfd6c" rx="2" ry="2"/>
<text x="215.1" y="110.0">ja..</text>
</g>
<g>
<title>java/lang/StringCoding.encode (96 samples, 2.50%)</title><rect x="212.1" y="83.0" width="29.5" height="15" fill="#5dee5d" rx="2" ry="2"/>
<text x="215.1" y="94.0">ja..</text>
</g>
<g>
<title>java/lang/StringCoding.encodeUTF8 (96 samples, 2.50%)</title><rect x="212.1" y="67.0" width="29.5" height="15" fill="#5ced5c" rx="2" ry="2"/>
<text x="215.1" y="78.0">ja..</text>
</g>
<g>
<title>java/util/Arrays.copyOf (96 samples, 2.50%)</title><rect x="212.1" y="51.0" width="29.5" height="15" fill="#51e251" rx="2" ry="2"/>
<text x="215.1" y="62.0">ja..</text>
</g>
<g>
<title>byte[] (96 samples, 2.50%)</title><rect x="212.1" y="35.0" width="29.5" height="15" fill="#5fcdcd" rx="2" ry="2"/>
<text x="215.1" y="46.0">by..</text>
</g>
<g>
<title>java/nio/ByteBuffer.wrap (301 samples, 7.85%)</title><rect x="241.6" y="99.0" width="92.6" height="15" fill="#5aeb5a" rx="2" ry="2"/>
<text x="244.6" y="110.0">java/nio/By..</text>
</g>
<g>
<title>java/nio/ByteBuffer.wrap (301 samples, 7.85%)</title><rect x="241.6" y="83.0" width="92.6" height="15" fill="#50e150" rx="2" ry="2"/>
<text x="244.6" y="94.0">java/nio/By..</text>
</g>
<g>
<title>java.nio.HeapByteBuffer (301 samples, 7.85%)</title><rect x="241.6" y="67.0" width="92.6" height="15" fill="#5bc9c9" rx="2" ry="2"/>
<text x="244.6" y="78.0">java.nio.He..</text>
</g>
<g>
<title>one/nio/http/Response.&lt;init&gt; (338 samples, 8.81%)</title><rect x="334.2" y="99.0" width="104.0" height="15" fill="#6bfc6b" rx="2" ry="2"/>
<text x="337.2" y="110.0">one/nio/http..</text>
</g>
<g>
<title>byte[] (122 samples, 3.18%)</title><rect x="334.2" y="83.0" width="37.6" height="15" fill="#60cece" rx="2" ry="2"/>
<text x="337.2" y="94.0">byt..</text>
</g>
<g>
<title>java.lang.String[] (120 samples, 3.13%)</title><rect x="371.8" y="83.0" width="36.9" height="15" fill="#69d7d7" rx="2" ry="2"/>
<text x="374.8" y="94.0">jav..</text>
</g>
<g>
<title>java.lang.String (96 samples, 2.50%)</title><rect x="408.7" y="83.0" width="29.5" height="15" fill="#5ecccc" rx="2" ry="2"/>
<text x="411.7" y="94.0">ja..</text>
</g>
<g>
<title>ru/mail/polis/dao/kovalkov/DAOImpl.upsert (496 samples, 12.93%)</title><rect x="438.2" y="99.0" width="152.6" height="15" fill="#52e352" rx="2" ry="2"/>
<text x="441.2" y="110.0">ru/mail/polis/dao/k..</text>
</g>
<g>
<title>ru/mail/polis/dao/kovalkov/DAOImpl.unfoldToBytes (246 samples, 6.41%)</title><rect x="438.2" y="83.0" width="75.7" height="15" fill="#5aeb5a" rx="2" ry="2"/>
<text x="441.2" y="94.0">ru/mail/..</text>
</g>
<g>
<title>byte[] (107 samples, 2.79%)</title><rect x="438.2" y="67.0" width="32.9" height="15" fill="#65d3d3" rx="2" ry="2"/>
<text x="441.2" y="78.0">by..</text>
</g>
<g>
<title>java/nio/HeapByteBuffer.duplicate (139 samples, 3.62%)</title><rect x="471.1" y="67.0" width="42.8" height="15" fill="#64f564" rx="2" ry="2"/>
<text x="474.1" y="78.0">java..</text>
</g>
<g>
<title>java.nio.HeapByteBuffer (139 samples, 3.62%)</title><rect x="471.1" y="51.0" width="42.8" height="15" fill="#5dcbcb" rx="2" ry="2"/>
<text x="474.1" y="62.0">java..</text>
</g>
<g>
<title>ru/mail/polis/dao/kovalkov/utils/BufferConverter.convertBytes (250 samples, 6.52%)</title><rect x="513.9" y="83.0" width="76.9" height="15" fill="#50e150" rx="2" ry="2"/>
<text x="516.9" y="94.0">ru/mail/..</text>
</g>
<g>
<title>ru/mail/polis/dao/kovalkov/utils/BufferConverter.unfoldToBytes (250 samples, 6.52%)</title><rect x="513.9" y="67.0" width="76.9" height="15" fill="#53e453" rx="2" ry="2"/>
<text x="516.9" y="78.0">ru/mail/..</text>
</g>
<g>
<title>byte[] (87 samples, 2.27%)</title><rect x="513.9" y="51.0" width="26.7" height="15" fill="#65d3d3" rx="2" ry="2"/>
<text x="516.9" y="62.0">b..</text>
</g>
<g>
<title>java/nio/HeapByteBuffer.duplicate (163 samples, 4.25%)</title><rect x="540.6" y="51.0" width="50.2" height="15" fill="#62f362" rx="2" ry="2"/>
<text x="543.6" y="62.0">java/..</text>
</g>
<g>
<title>java.nio.HeapByteBuffer (163 samples, 4.25%)</title><rect x="540.6" y="35.0" width="50.2" height="15" fill="#61cfcf" rx="2" ry="2"/>
<text x="543.6" y="46.0">java...</text>
</g>
<g>
<title>one/nio/http/Request.getPath (188 samples, 4.90%)</title><rect x="590.8" y="131.0" width="57.8" height="15" fill="#5bec5b" rx="2" ry="2"/>
<text x="593.8" y="142.0">one/ni..</text>
</g>
<g>
<title>java/lang/String.substring (188 samples, 4.90%)</title><rect x="590.8" y="115.0" width="57.8" height="15" fill="#5ced5c" rx="2" ry="2"/>
<text x="593.8" y="126.0">java/l..</text>
</g>
<g>
<title>java/lang/StringLatin1.newString (188 samples, 4.90%)</title><rect x="590.8" y="99.0" width="57.8" height="15" fill="#67f867" rx="2" ry="2"/>
<text x="593.8" y="110.0">java/l..</text>
</g>
<g>
<title>java.lang.String (90 samples, 2.35%)</title><rect x="590.8" y="83.0" width="27.7" height="15" fill="#55c3c3" rx="2" ry="2"/>
<text x="593.8" y="94.0">j..</text>
</g>
<g>
<title>java/util/Arrays.copyOfRange (98 samples, 2.55%)</title><rect x="618.5" y="83.0" width="30.1" height="15" fill="#64f564" rx="2" ry="2"/>
<text x="621.5" y="94.0">ja..</text>
</g>
<g>
<title>byte[] (98 samples, 2.55%)</title><rect x="618.5" y="67.0" width="30.1" height="15" fill="#58c6c6" rx="2" ry="2"/>
<text x="621.5" y="78.0">by..</text>
</g>
<g>
<title>one/nio/http/HttpSession.parseRequest (795 samples, 20.72%)</title><rect x="648.6" y="163.0" width="244.6" height="15" fill="#50e150" rx="2" ry="2"/>
<text x="651.6" y="174.0">one/nio/http/HttpSession.parseRe..</text>
</g>
<g>
<title>one.nio.http.Request (153 samples, 3.99%)</title><rect x="648.6" y="147.0" width="47.1" height="15" fill="#53c1c1" rx="2" ry="2"/>
<text x="651.6" y="158.0">one...</text>
</g>
<g>
<title>one/nio/http/Request.&lt;init&gt; (237 samples, 6.18%)</title><rect x="695.7" y="147.0" width="72.9" height="15" fill="#57e857" rx="2" ry="2"/>
<text x="698.7" y="158.0">one/nio/..</text>
</g>
<g>
<title>java.lang.String[] (237 samples, 6.18%)</title><rect x="695.7" y="131.0" width="72.9" height="15" fill="#6ddbdb" rx="2" ry="2"/>
<text x="698.7" y="142.0">java.lan..</text>
</g>
<g>
<title>one/nio/util/Utf8.read (405 samples, 10.56%)</title><rect x="768.6" y="147.0" width="124.6" height="15" fill="#60f160" rx="2" ry="2"/>
<text x="771.6" y="158.0">one/nio/util/Ut..</text>
</g>
<g>
<title>one/nio/util/Utf8.read (405 samples, 10.56%)</title><rect x="768.6" y="131.0" width="124.6" height="15" fill="#64f564" rx="2" ry="2"/>
<text x="771.6" y="142.0">one/nio/util/Ut..</text>
</g>
<g>
<title>char[] (209 samples, 5.45%)</title><rect x="768.6" y="115.0" width="64.3" height="15" fill="#50bebe" rx="2" ry="2"/>
<text x="771.6" y="126.0">char[]</text>
</g>
<g>
<title>java.lang.String (70 samples, 1.82%)</title><rect x="832.9" y="115.0" width="21.5" height="15" fill="#52c0c0" rx="2" ry="2"/>
<text x="835.9" y="126.0">j..</text>
</g>
<g>
<title>java/lang/String.&lt;init&gt; (126 samples, 3.28%)</title><rect x="854.4" y="115.0" width="38.8" height="15" fill="#50e150" rx="2" ry="2"/>
<text x="857.4" y="126.0">jav..</text>
</g>
<g>
<title>java/lang/String.&lt;init&gt; (126 samples, 3.28%)</title><rect x="854.4" y="99.0" width="38.8" height="15" fill="#51e251" rx="2" ry="2"/>
<text x="857.4" y="110.0">jav..</text>
</g>
<g>
<title>java/lang/StringUTF16.compress (126 samples, 3.28%)</title><rect x="854.4" y="83.0" width="38.8" height="15" fill="#5eef5e" rx="2" ry="2"/>
<text x="857.4" y="94.0">jav..</text>
</g>
<g>
<title>byte[] (126 samples, 3.28%)</title><rect x="854.4" y="67.0" width="38.8" height="15" fill="#6cdada" rx="2" ry="2"/>
<text x="857.4" y="78.0">byt..</text>
</g>
<g>
<title>one/nio/http/HttpSession.startParsingRequestBody (85 samples, 2.22%)</title><rect x="893.2" y="163.0" width="26.1" height="15" fill="#61f261" rx="2" ry="2"/>
<text x="896.2" y="174.0">o..</text>
</g>
<g>
<title>byte[] (85 samples, 2.22%)</title><rect x="893.2" y="147.0" width="26.1" height="15" fill="#5ac8c8" rx="2" ry="2"/>
<text x="896.2" y="158.0">b..</text>
</g>
<g>
<title>one/nio/http/Request.getHeader (137 samples, 3.57%)</title><rect x="919.3" y="163.0" width="42.1" height="15" fill="#5ced5c" rx="2" ry="2"/>
<text x="922.3" y="174.0">one/..</text>
</g>
<g>
<title>java/lang/String.substring (137 samples, 3.57%)</title><rect x="919.3" y="147.0" width="42.1" height="15" fill="#64f564" rx="2" ry="2"/>
<text x="922.3" y="158.0">java..</text>
</g>
<g>
<title>java/lang/StringLatin1.newString (137 samples, 3.57%)</title><rect x="919.3" y="131.0" width="42.1" height="15" fill="#65f665" rx="2" ry="2"/>
<text x="922.3" y="142.0">java..</text>
</g>
<g>
<title>java.lang.String (70 samples, 1.82%)</title><rect x="919.3" y="115.0" width="21.5" height="15" fill="#54c2c2" rx="2" ry="2"/>
<text x="922.3" y="126.0">j..</text>
</g>
<g>
<title>java/util/Arrays.copyOfRange (67 samples, 1.75%)</title><rect x="940.8" y="115.0" width="20.6" height="15" fill="#5bec5b" rx="2" ry="2"/>
<text x="943.8" y="126.0"></text>
</g>
<g>
<title>byte[] (67 samples, 1.75%)</title><rect x="940.8" y="99.0" width="20.6" height="15" fill="#54c2c2" rx="2" ry="2"/>
<text x="943.8" y="110.0"></text>
</g>
<g>
<title>one/nio/util/Utf8.read (743 samples, 19.37%)</title><rect x="961.4" y="163.0" width="228.6" height="15" fill="#54e554" rx="2" ry="2"/>
<text x="964.4" y="174.0">one/nio/util/Utf8.read</text>
</g>
<g>
<title>one/nio/util/Utf8.read (743 samples, 19.37%)</title><rect x="961.4" y="147.0" width="228.6" height="15" fill="#5ff05f" rx="2" ry="2"/>
<text x="964.4" y="158.0">one/nio/util/Utf8.read</text>
</g>
<g>
<title>char[] (358 samples, 9.33%)</title><rect x="961.4" y="131.0" width="110.2" height="15" fill="#69d7d7" rx="2" ry="2"/>
<text x="964.4" y="142.0">char[]</text>
</g>
<g>
<title>java.lang.String (136 samples, 3.55%)</title><rect x="1071.6" y="131.0" width="41.8" height="15" fill="#66d4d4" rx="2" ry="2"/>
<text x="1074.6" y="142.0">jav..</text>
</g>
<g>
<title>java/lang/String.&lt;init&gt; (249 samples, 6.49%)</title><rect x="1113.4" y="131.0" width="76.6" height="15" fill="#52e352" rx="2" ry="2"/>
<text x="1116.4" y="142.0">java/lan..</text>
</g>
<g>
<title>java/lang/String.&lt;init&gt; (249 samples, 6.49%)</title><rect x="1113.4" y="115.0" width="76.6" height="15" fill="#57e857" rx="2" ry="2"/>
<text x="1116.4" y="126.0">java/lan..</text>
</g>
<g>
<title>java/lang/StringUTF16.compress (249 samples, 6.49%)</title><rect x="1113.4" y="99.0" width="76.6" height="15" fill="#55e655" rx="2" ry="2"/>
<text x="1116.4" y="110.0">java/lan..</text>
</g>
<g>
<title>byte[] (249 samples, 6.49%)</title><rect x="1113.4" y="83.0" width="76.6" height="15" fill="#6ad8d8" rx="2" ry="2"/>
<text x="1116.4" y="94.0">byte[]</text>
</g>
</g>
</svg>
