<?xml version="1.0" standalone="no"?>
<!DOCTYPE svg PUBLIC "-//W3C//DTD SVG 1.1//EN" "http://www.w3.org/Graphics/SVG/1.1/DTD/svg11.dtd">
<svg version="1.1" width="1200" height="406" onload="init(evt)" viewBox="0 0 1200 406" xmlns="http://www.w3.org/2000/svg" xmlns:xlink="http://www.w3.org/1999/xlink">
<style type="text/css">
	text { font-family:Verdana; font-size:12px; fill:rgb(0,0,0); }
	#search { opacity:0.1; cursor:pointer; }
	#search:hover, #search.show { opacity:1; }
	#subtitle { text-anchor:middle; font-color:rgb(160,160,160); }
	#title { text-anchor:middle; font-size:17px}
	#unzoom { cursor:pointer; }
	#frames > *:hover { stroke:black; stroke-width:0.5; cursor:pointer; }
	.hide { display:none; }
	.parent { opacity:0.5; }
</style>
<script type="text/ecmascript">
<![CDATA[
	"use strict";
	var details, searchbtn, unzoombtn, matchedtxt, svg, searching;
	function init(evt) {
		details = document.getElementById("details").firstChild;
		searchbtn = document.getElementById("search");
		unzoombtn = document.getElementById("unzoom");
		matchedtxt = document.getElementById("matched");
		svg = document.getElementsByTagName("svg")[0];
		searching = 0;
	}

	window.addEventListener("click", function(e) {
		var target = find_group(e.target);
		if (target) {
			if (target.nodeName == "a") {
				if (e.ctrlKey === false) return;
				e.preventDefault();
			}
			if (target.classList.contains("parent")) unzoom();
			zoom(target);
		}
		else if (e.target.id == "unzoom") unzoom();
		else if (e.target.id == "search") search_prompt();
	}, false)

	// mouse-over for info
	// show
	window.addEventListener("mouseover", function(e) {
		var target = find_group(e.target);
		if (target) details.nodeValue = "Function: " + g_to_text(target);
	}, false)

	// clear
	window.addEventListener("mouseout", function(e) {
		var target = find_group(e.target);
		if (target) details.nodeValue = ' ';
	}, false)

	// ctrl-F for search
	window.addEventListener("keydown",function (e) {
		if (e.keyCode === 114 || (e.ctrlKey && e.keyCode === 70)) {
			e.preventDefault();
			search_prompt();
		}
	}, false)

	// functions
	function find_child(node, selector) {
		var children = node.querySelectorAll(selector);
		if (children.length) return children[0];
		return;
	}
	function find_group(node) {
		var parent = node.parentElement;
		if (!parent) return;
		if (parent.id == "frames") return node;
		return find_group(parent);
	}
	function orig_save(e, attr, val) {
		if (e.attributes["_orig_" + attr] != undefined) return;
		if (e.attributes[attr] == undefined) return;
		if (val == undefined) val = e.attributes[attr].value;
		e.setAttribute("_orig_" + attr, val);
	}
	function orig_load(e, attr) {
		if (e.attributes["_orig_"+attr] == undefined) return;
		e.attributes[attr].value = e.attributes["_orig_" + attr].value;
		e.removeAttribute("_orig_"+attr);
	}
	function g_to_text(e) {
		var text = find_child(e, "title").firstChild.nodeValue;
		return (text)
	}
	function g_to_func(e) {
		var func = g_to_text(e);
		// if there's any manipulation we want to do to the function
		// name before it's searched, do it here before returning.
		return (func);
	}
	function update_text(e) {
		var r = find_child(e, "rect");
		var t = find_child(e, "text");
		var w = parseFloat(r.attributes.width.value) -3;
		var txt = find_child(e, "title").textContent.replace(/\([^(]*\)$/,"");
		t.attributes.x.value = parseFloat(r.attributes.x.value) + 3;

		// Smaller than this size won't fit anything
		if (w < 2 * 12 * 0.59) {
			t.textContent = "";
			return;
		}

		t.textContent = txt;
		// Fit in full text width
		if (/^ *$/.test(txt) || t.getSubStringLength(0, txt.length) < w)
			return;

		for (var x = txt.length - 2; x > 0; x--) {
			if (t.getSubStringLength(0, x + 2) <= w) {
				t.textContent = txt.substring(0, x) + "..";
				return;
			}
		}
		t.textContent = "";
	}

	// zoom
	function zoom_reset(e) {
		if (e.attributes != undefined) {
			orig_load(e, "x");
			orig_load(e, "width");
		}
		if (e.childNodes == undefined) return;
		for (var i = 0, c = e.childNodes; i < c.length; i++) {
			zoom_reset(c[i]);
		}
	}
	function zoom_child(e, x, ratio) {
		if (e.attributes != undefined) {
			if (e.attributes.x != undefined) {
				orig_save(e, "x");
				e.attributes.x.value = (parseFloat(e.attributes.x.value) - x - 10) * ratio + 10;
				if (e.tagName == "text")
					e.attributes.x.value = find_child(e.parentNode, "rect[x]").attributes.x.value + 3;
			}
			if (e.attributes.width != undefined) {
				orig_save(e, "width");
				e.attributes.width.value = parseFloat(e.attributes.width.value) * ratio;
			}
		}

		if (e.childNodes == undefined) return;
		for (var i = 0, c = e.childNodes; i < c.length; i++) {
			zoom_child(c[i], x - 10, ratio);
		}
	}
	function zoom_parent(e) {
		if (e.attributes) {
			if (e.attributes.x != undefined) {
				orig_save(e, "x");
				e.attributes.x.value = 10;
			}
			if (e.attributes.width != undefined) {
				orig_save(e, "width");
				e.attributes.width.value = parseInt(svg.width.baseVal.value) - (10 * 2);
			}
		}
		if (e.childNodes == undefined) return;
		for (var i = 0, c = e.childNodes; i < c.length; i++) {
			zoom_parent(c[i]);
		}
	}
	function zoom(node) {
		var attr = find_child(node, "rect").attributes;
		var width = parseFloat(attr.width.value);
		var xmin = parseFloat(attr.x.value);
		var xmax = parseFloat(xmin + width);
		var ymin = parseFloat(attr.y.value);
		var ratio = (svg.width.baseVal.value - 2 * 10) / width;

		// XXX: Workaround for JavaScript float issues (fix me)
		var fudge = 0.0001;

		unzoombtn.classList.remove("hide");

		var el = document.getElementById("frames").children;
		for (var i = 0; i < el.length; i++) {
			var e = el[i];
			var a = find_child(e, "rect").attributes;
			var ex = parseFloat(a.x.value);
			var ew = parseFloat(a.width.value);
			var upstack;
			// Is it an ancestor
			if (0 == 0) {
				upstack = parseFloat(a.y.value) > ymin;
			} else {
				upstack = parseFloat(a.y.value) < ymin;
			}
			if (upstack) {
				// Direct ancestor
				if (ex <= xmin && (ex+ew+fudge) >= xmax) {
					e.classList.add("parent");
					zoom_parent(e);
					update_text(e);
				}
				// not in current path
				else
					e.classList.add("hide");
			}
			// Children maybe
			else {
				// no common path
				if (ex < xmin || ex + fudge >= xmax) {
					e.classList.add("hide");
				}
				else {
					zoom_child(e, xmin, ratio);
					update_text(e);
				}
			}
		}
	}
	function unzoom() {
		unzoombtn.classList.add("hide");
		var el = document.getElementById("frames").children;
		for(var i = 0; i < el.length; i++) {
			el[i].classList.remove("parent");
			el[i].classList.remove("hide");
			zoom_reset(el[i]);
			update_text(el[i]);
		}
	}

	// search
	function reset_search() {
		var el = document.querySelectorAll("#frames rect");
		for (var i = 0; i < el.length; i++) {
			orig_load(el[i], "fill")
		}
	}
	function search_prompt() {
		if (!searching) {
			var term = prompt("Enter a search term (regexp " +
			    "allowed, eg: ^ext4_)", "");
			if (term != null) {
				search(term)
			}
		} else {
			reset_search();
			searching = 0;
			searchbtn.classList.remove("show");
			searchbtn.firstChild.nodeValue = "Search"
			matchedtxt.classList.add("hide");
			matchedtxt.firstChild.nodeValue = ""
		}
	}
	function search(term) {
		var re = new RegExp(term);
		var el = document.getElementById("frames").children;
		var matches = new Object();
		var maxwidth = 0;
		for (var i = 0; i < el.length; i++) {
			var e = el[i];
			var func = g_to_func(e);
			var rect = find_child(e, "rect");
			if (func == null || rect == null)
				continue;

			// Save max width. Only works as we have a root frame
			var w = parseFloat(rect.attributes.width.value);
			if (w > maxwidth)
				maxwidth = w;

			if (func.match(re)) {
				// highlight
				var x = parseFloat(rect.attributes.x.value);
				orig_save(rect, "fill");
				rect.attributes.fill.value = "rgb(230,0,230)";

				// remember matches
				if (matches[x] == undefined) {
					matches[x] = w;
				} else {
					if (w > matches[x]) {
						// overwrite with parent
						matches[x] = w;
					}
				}
				searching = 1;
			}
		}
		if (!searching)
			return;

		searchbtn.classList.add("show");
		searchbtn.firstChild.nodeValue = "Reset Search";

		// calculate percent matched, excluding vertical overlap
		var count = 0;
		var lastx = -1;
		var lastw = 0;
		var keys = Array();
		for (k in matches) {
			if (matches.hasOwnProperty(k))
				keys.push(k);
		}
		// sort the matched frames by their x location
		// ascending, then width descending
		keys.sort(function(a, b){
			return a - b;
		});
		// Step through frames saving only the biggest bottom-up frames
		// thanks to the sort order. This relies on the tree property
		// where children are always smaller than their parents.
		var fudge = 0.0001;	// JavaScript floating point
		for (var k in keys) {
			var x = parseFloat(keys[k]);
			var w = matches[keys[k]];
			if (x >= lastx + lastw - fudge) {
				count += w;
				lastx = x;
				lastw = w;
			}
		}
		// display matched percent
		matchedtxt.classList.remove("hide");
		var pct = 100 * count / maxwidth;
		if (pct != 100) pct = pct.toFixed(1)
		matchedtxt.firstChild.nodeValue = "Matched: " + pct + "%";
	}
]]>
</script>
<rect x="0" y="0" width="100%" height="100%" fill="rgb(240,240,220)"/>
<text id="title" x="600" y="24">Flame Graph</text>
<text id="details" x="10" y="389"> </text>
<text id="unzoom" x="10" y="24" class="hide">Reset Zoom</text>
<text id="search" x="1090" y="24">Search</text>
<text id="matched" x="1090" y="389"> </text>
<g id="frames">
<g>
<title>all (268 samples, 100.00%)</title><rect x="10.0" y="355.0" width="1180.0" height="15" fill="#ed6a6a" rx="2" ry="2"/>
<text x="13.0" y="366.0">all</text>
</g>
<g>
<title>[no_Java_frame] (3 samples, 1.12%)</title><rect x="10.0" y="339.0" width="13.2" height="15" fill="#f57474" rx="2" ry="2"/>
<text x="13.0" y="350.0"></text>
</g>
<g>
<title>java/lang/Thread.run (130 samples, 48.51%)</title><rect x="23.2" y="339.0" width="572.4" height="15" fill="#6cfd6c" rx="2" ry="2"/>
<text x="26.2" y="350.0">java/lang/Thread.run</text>
</g>
<g>
<title>java/util/concurrent/ThreadPoolExecutor$Worker.run (130 samples, 48.51%)</title><rect x="23.2" y="323.0" width="572.4" height="15" fill="#63f463" rx="2" ry="2"/>
<text x="26.2" y="334.0">java/util/concurrent/ThreadPoolExecutor$Worker.run</text>
</g>
<g>
<title>java/util/concurrent/ThreadPoolExecutor.runWorker (130 samples, 48.51%)</title><rect x="23.2" y="307.0" width="572.4" height="15" fill="#5eef5e" rx="2" ry="2"/>
<text x="26.2" y="318.0">java/util/concurrent/ThreadPoolExecutor.runWorker</text>
</g>
<g>
<title>java/util/concurrent/FutureTask.run (71 samples, 26.49%)</title><rect x="23.2" y="291.0" width="312.6" height="15" fill="#68f968" rx="2" ry="2"/>
<text x="26.2" y="302.0">java/util/concurrent/FutureTask.run</text>
</g>
<g>
<title>java/util/concurrent/FutureTask.set (12 samples, 4.48%)</title><rect x="23.2" y="275.0" width="52.8" height="15" fill="#6bfc6b" rx="2" ry="2"/>
<text x="26.2" y="286.0">java/..</text>
</g>
<g>
<title>java/util/concurrent/FutureTask.finishCompletion (12 samples, 4.48%)</title><rect x="23.2" y="259.0" width="52.8" height="15" fill="#61f261" rx="2" ry="2"/>
<text x="26.2" y="270.0">java/..</text>
</g>
<g>
<title>java/util/concurrent/locks/LockSupport.unpark (12 samples, 4.48%)</title><rect x="23.2" y="243.0" width="52.8" height="15" fill="#51e251" rx="2" ry="2"/>
<text x="26.2" y="254.0">java/..</text>
</g>
<g>
<title>jdk/internal/misc/Unsafe.unpark (12 samples, 4.48%)</title><rect x="23.2" y="227.0" width="52.8" height="15" fill="#6bfc6b" rx="2" ry="2"/>
<text x="26.2" y="238.0">jdk/i..</text>
</g>
<g>
<title>ru/mail/polis/service/ivanovandrey/AsyncServiceImpl$$Lambda$65/94013272.call (50 samples, 18.66%)</title><rect x="76.0" y="275.0" width="220.2" height="15" fill="#64f564" rx="2" ry="2"/>
<text x="79.0" y="286.0">ru/mail/polis/service/ivanova..</text>
</g>
<g>
<title>ru/mail/polis/service/ivanovandrey/AsyncServiceImpl.lambda$processRequest$1 (50 samples, 18.66%)</title><rect x="76.0" y="259.0" width="220.2" height="15" fill="#55e655" rx="2" ry="2"/>
<text x="79.0" y="270.0">ru/mail/polis/service/ivanova..</text>
</g>
<g>
<title>ru/mail/polis/service/ivanovandrey/AsyncServiceImpl.get (49 samples, 18.28%)</title><rect x="76.0" y="243.0" width="215.8" height="15" fill="#68f968" rx="2" ry="2"/>
<text x="79.0" y="254.0">ru/mail/polis/service/ivanov..</text>
</g>
<g>
<title>one/nio/http/Response.ok (1 samples, 0.37%)</title><rect x="76.0" y="227.0" width="4.4" height="15" fill="#69fa69" rx="2" ry="2"/>
<text x="79.0" y="238.0"></text>
</g>
<g>
<title>ru/mail/polis/dao/Converter.fromByteBufferToByteArray (2 samples, 0.75%)</title><rect x="80.4" y="227.0" width="8.9" height="15" fill="#69fa69" rx="2" ry="2"/>
<text x="83.4" y="238.0"></text>
</g>
<g>
<title>java/nio/HeapByteBuffer.duplicate (2 samples, 0.75%)</title><rect x="80.4" y="211.0" width="8.9" height="15" fill="#5eef5e" rx="2" ry="2"/>
<text x="83.4" y="222.0"></text>
</g>
<g>
<title>java/nio/HeapByteBuffer.&lt;init&gt; (1 samples, 0.37%)</title><rect x="84.9" y="195.0" width="4.4" height="15" fill="#58e958" rx="2" ry="2"/>
<text x="87.9" y="206.0"></text>
</g>
<g>
<title>java/nio/ByteBuffer.&lt;init&gt; (1 samples, 0.37%)</title><rect x="84.9" y="179.0" width="4.4" height="15" fill="#68f968" rx="2" ry="2"/>
<text x="87.9" y="190.0"></text>
</g>
<g>
<title>ru/mail/polis/dao/RocksDBImpl.get (46 samples, 17.16%)</title><rect x="89.3" y="227.0" width="202.5" height="15" fill="#63f463" rx="2" ry="2"/>
<text x="92.3" y="238.0">ru/mail/polis/dao/RocksDBI..</text>
</g>
<g>
<title>java/nio/ByteBuffer.wrap (1 samples, 0.37%)</title><rect x="89.3" y="211.0" width="4.4" height="15" fill="#54e554" rx="2" ry="2"/>
<text x="92.3" y="222.0"></text>
</g>
<g>
<title>java/nio/ByteBuffer.wrap (1 samples, 0.37%)</title><rect x="89.3" y="195.0" width="4.4" height="15" fill="#67f867" rx="2" ry="2"/>
<text x="92.3" y="206.0"></text>
</g>
<g>
<title>java/nio/HeapByteBuffer.&lt;init&gt; (1 samples, 0.37%)</title><rect x="89.3" y="179.0" width="4.4" height="15" fill="#5ced5c" rx="2" ry="2"/>
<text x="92.3" y="190.0"></text>
</g>
<g>
<title>java/nio/ByteBuffer.&lt;init&gt; (1 samples, 0.37%)</title><rect x="89.3" y="163.0" width="4.4" height="15" fill="#53e453" rx="2" ry="2"/>
<text x="92.3" y="174.0"></text>
</g>
<g>
<title>java/nio/Buffer.&lt;init&gt; (1 samples, 0.37%)</title><rect x="89.3" y="147.0" width="4.4" height="15" fill="#53e453" rx="2" ry="2"/>
<text x="92.3" y="158.0"></text>
</g>
<g>
<title>java/nio/ByteBuffer.position (1 samples, 0.37%)</title><rect x="89.3" y="131.0" width="4.4" height="15" fill="#69fa69" rx="2" ry="2"/>
<text x="92.3" y="142.0"></text>
</g>
<g>
<title>java/nio/ByteBuffer.limit (1 samples, 0.37%)</title><rect x="89.3" y="115.0" width="4.4" height="15" fill="#6dfe6d" rx="2" ry="2"/>
<text x="92.3" y="126.0"></text>
</g>
<g>
<title>org/rocksdb/RocksDB.get (45 samples, 16.79%)</title><rect x="93.7" y="211.0" width="198.1" height="15" fill="#58e958" rx="2" ry="2"/>
<text x="96.7" y="222.0">org/rocksdb/RocksDB.get</text>
</g>
<g>
<title>org/rocksdb/RocksDB.get (45 samples, 16.79%)</title><rect x="93.7" y="195.0" width="198.1" height="15" fill="#6bfc6b" rx="2" ry="2"/>
<text x="96.7" y="206.0">org/rocksdb/RocksDB.get</text>
</g>
<g>
<title>ru/mail/polis/service/ivanovandrey/AsyncServiceImpl.put (1 samples, 0.37%)</title><rect x="291.8" y="243.0" width="4.4" height="15" fill="#57e857" rx="2" ry="2"/>
<text x="294.8" y="254.0"></text>
</g>
<g>
<title>ru/mail/polis/dao/RocksDBImpl.upsert (1 samples, 0.37%)</title><rect x="291.8" y="227.0" width="4.4" height="15" fill="#54e554" rx="2" ry="2"/>
<text x="294.8" y="238.0"></text>
</g>
<g>
<title>ru/mail/polis/dao/Converter.toArrayShifted (1 samples, 0.37%)</title><rect x="291.8" y="211.0" width="4.4" height="15" fill="#54e554" rx="2" ry="2"/>
<text x="294.8" y="222.0"></text>
</g>
<g>
<title>ru/mail/polis/dao/Converter.fromByteBufferToByteArray (1 samples, 0.37%)</title><rect x="291.8" y="195.0" width="4.4" height="15" fill="#64f564" rx="2" ry="2"/>
<text x="294.8" y="206.0"></text>
</g>
<g>
<title>org/rocksdb/RocksDB.get (1 samples, 0.37%)</title><rect x="291.8" y="179.0" width="4.4" height="15" fill="#68f968" rx="2" ry="2"/>
<text x="294.8" y="190.0"></text>
</g>
<g>
<title>ru/mail/polis/service/ivanovandrey/AsyncServiceImpl$$Lambda$66/30703227.call (9 samples, 3.36%)</title><rect x="296.2" y="275.0" width="39.6" height="15" fill="#53e453" rx="2" ry="2"/>
<text x="299.2" y="286.0">ru/..</text>
</g>
<g>
<title>ru/mail/polis/service/ivanovandrey/AsyncServiceImpl.lambda$forwardRequestFuture$0 (9 samples, 3.36%)</title><rect x="296.2" y="259.0" width="39.6" height="15" fill="#59ea59" rx="2" ry="2"/>
<text x="299.2" y="270.0">ru/..</text>
</g>
<g>
<title>ru/mail/polis/service/ivanovandrey/AsyncServiceImpl.forwardRequest (9 samples, 3.36%)</title><rect x="296.2" y="243.0" width="39.6" height="15" fill="#59ea59" rx="2" ry="2"/>
<text x="299.2" y="254.0">ru/..</text>
</g>
<g>
<title>one/nio/http/HttpClient.invoke (9 samples, 3.36%)</title><rect x="296.2" y="227.0" width="39.6" height="15" fill="#6bfc6b" rx="2" ry="2"/>
<text x="299.2" y="238.0">one..</text>
</g>
<g>
<title>one/nio/http/HttpClient.invoke (9 samples, 3.36%)</title><rect x="296.2" y="211.0" width="39.6" height="15" fill="#57e857" rx="2" ry="2"/>
<text x="299.2" y="222.0">one..</text>
</g>
<g>
<title>one/nio/pool/Pool.borrowObject (8 samples, 2.99%)</title><rect x="296.2" y="195.0" width="35.2" height="15" fill="#6afb6a" rx="2" ry="2"/>
<text x="299.2" y="206.0">one..</text>
</g>
<g>
<title>one.nio.http.HttpClient (8 samples, 2.99%)</title><rect x="296.2" y="179.0" width="35.2" height="15" fill="#6ddbdb" rx="2" ry="2"/>
<text x="299.2" y="190.0">one..</text>
</g>
<g>
<title>one/nio/pool/Pool.returnObject (1 samples, 0.37%)</title><rect x="331.4" y="195.0" width="4.4" height="15" fill="#54e554" rx="2" ry="2"/>
<text x="334.4" y="206.0"></text>
</g>
<g>
<title>one.nio.http.HttpClient (1 samples, 0.37%)</title><rect x="331.4" y="179.0" width="4.4" height="15" fill="#61cfcf" rx="2" ry="2"/>
<text x="334.4" y="190.0"></text>
</g>
<g>
<title>java/util/concurrent/ThreadPoolExecutor.getTask (59 samples, 22.01%)</title><rect x="335.8" y="291.0" width="259.8" height="15" fill="#54e554" rx="2" ry="2"/>
<text x="338.8" y="302.0">java/util/concurrent/ThreadPoolExec..</text>
</g>
<g>
<title>java/util/concurrent/ArrayBlockingQueue.take (59 samples, 22.01%)</title><rect x="335.8" y="275.0" width="259.8" height="15" fill="#6dfe6d" rx="2" ry="2"/>
<text x="338.8" y="286.0">java/util/concurrent/ArrayBlockingQ..</text>
</g>
<g>
<title>java/util/concurrent/locks/AbstractQueuedSynchronizer$ConditionObject.await (46 samples, 17.16%)</title><rect x="335.8" y="259.0" width="202.6" height="15" fill="#5dee5d" rx="2" ry="2"/>
<text x="338.8" y="270.0">java/util/concurrent/locks..</text>
</g>
<g>
<title>java/lang/Thread.interrupted (1 samples, 0.37%)</title><rect x="335.8" y="243.0" width="4.4" height="15" fill="#50e150" rx="2" ry="2"/>
<text x="338.8" y="254.0"></text>
</g>
<g>
<title>java/util/concurrent/locks/LockSupport.park (45 samples, 16.79%)</title><rect x="340.2" y="243.0" width="198.2" height="15" fill="#5dee5d" rx="2" ry="2"/>
<text x="343.2" y="254.0">java/util/concurrent/locks..</text>
</g>
<g>
<title>jdk/internal/misc/Unsafe.park (45 samples, 16.79%)</title><rect x="340.2" y="227.0" width="198.2" height="15" fill="#66f766" rx="2" ry="2"/>
<text x="343.2" y="238.0">jdk/internal/misc/Unsafe.p..</text>
</g>
<g>
<title>java/util/concurrent/locks/ReentrantLock.lockInterruptibly (12 samples, 4.48%)</title><rect x="538.4" y="259.0" width="52.8" height="15" fill="#69fa69" rx="2" ry="2"/>
<text x="541.4" y="270.0">java/..</text>
</g>
<g>
<title>java/util/concurrent/locks/AbstractQueuedSynchronizer.acquireInterruptibly (12 samples, 4.48%)</title><rect x="538.4" y="243.0" width="52.8" height="15" fill="#52e352" rx="2" ry="2"/>
<text x="541.4" y="254.0">java/..</text>
</g>
<g>
<title>java/util/concurrent/locks/AbstractQueuedSynchronizer.doAcquireInterruptibly (12 samples, 4.48%)</title><rect x="538.4" y="227.0" width="52.8" height="15" fill="#6afb6a" rx="2" ry="2"/>
<text x="541.4" y="238.0">java/..</text>
</g>
<g>
<title>java/util/concurrent/locks/AbstractQueuedSynchronizer.parkAndCheckInterrupt (12 samples, 4.48%)</title><rect x="538.4" y="211.0" width="52.8" height="15" fill="#62f362" rx="2" ry="2"/>
<text x="541.4" y="222.0">java/..</text>
</g>
<g>
<title>java/util/concurrent/locks/LockSupport.park (12 samples, 4.48%)</title><rect x="538.4" y="195.0" width="52.8" height="15" fill="#5ff05f" rx="2" ry="2"/>
<text x="541.4" y="206.0">java/..</text>
</g>
<g>
<title>jdk/internal/misc/Unsafe.park (12 samples, 4.48%)</title><rect x="538.4" y="179.0" width="52.8" height="15" fill="#6dfe6d" rx="2" ry="2"/>
<text x="541.4" y="190.0">jdk/i..</text>
</g>
<g>
<title>java.util.concurrent.locks.ReentrantLock$NonfairSync (12 samples, 4.48%)</title><rect x="538.4" y="163.0" width="52.8" height="15" fill="#66d4d4" rx="2" ry="2"/>
<text x="541.4" y="174.0">java...</text>
</g>
<g>
<title>java/util/concurrent/locks/ReentrantLock.unlock (1 samples, 0.37%)</title><rect x="591.2" y="259.0" width="4.4" height="15" fill="#5aeb5a" rx="2" ry="2"/>
<text x="594.2" y="270.0"></text>
</g>
<g>
<title>java/util/concurrent/locks/AbstractQueuedSynchronizer.release (1 samples, 0.37%)</title><rect x="591.2" y="243.0" width="4.4" height="15" fill="#6dfe6d" rx="2" ry="2"/>
<text x="594.2" y="254.0"></text>
</g>
<g>
<title>java/util/concurrent/locks/AbstractQueuedSynchronizer.unparkSuccessor (1 samples, 0.37%)</title><rect x="591.2" y="227.0" width="4.4" height="15" fill="#51e251" rx="2" ry="2"/>
<text x="594.2" y="238.0"></text>
</g>
<g>
<title>java/util/concurrent/locks/LockSupport.unpark (1 samples, 0.37%)</title><rect x="591.2" y="211.0" width="4.4" height="15" fill="#57e857" rx="2" ry="2"/>
<text x="594.2" y="222.0"></text>
</g>
<g>
<title>jdk/internal/misc/Unsafe.unpark (1 samples, 0.37%)</title><rect x="591.2" y="195.0" width="4.4" height="15" fill="#57e857" rx="2" ry="2"/>
<text x="594.2" y="206.0"></text>
</g>
<g>
<title>one/nio/server/SelectorThread.run (135 samples, 50.37%)</title><rect x="595.6" y="339.0" width="594.4" height="15" fill="#56e756" rx="2" ry="2"/>
<text x="598.6" y="350.0">one/nio/server/SelectorThread.run</text>
</g>
<g>
<title>one/nio/net/NativeSelector.select (9 samples, 3.36%)</title><rect x="595.6" y="323.0" width="39.6" height="15" fill="#5ced5c" rx="2" ry="2"/>
<text x="598.6" y="334.0">one..</text>
</g>
<g>
<title>one/nio/net/NativeSelector.epollWait (9 samples, 3.36%)</title><rect x="595.6" y="307.0" width="39.6" height="15" fill="#6bfc6b" rx="2" ry="2"/>
<text x="598.6" y="318.0">one..</text>
</g>
<g>
<title>one/nio/net/Session.process (126 samples, 47.01%)</title><rect x="635.2" y="323.0" width="554.8" height="15" fill="#50e150" rx="2" ry="2"/>
<text x="638.2" y="334.0">one/nio/net/Session.process</text>
</g>
<g>
<title>one/nio/http/HttpSession.processRead (126 samples, 47.01%)</title><rect x="635.2" y="307.0" width="554.8" height="15" fill="#5ff05f" rx="2" ry="2"/>
<text x="638.2" y="318.0">one/nio/http/HttpSession.processRead</text>
</g>
<g>
<title>one/nio/http/HttpSession.processHttpBuffer (121 samples, 45.15%)</title><rect x="635.2" y="291.0" width="532.8" height="15" fill="#56e756" rx="2" ry="2"/>
<text x="638.2" y="302.0">one/nio/http/HttpSession.processHttpBuffer</text>
</g>
<g>
<title>one/nio/http/HttpSession.handleParsedRequest (119 samples, 44.40%)</title><rect x="635.2" y="275.0" width="524.0" height="15" fill="#5aeb5a" rx="2" ry="2"/>
<text x="638.2" y="286.0">one/nio/http/HttpSession.handleParsedRequest</text>
</g>
<g>
<title>one/nio/http/HttpServer.handleRequest (119 samples, 44.40%)</title><rect x="635.2" y="259.0" width="524.0" height="15" fill="#5dee5d" rx="2" ry="2"/>
<text x="638.2" y="270.0">one/nio/http/HttpServer.handleRequest</text>
</g>
<g>
<title>RequestHandler1_entity.handleRequest (119 samples, 44.40%)</title><rect x="635.2" y="243.0" width="524.0" height="15" fill="#5dee5d" rx="2" ry="2"/>
<text x="638.2" y="254.0">RequestHandler1_entity.handleRequest</text>
</g>
<g>
<title>one/nio/http/Request.getRequiredParameter (1 samples, 0.37%)</title><rect x="635.2" y="227.0" width="4.4" height="15" fill="#57e857" rx="2" ry="2"/>
<text x="638.2" y="238.0"></text>
</g>
<g>
<title>one/nio/http/Request.getParameter (1 samples, 0.37%)</title><rect x="635.2" y="211.0" width="4.4" height="15" fill="#5dee5d" rx="2" ry="2"/>
<text x="638.2" y="222.0"></text>
</g>
<g>
<title>ru/mail/polis/service/ivanovandrey/AsyncServiceImpl.entity (118 samples, 44.03%)</title><rect x="639.6" y="227.0" width="519.6" height="15" fill="#62f362" rx="2" ry="2"/>
<text x="642.6" y="238.0">ru/mail/polis/service/ivanovandrey/AsyncServiceImpl.entity</text>
</g>
<g>
<title>ru/mail/polis/service/ivanovandrey/AsyncServiceImpl.processRequest (1 samples, 0.37%)</title><rect x="639.6" y="211.0" width="4.4" height="15" fill="#69fa69" rx="2" ry="2"/>
<text x="642.6" y="222.0"></text>
</g>
<g>
<title>java/util/concurrent/AbstractExecutorService.submit (1 samples, 0.37%)</title><rect x="639.6" y="195.0" width="4.4" height="15" fill="#62f362" rx="2" ry="2"/>
<text x="642.6" y="206.0"></text>
</g>
<g>
<title>java/util/concurrent/ThreadPoolExecutor.execute (1 samples, 0.37%)</title><rect x="639.6" y="179.0" width="4.4" height="15" fill="#61f261" rx="2" ry="2"/>
<text x="642.6" y="190.0"></text>
</g>
<g>
<title>java/util/concurrent/ArrayBlockingQueue.offer (1 samples, 0.37%)</title><rect x="639.6" y="163.0" width="4.4" height="15" fill="#58e958" rx="2" ry="2"/>
<text x="642.6" y="174.0"></text>
</g>
<g>
<title>java/util/concurrent/locks/ReentrantLock.lock (1 samples, 0.37%)</title><rect x="639.6" y="147.0" width="4.4" height="15" fill="#62f362" rx="2" ry="2"/>
<text x="642.6" y="158.0"></text>
</g>
<g>
<title>java/util/concurrent/locks/AbstractQueuedSynchronizer.acquire (1 samples, 0.37%)</title><rect x="639.6" y="131.0" width="4.4" height="15" fill="#51e251" rx="2" ry="2"/>
<text x="642.6" y="142.0"></text>
</g>
<g>
<title>java/util/concurrent/locks/AbstractQueuedSynchronizer.acquireQueued (1 samples, 0.37%)</title><rect x="639.6" y="115.0" width="4.4" height="15" fill="#51e251" rx="2" ry="2"/>
<text x="642.6" y="126.0"></text>
</g>
<g>
<title>java/util/concurrent/locks/AbstractQueuedSynchronizer.parkAndCheckInterrupt (1 samples, 0.37%)</title><rect x="639.6" y="99.0" width="4.4" height="15" fill="#5dee5d" rx="2" ry="2"/>
<text x="642.6" y="110.0"></text>
</g>
<g>
<title>java/util/concurrent/locks/LockSupport.park (1 samples, 0.37%)</title><rect x="639.6" y="83.0" width="4.4" height="15" fill="#53e453" rx="2" ry="2"/>
<text x="642.6" y="94.0"></text>
</g>
<g>
<title>jdk/internal/misc/Unsafe.park (1 samples, 0.37%)</title><rect x="639.6" y="67.0" width="4.4" height="15" fill="#6bfc6b" rx="2" ry="2"/>
<text x="642.6" y="78.0"></text>
</g>
<g>
<title>java.util.concurrent.locks.ReentrantLock$NonfairSync (1 samples, 0.37%)</title><rect x="639.6" y="51.0" width="4.4" height="15" fill="#52c0c0" rx="2" ry="2"/>
<text x="642.6" y="62.0"></text>
</g>
<g>
<title>ru/mail/polis/service/ivanovandrey/AsyncServiceImpl.sendToReplicas (117 samples, 43.66%)</title><rect x="644.0" y="211.0" width="515.2" height="15" fill="#63f463" rx="2" ry="2"/>
<text x="647.0" y="222.0">ru/mail/polis/service/ivanovandrey/AsyncServiceImpl.sendToReplicas</text>
</g>
<g>
<title>java/util/concurrent/FutureTask.awaitDone (1 samples, 0.37%)</title><rect x="648.4" y="195.0" width="4.4" height="15" fill="#6bfc6b" rx="2" ry="2"/>
<text x="651.4" y="206.0"></text>
</g>
<g>
<title>java/util/concurrent/FutureTask.get (62 samples, 23.13%)</title><rect x="652.8" y="195.0" width="273.0" height="15" fill="#69fa69" rx="2" ry="2"/>
<text x="655.8" y="206.0">java/util/concurrent/FutureTask.get</text>
</g>
<g>
<title>java/util/concurrent/FutureTask.awaitDone (62 samples, 23.13%)</title><rect x="652.8" y="179.0" width="273.0" height="15" fill="#6dfe6d" rx="2" ry="2"/>
<text x="655.8" y="190.0">java/util/concurrent/FutureTask.awai..</text>
</g>
<g>
<title>java/lang/Thread.interrupted (1 samples, 0.37%)</title><rect x="657.2" y="163.0" width="4.4" height="15" fill="#6bfc6b" rx="2" ry="2"/>
<text x="660.2" y="174.0"></text>
</g>
<g>
<title>java/util/concurrent/locks/LockSupport.park (60 samples, 22.39%)</title><rect x="661.6" y="163.0" width="264.2" height="15" fill="#6afb6a" rx="2" ry="2"/>
<text x="664.6" y="174.0">java/util/concurrent/locks/LockSupp..</text>
</g>
<g>
<title>jdk/internal/misc/Unsafe.park (60 samples, 22.39%)</title><rect x="661.6" y="147.0" width="264.2" height="15" fill="#57e857" rx="2" ry="2"/>
<text x="664.6" y="158.0">jdk/internal/misc/Unsafe.park</text>
</g>
<g>
<title>ru/mail/polis/service/ivanovandrey/AsyncServiceImpl.forwardRequestFuture (11 samples, 4.10%)</title><rect x="925.8" y="195.0" width="48.5" height="15" fill="#54e554" rx="2" ry="2"/>
<text x="928.8" y="206.0">ru/m..</text>
</g>
<g>
<title>java/util/concurrent/AbstractExecutorService.submit (11 samples, 4.10%)</title><rect x="925.8" y="179.0" width="48.5" height="15" fill="#52e352" rx="2" ry="2"/>
<text x="928.8" y="190.0">java..</text>
</g>
<g>
<title>java/util/concurrent/ThreadPoolExecutor.execute (10 samples, 3.73%)</title><rect x="930.2" y="163.0" width="44.1" height="15" fill="#64f564" rx="2" ry="2"/>
<text x="933.2" y="174.0">java..</text>
</g>
<g>
<title>java/util/concurrent/ArrayBlockingQueue.offer (10 samples, 3.73%)</title><rect x="930.2" y="147.0" width="44.1" height="15" fill="#51e251" rx="2" ry="2"/>
<text x="933.2" y="158.0">java..</text>
</g>
<g>
<title>java/util/concurrent/locks/ReentrantLock.lock (10 samples, 3.73%)</title><rect x="930.2" y="131.0" width="44.1" height="15" fill="#53e453" rx="2" ry="2"/>
<text x="933.2" y="142.0">java..</text>
</g>
<g>
<title>java/util/concurrent/locks/AbstractQueuedSynchronizer.acquire (10 samples, 3.73%)</title><rect x="930.2" y="115.0" width="44.1" height="15" fill="#56e756" rx="2" ry="2"/>
<text x="933.2" y="126.0">java..</text>
</g>
<g>
<title>java/util/concurrent/locks/AbstractQueuedSynchronizer.acquireQueued (10 samples, 3.73%)</title><rect x="930.2" y="99.0" width="44.1" height="15" fill="#58e958" rx="2" ry="2"/>
<text x="933.2" y="110.0">java..</text>
</g>
<g>
<title>java/util/concurrent/locks/AbstractQueuedSynchronizer.parkAndCheckInterrupt (10 samples, 3.73%)</title><rect x="930.2" y="83.0" width="44.1" height="15" fill="#5eef5e" rx="2" ry="2"/>
<text x="933.2" y="94.0">java..</text>
</g>
<g>
<title>java/util/concurrent/locks/LockSupport.park (10 samples, 3.73%)</title><rect x="930.2" y="67.0" width="44.1" height="15" fill="#64f564" rx="2" ry="2"/>
<text x="933.2" y="78.0">java..</text>
</g>
<g>
<title>jdk/internal/misc/Unsafe.park (10 samples, 3.73%)</title><rect x="930.2" y="51.0" width="44.1" height="15" fill="#65f665" rx="2" ry="2"/>
<text x="933.2" y="62.0">jdk/..</text>
</g>
<g>
<title>java.util.concurrent.locks.ReentrantLock$NonfairSync (10 samples, 3.73%)</title><rect x="930.2" y="35.0" width="44.1" height="15" fill="#65d3d3" rx="2" ry="2"/>
<text x="933.2" y="46.0">java..</text>
</g>
<g>
<title>ru/mail/polis/service/ivanovandrey/AsyncServiceImpl.processRequest (12 samples, 4.48%)</title><rect x="974.3" y="195.0" width="52.8" height="15" fill="#53e453" rx="2" ry="2"/>
<text x="977.3" y="206.0">ru/ma..</text>
</g>
<g>
<title>java/util/concurrent/AbstractExecutorService.submit (11 samples, 4.10%)</title><rect x="978.7" y="179.0" width="48.4" height="15" fill="#5aeb5a" rx="2" ry="2"/>
<text x="981.7" y="190.0">java..</text>
</g>
<g>
<title>java/util/concurrent/ThreadPoolExecutor.execute (11 samples, 4.10%)</title><rect x="978.7" y="163.0" width="48.4" height="15" fill="#60f160" rx="2" ry="2"/>
<text x="981.7" y="174.0">java..</text>
</g>
<g>
<title>java/util/concurrent/ArrayBlockingQueue.offer (11 samples, 4.10%)</title><rect x="978.7" y="147.0" width="48.4" height="15" fill="#65f665" rx="2" ry="2"/>
<text x="981.7" y="158.0">java..</text>
</g>
<g>
<title>java/util/concurrent/locks/ReentrantLock.lock (10 samples, 3.73%)</title><rect x="978.7" y="131.0" width="44.0" height="15" fill="#6bfc6b" rx="2" ry="2"/>
<text x="981.7" y="142.0">java..</text>
</g>
<g>
<title>java/util/concurrent/locks/AbstractQueuedSynchronizer.acquire (10 samples, 3.73%)</title><rect x="978.7" y="115.0" width="44.0" height="15" fill="#69fa69" rx="2" ry="2"/>
<text x="981.7" y="126.0">java..</text>
</g>
<g>
<title>java/util/concurrent/locks/AbstractQueuedSynchronizer.acquireQueued (10 samples, 3.73%)</title><rect x="978.7" y="99.0" width="44.0" height="15" fill="#59ea59" rx="2" ry="2"/>
<text x="981.7" y="110.0">java..</text>
</g>
<g>
<title>java/util/concurrent/locks/AbstractQueuedSynchronizer.parkAndCheckInterrupt (10 samples, 3.73%)</title><rect x="978.7" y="83.0" width="44.0" height="15" fill="#6cfd6c" rx="2" ry="2"/>
<text x="981.7" y="94.0">java..</text>
</g>
<g>
<title>java/util/concurrent/locks/LockSupport.park (10 samples, 3.73%)</title><rect x="978.7" y="67.0" width="44.0" height="15" fill="#6afb6a" rx="2" ry="2"/>
<text x="981.7" y="78.0">java..</text>
</g>
<g>
<title>jdk/internal/misc/Unsafe.park (10 samples, 3.73%)</title><rect x="978.7" y="51.0" width="44.0" height="15" fill="#67f867" rx="2" ry="2"/>
<text x="981.7" y="62.0">jdk/..</text>
</g>
<g>
<title>java.util.concurrent.locks.ReentrantLock$NonfairSync (10 samples, 3.73%)</title><rect x="978.7" y="35.0" width="44.0" height="15" fill="#52c0c0" rx="2" ry="2"/>
<text x="981.7" y="46.0">java..</text>
</g>
<g>
<title>java/util/concurrent/locks/ReentrantLock.unlock (1 samples, 0.37%)</title><rect x="1022.7" y="131.0" width="4.4" height="15" fill="#68f968" rx="2" ry="2"/>
<text x="1025.7" y="142.0"></text>
</g>
<g>
<title>java/util/concurrent/locks/AbstractQueuedSynchronizer.release (1 samples, 0.37%)</title><rect x="1022.7" y="115.0" width="4.4" height="15" fill="#6afb6a" rx="2" ry="2"/>
<text x="1025.7" y="126.0"></text>
</g>
<g>
<title>java/util/concurrent/locks/AbstractQueuedSynchronizer.unparkSuccessor (1 samples, 0.37%)</title><rect x="1022.7" y="99.0" width="4.4" height="15" fill="#66f766" rx="2" ry="2"/>
<text x="1025.7" y="110.0"></text>
</g>
<g>
<title>java/util/concurrent/locks/LockSupport.unpark (1 samples, 0.37%)</title><rect x="1022.7" y="83.0" width="4.4" height="15" fill="#66f766" rx="2" ry="2"/>
<text x="1025.7" y="94.0"></text>
</g>
<g>
<title>jdk/internal/misc/Unsafe.unpark (1 samples, 0.37%)</title><rect x="1022.7" y="67.0" width="4.4" height="15" fill="#65f665" rx="2" ry="2"/>
<text x="1025.7" y="78.0"></text>
</g>
<g>
<title>ru/mail/polis/service/ivanovandrey/AsyncServiceImpl.trySendResponse (25 samples, 9.33%)</title><rect x="1027.1" y="195.0" width="110.1" height="15" fill="#65f665" rx="2" ry="2"/>
<text x="1030.1" y="206.0">ru/mail/polis..</text>
</g>
<g>
<title>one/nio/http/HttpSession.sendResponse (25 samples, 9.33%)</title><rect x="1027.1" y="179.0" width="110.1" height="15" fill="#63f463" rx="2" ry="2"/>
<text x="1030.1" y="190.0">one/nio/http/..</text>
</g>
<g>
<title>one/nio/http/HttpSession.writeResponse (25 samples, 9.33%)</title><rect x="1027.1" y="163.0" width="110.1" height="15" fill="#62f362" rx="2" ry="2"/>
<text x="1030.1" y="174.0">one/nio/http/..</text>
</g>
<g>
<title>one/nio/http/Response.toBytes (1 samples, 0.37%)</title><rect x="1027.1" y="147.0" width="4.4" height="15" fill="#6dfe6d" rx="2" ry="2"/>
<text x="1030.1" y="158.0"></text>
</g>
<g>
<title>one/nio/util/ByteArrayBuilder.append (1 samples, 0.37%)</title><rect x="1027.1" y="131.0" width="4.4" height="15" fill="#67f867" rx="2" ry="2"/>
<text x="1030.1" y="142.0"></text>
</g>
<g>
<title>one/nio/util/Utf8.length (1 samples, 0.37%)</title><rect x="1027.1" y="115.0" width="4.4" height="15" fill="#65f665" rx="2" ry="2"/>
<text x="1030.1" y="126.0"></text>
</g>
<g>
<title>java/lang/String.charAt (1 samples, 0.37%)</title><rect x="1027.1" y="99.0" width="4.4" height="15" fill="#64f564" rx="2" ry="2"/>
<text x="1030.1" y="110.0"></text>
</g>
<g>
<title>java/lang/StringUTF16.charAt (1 samples, 0.37%)</title><rect x="1027.1" y="83.0" width="4.4" height="15" fill="#69fa69" rx="2" ry="2"/>
<text x="1030.1" y="94.0"></text>
</g>
<g>
<title>java/lang/StringUTF16.checkIndex (1 samples, 0.37%)</title><rect x="1027.1" y="67.0" width="4.4" height="15" fill="#68f968" rx="2" ry="2"/>
<text x="1030.1" y="78.0"></text>
</g>
<g>
<title>one/nio/net/Session.write (24 samples, 8.96%)</title><rect x="1031.5" y="147.0" width="105.7" height="15" fill="#6afb6a" rx="2" ry="2"/>
<text x="1034.5" y="158.0">one/nio/net/S..</text>
</g>
<g>
<title>one/nio/net/Session.write (24 samples, 8.96%)</title><rect x="1031.5" y="131.0" width="105.7" height="15" fill="#53e453" rx="2" ry="2"/>
<text x="1034.5" y="142.0">one/nio/net/S..</text>
</g>
<g>
<title>one/nio/net/NativeSocket.write (1 samples, 0.37%)</title><rect x="1035.9" y="115.0" width="4.4" height="15" fill="#58e958" rx="2" ry="2"/>
<text x="1038.9" y="126.0"></text>
</g>
<g>
<title>one/nio/net/Session$ArrayQueueItem.write (22 samples, 8.21%)</title><rect x="1040.3" y="115.0" width="96.9" height="15" fill="#61f261" rx="2" ry="2"/>
<text x="1043.3" y="126.0">one/nio/net..</text>
</g>
<g>
<title>one/nio/net/NativeSocket.write (22 samples, 8.21%)</title><rect x="1040.3" y="99.0" width="96.9" height="15" fill="#69fa69" rx="2" ry="2"/>
<text x="1043.3" y="110.0">one/nio/net..</text>
</g>
<g>
<title>ru/mail/polis/service/ivanovandrey/SimpleTopology.responsibleNodes (5 samples, 1.87%)</title><rect x="1137.2" y="195.0" width="22.0" height="15" fill="#50e150" rx="2" ry="2"/>
<text x="1140.2" y="206.0">r..</text>
</g>
<g>
<title>java/lang/String.hashCode (3 samples, 1.12%)</title><rect x="1141.6" y="179.0" width="13.2" height="15" fill="#64f564" rx="2" ry="2"/>
<text x="1144.6" y="190.0"></text>
</g>
<g>
<title>java/lang/StringLatin1.hashCode (3 samples, 1.12%)</title><rect x="1141.6" y="163.0" width="13.2" height="15" fill="#55e655" rx="2" ry="2"/>
<text x="1144.6" y="174.0"></text>
</g>
<g>
<title>java/util/ArrayList.add (1 samples, 0.37%)</title><rect x="1154.8" y="179.0" width="4.4" height="15" fill="#60f160" rx="2" ry="2"/>
<text x="1157.8" y="190.0"></text>
</g>
<g>
<title>java/util/ArrayList.add (1 samples, 0.37%)</title><rect x="1154.8" y="163.0" width="4.4" height="15" fill="#5ced5c" rx="2" ry="2"/>
<text x="1157.8" y="174.0"></text>
</g>
<g>
<title>java/util/ArrayList.grow (1 samples, 0.37%)</title><rect x="1154.8" y="147.0" width="4.4" height="15" fill="#53e453" rx="2" ry="2"/>
<text x="1157.8" y="158.0"></text>
</g>
<g>
<title>java/util/ArrayList.grow (1 samples, 0.37%)</title><rect x="1154.8" y="131.0" width="4.4" height="15" fill="#5ced5c" rx="2" ry="2"/>
<text x="1157.8" y="142.0"></text>
</g>
<g>
<title>java/util/Arrays.copyOf (1 samples, 0.37%)</title><rect x="1154.8" y="115.0" width="4.4" height="15" fill="#66f766" rx="2" ry="2"/>
<text x="1157.8" y="126.0"></text>
</g>
<g>
<title>one/nio/http/HttpSession.parseRequest (2 samples, 0.75%)</title><rect x="1159.2" y="275.0" width="8.8" height="15" fill="#52e352" rx="2" ry="2"/>
<text x="1162.2" y="286.0"></text>
</g>
<g>
<title>one/nio/http/Request.&lt;init&gt; (2 samples, 0.75%)</title><rect x="1159.2" y="259.0" width="8.8" height="15" fill="#58e958" rx="2" ry="2"/>
<text x="1162.2" y="270.0"></text>
</g>
<g>
<title>java/lang/String.indexOf (1 samples, 0.37%)</title><rect x="1163.6" y="243.0" width="4.4" height="15" fill="#5ff05f" rx="2" ry="2"/>
<text x="1166.6" y="254.0"></text>
</g>
<g>
<title>java/lang/String.indexOf (1 samples, 0.37%)</title><rect x="1163.6" y="227.0" width="4.4" height="15" fill="#55e655" rx="2" ry="2"/>
<text x="1166.6" y="238.0"></text>
</g>
<g>
<title>one/nio/net/Session.read (5 samples, 1.87%)</title><rect x="1168.0" y="291.0" width="22.0" height="15" fill="#53e453" rx="2" ry="2"/>
<text x="1171.0" y="302.0">o..</text>
</g>
<g>
<title>one/nio/net/NativeSocket.read (5 samples, 1.87%)</title><rect x="1168.0" y="275.0" width="22.0" height="15" fill="#5ced5c" rx="2" ry="2"/>
<text x="1171.0" y="286.0">o..</text>
</g>
</g>
</svg>
