<?xml version="1.0" standalone="no"?>
<!DOCTYPE svg PUBLIC "-//W3C//DTD SVG 1.1//EN" "http://www.w3.org/Graphics/SVG/1.1/DTD/svg11.dtd">
<svg version="1.1" width="1200" height="294" onload="init(evt)" viewBox="0 0 1200 294" xmlns="http://www.w3.org/2000/svg" xmlns:xlink="http://www.w3.org/1999/xlink">
<style type="text/css">
	text { font-family:Verdana; font-size:12px; fill:rgb(0,0,0); }
	#search { opacity:0.1; cursor:pointer; }
	#search:hover, #search.show { opacity:1; }
	#subtitle { text-anchor:middle; font-color:rgb(160,160,160); }
	#title { text-anchor:middle; font-size:17px}
	#unzoom { cursor:pointer; }
	#frames > *:hover { stroke:black; stroke-width:0.5; cursor:pointer; }
	.hide { display:none; }
	.parent { opacity:0.5; }
</style>
<script type="text/ecmascript">
<![CDATA[
	"use strict";
	var details, searchbtn, unzoombtn, matchedtxt, svg, searching;
	function init(evt) {
		details = document.getElementById("details").firstChild;
		searchbtn = document.getElementById("search");
		unzoombtn = document.getElementById("unzoom");
		matchedtxt = document.getElementById("matched");
		svg = document.getElementsByTagName("svg")[0];
		searching = 0;
	}

	window.addEventListener("click", function(e) {
		var target = find_group(e.target);
		if (target) {
			if (target.nodeName == "a") {
				if (e.ctrlKey === false) return;
				e.preventDefault();
			}
			if (target.classList.contains("parent")) unzoom();
			zoom(target);
		}
		else if (e.target.id == "unzoom") unzoom();
		else if (e.target.id == "search") search_prompt();
	}, false)

	// mouse-over for info
	// show
	window.addEventListener("mouseover", function(e) {
		var target = find_group(e.target);
		if (target) details.nodeValue = "Function: " + g_to_text(target);
	}, false)

	// clear
	window.addEventListener("mouseout", function(e) {
		var target = find_group(e.target);
		if (target) details.nodeValue = ' ';
	}, false)

	// ctrl-F for search
	window.addEventListener("keydown",function (e) {
		if (e.keyCode === 114 || (e.ctrlKey && e.keyCode === 70)) {
			e.preventDefault();
			search_prompt();
		}
	}, false)

	// functions
	function find_child(node, selector) {
		var children = node.querySelectorAll(selector);
		if (children.length) return children[0];
		return;
	}
	function find_group(node) {
		var parent = node.parentElement;
		if (!parent) return;
		if (parent.id == "frames") return node;
		return find_group(parent);
	}
	function orig_save(e, attr, val) {
		if (e.attributes["_orig_" + attr] != undefined) return;
		if (e.attributes[attr] == undefined) return;
		if (val == undefined) val = e.attributes[attr].value;
		e.setAttribute("_orig_" + attr, val);
	}
	function orig_load(e, attr) {
		if (e.attributes["_orig_"+attr] == undefined) return;
		e.attributes[attr].value = e.attributes["_orig_" + attr].value;
		e.removeAttribute("_orig_"+attr);
	}
	function g_to_text(e) {
		var text = find_child(e, "title").firstChild.nodeValue;
		return (text)
	}
	function g_to_func(e) {
		var func = g_to_text(e);
		// if there's any manipulation we want to do to the function
		// name before it's searched, do it here before returning.
		return (func);
	}
	function update_text(e) {
		var r = find_child(e, "rect");
		var t = find_child(e, "text");
		var w = parseFloat(r.attributes.width.value) -3;
		var txt = find_child(e, "title").textContent.replace(/\([^(]*\)$/,"");
		t.attributes.x.value = parseFloat(r.attributes.x.value) + 3;

		// Smaller than this size won't fit anything
		if (w < 2 * 12 * 0.59) {
			t.textContent = "";
			return;
		}

		t.textContent = txt;
		// Fit in full text width
		if (/^ *$/.test(txt) || t.getSubStringLength(0, txt.length) < w)
			return;

		for (var x = txt.length - 2; x > 0; x--) {
			if (t.getSubStringLength(0, x + 2) <= w) {
				t.textContent = txt.substring(0, x) + "..";
				return;
			}
		}
		t.textContent = "";
	}

	// zoom
	function zoom_reset(e) {
		if (e.attributes != undefined) {
			orig_load(e, "x");
			orig_load(e, "width");
		}
		if (e.childNodes == undefined) return;
		for (var i = 0, c = e.childNodes; i < c.length; i++) {
			zoom_reset(c[i]);
		}
	}
	function zoom_child(e, x, ratio) {
		if (e.attributes != undefined) {
			if (e.attributes.x != undefined) {
				orig_save(e, "x");
				e.attributes.x.value = (parseFloat(e.attributes.x.value) - x - 10) * ratio + 10;
				if (e.tagName == "text")
					e.attributes.x.value = find_child(e.parentNode, "rect[x]").attributes.x.value + 3;
			}
			if (e.attributes.width != undefined) {
				orig_save(e, "width");
				e.attributes.width.value = parseFloat(e.attributes.width.value) * ratio;
			}
		}

		if (e.childNodes == undefined) return;
		for (var i = 0, c = e.childNodes; i < c.length; i++) {
			zoom_child(c[i], x - 10, ratio);
		}
	}
	function zoom_parent(e) {
		if (e.attributes) {
			if (e.attributes.x != undefined) {
				orig_save(e, "x");
				e.attributes.x.value = 10;
			}
			if (e.attributes.width != undefined) {
				orig_save(e, "width");
				e.attributes.width.value = parseInt(svg.width.baseVal.value) - (10 * 2);
			}
		}
		if (e.childNodes == undefined) return;
		for (var i = 0, c = e.childNodes; i < c.length; i++) {
			zoom_parent(c[i]);
		}
	}
	function zoom(node) {
		var attr = find_child(node, "rect").attributes;
		var width = parseFloat(attr.width.value);
		var xmin = parseFloat(attr.x.value);
		var xmax = parseFloat(xmin + width);
		var ymin = parseFloat(attr.y.value);
		var ratio = (svg.width.baseVal.value - 2 * 10) / width;

		// XXX: Workaround for JavaScript float issues (fix me)
		var fudge = 0.0001;

		unzoombtn.classList.remove("hide");

		var el = document.getElementById("frames").children;
		for (var i = 0; i < el.length; i++) {
			var e = el[i];
			var a = find_child(e, "rect").attributes;
			var ex = parseFloat(a.x.value);
			var ew = parseFloat(a.width.value);
			var upstack;
			// Is it an ancestor
			if (0 == 0) {
				upstack = parseFloat(a.y.value) > ymin;
			} else {
				upstack = parseFloat(a.y.value) < ymin;
			}
			if (upstack) {
				// Direct ancestor
				if (ex <= xmin && (ex+ew+fudge) >= xmax) {
					e.classList.add("parent");
					zoom_parent(e);
					update_text(e);
				}
				// not in current path
				else
					e.classList.add("hide");
			}
			// Children maybe
			else {
				// no common path
				if (ex < xmin || ex + fudge >= xmax) {
					e.classList.add("hide");
				}
				else {
					zoom_child(e, xmin, ratio);
					update_text(e);
				}
			}
		}
	}
	function unzoom() {
		unzoombtn.classList.add("hide");
		var el = document.getElementById("frames").children;
		for(var i = 0; i < el.length; i++) {
			el[i].classList.remove("parent");
			el[i].classList.remove("hide");
			zoom_reset(el[i]);
			update_text(el[i]);
		}
	}

	// search
	function reset_search() {
		var el = document.querySelectorAll("#frames rect");
		for (var i = 0; i < el.length; i++) {
			orig_load(el[i], "fill")
		}
	}
	function search_prompt() {
		if (!searching) {
			var term = prompt("Enter a search term (regexp " +
			    "allowed, eg: ^ext4_)", "");
			if (term != null) {
				search(term)
			}
		} else {
			reset_search();
			searching = 0;
			searchbtn.classList.remove("show");
			searchbtn.firstChild.nodeValue = "Search"
			matchedtxt.classList.add("hide");
			matchedtxt.firstChild.nodeValue = ""
		}
	}
	function search(term) {
		var re = new RegExp(term);
		var el = document.getElementById("frames").children;
		var matches = new Object();
		var maxwidth = 0;
		for (var i = 0; i < el.length; i++) {
			var e = el[i];
			var func = g_to_func(e);
			var rect = find_child(e, "rect");
			if (func == null || rect == null)
				continue;

			// Save max width. Only works as we have a root frame
			var w = parseFloat(rect.attributes.width.value);
			if (w > maxwidth)
				maxwidth = w;

			if (func.match(re)) {
				// highlight
				var x = parseFloat(rect.attributes.x.value);
				orig_save(rect, "fill");
				rect.attributes.fill.value = "rgb(230,0,230)";

				// remember matches
				if (matches[x] == undefined) {
					matches[x] = w;
				} else {
					if (w > matches[x]) {
						// overwrite with parent
						matches[x] = w;
					}
				}
				searching = 1;
			}
		}
		if (!searching)
			return;

		searchbtn.classList.add("show");
		searchbtn.firstChild.nodeValue = "Reset Search";

		// calculate percent matched, excluding vertical overlap
		var count = 0;
		var lastx = -1;
		var lastw = 0;
		var keys = Array();
		for (k in matches) {
			if (matches.hasOwnProperty(k))
				keys.push(k);
		}
		// sort the matched frames by their x location
		// ascending, then width descending
		keys.sort(function(a, b){
			return a - b;
		});
		// Step through frames saving only the biggest bottom-up frames
		// thanks to the sort order. This relies on the tree property
		// where children are always smaller than their parents.
		var fudge = 0.0001;	// JavaScript floating point
		for (var k in keys) {
			var x = parseFloat(keys[k]);
			var w = matches[keys[k]];
			if (x >= lastx + lastw - fudge) {
				count += w;
				lastx = x;
				lastw = w;
			}
		}
		// display matched percent
		matchedtxt.classList.remove("hide");
		var pct = 100 * count / maxwidth;
		if (pct != 100) pct = pct.toFixed(1)
		matchedtxt.firstChild.nodeValue = "Matched: " + pct + "%";
	}
]]>
</script>
<rect x="0" y="0" width="100%" height="100%" fill="rgb(240,240,220)"/>
<text id="title" x="600" y="24">Async server RAM</text>
<text id="details" x="10" y="277"> </text>
<text id="unzoom" x="10" y="24" class="hide">Reset Zoom</text>
<text id="search" x="1090" y="24">Search</text>
<text id="matched" x="1090" y="277"> </text>
<g id="frames">
<g>
<title>all (3,829 samples, 100.00%)</title><rect x="10.0" y="243.0" width="1180.0" height="15" fill="#fe8181" rx="2" ry="2"/>
<text x="13.0" y="254.0">all</text>
</g>
<g>
<title>java/lang/Thread.run (1,693 samples, 44.22%)</title><rect x="10.0" y="227.0" width="521.7" height="15" fill="#5eef5e" rx="2" ry="2"/>
<text x="13.0" y="238.0">java/lang/Thread.run</text>
</g>
<g>
<title>java/util/concurrent/ThreadPoolExecutor$Worker.run (1,693 samples, 44.22%)</title><rect x="10.0" y="211.0" width="521.7" height="15" fill="#58e958" rx="2" ry="2"/>
<text x="13.0" y="222.0">java/util/concurrent/ThreadPoolExecutor$Worker.run</text>
</g>
<g>
<title>java/util/concurrent/ThreadPoolExecutor.runWorker (1,693 samples, 44.22%)</title><rect x="10.0" y="195.0" width="521.7" height="15" fill="#62f362" rx="2" ry="2"/>
<text x="13.0" y="206.0">java/util/concurrent/ThreadPoolExecutor.runWorker</text>
</g>
<g>
<title>java/util/concurrent/ThreadPoolExecutor.getTask (30 samples, 0.78%)</title><rect x="10.0" y="179.0" width="9.2" height="15" fill="#54e554" rx="2" ry="2"/>
<text x="13.0" y="190.0"></text>
</g>
<g>
<title>java/util/concurrent/ArrayBlockingQueue.take (30 samples, 0.78%)</title><rect x="10.0" y="163.0" width="9.2" height="15" fill="#69fa69" rx="2" ry="2"/>
<text x="13.0" y="174.0"></text>
</g>
<g>
<title>java/util/concurrent/locks/AbstractQueuedSynchronizer$ConditionObject.await (30 samples, 0.78%)</title><rect x="10.0" y="147.0" width="9.2" height="15" fill="#5ff05f" rx="2" ry="2"/>
<text x="13.0" y="158.0"></text>
</g>
<g>
<title>java/util/concurrent/locks/AbstractQueuedSynchronizer$ConditionObject.addConditionWaiter (30 samples, 0.78%)</title><rect x="10.0" y="131.0" width="9.2" height="15" fill="#6cfd6c" rx="2" ry="2"/>
<text x="13.0" y="142.0"></text>
</g>
<g>
<title>java.util.concurrent.locks.AbstractQueuedSynchronizer$Node (30 samples, 0.78%)</title><rect x="10.0" y="115.0" width="9.2" height="15" fill="#56c4c4" rx="2" ry="2"/>
<text x="13.0" y="126.0"></text>
</g>
<g>
<title>ru/mail/polis/service/codearound/AsyncService$$Lambda$67/420533991.run (1,663 samples, 43.43%)</title><rect x="19.2" y="179.0" width="512.5" height="15" fill="#52e352" rx="2" ry="2"/>
<text x="22.2" y="190.0">ru/mail/polis/service/codearound/AsyncService$$Lambda$67/420533991.run</text>
</g>
<g>
<title>ru/mail/polis/service/codearound/AsyncService.lambda$upsert$2 (1,663 samples, 43.43%)</title><rect x="19.2" y="163.0" width="512.5" height="15" fill="#5bec5b" rx="2" ry="2"/>
<text x="22.2" y="174.0">ru/mail/polis/service/codearound/AsyncService.lambda$upsert$2</text>
</g>
<g>
<title>ru/mail/polis/service/codearound/AsyncService.upsertAsync (1,663 samples, 43.43%)</title><rect x="19.2" y="147.0" width="512.5" height="15" fill="#5ced5c" rx="2" ry="2"/>
<text x="22.2" y="158.0">ru/mail/polis/service/codearound/AsyncService.upsertAsync</text>
</g>
<g>
<title>one.nio.http.Response (146 samples, 3.81%)</title><rect x="19.2" y="131.0" width="45.0" height="15" fill="#53c1c1" rx="2" ry="2"/>
<text x="22.2" y="142.0">one...</text>
</g>
<g>
<title>one/nio/http/HttpSession.sendResponse (675 samples, 17.63%)</title><rect x="64.2" y="131.0" width="208.1" height="15" fill="#66f766" rx="2" ry="2"/>
<text x="67.2" y="142.0">one/nio/http/HttpSession.se..</text>
</g>
<g>
<title>one/nio/http/HttpSession.writeResponse (675 samples, 17.63%)</title><rect x="64.2" y="115.0" width="208.1" height="15" fill="#61f261" rx="2" ry="2"/>
<text x="67.2" y="126.0">one/nio/http/HttpSession.wr..</text>
</g>
<g>
<title>one/nio/http/Response.toBytes (481 samples, 12.56%)</title><rect x="64.2" y="99.0" width="148.3" height="15" fill="#61f261" rx="2" ry="2"/>
<text x="67.2" y="110.0">one/nio/http/Respon..</text>
</g>
<g>
<title>one/nio/util/ByteArrayBuilder.&lt;init&gt; (481 samples, 12.56%)</title><rect x="64.2" y="83.0" width="148.3" height="15" fill="#54e554" rx="2" ry="2"/>
<text x="67.2" y="94.0">one/nio/util/ByteAr..</text>
</g>
<g>
<title>byte[] (481 samples, 12.56%)</title><rect x="64.2" y="67.0" width="148.3" height="15" fill="#64d2d2" rx="2" ry="2"/>
<text x="67.2" y="78.0">byte[]</text>
</g>
<g>
<title>one/nio/net/Session.write (194 samples, 5.07%)</title><rect x="212.5" y="99.0" width="59.8" height="15" fill="#60f160" rx="2" ry="2"/>
<text x="215.5" y="110.0">one/ni..</text>
</g>
<g>
<title>one.nio.net.Session$ArrayQueueItem (194 samples, 5.07%)</title><rect x="212.5" y="83.0" width="59.8" height="15" fill="#67d5d5" rx="2" ry="2"/>
<text x="215.5" y="94.0">one.ni..</text>
</g>
<g>
<title>one/nio/http/Response.&lt;init&gt; (541 samples, 14.13%)</title><rect x="272.3" y="131.0" width="166.7" height="15" fill="#5ced5c" rx="2" ry="2"/>
<text x="275.3" y="142.0">one/nio/http/Response..</text>
</g>
<g>
<title>byte[] (262 samples, 6.84%)</title><rect x="272.3" y="115.0" width="80.7" height="15" fill="#50bebe" rx="2" ry="2"/>
<text x="275.3" y="126.0">byte[]</text>
</g>
<g>
<title>java.lang.String[] (181 samples, 4.73%)</title><rect x="353.0" y="115.0" width="55.8" height="15" fill="#69d7d7" rx="2" ry="2"/>
<text x="356.0" y="126.0">java...</text>
</g>
<g>
<title>java.lang.String (98 samples, 2.56%)</title><rect x="408.8" y="115.0" width="30.2" height="15" fill="#5fcdcd" rx="2" ry="2"/>
<text x="411.8" y="126.0">ja..</text>
</g>
<g>
<title>ru/mail/polis/service/codearound/TaskDAO.upsert (301 samples, 7.86%)</title><rect x="439.0" y="131.0" width="92.7" height="15" fill="#68f968" rx="2" ry="2"/>
<text x="442.0" y="142.0">ru/mail/pol..</text>
</g>
<g>
<title>ru/mail/polis/service/codearound/DAOByteOnlyConverter.readByteArray (139 samples, 3.63%)</title><rect x="439.0" y="115.0" width="42.8" height="15" fill="#6cfd6c" rx="2" ry="2"/>
<text x="442.0" y="126.0">ru/m..</text>
</g>
<g>
<title>byte[] (139 samples, 3.63%)</title><rect x="439.0" y="99.0" width="42.8" height="15" fill="#53c1c1" rx="2" ry="2"/>
<text x="442.0" y="110.0">byte[]</text>
</g>
<g>
<title>ru/mail/polis/service/codearound/DAOByteOnlyConverter.tuneBufToArray (162 samples, 4.23%)</title><rect x="481.8" y="115.0" width="49.9" height="15" fill="#54e554" rx="2" ry="2"/>
<text x="484.8" y="126.0">ru/ma..</text>
</g>
<g>
<title>ru/mail/polis/service/codearound/DAOByteOnlyConverter.readByteArray (162 samples, 4.23%)</title><rect x="481.8" y="99.0" width="49.9" height="15" fill="#69fa69" rx="2" ry="2"/>
<text x="484.8" y="110.0">ru/ma..</text>
</g>
<g>
<title>byte[] (162 samples, 4.23%)</title><rect x="481.8" y="83.0" width="49.9" height="15" fill="#5bc9c9" rx="2" ry="2"/>
<text x="484.8" y="94.0">byte[]</text>
</g>
<g>
<title>one/nio/server/SelectorThread.run (2,136 samples, 55.78%)</title><rect x="531.7" y="227.0" width="658.3" height="15" fill="#50e150" rx="2" ry="2"/>
<text x="534.7" y="238.0">one/nio/server/SelectorThread.run</text>
</g>
<g>
<title>one/nio/net/NativeSelector.select (64 samples, 1.67%)</title><rect x="531.7" y="211.0" width="19.8" height="15" fill="#69fa69" rx="2" ry="2"/>
<text x="534.7" y="222.0"></text>
</g>
<g>
<title>one.nio.net.NativeSelector$2 (64 samples, 1.67%)</title><rect x="531.7" y="195.0" width="19.8" height="15" fill="#69d7d7" rx="2" ry="2"/>
<text x="534.7" y="206.0"></text>
</g>
<g>
<title>one/nio/net/Session.process (2,072 samples, 54.11%)</title><rect x="551.5" y="211.0" width="638.5" height="15" fill="#58e958" rx="2" ry="2"/>
<text x="554.5" y="222.0">one/nio/net/Session.process</text>
</g>
<g>
<title>one/nio/http/HttpSession.processRead (2,072 samples, 54.11%)</title><rect x="551.5" y="195.0" width="638.5" height="15" fill="#5eef5e" rx="2" ry="2"/>
<text x="554.5" y="206.0">one/nio/http/HttpSession.processRead</text>
</g>
<g>
<title>one/nio/http/HttpSession.processHttpBuffer (2,072 samples, 54.11%)</title><rect x="551.5" y="179.0" width="638.5" height="15" fill="#50e150" rx="2" ry="2"/>
<text x="554.5" y="190.0">one/nio/http/HttpSession.processHttpBuffer</text>
</g>
<g>
<title>one/nio/http/HttpSession.handleParsedRequest (652 samples, 17.03%)</title><rect x="551.5" y="163.0" width="200.9" height="15" fill="#53e453" rx="2" ry="2"/>
<text x="554.5" y="174.0">one/nio/http/HttpSession.h..</text>
</g>
<g>
<title>one/nio/http/HttpServer.handleRequest (652 samples, 17.03%)</title><rect x="551.5" y="147.0" width="200.9" height="15" fill="#6dfe6d" rx="2" ry="2"/>
<text x="554.5" y="158.0">one/nio/http/HttpServer.ha..</text>
</g>
<g>
<title>RequestHandler1_entity.handleRequest (507 samples, 13.24%)</title><rect x="551.5" y="131.0" width="156.2" height="15" fill="#6dfe6d" rx="2" ry="2"/>
<text x="554.5" y="142.0">RequestHandler1_enti..</text>
</g>
<g>
<title>one/nio/http/Request.getRequiredParameter (116 samples, 3.03%)</title><rect x="551.5" y="115.0" width="35.7" height="15" fill="#5aeb5a" rx="2" ry="2"/>
<text x="554.5" y="126.0">one..</text>
</g>
<g>
<title>one/nio/http/Request.getParameter (116 samples, 3.03%)</title><rect x="551.5" y="99.0" width="35.7" height="15" fill="#52e352" rx="2" ry="2"/>
<text x="554.5" y="110.0">one..</text>
</g>
<g>
<title>java/lang/String.substring (116 samples, 3.03%)</title><rect x="551.5" y="83.0" width="35.7" height="15" fill="#5aeb5a" rx="2" ry="2"/>
<text x="554.5" y="94.0">jav..</text>
</g>
<g>
<title>java/lang/StringLatin1.newString (116 samples, 3.03%)</title><rect x="551.5" y="67.0" width="35.7" height="15" fill="#67f867" rx="2" ry="2"/>
<text x="554.5" y="78.0">jav..</text>
</g>
<g>
<title>java.lang.String (45 samples, 1.18%)</title><rect x="551.5" y="51.0" width="13.8" height="15" fill="#56c4c4" rx="2" ry="2"/>
<text x="554.5" y="62.0"></text>
</g>
<g>
<title>java/util/Arrays.copyOfRange (71 samples, 1.85%)</title><rect x="565.3" y="51.0" width="21.9" height="15" fill="#53e453" rx="2" ry="2"/>
<text x="568.3" y="62.0">j..</text>
</g>
<g>
<title>byte[] (71 samples, 1.85%)</title><rect x="565.3" y="35.0" width="21.9" height="15" fill="#5ac8c8" rx="2" ry="2"/>
<text x="568.3" y="46.0">b..</text>
</g>
<g>
<title>ru/mail/polis/service/codearound/AsyncService.entity (391 samples, 10.21%)</title><rect x="587.2" y="115.0" width="120.5" height="15" fill="#67f867" rx="2" ry="2"/>
<text x="590.2" y="126.0">ru/mail/polis/s..</text>
</g>
<g>
<title>java/lang/String.getBytes (85 samples, 2.22%)</title><rect x="587.2" y="99.0" width="26.2" height="15" fill="#58e958" rx="2" ry="2"/>
<text x="590.2" y="110.0">j..</text>
</g>
<g>
<title>java/lang/StringCoding.encode (85 samples, 2.22%)</title><rect x="587.2" y="83.0" width="26.2" height="15" fill="#51e251" rx="2" ry="2"/>
<text x="590.2" y="94.0">j..</text>
</g>
<g>
<title>java/lang/StringCoding.encodeUTF8 (85 samples, 2.22%)</title><rect x="587.2" y="67.0" width="26.2" height="15" fill="#5aeb5a" rx="2" ry="2"/>
<text x="590.2" y="78.0">j..</text>
</g>
<g>
<title>java/util/Arrays.copyOf (85 samples, 2.22%)</title><rect x="587.2" y="51.0" width="26.2" height="15" fill="#51e251" rx="2" ry="2"/>
<text x="590.2" y="62.0">j..</text>
</g>
<g>
<title>byte[] (85 samples, 2.22%)</title><rect x="587.2" y="35.0" width="26.2" height="15" fill="#5dcbcb" rx="2" ry="2"/>
<text x="590.2" y="46.0">b..</text>
</g>
<g>
<title>java/nio/ByteBuffer.wrap (116 samples, 3.03%)</title><rect x="613.4" y="99.0" width="35.8" height="15" fill="#5aeb5a" rx="2" ry="2"/>
<text x="616.4" y="110.0">jav..</text>
</g>
<g>
<title>java/nio/ByteBuffer.wrap (116 samples, 3.03%)</title><rect x="613.4" y="83.0" width="35.8" height="15" fill="#6bfc6b" rx="2" ry="2"/>
<text x="616.4" y="94.0">jav..</text>
</g>
<g>
<title>java.nio.HeapByteBuffer (116 samples, 3.03%)</title><rect x="613.4" y="67.0" width="35.8" height="15" fill="#6ddbdb" rx="2" ry="2"/>
<text x="616.4" y="78.0">jav..</text>
</g>
<g>
<title>ru/mail/polis/service/codearound/AsyncService.upsert (190 samples, 4.96%)</title><rect x="649.2" y="99.0" width="58.5" height="15" fill="#55e655" rx="2" ry="2"/>
<text x="652.2" y="110.0">ru/mai..</text>
</g>
<g>
<title>java/lang/invoke/Invokers$Holder.linkToTargetMethod (83 samples, 2.17%)</title><rect x="649.2" y="83.0" width="25.5" height="15" fill="#6afb6a" rx="2" ry="2"/>
<text x="652.2" y="94.0">j..</text>
</g>
<g>
<title>java/lang/invoke/DirectMethodHandle$Holder.invokeStatic (83 samples, 2.17%)</title><rect x="649.2" y="67.0" width="25.5" height="15" fill="#52e352" rx="2" ry="2"/>
<text x="652.2" y="78.0">j..</text>
</g>
<g>
<title>ru/mail/polis/service/codearound/AsyncService$$Lambda$67/420533991.get$Lambda (83 samples, 2.17%)</title><rect x="649.2" y="51.0" width="25.5" height="15" fill="#5aeb5a" rx="2" ry="2"/>
<text x="652.2" y="62.0">r..</text>
</g>
<g>
<title>ru.mail.polis.service.codearound.AsyncService$$Lambda$67 (83 samples, 2.17%)</title><rect x="649.2" y="35.0" width="25.5" height="15" fill="#65d3d3" rx="2" ry="2"/>
<text x="652.2" y="46.0">r..</text>
</g>
<g>
<title>java/nio/ByteBuffer.wrap (107 samples, 2.79%)</title><rect x="674.7" y="83.0" width="33.0" height="15" fill="#5eef5e" rx="2" ry="2"/>
<text x="677.7" y="94.0">ja..</text>
</g>
<g>
<title>java/nio/ByteBuffer.wrap (107 samples, 2.79%)</title><rect x="674.7" y="67.0" width="33.0" height="15" fill="#5bec5b" rx="2" ry="2"/>
<text x="677.7" y="78.0">ja..</text>
</g>
<g>
<title>java.nio.HeapByteBuffer (107 samples, 2.79%)</title><rect x="674.7" y="51.0" width="33.0" height="15" fill="#61cfcf" rx="2" ry="2"/>
<text x="677.7" y="62.0">ja..</text>
</g>
<g>
<title>one/nio/http/Request.getPath (145 samples, 3.79%)</title><rect x="707.7" y="131.0" width="44.7" height="15" fill="#59ea59" rx="2" ry="2"/>
<text x="710.7" y="142.0">one/..</text>
</g>
<g>
<title>java/lang/String.substring (145 samples, 3.79%)</title><rect x="707.7" y="115.0" width="44.7" height="15" fill="#64f564" rx="2" ry="2"/>
<text x="710.7" y="126.0">java..</text>
</g>
<g>
<title>java/lang/StringLatin1.newString (145 samples, 3.79%)</title><rect x="707.7" y="99.0" width="44.7" height="15" fill="#51e251" rx="2" ry="2"/>
<text x="710.7" y="110.0">java..</text>
</g>
<g>
<title>java.lang.String (65 samples, 1.70%)</title><rect x="707.7" y="83.0" width="20.0" height="15" fill="#5ac8c8" rx="2" ry="2"/>
<text x="710.7" y="94.0"></text>
</g>
<g>
<title>java/util/Arrays.copyOfRange (80 samples, 2.09%)</title><rect x="727.7" y="83.0" width="24.7" height="15" fill="#68f968" rx="2" ry="2"/>
<text x="730.7" y="94.0">j..</text>
</g>
<g>
<title>byte[] (80 samples, 2.09%)</title><rect x="727.7" y="67.0" width="24.7" height="15" fill="#51bfbf" rx="2" ry="2"/>
<text x="730.7" y="78.0">b..</text>
</g>
<g>
<title>one/nio/http/HttpSession.parseRequest (624 samples, 16.30%)</title><rect x="752.4" y="163.0" width="192.3" height="15" fill="#5aeb5a" rx="2" ry="2"/>
<text x="755.4" y="174.0">one/nio/http/HttpSession...</text>
</g>
<g>
<title>one.nio.http.Request (86 samples, 2.25%)</title><rect x="752.4" y="147.0" width="26.5" height="15" fill="#55c3c3" rx="2" ry="2"/>
<text x="755.4" y="158.0">o..</text>
</g>
<g>
<title>one/nio/http/Request.&lt;init&gt; (200 samples, 5.22%)</title><rect x="778.9" y="147.0" width="61.6" height="15" fill="#54e554" rx="2" ry="2"/>
<text x="781.9" y="158.0">one/ni..</text>
</g>
<g>
<title>java.lang.String[] (200 samples, 5.22%)</title><rect x="778.9" y="131.0" width="61.6" height="15" fill="#65d3d3" rx="2" ry="2"/>
<text x="781.9" y="142.0">java.l..</text>
</g>
<g>
<title>one/nio/util/Utf8.read (338 samples, 8.83%)</title><rect x="840.5" y="147.0" width="104.2" height="15" fill="#6cfd6c" rx="2" ry="2"/>
<text x="843.5" y="158.0">one/nio/util..</text>
</g>
<g>
<title>one/nio/util/Utf8.read (338 samples, 8.83%)</title><rect x="840.5" y="131.0" width="104.2" height="15" fill="#5aeb5a" rx="2" ry="2"/>
<text x="843.5" y="142.0">one/nio/util..</text>
</g>
<g>
<title>char[] (177 samples, 4.62%)</title><rect x="840.5" y="115.0" width="54.6" height="15" fill="#68d6d6" rx="2" ry="2"/>
<text x="843.5" y="126.0">char[]</text>
</g>
<g>
<title>java.lang.String (56 samples, 1.46%)</title><rect x="895.1" y="115.0" width="17.2" height="15" fill="#58c6c6" rx="2" ry="2"/>
<text x="898.1" y="126.0"></text>
</g>
<g>
<title>java/lang/String.&lt;init&gt; (105 samples, 2.74%)</title><rect x="912.3" y="115.0" width="32.4" height="15" fill="#54e554" rx="2" ry="2"/>
<text x="915.3" y="126.0">ja..</text>
</g>
<g>
<title>java/lang/String.&lt;init&gt; (105 samples, 2.74%)</title><rect x="912.3" y="99.0" width="32.4" height="15" fill="#52e352" rx="2" ry="2"/>
<text x="915.3" y="110.0">ja..</text>
</g>
<g>
<title>java/lang/StringUTF16.compress (105 samples, 2.74%)</title><rect x="912.3" y="83.0" width="32.4" height="15" fill="#59ea59" rx="2" ry="2"/>
<text x="915.3" y="94.0">ja..</text>
</g>
<g>
<title>byte[] (105 samples, 2.74%)</title><rect x="912.3" y="67.0" width="32.4" height="15" fill="#5fcdcd" rx="2" ry="2"/>
<text x="915.3" y="78.0">by..</text>
</g>
<g>
<title>one/nio/http/HttpSession.startParsingRequestBody (64 samples, 1.67%)</title><rect x="944.7" y="163.0" width="19.7" height="15" fill="#54e554" rx="2" ry="2"/>
<text x="947.7" y="174.0"></text>
</g>
<g>
<title>byte[] (64 samples, 1.67%)</title><rect x="944.7" y="147.0" width="19.7" height="15" fill="#66d4d4" rx="2" ry="2"/>
<text x="947.7" y="158.0"></text>
</g>
<g>
<title>one/nio/http/Request.getHeader (106 samples, 2.77%)</title><rect x="964.4" y="163.0" width="32.7" height="15" fill="#6afb6a" rx="2" ry="2"/>
<text x="967.4" y="174.0">on..</text>
</g>
<g>
<title>java/lang/String.substring (106 samples, 2.77%)</title><rect x="964.4" y="147.0" width="32.7" height="15" fill="#51e251" rx="2" ry="2"/>
<text x="967.4" y="158.0">ja..</text>
</g>
<g>
<title>java/lang/StringLatin1.newString (106 samples, 2.77%)</title><rect x="964.4" y="131.0" width="32.7" height="15" fill="#65f665" rx="2" ry="2"/>
<text x="967.4" y="142.0">ja..</text>
</g>
<g>
<title>java.lang.String (35 samples, 0.91%)</title><rect x="964.4" y="115.0" width="10.8" height="15" fill="#51bfbf" rx="2" ry="2"/>
<text x="967.4" y="126.0"></text>
</g>
<g>
<title>java/util/Arrays.copyOfRange (71 samples, 1.85%)</title><rect x="975.2" y="115.0" width="21.9" height="15" fill="#6bfc6b" rx="2" ry="2"/>
<text x="978.2" y="126.0">j..</text>
</g>
<g>
<title>byte[] (71 samples, 1.85%)</title><rect x="975.2" y="99.0" width="21.9" height="15" fill="#68d6d6" rx="2" ry="2"/>
<text x="978.2" y="110.0">b..</text>
</g>
<g>
<title>one/nio/util/Utf8.read (626 samples, 16.35%)</title><rect x="997.1" y="163.0" width="192.9" height="15" fill="#5ced5c" rx="2" ry="2"/>
<text x="1000.1" y="174.0">one/nio/util/Utf8.read</text>
</g>
<g>
<title>one/nio/util/Utf8.read (626 samples, 16.35%)</title><rect x="997.1" y="147.0" width="192.9" height="15" fill="#63f463" rx="2" ry="2"/>
<text x="1000.1" y="158.0">one/nio/util/Utf8.read</text>
</g>
<g>
<title>char[] (305 samples, 7.97%)</title><rect x="997.1" y="131.0" width="94.0" height="15" fill="#58c6c6" rx="2" ry="2"/>
<text x="1000.1" y="142.0">char[]</text>
</g>
<g>
<title>java.lang.String (136 samples, 3.55%)</title><rect x="1091.1" y="131.0" width="41.9" height="15" fill="#67d5d5" rx="2" ry="2"/>
<text x="1094.1" y="142.0">jav..</text>
</g>
<g>
<title>java/lang/String.&lt;init&gt; (185 samples, 4.83%)</title><rect x="1133.0" y="131.0" width="57.0" height="15" fill="#57e857" rx="2" ry="2"/>
<text x="1136.0" y="142.0">java/l..</text>
</g>
<g>
<title>java/lang/String.&lt;init&gt; (185 samples, 4.83%)</title><rect x="1133.0" y="115.0" width="57.0" height="15" fill="#62f362" rx="2" ry="2"/>
<text x="1136.0" y="126.0">java/l..</text>
</g>
<g>
<title>java/lang/StringUTF16.compress (185 samples, 4.83%)</title><rect x="1133.0" y="99.0" width="57.0" height="15" fill="#5eef5e" rx="2" ry="2"/>
<text x="1136.0" y="110.0">java/l..</text>
</g>
<g>
<title>byte[] (185 samples, 4.83%)</title><rect x="1133.0" y="83.0" width="57.0" height="15" fill="#58c6c6" rx="2" ry="2"/>
<text x="1136.0" y="94.0">byte[]</text>
</g>
</g>
</svg>
