<?xml version="1.0" standalone="no"?>
<!DOCTYPE svg PUBLIC "-//W3C//DTD SVG 1.1//EN" "http://www.w3.org/Graphics/SVG/1.1/DTD/svg11.dtd">
<svg version="1.1" width="1200" height="326" onload="init(evt)" viewBox="0 0 1200 326" xmlns="http://www.w3.org/2000/svg" xmlns:xlink="http://www.w3.org/1999/xlink">
<style type="text/css">
	text { font-family:Verdana; font-size:12px; fill:rgb(0,0,0); }
	#search { opacity:0.1; cursor:pointer; }
	#search:hover, #search.show { opacity:1; }
	#subtitle { text-anchor:middle; font-color:rgb(160,160,160); }
	#title { text-anchor:middle; font-size:17px}
	#unzoom { cursor:pointer; }
	#frames > *:hover { stroke:black; stroke-width:0.5; cursor:pointer; }
	.hide { display:none; }
	.parent { opacity:0.5; }
</style>
<script type="text/ecmascript">
<![CDATA[
	"use strict";
	var details, searchbtn, unzoombtn, matchedtxt, svg, searching;
	function init(evt) {
		details = document.getElementById("details").firstChild;
		searchbtn = document.getElementById("search");
		unzoombtn = document.getElementById("unzoom");
		matchedtxt = document.getElementById("matched");
		svg = document.getElementsByTagName("svg")[0];
		searching = 0;
	}

	window.addEventListener("click", function(e) {
		var target = find_group(e.target);
		if (target) {
			if (target.nodeName == "a") {
				if (e.ctrlKey === false) return;
				e.preventDefault();
			}
			if (target.classList.contains("parent")) unzoom();
			zoom(target);
		}
		else if (e.target.id == "unzoom") unzoom();
		else if (e.target.id == "search") search_prompt();
	}, false)

	// mouse-over for info
	// show
	window.addEventListener("mouseover", function(e) {
		var target = find_group(e.target);
		if (target) details.nodeValue = "Function: " + g_to_text(target);
	}, false)

	// clear
	window.addEventListener("mouseout", function(e) {
		var target = find_group(e.target);
		if (target) details.nodeValue = ' ';
	}, false)

	// ctrl-F for search
	window.addEventListener("keydown",function (e) {
		if (e.keyCode === 114 || (e.ctrlKey && e.keyCode === 70)) {
			e.preventDefault();
			search_prompt();
		}
	}, false)

	// functions
	function find_child(node, selector) {
		var children = node.querySelectorAll(selector);
		if (children.length) return children[0];
		return;
	}
	function find_group(node) {
		var parent = node.parentElement;
		if (!parent) return;
		if (parent.id == "frames") return node;
		return find_group(parent);
	}
	function orig_save(e, attr, val) {
		if (e.attributes["_orig_" + attr] != undefined) return;
		if (e.attributes[attr] == undefined) return;
		if (val == undefined) val = e.attributes[attr].value;
		e.setAttribute("_orig_" + attr, val);
	}
	function orig_load(e, attr) {
		if (e.attributes["_orig_"+attr] == undefined) return;
		e.attributes[attr].value = e.attributes["_orig_" + attr].value;
		e.removeAttribute("_orig_"+attr);
	}
	function g_to_text(e) {
		var text = find_child(e, "title").firstChild.nodeValue;
		return (text)
	}
	function g_to_func(e) {
		var func = g_to_text(e);
		// if there's any manipulation we want to do to the function
		// name before it's searched, do it here before returning.
		return (func);
	}
	function update_text(e) {
		var r = find_child(e, "rect");
		var t = find_child(e, "text");
		var w = parseFloat(r.attributes.width.value) -3;
		var txt = find_child(e, "title").textContent.replace(/\([^(]*\)$/,"");
		t.attributes.x.value = parseFloat(r.attributes.x.value) + 3;

		// Smaller than this size won't fit anything
		if (w < 2 * 12 * 0.59) {
			t.textContent = "";
			return;
		}

		t.textContent = txt;
		// Fit in full text width
		if (/^ *$/.test(txt) || t.getSubStringLength(0, txt.length) < w)
			return;

		for (var x = txt.length - 2; x > 0; x--) {
			if (t.getSubStringLength(0, x + 2) <= w) {
				t.textContent = txt.substring(0, x) + "..";
				return;
			}
		}
		t.textContent = "";
	}

	// zoom
	function zoom_reset(e) {
		if (e.attributes != undefined) {
			orig_load(e, "x");
			orig_load(e, "width");
		}
		if (e.childNodes == undefined) return;
		for (var i = 0, c = e.childNodes; i < c.length; i++) {
			zoom_reset(c[i]);
		}
	}
	function zoom_child(e, x, ratio) {
		if (e.attributes != undefined) {
			if (e.attributes.x != undefined) {
				orig_save(e, "x");
				e.attributes.x.value = (parseFloat(e.attributes.x.value) - x - 10) * ratio + 10;
				if (e.tagName == "text")
					e.attributes.x.value = find_child(e.parentNode, "rect[x]").attributes.x.value + 3;
			}
			if (e.attributes.width != undefined) {
				orig_save(e, "width");
				e.attributes.width.value = parseFloat(e.attributes.width.value) * ratio;
			}
		}

		if (e.childNodes == undefined) return;
		for (var i = 0, c = e.childNodes; i < c.length; i++) {
			zoom_child(c[i], x - 10, ratio);
		}
	}
	function zoom_parent(e) {
		if (e.attributes) {
			if (e.attributes.x != undefined) {
				orig_save(e, "x");
				e.attributes.x.value = 10;
			}
			if (e.attributes.width != undefined) {
				orig_save(e, "width");
				e.attributes.width.value = parseInt(svg.width.baseVal.value) - (10 * 2);
			}
		}
		if (e.childNodes == undefined) return;
		for (var i = 0, c = e.childNodes; i < c.length; i++) {
			zoom_parent(c[i]);
		}
	}
	function zoom(node) {
		var attr = find_child(node, "rect").attributes;
		var width = parseFloat(attr.width.value);
		var xmin = parseFloat(attr.x.value);
		var xmax = parseFloat(xmin + width);
		var ymin = parseFloat(attr.y.value);
		var ratio = (svg.width.baseVal.value - 2 * 10) / width;

		// XXX: Workaround for JavaScript float issues (fix me)
		var fudge = 0.0001;

		unzoombtn.classList.remove("hide");

		var el = document.getElementById("frames").children;
		for (var i = 0; i < el.length; i++) {
			var e = el[i];
			var a = find_child(e, "rect").attributes;
			var ex = parseFloat(a.x.value);
			var ew = parseFloat(a.width.value);
			var upstack;
			// Is it an ancestor
			if (0 == 0) {
				upstack = parseFloat(a.y.value) > ymin;
			} else {
				upstack = parseFloat(a.y.value) < ymin;
			}
			if (upstack) {
				// Direct ancestor
				if (ex <= xmin && (ex+ew+fudge) >= xmax) {
					e.classList.add("parent");
					zoom_parent(e);
					update_text(e);
				}
				// not in current path
				else
					e.classList.add("hide");
			}
			// Children maybe
			else {
				// no common path
				if (ex < xmin || ex + fudge >= xmax) {
					e.classList.add("hide");
				}
				else {
					zoom_child(e, xmin, ratio);
					update_text(e);
				}
			}
		}
	}
	function unzoom() {
		unzoombtn.classList.add("hide");
		var el = document.getElementById("frames").children;
		for(var i = 0; i < el.length; i++) {
			el[i].classList.remove("parent");
			el[i].classList.remove("hide");
			zoom_reset(el[i]);
			update_text(el[i]);
		}
	}

	// search
	function reset_search() {
		var el = document.querySelectorAll("#frames rect");
		for (var i = 0; i < el.length; i++) {
			orig_load(el[i], "fill")
		}
	}
	function search_prompt() {
		if (!searching) {
			var term = prompt("Enter a search term (regexp " +
			    "allowed, eg: ^ext4_)", "");
			if (term != null) {
				search(term)
			}
		} else {
			reset_search();
			searching = 0;
			searchbtn.classList.remove("show");
			searchbtn.firstChild.nodeValue = "Search"
			matchedtxt.classList.add("hide");
			matchedtxt.firstChild.nodeValue = ""
		}
	}
	function search(term) {
		var re = new RegExp(term);
		var el = document.getElementById("frames").children;
		var matches = new Object();
		var maxwidth = 0;
		for (var i = 0; i < el.length; i++) {
			var e = el[i];
			var func = g_to_func(e);
			var rect = find_child(e, "rect");
			if (func == null || rect == null)
				continue;

			// Save max width. Only works as we have a root frame
			var w = parseFloat(rect.attributes.width.value);
			if (w > maxwidth)
				maxwidth = w;

			if (func.match(re)) {
				// highlight
				var x = parseFloat(rect.attributes.x.value);
				orig_save(rect, "fill");
				rect.attributes.fill.value = "rgb(230,0,230)";

				// remember matches
				if (matches[x] == undefined) {
					matches[x] = w;
				} else {
					if (w > matches[x]) {
						// overwrite with parent
						matches[x] = w;
					}
				}
				searching = 1;
			}
		}
		if (!searching)
			return;

		searchbtn.classList.add("show");
		searchbtn.firstChild.nodeValue = "Reset Search";

		// calculate percent matched, excluding vertical overlap
		var count = 0;
		var lastx = -1;
		var lastw = 0;
		var keys = Array();
		for (k in matches) {
			if (matches.hasOwnProperty(k))
				keys.push(k);
		}
		// sort the matched frames by their x location
		// ascending, then width descending
		keys.sort(function(a, b){
			return a - b;
		});
		// Step through frames saving only the biggest bottom-up frames
		// thanks to the sort order. This relies on the tree property
		// where children are always smaller than their parents.
		var fudge = 0.0001;	// JavaScript floating point
		for (var k in keys) {
			var x = parseFloat(keys[k]);
			var w = matches[keys[k]];
			if (x >= lastx + lastw - fudge) {
				count += w;
				lastx = x;
				lastw = w;
			}
		}
		// display matched percent
		matchedtxt.classList.remove("hide");
		var pct = 100 * count / maxwidth;
		if (pct != 100) pct = pct.toFixed(1)
		matchedtxt.firstChild.nodeValue = "Matched: " + pct + "%";
	}
]]>
</script>
<rect x="0" y="0" width="100%" height="100%" fill="rgb(240,240,220)"/>
<text id="title" x="600" y="24">Single node RAM</text>
<text id="details" x="10" y="309"> </text>
<text id="unzoom" x="10" y="24" class="hide">Reset Zoom</text>
<text id="search" x="1090" y="24">Search</text>
<text id="matched" x="1090" y="309"> </text>
<g id="frames">
<g>
<title>all (4,496 samples, 100.00%)</title><rect x="10.0" y="275.0" width="1180.0" height="15" fill="#ef6d6d" rx="2" ry="2"/>
<text x="13.0" y="286.0">all</text>
</g>
<g>
<title>java/lang/Thread.run (2,231 samples, 49.62%)</title><rect x="10.0" y="259.0" width="585.5" height="15" fill="#5ff05f" rx="2" ry="2"/>
<text x="13.0" y="270.0">java/lang/Thread.run</text>
</g>
<g>
<title>java/util/concurrent/ThreadPoolExecutor$Worker.run (2,231 samples, 49.62%)</title><rect x="10.0" y="243.0" width="585.5" height="15" fill="#67f867" rx="2" ry="2"/>
<text x="13.0" y="254.0">java/util/concurrent/ThreadPoolExecutor$Worker.run</text>
</g>
<g>
<title>java/util/concurrent/ThreadPoolExecutor.runWorker (2,231 samples, 49.62%)</title><rect x="10.0" y="227.0" width="585.5" height="15" fill="#63f463" rx="2" ry="2"/>
<text x="13.0" y="238.0">java/util/concurrent/ThreadPoolExecutor.runWorker</text>
</g>
<g>
<title>java/util/concurrent/ThreadPoolExecutor.getTask (63 samples, 1.40%)</title><rect x="10.0" y="211.0" width="16.5" height="15" fill="#5ff05f" rx="2" ry="2"/>
<text x="13.0" y="222.0"></text>
</g>
<g>
<title>java/util/concurrent/ArrayBlockingQueue.take (63 samples, 1.40%)</title><rect x="10.0" y="195.0" width="16.5" height="15" fill="#52e352" rx="2" ry="2"/>
<text x="13.0" y="206.0"></text>
</g>
<g>
<title>java/util/concurrent/locks/AbstractQueuedSynchronizer$ConditionObject.await (62 samples, 1.38%)</title><rect x="10.0" y="179.0" width="16.3" height="15" fill="#56e756" rx="2" ry="2"/>
<text x="13.0" y="190.0"></text>
</g>
<g>
<title>java/util/concurrent/locks/AbstractQueuedSynchronizer$ConditionObject.addConditionWaiter (62 samples, 1.38%)</title><rect x="10.0" y="163.0" width="16.3" height="15" fill="#5ced5c" rx="2" ry="2"/>
<text x="13.0" y="174.0"></text>
</g>
<g>
<title>java.util.concurrent.locks.AbstractQueuedSynchronizer$Node (62 samples, 1.38%)</title><rect x="10.0" y="147.0" width="16.3" height="15" fill="#62d0d0" rx="2" ry="2"/>
<text x="13.0" y="158.0"></text>
</g>
<g>
<title>java/util/concurrent/locks/ReentrantLock.lockInterruptibly (1 samples, 0.02%)</title><rect x="26.3" y="179.0" width="0.2" height="15" fill="#64f564" rx="2" ry="2"/>
<text x="29.3" y="190.0"></text>
</g>
<g>
<title>java/util/concurrent/locks/AbstractQueuedSynchronizer.acquireInterruptibly (1 samples, 0.02%)</title><rect x="26.3" y="163.0" width="0.2" height="15" fill="#61f261" rx="2" ry="2"/>
<text x="29.3" y="174.0"></text>
</g>
<g>
<title>java/util/concurrent/locks/AbstractQueuedSynchronizer.doAcquireInterruptibly (1 samples, 0.02%)</title><rect x="26.3" y="147.0" width="0.2" height="15" fill="#6afb6a" rx="2" ry="2"/>
<text x="29.3" y="158.0"></text>
</g>
<g>
<title>java/util/concurrent/locks/AbstractQueuedSynchronizer.addWaiter (1 samples, 0.02%)</title><rect x="26.3" y="131.0" width="0.2" height="15" fill="#68f968" rx="2" ry="2"/>
<text x="29.3" y="142.0"></text>
</g>
<g>
<title>java.util.concurrent.locks.AbstractQueuedSynchronizer$Node (1 samples, 0.02%)</title><rect x="26.3" y="115.0" width="0.2" height="15" fill="#5bc9c9" rx="2" ry="2"/>
<text x="29.3" y="126.0"></text>
</g>
<g>
<title>ru/mail/polis/service/codearound/AsyncService$$Lambda$67/1598457346.run (2,168 samples, 48.22%)</title><rect x="26.5" y="211.0" width="569.0" height="15" fill="#61f261" rx="2" ry="2"/>
<text x="29.5" y="222.0">ru/mail/polis/service/codearound/AsyncService$$Lambda$67/1598457346.run</text>
</g>
<g>
<title>ru/mail/polis/service/codearound/AsyncService.lambda$runAsyncHandler$4 (2,168 samples, 48.22%)</title><rect x="26.5" y="195.0" width="569.0" height="15" fill="#5ced5c" rx="2" ry="2"/>
<text x="29.5" y="206.0">ru/mail/polis/service/codearound/AsyncService.lambda$runAsyncHandler$4</text>
</g>
<g>
<title>one/nio/http/HttpSession.sendResponse (574 samples, 12.77%)</title><rect x="26.5" y="179.0" width="150.7" height="15" fill="#55e655" rx="2" ry="2"/>
<text x="29.5" y="190.0">one/nio/http/HttpSe..</text>
</g>
<g>
<title>one/nio/http/HttpSession.writeResponse (574 samples, 12.77%)</title><rect x="26.5" y="163.0" width="150.7" height="15" fill="#50e150" rx="2" ry="2"/>
<text x="29.5" y="174.0">one/nio/http/HttpSe..</text>
</g>
<g>
<title>one/nio/http/Response.toBytes (428 samples, 9.52%)</title><rect x="26.5" y="147.0" width="112.4" height="15" fill="#5bec5b" rx="2" ry="2"/>
<text x="29.5" y="158.0">one/nio/http/R..</text>
</g>
<g>
<title>one/nio/util/ByteArrayBuilder.&lt;init&gt; (428 samples, 9.52%)</title><rect x="26.5" y="131.0" width="112.4" height="15" fill="#55e655" rx="2" ry="2"/>
<text x="29.5" y="142.0">one/nio/util/B..</text>
</g>
<g>
<title>byte[] (428 samples, 9.52%)</title><rect x="26.5" y="115.0" width="112.4" height="15" fill="#5ecccc" rx="2" ry="2"/>
<text x="29.5" y="126.0">byte[]</text>
</g>
<g>
<title>one/nio/net/Session.write (146 samples, 3.25%)</title><rect x="138.9" y="147.0" width="38.3" height="15" fill="#5ced5c" rx="2" ry="2"/>
<text x="141.9" y="158.0">one..</text>
</g>
<g>
<title>one.nio.net.Session$ArrayQueueItem (146 samples, 3.25%)</title><rect x="138.9" y="131.0" width="38.3" height="15" fill="#53c1c1" rx="2" ry="2"/>
<text x="141.9" y="142.0">one..</text>
</g>
<g>
<title>ru/mail/polis/service/codearound/AsyncService$$Lambda$68/815123323.exec (1,594 samples, 35.45%)</title><rect x="177.2" y="179.0" width="418.3" height="15" fill="#6cfd6c" rx="2" ry="2"/>
<text x="180.2" y="190.0">ru/mail/polis/service/codearound/AsyncService$$Lambda$68/..</text>
</g>
<g>
<title>ru/mail/polis/service/codearound/AsyncService.lambda$entity$1 (1,594 samples, 35.45%)</title><rect x="177.2" y="163.0" width="418.3" height="15" fill="#62f362" rx="2" ry="2"/>
<text x="180.2" y="174.0">ru/mail/polis/service/codearound/AsyncService.lambda$enti..</text>
</g>
<g>
<title>ru/mail/polis/service/codearound/AsyncService.get (1,594 samples, 35.45%)</title><rect x="177.2" y="147.0" width="418.3" height="15" fill="#65f665" rx="2" ry="2"/>
<text x="180.2" y="158.0">ru/mail/polis/service/codearound/AsyncService.get</text>
</g>
<g>
<title>one.nio.http.Response (100 samples, 2.22%)</title><rect x="177.2" y="131.0" width="26.2" height="15" fill="#5dcbcb" rx="2" ry="2"/>
<text x="180.2" y="142.0">o..</text>
</g>
<g>
<title>one/nio/http/Response.&lt;init&gt; (169 samples, 3.76%)</title><rect x="203.4" y="131.0" width="44.4" height="15" fill="#52e352" rx="2" ry="2"/>
<text x="206.4" y="142.0">one/..</text>
</g>
<g>
<title>java/util/Arrays.copyOf (169 samples, 3.76%)</title><rect x="203.4" y="115.0" width="44.4" height="15" fill="#53e453" rx="2" ry="2"/>
<text x="206.4" y="126.0">java..</text>
</g>
<g>
<title>java.lang.String[] (169 samples, 3.76%)</title><rect x="203.4" y="99.0" width="44.4" height="15" fill="#68d6d6" rx="2" ry="2"/>
<text x="206.4" y="110.0">java..</text>
</g>
<g>
<title>one/nio/http/Response.ok (478 samples, 10.63%)</title><rect x="247.8" y="131.0" width="125.4" height="15" fill="#53e453" rx="2" ry="2"/>
<text x="250.8" y="142.0">one/nio/http/Re..</text>
</g>
<g>
<title>one/nio/http/Response.&lt;init&gt; (478 samples, 10.63%)</title><rect x="247.8" y="115.0" width="125.4" height="15" fill="#61f261" rx="2" ry="2"/>
<text x="250.8" y="126.0">one/nio/http/Re..</text>
</g>
<g>
<title>byte[] (193 samples, 4.29%)</title><rect x="247.8" y="99.0" width="50.6" height="15" fill="#5ac8c8" rx="2" ry="2"/>
<text x="250.8" y="110.0">byte[]</text>
</g>
<g>
<title>java.lang.String[] (149 samples, 3.31%)</title><rect x="298.4" y="99.0" width="39.1" height="15" fill="#6ad8d8" rx="2" ry="2"/>
<text x="301.4" y="110.0">jav..</text>
</g>
<g>
<title>java.lang.String (136 samples, 3.02%)</title><rect x="337.5" y="99.0" width="35.7" height="15" fill="#57c5c5" rx="2" ry="2"/>
<text x="340.5" y="110.0">jav..</text>
</g>
<g>
<title>ru/mail/polis/service/codearound/DAOByteOnlyConverter.readByteArray (114 samples, 2.54%)</title><rect x="373.2" y="131.0" width="30.0" height="15" fill="#69fa69" rx="2" ry="2"/>
<text x="376.2" y="142.0">ru..</text>
</g>
<g>
<title>byte[] (114 samples, 2.54%)</title><rect x="373.2" y="115.0" width="30.0" height="15" fill="#6ddbdb" rx="2" ry="2"/>
<text x="376.2" y="126.0">by..</text>
</g>
<g>
<title>ru/mail/polis/service/codearound/TaskDAO.get (733 samples, 16.30%)</title><rect x="403.2" y="131.0" width="192.3" height="15" fill="#5eef5e" rx="2" ry="2"/>
<text x="406.2" y="142.0">ru/mail/polis/service/cod..</text>
</g>
<g>
<title>java/nio/ByteBuffer.wrap (226 samples, 5.03%)</title><rect x="403.2" y="115.0" width="59.3" height="15" fill="#58e958" rx="2" ry="2"/>
<text x="406.2" y="126.0">java/n..</text>
</g>
<g>
<title>java/nio/ByteBuffer.wrap (226 samples, 5.03%)</title><rect x="403.2" y="99.0" width="59.3" height="15" fill="#62f362" rx="2" ry="2"/>
<text x="406.2" y="110.0">java/n..</text>
</g>
<g>
<title>java.nio.HeapByteBuffer (226 samples, 5.03%)</title><rect x="403.2" y="83.0" width="59.3" height="15" fill="#54c2c2" rx="2" ry="2"/>
<text x="406.2" y="94.0">java.n..</text>
</g>
<g>
<title>org/rocksdb/RocksDB.get (154 samples, 3.43%)</title><rect x="462.5" y="115.0" width="40.4" height="15" fill="#69fa69" rx="2" ry="2"/>
<text x="465.5" y="126.0">org..</text>
</g>
<g>
<title>org/rocksdb/RocksDB.get (154 samples, 3.43%)</title><rect x="462.5" y="99.0" width="40.4" height="15" fill="#5ff05f" rx="2" ry="2"/>
<text x="465.5" y="110.0">org..</text>
</g>
<g>
<title>byte[] (154 samples, 3.43%)</title><rect x="462.5" y="83.0" width="40.4" height="15" fill="#6cdada" rx="2" ry="2"/>
<text x="465.5" y="94.0">byt..</text>
</g>
<g>
<title>ru/mail/polis/service/codearound/DAOByteOnlyConverter.tuneBufToArray (353 samples, 7.85%)</title><rect x="502.9" y="115.0" width="92.6" height="15" fill="#56e756" rx="2" ry="2"/>
<text x="505.9" y="126.0">ru/mail/pol..</text>
</g>
<g>
<title>ru/mail/polis/service/codearound/DAOByteOnlyConverter.readByteArray (353 samples, 7.85%)</title><rect x="502.9" y="99.0" width="92.6" height="15" fill="#52e352" rx="2" ry="2"/>
<text x="505.9" y="110.0">ru/mail/pol..</text>
</g>
<g>
<title>byte[] (118 samples, 2.62%)</title><rect x="502.9" y="83.0" width="31.0" height="15" fill="#5bc9c9" rx="2" ry="2"/>
<text x="505.9" y="94.0">by..</text>
</g>
<g>
<title>java/nio/HeapByteBuffer.duplicate (235 samples, 5.23%)</title><rect x="533.9" y="83.0" width="61.6" height="15" fill="#5ced5c" rx="2" ry="2"/>
<text x="536.9" y="94.0">java/n..</text>
</g>
<g>
<title>java.nio.HeapByteBuffer (235 samples, 5.23%)</title><rect x="533.9" y="67.0" width="61.6" height="15" fill="#53c1c1" rx="2" ry="2"/>
<text x="536.9" y="78.0">java.n..</text>
</g>
<g>
<title>one/nio/server/SelectorThread.run (2,265 samples, 50.38%)</title><rect x="595.5" y="259.0" width="594.5" height="15" fill="#66f766" rx="2" ry="2"/>
<text x="598.5" y="270.0">one/nio/server/SelectorThread.run</text>
</g>
<g>
<title>one/nio/net/NativeSelector.select (144 samples, 3.20%)</title><rect x="595.5" y="243.0" width="37.8" height="15" fill="#61f261" rx="2" ry="2"/>
<text x="598.5" y="254.0">one..</text>
</g>
<g>
<title>one.nio.net.NativeSelector$2 (144 samples, 3.20%)</title><rect x="595.5" y="227.0" width="37.8" height="15" fill="#61cfcf" rx="2" ry="2"/>
<text x="598.5" y="238.0">one..</text>
</g>
<g>
<title>one/nio/net/Session.process (2,121 samples, 47.18%)</title><rect x="633.3" y="243.0" width="556.7" height="15" fill="#54e554" rx="2" ry="2"/>
<text x="636.3" y="254.0">one/nio/net/Session.process</text>
</g>
<g>
<title>one/nio/http/HttpSession.processRead (2,121 samples, 47.18%)</title><rect x="633.3" y="227.0" width="556.7" height="15" fill="#64f564" rx="2" ry="2"/>
<text x="636.3" y="238.0">one/nio/http/HttpSession.processRead</text>
</g>
<g>
<title>one/nio/http/HttpSession.processHttpBuffer (2,121 samples, 47.18%)</title><rect x="633.3" y="211.0" width="556.7" height="15" fill="#60f160" rx="2" ry="2"/>
<text x="636.3" y="222.0">one/nio/http/HttpSession.processHttpBuffer</text>
</g>
<g>
<title>one/nio/http/HttpSession.handleParsedRequest (893 samples, 19.86%)</title><rect x="633.3" y="195.0" width="234.4" height="15" fill="#67f867" rx="2" ry="2"/>
<text x="636.3" y="206.0">one/nio/http/HttpSession.handle..</text>
</g>
<g>
<title>one/nio/http/HttpServer.handleRequest (893 samples, 19.86%)</title><rect x="633.3" y="179.0" width="234.4" height="15" fill="#5ced5c" rx="2" ry="2"/>
<text x="636.3" y="190.0">one/nio/http/HttpServer.handleR..</text>
</g>
<g>
<title>RequestHandler1_entity.handleRequest (733 samples, 16.30%)</title><rect x="633.3" y="163.0" width="192.4" height="15" fill="#50e150" rx="2" ry="2"/>
<text x="636.3" y="174.0">RequestHandler1_entity.ha..</text>
</g>
<g>
<title>one/nio/http/Request.getRequiredParameter (174 samples, 3.87%)</title><rect x="633.3" y="147.0" width="45.7" height="15" fill="#69fa69" rx="2" ry="2"/>
<text x="636.3" y="158.0">one/..</text>
</g>
<g>
<title>one/nio/http/Request.getParameter (174 samples, 3.87%)</title><rect x="633.3" y="131.0" width="45.7" height="15" fill="#5ff05f" rx="2" ry="2"/>
<text x="636.3" y="142.0">one/..</text>
</g>
<g>
<title>java/lang/String.substring (174 samples, 3.87%)</title><rect x="633.3" y="115.0" width="45.7" height="15" fill="#68f968" rx="2" ry="2"/>
<text x="636.3" y="126.0">java..</text>
</g>
<g>
<title>java/lang/StringLatin1.newString (174 samples, 3.87%)</title><rect x="633.3" y="99.0" width="45.7" height="15" fill="#6cfd6c" rx="2" ry="2"/>
<text x="636.3" y="110.0">java..</text>
</g>
<g>
<title>java.lang.String (85 samples, 1.89%)</title><rect x="633.3" y="83.0" width="22.3" height="15" fill="#53c1c1" rx="2" ry="2"/>
<text x="636.3" y="94.0">j..</text>
</g>
<g>
<title>java/util/Arrays.copyOfRange (89 samples, 1.98%)</title><rect x="655.6" y="83.0" width="23.4" height="15" fill="#54e554" rx="2" ry="2"/>
<text x="658.6" y="94.0">j..</text>
</g>
<g>
<title>byte[] (89 samples, 1.98%)</title><rect x="655.6" y="67.0" width="23.4" height="15" fill="#69d7d7" rx="2" ry="2"/>
<text x="658.6" y="78.0">b..</text>
</g>
<g>
<title>ru/mail/polis/service/codearound/AsyncService.entity (559 samples, 12.43%)</title><rect x="679.0" y="147.0" width="146.7" height="15" fill="#5bec5b" rx="2" ry="2"/>
<text x="682.0" y="158.0">ru/mail/polis/serv..</text>
</g>
<g>
<title>java/lang/String.getBytes (125 samples, 2.78%)</title><rect x="679.0" y="131.0" width="32.8" height="15" fill="#50e150" rx="2" ry="2"/>
<text x="682.0" y="142.0">ja..</text>
</g>
<g>
<title>java/lang/StringCoding.encode (125 samples, 2.78%)</title><rect x="679.0" y="115.0" width="32.8" height="15" fill="#69fa69" rx="2" ry="2"/>
<text x="682.0" y="126.0">ja..</text>
</g>
<g>
<title>java/lang/StringCoding.encodeUTF8 (125 samples, 2.78%)</title><rect x="679.0" y="99.0" width="32.8" height="15" fill="#69fa69" rx="2" ry="2"/>
<text x="682.0" y="110.0">ja..</text>
</g>
<g>
<title>java/util/Arrays.copyOf (125 samples, 2.78%)</title><rect x="679.0" y="83.0" width="32.8" height="15" fill="#58e958" rx="2" ry="2"/>
<text x="682.0" y="94.0">ja..</text>
</g>
<g>
<title>byte[] (125 samples, 2.78%)</title><rect x="679.0" y="67.0" width="32.8" height="15" fill="#5ecccc" rx="2" ry="2"/>
<text x="682.0" y="78.0">by..</text>
</g>
<g>
<title>java/lang/invoke/Invokers$Holder.linkToTargetMethod (97 samples, 2.16%)</title><rect x="711.8" y="131.0" width="25.5" height="15" fill="#50e150" rx="2" ry="2"/>
<text x="714.8" y="142.0">j..</text>
</g>
<g>
<title>java/lang/invoke/DirectMethodHandle$Holder.invokeStatic (97 samples, 2.16%)</title><rect x="711.8" y="115.0" width="25.5" height="15" fill="#53e453" rx="2" ry="2"/>
<text x="714.8" y="126.0">j..</text>
</g>
<g>
<title>ru/mail/polis/service/codearound/AsyncService$$Lambda$68/815123323.get$Lambda (97 samples, 2.16%)</title><rect x="711.8" y="99.0" width="25.5" height="15" fill="#6dfe6d" rx="2" ry="2"/>
<text x="714.8" y="110.0">r..</text>
</g>
<g>
<title>ru.mail.polis.service.codearound.AsyncService$$Lambda$68 (97 samples, 2.16%)</title><rect x="711.8" y="83.0" width="25.5" height="15" fill="#6ddbdb" rx="2" ry="2"/>
<text x="714.8" y="94.0">r..</text>
</g>
<g>
<title>ru/mail/polis/service/codearound/AsyncService.runAsyncHandler (95 samples, 2.11%)</title><rect x="737.3" y="131.0" width="24.9" height="15" fill="#5aeb5a" rx="2" ry="2"/>
<text x="740.3" y="142.0">r..</text>
</g>
<g>
<title>java/lang/invoke/Invokers$Holder.linkToTargetMethod (94 samples, 2.09%)</title><rect x="737.3" y="115.0" width="24.6" height="15" fill="#52e352" rx="2" ry="2"/>
<text x="740.3" y="126.0">j..</text>
</g>
<g>
<title>java/lang/invoke/DirectMethodHandle$Holder.invokeStatic (94 samples, 2.09%)</title><rect x="737.3" y="99.0" width="24.6" height="15" fill="#5aeb5a" rx="2" ry="2"/>
<text x="740.3" y="110.0">j..</text>
</g>
<g>
<title>ru/mail/polis/service/codearound/AsyncService$$Lambda$67/1598457346.get$Lambda (94 samples, 2.09%)</title><rect x="737.3" y="83.0" width="24.6" height="15" fill="#67f867" rx="2" ry="2"/>
<text x="740.3" y="94.0">r..</text>
</g>
<g>
<title>ru.mail.polis.service.codearound.AsyncService$$Lambda$67 (94 samples, 2.09%)</title><rect x="737.3" y="67.0" width="24.6" height="15" fill="#56c4c4" rx="2" ry="2"/>
<text x="740.3" y="78.0">r..</text>
</g>
<g>
<title>java/util/concurrent/ThreadPoolExecutor.execute (1 samples, 0.02%)</title><rect x="761.9" y="115.0" width="0.3" height="15" fill="#53e453" rx="2" ry="2"/>
<text x="764.9" y="126.0"></text>
</g>
<g>
<title>java/util/concurrent/ArrayBlockingQueue.offer (1 samples, 0.02%)</title><rect x="761.9" y="99.0" width="0.3" height="15" fill="#5aeb5a" rx="2" ry="2"/>
<text x="764.9" y="110.0"></text>
</g>
<g>
<title>java/util/concurrent/locks/ReentrantLock.lock (1 samples, 0.02%)</title><rect x="761.9" y="83.0" width="0.3" height="15" fill="#67f867" rx="2" ry="2"/>
<text x="764.9" y="94.0"></text>
</g>
<g>
<title>java/util/concurrent/locks/AbstractQueuedSynchronizer.acquire (1 samples, 0.02%)</title><rect x="761.9" y="67.0" width="0.3" height="15" fill="#58e958" rx="2" ry="2"/>
<text x="764.9" y="78.0"></text>
</g>
<g>
<title>java/util/concurrent/locks/AbstractQueuedSynchronizer.addWaiter (1 samples, 0.02%)</title><rect x="761.9" y="51.0" width="0.3" height="15" fill="#51e251" rx="2" ry="2"/>
<text x="764.9" y="62.0"></text>
</g>
<g>
<title>java.util.concurrent.locks.AbstractQueuedSynchronizer$Node (1 samples, 0.02%)</title><rect x="761.9" y="35.0" width="0.3" height="15" fill="#5ac8c8" rx="2" ry="2"/>
<text x="764.9" y="46.0"></text>
</g>
<g>
<title>ru/mail/polis/service/codearound/DAOByteOnlyConverter.tuneArrayToBuf (242 samples, 5.38%)</title><rect x="762.2" y="131.0" width="63.5" height="15" fill="#51e251" rx="2" ry="2"/>
<text x="765.2" y="142.0">ru/mail..</text>
</g>
<g>
<title>byte[] (95 samples, 2.11%)</title><rect x="762.2" y="115.0" width="24.9" height="15" fill="#5dcbcb" rx="2" ry="2"/>
<text x="765.2" y="126.0">b..</text>
</g>
<g>
<title>java/nio/ByteBuffer.wrap (147 samples, 3.27%)</title><rect x="787.1" y="115.0" width="38.6" height="15" fill="#5aeb5a" rx="2" ry="2"/>
<text x="790.1" y="126.0">jav..</text>
</g>
<g>
<title>java/nio/ByteBuffer.wrap (147 samples, 3.27%)</title><rect x="787.1" y="99.0" width="38.6" height="15" fill="#6bfc6b" rx="2" ry="2"/>
<text x="790.1" y="110.0">jav..</text>
</g>
<g>
<title>java.nio.HeapByteBuffer (147 samples, 3.27%)</title><rect x="787.1" y="83.0" width="38.6" height="15" fill="#6ddbdb" rx="2" ry="2"/>
<text x="790.1" y="94.0">jav..</text>
</g>
<g>
<title>one/nio/http/Request.getPath (160 samples, 3.56%)</title><rect x="825.7" y="163.0" width="42.0" height="15" fill="#55e655" rx="2" ry="2"/>
<text x="828.7" y="174.0">one..</text>
</g>
<g>
<title>java/lang/String.substring (160 samples, 3.56%)</title><rect x="825.7" y="147.0" width="42.0" height="15" fill="#6afb6a" rx="2" ry="2"/>
<text x="828.7" y="158.0">jav..</text>
</g>
<g>
<title>java/lang/StringLatin1.newString (160 samples, 3.56%)</title><rect x="825.7" y="131.0" width="42.0" height="15" fill="#52e352" rx="2" ry="2"/>
<text x="828.7" y="142.0">jav..</text>
</g>
<g>
<title>java.lang.String (53 samples, 1.18%)</title><rect x="825.7" y="115.0" width="13.9" height="15" fill="#5ac8c8" rx="2" ry="2"/>
<text x="828.7" y="126.0"></text>
</g>
<g>
<title>java/util/Arrays.copyOfRange (107 samples, 2.38%)</title><rect x="839.6" y="115.0" width="28.1" height="15" fill="#65f665" rx="2" ry="2"/>
<text x="842.6" y="126.0">ja..</text>
</g>
<g>
<title>byte[] (107 samples, 2.38%)</title><rect x="839.6" y="99.0" width="28.1" height="15" fill="#5ecccc" rx="2" ry="2"/>
<text x="842.6" y="110.0">by..</text>
</g>
<g>
<title>one/nio/http/HttpSession.parseRequest (813 samples, 18.08%)</title><rect x="867.7" y="195.0" width="213.4" height="15" fill="#5bec5b" rx="2" ry="2"/>
<text x="870.7" y="206.0">one/nio/http/HttpSession.par..</text>
</g>
<g>
<title>one.nio.http.Request (100 samples, 2.22%)</title><rect x="867.7" y="179.0" width="26.3" height="15" fill="#61cfcf" rx="2" ry="2"/>
<text x="870.7" y="190.0">o..</text>
</g>
<g>
<title>one/nio/http/Request.&lt;init&gt; (282 samples, 6.27%)</title><rect x="894.0" y="179.0" width="74.0" height="15" fill="#59ea59" rx="2" ry="2"/>
<text x="897.0" y="190.0">one/nio/..</text>
</g>
<g>
<title>java.lang.String[] (282 samples, 6.27%)</title><rect x="894.0" y="163.0" width="74.0" height="15" fill="#64d2d2" rx="2" ry="2"/>
<text x="897.0" y="174.0">java.lan..</text>
</g>
<g>
<title>one/nio/util/Utf8.read (431 samples, 9.59%)</title><rect x="968.0" y="179.0" width="113.1" height="15" fill="#51e251" rx="2" ry="2"/>
<text x="971.0" y="190.0">one/nio/util/U..</text>
</g>
<g>
<title>one/nio/util/Utf8.read (431 samples, 9.59%)</title><rect x="968.0" y="163.0" width="113.1" height="15" fill="#5aeb5a" rx="2" ry="2"/>
<text x="971.0" y="174.0">one/nio/util/U..</text>
</g>
<g>
<title>char[] (181 samples, 4.03%)</title><rect x="968.0" y="147.0" width="47.5" height="15" fill="#68d6d6" rx="2" ry="2"/>
<text x="971.0" y="158.0">char[]</text>
</g>
<g>
<title>java.lang.String (99 samples, 2.20%)</title><rect x="1015.5" y="147.0" width="26.0" height="15" fill="#51bfbf" rx="2" ry="2"/>
<text x="1018.5" y="158.0">j..</text>
</g>
<g>
<title>java/lang/String.&lt;init&gt; (151 samples, 3.36%)</title><rect x="1041.5" y="147.0" width="39.6" height="15" fill="#5aeb5a" rx="2" ry="2"/>
<text x="1044.5" y="158.0">jav..</text>
</g>
<g>
<title>java/lang/String.&lt;init&gt; (151 samples, 3.36%)</title><rect x="1041.5" y="131.0" width="39.6" height="15" fill="#55e655" rx="2" ry="2"/>
<text x="1044.5" y="142.0">jav..</text>
</g>
<g>
<title>java/lang/StringUTF16.compress (151 samples, 3.36%)</title><rect x="1041.5" y="115.0" width="39.6" height="15" fill="#54e554" rx="2" ry="2"/>
<text x="1044.5" y="126.0">jav..</text>
</g>
<g>
<title>byte[] (151 samples, 3.36%)</title><rect x="1041.5" y="99.0" width="39.6" height="15" fill="#65d3d3" rx="2" ry="2"/>
<text x="1044.5" y="110.0">byt..</text>
</g>
<g>
<title>one/nio/util/Utf8.read (415 samples, 9.23%)</title><rect x="1081.1" y="195.0" width="108.9" height="15" fill="#6cfd6c" rx="2" ry="2"/>
<text x="1084.1" y="206.0">one/nio/util/..</text>
</g>
<g>
<title>one/nio/util/Utf8.read (415 samples, 9.23%)</title><rect x="1081.1" y="179.0" width="108.9" height="15" fill="#5aeb5a" rx="2" ry="2"/>
<text x="1084.1" y="190.0">one/nio/util/..</text>
</g>
<g>
<title>char[] (196 samples, 4.36%)</title><rect x="1081.1" y="163.0" width="51.4" height="15" fill="#68d6d6" rx="2" ry="2"/>
<text x="1084.1" y="174.0">char[]</text>
</g>
<g>
<title>java.lang.String (64 samples, 1.42%)</title><rect x="1132.5" y="163.0" width="16.8" height="15" fill="#58c6c6" rx="2" ry="2"/>
<text x="1135.5" y="174.0"></text>
</g>
<g>
<title>java/lang/String.&lt;init&gt; (155 samples, 3.45%)</title><rect x="1149.3" y="163.0" width="40.7" height="15" fill="#54e554" rx="2" ry="2"/>
<text x="1152.3" y="174.0">jav..</text>
</g>
<g>
<title>java/lang/String.&lt;init&gt; (155 samples, 3.45%)</title><rect x="1149.3" y="147.0" width="40.7" height="15" fill="#52e352" rx="2" ry="2"/>
<text x="1152.3" y="158.0">jav..</text>
</g>
<g>
<title>java/lang/StringUTF16.compress (155 samples, 3.45%)</title><rect x="1149.3" y="131.0" width="40.7" height="15" fill="#59ea59" rx="2" ry="2"/>
<text x="1152.3" y="142.0">jav..</text>
</g>
<g>
<title>byte[] (155 samples, 3.45%)</title><rect x="1149.3" y="115.0" width="40.7" height="15" fill="#5fcdcd" rx="2" ry="2"/>
<text x="1152.3" y="126.0">byt..</text>
</g>
</g>
</svg>
