<?xml version="1.0" standalone="no"?>
<!DOCTYPE svg PUBLIC "-//W3C//DTD SVG 1.1//EN" "http://www.w3.org/Graphics/SVG/1.1/DTD/svg11.dtd">
<svg version="1.1" width="1200" height="294" onload="init(evt)" viewBox="0 0 1200 294" xmlns="http://www.w3.org/2000/svg" xmlns:xlink="http://www.w3.org/1999/xlink">
<style type="text/css">
	text { font-family:Verdana; font-size:12px; fill:rgb(0,0,0); }
	#search { opacity:0.1; cursor:pointer; }
	#search:hover, #search.show { opacity:1; }
	#subtitle { text-anchor:middle; font-color:rgb(160,160,160); }
	#title { text-anchor:middle; font-size:17px}
	#unzoom { cursor:pointer; }
	#frames > *:hover { stroke:black; stroke-width:0.5; cursor:pointer; }
	.hide { display:none; }
	.parent { opacity:0.5; }
</style>
<script type="text/ecmascript">
<![CDATA[
	"use strict";
	var details, searchbtn, unzoombtn, matchedtxt, svg, searching;
	function init(evt) {
		details = document.getElementById("details").firstChild;
		searchbtn = document.getElementById("search");
		unzoombtn = document.getElementById("unzoom");
		matchedtxt = document.getElementById("matched");
		svg = document.getElementsByTagName("svg")[0];
		searching = 0;
	}

	window.addEventListener("click", function(e) {
		var target = find_group(e.target);
		if (target) {
			if (target.nodeName == "a") {
				if (e.ctrlKey === false) return;
				e.preventDefault();
			}
			if (target.classList.contains("parent")) unzoom();
			zoom(target);
		}
		else if (e.target.id == "unzoom") unzoom();
		else if (e.target.id == "search") search_prompt();
	}, false)

	// mouse-over for info
	// show
	window.addEventListener("mouseover", function(e) {
		var target = find_group(e.target);
		if (target) details.nodeValue = "Function: " + g_to_text(target);
	}, false)

	// clear
	window.addEventListener("mouseout", function(e) {
		var target = find_group(e.target);
		if (target) details.nodeValue = ' ';
	}, false)

	// ctrl-F for search
	window.addEventListener("keydown",function (e) {
		if (e.keyCode === 114 || (e.ctrlKey && e.keyCode === 70)) {
			e.preventDefault();
			search_prompt();
		}
	}, false)

	// functions
	function find_child(node, selector) {
		var children = node.querySelectorAll(selector);
		if (children.length) return children[0];
		return;
	}
	function find_group(node) {
		var parent = node.parentElement;
		if (!parent) return;
		if (parent.id == "frames") return node;
		return find_group(parent);
	}
	function orig_save(e, attr, val) {
		if (e.attributes["_orig_" + attr] != undefined) return;
		if (e.attributes[attr] == undefined) return;
		if (val == undefined) val = e.attributes[attr].value;
		e.setAttribute("_orig_" + attr, val);
	}
	function orig_load(e, attr) {
		if (e.attributes["_orig_"+attr] == undefined) return;
		e.attributes[attr].value = e.attributes["_orig_" + attr].value;
		e.removeAttribute("_orig_"+attr);
	}
	function g_to_text(e) {
		var text = find_child(e, "title").firstChild.nodeValue;
		return (text)
	}
	function g_to_func(e) {
		var func = g_to_text(e);
		// if there's any manipulation we want to do to the function
		// name before it's searched, do it here before returning.
		return (func);
	}
	function update_text(e) {
		var r = find_child(e, "rect");
		var t = find_child(e, "text");
		var w = parseFloat(r.attributes.width.value) -3;
		var txt = find_child(e, "title").textContent.replace(/\([^(]*\)$/,"");
		t.attributes.x.value = parseFloat(r.attributes.x.value) + 3;

		// Smaller than this size won't fit anything
		if (w < 2 * 12 * 0.59) {
			t.textContent = "";
			return;
		}

		t.textContent = txt;
		// Fit in full text width
		if (/^ *$/.test(txt) || t.getSubStringLength(0, txt.length) < w)
			return;

		for (var x = txt.length - 2; x > 0; x--) {
			if (t.getSubStringLength(0, x + 2) <= w) {
				t.textContent = txt.substring(0, x) + "..";
				return;
			}
		}
		t.textContent = "";
	}

	// zoom
	function zoom_reset(e) {
		if (e.attributes != undefined) {
			orig_load(e, "x");
			orig_load(e, "width");
		}
		if (e.childNodes == undefined) return;
		for (var i = 0, c = e.childNodes; i < c.length; i++) {
			zoom_reset(c[i]);
		}
	}
	function zoom_child(e, x, ratio) {
		if (e.attributes != undefined) {
			if (e.attributes.x != undefined) {
				orig_save(e, "x");
				e.attributes.x.value = (parseFloat(e.attributes.x.value) - x - 10) * ratio + 10;
				if (e.tagName == "text")
					e.attributes.x.value = find_child(e.parentNode, "rect[x]").attributes.x.value + 3;
			}
			if (e.attributes.width != undefined) {
				orig_save(e, "width");
				e.attributes.width.value = parseFloat(e.attributes.width.value) * ratio;
			}
		}

		if (e.childNodes == undefined) return;
		for (var i = 0, c = e.childNodes; i < c.length; i++) {
			zoom_child(c[i], x - 10, ratio);
		}
	}
	function zoom_parent(e) {
		if (e.attributes) {
			if (e.attributes.x != undefined) {
				orig_save(e, "x");
				e.attributes.x.value = 10;
			}
			if (e.attributes.width != undefined) {
				orig_save(e, "width");
				e.attributes.width.value = parseInt(svg.width.baseVal.value) - (10 * 2);
			}
		}
		if (e.childNodes == undefined) return;
		for (var i = 0, c = e.childNodes; i < c.length; i++) {
			zoom_parent(c[i]);
		}
	}
	function zoom(node) {
		var attr = find_child(node, "rect").attributes;
		var width = parseFloat(attr.width.value);
		var xmin = parseFloat(attr.x.value);
		var xmax = parseFloat(xmin + width);
		var ymin = parseFloat(attr.y.value);
		var ratio = (svg.width.baseVal.value - 2 * 10) / width;

		// XXX: Workaround for JavaScript float issues (fix me)
		var fudge = 0.0001;

		unzoombtn.classList.remove("hide");

		var el = document.getElementById("frames").children;
		for (var i = 0; i < el.length; i++) {
			var e = el[i];
			var a = find_child(e, "rect").attributes;
			var ex = parseFloat(a.x.value);
			var ew = parseFloat(a.width.value);
			var upstack;
			// Is it an ancestor
			if (0 == 0) {
				upstack = parseFloat(a.y.value) > ymin;
			} else {
				upstack = parseFloat(a.y.value) < ymin;
			}
			if (upstack) {
				// Direct ancestor
				if (ex <= xmin && (ex+ew+fudge) >= xmax) {
					e.classList.add("parent");
					zoom_parent(e);
					update_text(e);
				}
				// not in current path
				else
					e.classList.add("hide");
			}
			// Children maybe
			else {
				// no common path
				if (ex < xmin || ex + fudge >= xmax) {
					e.classList.add("hide");
				}
				else {
					zoom_child(e, xmin, ratio);
					update_text(e);
				}
			}
		}
	}
	function unzoom() {
		unzoombtn.classList.add("hide");
		var el = document.getElementById("frames").children;
		for(var i = 0; i < el.length; i++) {
			el[i].classList.remove("parent");
			el[i].classList.remove("hide");
			zoom_reset(el[i]);
			update_text(el[i]);
		}
	}

	// search
	function reset_search() {
		var el = document.querySelectorAll("#frames rect");
		for (var i = 0; i < el.length; i++) {
			orig_load(el[i], "fill")
		}
	}
	function search_prompt() {
		if (!searching) {
			var term = prompt("Enter a search term (regexp " +
			    "allowed, eg: ^ext4_)", "");
			if (term != null) {
				search(term)
			}
		} else {
			reset_search();
			searching = 0;
			searchbtn.classList.remove("show");
			searchbtn.firstChild.nodeValue = "Search"
			matchedtxt.classList.add("hide");
			matchedtxt.firstChild.nodeValue = ""
		}
	}
	function search(term) {
		var re = new RegExp(term);
		var el = document.getElementById("frames").children;
		var matches = new Object();
		var maxwidth = 0;
		for (var i = 0; i < el.length; i++) {
			var e = el[i];
			var func = g_to_func(e);
			var rect = find_child(e, "rect");
			if (func == null || rect == null)
				continue;

			// Save max width. Only works as we have a root frame
			var w = parseFloat(rect.attributes.width.value);
			if (w > maxwidth)
				maxwidth = w;

			if (func.match(re)) {
				// highlight
				var x = parseFloat(rect.attributes.x.value);
				orig_save(rect, "fill");
				rect.attributes.fill.value = "rgb(230,0,230)";

				// remember matches
				if (matches[x] == undefined) {
					matches[x] = w;
				} else {
					if (w > matches[x]) {
						// overwrite with parent
						matches[x] = w;
					}
				}
				searching = 1;
			}
		}
		if (!searching)
			return;

		searchbtn.classList.add("show");
		searchbtn.firstChild.nodeValue = "Reset Search";

		// calculate percent matched, excluding vertical overlap
		var count = 0;
		var lastx = -1;
		var lastw = 0;
		var keys = Array();
		for (k in matches) {
			if (matches.hasOwnProperty(k))
				keys.push(k);
		}
		// sort the matched frames by their x location
		// ascending, then width descending
		keys.sort(function(a, b){
			return a - b;
		});
		// Step through frames saving only the biggest bottom-up frames
		// thanks to the sort order. This relies on the tree property
		// where children are always smaller than their parents.
		var fudge = 0.0001;	// JavaScript floating point
		for (var k in keys) {
			var x = parseFloat(keys[k]);
			var w = matches[keys[k]];
			if (x >= lastx + lastw - fudge) {
				count += w;
				lastx = x;
				lastw = w;
			}
		}
		// display matched percent
		matchedtxt.classList.remove("hide");
		var pct = 100 * count / maxwidth;
		if (pct != 100) pct = pct.toFixed(1)
		matchedtxt.firstChild.nodeValue = "Matched: " + pct + "%";
	}
]]>
</script>
<rect x="0" y="0" width="100%" height="100%" fill="rgb(240,240,220)"/>
<text id="title" x="600" y="24">Single node RAM</text>
<text id="details" x="10" y="277"> </text>
<text id="unzoom" x="10" y="24" class="hide">Reset Zoom</text>
<text id="search" x="1090" y="24">Search</text>
<text id="matched" x="1090" y="277"> </text>
<g id="frames">
<g>
<title>all (4,717 samples, 100.00%)</title><rect x="10.0" y="243.0" width="1180.0" height="15" fill="#f06e6e" rx="2" ry="2"/>
<text x="13.0" y="254.0">all</text>
</g>
<g>
<title>java/lang/Thread.run (2,128 samples, 45.11%)</title><rect x="10.0" y="227.0" width="532.3" height="15" fill="#5ced5c" rx="2" ry="2"/>
<text x="13.0" y="238.0">java/lang/Thread.run</text>
</g>
<g>
<title>java/util/concurrent/ThreadPoolExecutor$Worker.run (2,128 samples, 45.11%)</title><rect x="10.0" y="211.0" width="532.3" height="15" fill="#5aeb5a" rx="2" ry="2"/>
<text x="13.0" y="222.0">java/util/concurrent/ThreadPoolExecutor$Worker.run</text>
</g>
<g>
<title>java/util/concurrent/ThreadPoolExecutor.runWorker (2,128 samples, 45.11%)</title><rect x="10.0" y="195.0" width="532.3" height="15" fill="#51e251" rx="2" ry="2"/>
<text x="13.0" y="206.0">java/util/concurrent/ThreadPoolExecutor.runWorker</text>
</g>
<g>
<title>java/util/concurrent/ThreadPoolExecutor.getTask (51 samples, 1.08%)</title><rect x="10.0" y="179.0" width="12.8" height="15" fill="#52e352" rx="2" ry="2"/>
<text x="13.0" y="190.0"></text>
</g>
<g>
<title>java/util/concurrent/ArrayBlockingQueue.take (51 samples, 1.08%)</title><rect x="10.0" y="163.0" width="12.8" height="15" fill="#68f968" rx="2" ry="2"/>
<text x="13.0" y="174.0"></text>
</g>
<g>
<title>java/util/concurrent/locks/AbstractQueuedSynchronizer$ConditionObject.await (51 samples, 1.08%)</title><rect x="10.0" y="147.0" width="12.8" height="15" fill="#6afb6a" rx="2" ry="2"/>
<text x="13.0" y="158.0"></text>
</g>
<g>
<title>java/util/concurrent/locks/AbstractQueuedSynchronizer$ConditionObject.addConditionWaiter (51 samples, 1.08%)</title><rect x="10.0" y="131.0" width="12.8" height="15" fill="#6dfe6d" rx="2" ry="2"/>
<text x="13.0" y="142.0"></text>
</g>
<g>
<title>java.util.concurrent.locks.AbstractQueuedSynchronizer$Node (51 samples, 1.08%)</title><rect x="10.0" y="115.0" width="12.8" height="15" fill="#5fcdcd" rx="2" ry="2"/>
<text x="13.0" y="126.0"></text>
</g>
<g>
<title>ru/mail/polis/service/codearound/AsyncService$$Lambda$67/1598457346.run (2,077 samples, 44.03%)</title><rect x="22.8" y="179.0" width="519.5" height="15" fill="#58e958" rx="2" ry="2"/>
<text x="25.8" y="190.0">ru/mail/polis/service/codearound/AsyncService$$Lambda$67/1598457346.run</text>
</g>
<g>
<title>ru/mail/polis/service/codearound/AsyncService.lambda$runAsyncHandler$4 (2,077 samples, 44.03%)</title><rect x="22.8" y="163.0" width="519.5" height="15" fill="#55e655" rx="2" ry="2"/>
<text x="25.8" y="174.0">ru/mail/polis/service/codearound/AsyncService.lambda$runAsyncHandler$4</text>
</g>
<g>
<title>one/nio/http/HttpSession.sendResponse (750 samples, 15.90%)</title><rect x="22.8" y="147.0" width="187.6" height="15" fill="#5aeb5a" rx="2" ry="2"/>
<text x="25.8" y="158.0">one/nio/http/HttpSession..</text>
</g>
<g>
<title>one/nio/http/HttpSession.writeResponse (750 samples, 15.90%)</title><rect x="22.8" y="131.0" width="187.6" height="15" fill="#5dee5d" rx="2" ry="2"/>
<text x="25.8" y="142.0">one/nio/http/HttpSession..</text>
</g>
<g>
<title>one/nio/http/Response.toBytes (543 samples, 11.51%)</title><rect x="22.8" y="115.0" width="135.8" height="15" fill="#69fa69" rx="2" ry="2"/>
<text x="25.8" y="126.0">one/nio/http/Resp..</text>
</g>
<g>
<title>one/nio/util/ByteArrayBuilder.&lt;init&gt; (543 samples, 11.51%)</title><rect x="22.8" y="99.0" width="135.8" height="15" fill="#64f564" rx="2" ry="2"/>
<text x="25.8" y="110.0">one/nio/util/Byte..</text>
</g>
<g>
<title>byte[] (543 samples, 11.51%)</title><rect x="22.8" y="83.0" width="135.8" height="15" fill="#67d5d5" rx="2" ry="2"/>
<text x="25.8" y="94.0">byte[]</text>
</g>
<g>
<title>one/nio/net/Session.write (207 samples, 4.39%)</title><rect x="158.6" y="115.0" width="51.8" height="15" fill="#5bec5b" rx="2" ry="2"/>
<text x="161.6" y="126.0">one/n..</text>
</g>
<g>
<title>one.nio.net.Session$ArrayQueueItem (207 samples, 4.39%)</title><rect x="158.6" y="99.0" width="51.8" height="15" fill="#54c2c2" rx="2" ry="2"/>
<text x="161.6" y="110.0">one.n..</text>
</g>
<g>
<title>ru/mail/polis/service/codearound/AsyncService$$Lambda$66/730931500.exec (1,327 samples, 28.13%)</title><rect x="210.4" y="147.0" width="331.9" height="15" fill="#5ced5c" rx="2" ry="2"/>
<text x="213.4" y="158.0">ru/mail/polis/service/codearound/AsyncService..</text>
</g>
<g>
<title>ru/mail/polis/service/codearound/AsyncService.lambda$entity$2 (1,327 samples, 28.13%)</title><rect x="210.4" y="131.0" width="331.9" height="15" fill="#53e453" rx="2" ry="2"/>
<text x="213.4" y="142.0">ru/mail/polis/service/codearound/AsyncService..</text>
</g>
<g>
<title>ru/mail/polis/service/codearound/AsyncService.upsert (1,327 samples, 28.13%)</title><rect x="210.4" y="115.0" width="331.9" height="15" fill="#62f362" rx="2" ry="2"/>
<text x="213.4" y="126.0">ru/mail/polis/service/codearound/AsyncService..</text>
</g>
<g>
<title>java/nio/ByteBuffer.wrap (296 samples, 6.28%)</title><rect x="210.4" y="99.0" width="74.0" height="15" fill="#6dfe6d" rx="2" ry="2"/>
<text x="213.4" y="110.0">java/nio..</text>
</g>
<g>
<title>java/nio/ByteBuffer.wrap (296 samples, 6.28%)</title><rect x="210.4" y="83.0" width="74.0" height="15" fill="#53e453" rx="2" ry="2"/>
<text x="213.4" y="94.0">java/nio..</text>
</g>
<g>
<title>java.nio.HeapByteBuffer (296 samples, 6.28%)</title><rect x="210.4" y="67.0" width="74.0" height="15" fill="#6ad8d8" rx="2" ry="2"/>
<text x="213.4" y="78.0">java.nio..</text>
</g>
<g>
<title>one.nio.http.Response (156 samples, 3.31%)</title><rect x="284.4" y="99.0" width="39.0" height="15" fill="#54c2c2" rx="2" ry="2"/>
<text x="287.4" y="110.0">one..</text>
</g>
<g>
<title>one/nio/http/Response.&lt;init&gt; (560 samples, 11.87%)</title><rect x="323.4" y="99.0" width="140.1" height="15" fill="#68f968" rx="2" ry="2"/>
<text x="326.4" y="110.0">one/nio/http/Respo..</text>
</g>
<g>
<title>byte[] (279 samples, 5.91%)</title><rect x="323.4" y="83.0" width="69.8" height="15" fill="#59c7c7" rx="2" ry="2"/>
<text x="326.4" y="94.0">byte[]</text>
</g>
<g>
<title>java.lang.String[] (174 samples, 3.69%)</title><rect x="393.2" y="83.0" width="43.6" height="15" fill="#5bc9c9" rx="2" ry="2"/>
<text x="396.2" y="94.0">java..</text>
</g>
<g>
<title>java.lang.String (107 samples, 2.27%)</title><rect x="436.8" y="83.0" width="26.7" height="15" fill="#5dcbcb" rx="2" ry="2"/>
<text x="439.8" y="94.0">j..</text>
</g>
<g>
<title>ru/mail/polis/service/codearound/TaskDAO.upsert (315 samples, 6.68%)</title><rect x="463.5" y="99.0" width="78.8" height="15" fill="#5ff05f" rx="2" ry="2"/>
<text x="466.5" y="110.0">ru/mail/p..</text>
</g>
<g>
<title>ru/mail/polis/service/codearound/DAOByteOnlyConverter.readByteArray (123 samples, 2.61%)</title><rect x="463.5" y="83.0" width="30.8" height="15" fill="#66f766" rx="2" ry="2"/>
<text x="466.5" y="94.0">ru..</text>
</g>
<g>
<title>byte[] (123 samples, 2.61%)</title><rect x="463.5" y="67.0" width="30.8" height="15" fill="#6ddbdb" rx="2" ry="2"/>
<text x="466.5" y="78.0">by..</text>
</g>
<g>
<title>ru/mail/polis/service/codearound/DAOByteOnlyConverter.tuneBufToArray (192 samples, 4.07%)</title><rect x="494.3" y="83.0" width="48.0" height="15" fill="#6cfd6c" rx="2" ry="2"/>
<text x="497.3" y="94.0">ru/m..</text>
</g>
<g>
<title>ru/mail/polis/service/codearound/DAOByteOnlyConverter.readByteArray (192 samples, 4.07%)</title><rect x="494.3" y="67.0" width="48.0" height="15" fill="#52e352" rx="2" ry="2"/>
<text x="497.3" y="78.0">ru/m..</text>
</g>
<g>
<title>byte[] (192 samples, 4.07%)</title><rect x="494.3" y="51.0" width="48.0" height="15" fill="#50bebe" rx="2" ry="2"/>
<text x="497.3" y="62.0">byte[]</text>
</g>
<g>
<title>one/nio/server/SelectorThread.run (2,589 samples, 54.89%)</title><rect x="542.3" y="227.0" width="647.7" height="15" fill="#51e251" rx="2" ry="2"/>
<text x="545.3" y="238.0">one/nio/server/SelectorThread.run</text>
</g>
<g>
<title>one/nio/net/Session.process (2,589 samples, 54.89%)</title><rect x="542.3" y="211.0" width="647.7" height="15" fill="#6afb6a" rx="2" ry="2"/>
<text x="545.3" y="222.0">one/nio/net/Session.process</text>
</g>
<g>
<title>one/nio/http/HttpSession.processRead (2,589 samples, 54.89%)</title><rect x="542.3" y="195.0" width="647.7" height="15" fill="#6afb6a" rx="2" ry="2"/>
<text x="545.3" y="206.0">one/nio/http/HttpSession.processRead</text>
</g>
<g>
<title>one/nio/http/HttpSession.processHttpBuffer (2,589 samples, 54.89%)</title><rect x="542.3" y="179.0" width="647.7" height="15" fill="#51e251" rx="2" ry="2"/>
<text x="545.3" y="190.0">one/nio/http/HttpSession.processHttpBuffer</text>
</g>
<g>
<title>one/nio/http/HttpSession.handleParsedRequest (861 samples, 18.25%)</title><rect x="542.3" y="163.0" width="215.4" height="15" fill="#5ced5c" rx="2" ry="2"/>
<text x="545.3" y="174.0">one/nio/http/HttpSession.han..</text>
</g>
<g>
<title>one/nio/http/HttpServer.handleRequest (861 samples, 18.25%)</title><rect x="542.3" y="147.0" width="215.4" height="15" fill="#55e655" rx="2" ry="2"/>
<text x="545.3" y="158.0">one/nio/http/HttpServer.hand..</text>
</g>
<g>
<title>RequestHandler1_entity.handleRequest (732 samples, 15.52%)</title><rect x="542.3" y="131.0" width="183.2" height="15" fill="#56e756" rx="2" ry="2"/>
<text x="545.3" y="142.0">RequestHandler1_entity.h..</text>
</g>
<g>
<title>one/nio/http/Request.getRequiredParameter (206 samples, 4.37%)</title><rect x="542.3" y="115.0" width="51.6" height="15" fill="#67f867" rx="2" ry="2"/>
<text x="545.3" y="126.0">one/n..</text>
</g>
<g>
<title>one/nio/http/Request.getParameter (206 samples, 4.37%)</title><rect x="542.3" y="99.0" width="51.6" height="15" fill="#62f362" rx="2" ry="2"/>
<text x="545.3" y="110.0">one/n..</text>
</g>
<g>
<title>java/lang/String.substring (206 samples, 4.37%)</title><rect x="542.3" y="83.0" width="51.6" height="15" fill="#52e352" rx="2" ry="2"/>
<text x="545.3" y="94.0">java/..</text>
</g>
<g>
<title>java/lang/StringLatin1.newString (206 samples, 4.37%)</title><rect x="542.3" y="67.0" width="51.6" height="15" fill="#5dee5d" rx="2" ry="2"/>
<text x="545.3" y="78.0">java/..</text>
</g>
<g>
<title>java.lang.String (82 samples, 1.74%)</title><rect x="542.3" y="51.0" width="20.6" height="15" fill="#5ccaca" rx="2" ry="2"/>
<text x="545.3" y="62.0"></text>
</g>
<g>
<title>java/util/Arrays.copyOfRange (124 samples, 2.63%)</title><rect x="562.9" y="51.0" width="31.0" height="15" fill="#5dee5d" rx="2" ry="2"/>
<text x="565.9" y="62.0">ja..</text>
</g>
<g>
<title>byte[] (124 samples, 2.63%)</title><rect x="562.9" y="35.0" width="31.0" height="15" fill="#62d0d0" rx="2" ry="2"/>
<text x="565.9" y="46.0">by..</text>
</g>
<g>
<title>ru/mail/polis/service/codearound/AsyncService.entity (526 samples, 11.15%)</title><rect x="593.9" y="115.0" width="131.6" height="15" fill="#69fa69" rx="2" ry="2"/>
<text x="596.9" y="126.0">ru/mail/polis/se..</text>
</g>
<g>
<title>java/lang/String.getBytes (85 samples, 1.80%)</title><rect x="593.9" y="99.0" width="21.2" height="15" fill="#60f160" rx="2" ry="2"/>
<text x="596.9" y="110.0">j..</text>
</g>
<g>
<title>java/lang/StringCoding.encode (85 samples, 1.80%)</title><rect x="593.9" y="83.0" width="21.2" height="15" fill="#56e756" rx="2" ry="2"/>
<text x="596.9" y="94.0">j..</text>
</g>
<g>
<title>java/lang/StringCoding.encodeUTF8 (85 samples, 1.80%)</title><rect x="593.9" y="67.0" width="21.2" height="15" fill="#68f968" rx="2" ry="2"/>
<text x="596.9" y="78.0">j..</text>
</g>
<g>
<title>java/util/Arrays.copyOf (85 samples, 1.80%)</title><rect x="593.9" y="51.0" width="21.2" height="15" fill="#64f564" rx="2" ry="2"/>
<text x="596.9" y="62.0">j..</text>
</g>
<g>
<title>byte[] (85 samples, 1.80%)</title><rect x="593.9" y="35.0" width="21.2" height="15" fill="#52c0c0" rx="2" ry="2"/>
<text x="596.9" y="46.0">b..</text>
</g>
<g>
<title>java/lang/invoke/Invokers$Holder.linkToTargetMethod (63 samples, 1.34%)</title><rect x="615.1" y="99.0" width="15.8" height="15" fill="#6cfd6c" rx="2" ry="2"/>
<text x="618.1" y="110.0"></text>
</g>
<g>
<title>java/lang/invoke/DirectMethodHandle$Holder.invokeStatic (63 samples, 1.34%)</title><rect x="615.1" y="83.0" width="15.8" height="15" fill="#5eef5e" rx="2" ry="2"/>
<text x="618.1" y="94.0"></text>
</g>
<g>
<title>ru/mail/polis/service/codearound/AsyncService$$Lambda$66/730931500.get$Lambda (63 samples, 1.34%)</title><rect x="615.1" y="67.0" width="15.8" height="15" fill="#5bec5b" rx="2" ry="2"/>
<text x="618.1" y="78.0"></text>
</g>
<g>
<title>ru.mail.polis.service.codearound.AsyncService$$Lambda$66 (63 samples, 1.34%)</title><rect x="615.1" y="51.0" width="15.8" height="15" fill="#5ac8c8" rx="2" ry="2"/>
<text x="618.1" y="62.0"></text>
</g>
<g>
<title>ru/mail/polis/service/codearound/AsyncService.runAsyncHandler (127 samples, 2.69%)</title><rect x="630.9" y="99.0" width="31.8" height="15" fill="#6bfc6b" rx="2" ry="2"/>
<text x="633.9" y="110.0">ru..</text>
</g>
<g>
<title>java/lang/invoke/Invokers$Holder.linkToTargetMethod (127 samples, 2.69%)</title><rect x="630.9" y="83.0" width="31.8" height="15" fill="#6bfc6b" rx="2" ry="2"/>
<text x="633.9" y="94.0">ja..</text>
</g>
<g>
<title>java/lang/invoke/DirectMethodHandle$Holder.invokeStatic (127 samples, 2.69%)</title><rect x="630.9" y="67.0" width="31.8" height="15" fill="#53e453" rx="2" ry="2"/>
<text x="633.9" y="78.0">ja..</text>
</g>
<g>
<title>ru/mail/polis/service/codearound/AsyncService$$Lambda$67/1598457346.get$Lambda (127 samples, 2.69%)</title><rect x="630.9" y="51.0" width="31.8" height="15" fill="#6bfc6b" rx="2" ry="2"/>
<text x="633.9" y="62.0">ru..</text>
</g>
<g>
<title>ru.mail.polis.service.codearound.AsyncService$$Lambda$67 (127 samples, 2.69%)</title><rect x="630.9" y="35.0" width="31.8" height="15" fill="#6ad8d8" rx="2" ry="2"/>
<text x="633.9" y="46.0">ru..</text>
</g>
<g>
<title>ru/mail/polis/service/codearound/DAOByteOnlyConverter.tuneArrayToBuf (251 samples, 5.32%)</title><rect x="662.7" y="99.0" width="62.8" height="15" fill="#55e655" rx="2" ry="2"/>
<text x="665.7" y="110.0">ru/mai..</text>
</g>
<g>
<title>byte[] (125 samples, 2.65%)</title><rect x="662.7" y="83.0" width="31.2" height="15" fill="#6bd9d9" rx="2" ry="2"/>
<text x="665.7" y="94.0">by..</text>
</g>
<g>
<title>java/nio/ByteBuffer.wrap (126 samples, 2.67%)</title><rect x="693.9" y="83.0" width="31.6" height="15" fill="#6bfc6b" rx="2" ry="2"/>
<text x="696.9" y="94.0">ja..</text>
</g>
<g>
<title>java/nio/ByteBuffer.wrap (126 samples, 2.67%)</title><rect x="693.9" y="67.0" width="31.6" height="15" fill="#52e352" rx="2" ry="2"/>
<text x="696.9" y="78.0">ja..</text>
</g>
<g>
<title>java.nio.HeapByteBuffer (126 samples, 2.67%)</title><rect x="693.9" y="51.0" width="31.6" height="15" fill="#68d6d6" rx="2" ry="2"/>
<text x="696.9" y="62.0">ja..</text>
</g>
<g>
<title>one/nio/http/Request.getPath (129 samples, 2.73%)</title><rect x="725.5" y="131.0" width="32.2" height="15" fill="#6dfe6d" rx="2" ry="2"/>
<text x="728.5" y="142.0">on..</text>
</g>
<g>
<title>java/lang/String.substring (129 samples, 2.73%)</title><rect x="725.5" y="115.0" width="32.2" height="15" fill="#5ff05f" rx="2" ry="2"/>
<text x="728.5" y="126.0">ja..</text>
</g>
<g>
<title>java/lang/StringLatin1.newString (129 samples, 2.73%)</title><rect x="725.5" y="99.0" width="32.2" height="15" fill="#50e150" rx="2" ry="2"/>
<text x="728.5" y="110.0">ja..</text>
</g>
<g>
<title>java.lang.String (53 samples, 1.12%)</title><rect x="725.5" y="83.0" width="13.2" height="15" fill="#55c3c3" rx="2" ry="2"/>
<text x="728.5" y="94.0"></text>
</g>
<g>
<title>java/util/Arrays.copyOfRange (76 samples, 1.61%)</title><rect x="738.7" y="83.0" width="19.0" height="15" fill="#58e958" rx="2" ry="2"/>
<text x="741.7" y="94.0"></text>
</g>
<g>
<title>byte[] (76 samples, 1.61%)</title><rect x="738.7" y="67.0" width="19.0" height="15" fill="#62d0d0" rx="2" ry="2"/>
<text x="741.7" y="78.0"></text>
</g>
<g>
<title>one/nio/http/HttpSession.parseRequest (722 samples, 15.31%)</title><rect x="757.7" y="163.0" width="180.6" height="15" fill="#57e857" rx="2" ry="2"/>
<text x="760.7" y="174.0">one/nio/http/HttpSessio..</text>
</g>
<g>
<title>one.nio.http.Request (133 samples, 2.82%)</title><rect x="757.7" y="147.0" width="33.3" height="15" fill="#66d4d4" rx="2" ry="2"/>
<text x="760.7" y="158.0">on..</text>
</g>
<g>
<title>one/nio/http/Request.&lt;init&gt; (241 samples, 5.11%)</title><rect x="791.0" y="147.0" width="60.3" height="15" fill="#51e251" rx="2" ry="2"/>
<text x="794.0" y="158.0">one/ni..</text>
</g>
<g>
<title>java.lang.String[] (241 samples, 5.11%)</title><rect x="791.0" y="131.0" width="60.3" height="15" fill="#65d3d3" rx="2" ry="2"/>
<text x="794.0" y="142.0">java.l..</text>
</g>
<g>
<title>one/nio/util/Utf8.read (348 samples, 7.38%)</title><rect x="851.3" y="147.0" width="87.0" height="15" fill="#5aeb5a" rx="2" ry="2"/>
<text x="854.3" y="158.0">one/nio/ut..</text>
</g>
<g>
<title>one/nio/util/Utf8.read (348 samples, 7.38%)</title><rect x="851.3" y="131.0" width="87.0" height="15" fill="#6afb6a" rx="2" ry="2"/>
<text x="854.3" y="142.0">one/nio/ut..</text>
</g>
<g>
<title>char[] (185 samples, 3.92%)</title><rect x="851.3" y="115.0" width="46.3" height="15" fill="#58c6c6" rx="2" ry="2"/>
<text x="854.3" y="126.0">char[]</text>
</g>
<g>
<title>java.lang.String (56 samples, 1.19%)</title><rect x="897.6" y="115.0" width="14.0" height="15" fill="#60cece" rx="2" ry="2"/>
<text x="900.6" y="126.0"></text>
</g>
<g>
<title>java/lang/String.&lt;init&gt; (107 samples, 2.27%)</title><rect x="911.6" y="115.0" width="26.7" height="15" fill="#64f564" rx="2" ry="2"/>
<text x="914.6" y="126.0">j..</text>
</g>
<g>
<title>java/lang/String.&lt;init&gt; (107 samples, 2.27%)</title><rect x="911.6" y="99.0" width="26.7" height="15" fill="#6cfd6c" rx="2" ry="2"/>
<text x="914.6" y="110.0">j..</text>
</g>
<g>
<title>java/lang/StringUTF16.compress (107 samples, 2.27%)</title><rect x="911.6" y="83.0" width="26.7" height="15" fill="#62f362" rx="2" ry="2"/>
<text x="914.6" y="94.0">j..</text>
</g>
<g>
<title>byte[] (107 samples, 2.27%)</title><rect x="911.6" y="67.0" width="26.7" height="15" fill="#63d1d1" rx="2" ry="2"/>
<text x="914.6" y="78.0">b..</text>
</g>
<g>
<title>one/nio/http/HttpSession.startParsingRequestBody (97 samples, 2.06%)</title><rect x="938.3" y="163.0" width="24.3" height="15" fill="#5ced5c" rx="2" ry="2"/>
<text x="941.3" y="174.0">o..</text>
</g>
<g>
<title>byte[] (97 samples, 2.06%)</title><rect x="938.3" y="147.0" width="24.3" height="15" fill="#50bebe" rx="2" ry="2"/>
<text x="941.3" y="158.0">b..</text>
</g>
<g>
<title>one/nio/http/Request.getHeader (169 samples, 3.58%)</title><rect x="962.6" y="163.0" width="42.3" height="15" fill="#6dfe6d" rx="2" ry="2"/>
<text x="965.6" y="174.0">one/..</text>
</g>
<g>
<title>java/lang/String.substring (169 samples, 3.58%)</title><rect x="962.6" y="147.0" width="42.3" height="15" fill="#5aeb5a" rx="2" ry="2"/>
<text x="965.6" y="158.0">java..</text>
</g>
<g>
<title>java/lang/StringLatin1.newString (169 samples, 3.58%)</title><rect x="962.6" y="131.0" width="42.3" height="15" fill="#6bfc6b" rx="2" ry="2"/>
<text x="965.6" y="142.0">java..</text>
</g>
<g>
<title>java.lang.String (64 samples, 1.36%)</title><rect x="962.6" y="115.0" width="16.0" height="15" fill="#52c0c0" rx="2" ry="2"/>
<text x="965.6" y="126.0"></text>
</g>
<g>
<title>java/util/Arrays.copyOfRange (105 samples, 2.23%)</title><rect x="978.6" y="115.0" width="26.3" height="15" fill="#57e857" rx="2" ry="2"/>
<text x="981.6" y="126.0">j..</text>
</g>
<g>
<title>byte[] (105 samples, 2.23%)</title><rect x="978.6" y="99.0" width="26.3" height="15" fill="#68d6d6" rx="2" ry="2"/>
<text x="981.6" y="110.0">b..</text>
</g>
<g>
<title>one/nio/util/Utf8.read (740 samples, 15.69%)</title><rect x="1004.9" y="163.0" width="185.1" height="15" fill="#58e958" rx="2" ry="2"/>
<text x="1007.9" y="174.0">one/nio/util/Utf8.read</text>
</g>
<g>
<title>one/nio/util/Utf8.read (740 samples, 15.69%)</title><rect x="1004.9" y="147.0" width="185.1" height="15" fill="#55e655" rx="2" ry="2"/>
<text x="1007.9" y="158.0">one/nio/util/Utf8.read</text>
</g>
<g>
<title>char[] (358 samples, 7.59%)</title><rect x="1004.9" y="131.0" width="89.5" height="15" fill="#65d3d3" rx="2" ry="2"/>
<text x="1007.9" y="142.0">char[]</text>
</g>
<g>
<title>java.lang.String (142 samples, 3.01%)</title><rect x="1094.4" y="131.0" width="35.6" height="15" fill="#5bc9c9" rx="2" ry="2"/>
<text x="1097.4" y="142.0">jav..</text>
</g>
<g>
<title>java/lang/String.&lt;init&gt; (240 samples, 5.09%)</title><rect x="1130.0" y="131.0" width="60.0" height="15" fill="#50e150" rx="2" ry="2"/>
<text x="1133.0" y="142.0">java/l..</text>
</g>
<g>
<title>java/lang/String.&lt;init&gt; (240 samples, 5.09%)</title><rect x="1130.0" y="115.0" width="60.0" height="15" fill="#64f564" rx="2" ry="2"/>
<text x="1133.0" y="126.0">java/l..</text>
</g>
<g>
<title>java/lang/StringUTF16.compress (240 samples, 5.09%)</title><rect x="1130.0" y="99.0" width="60.0" height="15" fill="#6afb6a" rx="2" ry="2"/>
<text x="1133.0" y="110.0">java/l..</text>
</g>
<g>
<title>byte[] (240 samples, 5.09%)</title><rect x="1130.0" y="83.0" width="60.0" height="15" fill="#50bebe" rx="2" ry="2"/>
<text x="1133.0" y="94.0">byte[]</text>
</g>
</g>
</svg>
