<?xml version="1.0" standalone="no"?>
<!DOCTYPE svg PUBLIC "-//W3C//DTD SVG 1.1//EN" "http://www.w3.org/Graphics/SVG/1.1/DTD/svg11.dtd">
<svg version="1.1" width="1200" height="422" onload="init(evt)" viewBox="0 0 1200 422" xmlns="http://www.w3.org/2000/svg" xmlns:xlink="http://www.w3.org/1999/xlink">
<style type="text/css">
	text { font-family:Verdana; font-size:12px; fill:rgb(0,0,0); }
	#search { opacity:0.1; cursor:pointer; }
	#search:hover, #search.show { opacity:1; }
	#subtitle { text-anchor:middle; font-color:rgb(160,160,160); }
	#title { text-anchor:middle; font-size:17px}
	#unzoom { cursor:pointer; }
	#frames > *:hover { stroke:black; stroke-width:0.5; cursor:pointer; }
	.hide { display:none; }
	.parent { opacity:0.5; }
</style>
<script type="text/ecmascript">
<![CDATA[
	"use strict";
	var details, searchbtn, unzoombtn, matchedtxt, svg, searching;
	function init(evt) {
		details = document.getElementById("details").firstChild;
		searchbtn = document.getElementById("search");
		unzoombtn = document.getElementById("unzoom");
		matchedtxt = document.getElementById("matched");
		svg = document.getElementsByTagName("svg")[0];
		searching = 0;
	}

	window.addEventListener("click", function(e) {
		var target = find_group(e.target);
		if (target) {
			if (target.nodeName == "a") {
				if (e.ctrlKey === false) return;
				e.preventDefault();
			}
			if (target.classList.contains("parent")) unzoom();
			zoom(target);
		}
		else if (e.target.id == "unzoom") unzoom();
		else if (e.target.id == "search") search_prompt();
	}, false)

	// mouse-over for info
	// show
	window.addEventListener("mouseover", function(e) {
		var target = find_group(e.target);
		if (target) details.nodeValue = "Function: " + g_to_text(target);
	}, false)

	// clear
	window.addEventListener("mouseout", function(e) {
		var target = find_group(e.target);
		if (target) details.nodeValue = ' ';
	}, false)

	// ctrl-F for search
	window.addEventListener("keydown",function (e) {
		if (e.keyCode === 114 || (e.ctrlKey && e.keyCode === 70)) {
			e.preventDefault();
			search_prompt();
		}
	}, false)

	// functions
	function find_child(node, selector) {
		var children = node.querySelectorAll(selector);
		if (children.length) return children[0];
		return;
	}
	function find_group(node) {
		var parent = node.parentElement;
		if (!parent) return;
		if (parent.id == "frames") return node;
		return find_group(parent);
	}
	function orig_save(e, attr, val) {
		if (e.attributes["_orig_" + attr] != undefined) return;
		if (e.attributes[attr] == undefined) return;
		if (val == undefined) val = e.attributes[attr].value;
		e.setAttribute("_orig_" + attr, val);
	}
	function orig_load(e, attr) {
		if (e.attributes["_orig_"+attr] == undefined) return;
		e.attributes[attr].value = e.attributes["_orig_" + attr].value;
		e.removeAttribute("_orig_"+attr);
	}
	function g_to_text(e) {
		var text = find_child(e, "title").firstChild.nodeValue;
		return (text)
	}
	function g_to_func(e) {
		var func = g_to_text(e);
		// if there's any manipulation we want to do to the function
		// name before it's searched, do it here before returning.
		return (func);
	}
	function update_text(e) {
		var r = find_child(e, "rect");
		var t = find_child(e, "text");
		var w = parseFloat(r.attributes.width.value) -3;
		var txt = find_child(e, "title").textContent.replace(/\([^(]*\)$/,"");
		t.attributes.x.value = parseFloat(r.attributes.x.value) + 3;

		// Smaller than this size won't fit anything
		if (w < 2 * 12 * 0.59) {
			t.textContent = "";
			return;
		}

		t.textContent = txt;
		// Fit in full text width
		if (/^ *$/.test(txt) || t.getSubStringLength(0, txt.length) < w)
			return;

		for (var x = txt.length - 2; x > 0; x--) {
			if (t.getSubStringLength(0, x + 2) <= w) {
				t.textContent = txt.substring(0, x) + "..";
				return;
			}
		}
		t.textContent = "";
	}

	// zoom
	function zoom_reset(e) {
		if (e.attributes != undefined) {
			orig_load(e, "x");
			orig_load(e, "width");
		}
		if (e.childNodes == undefined) return;
		for (var i = 0, c = e.childNodes; i < c.length; i++) {
			zoom_reset(c[i]);
		}
	}
	function zoom_child(e, x, ratio) {
		if (e.attributes != undefined) {
			if (e.attributes.x != undefined) {
				orig_save(e, "x");
				e.attributes.x.value = (parseFloat(e.attributes.x.value) - x - 10) * ratio + 10;
				if (e.tagName == "text")
					e.attributes.x.value = find_child(e.parentNode, "rect[x]").attributes.x.value + 3;
			}
			if (e.attributes.width != undefined) {
				orig_save(e, "width");
				e.attributes.width.value = parseFloat(e.attributes.width.value) * ratio;
			}
		}

		if (e.childNodes == undefined) return;
		for (var i = 0, c = e.childNodes; i < c.length; i++) {
			zoom_child(c[i], x - 10, ratio);
		}
	}
	function zoom_parent(e) {
		if (e.attributes) {
			if (e.attributes.x != undefined) {
				orig_save(e, "x");
				e.attributes.x.value = 10;
			}
			if (e.attributes.width != undefined) {
				orig_save(e, "width");
				e.attributes.width.value = parseInt(svg.width.baseVal.value) - (10 * 2);
			}
		}
		if (e.childNodes == undefined) return;
		for (var i = 0, c = e.childNodes; i < c.length; i++) {
			zoom_parent(c[i]);
		}
	}
	function zoom(node) {
		var attr = find_child(node, "rect").attributes;
		var width = parseFloat(attr.width.value);
		var xmin = parseFloat(attr.x.value);
		var xmax = parseFloat(xmin + width);
		var ymin = parseFloat(attr.y.value);
		var ratio = (svg.width.baseVal.value - 2 * 10) / width;

		// XXX: Workaround for JavaScript float issues (fix me)
		var fudge = 0.0001;

		unzoombtn.classList.remove("hide");

		var el = document.getElementById("frames").children;
		for (var i = 0; i < el.length; i++) {
			var e = el[i];
			var a = find_child(e, "rect").attributes;
			var ex = parseFloat(a.x.value);
			var ew = parseFloat(a.width.value);
			var upstack;
			// Is it an ancestor
			if (0 == 0) {
				upstack = parseFloat(a.y.value) > ymin;
			} else {
				upstack = parseFloat(a.y.value) < ymin;
			}
			if (upstack) {
				// Direct ancestor
				if (ex <= xmin && (ex+ew+fudge) >= xmax) {
					e.classList.add("parent");
					zoom_parent(e);
					update_text(e);
				}
				// not in current path
				else
					e.classList.add("hide");
			}
			// Children maybe
			else {
				// no common path
				if (ex < xmin || ex + fudge >= xmax) {
					e.classList.add("hide");
				}
				else {
					zoom_child(e, xmin, ratio);
					update_text(e);
				}
			}
		}
	}
	function unzoom() {
		unzoombtn.classList.add("hide");
		var el = document.getElementById("frames").children;
		for(var i = 0; i < el.length; i++) {
			el[i].classList.remove("parent");
			el[i].classList.remove("hide");
			zoom_reset(el[i]);
			update_text(el[i]);
		}
	}

	// search
	function reset_search() {
		var el = document.querySelectorAll("#frames rect");
		for (var i = 0; i < el.length; i++) {
			orig_load(el[i], "fill")
		}
	}
	function search_prompt() {
		if (!searching) {
			var term = prompt("Enter a search term (regexp " +
			    "allowed, eg: ^ext4_)", "");
			if (term != null) {
				search(term)
			}
		} else {
			reset_search();
			searching = 0;
			searchbtn.classList.remove("show");
			searchbtn.firstChild.nodeValue = "Search"
			matchedtxt.classList.add("hide");
			matchedtxt.firstChild.nodeValue = ""
		}
	}
	function search(term) {
		var re = new RegExp(term);
		var el = document.getElementById("frames").children;
		var matches = new Object();
		var maxwidth = 0;
		for (var i = 0; i < el.length; i++) {
			var e = el[i];
			var func = g_to_func(e);
			var rect = find_child(e, "rect");
			if (func == null || rect == null)
				continue;

			// Save max width. Only works as we have a root frame
			var w = parseFloat(rect.attributes.width.value);
			if (w > maxwidth)
				maxwidth = w;

			if (func.match(re)) {
				// highlight
				var x = parseFloat(rect.attributes.x.value);
				orig_save(rect, "fill");
				rect.attributes.fill.value = "rgb(230,0,230)";

				// remember matches
				if (matches[x] == undefined) {
					matches[x] = w;
				} else {
					if (w > matches[x]) {
						// overwrite with parent
						matches[x] = w;
					}
				}
				searching = 1;
			}
		}
		if (!searching)
			return;

		searchbtn.classList.add("show");
		searchbtn.firstChild.nodeValue = "Reset Search";

		// calculate percent matched, excluding vertical overlap
		var count = 0;
		var lastx = -1;
		var lastw = 0;
		var keys = Array();
		for (k in matches) {
			if (matches.hasOwnProperty(k))
				keys.push(k);
		}
		// sort the matched frames by their x location
		// ascending, then width descending
		keys.sort(function(a, b){
			return a - b;
		});
		// Step through frames saving only the biggest bottom-up frames
		// thanks to the sort order. This relies on the tree property
		// where children are always smaller than their parents.
		var fudge = 0.0001;	// JavaScript floating point
		for (var k in keys) {
			var x = parseFloat(keys[k]);
			var w = matches[keys[k]];
			if (x >= lastx + lastw - fudge) {
				count += w;
				lastx = x;
				lastw = w;
			}
		}
		// display matched percent
		matchedtxt.classList.remove("hide");
		var pct = 100 * count / maxwidth;
		if (pct != 100) pct = pct.toFixed(1)
		matchedtxt.firstChild.nodeValue = "Matched: " + pct + "%";
	}
]]>
</script>
<rect x="0" y="0" width="100%" height="100%" fill="rgb(240,240,220)"/>
<text id="title" x="600" y="24">Flame Graph</text>
<text id="details" x="10" y="405"> </text>
<text id="unzoom" x="10" y="24" class="hide">Reset Zoom</text>
<text id="search" x="1090" y="24">Search</text>
<text id="matched" x="1090" y="405"> </text>
<g id="frames">
<g>
<title>all (1,235 samples, 100.00%)</title><rect x="10.0" y="371.0" width="1180.0" height="15" fill="#fa7c7c" rx="2" ry="2"/>
<text x="13.0" y="382.0">all</text>
</g>
<g>
<title>java/lang/Thread.run (660 samples, 53.44%)</title><rect x="10.0" y="355.0" width="630.6" height="15" fill="#55e655" rx="2" ry="2"/>
<text x="13.0" y="366.0">java/lang/Thread.run</text>
</g>
<g>
<title>java/util/concurrent/ThreadPoolExecutor$Worker.run (660 samples, 53.44%)</title><rect x="10.0" y="339.0" width="630.6" height="15" fill="#5bec5b" rx="2" ry="2"/>
<text x="13.0" y="350.0">java/util/concurrent/ThreadPoolExecutor$Worker.run</text>
</g>
<g>
<title>java/util/concurrent/ThreadPoolExecutor.runWorker (660 samples, 53.44%)</title><rect x="10.0" y="323.0" width="630.6" height="15" fill="#66f766" rx="2" ry="2"/>
<text x="13.0" y="334.0">java/util/concurrent/ThreadPoolExecutor.runWorker</text>
</g>
<g>
<title>java/util/concurrent/ThreadPoolExecutor.getTask (25 samples, 2.02%)</title><rect x="10.0" y="307.0" width="23.9" height="15" fill="#68f968" rx="2" ry="2"/>
<text x="13.0" y="318.0">j..</text>
</g>
<g>
<title>java/util/concurrent/ArrayBlockingQueue.take (25 samples, 2.02%)</title><rect x="10.0" y="291.0" width="23.9" height="15" fill="#64f564" rx="2" ry="2"/>
<text x="13.0" y="302.0">j..</text>
</g>
<g>
<title>java/util/concurrent/locks/AbstractQueuedSynchronizer$ConditionObject.await (24 samples, 1.94%)</title><rect x="10.0" y="275.0" width="22.9" height="15" fill="#65f665" rx="2" ry="2"/>
<text x="13.0" y="286.0">j..</text>
</g>
<g>
<title>java/util/concurrent/locks/AbstractQueuedSynchronizer$ConditionObject.addConditionWaiter (24 samples, 1.94%)</title><rect x="10.0" y="259.0" width="22.9" height="15" fill="#64f564" rx="2" ry="2"/>
<text x="13.0" y="270.0">j..</text>
</g>
<g>
<title>java.util.concurrent.locks.AbstractQueuedSynchronizer$Node (24 samples, 1.94%)</title><rect x="10.0" y="243.0" width="22.9" height="15" fill="#59c7c7" rx="2" ry="2"/>
<text x="13.0" y="254.0">j..</text>
</g>
<g>
<title>java/util/concurrent/locks/ReentrantLock.lockInterruptibly (1 samples, 0.08%)</title><rect x="32.9" y="275.0" width="1.0" height="15" fill="#55e655" rx="2" ry="2"/>
<text x="35.9" y="286.0"></text>
</g>
<g>
<title>java/util/concurrent/locks/AbstractQueuedSynchronizer.acquireInterruptibly (1 samples, 0.08%)</title><rect x="32.9" y="259.0" width="1.0" height="15" fill="#64f564" rx="2" ry="2"/>
<text x="35.9" y="270.0"></text>
</g>
<g>
<title>java/util/concurrent/locks/AbstractQueuedSynchronizer.doAcquireInterruptibly (1 samples, 0.08%)</title><rect x="32.9" y="243.0" width="1.0" height="15" fill="#6bfc6b" rx="2" ry="2"/>
<text x="35.9" y="254.0"></text>
</g>
<g>
<title>java/util/concurrent/locks/AbstractQueuedSynchronizer.addWaiter (1 samples, 0.08%)</title><rect x="32.9" y="227.0" width="1.0" height="15" fill="#54e554" rx="2" ry="2"/>
<text x="35.9" y="238.0"></text>
</g>
<g>
<title>java.util.concurrent.locks.AbstractQueuedSynchronizer$Node (1 samples, 0.08%)</title><rect x="32.9" y="211.0" width="1.0" height="15" fill="#50bebe" rx="2" ry="2"/>
<text x="35.9" y="222.0"></text>
</g>
<g>
<title>ru/mail/polis/service/suhova/MoribundService$$Lambda$115/1539902124.run (635 samples, 51.42%)</title><rect x="33.9" y="307.0" width="606.7" height="15" fill="#55e655" rx="2" ry="2"/>
<text x="36.9" y="318.0">ru/mail/polis/service/suhova/MoribundService$$Lambda$115/1539902124.run</text>
</g>
<g>
<title>ru/mail/polis/service/suhova/MoribundService.lambda$sendResponse$1 (635 samples, 51.42%)</title><rect x="33.9" y="291.0" width="606.7" height="15" fill="#55e655" rx="2" ry="2"/>
<text x="36.9" y="302.0">ru/mail/polis/service/suhova/MoribundService.lambda$sendResponse$1</text>
</g>
<g>
<title>one/nio/http/HttpSession.sendResponse (160 samples, 12.96%)</title><rect x="33.9" y="275.0" width="152.9" height="15" fill="#55e655" rx="2" ry="2"/>
<text x="36.9" y="286.0">one/nio/http/HttpSe..</text>
</g>
<g>
<title>one/nio/http/HttpSession.writeResponse (160 samples, 12.96%)</title><rect x="33.9" y="259.0" width="152.9" height="15" fill="#64f564" rx="2" ry="2"/>
<text x="36.9" y="270.0">one/nio/http/HttpSe..</text>
</g>
<g>
<title>one/nio/http/Response.toBytes (81 samples, 6.56%)</title><rect x="33.9" y="243.0" width="77.4" height="15" fill="#64f564" rx="2" ry="2"/>
<text x="36.9" y="254.0">one/nio/h..</text>
</g>
<g>
<title>one/nio/util/ByteArrayBuilder.&lt;init&gt; (81 samples, 6.56%)</title><rect x="33.9" y="227.0" width="77.4" height="15" fill="#5ff05f" rx="2" ry="2"/>
<text x="36.9" y="238.0">one/nio/u..</text>
</g>
<g>
<title>byte[] (81 samples, 6.56%)</title><rect x="33.9" y="211.0" width="77.4" height="15" fill="#59c7c7" rx="2" ry="2"/>
<text x="36.9" y="222.0">byte[]</text>
</g>
<g>
<title>one/nio/net/Session.write (79 samples, 6.40%)</title><rect x="111.3" y="243.0" width="75.5" height="15" fill="#5eef5e" rx="2" ry="2"/>
<text x="114.3" y="254.0">one/nio/..</text>
</g>
<g>
<title>one.nio.net.Session$ArrayQueueItem (41 samples, 3.32%)</title><rect x="111.3" y="227.0" width="39.2" height="15" fill="#59c7c7" rx="2" ry="2"/>
<text x="114.3" y="238.0">one..</text>
</g>
<g>
<title>one/nio/net/Session.write (38 samples, 3.08%)</title><rect x="150.5" y="227.0" width="36.3" height="15" fill="#52e352" rx="2" ry="2"/>
<text x="153.5" y="238.0">one..</text>
</g>
<g>
<title>one/nio/net/Session$ArrayQueueItem.write (38 samples, 3.08%)</title><rect x="150.5" y="211.0" width="36.3" height="15" fill="#6afb6a" rx="2" ry="2"/>
<text x="153.5" y="222.0">one..</text>
</g>
<g>
<title>one/nio/net/JavaSocket.write (38 samples, 3.08%)</title><rect x="150.5" y="195.0" width="36.3" height="15" fill="#5dee5d" rx="2" ry="2"/>
<text x="153.5" y="206.0">one..</text>
</g>
<g>
<title>java/nio/ByteBuffer.wrap (34 samples, 2.75%)</title><rect x="150.5" y="179.0" width="32.4" height="15" fill="#54e554" rx="2" ry="2"/>
<text x="153.5" y="190.0">ja..</text>
</g>
<g>
<title>java.nio.HeapByteBuffer (34 samples, 2.75%)</title><rect x="150.5" y="163.0" width="32.4" height="15" fill="#63d1d1" rx="2" ry="2"/>
<text x="153.5" y="174.0">ja..</text>
</g>
<g>
<title>sun/nio/ch/SocketChannelImpl.write (4 samples, 0.32%)</title><rect x="182.9" y="179.0" width="3.9" height="15" fill="#6cfd6c" rx="2" ry="2"/>
<text x="185.9" y="190.0"></text>
</g>
<g>
<title>sun/nio/ch/IOUtil.write (4 samples, 0.32%)</title><rect x="182.9" y="163.0" width="3.9" height="15" fill="#6afb6a" rx="2" ry="2"/>
<text x="185.9" y="174.0"></text>
</g>
<g>
<title>sun/nio/ch/IOUtil.write (4 samples, 0.32%)</title><rect x="182.9" y="147.0" width="3.9" height="15" fill="#63f463" rx="2" ry="2"/>
<text x="185.9" y="158.0"></text>
</g>
<g>
<title>sun/nio/ch/Util.getTemporaryDirectBuffer (4 samples, 0.32%)</title><rect x="182.9" y="131.0" width="3.9" height="15" fill="#56e756" rx="2" ry="2"/>
<text x="185.9" y="142.0"></text>
</g>
<g>
<title>java/lang/ThreadLocal.get (4 samples, 0.32%)</title><rect x="182.9" y="115.0" width="3.9" height="15" fill="#55e655" rx="2" ry="2"/>
<text x="185.9" y="126.0"></text>
</g>
<g>
<title>java/lang/ThreadLocal.setInitialValue (4 samples, 0.32%)</title><rect x="182.9" y="99.0" width="3.9" height="15" fill="#50e150" rx="2" ry="2"/>
<text x="185.9" y="110.0"></text>
</g>
<g>
<title>java/lang/ThreadLocal.createMap (1 samples, 0.08%)</title><rect x="182.9" y="83.0" width="1.0" height="15" fill="#54e554" rx="2" ry="2"/>
<text x="185.9" y="94.0"></text>
</g>
<g>
<title>java.lang.ThreadLocal$ThreadLocalMap (1 samples, 0.08%)</title><rect x="182.9" y="67.0" width="1.0" height="15" fill="#53c1c1" rx="2" ry="2"/>
<text x="185.9" y="78.0"></text>
</g>
<g>
<title>sun/nio/ch/Util$1.initialValue (3 samples, 0.24%)</title><rect x="183.9" y="83.0" width="2.9" height="15" fill="#5aeb5a" rx="2" ry="2"/>
<text x="186.9" y="94.0"></text>
</g>
<g>
<title>sun/nio/ch/Util$1.initialValue (3 samples, 0.24%)</title><rect x="183.9" y="67.0" width="2.9" height="15" fill="#60f160" rx="2" ry="2"/>
<text x="186.9" y="78.0"></text>
</g>
<g>
<title>sun/nio/ch/Util$BufferCache.&lt;init&gt; (3 samples, 0.24%)</title><rect x="183.9" y="51.0" width="2.9" height="15" fill="#6cfd6c" rx="2" ry="2"/>
<text x="186.9" y="62.0"></text>
</g>
<g>
<title>java.nio.ByteBuffer[] (2 samples, 0.16%)</title><rect x="183.9" y="35.0" width="1.9" height="15" fill="#57c5c5" rx="2" ry="2"/>
<text x="186.9" y="46.0"></text>
</g>
<g>
<title>java.nio.ByteBuffer[] (1 samples, 0.08%)</title><rect x="185.8" y="35.0" width="1.0" height="15" fill="#e17d00" rx="2" ry="2"/>
<text x="188.8" y="46.0"></text>
</g>
<g>
<title>ru/mail/polis/dao/suhova/RendezvousTopology.getNodeByKey (136 samples, 11.01%)</title><rect x="186.8" y="275.0" width="129.9" height="15" fill="#50e150" rx="2" ry="2"/>
<text x="189.8" y="286.0">ru/mail/polis/da..</text>
</g>
<g>
<title>ru/mail/polis/dao/suhova/RendezvousTopology.getNodeByKey (136 samples, 11.01%)</title><rect x="186.8" y="259.0" width="129.9" height="15" fill="#6afb6a" rx="2" ry="2"/>
<text x="189.8" y="270.0">ru/mail/polis/da..</text>
</g>
<g>
<title>java/lang/invoke/Invokers$Holder.linkToTargetMethod (136 samples, 11.01%)</title><rect x="186.8" y="243.0" width="129.9" height="15" fill="#6afb6a" rx="2" ry="2"/>
<text x="189.8" y="254.0">java/lang/invoke..</text>
</g>
<g>
<title>java/lang/invoke/LambdaForm$MH/1254344205.invoke (136 samples, 11.01%)</title><rect x="186.8" y="227.0" width="129.9" height="15" fill="#6bfc6b" rx="2" ry="2"/>
<text x="189.8" y="238.0">java/lang/invoke..</text>
</g>
<g>
<title>java/lang/invoke/DirectMethodHandle$Holder.invokeStatic (136 samples, 11.01%)</title><rect x="186.8" y="211.0" width="129.9" height="15" fill="#60f160" rx="2" ry="2"/>
<text x="189.8" y="222.0">java/lang/invoke..</text>
</g>
<g>
<title>java/lang/invoke/StringConcatFactory$MethodHandleInlineCopyStrategy.newArray (136 samples, 11.01%)</title><rect x="186.8" y="195.0" width="129.9" height="15" fill="#55e655" rx="2" ry="2"/>
<text x="189.8" y="206.0">java/lang/invoke..</text>
</g>
<g>
<title>jdk/internal/misc/Unsafe.allocateUninitializedArray (136 samples, 11.01%)</title><rect x="186.8" y="179.0" width="129.9" height="15" fill="#5eef5e" rx="2" ry="2"/>
<text x="189.8" y="190.0">jdk/internal/mis..</text>
</g>
<g>
<title>byte[] (136 samples, 11.01%)</title><rect x="186.8" y="163.0" width="129.9" height="15" fill="#68d6d6" rx="2" ry="2"/>
<text x="189.8" y="174.0">byte[]</text>
</g>
<g>
<title>ru/mail/polis/service/suhova/MoribundService.put (339 samples, 27.45%)</title><rect x="316.7" y="275.0" width="323.9" height="15" fill="#6cfd6c" rx="2" ry="2"/>
<text x="319.7" y="286.0">ru/mail/polis/service/suhova/MoribundService..</text>
</g>
<g>
<title>one.nio.http.Response (17 samples, 1.38%)</title><rect x="316.7" y="259.0" width="16.2" height="15" fill="#61cfcf" rx="2" ry="2"/>
<text x="319.7" y="270.0"></text>
</g>
<g>
<title>one/nio/http/Response.&lt;init&gt; (84 samples, 6.80%)</title><rect x="332.9" y="259.0" width="80.3" height="15" fill="#60f160" rx="2" ry="2"/>
<text x="335.9" y="270.0">one/nio/h..</text>
</g>
<g>
<title>byte[] (24 samples, 1.94%)</title><rect x="332.9" y="243.0" width="23.0" height="15" fill="#5ecccc" rx="2" ry="2"/>
<text x="335.9" y="254.0">b..</text>
</g>
<g>
<title>java.lang.String[] (33 samples, 2.67%)</title><rect x="355.9" y="243.0" width="31.5" height="15" fill="#66d4d4" rx="2" ry="2"/>
<text x="358.9" y="254.0">ja..</text>
</g>
<g>
<title>java.lang.String (27 samples, 2.19%)</title><rect x="387.4" y="243.0" width="25.8" height="15" fill="#59c7c7" rx="2" ry="2"/>
<text x="390.4" y="254.0">j..</text>
</g>
<g>
<title>ru/mail/polis/dao/suhova/TurboDAO.upsert (184 samples, 14.90%)</title><rect x="413.2" y="259.0" width="175.8" height="15" fill="#55e655" rx="2" ry="2"/>
<text x="416.2" y="270.0">ru/mail/polis/dao/suhov..</text>
</g>
<g>
<title>java/util/concurrent/locks/ReentrantReadWriteLock$ReadLock.lock (7 samples, 0.57%)</title><rect x="413.2" y="243.0" width="6.7" height="15" fill="#5ff05f" rx="2" ry="2"/>
<text x="416.2" y="254.0"></text>
</g>
<g>
<title>java/util/concurrent/locks/AbstractQueuedSynchronizer.acquireShared (7 samples, 0.57%)</title><rect x="413.2" y="227.0" width="6.7" height="15" fill="#5bec5b" rx="2" ry="2"/>
<text x="416.2" y="238.0"></text>
</g>
<g>
<title>java/util/concurrent/locks/ReentrantReadWriteLock$Sync.tryAcquireShared (7 samples, 0.57%)</title><rect x="413.2" y="211.0" width="6.7" height="15" fill="#68f968" rx="2" ry="2"/>
<text x="416.2" y="222.0"></text>
</g>
<g>
<title>java/lang/ThreadLocal.get (4 samples, 0.32%)</title><rect x="413.2" y="195.0" width="3.8" height="15" fill="#6dfe6d" rx="2" ry="2"/>
<text x="416.2" y="206.0"></text>
</g>
<g>
<title>java/lang/ThreadLocal.setInitialValue (4 samples, 0.32%)</title><rect x="413.2" y="179.0" width="3.8" height="15" fill="#50e150" rx="2" ry="2"/>
<text x="416.2" y="190.0"></text>
</g>
<g>
<title>java/lang/ThreadLocal$ThreadLocalMap.set (1 samples, 0.08%)</title><rect x="413.2" y="163.0" width="1.0" height="15" fill="#59ea59" rx="2" ry="2"/>
<text x="416.2" y="174.0"></text>
</g>
<g>
<title>java.lang.ThreadLocal$ThreadLocalMap$Entry (1 samples, 0.08%)</title><rect x="413.2" y="147.0" width="1.0" height="15" fill="#5dcbcb" rx="2" ry="2"/>
<text x="416.2" y="158.0"></text>
</g>
<g>
<title>java/util/concurrent/locks/ReentrantReadWriteLock$Sync$ThreadLocalHoldCounter.initialValue (3 samples, 0.24%)</title><rect x="414.2" y="163.0" width="2.8" height="15" fill="#6afb6a" rx="2" ry="2"/>
<text x="417.2" y="174.0"></text>
</g>
<g>
<title>java/util/concurrent/locks/ReentrantReadWriteLock$Sync$ThreadLocalHoldCounter.initialValue (3 samples, 0.24%)</title><rect x="414.2" y="147.0" width="2.8" height="15" fill="#69fa69" rx="2" ry="2"/>
<text x="417.2" y="158.0"></text>
</g>
<g>
<title>java.util.concurrent.locks.ReentrantReadWriteLock$Sync$HoldCounter (3 samples, 0.24%)</title><rect x="414.2" y="131.0" width="2.8" height="15" fill="#57c5c5" rx="2" ry="2"/>
<text x="417.2" y="142.0"></text>
</g>
<g>
<title>java/lang/ThreadLocal.set (2 samples, 0.16%)</title><rect x="417.0" y="195.0" width="1.9" height="15" fill="#66f766" rx="2" ry="2"/>
<text x="420.0" y="206.0"></text>
</g>
<g>
<title>java/lang/ThreadLocal$ThreadLocalMap.set (2 samples, 0.16%)</title><rect x="417.0" y="179.0" width="1.9" height="15" fill="#69fa69" rx="2" ry="2"/>
<text x="420.0" y="190.0"></text>
</g>
<g>
<title>java.lang.ThreadLocal$ThreadLocalMap$Entry (2 samples, 0.16%)</title><rect x="417.0" y="163.0" width="1.9" height="15" fill="#5ccaca" rx="2" ry="2"/>
<text x="420.0" y="174.0"></text>
</g>
<g>
<title>java/util/concurrent/locks/ReentrantReadWriteLock$Sync.fullTryAcquireShared (1 samples, 0.08%)</title><rect x="418.9" y="195.0" width="1.0" height="15" fill="#65f665" rx="2" ry="2"/>
<text x="421.9" y="206.0"></text>
</g>
<g>
<title>java/lang/ThreadLocal.get (1 samples, 0.08%)</title><rect x="418.9" y="179.0" width="1.0" height="15" fill="#5ced5c" rx="2" ry="2"/>
<text x="421.9" y="190.0"></text>
</g>
<g>
<title>java/lang/ThreadLocal.setInitialValue (1 samples, 0.08%)</title><rect x="418.9" y="163.0" width="1.0" height="15" fill="#5ff05f" rx="2" ry="2"/>
<text x="421.9" y="174.0"></text>
</g>
<g>
<title>java/lang/ThreadLocal$ThreadLocalMap.set (1 samples, 0.08%)</title><rect x="418.9" y="147.0" width="1.0" height="15" fill="#5ff05f" rx="2" ry="2"/>
<text x="421.9" y="158.0"></text>
</g>
<g>
<title>java.lang.ThreadLocal$ThreadLocalMap$Entry (1 samples, 0.08%)</title><rect x="418.9" y="131.0" width="1.0" height="15" fill="#52c0c0" rx="2" ry="2"/>
<text x="421.9" y="142.0"></text>
</g>
<g>
<title>ru/mail/polis/dao/suhova/MemTable.upsert (177 samples, 14.33%)</title><rect x="419.9" y="243.0" width="169.1" height="15" fill="#5ced5c" rx="2" ry="2"/>
<text x="422.9" y="254.0">ru/mail/polis/dao/suho..</text>
</g>
<g>
<title>java/nio/HeapByteBuffer.duplicate (73 samples, 5.91%)</title><rect x="419.9" y="227.0" width="69.7" height="15" fill="#67f867" rx="2" ry="2"/>
<text x="422.9" y="238.0">java/ni..</text>
</g>
<g>
<title>java.nio.HeapByteBuffer (73 samples, 5.91%)</title><rect x="419.9" y="211.0" width="69.7" height="15" fill="#57c5c5" rx="2" ry="2"/>
<text x="422.9" y="222.0">java.ni..</text>
</g>
<g>
<title>ru.mail.polis.dao.suhova.Value (20 samples, 1.62%)</title><rect x="489.6" y="227.0" width="19.2" height="15" fill="#59c7c7" rx="2" ry="2"/>
<text x="492.6" y="238.0"></text>
</g>
<g>
<title>ru/mail/polis/dao/suhova/Value.&lt;init&gt; (49 samples, 3.97%)</title><rect x="508.8" y="227.0" width="46.8" height="15" fill="#55e655" rx="2" ry="2"/>
<text x="511.8" y="238.0">ru/m..</text>
</g>
<g>
<title>java/nio/HeapByteBuffer.duplicate (49 samples, 3.97%)</title><rect x="508.8" y="211.0" width="46.8" height="15" fill="#66f766" rx="2" ry="2"/>
<text x="511.8" y="222.0">java..</text>
</g>
<g>
<title>java.nio.HeapByteBuffer (49 samples, 3.97%)</title><rect x="508.8" y="195.0" width="46.8" height="15" fill="#62d0d0" rx="2" ry="2"/>
<text x="511.8" y="206.0">java..</text>
</g>
<g>
<title>ru/mail/polis/dao/suhova/Value.getData (35 samples, 2.83%)</title><rect x="555.6" y="227.0" width="33.4" height="15" fill="#63f463" rx="2" ry="2"/>
<text x="558.6" y="238.0">ru..</text>
</g>
<g>
<title>java/nio/HeapByteBuffer.duplicate (35 samples, 2.83%)</title><rect x="555.6" y="211.0" width="33.4" height="15" fill="#59ea59" rx="2" ry="2"/>
<text x="558.6" y="222.0">ja..</text>
</g>
<g>
<title>java.nio.HeapByteBuffer (35 samples, 2.83%)</title><rect x="555.6" y="195.0" width="33.4" height="15" fill="#54c2c2" rx="2" ry="2"/>
<text x="558.6" y="206.0">ja..</text>
</g>
<g>
<title>ru/mail/polis/service/suhova/MoribundService.toByteBuffer (54 samples, 4.37%)</title><rect x="589.0" y="259.0" width="51.6" height="15" fill="#55e655" rx="2" ry="2"/>
<text x="592.0" y="270.0">ru/ma..</text>
</g>
<g>
<title>java/lang/String.getBytes (20 samples, 1.62%)</title><rect x="589.0" y="243.0" width="19.1" height="15" fill="#5dee5d" rx="2" ry="2"/>
<text x="592.0" y="254.0"></text>
</g>
<g>
<title>java/lang/StringCoding.encode (20 samples, 1.62%)</title><rect x="589.0" y="227.0" width="19.1" height="15" fill="#5ff05f" rx="2" ry="2"/>
<text x="592.0" y="238.0"></text>
</g>
<g>
<title>java/lang/StringCoding.encodeUTF8 (20 samples, 1.62%)</title><rect x="589.0" y="211.0" width="19.1" height="15" fill="#54e554" rx="2" ry="2"/>
<text x="592.0" y="222.0"></text>
</g>
<g>
<title>java/util/Arrays.copyOf (20 samples, 1.62%)</title><rect x="589.0" y="195.0" width="19.1" height="15" fill="#6bfc6b" rx="2" ry="2"/>
<text x="592.0" y="206.0"></text>
</g>
<g>
<title>byte[] (20 samples, 1.62%)</title><rect x="589.0" y="179.0" width="19.1" height="15" fill="#5ccaca" rx="2" ry="2"/>
<text x="592.0" y="190.0"></text>
</g>
<g>
<title>java/nio/ByteBuffer.wrap (34 samples, 2.75%)</title><rect x="608.1" y="243.0" width="32.5" height="15" fill="#50e150" rx="2" ry="2"/>
<text x="611.1" y="254.0">ja..</text>
</g>
<g>
<title>java/nio/ByteBuffer.wrap (34 samples, 2.75%)</title><rect x="608.1" y="227.0" width="32.5" height="15" fill="#55e655" rx="2" ry="2"/>
<text x="611.1" y="238.0">ja..</text>
</g>
<g>
<title>java.nio.HeapByteBuffer (34 samples, 2.75%)</title><rect x="608.1" y="211.0" width="32.5" height="15" fill="#60cece" rx="2" ry="2"/>
<text x="611.1" y="222.0">ja..</text>
</g>
<g>
<title>one/nio/server/SelectorThread.run (575 samples, 46.56%)</title><rect x="640.6" y="355.0" width="549.4" height="15" fill="#6dfe6d" rx="2" ry="2"/>
<text x="643.6" y="366.0">one/nio/server/SelectorThread.run</text>
</g>
<g>
<title>one/nio/net/JavaSelector.select (70 samples, 5.67%)</title><rect x="640.6" y="339.0" width="66.9" height="15" fill="#54e554" rx="2" ry="2"/>
<text x="643.6" y="350.0">one/nio..</text>
</g>
<g>
<title>one/nio/net/JavaSelector.iteratorFor (31 samples, 2.51%)</title><rect x="640.6" y="323.0" width="29.6" height="15" fill="#5aeb5a" rx="2" ry="2"/>
<text x="643.6" y="334.0">on..</text>
</g>
<g>
<title>one.nio.net.JavaSelector$1 (16 samples, 1.30%)</title><rect x="640.6" y="307.0" width="15.3" height="15" fill="#59c7c7" rx="2" ry="2"/>
<text x="643.6" y="318.0"></text>
</g>
<g>
<title>one.nio.net.Session[] (15 samples, 1.21%)</title><rect x="655.9" y="307.0" width="14.3" height="15" fill="#5ac8c8" rx="2" ry="2"/>
<text x="658.9" y="318.0"></text>
</g>
<g>
<title>sun/nio/ch/SelectorImpl.select (39 samples, 3.16%)</title><rect x="670.2" y="323.0" width="37.3" height="15" fill="#54e554" rx="2" ry="2"/>
<text x="673.2" y="334.0">sun..</text>
</g>
<g>
<title>sun/nio/ch/SelectorImpl.lockAndDoSelect (39 samples, 3.16%)</title><rect x="670.2" y="307.0" width="37.3" height="15" fill="#59ea59" rx="2" ry="2"/>
<text x="673.2" y="318.0">sun..</text>
</g>
<g>
<title>sun/nio/ch/KQueueSelectorImpl.doSelect (39 samples, 3.16%)</title><rect x="670.2" y="291.0" width="37.3" height="15" fill="#5bec5b" rx="2" ry="2"/>
<text x="673.2" y="302.0">sun..</text>
</g>
<g>
<title>sun/nio/ch/KQueueSelectorImpl.processEvents (39 samples, 3.16%)</title><rect x="670.2" y="275.0" width="37.3" height="15" fill="#63f463" rx="2" ry="2"/>
<text x="673.2" y="286.0">sun..</text>
</g>
<g>
<title>java/lang/Integer.valueOf (12 samples, 0.97%)</title><rect x="670.2" y="259.0" width="11.5" height="15" fill="#62f362" rx="2" ry="2"/>
<text x="673.2" y="270.0"></text>
</g>
<g>
<title>java.lang.Integer (12 samples, 0.97%)</title><rect x="670.2" y="243.0" width="11.5" height="15" fill="#51bfbf" rx="2" ry="2"/>
<text x="673.2" y="254.0"></text>
</g>
<g>
<title>sun/nio/ch/SelectorImpl.processReadyEvents (27 samples, 2.19%)</title><rect x="681.7" y="259.0" width="25.8" height="15" fill="#5aeb5a" rx="2" ry="2"/>
<text x="684.7" y="270.0">s..</text>
</g>
<g>
<title>java/util/HashSet.add (27 samples, 2.19%)</title><rect x="681.7" y="243.0" width="25.8" height="15" fill="#52e352" rx="2" ry="2"/>
<text x="684.7" y="254.0">j..</text>
</g>
<g>
<title>java/util/HashMap.put (27 samples, 2.19%)</title><rect x="681.7" y="227.0" width="25.8" height="15" fill="#60f160" rx="2" ry="2"/>
<text x="684.7" y="238.0">j..</text>
</g>
<g>
<title>java/util/HashMap.putVal (27 samples, 2.19%)</title><rect x="681.7" y="211.0" width="25.8" height="15" fill="#5eef5e" rx="2" ry="2"/>
<text x="684.7" y="222.0">j..</text>
</g>
<g>
<title>java/util/HashMap.newNode (27 samples, 2.19%)</title><rect x="681.7" y="195.0" width="25.8" height="15" fill="#58e958" rx="2" ry="2"/>
<text x="684.7" y="206.0">j..</text>
</g>
<g>
<title>java.util.HashMap$Node (27 samples, 2.19%)</title><rect x="681.7" y="179.0" width="25.8" height="15" fill="#57c5c5" rx="2" ry="2"/>
<text x="684.7" y="190.0">j..</text>
</g>
<g>
<title>one/nio/net/Session.process (505 samples, 40.89%)</title><rect x="707.5" y="339.0" width="482.5" height="15" fill="#5dee5d" rx="2" ry="2"/>
<text x="710.5" y="350.0">one/nio/net/Session.process</text>
</g>
<g>
<title>one/nio/http/HttpSession.processRead (505 samples, 40.89%)</title><rect x="707.5" y="323.0" width="482.5" height="15" fill="#63f463" rx="2" ry="2"/>
<text x="710.5" y="334.0">one/nio/http/HttpSession.processRead</text>
</g>
<g>
<title>one/nio/http/HttpSession.processHttpBuffer (475 samples, 38.46%)</title><rect x="707.5" y="307.0" width="453.8" height="15" fill="#59ea59" rx="2" ry="2"/>
<text x="710.5" y="318.0">one/nio/http/HttpSession.processHttpBuffer</text>
</g>
<g>
<title>one/nio/http/HttpSession.handleParsedRequest (101 samples, 8.18%)</title><rect x="707.5" y="291.0" width="96.5" height="15" fill="#50e150" rx="2" ry="2"/>
<text x="710.5" y="302.0">one/nio/htt..</text>
</g>
<g>
<title>one/nio/http/HttpServer.handleRequest (101 samples, 8.18%)</title><rect x="707.5" y="275.0" width="96.5" height="15" fill="#6dfe6d" rx="2" ry="2"/>
<text x="710.5" y="286.0">one/nio/htt..</text>
</g>
<g>
<title>RequestHandler0_sendResponse.handleRequest (57 samples, 4.62%)</title><rect x="707.5" y="259.0" width="54.5" height="15" fill="#53e453" rx="2" ry="2"/>
<text x="710.5" y="270.0">Reque..</text>
</g>
<g>
<title>one/nio/http/Request.getRequiredParameter (35 samples, 2.83%)</title><rect x="707.5" y="243.0" width="33.4" height="15" fill="#59ea59" rx="2" ry="2"/>
<text x="710.5" y="254.0">on..</text>
</g>
<g>
<title>one/nio/http/Request.getParameter (35 samples, 2.83%)</title><rect x="707.5" y="227.0" width="33.4" height="15" fill="#6cfd6c" rx="2" ry="2"/>
<text x="710.5" y="238.0">on..</text>
</g>
<g>
<title>java/lang/String.substring (35 samples, 2.83%)</title><rect x="707.5" y="211.0" width="33.4" height="15" fill="#5aeb5a" rx="2" ry="2"/>
<text x="710.5" y="222.0">ja..</text>
</g>
<g>
<title>java/lang/StringLatin1.newString (35 samples, 2.83%)</title><rect x="707.5" y="195.0" width="33.4" height="15" fill="#54e554" rx="2" ry="2"/>
<text x="710.5" y="206.0">ja..</text>
</g>
<g>
<title>java.lang.String (22 samples, 1.78%)</title><rect x="707.5" y="179.0" width="21.0" height="15" fill="#6ddbdb" rx="2" ry="2"/>
<text x="710.5" y="190.0">j..</text>
</g>
<g>
<title>java/util/Arrays.copyOfRange (13 samples, 1.05%)</title><rect x="728.5" y="179.0" width="12.4" height="15" fill="#53e453" rx="2" ry="2"/>
<text x="731.5" y="190.0"></text>
</g>
<g>
<title>byte[] (13 samples, 1.05%)</title><rect x="728.5" y="163.0" width="12.4" height="15" fill="#51bfbf" rx="2" ry="2"/>
<text x="731.5" y="174.0"></text>
</g>
<g>
<title>ru/mail/polis/service/suhova/MoribundService.sendResponse (22 samples, 1.78%)</title><rect x="740.9" y="243.0" width="21.1" height="15" fill="#6cfd6c" rx="2" ry="2"/>
<text x="743.9" y="254.0">r..</text>
</g>
<g>
<title>java/lang/invoke/Invokers$Holder.linkToTargetMethod (19 samples, 1.54%)</title><rect x="740.9" y="227.0" width="18.2" height="15" fill="#67f867" rx="2" ry="2"/>
<text x="743.9" y="238.0"></text>
</g>
<g>
<title>java/lang/invoke/DirectMethodHandle$Holder.invokeStatic (19 samples, 1.54%)</title><rect x="740.9" y="211.0" width="18.2" height="15" fill="#56e756" rx="2" ry="2"/>
<text x="743.9" y="222.0"></text>
</g>
<g>
<title>ru/mail/polis/service/suhova/MoribundService$$Lambda$115/1539902124.get$Lambda (19 samples, 1.54%)</title><rect x="740.9" y="195.0" width="18.2" height="15" fill="#53e453" rx="2" ry="2"/>
<text x="743.9" y="206.0"></text>
</g>
<g>
<title>ru.mail.polis.service.suhova.MoribundService$$Lambda$115 (19 samples, 1.54%)</title><rect x="740.9" y="179.0" width="18.2" height="15" fill="#57c5c5" rx="2" ry="2"/>
<text x="743.9" y="190.0"></text>
</g>
<g>
<title>java/util/concurrent/ThreadPoolExecutor.execute (3 samples, 0.24%)</title><rect x="759.1" y="227.0" width="2.9" height="15" fill="#5dee5d" rx="2" ry="2"/>
<text x="762.1" y="238.0"></text>
</g>
<g>
<title>java/util/concurrent/ArrayBlockingQueue.offer (3 samples, 0.24%)</title><rect x="759.1" y="211.0" width="2.9" height="15" fill="#57e857" rx="2" ry="2"/>
<text x="762.1" y="222.0"></text>
</g>
<g>
<title>java/util/concurrent/locks/ReentrantLock.lock (3 samples, 0.24%)</title><rect x="759.1" y="195.0" width="2.9" height="15" fill="#58e958" rx="2" ry="2"/>
<text x="762.1" y="206.0"></text>
</g>
<g>
<title>java/util/concurrent/locks/AbstractQueuedSynchronizer.acquire (3 samples, 0.24%)</title><rect x="759.1" y="179.0" width="2.9" height="15" fill="#60f160" rx="2" ry="2"/>
<text x="762.1" y="190.0"></text>
</g>
<g>
<title>java/util/concurrent/locks/AbstractQueuedSynchronizer.addWaiter (3 samples, 0.24%)</title><rect x="759.1" y="163.0" width="2.9" height="15" fill="#6afb6a" rx="2" ry="2"/>
<text x="762.1" y="174.0"></text>
</g>
<g>
<title>java.util.concurrent.locks.AbstractQueuedSynchronizer$Node (3 samples, 0.24%)</title><rect x="759.1" y="147.0" width="2.9" height="15" fill="#69d7d7" rx="2" ry="2"/>
<text x="762.1" y="158.0"></text>
</g>
<g>
<title>one/nio/http/Request.getPath (44 samples, 3.56%)</title><rect x="762.0" y="259.0" width="42.0" height="15" fill="#64f564" rx="2" ry="2"/>
<text x="765.0" y="270.0">one/..</text>
</g>
<g>
<title>java/lang/String.substring (44 samples, 3.56%)</title><rect x="762.0" y="243.0" width="42.0" height="15" fill="#60f160" rx="2" ry="2"/>
<text x="765.0" y="254.0">java..</text>
</g>
<g>
<title>java/lang/StringLatin1.newString (44 samples, 3.56%)</title><rect x="762.0" y="227.0" width="42.0" height="15" fill="#66f766" rx="2" ry="2"/>
<text x="765.0" y="238.0">java..</text>
</g>
<g>
<title>java.lang.String (21 samples, 1.70%)</title><rect x="762.0" y="211.0" width="20.0" height="15" fill="#6bd9d9" rx="2" ry="2"/>
<text x="765.0" y="222.0"></text>
</g>
<g>
<title>java/util/Arrays.copyOfRange (23 samples, 1.86%)</title><rect x="782.0" y="211.0" width="22.0" height="15" fill="#69fa69" rx="2" ry="2"/>
<text x="785.0" y="222.0">j..</text>
</g>
<g>
<title>byte[] (23 samples, 1.86%)</title><rect x="782.0" y="195.0" width="22.0" height="15" fill="#66d4d4" rx="2" ry="2"/>
<text x="785.0" y="206.0">b..</text>
</g>
<g>
<title>one/nio/http/HttpSession.parseRequest (166 samples, 13.44%)</title><rect x="804.0" y="291.0" width="158.6" height="15" fill="#57e857" rx="2" ry="2"/>
<text x="807.0" y="302.0">one/nio/http/HttpSes..</text>
</g>
<g>
<title>one.nio.http.Request (30 samples, 2.43%)</title><rect x="804.0" y="275.0" width="28.7" height="15" fill="#6ddbdb" rx="2" ry="2"/>
<text x="807.0" y="286.0">on..</text>
</g>
<g>
<title>one/nio/http/Request.&lt;init&gt; (50 samples, 4.05%)</title><rect x="832.7" y="275.0" width="47.7" height="15" fill="#57e857" rx="2" ry="2"/>
<text x="835.7" y="286.0">one/..</text>
</g>
<g>
<title>java.lang.String[] (50 samples, 4.05%)</title><rect x="832.7" y="259.0" width="47.7" height="15" fill="#5bc9c9" rx="2" ry="2"/>
<text x="835.7" y="270.0">java..</text>
</g>
<g>
<title>one/nio/util/Utf8.read (86 samples, 6.96%)</title><rect x="880.4" y="275.0" width="82.2" height="15" fill="#58e958" rx="2" ry="2"/>
<text x="883.4" y="286.0">one/nio/u..</text>
</g>
<g>
<title>one/nio/util/Utf8.read (86 samples, 6.96%)</title><rect x="880.4" y="259.0" width="82.2" height="15" fill="#66f766" rx="2" ry="2"/>
<text x="883.4" y="270.0">one/nio/u..</text>
</g>
<g>
<title>char[] (44 samples, 3.56%)</title><rect x="880.4" y="243.0" width="42.1" height="15" fill="#6ddbdb" rx="2" ry="2"/>
<text x="883.4" y="254.0">char[]</text>
</g>
<g>
<title>java.lang.String (17 samples, 1.38%)</title><rect x="922.5" y="243.0" width="16.2" height="15" fill="#66d4d4" rx="2" ry="2"/>
<text x="925.5" y="254.0"></text>
</g>
<g>
<title>java/lang/String.&lt;init&gt; (25 samples, 2.02%)</title><rect x="938.7" y="243.0" width="23.9" height="15" fill="#5ced5c" rx="2" ry="2"/>
<text x="941.7" y="254.0">j..</text>
</g>
<g>
<title>java/lang/String.&lt;init&gt; (25 samples, 2.02%)</title><rect x="938.7" y="227.0" width="23.9" height="15" fill="#63f463" rx="2" ry="2"/>
<text x="941.7" y="238.0">j..</text>
</g>
<g>
<title>java/lang/StringUTF16.compress (25 samples, 2.02%)</title><rect x="938.7" y="211.0" width="23.9" height="15" fill="#5dee5d" rx="2" ry="2"/>
<text x="941.7" y="222.0">j..</text>
</g>
<g>
<title>byte[] (25 samples, 2.02%)</title><rect x="938.7" y="195.0" width="23.9" height="15" fill="#53c1c1" rx="2" ry="2"/>
<text x="941.7" y="206.0">b..</text>
</g>
<g>
<title>one/nio/http/HttpSession.startParsingRequestBody (26 samples, 2.11%)</title><rect x="962.6" y="291.0" width="24.8" height="15" fill="#55e655" rx="2" ry="2"/>
<text x="965.6" y="302.0">o..</text>
</g>
<g>
<title>byte[] (26 samples, 2.11%)</title><rect x="962.6" y="275.0" width="24.8" height="15" fill="#69d7d7" rx="2" ry="2"/>
<text x="965.6" y="286.0">b..</text>
</g>
<g>
<title>one/nio/http/Request.getHeader (21 samples, 1.70%)</title><rect x="987.4" y="291.0" width="20.1" height="15" fill="#5ff05f" rx="2" ry="2"/>
<text x="990.4" y="302.0"></text>
</g>
<g>
<title>java/lang/String.substring (21 samples, 1.70%)</title><rect x="987.4" y="275.0" width="20.1" height="15" fill="#6bfc6b" rx="2" ry="2"/>
<text x="990.4" y="286.0"></text>
</g>
<g>
<title>java/lang/StringLatin1.newString (21 samples, 1.70%)</title><rect x="987.4" y="259.0" width="20.1" height="15" fill="#6afb6a" rx="2" ry="2"/>
<text x="990.4" y="270.0"></text>
</g>
<g>
<title>java.lang.String (6 samples, 0.49%)</title><rect x="987.4" y="243.0" width="5.8" height="15" fill="#58c6c6" rx="2" ry="2"/>
<text x="990.4" y="254.0"></text>
</g>
<g>
<title>java/util/Arrays.copyOfRange (15 samples, 1.21%)</title><rect x="993.2" y="243.0" width="14.3" height="15" fill="#62f362" rx="2" ry="2"/>
<text x="996.2" y="254.0"></text>
</g>
<g>
<title>byte[] (15 samples, 1.21%)</title><rect x="993.2" y="227.0" width="14.3" height="15" fill="#6ddbdb" rx="2" ry="2"/>
<text x="996.2" y="238.0"></text>
</g>
<g>
<title>one/nio/util/Utf8.read (161 samples, 13.04%)</title><rect x="1007.5" y="291.0" width="153.8" height="15" fill="#60f160" rx="2" ry="2"/>
<text x="1010.5" y="302.0">one/nio/util/Utf8.r..</text>
</g>
<g>
<title>one/nio/util/Utf8.read (161 samples, 13.04%)</title><rect x="1007.5" y="275.0" width="153.8" height="15" fill="#68f968" rx="2" ry="2"/>
<text x="1010.5" y="286.0">one/nio/util/Utf8.r..</text>
</g>
<g>
<title>char[] (68 samples, 5.51%)</title><rect x="1007.5" y="259.0" width="65.0" height="15" fill="#51bfbf" rx="2" ry="2"/>
<text x="1010.5" y="270.0">char[]</text>
</g>
<g>
<title>java.lang.String (31 samples, 2.51%)</title><rect x="1072.5" y="259.0" width="29.6" height="15" fill="#55c3c3" rx="2" ry="2"/>
<text x="1075.5" y="270.0">ja..</text>
</g>
<g>
<title>java/lang/String.&lt;init&gt; (62 samples, 5.02%)</title><rect x="1102.1" y="259.0" width="59.2" height="15" fill="#6dfe6d" rx="2" ry="2"/>
<text x="1105.1" y="270.0">java/l..</text>
</g>
<g>
<title>java/lang/String.&lt;init&gt; (62 samples, 5.02%)</title><rect x="1102.1" y="243.0" width="59.2" height="15" fill="#66f766" rx="2" ry="2"/>
<text x="1105.1" y="254.0">java/l..</text>
</g>
<g>
<title>java/lang/StringUTF16.compress (62 samples, 5.02%)</title><rect x="1102.1" y="227.0" width="59.2" height="15" fill="#6afb6a" rx="2" ry="2"/>
<text x="1105.1" y="238.0">java/l..</text>
</g>
<g>
<title>byte[] (62 samples, 5.02%)</title><rect x="1102.1" y="211.0" width="59.2" height="15" fill="#50bebe" rx="2" ry="2"/>
<text x="1105.1" y="222.0">byte[]</text>
</g>
<g>
<title>one/nio/net/Session.read (30 samples, 2.43%)</title><rect x="1161.3" y="307.0" width="28.7" height="15" fill="#5ff05f" rx="2" ry="2"/>
<text x="1164.3" y="318.0">on..</text>
</g>
<g>
<title>one/nio/net/JavaSocket.read (30 samples, 2.43%)</title><rect x="1161.3" y="291.0" width="28.7" height="15" fill="#5bec5b" rx="2" ry="2"/>
<text x="1164.3" y="302.0">on..</text>
</g>
<g>
<title>java/nio/ByteBuffer.wrap (30 samples, 2.43%)</title><rect x="1161.3" y="275.0" width="28.7" height="15" fill="#6dfe6d" rx="2" ry="2"/>
<text x="1164.3" y="286.0">ja..</text>
</g>
<g>
<title>java.nio.HeapByteBuffer (30 samples, 2.43%)</title><rect x="1161.3" y="259.0" width="28.7" height="15" fill="#55c3c3" rx="2" ry="2"/>
<text x="1164.3" y="270.0">ja..</text>
</g>
</g>
</svg>
