<?xml version="1.0" standalone="no"?>
<!DOCTYPE svg PUBLIC "-//W3C//DTD SVG 1.1//EN" "http://www.w3.org/Graphics/SVG/1.1/DTD/svg11.dtd">
<svg version="1.1" width="1200" height="630" onload="init(evt)" viewBox="0 0 1200 630" xmlns="http://www.w3.org/2000/svg" xmlns:xlink="http://www.w3.org/1999/xlink">
<style type="text/css">
	text { font-family:Verdana; font-size:12px; fill:rgb(0,0,0); }
	#search { opacity:0.1; cursor:pointer; }
	#search:hover, #search.show { opacity:1; }
	#subtitle { text-anchor:middle; font-color:rgb(160,160,160); }
	#title { text-anchor:middle; font-size:17px}
	#unzoom { cursor:pointer; }
	#frames > *:hover { stroke:black; stroke-width:0.5; cursor:pointer; }
	.hide { display:none; }
	.parent { opacity:0.5; }
</style>
<script type="text/ecmascript">
<![CDATA[
	"use strict";
	var details, searchbtn, unzoombtn, matchedtxt, svg, searching;
	function init(evt) {
		details = document.getElementById("details").firstChild;
		searchbtn = document.getElementById("search");
		unzoombtn = document.getElementById("unzoom");
		matchedtxt = document.getElementById("matched");
		svg = document.getElementsByTagName("svg")[0];
		searching = 0;
	}

	window.addEventListener("click", function(e) {
		var target = find_group(e.target);
		if (target) {
			if (target.nodeName == "a") {
				if (e.ctrlKey === false) return;
				e.preventDefault();
			}
			if (target.classList.contains("parent")) unzoom();
			zoom(target);
		}
		else if (e.target.id == "unzoom") unzoom();
		else if (e.target.id == "search") search_prompt();
	}, false)

	// mouse-over for info
	// show
	window.addEventListener("mouseover", function(e) {
		var target = find_group(e.target);
		if (target) details.nodeValue = "Function: " + g_to_text(target);
	}, false)

	// clear
	window.addEventListener("mouseout", function(e) {
		var target = find_group(e.target);
		if (target) details.nodeValue = ' ';
	}, false)

	// ctrl-F for search
	window.addEventListener("keydown",function (e) {
		if (e.keyCode === 114 || (e.ctrlKey && e.keyCode === 70)) {
			e.preventDefault();
			search_prompt();
		}
	}, false)

	// functions
	function find_child(node, selector) {
		var children = node.querySelectorAll(selector);
		if (children.length) return children[0];
		return;
	}
	function find_group(node) {
		var parent = node.parentElement;
		if (!parent) return;
		if (parent.id == "frames") return node;
		return find_group(parent);
	}
	function orig_save(e, attr, val) {
		if (e.attributes["_orig_" + attr] != undefined) return;
		if (e.attributes[attr] == undefined) return;
		if (val == undefined) val = e.attributes[attr].value;
		e.setAttribute("_orig_" + attr, val);
	}
	function orig_load(e, attr) {
		if (e.attributes["_orig_"+attr] == undefined) return;
		e.attributes[attr].value = e.attributes["_orig_" + attr].value;
		e.removeAttribute("_orig_"+attr);
	}
	function g_to_text(e) {
		var text = find_child(e, "title").firstChild.nodeValue;
		return (text)
	}
	function g_to_func(e) {
		var func = g_to_text(e);
		// if there's any manipulation we want to do to the function
		// name before it's searched, do it here before returning.
		return (func);
	}
	function update_text(e) {
		var r = find_child(e, "rect");
		var t = find_child(e, "text");
		var w = parseFloat(r.attributes.width.value) -3;
		var txt = find_child(e, "title").textContent.replace(/\([^(]*\)$/,"");
		t.attributes.x.value = parseFloat(r.attributes.x.value) + 3;

		// Smaller than this size won't fit anything
		if (w < 2 * 12 * 0.59) {
			t.textContent = "";
			return;
		}

		t.textContent = txt;
		// Fit in full text width
		if (/^ *$/.test(txt) || t.getSubStringLength(0, txt.length) < w)
			return;

		for (var x = txt.length - 2; x > 0; x--) {
			if (t.getSubStringLength(0, x + 2) <= w) {
				t.textContent = txt.substring(0, x) + "..";
				return;
			}
		}
		t.textContent = "";
	}

	// zoom
	function zoom_reset(e) {
		if (e.attributes != undefined) {
			orig_load(e, "x");
			orig_load(e, "width");
		}
		if (e.childNodes == undefined) return;
		for (var i = 0, c = e.childNodes; i < c.length; i++) {
			zoom_reset(c[i]);
		}
	}
	function zoom_child(e, x, ratio) {
		if (e.attributes != undefined) {
			if (e.attributes.x != undefined) {
				orig_save(e, "x");
				e.attributes.x.value = (parseFloat(e.attributes.x.value) - x - 10) * ratio + 10;
				if (e.tagName == "text")
					e.attributes.x.value = find_child(e.parentNode, "rect[x]").attributes.x.value + 3;
			}
			if (e.attributes.width != undefined) {
				orig_save(e, "width");
				e.attributes.width.value = parseFloat(e.attributes.width.value) * ratio;
			}
		}

		if (e.childNodes == undefined) return;
		for (var i = 0, c = e.childNodes; i < c.length; i++) {
			zoom_child(c[i], x - 10, ratio);
		}
	}
	function zoom_parent(e) {
		if (e.attributes) {
			if (e.attributes.x != undefined) {
				orig_save(e, "x");
				e.attributes.x.value = 10;
			}
			if (e.attributes.width != undefined) {
				orig_save(e, "width");
				e.attributes.width.value = parseInt(svg.width.baseVal.value) - (10 * 2);
			}
		}
		if (e.childNodes == undefined) return;
		for (var i = 0, c = e.childNodes; i < c.length; i++) {
			zoom_parent(c[i]);
		}
	}
	function zoom(node) {
		var attr = find_child(node, "rect").attributes;
		var width = parseFloat(attr.width.value);
		var xmin = parseFloat(attr.x.value);
		var xmax = parseFloat(xmin + width);
		var ymin = parseFloat(attr.y.value);
		var ratio = (svg.width.baseVal.value - 2 * 10) / width;

		// XXX: Workaround for JavaScript float issues (fix me)
		var fudge = 0.0001;

		unzoombtn.classList.remove("hide");

		var el = document.getElementById("frames").children;
		for (var i = 0; i < el.length; i++) {
			var e = el[i];
			var a = find_child(e, "rect").attributes;
			var ex = parseFloat(a.x.value);
			var ew = parseFloat(a.width.value);
			var upstack;
			// Is it an ancestor
			if (0 == 0) {
				upstack = parseFloat(a.y.value) > ymin;
			} else {
				upstack = parseFloat(a.y.value) < ymin;
			}
			if (upstack) {
				// Direct ancestor
				if (ex <= xmin && (ex+ew+fudge) >= xmax) {
					e.classList.add("parent");
					zoom_parent(e);
					update_text(e);
				}
				// not in current path
				else
					e.classList.add("hide");
			}
			// Children maybe
			else {
				// no common path
				if (ex < xmin || ex + fudge >= xmax) {
					e.classList.add("hide");
				}
				else {
					zoom_child(e, xmin, ratio);
					update_text(e);
				}
			}
		}
	}
	function unzoom() {
		unzoombtn.classList.add("hide");
		var el = document.getElementById("frames").children;
		for(var i = 0; i < el.length; i++) {
			el[i].classList.remove("parent");
			el[i].classList.remove("hide");
			zoom_reset(el[i]);
			update_text(el[i]);
		}
	}

	// search
	function reset_search() {
		var el = document.querySelectorAll("#frames rect");
		for (var i = 0; i < el.length; i++) {
			orig_load(el[i], "fill")
		}
	}
	function search_prompt() {
		if (!searching) {
			var term = prompt("Enter a search term (regexp " +
			    "allowed, eg: ^ext4_)", "");
			if (term != null) {
				search(term)
			}
		} else {
			reset_search();
			searching = 0;
			searchbtn.classList.remove("show");
			searchbtn.firstChild.nodeValue = "Search"
			matchedtxt.classList.add("hide");
			matchedtxt.firstChild.nodeValue = ""
		}
	}
	function search(term) {
		var re = new RegExp(term);
		var el = document.getElementById("frames").children;
		var matches = new Object();
		var maxwidth = 0;
		for (var i = 0; i < el.length; i++) {
			var e = el[i];
			var func = g_to_func(e);
			var rect = find_child(e, "rect");
			if (func == null || rect == null)
				continue;

			// Save max width. Only works as we have a root frame
			var w = parseFloat(rect.attributes.width.value);
			if (w > maxwidth)
				maxwidth = w;

			if (func.match(re)) {
				// highlight
				var x = parseFloat(rect.attributes.x.value);
				orig_save(rect, "fill");
				rect.attributes.fill.value = "rgb(230,0,230)";

				// remember matches
				if (matches[x] == undefined) {
					matches[x] = w;
				} else {
					if (w > matches[x]) {
						// overwrite with parent
						matches[x] = w;
					}
				}
				searching = 1;
			}
		}
		if (!searching)
			return;

		searchbtn.classList.add("show");
		searchbtn.firstChild.nodeValue = "Reset Search";

		// calculate percent matched, excluding vertical overlap
		var count = 0;
		var lastx = -1;
		var lastw = 0;
		var keys = Array();
		for (k in matches) {
			if (matches.hasOwnProperty(k))
				keys.push(k);
		}
		// sort the matched frames by their x location
		// ascending, then width descending
		keys.sort(function(a, b){
			return a - b;
		});
		// Step through frames saving only the biggest bottom-up frames
		// thanks to the sort order. This relies on the tree property
		// where children are always smaller than their parents.
		var fudge = 0.0001;	// JavaScript floating point
		for (var k in keys) {
			var x = parseFloat(keys[k]);
			var w = matches[keys[k]];
			if (x >= lastx + lastw - fudge) {
				count += w;
				lastx = x;
				lastw = w;
			}
		}
		// display matched percent
		matchedtxt.classList.remove("hide");
		var pct = 100 * count / maxwidth;
		if (pct != 100) pct = pct.toFixed(1)
		matchedtxt.firstChild.nodeValue = "Matched: " + pct + "%";
	}
]]>
</script>
<rect x="0" y="0" width="100%" height="100%" fill="rgb(240,240,220)"/>
<text id="title" x="600" y="24">Flame Graph</text>
<text id="details" x="10" y="613"> </text>
<text id="unzoom" x="10" y="24" class="hide">Reset Zoom</text>
<text id="search" x="1090" y="24">Search</text>
<text id="matched" x="1090" y="613"> </text>
<g id="frames">
<g>
<title>all (275 samples, 100.00%)</title><rect x="10.0" y="579.0" width="1180.0" height="15" fill="#e15a5a" rx="2" ry="2"/>
<text x="13.0" y="590.0">all</text>
</g>
<g>
<title>java/lang/Thread.run (208 samples, 75.64%)</title><rect x="10.0" y="563.0" width="892.5" height="15" fill="#5dee5d" rx="2" ry="2"/>
<text x="13.0" y="574.0">java/lang/Thread.run</text>
</g>
<g>
<title>java/util/concurrent/ThreadPoolExecutor$Worker.run (208 samples, 75.64%)</title><rect x="10.0" y="547.0" width="892.5" height="15" fill="#5dee5d" rx="2" ry="2"/>
<text x="13.0" y="558.0">java/util/concurrent/ThreadPoolExecutor$Worker.run</text>
</g>
<g>
<title>java/util/concurrent/ThreadPoolExecutor.runWorker (208 samples, 75.64%)</title><rect x="10.0" y="531.0" width="892.5" height="15" fill="#65f665" rx="2" ry="2"/>
<text x="13.0" y="542.0">java/util/concurrent/ThreadPoolExecutor.runWorker</text>
</g>
<g>
<title>java/util/concurrent/CompletableFuture$AsyncSupply.run (110 samples, 40.00%)</title><rect x="10.0" y="515.0" width="472.0" height="15" fill="#5aeb5a" rx="2" ry="2"/>
<text x="13.0" y="526.0">java/util/concurrent/CompletableFuture$AsyncSupply.run</text>
</g>
<g>
<title>java/util/concurrent/CompletableFuture.postComplete (110 samples, 40.00%)</title><rect x="10.0" y="499.0" width="472.0" height="15" fill="#5bec5b" rx="2" ry="2"/>
<text x="13.0" y="510.0">java/util/concurrent/CompletableFuture.postComplete</text>
</g>
<g>
<title>java/util/concurrent/CompletableFuture$UniCompose.tryFire (110 samples, 40.00%)</title><rect x="10.0" y="483.0" width="472.0" height="15" fill="#60f160" rx="2" ry="2"/>
<text x="13.0" y="494.0">java/util/concurrent/CompletableFuture$UniCompose.tryFire</text>
</g>
<g>
<title>jdk/internal/net/http/Http1Exchange$$Lambda$354/811760192.apply (23 samples, 8.36%)</title><rect x="10.0" y="467.0" width="98.7" height="15" fill="#56e756" rx="2" ry="2"/>
<text x="13.0" y="478.0">jdk/internal..</text>
</g>
<g>
<title>jdk/internal/net/http/Http1Exchange.lambda$sendHeadersAsync$4 (23 samples, 8.36%)</title><rect x="10.0" y="451.0" width="98.7" height="15" fill="#6dfe6d" rx="2" ry="2"/>
<text x="13.0" y="462.0">jdk/internal..</text>
</g>
<g>
<title>jdk/internal/net/http/Http1Exchange.connectFlows (23 samples, 8.36%)</title><rect x="10.0" y="435.0" width="98.7" height="15" fill="#68f968" rx="2" ry="2"/>
<text x="13.0" y="446.0">jdk/internal..</text>
</g>
<g>
<title>jdk/internal/net/http/SocketTube.connectFlows (23 samples, 8.36%)</title><rect x="10.0" y="419.0" width="98.7" height="15" fill="#55e655" rx="2" ry="2"/>
<text x="13.0" y="430.0">jdk/internal..</text>
</g>
<g>
<title>jdk/internal/net/http/Http1Exchange$Http1Publisher.subscribe (1 samples, 0.36%)</title><rect x="10.0" y="403.0" width="4.3" height="15" fill="#57e857" rx="2" ry="2"/>
<text x="13.0" y="414.0"></text>
</g>
<g>
<title>jdk/internal/net/http/SocketTube.onSubscribe (1 samples, 0.36%)</title><rect x="10.0" y="387.0" width="4.3" height="15" fill="#62f362" rx="2" ry="2"/>
<text x="13.0" y="398.0"></text>
</g>
<g>
<title>jdk/internal/net/http/SocketTube$InternalWriteSubscriber.onSubscribe (1 samples, 0.36%)</title><rect x="10.0" y="371.0" width="4.3" height="15" fill="#63f463" rx="2" ry="2"/>
<text x="13.0" y="382.0"></text>
</g>
<g>
<title>jdk/internal/net/http/HttpClientImpl.registerEvent (1 samples, 0.36%)</title><rect x="10.0" y="355.0" width="4.3" height="15" fill="#53e453" rx="2" ry="2"/>
<text x="13.0" y="366.0"></text>
</g>
<g>
<title>jdk/internal/net/http/HttpClientImpl$SelectorManager.register (1 samples, 0.36%)</title><rect x="10.0" y="339.0" width="4.3" height="15" fill="#66f766" rx="2" ry="2"/>
<text x="13.0" y="350.0"></text>
</g>
<g>
<title>jdk.internal.net.http.HttpClientImpl$SelectorManager (1 samples, 0.36%)</title><rect x="10.0" y="323.0" width="4.3" height="15" fill="#51bfbf" rx="2" ry="2"/>
<text x="13.0" y="334.0"></text>
</g>
<g>
<title>jdk/internal/net/http/SocketTube.subscribe (22 samples, 8.00%)</title><rect x="14.3" y="403.0" width="94.4" height="15" fill="#6bfc6b" rx="2" ry="2"/>
<text x="17.3" y="414.0">jdk/interna..</text>
</g>
<g>
<title>jdk/internal/net/http/SocketTube$InternalReadPublisher.subscribe (22 samples, 8.00%)</title><rect x="14.3" y="387.0" width="94.4" height="15" fill="#53e453" rx="2" ry="2"/>
<text x="17.3" y="398.0">jdk/interna..</text>
</g>
<g>
<title>jdk/internal/net/http/SocketTube$InternalReadPublisher$InternalReadSubscription.signalSubscribe (22 samples, 8.00%)</title><rect x="14.3" y="371.0" width="94.4" height="15" fill="#55e655" rx="2" ry="2"/>
<text x="17.3" y="382.0">jdk/interna..</text>
</g>
<g>
<title>jdk/internal/net/http/HttpClientImpl.registerEvent (22 samples, 8.00%)</title><rect x="14.3" y="355.0" width="94.4" height="15" fill="#51e251" rx="2" ry="2"/>
<text x="17.3" y="366.0">jdk/interna..</text>
</g>
<g>
<title>jdk/internal/net/http/HttpClientImpl$SelectorManager.register (22 samples, 8.00%)</title><rect x="14.3" y="339.0" width="94.4" height="15" fill="#6bfc6b" rx="2" ry="2"/>
<text x="17.3" y="350.0">jdk/interna..</text>
</g>
<g>
<title>jdk.internal.net.http.HttpClientImpl$SelectorManager (19 samples, 6.91%)</title><rect x="14.3" y="323.0" width="81.5" height="15" fill="#60cece" rx="2" ry="2"/>
<text x="17.3" y="334.0">jdk.inter..</text>
</g>
<g>
<title>sun/nio/ch/EPollSelectorImpl.wakeup (3 samples, 1.09%)</title><rect x="95.8" y="323.0" width="12.9" height="15" fill="#6afb6a" rx="2" ry="2"/>
<text x="98.8" y="334.0"></text>
</g>
<g>
<title>java.lang.Object (3 samples, 1.09%)</title><rect x="95.8" y="307.0" width="12.9" height="15" fill="#5ccaca" rx="2" ry="2"/>
<text x="98.8" y="318.0"></text>
</g>
<g>
<title>jdk/internal/net/http/MultiExchange$$Lambda$185/1494676242.apply (87 samples, 31.64%)</title><rect x="108.7" y="467.0" width="373.3" height="15" fill="#6afb6a" rx="2" ry="2"/>
<text x="111.7" y="478.0">jdk/internal/net/http/MultiExchange$$Lambda$185/149..</text>
</g>
<g>
<title>jdk/internal/net/http/MultiExchange.lambda$responseAsync0$2 (87 samples, 31.64%)</title><rect x="108.7" y="451.0" width="373.3" height="15" fill="#66f766" rx="2" ry="2"/>
<text x="111.7" y="462.0">jdk/internal/net/http/MultiExchange.lambda$response..</text>
</g>
<g>
<title>jdk/internal/net/http/MultiExchange.responseAsyncImpl (87 samples, 31.64%)</title><rect x="108.7" y="435.0" width="373.3" height="15" fill="#53e453" rx="2" ry="2"/>
<text x="111.7" y="446.0">jdk/internal/net/http/MultiExchange.responseAsyncImpl</text>
</g>
<g>
<title>jdk/internal/net/http/Exchange.responseAsync (46 samples, 16.73%)</title><rect x="108.7" y="419.0" width="197.4" height="15" fill="#5ff05f" rx="2" ry="2"/>
<text x="111.7" y="430.0">jdk/internal/net/http/Exch..</text>
</g>
<g>
<title>jdk/internal/net/http/Exchange.responseAsyncImpl (46 samples, 16.73%)</title><rect x="108.7" y="403.0" width="197.4" height="15" fill="#5ced5c" rx="2" ry="2"/>
<text x="111.7" y="414.0">jdk/internal/net/http/Exch..</text>
</g>
<g>
<title>jdk/internal/net/http/Exchange.responseAsyncImpl0 (46 samples, 16.73%)</title><rect x="108.7" y="387.0" width="197.4" height="15" fill="#5eef5e" rx="2" ry="2"/>
<text x="111.7" y="398.0">jdk/internal/net/http/Exch..</text>
</g>
<g>
<title>java/util/concurrent/CompletableFuture.handle (46 samples, 16.73%)</title><rect x="108.7" y="371.0" width="197.4" height="15" fill="#60f160" rx="2" ry="2"/>
<text x="111.7" y="382.0">java/util/concurrent/Compl..</text>
</g>
<g>
<title>java/util/concurrent/CompletableFuture.uniHandleStage (46 samples, 16.73%)</title><rect x="108.7" y="355.0" width="197.4" height="15" fill="#6afb6a" rx="2" ry="2"/>
<text x="111.7" y="366.0">java/util/concurrent/Compl..</text>
</g>
<g>
<title>java/util/concurrent/CompletableFuture.uniHandle (46 samples, 16.73%)</title><rect x="108.7" y="339.0" width="197.4" height="15" fill="#6cfd6c" rx="2" ry="2"/>
<text x="111.7" y="350.0">java/util/concurrent/Compl..</text>
</g>
<g>
<title>jdk/internal/net/http/Exchange$$Lambda$316/2068090598.apply (46 samples, 16.73%)</title><rect x="108.7" y="323.0" width="197.4" height="15" fill="#57e857" rx="2" ry="2"/>
<text x="111.7" y="334.0">jdk/internal/net/http/Exch..</text>
</g>
<g>
<title>jdk/internal/net/http/Exchange.lambda$responseAsyncImpl0$9 (46 samples, 16.73%)</title><rect x="108.7" y="307.0" width="197.4" height="15" fill="#56e756" rx="2" ry="2"/>
<text x="111.7" y="318.0">jdk/internal/net/http/Exch..</text>
</g>
<g>
<title>jdk/internal/net/http/Exchange.checkFor407 (46 samples, 16.73%)</title><rect x="108.7" y="291.0" width="197.4" height="15" fill="#59ea59" rx="2" ry="2"/>
<text x="111.7" y="302.0">jdk/internal/net/http/Exch..</text>
</g>
<g>
<title>jdk/internal/net/http/Exchange$$Lambda$215/1588773889.apply (46 samples, 16.73%)</title><rect x="108.7" y="275.0" width="197.4" height="15" fill="#68f968" rx="2" ry="2"/>
<text x="111.7" y="286.0">jdk/internal/net/http/Exch..</text>
</g>
<g>
<title>jdk/internal/net/http/Exchange.lambda$responseAsyncImpl0$8 (46 samples, 16.73%)</title><rect x="108.7" y="259.0" width="197.4" height="15" fill="#5ced5c" rx="2" ry="2"/>
<text x="111.7" y="270.0">jdk/internal/net/http/Exch..</text>
</g>
<g>
<title>jdk/internal/net/http/Http1Exchange.sendHeadersAsync (46 samples, 16.73%)</title><rect x="108.7" y="243.0" width="197.4" height="15" fill="#58e958" rx="2" ry="2"/>
<text x="111.7" y="254.0">jdk/internal/net/http/Http..</text>
</g>
<g>
<title>java/util/concurrent/CompletableFuture.thenCompose (31 samples, 11.27%)</title><rect x="108.7" y="227.0" width="133.0" height="15" fill="#63f463" rx="2" ry="2"/>
<text x="111.7" y="238.0">java/util/concurr..</text>
</g>
<g>
<title>java/util/concurrent/CompletableFuture.uniComposeStage (31 samples, 11.27%)</title><rect x="108.7" y="211.0" width="133.0" height="15" fill="#61f261" rx="2" ry="2"/>
<text x="111.7" y="222.0">java/util/concurr..</text>
</g>
<g>
<title>jdk/internal/net/http/Http1Exchange$$Lambda$354/811760192.apply (31 samples, 11.27%)</title><rect x="108.7" y="195.0" width="133.0" height="15" fill="#5ff05f" rx="2" ry="2"/>
<text x="111.7" y="206.0">jdk/internal/net/..</text>
</g>
<g>
<title>jdk/internal/net/http/Http1Exchange.lambda$sendHeadersAsync$4 (31 samples, 11.27%)</title><rect x="108.7" y="179.0" width="133.0" height="15" fill="#57e857" rx="2" ry="2"/>
<text x="111.7" y="190.0">jdk/internal/net/..</text>
</g>
<g>
<title>jdk/internal/net/http/Http1Exchange.connectFlows (31 samples, 11.27%)</title><rect x="108.7" y="163.0" width="133.0" height="15" fill="#56e756" rx="2" ry="2"/>
<text x="111.7" y="174.0">jdk/internal/net/..</text>
</g>
<g>
<title>jdk/internal/net/http/SocketTube.connectFlows (31 samples, 11.27%)</title><rect x="108.7" y="147.0" width="133.0" height="15" fill="#63f463" rx="2" ry="2"/>
<text x="111.7" y="158.0">jdk/internal/net/..</text>
</g>
<g>
<title>jdk/internal/net/http/Http1Exchange$Http1Publisher.subscribe (5 samples, 1.82%)</title><rect x="108.7" y="131.0" width="21.4" height="15" fill="#50e150" rx="2" ry="2"/>
<text x="111.7" y="142.0">j..</text>
</g>
<g>
<title>jdk/internal/net/http/SocketTube.onSubscribe (5 samples, 1.82%)</title><rect x="108.7" y="115.0" width="21.4" height="15" fill="#58e958" rx="2" ry="2"/>
<text x="111.7" y="126.0">j..</text>
</g>
<g>
<title>jdk/internal/net/http/SocketTube$InternalWriteSubscriber.onSubscribe (5 samples, 1.82%)</title><rect x="108.7" y="99.0" width="21.4" height="15" fill="#60f160" rx="2" ry="2"/>
<text x="111.7" y="110.0">j..</text>
</g>
<g>
<title>jdk/internal/net/http/HttpClientImpl.registerEvent (5 samples, 1.82%)</title><rect x="108.7" y="83.0" width="21.4" height="15" fill="#53e453" rx="2" ry="2"/>
<text x="111.7" y="94.0">j..</text>
</g>
<g>
<title>jdk/internal/net/http/HttpClientImpl$SelectorManager.register (5 samples, 1.82%)</title><rect x="108.7" y="67.0" width="21.4" height="15" fill="#5dee5d" rx="2" ry="2"/>
<text x="111.7" y="78.0">j..</text>
</g>
<g>
<title>jdk.internal.net.http.HttpClientImpl$SelectorManager (2 samples, 0.73%)</title><rect x="108.7" y="51.0" width="8.6" height="15" fill="#62d0d0" rx="2" ry="2"/>
<text x="111.7" y="62.0"></text>
</g>
<g>
<title>sun/nio/ch/EPollSelectorImpl.wakeup (3 samples, 1.09%)</title><rect x="117.3" y="51.0" width="12.8" height="15" fill="#51e251" rx="2" ry="2"/>
<text x="120.3" y="62.0"></text>
</g>
<g>
<title>java.lang.Object (3 samples, 1.09%)</title><rect x="117.3" y="35.0" width="12.8" height="15" fill="#6ddbdb" rx="2" ry="2"/>
<text x="120.3" y="46.0"></text>
</g>
<g>
<title>jdk/internal/net/http/SocketTube.subscribe (26 samples, 9.45%)</title><rect x="130.1" y="131.0" width="111.6" height="15" fill="#5eef5e" rx="2" ry="2"/>
<text x="133.1" y="142.0">jdk/internal/..</text>
</g>
<g>
<title>jdk/internal/net/http/SocketTube$InternalReadPublisher.subscribe (26 samples, 9.45%)</title><rect x="130.1" y="115.0" width="111.6" height="15" fill="#5eef5e" rx="2" ry="2"/>
<text x="133.1" y="126.0">jdk/internal/..</text>
</g>
<g>
<title>jdk/internal/net/http/SocketTube$InternalReadPublisher$InternalReadSubscription.signalSubscribe (26 samples, 9.45%)</title><rect x="130.1" y="99.0" width="111.6" height="15" fill="#69fa69" rx="2" ry="2"/>
<text x="133.1" y="110.0">jdk/internal/..</text>
</g>
<g>
<title>jdk/internal/net/http/HttpClientImpl.registerEvent (26 samples, 9.45%)</title><rect x="130.1" y="83.0" width="111.6" height="15" fill="#57e857" rx="2" ry="2"/>
<text x="133.1" y="94.0">jdk/internal/..</text>
</g>
<g>
<title>jdk/internal/net/http/HttpClientImpl$SelectorManager.register (26 samples, 9.45%)</title><rect x="130.1" y="67.0" width="111.6" height="15" fill="#61f261" rx="2" ry="2"/>
<text x="133.1" y="78.0">jdk/internal/..</text>
</g>
<g>
<title>jdk.internal.net.http.HttpClientImpl$SelectorManager (23 samples, 8.36%)</title><rect x="130.1" y="51.0" width="98.7" height="15" fill="#5bc9c9" rx="2" ry="2"/>
<text x="133.1" y="62.0">jdk.internal..</text>
</g>
<g>
<title>sun/nio/ch/EPollSelectorImpl.wakeup (3 samples, 1.09%)</title><rect x="228.8" y="51.0" width="12.9" height="15" fill="#64f564" rx="2" ry="2"/>
<text x="231.8" y="62.0"></text>
</g>
<g>
<title>java.lang.Object (3 samples, 1.09%)</title><rect x="228.8" y="35.0" width="12.9" height="15" fill="#52c0c0" rx="2" ry="2"/>
<text x="231.8" y="46.0"></text>
</g>
<g>
<title>jdk/internal/net/http/PlainHttpConnection.connectAsync (15 samples, 5.45%)</title><rect x="241.7" y="227.0" width="64.4" height="15" fill="#6bfc6b" rx="2" ry="2"/>
<text x="244.7" y="238.0">jdk/int..</text>
</g>
<g>
<title>jdk/internal/net/http/HttpClientImpl.registerEvent (15 samples, 5.45%)</title><rect x="241.7" y="211.0" width="64.4" height="15" fill="#60f160" rx="2" ry="2"/>
<text x="244.7" y="222.0">jdk/int..</text>
</g>
<g>
<title>jdk/internal/net/http/HttpClientImpl$SelectorManager.register (15 samples, 5.45%)</title><rect x="241.7" y="195.0" width="64.4" height="15" fill="#50e150" rx="2" ry="2"/>
<text x="244.7" y="206.0">jdk/int..</text>
</g>
<g>
<title>jdk.internal.net.http.HttpClientImpl$SelectorManager (14 samples, 5.09%)</title><rect x="241.7" y="179.0" width="60.1" height="15" fill="#55c3c3" rx="2" ry="2"/>
<text x="244.7" y="190.0">jdk.in..</text>
</g>
<g>
<title>sun/nio/ch/EPollSelectorImpl.wakeup (1 samples, 0.36%)</title><rect x="301.8" y="179.0" width="4.3" height="15" fill="#66f766" rx="2" ry="2"/>
<text x="304.8" y="190.0"></text>
</g>
<g>
<title>java.lang.Object (1 samples, 0.36%)</title><rect x="301.8" y="163.0" width="4.3" height="15" fill="#59c7c7" rx="2" ry="2"/>
<text x="304.8" y="174.0"></text>
</g>
<g>
<title>jdk/internal/net/http/HttpClientImpl.registerTimer (41 samples, 14.91%)</title><rect x="306.1" y="419.0" width="175.9" height="15" fill="#6dfe6d" rx="2" ry="2"/>
<text x="309.1" y="430.0">jdk/internal/net/http/H..</text>
</g>
<g>
<title>jdk.internal.net.http.HttpClientImpl (33 samples, 12.00%)</title><rect x="306.1" y="403.0" width="141.6" height="15" fill="#54c2c2" rx="2" ry="2"/>
<text x="309.1" y="414.0">jdk.internal.net.h..</text>
</g>
<g>
<title>jdk/internal/net/http/HttpClientImpl$SelectorManager.wakeupSelector (8 samples, 2.91%)</title><rect x="447.7" y="403.0" width="34.3" height="15" fill="#62f362" rx="2" ry="2"/>
<text x="450.7" y="414.0">jd..</text>
</g>
<g>
<title>sun/nio/ch/EPollSelectorImpl.wakeup (8 samples, 2.91%)</title><rect x="447.7" y="387.0" width="34.3" height="15" fill="#62f362" rx="2" ry="2"/>
<text x="450.7" y="398.0">su..</text>
</g>
<g>
<title>java.lang.Object (8 samples, 2.91%)</title><rect x="447.7" y="371.0" width="34.3" height="15" fill="#66d4d4" rx="2" ry="2"/>
<text x="450.7" y="382.0">ja..</text>
</g>
<g>
<title>java/util/concurrent/ThreadPoolExecutor.getTask (1 samples, 0.36%)</title><rect x="482.0" y="515.0" width="4.3" height="15" fill="#54e554" rx="2" ry="2"/>
<text x="485.0" y="526.0"></text>
</g>
<g>
<title>java/util/concurrent/LinkedBlockingQueue.take (1 samples, 0.36%)</title><rect x="482.0" y="499.0" width="4.3" height="15" fill="#69fa69" rx="2" ry="2"/>
<text x="485.0" y="510.0"></text>
</g>
<g>
<title>java/util/concurrent/locks/ReentrantLock.lockInterruptibly (1 samples, 0.36%)</title><rect x="482.0" y="483.0" width="4.3" height="15" fill="#6dfe6d" rx="2" ry="2"/>
<text x="485.0" y="494.0"></text>
</g>
<g>
<title>java/util/concurrent/locks/AbstractQueuedSynchronizer.acquireInterruptibly (1 samples, 0.36%)</title><rect x="482.0" y="467.0" width="4.3" height="15" fill="#67f867" rx="2" ry="2"/>
<text x="485.0" y="478.0"></text>
</g>
<g>
<title>java/util/concurrent/locks/AbstractQueuedSynchronizer.doAcquireInterruptibly (1 samples, 0.36%)</title><rect x="482.0" y="451.0" width="4.3" height="15" fill="#69fa69" rx="2" ry="2"/>
<text x="485.0" y="462.0"></text>
</g>
<g>
<title>java/util/concurrent/locks/AbstractQueuedSynchronizer.parkAndCheckInterrupt (1 samples, 0.36%)</title><rect x="482.0" y="435.0" width="4.3" height="15" fill="#57e857" rx="2" ry="2"/>
<text x="485.0" y="446.0"></text>
</g>
<g>
<title>java/util/concurrent/locks/LockSupport.park (1 samples, 0.36%)</title><rect x="482.0" y="419.0" width="4.3" height="15" fill="#5aeb5a" rx="2" ry="2"/>
<text x="485.0" y="430.0"></text>
</g>
<g>
<title>jdk/internal/misc/Unsafe.park (1 samples, 0.36%)</title><rect x="482.0" y="403.0" width="4.3" height="15" fill="#6dfe6d" rx="2" ry="2"/>
<text x="485.0" y="414.0"></text>
</g>
<g>
<title>java.util.concurrent.locks.ReentrantLock$NonfairSync (1 samples, 0.36%)</title><rect x="482.0" y="387.0" width="4.3" height="15" fill="#64d2d2" rx="2" ry="2"/>
<text x="485.0" y="398.0"></text>
</g>
<g>
<title>jdk/internal/net/http/common/SequentialScheduler$SchedulableTask.run (97 samples, 35.27%)</title><rect x="486.3" y="515.0" width="416.2" height="15" fill="#6cfd6c" rx="2" ry="2"/>
<text x="489.3" y="526.0">jdk/internal/net/http/common/SequentialScheduler$Schedula..</text>
</g>
<g>
<title>jdk/internal/net/http/common/SequentialScheduler$CompleteRestartableTask.run (97 samples, 35.27%)</title><rect x="486.3" y="499.0" width="416.2" height="15" fill="#51e251" rx="2" ry="2"/>
<text x="489.3" y="510.0">jdk/internal/net/http/common/SequentialScheduler$Complete..</text>
</g>
<g>
<title>jdk/internal/net/http/common/SequentialScheduler$SynchronizedRestartableTask.run (54 samples, 19.64%)</title><rect x="486.3" y="483.0" width="231.7" height="15" fill="#64f564" rx="2" ry="2"/>
<text x="489.3" y="494.0">jdk/internal/net/http/common/Se..</text>
</g>
<g>
<title>jdk/internal/net/http/Http1AsyncReceiver$$Lambda$292/41133781.run (54 samples, 19.64%)</title><rect x="486.3" y="467.0" width="231.7" height="15" fill="#5dee5d" rx="2" ry="2"/>
<text x="489.3" y="478.0">jdk/internal/net/http/Http1Asyn..</text>
</g>
<g>
<title>jdk/internal/net/http/Http1AsyncReceiver.flush (54 samples, 19.64%)</title><rect x="486.3" y="451.0" width="231.7" height="15" fill="#5ff05f" rx="2" ry="2"/>
<text x="489.3" y="462.0">jdk/internal/net/http/Http1Asyn..</text>
</g>
<g>
<title>jdk/internal/net/http/Http1AsyncReceiver.checkRequestMore (48 samples, 17.45%)</title><rect x="486.3" y="435.0" width="206.0" height="15" fill="#60f160" rx="2" ry="2"/>
<text x="489.3" y="446.0">jdk/internal/net/http/Http1..</text>
</g>
<g>
<title>jdk/internal/net/http/Http1AsyncReceiver$Http1TubeSubscriber.requestMore (48 samples, 17.45%)</title><rect x="486.3" y="419.0" width="206.0" height="15" fill="#64f564" rx="2" ry="2"/>
<text x="489.3" y="430.0">jdk/internal/net/http/Http1..</text>
</g>
<g>
<title>jdk/internal/net/http/SocketTube$InternalReadPublisher$ReadSubscription.request (48 samples, 17.45%)</title><rect x="486.3" y="403.0" width="206.0" height="15" fill="#52e352" rx="2" ry="2"/>
<text x="489.3" y="414.0">jdk/internal/net/http/Socke..</text>
</g>
<g>
<title>jdk/internal/net/http/SocketTube$InternalReadPublisher$InternalReadSubscription.request (48 samples, 17.45%)</title><rect x="486.3" y="387.0" width="206.0" height="15" fill="#6bfc6b" rx="2" ry="2"/>
<text x="489.3" y="398.0">jdk/internal/net/http/Socke..</text>
</g>
<g>
<title>jdk/internal/net/http/SocketTube$InternalReadPublisher$InternalReadSubscription.resumeReadEvent (48 samples, 17.45%)</title><rect x="486.3" y="371.0" width="206.0" height="15" fill="#5aeb5a" rx="2" ry="2"/>
<text x="489.3" y="382.0">jdk/internal/net/http/Socke..</text>
</g>
<g>
<title>jdk/internal/net/http/SocketTube.resumeEvent (48 samples, 17.45%)</title><rect x="486.3" y="355.0" width="206.0" height="15" fill="#55e655" rx="2" ry="2"/>
<text x="489.3" y="366.0">jdk/internal/net/http/Socke..</text>
</g>
<g>
<title>jdk/internal/net/http/HttpClientImpl.eventUpdated (28 samples, 10.18%)</title><rect x="486.3" y="339.0" width="120.1" height="15" fill="#69fa69" rx="2" ry="2"/>
<text x="489.3" y="350.0">jdk/internal/ne..</text>
</g>
<g>
<title>jdk/internal/net/http/HttpClientImpl$SelectorManager.eventUpdated (28 samples, 10.18%)</title><rect x="486.3" y="323.0" width="120.1" height="15" fill="#6afb6a" rx="2" ry="2"/>
<text x="489.3" y="334.0">jdk/internal/ne..</text>
</g>
<g>
<title>jdk/internal/net/http/HttpClientImpl$SelectorManager.register (28 samples, 10.18%)</title><rect x="486.3" y="307.0" width="120.1" height="15" fill="#56e756" rx="2" ry="2"/>
<text x="489.3" y="318.0">jdk/internal/ne..</text>
</g>
<g>
<title>jdk.internal.net.http.HttpClientImpl$SelectorManager (26 samples, 9.45%)</title><rect x="486.3" y="291.0" width="111.6" height="15" fill="#50bebe" rx="2" ry="2"/>
<text x="489.3" y="302.0">jdk.internal...</text>
</g>
<g>
<title>sun/nio/ch/EPollSelectorImpl.wakeup (2 samples, 0.73%)</title><rect x="597.9" y="291.0" width="8.5" height="15" fill="#62f362" rx="2" ry="2"/>
<text x="600.9" y="302.0"></text>
</g>
<g>
<title>java.lang.Object (2 samples, 0.73%)</title><rect x="597.9" y="275.0" width="8.5" height="15" fill="#60cece" rx="2" ry="2"/>
<text x="600.9" y="286.0"></text>
</g>
<g>
<title>jdk/internal/net/http/HttpClientImpl.registerEvent (20 samples, 7.27%)</title><rect x="606.4" y="339.0" width="85.9" height="15" fill="#6dfe6d" rx="2" ry="2"/>
<text x="609.4" y="350.0">jdk/intern..</text>
</g>
<g>
<title>jdk/internal/net/http/HttpClientImpl$SelectorManager.register (20 samples, 7.27%)</title><rect x="606.4" y="323.0" width="85.9" height="15" fill="#67f867" rx="2" ry="2"/>
<text x="609.4" y="334.0">jdk/intern..</text>
</g>
<g>
<title>jdk.internal.net.http.HttpClientImpl$SelectorManager (19 samples, 6.91%)</title><rect x="606.4" y="307.0" width="81.6" height="15" fill="#54c2c2" rx="2" ry="2"/>
<text x="609.4" y="318.0">jdk.inter..</text>
</g>
<g>
<title>sun/nio/ch/EPollSelectorImpl.wakeup (1 samples, 0.36%)</title><rect x="688.0" y="307.0" width="4.3" height="15" fill="#62f362" rx="2" ry="2"/>
<text x="691.0" y="318.0"></text>
</g>
<g>
<title>java.lang.Object (1 samples, 0.36%)</title><rect x="688.0" y="291.0" width="4.3" height="15" fill="#5fcdcd" rx="2" ry="2"/>
<text x="691.0" y="302.0"></text>
</g>
<g>
<title>jdk/internal/net/http/Http1Response$HeadersReader.tryAsyncReceive (6 samples, 2.18%)</title><rect x="692.3" y="435.0" width="25.7" height="15" fill="#58e958" rx="2" ry="2"/>
<text x="695.3" y="446.0">j..</text>
</g>
<g>
<title>jdk/internal/net/http/Http1Response$Receiver.accept (6 samples, 2.18%)</title><rect x="692.3" y="419.0" width="25.7" height="15" fill="#5dee5d" rx="2" ry="2"/>
<text x="695.3" y="430.0">j..</text>
</g>
<g>
<title>jdk/internal/net/http/Http1Response$HeadersReader.handle (6 samples, 2.18%)</title><rect x="692.3" y="403.0" width="25.7" height="15" fill="#5ff05f" rx="2" ry="2"/>
<text x="695.3" y="414.0">j..</text>
</g>
<g>
<title>jdk/internal/net/http/Http1Response$HeadersReader.handle (6 samples, 2.18%)</title><rect x="692.3" y="387.0" width="25.7" height="15" fill="#52e352" rx="2" ry="2"/>
<text x="695.3" y="398.0">j..</text>
</g>
<g>
<title>java/util/concurrent/CompletableFuture.complete (6 samples, 2.18%)</title><rect x="692.3" y="371.0" width="25.7" height="15" fill="#59ea59" rx="2" ry="2"/>
<text x="695.3" y="382.0">j..</text>
</g>
<g>
<title>java/util/concurrent/CompletableFuture.postComplete (6 samples, 2.18%)</title><rect x="692.3" y="355.0" width="25.7" height="15" fill="#66f766" rx="2" ry="2"/>
<text x="695.3" y="366.0">j..</text>
</g>
<g>
<title>java/util/concurrent/CompletableFuture$UniApply.tryFire (6 samples, 2.18%)</title><rect x="692.3" y="339.0" width="25.7" height="15" fill="#5ced5c" rx="2" ry="2"/>
<text x="695.3" y="350.0">j..</text>
</g>
<g>
<title>java/util/concurrent/CompletableFuture$UniCompletion.claim (6 samples, 2.18%)</title><rect x="692.3" y="323.0" width="25.7" height="15" fill="#58e958" rx="2" ry="2"/>
<text x="695.3" y="334.0">j..</text>
</g>
<g>
<title>jdk/internal/net/http/HttpClientImpl$DelegatingExecutor.execute (6 samples, 2.18%)</title><rect x="692.3" y="307.0" width="25.7" height="15" fill="#5dee5d" rx="2" ry="2"/>
<text x="695.3" y="318.0">j..</text>
</g>
<g>
<title>java/util/concurrent/CompletableFuture$Completion.run (6 samples, 2.18%)</title><rect x="692.3" y="291.0" width="25.7" height="15" fill="#5aeb5a" rx="2" ry="2"/>
<text x="695.3" y="302.0">j..</text>
</g>
<g>
<title>java/util/concurrent/CompletableFuture$UniApply.tryFire (6 samples, 2.18%)</title><rect x="692.3" y="275.0" width="25.7" height="15" fill="#59ea59" rx="2" ry="2"/>
<text x="695.3" y="286.0">j..</text>
</g>
<g>
<title>java/util/concurrent/CompletableFuture.postFire (6 samples, 2.18%)</title><rect x="692.3" y="259.0" width="25.7" height="15" fill="#53e453" rx="2" ry="2"/>
<text x="695.3" y="270.0">j..</text>
</g>
<g>
<title>java/util/concurrent/CompletableFuture.postComplete (6 samples, 2.18%)</title><rect x="692.3" y="243.0" width="25.7" height="15" fill="#68f968" rx="2" ry="2"/>
<text x="695.3" y="254.0">j..</text>
</g>
<g>
<title>java/util/concurrent/CompletableFuture$UniHandle.tryFire (6 samples, 2.18%)</title><rect x="692.3" y="227.0" width="25.7" height="15" fill="#68f968" rx="2" ry="2"/>
<text x="695.3" y="238.0">j..</text>
</g>
<g>
<title>java/util/concurrent/CompletableFuture.uniHandle (6 samples, 2.18%)</title><rect x="692.3" y="211.0" width="25.7" height="15" fill="#63f463" rx="2" ry="2"/>
<text x="695.3" y="222.0">j..</text>
</g>
<g>
<title>jdk/internal/net/http/MultiExchange$$Lambda$364/853251833.apply (6 samples, 2.18%)</title><rect x="692.3" y="195.0" width="25.7" height="15" fill="#5eef5e" rx="2" ry="2"/>
<text x="695.3" y="206.0">j..</text>
</g>
<g>
<title>jdk/internal/net/http/MultiExchange.lambda$responseAsyncImpl$7 (6 samples, 2.18%)</title><rect x="692.3" y="179.0" width="25.7" height="15" fill="#6bfc6b" rx="2" ry="2"/>
<text x="695.3" y="190.0">j..</text>
</g>
<g>
<title>jdk/internal/net/http/MultiExchange.cancelTimer (6 samples, 2.18%)</title><rect x="692.3" y="163.0" width="25.7" height="15" fill="#61f261" rx="2" ry="2"/>
<text x="695.3" y="174.0">j..</text>
</g>
<g>
<title>jdk/internal/net/http/HttpClientImpl.cancelTimer (6 samples, 2.18%)</title><rect x="692.3" y="147.0" width="25.7" height="15" fill="#69fa69" rx="2" ry="2"/>
<text x="695.3" y="158.0">j..</text>
</g>
<g>
<title>jdk.internal.net.http.HttpClientImpl (6 samples, 2.18%)</title><rect x="692.3" y="131.0" width="25.7" height="15" fill="#53c1c1" rx="2" ry="2"/>
<text x="695.3" y="142.0">j..</text>
</g>
<g>
<title>jdk/internal/net/http/common/SequentialScheduler$TryEndDeferredCompleter.complete (43 samples, 15.64%)</title><rect x="718.0" y="483.0" width="184.5" height="15" fill="#5ced5c" rx="2" ry="2"/>
<text x="721.0" y="494.0">jdk/internal/net/http/co..</text>
</g>
<g>
<title>jdk/internal/net/http/common/SequentialScheduler$CompleteRestartableTask.run (43 samples, 15.64%)</title><rect x="718.0" y="467.0" width="184.5" height="15" fill="#65f665" rx="2" ry="2"/>
<text x="721.0" y="478.0">jdk/internal/net/http/co..</text>
</g>
<g>
<title>jdk/internal/net/http/common/SequentialScheduler$SynchronizedRestartableTask.run (43 samples, 15.64%)</title><rect x="718.0" y="451.0" width="184.5" height="15" fill="#59ea59" rx="2" ry="2"/>
<text x="721.0" y="462.0">jdk/internal/net/http/co..</text>
</g>
<g>
<title>jdk/internal/net/http/Http1AsyncReceiver$$Lambda$292/41133781.run (43 samples, 15.64%)</title><rect x="718.0" y="435.0" width="184.5" height="15" fill="#5dee5d" rx="2" ry="2"/>
<text x="721.0" y="446.0">jdk/internal/net/http/Ht..</text>
</g>
<g>
<title>jdk/internal/net/http/Http1AsyncReceiver.flush (43 samples, 15.64%)</title><rect x="718.0" y="419.0" width="184.5" height="15" fill="#5aeb5a" rx="2" ry="2"/>
<text x="721.0" y="430.0">jdk/internal/net/http/Ht..</text>
</g>
<g>
<title>jdk/internal/net/http/Http1AsyncReceiver.handlePendingDelegate (43 samples, 15.64%)</title><rect x="718.0" y="403.0" width="184.5" height="15" fill="#69fa69" rx="2" ry="2"/>
<text x="721.0" y="414.0">jdk/internal/net/http/Ht..</text>
</g>
<g>
<title>jdk/internal/net/http/Http1Response$BodyReader.onSubscribe (43 samples, 15.64%)</title><rect x="718.0" y="387.0" width="184.5" height="15" fill="#5ced5c" rx="2" ry="2"/>
<text x="721.0" y="398.0">jdk/internal/net/http/Ht..</text>
</g>
<g>
<title>jdk/internal/net/http/ResponseContent$FixedLengthBodyParser.onSubscribe (43 samples, 15.64%)</title><rect x="718.0" y="371.0" width="184.5" height="15" fill="#54e554" rx="2" ry="2"/>
<text x="721.0" y="382.0">jdk/internal/net/http/Re..</text>
</g>
<g>
<title>jdk/internal/net/http/Http1Response$$Lambda$434/1948962483.run (43 samples, 15.64%)</title><rect x="718.0" y="355.0" width="184.5" height="15" fill="#6dfe6d" rx="2" ry="2"/>
<text x="721.0" y="366.0">jdk/internal/net/http/Ht..</text>
</g>
<g>
<title>jdk/internal/net/http/Http1Response.onFinished (43 samples, 15.64%)</title><rect x="718.0" y="339.0" width="184.5" height="15" fill="#50e150" rx="2" ry="2"/>
<text x="721.0" y="350.0">jdk/internal/net/http/Ht..</text>
</g>
<g>
<title>jdk/internal/net/http/HttpConnection.closeOrReturnToCache (43 samples, 15.64%)</title><rect x="718.0" y="323.0" width="184.5" height="15" fill="#64f564" rx="2" ry="2"/>
<text x="721.0" y="334.0">jdk/internal/net/http/Ht..</text>
</g>
<g>
<title>jdk/internal/net/http/ConnectionPool.returnToPool (43 samples, 15.64%)</title><rect x="718.0" y="307.0" width="184.5" height="15" fill="#58e958" rx="2" ry="2"/>
<text x="721.0" y="318.0">jdk/internal/net/http/Co..</text>
</g>
<g>
<title>jdk/internal/net/http/ConnectionPool.returnToPool (43 samples, 15.64%)</title><rect x="718.0" y="291.0" width="184.5" height="15" fill="#5eef5e" rx="2" ry="2"/>
<text x="721.0" y="302.0">jdk/internal/net/http/Co..</text>
</g>
<g>
<title>jdk/internal/net/http/ConnectionPool.registerCleanupTrigger (43 samples, 15.64%)</title><rect x="718.0" y="275.0" width="184.5" height="15" fill="#55e655" rx="2" ry="2"/>
<text x="721.0" y="286.0">jdk/internal/net/http/Co..</text>
</g>
<g>
<title>jdk/internal/net/http/SocketTube.connectFlows (43 samples, 15.64%)</title><rect x="718.0" y="259.0" width="184.5" height="15" fill="#5aeb5a" rx="2" ry="2"/>
<text x="721.0" y="270.0">jdk/internal/net/http/So..</text>
</g>
<g>
<title>jdk/internal/net/http/ConnectionPool$CleanupTrigger.subscribe (3 samples, 1.09%)</title><rect x="718.0" y="243.0" width="12.9" height="15" fill="#67f867" rx="2" ry="2"/>
<text x="721.0" y="254.0"></text>
</g>
<g>
<title>jdk/internal/net/http/SocketTube.onSubscribe (3 samples, 1.09%)</title><rect x="718.0" y="227.0" width="12.9" height="15" fill="#6cfd6c" rx="2" ry="2"/>
<text x="721.0" y="238.0"></text>
</g>
<g>
<title>jdk/internal/net/http/SocketTube$InternalWriteSubscriber.onSubscribe (3 samples, 1.09%)</title><rect x="718.0" y="211.0" width="12.9" height="15" fill="#66f766" rx="2" ry="2"/>
<text x="721.0" y="222.0"></text>
</g>
<g>
<title>jdk/internal/net/http/HttpClientImpl.registerEvent (3 samples, 1.09%)</title><rect x="718.0" y="195.0" width="12.9" height="15" fill="#52e352" rx="2" ry="2"/>
<text x="721.0" y="206.0"></text>
</g>
<g>
<title>jdk/internal/net/http/HttpClientImpl$SelectorManager.register (3 samples, 1.09%)</title><rect x="718.0" y="179.0" width="12.9" height="15" fill="#5bec5b" rx="2" ry="2"/>
<text x="721.0" y="190.0"></text>
</g>
<g>
<title>jdk.internal.net.http.HttpClientImpl$SelectorManager (2 samples, 0.73%)</title><rect x="718.0" y="163.0" width="8.6" height="15" fill="#53c1c1" rx="2" ry="2"/>
<text x="721.0" y="174.0"></text>
</g>
<g>
<title>sun/nio/ch/EPollSelectorImpl.wakeup (1 samples, 0.36%)</title><rect x="726.6" y="163.0" width="4.3" height="15" fill="#5ced5c" rx="2" ry="2"/>
<text x="729.6" y="174.0"></text>
</g>
<g>
<title>java.lang.Object (1 samples, 0.36%)</title><rect x="726.6" y="147.0" width="4.3" height="15" fill="#5fcdcd" rx="2" ry="2"/>
<text x="729.6" y="158.0"></text>
</g>
<g>
<title>jdk/internal/net/http/SocketTube.subscribe (40 samples, 14.55%)</title><rect x="730.9" y="243.0" width="171.6" height="15" fill="#6bfc6b" rx="2" ry="2"/>
<text x="733.9" y="254.0">jdk/internal/net/http/..</text>
</g>
<g>
<title>jdk/internal/net/http/SocketTube$InternalReadPublisher.subscribe (40 samples, 14.55%)</title><rect x="730.9" y="227.0" width="171.6" height="15" fill="#57e857" rx="2" ry="2"/>
<text x="733.9" y="238.0">jdk/internal/net/http/..</text>
</g>
<g>
<title>jdk/internal/net/http/SocketTube$InternalReadPublisher$InternalReadSubscription.signalSubscribe (40 samples, 14.55%)</title><rect x="730.9" y="211.0" width="171.6" height="15" fill="#54e554" rx="2" ry="2"/>
<text x="733.9" y="222.0">jdk/internal/net/http/..</text>
</g>
<g>
<title>jdk/internal/net/http/HttpClientImpl.registerEvent (40 samples, 14.55%)</title><rect x="730.9" y="195.0" width="171.6" height="15" fill="#5ced5c" rx="2" ry="2"/>
<text x="733.9" y="206.0">jdk/internal/net/http/..</text>
</g>
<g>
<title>jdk/internal/net/http/HttpClientImpl$SelectorManager.register (40 samples, 14.55%)</title><rect x="730.9" y="179.0" width="171.6" height="15" fill="#54e554" rx="2" ry="2"/>
<text x="733.9" y="190.0">jdk/internal/net/http/..</text>
</g>
<g>
<title>jdk.internal.net.http.HttpClientImpl$SelectorManager (39 samples, 14.18%)</title><rect x="730.9" y="163.0" width="167.3" height="15" fill="#66d4d4" rx="2" ry="2"/>
<text x="733.9" y="174.0">jdk.internal.net.http..</text>
</g>
<g>
<title>sun/nio/ch/EPollSelectorImpl.wakeup (1 samples, 0.36%)</title><rect x="898.2" y="163.0" width="4.3" height="15" fill="#57e857" rx="2" ry="2"/>
<text x="901.2" y="174.0"></text>
</g>
<g>
<title>java.lang.Object (1 samples, 0.36%)</title><rect x="898.2" y="147.0" width="4.3" height="15" fill="#58c6c6" rx="2" ry="2"/>
<text x="901.2" y="158.0"></text>
</g>
<g>
<title>jdk/internal/net/http/HttpClientImpl$SelectorManager.run (66 samples, 24.00%)</title><rect x="902.5" y="563.0" width="283.2" height="15" fill="#55e655" rx="2" ry="2"/>
<text x="905.5" y="574.0">jdk/internal/net/http/HttpClientImpl$S..</text>
</g>
<g>
<title>jdk.internal.net.http.HttpClientImpl$SelectorManager (51 samples, 18.55%)</title><rect x="902.5" y="547.0" width="218.8" height="15" fill="#6ddbdb" rx="2" ry="2"/>
<text x="905.5" y="558.0">jdk.internal.net.http.HttpCli..</text>
</g>
<g>
<title>jdk/internal/net/http/HttpClientImpl.purgeTimeoutsAndReturnNextDeadline (14 samples, 5.09%)</title><rect x="1121.3" y="547.0" width="60.1" height="15" fill="#61f261" rx="2" ry="2"/>
<text x="1124.3" y="558.0">jdk/in..</text>
</g>
<g>
<title>jdk.internal.net.http.HttpClientImpl (14 samples, 5.09%)</title><rect x="1121.3" y="531.0" width="60.1" height="15" fill="#62d0d0" rx="2" ry="2"/>
<text x="1124.3" y="542.0">jdk.in..</text>
</g>
<g>
<title>sun/nio/ch/SelectorImpl.select (1 samples, 0.36%)</title><rect x="1181.4" y="547.0" width="4.3" height="15" fill="#59ea59" rx="2" ry="2"/>
<text x="1184.4" y="558.0"></text>
</g>
<g>
<title>sun/nio/ch/SelectorImpl.lockAndDoSelect (1 samples, 0.36%)</title><rect x="1181.4" y="531.0" width="4.3" height="15" fill="#5ced5c" rx="2" ry="2"/>
<text x="1184.4" y="542.0"></text>
</g>
<g>
<title>sun/nio/ch/EPollSelectorImpl.doSelect (1 samples, 0.36%)</title><rect x="1181.4" y="515.0" width="4.3" height="15" fill="#51e251" rx="2" ry="2"/>
<text x="1184.4" y="526.0"></text>
</g>
<g>
<title>sun/nio/ch/EPollSelectorImpl.processEvents (1 samples, 0.36%)</title><rect x="1181.4" y="499.0" width="4.3" height="15" fill="#5dee5d" rx="2" ry="2"/>
<text x="1184.4" y="510.0"></text>
</g>
<g>
<title>sun/nio/ch/EPollSelectorImpl.clearInterrupt (1 samples, 0.36%)</title><rect x="1181.4" y="483.0" width="4.3" height="15" fill="#5ced5c" rx="2" ry="2"/>
<text x="1184.4" y="494.0"></text>
</g>
<g>
<title>java.lang.Object (1 samples, 0.36%)</title><rect x="1181.4" y="467.0" width="4.3" height="15" fill="#52c0c0" rx="2" ry="2"/>
<text x="1184.4" y="478.0"></text>
</g>
<g>
<title>one/nio/server/SelectorThread.run (1 samples, 0.36%)</title><rect x="1185.7" y="563.0" width="4.3" height="15" fill="#53e453" rx="2" ry="2"/>
<text x="1188.7" y="574.0"></text>
</g>
<g>
<title>one/nio/net/Session.process (1 samples, 0.36%)</title><rect x="1185.7" y="547.0" width="4.3" height="15" fill="#64f564" rx="2" ry="2"/>
<text x="1188.7" y="558.0"></text>
</g>
<g>
<title>one.nio.http.HttpSession (1 samples, 0.36%)</title><rect x="1185.7" y="531.0" width="4.3" height="15" fill="#60cece" rx="2" ry="2"/>
<text x="1188.7" y="542.0"></text>
</g>
</g>
</svg>
