<?xml version="1.0" standalone="no"?>
<!DOCTYPE svg PUBLIC "-//W3C//DTD SVG 1.1//EN" "http://www.w3.org/Graphics/SVG/1.1/DTD/svg11.dtd">
<svg version="1.1" width="1200" height="438" onload="init(evt)" viewBox="0 0 1200 438" xmlns="http://www.w3.org/2000/svg" xmlns:xlink="http://www.w3.org/1999/xlink">
<style type="text/css">
	text { font-family:Verdana; font-size:12px; fill:rgb(0,0,0); }
	#search { opacity:0.1; cursor:pointer; }
	#search:hover, #search.show { opacity:1; }
	#subtitle { text-anchor:middle; font-color:rgb(160,160,160); }
	#title { text-anchor:middle; font-size:17px}
	#unzoom { cursor:pointer; }
	#frames > *:hover { stroke:black; stroke-width:0.5; cursor:pointer; }
	.hide { display:none; }
	.parent { opacity:0.5; }
</style>
<script type="text/ecmascript">
<![CDATA[
	"use strict";
	var details, searchbtn, unzoombtn, matchedtxt, svg, searching;
	function init(evt) {
		details = document.getElementById("details").firstChild;
		searchbtn = document.getElementById("search");
		unzoombtn = document.getElementById("unzoom");
		matchedtxt = document.getElementById("matched");
		svg = document.getElementsByTagName("svg")[0];
		searching = 0;
	}

	window.addEventListener("click", function(e) {
		var target = find_group(e.target);
		if (target) {
			if (target.nodeName == "a") {
				if (e.ctrlKey === false) return;
				e.preventDefault();
			}
			if (target.classList.contains("parent")) unzoom();
			zoom(target);
		}
		else if (e.target.id == "unzoom") unzoom();
		else if (e.target.id == "search") search_prompt();
	}, false)

	// mouse-over for info
	// show
	window.addEventListener("mouseover", function(e) {
		var target = find_group(e.target);
		if (target) details.nodeValue = "Function: " + g_to_text(target);
	}, false)

	// clear
	window.addEventListener("mouseout", function(e) {
		var target = find_group(e.target);
		if (target) details.nodeValue = ' ';
	}, false)

	// ctrl-F for search
	window.addEventListener("keydown",function (e) {
		if (e.keyCode === 114 || (e.ctrlKey && e.keyCode === 70)) {
			e.preventDefault();
			search_prompt();
		}
	}, false)

	// functions
	function find_child(node, selector) {
		var children = node.querySelectorAll(selector);
		if (children.length) return children[0];
		return;
	}
	function find_group(node) {
		var parent = node.parentElement;
		if (!parent) return;
		if (parent.id == "frames") return node;
		return find_group(parent);
	}
	function orig_save(e, attr, val) {
		if (e.attributes["_orig_" + attr] != undefined) return;
		if (e.attributes[attr] == undefined) return;
		if (val == undefined) val = e.attributes[attr].value;
		e.setAttribute("_orig_" + attr, val);
	}
	function orig_load(e, attr) {
		if (e.attributes["_orig_"+attr] == undefined) return;
		e.attributes[attr].value = e.attributes["_orig_" + attr].value;
		e.removeAttribute("_orig_"+attr);
	}
	function g_to_text(e) {
		var text = find_child(e, "title").firstChild.nodeValue;
		return (text)
	}
	function g_to_func(e) {
		var func = g_to_text(e);
		// if there's any manipulation we want to do to the function
		// name before it's searched, do it here before returning.
		return (func);
	}
	function update_text(e) {
		var r = find_child(e, "rect");
		var t = find_child(e, "text");
		var w = parseFloat(r.attributes.width.value) -3;
		var txt = find_child(e, "title").textContent.replace(/\([^(]*\)$/,"");
		t.attributes.x.value = parseFloat(r.attributes.x.value) + 3;

		// Smaller than this size won't fit anything
		if (w < 2 * 12 * 0.59) {
			t.textContent = "";
			return;
		}

		t.textContent = txt;
		// Fit in full text width
		if (/^ *$/.test(txt) || t.getSubStringLength(0, txt.length) < w)
			return;

		for (var x = txt.length - 2; x > 0; x--) {
			if (t.getSubStringLength(0, x + 2) <= w) {
				t.textContent = txt.substring(0, x) + "..";
				return;
			}
		}
		t.textContent = "";
	}

	// zoom
	function zoom_reset(e) {
		if (e.attributes != undefined) {
			orig_load(e, "x");
			orig_load(e, "width");
		}
		if (e.childNodes == undefined) return;
		for (var i = 0, c = e.childNodes; i < c.length; i++) {
			zoom_reset(c[i]);
		}
	}
	function zoom_child(e, x, ratio) {
		if (e.attributes != undefined) {
			if (e.attributes.x != undefined) {
				orig_save(e, "x");
				e.attributes.x.value = (parseFloat(e.attributes.x.value) - x - 10) * ratio + 10;
				if (e.tagName == "text")
					e.attributes.x.value = find_child(e.parentNode, "rect[x]").attributes.x.value + 3;
			}
			if (e.attributes.width != undefined) {
				orig_save(e, "width");
				e.attributes.width.value = parseFloat(e.attributes.width.value) * ratio;
			}
		}

		if (e.childNodes == undefined) return;
		for (var i = 0, c = e.childNodes; i < c.length; i++) {
			zoom_child(c[i], x - 10, ratio);
		}
	}
	function zoom_parent(e) {
		if (e.attributes) {
			if (e.attributes.x != undefined) {
				orig_save(e, "x");
				e.attributes.x.value = 10;
			}
			if (e.attributes.width != undefined) {
				orig_save(e, "width");
				e.attributes.width.value = parseInt(svg.width.baseVal.value) - (10 * 2);
			}
		}
		if (e.childNodes == undefined) return;
		for (var i = 0, c = e.childNodes; i < c.length; i++) {
			zoom_parent(c[i]);
		}
	}
	function zoom(node) {
		var attr = find_child(node, "rect").attributes;
		var width = parseFloat(attr.width.value);
		var xmin = parseFloat(attr.x.value);
		var xmax = parseFloat(xmin + width);
		var ymin = parseFloat(attr.y.value);
		var ratio = (svg.width.baseVal.value - 2 * 10) / width;

		// XXX: Workaround for JavaScript float issues (fix me)
		var fudge = 0.0001;

		unzoombtn.classList.remove("hide");

		var el = document.getElementById("frames").children;
		for (var i = 0; i < el.length; i++) {
			var e = el[i];
			var a = find_child(e, "rect").attributes;
			var ex = parseFloat(a.x.value);
			var ew = parseFloat(a.width.value);
			var upstack;
			// Is it an ancestor
			if (0 == 0) {
				upstack = parseFloat(a.y.value) > ymin;
			} else {
				upstack = parseFloat(a.y.value) < ymin;
			}
			if (upstack) {
				// Direct ancestor
				if (ex <= xmin && (ex+ew+fudge) >= xmax) {
					e.classList.add("parent");
					zoom_parent(e);
					update_text(e);
				}
				// not in current path
				else
					e.classList.add("hide");
			}
			// Children maybe
			else {
				// no common path
				if (ex < xmin || ex + fudge >= xmax) {
					e.classList.add("hide");
				}
				else {
					zoom_child(e, xmin, ratio);
					update_text(e);
				}
			}
		}
	}
	function unzoom() {
		unzoombtn.classList.add("hide");
		var el = document.getElementById("frames").children;
		for(var i = 0; i < el.length; i++) {
			el[i].classList.remove("parent");
			el[i].classList.remove("hide");
			zoom_reset(el[i]);
			update_text(el[i]);
		}
	}

	// search
	function reset_search() {
		var el = document.querySelectorAll("#frames rect");
		for (var i = 0; i < el.length; i++) {
			orig_load(el[i], "fill")
		}
	}
	function search_prompt() {
		if (!searching) {
			var term = prompt("Enter a search term (regexp " +
			    "allowed, eg: ^ext4_)", "");
			if (term != null) {
				search(term)
			}
		} else {
			reset_search();
			searching = 0;
			searchbtn.classList.remove("show");
			searchbtn.firstChild.nodeValue = "Search"
			matchedtxt.classList.add("hide");
			matchedtxt.firstChild.nodeValue = ""
		}
	}
	function search(term) {
		var re = new RegExp(term);
		var el = document.getElementById("frames").children;
		var matches = new Object();
		var maxwidth = 0;
		for (var i = 0; i < el.length; i++) {
			var e = el[i];
			var func = g_to_func(e);
			var rect = find_child(e, "rect");
			if (func == null || rect == null)
				continue;

			// Save max width. Only works as we have a root frame
			var w = parseFloat(rect.attributes.width.value);
			if (w > maxwidth)
				maxwidth = w;

			if (func.match(re)) {
				// highlight
				var x = parseFloat(rect.attributes.x.value);
				orig_save(rect, "fill");
				rect.attributes.fill.value = "rgb(230,0,230)";

				// remember matches
				if (matches[x] == undefined) {
					matches[x] = w;
				} else {
					if (w > matches[x]) {
						// overwrite with parent
						matches[x] = w;
					}
				}
				searching = 1;
			}
		}
		if (!searching)
			return;

		searchbtn.classList.add("show");
		searchbtn.firstChild.nodeValue = "Reset Search";

		// calculate percent matched, excluding vertical overlap
		var count = 0;
		var lastx = -1;
		var lastw = 0;
		var keys = Array();
		for (k in matches) {
			if (matches.hasOwnProperty(k))
				keys.push(k);
		}
		// sort the matched frames by their x location
		// ascending, then width descending
		keys.sort(function(a, b){
			return a - b;
		});
		// Step through frames saving only the biggest bottom-up frames
		// thanks to the sort order. This relies on the tree property
		// where children are always smaller than their parents.
		var fudge = 0.0001;	// JavaScript floating point
		for (var k in keys) {
			var x = parseFloat(keys[k]);
			var w = matches[keys[k]];
			if (x >= lastx + lastw - fudge) {
				count += w;
				lastx = x;
				lastw = w;
			}
		}
		// display matched percent
		matchedtxt.classList.remove("hide");
		var pct = 100 * count / maxwidth;
		if (pct != 100) pct = pct.toFixed(1)
		matchedtxt.firstChild.nodeValue = "Matched: " + pct + "%";
	}
]]>
</script>
<rect x="0" y="0" width="100%" height="100%" fill="rgb(240,240,220)"/>
<text id="title" x="600" y="24">Flame Graph</text>
<text id="details" x="10" y="421"> </text>
<text id="unzoom" x="10" y="24" class="hide">Reset Zoom</text>
<text id="search" x="1090" y="24">Search</text>
<text id="matched" x="1090" y="421"> </text>
<g id="frames">
<g>
<title>all (138 samples, 100.00%)</title><rect x="10.0" y="387.0" width="1180.0" height="15" fill="#e35d5d" rx="2" ry="2"/>
<text x="13.0" y="398.0">all</text>
</g>
<g>
<title>one/nio/server/SelectorThread.run (138 samples, 100.00%)</title><rect x="10.0" y="371.0" width="1180.0" height="15" fill="#5bec5b" rx="2" ry="2"/>
<text x="13.0" y="382.0">one/nio/server/SelectorThread.run</text>
</g>
<g>
<title>one/nio/net/NativeSelector.select (8 samples, 5.80%)</title><rect x="10.0" y="355.0" width="68.4" height="15" fill="#59ea59" rx="2" ry="2"/>
<text x="13.0" y="366.0">one/nio..</text>
</g>
<g>
<title>one.nio.net.NativeSelector$2 (8 samples, 5.80%)</title><rect x="10.0" y="339.0" width="68.4" height="15" fill="#63d1d1" rx="2" ry="2"/>
<text x="13.0" y="350.0">one.nio..</text>
</g>
<g>
<title>one/nio/net/Session.process (130 samples, 94.20%)</title><rect x="78.4" y="355.0" width="1111.6" height="15" fill="#68f968" rx="2" ry="2"/>
<text x="81.4" y="366.0">one/nio/net/Session.process</text>
</g>
<g>
<title>one/nio/http/HttpSession.processRead (130 samples, 94.20%)</title><rect x="78.4" y="339.0" width="1111.6" height="15" fill="#53e453" rx="2" ry="2"/>
<text x="81.4" y="350.0">one/nio/http/HttpSession.processRead</text>
</g>
<g>
<title>one/nio/http/HttpSession.processHttpBuffer (130 samples, 94.20%)</title><rect x="78.4" y="323.0" width="1111.6" height="15" fill="#51e251" rx="2" ry="2"/>
<text x="81.4" y="334.0">one/nio/http/HttpSession.processHttpBuffer</text>
</g>
<g>
<title>one/nio/http/HttpSession.handleParsedRequest (107 samples, 77.54%)</title><rect x="78.4" y="307.0" width="914.9" height="15" fill="#51e251" rx="2" ry="2"/>
<text x="81.4" y="318.0">one/nio/http/HttpSession.handleParsedRequest</text>
</g>
<g>
<title>one/nio/http/HttpServer.handleRequest (107 samples, 77.54%)</title><rect x="78.4" y="291.0" width="914.9" height="15" fill="#5dee5d" rx="2" ry="2"/>
<text x="81.4" y="302.0">one/nio/http/HttpServer.handleRequest</text>
</g>
<g>
<title>RequestHandler1_response.handleRequest (97 samples, 70.29%)</title><rect x="78.4" y="275.0" width="829.4" height="15" fill="#67f867" rx="2" ry="2"/>
<text x="81.4" y="286.0">RequestHandler1_response.handleRequest</text>
</g>
<g>
<title>one/nio/http/HttpSession.sendResponse (22 samples, 15.94%)</title><rect x="78.4" y="259.0" width="188.1" height="15" fill="#64f564" rx="2" ry="2"/>
<text x="81.4" y="270.0">one/nio/http/HttpSession..</text>
</g>
<g>
<title>one/nio/http/HttpSession.writeResponse (22 samples, 15.94%)</title><rect x="78.4" y="243.0" width="188.1" height="15" fill="#5dee5d" rx="2" ry="2"/>
<text x="81.4" y="254.0">one/nio/http/HttpSession..</text>
</g>
<g>
<title>one/nio/http/Response.toBytes (12 samples, 8.70%)</title><rect x="78.4" y="227.0" width="102.6" height="15" fill="#53e453" rx="2" ry="2"/>
<text x="81.4" y="238.0">one/nio/http..</text>
</g>
<g>
<title>one/nio/util/ByteArrayBuilder.&lt;init&gt; (12 samples, 8.70%)</title><rect x="78.4" y="211.0" width="102.6" height="15" fill="#61f261" rx="2" ry="2"/>
<text x="81.4" y="222.0">one/nio/util..</text>
</g>
<g>
<title>byte[] (12 samples, 8.70%)</title><rect x="78.4" y="195.0" width="102.6" height="15" fill="#61cfcf" rx="2" ry="2"/>
<text x="81.4" y="206.0">byte[]</text>
</g>
<g>
<title>one/nio/net/Session.write (10 samples, 7.25%)</title><rect x="181.0" y="227.0" width="85.5" height="15" fill="#5ff05f" rx="2" ry="2"/>
<text x="184.0" y="238.0">one/nio/ne..</text>
</g>
<g>
<title>one.nio.net.Session$ArrayQueueItem (10 samples, 7.25%)</title><rect x="181.0" y="211.0" width="85.5" height="15" fill="#61cfcf" rx="2" ry="2"/>
<text x="184.0" y="222.0">one.nio.ne..</text>
</g>
<g>
<title>ru/mail/polis/service/mrsandman5/ServiceImpl.response (75 samples, 54.35%)</title><rect x="266.5" y="259.0" width="641.3" height="15" fill="#5aeb5a" rx="2" ry="2"/>
<text x="269.5" y="270.0">ru/mail/polis/service/mrsandman5/ServiceImpl.response</text>
</g>
<g>
<title>java/nio/ByteBuffer.wrap (1 samples, 0.72%)</title><rect x="266.5" y="243.0" width="8.6" height="15" fill="#59ea59" rx="2" ry="2"/>
<text x="269.5" y="254.0"></text>
</g>
<g>
<title>java/nio/ByteBuffer.wrap (1 samples, 0.72%)</title><rect x="266.5" y="227.0" width="8.6" height="15" fill="#6afb6a" rx="2" ry="2"/>
<text x="269.5" y="238.0"></text>
</g>
<g>
<title>java.nio.HeapByteBuffer (1 samples, 0.72%)</title><rect x="266.5" y="211.0" width="8.6" height="15" fill="#5ecccc" rx="2" ry="2"/>
<text x="269.5" y="222.0"></text>
</g>
<g>
<title>ru/mail/polis/service/mrsandman5/ServiceImpl.get (74 samples, 53.62%)</title><rect x="275.1" y="243.0" width="632.7" height="15" fill="#55e655" rx="2" ry="2"/>
<text x="278.1" y="254.0">ru/mail/polis/service/mrsandman5/ServiceImpl.get</text>
</g>
<g>
<title>one/nio/http/Response.ok (2 samples, 1.45%)</title><rect x="275.1" y="227.0" width="17.1" height="15" fill="#62f362" rx="2" ry="2"/>
<text x="278.1" y="238.0"></text>
</g>
<g>
<title>one.nio.http.Response (1 samples, 0.72%)</title><rect x="275.1" y="211.0" width="8.5" height="15" fill="#5fcdcd" rx="2" ry="2"/>
<text x="278.1" y="222.0"></text>
</g>
<g>
<title>one/nio/http/Response.&lt;init&gt; (1 samples, 0.72%)</title><rect x="283.6" y="211.0" width="8.6" height="15" fill="#62f362" rx="2" ry="2"/>
<text x="286.6" y="222.0"></text>
</g>
<g>
<title>byte[] (1 samples, 0.72%)</title><rect x="283.6" y="195.0" width="8.6" height="15" fill="#61cfcf" rx="2" ry="2"/>
<text x="286.6" y="206.0"></text>
</g>
<g>
<title>ru/mail/polis/dao/DAO.get (72 samples, 52.17%)</title><rect x="292.2" y="227.0" width="615.6" height="15" fill="#57e857" rx="2" ry="2"/>
<text x="295.2" y="238.0">ru/mail/polis/dao/DAO.get</text>
</g>
<g>
<title>com/google/common/collect/TransformedIterator.hasNext (11 samples, 7.97%)</title><rect x="292.2" y="211.0" width="94.0" height="15" fill="#68f968" rx="2" ry="2"/>
<text x="295.2" y="222.0">com/google/..</text>
</g>
<g>
<title>com/google/common/collect/AbstractIterator.hasNext (11 samples, 7.97%)</title><rect x="292.2" y="195.0" width="94.0" height="15" fill="#52e352" rx="2" ry="2"/>
<text x="295.2" y="206.0">com/google/..</text>
</g>
<g>
<title>com/google/common/collect/AbstractIterator.tryToComputeNext (11 samples, 7.97%)</title><rect x="292.2" y="179.0" width="94.0" height="15" fill="#52e352" rx="2" ry="2"/>
<text x="295.2" y="190.0">com/google/..</text>
</g>
<g>
<title>com/google/common/collect/Iterators$5.computeNext (11 samples, 7.97%)</title><rect x="292.2" y="163.0" width="94.0" height="15" fill="#6bfc6b" rx="2" ry="2"/>
<text x="295.2" y="174.0">com/google/..</text>
</g>
<g>
<title>ru/mail/polis/dao/Iters$CollapseEqualsIterator.next (11 samples, 7.97%)</title><rect x="292.2" y="147.0" width="94.0" height="15" fill="#55e655" rx="2" ry="2"/>
<text x="295.2" y="158.0">ru/mail/pol..</text>
</g>
<g>
<title>com/google/common/collect/Iterators$MergingIterator.next (1 samples, 0.72%)</title><rect x="292.2" y="131.0" width="8.5" height="15" fill="#5eef5e" rx="2" ry="2"/>
<text x="295.2" y="142.0"></text>
</g>
<g>
<title>com/google/common/collect/Iterators$PeekingImpl.next (1 samples, 0.72%)</title><rect x="292.2" y="115.0" width="8.5" height="15" fill="#56e756" rx="2" ry="2"/>
<text x="295.2" y="126.0"></text>
</g>
<g>
<title>com/google/common/collect/TransformedIterator.next (1 samples, 0.72%)</title><rect x="292.2" y="99.0" width="8.5" height="15" fill="#68f968" rx="2" ry="2"/>
<text x="295.2" y="110.0"></text>
</g>
<g>
<title>com/google/common/collect/Iterators$6.transform (1 samples, 0.72%)</title><rect x="292.2" y="83.0" width="8.5" height="15" fill="#58e958" rx="2" ry="2"/>
<text x="295.2" y="94.0"></text>
</g>
<g>
<title>ru/mail/polis/dao/impl/tables/MemTable$$Lambda$67/2138101256.apply (1 samples, 0.72%)</title><rect x="292.2" y="67.0" width="8.5" height="15" fill="#5aeb5a" rx="2" ry="2"/>
<text x="295.2" y="78.0"></text>
</g>
<g>
<title>ru/mail/polis/dao/impl/tables/MemTable.lambda$iterator$0 (1 samples, 0.72%)</title><rect x="292.2" y="51.0" width="8.5" height="15" fill="#6afb6a" rx="2" ry="2"/>
<text x="295.2" y="62.0"></text>
</g>
<g>
<title>ru.mail.polis.dao.impl.models.Cell (1 samples, 0.72%)</title><rect x="292.2" y="35.0" width="8.5" height="15" fill="#5ac8c8" rx="2" ry="2"/>
<text x="295.2" y="46.0"></text>
</g>
<g>
<title>ru/mail/polis/dao/impl/DAOImpl$$Lambda$69/1989688177.apply (10 samples, 7.25%)</title><rect x="300.7" y="131.0" width="85.5" height="15" fill="#68f968" rx="2" ry="2"/>
<text x="303.7" y="142.0">ru/mail/po..</text>
</g>
<g>
<title>ru/mail/polis/dao/impl/models/Cell.getKey (10 samples, 7.25%)</title><rect x="300.7" y="115.0" width="85.5" height="15" fill="#63f463" rx="2" ry="2"/>
<text x="303.7" y="126.0">ru/mail/po..</text>
</g>
<g>
<title>java/nio/HeapByteBuffer.asReadOnlyBuffer (10 samples, 7.25%)</title><rect x="300.7" y="99.0" width="85.5" height="15" fill="#51e251" rx="2" ry="2"/>
<text x="303.7" y="110.0">java/nio/H..</text>
</g>
<g>
<title>java.nio.HeapByteBufferR (10 samples, 7.25%)</title><rect x="300.7" y="83.0" width="85.5" height="15" fill="#57c5c5" rx="2" ry="2"/>
<text x="303.7" y="94.0">java.nio.H..</text>
</g>
<g>
<title>com/google/common/collect/TransformedIterator.next (18 samples, 13.04%)</title><rect x="386.2" y="211.0" width="153.9" height="15" fill="#67f867" rx="2" ry="2"/>
<text x="389.2" y="222.0">com/google/common/c..</text>
</g>
<g>
<title>com/google/common/collect/Iterators$6.transform (18 samples, 13.04%)</title><rect x="386.2" y="195.0" width="153.9" height="15" fill="#62f362" rx="2" ry="2"/>
<text x="389.2" y="206.0">com/google/common/c..</text>
</g>
<g>
<title>ru/mail/polis/dao/impl/DAOImpl$$Lambda$71/1245250986.apply (18 samples, 13.04%)</title><rect x="386.2" y="179.0" width="153.9" height="15" fill="#69fa69" rx="2" ry="2"/>
<text x="389.2" y="190.0">ru/mail/polis/dao/i..</text>
</g>
<g>
<title>ru/mail/polis/dao/impl/DAOImpl.lambda$iterator$2 (18 samples, 13.04%)</title><rect x="386.2" y="163.0" width="153.9" height="15" fill="#59ea59" rx="2" ry="2"/>
<text x="389.2" y="174.0">ru/mail/polis/dao/i..</text>
</g>
<g>
<title>ru/mail/polis/Record.of (8 samples, 5.80%)</title><rect x="386.2" y="147.0" width="68.4" height="15" fill="#56e756" rx="2" ry="2"/>
<text x="389.2" y="158.0">ru/mail..</text>
</g>
<g>
<title>ru.mail.polis.Record (8 samples, 5.80%)</title><rect x="386.2" y="131.0" width="68.4" height="15" fill="#55c3c3" rx="2" ry="2"/>
<text x="389.2" y="142.0">ru.mail..</text>
</g>
<g>
<title>ru/mail/polis/dao/impl/models/Cell.getKey (10 samples, 7.25%)</title><rect x="454.6" y="147.0" width="85.5" height="15" fill="#62f362" rx="2" ry="2"/>
<text x="457.6" y="158.0">ru/mail/po..</text>
</g>
<g>
<title>java/nio/HeapByteBuffer.asReadOnlyBuffer (10 samples, 7.25%)</title><rect x="454.6" y="131.0" width="85.5" height="15" fill="#53e453" rx="2" ry="2"/>
<text x="457.6" y="142.0">java/nio/H..</text>
</g>
<g>
<title>java.nio.HeapByteBufferR (10 samples, 7.25%)</title><rect x="454.6" y="115.0" width="85.5" height="15" fill="#64d2d2" rx="2" ry="2"/>
<text x="457.6" y="126.0">java.nio.H..</text>
</g>
<g>
<title>ru/mail/polis/Record.getValue (2 samples, 1.45%)</title><rect x="540.1" y="211.0" width="17.1" height="15" fill="#67f867" rx="2" ry="2"/>
<text x="543.1" y="222.0"></text>
</g>
<g>
<title>java/nio/HeapByteBuffer.asReadOnlyBuffer (2 samples, 1.45%)</title><rect x="540.1" y="195.0" width="17.1" height="15" fill="#65f665" rx="2" ry="2"/>
<text x="543.1" y="206.0"></text>
</g>
<g>
<title>java.nio.HeapByteBufferR (2 samples, 1.45%)</title><rect x="540.1" y="179.0" width="17.1" height="15" fill="#56c4c4" rx="2" ry="2"/>
<text x="543.1" y="190.0"></text>
</g>
<g>
<title>ru/mail/polis/dao/impl/DAOImpl.iterator (41 samples, 29.71%)</title><rect x="557.2" y="211.0" width="350.6" height="15" fill="#5ced5c" rx="2" ry="2"/>
<text x="560.2" y="222.0">ru/mail/polis/dao/impl/DAOImpl.iterator</text>
</g>
<g>
<title>com/google/common/collect/Iterators.transform (3 samples, 2.17%)</title><rect x="557.2" y="195.0" width="25.7" height="15" fill="#59ea59" rx="2" ry="2"/>
<text x="560.2" y="206.0">c..</text>
</g>
<g>
<title>com.google.common.collect.Iterators$6 (3 samples, 2.17%)</title><rect x="557.2" y="179.0" width="25.7" height="15" fill="#5dcbcb" rx="2" ry="2"/>
<text x="560.2" y="190.0">c..</text>
</g>
<g>
<title>ru/mail/polis/dao/impl/DAOImpl.cellIterator (38 samples, 27.54%)</title><rect x="582.9" y="195.0" width="324.9" height="15" fill="#56e756" rx="2" ry="2"/>
<text x="585.9" y="206.0">ru/mail/polis/dao/impl/DAOImpl.cellIterator</text>
</g>
<g>
<title>com/google/common/collect/Iterators.filter (1 samples, 0.72%)</title><rect x="582.9" y="179.0" width="8.5" height="15" fill="#5bec5b" rx="2" ry="2"/>
<text x="585.9" y="190.0"></text>
</g>
<g>
<title>com.google.common.collect.Iterators$5 (1 samples, 0.72%)</title><rect x="582.9" y="163.0" width="8.5" height="15" fill="#5fcdcd" rx="2" ry="2"/>
<text x="585.9" y="174.0"></text>
</g>
<g>
<title>com/google/common/collect/Iterators.mergeSorted (12 samples, 8.70%)</title><rect x="591.4" y="179.0" width="102.7" height="15" fill="#54e554" rx="2" ry="2"/>
<text x="594.4" y="190.0">com/google/c..</text>
</g>
<g>
<title>com.google.common.collect.Iterators$MergingIterator (1 samples, 0.72%)</title><rect x="591.4" y="163.0" width="8.6" height="15" fill="#60cece" rx="2" ry="2"/>
<text x="594.4" y="174.0"></text>
</g>
<g>
<title>com/google/common/collect/Iterators$MergingIterator.&lt;init&gt; (11 samples, 7.97%)</title><rect x="600.0" y="163.0" width="94.1" height="15" fill="#50e150" rx="2" ry="2"/>
<text x="603.0" y="174.0">com/google/..</text>
</g>
<g>
<title>com.google.common.collect.Iterators$MergingIterator$1 (9 samples, 6.52%)</title><rect x="600.0" y="147.0" width="77.0" height="15" fill="#5bc9c9" rx="2" ry="2"/>
<text x="603.0" y="158.0">com.goog..</text>
</g>
<g>
<title>java.util.PriorityQueue (1 samples, 0.72%)</title><rect x="677.0" y="147.0" width="8.5" height="15" fill="#5bc9c9" rx="2" ry="2"/>
<text x="680.0" y="158.0"></text>
</g>
<g>
<title>java/util/PriorityQueue.&lt;init&gt; (1 samples, 0.72%)</title><rect x="685.5" y="147.0" width="8.6" height="15" fill="#59ea59" rx="2" ry="2"/>
<text x="688.5" y="158.0"></text>
</g>
<g>
<title>java.lang.Object[] (1 samples, 0.72%)</title><rect x="685.5" y="131.0" width="8.6" height="15" fill="#66d4d4" rx="2" ry="2"/>
<text x="688.5" y="142.0"></text>
</g>
<g>
<title>java/lang/Iterable.forEach (10 samples, 7.25%)</title><rect x="694.1" y="179.0" width="85.5" height="15" fill="#57e857" rx="2" ry="2"/>
<text x="697.1" y="190.0">java/lang/..</text>
</g>
<g>
<title>java/util/AbstractMap$2.iterator (10 samples, 7.25%)</title><rect x="694.1" y="163.0" width="85.5" height="15" fill="#63f463" rx="2" ry="2"/>
<text x="697.1" y="174.0">java/util/..</text>
</g>
<g>
<title>java/util/AbstractMap$2$1.&lt;init&gt; (10 samples, 7.25%)</title><rect x="694.1" y="147.0" width="85.5" height="15" fill="#60f160" rx="2" ry="2"/>
<text x="697.1" y="158.0">java/util/..</text>
</g>
<g>
<title>java/util/TreeMap$DescendingSubMap$DescendingEntrySetView.iterator (10 samples, 7.25%)</title><rect x="694.1" y="131.0" width="85.5" height="15" fill="#6bfc6b" rx="2" ry="2"/>
<text x="697.1" y="142.0">java/util/..</text>
</g>
<g>
<title>java.util.TreeMap$NavigableSubMap$DescendingSubMapEntryIterator (10 samples, 7.25%)</title><rect x="694.1" y="115.0" width="85.5" height="15" fill="#64d2d2" rx="2" ry="2"/>
<text x="697.1" y="126.0">java.util...</text>
</g>
<g>
<title>java/util/ArrayList.&lt;init&gt; (1 samples, 0.72%)</title><rect x="779.6" y="179.0" width="8.5" height="15" fill="#68f968" rx="2" ry="2"/>
<text x="782.6" y="190.0"></text>
</g>
<g>
<title>java.lang.Object[] (1 samples, 0.72%)</title><rect x="779.6" y="163.0" width="8.5" height="15" fill="#64d2d2" rx="2" ry="2"/>
<text x="782.6" y="174.0"></text>
</g>
<g>
<title>ru/mail/polis/dao/impl/tables/MemTable.iterator (14 samples, 10.14%)</title><rect x="788.1" y="179.0" width="119.7" height="15" fill="#59ea59" rx="2" ry="2"/>
<text x="791.1" y="190.0">ru/mail/polis/d..</text>
</g>
<g>
<title>com/google/common/collect/Iterators.transform (1 samples, 0.72%)</title><rect x="788.1" y="163.0" width="8.6" height="15" fill="#63f463" rx="2" ry="2"/>
<text x="791.1" y="174.0"></text>
</g>
<g>
<title>com.google.common.collect.Iterators$6 (1 samples, 0.72%)</title><rect x="788.1" y="147.0" width="8.6" height="15" fill="#50bebe" rx="2" ry="2"/>
<text x="791.1" y="158.0"></text>
</g>
<g>
<title>java/util/TreeMap$AscendingSubMap$AscendingEntrySetView.iterator (2 samples, 1.45%)</title><rect x="796.7" y="163.0" width="17.1" height="15" fill="#5ff05f" rx="2" ry="2"/>
<text x="799.7" y="174.0"></text>
</g>
<g>
<title>java.util.TreeMap$NavigableSubMap$SubMapEntryIterator (2 samples, 1.45%)</title><rect x="796.7" y="147.0" width="17.1" height="15" fill="#69d7d7" rx="2" ry="2"/>
<text x="799.7" y="158.0"></text>
</g>
<g>
<title>java/util/TreeMap$AscendingSubMap.entrySet (9 samples, 6.52%)</title><rect x="813.8" y="163.0" width="76.9" height="15" fill="#62f362" rx="2" ry="2"/>
<text x="816.8" y="174.0">java/uti..</text>
</g>
<g>
<title>java.util.TreeMap$AscendingSubMap$AscendingEntrySetView (9 samples, 6.52%)</title><rect x="813.8" y="147.0" width="76.9" height="15" fill="#63d1d1" rx="2" ry="2"/>
<text x="816.8" y="158.0">java.uti..</text>
</g>
<g>
<title>java/util/TreeMap.tailMap (2 samples, 1.45%)</title><rect x="890.7" y="163.0" width="17.1" height="15" fill="#5ff05f" rx="2" ry="2"/>
<text x="893.7" y="174.0"></text>
</g>
<g>
<title>java/util/TreeMap.tailMap (2 samples, 1.45%)</title><rect x="890.7" y="147.0" width="17.1" height="15" fill="#5ced5c" rx="2" ry="2"/>
<text x="893.7" y="158.0"></text>
</g>
<g>
<title>java.util.TreeMap$AscendingSubMap (2 samples, 1.45%)</title><rect x="890.7" y="131.0" width="17.1" height="15" fill="#5ac8c8" rx="2" ry="2"/>
<text x="893.7" y="142.0"></text>
</g>
<g>
<title>one/nio/http/Request.getPath (10 samples, 7.25%)</title><rect x="907.8" y="275.0" width="85.5" height="15" fill="#65f665" rx="2" ry="2"/>
<text x="910.8" y="286.0">one/nio/ht..</text>
</g>
<g>
<title>java/lang/String.substring (10 samples, 7.25%)</title><rect x="907.8" y="259.0" width="85.5" height="15" fill="#68f968" rx="2" ry="2"/>
<text x="910.8" y="270.0">java/lang/..</text>
</g>
<g>
<title>java/lang/StringLatin1.newString (10 samples, 7.25%)</title><rect x="907.8" y="243.0" width="85.5" height="15" fill="#64f564" rx="2" ry="2"/>
<text x="910.8" y="254.0">java/lang/..</text>
</g>
<g>
<title>java.lang.String (2 samples, 1.45%)</title><rect x="907.8" y="227.0" width="17.1" height="15" fill="#54c2c2" rx="2" ry="2"/>
<text x="910.8" y="238.0"></text>
</g>
<g>
<title>java/util/Arrays.copyOfRange (8 samples, 5.80%)</title><rect x="924.9" y="227.0" width="68.4" height="15" fill="#50e150" rx="2" ry="2"/>
<text x="927.9" y="238.0">java/ut..</text>
</g>
<g>
<title>byte[] (8 samples, 5.80%)</title><rect x="924.9" y="211.0" width="68.4" height="15" fill="#51bfbf" rx="2" ry="2"/>
<text x="927.9" y="222.0">byte[]</text>
</g>
<g>
<title>one/nio/http/HttpSession.parseRequest (4 samples, 2.90%)</title><rect x="993.3" y="307.0" width="34.2" height="15" fill="#64f564" rx="2" ry="2"/>
<text x="996.3" y="318.0">on..</text>
</g>
<g>
<title>one.nio.http.Request (1 samples, 0.72%)</title><rect x="993.3" y="291.0" width="8.6" height="15" fill="#55c3c3" rx="2" ry="2"/>
<text x="996.3" y="302.0"></text>
</g>
<g>
<title>one/nio/http/Request.&lt;init&gt; (2 samples, 1.45%)</title><rect x="1001.9" y="291.0" width="17.1" height="15" fill="#62f362" rx="2" ry="2"/>
<text x="1004.9" y="302.0"></text>
</g>
<g>
<title>java.lang.String[] (2 samples, 1.45%)</title><rect x="1001.9" y="275.0" width="17.1" height="15" fill="#65d3d3" rx="2" ry="2"/>
<text x="1004.9" y="286.0"></text>
</g>
<g>
<title>one/nio/util/Utf8.read (1 samples, 0.72%)</title><rect x="1019.0" y="291.0" width="8.5" height="15" fill="#61f261" rx="2" ry="2"/>
<text x="1022.0" y="302.0"></text>
</g>
<g>
<title>one/nio/util/Utf8.read (1 samples, 0.72%)</title><rect x="1019.0" y="275.0" width="8.5" height="15" fill="#50e150" rx="2" ry="2"/>
<text x="1022.0" y="286.0"></text>
</g>
<g>
<title>char[] (1 samples, 0.72%)</title><rect x="1019.0" y="259.0" width="8.5" height="15" fill="#50bebe" rx="2" ry="2"/>
<text x="1022.0" y="270.0"></text>
</g>
<g>
<title>one/nio/util/Utf8.read (19 samples, 13.77%)</title><rect x="1027.5" y="307.0" width="162.5" height="15" fill="#59ea59" rx="2" ry="2"/>
<text x="1030.5" y="318.0">one/nio/util/Utf8.read</text>
</g>
<g>
<title>one/nio/util/Utf8.read (19 samples, 13.77%)</title><rect x="1027.5" y="291.0" width="162.5" height="15" fill="#57e857" rx="2" ry="2"/>
<text x="1030.5" y="302.0">one/nio/util/Utf8.read</text>
</g>
<g>
<title>char[] (9 samples, 6.52%)</title><rect x="1027.5" y="275.0" width="77.0" height="15" fill="#63d1d1" rx="2" ry="2"/>
<text x="1030.5" y="286.0">char[]</text>
</g>
<g>
<title>java.lang.String (1 samples, 0.72%)</title><rect x="1104.5" y="275.0" width="8.5" height="15" fill="#69d7d7" rx="2" ry="2"/>
<text x="1107.5" y="286.0"></text>
</g>
<g>
<title>java/lang/String.&lt;init&gt; (9 samples, 6.52%)</title><rect x="1113.0" y="275.0" width="77.0" height="15" fill="#55e655" rx="2" ry="2"/>
<text x="1116.0" y="286.0">java/lan..</text>
</g>
<g>
<title>java/lang/String.&lt;init&gt; (9 samples, 6.52%)</title><rect x="1113.0" y="259.0" width="77.0" height="15" fill="#5aeb5a" rx="2" ry="2"/>
<text x="1116.0" y="270.0">java/lan..</text>
</g>
<g>
<title>java/lang/StringUTF16.compress (9 samples, 6.52%)</title><rect x="1113.0" y="243.0" width="77.0" height="15" fill="#64f564" rx="2" ry="2"/>
<text x="1116.0" y="254.0">java/lan..</text>
</g>
<g>
<title>byte[] (9 samples, 6.52%)</title><rect x="1113.0" y="227.0" width="77.0" height="15" fill="#6ad8d8" rx="2" ry="2"/>
<text x="1116.0" y="238.0">byte[]</text>
</g>
</g>
</svg>
