<?xml version="1.0" standalone="no"?>
<!DOCTYPE svg PUBLIC "-//W3C//DTD SVG 1.1//EN" "http://www.w3.org/Graphics/SVG/1.1/DTD/svg11.dtd">
<svg version="1.1" width="1200" height="566" onload="init(evt)" viewBox="0 0 1200 566" xmlns="http://www.w3.org/2000/svg" xmlns:xlink="http://www.w3.org/1999/xlink">
<style type="text/css">
	text { font-family:Verdana; font-size:12px; fill:rgb(0,0,0); }
	#search { opacity:0.1; cursor:pointer; }
	#search:hover, #search.show { opacity:1; }
	#subtitle { text-anchor:middle; font-color:rgb(160,160,160); }
	#title { text-anchor:middle; font-size:17px}
	#unzoom { cursor:pointer; }
	#frames > *:hover { stroke:black; stroke-width:0.5; cursor:pointer; }
	.hide { display:none; }
	.parent { opacity:0.5; }
</style>
<script type="text/ecmascript">
<![CDATA[
	"use strict";
	var details, searchbtn, unzoombtn, matchedtxt, svg, searching;
	function init(evt) {
		details = document.getElementById("details").firstChild;
		searchbtn = document.getElementById("search");
		unzoombtn = document.getElementById("unzoom");
		matchedtxt = document.getElementById("matched");
		svg = document.getElementsByTagName("svg")[0];
		searching = 0;
	}

	window.addEventListener("click", function(e) {
		var target = find_group(e.target);
		if (target) {
			if (target.nodeName == "a") {
				if (e.ctrlKey === false) return;
				e.preventDefault();
			}
			if (target.classList.contains("parent")) unzoom();
			zoom(target);
		}
		else if (e.target.id == "unzoom") unzoom();
		else if (e.target.id == "search") search_prompt();
	}, false)

	// mouse-over for info
	// show
	window.addEventListener("mouseover", function(e) {
		var target = find_group(e.target);
		if (target) details.nodeValue = "Function: " + g_to_text(target);
	}, false)

	// clear
	window.addEventListener("mouseout", function(e) {
		var target = find_group(e.target);
		if (target) details.nodeValue = ' ';
	}, false)

	// ctrl-F for search
	window.addEventListener("keydown",function (e) {
		if (e.keyCode === 114 || (e.ctrlKey && e.keyCode === 70)) {
			e.preventDefault();
			search_prompt();
		}
	}, false)

	// functions
	function find_child(node, selector) {
		var children = node.querySelectorAll(selector);
		if (children.length) return children[0];
		return;
	}
	function find_group(node) {
		var parent = node.parentElement;
		if (!parent) return;
		if (parent.id == "frames") return node;
		return find_group(parent);
	}
	function orig_save(e, attr, val) {
		if (e.attributes["_orig_" + attr] != undefined) return;
		if (e.attributes[attr] == undefined) return;
		if (val == undefined) val = e.attributes[attr].value;
		e.setAttribute("_orig_" + attr, val);
	}
	function orig_load(e, attr) {
		if (e.attributes["_orig_"+attr] == undefined) return;
		e.attributes[attr].value = e.attributes["_orig_" + attr].value;
		e.removeAttribute("_orig_"+attr);
	}
	function g_to_text(e) {
		var text = find_child(e, "title").firstChild.nodeValue;
		return (text)
	}
	function g_to_func(e) {
		var func = g_to_text(e);
		// if there's any manipulation we want to do to the function
		// name before it's searched, do it here before returning.
		return (func);
	}
	function update_text(e) {
		var r = find_child(e, "rect");
		var t = find_child(e, "text");
		var w = parseFloat(r.attributes.width.value) -3;
		var txt = find_child(e, "title").textContent.replace(/\([^(]*\)$/,"");
		t.attributes.x.value = parseFloat(r.attributes.x.value) + 3;

		// Smaller than this size won't fit anything
		if (w < 2 * 12 * 0.59) {
			t.textContent = "";
			return;
		}

		t.textContent = txt;
		// Fit in full text width
		if (/^ *$/.test(txt) || t.getSubStringLength(0, txt.length) < w)
			return;

		for (var x = txt.length - 2; x > 0; x--) {
			if (t.getSubStringLength(0, x + 2) <= w) {
				t.textContent = txt.substring(0, x) + "..";
				return;
			}
		}
		t.textContent = "";
	}

	// zoom
	function zoom_reset(e) {
		if (e.attributes != undefined) {
			orig_load(e, "x");
			orig_load(e, "width");
		}
		if (e.childNodes == undefined) return;
		for (var i = 0, c = e.childNodes; i < c.length; i++) {
			zoom_reset(c[i]);
		}
	}
	function zoom_child(e, x, ratio) {
		if (e.attributes != undefined) {
			if (e.attributes.x != undefined) {
				orig_save(e, "x");
				e.attributes.x.value = (parseFloat(e.attributes.x.value) - x - 10) * ratio + 10;
				if (e.tagName == "text")
					e.attributes.x.value = find_child(e.parentNode, "rect[x]").attributes.x.value + 3;
			}
			if (e.attributes.width != undefined) {
				orig_save(e, "width");
				e.attributes.width.value = parseFloat(e.attributes.width.value) * ratio;
			}
		}

		if (e.childNodes == undefined) return;
		for (var i = 0, c = e.childNodes; i < c.length; i++) {
			zoom_child(c[i], x - 10, ratio);
		}
	}
	function zoom_parent(e) {
		if (e.attributes) {
			if (e.attributes.x != undefined) {
				orig_save(e, "x");
				e.attributes.x.value = 10;
			}
			if (e.attributes.width != undefined) {
				orig_save(e, "width");
				e.attributes.width.value = parseInt(svg.width.baseVal.value) - (10 * 2);
			}
		}
		if (e.childNodes == undefined) return;
		for (var i = 0, c = e.childNodes; i < c.length; i++) {
			zoom_parent(c[i]);
		}
	}
	function zoom(node) {
		var attr = find_child(node, "rect").attributes;
		var width = parseFloat(attr.width.value);
		var xmin = parseFloat(attr.x.value);
		var xmax = parseFloat(xmin + width);
		var ymin = parseFloat(attr.y.value);
		var ratio = (svg.width.baseVal.value - 2 * 10) / width;

		// XXX: Workaround for JavaScript float issues (fix me)
		var fudge = 0.0001;

		unzoombtn.classList.remove("hide");

		var el = document.getElementById("frames").children;
		for (var i = 0; i < el.length; i++) {
			var e = el[i];
			var a = find_child(e, "rect").attributes;
			var ex = parseFloat(a.x.value);
			var ew = parseFloat(a.width.value);
			var upstack;
			// Is it an ancestor
			if (0 == 0) {
				upstack = parseFloat(a.y.value) > ymin;
			} else {
				upstack = parseFloat(a.y.value) < ymin;
			}
			if (upstack) {
				// Direct ancestor
				if (ex <= xmin && (ex+ew+fudge) >= xmax) {
					e.classList.add("parent");
					zoom_parent(e);
					update_text(e);
				}
				// not in current path
				else
					e.classList.add("hide");
			}
			// Children maybe
			else {
				// no common path
				if (ex < xmin || ex + fudge >= xmax) {
					e.classList.add("hide");
				}
				else {
					zoom_child(e, xmin, ratio);
					update_text(e);
				}
			}
		}
	}
	function unzoom() {
		unzoombtn.classList.add("hide");
		var el = document.getElementById("frames").children;
		for(var i = 0; i < el.length; i++) {
			el[i].classList.remove("parent");
			el[i].classList.remove("hide");
			zoom_reset(el[i]);
			update_text(el[i]);
		}
	}

	// search
	function reset_search() {
		var el = document.querySelectorAll("#frames rect");
		for (var i = 0; i < el.length; i++) {
			orig_load(el[i], "fill")
		}
	}
	function search_prompt() {
		if (!searching) {
			var term = prompt("Enter a search term (regexp " +
			    "allowed, eg: ^ext4_)", "");
			if (term != null) {
				search(term)
			}
		} else {
			reset_search();
			searching = 0;
			searchbtn.classList.remove("show");
			searchbtn.firstChild.nodeValue = "Search"
			matchedtxt.classList.add("hide");
			matchedtxt.firstChild.nodeValue = ""
		}
	}
	function search(term) {
		var re = new RegExp(term);
		var el = document.getElementById("frames").children;
		var matches = new Object();
		var maxwidth = 0;
		for (var i = 0; i < el.length; i++) {
			var e = el[i];
			var func = g_to_func(e);
			var rect = find_child(e, "rect");
			if (func == null || rect == null)
				continue;

			// Save max width. Only works as we have a root frame
			var w = parseFloat(rect.attributes.width.value);
			if (w > maxwidth)
				maxwidth = w;

			if (func.match(re)) {
				// highlight
				var x = parseFloat(rect.attributes.x.value);
				orig_save(rect, "fill");
				rect.attributes.fill.value = "rgb(230,0,230)";

				// remember matches
				if (matches[x] == undefined) {
					matches[x] = w;
				} else {
					if (w > matches[x]) {
						// overwrite with parent
						matches[x] = w;
					}
				}
				searching = 1;
			}
		}
		if (!searching)
			return;

		searchbtn.classList.add("show");
		searchbtn.firstChild.nodeValue = "Reset Search";

		// calculate percent matched, excluding vertical overlap
		var count = 0;
		var lastx = -1;
		var lastw = 0;
		var keys = Array();
		for (k in matches) {
			if (matches.hasOwnProperty(k))
				keys.push(k);
		}
		// sort the matched frames by their x location
		// ascending, then width descending
		keys.sort(function(a, b){
			return a - b;
		});
		// Step through frames saving only the biggest bottom-up frames
		// thanks to the sort order. This relies on the tree property
		// where children are always smaller than their parents.
		var fudge = 0.0001;	// JavaScript floating point
		for (var k in keys) {
			var x = parseFloat(keys[k]);
			var w = matches[keys[k]];
			if (x >= lastx + lastw - fudge) {
				count += w;
				lastx = x;
				lastw = w;
			}
		}
		// display matched percent
		matchedtxt.classList.remove("hide");
		var pct = 100 * count / maxwidth;
		if (pct != 100) pct = pct.toFixed(1)
		matchedtxt.firstChild.nodeValue = "Matched: " + pct + "%";
	}
]]>
</script>
<rect x="0" y="0" width="100%" height="100%" fill="rgb(240,240,220)"/>
<text id="title" x="600" y="24">Flame Graph</text>
<text id="details" x="10" y="549"> </text>
<text id="unzoom" x="10" y="24" class="hide">Reset Zoom</text>
<text id="search" x="1090" y="24">Search</text>
<text id="matched" x="1090" y="549"> </text>
<g id="frames">
<g>
<title>all (203 samples, 100.00%)</title><rect x="10.0" y="515.0" width="1180.0" height="15" fill="#fc7e7e" rx="2" ry="2"/>
<text x="13.0" y="526.0">all</text>
</g>
<g>
<title>one/nio/server/SelectorThread.run (203 samples, 100.00%)</title><rect x="10.0" y="499.0" width="1180.0" height="15" fill="#64f564" rx="2" ry="2"/>
<text x="13.0" y="510.0">one/nio/server/SelectorThread.run</text>
</g>
<g>
<title>one/nio/net/Session.process (203 samples, 100.00%)</title><rect x="10.0" y="483.0" width="1180.0" height="15" fill="#5eef5e" rx="2" ry="2"/>
<text x="13.0" y="494.0">one/nio/net/Session.process</text>
</g>
<g>
<title>one/nio/http/HttpSession.processRead (203 samples, 100.00%)</title><rect x="10.0" y="467.0" width="1180.0" height="15" fill="#5aeb5a" rx="2" ry="2"/>
<text x="13.0" y="478.0">one/nio/http/HttpSession.processRead</text>
</g>
<g>
<title>one/nio/http/HttpSession.processHttpBuffer (203 samples, 100.00%)</title><rect x="10.0" y="451.0" width="1180.0" height="15" fill="#60f160" rx="2" ry="2"/>
<text x="13.0" y="462.0">one/nio/http/HttpSession.processHttpBuffer</text>
</g>
<g>
<title>one/nio/http/HttpSession.handleParsedRequest (175 samples, 86.21%)</title><rect x="10.0" y="435.0" width="1017.2" height="15" fill="#68f968" rx="2" ry="2"/>
<text x="13.0" y="446.0">one/nio/http/HttpSession.handleParsedRequest</text>
</g>
<g>
<title>one/nio/http/HttpServer.handleRequest (175 samples, 86.21%)</title><rect x="10.0" y="419.0" width="1017.2" height="15" fill="#5bec5b" rx="2" ry="2"/>
<text x="13.0" y="430.0">one/nio/http/HttpServer.handleRequest</text>
</g>
<g>
<title>RequestHandler1_response.handleRequest (171 samples, 84.24%)</title><rect x="10.0" y="403.0" width="994.0" height="15" fill="#65f665" rx="2" ry="2"/>
<text x="13.0" y="414.0">RequestHandler1_response.handleRequest</text>
</g>
<g>
<title>one/nio/http/HttpSession.sendResponse (10 samples, 4.93%)</title><rect x="10.0" y="387.0" width="58.1" height="15" fill="#60f160" rx="2" ry="2"/>
<text x="13.0" y="398.0">one/ni..</text>
</g>
<g>
<title>one/nio/http/HttpSession.writeResponse (10 samples, 4.93%)</title><rect x="10.0" y="371.0" width="58.1" height="15" fill="#66f766" rx="2" ry="2"/>
<text x="13.0" y="382.0">one/ni..</text>
</g>
<g>
<title>one/nio/http/Response.toBytes (6 samples, 2.96%)</title><rect x="10.0" y="355.0" width="34.9" height="15" fill="#5dee5d" rx="2" ry="2"/>
<text x="13.0" y="366.0">on..</text>
</g>
<g>
<title>one/nio/util/ByteArrayBuilder.&lt;init&gt; (6 samples, 2.96%)</title><rect x="10.0" y="339.0" width="34.9" height="15" fill="#5bec5b" rx="2" ry="2"/>
<text x="13.0" y="350.0">on..</text>
</g>
<g>
<title>byte[] (6 samples, 2.96%)</title><rect x="10.0" y="323.0" width="34.9" height="15" fill="#60cece" rx="2" ry="2"/>
<text x="13.0" y="334.0">by..</text>
</g>
<g>
<title>one/nio/net/Session.write (4 samples, 1.97%)</title><rect x="44.9" y="355.0" width="23.2" height="15" fill="#69fa69" rx="2" ry="2"/>
<text x="47.9" y="366.0">o..</text>
</g>
<g>
<title>one.nio.net.Session$ArrayQueueItem (4 samples, 1.97%)</title><rect x="44.9" y="339.0" width="23.2" height="15" fill="#52c0c0" rx="2" ry="2"/>
<text x="47.9" y="350.0">o..</text>
</g>
<g>
<title>one/nio/http/Request.getRequiredParameter (2 samples, 0.99%)</title><rect x="68.1" y="387.0" width="11.7" height="15" fill="#65f665" rx="2" ry="2"/>
<text x="71.1" y="398.0"></text>
</g>
<g>
<title>one/nio/http/Request.getParameter (2 samples, 0.99%)</title><rect x="68.1" y="371.0" width="11.7" height="15" fill="#56e756" rx="2" ry="2"/>
<text x="71.1" y="382.0"></text>
</g>
<g>
<title>java/lang/String.substring (2 samples, 0.99%)</title><rect x="68.1" y="355.0" width="11.7" height="15" fill="#50e150" rx="2" ry="2"/>
<text x="71.1" y="366.0"></text>
</g>
<g>
<title>java/lang/StringLatin1.newString (2 samples, 0.99%)</title><rect x="68.1" y="339.0" width="11.7" height="15" fill="#51e251" rx="2" ry="2"/>
<text x="71.1" y="350.0"></text>
</g>
<g>
<title>java.lang.String (1 samples, 0.49%)</title><rect x="68.1" y="323.0" width="5.8" height="15" fill="#65d3d3" rx="2" ry="2"/>
<text x="71.1" y="334.0"></text>
</g>
<g>
<title>java/util/Arrays.copyOfRange (1 samples, 0.49%)</title><rect x="73.9" y="323.0" width="5.9" height="15" fill="#51e251" rx="2" ry="2"/>
<text x="76.9" y="334.0"></text>
</g>
<g>
<title>byte[] (1 samples, 0.49%)</title><rect x="73.9" y="307.0" width="5.9" height="15" fill="#6ddbdb" rx="2" ry="2"/>
<text x="76.9" y="318.0"></text>
</g>
<g>
<title>ru/mail/polis/service/mrsandman5/ServiceImpl.response (159 samples, 78.33%)</title><rect x="79.8" y="387.0" width="924.2" height="15" fill="#58e958" rx="2" ry="2"/>
<text x="82.8" y="398.0">ru/mail/polis/service/mrsandman5/ServiceImpl.response</text>
</g>
<g>
<title>ch/qos/logback/classic/Logger.debug (145 samples, 71.43%)</title><rect x="79.8" y="371.0" width="842.8" height="15" fill="#55e655" rx="2" ry="2"/>
<text x="82.8" y="382.0">ch/qos/logback/classic/Logger.debug</text>
</g>
<g>
<title>ch/qos/logback/classic/Logger.filterAndLog_1 (145 samples, 71.43%)</title><rect x="79.8" y="355.0" width="842.8" height="15" fill="#51e251" rx="2" ry="2"/>
<text x="82.8" y="366.0">ch/qos/logback/classic/Logger.filterAndLog_1</text>
</g>
<g>
<title>ch/qos/logback/classic/Logger.buildLoggingEventAndAppend (140 samples, 68.97%)</title><rect x="79.8" y="339.0" width="813.7" height="15" fill="#63f463" rx="2" ry="2"/>
<text x="82.8" y="350.0">ch/qos/logback/classic/Logger.buildLoggingEventAndAppend</text>
</g>
<g>
<title>ch.qos.logback.classic.spi.LoggingEvent (7 samples, 3.45%)</title><rect x="79.8" y="323.0" width="40.6" height="15" fill="#58c6c6" rx="2" ry="2"/>
<text x="82.8" y="334.0">ch...</text>
</g>
<g>
<title>ch/qos/logback/classic/Logger.callAppenders (133 samples, 65.52%)</title><rect x="120.4" y="323.0" width="773.1" height="15" fill="#5aeb5a" rx="2" ry="2"/>
<text x="123.4" y="334.0">ch/qos/logback/classic/Logger.callAppenders</text>
</g>
<g>
<title>ch/qos/logback/classic/Logger.appendLoopOnAppenders (133 samples, 65.52%)</title><rect x="120.4" y="307.0" width="773.1" height="15" fill="#66f766" rx="2" ry="2"/>
<text x="123.4" y="318.0">ch/qos/logback/classic/Logger.appendLoopOnAppenders</text>
</g>
<g>
<title>ch/qos/logback/core/spi/AppenderAttachableImpl.appendLoopOnAppenders (133 samples, 65.52%)</title><rect x="120.4" y="291.0" width="773.1" height="15" fill="#60f160" rx="2" ry="2"/>
<text x="123.4" y="302.0">ch/qos/logback/core/spi/AppenderAttachableImpl.appendLoopOnAppenders</text>
</g>
<g>
<title>ch/qos/logback/core/UnsynchronizedAppenderBase.doAppend (133 samples, 65.52%)</title><rect x="120.4" y="275.0" width="773.1" height="15" fill="#57e857" rx="2" ry="2"/>
<text x="123.4" y="286.0">ch/qos/logback/core/UnsynchronizedAppenderBase.doAppend</text>
</g>
<g>
<title>ch/qos/logback/core/OutputStreamAppender.append (133 samples, 65.52%)</title><rect x="120.4" y="259.0" width="773.1" height="15" fill="#63f463" rx="2" ry="2"/>
<text x="123.4" y="270.0">ch/qos/logback/core/OutputStreamAppender.append</text>
</g>
<g>
<title>ch/qos/logback/core/OutputStreamAppender.subAppend (133 samples, 65.52%)</title><rect x="120.4" y="243.0" width="773.1" height="15" fill="#56e756" rx="2" ry="2"/>
<text x="123.4" y="254.0">ch/qos/logback/core/OutputStreamAppender.subAppend</text>
</g>
<g>
<title>ch/qos/logback/classic/spi/LoggingEvent.prepareForDeferredProcessing (19 samples, 9.36%)</title><rect x="120.4" y="227.0" width="110.5" height="15" fill="#66f766" rx="2" ry="2"/>
<text x="123.4" y="238.0">ch/qos/logbac..</text>
</g>
<g>
<title>ch/qos/logback/classic/spi/LoggingEvent.getFormattedMessage (19 samples, 9.36%)</title><rect x="120.4" y="211.0" width="110.5" height="15" fill="#50e150" rx="2" ry="2"/>
<text x="123.4" y="222.0">ch/qos/logbac..</text>
</g>
<g>
<title>org/slf4j/helpers/MessageFormatter.arrayFormat (19 samples, 9.36%)</title><rect x="120.4" y="195.0" width="110.5" height="15" fill="#66f766" rx="2" ry="2"/>
<text x="123.4" y="206.0">org/slf4j/hel..</text>
</g>
<g>
<title>org/slf4j/helpers/MessageFormatter.arrayFormat (19 samples, 9.36%)</title><rect x="120.4" y="179.0" width="110.5" height="15" fill="#60f160" rx="2" ry="2"/>
<text x="123.4" y="190.0">org/slf4j/hel..</text>
</g>
<g>
<title>java.lang.StringBuilder (2 samples, 0.99%)</title><rect x="120.4" y="163.0" width="11.7" height="15" fill="#5bc9c9" rx="2" ry="2"/>
<text x="123.4" y="174.0"></text>
</g>
<g>
<title>java/lang/StringBuilder.&lt;init&gt; (10 samples, 4.93%)</title><rect x="132.1" y="163.0" width="58.1" height="15" fill="#5eef5e" rx="2" ry="2"/>
<text x="135.1" y="174.0">java/l..</text>
</g>
<g>
<title>java/lang/AbstractStringBuilder.&lt;init&gt; (10 samples, 4.93%)</title><rect x="132.1" y="147.0" width="58.1" height="15" fill="#52e352" rx="2" ry="2"/>
<text x="135.1" y="158.0">java/l..</text>
</g>
<g>
<title>byte[] (10 samples, 4.93%)</title><rect x="132.1" y="131.0" width="58.1" height="15" fill="#54c2c2" rx="2" ry="2"/>
<text x="135.1" y="142.0">byte[]</text>
</g>
<g>
<title>java/lang/StringBuilder.toString (7 samples, 3.45%)</title><rect x="190.2" y="163.0" width="40.7" height="15" fill="#6bfc6b" rx="2" ry="2"/>
<text x="193.2" y="174.0">jav..</text>
</g>
<g>
<title>java/lang/StringLatin1.newString (7 samples, 3.45%)</title><rect x="190.2" y="147.0" width="40.7" height="15" fill="#5dee5d" rx="2" ry="2"/>
<text x="193.2" y="158.0">jav..</text>
</g>
<g>
<title>java.lang.String (4 samples, 1.97%)</title><rect x="190.2" y="131.0" width="23.2" height="15" fill="#64d2d2" rx="2" ry="2"/>
<text x="193.2" y="142.0">j..</text>
</g>
<g>
<title>java/util/Arrays.copyOfRange (3 samples, 1.48%)</title><rect x="213.4" y="131.0" width="17.5" height="15" fill="#67f867" rx="2" ry="2"/>
<text x="216.4" y="142.0"></text>
</g>
<g>
<title>byte[] (3 samples, 1.48%)</title><rect x="213.4" y="115.0" width="17.5" height="15" fill="#5fcdcd" rx="2" ry="2"/>
<text x="216.4" y="126.0"></text>
</g>
<g>
<title>ch/qos/logback/core/encoder/LayoutWrappingEncoder.encode (114 samples, 56.16%)</title><rect x="230.9" y="227.0" width="662.6" height="15" fill="#5bec5b" rx="2" ry="2"/>
<text x="233.9" y="238.0">ch/qos/logback/core/encoder/LayoutWrappingEncoder.encode</text>
</g>
<g>
<title>ch/qos/logback/classic/PatternLayout.doLayout (101 samples, 49.75%)</title><rect x="230.9" y="211.0" width="587.1" height="15" fill="#6dfe6d" rx="2" ry="2"/>
<text x="233.9" y="222.0">ch/qos/logback/classic/PatternLayout.doLayout</text>
</g>
<g>
<title>ch/qos/logback/classic/PatternLayout.doLayout (101 samples, 49.75%)</title><rect x="230.9" y="195.0" width="587.1" height="15" fill="#5ff05f" rx="2" ry="2"/>
<text x="233.9" y="206.0">ch/qos/logback/classic/PatternLayout.doLayout</text>
</g>
<g>
<title>ch/qos/logback/core/pattern/PatternLayoutBase.writeLoopOnConverters (101 samples, 49.75%)</title><rect x="230.9" y="179.0" width="587.1" height="15" fill="#5dee5d" rx="2" ry="2"/>
<text x="233.9" y="190.0">ch/qos/logback/core/pattern/PatternLayoutBase.writeLoopOnConverters</text>
</g>
<g>
<title>ch/qos/logback/core/pattern/FormattingConverter.write (65 samples, 32.02%)</title><rect x="230.9" y="163.0" width="377.8" height="15" fill="#65f665" rx="2" ry="2"/>
<text x="233.9" y="174.0">ch/qos/logback/core/pattern/FormattingConverter.write</text>
</g>
<g>
<title>ch/qos/logback/classic/pattern/DateConverter.convert (4 samples, 1.97%)</title><rect x="230.9" y="147.0" width="23.2" height="15" fill="#61f261" rx="2" ry="2"/>
<text x="233.9" y="158.0">c..</text>
</g>
<g>
<title>ch/qos/logback/classic/pattern/DateConverter.convert (4 samples, 1.97%)</title><rect x="230.9" y="131.0" width="23.2" height="15" fill="#5ced5c" rx="2" ry="2"/>
<text x="233.9" y="142.0">c..</text>
</g>
<g>
<title>ch/qos/logback/core/util/CachingDateFormatter.format (4 samples, 1.97%)</title><rect x="230.9" y="115.0" width="23.2" height="15" fill="#50e150" rx="2" ry="2"/>
<text x="233.9" y="126.0">c..</text>
</g>
<g>
<title>java.util.Date (1 samples, 0.49%)</title><rect x="230.9" y="99.0" width="5.8" height="15" fill="#66d4d4" rx="2" ry="2"/>
<text x="233.9" y="110.0"></text>
</g>
<g>
<title>java/text/DateFormat.format (3 samples, 1.48%)</title><rect x="236.7" y="99.0" width="17.4" height="15" fill="#5dee5d" rx="2" ry="2"/>
<text x="239.7" y="110.0"></text>
</g>
<g>
<title>java/lang/StringBuffer.&lt;init&gt; (2 samples, 0.99%)</title><rect x="236.7" y="83.0" width="11.6" height="15" fill="#63f463" rx="2" ry="2"/>
<text x="239.7" y="94.0"></text>
</g>
<g>
<title>java/lang/AbstractStringBuilder.&lt;init&gt; (2 samples, 0.99%)</title><rect x="236.7" y="67.0" width="11.6" height="15" fill="#50e150" rx="2" ry="2"/>
<text x="239.7" y="78.0"></text>
</g>
<g>
<title>byte[] (2 samples, 0.99%)</title><rect x="236.7" y="51.0" width="11.6" height="15" fill="#68d6d6" rx="2" ry="2"/>
<text x="239.7" y="62.0"></text>
</g>
<g>
<title>java/lang/StringBuffer.toString (1 samples, 0.49%)</title><rect x="248.3" y="83.0" width="5.8" height="15" fill="#5bec5b" rx="2" ry="2"/>
<text x="251.3" y="94.0"></text>
</g>
<g>
<title>java/lang/StringLatin1.newString (1 samples, 0.49%)</title><rect x="248.3" y="67.0" width="5.8" height="15" fill="#61f261" rx="2" ry="2"/>
<text x="251.3" y="78.0"></text>
</g>
<g>
<title>java/util/Arrays.copyOfRange (1 samples, 0.49%)</title><rect x="248.3" y="51.0" width="5.8" height="15" fill="#51e251" rx="2" ry="2"/>
<text x="251.3" y="62.0"></text>
</g>
<g>
<title>byte[] (1 samples, 0.49%)</title><rect x="248.3" y="35.0" width="5.8" height="15" fill="#51bfbf" rx="2" ry="2"/>
<text x="251.3" y="46.0"></text>
</g>
<g>
<title>ch/qos/logback/classic/pattern/NamedConverter.convert (61 samples, 30.05%)</title><rect x="254.1" y="147.0" width="354.6" height="15" fill="#67f867" rx="2" ry="2"/>
<text x="257.1" y="158.0">ch/qos/logback/classic/pattern/NamedConverter.co..</text>
</g>
<g>
<title>ch/qos/logback/classic/pattern/NamedConverter.convert (61 samples, 30.05%)</title><rect x="254.1" y="131.0" width="354.6" height="15" fill="#67f867" rx="2" ry="2"/>
<text x="257.1" y="142.0">ch/qos/logback/classic/pattern/NamedConverter.co..</text>
</g>
<g>
<title>ch/qos/logback/classic/pattern/TargetLengthBasedClassNameAbbreviator.abbreviate (61 samples, 30.05%)</title><rect x="254.1" y="115.0" width="354.6" height="15" fill="#51e251" rx="2" ry="2"/>
<text x="257.1" y="126.0">ch/qos/logback/classic/pattern/TargetLengthBased..</text>
</g>
<g>
<title>int[] (9 samples, 4.43%)</title><rect x="254.1" y="99.0" width="52.4" height="15" fill="#60cece" rx="2" ry="2"/>
<text x="257.1" y="110.0">int[]</text>
</g>
<g>
<title>java.lang.StringBuilder (3 samples, 1.48%)</title><rect x="306.5" y="99.0" width="17.4" height="15" fill="#59c7c7" rx="2" ry="2"/>
<text x="309.5" y="110.0"></text>
</g>
<g>
<title>java/lang/String.substring (33 samples, 16.26%)</title><rect x="323.9" y="99.0" width="191.8" height="15" fill="#5ced5c" rx="2" ry="2"/>
<text x="326.9" y="110.0">java/lang/String.substring</text>
</g>
<g>
<title>java/lang/StringLatin1.newString (33 samples, 16.26%)</title><rect x="323.9" y="83.0" width="191.8" height="15" fill="#50e150" rx="2" ry="2"/>
<text x="326.9" y="94.0">java/lang/StringLatin1.ne..</text>
</g>
<g>
<title>java.lang.String (16 samples, 7.88%)</title><rect x="323.9" y="67.0" width="93.0" height="15" fill="#5ccaca" rx="2" ry="2"/>
<text x="326.9" y="78.0">java.lang.S..</text>
</g>
<g>
<title>java/util/Arrays.copyOfRange (17 samples, 8.37%)</title><rect x="416.9" y="67.0" width="98.8" height="15" fill="#60f160" rx="2" ry="2"/>
<text x="419.9" y="78.0">java/util/Ar..</text>
</g>
<g>
<title>byte[] (17 samples, 8.37%)</title><rect x="416.9" y="51.0" width="98.8" height="15" fill="#6cdada" rx="2" ry="2"/>
<text x="419.9" y="62.0">byte[]</text>
</g>
<g>
<title>java/lang/StringBuilder.&lt;init&gt; (9 samples, 4.43%)</title><rect x="515.7" y="99.0" width="52.3" height="15" fill="#6afb6a" rx="2" ry="2"/>
<text x="518.7" y="110.0">java/..</text>
</g>
<g>
<title>java/lang/AbstractStringBuilder.&lt;init&gt; (9 samples, 4.43%)</title><rect x="515.7" y="83.0" width="52.3" height="15" fill="#57e857" rx="2" ry="2"/>
<text x="518.7" y="94.0">java/..</text>
</g>
<g>
<title>byte[] (9 samples, 4.43%)</title><rect x="515.7" y="67.0" width="52.3" height="15" fill="#65d3d3" rx="2" ry="2"/>
<text x="518.7" y="78.0">byte[]</text>
</g>
<g>
<title>java/lang/StringBuilder.toString (7 samples, 3.45%)</title><rect x="568.0" y="99.0" width="40.7" height="15" fill="#5bec5b" rx="2" ry="2"/>
<text x="571.0" y="110.0">jav..</text>
</g>
<g>
<title>java/lang/StringLatin1.newString (7 samples, 3.45%)</title><rect x="568.0" y="83.0" width="40.7" height="15" fill="#63f463" rx="2" ry="2"/>
<text x="571.0" y="94.0">jav..</text>
</g>
<g>
<title>java.lang.String (2 samples, 0.99%)</title><rect x="568.0" y="67.0" width="11.7" height="15" fill="#65d3d3" rx="2" ry="2"/>
<text x="571.0" y="78.0"></text>
</g>
<g>
<title>java/util/Arrays.copyOfRange (5 samples, 2.46%)</title><rect x="579.7" y="67.0" width="29.0" height="15" fill="#6bfc6b" rx="2" ry="2"/>
<text x="582.7" y="78.0">ja..</text>
</g>
<g>
<title>byte[] (5 samples, 2.46%)</title><rect x="579.7" y="51.0" width="29.0" height="15" fill="#52c0c0" rx="2" ry="2"/>
<text x="582.7" y="62.0">by..</text>
</g>
<g>
<title>java.lang.StringBuilder (5 samples, 2.46%)</title><rect x="608.7" y="163.0" width="29.1" height="15" fill="#5ccaca" rx="2" ry="2"/>
<text x="611.7" y="174.0">ja..</text>
</g>
<g>
<title>java/lang/StringBuilder.&lt;init&gt; (19 samples, 9.36%)</title><rect x="637.8" y="163.0" width="110.4" height="15" fill="#5ff05f" rx="2" ry="2"/>
<text x="640.8" y="174.0">java/lang/Str..</text>
</g>
<g>
<title>java/lang/AbstractStringBuilder.&lt;init&gt; (19 samples, 9.36%)</title><rect x="637.8" y="147.0" width="110.4" height="15" fill="#5eef5e" rx="2" ry="2"/>
<text x="640.8" y="158.0">java/lang/Abs..</text>
</g>
<g>
<title>byte[] (19 samples, 9.36%)</title><rect x="637.8" y="131.0" width="110.4" height="15" fill="#5dcbcb" rx="2" ry="2"/>
<text x="640.8" y="142.0">byte[]</text>
</g>
<g>
<title>java/lang/StringBuilder.toString (12 samples, 5.91%)</title><rect x="748.2" y="163.0" width="69.8" height="15" fill="#57e857" rx="2" ry="2"/>
<text x="751.2" y="174.0">java/la..</text>
</g>
<g>
<title>java/lang/StringLatin1.newString (12 samples, 5.91%)</title><rect x="748.2" y="147.0" width="69.8" height="15" fill="#6cfd6c" rx="2" ry="2"/>
<text x="751.2" y="158.0">java/la..</text>
</g>
<g>
<title>java.lang.String (3 samples, 1.48%)</title><rect x="748.2" y="131.0" width="17.5" height="15" fill="#52c0c0" rx="2" ry="2"/>
<text x="751.2" y="142.0"></text>
</g>
<g>
<title>java/util/Arrays.copyOfRange (9 samples, 4.43%)</title><rect x="765.7" y="131.0" width="52.3" height="15" fill="#58e958" rx="2" ry="2"/>
<text x="768.7" y="142.0">java/..</text>
</g>
<g>
<title>byte[] (9 samples, 4.43%)</title><rect x="765.7" y="115.0" width="52.3" height="15" fill="#66d4d4" rx="2" ry="2"/>
<text x="768.7" y="126.0">byte[]</text>
</g>
<g>
<title>ch/qos/logback/core/encoder/LayoutWrappingEncoder.convertToBytes (13 samples, 6.40%)</title><rect x="818.0" y="211.0" width="75.5" height="15" fill="#5eef5e" rx="2" ry="2"/>
<text x="821.0" y="222.0">ch/qos/l..</text>
</g>
<g>
<title>java/lang/String.getBytes (13 samples, 6.40%)</title><rect x="818.0" y="195.0" width="75.5" height="15" fill="#69fa69" rx="2" ry="2"/>
<text x="821.0" y="206.0">java/lan..</text>
</g>
<g>
<title>java/lang/StringCoding.encode (13 samples, 6.40%)</title><rect x="818.0" y="179.0" width="75.5" height="15" fill="#68f968" rx="2" ry="2"/>
<text x="821.0" y="190.0">java/lan..</text>
</g>
<g>
<title>java/lang/StringCoding.encodeUTF8 (13 samples, 6.40%)</title><rect x="818.0" y="163.0" width="75.5" height="15" fill="#5ff05f" rx="2" ry="2"/>
<text x="821.0" y="174.0">java/lan..</text>
</g>
<g>
<title>java/util/Arrays.copyOf (13 samples, 6.40%)</title><rect x="818.0" y="147.0" width="75.5" height="15" fill="#63f463" rx="2" ry="2"/>
<text x="821.0" y="158.0">java/uti..</text>
</g>
<g>
<title>byte[] (13 samples, 6.40%)</title><rect x="818.0" y="131.0" width="75.5" height="15" fill="#61cfcf" rx="2" ry="2"/>
<text x="821.0" y="142.0">byte[]</text>
</g>
<g>
<title>java.lang.Object[] (5 samples, 2.46%)</title><rect x="893.5" y="339.0" width="29.1" height="15" fill="#60cece" rx="2" ry="2"/>
<text x="896.5" y="350.0">ja..</text>
</g>
<g>
<title>java/lang/String.getBytes (3 samples, 1.48%)</title><rect x="922.6" y="371.0" width="17.4" height="15" fill="#55e655" rx="2" ry="2"/>
<text x="925.6" y="382.0"></text>
</g>
<g>
<title>java/lang/StringCoding.encode (3 samples, 1.48%)</title><rect x="922.6" y="355.0" width="17.4" height="15" fill="#6bfc6b" rx="2" ry="2"/>
<text x="925.6" y="366.0"></text>
</g>
<g>
<title>java/lang/StringCoding.encodeUTF8 (3 samples, 1.48%)</title><rect x="922.6" y="339.0" width="17.4" height="15" fill="#6dfe6d" rx="2" ry="2"/>
<text x="925.6" y="350.0"></text>
</g>
<g>
<title>java/util/Arrays.copyOf (3 samples, 1.48%)</title><rect x="922.6" y="323.0" width="17.4" height="15" fill="#55e655" rx="2" ry="2"/>
<text x="925.6" y="334.0"></text>
</g>
<g>
<title>byte[] (3 samples, 1.48%)</title><rect x="922.6" y="307.0" width="17.4" height="15" fill="#5ac8c8" rx="2" ry="2"/>
<text x="925.6" y="318.0"></text>
</g>
<g>
<title>java/nio/ByteBuffer.wrap (3 samples, 1.48%)</title><rect x="940.0" y="371.0" width="17.5" height="15" fill="#60f160" rx="2" ry="2"/>
<text x="943.0" y="382.0"></text>
</g>
<g>
<title>java/nio/ByteBuffer.wrap (3 samples, 1.48%)</title><rect x="940.0" y="355.0" width="17.5" height="15" fill="#54e554" rx="2" ry="2"/>
<text x="943.0" y="366.0"></text>
</g>
<g>
<title>java.nio.HeapByteBuffer (3 samples, 1.48%)</title><rect x="940.0" y="339.0" width="17.5" height="15" fill="#56c4c4" rx="2" ry="2"/>
<text x="943.0" y="350.0"></text>
</g>
<g>
<title>ru/mail/polis/service/mrsandman5/ServiceImpl.delete (8 samples, 3.94%)</title><rect x="957.5" y="371.0" width="46.5" height="15" fill="#67f867" rx="2" ry="2"/>
<text x="960.5" y="382.0">ru/m..</text>
</g>
<g>
<title>one.nio.http.Response (2 samples, 0.99%)</title><rect x="957.5" y="355.0" width="11.6" height="15" fill="#69d7d7" rx="2" ry="2"/>
<text x="960.5" y="366.0"></text>
</g>
<g>
<title>one/nio/http/Response.&lt;init&gt; (5 samples, 2.46%)</title><rect x="969.1" y="355.0" width="29.1" height="15" fill="#62f362" rx="2" ry="2"/>
<text x="972.1" y="366.0">on..</text>
</g>
<g>
<title>byte[] (1 samples, 0.49%)</title><rect x="969.1" y="339.0" width="5.8" height="15" fill="#5dcbcb" rx="2" ry="2"/>
<text x="972.1" y="350.0"></text>
</g>
<g>
<title>java.lang.String[] (4 samples, 1.97%)</title><rect x="974.9" y="339.0" width="23.3" height="15" fill="#61cfcf" rx="2" ry="2"/>
<text x="977.9" y="350.0">j..</text>
</g>
<g>
<title>ru/mail/polis/dao/impl/DAOImpl.remove (1 samples, 0.49%)</title><rect x="998.2" y="355.0" width="5.8" height="15" fill="#60f160" rx="2" ry="2"/>
<text x="1001.2" y="366.0"></text>
</g>
<g>
<title>ru/mail/polis/dao/impl/tables/MemTable.remove (1 samples, 0.49%)</title><rect x="998.2" y="339.0" width="5.8" height="15" fill="#5ff05f" rx="2" ry="2"/>
<text x="1001.2" y="350.0"></text>
</g>
<g>
<title>ru.mail.polis.dao.impl.models.Value (1 samples, 0.49%)</title><rect x="998.2" y="323.0" width="5.8" height="15" fill="#6ddbdb" rx="2" ry="2"/>
<text x="1001.2" y="334.0"></text>
</g>
<g>
<title>one/nio/http/Request.getPath (4 samples, 1.97%)</title><rect x="1004.0" y="403.0" width="23.2" height="15" fill="#51e251" rx="2" ry="2"/>
<text x="1007.0" y="414.0">o..</text>
</g>
<g>
<title>java/lang/String.substring (4 samples, 1.97%)</title><rect x="1004.0" y="387.0" width="23.2" height="15" fill="#50e150" rx="2" ry="2"/>
<text x="1007.0" y="398.0">j..</text>
</g>
<g>
<title>java/lang/StringLatin1.newString (4 samples, 1.97%)</title><rect x="1004.0" y="371.0" width="23.2" height="15" fill="#5ced5c" rx="2" ry="2"/>
<text x="1007.0" y="382.0">j..</text>
</g>
<g>
<title>java.lang.String (1 samples, 0.49%)</title><rect x="1004.0" y="355.0" width="5.8" height="15" fill="#59c7c7" rx="2" ry="2"/>
<text x="1007.0" y="366.0"></text>
</g>
<g>
<title>java/util/Arrays.copyOfRange (3 samples, 1.48%)</title><rect x="1009.8" y="355.0" width="17.4" height="15" fill="#6dfe6d" rx="2" ry="2"/>
<text x="1012.8" y="366.0"></text>
</g>
<g>
<title>byte[] (3 samples, 1.48%)</title><rect x="1009.8" y="339.0" width="17.4" height="15" fill="#5fcdcd" rx="2" ry="2"/>
<text x="1012.8" y="350.0"></text>
</g>
<g>
<title>one/nio/http/HttpSession.parseRequest (14 samples, 6.90%)</title><rect x="1027.2" y="435.0" width="81.4" height="15" fill="#62f362" rx="2" ry="2"/>
<text x="1030.2" y="446.0">one/nio/h..</text>
</g>
<g>
<title>one.nio.http.Request (6 samples, 2.96%)</title><rect x="1027.2" y="419.0" width="34.9" height="15" fill="#65d3d3" rx="2" ry="2"/>
<text x="1030.2" y="430.0">on..</text>
</g>
<g>
<title>one/nio/http/Request.&lt;init&gt; (4 samples, 1.97%)</title><rect x="1062.1" y="419.0" width="23.3" height="15" fill="#6dfe6d" rx="2" ry="2"/>
<text x="1065.1" y="430.0">o..</text>
</g>
<g>
<title>java.lang.String[] (4 samples, 1.97%)</title><rect x="1062.1" y="403.0" width="23.3" height="15" fill="#5ecccc" rx="2" ry="2"/>
<text x="1065.1" y="414.0">j..</text>
</g>
<g>
<title>one/nio/util/Utf8.read (4 samples, 1.97%)</title><rect x="1085.4" y="419.0" width="23.2" height="15" fill="#5ff05f" rx="2" ry="2"/>
<text x="1088.4" y="430.0">o..</text>
</g>
<g>
<title>one/nio/util/Utf8.read (4 samples, 1.97%)</title><rect x="1085.4" y="403.0" width="23.2" height="15" fill="#5ff05f" rx="2" ry="2"/>
<text x="1088.4" y="414.0">o..</text>
</g>
<g>
<title>java.lang.String (1 samples, 0.49%)</title><rect x="1085.4" y="387.0" width="5.8" height="15" fill="#53c1c1" rx="2" ry="2"/>
<text x="1088.4" y="398.0"></text>
</g>
<g>
<title>java/lang/String.&lt;init&gt; (3 samples, 1.48%)</title><rect x="1091.2" y="387.0" width="17.4" height="15" fill="#53e453" rx="2" ry="2"/>
<text x="1094.2" y="398.0"></text>
</g>
<g>
<title>java/lang/String.&lt;init&gt; (3 samples, 1.48%)</title><rect x="1091.2" y="371.0" width="17.4" height="15" fill="#51e251" rx="2" ry="2"/>
<text x="1094.2" y="382.0"></text>
</g>
<g>
<title>java/lang/StringUTF16.compress (3 samples, 1.48%)</title><rect x="1091.2" y="355.0" width="17.4" height="15" fill="#58e958" rx="2" ry="2"/>
<text x="1094.2" y="366.0"></text>
</g>
<g>
<title>byte[] (3 samples, 1.48%)</title><rect x="1091.2" y="339.0" width="17.4" height="15" fill="#51bfbf" rx="2" ry="2"/>
<text x="1094.2" y="350.0"></text>
</g>
<g>
<title>one/nio/util/Utf8.read (14 samples, 6.90%)</title><rect x="1108.6" y="435.0" width="81.4" height="15" fill="#50e150" rx="2" ry="2"/>
<text x="1111.6" y="446.0">one/nio/u..</text>
</g>
<g>
<title>one/nio/util/Utf8.read (14 samples, 6.90%)</title><rect x="1108.6" y="419.0" width="81.4" height="15" fill="#5eef5e" rx="2" ry="2"/>
<text x="1111.6" y="430.0">one/nio/u..</text>
</g>
<g>
<title>char[] (7 samples, 3.45%)</title><rect x="1108.6" y="403.0" width="40.7" height="15" fill="#5bc9c9" rx="2" ry="2"/>
<text x="1111.6" y="414.0">cha..</text>
</g>
<g>
<title>java.lang.String (4 samples, 1.97%)</title><rect x="1149.3" y="403.0" width="23.3" height="15" fill="#60cece" rx="2" ry="2"/>
<text x="1152.3" y="414.0">j..</text>
</g>
<g>
<title>java/lang/String.&lt;init&gt; (3 samples, 1.48%)</title><rect x="1172.6" y="403.0" width="17.4" height="15" fill="#62f362" rx="2" ry="2"/>
<text x="1175.6" y="414.0"></text>
</g>
<g>
<title>java/lang/String.&lt;init&gt; (3 samples, 1.48%)</title><rect x="1172.6" y="387.0" width="17.4" height="15" fill="#62f362" rx="2" ry="2"/>
<text x="1175.6" y="398.0"></text>
</g>
<g>
<title>java/lang/StringUTF16.compress (3 samples, 1.48%)</title><rect x="1172.6" y="371.0" width="17.4" height="15" fill="#5aeb5a" rx="2" ry="2"/>
<text x="1175.6" y="382.0"></text>
</g>
<g>
<title>byte[] (3 samples, 1.48%)</title><rect x="1172.6" y="355.0" width="17.4" height="15" fill="#5ecccc" rx="2" ry="2"/>
<text x="1175.6" y="366.0"></text>
</g>
</g>
</svg>
