<?xml version="1.0" standalone="no"?>
<!DOCTYPE svg PUBLIC "-//W3C//DTD SVG 1.1//EN" "http://www.w3.org/Graphics/SVG/1.1/DTD/svg11.dtd">
<svg version="1.1" width="1200" height="326" onload="init(evt)" viewBox="0 0 1200 326" xmlns="http://www.w3.org/2000/svg" xmlns:xlink="http://www.w3.org/1999/xlink">
<style type="text/css">
	text { font-family:Verdana; font-size:12px; fill:rgb(0,0,0); }
	#search { opacity:0.1; cursor:pointer; }
	#search:hover, #search.show { opacity:1; }
	#subtitle { text-anchor:middle; font-color:rgb(160,160,160); }
	#title { text-anchor:middle; font-size:17px}
	#unzoom { cursor:pointer; }
	#frames > *:hover { stroke:black; stroke-width:0.5; cursor:pointer; }
	.hide { display:none; }
	.parent { opacity:0.5; }
</style>
<script type="text/ecmascript">
<![CDATA[
	"use strict";
	var details, searchbtn, unzoombtn, matchedtxt, svg, searching;
	function init(evt) {
		details = document.getElementById("details").firstChild;
		searchbtn = document.getElementById("search");
		unzoombtn = document.getElementById("unzoom");
		matchedtxt = document.getElementById("matched");
		svg = document.getElementsByTagName("svg")[0];
		searching = 0;
	}

	window.addEventListener("click", function(e) {
		var target = find_group(e.target);
		if (target) {
			if (target.nodeName == "a") {
				if (e.ctrlKey === false) return;
				e.preventDefault();
			}
			if (target.classList.contains("parent")) unzoom();
			zoom(target);
		}
		else if (e.target.id == "unzoom") unzoom();
		else if (e.target.id == "search") search_prompt();
	}, false)

	// mouse-over for info
	// show
	window.addEventListener("mouseover", function(e) {
		var target = find_group(e.target);
		if (target) details.nodeValue = "Function: " + g_to_text(target);
	}, false)

	// clear
	window.addEventListener("mouseout", function(e) {
		var target = find_group(e.target);
		if (target) details.nodeValue = ' ';
	}, false)

	// ctrl-F for search
	window.addEventListener("keydown",function (e) {
		if (e.keyCode === 114 || (e.ctrlKey && e.keyCode === 70)) {
			e.preventDefault();
			search_prompt();
		}
	}, false)

	// functions
	function find_child(node, selector) {
		var children = node.querySelectorAll(selector);
		if (children.length) return children[0];
		return;
	}
	function find_group(node) {
		var parent = node.parentElement;
		if (!parent) return;
		if (parent.id == "frames") return node;
		return find_group(parent);
	}
	function orig_save(e, attr, val) {
		if (e.attributes["_orig_" + attr] != undefined) return;
		if (e.attributes[attr] == undefined) return;
		if (val == undefined) val = e.attributes[attr].value;
		e.setAttribute("_orig_" + attr, val);
	}
	function orig_load(e, attr) {
		if (e.attributes["_orig_"+attr] == undefined) return;
		e.attributes[attr].value = e.attributes["_orig_" + attr].value;
		e.removeAttribute("_orig_"+attr);
	}
	function g_to_text(e) {
		var text = find_child(e, "title").firstChild.nodeValue;
		return (text)
	}
	function g_to_func(e) {
		var func = g_to_text(e);
		// if there's any manipulation we want to do to the function
		// name before it's searched, do it here before returning.
		return (func);
	}
	function update_text(e) {
		var r = find_child(e, "rect");
		var t = find_child(e, "text");
		var w = parseFloat(r.attributes.width.value) -3;
		var txt = find_child(e, "title").textContent.replace(/\([^(]*\)$/,"");
		t.attributes.x.value = parseFloat(r.attributes.x.value) + 3;

		// Smaller than this size won't fit anything
		if (w < 2 * 12 * 0.59) {
			t.textContent = "";
			return;
		}

		t.textContent = txt;
		// Fit in full text width
		if (/^ *$/.test(txt) || t.getSubStringLength(0, txt.length) < w)
			return;

		for (var x = txt.length - 2; x > 0; x--) {
			if (t.getSubStringLength(0, x + 2) <= w) {
				t.textContent = txt.substring(0, x) + "..";
				return;
			}
		}
		t.textContent = "";
	}

	// zoom
	function zoom_reset(e) {
		if (e.attributes != undefined) {
			orig_load(e, "x");
			orig_load(e, "width");
		}
		if (e.childNodes == undefined) return;
		for (var i = 0, c = e.childNodes; i < c.length; i++) {
			zoom_reset(c[i]);
		}
	}
	function zoom_child(e, x, ratio) {
		if (e.attributes != undefined) {
			if (e.attributes.x != undefined) {
				orig_save(e, "x");
				e.attributes.x.value = (parseFloat(e.attributes.x.value) - x - 10) * ratio + 10;
				if (e.tagName == "text")
					e.attributes.x.value = find_child(e.parentNode, "rect[x]").attributes.x.value + 3;
			}
			if (e.attributes.width != undefined) {
				orig_save(e, "width");
				e.attributes.width.value = parseFloat(e.attributes.width.value) * ratio;
			}
		}

		if (e.childNodes == undefined) return;
		for (var i = 0, c = e.childNodes; i < c.length; i++) {
			zoom_child(c[i], x - 10, ratio);
		}
	}
	function zoom_parent(e) {
		if (e.attributes) {
			if (e.attributes.x != undefined) {
				orig_save(e, "x");
				e.attributes.x.value = 10;
			}
			if (e.attributes.width != undefined) {
				orig_save(e, "width");
				e.attributes.width.value = parseInt(svg.width.baseVal.value) - (10 * 2);
			}
		}
		if (e.childNodes == undefined) return;
		for (var i = 0, c = e.childNodes; i < c.length; i++) {
			zoom_parent(c[i]);
		}
	}
	function zoom(node) {
		var attr = find_child(node, "rect").attributes;
		var width = parseFloat(attr.width.value);
		var xmin = parseFloat(attr.x.value);
		var xmax = parseFloat(xmin + width);
		var ymin = parseFloat(attr.y.value);
		var ratio = (svg.width.baseVal.value - 2 * 10) / width;

		// XXX: Workaround for JavaScript float issues (fix me)
		var fudge = 0.0001;

		unzoombtn.classList.remove("hide");

		var el = document.getElementById("frames").children;
		for (var i = 0; i < el.length; i++) {
			var e = el[i];
			var a = find_child(e, "rect").attributes;
			var ex = parseFloat(a.x.value);
			var ew = parseFloat(a.width.value);
			var upstack;
			// Is it an ancestor
			if (0 == 0) {
				upstack = parseFloat(a.y.value) > ymin;
			} else {
				upstack = parseFloat(a.y.value) < ymin;
			}
			if (upstack) {
				// Direct ancestor
				if (ex <= xmin && (ex+ew+fudge) >= xmax) {
					e.classList.add("parent");
					zoom_parent(e);
					update_text(e);
				}
				// not in current path
				else
					e.classList.add("hide");
			}
			// Children maybe
			else {
				// no common path
				if (ex < xmin || ex + fudge >= xmax) {
					e.classList.add("hide");
				}
				else {
					zoom_child(e, xmin, ratio);
					update_text(e);
				}
			}
		}
	}
	function unzoom() {
		unzoombtn.classList.add("hide");
		var el = document.getElementById("frames").children;
		for(var i = 0; i < el.length; i++) {
			el[i].classList.remove("parent");
			el[i].classList.remove("hide");
			zoom_reset(el[i]);
			update_text(el[i]);
		}
	}

	// search
	function reset_search() {
		var el = document.querySelectorAll("#frames rect");
		for (var i = 0; i < el.length; i++) {
			orig_load(el[i], "fill")
		}
	}
	function search_prompt() {
		if (!searching) {
			var term = prompt("Enter a search term (regexp " +
			    "allowed, eg: ^ext4_)", "");
			if (term != null) {
				search(term)
			}
		} else {
			reset_search();
			searching = 0;
			searchbtn.classList.remove("show");
			searchbtn.firstChild.nodeValue = "Search"
			matchedtxt.classList.add("hide");
			matchedtxt.firstChild.nodeValue = ""
		}
	}
	function search(term) {
		var re = new RegExp(term);
		var el = document.getElementById("frames").children;
		var matches = new Object();
		var maxwidth = 0;
		for (var i = 0; i < el.length; i++) {
			var e = el[i];
			var func = g_to_func(e);
			var rect = find_child(e, "rect");
			if (func == null || rect == null)
				continue;

			// Save max width. Only works as we have a root frame
			var w = parseFloat(rect.attributes.width.value);
			if (w > maxwidth)
				maxwidth = w;

			if (func.match(re)) {
				// highlight
				var x = parseFloat(rect.attributes.x.value);
				orig_save(rect, "fill");
				rect.attributes.fill.value = "rgb(230,0,230)";

				// remember matches
				if (matches[x] == undefined) {
					matches[x] = w;
				} else {
					if (w > matches[x]) {
						// overwrite with parent
						matches[x] = w;
					}
				}
				searching = 1;
			}
		}
		if (!searching)
			return;

		searchbtn.classList.add("show");
		searchbtn.firstChild.nodeValue = "Reset Search";

		// calculate percent matched, excluding vertical overlap
		var count = 0;
		var lastx = -1;
		var lastw = 0;
		var keys = Array();
		for (k in matches) {
			if (matches.hasOwnProperty(k))
				keys.push(k);
		}
		// sort the matched frames by their x location
		// ascending, then width descending
		keys.sort(function(a, b){
			return a - b;
		});
		// Step through frames saving only the biggest bottom-up frames
		// thanks to the sort order. This relies on the tree property
		// where children are always smaller than their parents.
		var fudge = 0.0001;	// JavaScript floating point
		for (var k in keys) {
			var x = parseFloat(keys[k]);
			var w = matches[keys[k]];
			if (x >= lastx + lastw - fudge) {
				count += w;
				lastx = x;
				lastw = w;
			}
		}
		// display matched percent
		matchedtxt.classList.remove("hide");
		var pct = 100 * count / maxwidth;
		if (pct != 100) pct = pct.toFixed(1)
		matchedtxt.firstChild.nodeValue = "Matched: " + pct + "%";
	}
]]>
</script>
<rect x="0" y="0" width="100%" height="100%" fill="rgb(240,240,220)"/>
<text id="title" x="600" y="24">Flame Graph</text>
<text id="details" x="10" y="309"> </text>
<text id="unzoom" x="10" y="24" class="hide">Reset Zoom</text>
<text id="search" x="1090" y="24">Search</text>
<text id="matched" x="1090" y="309"> </text>
<g id="frames">
<g>
<title>all (11,078 samples, 100.00%)</title><rect x="10.0" y="275.0" width="1180.0" height="15" fill="#fc7e7e" rx="2" ry="2"/>
<text x="13.0" y="286.0">all</text>
</g>
<g>
<title>java/lang/Thread.run (5,658 samples, 51.07%)</title><rect x="10.0" y="259.0" width="602.7" height="15" fill="#5bec5b" rx="2" ry="2"/>
<text x="13.0" y="270.0">java/lang/Thread.run</text>
</g>
<g>
<title>java/util/concurrent/ThreadPoolExecutor$Worker.run (5,658 samples, 51.07%)</title><rect x="10.0" y="243.0" width="602.7" height="15" fill="#6cfd6c" rx="2" ry="2"/>
<text x="13.0" y="254.0">java/util/concurrent/ThreadPoolExecutor$Worker.run</text>
</g>
<g>
<title>java/util/concurrent/ThreadPoolExecutor.runWorker (5,658 samples, 51.07%)</title><rect x="10.0" y="227.0" width="602.7" height="15" fill="#55e655" rx="2" ry="2"/>
<text x="13.0" y="238.0">java/util/concurrent/ThreadPoolExecutor.runWorker</text>
</g>
<g>
<title>java/util/concurrent/ThreadPoolExecutor.getTask (351 samples, 3.17%)</title><rect x="10.0" y="211.0" width="37.4" height="15" fill="#55e655" rx="2" ry="2"/>
<text x="13.0" y="222.0">jav..</text>
</g>
<g>
<title>java/util/concurrent/ArrayBlockingQueue.take (351 samples, 3.17%)</title><rect x="10.0" y="195.0" width="37.4" height="15" fill="#57e857" rx="2" ry="2"/>
<text x="13.0" y="206.0">jav..</text>
</g>
<g>
<title>java/util/concurrent/locks/AbstractQueuedSynchronizer$ConditionObject.await (330 samples, 2.98%)</title><rect x="10.0" y="179.0" width="35.2" height="15" fill="#5aeb5a" rx="2" ry="2"/>
<text x="13.0" y="190.0">jav..</text>
</g>
<g>
<title>java/util/concurrent/locks/AbstractQueuedSynchronizer$ConditionObject.addConditionWaiter (330 samples, 2.98%)</title><rect x="10.0" y="163.0" width="35.2" height="15" fill="#6bfc6b" rx="2" ry="2"/>
<text x="13.0" y="174.0">jav..</text>
</g>
<g>
<title>java.util.concurrent.locks.AbstractQueuedSynchronizer$Node (330 samples, 2.98%)</title><rect x="10.0" y="147.0" width="35.2" height="15" fill="#62d0d0" rx="2" ry="2"/>
<text x="13.0" y="158.0">jav..</text>
</g>
<g>
<title>java/util/concurrent/locks/ReentrantLock.lockInterruptibly (21 samples, 0.19%)</title><rect x="45.2" y="179.0" width="2.2" height="15" fill="#5bec5b" rx="2" ry="2"/>
<text x="48.2" y="190.0"></text>
</g>
<g>
<title>java/util/concurrent/locks/AbstractQueuedSynchronizer.acquireInterruptibly (21 samples, 0.19%)</title><rect x="45.2" y="163.0" width="2.2" height="15" fill="#62f362" rx="2" ry="2"/>
<text x="48.2" y="174.0"></text>
</g>
<g>
<title>java/util/concurrent/locks/AbstractQueuedSynchronizer.doAcquireInterruptibly (21 samples, 0.19%)</title><rect x="45.2" y="147.0" width="2.2" height="15" fill="#5ff05f" rx="2" ry="2"/>
<text x="48.2" y="158.0"></text>
</g>
<g>
<title>java/util/concurrent/locks/AbstractQueuedSynchronizer.addWaiter (21 samples, 0.19%)</title><rect x="45.2" y="131.0" width="2.2" height="15" fill="#5bec5b" rx="2" ry="2"/>
<text x="48.2" y="142.0"></text>
</g>
<g>
<title>java.util.concurrent.locks.AbstractQueuedSynchronizer$Node (21 samples, 0.19%)</title><rect x="45.2" y="115.0" width="2.2" height="15" fill="#5fcdcd" rx="2" ry="2"/>
<text x="48.2" y="126.0"></text>
</g>
<g>
<title>ru/mail/polis/dao/impl/DAOImpl$$Lambda$103/172116024.run (573 samples, 5.17%)</title><rect x="47.4" y="211.0" width="61.0" height="15" fill="#64f564" rx="2" ry="2"/>
<text x="50.4" y="222.0">ru/mai..</text>
</g>
<g>
<title>ru/mail/polis/dao/impl/DAOImpl.lambda$flush$5 (573 samples, 5.17%)</title><rect x="47.4" y="195.0" width="61.0" height="15" fill="#50e150" rx="2" ry="2"/>
<text x="50.4" y="206.0">ru/mai..</text>
</g>
<g>
<title>ru/mail/polis/dao/impl/DAOImpl.serialize (573 samples, 5.17%)</title><rect x="47.4" y="179.0" width="61.0" height="15" fill="#63f463" rx="2" ry="2"/>
<text x="50.4" y="190.0">ru/mai..</text>
</g>
<g>
<title>ru/mail/polis/dao/impl/tables/SSTable.write (573 samples, 5.17%)</title><rect x="47.4" y="163.0" width="61.0" height="15" fill="#62f362" rx="2" ry="2"/>
<text x="50.4" y="174.0">ru/mai..</text>
</g>
<g>
<title>com/google/common/collect/TransformedIterator.next (138 samples, 1.25%)</title><rect x="47.4" y="147.0" width="14.7" height="15" fill="#64f564" rx="2" ry="2"/>
<text x="50.4" y="158.0"></text>
</g>
<g>
<title>com/google/common/collect/Iterators$6.transform (138 samples, 1.25%)</title><rect x="47.4" y="131.0" width="14.7" height="15" fill="#5ff05f" rx="2" ry="2"/>
<text x="50.4" y="142.0"></text>
</g>
<g>
<title>ru/mail/polis/dao/impl/tables/MemTable$$Lambda$73/75862590.apply (138 samples, 1.25%)</title><rect x="47.4" y="115.0" width="14.7" height="15" fill="#6afb6a" rx="2" ry="2"/>
<text x="50.4" y="126.0"></text>
</g>
<g>
<title>ru/mail/polis/dao/impl/tables/MemTable.lambda$iterator$0 (138 samples, 1.25%)</title><rect x="47.4" y="99.0" width="14.7" height="15" fill="#57e857" rx="2" ry="2"/>
<text x="50.4" y="110.0"></text>
</g>
<g>
<title>java/nio/HeapByteBufferR.asReadOnlyBuffer (61 samples, 0.55%)</title><rect x="47.4" y="83.0" width="6.5" height="15" fill="#64f564" rx="2" ry="2"/>
<text x="50.4" y="94.0"></text>
</g>
<g>
<title>java/nio/HeapByteBufferR.duplicate (61 samples, 0.55%)</title><rect x="47.4" y="67.0" width="6.5" height="15" fill="#65f665" rx="2" ry="2"/>
<text x="50.4" y="78.0"></text>
</g>
<g>
<title>java.nio.HeapByteBufferR (61 samples, 0.55%)</title><rect x="47.4" y="51.0" width="6.5" height="15" fill="#5dcbcb" rx="2" ry="2"/>
<text x="50.4" y="62.0"></text>
</g>
<g>
<title>java/nio/HeapByteBufferR.duplicate (59 samples, 0.53%)</title><rect x="53.9" y="83.0" width="6.3" height="15" fill="#67f867" rx="2" ry="2"/>
<text x="56.9" y="94.0"></text>
</g>
<g>
<title>java.nio.HeapByteBufferR (59 samples, 0.53%)</title><rect x="53.9" y="67.0" width="6.3" height="15" fill="#55c3c3" rx="2" ry="2"/>
<text x="56.9" y="78.0"></text>
</g>
<g>
<title>ru.mail.polis.dao.impl.models.Cell (18 samples, 0.16%)</title><rect x="60.2" y="83.0" width="1.9" height="15" fill="#59c7c7" rx="2" ry="2"/>
<text x="63.2" y="94.0"></text>
</g>
<g>
<title>java/lang/Integer.valueOf (15 samples, 0.14%)</title><rect x="62.1" y="147.0" width="1.6" height="15" fill="#5aeb5a" rx="2" ry="2"/>
<text x="65.1" y="158.0"></text>
</g>
<g>
<title>java.lang.Integer (15 samples, 0.14%)</title><rect x="62.1" y="131.0" width="1.6" height="15" fill="#63d1d1" rx="2" ry="2"/>
<text x="65.1" y="142.0"></text>
</g>
<g>
<title>java/nio/HeapByteBufferR.duplicate (91 samples, 0.82%)</title><rect x="63.7" y="147.0" width="9.7" height="15" fill="#55e655" rx="2" ry="2"/>
<text x="66.7" y="158.0"></text>
</g>
<g>
<title>java.nio.HeapByteBufferR (91 samples, 0.82%)</title><rect x="63.7" y="131.0" width="9.7" height="15" fill="#57c5c5" rx="2" ry="2"/>
<text x="66.7" y="142.0"></text>
</g>
<g>
<title>java/util/ArrayList.add (5 samples, 0.05%)</title><rect x="73.4" y="147.0" width="0.5" height="15" fill="#50e150" rx="2" ry="2"/>
<text x="76.4" y="158.0"></text>
</g>
<g>
<title>java/util/ArrayList.add (5 samples, 0.05%)</title><rect x="73.4" y="131.0" width="0.5" height="15" fill="#54e554" rx="2" ry="2"/>
<text x="76.4" y="142.0"></text>
</g>
<g>
<title>java/util/ArrayList.grow (5 samples, 0.05%)</title><rect x="73.4" y="115.0" width="0.5" height="15" fill="#5ced5c" rx="2" ry="2"/>
<text x="76.4" y="126.0"></text>
</g>
<g>
<title>java/util/ArrayList.grow (5 samples, 0.05%)</title><rect x="73.4" y="99.0" width="0.5" height="15" fill="#56e756" rx="2" ry="2"/>
<text x="76.4" y="110.0"></text>
</g>
<g>
<title>java/util/Arrays.copyOf (5 samples, 0.05%)</title><rect x="73.4" y="83.0" width="0.5" height="15" fill="#5bec5b" rx="2" ry="2"/>
<text x="76.4" y="94.0"></text>
</g>
<g>
<title>java.lang.Object[] (5 samples, 0.05%)</title><rect x="73.4" y="67.0" width="0.5" height="15" fill="#f89400" rx="2" ry="2"/>
<text x="76.4" y="78.0"></text>
</g>
<g>
<title>ru/mail/polis/dao/impl/models/Cell.getKey (74 samples, 0.67%)</title><rect x="73.9" y="147.0" width="7.9" height="15" fill="#53e453" rx="2" ry="2"/>
<text x="76.9" y="158.0"></text>
</g>
<g>
<title>java/nio/HeapByteBufferR.asReadOnlyBuffer (45 samples, 0.41%)</title><rect x="73.9" y="131.0" width="4.8" height="15" fill="#50e150" rx="2" ry="2"/>
<text x="76.9" y="142.0"></text>
</g>
<g>
<title>java/nio/HeapByteBufferR.duplicate (45 samples, 0.41%)</title><rect x="73.9" y="115.0" width="4.8" height="15" fill="#54e554" rx="2" ry="2"/>
<text x="76.9" y="126.0"></text>
</g>
<g>
<title>java.nio.HeapByteBufferR (45 samples, 0.41%)</title><rect x="73.9" y="99.0" width="4.8" height="15" fill="#66d4d4" rx="2" ry="2"/>
<text x="76.9" y="110.0"></text>
</g>
<g>
<title>java/nio/HeapByteBufferR.duplicate (29 samples, 0.26%)</title><rect x="78.7" y="131.0" width="3.1" height="15" fill="#5ff05f" rx="2" ry="2"/>
<text x="81.7" y="142.0"></text>
</g>
<g>
<title>java.nio.HeapByteBufferR (29 samples, 0.26%)</title><rect x="78.7" y="115.0" width="3.1" height="15" fill="#5fcdcd" rx="2" ry="2"/>
<text x="81.7" y="126.0"></text>
</g>
<g>
<title>ru/mail/polis/dao/impl/tables/SSTable.fromInt (162 samples, 1.46%)</title><rect x="81.8" y="147.0" width="17.2" height="15" fill="#57e857" rx="2" ry="2"/>
<text x="84.8" y="158.0"></text>
</g>
<g>
<title>java/nio/ByteBuffer.allocate (162 samples, 1.46%)</title><rect x="81.8" y="131.0" width="17.2" height="15" fill="#56e756" rx="2" ry="2"/>
<text x="84.8" y="142.0"></text>
</g>
<g>
<title>java.nio.HeapByteBuffer (85 samples, 0.77%)</title><rect x="81.8" y="115.0" width="9.0" height="15" fill="#60cece" rx="2" ry="2"/>
<text x="84.8" y="126.0"></text>
</g>
<g>
<title>java/nio/HeapByteBuffer.&lt;init&gt; (77 samples, 0.70%)</title><rect x="90.8" y="115.0" width="8.2" height="15" fill="#6afb6a" rx="2" ry="2"/>
<text x="93.8" y="126.0"></text>
</g>
<g>
<title>byte[] (77 samples, 0.70%)</title><rect x="90.8" y="99.0" width="8.2" height="15" fill="#69d7d7" rx="2" ry="2"/>
<text x="93.8" y="110.0"></text>
</g>
<g>
<title>ru/mail/polis/dao/impl/tables/SSTable.fromLong (88 samples, 0.79%)</title><rect x="99.0" y="147.0" width="9.4" height="15" fill="#57e857" rx="2" ry="2"/>
<text x="102.0" y="158.0"></text>
</g>
<g>
<title>java/nio/ByteBuffer.allocate (88 samples, 0.79%)</title><rect x="99.0" y="131.0" width="9.4" height="15" fill="#5ced5c" rx="2" ry="2"/>
<text x="102.0" y="142.0"></text>
</g>
<g>
<title>java.nio.HeapByteBuffer (72 samples, 0.65%)</title><rect x="99.0" y="115.0" width="7.7" height="15" fill="#66d4d4" rx="2" ry="2"/>
<text x="102.0" y="126.0"></text>
</g>
<g>
<title>java/nio/HeapByteBuffer.&lt;init&gt; (16 samples, 0.14%)</title><rect x="106.7" y="115.0" width="1.7" height="15" fill="#5eef5e" rx="2" ry="2"/>
<text x="109.7" y="126.0"></text>
</g>
<g>
<title>byte[] (16 samples, 0.14%)</title><rect x="106.7" y="99.0" width="1.7" height="15" fill="#52c0c0" rx="2" ry="2"/>
<text x="109.7" y="110.0"></text>
</g>
<g>
<title>ru/mail/polis/service/mrsandman5/ServiceImpl$$Lambda$102/1246758565.run (4,734 samples, 42.73%)</title><rect x="108.4" y="211.0" width="504.3" height="15" fill="#5dee5d" rx="2" ry="2"/>
<text x="111.4" y="222.0">ru/mail/polis/service/mrsandman5/ServiceImpl$$Lambda$102/1246758565.run</text>
</g>
<g>
<title>ru/mail/polis/service/mrsandman5/ServiceImpl.lambda$put$1 (4,734 samples, 42.73%)</title><rect x="108.4" y="195.0" width="504.3" height="15" fill="#6cfd6c" rx="2" ry="2"/>
<text x="111.4" y="206.0">ru/mail/polis/service/mrsandman5/ServiceImpl.lambda$put$1</text>
</g>
<g>
<title>ru/mail/polis/service/mrsandman5/ServiceImpl.putValue (4,734 samples, 42.73%)</title><rect x="108.4" y="179.0" width="504.3" height="15" fill="#6afb6a" rx="2" ry="2"/>
<text x="111.4" y="190.0">ru/mail/polis/service/mrsandman5/ServiceImpl.putValue</text>
</g>
<g>
<title>one.nio.http.Response (223 samples, 2.01%)</title><rect x="108.4" y="163.0" width="23.8" height="15" fill="#63d1d1" rx="2" ry="2"/>
<text x="111.4" y="174.0">o..</text>
</g>
<g>
<title>one/nio/http/HttpSession.sendResponse (1,232 samples, 11.12%)</title><rect x="132.2" y="163.0" width="131.2" height="15" fill="#57e857" rx="2" ry="2"/>
<text x="135.2" y="174.0">one/nio/http/Htt..</text>
</g>
<g>
<title>one/nio/http/HttpSession.writeResponse (1,232 samples, 11.12%)</title><rect x="132.2" y="147.0" width="131.2" height="15" fill="#56e756" rx="2" ry="2"/>
<text x="135.2" y="158.0">one/nio/http/Htt..</text>
</g>
<g>
<title>one/nio/http/Response.toBytes (861 samples, 7.77%)</title><rect x="132.2" y="131.0" width="91.7" height="15" fill="#58e958" rx="2" ry="2"/>
<text x="135.2" y="142.0">one/nio/htt..</text>
</g>
<g>
<title>one/nio/util/ByteArrayBuilder.&lt;init&gt; (861 samples, 7.77%)</title><rect x="132.2" y="115.0" width="91.7" height="15" fill="#5dee5d" rx="2" ry="2"/>
<text x="135.2" y="126.0">one/nio/uti..</text>
</g>
<g>
<title>byte[] (798 samples, 7.20%)</title><rect x="132.2" y="99.0" width="85.0" height="15" fill="#5dcbcb" rx="2" ry="2"/>
<text x="135.2" y="110.0">byte[]</text>
</g>
<g>
<title>byte[] (63 samples, 0.57%)</title><rect x="217.2" y="99.0" width="6.7" height="15" fill="#ea8600" rx="2" ry="2"/>
<text x="220.2" y="110.0"></text>
</g>
<g>
<title>one/nio/net/Session.write (371 samples, 3.35%)</title><rect x="223.9" y="131.0" width="39.5" height="15" fill="#61f261" rx="2" ry="2"/>
<text x="226.9" y="142.0">one..</text>
</g>
<g>
<title>one.nio.net.Session$ArrayQueueItem (371 samples, 3.35%)</title><rect x="223.9" y="115.0" width="39.5" height="15" fill="#6ad8d8" rx="2" ry="2"/>
<text x="226.9" y="126.0">one..</text>
</g>
<g>
<title>one/nio/http/Response.&lt;init&gt; (878 samples, 7.93%)</title><rect x="263.4" y="163.0" width="93.5" height="15" fill="#5ff05f" rx="2" ry="2"/>
<text x="266.4" y="174.0">one/nio/htt..</text>
</g>
<g>
<title>byte[] (353 samples, 3.19%)</title><rect x="263.4" y="147.0" width="37.6" height="15" fill="#6ddbdb" rx="2" ry="2"/>
<text x="266.4" y="158.0">byt..</text>
</g>
<g>
<title>java.lang.String[] (278 samples, 2.51%)</title><rect x="301.0" y="147.0" width="29.6" height="15" fill="#63d1d1" rx="2" ry="2"/>
<text x="304.0" y="158.0">ja..</text>
</g>
<g>
<title>java.lang.String (247 samples, 2.23%)</title><rect x="330.6" y="147.0" width="26.3" height="15" fill="#63d1d1" rx="2" ry="2"/>
<text x="333.6" y="158.0">j..</text>
</g>
<g>
<title>ru/mail/polis/dao/impl/DAOImpl.upsert (2,401 samples, 21.67%)</title><rect x="356.9" y="163.0" width="255.8" height="15" fill="#6dfe6d" rx="2" ry="2"/>
<text x="359.9" y="174.0">ru/mail/polis/dao/impl/DAOImpl.ups..</text>
</g>
<g>
<title>java/nio/HeapByteBuffer.asReadOnlyBuffer (948 samples, 8.56%)</title><rect x="356.9" y="147.0" width="101.0" height="15" fill="#67f867" rx="2" ry="2"/>
<text x="359.9" y="158.0">java/nio/Hea..</text>
</g>
<g>
<title>java.nio.HeapByteBufferR (948 samples, 8.56%)</title><rect x="356.9" y="131.0" width="101.0" height="15" fill="#5bc9c9" rx="2" ry="2"/>
<text x="359.9" y="142.0">java.nio.Hea..</text>
</g>
<g>
<title>java/util/concurrent/locks/ReentrantReadWriteLock$ReadLock.lock (99 samples, 0.89%)</title><rect x="457.9" y="147.0" width="10.6" height="15" fill="#5ff05f" rx="2" ry="2"/>
<text x="460.9" y="158.0"></text>
</g>
<g>
<title>java/util/concurrent/locks/AbstractQueuedSynchronizer.acquireShared (99 samples, 0.89%)</title><rect x="457.9" y="131.0" width="10.6" height="15" fill="#59ea59" rx="2" ry="2"/>
<text x="460.9" y="142.0"></text>
</g>
<g>
<title>java/util/concurrent/locks/ReentrantReadWriteLock$Sync.tryAcquireShared (99 samples, 0.89%)</title><rect x="457.9" y="115.0" width="10.6" height="15" fill="#63f463" rx="2" ry="2"/>
<text x="460.9" y="126.0"></text>
</g>
<g>
<title>java/lang/ThreadLocal.get (90 samples, 0.81%)</title><rect x="457.9" y="99.0" width="9.6" height="15" fill="#66f766" rx="2" ry="2"/>
<text x="460.9" y="110.0"></text>
</g>
<g>
<title>java/lang/ThreadLocal.setInitialValue (90 samples, 0.81%)</title><rect x="457.9" y="83.0" width="9.6" height="15" fill="#69fa69" rx="2" ry="2"/>
<text x="460.9" y="94.0"></text>
</g>
<g>
<title>java/lang/ThreadLocal$ThreadLocalMap.set (22 samples, 0.20%)</title><rect x="457.9" y="67.0" width="2.3" height="15" fill="#60f160" rx="2" ry="2"/>
<text x="460.9" y="78.0"></text>
</g>
<g>
<title>java.lang.ThreadLocal$ThreadLocalMap$Entry (22 samples, 0.20%)</title><rect x="457.9" y="51.0" width="2.3" height="15" fill="#61cfcf" rx="2" ry="2"/>
<text x="460.9" y="62.0"></text>
</g>
<g>
<title>java/util/concurrent/locks/ReentrantReadWriteLock$Sync$ThreadLocalHoldCounter.initialValue (68 samples, 0.61%)</title><rect x="460.2" y="67.0" width="7.3" height="15" fill="#52e352" rx="2" ry="2"/>
<text x="463.2" y="78.0"></text>
</g>
<g>
<title>java/util/concurrent/locks/ReentrantReadWriteLock$Sync$ThreadLocalHoldCounter.initialValue (68 samples, 0.61%)</title><rect x="460.2" y="51.0" width="7.3" height="15" fill="#6cfd6c" rx="2" ry="2"/>
<text x="463.2" y="62.0"></text>
</g>
<g>
<title>java.util.concurrent.locks.ReentrantReadWriteLock$Sync$HoldCounter (68 samples, 0.61%)</title><rect x="460.2" y="35.0" width="7.3" height="15" fill="#59c7c7" rx="2" ry="2"/>
<text x="463.2" y="46.0"></text>
</g>
<g>
<title>java/lang/ThreadLocal.set (8 samples, 0.07%)</title><rect x="467.5" y="99.0" width="0.8" height="15" fill="#61f261" rx="2" ry="2"/>
<text x="470.5" y="110.0"></text>
</g>
<g>
<title>java/lang/ThreadLocal$ThreadLocalMap.set (8 samples, 0.07%)</title><rect x="467.5" y="83.0" width="0.8" height="15" fill="#51e251" rx="2" ry="2"/>
<text x="470.5" y="94.0"></text>
</g>
<g>
<title>java.lang.ThreadLocal$ThreadLocalMap$Entry (8 samples, 0.07%)</title><rect x="467.5" y="67.0" width="0.8" height="15" fill="#67d5d5" rx="2" ry="2"/>
<text x="470.5" y="78.0"></text>
</g>
<g>
<title>ru/mail/polis/dao/impl/tables/MemTable.upsert (1,354 samples, 12.22%)</title><rect x="468.5" y="147.0" width="144.2" height="15" fill="#5ff05f" rx="2" ry="2"/>
<text x="471.5" y="158.0">ru/mail/polis/dao/..</text>
</g>
<g>
<title>java/nio/HeapByteBufferR.asReadOnlyBuffer (846 samples, 7.64%)</title><rect x="468.5" y="131.0" width="90.1" height="15" fill="#6bfc6b" rx="2" ry="2"/>
<text x="471.5" y="142.0">java/nio/H..</text>
</g>
<g>
<title>java/nio/HeapByteBufferR.duplicate (846 samples, 7.64%)</title><rect x="468.5" y="115.0" width="90.1" height="15" fill="#5ced5c" rx="2" ry="2"/>
<text x="471.5" y="126.0">java/nio/H..</text>
</g>
<g>
<title>java.nio.HeapByteBufferR (846 samples, 7.64%)</title><rect x="468.5" y="99.0" width="90.1" height="15" fill="#67d5d5" rx="2" ry="2"/>
<text x="471.5" y="110.0">java.nio.H..</text>
</g>
<g>
<title>java/util/concurrent/ConcurrentSkipListMap.put (278 samples, 2.51%)</title><rect x="558.6" y="131.0" width="29.6" height="15" fill="#54e554" rx="2" ry="2"/>
<text x="561.6" y="142.0">ja..</text>
</g>
<g>
<title>java/util/concurrent/ConcurrentSkipListMap.doPut (278 samples, 2.51%)</title><rect x="558.6" y="115.0" width="29.6" height="15" fill="#65f665" rx="2" ry="2"/>
<text x="561.6" y="126.0">ja..</text>
</g>
<g>
<title>java.util.concurrent.ConcurrentSkipListMap$Index (95 samples, 0.86%)</title><rect x="558.6" y="99.0" width="10.1" height="15" fill="#56c4c4" rx="2" ry="2"/>
<text x="561.6" y="110.0"></text>
</g>
<g>
<title>java.util.concurrent.ConcurrentSkipListMap$Node (183 samples, 1.65%)</title><rect x="568.7" y="99.0" width="19.5" height="15" fill="#61cfcf" rx="2" ry="2"/>
<text x="571.7" y="110.0"></text>
</g>
<g>
<title>ru.mail.polis.dao.impl.models.Value (230 samples, 2.08%)</title><rect x="588.2" y="131.0" width="24.5" height="15" fill="#50bebe" rx="2" ry="2"/>
<text x="591.2" y="142.0">r..</text>
</g>
<g>
<title>one/nio/server/SelectorThread.run (5,420 samples, 48.93%)</title><rect x="612.7" y="259.0" width="577.3" height="15" fill="#68f968" rx="2" ry="2"/>
<text x="615.7" y="270.0">one/nio/server/SelectorThread.run</text>
</g>
<g>
<title>one/nio/net/NativeSelector.select (168 samples, 1.52%)</title><rect x="612.7" y="243.0" width="17.9" height="15" fill="#5eef5e" rx="2" ry="2"/>
<text x="615.7" y="254.0"></text>
</g>
<g>
<title>one.nio.net.NativeSelector$2 (168 samples, 1.52%)</title><rect x="612.7" y="227.0" width="17.9" height="15" fill="#5fcdcd" rx="2" ry="2"/>
<text x="615.7" y="238.0"></text>
</g>
<g>
<title>one/nio/net/Session.process (5,252 samples, 47.41%)</title><rect x="630.6" y="243.0" width="559.4" height="15" fill="#67f867" rx="2" ry="2"/>
<text x="633.6" y="254.0">one/nio/net/Session.process</text>
</g>
<g>
<title>one/nio/http/HttpSession.processRead (5,252 samples, 47.41%)</title><rect x="630.6" y="227.0" width="559.4" height="15" fill="#53e453" rx="2" ry="2"/>
<text x="633.6" y="238.0">one/nio/http/HttpSession.processRead</text>
</g>
<g>
<title>one/nio/http/HttpSession.processHttpBuffer (5,252 samples, 47.41%)</title><rect x="630.6" y="211.0" width="559.4" height="15" fill="#55e655" rx="2" ry="2"/>
<text x="633.6" y="222.0">one/nio/http/HttpSession.processHttpBuffer</text>
</g>
<g>
<title>one/nio/http/HttpSession.handleParsedRequest (1,642 samples, 14.82%)</title><rect x="630.6" y="195.0" width="174.9" height="15" fill="#67f867" rx="2" ry="2"/>
<text x="633.6" y="206.0">one/nio/http/HttpSessi..</text>
</g>
<g>
<title>one/nio/http/HttpServer.handleRequest (1,642 samples, 14.82%)</title><rect x="630.6" y="179.0" width="174.9" height="15" fill="#6bfc6b" rx="2" ry="2"/>
<text x="633.6" y="190.0">one/nio/http/HttpServe..</text>
</g>
<g>
<title>RequestHandler0_response.handleRequest (1,315 samples, 11.87%)</title><rect x="630.6" y="163.0" width="140.0" height="15" fill="#60f160" rx="2" ry="2"/>
<text x="633.6" y="174.0">RequestHandler0_re..</text>
</g>
<g>
<title>one/nio/http/Request.getRequiredParameter (357 samples, 3.22%)</title><rect x="630.6" y="147.0" width="38.0" height="15" fill="#58e958" rx="2" ry="2"/>
<text x="633.6" y="158.0">one..</text>
</g>
<g>
<title>one/nio/http/Request.getParameter (357 samples, 3.22%)</title><rect x="630.6" y="131.0" width="38.0" height="15" fill="#57e857" rx="2" ry="2"/>
<text x="633.6" y="142.0">one..</text>
</g>
<g>
<title>java/lang/String.substring (357 samples, 3.22%)</title><rect x="630.6" y="115.0" width="38.0" height="15" fill="#55e655" rx="2" ry="2"/>
<text x="633.6" y="126.0">jav..</text>
</g>
<g>
<title>java/lang/StringLatin1.newString (357 samples, 3.22%)</title><rect x="630.6" y="99.0" width="38.0" height="15" fill="#50e150" rx="2" ry="2"/>
<text x="633.6" y="110.0">jav..</text>
</g>
<g>
<title>java.lang.String (131 samples, 1.18%)</title><rect x="630.6" y="83.0" width="13.9" height="15" fill="#53c1c1" rx="2" ry="2"/>
<text x="633.6" y="94.0"></text>
</g>
<g>
<title>java/util/Arrays.copyOfRange (226 samples, 2.04%)</title><rect x="644.5" y="83.0" width="24.1" height="15" fill="#65f665" rx="2" ry="2"/>
<text x="647.5" y="94.0">j..</text>
</g>
<g>
<title>byte[] (226 samples, 2.04%)</title><rect x="644.5" y="67.0" width="24.1" height="15" fill="#62d0d0" rx="2" ry="2"/>
<text x="647.5" y="78.0">b..</text>
</g>
<g>
<title>ru/mail/polis/service/mrsandman5/ServiceImpl.response (958 samples, 8.65%)</title><rect x="668.6" y="147.0" width="102.0" height="15" fill="#56e756" rx="2" ry="2"/>
<text x="671.6" y="158.0">ru/mail/poli..</text>
</g>
<g>
<title>java/lang/String.getBytes (213 samples, 1.92%)</title><rect x="668.6" y="131.0" width="22.7" height="15" fill="#64f564" rx="2" ry="2"/>
<text x="671.6" y="142.0">j..</text>
</g>
<g>
<title>java/lang/StringCoding.encode (213 samples, 1.92%)</title><rect x="668.6" y="115.0" width="22.7" height="15" fill="#6cfd6c" rx="2" ry="2"/>
<text x="671.6" y="126.0">j..</text>
</g>
<g>
<title>java/lang/StringCoding.encodeUTF8 (213 samples, 1.92%)</title><rect x="668.6" y="99.0" width="22.7" height="15" fill="#67f867" rx="2" ry="2"/>
<text x="671.6" y="110.0">j..</text>
</g>
<g>
<title>java/util/Arrays.copyOf (213 samples, 1.92%)</title><rect x="668.6" y="83.0" width="22.7" height="15" fill="#65f665" rx="2" ry="2"/>
<text x="671.6" y="94.0">j..</text>
</g>
<g>
<title>byte[] (213 samples, 1.92%)</title><rect x="668.6" y="67.0" width="22.7" height="15" fill="#65d3d3" rx="2" ry="2"/>
<text x="671.6" y="78.0">b..</text>
</g>
<g>
<title>java/nio/ByteBuffer.wrap (321 samples, 2.90%)</title><rect x="691.3" y="131.0" width="34.2" height="15" fill="#59ea59" rx="2" ry="2"/>
<text x="694.3" y="142.0">ja..</text>
</g>
<g>
<title>java/nio/ByteBuffer.wrap (321 samples, 2.90%)</title><rect x="691.3" y="115.0" width="34.2" height="15" fill="#63f463" rx="2" ry="2"/>
<text x="694.3" y="126.0">ja..</text>
</g>
<g>
<title>java.nio.HeapByteBuffer (321 samples, 2.90%)</title><rect x="691.3" y="99.0" width="34.2" height="15" fill="#54c2c2" rx="2" ry="2"/>
<text x="694.3" y="110.0">ja..</text>
</g>
<g>
<title>ru/mail/polis/service/mrsandman5/ServiceImpl.put (424 samples, 3.83%)</title><rect x="725.5" y="131.0" width="45.1" height="15" fill="#52e352" rx="2" ry="2"/>
<text x="728.5" y="142.0">ru/m..</text>
</g>
<g>
<title>java/lang/invoke/Invokers$Holder.linkToTargetMethod (160 samples, 1.44%)</title><rect x="725.5" y="115.0" width="17.0" height="15" fill="#67f867" rx="2" ry="2"/>
<text x="728.5" y="126.0"></text>
</g>
<g>
<title>java/lang/invoke/DirectMethodHandle$Holder.invokeStatic (160 samples, 1.44%)</title><rect x="725.5" y="99.0" width="17.0" height="15" fill="#69fa69" rx="2" ry="2"/>
<text x="728.5" y="110.0"></text>
</g>
<g>
<title>ru/mail/polis/service/mrsandman5/ServiceImpl$$Lambda$102/1246758565.get$Lambda (160 samples, 1.44%)</title><rect x="725.5" y="83.0" width="17.0" height="15" fill="#59ea59" rx="2" ry="2"/>
<text x="728.5" y="94.0"></text>
</g>
<g>
<title>ru.mail.polis.service.mrsandman5.ServiceImpl$$Lambda$102 (160 samples, 1.44%)</title><rect x="725.5" y="67.0" width="17.0" height="15" fill="#5bc9c9" rx="2" ry="2"/>
<text x="728.5" y="78.0"></text>
</g>
<g>
<title>java/nio/ByteBuffer.wrap (254 samples, 2.29%)</title><rect x="742.5" y="115.0" width="27.1" height="15" fill="#6afb6a" rx="2" ry="2"/>
<text x="745.5" y="126.0">j..</text>
</g>
<g>
<title>java/nio/ByteBuffer.wrap (254 samples, 2.29%)</title><rect x="742.5" y="99.0" width="27.1" height="15" fill="#54e554" rx="2" ry="2"/>
<text x="745.5" y="110.0">j..</text>
</g>
<g>
<title>java.nio.HeapByteBuffer (254 samples, 2.29%)</title><rect x="742.5" y="83.0" width="27.1" height="15" fill="#69d7d7" rx="2" ry="2"/>
<text x="745.5" y="94.0">j..</text>
</g>
<g>
<title>java/util/concurrent/ThreadPoolExecutor.execute (10 samples, 0.09%)</title><rect x="769.6" y="115.0" width="1.0" height="15" fill="#5bec5b" rx="2" ry="2"/>
<text x="772.6" y="126.0"></text>
</g>
<g>
<title>java/util/concurrent/ArrayBlockingQueue.offer (10 samples, 0.09%)</title><rect x="769.6" y="99.0" width="1.0" height="15" fill="#6bfc6b" rx="2" ry="2"/>
<text x="772.6" y="110.0"></text>
</g>
<g>
<title>java/util/concurrent/locks/ReentrantLock.lock (10 samples, 0.09%)</title><rect x="769.6" y="83.0" width="1.0" height="15" fill="#6dfe6d" rx="2" ry="2"/>
<text x="772.6" y="94.0"></text>
</g>
<g>
<title>java/util/concurrent/locks/AbstractQueuedSynchronizer.acquire (10 samples, 0.09%)</title><rect x="769.6" y="67.0" width="1.0" height="15" fill="#60f160" rx="2" ry="2"/>
<text x="772.6" y="78.0"></text>
</g>
<g>
<title>java/util/concurrent/locks/AbstractQueuedSynchronizer.addWaiter (10 samples, 0.09%)</title><rect x="769.6" y="51.0" width="1.0" height="15" fill="#65f665" rx="2" ry="2"/>
<text x="772.6" y="62.0"></text>
</g>
<g>
<title>java.util.concurrent.locks.AbstractQueuedSynchronizer$Node (10 samples, 0.09%)</title><rect x="769.6" y="35.0" width="1.0" height="15" fill="#6bd9d9" rx="2" ry="2"/>
<text x="772.6" y="46.0"></text>
</g>
<g>
<title>one/nio/http/Request.getPath (327 samples, 2.95%)</title><rect x="770.6" y="163.0" width="34.9" height="15" fill="#53e453" rx="2" ry="2"/>
<text x="773.6" y="174.0">on..</text>
</g>
<g>
<title>java/lang/String.substring (327 samples, 2.95%)</title><rect x="770.6" y="147.0" width="34.9" height="15" fill="#50e150" rx="2" ry="2"/>
<text x="773.6" y="158.0">ja..</text>
</g>
<g>
<title>java/lang/StringLatin1.newString (327 samples, 2.95%)</title><rect x="770.6" y="131.0" width="34.9" height="15" fill="#54e554" rx="2" ry="2"/>
<text x="773.6" y="142.0">ja..</text>
</g>
<g>
<title>java.lang.String (147 samples, 1.33%)</title><rect x="770.6" y="115.0" width="15.7" height="15" fill="#59c7c7" rx="2" ry="2"/>
<text x="773.6" y="126.0"></text>
</g>
<g>
<title>java/util/Arrays.copyOfRange (180 samples, 1.62%)</title><rect x="786.3" y="115.0" width="19.2" height="15" fill="#50e150" rx="2" ry="2"/>
<text x="789.3" y="126.0"></text>
</g>
<g>
<title>byte[] (180 samples, 1.62%)</title><rect x="786.3" y="99.0" width="19.2" height="15" fill="#58c6c6" rx="2" ry="2"/>
<text x="789.3" y="110.0"></text>
</g>
<g>
<title>one/nio/http/HttpSession.parseRequest (1,585 samples, 14.31%)</title><rect x="805.5" y="195.0" width="168.8" height="15" fill="#51e251" rx="2" ry="2"/>
<text x="808.5" y="206.0">one/nio/http/HttpSessi..</text>
</g>
<g>
<title>one.nio.http.Request (226 samples, 2.04%)</title><rect x="805.5" y="179.0" width="24.0" height="15" fill="#63d1d1" rx="2" ry="2"/>
<text x="808.5" y="190.0">o..</text>
</g>
<g>
<title>one/nio/http/Request.&lt;init&gt; (518 samples, 4.68%)</title><rect x="829.5" y="179.0" width="55.2" height="15" fill="#5eef5e" rx="2" ry="2"/>
<text x="832.5" y="190.0">one/n..</text>
</g>
<g>
<title>java.lang.String[] (506 samples, 4.57%)</title><rect x="829.5" y="163.0" width="53.9" height="15" fill="#65d3d3" rx="2" ry="2"/>
<text x="832.5" y="174.0">java...</text>
</g>
<g>
<title>java.lang.String[] (12 samples, 0.11%)</title><rect x="883.4" y="163.0" width="1.3" height="15" fill="#f28e00" rx="2" ry="2"/>
<text x="886.4" y="174.0"></text>
</g>
<g>
<title>one/nio/util/Utf8.read (841 samples, 7.59%)</title><rect x="884.7" y="179.0" width="89.6" height="15" fill="#58e958" rx="2" ry="2"/>
<text x="887.7" y="190.0">one/nio/ut..</text>
</g>
<g>
<title>one/nio/util/Utf8.read (841 samples, 7.59%)</title><rect x="884.7" y="163.0" width="89.6" height="15" fill="#5dee5d" rx="2" ry="2"/>
<text x="887.7" y="174.0">one/nio/ut..</text>
</g>
<g>
<title>char[] (450 samples, 4.06%)</title><rect x="884.7" y="147.0" width="48.0" height="15" fill="#59c7c7" rx="2" ry="2"/>
<text x="887.7" y="158.0">char[]</text>
</g>
<g>
<title>java.lang.String (135 samples, 1.22%)</title><rect x="932.7" y="147.0" width="14.3" height="15" fill="#61cfcf" rx="2" ry="2"/>
<text x="935.7" y="158.0"></text>
</g>
<g>
<title>java/lang/String.&lt;init&gt; (256 samples, 2.31%)</title><rect x="947.0" y="147.0" width="27.3" height="15" fill="#52e352" rx="2" ry="2"/>
<text x="950.0" y="158.0">j..</text>
</g>
<g>
<title>java/lang/String.&lt;init&gt; (256 samples, 2.31%)</title><rect x="947.0" y="131.0" width="27.3" height="15" fill="#5eef5e" rx="2" ry="2"/>
<text x="950.0" y="142.0">j..</text>
</g>
<g>
<title>java/lang/StringUTF16.compress (256 samples, 2.31%)</title><rect x="947.0" y="115.0" width="27.3" height="15" fill="#63f463" rx="2" ry="2"/>
<text x="950.0" y="126.0">j..</text>
</g>
<g>
<title>byte[] (256 samples, 2.31%)</title><rect x="947.0" y="99.0" width="27.3" height="15" fill="#69d7d7" rx="2" ry="2"/>
<text x="950.0" y="110.0">b..</text>
</g>
<g>
<title>one/nio/http/HttpSession.startParsingRequestBody (119 samples, 1.07%)</title><rect x="974.3" y="195.0" width="12.7" height="15" fill="#59ea59" rx="2" ry="2"/>
<text x="977.3" y="206.0"></text>
</g>
<g>
<title>byte[] (119 samples, 1.07%)</title><rect x="974.3" y="179.0" width="12.7" height="15" fill="#6ddbdb" rx="2" ry="2"/>
<text x="977.3" y="190.0"></text>
</g>
<g>
<title>one/nio/http/Request.getHeader (312 samples, 2.82%)</title><rect x="987.0" y="195.0" width="33.2" height="15" fill="#57e857" rx="2" ry="2"/>
<text x="990.0" y="206.0">on..</text>
</g>
<g>
<title>java/lang/String.substring (312 samples, 2.82%)</title><rect x="987.0" y="179.0" width="33.2" height="15" fill="#55e655" rx="2" ry="2"/>
<text x="990.0" y="190.0">ja..</text>
</g>
<g>
<title>java/lang/StringLatin1.newString (312 samples, 2.82%)</title><rect x="987.0" y="163.0" width="33.2" height="15" fill="#53e453" rx="2" ry="2"/>
<text x="990.0" y="174.0">ja..</text>
</g>
<g>
<title>java.lang.String (146 samples, 1.32%)</title><rect x="987.0" y="147.0" width="15.5" height="15" fill="#53c1c1" rx="2" ry="2"/>
<text x="990.0" y="158.0"></text>
</g>
<g>
<title>java/util/Arrays.copyOfRange (166 samples, 1.50%)</title><rect x="1002.5" y="147.0" width="17.7" height="15" fill="#61f261" rx="2" ry="2"/>
<text x="1005.5" y="158.0"></text>
</g>
<g>
<title>byte[] (166 samples, 1.50%)</title><rect x="1002.5" y="131.0" width="17.7" height="15" fill="#51bfbf" rx="2" ry="2"/>
<text x="1005.5" y="142.0"></text>
</g>
<g>
<title>one/nio/util/Utf8.read (1,594 samples, 14.39%)</title><rect x="1020.2" y="195.0" width="169.8" height="15" fill="#52e352" rx="2" ry="2"/>
<text x="1023.2" y="206.0">one/nio/util/Utf8.read</text>
</g>
<g>
<title>one/nio/util/Utf8.read (1,594 samples, 14.39%)</title><rect x="1020.2" y="179.0" width="169.8" height="15" fill="#54e554" rx="2" ry="2"/>
<text x="1023.2" y="190.0">one/nio/util/Utf8.read</text>
</g>
<g>
<title>char[] (758 samples, 6.84%)</title><rect x="1020.2" y="163.0" width="80.8" height="15" fill="#67d5d5" rx="2" ry="2"/>
<text x="1023.2" y="174.0">char[]</text>
</g>
<g>
<title>java.lang.String (351 samples, 3.17%)</title><rect x="1101.0" y="163.0" width="37.3" height="15" fill="#6ddbdb" rx="2" ry="2"/>
<text x="1104.0" y="174.0">jav..</text>
</g>
<g>
<title>java/lang/String.&lt;init&gt; (485 samples, 4.38%)</title><rect x="1138.3" y="163.0" width="51.7" height="15" fill="#57e857" rx="2" ry="2"/>
<text x="1141.3" y="174.0">java/..</text>
</g>
<g>
<title>java/lang/String.&lt;init&gt; (485 samples, 4.38%)</title><rect x="1138.3" y="147.0" width="51.7" height="15" fill="#67f867" rx="2" ry="2"/>
<text x="1141.3" y="158.0">java/..</text>
</g>
<g>
<title>java/lang/StringUTF16.compress (485 samples, 4.38%)</title><rect x="1138.3" y="131.0" width="51.7" height="15" fill="#54e554" rx="2" ry="2"/>
<text x="1141.3" y="142.0">java/..</text>
</g>
<g>
<title>byte[] (485 samples, 4.38%)</title><rect x="1138.3" y="115.0" width="51.7" height="15" fill="#60cece" rx="2" ry="2"/>
<text x="1141.3" y="126.0">byte[]</text>
</g>
</g>
</svg>
