<?xml version="1.0" standalone="no"?>
<!DOCTYPE svg PUBLIC "-//W3C//DTD SVG 1.1//EN" "http://www.w3.org/Graphics/SVG/1.1/DTD/svg11.dtd">
<svg version="1.1" width="1200" height="550" onload="init(evt)" viewBox="0 0 1200 550" xmlns="http://www.w3.org/2000/svg" xmlns:xlink="http://www.w3.org/1999/xlink">
<style type="text/css">
	text { font-family:Verdana; font-size:12px; fill:rgb(0,0,0); }
	#search { opacity:0.1; cursor:pointer; }
	#search:hover, #search.show { opacity:1; }
	#subtitle { text-anchor:middle; font-color:rgb(160,160,160); }
	#title { text-anchor:middle; font-size:17px}
	#unzoom { cursor:pointer; }
	#frames > *:hover { stroke:black; stroke-width:0.5; cursor:pointer; }
	.hide { display:none; }
	.parent { opacity:0.5; }
</style>
<script type="text/ecmascript">
<![CDATA[
	"use strict";
	var details, searchbtn, unzoombtn, matchedtxt, svg, searching;
	function init(evt) {
		details = document.getElementById("details").firstChild;
		searchbtn = document.getElementById("search");
		unzoombtn = document.getElementById("unzoom");
		matchedtxt = document.getElementById("matched");
		svg = document.getElementsByTagName("svg")[0];
		searching = 0;
	}

	window.addEventListener("click", function(e) {
		var target = find_group(e.target);
		if (target) {
			if (target.nodeName == "a") {
				if (e.ctrlKey === false) return;
				e.preventDefault();
			}
			if (target.classList.contains("parent")) unzoom();
			zoom(target);
		}
		else if (e.target.id == "unzoom") unzoom();
		else if (e.target.id == "search") search_prompt();
	}, false)

	// mouse-over for info
	// show
	window.addEventListener("mouseover", function(e) {
		var target = find_group(e.target);
		if (target) details.nodeValue = "Function: " + g_to_text(target);
	}, false)

	// clear
	window.addEventListener("mouseout", function(e) {
		var target = find_group(e.target);
		if (target) details.nodeValue = ' ';
	}, false)

	// ctrl-F for search
	window.addEventListener("keydown",function (e) {
		if (e.keyCode === 114 || (e.ctrlKey && e.keyCode === 70)) {
			e.preventDefault();
			search_prompt();
		}
	}, false)

	// functions
	function find_child(node, selector) {
		var children = node.querySelectorAll(selector);
		if (children.length) return children[0];
		return;
	}
	function find_group(node) {
		var parent = node.parentElement;
		if (!parent) return;
		if (parent.id == "frames") return node;
		return find_group(parent);
	}
	function orig_save(e, attr, val) {
		if (e.attributes["_orig_" + attr] != undefined) return;
		if (e.attributes[attr] == undefined) return;
		if (val == undefined) val = e.attributes[attr].value;
		e.setAttribute("_orig_" + attr, val);
	}
	function orig_load(e, attr) {
		if (e.attributes["_orig_"+attr] == undefined) return;
		e.attributes[attr].value = e.attributes["_orig_" + attr].value;
		e.removeAttribute("_orig_"+attr);
	}
	function g_to_text(e) {
		var text = find_child(e, "title").firstChild.nodeValue;
		return (text)
	}
	function g_to_func(e) {
		var func = g_to_text(e);
		// if there's any manipulation we want to do to the function
		// name before it's searched, do it here before returning.
		return (func);
	}
	function update_text(e) {
		var r = find_child(e, "rect");
		var t = find_child(e, "text");
		var w = parseFloat(r.attributes.width.value) -3;
		var txt = find_child(e, "title").textContent.replace(/\([^(]*\)$/,"");
		t.attributes.x.value = parseFloat(r.attributes.x.value) + 3;

		// Smaller than this size won't fit anything
		if (w < 2 * 12 * 0.59) {
			t.textContent = "";
			return;
		}

		t.textContent = txt;
		// Fit in full text width
		if (/^ *$/.test(txt) || t.getSubStringLength(0, txt.length) < w)
			return;

		for (var x = txt.length - 2; x > 0; x--) {
			if (t.getSubStringLength(0, x + 2) <= w) {
				t.textContent = txt.substring(0, x) + "..";
				return;
			}
		}
		t.textContent = "";
	}

	// zoom
	function zoom_reset(e) {
		if (e.attributes != undefined) {
			orig_load(e, "x");
			orig_load(e, "width");
		}
		if (e.childNodes == undefined) return;
		for (var i = 0, c = e.childNodes; i < c.length; i++) {
			zoom_reset(c[i]);
		}
	}
	function zoom_child(e, x, ratio) {
		if (e.attributes != undefined) {
			if (e.attributes.x != undefined) {
				orig_save(e, "x");
				e.attributes.x.value = (parseFloat(e.attributes.x.value) - x - 10) * ratio + 10;
				if (e.tagName == "text")
					e.attributes.x.value = find_child(e.parentNode, "rect[x]").attributes.x.value + 3;
			}
			if (e.attributes.width != undefined) {
				orig_save(e, "width");
				e.attributes.width.value = parseFloat(e.attributes.width.value) * ratio;
			}
		}

		if (e.childNodes == undefined) return;
		for (var i = 0, c = e.childNodes; i < c.length; i++) {
			zoom_child(c[i], x - 10, ratio);
		}
	}
	function zoom_parent(e) {
		if (e.attributes) {
			if (e.attributes.x != undefined) {
				orig_save(e, "x");
				e.attributes.x.value = 10;
			}
			if (e.attributes.width != undefined) {
				orig_save(e, "width");
				e.attributes.width.value = parseInt(svg.width.baseVal.value) - (10 * 2);
			}
		}
		if (e.childNodes == undefined) return;
		for (var i = 0, c = e.childNodes; i < c.length; i++) {
			zoom_parent(c[i]);
		}
	}
	function zoom(node) {
		var attr = find_child(node, "rect").attributes;
		var width = parseFloat(attr.width.value);
		var xmin = parseFloat(attr.x.value);
		var xmax = parseFloat(xmin + width);
		var ymin = parseFloat(attr.y.value);
		var ratio = (svg.width.baseVal.value - 2 * 10) / width;

		// XXX: Workaround for JavaScript float issues (fix me)
		var fudge = 0.0001;

		unzoombtn.classList.remove("hide");

		var el = document.getElementById("frames").children;
		for (var i = 0; i < el.length; i++) {
			var e = el[i];
			var a = find_child(e, "rect").attributes;
			var ex = parseFloat(a.x.value);
			var ew = parseFloat(a.width.value);
			var upstack;
			// Is it an ancestor
			if (0 == 0) {
				upstack = parseFloat(a.y.value) > ymin;
			} else {
				upstack = parseFloat(a.y.value) < ymin;
			}
			if (upstack) {
				// Direct ancestor
				if (ex <= xmin && (ex+ew+fudge) >= xmax) {
					e.classList.add("parent");
					zoom_parent(e);
					update_text(e);
				}
				// not in current path
				else
					e.classList.add("hide");
			}
			// Children maybe
			else {
				// no common path
				if (ex < xmin || ex + fudge >= xmax) {
					e.classList.add("hide");
				}
				else {
					zoom_child(e, xmin, ratio);
					update_text(e);
				}
			}
		}
	}
	function unzoom() {
		unzoombtn.classList.add("hide");
		var el = document.getElementById("frames").children;
		for(var i = 0; i < el.length; i++) {
			el[i].classList.remove("parent");
			el[i].classList.remove("hide");
			zoom_reset(el[i]);
			update_text(el[i]);
		}
	}

	// search
	function reset_search() {
		var el = document.querySelectorAll("#frames rect");
		for (var i = 0; i < el.length; i++) {
			orig_load(el[i], "fill")
		}
	}
	function search_prompt() {
		if (!searching) {
			var term = prompt("Enter a search term (regexp " +
			    "allowed, eg: ^ext4_)", "");
			if (term != null) {
				search(term)
			}
		} else {
			reset_search();
			searching = 0;
			searchbtn.classList.remove("show");
			searchbtn.firstChild.nodeValue = "Search"
			matchedtxt.classList.add("hide");
			matchedtxt.firstChild.nodeValue = ""
		}
	}
	function search(term) {
		var re = new RegExp(term);
		var el = document.getElementById("frames").children;
		var matches = new Object();
		var maxwidth = 0;
		for (var i = 0; i < el.length; i++) {
			var e = el[i];
			var func = g_to_func(e);
			var rect = find_child(e, "rect");
			if (func == null || rect == null)
				continue;

			// Save max width. Only works as we have a root frame
			var w = parseFloat(rect.attributes.width.value);
			if (w > maxwidth)
				maxwidth = w;

			if (func.match(re)) {
				// highlight
				var x = parseFloat(rect.attributes.x.value);
				orig_save(rect, "fill");
				rect.attributes.fill.value = "rgb(230,0,230)";

				// remember matches
				if (matches[x] == undefined) {
					matches[x] = w;
				} else {
					if (w > matches[x]) {
						// overwrite with parent
						matches[x] = w;
					}
				}
				searching = 1;
			}
		}
		if (!searching)
			return;

		searchbtn.classList.add("show");
		searchbtn.firstChild.nodeValue = "Reset Search";

		// calculate percent matched, excluding vertical overlap
		var count = 0;
		var lastx = -1;
		var lastw = 0;
		var keys = Array();
		for (k in matches) {
			if (matches.hasOwnProperty(k))
				keys.push(k);
		}
		// sort the matched frames by their x location
		// ascending, then width descending
		keys.sort(function(a, b){
			return a - b;
		});
		// Step through frames saving only the biggest bottom-up frames
		// thanks to the sort order. This relies on the tree property
		// where children are always smaller than their parents.
		var fudge = 0.0001;	// JavaScript floating point
		for (var k in keys) {
			var x = parseFloat(keys[k]);
			var w = matches[keys[k]];
			if (x >= lastx + lastw - fudge) {
				count += w;
				lastx = x;
				lastw = w;
			}
		}
		// display matched percent
		matchedtxt.classList.remove("hide");
		var pct = 100 * count / maxwidth;
		if (pct != 100) pct = pct.toFixed(1)
		matchedtxt.firstChild.nodeValue = "Matched: " + pct + "%";
	}
]]>
</script>
<rect x="0" y="0" width="100%" height="100%" fill="rgb(240,240,220)"/>
<text id="title" x="600" y="24">Flame Graph</text>
<text id="details" x="10" y="533"> </text>
<text id="unzoom" x="10" y="24" class="hide">Reset Zoom</text>
<text id="search" x="1090" y="24">Search</text>
<text id="matched" x="1090" y="533"> </text>
<g id="frames">
<g>
<title>all (246 samples, 100.00%)</title><rect x="10.0" y="499.0" width="1180.0" height="15" fill="#ef6d6d" rx="2" ry="2"/>
<text x="13.0" y="510.0">all</text>
</g>
<g>
<title>one/nio/server/SelectorThread.run (246 samples, 100.00%)</title><rect x="10.0" y="483.0" width="1180.0" height="15" fill="#54e554" rx="2" ry="2"/>
<text x="13.0" y="494.0">one/nio/server/SelectorThread.run</text>
</g>
<g>
<title>one/nio/net/NativeSelector.select (3 samples, 1.22%)</title><rect x="10.0" y="467.0" width="14.4" height="15" fill="#68f968" rx="2" ry="2"/>
<text x="13.0" y="478.0"></text>
</g>
<g>
<title>one.nio.net.NativeSelector$2 (3 samples, 1.22%)</title><rect x="10.0" y="451.0" width="14.4" height="15" fill="#6ad8d8" rx="2" ry="2"/>
<text x="13.0" y="462.0"></text>
</g>
<g>
<title>one/nio/net/Session.process (243 samples, 98.78%)</title><rect x="24.4" y="467.0" width="1165.6" height="15" fill="#52e352" rx="2" ry="2"/>
<text x="27.4" y="478.0">one/nio/net/Session.process</text>
</g>
<g>
<title>one/nio/http/HttpSession.processRead (243 samples, 98.78%)</title><rect x="24.4" y="451.0" width="1165.6" height="15" fill="#63f463" rx="2" ry="2"/>
<text x="27.4" y="462.0">one/nio/http/HttpSession.processRead</text>
</g>
<g>
<title>one/nio/http/HttpSession.processHttpBuffer (243 samples, 98.78%)</title><rect x="24.4" y="435.0" width="1165.6" height="15" fill="#57e857" rx="2" ry="2"/>
<text x="27.4" y="446.0">one/nio/http/HttpSession.processHttpBuffer</text>
</g>
<g>
<title>one/nio/http/HttpSession.handleParsedRequest (187 samples, 76.02%)</title><rect x="24.4" y="419.0" width="897.0" height="15" fill="#62f362" rx="2" ry="2"/>
<text x="27.4" y="430.0">one/nio/http/HttpSession.handleParsedRequest</text>
</g>
<g>
<title>one/nio/http/HttpServer.handleRequest (187 samples, 76.02%)</title><rect x="24.4" y="403.0" width="897.0" height="15" fill="#56e756" rx="2" ry="2"/>
<text x="27.4" y="414.0">one/nio/http/HttpServer.handleRequest</text>
</g>
<g>
<title>RequestHandler1_response.handleRequest (181 samples, 73.58%)</title><rect x="24.4" y="387.0" width="868.2" height="15" fill="#65f665" rx="2" ry="2"/>
<text x="27.4" y="398.0">RequestHandler1_response.handleRequest</text>
</g>
<g>
<title>one/nio/http/HttpSession.sendResponse (4 samples, 1.63%)</title><rect x="24.4" y="371.0" width="19.2" height="15" fill="#59ea59" rx="2" ry="2"/>
<text x="27.4" y="382.0"></text>
</g>
<g>
<title>one/nio/http/HttpSession.writeResponse (4 samples, 1.63%)</title><rect x="24.4" y="355.0" width="19.2" height="15" fill="#59ea59" rx="2" ry="2"/>
<text x="27.4" y="366.0"></text>
</g>
<g>
<title>one/nio/http/Response.toBytes (2 samples, 0.81%)</title><rect x="24.4" y="339.0" width="9.6" height="15" fill="#56e756" rx="2" ry="2"/>
<text x="27.4" y="350.0"></text>
</g>
<g>
<title>one/nio/util/ByteArrayBuilder.&lt;init&gt; (2 samples, 0.81%)</title><rect x="24.4" y="323.0" width="9.6" height="15" fill="#52e352" rx="2" ry="2"/>
<text x="27.4" y="334.0"></text>
</g>
<g>
<title>byte[] (2 samples, 0.81%)</title><rect x="24.4" y="307.0" width="9.6" height="15" fill="#62d0d0" rx="2" ry="2"/>
<text x="27.4" y="318.0"></text>
</g>
<g>
<title>one/nio/net/Session.write (2 samples, 0.81%)</title><rect x="34.0" y="339.0" width="9.6" height="15" fill="#56e756" rx="2" ry="2"/>
<text x="37.0" y="350.0"></text>
</g>
<g>
<title>one.nio.net.Session$ArrayQueueItem (2 samples, 0.81%)</title><rect x="34.0" y="323.0" width="9.6" height="15" fill="#63d1d1" rx="2" ry="2"/>
<text x="37.0" y="334.0"></text>
</g>
<g>
<title>one/nio/http/Request.getRequiredParameter (5 samples, 2.03%)</title><rect x="43.6" y="371.0" width="24.0" height="15" fill="#5ff05f" rx="2" ry="2"/>
<text x="46.6" y="382.0">o..</text>
</g>
<g>
<title>one/nio/http/Request.getParameter (5 samples, 2.03%)</title><rect x="43.6" y="355.0" width="24.0" height="15" fill="#6dfe6d" rx="2" ry="2"/>
<text x="46.6" y="366.0">o..</text>
</g>
<g>
<title>java/lang/String.substring (5 samples, 2.03%)</title><rect x="43.6" y="339.0" width="24.0" height="15" fill="#58e958" rx="2" ry="2"/>
<text x="46.6" y="350.0">j..</text>
</g>
<g>
<title>java/lang/StringLatin1.newString (5 samples, 2.03%)</title><rect x="43.6" y="323.0" width="24.0" height="15" fill="#60f160" rx="2" ry="2"/>
<text x="46.6" y="334.0">j..</text>
</g>
<g>
<title>java.lang.String (3 samples, 1.22%)</title><rect x="43.6" y="307.0" width="14.4" height="15" fill="#65d3d3" rx="2" ry="2"/>
<text x="46.6" y="318.0"></text>
</g>
<g>
<title>java/util/Arrays.copyOfRange (2 samples, 0.81%)</title><rect x="58.0" y="307.0" width="9.6" height="15" fill="#53e453" rx="2" ry="2"/>
<text x="61.0" y="318.0"></text>
</g>
<g>
<title>byte[] (2 samples, 0.81%)</title><rect x="58.0" y="291.0" width="9.6" height="15" fill="#5ecccc" rx="2" ry="2"/>
<text x="61.0" y="302.0"></text>
</g>
<g>
<title>ru/mail/polis/service/mrsandman5/ServiceImpl.response (172 samples, 69.92%)</title><rect x="67.6" y="371.0" width="825.0" height="15" fill="#61f261" rx="2" ry="2"/>
<text x="70.6" y="382.0">ru/mail/polis/service/mrsandman5/ServiceImpl.response</text>
</g>
<g>
<title>ch/qos/logback/classic/Logger.debug (136 samples, 55.28%)</title><rect x="67.6" y="355.0" width="652.3" height="15" fill="#6cfd6c" rx="2" ry="2"/>
<text x="70.6" y="366.0">ch/qos/logback/classic/Logger.debug</text>
</g>
<g>
<title>ch/qos/logback/classic/Logger.filterAndLog_1 (136 samples, 55.28%)</title><rect x="67.6" y="339.0" width="652.3" height="15" fill="#5dee5d" rx="2" ry="2"/>
<text x="70.6" y="350.0">ch/qos/logback/classic/Logger.filterAndLog_1</text>
</g>
<g>
<title>ch/qos/logback/classic/Logger.buildLoggingEventAndAppend (135 samples, 54.88%)</title><rect x="67.6" y="323.0" width="647.5" height="15" fill="#5aeb5a" rx="2" ry="2"/>
<text x="70.6" y="334.0">ch/qos/logback/classic/Logger.buildLoggingEventAndAppend</text>
</g>
<g>
<title>ch.qos.logback.classic.spi.LoggingEvent (3 samples, 1.22%)</title><rect x="67.6" y="307.0" width="14.4" height="15" fill="#69d7d7" rx="2" ry="2"/>
<text x="70.6" y="318.0"></text>
</g>
<g>
<title>ch/qos/logback/classic/Logger.callAppenders (132 samples, 53.66%)</title><rect x="82.0" y="307.0" width="633.1" height="15" fill="#5dee5d" rx="2" ry="2"/>
<text x="85.0" y="318.0">ch/qos/logback/classic/Logger.callAppenders</text>
</g>
<g>
<title>ch/qos/logback/classic/Logger.appendLoopOnAppenders (132 samples, 53.66%)</title><rect x="82.0" y="291.0" width="633.1" height="15" fill="#50e150" rx="2" ry="2"/>
<text x="85.0" y="302.0">ch/qos/logback/classic/Logger.appendLoopOnAppenders</text>
</g>
<g>
<title>ch/qos/logback/core/spi/AppenderAttachableImpl.appendLoopOnAppenders (132 samples, 53.66%)</title><rect x="82.0" y="275.0" width="633.1" height="15" fill="#5aeb5a" rx="2" ry="2"/>
<text x="85.0" y="286.0">ch/qos/logback/core/spi/AppenderAttachableImpl.appendLoopOnAppenders</text>
</g>
<g>
<title>ch/qos/logback/core/UnsynchronizedAppenderBase.doAppend (132 samples, 53.66%)</title><rect x="82.0" y="259.0" width="633.1" height="15" fill="#61f261" rx="2" ry="2"/>
<text x="85.0" y="270.0">ch/qos/logback/core/UnsynchronizedAppenderBase.doAppend</text>
</g>
<g>
<title>ch/qos/logback/core/OutputStreamAppender.append (132 samples, 53.66%)</title><rect x="82.0" y="243.0" width="633.1" height="15" fill="#68f968" rx="2" ry="2"/>
<text x="85.0" y="254.0">ch/qos/logback/core/OutputStreamAppender.append</text>
</g>
<g>
<title>ch/qos/logback/core/OutputStreamAppender.subAppend (132 samples, 53.66%)</title><rect x="82.0" y="227.0" width="633.1" height="15" fill="#57e857" rx="2" ry="2"/>
<text x="85.0" y="238.0">ch/qos/logback/core/OutputStreamAppender.subAppend</text>
</g>
<g>
<title>ch/qos/logback/classic/spi/LoggingEvent.prepareForDeferredProcessing (27 samples, 10.98%)</title><rect x="82.0" y="211.0" width="129.5" height="15" fill="#64f564" rx="2" ry="2"/>
<text x="85.0" y="222.0">ch/qos/logback/c..</text>
</g>
<g>
<title>ch/qos/logback/classic/spi/LoggingEvent.getFormattedMessage (27 samples, 10.98%)</title><rect x="82.0" y="195.0" width="129.5" height="15" fill="#5eef5e" rx="2" ry="2"/>
<text x="85.0" y="206.0">ch/qos/logback/c..</text>
</g>
<g>
<title>org/slf4j/helpers/MessageFormatter.arrayFormat (27 samples, 10.98%)</title><rect x="82.0" y="179.0" width="129.5" height="15" fill="#5eef5e" rx="2" ry="2"/>
<text x="85.0" y="190.0">org/slf4j/helper..</text>
</g>
<g>
<title>org/slf4j/helpers/MessageFormatter.arrayFormat (27 samples, 10.98%)</title><rect x="82.0" y="163.0" width="129.5" height="15" fill="#59ea59" rx="2" ry="2"/>
<text x="85.0" y="174.0">org/slf4j/helper..</text>
</g>
<g>
<title>java.lang.StringBuilder (5 samples, 2.03%)</title><rect x="82.0" y="147.0" width="23.9" height="15" fill="#65d3d3" rx="2" ry="2"/>
<text x="85.0" y="158.0">j..</text>
</g>
<g>
<title>java.util.HashMap (5 samples, 2.03%)</title><rect x="105.9" y="147.0" width="24.0" height="15" fill="#55c3c3" rx="2" ry="2"/>
<text x="108.9" y="158.0">j..</text>
</g>
<g>
<title>java/lang/StringBuilder.&lt;init&gt; (6 samples, 2.44%)</title><rect x="129.9" y="147.0" width="28.8" height="15" fill="#62f362" rx="2" ry="2"/>
<text x="132.9" y="158.0">ja..</text>
</g>
<g>
<title>java/lang/AbstractStringBuilder.&lt;init&gt; (6 samples, 2.44%)</title><rect x="129.9" y="131.0" width="28.8" height="15" fill="#51e251" rx="2" ry="2"/>
<text x="132.9" y="142.0">ja..</text>
</g>
<g>
<title>byte[] (6 samples, 2.44%)</title><rect x="129.9" y="115.0" width="28.8" height="15" fill="#5ccaca" rx="2" ry="2"/>
<text x="132.9" y="126.0">by..</text>
</g>
<g>
<title>java/lang/StringBuilder.toString (10 samples, 4.07%)</title><rect x="158.7" y="147.0" width="48.0" height="15" fill="#64f564" rx="2" ry="2"/>
<text x="161.7" y="158.0">java..</text>
</g>
<g>
<title>java/lang/StringLatin1.newString (10 samples, 4.07%)</title><rect x="158.7" y="131.0" width="48.0" height="15" fill="#64f564" rx="2" ry="2"/>
<text x="161.7" y="142.0">java..</text>
</g>
<g>
<title>java.lang.String (1 samples, 0.41%)</title><rect x="158.7" y="115.0" width="4.8" height="15" fill="#63d1d1" rx="2" ry="2"/>
<text x="161.7" y="126.0"></text>
</g>
<g>
<title>java/util/Arrays.copyOfRange (9 samples, 3.66%)</title><rect x="163.5" y="115.0" width="43.2" height="15" fill="#5aeb5a" rx="2" ry="2"/>
<text x="166.5" y="126.0">java..</text>
</g>
<g>
<title>byte[] (9 samples, 3.66%)</title><rect x="163.5" y="99.0" width="43.2" height="15" fill="#55c3c3" rx="2" ry="2"/>
<text x="166.5" y="110.0">byte[]</text>
</g>
<g>
<title>org.slf4j.helpers.FormattingTuple (1 samples, 0.41%)</title><rect x="206.7" y="147.0" width="4.8" height="15" fill="#62d0d0" rx="2" ry="2"/>
<text x="209.7" y="158.0"></text>
</g>
<g>
<title>ch/qos/logback/core/encoder/LayoutWrappingEncoder.encode (105 samples, 42.68%)</title><rect x="211.5" y="211.0" width="503.6" height="15" fill="#62f362" rx="2" ry="2"/>
<text x="214.5" y="222.0">ch/qos/logback/core/encoder/LayoutWrappingEncoder.encode</text>
</g>
<g>
<title>ch/qos/logback/classic/PatternLayout.doLayout (98 samples, 39.84%)</title><rect x="211.5" y="195.0" width="470.0" height="15" fill="#65f665" rx="2" ry="2"/>
<text x="214.5" y="206.0">ch/qos/logback/classic/PatternLayout.doLayout</text>
</g>
<g>
<title>ch/qos/logback/classic/PatternLayout.doLayout (98 samples, 39.84%)</title><rect x="211.5" y="179.0" width="470.0" height="15" fill="#59ea59" rx="2" ry="2"/>
<text x="214.5" y="190.0">ch/qos/logback/classic/PatternLayout.doLayout</text>
</g>
<g>
<title>ch/qos/logback/core/pattern/PatternLayoutBase.writeLoopOnConverters (98 samples, 39.84%)</title><rect x="211.5" y="163.0" width="470.0" height="15" fill="#66f766" rx="2" ry="2"/>
<text x="214.5" y="174.0">ch/qos/logback/core/pattern/PatternLayoutBase.writeLoopOnConverters</text>
</g>
<g>
<title>ch/qos/logback/core/pattern/FormattingConverter.write (70 samples, 28.46%)</title><rect x="211.5" y="147.0" width="335.7" height="15" fill="#56e756" rx="2" ry="2"/>
<text x="214.5" y="158.0">ch/qos/logback/core/pattern/FormattingConvert..</text>
</g>
<g>
<title>ch/qos/logback/classic/pattern/DateConverter.convert (4 samples, 1.63%)</title><rect x="211.5" y="131.0" width="19.2" height="15" fill="#6bfc6b" rx="2" ry="2"/>
<text x="214.5" y="142.0"></text>
</g>
<g>
<title>ch/qos/logback/classic/pattern/DateConverter.convert (4 samples, 1.63%)</title><rect x="211.5" y="115.0" width="19.2" height="15" fill="#64f564" rx="2" ry="2"/>
<text x="214.5" y="126.0"></text>
</g>
<g>
<title>ch/qos/logback/core/util/CachingDateFormatter.format (4 samples, 1.63%)</title><rect x="211.5" y="99.0" width="19.2" height="15" fill="#63f463" rx="2" ry="2"/>
<text x="214.5" y="110.0"></text>
</g>
<g>
<title>java.util.Date (2 samples, 0.81%)</title><rect x="211.5" y="83.0" width="9.6" height="15" fill="#57c5c5" rx="2" ry="2"/>
<text x="214.5" y="94.0"></text>
</g>
<g>
<title>java/text/DateFormat.format (2 samples, 0.81%)</title><rect x="221.1" y="83.0" width="9.6" height="15" fill="#5ff05f" rx="2" ry="2"/>
<text x="224.1" y="94.0"></text>
</g>
<g>
<title>java/lang/StringBuffer.&lt;init&gt; (1 samples, 0.41%)</title><rect x="221.1" y="67.0" width="4.8" height="15" fill="#52e352" rx="2" ry="2"/>
<text x="224.1" y="78.0"></text>
</g>
<g>
<title>java/lang/AbstractStringBuilder.&lt;init&gt; (1 samples, 0.41%)</title><rect x="221.1" y="51.0" width="4.8" height="15" fill="#57e857" rx="2" ry="2"/>
<text x="224.1" y="62.0"></text>
</g>
<g>
<title>byte[] (1 samples, 0.41%)</title><rect x="221.1" y="35.0" width="4.8" height="15" fill="#6ad8d8" rx="2" ry="2"/>
<text x="224.1" y="46.0"></text>
</g>
<g>
<title>java/lang/StringBuffer.toString (1 samples, 0.41%)</title><rect x="225.9" y="67.0" width="4.8" height="15" fill="#64f564" rx="2" ry="2"/>
<text x="228.9" y="78.0"></text>
</g>
<g>
<title>java/lang/StringLatin1.newString (1 samples, 0.41%)</title><rect x="225.9" y="51.0" width="4.8" height="15" fill="#52e352" rx="2" ry="2"/>
<text x="228.9" y="62.0"></text>
</g>
<g>
<title>java.lang.String (1 samples, 0.41%)</title><rect x="225.9" y="35.0" width="4.8" height="15" fill="#53c1c1" rx="2" ry="2"/>
<text x="228.9" y="46.0"></text>
</g>
<g>
<title>ch/qos/logback/classic/pattern/NamedConverter.convert (66 samples, 26.83%)</title><rect x="230.7" y="131.0" width="316.5" height="15" fill="#5aeb5a" rx="2" ry="2"/>
<text x="233.7" y="142.0">ch/qos/logback/classic/pattern/NamedConvert..</text>
</g>
<g>
<title>ch/qos/logback/classic/pattern/NamedConverter.convert (66 samples, 26.83%)</title><rect x="230.7" y="115.0" width="316.5" height="15" fill="#61f261" rx="2" ry="2"/>
<text x="233.7" y="126.0">ch/qos/logback/classic/pattern/NamedConvert..</text>
</g>
<g>
<title>ch/qos/logback/classic/pattern/TargetLengthBasedClassNameAbbreviator.abbreviate (66 samples, 26.83%)</title><rect x="230.7" y="99.0" width="316.5" height="15" fill="#61f261" rx="2" ry="2"/>
<text x="233.7" y="110.0">ch/qos/logback/classic/pattern/TargetLength..</text>
</g>
<g>
<title>int[] (24 samples, 9.76%)</title><rect x="230.7" y="83.0" width="115.1" height="15" fill="#63d1d1" rx="2" ry="2"/>
<text x="233.7" y="94.0">int[]</text>
</g>
<g>
<title>java.lang.StringBuilder (2 samples, 0.81%)</title><rect x="345.8" y="83.0" width="9.6" height="15" fill="#58c6c6" rx="2" ry="2"/>
<text x="348.8" y="94.0"></text>
</g>
<g>
<title>java/lang/String.substring (27 samples, 10.98%)</title><rect x="355.4" y="83.0" width="129.5" height="15" fill="#67f867" rx="2" ry="2"/>
<text x="358.4" y="94.0">java/lang/String..</text>
</g>
<g>
<title>java/lang/StringLatin1.newString (27 samples, 10.98%)</title><rect x="355.4" y="67.0" width="129.5" height="15" fill="#58e958" rx="2" ry="2"/>
<text x="358.4" y="78.0">java/lang/String..</text>
</g>
<g>
<title>java.lang.String (9 samples, 3.66%)</title><rect x="355.4" y="51.0" width="43.1" height="15" fill="#59c7c7" rx="2" ry="2"/>
<text x="358.4" y="62.0">java..</text>
</g>
<g>
<title>java/util/Arrays.copyOfRange (18 samples, 7.32%)</title><rect x="398.5" y="51.0" width="86.4" height="15" fill="#55e655" rx="2" ry="2"/>
<text x="401.5" y="62.0">java/util/..</text>
</g>
<g>
<title>byte[] (18 samples, 7.32%)</title><rect x="398.5" y="35.0" width="86.4" height="15" fill="#6ddbdb" rx="2" ry="2"/>
<text x="401.5" y="46.0">byte[]</text>
</g>
<g>
<title>java/lang/StringBuilder.&lt;init&gt; (7 samples, 2.85%)</title><rect x="484.9" y="83.0" width="33.6" height="15" fill="#50e150" rx="2" ry="2"/>
<text x="487.9" y="94.0">ja..</text>
</g>
<g>
<title>java/lang/AbstractStringBuilder.&lt;init&gt; (7 samples, 2.85%)</title><rect x="484.9" y="67.0" width="33.6" height="15" fill="#68f968" rx="2" ry="2"/>
<text x="487.9" y="78.0">ja..</text>
</g>
<g>
<title>byte[] (7 samples, 2.85%)</title><rect x="484.9" y="51.0" width="33.6" height="15" fill="#59c7c7" rx="2" ry="2"/>
<text x="487.9" y="62.0">by..</text>
</g>
<g>
<title>java/lang/StringBuilder.toString (6 samples, 2.44%)</title><rect x="518.5" y="83.0" width="28.7" height="15" fill="#55e655" rx="2" ry="2"/>
<text x="521.5" y="94.0">ja..</text>
</g>
<g>
<title>java/lang/StringLatin1.newString (6 samples, 2.44%)</title><rect x="518.5" y="67.0" width="28.7" height="15" fill="#5dee5d" rx="2" ry="2"/>
<text x="521.5" y="78.0">ja..</text>
</g>
<g>
<title>java/util/Arrays.copyOfRange (6 samples, 2.44%)</title><rect x="518.5" y="51.0" width="28.7" height="15" fill="#6cfd6c" rx="2" ry="2"/>
<text x="521.5" y="62.0">ja..</text>
</g>
<g>
<title>byte[] (6 samples, 2.44%)</title><rect x="518.5" y="35.0" width="28.7" height="15" fill="#6bd9d9" rx="2" ry="2"/>
<text x="521.5" y="46.0">by..</text>
</g>
<g>
<title>java.lang.StringBuilder (1 samples, 0.41%)</title><rect x="547.2" y="147.0" width="4.8" height="15" fill="#66d4d4" rx="2" ry="2"/>
<text x="550.2" y="158.0"></text>
</g>
<g>
<title>java/lang/StringBuilder.&lt;init&gt; (13 samples, 5.28%)</title><rect x="552.0" y="147.0" width="62.4" height="15" fill="#64f564" rx="2" ry="2"/>
<text x="555.0" y="158.0">java/l..</text>
</g>
<g>
<title>java/lang/AbstractStringBuilder.&lt;init&gt; (13 samples, 5.28%)</title><rect x="552.0" y="131.0" width="62.4" height="15" fill="#53e453" rx="2" ry="2"/>
<text x="555.0" y="142.0">java/l..</text>
</g>
<g>
<title>byte[] (13 samples, 5.28%)</title><rect x="552.0" y="115.0" width="62.4" height="15" fill="#64d2d2" rx="2" ry="2"/>
<text x="555.0" y="126.0">byte[]</text>
</g>
<g>
<title>java/lang/StringBuilder.toString (14 samples, 5.69%)</title><rect x="614.4" y="147.0" width="67.1" height="15" fill="#5bec5b" rx="2" ry="2"/>
<text x="617.4" y="158.0">java/la..</text>
</g>
<g>
<title>java/lang/StringLatin1.newString (14 samples, 5.69%)</title><rect x="614.4" y="131.0" width="67.1" height="15" fill="#67f867" rx="2" ry="2"/>
<text x="617.4" y="142.0">java/la..</text>
</g>
<g>
<title>java.lang.String (4 samples, 1.63%)</title><rect x="614.4" y="115.0" width="19.2" height="15" fill="#6cdada" rx="2" ry="2"/>
<text x="617.4" y="126.0"></text>
</g>
<g>
<title>java/util/Arrays.copyOfRange (10 samples, 4.07%)</title><rect x="633.6" y="115.0" width="47.9" height="15" fill="#6bfc6b" rx="2" ry="2"/>
<text x="636.6" y="126.0">java..</text>
</g>
<g>
<title>byte[] (10 samples, 4.07%)</title><rect x="633.6" y="99.0" width="47.9" height="15" fill="#69d7d7" rx="2" ry="2"/>
<text x="636.6" y="110.0">byte[]</text>
</g>
<g>
<title>ch/qos/logback/core/encoder/LayoutWrappingEncoder.convertToBytes (7 samples, 2.85%)</title><rect x="681.5" y="195.0" width="33.6" height="15" fill="#56e756" rx="2" ry="2"/>
<text x="684.5" y="206.0">ch..</text>
</g>
<g>
<title>java/lang/String.getBytes (7 samples, 2.85%)</title><rect x="681.5" y="179.0" width="33.6" height="15" fill="#67f867" rx="2" ry="2"/>
<text x="684.5" y="190.0">ja..</text>
</g>
<g>
<title>java/lang/StringCoding.encode (7 samples, 2.85%)</title><rect x="681.5" y="163.0" width="33.6" height="15" fill="#60f160" rx="2" ry="2"/>
<text x="684.5" y="174.0">ja..</text>
</g>
<g>
<title>java/lang/StringCoding.encodeUTF8 (7 samples, 2.85%)</title><rect x="681.5" y="147.0" width="33.6" height="15" fill="#58e958" rx="2" ry="2"/>
<text x="684.5" y="158.0">ja..</text>
</g>
<g>
<title>java/util/Arrays.copyOf (7 samples, 2.85%)</title><rect x="681.5" y="131.0" width="33.6" height="15" fill="#6bfc6b" rx="2" ry="2"/>
<text x="684.5" y="142.0">ja..</text>
</g>
<g>
<title>byte[] (7 samples, 2.85%)</title><rect x="681.5" y="115.0" width="33.6" height="15" fill="#6bd9d9" rx="2" ry="2"/>
<text x="684.5" y="126.0">by..</text>
</g>
<g>
<title>java.lang.Object[] (1 samples, 0.41%)</title><rect x="715.1" y="323.0" width="4.8" height="15" fill="#6ad8d8" rx="2" ry="2"/>
<text x="718.1" y="334.0"></text>
</g>
<g>
<title>java/lang/String.getBytes (5 samples, 2.03%)</title><rect x="719.9" y="355.0" width="24.0" height="15" fill="#5eef5e" rx="2" ry="2"/>
<text x="722.9" y="366.0">j..</text>
</g>
<g>
<title>java/lang/StringCoding.encode (5 samples, 2.03%)</title><rect x="719.9" y="339.0" width="24.0" height="15" fill="#61f261" rx="2" ry="2"/>
<text x="722.9" y="350.0">j..</text>
</g>
<g>
<title>java/lang/StringCoding.encodeUTF8 (5 samples, 2.03%)</title><rect x="719.9" y="323.0" width="24.0" height="15" fill="#54e554" rx="2" ry="2"/>
<text x="722.9" y="334.0">j..</text>
</g>
<g>
<title>java/util/Arrays.copyOf (5 samples, 2.03%)</title><rect x="719.9" y="307.0" width="24.0" height="15" fill="#58e958" rx="2" ry="2"/>
<text x="722.9" y="318.0">j..</text>
</g>
<g>
<title>byte[] (5 samples, 2.03%)</title><rect x="719.9" y="291.0" width="24.0" height="15" fill="#69d7d7" rx="2" ry="2"/>
<text x="722.9" y="302.0">b..</text>
</g>
<g>
<title>java/nio/ByteBuffer.wrap (6 samples, 2.44%)</title><rect x="743.9" y="355.0" width="28.8" height="15" fill="#5eef5e" rx="2" ry="2"/>
<text x="746.9" y="366.0">ja..</text>
</g>
<g>
<title>java/nio/ByteBuffer.wrap (6 samples, 2.44%)</title><rect x="743.9" y="339.0" width="28.8" height="15" fill="#5dee5d" rx="2" ry="2"/>
<text x="746.9" y="350.0">ja..</text>
</g>
<g>
<title>java.nio.HeapByteBuffer (6 samples, 2.44%)</title><rect x="743.9" y="323.0" width="28.8" height="15" fill="#69d7d7" rx="2" ry="2"/>
<text x="746.9" y="334.0">ja..</text>
</g>
<g>
<title>ru/mail/polis/service/mrsandman5/ServiceImpl.put (25 samples, 10.16%)</title><rect x="772.7" y="355.0" width="119.9" height="15" fill="#5eef5e" rx="2" ry="2"/>
<text x="775.7" y="366.0">ru/mail/polis/s..</text>
</g>
<g>
<title>java/nio/ByteBuffer.wrap (6 samples, 2.44%)</title><rect x="772.7" y="339.0" width="28.8" height="15" fill="#58e958" rx="2" ry="2"/>
<text x="775.7" y="350.0">ja..</text>
</g>
<g>
<title>java/nio/ByteBuffer.wrap (6 samples, 2.44%)</title><rect x="772.7" y="323.0" width="28.8" height="15" fill="#55e655" rx="2" ry="2"/>
<text x="775.7" y="334.0">ja..</text>
</g>
<g>
<title>java.nio.HeapByteBuffer (6 samples, 2.44%)</title><rect x="772.7" y="307.0" width="28.8" height="15" fill="#64d2d2" rx="2" ry="2"/>
<text x="775.7" y="318.0">ja..</text>
</g>
<g>
<title>one.nio.http.Response (3 samples, 1.22%)</title><rect x="801.5" y="339.0" width="14.4" height="15" fill="#65d3d3" rx="2" ry="2"/>
<text x="804.5" y="350.0"></text>
</g>
<g>
<title>one/nio/http/Response.&lt;init&gt; (9 samples, 3.66%)</title><rect x="815.9" y="339.0" width="43.1" height="15" fill="#54e554" rx="2" ry="2"/>
<text x="818.9" y="350.0">one/..</text>
</g>
<g>
<title>byte[] (4 samples, 1.63%)</title><rect x="815.9" y="323.0" width="19.1" height="15" fill="#62d0d0" rx="2" ry="2"/>
<text x="818.9" y="334.0"></text>
</g>
<g>
<title>java.lang.String[] (2 samples, 0.81%)</title><rect x="835.0" y="323.0" width="9.6" height="15" fill="#5ecccc" rx="2" ry="2"/>
<text x="838.0" y="334.0"></text>
</g>
<g>
<title>java.lang.String (3 samples, 1.22%)</title><rect x="844.6" y="323.0" width="14.4" height="15" fill="#69d7d7" rx="2" ry="2"/>
<text x="847.6" y="334.0"></text>
</g>
<g>
<title>ru/mail/polis/dao/impl/DAOImpl.upsert (7 samples, 2.85%)</title><rect x="859.0" y="339.0" width="33.6" height="15" fill="#65f665" rx="2" ry="2"/>
<text x="862.0" y="350.0">ru..</text>
</g>
<g>
<title>ru/mail/polis/dao/impl/tables/MemTable.upsert (7 samples, 2.85%)</title><rect x="859.0" y="323.0" width="33.6" height="15" fill="#55e655" rx="2" ry="2"/>
<text x="862.0" y="334.0">ru..</text>
</g>
<g>
<title>java/nio/HeapByteBuffer.duplicate (5 samples, 2.03%)</title><rect x="859.0" y="307.0" width="24.0" height="15" fill="#56e756" rx="2" ry="2"/>
<text x="862.0" y="318.0">j..</text>
</g>
<g>
<title>java.nio.HeapByteBuffer (5 samples, 2.03%)</title><rect x="859.0" y="291.0" width="24.0" height="15" fill="#5ecccc" rx="2" ry="2"/>
<text x="862.0" y="302.0">j..</text>
</g>
<g>
<title>java/util/TreeMap.put (1 samples, 0.41%)</title><rect x="883.0" y="307.0" width="4.8" height="15" fill="#53e453" rx="2" ry="2"/>
<text x="886.0" y="318.0"></text>
</g>
<g>
<title>java.util.TreeMap$Entry (1 samples, 0.41%)</title><rect x="883.0" y="291.0" width="4.8" height="15" fill="#54c2c2" rx="2" ry="2"/>
<text x="886.0" y="302.0"></text>
</g>
<g>
<title>ru.mail.polis.dao.impl.models.Value (1 samples, 0.41%)</title><rect x="887.8" y="307.0" width="4.8" height="15" fill="#5ac8c8" rx="2" ry="2"/>
<text x="890.8" y="318.0"></text>
</g>
<g>
<title>one/nio/http/Request.getPath (6 samples, 2.44%)</title><rect x="892.6" y="387.0" width="28.8" height="15" fill="#59ea59" rx="2" ry="2"/>
<text x="895.6" y="398.0">on..</text>
</g>
<g>
<title>java/lang/String.substring (6 samples, 2.44%)</title><rect x="892.6" y="371.0" width="28.8" height="15" fill="#6bfc6b" rx="2" ry="2"/>
<text x="895.6" y="382.0">ja..</text>
</g>
<g>
<title>java/lang/StringLatin1.newString (6 samples, 2.44%)</title><rect x="892.6" y="355.0" width="28.8" height="15" fill="#6bfc6b" rx="2" ry="2"/>
<text x="895.6" y="366.0">ja..</text>
</g>
<g>
<title>java.lang.String (3 samples, 1.22%)</title><rect x="892.6" y="339.0" width="14.4" height="15" fill="#62d0d0" rx="2" ry="2"/>
<text x="895.6" y="350.0"></text>
</g>
<g>
<title>java/util/Arrays.copyOfRange (3 samples, 1.22%)</title><rect x="907.0" y="339.0" width="14.4" height="15" fill="#69fa69" rx="2" ry="2"/>
<text x="910.0" y="350.0"></text>
</g>
<g>
<title>byte[] (3 samples, 1.22%)</title><rect x="907.0" y="323.0" width="14.4" height="15" fill="#68d6d6" rx="2" ry="2"/>
<text x="910.0" y="334.0"></text>
</g>
<g>
<title>one/nio/http/HttpSession.parseRequest (27 samples, 10.98%)</title><rect x="921.4" y="419.0" width="129.5" height="15" fill="#5eef5e" rx="2" ry="2"/>
<text x="924.4" y="430.0">one/nio/http/Htt..</text>
</g>
<g>
<title>one.nio.http.Request (10 samples, 4.07%)</title><rect x="921.4" y="403.0" width="47.9" height="15" fill="#5ac8c8" rx="2" ry="2"/>
<text x="924.4" y="414.0">one...</text>
</g>
<g>
<title>one/nio/http/Request.&lt;init&gt; (3 samples, 1.22%)</title><rect x="969.3" y="403.0" width="14.4" height="15" fill="#5bec5b" rx="2" ry="2"/>
<text x="972.3" y="414.0"></text>
</g>
<g>
<title>java.lang.String[] (3 samples, 1.22%)</title><rect x="969.3" y="387.0" width="14.4" height="15" fill="#63d1d1" rx="2" ry="2"/>
<text x="972.3" y="398.0"></text>
</g>
<g>
<title>one/nio/util/Utf8.read (14 samples, 5.69%)</title><rect x="983.7" y="403.0" width="67.2" height="15" fill="#62f362" rx="2" ry="2"/>
<text x="986.7" y="414.0">one/nio..</text>
</g>
<g>
<title>one/nio/util/Utf8.read (14 samples, 5.69%)</title><rect x="983.7" y="387.0" width="67.2" height="15" fill="#57e857" rx="2" ry="2"/>
<text x="986.7" y="398.0">one/nio..</text>
</g>
<g>
<title>char[] (9 samples, 3.66%)</title><rect x="983.7" y="371.0" width="43.2" height="15" fill="#54c2c2" rx="2" ry="2"/>
<text x="986.7" y="382.0">char[]</text>
</g>
<g>
<title>java.lang.String (1 samples, 0.41%)</title><rect x="1026.9" y="371.0" width="4.8" height="15" fill="#52c0c0" rx="2" ry="2"/>
<text x="1029.9" y="382.0"></text>
</g>
<g>
<title>java/lang/String.&lt;init&gt; (4 samples, 1.63%)</title><rect x="1031.7" y="371.0" width="19.2" height="15" fill="#53e453" rx="2" ry="2"/>
<text x="1034.7" y="382.0"></text>
</g>
<g>
<title>java/lang/String.&lt;init&gt; (4 samples, 1.63%)</title><rect x="1031.7" y="355.0" width="19.2" height="15" fill="#63f463" rx="2" ry="2"/>
<text x="1034.7" y="366.0"></text>
</g>
<g>
<title>java/lang/StringUTF16.compress (4 samples, 1.63%)</title><rect x="1031.7" y="339.0" width="19.2" height="15" fill="#5aeb5a" rx="2" ry="2"/>
<text x="1034.7" y="350.0"></text>
</g>
<g>
<title>byte[] (4 samples, 1.63%)</title><rect x="1031.7" y="323.0" width="19.2" height="15" fill="#58c6c6" rx="2" ry="2"/>
<text x="1034.7" y="334.0"></text>
</g>
<g>
<title>one/nio/http/Request.getHeader (2 samples, 0.81%)</title><rect x="1050.9" y="419.0" width="9.6" height="15" fill="#59ea59" rx="2" ry="2"/>
<text x="1053.9" y="430.0"></text>
</g>
<g>
<title>java/lang/String.substring (2 samples, 0.81%)</title><rect x="1050.9" y="403.0" width="9.6" height="15" fill="#52e352" rx="2" ry="2"/>
<text x="1053.9" y="414.0"></text>
</g>
<g>
<title>java/lang/StringLatin1.newString (2 samples, 0.81%)</title><rect x="1050.9" y="387.0" width="9.6" height="15" fill="#5ced5c" rx="2" ry="2"/>
<text x="1053.9" y="398.0"></text>
</g>
<g>
<title>java.lang.String (2 samples, 0.81%)</title><rect x="1050.9" y="371.0" width="9.6" height="15" fill="#6cdada" rx="2" ry="2"/>
<text x="1053.9" y="382.0"></text>
</g>
<g>
<title>one/nio/util/Utf8.read (27 samples, 10.98%)</title><rect x="1060.5" y="419.0" width="129.5" height="15" fill="#61f261" rx="2" ry="2"/>
<text x="1063.5" y="430.0">one/nio/util/Utf..</text>
</g>
<g>
<title>one/nio/util/Utf8.read (27 samples, 10.98%)</title><rect x="1060.5" y="403.0" width="129.5" height="15" fill="#57e857" rx="2" ry="2"/>
<text x="1063.5" y="414.0">one/nio/util/Utf..</text>
</g>
<g>
<title>char[] (11 samples, 4.47%)</title><rect x="1060.5" y="387.0" width="52.8" height="15" fill="#63d1d1" rx="2" ry="2"/>
<text x="1063.5" y="398.0">char[]</text>
</g>
<g>
<title>java.lang.String (6 samples, 2.44%)</title><rect x="1113.3" y="387.0" width="28.7" height="15" fill="#66d4d4" rx="2" ry="2"/>
<text x="1116.3" y="398.0">ja..</text>
</g>
<g>
<title>java/lang/String.&lt;init&gt; (10 samples, 4.07%)</title><rect x="1142.0" y="387.0" width="48.0" height="15" fill="#5eef5e" rx="2" ry="2"/>
<text x="1145.0" y="398.0">java..</text>
</g>
<g>
<title>java/lang/String.&lt;init&gt; (10 samples, 4.07%)</title><rect x="1142.0" y="371.0" width="48.0" height="15" fill="#54e554" rx="2" ry="2"/>
<text x="1145.0" y="382.0">java..</text>
</g>
<g>
<title>java/lang/StringUTF16.compress (10 samples, 4.07%)</title><rect x="1142.0" y="355.0" width="48.0" height="15" fill="#6afb6a" rx="2" ry="2"/>
<text x="1145.0" y="366.0">java..</text>
</g>
<g>
<title>byte[] (10 samples, 4.07%)</title><rect x="1142.0" y="339.0" width="48.0" height="15" fill="#62d0d0" rx="2" ry="2"/>
<text x="1145.0" y="350.0">byte[]</text>
</g>
</g>
</svg>
