<?xml version="1.0" standalone="no"?>
<!DOCTYPE svg PUBLIC "-//W3C//DTD SVG 1.1//EN" "http://www.w3.org/Graphics/SVG/1.1/DTD/svg11.dtd">
<svg version="1.1" width="1200" height="486" onload="init(evt)" viewBox="0 0 1200 486" xmlns="http://www.w3.org/2000/svg" xmlns:xlink="http://www.w3.org/1999/xlink">
<style type="text/css">
	text { font-family:Verdana; font-size:12px; fill:rgb(0,0,0); }
	#search { opacity:0.1; cursor:pointer; }
	#search:hover, #search.show { opacity:1; }
	#subtitle { text-anchor:middle; font-color:rgb(160,160,160); }
	#title { text-anchor:middle; font-size:17px}
	#unzoom { cursor:pointer; }
	#frames > *:hover { stroke:black; stroke-width:0.5; cursor:pointer; }
	.hide { display:none; }
	.parent { opacity:0.5; }
</style>
<script type="text/ecmascript">
<![CDATA[
	"use strict";
	var details, searchbtn, unzoombtn, matchedtxt, svg, searching;
	function init(evt) {
		details = document.getElementById("details").firstChild;
		searchbtn = document.getElementById("search");
		unzoombtn = document.getElementById("unzoom");
		matchedtxt = document.getElementById("matched");
		svg = document.getElementsByTagName("svg")[0];
		searching = 0;
	}

	window.addEventListener("click", function(e) {
		var target = find_group(e.target);
		if (target) {
			if (target.nodeName == "a") {
				if (e.ctrlKey === false) return;
				e.preventDefault();
			}
			if (target.classList.contains("parent")) unzoom();
			zoom(target);
		}
		else if (e.target.id == "unzoom") unzoom();
		else if (e.target.id == "search") search_prompt();
	}, false)

	// mouse-over for info
	// show
	window.addEventListener("mouseover", function(e) {
		var target = find_group(e.target);
		if (target) details.nodeValue = "Function: " + g_to_text(target);
	}, false)

	// clear
	window.addEventListener("mouseout", function(e) {
		var target = find_group(e.target);
		if (target) details.nodeValue = ' ';
	}, false)

	// ctrl-F for search
	window.addEventListener("keydown",function (e) {
		if (e.keyCode === 114 || (e.ctrlKey && e.keyCode === 70)) {
			e.preventDefault();
			search_prompt();
		}
	}, false)

	// functions
	function find_child(node, selector) {
		var children = node.querySelectorAll(selector);
		if (children.length) return children[0];
		return;
	}
	function find_group(node) {
		var parent = node.parentElement;
		if (!parent) return;
		if (parent.id == "frames") return node;
		return find_group(parent);
	}
	function orig_save(e, attr, val) {
		if (e.attributes["_orig_" + attr] != undefined) return;
		if (e.attributes[attr] == undefined) return;
		if (val == undefined) val = e.attributes[attr].value;
		e.setAttribute("_orig_" + attr, val);
	}
	function orig_load(e, attr) {
		if (e.attributes["_orig_"+attr] == undefined) return;
		e.attributes[attr].value = e.attributes["_orig_" + attr].value;
		e.removeAttribute("_orig_"+attr);
	}
	function g_to_text(e) {
		var text = find_child(e, "title").firstChild.nodeValue;
		return (text)
	}
	function g_to_func(e) {
		var func = g_to_text(e);
		// if there's any manipulation we want to do to the function
		// name before it's searched, do it here before returning.
		return (func);
	}
	function update_text(e) {
		var r = find_child(e, "rect");
		var t = find_child(e, "text");
		var w = parseFloat(r.attributes.width.value) -3;
		var txt = find_child(e, "title").textContent.replace(/\([^(]*\)$/,"");
		t.attributes.x.value = parseFloat(r.attributes.x.value) + 3;

		// Smaller than this size won't fit anything
		if (w < 2 * 12 * 0.59) {
			t.textContent = "";
			return;
		}

		t.textContent = txt;
		// Fit in full text width
		if (/^ *$/.test(txt) || t.getSubStringLength(0, txt.length) < w)
			return;

		for (var x = txt.length - 2; x > 0; x--) {
			if (t.getSubStringLength(0, x + 2) <= w) {
				t.textContent = txt.substring(0, x) + "..";
				return;
			}
		}
		t.textContent = "";
	}

	// zoom
	function zoom_reset(e) {
		if (e.attributes != undefined) {
			orig_load(e, "x");
			orig_load(e, "width");
		}
		if (e.childNodes == undefined) return;
		for (var i = 0, c = e.childNodes; i < c.length; i++) {
			zoom_reset(c[i]);
		}
	}
	function zoom_child(e, x, ratio) {
		if (e.attributes != undefined) {
			if (e.attributes.x != undefined) {
				orig_save(e, "x");
				e.attributes.x.value = (parseFloat(e.attributes.x.value) - x - 10) * ratio + 10;
				if (e.tagName == "text")
					e.attributes.x.value = find_child(e.parentNode, "rect[x]").attributes.x.value + 3;
			}
			if (e.attributes.width != undefined) {
				orig_save(e, "width");
				e.attributes.width.value = parseFloat(e.attributes.width.value) * ratio;
			}
		}

		if (e.childNodes == undefined) return;
		for (var i = 0, c = e.childNodes; i < c.length; i++) {
			zoom_child(c[i], x - 10, ratio);
		}
	}
	function zoom_parent(e) {
		if (e.attributes) {
			if (e.attributes.x != undefined) {
				orig_save(e, "x");
				e.attributes.x.value = 10;
			}
			if (e.attributes.width != undefined) {
				orig_save(e, "width");
				e.attributes.width.value = parseInt(svg.width.baseVal.value) - (10 * 2);
			}
		}
		if (e.childNodes == undefined) return;
		for (var i = 0, c = e.childNodes; i < c.length; i++) {
			zoom_parent(c[i]);
		}
	}
	function zoom(node) {
		var attr = find_child(node, "rect").attributes;
		var width = parseFloat(attr.width.value);
		var xmin = parseFloat(attr.x.value);
		var xmax = parseFloat(xmin + width);
		var ymin = parseFloat(attr.y.value);
		var ratio = (svg.width.baseVal.value - 2 * 10) / width;

		// XXX: Workaround for JavaScript float issues (fix me)
		var fudge = 0.0001;

		unzoombtn.classList.remove("hide");

		var el = document.getElementById("frames").children;
		for (var i = 0; i < el.length; i++) {
			var e = el[i];
			var a = find_child(e, "rect").attributes;
			var ex = parseFloat(a.x.value);
			var ew = parseFloat(a.width.value);
			var upstack;
			// Is it an ancestor
			if (0 == 0) {
				upstack = parseFloat(a.y.value) > ymin;
			} else {
				upstack = parseFloat(a.y.value) < ymin;
			}
			if (upstack) {
				// Direct ancestor
				if (ex <= xmin && (ex+ew+fudge) >= xmax) {
					e.classList.add("parent");
					zoom_parent(e);
					update_text(e);
				}
				// not in current path
				else
					e.classList.add("hide");
			}
			// Children maybe
			else {
				// no common path
				if (ex < xmin || ex + fudge >= xmax) {
					e.classList.add("hide");
				}
				else {
					zoom_child(e, xmin, ratio);
					update_text(e);
				}
			}
		}
	}
	function unzoom() {
		unzoombtn.classList.add("hide");
		var el = document.getElementById("frames").children;
		for(var i = 0; i < el.length; i++) {
			el[i].classList.remove("parent");
			el[i].classList.remove("hide");
			zoom_reset(el[i]);
			update_text(el[i]);
		}
	}

	// search
	function reset_search() {
		var el = document.querySelectorAll("#frames rect");
		for (var i = 0; i < el.length; i++) {
			orig_load(el[i], "fill")
		}
	}
	function search_prompt() {
		if (!searching) {
			var term = prompt("Enter a search term (regexp " +
			    "allowed, eg: ^ext4_)", "");
			if (term != null) {
				search(term)
			}
		} else {
			reset_search();
			searching = 0;
			searchbtn.classList.remove("show");
			searchbtn.firstChild.nodeValue = "Search"
			matchedtxt.classList.add("hide");
			matchedtxt.firstChild.nodeValue = ""
		}
	}
	function search(term) {
		var re = new RegExp(term);
		var el = document.getElementById("frames").children;
		var matches = new Object();
		var maxwidth = 0;
		for (var i = 0; i < el.length; i++) {
			var e = el[i];
			var func = g_to_func(e);
			var rect = find_child(e, "rect");
			if (func == null || rect == null)
				continue;

			// Save max width. Only works as we have a root frame
			var w = parseFloat(rect.attributes.width.value);
			if (w > maxwidth)
				maxwidth = w;

			if (func.match(re)) {
				// highlight
				var x = parseFloat(rect.attributes.x.value);
				orig_save(rect, "fill");
				rect.attributes.fill.value = "rgb(230,0,230)";

				// remember matches
				if (matches[x] == undefined) {
					matches[x] = w;
				} else {
					if (w > matches[x]) {
						// overwrite with parent
						matches[x] = w;
					}
				}
				searching = 1;
			}
		}
		if (!searching)
			return;

		searchbtn.classList.add("show");
		searchbtn.firstChild.nodeValue = "Reset Search";

		// calculate percent matched, excluding vertical overlap
		var count = 0;
		var lastx = -1;
		var lastw = 0;
		var keys = Array();
		for (k in matches) {
			if (matches.hasOwnProperty(k))
				keys.push(k);
		}
		// sort the matched frames by their x location
		// ascending, then width descending
		keys.sort(function(a, b){
			return a - b;
		});
		// Step through frames saving only the biggest bottom-up frames
		// thanks to the sort order. This relies on the tree property
		// where children are always smaller than their parents.
		var fudge = 0.0001;	// JavaScript floating point
		for (var k in keys) {
			var x = parseFloat(keys[k]);
			var w = matches[keys[k]];
			if (x >= lastx + lastw - fudge) {
				count += w;
				lastx = x;
				lastw = w;
			}
		}
		// display matched percent
		matchedtxt.classList.remove("hide");
		var pct = 100 * count / maxwidth;
		if (pct != 100) pct = pct.toFixed(1)
		matchedtxt.firstChild.nodeValue = "Matched: " + pct + "%";
	}
]]>
</script>
<rect x="0" y="0" width="100%" height="100%" fill="rgb(240,240,220)"/>
<text id="title" x="600" y="24">Flame Graph</text>
<text id="details" x="10" y="469"> </text>
<text id="unzoom" x="10" y="24" class="hide">Reset Zoom</text>
<text id="search" x="1090" y="24">Search</text>
<text id="matched" x="1090" y="469"> </text>
<g id="frames">
<g>
<title>all (171 samples, 100.00%)</title><rect x="10.0" y="435.0" width="1180.0" height="15" fill="#f57575" rx="2" ry="2"/>
<text x="13.0" y="446.0">all</text>
</g>
<g>
<title>one/nio/server/SelectorThread.run (171 samples, 100.00%)</title><rect x="10.0" y="419.0" width="1180.0" height="15" fill="#54e554" rx="2" ry="2"/>
<text x="13.0" y="430.0">one/nio/server/SelectorThread.run</text>
</g>
<g>
<title>one/nio/net/NativeSelector.select (1 samples, 0.58%)</title><rect x="10.0" y="403.0" width="6.9" height="15" fill="#50e150" rx="2" ry="2"/>
<text x="13.0" y="414.0"></text>
</g>
<g>
<title>one.nio.net.NativeSelector$2 (1 samples, 0.58%)</title><rect x="10.0" y="387.0" width="6.9" height="15" fill="#51bfbf" rx="2" ry="2"/>
<text x="13.0" y="398.0"></text>
</g>
<g>
<title>one/nio/net/Session.process (170 samples, 99.42%)</title><rect x="16.9" y="403.0" width="1173.1" height="15" fill="#64f564" rx="2" ry="2"/>
<text x="19.9" y="414.0">one/nio/net/Session.process</text>
</g>
<g>
<title>one/nio/http/HttpSession.processRead (170 samples, 99.42%)</title><rect x="16.9" y="387.0" width="1173.1" height="15" fill="#55e655" rx="2" ry="2"/>
<text x="19.9" y="398.0">one/nio/http/HttpSession.processRead</text>
</g>
<g>
<title>one/nio/http/HttpSession.processHttpBuffer (170 samples, 99.42%)</title><rect x="16.9" y="371.0" width="1173.1" height="15" fill="#62f362" rx="2" ry="2"/>
<text x="19.9" y="382.0">one/nio/http/HttpSession.processHttpBuffer</text>
</g>
<g>
<title>one/nio/http/HttpSession.handleParsedRequest (150 samples, 87.72%)</title><rect x="16.9" y="355.0" width="1035.1" height="15" fill="#65f665" rx="2" ry="2"/>
<text x="19.9" y="366.0">one/nio/http/HttpSession.handleParsedRequest</text>
</g>
<g>
<title>one/nio/http/HttpServer.handleRequest (150 samples, 87.72%)</title><rect x="16.9" y="339.0" width="1035.1" height="15" fill="#61f261" rx="2" ry="2"/>
<text x="19.9" y="350.0">one/nio/http/HttpServer.handleRequest</text>
</g>
<g>
<title>RequestHandler0_response.handleRequest (145 samples, 84.80%)</title><rect x="16.9" y="323.0" width="1000.6" height="15" fill="#50e150" rx="2" ry="2"/>
<text x="19.9" y="334.0">RequestHandler0_response.handleRequest</text>
</g>
<g>
<title>one/nio/http/HttpSession.sendResponse (6 samples, 3.51%)</title><rect x="16.9" y="307.0" width="41.4" height="15" fill="#50e150" rx="2" ry="2"/>
<text x="19.9" y="318.0">one..</text>
</g>
<g>
<title>one/nio/http/HttpSession.writeResponse (6 samples, 3.51%)</title><rect x="16.9" y="291.0" width="41.4" height="15" fill="#59ea59" rx="2" ry="2"/>
<text x="19.9" y="302.0">one..</text>
</g>
<g>
<title>one/nio/http/Response.toBytes (6 samples, 3.51%)</title><rect x="16.9" y="275.0" width="41.4" height="15" fill="#57e857" rx="2" ry="2"/>
<text x="19.9" y="286.0">one..</text>
</g>
<g>
<title>one/nio/util/ByteArrayBuilder.&lt;init&gt; (6 samples, 3.51%)</title><rect x="16.9" y="259.0" width="41.4" height="15" fill="#63f463" rx="2" ry="2"/>
<text x="19.9" y="270.0">one..</text>
</g>
<g>
<title>byte[] (6 samples, 3.51%)</title><rect x="16.9" y="243.0" width="41.4" height="15" fill="#69d7d7" rx="2" ry="2"/>
<text x="19.9" y="254.0">byt..</text>
</g>
<g>
<title>one/nio/http/Request.getRequiredParameter (2 samples, 1.17%)</title><rect x="58.3" y="307.0" width="13.8" height="15" fill="#55e655" rx="2" ry="2"/>
<text x="61.3" y="318.0"></text>
</g>
<g>
<title>one/nio/http/Request.getParameter (2 samples, 1.17%)</title><rect x="58.3" y="291.0" width="13.8" height="15" fill="#5aeb5a" rx="2" ry="2"/>
<text x="61.3" y="302.0"></text>
</g>
<g>
<title>java/lang/String.substring (2 samples, 1.17%)</title><rect x="58.3" y="275.0" width="13.8" height="15" fill="#64f564" rx="2" ry="2"/>
<text x="61.3" y="286.0"></text>
</g>
<g>
<title>java/lang/StringLatin1.newString (2 samples, 1.17%)</title><rect x="58.3" y="259.0" width="13.8" height="15" fill="#6afb6a" rx="2" ry="2"/>
<text x="61.3" y="270.0"></text>
</g>
<g>
<title>java.lang.String (1 samples, 0.58%)</title><rect x="58.3" y="243.0" width="6.9" height="15" fill="#63d1d1" rx="2" ry="2"/>
<text x="61.3" y="254.0"></text>
</g>
<g>
<title>java/util/Arrays.copyOfRange (1 samples, 0.58%)</title><rect x="65.2" y="243.0" width="6.9" height="15" fill="#59ea59" rx="2" ry="2"/>
<text x="68.2" y="254.0"></text>
</g>
<g>
<title>byte[] (1 samples, 0.58%)</title><rect x="65.2" y="227.0" width="6.9" height="15" fill="#6ad8d8" rx="2" ry="2"/>
<text x="68.2" y="238.0"></text>
</g>
<g>
<title>ru/mail/polis/service/mrsandman5/ServiceImpl.response (137 samples, 80.12%)</title><rect x="72.1" y="307.0" width="945.4" height="15" fill="#55e655" rx="2" ry="2"/>
<text x="75.1" y="318.0">ru/mail/polis/service/mrsandman5/ServiceImpl.response</text>
</g>
<g>
<title>ch/qos/logback/classic/Logger.debug (65 samples, 38.01%)</title><rect x="72.1" y="291.0" width="448.5" height="15" fill="#54e554" rx="2" ry="2"/>
<text x="75.1" y="302.0">ch/qos/logback/classic/Logger.debug</text>
</g>
<g>
<title>ch/qos/logback/classic/Logger.filterAndLog_1 (65 samples, 38.01%)</title><rect x="72.1" y="275.0" width="448.5" height="15" fill="#5ff05f" rx="2" ry="2"/>
<text x="75.1" y="286.0">ch/qos/logback/classic/Logger.filterAndLog_1</text>
</g>
<g>
<title>ch/qos/logback/classic/Logger.buildLoggingEventAndAppend (64 samples, 37.43%)</title><rect x="72.1" y="259.0" width="441.6" height="15" fill="#68f968" rx="2" ry="2"/>
<text x="75.1" y="270.0">ch/qos/logback/classic/Logger.buildLoggingEventAndAppend</text>
</g>
<g>
<title>ch.qos.logback.classic.spi.LoggingEvent (8 samples, 4.68%)</title><rect x="72.1" y="243.0" width="55.2" height="15" fill="#64d2d2" rx="2" ry="2"/>
<text x="75.1" y="254.0">ch.qo..</text>
</g>
<g>
<title>ch/qos/logback/classic/Logger.callAppenders (56 samples, 32.75%)</title><rect x="127.3" y="243.0" width="386.4" height="15" fill="#6bfc6b" rx="2" ry="2"/>
<text x="130.3" y="254.0">ch/qos/logback/classic/Logger.callAppenders</text>
</g>
<g>
<title>ch/qos/logback/classic/Logger.appendLoopOnAppenders (56 samples, 32.75%)</title><rect x="127.3" y="227.0" width="386.4" height="15" fill="#55e655" rx="2" ry="2"/>
<text x="130.3" y="238.0">ch/qos/logback/classic/Logger.appendLoopOnAppenders</text>
</g>
<g>
<title>ch/qos/logback/core/spi/AppenderAttachableImpl.appendLoopOnAppenders (56 samples, 32.75%)</title><rect x="127.3" y="211.0" width="386.4" height="15" fill="#5bec5b" rx="2" ry="2"/>
<text x="130.3" y="222.0">ch/qos/logback/core/spi/AppenderAttachableImpl.append..</text>
</g>
<g>
<title>ch/qos/logback/core/UnsynchronizedAppenderBase.doAppend (56 samples, 32.75%)</title><rect x="127.3" y="195.0" width="386.4" height="15" fill="#65f665" rx="2" ry="2"/>
<text x="130.3" y="206.0">ch/qos/logback/core/UnsynchronizedAppenderBase.doAppend</text>
</g>
<g>
<title>ch/qos/logback/core/OutputStreamAppender.append (56 samples, 32.75%)</title><rect x="127.3" y="179.0" width="386.4" height="15" fill="#6afb6a" rx="2" ry="2"/>
<text x="130.3" y="190.0">ch/qos/logback/core/OutputStreamAppender.append</text>
</g>
<g>
<title>ch/qos/logback/core/OutputStreamAppender.subAppend (56 samples, 32.75%)</title><rect x="127.3" y="163.0" width="386.4" height="15" fill="#60f160" rx="2" ry="2"/>
<text x="130.3" y="174.0">ch/qos/logback/core/OutputStreamAppender.subAppend</text>
</g>
<g>
<title>ch/qos/logback/classic/spi/LoggingEvent.prepareForDeferredProcessing (12 samples, 7.02%)</title><rect x="127.3" y="147.0" width="82.8" height="15" fill="#66f766" rx="2" ry="2"/>
<text x="130.3" y="158.0">ch/qos/lo..</text>
</g>
<g>
<title>ch/qos/logback/classic/spi/LoggingEvent.getFormattedMessage (12 samples, 7.02%)</title><rect x="127.3" y="131.0" width="82.8" height="15" fill="#6bfc6b" rx="2" ry="2"/>
<text x="130.3" y="142.0">ch/qos/lo..</text>
</g>
<g>
<title>org/slf4j/helpers/MessageFormatter.arrayFormat (12 samples, 7.02%)</title><rect x="127.3" y="115.0" width="82.8" height="15" fill="#56e756" rx="2" ry="2"/>
<text x="130.3" y="126.0">org/slf4j..</text>
</g>
<g>
<title>org/slf4j/helpers/MessageFormatter.arrayFormat (12 samples, 7.02%)</title><rect x="127.3" y="99.0" width="82.8" height="15" fill="#6bfc6b" rx="2" ry="2"/>
<text x="130.3" y="110.0">org/slf4j..</text>
</g>
<g>
<title>java.util.HashMap (3 samples, 1.75%)</title><rect x="127.3" y="83.0" width="20.7" height="15" fill="#60cece" rx="2" ry="2"/>
<text x="130.3" y="94.0"></text>
</g>
<g>
<title>java/lang/StringBuilder.&lt;init&gt; (5 samples, 2.92%)</title><rect x="148.0" y="83.0" width="34.5" height="15" fill="#6cfd6c" rx="2" ry="2"/>
<text x="151.0" y="94.0">ja..</text>
</g>
<g>
<title>java/lang/AbstractStringBuilder.&lt;init&gt; (5 samples, 2.92%)</title><rect x="148.0" y="67.0" width="34.5" height="15" fill="#5eef5e" rx="2" ry="2"/>
<text x="151.0" y="78.0">ja..</text>
</g>
<g>
<title>byte[] (5 samples, 2.92%)</title><rect x="148.0" y="51.0" width="34.5" height="15" fill="#60cece" rx="2" ry="2"/>
<text x="151.0" y="62.0">by..</text>
</g>
<g>
<title>java/lang/StringBuilder.toString (3 samples, 1.75%)</title><rect x="182.5" y="83.0" width="20.7" height="15" fill="#6cfd6c" rx="2" ry="2"/>
<text x="185.5" y="94.0"></text>
</g>
<g>
<title>java/lang/StringLatin1.newString (3 samples, 1.75%)</title><rect x="182.5" y="67.0" width="20.7" height="15" fill="#67f867" rx="2" ry="2"/>
<text x="185.5" y="78.0"></text>
</g>
<g>
<title>java.lang.String (2 samples, 1.17%)</title><rect x="182.5" y="51.0" width="13.8" height="15" fill="#68d6d6" rx="2" ry="2"/>
<text x="185.5" y="62.0"></text>
</g>
<g>
<title>java/util/Arrays.copyOfRange (1 samples, 0.58%)</title><rect x="196.3" y="51.0" width="6.9" height="15" fill="#61f261" rx="2" ry="2"/>
<text x="199.3" y="62.0"></text>
</g>
<g>
<title>byte[] (1 samples, 0.58%)</title><rect x="196.3" y="35.0" width="6.9" height="15" fill="#63d1d1" rx="2" ry="2"/>
<text x="199.3" y="46.0"></text>
</g>
<g>
<title>org.slf4j.helpers.FormattingTuple (1 samples, 0.58%)</title><rect x="203.2" y="83.0" width="6.9" height="15" fill="#6ddbdb" rx="2" ry="2"/>
<text x="206.2" y="94.0"></text>
</g>
<g>
<title>ch/qos/logback/core/encoder/LayoutWrappingEncoder.encode (44 samples, 25.73%)</title><rect x="210.1" y="147.0" width="303.6" height="15" fill="#6cfd6c" rx="2" ry="2"/>
<text x="213.1" y="158.0">ch/qos/logback/core/encoder/LayoutWrappin..</text>
</g>
<g>
<title>ch/qos/logback/classic/layout/TTLLLayout.doLayout (37 samples, 21.64%)</title><rect x="210.1" y="131.0" width="255.3" height="15" fill="#59ea59" rx="2" ry="2"/>
<text x="213.1" y="142.0">ch/qos/logback/classic/layout/TTLL..</text>
</g>
<g>
<title>ch/qos/logback/classic/layout/TTLLLayout.doLayout (37 samples, 21.64%)</title><rect x="210.1" y="115.0" width="255.3" height="15" fill="#6afb6a" rx="2" ry="2"/>
<text x="213.1" y="126.0">ch/qos/logback/classic/layout/TTLL..</text>
</g>
<g>
<title>ch/qos/logback/core/util/CachingDateFormatter.format (4 samples, 2.34%)</title><rect x="210.1" y="99.0" width="27.6" height="15" fill="#61f261" rx="2" ry="2"/>
<text x="213.1" y="110.0">c..</text>
</g>
<g>
<title>java.util.Date (1 samples, 0.58%)</title><rect x="210.1" y="83.0" width="6.9" height="15" fill="#63d1d1" rx="2" ry="2"/>
<text x="213.1" y="94.0"></text>
</g>
<g>
<title>java/text/DateFormat.format (3 samples, 1.75%)</title><rect x="217.0" y="83.0" width="20.7" height="15" fill="#66f766" rx="2" ry="2"/>
<text x="220.0" y="94.0"></text>
</g>
<g>
<title>java.lang.StringBuffer (2 samples, 1.17%)</title><rect x="217.0" y="67.0" width="13.8" height="15" fill="#67d5d5" rx="2" ry="2"/>
<text x="220.0" y="78.0"></text>
</g>
<g>
<title>java/lang/StringBuffer.toString (1 samples, 0.58%)</title><rect x="230.8" y="67.0" width="6.9" height="15" fill="#67f867" rx="2" ry="2"/>
<text x="233.8" y="78.0"></text>
</g>
<g>
<title>java/lang/StringLatin1.newString (1 samples, 0.58%)</title><rect x="230.8" y="51.0" width="6.9" height="15" fill="#57e857" rx="2" ry="2"/>
<text x="233.8" y="62.0"></text>
</g>
<g>
<title>java.lang.String (1 samples, 0.58%)</title><rect x="230.8" y="35.0" width="6.9" height="15" fill="#62d0d0" rx="2" ry="2"/>
<text x="233.8" y="46.0"></text>
</g>
<g>
<title>java.lang.StringBuilder (2 samples, 1.17%)</title><rect x="237.7" y="99.0" width="13.8" height="15" fill="#5ecccc" rx="2" ry="2"/>
<text x="240.7" y="110.0"></text>
</g>
<g>
<title>java/lang/StringBuilder.&lt;init&gt; (2 samples, 1.17%)</title><rect x="251.5" y="99.0" width="13.8" height="15" fill="#55e655" rx="2" ry="2"/>
<text x="254.5" y="110.0"></text>
</g>
<g>
<title>java/lang/AbstractStringBuilder.&lt;init&gt; (2 samples, 1.17%)</title><rect x="251.5" y="83.0" width="13.8" height="15" fill="#67f867" rx="2" ry="2"/>
<text x="254.5" y="94.0"></text>
</g>
<g>
<title>byte[] (2 samples, 1.17%)</title><rect x="251.5" y="67.0" width="13.8" height="15" fill="#69d7d7" rx="2" ry="2"/>
<text x="254.5" y="78.0"></text>
</g>
<g>
<title>java/lang/StringBuilder.append (16 samples, 9.36%)</title><rect x="265.3" y="99.0" width="110.4" height="15" fill="#6afb6a" rx="2" ry="2"/>
<text x="268.3" y="110.0">java/lang/Str..</text>
</g>
<g>
<title>java/lang/AbstractStringBuilder.append (16 samples, 9.36%)</title><rect x="265.3" y="83.0" width="110.4" height="15" fill="#63f463" rx="2" ry="2"/>
<text x="268.3" y="94.0">java/lang/Abs..</text>
</g>
<g>
<title>java/lang/AbstractStringBuilder.ensureCapacityInternal (16 samples, 9.36%)</title><rect x="265.3" y="67.0" width="110.4" height="15" fill="#5ced5c" rx="2" ry="2"/>
<text x="268.3" y="78.0">java/lang/Abs..</text>
</g>
<g>
<title>java/util/Arrays.copyOf (16 samples, 9.36%)</title><rect x="265.3" y="51.0" width="110.4" height="15" fill="#62f362" rx="2" ry="2"/>
<text x="268.3" y="62.0">java/util/Arr..</text>
</g>
<g>
<title>byte[] (16 samples, 9.36%)</title><rect x="265.3" y="35.0" width="110.4" height="15" fill="#61cfcf" rx="2" ry="2"/>
<text x="268.3" y="46.0">byte[]</text>
</g>
<g>
<title>java/lang/StringBuilder.toString (13 samples, 7.60%)</title><rect x="375.7" y="99.0" width="89.7" height="15" fill="#63f463" rx="2" ry="2"/>
<text x="378.7" y="110.0">java/lang/..</text>
</g>
<g>
<title>java/lang/StringLatin1.newString (13 samples, 7.60%)</title><rect x="375.7" y="83.0" width="89.7" height="15" fill="#60f160" rx="2" ry="2"/>
<text x="378.7" y="94.0">java/lang/..</text>
</g>
<g>
<title>java.lang.String (2 samples, 1.17%)</title><rect x="375.7" y="67.0" width="13.8" height="15" fill="#54c2c2" rx="2" ry="2"/>
<text x="378.7" y="78.0"></text>
</g>
<g>
<title>java/util/Arrays.copyOfRange (11 samples, 6.43%)</title><rect x="389.5" y="67.0" width="75.9" height="15" fill="#61f261" rx="2" ry="2"/>
<text x="392.5" y="78.0">java/uti..</text>
</g>
<g>
<title>byte[] (11 samples, 6.43%)</title><rect x="389.5" y="51.0" width="75.9" height="15" fill="#50bebe" rx="2" ry="2"/>
<text x="392.5" y="62.0">byte[]</text>
</g>
<g>
<title>ch/qos/logback/core/encoder/LayoutWrappingEncoder.convertToBytes (7 samples, 4.09%)</title><rect x="465.4" y="131.0" width="48.3" height="15" fill="#65f665" rx="2" ry="2"/>
<text x="468.4" y="142.0">ch/q..</text>
</g>
<g>
<title>java/lang/String.getBytes (7 samples, 4.09%)</title><rect x="465.4" y="115.0" width="48.3" height="15" fill="#5ff05f" rx="2" ry="2"/>
<text x="468.4" y="126.0">java..</text>
</g>
<g>
<title>java/lang/StringCoding.encode (7 samples, 4.09%)</title><rect x="465.4" y="99.0" width="48.3" height="15" fill="#68f968" rx="2" ry="2"/>
<text x="468.4" y="110.0">java..</text>
</g>
<g>
<title>java/lang/StringCoding.encodeUTF8 (7 samples, 4.09%)</title><rect x="465.4" y="83.0" width="48.3" height="15" fill="#5ff05f" rx="2" ry="2"/>
<text x="468.4" y="94.0">java..</text>
</g>
<g>
<title>java/util/Arrays.copyOf (7 samples, 4.09%)</title><rect x="465.4" y="67.0" width="48.3" height="15" fill="#53e453" rx="2" ry="2"/>
<text x="468.4" y="78.0">java..</text>
</g>
<g>
<title>byte[] (7 samples, 4.09%)</title><rect x="465.4" y="51.0" width="48.3" height="15" fill="#5ecccc" rx="2" ry="2"/>
<text x="468.4" y="62.0">byte[]</text>
</g>
<g>
<title>java.lang.Object[] (1 samples, 0.58%)</title><rect x="513.7" y="259.0" width="6.9" height="15" fill="#5fcdcd" rx="2" ry="2"/>
<text x="516.7" y="270.0"></text>
</g>
<g>
<title>java/lang/String.getBytes (2 samples, 1.17%)</title><rect x="520.6" y="291.0" width="13.8" height="15" fill="#51e251" rx="2" ry="2"/>
<text x="523.6" y="302.0"></text>
</g>
<g>
<title>java/lang/StringCoding.encode (2 samples, 1.17%)</title><rect x="520.6" y="275.0" width="13.8" height="15" fill="#68f968" rx="2" ry="2"/>
<text x="523.6" y="286.0"></text>
</g>
<g>
<title>java/lang/StringCoding.encodeUTF8 (2 samples, 1.17%)</title><rect x="520.6" y="259.0" width="13.8" height="15" fill="#5bec5b" rx="2" ry="2"/>
<text x="523.6" y="270.0"></text>
</g>
<g>
<title>java/util/Arrays.copyOf (2 samples, 1.17%)</title><rect x="520.6" y="243.0" width="13.8" height="15" fill="#63f463" rx="2" ry="2"/>
<text x="523.6" y="254.0"></text>
</g>
<g>
<title>byte[] (2 samples, 1.17%)</title><rect x="520.6" y="227.0" width="13.8" height="15" fill="#5dcbcb" rx="2" ry="2"/>
<text x="523.6" y="238.0"></text>
</g>
<g>
<title>java/nio/ByteBuffer.wrap (1 samples, 0.58%)</title><rect x="534.4" y="291.0" width="6.9" height="15" fill="#54e554" rx="2" ry="2"/>
<text x="537.4" y="302.0"></text>
</g>
<g>
<title>java/nio/ByteBuffer.wrap (1 samples, 0.58%)</title><rect x="534.4" y="275.0" width="6.9" height="15" fill="#5ced5c" rx="2" ry="2"/>
<text x="537.4" y="286.0"></text>
</g>
<g>
<title>java.nio.HeapByteBuffer (1 samples, 0.58%)</title><rect x="534.4" y="259.0" width="6.9" height="15" fill="#57c5c5" rx="2" ry="2"/>
<text x="537.4" y="270.0"></text>
</g>
<g>
<title>ru/mail/polis/service/mrsandman5/ServiceImpl.get (69 samples, 40.35%)</title><rect x="541.3" y="291.0" width="476.2" height="15" fill="#5ced5c" rx="2" ry="2"/>
<text x="544.3" y="302.0">ru/mail/polis/service/mrsandman5/ServiceImpl.get</text>
</g>
<g>
<title>one.nio.http.Response (3 samples, 1.75%)</title><rect x="541.3" y="275.0" width="20.7" height="15" fill="#50bebe" rx="2" ry="2"/>
<text x="544.3" y="286.0"></text>
</g>
<g>
<title>one/nio/http/Response.&lt;init&gt; (10 samples, 5.85%)</title><rect x="562.0" y="275.0" width="69.1" height="15" fill="#65f665" rx="2" ry="2"/>
<text x="565.0" y="286.0">one/nio..</text>
</g>
<g>
<title>byte[] (2 samples, 1.17%)</title><rect x="562.0" y="259.0" width="13.8" height="15" fill="#61cfcf" rx="2" ry="2"/>
<text x="565.0" y="270.0"></text>
</g>
<g>
<title>java.lang.String[] (4 samples, 2.34%)</title><rect x="575.8" y="259.0" width="27.7" height="15" fill="#68d6d6" rx="2" ry="2"/>
<text x="578.8" y="270.0">j..</text>
</g>
<g>
<title>java.lang.String (4 samples, 2.34%)</title><rect x="603.5" y="259.0" width="27.6" height="15" fill="#61cfcf" rx="2" ry="2"/>
<text x="606.5" y="270.0">j..</text>
</g>
<g>
<title>ru/mail/polis/dao/DAO.get (56 samples, 32.75%)</title><rect x="631.1" y="275.0" width="386.4" height="15" fill="#5dee5d" rx="2" ry="2"/>
<text x="634.1" y="286.0">ru/mail/polis/dao/DAO.get</text>
</g>
<g>
<title>java/util/NoSuchElementException.&lt;init&gt; (35 samples, 20.47%)</title><rect x="631.1" y="259.0" width="241.5" height="15" fill="#5eef5e" rx="2" ry="2"/>
<text x="634.1" y="270.0">java/util/NoSuchElementException..</text>
</g>
<g>
<title>java/lang/RuntimeException.&lt;init&gt; (35 samples, 20.47%)</title><rect x="631.1" y="243.0" width="241.5" height="15" fill="#6dfe6d" rx="2" ry="2"/>
<text x="634.1" y="254.0">java/lang/RuntimeException.&lt;init&gt;</text>
</g>
<g>
<title>java/lang/Exception.&lt;init&gt; (35 samples, 20.47%)</title><rect x="631.1" y="227.0" width="241.5" height="15" fill="#51e251" rx="2" ry="2"/>
<text x="634.1" y="238.0">java/lang/Exception.&lt;init&gt;</text>
</g>
<g>
<title>java/lang/Throwable.&lt;init&gt; (35 samples, 20.47%)</title><rect x="631.1" y="211.0" width="241.5" height="15" fill="#52e352" rx="2" ry="2"/>
<text x="634.1" y="222.0">java/lang/Throwable.&lt;init&gt;</text>
</g>
<g>
<title>java/lang/Throwable.fillInStackTrace (35 samples, 20.47%)</title><rect x="631.1" y="195.0" width="241.5" height="15" fill="#63f463" rx="2" ry="2"/>
<text x="634.1" y="206.0">java/lang/Throwable.fillInStackT..</text>
</g>
<g>
<title>java/lang/Throwable.fillInStackTrace (35 samples, 20.47%)</title><rect x="631.1" y="179.0" width="241.5" height="15" fill="#61f261" rx="2" ry="2"/>
<text x="634.1" y="190.0">java/lang/Throwable.fillInStackT..</text>
</g>
<g>
<title>int[] (10 samples, 5.85%)</title><rect x="631.1" y="163.0" width="69.0" height="15" fill="#56c4c4" rx="2" ry="2"/>
<text x="634.1" y="174.0">int[]</text>
</g>
<g>
<title>java.lang.Object[] (7 samples, 4.09%)</title><rect x="700.1" y="163.0" width="48.3" height="15" fill="#56c4c4" rx="2" ry="2"/>
<text x="703.1" y="174.0">java..</text>
</g>
<g>
<title>long[] (15 samples, 8.77%)</title><rect x="748.4" y="163.0" width="103.5" height="15" fill="#62d0d0" rx="2" ry="2"/>
<text x="751.4" y="174.0">long[]</text>
</g>
<g>
<title>short[] (3 samples, 1.75%)</title><rect x="851.9" y="163.0" width="20.7" height="15" fill="#6bd9d9" rx="2" ry="2"/>
<text x="854.9" y="174.0"></text>
</g>
<g>
<title>ru/mail/polis/dao/impl/DAOImpl.iterator (21 samples, 12.28%)</title><rect x="872.6" y="259.0" width="144.9" height="15" fill="#66f766" rx="2" ry="2"/>
<text x="875.6" y="270.0">ru/mail/polis/dao/..</text>
</g>
<g>
<title>ru/mail/polis/dao/impl/DAOImpl.cellIterator (21 samples, 12.28%)</title><rect x="872.6" y="243.0" width="144.9" height="15" fill="#5dee5d" rx="2" ry="2"/>
<text x="875.6" y="254.0">ru/mail/polis/dao/..</text>
</g>
<g>
<title>com/google/common/collect/Iterators.filter (1 samples, 0.58%)</title><rect x="872.6" y="227.0" width="6.9" height="15" fill="#5dee5d" rx="2" ry="2"/>
<text x="875.6" y="238.0"></text>
</g>
<g>
<title>com.google.common.collect.Iterators$5 (1 samples, 0.58%)</title><rect x="872.6" y="211.0" width="6.9" height="15" fill="#69d7d7" rx="2" ry="2"/>
<text x="875.6" y="222.0"></text>
</g>
<g>
<title>com/google/common/collect/Iterators.mergeSorted (4 samples, 2.34%)</title><rect x="879.5" y="227.0" width="27.6" height="15" fill="#6cfd6c" rx="2" ry="2"/>
<text x="882.5" y="238.0">c..</text>
</g>
<g>
<title>com.google.common.collect.Iterators$MergingIterator (1 samples, 0.58%)</title><rect x="879.5" y="211.0" width="6.9" height="15" fill="#6cdada" rx="2" ry="2"/>
<text x="882.5" y="222.0"></text>
</g>
<g>
<title>com/google/common/collect/Iterators$MergingIterator.&lt;init&gt; (3 samples, 1.75%)</title><rect x="886.4" y="211.0" width="20.7" height="15" fill="#6afb6a" rx="2" ry="2"/>
<text x="889.4" y="222.0"></text>
</g>
<g>
<title>java.util.PriorityQueue (1 samples, 0.58%)</title><rect x="886.4" y="195.0" width="6.9" height="15" fill="#67d5d5" rx="2" ry="2"/>
<text x="889.4" y="206.0"></text>
</g>
<g>
<title>java/util/PriorityQueue.&lt;init&gt; (2 samples, 1.17%)</title><rect x="893.3" y="195.0" width="13.8" height="15" fill="#5aeb5a" rx="2" ry="2"/>
<text x="896.3" y="206.0"></text>
</g>
<g>
<title>java.lang.Object[] (2 samples, 1.17%)</title><rect x="893.3" y="179.0" width="13.8" height="15" fill="#60cece" rx="2" ry="2"/>
<text x="896.3" y="190.0"></text>
</g>
<g>
<title>java.util.ArrayList (2 samples, 1.17%)</title><rect x="907.1" y="227.0" width="13.8" height="15" fill="#56c4c4" rx="2" ry="2"/>
<text x="910.1" y="238.0"></text>
</g>
<g>
<title>java/util/ArrayList.&lt;init&gt; (3 samples, 1.75%)</title><rect x="920.9" y="227.0" width="20.7" height="15" fill="#5eef5e" rx="2" ry="2"/>
<text x="923.9" y="238.0"></text>
</g>
<g>
<title>java.lang.Object[] (3 samples, 1.75%)</title><rect x="920.9" y="211.0" width="20.7" height="15" fill="#6cdada" rx="2" ry="2"/>
<text x="923.9" y="222.0"></text>
</g>
<g>
<title>ru/mail/polis/dao/Iters.collapseEquals (1 samples, 0.58%)</title><rect x="941.6" y="227.0" width="6.9" height="15" fill="#5dee5d" rx="2" ry="2"/>
<text x="944.6" y="238.0"></text>
</g>
<g>
<title>ru.mail.polis.dao.Iters$CollapseEqualsIterator (1 samples, 0.58%)</title><rect x="941.6" y="211.0" width="6.9" height="15" fill="#6ad8d8" rx="2" ry="2"/>
<text x="944.6" y="222.0"></text>
</g>
<g>
<title>ru/mail/polis/dao/impl/tables/MemTable.iterator (10 samples, 5.85%)</title><rect x="948.5" y="227.0" width="69.0" height="15" fill="#6dfe6d" rx="2" ry="2"/>
<text x="951.5" y="238.0">ru/mail..</text>
</g>
<g>
<title>com/google/common/collect/Iterators.transform (4 samples, 2.34%)</title><rect x="948.5" y="211.0" width="27.6" height="15" fill="#55e655" rx="2" ry="2"/>
<text x="951.5" y="222.0">c..</text>
</g>
<g>
<title>com.google.common.collect.Iterators$6 (4 samples, 2.34%)</title><rect x="948.5" y="195.0" width="27.6" height="15" fill="#5dcbcb" rx="2" ry="2"/>
<text x="951.5" y="206.0">c..</text>
</g>
<g>
<title>java/util/TreeMap$AscendingSubMap$AscendingEntrySetView.iterator (2 samples, 1.17%)</title><rect x="976.1" y="211.0" width="13.8" height="15" fill="#67f867" rx="2" ry="2"/>
<text x="979.1" y="222.0"></text>
</g>
<g>
<title>java.util.TreeMap$NavigableSubMap$SubMapEntryIterator (2 samples, 1.17%)</title><rect x="976.1" y="195.0" width="13.8" height="15" fill="#66d4d4" rx="2" ry="2"/>
<text x="979.1" y="206.0"></text>
</g>
<g>
<title>java/util/TreeMap$AscendingSubMap.entrySet (3 samples, 1.75%)</title><rect x="989.9" y="211.0" width="20.7" height="15" fill="#6bfc6b" rx="2" ry="2"/>
<text x="992.9" y="222.0"></text>
</g>
<g>
<title>java.util.TreeMap$AscendingSubMap$AscendingEntrySetView (3 samples, 1.75%)</title><rect x="989.9" y="195.0" width="20.7" height="15" fill="#57c5c5" rx="2" ry="2"/>
<text x="992.9" y="206.0"></text>
</g>
<g>
<title>java/util/TreeMap.tailMap (1 samples, 0.58%)</title><rect x="1010.6" y="211.0" width="6.9" height="15" fill="#66f766" rx="2" ry="2"/>
<text x="1013.6" y="222.0"></text>
</g>
<g>
<title>java/util/TreeMap.tailMap (1 samples, 0.58%)</title><rect x="1010.6" y="195.0" width="6.9" height="15" fill="#6cfd6c" rx="2" ry="2"/>
<text x="1013.6" y="206.0"></text>
</g>
<g>
<title>java.util.TreeMap$AscendingSubMap (1 samples, 0.58%)</title><rect x="1010.6" y="179.0" width="6.9" height="15" fill="#59c7c7" rx="2" ry="2"/>
<text x="1013.6" y="190.0"></text>
</g>
<g>
<title>one/nio/http/Request.getPath (5 samples, 2.92%)</title><rect x="1017.5" y="323.0" width="34.5" height="15" fill="#5ced5c" rx="2" ry="2"/>
<text x="1020.5" y="334.0">on..</text>
</g>
<g>
<title>java/lang/String.substring (5 samples, 2.92%)</title><rect x="1017.5" y="307.0" width="34.5" height="15" fill="#60f160" rx="2" ry="2"/>
<text x="1020.5" y="318.0">ja..</text>
</g>
<g>
<title>java/lang/StringLatin1.newString (5 samples, 2.92%)</title><rect x="1017.5" y="291.0" width="34.5" height="15" fill="#60f160" rx="2" ry="2"/>
<text x="1020.5" y="302.0">ja..</text>
</g>
<g>
<title>java.lang.String (4 samples, 2.34%)</title><rect x="1017.5" y="275.0" width="27.6" height="15" fill="#62d0d0" rx="2" ry="2"/>
<text x="1020.5" y="286.0">j..</text>
</g>
<g>
<title>java/util/Arrays.copyOfRange (1 samples, 0.58%)</title><rect x="1045.1" y="275.0" width="6.9" height="15" fill="#55e655" rx="2" ry="2"/>
<text x="1048.1" y="286.0"></text>
</g>
<g>
<title>byte[] (1 samples, 0.58%)</title><rect x="1045.1" y="259.0" width="6.9" height="15" fill="#5ecccc" rx="2" ry="2"/>
<text x="1048.1" y="270.0"></text>
</g>
<g>
<title>one/nio/http/HttpSession.parseRequest (18 samples, 10.53%)</title><rect x="1052.0" y="355.0" width="124.2" height="15" fill="#5aeb5a" rx="2" ry="2"/>
<text x="1055.0" y="366.0">one/nio/http/Ht..</text>
</g>
<g>
<title>one.nio.http.Request (1 samples, 0.58%)</title><rect x="1052.0" y="339.0" width="6.9" height="15" fill="#63d1d1" rx="2" ry="2"/>
<text x="1055.0" y="350.0"></text>
</g>
<g>
<title>one/nio/http/Request.&lt;init&gt; (7 samples, 4.09%)</title><rect x="1058.9" y="339.0" width="48.3" height="15" fill="#6bfc6b" rx="2" ry="2"/>
<text x="1061.9" y="350.0">one/..</text>
</g>
<g>
<title>java.lang.String[] (7 samples, 4.09%)</title><rect x="1058.9" y="323.0" width="48.3" height="15" fill="#56c4c4" rx="2" ry="2"/>
<text x="1061.9" y="334.0">java..</text>
</g>
<g>
<title>one/nio/util/Utf8.read (10 samples, 5.85%)</title><rect x="1107.2" y="339.0" width="69.0" height="15" fill="#62f362" rx="2" ry="2"/>
<text x="1110.2" y="350.0">one/nio..</text>
</g>
<g>
<title>one/nio/util/Utf8.read (10 samples, 5.85%)</title><rect x="1107.2" y="323.0" width="69.0" height="15" fill="#69fa69" rx="2" ry="2"/>
<text x="1110.2" y="334.0">one/nio..</text>
</g>
<g>
<title>char[] (4 samples, 2.34%)</title><rect x="1107.2" y="307.0" width="27.6" height="15" fill="#53c1c1" rx="2" ry="2"/>
<text x="1110.2" y="318.0">c..</text>
</g>
<g>
<title>java.lang.String (2 samples, 1.17%)</title><rect x="1134.8" y="307.0" width="13.8" height="15" fill="#5bc9c9" rx="2" ry="2"/>
<text x="1137.8" y="318.0"></text>
</g>
<g>
<title>java/lang/String.&lt;init&gt; (4 samples, 2.34%)</title><rect x="1148.6" y="307.0" width="27.6" height="15" fill="#55e655" rx="2" ry="2"/>
<text x="1151.6" y="318.0">j..</text>
</g>
<g>
<title>java/lang/String.&lt;init&gt; (4 samples, 2.34%)</title><rect x="1148.6" y="291.0" width="27.6" height="15" fill="#63f463" rx="2" ry="2"/>
<text x="1151.6" y="302.0">j..</text>
</g>
<g>
<title>java/lang/StringUTF16.compress (4 samples, 2.34%)</title><rect x="1148.6" y="275.0" width="27.6" height="15" fill="#61f261" rx="2" ry="2"/>
<text x="1151.6" y="286.0">j..</text>
</g>
<g>
<title>byte[] (4 samples, 2.34%)</title><rect x="1148.6" y="259.0" width="27.6" height="15" fill="#64d2d2" rx="2" ry="2"/>
<text x="1151.6" y="270.0">b..</text>
</g>
<g>
<title>one/nio/util/Utf8.read (2 samples, 1.17%)</title><rect x="1176.2" y="355.0" width="13.8" height="15" fill="#61f261" rx="2" ry="2"/>
<text x="1179.2" y="366.0"></text>
</g>
<g>
<title>one/nio/util/Utf8.read (2 samples, 1.17%)</title><rect x="1176.2" y="339.0" width="13.8" height="15" fill="#51e251" rx="2" ry="2"/>
<text x="1179.2" y="350.0"></text>
</g>
<g>
<title>char[] (2 samples, 1.17%)</title><rect x="1176.2" y="323.0" width="13.8" height="15" fill="#60cece" rx="2" ry="2"/>
<text x="1179.2" y="334.0"></text>
</g>
</g>
</svg>
