<?xml version="1.0" standalone="no"?>
<!DOCTYPE svg PUBLIC "-//W3C//DTD SVG 1.1//EN" "http://www.w3.org/Graphics/SVG/1.1/DTD/svg11.dtd">
<svg version="1.1" width="1200" height="326" onload="init(evt)" viewBox="0 0 1200 326" xmlns="http://www.w3.org/2000/svg" xmlns:xlink="http://www.w3.org/1999/xlink">
<style type="text/css">
	text { font-family:Verdana; font-size:12px; fill:rgb(0,0,0); }
	#search { opacity:0.1; cursor:pointer; }
	#search:hover, #search.show { opacity:1; }
	#subtitle { text-anchor:middle; font-color:rgb(160,160,160); }
	#title { text-anchor:middle; font-size:17px}
	#unzoom { cursor:pointer; }
	#frames > *:hover { stroke:black; stroke-width:0.5; cursor:pointer; }
	.hide { display:none; }
	.parent { opacity:0.5; }
</style>
<script type="text/ecmascript">
<![CDATA[
	"use strict";
	var details, searchbtn, unzoombtn, matchedtxt, svg, searching;
	function init(evt) {
		details = document.getElementById("details").firstChild;
		searchbtn = document.getElementById("search");
		unzoombtn = document.getElementById("unzoom");
		matchedtxt = document.getElementById("matched");
		svg = document.getElementsByTagName("svg")[0];
		searching = 0;
	}

	window.addEventListener("click", function(e) {
		var target = find_group(e.target);
		if (target) {
			if (target.nodeName == "a") {
				if (e.ctrlKey === false) return;
				e.preventDefault();
			}
			if (target.classList.contains("parent")) unzoom();
			zoom(target);
		}
		else if (e.target.id == "unzoom") unzoom();
		else if (e.target.id == "search") search_prompt();
	}, false)

	// mouse-over for info
	// show
	window.addEventListener("mouseover", function(e) {
		var target = find_group(e.target);
		if (target) details.nodeValue = "Function: " + g_to_text(target);
	}, false)

	// clear
	window.addEventListener("mouseout", function(e) {
		var target = find_group(e.target);
		if (target) details.nodeValue = ' ';
	}, false)

	// ctrl-F for search
	window.addEventListener("keydown",function (e) {
		if (e.keyCode === 114 || (e.ctrlKey && e.keyCode === 70)) {
			e.preventDefault();
			search_prompt();
		}
	}, false)

	// functions
	function find_child(node, selector) {
		var children = node.querySelectorAll(selector);
		if (children.length) return children[0];
		return;
	}
	function find_group(node) {
		var parent = node.parentElement;
		if (!parent) return;
		if (parent.id == "frames") return node;
		return find_group(parent);
	}
	function orig_save(e, attr, val) {
		if (e.attributes["_orig_" + attr] != undefined) return;
		if (e.attributes[attr] == undefined) return;
		if (val == undefined) val = e.attributes[attr].value;
		e.setAttribute("_orig_" + attr, val);
	}
	function orig_load(e, attr) {
		if (e.attributes["_orig_"+attr] == undefined) return;
		e.attributes[attr].value = e.attributes["_orig_" + attr].value;
		e.removeAttribute("_orig_"+attr);
	}
	function g_to_text(e) {
		var text = find_child(e, "title").firstChild.nodeValue;
		return (text)
	}
	function g_to_func(e) {
		var func = g_to_text(e);
		// if there's any manipulation we want to do to the function
		// name before it's searched, do it here before returning.
		return (func);
	}
	function update_text(e) {
		var r = find_child(e, "rect");
		var t = find_child(e, "text");
		var w = parseFloat(r.attributes.width.value) -3;
		var txt = find_child(e, "title").textContent.replace(/\([^(]*\)$/,"");
		t.attributes.x.value = parseFloat(r.attributes.x.value) + 3;

		// Smaller than this size won't fit anything
		if (w < 2 * 12 * 0.59) {
			t.textContent = "";
			return;
		}

		t.textContent = txt;
		// Fit in full text width
		if (/^ *$/.test(txt) || t.getSubStringLength(0, txt.length) < w)
			return;

		for (var x = txt.length - 2; x > 0; x--) {
			if (t.getSubStringLength(0, x + 2) <= w) {
				t.textContent = txt.substring(0, x) + "..";
				return;
			}
		}
		t.textContent = "";
	}

	// zoom
	function zoom_reset(e) {
		if (e.attributes != undefined) {
			orig_load(e, "x");
			orig_load(e, "width");
		}
		if (e.childNodes == undefined) return;
		for (var i = 0, c = e.childNodes; i < c.length; i++) {
			zoom_reset(c[i]);
		}
	}
	function zoom_child(e, x, ratio) {
		if (e.attributes != undefined) {
			if (e.attributes.x != undefined) {
				orig_save(e, "x");
				e.attributes.x.value = (parseFloat(e.attributes.x.value) - x - 10) * ratio + 10;
				if (e.tagName == "text")
					e.attributes.x.value = find_child(e.parentNode, "rect[x]").attributes.x.value + 3;
			}
			if (e.attributes.width != undefined) {
				orig_save(e, "width");
				e.attributes.width.value = parseFloat(e.attributes.width.value) * ratio;
			}
		}

		if (e.childNodes == undefined) return;
		for (var i = 0, c = e.childNodes; i < c.length; i++) {
			zoom_child(c[i], x - 10, ratio);
		}
	}
	function zoom_parent(e) {
		if (e.attributes) {
			if (e.attributes.x != undefined) {
				orig_save(e, "x");
				e.attributes.x.value = 10;
			}
			if (e.attributes.width != undefined) {
				orig_save(e, "width");
				e.attributes.width.value = parseInt(svg.width.baseVal.value) - (10 * 2);
			}
		}
		if (e.childNodes == undefined) return;
		for (var i = 0, c = e.childNodes; i < c.length; i++) {
			zoom_parent(c[i]);
		}
	}
	function zoom(node) {
		var attr = find_child(node, "rect").attributes;
		var width = parseFloat(attr.width.value);
		var xmin = parseFloat(attr.x.value);
		var xmax = parseFloat(xmin + width);
		var ymin = parseFloat(attr.y.value);
		var ratio = (svg.width.baseVal.value - 2 * 10) / width;

		// XXX: Workaround for JavaScript float issues (fix me)
		var fudge = 0.0001;

		unzoombtn.classList.remove("hide");

		var el = document.getElementById("frames").children;
		for (var i = 0; i < el.length; i++) {
			var e = el[i];
			var a = find_child(e, "rect").attributes;
			var ex = parseFloat(a.x.value);
			var ew = parseFloat(a.width.value);
			var upstack;
			// Is it an ancestor
			if (0 == 0) {
				upstack = parseFloat(a.y.value) > ymin;
			} else {
				upstack = parseFloat(a.y.value) < ymin;
			}
			if (upstack) {
				// Direct ancestor
				if (ex <= xmin && (ex+ew+fudge) >= xmax) {
					e.classList.add("parent");
					zoom_parent(e);
					update_text(e);
				}
				// not in current path
				else
					e.classList.add("hide");
			}
			// Children maybe
			else {
				// no common path
				if (ex < xmin || ex + fudge >= xmax) {
					e.classList.add("hide");
				}
				else {
					zoom_child(e, xmin, ratio);
					update_text(e);
				}
			}
		}
	}
	function unzoom() {
		unzoombtn.classList.add("hide");
		var el = document.getElementById("frames").children;
		for(var i = 0; i < el.length; i++) {
			el[i].classList.remove("parent");
			el[i].classList.remove("hide");
			zoom_reset(el[i]);
			update_text(el[i]);
		}
	}

	// search
	function reset_search() {
		var el = document.querySelectorAll("#frames rect");
		for (var i = 0; i < el.length; i++) {
			orig_load(el[i], "fill")
		}
	}
	function search_prompt() {
		if (!searching) {
			var term = prompt("Enter a search term (regexp " +
			    "allowed, eg: ^ext4_)", "");
			if (term != null) {
				search(term)
			}
		} else {
			reset_search();
			searching = 0;
			searchbtn.classList.remove("show");
			searchbtn.firstChild.nodeValue = "Search"
			matchedtxt.classList.add("hide");
			matchedtxt.firstChild.nodeValue = ""
		}
	}
	function search(term) {
		var re = new RegExp(term);
		var el = document.getElementById("frames").children;
		var matches = new Object();
		var maxwidth = 0;
		for (var i = 0; i < el.length; i++) {
			var e = el[i];
			var func = g_to_func(e);
			var rect = find_child(e, "rect");
			if (func == null || rect == null)
				continue;

			// Save max width. Only works as we have a root frame
			var w = parseFloat(rect.attributes.width.value);
			if (w > maxwidth)
				maxwidth = w;

			if (func.match(re)) {
				// highlight
				var x = parseFloat(rect.attributes.x.value);
				orig_save(rect, "fill");
				rect.attributes.fill.value = "rgb(230,0,230)";

				// remember matches
				if (matches[x] == undefined) {
					matches[x] = w;
				} else {
					if (w > matches[x]) {
						// overwrite with parent
						matches[x] = w;
					}
				}
				searching = 1;
			}
		}
		if (!searching)
			return;

		searchbtn.classList.add("show");
		searchbtn.firstChild.nodeValue = "Reset Search";

		// calculate percent matched, excluding vertical overlap
		var count = 0;
		var lastx = -1;
		var lastw = 0;
		var keys = Array();
		for (k in matches) {
			if (matches.hasOwnProperty(k))
				keys.push(k);
		}
		// sort the matched frames by their x location
		// ascending, then width descending
		keys.sort(function(a, b){
			return a - b;
		});
		// Step through frames saving only the biggest bottom-up frames
		// thanks to the sort order. This relies on the tree property
		// where children are always smaller than their parents.
		var fudge = 0.0001;	// JavaScript floating point
		for (var k in keys) {
			var x = parseFloat(keys[k]);
			var w = matches[keys[k]];
			if (x >= lastx + lastw - fudge) {
				count += w;
				lastx = x;
				lastw = w;
			}
		}
		// display matched percent
		matchedtxt.classList.remove("hide");
		var pct = 100 * count / maxwidth;
		if (pct != 100) pct = pct.toFixed(1)
		matchedtxt.firstChild.nodeValue = "Matched: " + pct + "%";
	}
]]>
</script>
<rect x="0" y="0" width="100%" height="100%" fill="rgb(240,240,220)"/>
<text id="title" x="600" y="24">Flame Graph</text>
<text id="details" x="10" y="309"> </text>
<text id="unzoom" x="10" y="24" class="hide">Reset Zoom</text>
<text id="search" x="1090" y="24">Search</text>
<text id="matched" x="1090" y="309"> </text>
<g id="frames">
<g>
<title>all (2,490 samples, 100.00%)</title><rect x="10.0" y="275.0" width="1180.0" height="15" fill="#f17070" rx="2" ry="2"/>
<text x="13.0" y="286.0">all</text>
</g>
<g>
<title>java/lang/Thread.run (1,174 samples, 47.15%)</title><rect x="10.0" y="259.0" width="556.4" height="15" fill="#50e150" rx="2" ry="2"/>
<text x="13.0" y="270.0">java/lang/Thread.run</text>
</g>
<g>
<title>java/util/concurrent/ThreadPoolExecutor$Worker.run (1,174 samples, 47.15%)</title><rect x="10.0" y="243.0" width="556.4" height="15" fill="#5bec5b" rx="2" ry="2"/>
<text x="13.0" y="254.0">java/util/concurrent/ThreadPoolExecutor$Worker.run</text>
</g>
<g>
<title>java/util/concurrent/ThreadPoolExecutor.runWorker (1,174 samples, 47.15%)</title><rect x="10.0" y="227.0" width="556.4" height="15" fill="#5bec5b" rx="2" ry="2"/>
<text x="13.0" y="238.0">java/util/concurrent/ThreadPoolExecutor.runWorker</text>
</g>
<g>
<title>java/util/concurrent/ThreadPoolExecutor.getTask (59 samples, 2.37%)</title><rect x="10.0" y="211.0" width="28.0" height="15" fill="#59ea59" rx="2" ry="2"/>
<text x="13.0" y="222.0">j..</text>
</g>
<g>
<title>java/util/concurrent/ArrayBlockingQueue.take (59 samples, 2.37%)</title><rect x="10.0" y="195.0" width="28.0" height="15" fill="#66f766" rx="2" ry="2"/>
<text x="13.0" y="206.0">j..</text>
</g>
<g>
<title>java/util/concurrent/locks/AbstractQueuedSynchronizer$ConditionObject.await (58 samples, 2.33%)</title><rect x="10.0" y="179.0" width="27.5" height="15" fill="#57e857" rx="2" ry="2"/>
<text x="13.0" y="190.0">j..</text>
</g>
<g>
<title>java/util/concurrent/locks/AbstractQueuedSynchronizer$ConditionObject.addConditionWaiter (58 samples, 2.33%)</title><rect x="10.0" y="163.0" width="27.5" height="15" fill="#63f463" rx="2" ry="2"/>
<text x="13.0" y="174.0">j..</text>
</g>
<g>
<title>java.util.concurrent.locks.AbstractQueuedSynchronizer$Node (58 samples, 2.33%)</title><rect x="10.0" y="147.0" width="27.5" height="15" fill="#60cece" rx="2" ry="2"/>
<text x="13.0" y="158.0">j..</text>
</g>
<g>
<title>java/util/concurrent/locks/ReentrantLock.lockInterruptibly (1 samples, 0.04%)</title><rect x="37.5" y="179.0" width="0.5" height="15" fill="#6bfc6b" rx="2" ry="2"/>
<text x="40.5" y="190.0"></text>
</g>
<g>
<title>java/util/concurrent/locks/AbstractQueuedSynchronizer.acquireInterruptibly (1 samples, 0.04%)</title><rect x="37.5" y="163.0" width="0.5" height="15" fill="#64f564" rx="2" ry="2"/>
<text x="40.5" y="174.0"></text>
</g>
<g>
<title>java/util/concurrent/locks/AbstractQueuedSynchronizer.doAcquireInterruptibly (1 samples, 0.04%)</title><rect x="37.5" y="147.0" width="0.5" height="15" fill="#68f968" rx="2" ry="2"/>
<text x="40.5" y="158.0"></text>
</g>
<g>
<title>java/util/concurrent/locks/AbstractQueuedSynchronizer.addWaiter (1 samples, 0.04%)</title><rect x="37.5" y="131.0" width="0.5" height="15" fill="#64f564" rx="2" ry="2"/>
<text x="40.5" y="142.0"></text>
</g>
<g>
<title>java.util.concurrent.locks.AbstractQueuedSynchronizer$Node (1 samples, 0.04%)</title><rect x="37.5" y="115.0" width="0.5" height="15" fill="#59c7c7" rx="2" ry="2"/>
<text x="40.5" y="126.0"></text>
</g>
<g>
<title>ru/mail/polis/service/mrsandman5/ServiceImpl$$Lambda$68/1815599437.run (1,115 samples, 44.78%)</title><rect x="38.0" y="211.0" width="528.4" height="15" fill="#63f463" rx="2" ry="2"/>
<text x="41.0" y="222.0">ru/mail/polis/service/mrsandman5/ServiceImpl$$Lambda$68/1815599437.run</text>
</g>
<g>
<title>ru/mail/polis/service/mrsandman5/ServiceImpl.lambda$put$1 (1,115 samples, 44.78%)</title><rect x="38.0" y="195.0" width="528.4" height="15" fill="#50e150" rx="2" ry="2"/>
<text x="41.0" y="206.0">ru/mail/polis/service/mrsandman5/ServiceImpl.lambda$put$1</text>
</g>
<g>
<title>ru/mail/polis/service/mrsandman5/ServiceImpl.putValue (1,115 samples, 44.78%)</title><rect x="38.0" y="179.0" width="528.4" height="15" fill="#5ff05f" rx="2" ry="2"/>
<text x="41.0" y="190.0">ru/mail/polis/service/mrsandman5/ServiceImpl.putValue</text>
</g>
<g>
<title>one.nio.http.Response (57 samples, 2.29%)</title><rect x="38.0" y="163.0" width="27.0" height="15" fill="#69d7d7" rx="2" ry="2"/>
<text x="41.0" y="174.0">o..</text>
</g>
<g>
<title>one/nio/http/HttpSession.sendResponse (285 samples, 11.45%)</title><rect x="65.0" y="163.0" width="135.0" height="15" fill="#62f362" rx="2" ry="2"/>
<text x="68.0" y="174.0">one/nio/http/Http..</text>
</g>
<g>
<title>one/nio/http/HttpSession.writeResponse (285 samples, 11.45%)</title><rect x="65.0" y="147.0" width="135.0" height="15" fill="#63f463" rx="2" ry="2"/>
<text x="68.0" y="158.0">one/nio/http/Http..</text>
</g>
<g>
<title>one/nio/http/Response.toBytes (211 samples, 8.47%)</title><rect x="65.0" y="131.0" width="100.0" height="15" fill="#5ff05f" rx="2" ry="2"/>
<text x="68.0" y="142.0">one/nio/http..</text>
</g>
<g>
<title>one/nio/util/ByteArrayBuilder.&lt;init&gt; (211 samples, 8.47%)</title><rect x="65.0" y="115.0" width="100.0" height="15" fill="#5ced5c" rx="2" ry="2"/>
<text x="68.0" y="126.0">one/nio/util..</text>
</g>
<g>
<title>byte[] (211 samples, 8.47%)</title><rect x="65.0" y="99.0" width="100.0" height="15" fill="#5ac8c8" rx="2" ry="2"/>
<text x="68.0" y="110.0">byte[]</text>
</g>
<g>
<title>one/nio/net/Session.write (74 samples, 2.97%)</title><rect x="165.0" y="131.0" width="35.0" height="15" fill="#65f665" rx="2" ry="2"/>
<text x="168.0" y="142.0">one..</text>
</g>
<g>
<title>one.nio.net.Session$ArrayQueueItem (74 samples, 2.97%)</title><rect x="165.0" y="115.0" width="35.0" height="15" fill="#68d6d6" rx="2" ry="2"/>
<text x="168.0" y="126.0">one..</text>
</g>
<g>
<title>one/nio/http/Response.&lt;init&gt; (227 samples, 9.12%)</title><rect x="200.0" y="163.0" width="107.6" height="15" fill="#64f564" rx="2" ry="2"/>
<text x="203.0" y="174.0">one/nio/http/..</text>
</g>
<g>
<title>byte[] (90 samples, 3.61%)</title><rect x="200.0" y="147.0" width="42.7" height="15" fill="#54c2c2" rx="2" ry="2"/>
<text x="203.0" y="158.0">byte[]</text>
</g>
<g>
<title>java.lang.String[] (76 samples, 3.05%)</title><rect x="242.7" y="147.0" width="36.0" height="15" fill="#50bebe" rx="2" ry="2"/>
<text x="245.7" y="158.0">jav..</text>
</g>
<g>
<title>java.lang.String (61 samples, 2.45%)</title><rect x="278.7" y="147.0" width="28.9" height="15" fill="#51bfbf" rx="2" ry="2"/>
<text x="281.7" y="158.0">ja..</text>
</g>
<g>
<title>ru/mail/polis/dao/impl/DAOImpl.upsert (546 samples, 21.93%)</title><rect x="307.6" y="163.0" width="258.8" height="15" fill="#64f564" rx="2" ry="2"/>
<text x="310.6" y="174.0">ru/mail/polis/dao/impl/DAOImpl.ups..</text>
</g>
<g>
<title>java/nio/HeapByteBuffer.asReadOnlyBuffer (221 samples, 8.88%)</title><rect x="307.6" y="147.0" width="104.7" height="15" fill="#55e655" rx="2" ry="2"/>
<text x="310.6" y="158.0">java/nio/Hea..</text>
</g>
<g>
<title>java.nio.HeapByteBufferR (221 samples, 8.88%)</title><rect x="307.6" y="131.0" width="104.7" height="15" fill="#62d0d0" rx="2" ry="2"/>
<text x="310.6" y="142.0">java.nio.Hea..</text>
</g>
<g>
<title>java/util/concurrent/locks/ReentrantReadWriteLock$ReadLock.lock (22 samples, 0.88%)</title><rect x="412.3" y="147.0" width="10.5" height="15" fill="#65f665" rx="2" ry="2"/>
<text x="415.3" y="158.0"></text>
</g>
<g>
<title>java/util/concurrent/locks/AbstractQueuedSynchronizer.acquireShared (22 samples, 0.88%)</title><rect x="412.3" y="131.0" width="10.5" height="15" fill="#61f261" rx="2" ry="2"/>
<text x="415.3" y="142.0"></text>
</g>
<g>
<title>java/util/concurrent/locks/ReentrantReadWriteLock$Sync.tryAcquireShared (22 samples, 0.88%)</title><rect x="412.3" y="115.0" width="10.5" height="15" fill="#50e150" rx="2" ry="2"/>
<text x="415.3" y="126.0"></text>
</g>
<g>
<title>java/lang/ThreadLocal.get (21 samples, 0.84%)</title><rect x="412.3" y="99.0" width="10.0" height="15" fill="#50e150" rx="2" ry="2"/>
<text x="415.3" y="110.0"></text>
</g>
<g>
<title>java/lang/ThreadLocal.setInitialValue (21 samples, 0.84%)</title><rect x="412.3" y="83.0" width="10.0" height="15" fill="#59ea59" rx="2" ry="2"/>
<text x="415.3" y="94.0"></text>
</g>
<g>
<title>java/lang/ThreadLocal$ThreadLocalMap.set (8 samples, 0.32%)</title><rect x="412.3" y="67.0" width="3.8" height="15" fill="#57e857" rx="2" ry="2"/>
<text x="415.3" y="78.0"></text>
</g>
<g>
<title>java.lang.ThreadLocal$ThreadLocalMap$Entry (8 samples, 0.32%)</title><rect x="412.3" y="51.0" width="3.8" height="15" fill="#63d1d1" rx="2" ry="2"/>
<text x="415.3" y="62.0"></text>
</g>
<g>
<title>java/util/concurrent/locks/ReentrantReadWriteLock$Sync$ThreadLocalHoldCounter.initialValue (13 samples, 0.52%)</title><rect x="416.1" y="67.0" width="6.2" height="15" fill="#69fa69" rx="2" ry="2"/>
<text x="419.1" y="78.0"></text>
</g>
<g>
<title>java/util/concurrent/locks/ReentrantReadWriteLock$Sync$ThreadLocalHoldCounter.initialValue (13 samples, 0.52%)</title><rect x="416.1" y="51.0" width="6.2" height="15" fill="#55e655" rx="2" ry="2"/>
<text x="419.1" y="62.0"></text>
</g>
<g>
<title>java.util.concurrent.locks.ReentrantReadWriteLock$Sync$HoldCounter (13 samples, 0.52%)</title><rect x="416.1" y="35.0" width="6.2" height="15" fill="#5ac8c8" rx="2" ry="2"/>
<text x="419.1" y="46.0"></text>
</g>
<g>
<title>java/lang/ThreadLocal.set (1 samples, 0.04%)</title><rect x="422.3" y="99.0" width="0.5" height="15" fill="#64f564" rx="2" ry="2"/>
<text x="425.3" y="110.0"></text>
</g>
<g>
<title>java/lang/ThreadLocal$ThreadLocalMap.set (1 samples, 0.04%)</title><rect x="422.3" y="83.0" width="0.5" height="15" fill="#6afb6a" rx="2" ry="2"/>
<text x="425.3" y="94.0"></text>
</g>
<g>
<title>java.lang.ThreadLocal$ThreadLocalMap$Entry (1 samples, 0.04%)</title><rect x="422.3" y="67.0" width="0.5" height="15" fill="#63d1d1" rx="2" ry="2"/>
<text x="425.3" y="78.0"></text>
</g>
<g>
<title>ru/mail/polis/dao/impl/tables/MemTable.upsert (303 samples, 12.17%)</title><rect x="422.8" y="147.0" width="143.6" height="15" fill="#59ea59" rx="2" ry="2"/>
<text x="425.8" y="158.0">ru/mail/polis/dao/..</text>
</g>
<g>
<title>java/nio/HeapByteBufferR.asReadOnlyBuffer (227 samples, 9.12%)</title><rect x="422.8" y="131.0" width="107.5" height="15" fill="#6afb6a" rx="2" ry="2"/>
<text x="425.8" y="142.0">java/nio/Heap..</text>
</g>
<g>
<title>java/nio/HeapByteBufferR.duplicate (227 samples, 9.12%)</title><rect x="422.8" y="115.0" width="107.5" height="15" fill="#55e655" rx="2" ry="2"/>
<text x="425.8" y="126.0">java/nio/Heap..</text>
</g>
<g>
<title>java.nio.HeapByteBufferR (227 samples, 9.12%)</title><rect x="422.8" y="99.0" width="107.5" height="15" fill="#54c2c2" rx="2" ry="2"/>
<text x="425.8" y="110.0">java.nio.Heap..</text>
</g>
<g>
<title>java/util/concurrent/ConcurrentSkipListMap.put (22 samples, 0.88%)</title><rect x="530.3" y="131.0" width="10.5" height="15" fill="#5ff05f" rx="2" ry="2"/>
<text x="533.3" y="142.0"></text>
</g>
<g>
<title>java/util/concurrent/ConcurrentSkipListMap.doPut (22 samples, 0.88%)</title><rect x="530.3" y="115.0" width="10.5" height="15" fill="#68f968" rx="2" ry="2"/>
<text x="533.3" y="126.0"></text>
</g>
<g>
<title>java.util.concurrent.ConcurrentSkipListMap$Index (6 samples, 0.24%)</title><rect x="530.3" y="99.0" width="2.9" height="15" fill="#64d2d2" rx="2" ry="2"/>
<text x="533.3" y="110.0"></text>
</g>
<g>
<title>java.util.concurrent.ConcurrentSkipListMap$Node (16 samples, 0.64%)</title><rect x="533.2" y="99.0" width="7.6" height="15" fill="#6bd9d9" rx="2" ry="2"/>
<text x="536.2" y="110.0"></text>
</g>
<g>
<title>ru.mail.polis.dao.impl.models.Value (54 samples, 2.17%)</title><rect x="540.8" y="131.0" width="25.6" height="15" fill="#55c3c3" rx="2" ry="2"/>
<text x="543.8" y="142.0">r..</text>
</g>
<g>
<title>one/nio/server/SelectorThread.run (1,316 samples, 52.85%)</title><rect x="566.4" y="259.0" width="623.6" height="15" fill="#5bec5b" rx="2" ry="2"/>
<text x="569.4" y="270.0">one/nio/server/SelectorThread.run</text>
</g>
<g>
<title>one/nio/net/NativeSelector.select (27 samples, 1.08%)</title><rect x="566.4" y="243.0" width="12.7" height="15" fill="#65f665" rx="2" ry="2"/>
<text x="569.4" y="254.0"></text>
</g>
<g>
<title>one.nio.net.NativeSelector$2 (27 samples, 1.08%)</title><rect x="566.4" y="227.0" width="12.7" height="15" fill="#6ad8d8" rx="2" ry="2"/>
<text x="569.4" y="238.0"></text>
</g>
<g>
<title>one/nio/net/Session.process (1,289 samples, 51.77%)</title><rect x="579.1" y="243.0" width="610.9" height="15" fill="#60f160" rx="2" ry="2"/>
<text x="582.1" y="254.0">one/nio/net/Session.process</text>
</g>
<g>
<title>one/nio/http/HttpSession.processRead (1,289 samples, 51.77%)</title><rect x="579.1" y="227.0" width="610.9" height="15" fill="#66f766" rx="2" ry="2"/>
<text x="582.1" y="238.0">one/nio/http/HttpSession.processRead</text>
</g>
<g>
<title>one/nio/http/HttpSession.processHttpBuffer (1,289 samples, 51.77%)</title><rect x="579.1" y="211.0" width="610.9" height="15" fill="#6bfc6b" rx="2" ry="2"/>
<text x="582.1" y="222.0">one/nio/http/HttpSession.processHttpBuffer</text>
</g>
<g>
<title>one/nio/http/HttpSession.handleParsedRequest (433 samples, 17.39%)</title><rect x="579.1" y="195.0" width="205.2" height="15" fill="#56e756" rx="2" ry="2"/>
<text x="582.1" y="206.0">one/nio/http/HttpSession.ha..</text>
</g>
<g>
<title>one/nio/http/HttpServer.handleRequest (433 samples, 17.39%)</title><rect x="579.1" y="179.0" width="205.2" height="15" fill="#6bfc6b" rx="2" ry="2"/>
<text x="582.1" y="190.0">one/nio/http/HttpServer.han..</text>
</g>
<g>
<title>RequestHandler1_response.handleRequest (332 samples, 13.33%)</title><rect x="579.1" y="163.0" width="157.4" height="15" fill="#60f160" rx="2" ry="2"/>
<text x="582.1" y="174.0">RequestHandler1_resp..</text>
</g>
<g>
<title>one/nio/http/Request.getRequiredParameter (92 samples, 3.69%)</title><rect x="579.1" y="147.0" width="43.6" height="15" fill="#6cfd6c" rx="2" ry="2"/>
<text x="582.1" y="158.0">one/..</text>
</g>
<g>
<title>one/nio/http/Request.getParameter (92 samples, 3.69%)</title><rect x="579.1" y="131.0" width="43.6" height="15" fill="#5eef5e" rx="2" ry="2"/>
<text x="582.1" y="142.0">one/..</text>
</g>
<g>
<title>java/lang/String.substring (92 samples, 3.69%)</title><rect x="579.1" y="115.0" width="43.6" height="15" fill="#60f160" rx="2" ry="2"/>
<text x="582.1" y="126.0">java..</text>
</g>
<g>
<title>java/lang/StringLatin1.newString (92 samples, 3.69%)</title><rect x="579.1" y="99.0" width="43.6" height="15" fill="#6cfd6c" rx="2" ry="2"/>
<text x="582.1" y="110.0">java..</text>
</g>
<g>
<title>java.lang.String (44 samples, 1.77%)</title><rect x="579.1" y="83.0" width="20.9" height="15" fill="#67d5d5" rx="2" ry="2"/>
<text x="582.1" y="94.0"></text>
</g>
<g>
<title>java/util/Arrays.copyOfRange (48 samples, 1.93%)</title><rect x="600.0" y="83.0" width="22.7" height="15" fill="#68f968" rx="2" ry="2"/>
<text x="603.0" y="94.0">j..</text>
</g>
<g>
<title>byte[] (48 samples, 1.93%)</title><rect x="600.0" y="67.0" width="22.7" height="15" fill="#61cfcf" rx="2" ry="2"/>
<text x="603.0" y="78.0">b..</text>
</g>
<g>
<title>ru/mail/polis/service/mrsandman5/ServiceImpl.response (240 samples, 9.64%)</title><rect x="622.7" y="147.0" width="113.8" height="15" fill="#63f463" rx="2" ry="2"/>
<text x="625.7" y="158.0">ru/mail/polis/..</text>
</g>
<g>
<title>java/lang/String.getBytes (49 samples, 1.97%)</title><rect x="622.7" y="131.0" width="23.3" height="15" fill="#6dfe6d" rx="2" ry="2"/>
<text x="625.7" y="142.0">j..</text>
</g>
<g>
<title>java/lang/StringCoding.encode (49 samples, 1.97%)</title><rect x="622.7" y="115.0" width="23.3" height="15" fill="#6cfd6c" rx="2" ry="2"/>
<text x="625.7" y="126.0">j..</text>
</g>
<g>
<title>java/lang/StringCoding.encodeUTF8 (49 samples, 1.97%)</title><rect x="622.7" y="99.0" width="23.3" height="15" fill="#59ea59" rx="2" ry="2"/>
<text x="625.7" y="110.0">j..</text>
</g>
<g>
<title>java/util/Arrays.copyOf (49 samples, 1.97%)</title><rect x="622.7" y="83.0" width="23.3" height="15" fill="#6afb6a" rx="2" ry="2"/>
<text x="625.7" y="94.0">j..</text>
</g>
<g>
<title>byte[] (49 samples, 1.97%)</title><rect x="622.7" y="67.0" width="23.3" height="15" fill="#61cfcf" rx="2" ry="2"/>
<text x="625.7" y="78.0">b..</text>
</g>
<g>
<title>java/nio/ByteBuffer.wrap (75 samples, 3.01%)</title><rect x="646.0" y="131.0" width="35.5" height="15" fill="#63f463" rx="2" ry="2"/>
<text x="649.0" y="142.0">jav..</text>
</g>
<g>
<title>java/nio/ByteBuffer.wrap (75 samples, 3.01%)</title><rect x="646.0" y="115.0" width="35.5" height="15" fill="#66f766" rx="2" ry="2"/>
<text x="649.0" y="126.0">jav..</text>
</g>
<g>
<title>java.nio.HeapByteBuffer (75 samples, 3.01%)</title><rect x="646.0" y="99.0" width="35.5" height="15" fill="#67d5d5" rx="2" ry="2"/>
<text x="649.0" y="110.0">jav..</text>
</g>
<g>
<title>ru/mail/polis/service/mrsandman5/ServiceImpl.put (116 samples, 4.66%)</title><rect x="681.5" y="131.0" width="55.0" height="15" fill="#67f867" rx="2" ry="2"/>
<text x="684.5" y="142.0">ru/ma..</text>
</g>
<g>
<title>java/lang/invoke/Invokers$Holder.linkToTargetMethod (47 samples, 1.89%)</title><rect x="681.5" y="115.0" width="22.3" height="15" fill="#57e857" rx="2" ry="2"/>
<text x="684.5" y="126.0">j..</text>
</g>
<g>
<title>java/lang/invoke/DirectMethodHandle$Holder.invokeStatic (47 samples, 1.89%)</title><rect x="681.5" y="99.0" width="22.3" height="15" fill="#62f362" rx="2" ry="2"/>
<text x="684.5" y="110.0">j..</text>
</g>
<g>
<title>ru/mail/polis/service/mrsandman5/ServiceImpl$$Lambda$68/1815599437.get$Lambda (47 samples, 1.89%)</title><rect x="681.5" y="83.0" width="22.3" height="15" fill="#5eef5e" rx="2" ry="2"/>
<text x="684.5" y="94.0">r..</text>
</g>
<g>
<title>ru.mail.polis.service.mrsandman5.ServiceImpl$$Lambda$68 (47 samples, 1.89%)</title><rect x="681.5" y="67.0" width="22.3" height="15" fill="#55c3c3" rx="2" ry="2"/>
<text x="684.5" y="78.0">r..</text>
</g>
<g>
<title>java/nio/ByteBuffer.wrap (68 samples, 2.73%)</title><rect x="703.8" y="115.0" width="32.2" height="15" fill="#67f867" rx="2" ry="2"/>
<text x="706.8" y="126.0">ja..</text>
</g>
<g>
<title>java/nio/ByteBuffer.wrap (68 samples, 2.73%)</title><rect x="703.8" y="99.0" width="32.2" height="15" fill="#69fa69" rx="2" ry="2"/>
<text x="706.8" y="110.0">ja..</text>
</g>
<g>
<title>java.nio.HeapByteBuffer (68 samples, 2.73%)</title><rect x="703.8" y="83.0" width="32.2" height="15" fill="#6ad8d8" rx="2" ry="2"/>
<text x="706.8" y="94.0">ja..</text>
</g>
<g>
<title>java/util/concurrent/ThreadPoolExecutor.execute (1 samples, 0.04%)</title><rect x="736.0" y="115.0" width="0.5" height="15" fill="#63f463" rx="2" ry="2"/>
<text x="739.0" y="126.0"></text>
</g>
<g>
<title>java/util/concurrent/ArrayBlockingQueue.offer (1 samples, 0.04%)</title><rect x="736.0" y="99.0" width="0.5" height="15" fill="#5ced5c" rx="2" ry="2"/>
<text x="739.0" y="110.0"></text>
</g>
<g>
<title>java/util/concurrent/locks/ReentrantLock.lock (1 samples, 0.04%)</title><rect x="736.0" y="83.0" width="0.5" height="15" fill="#62f362" rx="2" ry="2"/>
<text x="739.0" y="94.0"></text>
</g>
<g>
<title>java/util/concurrent/locks/AbstractQueuedSynchronizer.acquire (1 samples, 0.04%)</title><rect x="736.0" y="67.0" width="0.5" height="15" fill="#61f261" rx="2" ry="2"/>
<text x="739.0" y="78.0"></text>
</g>
<g>
<title>java/util/concurrent/locks/AbstractQueuedSynchronizer.addWaiter (1 samples, 0.04%)</title><rect x="736.0" y="51.0" width="0.5" height="15" fill="#63f463" rx="2" ry="2"/>
<text x="739.0" y="62.0"></text>
</g>
<g>
<title>java.util.concurrent.locks.AbstractQueuedSynchronizer$Node (1 samples, 0.04%)</title><rect x="736.0" y="35.0" width="0.5" height="15" fill="#60cece" rx="2" ry="2"/>
<text x="739.0" y="46.0"></text>
</g>
<g>
<title>one/nio/http/Request.getPath (101 samples, 4.06%)</title><rect x="736.5" y="163.0" width="47.8" height="15" fill="#54e554" rx="2" ry="2"/>
<text x="739.5" y="174.0">one/..</text>
</g>
<g>
<title>java/lang/String.substring (101 samples, 4.06%)</title><rect x="736.5" y="147.0" width="47.8" height="15" fill="#61f261" rx="2" ry="2"/>
<text x="739.5" y="158.0">java..</text>
</g>
<g>
<title>java/lang/StringLatin1.newString (101 samples, 4.06%)</title><rect x="736.5" y="131.0" width="47.8" height="15" fill="#50e150" rx="2" ry="2"/>
<text x="739.5" y="142.0">java..</text>
</g>
<g>
<title>java.lang.String (49 samples, 1.97%)</title><rect x="736.5" y="115.0" width="23.2" height="15" fill="#65d3d3" rx="2" ry="2"/>
<text x="739.5" y="126.0">j..</text>
</g>
<g>
<title>java/util/Arrays.copyOfRange (52 samples, 2.09%)</title><rect x="759.7" y="115.0" width="24.6" height="15" fill="#5ff05f" rx="2" ry="2"/>
<text x="762.7" y="126.0">j..</text>
</g>
<g>
<title>byte[] (52 samples, 2.09%)</title><rect x="759.7" y="99.0" width="24.6" height="15" fill="#68d6d6" rx="2" ry="2"/>
<text x="762.7" y="110.0">b..</text>
</g>
<g>
<title>one/nio/http/HttpSession.parseRequest (396 samples, 15.90%)</title><rect x="784.3" y="195.0" width="187.7" height="15" fill="#5ff05f" rx="2" ry="2"/>
<text x="787.3" y="206.0">one/nio/http/HttpSession..</text>
</g>
<g>
<title>one.nio.http.Request (51 samples, 2.05%)</title><rect x="784.3" y="179.0" width="24.2" height="15" fill="#53c1c1" rx="2" ry="2"/>
<text x="787.3" y="190.0">o..</text>
</g>
<g>
<title>one/nio/http/Request.&lt;init&gt; (136 samples, 5.46%)</title><rect x="808.5" y="179.0" width="64.5" height="15" fill="#5eef5e" rx="2" ry="2"/>
<text x="811.5" y="190.0">one/nio..</text>
</g>
<g>
<title>java.lang.String[] (136 samples, 5.46%)</title><rect x="808.5" y="163.0" width="64.5" height="15" fill="#5fcdcd" rx="2" ry="2"/>
<text x="811.5" y="174.0">java.la..</text>
</g>
<g>
<title>one/nio/util/Utf8.read (209 samples, 8.39%)</title><rect x="873.0" y="179.0" width="99.0" height="15" fill="#51e251" rx="2" ry="2"/>
<text x="876.0" y="190.0">one/nio/util..</text>
</g>
<g>
<title>one/nio/util/Utf8.read (209 samples, 8.39%)</title><rect x="873.0" y="163.0" width="99.0" height="15" fill="#68f968" rx="2" ry="2"/>
<text x="876.0" y="174.0">one/nio/util..</text>
</g>
<g>
<title>char[] (108 samples, 4.34%)</title><rect x="873.0" y="147.0" width="51.1" height="15" fill="#5bc9c9" rx="2" ry="2"/>
<text x="876.0" y="158.0">char[]</text>
</g>
<g>
<title>java.lang.String (40 samples, 1.61%)</title><rect x="924.1" y="147.0" width="19.0" height="15" fill="#63d1d1" rx="2" ry="2"/>
<text x="927.1" y="158.0"></text>
</g>
<g>
<title>java/lang/String.&lt;init&gt; (61 samples, 2.45%)</title><rect x="943.1" y="147.0" width="28.9" height="15" fill="#5dee5d" rx="2" ry="2"/>
<text x="946.1" y="158.0">ja..</text>
</g>
<g>
<title>java/lang/String.&lt;init&gt; (61 samples, 2.45%)</title><rect x="943.1" y="131.0" width="28.9" height="15" fill="#54e554" rx="2" ry="2"/>
<text x="946.1" y="142.0">ja..</text>
</g>
<g>
<title>java/lang/StringUTF16.compress (61 samples, 2.45%)</title><rect x="943.1" y="115.0" width="28.9" height="15" fill="#5ced5c" rx="2" ry="2"/>
<text x="946.1" y="126.0">ja..</text>
</g>
<g>
<title>byte[] (61 samples, 2.45%)</title><rect x="943.1" y="99.0" width="28.9" height="15" fill="#57c5c5" rx="2" ry="2"/>
<text x="946.1" y="110.0">by..</text>
</g>
<g>
<title>one/nio/http/HttpSession.startParsingRequestBody (41 samples, 1.65%)</title><rect x="972.0" y="195.0" width="19.4" height="15" fill="#5ced5c" rx="2" ry="2"/>
<text x="975.0" y="206.0"></text>
</g>
<g>
<title>byte[] (41 samples, 1.65%)</title><rect x="972.0" y="179.0" width="19.4" height="15" fill="#50bebe" rx="2" ry="2"/>
<text x="975.0" y="190.0"></text>
</g>
<g>
<title>one/nio/http/Request.getHeader (65 samples, 2.61%)</title><rect x="991.4" y="195.0" width="30.8" height="15" fill="#65f665" rx="2" ry="2"/>
<text x="994.4" y="206.0">on..</text>
</g>
<g>
<title>java/lang/String.substring (65 samples, 2.61%)</title><rect x="991.4" y="179.0" width="30.8" height="15" fill="#61f261" rx="2" ry="2"/>
<text x="994.4" y="190.0">ja..</text>
</g>
<g>
<title>java/lang/StringLatin1.newString (65 samples, 2.61%)</title><rect x="991.4" y="163.0" width="30.8" height="15" fill="#68f968" rx="2" ry="2"/>
<text x="994.4" y="174.0">ja..</text>
</g>
<g>
<title>java.lang.String (25 samples, 1.00%)</title><rect x="991.4" y="147.0" width="11.9" height="15" fill="#61cfcf" rx="2" ry="2"/>
<text x="994.4" y="158.0"></text>
</g>
<g>
<title>java/util/Arrays.copyOfRange (40 samples, 1.61%)</title><rect x="1003.3" y="147.0" width="18.9" height="15" fill="#5dee5d" rx="2" ry="2"/>
<text x="1006.3" y="158.0"></text>
</g>
<g>
<title>byte[] (40 samples, 1.61%)</title><rect x="1003.3" y="131.0" width="18.9" height="15" fill="#5ecccc" rx="2" ry="2"/>
<text x="1006.3" y="142.0"></text>
</g>
<g>
<title>one/nio/util/Utf8.read (354 samples, 14.22%)</title><rect x="1022.2" y="195.0" width="167.8" height="15" fill="#6dfe6d" rx="2" ry="2"/>
<text x="1025.2" y="206.0">one/nio/util/Utf8.read</text>
</g>
<g>
<title>one/nio/util/Utf8.read (354 samples, 14.22%)</title><rect x="1022.2" y="179.0" width="167.8" height="15" fill="#51e251" rx="2" ry="2"/>
<text x="1025.2" y="190.0">one/nio/util/Utf8.read</text>
</g>
<g>
<title>char[] (177 samples, 7.11%)</title><rect x="1022.2" y="163.0" width="83.9" height="15" fill="#52c0c0" rx="2" ry="2"/>
<text x="1025.2" y="174.0">char[]</text>
</g>
<g>
<title>java.lang.String (72 samples, 2.89%)</title><rect x="1106.1" y="163.0" width="34.1" height="15" fill="#63d1d1" rx="2" ry="2"/>
<text x="1109.1" y="174.0">ja..</text>
</g>
<g>
<title>java/lang/String.&lt;init&gt; (105 samples, 4.22%)</title><rect x="1140.2" y="163.0" width="49.8" height="15" fill="#61f261" rx="2" ry="2"/>
<text x="1143.2" y="174.0">java/..</text>
</g>
<g>
<title>java/lang/String.&lt;init&gt; (105 samples, 4.22%)</title><rect x="1140.2" y="147.0" width="49.8" height="15" fill="#56e756" rx="2" ry="2"/>
<text x="1143.2" y="158.0">java/..</text>
</g>
<g>
<title>java/lang/StringUTF16.compress (105 samples, 4.22%)</title><rect x="1140.2" y="131.0" width="49.8" height="15" fill="#56e756" rx="2" ry="2"/>
<text x="1143.2" y="142.0">java/..</text>
</g>
<g>
<title>byte[] (105 samples, 4.22%)</title><rect x="1140.2" y="115.0" width="49.8" height="15" fill="#62d0d0" rx="2" ry="2"/>
<text x="1143.2" y="126.0">byte[]</text>
</g>
</g>
</svg>
