<?xml version="1.0" standalone="no"?>
<!DOCTYPE svg PUBLIC "-//W3C//DTD SVG 1.1//EN" "http://www.w3.org/Graphics/SVG/1.1/DTD/svg11.dtd">
<svg version="1.1" width="1200" height="582" onload="init(evt)" viewBox="0 0 1200 582" xmlns="http://www.w3.org/2000/svg" xmlns:xlink="http://www.w3.org/1999/xlink">
<style type="text/css">
	text { font-family:Verdana; font-size:12px; fill:rgb(0,0,0); }
	#search { opacity:0.1; cursor:pointer; }
	#search:hover, #search.show { opacity:1; }
	#subtitle { text-anchor:middle; font-color:rgb(160,160,160); }
	#title { text-anchor:middle; font-size:17px}
	#unzoom { cursor:pointer; }
	#frames > *:hover { stroke:black; stroke-width:0.5; cursor:pointer; }
	.hide { display:none; }
	.parent { opacity:0.5; }
</style>
<script type="text/ecmascript">
<![CDATA[
	"use strict";
	var details, searchbtn, unzoombtn, matchedtxt, svg, searching;
	function init(evt) {
		details = document.getElementById("details").firstChild;
		searchbtn = document.getElementById("search");
		unzoombtn = document.getElementById("unzoom");
		matchedtxt = document.getElementById("matched");
		svg = document.getElementsByTagName("svg")[0];
		searching = 0;
	}

	window.addEventListener("click", function(e) {
		var target = find_group(e.target);
		if (target) {
			if (target.nodeName == "a") {
				if (e.ctrlKey === false) return;
				e.preventDefault();
			}
			if (target.classList.contains("parent")) unzoom();
			zoom(target);
		}
		else if (e.target.id == "unzoom") unzoom();
		else if (e.target.id == "search") search_prompt();
	}, false)

	// mouse-over for info
	// show
	window.addEventListener("mouseover", function(e) {
		var target = find_group(e.target);
		if (target) details.nodeValue = "Function: " + g_to_text(target);
	}, false)

	// clear
	window.addEventListener("mouseout", function(e) {
		var target = find_group(e.target);
		if (target) details.nodeValue = ' ';
	}, false)

	// ctrl-F for search
	window.addEventListener("keydown",function (e) {
		if (e.keyCode === 114 || (e.ctrlKey && e.keyCode === 70)) {
			e.preventDefault();
			search_prompt();
		}
	}, false)

	// functions
	function find_child(node, selector) {
		var children = node.querySelectorAll(selector);
		if (children.length) return children[0];
		return;
	}
	function find_group(node) {
		var parent = node.parentElement;
		if (!parent) return;
		if (parent.id == "frames") return node;
		return find_group(parent);
	}
	function orig_save(e, attr, val) {
		if (e.attributes["_orig_" + attr] != undefined) return;
		if (e.attributes[attr] == undefined) return;
		if (val == undefined) val = e.attributes[attr].value;
		e.setAttribute("_orig_" + attr, val);
	}
	function orig_load(e, attr) {
		if (e.attributes["_orig_"+attr] == undefined) return;
		e.attributes[attr].value = e.attributes["_orig_" + attr].value;
		e.removeAttribute("_orig_"+attr);
	}
	function g_to_text(e) {
		var text = find_child(e, "title").firstChild.nodeValue;
		return (text)
	}
	function g_to_func(e) {
		var func = g_to_text(e);
		// if there's any manipulation we want to do to the function
		// name before it's searched, do it here before returning.
		return (func);
	}
	function update_text(e) {
		var r = find_child(e, "rect");
		var t = find_child(e, "text");
		var w = parseFloat(r.attributes.width.value) -3;
		var txt = find_child(e, "title").textContent.replace(/\([^(]*\)$/,"");
		t.attributes.x.value = parseFloat(r.attributes.x.value) + 3;

		// Smaller than this size won't fit anything
		if (w < 2 * 12 * 0.59) {
			t.textContent = "";
			return;
		}

		t.textContent = txt;
		// Fit in full text width
		if (/^ *$/.test(txt) || t.getSubStringLength(0, txt.length) < w)
			return;

		for (var x = txt.length - 2; x > 0; x--) {
			if (t.getSubStringLength(0, x + 2) <= w) {
				t.textContent = txt.substring(0, x) + "..";
				return;
			}
		}
		t.textContent = "";
	}

	// zoom
	function zoom_reset(e) {
		if (e.attributes != undefined) {
			orig_load(e, "x");
			orig_load(e, "width");
		}
		if (e.childNodes == undefined) return;
		for (var i = 0, c = e.childNodes; i < c.length; i++) {
			zoom_reset(c[i]);
		}
	}
	function zoom_child(e, x, ratio) {
		if (e.attributes != undefined) {
			if (e.attributes.x != undefined) {
				orig_save(e, "x");
				e.attributes.x.value = (parseFloat(e.attributes.x.value) - x - 10) * ratio + 10;
				if (e.tagName == "text")
					e.attributes.x.value = find_child(e.parentNode, "rect[x]").attributes.x.value + 3;
			}
			if (e.attributes.width != undefined) {
				orig_save(e, "width");
				e.attributes.width.value = parseFloat(e.attributes.width.value) * ratio;
			}
		}

		if (e.childNodes == undefined) return;
		for (var i = 0, c = e.childNodes; i < c.length; i++) {
			zoom_child(c[i], x - 10, ratio);
		}
	}
	function zoom_parent(e) {
		if (e.attributes) {
			if (e.attributes.x != undefined) {
				orig_save(e, "x");
				e.attributes.x.value = 10;
			}
			if (e.attributes.width != undefined) {
				orig_save(e, "width");
				e.attributes.width.value = parseInt(svg.width.baseVal.value) - (10 * 2);
			}
		}
		if (e.childNodes == undefined) return;
		for (var i = 0, c = e.childNodes; i < c.length; i++) {
			zoom_parent(c[i]);
		}
	}
	function zoom(node) {
		var attr = find_child(node, "rect").attributes;
		var width = parseFloat(attr.width.value);
		var xmin = parseFloat(attr.x.value);
		var xmax = parseFloat(xmin + width);
		var ymin = parseFloat(attr.y.value);
		var ratio = (svg.width.baseVal.value - 2 * 10) / width;

		// XXX: Workaround for JavaScript float issues (fix me)
		var fudge = 0.0001;

		unzoombtn.classList.remove("hide");

		var el = document.getElementById("frames").children;
		for (var i = 0; i < el.length; i++) {
			var e = el[i];
			var a = find_child(e, "rect").attributes;
			var ex = parseFloat(a.x.value);
			var ew = parseFloat(a.width.value);
			var upstack;
			// Is it an ancestor
			if (0 == 0) {
				upstack = parseFloat(a.y.value) > ymin;
			} else {
				upstack = parseFloat(a.y.value) < ymin;
			}
			if (upstack) {
				// Direct ancestor
				if (ex <= xmin && (ex+ew+fudge) >= xmax) {
					e.classList.add("parent");
					zoom_parent(e);
					update_text(e);
				}
				// not in current path
				else
					e.classList.add("hide");
			}
			// Children maybe
			else {
				// no common path
				if (ex < xmin || ex + fudge >= xmax) {
					e.classList.add("hide");
				}
				else {
					zoom_child(e, xmin, ratio);
					update_text(e);
				}
			}
		}
	}
	function unzoom() {
		unzoombtn.classList.add("hide");
		var el = document.getElementById("frames").children;
		for(var i = 0; i < el.length; i++) {
			el[i].classList.remove("parent");
			el[i].classList.remove("hide");
			zoom_reset(el[i]);
			update_text(el[i]);
		}
	}

	// search
	function reset_search() {
		var el = document.querySelectorAll("#frames rect");
		for (var i = 0; i < el.length; i++) {
			orig_load(el[i], "fill")
		}
	}
	function search_prompt() {
		if (!searching) {
			var term = prompt("Enter a search term (regexp " +
			    "allowed, eg: ^ext4_)", "");
			if (term != null) {
				search(term)
			}
		} else {
			reset_search();
			searching = 0;
			searchbtn.classList.remove("show");
			searchbtn.firstChild.nodeValue = "Search"
			matchedtxt.classList.add("hide");
			matchedtxt.firstChild.nodeValue = ""
		}
	}
	function search(term) {
		var re = new RegExp(term);
		var el = document.getElementById("frames").children;
		var matches = new Object();
		var maxwidth = 0;
		for (var i = 0; i < el.length; i++) {
			var e = el[i];
			var func = g_to_func(e);
			var rect = find_child(e, "rect");
			if (func == null || rect == null)
				continue;

			// Save max width. Only works as we have a root frame
			var w = parseFloat(rect.attributes.width.value);
			if (w > maxwidth)
				maxwidth = w;

			if (func.match(re)) {
				// highlight
				var x = parseFloat(rect.attributes.x.value);
				orig_save(rect, "fill");
				rect.attributes.fill.value = "rgb(230,0,230)";

				// remember matches
				if (matches[x] == undefined) {
					matches[x] = w;
				} else {
					if (w > matches[x]) {
						// overwrite with parent
						matches[x] = w;
					}
				}
				searching = 1;
			}
		}
		if (!searching)
			return;

		searchbtn.classList.add("show");
		searchbtn.firstChild.nodeValue = "Reset Search";

		// calculate percent matched, excluding vertical overlap
		var count = 0;
		var lastx = -1;
		var lastw = 0;
		var keys = Array();
		for (k in matches) {
			if (matches.hasOwnProperty(k))
				keys.push(k);
		}
		// sort the matched frames by their x location
		// ascending, then width descending
		keys.sort(function(a, b){
			return a - b;
		});
		// Step through frames saving only the biggest bottom-up frames
		// thanks to the sort order. This relies on the tree property
		// where children are always smaller than their parents.
		var fudge = 0.0001;	// JavaScript floating point
		for (var k in keys) {
			var x = parseFloat(keys[k]);
			var w = matches[keys[k]];
			if (x >= lastx + lastw - fudge) {
				count += w;
				lastx = x;
				lastw = w;
			}
		}
		// display matched percent
		matchedtxt.classList.remove("hide");
		var pct = 100 * count / maxwidth;
		if (pct != 100) pct = pct.toFixed(1)
		matchedtxt.firstChild.nodeValue = "Matched: " + pct + "%";
	}
]]>
</script>
<rect x="0" y="0" width="100%" height="100%" fill="rgb(240,240,220)"/>
<text id="title" x="600" y="24">Flame Graph</text>
<text id="details" x="10" y="565"> </text>
<text id="unzoom" x="10" y="24" class="hide">Reset Zoom</text>
<text id="search" x="1090" y="24">Search</text>
<text id="matched" x="1090" y="565"> </text>
<g id="frames">
<g>
<title>all (88 samples, 100.00%)</title><rect x="10.0" y="531.0" width="1180.0" height="15" fill="#e15a5a" rx="2" ry="2"/>
<text x="13.0" y="542.0">all</text>
</g>
<g>
<title>one/nio/server/SelectorThread.run (87 samples, 98.86%)</title><rect x="10.0" y="515.0" width="1166.6" height="15" fill="#63f463" rx="2" ry="2"/>
<text x="13.0" y="526.0">one/nio/server/SelectorThread.run</text>
</g>
<g>
<title>one/nio/net/NativeSelector.select (16 samples, 18.18%)</title><rect x="10.0" y="499.0" width="214.5" height="15" fill="#62f362" rx="2" ry="2"/>
<text x="13.0" y="510.0">one/nio/net/NativeSelector.s..</text>
</g>
<g>
<title>one/nio/net/NativeSelector.epollWait (15 samples, 17.05%)</title><rect x="23.4" y="483.0" width="201.1" height="15" fill="#64f564" rx="2" ry="2"/>
<text x="26.4" y="494.0">one/nio/net/NativeSelector..</text>
</g>
<g>
<title>__clock_gettime (1 samples, 1.14%)</title><rect x="36.8" y="467.0" width="13.4" height="15" fill="#f06e6e" rx="2" ry="2"/>
<text x="39.8" y="478.0"></text>
</g>
<g>
<title>__libc_disable_asynccancel (1 samples, 1.14%)</title><rect x="50.2" y="467.0" width="13.4" height="15" fill="#fb7d7d" rx="2" ry="2"/>
<text x="53.2" y="478.0"></text>
</g>
<g>
<title>__libc_enable_asynccancel (1 samples, 1.14%)</title><rect x="63.6" y="467.0" width="13.4" height="15" fill="#e86363" rx="2" ry="2"/>
<text x="66.6" y="478.0"></text>
</g>
<g>
<title>clock_gettime (1 samples, 1.14%)</title><rect x="77.0" y="467.0" width="13.5" height="15" fill="#f57575" rx="2" ry="2"/>
<text x="80.0" y="478.0"></text>
</g>
<g>
<title>clock_gettime@plt (2 samples, 2.27%)</title><rect x="90.5" y="467.0" width="26.8" height="15" fill="#f67676" rx="2" ry="2"/>
<text x="93.5" y="478.0">c..</text>
</g>
<g>
<title>epoll_wait (7 samples, 7.95%)</title><rect x="117.3" y="467.0" width="93.8" height="15" fill="#ee6c6c" rx="2" ry="2"/>
<text x="120.3" y="478.0">epoll_wait</text>
</g>
<g>
<title>epoll_wait@plt (1 samples, 1.14%)</title><rect x="211.1" y="467.0" width="13.4" height="15" fill="#f87979" rx="2" ry="2"/>
<text x="214.1" y="478.0"></text>
</g>
<g>
<title>one/nio/net/Session.process (71 samples, 80.68%)</title><rect x="224.5" y="499.0" width="952.1" height="15" fill="#55e655" rx="2" ry="2"/>
<text x="227.5" y="510.0">one/nio/net/Session.process</text>
</g>
<g>
<title>one/nio/http/HttpSession.processRead (68 samples, 77.27%)</title><rect x="264.8" y="483.0" width="911.8" height="15" fill="#59ea59" rx="2" ry="2"/>
<text x="267.8" y="494.0">one/nio/http/HttpSession.processRead</text>
</g>
<g>
<title>one/nio/http/HttpSession.processHttpBuffer (54 samples, 61.36%)</title><rect x="264.8" y="467.0" width="724.1" height="15" fill="#5aeb5a" rx="2" ry="2"/>
<text x="267.8" y="478.0">one/nio/http/HttpSession.processHttpBuffer</text>
</g>
<g>
<title>one/nio/http/HttpSession.handleParsedRequest (44 samples, 50.00%)</title><rect x="264.8" y="451.0" width="590.0" height="15" fill="#63f463" rx="2" ry="2"/>
<text x="267.8" y="462.0">one/nio/http/HttpSession.handleParsedRequest</text>
</g>
<g>
<title>one/nio/http/HttpServer.handleRequest (44 samples, 50.00%)</title><rect x="264.8" y="435.0" width="590.0" height="15" fill="#55e655" rx="2" ry="2"/>
<text x="267.8" y="446.0">one/nio/http/HttpServer.handleRequest</text>
</g>
<g>
<title>RequestHandler0_response.handleRequest (44 samples, 50.00%)</title><rect x="264.8" y="419.0" width="590.0" height="15" fill="#57e857" rx="2" ry="2"/>
<text x="267.8" y="430.0">RequestHandler0_response.handleRequest</text>
</g>
<g>
<title>one/nio/http/HttpSession.sendResponse (7 samples, 7.95%)</title><rect x="264.8" y="403.0" width="93.8" height="15" fill="#50e150" rx="2" ry="2"/>
<text x="267.8" y="414.0">one/nio/htt..</text>
</g>
<g>
<title>one/nio/http/HttpSession.writeResponse (7 samples, 7.95%)</title><rect x="264.8" y="387.0" width="93.8" height="15" fill="#54e554" rx="2" ry="2"/>
<text x="267.8" y="398.0">one/nio/htt..</text>
</g>
<g>
<title>one/nio/net/Session.write (7 samples, 7.95%)</title><rect x="264.8" y="371.0" width="93.8" height="15" fill="#5ced5c" rx="2" ry="2"/>
<text x="267.8" y="382.0">one/nio/net..</text>
</g>
<g>
<title>one/nio/net/Session.write (7 samples, 7.95%)</title><rect x="264.8" y="355.0" width="93.8" height="15" fill="#56e756" rx="2" ry="2"/>
<text x="267.8" y="366.0">one/nio/net..</text>
</g>
<g>
<title>one/nio/net/Session$ArrayQueueItem.write (7 samples, 7.95%)</title><rect x="264.8" y="339.0" width="93.8" height="15" fill="#5bec5b" rx="2" ry="2"/>
<text x="267.8" y="350.0">one/nio/net..</text>
</g>
<g>
<title>one/nio/net/NativeSocket.write (7 samples, 7.95%)</title><rect x="264.8" y="323.0" width="93.8" height="15" fill="#67f867" rx="2" ry="2"/>
<text x="267.8" y="334.0">one/nio/net..</text>
</g>
<g>
<title>Java_one_nio_net_NativeSocket_write (1 samples, 1.14%)</title><rect x="291.6" y="307.0" width="13.4" height="15" fill="#e45f5f" rx="2" ry="2"/>
<text x="294.6" y="318.0"></text>
</g>
<g>
<title>__libc_send (4 samples, 4.55%)</title><rect x="305.0" y="307.0" width="53.6" height="15" fill="#e15a5a" rx="2" ry="2"/>
<text x="308.0" y="318.0">__lib..</text>
</g>
<g>
<title>one/nio/http/Request.getRequiredParameter (3 samples, 3.41%)</title><rect x="358.6" y="403.0" width="40.3" height="15" fill="#54e554" rx="2" ry="2"/>
<text x="361.6" y="414.0">one..</text>
</g>
<g>
<title>one/nio/http/Request.getParameter (3 samples, 3.41%)</title><rect x="358.6" y="387.0" width="40.3" height="15" fill="#66f766" rx="2" ry="2"/>
<text x="361.6" y="398.0">one..</text>
</g>
<g>
<title>java/lang/String.startsWith (2 samples, 2.27%)</title><rect x="358.6" y="371.0" width="26.9" height="15" fill="#5ff05f" rx="2" ry="2"/>
<text x="361.6" y="382.0">j..</text>
</g>
<g>
<title>java/lang/String.length (2 samples, 2.27%)</title><rect x="358.6" y="355.0" width="26.9" height="15" fill="#5ff05f" rx="2" ry="2"/>
<text x="361.6" y="366.0">j..</text>
</g>
<g>
<title>java/lang/String.coder (2 samples, 2.27%)</title><rect x="358.6" y="339.0" width="26.9" height="15" fill="#57e857" rx="2" ry="2"/>
<text x="361.6" y="350.0">j..</text>
</g>
<g>
<title>one/nio/util/URLEncoder.decode (1 samples, 1.14%)</title><rect x="385.5" y="371.0" width="13.4" height="15" fill="#56e756" rx="2" ry="2"/>
<text x="388.5" y="382.0"></text>
</g>
<g>
<title>ru/mail/polis/service/mrsandman5/ServiceImpl.response (34 samples, 38.64%)</title><rect x="398.9" y="403.0" width="455.9" height="15" fill="#60f160" rx="2" ry="2"/>
<text x="401.9" y="414.0">ru/mail/polis/service/mrsandman5/ServiceImpl.response</text>
</g>
<g>
<title>ch/qos/logback/classic/Logger.debug (22 samples, 25.00%)</title><rect x="398.9" y="387.0" width="295.0" height="15" fill="#6afb6a" rx="2" ry="2"/>
<text x="401.9" y="398.0">ch/qos/logback/classic/Logger.debug</text>
</g>
<g>
<title>ch/qos/logback/classic/Logger.filterAndLog_1 (22 samples, 25.00%)</title><rect x="398.9" y="371.0" width="295.0" height="15" fill="#69fa69" rx="2" ry="2"/>
<text x="401.9" y="382.0">ch/qos/logback/classic/Logger.filterAndL..</text>
</g>
<g>
<title>ch/qos/logback/classic/Logger.buildLoggingEventAndAppend (22 samples, 25.00%)</title><rect x="398.9" y="355.0" width="295.0" height="15" fill="#57e857" rx="2" ry="2"/>
<text x="401.9" y="366.0">ch/qos/logback/classic/Logger.buildLoggi..</text>
</g>
<g>
<title>ch/qos/logback/classic/Logger.callAppenders (21 samples, 23.86%)</title><rect x="398.9" y="339.0" width="281.6" height="15" fill="#5ced5c" rx="2" ry="2"/>
<text x="401.9" y="350.0">ch/qos/logback/classic/Logger.callAppe..</text>
</g>
<g>
<title>ch/qos/logback/classic/Logger.appendLoopOnAppenders (21 samples, 23.86%)</title><rect x="398.9" y="323.0" width="281.6" height="15" fill="#66f766" rx="2" ry="2"/>
<text x="401.9" y="334.0">ch/qos/logback/classic/Logger.appendLo..</text>
</g>
<g>
<title>ch/qos/logback/core/spi/AppenderAttachableImpl.appendLoopOnAppenders (21 samples, 23.86%)</title><rect x="398.9" y="307.0" width="281.6" height="15" fill="#5eef5e" rx="2" ry="2"/>
<text x="401.9" y="318.0">ch/qos/logback/core/spi/AppenderAttach..</text>
</g>
<g>
<title>ch/qos/logback/core/UnsynchronizedAppenderBase.doAppend (21 samples, 23.86%)</title><rect x="398.9" y="291.0" width="281.6" height="15" fill="#52e352" rx="2" ry="2"/>
<text x="401.9" y="302.0">ch/qos/logback/core/UnsynchronizedAppe..</text>
</g>
<g>
<title>ch/qos/logback/core/OutputStreamAppender.append (14 samples, 15.91%)</title><rect x="412.3" y="275.0" width="187.7" height="15" fill="#5dee5d" rx="2" ry="2"/>
<text x="415.3" y="286.0">ch/qos/logback/core/Outp..</text>
</g>
<g>
<title>ch/qos/logback/core/OutputStreamAppender.subAppend (14 samples, 15.91%)</title><rect x="412.3" y="259.0" width="187.7" height="15" fill="#6cfd6c" rx="2" ry="2"/>
<text x="415.3" y="270.0">ch/qos/logback/core/Outp..</text>
</g>
<g>
<title>ch/qos/logback/core/OutputStreamAppender.writeBytes (6 samples, 6.82%)</title><rect x="412.3" y="243.0" width="80.4" height="15" fill="#6afb6a" rx="2" ry="2"/>
<text x="415.3" y="254.0">ch/qos/lo..</text>
</g>
<g>
<title>ch/qos/logback/core/joran/spi/ConsoleTarget$1.write (6 samples, 6.82%)</title><rect x="412.3" y="227.0" width="80.4" height="15" fill="#63f463" rx="2" ry="2"/>
<text x="415.3" y="238.0">ch/qos/lo..</text>
</g>
<g>
<title>java/io/FilterOutputStream.write (6 samples, 6.82%)</title><rect x="412.3" y="211.0" width="80.4" height="15" fill="#57e857" rx="2" ry="2"/>
<text x="415.3" y="222.0">java/io/F..</text>
</g>
<g>
<title>java/io/PrintStream.write (6 samples, 6.82%)</title><rect x="412.3" y="195.0" width="80.4" height="15" fill="#56e756" rx="2" ry="2"/>
<text x="415.3" y="206.0">java/io/P..</text>
</g>
<g>
<title>java/io/BufferedOutputStream.flush (6 samples, 6.82%)</title><rect x="412.3" y="179.0" width="80.4" height="15" fill="#58e958" rx="2" ry="2"/>
<text x="415.3" y="190.0">java/io/B..</text>
</g>
<g>
<title>java/io/BufferedOutputStream.flushBuffer (6 samples, 6.82%)</title><rect x="412.3" y="163.0" width="80.4" height="15" fill="#5dee5d" rx="2" ry="2"/>
<text x="415.3" y="174.0">java/io/B..</text>
</g>
<g>
<title>java/io/FileOutputStream.write (5 samples, 5.68%)</title><rect x="425.7" y="147.0" width="67.0" height="15" fill="#5dee5d" rx="2" ry="2"/>
<text x="428.7" y="158.0">java/io..</text>
</g>
<g>
<title>java/io/FileOutputStream.writeBytes (5 samples, 5.68%)</title><rect x="425.7" y="131.0" width="67.0" height="15" fill="#59ea59" rx="2" ry="2"/>
<text x="428.7" y="142.0">java/io..</text>
</g>
<g>
<title>Java_java_io_FileOutputStream_writeBytes (4 samples, 4.55%)</title><rect x="439.1" y="115.0" width="53.6" height="15" fill="#f27171" rx="2" ry="2"/>
<text x="442.1" y="126.0">Java_..</text>
</g>
<g>
<title>writeBytes (4 samples, 4.55%)</title><rect x="439.1" y="99.0" width="53.6" height="15" fill="#fb7d7d" rx="2" ry="2"/>
<text x="442.1" y="110.0">write..</text>
</g>
<g>
<title>AccessInternal::PostRuntimeDispatch&lt;G1BarrierSet::AccessBarrier&lt;802934ul, G1BarrierSet&gt;, (AccessInternal::BarrierType)3, 802934ul&gt;::oop_access_barrier(oopDesc*, long) (1 samples, 1.14%)</title><rect x="439.1" y="83.0" width="13.4" height="15" fill="#d7d741" rx="2" ry="2"/>
<text x="442.1" y="94.0"></text>
</g>
<g>
<title>JavaThread::is_Java_thread() const (1 samples, 1.14%)</title><rect x="452.5" y="83.0" width="13.4" height="15" fill="#e5e545" rx="2" ry="2"/>
<text x="455.5" y="94.0"></text>
</g>
<g>
<title>__libc_write (1 samples, 1.14%)</title><rect x="465.9" y="83.0" width="13.4" height="15" fill="#f47474" rx="2" ry="2"/>
<text x="468.9" y="94.0"></text>
</g>
<g>
<title>jni_GetByteArrayRegion (1 samples, 1.14%)</title><rect x="479.3" y="83.0" width="13.4" height="15" fill="#f47373" rx="2" ry="2"/>
<text x="482.3" y="94.0"></text>
</g>
<g>
<title>ThreadInVMfromNative::~ThreadInVMfromNative() (1 samples, 1.14%)</title><rect x="479.3" y="67.0" width="13.4" height="15" fill="#e5e545" rx="2" ry="2"/>
<text x="482.3" y="78.0"></text>
</g>
<g>
<title>ch/qos/logback/core/encoder/LayoutWrappingEncoder.encode (8 samples, 9.09%)</title><rect x="492.7" y="243.0" width="107.3" height="15" fill="#67f867" rx="2" ry="2"/>
<text x="495.7" y="254.0">ch/qos/logbac..</text>
</g>
<g>
<title>ch/qos/logback/classic/layout/TTLLLayout.doLayout (8 samples, 9.09%)</title><rect x="492.7" y="227.0" width="107.3" height="15" fill="#5bec5b" rx="2" ry="2"/>
<text x="495.7" y="238.0">ch/qos/logbac..</text>
</g>
<g>
<title>ch/qos/logback/classic/layout/TTLLLayout.doLayout (8 samples, 9.09%)</title><rect x="492.7" y="211.0" width="107.3" height="15" fill="#5ff05f" rx="2" ry="2"/>
<text x="495.7" y="222.0">ch/qos/logbac..</text>
</g>
<g>
<title>ch/qos/logback/core/util/CachingDateFormatter.format (2 samples, 2.27%)</title><rect x="492.7" y="195.0" width="26.8" height="15" fill="#59ea59" rx="2" ry="2"/>
<text x="495.7" y="206.0">c..</text>
</g>
<g>
<title>java/text/DateFormat.format (2 samples, 2.27%)</title><rect x="492.7" y="179.0" width="26.8" height="15" fill="#63f463" rx="2" ry="2"/>
<text x="495.7" y="190.0">j..</text>
</g>
<g>
<title>java/text/SimpleDateFormat.format (2 samples, 2.27%)</title><rect x="492.7" y="163.0" width="26.8" height="15" fill="#66f766" rx="2" ry="2"/>
<text x="495.7" y="174.0">j..</text>
</g>
<g>
<title>java/text/SimpleDateFormat.format (2 samples, 2.27%)</title><rect x="492.7" y="147.0" width="26.8" height="15" fill="#69fa69" rx="2" ry="2"/>
<text x="495.7" y="158.0">j..</text>
</g>
<g>
<title>java/text/SimpleDateFormat.subFormat (2 samples, 2.27%)</title><rect x="492.7" y="131.0" width="26.8" height="15" fill="#60f160" rx="2" ry="2"/>
<text x="495.7" y="142.0">j..</text>
</g>
<g>
<title>java/text/SimpleDateFormat.zeroPaddingNumber (1 samples, 1.14%)</title><rect x="506.1" y="115.0" width="13.4" height="15" fill="#61f261" rx="2" ry="2"/>
<text x="509.1" y="126.0"></text>
</g>
<g>
<title>java/text/DecimalFormat.format (1 samples, 1.14%)</title><rect x="506.1" y="99.0" width="13.4" height="15" fill="#52e352" rx="2" ry="2"/>
<text x="509.1" y="110.0"></text>
</g>
<g>
<title>java/text/DecimalFormat.format (1 samples, 1.14%)</title><rect x="506.1" y="83.0" width="13.4" height="15" fill="#6cfd6c" rx="2" ry="2"/>
<text x="509.1" y="94.0"></text>
</g>
<g>
<title>java/text/DecimalFormat.subformat (1 samples, 1.14%)</title><rect x="506.1" y="67.0" width="13.4" height="15" fill="#59ea59" rx="2" ry="2"/>
<text x="509.1" y="78.0"></text>
</g>
<g>
<title>java/text/DecimalFormat.append (1 samples, 1.14%)</title><rect x="506.1" y="51.0" width="13.4" height="15" fill="#61f261" rx="2" ry="2"/>
<text x="509.1" y="62.0"></text>
</g>
<g>
<title>java/lang/StringBuffer.length (1 samples, 1.14%)</title><rect x="506.1" y="35.0" width="13.4" height="15" fill="#51e251" rx="2" ry="2"/>
<text x="509.1" y="46.0"></text>
</g>
<g>
<title>java/lang/StringBuilder.append (5 samples, 5.68%)</title><rect x="519.5" y="195.0" width="67.1" height="15" fill="#67f867" rx="2" ry="2"/>
<text x="522.5" y="206.0">java/la..</text>
</g>
<g>
<title>java/lang/AbstractStringBuilder.append (5 samples, 5.68%)</title><rect x="519.5" y="179.0" width="67.1" height="15" fill="#5ff05f" rx="2" ry="2"/>
<text x="522.5" y="190.0">java/la..</text>
</g>
<g>
<title>java/lang/AbstractStringBuilder.ensureCapacityInternal (1 samples, 1.14%)</title><rect x="519.5" y="163.0" width="13.5" height="15" fill="#6bfc6b" rx="2" ry="2"/>
<text x="522.5" y="174.0"></text>
</g>
<g>
<title>java/util/Arrays.copyOf (1 samples, 1.14%)</title><rect x="519.5" y="147.0" width="13.5" height="15" fill="#5ced5c" rx="2" ry="2"/>
<text x="522.5" y="158.0"></text>
</g>
<g>
<title>java/lang/AbstractStringBuilder.putStringAt (1 samples, 1.14%)</title><rect x="533.0" y="163.0" width="13.4" height="15" fill="#67f867" rx="2" ry="2"/>
<text x="536.0" y="174.0"></text>
</g>
<g>
<title>jbyte_disjoint_arraycopy (1 samples, 1.14%)</title><rect x="533.0" y="147.0" width="13.4" height="15" fill="#e55f5f" rx="2" ry="2"/>
<text x="536.0" y="158.0"></text>
</g>
<g>
<title>java/lang/String.length (3 samples, 3.41%)</title><rect x="546.4" y="163.0" width="40.2" height="15" fill="#65f665" rx="2" ry="2"/>
<text x="549.4" y="174.0">jav..</text>
</g>
<g>
<title>java/lang/StringBuilder.toString (1 samples, 1.14%)</title><rect x="586.6" y="195.0" width="13.4" height="15" fill="#56e756" rx="2" ry="2"/>
<text x="589.6" y="206.0"></text>
</g>
<g>
<title>java/lang/StringLatin1.newString (1 samples, 1.14%)</title><rect x="586.6" y="179.0" width="13.4" height="15" fill="#61f261" rx="2" ry="2"/>
<text x="589.6" y="190.0"></text>
</g>
<g>
<title>java/util/Arrays.copyOfRange (1 samples, 1.14%)</title><rect x="586.6" y="163.0" width="13.4" height="15" fill="#50e150" rx="2" ry="2"/>
<text x="589.6" y="174.0"></text>
</g>
<g>
<title>jbyte_disjoint_arraycopy (1 samples, 1.14%)</title><rect x="586.6" y="147.0" width="13.4" height="15" fill="#f97a7a" rx="2" ry="2"/>
<text x="589.6" y="158.0"></text>
</g>
<g>
<title>ch/qos/logback/core/UnsynchronizedAppenderBase.getFilterChainDecision (1 samples, 1.14%)</title><rect x="600.0" y="275.0" width="13.4" height="15" fill="#5eef5e" rx="2" ry="2"/>
<text x="603.0" y="286.0"></text>
</g>
<g>
<title>ch/qos/logback/core/spi/FilterAttachableImpl.getFilterChainDecision (1 samples, 1.14%)</title><rect x="600.0" y="259.0" width="13.4" height="15" fill="#5ff05f" rx="2" ry="2"/>
<text x="603.0" y="270.0"></text>
</g>
<g>
<title>java/lang/ThreadLocal.get (1 samples, 1.14%)</title><rect x="613.4" y="275.0" width="13.4" height="15" fill="#67f867" rx="2" ry="2"/>
<text x="616.4" y="286.0"></text>
</g>
<g>
<title>java/lang/ThreadLocal$ThreadLocalMap.getEntry (1 samples, 1.14%)</title><rect x="613.4" y="259.0" width="13.4" height="15" fill="#53e453" rx="2" ry="2"/>
<text x="616.4" y="270.0"></text>
</g>
<g>
<title>java/lang/ThreadLocal.set (4 samples, 4.55%)</title><rect x="626.8" y="275.0" width="53.7" height="15" fill="#55e655" rx="2" ry="2"/>
<text x="629.8" y="286.0">java/..</text>
</g>
<g>
<title>java/lang/ThreadLocal$ThreadLocalMap.set (3 samples, 3.41%)</title><rect x="626.8" y="259.0" width="40.2" height="15" fill="#67f867" rx="2" ry="2"/>
<text x="629.8" y="270.0">jav..</text>
</g>
<g>
<title>java/lang/String.charAt (1 samples, 1.14%)</title><rect x="640.2" y="243.0" width="13.4" height="15" fill="#6bfc6b" rx="2" ry="2"/>
<text x="643.2" y="254.0"></text>
</g>
<g>
<title>java/lang/String.coder (1 samples, 1.14%)</title><rect x="653.6" y="243.0" width="13.4" height="15" fill="#60f160" rx="2" ry="2"/>
<text x="656.6" y="254.0"></text>
</g>
<g>
<title>java/util/Arrays.copyOf (1 samples, 1.14%)</title><rect x="667.0" y="259.0" width="13.5" height="15" fill="#58e958" rx="2" ry="2"/>
<text x="670.0" y="270.0"></text>
</g>
<g>
<title>ch/qos/logback/classic/spi/LoggingEvent.&lt;init&gt; (1 samples, 1.14%)</title><rect x="680.5" y="339.0" width="13.4" height="15" fill="#57e857" rx="2" ry="2"/>
<text x="683.5" y="350.0"></text>
</g>
<g>
<title>ch/qos/logback/classic/Logger.callAppenders (1 samples, 1.14%)</title><rect x="680.5" y="323.0" width="13.4" height="15" fill="#55e655" rx="2" ry="2"/>
<text x="683.5" y="334.0"></text>
</g>
<g>
<title>ru/mail/polis/service/mrsandman5/ServiceImpl.delete (12 samples, 13.64%)</title><rect x="693.9" y="387.0" width="160.9" height="15" fill="#50e150" rx="2" ry="2"/>
<text x="696.9" y="398.0">ru/mail/polis/servic..</text>
</g>
<g>
<title>one/nio/http/Response.&lt;init&gt; (1 samples, 1.14%)</title><rect x="693.9" y="371.0" width="13.4" height="15" fill="#53e453" rx="2" ry="2"/>
<text x="696.9" y="382.0"></text>
</g>
<g>
<title>jbyte_disjoint_arraycopy (1 samples, 1.14%)</title><rect x="693.9" y="355.0" width="13.4" height="15" fill="#f67777" rx="2" ry="2"/>
<text x="696.9" y="366.0"></text>
</g>
<g>
<title>ru/mail/polis/dao/impl/DAOImpl.remove (11 samples, 12.50%)</title><rect x="707.3" y="371.0" width="147.5" height="15" fill="#62f362" rx="2" ry="2"/>
<text x="710.3" y="382.0">ru/mail/polis/dao/i..</text>
</g>
<g>
<title>ru/mail/polis/dao/impl/tables/MemTable.remove (11 samples, 12.50%)</title><rect x="707.3" y="355.0" width="147.5" height="15" fill="#56e756" rx="2" ry="2"/>
<text x="710.3" y="366.0">ru/mail/polis/dao/i..</text>
</g>
<g>
<title>java/util/TreeMap.containsKey (6 samples, 6.82%)</title><rect x="707.3" y="339.0" width="80.4" height="15" fill="#64f564" rx="2" ry="2"/>
<text x="710.3" y="350.0">java/util..</text>
</g>
<g>
<title>java/util/TreeMap.getEntry (6 samples, 6.82%)</title><rect x="707.3" y="323.0" width="80.4" height="15" fill="#6cfd6c" rx="2" ry="2"/>
<text x="710.3" y="334.0">java/util..</text>
</g>
<g>
<title>java/nio/ByteBuffer.compareTo (5 samples, 5.68%)</title><rect x="720.7" y="307.0" width="67.0" height="15" fill="#67f867" rx="2" ry="2"/>
<text x="723.7" y="318.0">java/ni..</text>
</g>
<g>
<title>java/nio/ByteBuffer.compareTo (4 samples, 4.55%)</title><rect x="734.1" y="291.0" width="53.6" height="15" fill="#65f665" rx="2" ry="2"/>
<text x="737.1" y="302.0">java/..</text>
</g>
<g>
<title>java/nio/BufferMismatch.mismatch (3 samples, 3.41%)</title><rect x="747.5" y="275.0" width="40.2" height="15" fill="#65f665" rx="2" ry="2"/>
<text x="750.5" y="286.0">jav..</text>
</g>
<g>
<title>java/util/TreeMap.get (1 samples, 1.14%)</title><rect x="787.7" y="339.0" width="13.4" height="15" fill="#59ea59" rx="2" ry="2"/>
<text x="790.7" y="350.0"></text>
</g>
<g>
<title>java/util/TreeMap.getEntry (1 samples, 1.14%)</title><rect x="787.7" y="323.0" width="13.4" height="15" fill="#63f463" rx="2" ry="2"/>
<text x="790.7" y="334.0"></text>
</g>
<g>
<title>java/nio/ByteBuffer.compareTo (1 samples, 1.14%)</title><rect x="787.7" y="307.0" width="13.4" height="15" fill="#54e554" rx="2" ry="2"/>
<text x="790.7" y="318.0"></text>
</g>
<g>
<title>java/nio/ByteBuffer.compareTo (1 samples, 1.14%)</title><rect x="787.7" y="291.0" width="13.4" height="15" fill="#52e352" rx="2" ry="2"/>
<text x="790.7" y="302.0"></text>
</g>
<g>
<title>java/nio/BufferMismatch.mismatch (1 samples, 1.14%)</title><rect x="787.7" y="275.0" width="13.4" height="15" fill="#67f867" rx="2" ry="2"/>
<text x="790.7" y="286.0"></text>
</g>
<g>
<title>java/util/TreeMap.put (4 samples, 4.55%)</title><rect x="801.1" y="339.0" width="53.7" height="15" fill="#69fa69" rx="2" ry="2"/>
<text x="804.1" y="350.0">java/..</text>
</g>
<g>
<title>java/nio/ByteBuffer.compareTo (3 samples, 3.41%)</title><rect x="801.1" y="323.0" width="40.3" height="15" fill="#59ea59" rx="2" ry="2"/>
<text x="804.1" y="334.0">jav..</text>
</g>
<g>
<title>java/nio/ByteBuffer.compareTo (3 samples, 3.41%)</title><rect x="801.1" y="307.0" width="40.3" height="15" fill="#5bec5b" rx="2" ry="2"/>
<text x="804.1" y="318.0">jav..</text>
</g>
<g>
<title>java/nio/BufferMismatch.mismatch (3 samples, 3.41%)</title><rect x="801.1" y="291.0" width="40.3" height="15" fill="#6afb6a" rx="2" ry="2"/>
<text x="804.1" y="302.0">jav..</text>
</g>
<g>
<title>vectorizedMismatch (1 samples, 1.14%)</title><rect x="828.0" y="275.0" width="13.4" height="15" fill="#e55f5f" rx="2" ry="2"/>
<text x="831.0" y="286.0"></text>
</g>
<g>
<title>java/util/TreeMap.fixAfterInsertion (1 samples, 1.14%)</title><rect x="841.4" y="323.0" width="13.4" height="15" fill="#69fa69" rx="2" ry="2"/>
<text x="844.4" y="334.0"></text>
</g>
<g>
<title>java/util/TreeMap.rotateLeft (1 samples, 1.14%)</title><rect x="841.4" y="307.0" width="13.4" height="15" fill="#5bec5b" rx="2" ry="2"/>
<text x="844.4" y="318.0"></text>
</g>
<g>
<title>one/nio/http/HttpSession.parseRequest (4 samples, 4.55%)</title><rect x="854.8" y="451.0" width="53.6" height="15" fill="#6bfc6b" rx="2" ry="2"/>
<text x="857.8" y="462.0">one/n..</text>
</g>
<g>
<title>one/nio/util/Utf8.read (2 samples, 2.27%)</title><rect x="881.6" y="435.0" width="26.8" height="15" fill="#6dfe6d" rx="2" ry="2"/>
<text x="884.6" y="446.0">o..</text>
</g>
<g>
<title>one/nio/util/Utf8.read (2 samples, 2.27%)</title><rect x="881.6" y="419.0" width="26.8" height="15" fill="#60f160" rx="2" ry="2"/>
<text x="884.6" y="430.0">o..</text>
</g>
<g>
<title>one/nio/http/HttpSession.startParsingRequestBody (1 samples, 1.14%)</title><rect x="908.4" y="451.0" width="13.4" height="15" fill="#65f665" rx="2" ry="2"/>
<text x="911.4" y="462.0"></text>
</g>
<g>
<title>one/nio/http/Request.addHeader (1 samples, 1.14%)</title><rect x="921.8" y="451.0" width="13.4" height="15" fill="#6bfc6b" rx="2" ry="2"/>
<text x="924.8" y="462.0"></text>
</g>
<g>
<title>one/nio/http/Request.getHeader (2 samples, 2.27%)</title><rect x="935.2" y="451.0" width="26.8" height="15" fill="#53e453" rx="2" ry="2"/>
<text x="938.2" y="462.0">o..</text>
</g>
<g>
<title>java/lang/String.regionMatches (2 samples, 2.27%)</title><rect x="935.2" y="435.0" width="26.8" height="15" fill="#50e150" rx="2" ry="2"/>
<text x="938.2" y="446.0">j..</text>
</g>
<g>
<title>java/lang/StringLatin1.regionMatchesCI (1 samples, 1.14%)</title><rect x="948.6" y="419.0" width="13.4" height="15" fill="#54e554" rx="2" ry="2"/>
<text x="951.6" y="430.0"></text>
</g>
<g>
<title>java/lang/Character.toLowerCase (1 samples, 1.14%)</title><rect x="948.6" y="403.0" width="13.4" height="15" fill="#59ea59" rx="2" ry="2"/>
<text x="951.6" y="414.0"></text>
</g>
<g>
<title>java/lang/Character.toLowerCase (1 samples, 1.14%)</title><rect x="948.6" y="387.0" width="13.4" height="15" fill="#50e150" rx="2" ry="2"/>
<text x="951.6" y="398.0"></text>
</g>
<g>
<title>java/lang/CharacterDataLatin1.toLowerCase (1 samples, 1.14%)</title><rect x="948.6" y="371.0" width="13.4" height="15" fill="#58e958" rx="2" ry="2"/>
<text x="951.6" y="382.0"></text>
</g>
<g>
<title>java/lang/CharacterDataLatin1.getProperties (1 samples, 1.14%)</title><rect x="948.6" y="355.0" width="13.4" height="15" fill="#51e251" rx="2" ry="2"/>
<text x="951.6" y="366.0"></text>
</g>
<g>
<title>jlong_disjoint_arraycopy (1 samples, 1.14%)</title><rect x="948.6" y="339.0" width="13.4" height="15" fill="#f47373" rx="2" ry="2"/>
<text x="951.6" y="350.0"></text>
</g>
<g>
<title>one/nio/util/Utf8.read (2 samples, 2.27%)</title><rect x="962.0" y="451.0" width="26.9" height="15" fill="#5eef5e" rx="2" ry="2"/>
<text x="965.0" y="462.0">o..</text>
</g>
<g>
<title>one/nio/util/Utf8.read (2 samples, 2.27%)</title><rect x="962.0" y="435.0" width="26.9" height="15" fill="#65f665" rx="2" ry="2"/>
<text x="965.0" y="446.0">o..</text>
</g>
<g>
<title>one/nio/net/Session.read (14 samples, 15.91%)</title><rect x="988.9" y="467.0" width="187.7" height="15" fill="#61f261" rx="2" ry="2"/>
<text x="991.9" y="478.0">one/nio/net/Session.read</text>
</g>
<g>
<title>one/nio/net/NativeSocket.read (14 samples, 15.91%)</title><rect x="988.9" y="451.0" width="187.7" height="15" fill="#58e958" rx="2" ry="2"/>
<text x="991.9" y="462.0">one/nio/net/NativeSocket..</text>
</g>
<g>
<title>Java_one_nio_net_NativeSocket_read (6 samples, 6.82%)</title><rect x="1002.3" y="435.0" width="80.4" height="15" fill="#ee6b6b" rx="2" ry="2"/>
<text x="1005.3" y="446.0">Java_one_..</text>
</g>
<g>
<title>AccessInternal::PostRuntimeDispatch&lt;G1BarrierSet::AccessBarrier&lt;1097844ul, G1BarrierSet&gt;, (AccessInternal::BarrierType)2, 1097844ul&gt;::oop_access_barrier(void*) (1 samples, 1.14%)</title><rect x="1015.7" y="419.0" width="13.4" height="15" fill="#d1d13f" rx="2" ry="2"/>
<text x="1018.7" y="430.0"></text>
</g>
<g>
<title>jni_SetByteArrayRegion (4 samples, 4.55%)</title><rect x="1029.1" y="419.0" width="53.6" height="15" fill="#f27070" rx="2" ry="2"/>
<text x="1032.1" y="430.0">jni_S..</text>
</g>
<g>
<title>check_bounds(int, int, int, Thread*) (1 samples, 1.14%)</title><rect x="1069.3" y="403.0" width="13.4" height="15" fill="#e35d5d" rx="2" ry="2"/>
<text x="1072.3" y="414.0"></text>
</g>
<g>
<title>__pthread_enable_asynccancel (1 samples, 1.14%)</title><rect x="1082.7" y="435.0" width="13.4" height="15" fill="#ef6c6c" rx="2" ry="2"/>
<text x="1085.7" y="446.0"></text>
</g>
<g>
<title>__recv (6 samples, 6.82%)</title><rect x="1096.1" y="435.0" width="80.5" height="15" fill="#f47474" rx="2" ry="2"/>
<text x="1099.1" y="446.0">__recv</text>
</g>
<g>
<title>start_thread (1 samples, 1.14%)</title><rect x="1176.6" y="515.0" width="13.4" height="15" fill="#fa7c7c" rx="2" ry="2"/>
<text x="1179.6" y="526.0"></text>
</g>
<g>
<title>thread_native_entry(Thread*) (1 samples, 1.14%)</title><rect x="1176.6" y="499.0" width="13.4" height="15" fill="#ea6767" rx="2" ry="2"/>
<text x="1179.6" y="510.0"></text>
</g>
<g>
<title>Thread::call_run() (1 samples, 1.14%)</title><rect x="1176.6" y="483.0" width="13.4" height="15" fill="#e5e545" rx="2" ry="2"/>
<text x="1179.6" y="494.0"></text>
</g>
<g>
<title>ConcurrentGCThread::run() (1 samples, 1.14%)</title><rect x="1176.6" y="467.0" width="13.4" height="15" fill="#cfcf3e" rx="2" ry="2"/>
<text x="1179.6" y="478.0"></text>
</g>
<g>
<title>G1ConcurrentRefineThread::run_service() (1 samples, 1.14%)</title><rect x="1176.6" y="451.0" width="13.4" height="15" fill="#cdcd3d" rx="2" ry="2"/>
<text x="1179.6" y="462.0"></text>
</g>
<g>
<title>DirtyCardQueueSet::refine_completed_buffer_concurrently(unsigned int, unsigned long) (1 samples, 1.14%)</title><rect x="1176.6" y="435.0" width="13.4" height="15" fill="#cbcb3d" rx="2" ry="2"/>
<text x="1179.6" y="446.0"></text>
</g>
<g>
<title>DirtyCardQueueSet::apply_closure_to_completed_buffer(CardTableEntryClosure*, unsigned int, unsigned long, bool) (1 samples, 1.14%)</title><rect x="1176.6" y="419.0" width="13.4" height="15" fill="#cbcb3d" rx="2" ry="2"/>
<text x="1179.6" y="430.0"></text>
</g>
<g>
<title>G1RefineCardConcurrentlyClosure::do_card_ptr(signed char*, unsigned int) (1 samples, 1.14%)</title><rect x="1176.6" y="403.0" width="13.4" height="15" fill="#d9d941" rx="2" ry="2"/>
<text x="1179.6" y="414.0"></text>
</g>
<g>
<title>G1RemSet::refine_card_concurrently(signed char*, unsigned int) (1 samples, 1.14%)</title><rect x="1176.6" y="387.0" width="13.4" height="15" fill="#c9c93c" rx="2" ry="2"/>
<text x="1179.6" y="398.0"></text>
</g>
</g>
</svg>
