<?xml version="1.0" standalone="no"?>
<!DOCTYPE svg PUBLIC "-//W3C//DTD SVG 1.1//EN" "http://www.w3.org/Graphics/SVG/1.1/DTD/svg11.dtd">
<svg version="1.1" width="1200" height="374" onload="init(evt)" viewBox="0 0 1200 374" xmlns="http://www.w3.org/2000/svg" xmlns:xlink="http://www.w3.org/1999/xlink">
<style type="text/css">
	text { font-family:Verdana; font-size:12px; fill:rgb(0,0,0); }
	#search { opacity:0.1; cursor:pointer; }
	#search:hover, #search.show { opacity:1; }
	#subtitle { text-anchor:middle; font-color:rgb(160,160,160); }
	#title { text-anchor:middle; font-size:17px}
	#unzoom { cursor:pointer; }
	#frames > *:hover { stroke:black; stroke-width:0.5; cursor:pointer; }
	.hide { display:none; }
	.parent { opacity:0.5; }
</style>
<script type="text/ecmascript">
<![CDATA[
	"use strict";
	var details, searchbtn, unzoombtn, matchedtxt, svg, searching;
	function init(evt) {
		details = document.getElementById("details").firstChild;
		searchbtn = document.getElementById("search");
		unzoombtn = document.getElementById("unzoom");
		matchedtxt = document.getElementById("matched");
		svg = document.getElementsByTagName("svg")[0];
		searching = 0;
	}

	window.addEventListener("click", function(e) {
		var target = find_group(e.target);
		if (target) {
			if (target.nodeName == "a") {
				if (e.ctrlKey === false) return;
				e.preventDefault();
			}
			if (target.classList.contains("parent")) unzoom();
			zoom(target);
		}
		else if (e.target.id == "unzoom") unzoom();
		else if (e.target.id == "search") search_prompt();
	}, false)

	// mouse-over for info
	// show
	window.addEventListener("mouseover", function(e) {
		var target = find_group(e.target);
		if (target) details.nodeValue = "Function: " + g_to_text(target);
	}, false)

	// clear
	window.addEventListener("mouseout", function(e) {
		var target = find_group(e.target);
		if (target) details.nodeValue = ' ';
	}, false)

	// ctrl-F for search
	window.addEventListener("keydown",function (e) {
		if (e.keyCode === 114 || (e.ctrlKey && e.keyCode === 70)) {
			e.preventDefault();
			search_prompt();
		}
	}, false)

	// functions
	function find_child(node, selector) {
		var children = node.querySelectorAll(selector);
		if (children.length) return children[0];
		return;
	}
	function find_group(node) {
		var parent = node.parentElement;
		if (!parent) return;
		if (parent.id == "frames") return node;
		return find_group(parent);
	}
	function orig_save(e, attr, val) {
		if (e.attributes["_orig_" + attr] != undefined) return;
		if (e.attributes[attr] == undefined) return;
		if (val == undefined) val = e.attributes[attr].value;
		e.setAttribute("_orig_" + attr, val);
	}
	function orig_load(e, attr) {
		if (e.attributes["_orig_"+attr] == undefined) return;
		e.attributes[attr].value = e.attributes["_orig_" + attr].value;
		e.removeAttribute("_orig_"+attr);
	}
	function g_to_text(e) {
		var text = find_child(e, "title").firstChild.nodeValue;
		return (text)
	}
	function g_to_func(e) {
		var func = g_to_text(e);
		// if there's any manipulation we want to do to the function
		// name before it's searched, do it here before returning.
		return (func);
	}
	function update_text(e) {
		var r = find_child(e, "rect");
		var t = find_child(e, "text");
		var w = parseFloat(r.attributes.width.value) -3;
		var txt = find_child(e, "title").textContent.replace(/\([^(]*\)$/,"");
		t.attributes.x.value = parseFloat(r.attributes.x.value) + 3;

		// Smaller than this size won't fit anything
		if (w < 2 * 12 * 0.59) {
			t.textContent = "";
			return;
		}

		t.textContent = txt;
		// Fit in full text width
		if (/^ *$/.test(txt) || t.getSubStringLength(0, txt.length) < w)
			return;

		for (var x = txt.length - 2; x > 0; x--) {
			if (t.getSubStringLength(0, x + 2) <= w) {
				t.textContent = txt.substring(0, x) + "..";
				return;
			}
		}
		t.textContent = "";
	}

	// zoom
	function zoom_reset(e) {
		if (e.attributes != undefined) {
			orig_load(e, "x");
			orig_load(e, "width");
		}
		if (e.childNodes == undefined) return;
		for (var i = 0, c = e.childNodes; i < c.length; i++) {
			zoom_reset(c[i]);
		}
	}
	function zoom_child(e, x, ratio) {
		if (e.attributes != undefined) {
			if (e.attributes.x != undefined) {
				orig_save(e, "x");
				e.attributes.x.value = (parseFloat(e.attributes.x.value) - x - 10) * ratio + 10;
				if (e.tagName == "text")
					e.attributes.x.value = find_child(e.parentNode, "rect[x]").attributes.x.value + 3;
			}
			if (e.attributes.width != undefined) {
				orig_save(e, "width");
				e.attributes.width.value = parseFloat(e.attributes.width.value) * ratio;
			}
		}

		if (e.childNodes == undefined) return;
		for (var i = 0, c = e.childNodes; i < c.length; i++) {
			zoom_child(c[i], x - 10, ratio);
		}
	}
	function zoom_parent(e) {
		if (e.attributes) {
			if (e.attributes.x != undefined) {
				orig_save(e, "x");
				e.attributes.x.value = 10;
			}
			if (e.attributes.width != undefined) {
				orig_save(e, "width");
				e.attributes.width.value = parseInt(svg.width.baseVal.value) - (10 * 2);
			}
		}
		if (e.childNodes == undefined) return;
		for (var i = 0, c = e.childNodes; i < c.length; i++) {
			zoom_parent(c[i]);
		}
	}
	function zoom(node) {
		var attr = find_child(node, "rect").attributes;
		var width = parseFloat(attr.width.value);
		var xmin = parseFloat(attr.x.value);
		var xmax = parseFloat(xmin + width);
		var ymin = parseFloat(attr.y.value);
		var ratio = (svg.width.baseVal.value - 2 * 10) / width;

		// XXX: Workaround for JavaScript float issues (fix me)
		var fudge = 0.0001;

		unzoombtn.classList.remove("hide");

		var el = document.getElementById("frames").children;
		for (var i = 0; i < el.length; i++) {
			var e = el[i];
			var a = find_child(e, "rect").attributes;
			var ex = parseFloat(a.x.value);
			var ew = parseFloat(a.width.value);
			var upstack;
			// Is it an ancestor
			if (0 == 0) {
				upstack = parseFloat(a.y.value) > ymin;
			} else {
				upstack = parseFloat(a.y.value) < ymin;
			}
			if (upstack) {
				// Direct ancestor
				if (ex <= xmin && (ex+ew+fudge) >= xmax) {
					e.classList.add("parent");
					zoom_parent(e);
					update_text(e);
				}
				// not in current path
				else
					e.classList.add("hide");
			}
			// Children maybe
			else {
				// no common path
				if (ex < xmin || ex + fudge >= xmax) {
					e.classList.add("hide");
				}
				else {
					zoom_child(e, xmin, ratio);
					update_text(e);
				}
			}
		}
	}
	function unzoom() {
		unzoombtn.classList.add("hide");
		var el = document.getElementById("frames").children;
		for(var i = 0; i < el.length; i++) {
			el[i].classList.remove("parent");
			el[i].classList.remove("hide");
			zoom_reset(el[i]);
			update_text(el[i]);
		}
	}

	// search
	function reset_search() {
		var el = document.querySelectorAll("#frames rect");
		for (var i = 0; i < el.length; i++) {
			orig_load(el[i], "fill")
		}
	}
	function search_prompt() {
		if (!searching) {
			var term = prompt("Enter a search term (regexp " +
			    "allowed, eg: ^ext4_)", "");
			if (term != null) {
				search(term)
			}
		} else {
			reset_search();
			searching = 0;
			searchbtn.classList.remove("show");
			searchbtn.firstChild.nodeValue = "Search"
			matchedtxt.classList.add("hide");
			matchedtxt.firstChild.nodeValue = ""
		}
	}
	function search(term) {
		var re = new RegExp(term);
		var el = document.getElementById("frames").children;
		var matches = new Object();
		var maxwidth = 0;
		for (var i = 0; i < el.length; i++) {
			var e = el[i];
			var func = g_to_func(e);
			var rect = find_child(e, "rect");
			if (func == null || rect == null)
				continue;

			// Save max width. Only works as we have a root frame
			var w = parseFloat(rect.attributes.width.value);
			if (w > maxwidth)
				maxwidth = w;

			if (func.match(re)) {
				// highlight
				var x = parseFloat(rect.attributes.x.value);
				orig_save(rect, "fill");
				rect.attributes.fill.value = "rgb(230,0,230)";

				// remember matches
				if (matches[x] == undefined) {
					matches[x] = w;
				} else {
					if (w > matches[x]) {
						// overwrite with parent
						matches[x] = w;
					}
				}
				searching = 1;
			}
		}
		if (!searching)
			return;

		searchbtn.classList.add("show");
		searchbtn.firstChild.nodeValue = "Reset Search";

		// calculate percent matched, excluding vertical overlap
		var count = 0;
		var lastx = -1;
		var lastw = 0;
		var keys = Array();
		for (k in matches) {
			if (matches.hasOwnProperty(k))
				keys.push(k);
		}
		// sort the matched frames by their x location
		// ascending, then width descending
		keys.sort(function(a, b){
			return a - b;
		});
		// Step through frames saving only the biggest bottom-up frames
		// thanks to the sort order. This relies on the tree property
		// where children are always smaller than their parents.
		var fudge = 0.0001;	// JavaScript floating point
		for (var k in keys) {
			var x = parseFloat(keys[k]);
			var w = matches[keys[k]];
			if (x >= lastx + lastw - fudge) {
				count += w;
				lastx = x;
				lastw = w;
			}
		}
		// display matched percent
		matchedtxt.classList.remove("hide");
		var pct = 100 * count / maxwidth;
		if (pct != 100) pct = pct.toFixed(1)
		matchedtxt.firstChild.nodeValue = "Matched: " + pct + "%";
	}
]]>
</script>
<rect x="0" y="0" width="100%" height="100%" fill="rgb(240,240,220)"/>
<text id="title" x="600" y="24">Flame Graph</text>
<text id="details" x="10" y="357"> </text>
<text id="unzoom" x="10" y="24" class="hide">Reset Zoom</text>
<text id="search" x="1090" y="24">Search</text>
<text id="matched" x="1090" y="357"> </text>
<g id="frames">
<g>
<title>all (114 samples, 100.00%)</title><rect x="10.0" y="323.0" width="1180.0" height="15" fill="#fa7b7b" rx="2" ry="2"/>
<text x="13.0" y="334.0">all</text>
</g>
<g>
<title>one/nio/server/SelectorThread.run (110 samples, 96.49%)</title><rect x="10.0" y="307.0" width="1138.6" height="15" fill="#5bec5b" rx="2" ry="2"/>
<text x="13.0" y="318.0">one/nio/server/SelectorThread.run</text>
</g>
<g>
<title>I2C/C2I adapters (1 samples, 0.88%)</title><rect x="61.8" y="291.0" width="10.3" height="15" fill="#67f867" rx="2" ry="2"/>
<text x="64.8" y="302.0"></text>
</g>
<g>
<title>one/nio/net/NativeSelector.select (30 samples, 26.32%)</title><rect x="72.1" y="291.0" width="310.5" height="15" fill="#67f867" rx="2" ry="2"/>
<text x="75.1" y="302.0">one/nio/net/NativeSelector.select</text>
</g>
<g>
<title>one/nio/net/NativeSelector.epollWait (26 samples, 22.81%)</title><rect x="113.5" y="275.0" width="269.1" height="15" fill="#6bfc6b" rx="2" ry="2"/>
<text x="116.5" y="286.0">one/nio/net/NativeSelector.epollWait</text>
</g>
<g>
<title>Java_one_nio_net_NativeSelector_epollWait (2 samples, 1.75%)</title><rect x="175.6" y="259.0" width="20.7" height="15" fill="#e66161" rx="2" ry="2"/>
<text x="178.6" y="270.0"></text>
</g>
<g>
<title>__clock_gettime (9 samples, 7.89%)</title><rect x="196.3" y="259.0" width="93.2" height="15" fill="#eb6767" rx="2" ry="2"/>
<text x="199.3" y="270.0">__clock_get..</text>
</g>
<g>
<title>[vdso] (1 samples, 0.88%)</title><rect x="268.8" y="243.0" width="10.3" height="15" fill="#f87878" rx="2" ry="2"/>
<text x="271.8" y="254.0"></text>
</g>
<g>
<title>clock_gettime (1 samples, 0.88%)</title><rect x="279.1" y="243.0" width="10.4" height="15" fill="#e96565" rx="2" ry="2"/>
<text x="282.1" y="254.0"></text>
</g>
<g>
<title>__libc_disable_asynccancel (1 samples, 0.88%)</title><rect x="289.5" y="259.0" width="10.3" height="15" fill="#f17070" rx="2" ry="2"/>
<text x="292.5" y="270.0"></text>
</g>
<g>
<title>clock_gettime (1 samples, 0.88%)</title><rect x="299.8" y="259.0" width="10.4" height="15" fill="#ef6d6d" rx="2" ry="2"/>
<text x="302.8" y="270.0"></text>
</g>
<g>
<title>epoll_wait (7 samples, 6.14%)</title><rect x="310.2" y="259.0" width="72.4" height="15" fill="#f37373" rx="2" ry="2"/>
<text x="313.2" y="270.0">epoll_wait</text>
</g>
<g>
<title>one/nio/net/Session.process (74 samples, 64.91%)</title><rect x="382.6" y="291.0" width="766.0" height="15" fill="#5aeb5a" rx="2" ry="2"/>
<text x="385.6" y="302.0">one/nio/net/Session.process</text>
</g>
<g>
<title>one/nio/http/HttpSession.processRead (74 samples, 64.91%)</title><rect x="382.6" y="275.0" width="766.0" height="15" fill="#5ff05f" rx="2" ry="2"/>
<text x="385.6" y="286.0">one/nio/http/HttpSession.processRead</text>
</g>
<g>
<title>one/nio/http/HttpSession.processHttpBuffer (55 samples, 48.25%)</title><rect x="382.6" y="259.0" width="569.3" height="15" fill="#6cfd6c" rx="2" ry="2"/>
<text x="385.6" y="270.0">one/nio/http/HttpSession.processHttpBuffer</text>
</g>
<g>
<title>java/lang/Integer.parseInt (1 samples, 0.88%)</title><rect x="382.6" y="243.0" width="10.4" height="15" fill="#6bfc6b" rx="2" ry="2"/>
<text x="385.6" y="254.0"></text>
</g>
<g>
<title>one/nio/http/HttpSession.handleParsedRequest (41 samples, 35.96%)</title><rect x="393.0" y="243.0" width="424.4" height="15" fill="#63f463" rx="2" ry="2"/>
<text x="396.0" y="254.0">one/nio/http/HttpSession.handleParsedRequest</text>
</g>
<g>
<title>one/nio/http/HttpServer.handleRequest (41 samples, 35.96%)</title><rect x="393.0" y="227.0" width="424.4" height="15" fill="#65f665" rx="2" ry="2"/>
<text x="396.0" y="238.0">one/nio/http/HttpServer.handleRequest</text>
</g>
<g>
<title>RequestHandler1_response.handleRequest (40 samples, 35.09%)</title><rect x="393.0" y="211.0" width="414.0" height="15" fill="#54e554" rx="2" ry="2"/>
<text x="396.0" y="222.0">RequestHandler1_response.handleRequest</text>
</g>
<g>
<title>one/nio/http/HttpSession.sendResponse (13 samples, 11.40%)</title><rect x="393.0" y="195.0" width="134.5" height="15" fill="#62f362" rx="2" ry="2"/>
<text x="396.0" y="206.0">one/nio/http/Http..</text>
</g>
<g>
<title>java/lang/String.equalsIgnoreCase (1 samples, 0.88%)</title><rect x="403.3" y="179.0" width="10.4" height="15" fill="#50e150" rx="2" ry="2"/>
<text x="406.3" y="190.0"></text>
</g>
<g>
<title>java/lang/String.regionMatches (1 samples, 0.88%)</title><rect x="403.3" y="163.0" width="10.4" height="15" fill="#57e857" rx="2" ry="2"/>
<text x="406.3" y="174.0"></text>
</g>
<g>
<title>java/lang/StringLatin1.regionMatchesCI (1 samples, 0.88%)</title><rect x="403.3" y="147.0" width="10.4" height="15" fill="#54e554" rx="2" ry="2"/>
<text x="406.3" y="158.0"></text>
</g>
<g>
<title>java/util/TreeMap.put (1 samples, 0.88%)</title><rect x="413.7" y="179.0" width="10.3" height="15" fill="#68f968" rx="2" ry="2"/>
<text x="416.7" y="190.0"></text>
</g>
<g>
<title>one/nio/http/HttpSession.writeResponse (10 samples, 8.77%)</title><rect x="424.0" y="179.0" width="103.5" height="15" fill="#54e554" rx="2" ry="2"/>
<text x="427.0" y="190.0">one/nio/http..</text>
</g>
<g>
<title>one/nio/http/Response.toBytes (2 samples, 1.75%)</title><rect x="424.0" y="163.0" width="20.7" height="15" fill="#5ced5c" rx="2" ry="2"/>
<text x="427.0" y="174.0"></text>
</g>
<g>
<title>one/nio/net/Session.write (8 samples, 7.02%)</title><rect x="444.7" y="163.0" width="82.8" height="15" fill="#53e453" rx="2" ry="2"/>
<text x="447.7" y="174.0">one/nio/n..</text>
</g>
<g>
<title>one/nio/net/Session.write (8 samples, 7.02%)</title><rect x="444.7" y="147.0" width="82.8" height="15" fill="#53e453" rx="2" ry="2"/>
<text x="447.7" y="158.0">one/nio/n..</text>
</g>
<g>
<title>one/nio/net/NativeSocket.write (1 samples, 0.88%)</title><rect x="444.7" y="131.0" width="10.4" height="15" fill="#6dfe6d" rx="2" ry="2"/>
<text x="447.7" y="142.0"></text>
</g>
<g>
<title>one/nio/net/Session$ArrayQueueItem.write (7 samples, 6.14%)</title><rect x="455.1" y="131.0" width="72.4" height="15" fill="#56e756" rx="2" ry="2"/>
<text x="458.1" y="142.0">one/nio/..</text>
</g>
<g>
<title>one/nio/net/NativeSocket.write (7 samples, 6.14%)</title><rect x="455.1" y="115.0" width="72.4" height="15" fill="#5ff05f" rx="2" ry="2"/>
<text x="458.1" y="126.0">one/nio/..</text>
</g>
<g>
<title>Java_one_nio_net_NativeSocket_write (3 samples, 2.63%)</title><rect x="465.4" y="99.0" width="31.1" height="15" fill="#fa7b7b" rx="2" ry="2"/>
<text x="468.4" y="110.0">Ja..</text>
</g>
<g>
<title>jni_GetByteArrayRegion (3 samples, 2.63%)</title><rect x="465.4" y="83.0" width="31.1" height="15" fill="#f37272" rx="2" ry="2"/>
<text x="468.4" y="94.0">jn..</text>
</g>
<g>
<title>ThreadInVMfromNative::~ThreadInVMfromNative() (2 samples, 1.75%)</title><rect x="465.4" y="67.0" width="20.7" height="15" fill="#d0d03e" rx="2" ry="2"/>
<text x="468.4" y="78.0"></text>
</g>
<g>
<title>check_bounds(int, int, int, Thread*) (1 samples, 0.88%)</title><rect x="486.1" y="67.0" width="10.4" height="15" fill="#f47373" rx="2" ry="2"/>
<text x="489.1" y="78.0"></text>
</g>
<g>
<title>ResourceMark::~ResourceMark() (1 samples, 0.88%)</title><rect x="486.1" y="51.0" width="10.4" height="15" fill="#d7d741" rx="2" ry="2"/>
<text x="489.1" y="62.0"></text>
</g>
<g>
<title>__libc_send (3 samples, 2.63%)</title><rect x="496.5" y="99.0" width="31.0" height="15" fill="#ef6d6d" rx="2" ry="2"/>
<text x="499.5" y="110.0">__..</text>
</g>
<g>
<title>one/nio/http/Request.getRequiredParameter (3 samples, 2.63%)</title><rect x="527.5" y="195.0" width="31.1" height="15" fill="#6dfe6d" rx="2" ry="2"/>
<text x="530.5" y="206.0">on..</text>
</g>
<g>
<title>one/nio/http/Request.getParameter (3 samples, 2.63%)</title><rect x="527.5" y="179.0" width="31.1" height="15" fill="#58e958" rx="2" ry="2"/>
<text x="530.5" y="190.0">on..</text>
</g>
<g>
<title>java/lang/String.indexOf (2 samples, 1.75%)</title><rect x="527.5" y="163.0" width="20.7" height="15" fill="#67f867" rx="2" ry="2"/>
<text x="530.5" y="174.0"></text>
</g>
<g>
<title>java/lang/StringLatin1.indexOf (2 samples, 1.75%)</title><rect x="527.5" y="147.0" width="20.7" height="15" fill="#5ff05f" rx="2" ry="2"/>
<text x="530.5" y="158.0"></text>
</g>
<g>
<title>jbyte_arraycopy (1 samples, 0.88%)</title><rect x="548.2" y="163.0" width="10.4" height="15" fill="#f87878" rx="2" ry="2"/>
<text x="551.2" y="174.0"></text>
</g>
<g>
<title>ru/mail/polis/service/mrsandman5/ServiceImpl.response (24 samples, 21.05%)</title><rect x="558.6" y="195.0" width="248.4" height="15" fill="#5ced5c" rx="2" ry="2"/>
<text x="561.6" y="206.0">ru/mail/polis/service/mrsandman5/..</text>
</g>
<g>
<title>ch/qos/logback/classic/Logger.debug (3 samples, 2.63%)</title><rect x="558.6" y="179.0" width="31.0" height="15" fill="#6afb6a" rx="2" ry="2"/>
<text x="561.6" y="190.0">ch..</text>
</g>
<g>
<title>ch/qos/logback/classic/Logger.filterAndLog_1 (3 samples, 2.63%)</title><rect x="558.6" y="163.0" width="31.0" height="15" fill="#58e958" rx="2" ry="2"/>
<text x="561.6" y="174.0">ch..</text>
</g>
<g>
<title>ru/mail/polis/service/mrsandman5/ServiceImpl.put (21 samples, 18.42%)</title><rect x="589.6" y="179.0" width="217.4" height="15" fill="#5aeb5a" rx="2" ry="2"/>
<text x="592.6" y="190.0">ru/mail/polis/service/mrsandm..</text>
</g>
<g>
<title>ru/mail/polis/dao/impl/DAOImpl.upsert (21 samples, 18.42%)</title><rect x="589.6" y="163.0" width="217.4" height="15" fill="#68f968" rx="2" ry="2"/>
<text x="592.6" y="174.0">ru/mail/polis/dao/impl/DAOImp..</text>
</g>
<g>
<title>ru/mail/polis/dao/impl/tables/MemTable.upsert (21 samples, 18.42%)</title><rect x="589.6" y="147.0" width="217.4" height="15" fill="#6bfc6b" rx="2" ry="2"/>
<text x="592.6" y="158.0">ru/mail/polis/dao/impl/tables..</text>
</g>
<g>
<title>java/nio/HeapByteBuffer.duplicate (1 samples, 0.88%)</title><rect x="600.0" y="131.0" width="10.4" height="15" fill="#52e352" rx="2" ry="2"/>
<text x="603.0" y="142.0"></text>
</g>
<g>
<title>java/nio/HeapByteBuffer.&lt;init&gt; (1 samples, 0.88%)</title><rect x="600.0" y="115.0" width="10.4" height="15" fill="#6cfd6c" rx="2" ry="2"/>
<text x="603.0" y="126.0"></text>
</g>
<g>
<title>java/nio/ByteBuffer.&lt;init&gt; (1 samples, 0.88%)</title><rect x="600.0" y="99.0" width="10.4" height="15" fill="#5ff05f" rx="2" ry="2"/>
<text x="603.0" y="110.0"></text>
</g>
<g>
<title>java/nio/Buffer.&lt;init&gt; (1 samples, 0.88%)</title><rect x="600.0" y="83.0" width="10.4" height="15" fill="#52e352" rx="2" ry="2"/>
<text x="603.0" y="94.0"></text>
</g>
<g>
<title>java/nio/ByteBuffer.limit (1 samples, 0.88%)</title><rect x="600.0" y="67.0" width="10.4" height="15" fill="#55e655" rx="2" ry="2"/>
<text x="603.0" y="78.0"></text>
</g>
<g>
<title>gettimeofday@plt (1 samples, 0.88%)</title><rect x="600.0" y="51.0" width="10.4" height="15" fill="#f47474" rx="2" ry="2"/>
<text x="603.0" y="62.0"></text>
</g>
<g>
<title>java/util/TreeMap.put (19 samples, 16.67%)</title><rect x="610.4" y="131.0" width="196.6" height="15" fill="#6afb6a" rx="2" ry="2"/>
<text x="613.4" y="142.0">java/util/TreeMap.put</text>
</g>
<g>
<title>java/nio/ByteBuffer.compareTo (11 samples, 9.65%)</title><rect x="662.1" y="115.0" width="113.9" height="15" fill="#5aeb5a" rx="2" ry="2"/>
<text x="665.1" y="126.0">java/nio/ByteB..</text>
</g>
<g>
<title>java/nio/ByteBuffer.compareTo (11 samples, 9.65%)</title><rect x="662.1" y="99.0" width="113.9" height="15" fill="#51e251" rx="2" ry="2"/>
<text x="665.1" y="110.0">java/nio/ByteB..</text>
</g>
<g>
<title>java/nio/BufferMismatch.mismatch (11 samples, 9.65%)</title><rect x="662.1" y="83.0" width="113.9" height="15" fill="#50e150" rx="2" ry="2"/>
<text x="665.1" y="94.0">java/nio/Buffe..</text>
</g>
<g>
<title>java/nio/HeapByteBuffer.get (4 samples, 3.51%)</title><rect x="734.6" y="67.0" width="41.4" height="15" fill="#5dee5d" rx="2" ry="2"/>
<text x="737.6" y="78.0">jav..</text>
</g>
<g>
<title>java/nio/Buffer.checkIndex (4 samples, 3.51%)</title><rect x="734.6" y="51.0" width="41.4" height="15" fill="#51e251" rx="2" ry="2"/>
<text x="737.6" y="62.0">jav..</text>
</g>
<g>
<title>vectorizedMismatch (1 samples, 0.88%)</title><rect x="765.6" y="35.0" width="10.4" height="15" fill="#e86363" rx="2" ry="2"/>
<text x="768.6" y="46.0"></text>
</g>
<g>
<title>java/util/TreeMap.compare (3 samples, 2.63%)</title><rect x="776.0" y="115.0" width="31.0" height="15" fill="#6dfe6d" rx="2" ry="2"/>
<text x="779.0" y="126.0">ja..</text>
</g>
<g>
<title>one/nio/http/PathMapper.find (1 samples, 0.88%)</title><rect x="807.0" y="211.0" width="10.4" height="15" fill="#6bfc6b" rx="2" ry="2"/>
<text x="810.0" y="222.0"></text>
</g>
<g>
<title>java/util/HashMap.get (1 samples, 0.88%)</title><rect x="807.0" y="195.0" width="10.4" height="15" fill="#69fa69" rx="2" ry="2"/>
<text x="810.0" y="206.0"></text>
</g>
<g>
<title>java/util/HashMap.hash (1 samples, 0.88%)</title><rect x="807.0" y="179.0" width="10.4" height="15" fill="#57e857" rx="2" ry="2"/>
<text x="810.0" y="190.0"></text>
</g>
<g>
<title>java/lang/String.hashCode (1 samples, 0.88%)</title><rect x="807.0" y="163.0" width="10.4" height="15" fill="#60f160" rx="2" ry="2"/>
<text x="810.0" y="174.0"></text>
</g>
<g>
<title>java/lang/StringLatin1.hashCode (1 samples, 0.88%)</title><rect x="807.0" y="147.0" width="10.4" height="15" fill="#5bec5b" rx="2" ry="2"/>
<text x="810.0" y="158.0"></text>
</g>
<g>
<title>one/nio/http/HttpSession.parseRequest (9 samples, 7.89%)</title><rect x="817.4" y="243.0" width="93.1" height="15" fill="#66f766" rx="2" ry="2"/>
<text x="820.4" y="254.0">one/nio/htt..</text>
</g>
<g>
<title>one/nio/http/Request.&lt;init&gt; (5 samples, 4.39%)</title><rect x="858.8" y="227.0" width="51.7" height="15" fill="#5ff05f" rx="2" ry="2"/>
<text x="861.8" y="238.0">one/n..</text>
</g>
<g>
<title>java/lang/String.indexOf (5 samples, 4.39%)</title><rect x="858.8" y="211.0" width="51.7" height="15" fill="#64f564" rx="2" ry="2"/>
<text x="861.8" y="222.0">java/..</text>
</g>
<g>
<title>java/lang/String.indexOf (5 samples, 4.39%)</title><rect x="858.8" y="195.0" width="51.7" height="15" fill="#5ff05f" rx="2" ry="2"/>
<text x="861.8" y="206.0">java/..</text>
</g>
<g>
<title>java/lang/StringLatin1.indexOf (5 samples, 4.39%)</title><rect x="858.8" y="179.0" width="51.7" height="15" fill="#51e251" rx="2" ry="2"/>
<text x="861.8" y="190.0">java/..</text>
</g>
<g>
<title>one/nio/http/HttpSession.startParsingRequestBody (3 samples, 2.63%)</title><rect x="910.5" y="243.0" width="31.1" height="15" fill="#5dee5d" rx="2" ry="2"/>
<text x="913.5" y="254.0">on..</text>
</g>
<g>
<title>java/lang/Integer.parseInt (3 samples, 2.63%)</title><rect x="910.5" y="227.0" width="31.1" height="15" fill="#6bfc6b" rx="2" ry="2"/>
<text x="913.5" y="238.0">ja..</text>
</g>
<g>
<title>jlong_disjoint_arraycopy (1 samples, 0.88%)</title><rect x="931.2" y="211.0" width="10.4" height="15" fill="#fc7f7f" rx="2" ry="2"/>
<text x="934.2" y="222.0"></text>
</g>
<g>
<title>one/nio/http/Request.getHeader (1 samples, 0.88%)</title><rect x="941.6" y="243.0" width="10.3" height="15" fill="#65f665" rx="2" ry="2"/>
<text x="944.6" y="254.0"></text>
</g>
<g>
<title>one/nio/net/Session.read (19 samples, 16.67%)</title><rect x="951.9" y="259.0" width="196.7" height="15" fill="#58e958" rx="2" ry="2"/>
<text x="954.9" y="270.0">one/nio/net/Session.read</text>
</g>
<g>
<title>one/nio/net/NativeSocket.read (19 samples, 16.67%)</title><rect x="951.9" y="243.0" width="196.7" height="15" fill="#66f766" rx="2" ry="2"/>
<text x="954.9" y="254.0">one/nio/net/NativeSocket.r..</text>
</g>
<g>
<title>Java_one_nio_net_NativeSocket_read (10 samples, 8.77%)</title><rect x="951.9" y="227.0" width="103.5" height="15" fill="#f47373" rx="2" ry="2"/>
<text x="954.9" y="238.0">Java_one_nio..</text>
</g>
<g>
<title>AccessInternal::PostRuntimeDispatch&lt;G1BarrierSet::AccessBarrier&lt;1097844ul, G1BarrierSet&gt;, (AccessInternal::BarrierType)2, 1097844ul&gt;::oop_access_barrier(void*) (1 samples, 0.88%)</title><rect x="951.9" y="211.0" width="10.4" height="15" fill="#d2d23f" rx="2" ry="2"/>
<text x="954.9" y="222.0"></text>
</g>
<g>
<title>HandleMarkCleaner::~HandleMarkCleaner() (1 samples, 0.88%)</title><rect x="962.3" y="211.0" width="10.3" height="15" fill="#dcdc42" rx="2" ry="2"/>
<text x="965.3" y="222.0"></text>
</g>
<g>
<title>JavaThread::is_Java_thread() const (1 samples, 0.88%)</title><rect x="972.6" y="211.0" width="10.4" height="15" fill="#cccc3d" rx="2" ry="2"/>
<text x="975.6" y="222.0"></text>
</g>
<g>
<title>JavaThread::thread_from_jni_environment(JNIEnv_*) (1 samples, 0.88%)</title><rect x="983.0" y="211.0" width="10.3" height="15" fill="#d5d540" rx="2" ry="2"/>
<text x="986.0" y="222.0"></text>
</g>
<g>
<title>__memmove_avx_unaligned_erms (1 samples, 0.88%)</title><rect x="993.3" y="211.0" width="10.4" height="15" fill="#fb7d7d" rx="2" ry="2"/>
<text x="996.3" y="222.0"></text>
</g>
<g>
<title>jni_SetByteArrayRegion (3 samples, 2.63%)</title><rect x="1003.7" y="211.0" width="31.0" height="15" fill="#f97b7b" rx="2" ry="2"/>
<text x="1006.7" y="222.0">jn..</text>
</g>
<g>
<title>HandleMarkCleaner::~HandleMarkCleaner() (2 samples, 1.75%)</title><rect x="1014.0" y="195.0" width="20.7" height="15" fill="#d1d13f" rx="2" ry="2"/>
<text x="1017.0" y="206.0"></text>
</g>
<g>
<title>memmove@plt (1 samples, 0.88%)</title><rect x="1034.7" y="211.0" width="10.4" height="15" fill="#e76363" rx="2" ry="2"/>
<text x="1037.7" y="222.0"></text>
</g>
<g>
<title>void AccessInternal::arraycopy_conjoint&lt;signed char&gt;(signed char*, signed char*, unsigned long) (1 samples, 0.88%)</title><rect x="1045.1" y="211.0" width="10.3" height="15" fill="#e2e244" rx="2" ry="2"/>
<text x="1048.1" y="222.0"></text>
</g>
<g>
<title>__recv (7 samples, 6.14%)</title><rect x="1055.4" y="227.0" width="72.5" height="15" fill="#eb6868" rx="2" ry="2"/>
<text x="1058.4" y="238.0">__recv</text>
</g>
<g>
<title>jni_SetByteArrayRegion (2 samples, 1.75%)</title><rect x="1127.9" y="227.0" width="20.7" height="15" fill="#f57575" rx="2" ry="2"/>
<text x="1130.9" y="238.0"></text>
</g>
<g>
<title>start_thread (4 samples, 3.51%)</title><rect x="1148.6" y="307.0" width="41.4" height="15" fill="#fd8080" rx="2" ry="2"/>
<text x="1151.6" y="318.0">sta..</text>
</g>
<g>
<title>thread_native_entry(Thread*) (4 samples, 3.51%)</title><rect x="1148.6" y="291.0" width="41.4" height="15" fill="#f27171" rx="2" ry="2"/>
<text x="1151.6" y="302.0">thr..</text>
</g>
<g>
<title>Thread::call_run() (4 samples, 3.51%)</title><rect x="1148.6" y="275.0" width="41.4" height="15" fill="#dbdb42" rx="2" ry="2"/>
<text x="1151.6" y="286.0">Thr..</text>
</g>
<g>
<title>JavaThread::thread_main_inner() (4 samples, 3.51%)</title><rect x="1148.6" y="259.0" width="41.4" height="15" fill="#e1e144" rx="2" ry="2"/>
<text x="1151.6" y="270.0">Jav..</text>
</g>
<g>
<title>CompileBroker::compiler_thread_loop() (4 samples, 3.51%)</title><rect x="1148.6" y="243.0" width="41.4" height="15" fill="#d5d540" rx="2" ry="2"/>
<text x="1151.6" y="254.0">Com..</text>
</g>
<g>
<title>CompileBroker::invoke_compiler_on_method(CompileTask*) (4 samples, 3.51%)</title><rect x="1148.6" y="227.0" width="41.4" height="15" fill="#e3e345" rx="2" ry="2"/>
<text x="1151.6" y="238.0">Com..</text>
</g>
<g>
<title>C2Compiler::compile_method(ciEnv*, ciMethod*, int, DirectiveSet*) (4 samples, 3.51%)</title><rect x="1148.6" y="211.0" width="41.4" height="15" fill="#d3d33f" rx="2" ry="2"/>
<text x="1151.6" y="222.0">C2C..</text>
</g>
<g>
<title>Compile::Compile(ciEnv*, C2Compiler*, ciMethod*, int, bool, bool, bool, DirectiveSet*) (4 samples, 3.51%)</title><rect x="1148.6" y="195.0" width="41.4" height="15" fill="#e0e044" rx="2" ry="2"/>
<text x="1151.6" y="206.0">Com..</text>
</g>
<g>
<title>Compile::Code_Gen() (2 samples, 1.75%)</title><rect x="1148.6" y="179.0" width="20.7" height="15" fill="#dcdc42" rx="2" ry="2"/>
<text x="1151.6" y="190.0"></text>
</g>
<g>
<title>PhaseCFG::do_global_code_motion() (1 samples, 0.88%)</title><rect x="1148.6" y="163.0" width="10.3" height="15" fill="#e3e345" rx="2" ry="2"/>
<text x="1151.6" y="174.0"></text>
</g>
<g>
<title>PhaseCFG::global_code_motion() (1 samples, 0.88%)</title><rect x="1148.6" y="147.0" width="10.3" height="15" fill="#d6d640" rx="2" ry="2"/>
<text x="1151.6" y="158.0"></text>
</g>
<g>
<title>PhaseCFG::schedule_local(Block*, GrowableArray&lt;int&gt;&amp;, VectorSet&amp;, long*) (1 samples, 0.88%)</title><rect x="1148.6" y="131.0" width="10.3" height="15" fill="#cece3e" rx="2" ry="2"/>
<text x="1151.6" y="142.0"></text>
</g>
<g>
<title>PhaseChaitin::compute_exit_block_pressure(Block*) (1 samples, 0.88%)</title><rect x="1148.6" y="115.0" width="10.3" height="15" fill="#e4e445" rx="2" ry="2"/>
<text x="1151.6" y="126.0"></text>
</g>
<g>
<title>IndexSetIterator::advance_and_next() (1 samples, 0.88%)</title><rect x="1148.6" y="99.0" width="10.3" height="15" fill="#e3e345" rx="2" ry="2"/>
<text x="1151.6" y="110.0"></text>
</g>
<g>
<title>PhaseChaitin::Register_Allocate() (1 samples, 0.88%)</title><rect x="1158.9" y="163.0" width="10.4" height="15" fill="#cccc3d" rx="2" ry="2"/>
<text x="1161.9" y="174.0"></text>
</g>
<g>
<title>PhaseChaitin::post_allocate_copy_removal() (1 samples, 0.88%)</title><rect x="1158.9" y="147.0" width="10.4" height="15" fill="#e2e244" rx="2" ry="2"/>
<text x="1161.9" y="158.0"></text>
</g>
<g>
<title>PhaseChaitin::elide_copy(Node*, int, Block*, Node_List&amp;, Node_List&amp;, bool) (1 samples, 0.88%)</title><rect x="1158.9" y="131.0" width="10.4" height="15" fill="#dbdb42" rx="2" ry="2"/>
<text x="1161.9" y="142.0"></text>
</g>
<g>
<title>Compile::Optimize() (2 samples, 1.75%)</title><rect x="1169.3" y="179.0" width="20.7" height="15" fill="#d4d440" rx="2" ry="2"/>
<text x="1172.3" y="190.0"></text>
</g>
<g>
<title>PhaseIdealLoop::build_and_optimize(LoopOptsMode) (2 samples, 1.75%)</title><rect x="1169.3" y="163.0" width="20.7" height="15" fill="#dada42" rx="2" ry="2"/>
<text x="1172.3" y="174.0"></text>
</g>
<g>
<title>PhaseIdealLoop::build_loop_late(VectorSet&amp;, Node_List&amp;, Node_Stack&amp;) (1 samples, 0.88%)</title><rect x="1169.3" y="147.0" width="10.3" height="15" fill="#d0d03e" rx="2" ry="2"/>
<text x="1172.3" y="158.0"></text>
</g>
<g>
<title>PhaseIdealLoop::build_loop_late_post(Node*) (1 samples, 0.88%)</title><rect x="1169.3" y="131.0" width="10.3" height="15" fill="#dfdf43" rx="2" ry="2"/>
<text x="1172.3" y="142.0"></text>
</g>
<g>
<title>PhaseIdealLoop::get_late_ctrl(Node*, Node*) (1 samples, 0.88%)</title><rect x="1169.3" y="115.0" width="10.3" height="15" fill="#d1d13f" rx="2" ry="2"/>
<text x="1172.3" y="126.0"></text>
</g>
<g>
<title>PhaseIdealLoop::build_loop_tree() (1 samples, 0.88%)</title><rect x="1179.6" y="147.0" width="10.4" height="15" fill="#d5d540" rx="2" ry="2"/>
<text x="1182.6" y="158.0"></text>
</g>
<g>
<title>PhaseIdealLoop::build_loop_tree_impl(Node*, int) (1 samples, 0.88%)</title><rect x="1179.6" y="131.0" width="10.4" height="15" fill="#cece3e" rx="2" ry="2"/>
<text x="1182.6" y="142.0"></text>
</g>
</g>
</svg>
