<?xml version="1.0" standalone="no"?>
<!DOCTYPE svg PUBLIC "-//W3C//DTD SVG 1.1//EN" "http://www.w3.org/Graphics/SVG/1.1/DTD/svg11.dtd">
<svg version="1.1" width="1200" height="390" onload="init(evt)" viewBox="0 0 1200 390" xmlns="http://www.w3.org/2000/svg" xmlns:xlink="http://www.w3.org/1999/xlink">
<style type="text/css">
	text { font-family:Verdana; font-size:12px; fill:rgb(0,0,0); }
	#search { opacity:0.1; cursor:pointer; }
	#search:hover, #search.show { opacity:1; }
	#subtitle { text-anchor:middle; font-color:rgb(160,160,160); }
	#title { text-anchor:middle; font-size:17px}
	#unzoom { cursor:pointer; }
	#frames > *:hover { stroke:black; stroke-width:0.5; cursor:pointer; }
	.hide { display:none; }
	.parent { opacity:0.5; }
</style>
<script type="text/ecmascript">
<![CDATA[
	"use strict";
	var details, searchbtn, unzoombtn, matchedtxt, svg, searching;
	function init(evt) {
		details = document.getElementById("details").firstChild;
		searchbtn = document.getElementById("search");
		unzoombtn = document.getElementById("unzoom");
		matchedtxt = document.getElementById("matched");
		svg = document.getElementsByTagName("svg")[0];
		searching = 0;
	}

	window.addEventListener("click", function(e) {
		var target = find_group(e.target);
		if (target) {
			if (target.nodeName == "a") {
				if (e.ctrlKey === false) return;
				e.preventDefault();
			}
			if (target.classList.contains("parent")) unzoom();
			zoom(target);
		}
		else if (e.target.id == "unzoom") unzoom();
		else if (e.target.id == "search") search_prompt();
	}, false)

	// mouse-over for info
	// show
	window.addEventListener("mouseover", function(e) {
		var target = find_group(e.target);
		if (target) details.nodeValue = "Function: " + g_to_text(target);
	}, false)

	// clear
	window.addEventListener("mouseout", function(e) {
		var target = find_group(e.target);
		if (target) details.nodeValue = ' ';
	}, false)

	// ctrl-F for search
	window.addEventListener("keydown",function (e) {
		if (e.keyCode === 114 || (e.ctrlKey && e.keyCode === 70)) {
			e.preventDefault();
			search_prompt();
		}
	}, false)

	// functions
	function find_child(node, selector) {
		var children = node.querySelectorAll(selector);
		if (children.length) return children[0];
		return;
	}
	function find_group(node) {
		var parent = node.parentElement;
		if (!parent) return;
		if (parent.id == "frames") return node;
		return find_group(parent);
	}
	function orig_save(e, attr, val) {
		if (e.attributes["_orig_" + attr] != undefined) return;
		if (e.attributes[attr] == undefined) return;
		if (val == undefined) val = e.attributes[attr].value;
		e.setAttribute("_orig_" + attr, val);
	}
	function orig_load(e, attr) {
		if (e.attributes["_orig_"+attr] == undefined) return;
		e.attributes[attr].value = e.attributes["_orig_" + attr].value;
		e.removeAttribute("_orig_"+attr);
	}
	function g_to_text(e) {
		var text = find_child(e, "title").firstChild.nodeValue;
		return (text)
	}
	function g_to_func(e) {
		var func = g_to_text(e);
		// if there's any manipulation we want to do to the function
		// name before it's searched, do it here before returning.
		return (func);
	}
	function update_text(e) {
		var r = find_child(e, "rect");
		var t = find_child(e, "text");
		var w = parseFloat(r.attributes.width.value) -3;
		var txt = find_child(e, "title").textContent.replace(/\([^(]*\)$/,"");
		t.attributes.x.value = parseFloat(r.attributes.x.value) + 3;

		// Smaller than this size won't fit anything
		if (w < 2 * 12 * 0.59) {
			t.textContent = "";
			return;
		}

		t.textContent = txt;
		// Fit in full text width
		if (/^ *$/.test(txt) || t.getSubStringLength(0, txt.length) < w)
			return;

		for (var x = txt.length - 2; x > 0; x--) {
			if (t.getSubStringLength(0, x + 2) <= w) {
				t.textContent = txt.substring(0, x) + "..";
				return;
			}
		}
		t.textContent = "";
	}

	// zoom
	function zoom_reset(e) {
		if (e.attributes != undefined) {
			orig_load(e, "x");
			orig_load(e, "width");
		}
		if (e.childNodes == undefined) return;
		for (var i = 0, c = e.childNodes; i < c.length; i++) {
			zoom_reset(c[i]);
		}
	}
	function zoom_child(e, x, ratio) {
		if (e.attributes != undefined) {
			if (e.attributes.x != undefined) {
				orig_save(e, "x");
				e.attributes.x.value = (parseFloat(e.attributes.x.value) - x - 10) * ratio + 10;
				if (e.tagName == "text")
					e.attributes.x.value = find_child(e.parentNode, "rect[x]").attributes.x.value + 3;
			}
			if (e.attributes.width != undefined) {
				orig_save(e, "width");
				e.attributes.width.value = parseFloat(e.attributes.width.value) * ratio;
			}
		}

		if (e.childNodes == undefined) return;
		for (var i = 0, c = e.childNodes; i < c.length; i++) {
			zoom_child(c[i], x - 10, ratio);
		}
	}
	function zoom_parent(e) {
		if (e.attributes) {
			if (e.attributes.x != undefined) {
				orig_save(e, "x");
				e.attributes.x.value = 10;
			}
			if (e.attributes.width != undefined) {
				orig_save(e, "width");
				e.attributes.width.value = parseInt(svg.width.baseVal.value) - (10 * 2);
			}
		}
		if (e.childNodes == undefined) return;
		for (var i = 0, c = e.childNodes; i < c.length; i++) {
			zoom_parent(c[i]);
		}
	}
	function zoom(node) {
		var attr = find_child(node, "rect").attributes;
		var width = parseFloat(attr.width.value);
		var xmin = parseFloat(attr.x.value);
		var xmax = parseFloat(xmin + width);
		var ymin = parseFloat(attr.y.value);
		var ratio = (svg.width.baseVal.value - 2 * 10) / width;

		// XXX: Workaround for JavaScript float issues (fix me)
		var fudge = 0.0001;

		unzoombtn.classList.remove("hide");

		var el = document.getElementById("frames").children;
		for (var i = 0; i < el.length; i++) {
			var e = el[i];
			var a = find_child(e, "rect").attributes;
			var ex = parseFloat(a.x.value);
			var ew = parseFloat(a.width.value);
			var upstack;
			// Is it an ancestor
			if (0 == 0) {
				upstack = parseFloat(a.y.value) > ymin;
			} else {
				upstack = parseFloat(a.y.value) < ymin;
			}
			if (upstack) {
				// Direct ancestor
				if (ex <= xmin && (ex+ew+fudge) >= xmax) {
					e.classList.add("parent");
					zoom_parent(e);
					update_text(e);
				}
				// not in current path
				else
					e.classList.add("hide");
			}
			// Children maybe
			else {
				// no common path
				if (ex < xmin || ex + fudge >= xmax) {
					e.classList.add("hide");
				}
				else {
					zoom_child(e, xmin, ratio);
					update_text(e);
				}
			}
		}
	}
	function unzoom() {
		unzoombtn.classList.add("hide");
		var el = document.getElementById("frames").children;
		for(var i = 0; i < el.length; i++) {
			el[i].classList.remove("parent");
			el[i].classList.remove("hide");
			zoom_reset(el[i]);
			update_text(el[i]);
		}
	}

	// search
	function reset_search() {
		var el = document.querySelectorAll("#frames rect");
		for (var i = 0; i < el.length; i++) {
			orig_load(el[i], "fill")
		}
	}
	function search_prompt() {
		if (!searching) {
			var term = prompt("Enter a search term (regexp " +
			    "allowed, eg: ^ext4_)", "");
			if (term != null) {
				search(term)
			}
		} else {
			reset_search();
			searching = 0;
			searchbtn.classList.remove("show");
			searchbtn.firstChild.nodeValue = "Search"
			matchedtxt.classList.add("hide");
			matchedtxt.firstChild.nodeValue = ""
		}
	}
	function search(term) {
		var re = new RegExp(term);
		var el = document.getElementById("frames").children;
		var matches = new Object();
		var maxwidth = 0;
		for (var i = 0; i < el.length; i++) {
			var e = el[i];
			var func = g_to_func(e);
			var rect = find_child(e, "rect");
			if (func == null || rect == null)
				continue;

			// Save max width. Only works as we have a root frame
			var w = parseFloat(rect.attributes.width.value);
			if (w > maxwidth)
				maxwidth = w;

			if (func.match(re)) {
				// highlight
				var x = parseFloat(rect.attributes.x.value);
				orig_save(rect, "fill");
				rect.attributes.fill.value = "rgb(230,0,230)";

				// remember matches
				if (matches[x] == undefined) {
					matches[x] = w;
				} else {
					if (w > matches[x]) {
						// overwrite with parent
						matches[x] = w;
					}
				}
				searching = 1;
			}
		}
		if (!searching)
			return;

		searchbtn.classList.add("show");
		searchbtn.firstChild.nodeValue = "Reset Search";

		// calculate percent matched, excluding vertical overlap
		var count = 0;
		var lastx = -1;
		var lastw = 0;
		var keys = Array();
		for (k in matches) {
			if (matches.hasOwnProperty(k))
				keys.push(k);
		}
		// sort the matched frames by their x location
		// ascending, then width descending
		keys.sort(function(a, b){
			return a - b;
		});
		// Step through frames saving only the biggest bottom-up frames
		// thanks to the sort order. This relies on the tree property
		// where children are always smaller than their parents.
		var fudge = 0.0001;	// JavaScript floating point
		for (var k in keys) {
			var x = parseFloat(keys[k]);
			var w = matches[keys[k]];
			if (x >= lastx + lastw - fudge) {
				count += w;
				lastx = x;
				lastw = w;
			}
		}
		// display matched percent
		matchedtxt.classList.remove("hide");
		var pct = 100 * count / maxwidth;
		if (pct != 100) pct = pct.toFixed(1)
		matchedtxt.firstChild.nodeValue = "Matched: " + pct + "%";
	}
]]>
</script>
<rect x="0" y="0" width="100%" height="100%" fill="rgb(240,240,220)"/>
<text id="title" x="600" y="24">Flame Graph</text>
<text id="details" x="10" y="373"> </text>
<text id="unzoom" x="10" y="24" class="hide">Reset Zoom</text>
<text id="search" x="1090" y="24">Search</text>
<text id="matched" x="1090" y="373"> </text>
<g id="frames">
<g>
<title>all (43,652 samples, 100.00%)</title><rect x="10.0" y="339.0" width="1180.0" height="15" fill="#e66161" rx="2" ry="2"/>
<text x="13.0" y="350.0">all</text>
</g>
<g>
<title>java/lang/Thread.run (42,041 samples, 96.31%)</title><rect x="10.0" y="323.0" width="1136.5" height="15" fill="#57e857" rx="2" ry="2"/>
<text x="13.0" y="334.0">java/lang/Thread.run</text>
</g>
<g>
<title>java/util/concurrent/ThreadPoolExecutor$Worker.run (42,041 samples, 96.31%)</title><rect x="10.0" y="307.0" width="1136.5" height="15" fill="#61f261" rx="2" ry="2"/>
<text x="13.0" y="318.0">java/util/concurrent/ThreadPoolExecutor$Worker.run</text>
</g>
<g>
<title>java/util/concurrent/ThreadPoolExecutor.runWorker (42,041 samples, 96.31%)</title><rect x="10.0" y="291.0" width="1136.5" height="15" fill="#67f867" rx="2" ry="2"/>
<text x="13.0" y="302.0">java/util/concurrent/ThreadPoolExecutor.runWorker</text>
</g>
<g>
<title>java/util/concurrent/FutureTask.run (3,225 samples, 7.39%)</title><rect x="10.0" y="275.0" width="87.2" height="15" fill="#53e453" rx="2" ry="2"/>
<text x="13.0" y="286.0">java/util/..</text>
</g>
<g>
<title>java/util/concurrent/Executors$RunnableAdapter.call (669 samples, 1.53%)</title><rect x="10.0" y="259.0" width="18.1" height="15" fill="#61f261" rx="2" ry="2"/>
<text x="13.0" y="270.0"></text>
</g>
<g>
<title>java/util/concurrent/FutureTask.run (669 samples, 1.53%)</title><rect x="10.0" y="243.0" width="18.1" height="15" fill="#5dee5d" rx="2" ry="2"/>
<text x="13.0" y="254.0"></text>
</g>
<g>
<title>ru/mail/polis/service/boriskin/ReplicaWorker$$Lambda$72/823475275.call (669 samples, 1.53%)</title><rect x="10.0" y="227.0" width="18.1" height="15" fill="#58e958" rx="2" ry="2"/>
<text x="13.0" y="238.0"></text>
</g>
<g>
<title>ru/mail/polis/service/boriskin/ReplicaWorker.lambda$getResponses$0 (669 samples, 1.53%)</title><rect x="10.0" y="211.0" width="18.1" height="15" fill="#53e453" rx="2" ry="2"/>
<text x="13.0" y="222.0"></text>
</g>
<g>
<title>ru/mail/polis/service/boriskin/ReplicaWorker.proxy (669 samples, 1.53%)</title><rect x="10.0" y="195.0" width="18.1" height="15" fill="#69fa69" rx="2" ry="2"/>
<text x="13.0" y="206.0"></text>
</g>
<g>
<title>one/nio/http/HttpClient.invoke (669 samples, 1.53%)</title><rect x="10.0" y="179.0" width="18.1" height="15" fill="#5bec5b" rx="2" ry="2"/>
<text x="13.0" y="190.0"></text>
</g>
<g>
<title>one/nio/http/HttpClient.invoke (669 samples, 1.53%)</title><rect x="10.0" y="163.0" width="18.1" height="15" fill="#60f160" rx="2" ry="2"/>
<text x="13.0" y="174.0"></text>
</g>
<g>
<title>one/nio/pool/Pool.borrowObject (255 samples, 0.58%)</title><rect x="10.0" y="147.0" width="6.9" height="15" fill="#61f261" rx="2" ry="2"/>
<text x="13.0" y="158.0"></text>
</g>
<g>
<title>one.nio.http.HttpClient (255 samples, 0.58%)</title><rect x="10.0" y="131.0" width="6.9" height="15" fill="#5ecccc" rx="2" ry="2"/>
<text x="13.0" y="142.0"></text>
</g>
<g>
<title>one/nio/pool/Pool.returnObject (414 samples, 0.95%)</title><rect x="16.9" y="147.0" width="11.2" height="15" fill="#68f968" rx="2" ry="2"/>
<text x="19.9" y="158.0"></text>
</g>
<g>
<title>one.nio.http.HttpClient (414 samples, 0.95%)</title><rect x="16.9" y="131.0" width="11.2" height="15" fill="#53c1c1" rx="2" ry="2"/>
<text x="19.9" y="142.0"></text>
</g>
<g>
<title>java/util/concurrent/FutureTask.set (2,556 samples, 5.86%)</title><rect x="28.1" y="259.0" width="69.1" height="15" fill="#63f463" rx="2" ry="2"/>
<text x="31.1" y="270.0">java/ut..</text>
</g>
<g>
<title>java/util/concurrent/FutureTask.finishCompletion (2,556 samples, 5.86%)</title><rect x="28.1" y="243.0" width="69.1" height="15" fill="#6bfc6b" rx="2" ry="2"/>
<text x="31.1" y="254.0">java/ut..</text>
</g>
<g>
<title>java/util/concurrent/ExecutorCompletionService$QueueingFuture.done (2,556 samples, 5.86%)</title><rect x="28.1" y="227.0" width="69.1" height="15" fill="#60f160" rx="2" ry="2"/>
<text x="31.1" y="238.0">java/ut..</text>
</g>
<g>
<title>java/util/AbstractQueue.add (2,556 samples, 5.86%)</title><rect x="28.1" y="211.0" width="69.1" height="15" fill="#60f160" rx="2" ry="2"/>
<text x="31.1" y="222.0">java/ut..</text>
</g>
<g>
<title>java/util/concurrent/LinkedBlockingQueue.offer (2,556 samples, 5.86%)</title><rect x="28.1" y="195.0" width="69.1" height="15" fill="#66f766" rx="2" ry="2"/>
<text x="31.1" y="206.0">java/ut..</text>
</g>
<g>
<title>java/util/concurrent/LinkedBlockingQueue.signalNotEmpty (1,983 samples, 4.54%)</title><rect x="28.1" y="179.0" width="53.6" height="15" fill="#64f564" rx="2" ry="2"/>
<text x="31.1" y="190.0">java/..</text>
</g>
<g>
<title>java/util/concurrent/locks/ReentrantLock.lock (1,983 samples, 4.54%)</title><rect x="28.1" y="163.0" width="53.6" height="15" fill="#55e655" rx="2" ry="2"/>
<text x="31.1" y="174.0">java/..</text>
</g>
<g>
<title>java/util/concurrent/locks/AbstractQueuedSynchronizer.acquire (1,983 samples, 4.54%)</title><rect x="28.1" y="147.0" width="53.6" height="15" fill="#57e857" rx="2" ry="2"/>
<text x="31.1" y="158.0">java/..</text>
</g>
<g>
<title>java/util/concurrent/locks/AbstractQueuedSynchronizer.acquireQueued (1,983 samples, 4.54%)</title><rect x="28.1" y="131.0" width="53.6" height="15" fill="#5dee5d" rx="2" ry="2"/>
<text x="31.1" y="142.0">java/..</text>
</g>
<g>
<title>java/util/concurrent/locks/AbstractQueuedSynchronizer.parkAndCheckInterrupt (1,983 samples, 4.54%)</title><rect x="28.1" y="115.0" width="53.6" height="15" fill="#68f968" rx="2" ry="2"/>
<text x="31.1" y="126.0">java/..</text>
</g>
<g>
<title>java/util/concurrent/locks/LockSupport.park (1,983 samples, 4.54%)</title><rect x="28.1" y="99.0" width="53.6" height="15" fill="#60f160" rx="2" ry="2"/>
<text x="31.1" y="110.0">java/..</text>
</g>
<g>
<title>jdk/internal/misc/Unsafe.park (1,983 samples, 4.54%)</title><rect x="28.1" y="83.0" width="53.6" height="15" fill="#6bfc6b" rx="2" ry="2"/>
<text x="31.1" y="94.0">jdk/i..</text>
</g>
<g>
<title>java.util.concurrent.locks.ReentrantLock$NonfairSync (1,983 samples, 4.54%)</title><rect x="28.1" y="67.0" width="53.6" height="15" fill="#53c1c1" rx="2" ry="2"/>
<text x="31.1" y="78.0">java...</text>
</g>
<g>
<title>java/util/concurrent/locks/ReentrantLock.lock (573 samples, 1.31%)</title><rect x="81.7" y="179.0" width="15.5" height="15" fill="#64f564" rx="2" ry="2"/>
<text x="84.7" y="190.0"></text>
</g>
<g>
<title>java/util/concurrent/locks/AbstractQueuedSynchronizer.acquire (573 samples, 1.31%)</title><rect x="81.7" y="163.0" width="15.5" height="15" fill="#55e655" rx="2" ry="2"/>
<text x="84.7" y="174.0"></text>
</g>
<g>
<title>java/util/concurrent/locks/AbstractQueuedSynchronizer.acquireQueued (573 samples, 1.31%)</title><rect x="81.7" y="147.0" width="15.5" height="15" fill="#59ea59" rx="2" ry="2"/>
<text x="84.7" y="158.0"></text>
</g>
<g>
<title>java/util/concurrent/locks/AbstractQueuedSynchronizer.parkAndCheckInterrupt (573 samples, 1.31%)</title><rect x="81.7" y="131.0" width="15.5" height="15" fill="#6cfd6c" rx="2" ry="2"/>
<text x="84.7" y="142.0"></text>
</g>
<g>
<title>java/util/concurrent/locks/LockSupport.park (573 samples, 1.31%)</title><rect x="81.7" y="115.0" width="15.5" height="15" fill="#67f867" rx="2" ry="2"/>
<text x="84.7" y="126.0"></text>
</g>
<g>
<title>jdk/internal/misc/Unsafe.park (573 samples, 1.31%)</title><rect x="81.7" y="99.0" width="15.5" height="15" fill="#52e352" rx="2" ry="2"/>
<text x="84.7" y="110.0"></text>
</g>
<g>
<title>java.util.concurrent.locks.ReentrantLock$NonfairSync (573 samples, 1.31%)</title><rect x="81.7" y="83.0" width="15.5" height="15" fill="#51bfbf" rx="2" ry="2"/>
<text x="84.7" y="94.0"></text>
</g>
<g>
<title>java/util/concurrent/ThreadPoolExecutor.getTask (14,249 samples, 32.64%)</title><rect x="97.2" y="275.0" width="385.2" height="15" fill="#5aeb5a" rx="2" ry="2"/>
<text x="100.2" y="286.0">java/util/concurrent/ThreadPoolExecutor.getTask</text>
</g>
<g>
<title>java/util/concurrent/LinkedBlockingQueue.take (14,249 samples, 32.64%)</title><rect x="97.2" y="259.0" width="385.2" height="15" fill="#60f160" rx="2" ry="2"/>
<text x="100.2" y="270.0">java/util/concurrent/LinkedBlockingQueue.take</text>
</g>
<g>
<title>java/util/concurrent/locks/AbstractQueuedSynchronizer$ConditionObject.await (2,847 samples, 6.52%)</title><rect x="97.2" y="243.0" width="76.9" height="15" fill="#59ea59" rx="2" ry="2"/>
<text x="100.2" y="254.0">java/uti..</text>
</g>
<g>
<title>java/util/concurrent/locks/AbstractQueuedSynchronizer.acquireQueued (2,847 samples, 6.52%)</title><rect x="97.2" y="227.0" width="76.9" height="15" fill="#5eef5e" rx="2" ry="2"/>
<text x="100.2" y="238.0">java/uti..</text>
</g>
<g>
<title>java/util/concurrent/locks/AbstractQueuedSynchronizer.parkAndCheckInterrupt (2,847 samples, 6.52%)</title><rect x="97.2" y="211.0" width="76.9" height="15" fill="#5ced5c" rx="2" ry="2"/>
<text x="100.2" y="222.0">java/uti..</text>
</g>
<g>
<title>java/util/concurrent/locks/LockSupport.park (2,847 samples, 6.52%)</title><rect x="97.2" y="195.0" width="76.9" height="15" fill="#65f665" rx="2" ry="2"/>
<text x="100.2" y="206.0">java/uti..</text>
</g>
<g>
<title>jdk/internal/misc/Unsafe.park (2,847 samples, 6.52%)</title><rect x="97.2" y="179.0" width="76.9" height="15" fill="#50e150" rx="2" ry="2"/>
<text x="100.2" y="190.0">jdk/inte..</text>
</g>
<g>
<title>java.util.concurrent.locks.ReentrantLock$NonfairSync (2,847 samples, 6.52%)</title><rect x="97.2" y="163.0" width="76.9" height="15" fill="#50bebe" rx="2" ry="2"/>
<text x="100.2" y="174.0">java.uti..</text>
</g>
<g>
<title>java/util/concurrent/locks/ReentrantLock.lockInterruptibly (11,402 samples, 26.12%)</title><rect x="174.1" y="243.0" width="308.3" height="15" fill="#56e756" rx="2" ry="2"/>
<text x="177.1" y="254.0">java/util/concurrent/locks/ReentrantLock.l..</text>
</g>
<g>
<title>java/util/concurrent/locks/AbstractQueuedSynchronizer.acquireInterruptibly (11,402 samples, 26.12%)</title><rect x="174.1" y="227.0" width="308.3" height="15" fill="#69fa69" rx="2" ry="2"/>
<text x="177.1" y="238.0">java/util/concurrent/locks/AbstractQueuedS..</text>
</g>
<g>
<title>java/util/concurrent/locks/AbstractQueuedSynchronizer.doAcquireInterruptibly (11,402 samples, 26.12%)</title><rect x="174.1" y="211.0" width="308.3" height="15" fill="#54e554" rx="2" ry="2"/>
<text x="177.1" y="222.0">java/util/concurrent/locks/AbstractQueuedS..</text>
</g>
<g>
<title>java/util/concurrent/locks/AbstractQueuedSynchronizer.parkAndCheckInterrupt (11,402 samples, 26.12%)</title><rect x="174.1" y="195.0" width="308.3" height="15" fill="#69fa69" rx="2" ry="2"/>
<text x="177.1" y="206.0">java/util/concurrent/locks/AbstractQueuedS..</text>
</g>
<g>
<title>java/util/concurrent/locks/LockSupport.park (11,402 samples, 26.12%)</title><rect x="174.1" y="179.0" width="308.3" height="15" fill="#66f766" rx="2" ry="2"/>
<text x="177.1" y="190.0">java/util/concurrent/locks/LockSupport.park</text>
</g>
<g>
<title>jdk/internal/misc/Unsafe.park (11,402 samples, 26.12%)</title><rect x="174.1" y="163.0" width="308.3" height="15" fill="#64f564" rx="2" ry="2"/>
<text x="177.1" y="174.0">jdk/internal/misc/Unsafe.park</text>
</g>
<g>
<title>java.util.concurrent.locks.ReentrantLock$NonfairSync (11,402 samples, 26.12%)</title><rect x="174.1" y="147.0" width="308.3" height="15" fill="#5ccaca" rx="2" ry="2"/>
<text x="177.1" y="158.0">java.util.concurrent.locks.ReentrantLock$N..</text>
</g>
<g>
<title>ru/mail/polis/service/boriskin/NewService$$Lambda$64/313824963.run (24,567 samples, 56.28%)</title><rect x="482.4" y="275.0" width="664.1" height="15" fill="#5ff05f" rx="2" ry="2"/>
<text x="485.4" y="286.0">ru/mail/polis/service/boriskin/NewService$$Lambda$64/313824963.run</text>
</g>
<g>
<title>ru/mail/polis/service/boriskin/NewService.lambda$runExecutorService$0 (24,567 samples, 56.28%)</title><rect x="482.4" y="259.0" width="664.1" height="15" fill="#5bec5b" rx="2" ry="2"/>
<text x="485.4" y="270.0">ru/mail/polis/service/boriskin/NewService.lambda$runExecutorService$0</text>
</g>
<g>
<title>ru/mail/polis/service/boriskin/NewService.operation (24,567 samples, 56.28%)</title><rect x="482.4" y="243.0" width="664.1" height="15" fill="#61f261" rx="2" ry="2"/>
<text x="485.4" y="254.0">ru/mail/polis/service/boriskin/NewService.operation</text>
</g>
<g>
<title>ru/mail/polis/service/boriskin/NewService.resp (17,084 samples, 39.14%)</title><rect x="482.4" y="227.0" width="461.8" height="15" fill="#67f867" rx="2" ry="2"/>
<text x="485.4" y="238.0">ru/mail/polis/service/boriskin/NewService.resp</text>
</g>
<g>
<title>one/nio/http/HttpSession.sendResponse (17,084 samples, 39.14%)</title><rect x="482.4" y="211.0" width="461.8" height="15" fill="#68f968" rx="2" ry="2"/>
<text x="485.4" y="222.0">one/nio/http/HttpSession.sendResponse</text>
</g>
<g>
<title>one.nio.http.HttpSession (17,084 samples, 39.14%)</title><rect x="482.4" y="195.0" width="461.8" height="15" fill="#5ccaca" rx="2" ry="2"/>
<text x="485.4" y="206.0">one.nio.http.HttpSession</text>
</g>
<g>
<title>ru/mail/polis/service/boriskin/ReplicaWorker.upserting (7,483 samples, 17.14%)</title><rect x="944.2" y="227.0" width="202.3" height="15" fill="#59ea59" rx="2" ry="2"/>
<text x="947.2" y="238.0">ru/mail/polis/service/bori..</text>
</g>
<g>
<title>ru/mail/polis/dao/boriskin/NewDAO.upsert (13 samples, 0.03%)</title><rect x="944.2" y="211.0" width="0.3" height="15" fill="#66f766" rx="2" ry="2"/>
<text x="947.2" y="222.0"></text>
</g>
<g>
<title>java/util/concurrent/locks/ReentrantReadWriteLock$ReadLock.lock (11 samples, 0.03%)</title><rect x="944.2" y="195.0" width="0.3" height="15" fill="#5ff05f" rx="2" ry="2"/>
<text x="947.2" y="206.0"></text>
</g>
<g>
<title>java/util/concurrent/locks/AbstractQueuedSynchronizer.acquireShared (11 samples, 0.03%)</title><rect x="944.2" y="179.0" width="0.3" height="15" fill="#50e150" rx="2" ry="2"/>
<text x="947.2" y="190.0"></text>
</g>
<g>
<title>java/util/concurrent/locks/AbstractQueuedSynchronizer.doAcquireShared (11 samples, 0.03%)</title><rect x="944.2" y="163.0" width="0.3" height="15" fill="#6cfd6c" rx="2" ry="2"/>
<text x="947.2" y="174.0"></text>
</g>
<g>
<title>java/util/concurrent/locks/AbstractQueuedSynchronizer.parkAndCheckInterrupt (11 samples, 0.03%)</title><rect x="944.2" y="147.0" width="0.3" height="15" fill="#69fa69" rx="2" ry="2"/>
<text x="947.2" y="158.0"></text>
</g>
<g>
<title>java/util/concurrent/locks/LockSupport.park (11 samples, 0.03%)</title><rect x="944.2" y="131.0" width="0.3" height="15" fill="#6cfd6c" rx="2" ry="2"/>
<text x="947.2" y="142.0"></text>
</g>
<g>
<title>jdk/internal/misc/Unsafe.park (11 samples, 0.03%)</title><rect x="944.2" y="115.0" width="0.3" height="15" fill="#65f665" rx="2" ry="2"/>
<text x="947.2" y="126.0"></text>
</g>
<g>
<title>java.util.concurrent.locks.ReentrantReadWriteLock$NonfairSync (11 samples, 0.03%)</title><rect x="944.2" y="99.0" width="0.3" height="15" fill="#6cdada" rx="2" ry="2"/>
<text x="947.2" y="110.0"></text>
</g>
<g>
<title>ru/mail/polis/service/boriskin/ReplicaWorker.getResponses (7,470 samples, 17.11%)</title><rect x="944.5" y="211.0" width="202.0" height="15" fill="#50e150" rx="2" ry="2"/>
<text x="947.5" y="222.0">ru/mail/polis/service/bori..</text>
</g>
<g>
<title>java/util/concurrent/ExecutorCompletionService.submit (1,057 samples, 2.42%)</title><rect x="944.5" y="195.0" width="28.6" height="15" fill="#51e251" rx="2" ry="2"/>
<text x="947.5" y="206.0">ja..</text>
</g>
<g>
<title>java/util/concurrent/ThreadPoolExecutor.execute (1,057 samples, 2.42%)</title><rect x="944.5" y="179.0" width="28.6" height="15" fill="#5eef5e" rx="2" ry="2"/>
<text x="947.5" y="190.0">ja..</text>
</g>
<g>
<title>java/util/concurrent/LinkedBlockingQueue.offer (1,057 samples, 2.42%)</title><rect x="944.5" y="163.0" width="28.6" height="15" fill="#5aeb5a" rx="2" ry="2"/>
<text x="947.5" y="174.0">ja..</text>
</g>
<g>
<title>java/util/concurrent/LinkedBlockingQueue.signalNotEmpty (752 samples, 1.72%)</title><rect x="944.5" y="147.0" width="20.4" height="15" fill="#60f160" rx="2" ry="2"/>
<text x="947.5" y="158.0"></text>
</g>
<g>
<title>java/util/concurrent/locks/ReentrantLock.lock (752 samples, 1.72%)</title><rect x="944.5" y="131.0" width="20.4" height="15" fill="#6bfc6b" rx="2" ry="2"/>
<text x="947.5" y="142.0"></text>
</g>
<g>
<title>java/util/concurrent/locks/AbstractQueuedSynchronizer.acquire (752 samples, 1.72%)</title><rect x="944.5" y="115.0" width="20.4" height="15" fill="#51e251" rx="2" ry="2"/>
<text x="947.5" y="126.0"></text>
</g>
<g>
<title>java/util/concurrent/locks/AbstractQueuedSynchronizer.acquireQueued (752 samples, 1.72%)</title><rect x="944.5" y="99.0" width="20.4" height="15" fill="#61f261" rx="2" ry="2"/>
<text x="947.5" y="110.0"></text>
</g>
<g>
<title>java/util/concurrent/locks/AbstractQueuedSynchronizer.parkAndCheckInterrupt (752 samples, 1.72%)</title><rect x="944.5" y="83.0" width="20.4" height="15" fill="#6bfc6b" rx="2" ry="2"/>
<text x="947.5" y="94.0"></text>
</g>
<g>
<title>java/util/concurrent/locks/LockSupport.park (752 samples, 1.72%)</title><rect x="944.5" y="67.0" width="20.4" height="15" fill="#58e958" rx="2" ry="2"/>
<text x="947.5" y="78.0"></text>
</g>
<g>
<title>jdk/internal/misc/Unsafe.park (752 samples, 1.72%)</title><rect x="944.5" y="51.0" width="20.4" height="15" fill="#5ced5c" rx="2" ry="2"/>
<text x="947.5" y="62.0"></text>
</g>
<g>
<title>java.util.concurrent.locks.ReentrantLock$NonfairSync (752 samples, 1.72%)</title><rect x="944.5" y="35.0" width="20.4" height="15" fill="#52c0c0" rx="2" ry="2"/>
<text x="947.5" y="46.0"></text>
</g>
<g>
<title>java/util/concurrent/locks/ReentrantLock.lock (305 samples, 0.70%)</title><rect x="964.9" y="147.0" width="8.2" height="15" fill="#53e453" rx="2" ry="2"/>
<text x="967.9" y="158.0"></text>
</g>
<g>
<title>java/util/concurrent/locks/AbstractQueuedSynchronizer.acquire (305 samples, 0.70%)</title><rect x="964.9" y="131.0" width="8.2" height="15" fill="#54e554" rx="2" ry="2"/>
<text x="967.9" y="142.0"></text>
</g>
<g>
<title>java/util/concurrent/locks/AbstractQueuedSynchronizer.acquireQueued (305 samples, 0.70%)</title><rect x="964.9" y="115.0" width="8.2" height="15" fill="#67f867" rx="2" ry="2"/>
<text x="967.9" y="126.0"></text>
</g>
<g>
<title>java/util/concurrent/locks/AbstractQueuedSynchronizer.parkAndCheckInterrupt (305 samples, 0.70%)</title><rect x="964.9" y="99.0" width="8.2" height="15" fill="#5ff05f" rx="2" ry="2"/>
<text x="967.9" y="110.0"></text>
</g>
<g>
<title>java/util/concurrent/locks/LockSupport.park (305 samples, 0.70%)</title><rect x="964.9" y="83.0" width="8.2" height="15" fill="#64f564" rx="2" ry="2"/>
<text x="967.9" y="94.0"></text>
</g>
<g>
<title>jdk/internal/misc/Unsafe.park (305 samples, 0.70%)</title><rect x="964.9" y="67.0" width="8.2" height="15" fill="#54e554" rx="2" ry="2"/>
<text x="967.9" y="78.0"></text>
</g>
<g>
<title>java.util.concurrent.locks.ReentrantLock$NonfairSync (305 samples, 0.70%)</title><rect x="964.9" y="51.0" width="8.2" height="15" fill="#53c1c1" rx="2" ry="2"/>
<text x="967.9" y="62.0"></text>
</g>
<g>
<title>java/util/concurrent/ExecutorCompletionService.take (6,413 samples, 14.69%)</title><rect x="973.1" y="195.0" width="173.4" height="15" fill="#5dee5d" rx="2" ry="2"/>
<text x="976.1" y="206.0">java/util/concurrent/E..</text>
</g>
<g>
<title>java/util/concurrent/LinkedBlockingQueue.take (6,413 samples, 14.69%)</title><rect x="973.1" y="179.0" width="173.4" height="15" fill="#6dfe6d" rx="2" ry="2"/>
<text x="976.1" y="190.0">java/util/concurrent/L..</text>
</g>
<g>
<title>java/util/concurrent/locks/AbstractQueuedSynchronizer$ConditionObject.await (2,188 samples, 5.01%)</title><rect x="973.1" y="163.0" width="59.1" height="15" fill="#5ff05f" rx="2" ry="2"/>
<text x="976.1" y="174.0">java/u..</text>
</g>
<g>
<title>java/util/concurrent/locks/AbstractQueuedSynchronizer.acquireQueued (2,188 samples, 5.01%)</title><rect x="973.1" y="147.0" width="59.1" height="15" fill="#67f867" rx="2" ry="2"/>
<text x="976.1" y="158.0">java/u..</text>
</g>
<g>
<title>java/util/concurrent/locks/AbstractQueuedSynchronizer.parkAndCheckInterrupt (2,188 samples, 5.01%)</title><rect x="973.1" y="131.0" width="59.1" height="15" fill="#65f665" rx="2" ry="2"/>
<text x="976.1" y="142.0">java/u..</text>
</g>
<g>
<title>java/util/concurrent/locks/LockSupport.park (2,188 samples, 5.01%)</title><rect x="973.1" y="115.0" width="59.1" height="15" fill="#51e251" rx="2" ry="2"/>
<text x="976.1" y="126.0">java/u..</text>
</g>
<g>
<title>jdk/internal/misc/Unsafe.park (2,188 samples, 5.01%)</title><rect x="973.1" y="99.0" width="59.1" height="15" fill="#67f867" rx="2" ry="2"/>
<text x="976.1" y="110.0">jdk/in..</text>
</g>
<g>
<title>java.util.concurrent.locks.ReentrantLock$NonfairSync (2,188 samples, 5.01%)</title><rect x="973.1" y="83.0" width="59.1" height="15" fill="#64d2d2" rx="2" ry="2"/>
<text x="976.1" y="94.0">java.u..</text>
</g>
<g>
<title>java/util/concurrent/locks/ReentrantLock.lockInterruptibly (4,225 samples, 9.68%)</title><rect x="1032.2" y="163.0" width="114.3" height="15" fill="#6afb6a" rx="2" ry="2"/>
<text x="1035.2" y="174.0">java/util/conc..</text>
</g>
<g>
<title>java/util/concurrent/locks/AbstractQueuedSynchronizer.acquireInterruptibly (4,225 samples, 9.68%)</title><rect x="1032.2" y="147.0" width="114.3" height="15" fill="#66f766" rx="2" ry="2"/>
<text x="1035.2" y="158.0">java/util/conc..</text>
</g>
<g>
<title>java/util/concurrent/locks/AbstractQueuedSynchronizer.doAcquireInterruptibly (4,225 samples, 9.68%)</title><rect x="1032.2" y="131.0" width="114.3" height="15" fill="#5bec5b" rx="2" ry="2"/>
<text x="1035.2" y="142.0">java/util/conc..</text>
</g>
<g>
<title>java/util/concurrent/locks/AbstractQueuedSynchronizer.parkAndCheckInterrupt (4,225 samples, 9.68%)</title><rect x="1032.2" y="115.0" width="114.3" height="15" fill="#68f968" rx="2" ry="2"/>
<text x="1035.2" y="126.0">java/util/conc..</text>
</g>
<g>
<title>java/util/concurrent/locks/LockSupport.park (4,225 samples, 9.68%)</title><rect x="1032.2" y="99.0" width="114.3" height="15" fill="#66f766" rx="2" ry="2"/>
<text x="1035.2" y="110.0">java/util/conc..</text>
</g>
<g>
<title>jdk/internal/misc/Unsafe.park (4,225 samples, 9.68%)</title><rect x="1032.2" y="83.0" width="114.3" height="15" fill="#5dee5d" rx="2" ry="2"/>
<text x="1035.2" y="94.0">jdk/internal/m..</text>
</g>
<g>
<title>java.util.concurrent.locks.ReentrantLock$NonfairSync (4,225 samples, 9.68%)</title><rect x="1032.2" y="67.0" width="114.3" height="15" fill="#59c7c7" rx="2" ry="2"/>
<text x="1035.2" y="78.0">java.util.conc..</text>
</g>
<g>
<title>one/nio/server/SelectorThread.run (1,611 samples, 3.69%)</title><rect x="1146.5" y="323.0" width="43.5" height="15" fill="#52e352" rx="2" ry="2"/>
<text x="1149.5" y="334.0">one/..</text>
</g>
<g>
<title>one/nio/net/Session.process (1,611 samples, 3.69%)</title><rect x="1146.5" y="307.0" width="43.5" height="15" fill="#6dfe6d" rx="2" ry="2"/>
<text x="1149.5" y="318.0">one/..</text>
</g>
<g>
<title>one.nio.http.HttpSession (587 samples, 1.34%)</title><rect x="1146.5" y="291.0" width="15.8" height="15" fill="#57c5c5" rx="2" ry="2"/>
<text x="1149.5" y="302.0"></text>
</g>
<g>
<title>one/nio/http/HttpSession.processRead (1,024 samples, 2.35%)</title><rect x="1162.3" y="291.0" width="27.7" height="15" fill="#54e554" rx="2" ry="2"/>
<text x="1165.3" y="302.0">o..</text>
</g>
<g>
<title>one/nio/http/HttpSession.processHttpBuffer (1,024 samples, 2.35%)</title><rect x="1162.3" y="275.0" width="27.7" height="15" fill="#60f160" rx="2" ry="2"/>
<text x="1165.3" y="286.0">o..</text>
</g>
<g>
<title>one/nio/http/HttpSession.handleParsedRequest (1,024 samples, 2.35%)</title><rect x="1162.3" y="259.0" width="27.7" height="15" fill="#55e655" rx="2" ry="2"/>
<text x="1165.3" y="270.0">o..</text>
</g>
<g>
<title>one/nio/http/HttpServer.handleRequest (1,024 samples, 2.35%)</title><rect x="1162.3" y="243.0" width="27.7" height="15" fill="#5ced5c" rx="2" ry="2"/>
<text x="1165.3" y="254.0">o..</text>
</g>
<g>
<title>RequestHandler1_entity.handleRequest (1,024 samples, 2.35%)</title><rect x="1162.3" y="227.0" width="27.7" height="15" fill="#6dfe6d" rx="2" ry="2"/>
<text x="1165.3" y="238.0">R..</text>
</g>
<g>
<title>ru/mail/polis/service/boriskin/NewService.entity (1,024 samples, 2.35%)</title><rect x="1162.3" y="211.0" width="27.7" height="15" fill="#57e857" rx="2" ry="2"/>
<text x="1165.3" y="222.0">r..</text>
</g>
<g>
<title>ru/mail/polis/service/boriskin/NewService.runExecutorService (1,024 samples, 2.35%)</title><rect x="1162.3" y="195.0" width="27.7" height="15" fill="#60f160" rx="2" ry="2"/>
<text x="1165.3" y="206.0">r..</text>
</g>
<g>
<title>java/util/concurrent/ThreadPoolExecutor.execute (1,024 samples, 2.35%)</title><rect x="1162.3" y="179.0" width="27.7" height="15" fill="#53e453" rx="2" ry="2"/>
<text x="1165.3" y="190.0">j..</text>
</g>
<g>
<title>java/util/concurrent/LinkedBlockingQueue.offer (1,024 samples, 2.35%)</title><rect x="1162.3" y="163.0" width="27.7" height="15" fill="#50e150" rx="2" ry="2"/>
<text x="1165.3" y="174.0">j..</text>
</g>
<g>
<title>java/util/concurrent/LinkedBlockingQueue.signalNotEmpty (929 samples, 2.13%)</title><rect x="1162.3" y="147.0" width="25.1" height="15" fill="#51e251" rx="2" ry="2"/>
<text x="1165.3" y="158.0">j..</text>
</g>
<g>
<title>java/util/concurrent/locks/ReentrantLock.lock (929 samples, 2.13%)</title><rect x="1162.3" y="131.0" width="25.1" height="15" fill="#68f968" rx="2" ry="2"/>
<text x="1165.3" y="142.0">j..</text>
</g>
<g>
<title>java/util/concurrent/locks/AbstractQueuedSynchronizer.acquire (929 samples, 2.13%)</title><rect x="1162.3" y="115.0" width="25.1" height="15" fill="#55e655" rx="2" ry="2"/>
<text x="1165.3" y="126.0">j..</text>
</g>
<g>
<title>java/util/concurrent/locks/AbstractQueuedSynchronizer.acquireQueued (929 samples, 2.13%)</title><rect x="1162.3" y="99.0" width="25.1" height="15" fill="#55e655" rx="2" ry="2"/>
<text x="1165.3" y="110.0">j..</text>
</g>
<g>
<title>java/util/concurrent/locks/AbstractQueuedSynchronizer.parkAndCheckInterrupt (929 samples, 2.13%)</title><rect x="1162.3" y="83.0" width="25.1" height="15" fill="#58e958" rx="2" ry="2"/>
<text x="1165.3" y="94.0">j..</text>
</g>
<g>
<title>java/util/concurrent/locks/LockSupport.park (929 samples, 2.13%)</title><rect x="1162.3" y="67.0" width="25.1" height="15" fill="#54e554" rx="2" ry="2"/>
<text x="1165.3" y="78.0">j..</text>
</g>
<g>
<title>jdk/internal/misc/Unsafe.park (929 samples, 2.13%)</title><rect x="1162.3" y="51.0" width="25.1" height="15" fill="#64f564" rx="2" ry="2"/>
<text x="1165.3" y="62.0">j..</text>
</g>
<g>
<title>java.util.concurrent.locks.ReentrantLock$NonfairSync (929 samples, 2.13%)</title><rect x="1162.3" y="35.0" width="25.1" height="15" fill="#51bfbf" rx="2" ry="2"/>
<text x="1165.3" y="46.0">j..</text>
</g>
<g>
<title>java/util/concurrent/locks/ReentrantLock.lock (95 samples, 0.22%)</title><rect x="1187.4" y="147.0" width="2.6" height="15" fill="#6afb6a" rx="2" ry="2"/>
<text x="1190.4" y="158.0"></text>
</g>
<g>
<title>java/util/concurrent/locks/AbstractQueuedSynchronizer.acquire (95 samples, 0.22%)</title><rect x="1187.4" y="131.0" width="2.6" height="15" fill="#65f665" rx="2" ry="2"/>
<text x="1190.4" y="142.0"></text>
</g>
<g>
<title>java/util/concurrent/locks/AbstractQueuedSynchronizer.acquireQueued (95 samples, 0.22%)</title><rect x="1187.4" y="115.0" width="2.6" height="15" fill="#69fa69" rx="2" ry="2"/>
<text x="1190.4" y="126.0"></text>
</g>
<g>
<title>java/util/concurrent/locks/AbstractQueuedSynchronizer.parkAndCheckInterrupt (95 samples, 0.22%)</title><rect x="1187.4" y="99.0" width="2.6" height="15" fill="#61f261" rx="2" ry="2"/>
<text x="1190.4" y="110.0"></text>
</g>
<g>
<title>java/util/concurrent/locks/LockSupport.park (95 samples, 0.22%)</title><rect x="1187.4" y="83.0" width="2.6" height="15" fill="#62f362" rx="2" ry="2"/>
<text x="1190.4" y="94.0"></text>
</g>
<g>
<title>jdk/internal/misc/Unsafe.park (95 samples, 0.22%)</title><rect x="1187.4" y="67.0" width="2.6" height="15" fill="#62f362" rx="2" ry="2"/>
<text x="1190.4" y="78.0"></text>
</g>
<g>
<title>java.util.concurrent.locks.ReentrantLock$NonfairSync (95 samples, 0.22%)</title><rect x="1187.4" y="51.0" width="2.6" height="15" fill="#6cdada" rx="2" ry="2"/>
<text x="1190.4" y="62.0"></text>
</g>
</g>
</svg>
