<?xml version="1.0" standalone="no"?>
<!DOCTYPE svg PUBLIC "-//W3C//DTD SVG 1.1//EN" "http://www.w3.org/Graphics/SVG/1.1/DTD/svg11.dtd">
<svg version="1.1" width="1200" height="550" onload="init(evt)" viewBox="0 0 1200 550" xmlns="http://www.w3.org/2000/svg" xmlns:xlink="http://www.w3.org/1999/xlink">
<style type="text/css">
	text { font-family:Verdana; font-size:12px; fill:rgb(0,0,0); }
	#search { opacity:0.1; cursor:pointer; }
	#search:hover, #search.show { opacity:1; }
	#subtitle { text-anchor:middle; font-color:rgb(160,160,160); }
	#title { text-anchor:middle; font-size:17px}
	#unzoom { cursor:pointer; }
	#frames > *:hover { stroke:black; stroke-width:0.5; cursor:pointer; }
	.hide { display:none; }
	.parent { opacity:0.5; }
</style>
<script type="text/ecmascript">
<![CDATA[
	"use strict";
	var details, searchbtn, unzoombtn, matchedtxt, svg, searching;
	function init(evt) {
		details = document.getElementById("details").firstChild;
		searchbtn = document.getElementById("search");
		unzoombtn = document.getElementById("unzoom");
		matchedtxt = document.getElementById("matched");
		svg = document.getElementsByTagName("svg")[0];
		searching = 0;
	}

	window.addEventListener("click", function(e) {
		var target = find_group(e.target);
		if (target) {
			if (target.nodeName == "a") {
				if (e.ctrlKey === false) return;
				e.preventDefault();
			}
			if (target.classList.contains("parent")) unzoom();
			zoom(target);
		}
		else if (e.target.id == "unzoom") unzoom();
		else if (e.target.id == "search") search_prompt();
	}, false)

	// mouse-over for info
	// show
	window.addEventListener("mouseover", function(e) {
		var target = find_group(e.target);
		if (target) details.nodeValue = "Function: " + g_to_text(target);
	}, false)

	// clear
	window.addEventListener("mouseout", function(e) {
		var target = find_group(e.target);
		if (target) details.nodeValue = ' ';
	}, false)

	// ctrl-F for search
	window.addEventListener("keydown",function (e) {
		if (e.keyCode === 114 || (e.ctrlKey && e.keyCode === 70)) {
			e.preventDefault();
			search_prompt();
		}
	}, false)

	// functions
	function find_child(node, selector) {
		var children = node.querySelectorAll(selector);
		if (children.length) return children[0];
		return;
	}
	function find_group(node) {
		var parent = node.parentElement;
		if (!parent) return;
		if (parent.id == "frames") return node;
		return find_group(parent);
	}
	function orig_save(e, attr, val) {
		if (e.attributes["_orig_" + attr] != undefined) return;
		if (e.attributes[attr] == undefined) return;
		if (val == undefined) val = e.attributes[attr].value;
		e.setAttribute("_orig_" + attr, val);
	}
	function orig_load(e, attr) {
		if (e.attributes["_orig_"+attr] == undefined) return;
		e.attributes[attr].value = e.attributes["_orig_" + attr].value;
		e.removeAttribute("_orig_"+attr);
	}
	function g_to_text(e) {
		var text = find_child(e, "title").firstChild.nodeValue;
		return (text)
	}
	function g_to_func(e) {
		var func = g_to_text(e);
		// if there's any manipulation we want to do to the function
		// name before it's searched, do it here before returning.
		return (func);
	}
	function update_text(e) {
		var r = find_child(e, "rect");
		var t = find_child(e, "text");
		var w = parseFloat(r.attributes.width.value) -3;
		var txt = find_child(e, "title").textContent.replace(/\([^(]*\)$/,"");
		t.attributes.x.value = parseFloat(r.attributes.x.value) + 3;

		// Smaller than this size won't fit anything
		if (w < 2 * 12 * 0.59) {
			t.textContent = "";
			return;
		}

		t.textContent = txt;
		// Fit in full text width
		if (/^ *$/.test(txt) || t.getSubStringLength(0, txt.length) < w)
			return;

		for (var x = txt.length - 2; x > 0; x--) {
			if (t.getSubStringLength(0, x + 2) <= w) {
				t.textContent = txt.substring(0, x) + "..";
				return;
			}
		}
		t.textContent = "";
	}

	// zoom
	function zoom_reset(e) {
		if (e.attributes != undefined) {
			orig_load(e, "x");
			orig_load(e, "width");
		}
		if (e.childNodes == undefined) return;
		for (var i = 0, c = e.childNodes; i < c.length; i++) {
			zoom_reset(c[i]);
		}
	}
	function zoom_child(e, x, ratio) {
		if (e.attributes != undefined) {
			if (e.attributes.x != undefined) {
				orig_save(e, "x");
				e.attributes.x.value = (parseFloat(e.attributes.x.value) - x - 10) * ratio + 10;
				if (e.tagName == "text")
					e.attributes.x.value = find_child(e.parentNode, "rect[x]").attributes.x.value + 3;
			}
			if (e.attributes.width != undefined) {
				orig_save(e, "width");
				e.attributes.width.value = parseFloat(e.attributes.width.value) * ratio;
			}
		}

		if (e.childNodes == undefined) return;
		for (var i = 0, c = e.childNodes; i < c.length; i++) {
			zoom_child(c[i], x - 10, ratio);
		}
	}
	function zoom_parent(e) {
		if (e.attributes) {
			if (e.attributes.x != undefined) {
				orig_save(e, "x");
				e.attributes.x.value = 10;
			}
			if (e.attributes.width != undefined) {
				orig_save(e, "width");
				e.attributes.width.value = parseInt(svg.width.baseVal.value) - (10 * 2);
			}
		}
		if (e.childNodes == undefined) return;
		for (var i = 0, c = e.childNodes; i < c.length; i++) {
			zoom_parent(c[i]);
		}
	}
	function zoom(node) {
		var attr = find_child(node, "rect").attributes;
		var width = parseFloat(attr.width.value);
		var xmin = parseFloat(attr.x.value);
		var xmax = parseFloat(xmin + width);
		var ymin = parseFloat(attr.y.value);
		var ratio = (svg.width.baseVal.value - 2 * 10) / width;

		// XXX: Workaround for JavaScript float issues (fix me)
		var fudge = 0.0001;

		unzoombtn.classList.remove("hide");

		var el = document.getElementById("frames").children;
		for (var i = 0; i < el.length; i++) {
			var e = el[i];
			var a = find_child(e, "rect").attributes;
			var ex = parseFloat(a.x.value);
			var ew = parseFloat(a.width.value);
			var upstack;
			// Is it an ancestor
			if (0 == 0) {
				upstack = parseFloat(a.y.value) > ymin;
			} else {
				upstack = parseFloat(a.y.value) < ymin;
			}
			if (upstack) {
				// Direct ancestor
				if (ex <= xmin && (ex+ew+fudge) >= xmax) {
					e.classList.add("parent");
					zoom_parent(e);
					update_text(e);
				}
				// not in current path
				else
					e.classList.add("hide");
			}
			// Children maybe
			else {
				// no common path
				if (ex < xmin || ex + fudge >= xmax) {
					e.classList.add("hide");
				}
				else {
					zoom_child(e, xmin, ratio);
					update_text(e);
				}
			}
		}
	}
	function unzoom() {
		unzoombtn.classList.add("hide");
		var el = document.getElementById("frames").children;
		for(var i = 0; i < el.length; i++) {
			el[i].classList.remove("parent");
			el[i].classList.remove("hide");
			zoom_reset(el[i]);
			update_text(el[i]);
		}
	}

	// search
	function reset_search() {
		var el = document.querySelectorAll("#frames rect");
		for (var i = 0; i < el.length; i++) {
			orig_load(el[i], "fill")
		}
	}
	function search_prompt() {
		if (!searching) {
			var term = prompt("Enter a search term (regexp " +
			    "allowed, eg: ^ext4_)", "");
			if (term != null) {
				search(term)
			}
		} else {
			reset_search();
			searching = 0;
			searchbtn.classList.remove("show");
			searchbtn.firstChild.nodeValue = "Search"
			matchedtxt.classList.add("hide");
			matchedtxt.firstChild.nodeValue = ""
		}
	}
	function search(term) {
		var re = new RegExp(term);
		var el = document.getElementById("frames").children;
		var matches = new Object();
		var maxwidth = 0;
		for (var i = 0; i < el.length; i++) {
			var e = el[i];
			var func = g_to_func(e);
			var rect = find_child(e, "rect");
			if (func == null || rect == null)
				continue;

			// Save max width. Only works as we have a root frame
			var w = parseFloat(rect.attributes.width.value);
			if (w > maxwidth)
				maxwidth = w;

			if (func.match(re)) {
				// highlight
				var x = parseFloat(rect.attributes.x.value);
				orig_save(rect, "fill");
				rect.attributes.fill.value = "rgb(230,0,230)";

				// remember matches
				if (matches[x] == undefined) {
					matches[x] = w;
				} else {
					if (w > matches[x]) {
						// overwrite with parent
						matches[x] = w;
					}
				}
				searching = 1;
			}
		}
		if (!searching)
			return;

		searchbtn.classList.add("show");
		searchbtn.firstChild.nodeValue = "Reset Search";

		// calculate percent matched, excluding vertical overlap
		var count = 0;
		var lastx = -1;
		var lastw = 0;
		var keys = Array();
		for (k in matches) {
			if (matches.hasOwnProperty(k))
				keys.push(k);
		}
		// sort the matched frames by their x location
		// ascending, then width descending
		keys.sort(function(a, b){
			return a - b;
		});
		// Step through frames saving only the biggest bottom-up frames
		// thanks to the sort order. This relies on the tree property
		// where children are always smaller than their parents.
		var fudge = 0.0001;	// JavaScript floating point
		for (var k in keys) {
			var x = parseFloat(keys[k]);
			var w = matches[keys[k]];
			if (x >= lastx + lastw - fudge) {
				count += w;
				lastx = x;
				lastw = w;
			}
		}
		// display matched percent
		matchedtxt.classList.remove("hide");
		var pct = 100 * count / maxwidth;
		if (pct != 100) pct = pct.toFixed(1)
		matchedtxt.firstChild.nodeValue = "Matched: " + pct + "%";
	}
]]>
</script>
<rect x="0" y="0" width="100%" height="100%" fill="rgb(240,240,220)"/>
<text id="title" x="600" y="24">Flame Graph</text>
<text id="details" x="10" y="533"> </text>
<text id="unzoom" x="10" y="24" class="hide">Reset Zoom</text>
<text id="search" x="1090" y="24">Search</text>
<text id="matched" x="1090" y="533"> </text>
<g id="frames">
<g>
<title>all (917,669 samples, 100.00%)</title><rect x="10.0" y="499.0" width="1180.0" height="15" fill="#f97a7a" rx="2" ry="2"/>
<text x="13.0" y="510.0">all</text>
</g>
<g>
<title>java/lang/Thread.run (887,186 samples, 96.68%)</title><rect x="10.0" y="483.0" width="1140.8" height="15" fill="#5ff05f" rx="2" ry="2"/>
<text x="13.0" y="494.0">java/lang/Thread.run</text>
</g>
<g>
<title>java/util/concurrent/ThreadPoolExecutor$Worker.run (887,186 samples, 96.68%)</title><rect x="10.0" y="467.0" width="1140.8" height="15" fill="#68f968" rx="2" ry="2"/>
<text x="13.0" y="478.0">java/util/concurrent/ThreadPoolExecutor$Worker.run</text>
</g>
<g>
<title>java/util/concurrent/ThreadPoolExecutor.runWorker (887,186 samples, 96.68%)</title><rect x="10.0" y="451.0" width="1140.8" height="15" fill="#64f564" rx="2" ry="2"/>
<text x="13.0" y="462.0">java/util/concurrent/ThreadPoolExecutor.runWorker</text>
</g>
<g>
<title>java/util/concurrent/ThreadPoolExecutor.getTask (4,185 samples, 0.46%)</title><rect x="10.0" y="435.0" width="5.4" height="15" fill="#5aeb5a" rx="2" ry="2"/>
<text x="13.0" y="446.0"></text>
</g>
<g>
<title>java/util/concurrent/ArrayBlockingQueue.take (4,185 samples, 0.46%)</title><rect x="10.0" y="419.0" width="5.4" height="15" fill="#6bfc6b" rx="2" ry="2"/>
<text x="13.0" y="430.0"></text>
</g>
<g>
<title>java/util/concurrent/locks/AbstractQueuedSynchronizer$ConditionObject.await (1,243 samples, 0.14%)</title><rect x="10.0" y="403.0" width="1.6" height="15" fill="#5ced5c" rx="2" ry="2"/>
<text x="13.0" y="414.0"></text>
</g>
<g>
<title>java/util/concurrent/locks/AbstractQueuedSynchronizer.acquireQueued (1,243 samples, 0.14%)</title><rect x="10.0" y="387.0" width="1.6" height="15" fill="#56e756" rx="2" ry="2"/>
<text x="13.0" y="398.0"></text>
</g>
<g>
<title>java/util/concurrent/locks/AbstractQueuedSynchronizer.parkAndCheckInterrupt (1,243 samples, 0.14%)</title><rect x="10.0" y="371.0" width="1.6" height="15" fill="#53e453" rx="2" ry="2"/>
<text x="13.0" y="382.0"></text>
</g>
<g>
<title>java/util/concurrent/locks/LockSupport.park (1,243 samples, 0.14%)</title><rect x="10.0" y="355.0" width="1.6" height="15" fill="#67f867" rx="2" ry="2"/>
<text x="13.0" y="366.0"></text>
</g>
<g>
<title>jdk/internal/misc/Unsafe.park (1,243 samples, 0.14%)</title><rect x="10.0" y="339.0" width="1.6" height="15" fill="#59ea59" rx="2" ry="2"/>
<text x="13.0" y="350.0"></text>
</g>
<g>
<title>java.util.concurrent.locks.ReentrantLock$NonfairSync (1,243 samples, 0.14%)</title><rect x="10.0" y="323.0" width="1.6" height="15" fill="#60cece" rx="2" ry="2"/>
<text x="13.0" y="334.0"></text>
</g>
<g>
<title>java/util/concurrent/locks/ReentrantLock.lockInterruptibly (2,942 samples, 0.32%)</title><rect x="11.6" y="403.0" width="3.8" height="15" fill="#6dfe6d" rx="2" ry="2"/>
<text x="14.6" y="414.0"></text>
</g>
<g>
<title>java/util/concurrent/locks/AbstractQueuedSynchronizer.acquireInterruptibly (2,942 samples, 0.32%)</title><rect x="11.6" y="387.0" width="3.8" height="15" fill="#5bec5b" rx="2" ry="2"/>
<text x="14.6" y="398.0"></text>
</g>
<g>
<title>java/util/concurrent/locks/AbstractQueuedSynchronizer.doAcquireInterruptibly (2,942 samples, 0.32%)</title><rect x="11.6" y="371.0" width="3.8" height="15" fill="#64f564" rx="2" ry="2"/>
<text x="14.6" y="382.0"></text>
</g>
<g>
<title>java/util/concurrent/locks/AbstractQueuedSynchronizer.parkAndCheckInterrupt (2,942 samples, 0.32%)</title><rect x="11.6" y="355.0" width="3.8" height="15" fill="#5bec5b" rx="2" ry="2"/>
<text x="14.6" y="366.0"></text>
</g>
<g>
<title>java/util/concurrent/locks/LockSupport.park (2,942 samples, 0.32%)</title><rect x="11.6" y="339.0" width="3.8" height="15" fill="#5bec5b" rx="2" ry="2"/>
<text x="14.6" y="350.0"></text>
</g>
<g>
<title>jdk/internal/misc/Unsafe.park (2,942 samples, 0.32%)</title><rect x="11.6" y="323.0" width="3.8" height="15" fill="#6bfc6b" rx="2" ry="2"/>
<text x="14.6" y="334.0"></text>
</g>
<g>
<title>java.util.concurrent.locks.ReentrantLock$NonfairSync (2,942 samples, 0.32%)</title><rect x="11.6" y="307.0" width="3.8" height="15" fill="#65d3d3" rx="2" ry="2"/>
<text x="14.6" y="318.0"></text>
</g>
<g>
<title>ru/mail/polis/service/boriskin/NewService$$Lambda$65/1589279360.run (883,001 samples, 96.22%)</title><rect x="15.4" y="435.0" width="1135.4" height="15" fill="#69fa69" rx="2" ry="2"/>
<text x="18.4" y="446.0">ru/mail/polis/service/boriskin/NewService$$Lambda$65/1589279360.run</text>
</g>
<g>
<title>ru/mail/polis/service/boriskin/NewService.lambda$runExecutorService$1 (883,001 samples, 96.22%)</title><rect x="15.4" y="419.0" width="1135.4" height="15" fill="#59ea59" rx="2" ry="2"/>
<text x="18.4" y="430.0">ru/mail/polis/service/boriskin/NewService.lambda$runExecutorService$1</text>
</g>
<g>
<title>ru/mail/polis/service/boriskin/NewService.operation (882,360 samples, 96.15%)</title><rect x="15.4" y="403.0" width="1134.6" height="15" fill="#6afb6a" rx="2" ry="2"/>
<text x="18.4" y="414.0">ru/mail/polis/service/boriskin/NewService.operation</text>
</g>
<g>
<title>ru/mail/polis/service/boriskin/NewService.doGet (881,598 samples, 96.07%)</title><rect x="15.4" y="387.0" width="1133.6" height="15" fill="#5ff05f" rx="2" ry="2"/>
<text x="18.4" y="398.0">ru/mail/polis/service/boriskin/NewService.doGet</text>
</g>
<g>
<title>ru/mail/polis/dao/DAO.get (881,563 samples, 96.07%)</title><rect x="15.4" y="371.0" width="1133.6" height="15" fill="#5ff05f" rx="2" ry="2"/>
<text x="18.4" y="382.0">ru/mail/polis/dao/DAO.get</text>
</g>
<g>
<title>com/google/common/collect/TransformedIterator.hasNext (62,842 samples, 6.85%)</title><rect x="15.4" y="355.0" width="80.8" height="15" fill="#59ea59" rx="2" ry="2"/>
<text x="18.4" y="366.0">com/googl..</text>
</g>
<g>
<title>com/google/common/collect/AbstractIterator.hasNext (62,842 samples, 6.85%)</title><rect x="15.4" y="339.0" width="80.8" height="15" fill="#59ea59" rx="2" ry="2"/>
<text x="18.4" y="350.0">com/googl..</text>
</g>
<g>
<title>com/google/common/collect/AbstractIterator.tryToComputeNext (62,842 samples, 6.85%)</title><rect x="15.4" y="323.0" width="80.8" height="15" fill="#6dfe6d" rx="2" ry="2"/>
<text x="18.4" y="334.0">com/googl..</text>
</g>
<g>
<title>com/google/common/collect/Iterators$5.computeNext (62,842 samples, 6.85%)</title><rect x="15.4" y="307.0" width="80.8" height="15" fill="#69fa69" rx="2" ry="2"/>
<text x="18.4" y="318.0">com/googl..</text>
</g>
<g>
<title>ru/mail/polis/dao/Iters$CollapseEqualsIterator.next (62,842 samples, 6.85%)</title><rect x="15.4" y="291.0" width="80.8" height="15" fill="#5ced5c" rx="2" ry="2"/>
<text x="18.4" y="302.0">ru/mail/p..</text>
</g>
<g>
<title>com/google/common/collect/Iterators$MergingIterator.next (62,842 samples, 6.85%)</title><rect x="15.4" y="275.0" width="80.8" height="15" fill="#6dfe6d" rx="2" ry="2"/>
<text x="18.4" y="286.0">com/googl..</text>
</g>
<g>
<title>java/util/PriorityQueue.add (62,842 samples, 6.85%)</title><rect x="15.4" y="259.0" width="80.8" height="15" fill="#53e453" rx="2" ry="2"/>
<text x="18.4" y="270.0">java/util..</text>
</g>
<g>
<title>java/util/PriorityQueue.offer (62,842 samples, 6.85%)</title><rect x="15.4" y="243.0" width="80.8" height="15" fill="#56e756" rx="2" ry="2"/>
<text x="18.4" y="254.0">java/util..</text>
</g>
<g>
<title>java/util/PriorityQueue.siftUp (62,842 samples, 6.85%)</title><rect x="15.4" y="227.0" width="80.8" height="15" fill="#5ff05f" rx="2" ry="2"/>
<text x="18.4" y="238.0">java/util..</text>
</g>
<g>
<title>java/util/PriorityQueue.siftUpUsingComparator (62,842 samples, 6.85%)</title><rect x="15.4" y="211.0" width="80.8" height="15" fill="#6bfc6b" rx="2" ry="2"/>
<text x="18.4" y="222.0">java/util..</text>
</g>
<g>
<title>com/google/common/collect/Iterators$MergingIterator$1.compare (62,842 samples, 6.85%)</title><rect x="15.4" y="195.0" width="80.8" height="15" fill="#6afb6a" rx="2" ry="2"/>
<text x="18.4" y="206.0">com/googl..</text>
</g>
<g>
<title>com/google/common/collect/Iterators$MergingIterator$1.compare (62,842 samples, 6.85%)</title><rect x="15.4" y="179.0" width="80.8" height="15" fill="#69fa69" rx="2" ry="2"/>
<text x="18.4" y="190.0">com/googl..</text>
</g>
<g>
<title>com/google/common/collect/Iterators$PeekingImpl.peek (62,842 samples, 6.85%)</title><rect x="15.4" y="163.0" width="80.8" height="15" fill="#69fa69" rx="2" ry="2"/>
<text x="18.4" y="174.0">com/googl..</text>
</g>
<g>
<title>ru/mail/polis/dao/boriskin/SortedStringTable$1.next (62,842 samples, 6.85%)</title><rect x="15.4" y="147.0" width="80.8" height="15" fill="#59ea59" rx="2" ry="2"/>
<text x="18.4" y="158.0">ru/mail/p..</text>
</g>
<g>
<title>ru/mail/polis/dao/boriskin/SortedStringTable$1.next (62,842 samples, 6.85%)</title><rect x="15.4" y="131.0" width="80.8" height="15" fill="#52e352" rx="2" ry="2"/>
<text x="18.4" y="142.0">ru/mail/p..</text>
</g>
<g>
<title>ru/mail/polis/dao/boriskin/SortedStringTable.findCell (62,842 samples, 6.85%)</title><rect x="15.4" y="115.0" width="80.8" height="15" fill="#6cfd6c" rx="2" ry="2"/>
<text x="18.4" y="126.0">ru/mail/p..</text>
</g>
<g>
<title>ru/mail/polis/dao/boriskin/SortedStringTable.findOffset (25,926 samples, 2.83%)</title><rect x="15.4" y="99.0" width="33.4" height="15" fill="#53e453" rx="2" ry="2"/>
<text x="18.4" y="110.0">ru..</text>
</g>
<g>
<title>sun/nio/ch/FileChannelImpl.read (25,926 samples, 2.83%)</title><rect x="15.4" y="83.0" width="33.4" height="15" fill="#5bec5b" rx="2" ry="2"/>
<text x="18.4" y="94.0">su..</text>
</g>
<g>
<title>sun/nio/ch/FileChannelImpl.readInternal (25,926 samples, 2.83%)</title><rect x="15.4" y="67.0" width="33.4" height="15" fill="#5ff05f" rx="2" ry="2"/>
<text x="18.4" y="78.0">su..</text>
</g>
<g>
<title>sun/nio/ch/NativeThreadSet.add (8,492 samples, 0.93%)</title><rect x="15.4" y="51.0" width="10.9" height="15" fill="#53e453" rx="2" ry="2"/>
<text x="18.4" y="62.0"></text>
</g>
<g>
<title>sun.nio.ch.NativeThreadSet (8,492 samples, 0.93%)</title><rect x="15.4" y="35.0" width="10.9" height="15" fill="#67d5d5" rx="2" ry="2"/>
<text x="18.4" y="46.0"></text>
</g>
<g>
<title>sun/nio/ch/NativeThreadSet.remove (17,434 samples, 1.90%)</title><rect x="26.3" y="51.0" width="22.5" height="15" fill="#55e655" rx="2" ry="2"/>
<text x="29.3" y="62.0">s..</text>
</g>
<g>
<title>sun.nio.ch.NativeThreadSet (17,434 samples, 1.90%)</title><rect x="26.3" y="35.0" width="22.5" height="15" fill="#5ecccc" rx="2" ry="2"/>
<text x="29.3" y="46.0">s..</text>
</g>
<g>
<title>sun/nio/ch/FileChannelImpl.read (36,916 samples, 4.02%)</title><rect x="48.8" y="99.0" width="47.4" height="15" fill="#55e655" rx="2" ry="2"/>
<text x="51.8" y="110.0">sun/..</text>
</g>
<g>
<title>sun/nio/ch/FileChannelImpl.readInternal (36,916 samples, 4.02%)</title><rect x="48.8" y="83.0" width="47.4" height="15" fill="#53e453" rx="2" ry="2"/>
<text x="51.8" y="94.0">sun/..</text>
</g>
<g>
<title>sun/nio/ch/NativeThreadSet.add (3,920 samples, 0.43%)</title><rect x="48.8" y="67.0" width="5.0" height="15" fill="#55e655" rx="2" ry="2"/>
<text x="51.8" y="78.0"></text>
</g>
<g>
<title>sun.nio.ch.NativeThreadSet (3,920 samples, 0.43%)</title><rect x="48.8" y="51.0" width="5.0" height="15" fill="#50bebe" rx="2" ry="2"/>
<text x="51.8" y="62.0"></text>
</g>
<g>
<title>sun/nio/ch/NativeThreadSet.remove (32,996 samples, 3.60%)</title><rect x="53.8" y="67.0" width="42.4" height="15" fill="#5dee5d" rx="2" ry="2"/>
<text x="56.8" y="78.0">sun/..</text>
</g>
<g>
<title>sun.nio.ch.NativeThreadSet (32,996 samples, 3.60%)</title><rect x="53.8" y="51.0" width="42.4" height="15" fill="#52c0c0" rx="2" ry="2"/>
<text x="56.8" y="62.0">sun...</text>
</g>
<g>
<title>ru/mail/polis/dao/boriskin/NewDAO.iterator (818,721 samples, 89.22%)</title><rect x="96.2" y="355.0" width="1052.8" height="15" fill="#60f160" rx="2" ry="2"/>
<text x="99.2" y="366.0">ru/mail/polis/dao/boriskin/NewDAO.iterator</text>
</g>
<g>
<title>ru/mail/polis/dao/boriskin/NewDAO.iterateThroughTableCells (818,721 samples, 89.22%)</title><rect x="96.2" y="339.0" width="1052.8" height="15" fill="#6cfd6c" rx="2" ry="2"/>
<text x="99.2" y="350.0">ru/mail/polis/dao/boriskin/NewDAO.iterateThroughTableCells</text>
</g>
<g>
<title>ru/mail/polis/dao/boriskin/NewDAO.returnIteratorOverMergedCollapsedFiltered (818,719 samples, 89.22%)</title><rect x="96.2" y="323.0" width="1052.8" height="15" fill="#5bec5b" rx="2" ry="2"/>
<text x="99.2" y="334.0">ru/mail/polis/dao/boriskin/NewDAO.returnIteratorOverMergedCollapsedFiltered</text>
</g>
<g>
<title>com/google/common/collect/Iterators.mergeSorted (141,361 samples, 15.40%)</title><rect x="96.2" y="307.0" width="181.8" height="15" fill="#69fa69" rx="2" ry="2"/>
<text x="99.2" y="318.0">com/google/common/colle..</text>
</g>
<g>
<title>com/google/common/collect/Iterators$MergingIterator.&lt;init&gt; (141,361 samples, 15.40%)</title><rect x="96.2" y="291.0" width="181.8" height="15" fill="#6cfd6c" rx="2" ry="2"/>
<text x="99.2" y="302.0">com/google/common/colle..</text>
</g>
<g>
<title>java/util/PriorityQueue.add (141,361 samples, 15.40%)</title><rect x="96.2" y="275.0" width="181.8" height="15" fill="#56e756" rx="2" ry="2"/>
<text x="99.2" y="286.0">java/util/PriorityQueue..</text>
</g>
<g>
<title>java/util/PriorityQueue.offer (141,361 samples, 15.40%)</title><rect x="96.2" y="259.0" width="181.8" height="15" fill="#57e857" rx="2" ry="2"/>
<text x="99.2" y="270.0">java/util/PriorityQueue..</text>
</g>
<g>
<title>java/util/PriorityQueue.siftUp (141,361 samples, 15.40%)</title><rect x="96.2" y="243.0" width="181.8" height="15" fill="#6bfc6b" rx="2" ry="2"/>
<text x="99.2" y="254.0">java/util/PriorityQueue..</text>
</g>
<g>
<title>java/util/PriorityQueue.siftUpUsingComparator (141,361 samples, 15.40%)</title><rect x="96.2" y="227.0" width="181.8" height="15" fill="#5aeb5a" rx="2" ry="2"/>
<text x="99.2" y="238.0">java/util/PriorityQueue..</text>
</g>
<g>
<title>com/google/common/collect/Iterators$MergingIterator$1.compare (141,361 samples, 15.40%)</title><rect x="96.2" y="211.0" width="181.8" height="15" fill="#5eef5e" rx="2" ry="2"/>
<text x="99.2" y="222.0">com/google/common/colle..</text>
</g>
<g>
<title>com/google/common/collect/Iterators$MergingIterator$1.compare (141,361 samples, 15.40%)</title><rect x="96.2" y="195.0" width="181.8" height="15" fill="#5dee5d" rx="2" ry="2"/>
<text x="99.2" y="206.0">com/google/common/colle..</text>
</g>
<g>
<title>com/google/common/collect/Iterators$PeekingImpl.peek (141,361 samples, 15.40%)</title><rect x="96.2" y="179.0" width="181.8" height="15" fill="#57e857" rx="2" ry="2"/>
<text x="99.2" y="190.0">com/google/common/colle..</text>
</g>
<g>
<title>ru/mail/polis/dao/boriskin/SortedStringTable$1.next (141,361 samples, 15.40%)</title><rect x="96.2" y="163.0" width="181.8" height="15" fill="#5bec5b" rx="2" ry="2"/>
<text x="99.2" y="174.0">ru/mail/polis/dao/boris..</text>
</g>
<g>
<title>ru/mail/polis/dao/boriskin/SortedStringTable$1.next (141,361 samples, 15.40%)</title><rect x="96.2" y="147.0" width="181.8" height="15" fill="#59ea59" rx="2" ry="2"/>
<text x="99.2" y="158.0">ru/mail/polis/dao/boris..</text>
</g>
<g>
<title>ru/mail/polis/dao/boriskin/SortedStringTable.findCell (141,361 samples, 15.40%)</title><rect x="96.2" y="131.0" width="181.8" height="15" fill="#52e352" rx="2" ry="2"/>
<text x="99.2" y="142.0">ru/mail/polis/dao/boris..</text>
</g>
<g>
<title>ru/mail/polis/dao/boriskin/SortedStringTable.findOffset (56,074 samples, 6.11%)</title><rect x="96.2" y="115.0" width="72.1" height="15" fill="#64f564" rx="2" ry="2"/>
<text x="99.2" y="126.0">ru/mail/..</text>
</g>
<g>
<title>sun/nio/ch/FileChannelImpl.read (56,074 samples, 6.11%)</title><rect x="96.2" y="99.0" width="72.1" height="15" fill="#5bec5b" rx="2" ry="2"/>
<text x="99.2" y="110.0">sun/nio/..</text>
</g>
<g>
<title>sun/nio/ch/FileChannelImpl.readInternal (56,074 samples, 6.11%)</title><rect x="96.2" y="83.0" width="72.1" height="15" fill="#51e251" rx="2" ry="2"/>
<text x="99.2" y="94.0">sun/nio/..</text>
</g>
<g>
<title>sun/nio/ch/NativeThreadSet.add (34,064 samples, 3.71%)</title><rect x="96.2" y="67.0" width="43.8" height="15" fill="#67f867" rx="2" ry="2"/>
<text x="99.2" y="78.0">sun/..</text>
</g>
<g>
<title>sun.nio.ch.NativeThreadSet (34,064 samples, 3.71%)</title><rect x="96.2" y="51.0" width="43.8" height="15" fill="#67d5d5" rx="2" ry="2"/>
<text x="99.2" y="62.0">sun...</text>
</g>
<g>
<title>sun/nio/ch/NativeThreadSet.remove (22,010 samples, 2.40%)</title><rect x="140.0" y="67.0" width="28.3" height="15" fill="#60f160" rx="2" ry="2"/>
<text x="143.0" y="78.0">su..</text>
</g>
<g>
<title>sun.nio.ch.NativeThreadSet (22,010 samples, 2.40%)</title><rect x="140.0" y="51.0" width="28.3" height="15" fill="#6ad8d8" rx="2" ry="2"/>
<text x="143.0" y="62.0">su..</text>
</g>
<g>
<title>sun/nio/ch/FileChannelImpl.read (85,287 samples, 9.29%)</title><rect x="168.3" y="115.0" width="109.7" height="15" fill="#60f160" rx="2" ry="2"/>
<text x="171.3" y="126.0">sun/nio/ch/Fi..</text>
</g>
<g>
<title>sun/nio/ch/FileChannelImpl.readInternal (85,287 samples, 9.29%)</title><rect x="168.3" y="99.0" width="109.7" height="15" fill="#66f766" rx="2" ry="2"/>
<text x="171.3" y="110.0">sun/nio/ch/Fi..</text>
</g>
<g>
<title>sun/nio/ch/NativeThreadSet.add (9,937 samples, 1.08%)</title><rect x="168.3" y="83.0" width="12.8" height="15" fill="#5aeb5a" rx="2" ry="2"/>
<text x="171.3" y="94.0"></text>
</g>
<g>
<title>sun.nio.ch.NativeThreadSet (9,937 samples, 1.08%)</title><rect x="168.3" y="67.0" width="12.8" height="15" fill="#66d4d4" rx="2" ry="2"/>
<text x="171.3" y="78.0"></text>
</g>
<g>
<title>sun/nio/ch/NativeThreadSet.remove (75,350 samples, 8.21%)</title><rect x="181.1" y="83.0" width="96.9" height="15" fill="#6afb6a" rx="2" ry="2"/>
<text x="184.1" y="94.0">sun/nio/ch/..</text>
</g>
<g>
<title>sun.nio.ch.NativeThreadSet (75,350 samples, 8.21%)</title><rect x="181.1" y="67.0" width="96.9" height="15" fill="#60cece" rx="2" ry="2"/>
<text x="184.1" y="78.0">sun.nio.ch...</text>
</g>
<g>
<title>ru/mail/polis/dao/Iters.collapseEquals (619 samples, 0.07%)</title><rect x="278.0" y="307.0" width="0.8" height="15" fill="#66f766" rx="2" ry="2"/>
<text x="281.0" y="318.0"></text>
</g>
<g>
<title>ru/mail/polis/dao/Iters$CollapseEqualsIterator.&lt;init&gt; (619 samples, 0.07%)</title><rect x="278.0" y="291.0" width="0.8" height="15" fill="#59ea59" rx="2" ry="2"/>
<text x="281.0" y="302.0"></text>
</g>
<g>
<title>com/google/common/collect/Iterators$MergingIterator.next (619 samples, 0.07%)</title><rect x="278.0" y="275.0" width="0.8" height="15" fill="#62f362" rx="2" ry="2"/>
<text x="281.0" y="286.0"></text>
</g>
<g>
<title>java/util/PriorityQueue.add (619 samples, 0.07%)</title><rect x="278.0" y="259.0" width="0.8" height="15" fill="#59ea59" rx="2" ry="2"/>
<text x="281.0" y="270.0"></text>
</g>
<g>
<title>java/util/PriorityQueue.offer (619 samples, 0.07%)</title><rect x="278.0" y="243.0" width="0.8" height="15" fill="#57e857" rx="2" ry="2"/>
<text x="281.0" y="254.0"></text>
</g>
<g>
<title>java/util/PriorityQueue.siftUp (619 samples, 0.07%)</title><rect x="278.0" y="227.0" width="0.8" height="15" fill="#50e150" rx="2" ry="2"/>
<text x="281.0" y="238.0"></text>
</g>
<g>
<title>java/util/PriorityQueue.siftUpUsingComparator (619 samples, 0.07%)</title><rect x="278.0" y="211.0" width="0.8" height="15" fill="#54e554" rx="2" ry="2"/>
<text x="281.0" y="222.0"></text>
</g>
<g>
<title>com/google/common/collect/Iterators$MergingIterator$1.compare (619 samples, 0.07%)</title><rect x="278.0" y="195.0" width="0.8" height="15" fill="#55e655" rx="2" ry="2"/>
<text x="281.0" y="206.0"></text>
</g>
<g>
<title>com/google/common/collect/Iterators$MergingIterator$1.compare (619 samples, 0.07%)</title><rect x="278.0" y="179.0" width="0.8" height="15" fill="#57e857" rx="2" ry="2"/>
<text x="281.0" y="190.0"></text>
</g>
<g>
<title>com/google/common/collect/Iterators$PeekingImpl.peek (619 samples, 0.07%)</title><rect x="278.0" y="163.0" width="0.8" height="15" fill="#5ced5c" rx="2" ry="2"/>
<text x="281.0" y="174.0"></text>
</g>
<g>
<title>ru/mail/polis/dao/boriskin/SortedStringTable$1.next (619 samples, 0.07%)</title><rect x="278.0" y="147.0" width="0.8" height="15" fill="#53e453" rx="2" ry="2"/>
<text x="281.0" y="158.0"></text>
</g>
<g>
<title>ru/mail/polis/dao/boriskin/SortedStringTable$1.next (619 samples, 0.07%)</title><rect x="278.0" y="131.0" width="0.8" height="15" fill="#61f261" rx="2" ry="2"/>
<text x="281.0" y="142.0"></text>
</g>
<g>
<title>ru/mail/polis/dao/boriskin/SortedStringTable.findCell (619 samples, 0.07%)</title><rect x="278.0" y="115.0" width="0.8" height="15" fill="#6bfc6b" rx="2" ry="2"/>
<text x="281.0" y="126.0"></text>
</g>
<g>
<title>ru/mail/polis/dao/boriskin/SortedStringTable.findOffset (249 samples, 0.03%)</title><rect x="278.0" y="99.0" width="0.3" height="15" fill="#61f261" rx="2" ry="2"/>
<text x="281.0" y="110.0"></text>
</g>
<g>
<title>sun/nio/ch/FileChannelImpl.read (249 samples, 0.03%)</title><rect x="278.0" y="83.0" width="0.3" height="15" fill="#69fa69" rx="2" ry="2"/>
<text x="281.0" y="94.0"></text>
</g>
<g>
<title>sun/nio/ch/FileChannelImpl.readInternal (249 samples, 0.03%)</title><rect x="278.0" y="67.0" width="0.3" height="15" fill="#58e958" rx="2" ry="2"/>
<text x="281.0" y="78.0"></text>
</g>
<g>
<title>sun/nio/ch/FileChannelImpl.read (370 samples, 0.04%)</title><rect x="278.3" y="99.0" width="0.5" height="15" fill="#6afb6a" rx="2" ry="2"/>
<text x="281.3" y="110.0"></text>
</g>
<g>
<title>sun/nio/ch/FileChannelImpl.readInternal (370 samples, 0.04%)</title><rect x="278.3" y="83.0" width="0.5" height="15" fill="#6cfd6c" rx="2" ry="2"/>
<text x="281.3" y="94.0"></text>
</g>
<g>
<title>sun/nio/ch/NativeThreadSet.remove (322 samples, 0.04%)</title><rect x="278.4" y="67.0" width="0.4" height="15" fill="#6dfe6d" rx="2" ry="2"/>
<text x="281.4" y="78.0"></text>
</g>
<g>
<title>sun.nio.ch.NativeThreadSet (322 samples, 0.04%)</title><rect x="278.4" y="51.0" width="0.4" height="15" fill="#58c6c6" rx="2" ry="2"/>
<text x="281.4" y="62.0"></text>
</g>
<g>
<title>ru/mail/polis/dao/boriskin/SortedStringTable.iterator (676,739 samples, 73.75%)</title><rect x="278.8" y="307.0" width="870.2" height="15" fill="#6dfe6d" rx="2" ry="2"/>
<text x="281.8" y="318.0">ru/mail/polis/dao/boriskin/SortedStringTable.iterator</text>
</g>
<g>
<title>ru/mail/polis/dao/boriskin/SortedStringTable$1.&lt;init&gt; (676,739 samples, 73.75%)</title><rect x="278.8" y="291.0" width="870.2" height="15" fill="#67f867" rx="2" ry="2"/>
<text x="281.8" y="302.0">ru/mail/polis/dao/boriskin/SortedStringTable$1.&lt;init&gt;</text>
</g>
<g>
<title>ru/mail/polis/dao/boriskin/SortedStringTable.findNext (676,739 samples, 73.75%)</title><rect x="278.8" y="275.0" width="870.2" height="15" fill="#51e251" rx="2" ry="2"/>
<text x="281.8" y="286.0">ru/mail/polis/dao/boriskin/SortedStringTable.findNext</text>
</g>
<g>
<title>ru/mail/polis/dao/boriskin/SortedStringTable.findK (676,739 samples, 73.75%)</title><rect x="278.8" y="259.0" width="870.2" height="15" fill="#5ff05f" rx="2" ry="2"/>
<text x="281.8" y="270.0">ru/mail/polis/dao/boriskin/SortedStringTable.findK</text>
</g>
<g>
<title>ru/mail/polis/dao/boriskin/SortedStringTable.findOffset (258,719 samples, 28.19%)</title><rect x="278.8" y="243.0" width="332.7" height="15" fill="#63f463" rx="2" ry="2"/>
<text x="281.8" y="254.0">ru/mail/polis/dao/boriskin/SortedStringTable...</text>
</g>
<g>
<title>sun/nio/ch/FileChannelImpl.read (258,719 samples, 28.19%)</title><rect x="278.8" y="227.0" width="332.7" height="15" fill="#62f362" rx="2" ry="2"/>
<text x="281.8" y="238.0">sun/nio/ch/FileChannelImpl.read</text>
</g>
<g>
<title>sun/nio/ch/FileChannelImpl.readInternal (258,719 samples, 28.19%)</title><rect x="278.8" y="211.0" width="332.7" height="15" fill="#58e958" rx="2" ry="2"/>
<text x="281.8" y="222.0">sun/nio/ch/FileChannelImpl.readInternal</text>
</g>
<g>
<title>sun/nio/ch/NativeThreadSet.add (78,702 samples, 8.58%)</title><rect x="278.8" y="195.0" width="101.2" height="15" fill="#50e150" rx="2" ry="2"/>
<text x="281.8" y="206.0">sun/nio/ch/N..</text>
</g>
<g>
<title>sun.nio.ch.NativeThreadSet (78,702 samples, 8.58%)</title><rect x="278.8" y="179.0" width="101.2" height="15" fill="#5ac8c8" rx="2" ry="2"/>
<text x="281.8" y="190.0">sun.nio.ch.N..</text>
</g>
<g>
<title>sun/nio/ch/NativeThreadSet.remove (180,017 samples, 19.62%)</title><rect x="380.0" y="195.0" width="231.5" height="15" fill="#54e554" rx="2" ry="2"/>
<text x="383.0" y="206.0">sun/nio/ch/NativeThreadSet.remove</text>
</g>
<g>
<title>sun.nio.ch.NativeThreadSet (180,017 samples, 19.62%)</title><rect x="380.0" y="179.0" width="231.5" height="15" fill="#61cfcf" rx="2" ry="2"/>
<text x="383.0" y="190.0">sun.nio.ch.NativeThreadSet</text>
</g>
<g>
<title>sun/nio/ch/FileChannelImpl.read (418,020 samples, 45.55%)</title><rect x="611.5" y="243.0" width="537.5" height="15" fill="#53e453" rx="2" ry="2"/>
<text x="614.5" y="254.0">sun/nio/ch/FileChannelImpl.read</text>
</g>
<g>
<title>sun/nio/ch/FileChannelImpl.readInternal (418,020 samples, 45.55%)</title><rect x="611.5" y="227.0" width="537.5" height="15" fill="#5dee5d" rx="2" ry="2"/>
<text x="614.5" y="238.0">sun/nio/ch/FileChannelImpl.readInternal</text>
</g>
<g>
<title>sun/nio/ch/NativeThreadSet.add (42,562 samples, 4.64%)</title><rect x="611.5" y="211.0" width="54.7" height="15" fill="#55e655" rx="2" ry="2"/>
<text x="614.5" y="222.0">sun/n..</text>
</g>
<g>
<title>sun.nio.ch.NativeThreadSet (42,562 samples, 4.64%)</title><rect x="611.5" y="195.0" width="54.7" height="15" fill="#5ccaca" rx="2" ry="2"/>
<text x="614.5" y="206.0">sun.n..</text>
</g>
<g>
<title>sun/nio/ch/NativeThreadSet.remove (375,458 samples, 40.91%)</title><rect x="666.2" y="211.0" width="482.8" height="15" fill="#65f665" rx="2" ry="2"/>
<text x="669.2" y="222.0">sun/nio/ch/NativeThreadSet.remove</text>
</g>
<g>
<title>sun.nio.ch.NativeThreadSet (375,458 samples, 40.91%)</title><rect x="666.2" y="195.0" width="482.8" height="15" fill="#55c3c3" rx="2" ry="2"/>
<text x="669.2" y="206.0">sun.nio.ch.NativeThreadSet</text>
</g>
<g>
<title>ru/mail/polis/service/boriskin/NewService.doUpsert (762 samples, 0.08%)</title><rect x="1149.0" y="387.0" width="1.0" height="15" fill="#61f261" rx="2" ry="2"/>
<text x="1152.0" y="398.0"></text>
</g>
<g>
<title>ru/mail/polis/service/boriskin/NewService.resp (760 samples, 0.08%)</title><rect x="1149.0" y="371.0" width="1.0" height="15" fill="#6afb6a" rx="2" ry="2"/>
<text x="1152.0" y="382.0"></text>
</g>
<g>
<title>one/nio/http/HttpSession.sendResponse (760 samples, 0.08%)</title><rect x="1149.0" y="355.0" width="1.0" height="15" fill="#5ced5c" rx="2" ry="2"/>
<text x="1152.0" y="366.0"></text>
</g>
<g>
<title>one.nio.http.HttpSession (760 samples, 0.08%)</title><rect x="1149.0" y="339.0" width="1.0" height="15" fill="#50bebe" rx="2" ry="2"/>
<text x="1152.0" y="350.0"></text>
</g>
<g>
<title>ru/mail/polis/service/boriskin/NewService.proxy (641 samples, 0.07%)</title><rect x="1150.0" y="403.0" width="0.8" height="15" fill="#50e150" rx="2" ry="2"/>
<text x="1153.0" y="414.0"></text>
</g>
<g>
<title>one/nio/http/HttpClient.invoke (641 samples, 0.07%)</title><rect x="1150.0" y="387.0" width="0.8" height="15" fill="#50e150" rx="2" ry="2"/>
<text x="1153.0" y="398.0"></text>
</g>
<g>
<title>one/nio/http/HttpClient.invoke (641 samples, 0.07%)</title><rect x="1150.0" y="371.0" width="0.8" height="15" fill="#6bfc6b" rx="2" ry="2"/>
<text x="1153.0" y="382.0"></text>
</g>
<g>
<title>one/nio/pool/Pool.borrowObject (347 samples, 0.04%)</title><rect x="1150.0" y="355.0" width="0.4" height="15" fill="#61f261" rx="2" ry="2"/>
<text x="1153.0" y="366.0"></text>
</g>
<g>
<title>one.nio.http.HttpClient (347 samples, 0.04%)</title><rect x="1150.0" y="339.0" width="0.4" height="15" fill="#69d7d7" rx="2" ry="2"/>
<text x="1153.0" y="350.0"></text>
</g>
<g>
<title>one/nio/pool/Pool.returnObject (294 samples, 0.03%)</title><rect x="1150.4" y="355.0" width="0.4" height="15" fill="#56e756" rx="2" ry="2"/>
<text x="1153.4" y="366.0"></text>
</g>
<g>
<title>one.nio.http.HttpClient (294 samples, 0.03%)</title><rect x="1150.4" y="339.0" width="0.4" height="15" fill="#5dcbcb" rx="2" ry="2"/>
<text x="1153.4" y="350.0"></text>
</g>
<g>
<title>one/nio/server/SelectorThread.run (30,483 samples, 3.32%)</title><rect x="1150.8" y="483.0" width="39.2" height="15" fill="#67f867" rx="2" ry="2"/>
<text x="1153.8" y="494.0">one..</text>
</g>
<g>
<title>one/nio/net/Session.process (30,483 samples, 3.32%)</title><rect x="1150.8" y="467.0" width="39.2" height="15" fill="#55e655" rx="2" ry="2"/>
<text x="1153.8" y="478.0">one..</text>
</g>
<g>
<title>one.nio.http.HttpSession (27,058 samples, 2.95%)</title><rect x="1150.8" y="451.0" width="34.8" height="15" fill="#65d3d3" rx="2" ry="2"/>
<text x="1153.8" y="462.0">on..</text>
</g>
<g>
<title>one/nio/http/HttpSession.processRead (3,425 samples, 0.37%)</title><rect x="1185.6" y="451.0" width="4.4" height="15" fill="#66f766" rx="2" ry="2"/>
<text x="1188.6" y="462.0"></text>
</g>
<g>
<title>one/nio/http/HttpSession.processHttpBuffer (3,425 samples, 0.37%)</title><rect x="1185.6" y="435.0" width="4.4" height="15" fill="#6dfe6d" rx="2" ry="2"/>
<text x="1188.6" y="446.0"></text>
</g>
<g>
<title>one/nio/http/HttpSession.handleParsedRequest (3,425 samples, 0.37%)</title><rect x="1185.6" y="419.0" width="4.4" height="15" fill="#67f867" rx="2" ry="2"/>
<text x="1188.6" y="430.0"></text>
</g>
<g>
<title>one/nio/http/HttpServer.handleRequest (3,425 samples, 0.37%)</title><rect x="1185.6" y="403.0" width="4.4" height="15" fill="#58e958" rx="2" ry="2"/>
<text x="1188.6" y="414.0"></text>
</g>
<g>
<title>RequestHandler0_get.handleRequest (1,507 samples, 0.16%)</title><rect x="1185.6" y="387.0" width="1.9" height="15" fill="#62f362" rx="2" ry="2"/>
<text x="1188.6" y="398.0"></text>
</g>
<g>
<title>ru/mail/polis/service/boriskin/NewService.get (1,507 samples, 0.16%)</title><rect x="1185.6" y="371.0" width="1.9" height="15" fill="#5ced5c" rx="2" ry="2"/>
<text x="1188.6" y="382.0"></text>
</g>
<g>
<title>ru/mail/polis/service/boriskin/NewService.runExecutorService (1,507 samples, 0.16%)</title><rect x="1185.6" y="355.0" width="1.9" height="15" fill="#60f160" rx="2" ry="2"/>
<text x="1188.6" y="366.0"></text>
</g>
<g>
<title>java/util/concurrent/ThreadPoolExecutor.execute (1,507 samples, 0.16%)</title><rect x="1185.6" y="339.0" width="1.9" height="15" fill="#63f463" rx="2" ry="2"/>
<text x="1188.6" y="350.0"></text>
</g>
<g>
<title>java/util/concurrent/ArrayBlockingQueue.offer (1,507 samples, 0.16%)</title><rect x="1185.6" y="323.0" width="1.9" height="15" fill="#67f867" rx="2" ry="2"/>
<text x="1188.6" y="334.0"></text>
</g>
<g>
<title>java/util/concurrent/locks/ReentrantLock.lock (1,507 samples, 0.16%)</title><rect x="1185.6" y="307.0" width="1.9" height="15" fill="#65f665" rx="2" ry="2"/>
<text x="1188.6" y="318.0"></text>
</g>
<g>
<title>java/util/concurrent/locks/AbstractQueuedSynchronizer.acquire (1,507 samples, 0.16%)</title><rect x="1185.6" y="291.0" width="1.9" height="15" fill="#56e756" rx="2" ry="2"/>
<text x="1188.6" y="302.0"></text>
</g>
<g>
<title>java/util/concurrent/locks/AbstractQueuedSynchronizer.acquireQueued (1,507 samples, 0.16%)</title><rect x="1185.6" y="275.0" width="1.9" height="15" fill="#6bfc6b" rx="2" ry="2"/>
<text x="1188.6" y="286.0"></text>
</g>
<g>
<title>java/util/concurrent/locks/AbstractQueuedSynchronizer.parkAndCheckInterrupt (1,507 samples, 0.16%)</title><rect x="1185.6" y="259.0" width="1.9" height="15" fill="#55e655" rx="2" ry="2"/>
<text x="1188.6" y="270.0"></text>
</g>
<g>
<title>java/util/concurrent/locks/LockSupport.park (1,507 samples, 0.16%)</title><rect x="1185.6" y="243.0" width="1.9" height="15" fill="#5ced5c" rx="2" ry="2"/>
<text x="1188.6" y="254.0"></text>
</g>
<g>
<title>jdk/internal/misc/Unsafe.park (1,507 samples, 0.16%)</title><rect x="1185.6" y="227.0" width="1.9" height="15" fill="#5aeb5a" rx="2" ry="2"/>
<text x="1188.6" y="238.0"></text>
</g>
<g>
<title>java.util.concurrent.locks.ReentrantLock$NonfairSync (1,507 samples, 0.16%)</title><rect x="1185.6" y="211.0" width="1.9" height="15" fill="#6ad8d8" rx="2" ry="2"/>
<text x="1188.6" y="222.0"></text>
</g>
<g>
<title>RequestHandler1_put.handleRequest (1,918 samples, 0.21%)</title><rect x="1187.5" y="387.0" width="2.5" height="15" fill="#62f362" rx="2" ry="2"/>
<text x="1190.5" y="398.0"></text>
</g>
<g>
<title>ru/mail/polis/service/boriskin/NewService.put (1,918 samples, 0.21%)</title><rect x="1187.5" y="371.0" width="2.5" height="15" fill="#6cfd6c" rx="2" ry="2"/>
<text x="1190.5" y="382.0"></text>
</g>
<g>
<title>ru/mail/polis/service/boriskin/NewService.runExecutorService (1,918 samples, 0.21%)</title><rect x="1187.5" y="355.0" width="2.5" height="15" fill="#66f766" rx="2" ry="2"/>
<text x="1190.5" y="366.0"></text>
</g>
<g>
<title>java/util/concurrent/ThreadPoolExecutor.execute (1,918 samples, 0.21%)</title><rect x="1187.5" y="339.0" width="2.5" height="15" fill="#50e150" rx="2" ry="2"/>
<text x="1190.5" y="350.0"></text>
</g>
<g>
<title>java/util/concurrent/ArrayBlockingQueue.offer (1,918 samples, 0.21%)</title><rect x="1187.5" y="323.0" width="2.5" height="15" fill="#6cfd6c" rx="2" ry="2"/>
<text x="1190.5" y="334.0"></text>
</g>
<g>
<title>java/util/concurrent/locks/ReentrantLock.lock (1,918 samples, 0.21%)</title><rect x="1187.5" y="307.0" width="2.5" height="15" fill="#66f766" rx="2" ry="2"/>
<text x="1190.5" y="318.0"></text>
</g>
<g>
<title>java/util/concurrent/locks/AbstractQueuedSynchronizer.acquire (1,918 samples, 0.21%)</title><rect x="1187.5" y="291.0" width="2.5" height="15" fill="#50e150" rx="2" ry="2"/>
<text x="1190.5" y="302.0"></text>
</g>
<g>
<title>java/util/concurrent/locks/AbstractQueuedSynchronizer.acquireQueued (1,918 samples, 0.21%)</title><rect x="1187.5" y="275.0" width="2.5" height="15" fill="#6afb6a" rx="2" ry="2"/>
<text x="1190.5" y="286.0"></text>
</g>
<g>
<title>java/util/concurrent/locks/AbstractQueuedSynchronizer.parkAndCheckInterrupt (1,918 samples, 0.21%)</title><rect x="1187.5" y="259.0" width="2.5" height="15" fill="#5aeb5a" rx="2" ry="2"/>
<text x="1190.5" y="270.0"></text>
</g>
<g>
<title>java/util/concurrent/locks/LockSupport.park (1,918 samples, 0.21%)</title><rect x="1187.5" y="243.0" width="2.5" height="15" fill="#6afb6a" rx="2" ry="2"/>
<text x="1190.5" y="254.0"></text>
</g>
<g>
<title>jdk/internal/misc/Unsafe.park (1,918 samples, 0.21%)</title><rect x="1187.5" y="227.0" width="2.5" height="15" fill="#53e453" rx="2" ry="2"/>
<text x="1190.5" y="238.0"></text>
</g>
<g>
<title>java.util.concurrent.locks.ReentrantLock$NonfairSync (1,918 samples, 0.21%)</title><rect x="1187.5" y="211.0" width="2.5" height="15" fill="#67d5d5" rx="2" ry="2"/>
<text x="1190.5" y="222.0"></text>
</g>
</g>
</svg>
