<?xml version="1.0" standalone="no"?>
<!DOCTYPE svg PUBLIC "-//W3C//DTD SVG 1.1//EN" "http://www.w3.org/Graphics/SVG/1.1/DTD/svg11.dtd">
<svg version="1.1" width="1200" height="342" onload="init(evt)" viewBox="0 0 1200 342" xmlns="http://www.w3.org/2000/svg" xmlns:xlink="http://www.w3.org/1999/xlink">
<style type="text/css">
	text { font-family:Verdana; font-size:12px; fill:rgb(0,0,0); }
	#search { opacity:0.1; cursor:pointer; }
	#search:hover, #search.show { opacity:1; }
	#subtitle { text-anchor:middle; font-color:rgb(160,160,160); }
	#title { text-anchor:middle; font-size:17px}
	#unzoom { cursor:pointer; }
	#frames > *:hover { stroke:black; stroke-width:0.5; cursor:pointer; }
	.hide { display:none; }
	.parent { opacity:0.5; }
</style>
<script type="text/ecmascript">
<![CDATA[
	"use strict";
	var details, searchbtn, unzoombtn, matchedtxt, svg, searching;
	function init(evt) {
		details = document.getElementById("details").firstChild;
		searchbtn = document.getElementById("search");
		unzoombtn = document.getElementById("unzoom");
		matchedtxt = document.getElementById("matched");
		svg = document.getElementsByTagName("svg")[0];
		searching = 0;
	}

	window.addEventListener("click", function(e) {
		var target = find_group(e.target);
		if (target) {
			if (target.nodeName == "a") {
				if (e.ctrlKey === false) return;
				e.preventDefault();
			}
			if (target.classList.contains("parent")) unzoom();
			zoom(target);
		}
		else if (e.target.id == "unzoom") unzoom();
		else if (e.target.id == "search") search_prompt();
	}, false)

	// mouse-over for info
	// show
	window.addEventListener("mouseover", function(e) {
		var target = find_group(e.target);
		if (target) details.nodeValue = "Function: " + g_to_text(target);
	}, false)

	// clear
	window.addEventListener("mouseout", function(e) {
		var target = find_group(e.target);
		if (target) details.nodeValue = ' ';
	}, false)

	// ctrl-F for search
	window.addEventListener("keydown",function (e) {
		if (e.keyCode === 114 || (e.ctrlKey && e.keyCode === 70)) {
			e.preventDefault();
			search_prompt();
		}
	}, false)

	// functions
	function find_child(node, selector) {
		var children = node.querySelectorAll(selector);
		if (children.length) return children[0];
		return;
	}
	function find_group(node) {
		var parent = node.parentElement;
		if (!parent) return;
		if (parent.id == "frames") return node;
		return find_group(parent);
	}
	function orig_save(e, attr, val) {
		if (e.attributes["_orig_" + attr] != undefined) return;
		if (e.attributes[attr] == undefined) return;
		if (val == undefined) val = e.attributes[attr].value;
		e.setAttribute("_orig_" + attr, val);
	}
	function orig_load(e, attr) {
		if (e.attributes["_orig_"+attr] == undefined) return;
		e.attributes[attr].value = e.attributes["_orig_" + attr].value;
		e.removeAttribute("_orig_"+attr);
	}
	function g_to_text(e) {
		var text = find_child(e, "title").firstChild.nodeValue;
		return (text)
	}
	function g_to_func(e) {
		var func = g_to_text(e);
		// if there's any manipulation we want to do to the function
		// name before it's searched, do it here before returning.
		return (func);
	}
	function update_text(e) {
		var r = find_child(e, "rect");
		var t = find_child(e, "text");
		var w = parseFloat(r.attributes.width.value) -3;
		var txt = find_child(e, "title").textContent.replace(/\([^(]*\)$/,"");
		t.attributes.x.value = parseFloat(r.attributes.x.value) + 3;

		// Smaller than this size won't fit anything
		if (w < 2 * 12 * 0.59) {
			t.textContent = "";
			return;
		}

		t.textContent = txt;
		// Fit in full text width
		if (/^ *$/.test(txt) || t.getSubStringLength(0, txt.length) < w)
			return;

		for (var x = txt.length - 2; x > 0; x--) {
			if (t.getSubStringLength(0, x + 2) <= w) {
				t.textContent = txt.substring(0, x) + "..";
				return;
			}
		}
		t.textContent = "";
	}

	// zoom
	function zoom_reset(e) {
		if (e.attributes != undefined) {
			orig_load(e, "x");
			orig_load(e, "width");
		}
		if (e.childNodes == undefined) return;
		for (var i = 0, c = e.childNodes; i < c.length; i++) {
			zoom_reset(c[i]);
		}
	}
	function zoom_child(e, x, ratio) {
		if (e.attributes != undefined) {
			if (e.attributes.x != undefined) {
				orig_save(e, "x");
				e.attributes.x.value = (parseFloat(e.attributes.x.value) - x - 10) * ratio + 10;
				if (e.tagName == "text")
					e.attributes.x.value = find_child(e.parentNode, "rect[x]").attributes.x.value + 3;
			}
			if (e.attributes.width != undefined) {
				orig_save(e, "width");
				e.attributes.width.value = parseFloat(e.attributes.width.value) * ratio;
			}
		}

		if (e.childNodes == undefined) return;
		for (var i = 0, c = e.childNodes; i < c.length; i++) {
			zoom_child(c[i], x - 10, ratio);
		}
	}
	function zoom_parent(e) {
		if (e.attributes) {
			if (e.attributes.x != undefined) {
				orig_save(e, "x");
				e.attributes.x.value = 10;
			}
			if (e.attributes.width != undefined) {
				orig_save(e, "width");
				e.attributes.width.value = parseInt(svg.width.baseVal.value) - (10 * 2);
			}
		}
		if (e.childNodes == undefined) return;
		for (var i = 0, c = e.childNodes; i < c.length; i++) {
			zoom_parent(c[i]);
		}
	}
	function zoom(node) {
		var attr = find_child(node, "rect").attributes;
		var width = parseFloat(attr.width.value);
		var xmin = parseFloat(attr.x.value);
		var xmax = parseFloat(xmin + width);
		var ymin = parseFloat(attr.y.value);
		var ratio = (svg.width.baseVal.value - 2 * 10) / width;

		// XXX: Workaround for JavaScript float issues (fix me)
		var fudge = 0.0001;

		unzoombtn.classList.remove("hide");

		var el = document.getElementById("frames").children;
		for (var i = 0; i < el.length; i++) {
			var e = el[i];
			var a = find_child(e, "rect").attributes;
			var ex = parseFloat(a.x.value);
			var ew = parseFloat(a.width.value);
			var upstack;
			// Is it an ancestor
			if (0 == 0) {
				upstack = parseFloat(a.y.value) > ymin;
			} else {
				upstack = parseFloat(a.y.value) < ymin;
			}
			if (upstack) {
				// Direct ancestor
				if (ex <= xmin && (ex+ew+fudge) >= xmax) {
					e.classList.add("parent");
					zoom_parent(e);
					update_text(e);
				}
				// not in current path
				else
					e.classList.add("hide");
			}
			// Children maybe
			else {
				// no common path
				if (ex < xmin || ex + fudge >= xmax) {
					e.classList.add("hide");
				}
				else {
					zoom_child(e, xmin, ratio);
					update_text(e);
				}
			}
		}
	}
	function unzoom() {
		unzoombtn.classList.add("hide");
		var el = document.getElementById("frames").children;
		for(var i = 0; i < el.length; i++) {
			el[i].classList.remove("parent");
			el[i].classList.remove("hide");
			zoom_reset(el[i]);
			update_text(el[i]);
		}
	}

	// search
	function reset_search() {
		var el = document.querySelectorAll("#frames rect");
		for (var i = 0; i < el.length; i++) {
			orig_load(el[i], "fill")
		}
	}
	function search_prompt() {
		if (!searching) {
			var term = prompt("Enter a search term (regexp " +
			    "allowed, eg: ^ext4_)", "");
			if (term != null) {
				search(term)
			}
		} else {
			reset_search();
			searching = 0;
			searchbtn.classList.remove("show");
			searchbtn.firstChild.nodeValue = "Search"
			matchedtxt.classList.add("hide");
			matchedtxt.firstChild.nodeValue = ""
		}
	}
	function search(term) {
		var re = new RegExp(term);
		var el = document.getElementById("frames").children;
		var matches = new Object();
		var maxwidth = 0;
		for (var i = 0; i < el.length; i++) {
			var e = el[i];
			var func = g_to_func(e);
			var rect = find_child(e, "rect");
			if (func == null || rect == null)
				continue;

			// Save max width. Only works as we have a root frame
			var w = parseFloat(rect.attributes.width.value);
			if (w > maxwidth)
				maxwidth = w;

			if (func.match(re)) {
				// highlight
				var x = parseFloat(rect.attributes.x.value);
				orig_save(rect, "fill");
				rect.attributes.fill.value = "rgb(230,0,230)";

				// remember matches
				if (matches[x] == undefined) {
					matches[x] = w;
				} else {
					if (w > matches[x]) {
						// overwrite with parent
						matches[x] = w;
					}
				}
				searching = 1;
			}
		}
		if (!searching)
			return;

		searchbtn.classList.add("show");
		searchbtn.firstChild.nodeValue = "Reset Search";

		// calculate percent matched, excluding vertical overlap
		var count = 0;
		var lastx = -1;
		var lastw = 0;
		var keys = Array();
		for (k in matches) {
			if (matches.hasOwnProperty(k))
				keys.push(k);
		}
		// sort the matched frames by their x location
		// ascending, then width descending
		keys.sort(function(a, b){
			return a - b;
		});
		// Step through frames saving only the biggest bottom-up frames
		// thanks to the sort order. This relies on the tree property
		// where children are always smaller than their parents.
		var fudge = 0.0001;	// JavaScript floating point
		for (var k in keys) {
			var x = parseFloat(keys[k]);
			var w = matches[keys[k]];
			if (x >= lastx + lastw - fudge) {
				count += w;
				lastx = x;
				lastw = w;
			}
		}
		// display matched percent
		matchedtxt.classList.remove("hide");
		var pct = 100 * count / maxwidth;
		if (pct != 100) pct = pct.toFixed(1)
		matchedtxt.firstChild.nodeValue = "Matched: " + pct + "%";
	}
]]>
</script>
<rect x="0" y="0" width="100%" height="100%" fill="rgb(240,240,220)"/>
<text id="title" x="600" y="24">Flame Graph</text>
<text id="details" x="10" y="325"> </text>
<text id="unzoom" x="10" y="24" class="hide">Reset Zoom</text>
<text id="search" x="1090" y="24">Search</text>
<text id="matched" x="1090" y="325"> </text>
<g id="frames">
<g>
<title>all (1,343 samples, 100.00%)</title><rect x="10.0" y="291.0" width="1180.0" height="15" fill="#e86363" rx="2" ry="2"/>
<text x="13.0" y="302.0">all</text>
</g>
<g>
<title>java/lang/Thread.run (556 samples, 41.40%)</title><rect x="10.0" y="275.0" width="488.5" height="15" fill="#5ced5c" rx="2" ry="2"/>
<text x="13.0" y="286.0">java/lang/Thread.run</text>
</g>
<g>
<title>java/util/concurrent/ThreadPoolExecutor$Worker.run (556 samples, 41.40%)</title><rect x="10.0" y="259.0" width="488.5" height="15" fill="#50e150" rx="2" ry="2"/>
<text x="13.0" y="270.0">java/util/concurrent/ThreadPoolExecutor$Worker.run</text>
</g>
<g>
<title>java/util/concurrent/ThreadPoolExecutor.runWorker (556 samples, 41.40%)</title><rect x="10.0" y="243.0" width="488.5" height="15" fill="#65f665" rx="2" ry="2"/>
<text x="13.0" y="254.0">java/util/concurrent/ThreadPoolExecutor.runWorker</text>
</g>
<g>
<title>java/util/concurrent/ThreadPoolExecutor.getTask (65 samples, 4.84%)</title><rect x="10.0" y="227.0" width="57.1" height="15" fill="#61f261" rx="2" ry="2"/>
<text x="13.0" y="238.0">java/u..</text>
</g>
<g>
<title>java/util/concurrent/ArrayBlockingQueue.take (65 samples, 4.84%)</title><rect x="10.0" y="211.0" width="57.1" height="15" fill="#68f968" rx="2" ry="2"/>
<text x="13.0" y="222.0">java/u..</text>
</g>
<g>
<title>java/util/concurrent/locks/AbstractQueuedSynchronizer$ConditionObject.await (65 samples, 4.84%)</title><rect x="10.0" y="195.0" width="57.1" height="15" fill="#61f261" rx="2" ry="2"/>
<text x="13.0" y="206.0">java/u..</text>
</g>
<g>
<title>java/util/concurrent/locks/AbstractQueuedSynchronizer$ConditionObject.addConditionWaiter (65 samples, 4.84%)</title><rect x="10.0" y="179.0" width="57.1" height="15" fill="#5dee5d" rx="2" ry="2"/>
<text x="13.0" y="190.0">java/u..</text>
</g>
<g>
<title>java.util.concurrent.locks.AbstractQueuedSynchronizer$Node (65 samples, 4.84%)</title><rect x="10.0" y="163.0" width="57.1" height="15" fill="#5ecccc" rx="2" ry="2"/>
<text x="13.0" y="174.0">java.u..</text>
</g>
<g>
<title>ru/mail/polis/service/zvladn7/AsyncService$$Lambda$100/633091798.run (491 samples, 36.56%)</title><rect x="67.1" y="227.0" width="431.4" height="15" fill="#6dfe6d" rx="2" ry="2"/>
<text x="70.1" y="238.0">ru/mail/polis/service/zvladn7/AsyncService$$Lambda$100/6330..</text>
</g>
<g>
<title>ru/mail/polis/service/zvladn7/AsyncService.lambda$processRequest$6 (491 samples, 36.56%)</title><rect x="67.1" y="211.0" width="431.4" height="15" fill="#51e251" rx="2" ry="2"/>
<text x="70.1" y="222.0">ru/mail/polis/service/zvladn7/AsyncService.lambda$processRe..</text>
</g>
<g>
<title>ru/mail/polis/service/zvladn7/AsyncService.process (491 samples, 36.56%)</title><rect x="67.1" y="195.0" width="431.4" height="15" fill="#52e352" rx="2" ry="2"/>
<text x="70.1" y="206.0">ru/mail/polis/service/zvladn7/AsyncService.process</text>
</g>
<g>
<title>ru/mail/polis/service/zvladn7/AsyncService$$Lambda$125/1783644670.process (491 samples, 36.56%)</title><rect x="67.1" y="179.0" width="431.4" height="15" fill="#63f463" rx="2" ry="2"/>
<text x="70.1" y="190.0">ru/mail/polis/service/zvladn7/AsyncService$$Lambda$125/1783..</text>
</g>
<g>
<title>ru/mail/polis/service/zvladn7/AsyncService.lambda$get$2 (491 samples, 36.56%)</title><rect x="67.1" y="163.0" width="431.4" height="15" fill="#61f261" rx="2" ry="2"/>
<text x="70.1" y="174.0">ru/mail/polis/service/zvladn7/AsyncService.lambda$get$2</text>
</g>
<g>
<title>ru/mail/polis/service/zvladn7/AsyncService.handleGet (491 samples, 36.56%)</title><rect x="67.1" y="147.0" width="431.4" height="15" fill="#56e756" rx="2" ry="2"/>
<text x="70.1" y="158.0">ru/mail/polis/service/zvladn7/AsyncService.handleGet</text>
</g>
<g>
<title>com/google/common/cache/LocalCache$LocalManualCache.getIfPresent (48 samples, 3.57%)</title><rect x="67.1" y="131.0" width="42.2" height="15" fill="#56e756" rx="2" ry="2"/>
<text x="70.1" y="142.0">com/..</text>
</g>
<g>
<title>com/google/common/cache/LocalCache.getIfPresent (48 samples, 3.57%)</title><rect x="67.1" y="115.0" width="42.2" height="15" fill="#62f362" rx="2" ry="2"/>
<text x="70.1" y="126.0">com/..</text>
</g>
<g>
<title>com/google/common/cache/LocalCache$Segment.get (48 samples, 3.57%)</title><rect x="67.1" y="99.0" width="42.2" height="15" fill="#6bfc6b" rx="2" ry="2"/>
<text x="70.1" y="110.0">com/..</text>
</g>
<g>
<title>com/google/common/cache/LocalCache$Segment.recordRead (48 samples, 3.57%)</title><rect x="67.1" y="83.0" width="42.2" height="15" fill="#66f766" rx="2" ry="2"/>
<text x="70.1" y="94.0">com/..</text>
</g>
<g>
<title>java/util/concurrent/ConcurrentLinkedQueue.add (48 samples, 3.57%)</title><rect x="67.1" y="67.0" width="42.2" height="15" fill="#5dee5d" rx="2" ry="2"/>
<text x="70.1" y="78.0">java..</text>
</g>
<g>
<title>java/util/concurrent/ConcurrentLinkedQueue.offer (48 samples, 3.57%)</title><rect x="67.1" y="51.0" width="42.2" height="15" fill="#5dee5d" rx="2" ry="2"/>
<text x="70.1" y="62.0">java..</text>
</g>
<g>
<title>java.util.concurrent.ConcurrentLinkedQueue$Node (48 samples, 3.57%)</title><rect x="67.1" y="35.0" width="42.2" height="15" fill="#69d7d7" rx="2" ry="2"/>
<text x="70.1" y="46.0">java..</text>
</g>
<g>
<title>one/nio/http/HttpSession.sendResponse (234 samples, 17.42%)</title><rect x="109.3" y="131.0" width="205.6" height="15" fill="#6cfd6c" rx="2" ry="2"/>
<text x="112.3" y="142.0">one/nio/http/HttpSession.se..</text>
</g>
<g>
<title>one/nio/http/HttpSession.writeResponse (234 samples, 17.42%)</title><rect x="109.3" y="115.0" width="205.6" height="15" fill="#6cfd6c" rx="2" ry="2"/>
<text x="112.3" y="126.0">one/nio/http/HttpSession.wr..</text>
</g>
<g>
<title>one/nio/http/Response.toBytes (153 samples, 11.39%)</title><rect x="109.3" y="99.0" width="134.4" height="15" fill="#6afb6a" rx="2" ry="2"/>
<text x="112.3" y="110.0">one/nio/http/Resp..</text>
</g>
<g>
<title>one/nio/util/ByteArrayBuilder.&lt;init&gt; (153 samples, 11.39%)</title><rect x="109.3" y="83.0" width="134.4" height="15" fill="#67f867" rx="2" ry="2"/>
<text x="112.3" y="94.0">one/nio/util/Byte..</text>
</g>
<g>
<title>byte[] (153 samples, 11.39%)</title><rect x="109.3" y="67.0" width="134.4" height="15" fill="#5ac8c8" rx="2" ry="2"/>
<text x="112.3" y="78.0">byte[]</text>
</g>
<g>
<title>one/nio/net/Session.write (81 samples, 6.03%)</title><rect x="243.7" y="99.0" width="71.2" height="15" fill="#60f160" rx="2" ry="2"/>
<text x="246.7" y="110.0">one/nio/..</text>
</g>
<g>
<title>one.nio.net.Session$ArrayQueueItem (81 samples, 6.03%)</title><rect x="243.7" y="83.0" width="71.2" height="15" fill="#56c4c4" rx="2" ry="2"/>
<text x="246.7" y="94.0">one.nio...</text>
</g>
<g>
<title>one/nio/http/Response.ok (209 samples, 15.56%)</title><rect x="314.9" y="131.0" width="183.6" height="15" fill="#5eef5e" rx="2" ry="2"/>
<text x="317.9" y="142.0">one/nio/http/Response.ok</text>
</g>
<g>
<title>one.nio.http.Response (50 samples, 3.72%)</title><rect x="314.9" y="115.0" width="43.9" height="15" fill="#6cdada" rx="2" ry="2"/>
<text x="317.9" y="126.0">one...</text>
</g>
<g>
<title>one/nio/http/Response.&lt;init&gt; (159 samples, 11.84%)</title><rect x="358.8" y="115.0" width="139.7" height="15" fill="#5dee5d" rx="2" ry="2"/>
<text x="361.8" y="126.0">one/nio/http/Resp..</text>
</g>
<g>
<title>byte[] (72 samples, 5.36%)</title><rect x="358.8" y="99.0" width="63.3" height="15" fill="#6ad8d8" rx="2" ry="2"/>
<text x="361.8" y="110.0">byte[]</text>
</g>
<g>
<title>java.lang.String[] (46 samples, 3.43%)</title><rect x="422.1" y="99.0" width="40.4" height="15" fill="#6ddbdb" rx="2" ry="2"/>
<text x="425.1" y="110.0">jav..</text>
</g>
<g>
<title>java.lang.String (41 samples, 3.05%)</title><rect x="462.5" y="99.0" width="36.0" height="15" fill="#55c3c3" rx="2" ry="2"/>
<text x="465.5" y="110.0">jav..</text>
</g>
<g>
<title>one/nio/server/SelectorThread.run (787 samples, 58.60%)</title><rect x="498.5" y="275.0" width="691.5" height="15" fill="#5dee5d" rx="2" ry="2"/>
<text x="501.5" y="286.0">one/nio/server/SelectorThread.run</text>
</g>
<g>
<title>one/nio/net/NativeSelector.select (36 samples, 2.68%)</title><rect x="498.5" y="259.0" width="31.6" height="15" fill="#67f867" rx="2" ry="2"/>
<text x="501.5" y="270.0">on..</text>
</g>
<g>
<title>one.nio.net.NativeSelector$2 (36 samples, 2.68%)</title><rect x="498.5" y="243.0" width="31.6" height="15" fill="#66d4d4" rx="2" ry="2"/>
<text x="501.5" y="254.0">on..</text>
</g>
<g>
<title>one/nio/net/Session.process (751 samples, 55.92%)</title><rect x="530.1" y="259.0" width="659.9" height="15" fill="#6bfc6b" rx="2" ry="2"/>
<text x="533.1" y="270.0">one/nio/net/Session.process</text>
</g>
<g>
<title>one/nio/http/HttpSession.processRead (751 samples, 55.92%)</title><rect x="530.1" y="243.0" width="659.9" height="15" fill="#57e857" rx="2" ry="2"/>
<text x="533.1" y="254.0">one/nio/http/HttpSession.processRead</text>
</g>
<g>
<title>one/nio/http/HttpSession.processHttpBuffer (751 samples, 55.92%)</title><rect x="530.1" y="227.0" width="659.9" height="15" fill="#66f766" rx="2" ry="2"/>
<text x="533.1" y="238.0">one/nio/http/HttpSession.processHttpBuffer</text>
</g>
<g>
<title>one/nio/http/HttpSession.handleParsedRequest (200 samples, 14.89%)</title><rect x="530.1" y="211.0" width="175.8" height="15" fill="#6cfd6c" rx="2" ry="2"/>
<text x="533.1" y="222.0">one/nio/http/HttpSessio..</text>
</g>
<g>
<title>one/nio/http/HttpServer.handleRequest (200 samples, 14.89%)</title><rect x="530.1" y="195.0" width="175.8" height="15" fill="#59ea59" rx="2" ry="2"/>
<text x="533.1" y="206.0">one/nio/http/HttpServer..</text>
</g>
<g>
<title>RequestHandler1_get.handleRequest (125 samples, 9.31%)</title><rect x="530.1" y="179.0" width="109.9" height="15" fill="#5ced5c" rx="2" ry="2"/>
<text x="533.1" y="190.0">RequestHandle..</text>
</g>
<g>
<title>one/nio/http/Request.getRequiredParameter (68 samples, 5.06%)</title><rect x="530.1" y="163.0" width="59.8" height="15" fill="#60f160" rx="2" ry="2"/>
<text x="533.1" y="174.0">one/ni..</text>
</g>
<g>
<title>one/nio/http/Request.getParameter (68 samples, 5.06%)</title><rect x="530.1" y="147.0" width="59.8" height="15" fill="#60f160" rx="2" ry="2"/>
<text x="533.1" y="158.0">one/ni..</text>
</g>
<g>
<title>java/lang/String.substring (68 samples, 5.06%)</title><rect x="530.1" y="131.0" width="59.8" height="15" fill="#62f362" rx="2" ry="2"/>
<text x="533.1" y="142.0">java/l..</text>
</g>
<g>
<title>java/lang/StringLatin1.newString (68 samples, 5.06%)</title><rect x="530.1" y="115.0" width="59.8" height="15" fill="#55e655" rx="2" ry="2"/>
<text x="533.1" y="126.0">java/l..</text>
</g>
<g>
<title>java.lang.String (29 samples, 2.16%)</title><rect x="530.1" y="99.0" width="25.5" height="15" fill="#5ecccc" rx="2" ry="2"/>
<text x="533.1" y="110.0">j..</text>
</g>
<g>
<title>java/util/Arrays.copyOfRange (39 samples, 2.90%)</title><rect x="555.6" y="99.0" width="34.3" height="15" fill="#5aeb5a" rx="2" ry="2"/>
<text x="558.6" y="110.0">ja..</text>
</g>
<g>
<title>byte[] (39 samples, 2.90%)</title><rect x="555.6" y="83.0" width="34.3" height="15" fill="#63d1d1" rx="2" ry="2"/>
<text x="558.6" y="94.0">by..</text>
</g>
<g>
<title>ru/mail/polis/service/zvladn7/AsyncService.get (57 samples, 4.24%)</title><rect x="589.9" y="163.0" width="50.1" height="15" fill="#6bfc6b" rx="2" ry="2"/>
<text x="592.9" y="174.0">ru/ma..</text>
</g>
<g>
<title>java/lang/invoke/Invokers$Holder.linkToTargetMethod (34 samples, 2.53%)</title><rect x="589.9" y="147.0" width="29.9" height="15" fill="#56e756" rx="2" ry="2"/>
<text x="592.9" y="158.0">ja..</text>
</g>
<g>
<title>java/lang/invoke/DirectMethodHandle$Holder.invokeStatic (34 samples, 2.53%)</title><rect x="589.9" y="131.0" width="29.9" height="15" fill="#62f362" rx="2" ry="2"/>
<text x="592.9" y="142.0">ja..</text>
</g>
<g>
<title>ru/mail/polis/service/zvladn7/AsyncService$$Lambda$125/1783644670.get$Lambda (34 samples, 2.53%)</title><rect x="589.9" y="115.0" width="29.9" height="15" fill="#69fa69" rx="2" ry="2"/>
<text x="592.9" y="126.0">ru..</text>
</g>
<g>
<title>ru.mail.polis.service.zvladn7.AsyncService$$Lambda$125 (34 samples, 2.53%)</title><rect x="589.9" y="99.0" width="29.9" height="15" fill="#53c1c1" rx="2" ry="2"/>
<text x="592.9" y="110.0">ru..</text>
</g>
<g>
<title>ru/mail/polis/service/zvladn7/AsyncService.processRequest (23 samples, 1.71%)</title><rect x="619.8" y="147.0" width="20.2" height="15" fill="#5bec5b" rx="2" ry="2"/>
<text x="622.8" y="158.0"></text>
</g>
<g>
<title>java/lang/invoke/Invokers$Holder.linkToTargetMethod (21 samples, 1.56%)</title><rect x="619.8" y="131.0" width="18.4" height="15" fill="#55e655" rx="2" ry="2"/>
<text x="622.8" y="142.0"></text>
</g>
<g>
<title>java/lang/invoke/DirectMethodHandle$Holder.invokeStatic (21 samples, 1.56%)</title><rect x="619.8" y="115.0" width="18.4" height="15" fill="#63f463" rx="2" ry="2"/>
<text x="622.8" y="126.0"></text>
</g>
<g>
<title>ru/mail/polis/service/zvladn7/AsyncService$$Lambda$100/633091798.get$Lambda (21 samples, 1.56%)</title><rect x="619.8" y="99.0" width="18.4" height="15" fill="#61f261" rx="2" ry="2"/>
<text x="622.8" y="110.0"></text>
</g>
<g>
<title>ru.mail.polis.service.zvladn7.AsyncService$$Lambda$100 (21 samples, 1.56%)</title><rect x="619.8" y="83.0" width="18.4" height="15" fill="#64d2d2" rx="2" ry="2"/>
<text x="622.8" y="94.0"></text>
</g>
<g>
<title>java/util/concurrent/ThreadPoolExecutor.execute (2 samples, 0.15%)</title><rect x="638.2" y="131.0" width="1.8" height="15" fill="#61f261" rx="2" ry="2"/>
<text x="641.2" y="142.0"></text>
</g>
<g>
<title>java/util/concurrent/ArrayBlockingQueue.offer (2 samples, 0.15%)</title><rect x="638.2" y="115.0" width="1.8" height="15" fill="#51e251" rx="2" ry="2"/>
<text x="641.2" y="126.0"></text>
</g>
<g>
<title>java/util/concurrent/locks/ReentrantLock.lock (2 samples, 0.15%)</title><rect x="638.2" y="99.0" width="1.8" height="15" fill="#60f160" rx="2" ry="2"/>
<text x="641.2" y="110.0"></text>
</g>
<g>
<title>java/util/concurrent/locks/AbstractQueuedSynchronizer.acquire (2 samples, 0.15%)</title><rect x="638.2" y="83.0" width="1.8" height="15" fill="#60f160" rx="2" ry="2"/>
<text x="641.2" y="94.0"></text>
</g>
<g>
<title>java/util/concurrent/locks/AbstractQueuedSynchronizer.addWaiter (2 samples, 0.15%)</title><rect x="638.2" y="67.0" width="1.8" height="15" fill="#57e857" rx="2" ry="2"/>
<text x="641.2" y="78.0"></text>
</g>
<g>
<title>java.util.concurrent.locks.AbstractQueuedSynchronizer$Node (2 samples, 0.15%)</title><rect x="638.2" y="51.0" width="1.8" height="15" fill="#50bebe" rx="2" ry="2"/>
<text x="641.2" y="62.0"></text>
</g>
<g>
<title>one/nio/http/Request.getPath (75 samples, 5.58%)</title><rect x="640.0" y="179.0" width="65.9" height="15" fill="#5aeb5a" rx="2" ry="2"/>
<text x="643.0" y="190.0">one/nio..</text>
</g>
<g>
<title>java/lang/String.substring (75 samples, 5.58%)</title><rect x="640.0" y="163.0" width="65.9" height="15" fill="#50e150" rx="2" ry="2"/>
<text x="643.0" y="174.0">java/la..</text>
</g>
<g>
<title>java/lang/StringLatin1.newString (75 samples, 5.58%)</title><rect x="640.0" y="147.0" width="65.9" height="15" fill="#6bfc6b" rx="2" ry="2"/>
<text x="643.0" y="158.0">java/la..</text>
</g>
<g>
<title>java.lang.String (40 samples, 2.98%)</title><rect x="640.0" y="131.0" width="35.1" height="15" fill="#62d0d0" rx="2" ry="2"/>
<text x="643.0" y="142.0">jav..</text>
</g>
<g>
<title>java/util/Arrays.copyOfRange (35 samples, 2.61%)</title><rect x="675.1" y="131.0" width="30.8" height="15" fill="#67f867" rx="2" ry="2"/>
<text x="678.1" y="142.0">ja..</text>
</g>
<g>
<title>byte[] (35 samples, 2.61%)</title><rect x="675.1" y="115.0" width="30.8" height="15" fill="#6ad8d8" rx="2" ry="2"/>
<text x="678.1" y="126.0">by..</text>
</g>
<g>
<title>one/nio/http/HttpSession.parseRequest (376 samples, 28.00%)</title><rect x="705.9" y="211.0" width="330.3" height="15" fill="#6bfc6b" rx="2" ry="2"/>
<text x="708.9" y="222.0">one/nio/http/HttpSession.parseRequest</text>
</g>
<g>
<title>one.nio.http.Request (55 samples, 4.10%)</title><rect x="705.9" y="195.0" width="48.3" height="15" fill="#55c3c3" rx="2" ry="2"/>
<text x="708.9" y="206.0">one...</text>
</g>
<g>
<title>one/nio/http/Request.&lt;init&gt; (105 samples, 7.82%)</title><rect x="754.2" y="195.0" width="92.3" height="15" fill="#5dee5d" rx="2" ry="2"/>
<text x="757.2" y="206.0">one/nio/htt..</text>
</g>
<g>
<title>java.lang.String[] (105 samples, 7.82%)</title><rect x="754.2" y="179.0" width="92.3" height="15" fill="#5ecccc" rx="2" ry="2"/>
<text x="757.2" y="190.0">java.lang.S..</text>
</g>
<g>
<title>one/nio/util/Utf8.read (216 samples, 16.08%)</title><rect x="846.5" y="195.0" width="189.7" height="15" fill="#67f867" rx="2" ry="2"/>
<text x="849.5" y="206.0">one/nio/util/Utf8.read</text>
</g>
<g>
<title>one/nio/util/Utf8.read (216 samples, 16.08%)</title><rect x="846.5" y="179.0" width="189.7" height="15" fill="#63f463" rx="2" ry="2"/>
<text x="849.5" y="190.0">one/nio/util/Utf8.read</text>
</g>
<g>
<title>char[] (107 samples, 7.97%)</title><rect x="846.5" y="163.0" width="94.0" height="15" fill="#6cdada" rx="2" ry="2"/>
<text x="849.5" y="174.0">char[]</text>
</g>
<g>
<title>java.lang.String (39 samples, 2.90%)</title><rect x="940.5" y="163.0" width="34.2" height="15" fill="#54c2c2" rx="2" ry="2"/>
<text x="943.5" y="174.0">ja..</text>
</g>
<g>
<title>java/lang/String.&lt;init&gt; (70 samples, 5.21%)</title><rect x="974.7" y="163.0" width="61.5" height="15" fill="#58e958" rx="2" ry="2"/>
<text x="977.7" y="174.0">java/l..</text>
</g>
<g>
<title>java/lang/String.&lt;init&gt; (70 samples, 5.21%)</title><rect x="974.7" y="147.0" width="61.5" height="15" fill="#6afb6a" rx="2" ry="2"/>
<text x="977.7" y="158.0">java/l..</text>
</g>
<g>
<title>java/lang/StringUTF16.compress (70 samples, 5.21%)</title><rect x="974.7" y="131.0" width="61.5" height="15" fill="#5aeb5a" rx="2" ry="2"/>
<text x="977.7" y="142.0">java/l..</text>
</g>
<g>
<title>byte[] (70 samples, 5.21%)</title><rect x="974.7" y="115.0" width="61.5" height="15" fill="#6ad8d8" rx="2" ry="2"/>
<text x="977.7" y="126.0">byte[]</text>
</g>
<g>
<title>one/nio/util/Utf8.read (175 samples, 13.03%)</title><rect x="1036.2" y="211.0" width="153.8" height="15" fill="#66f766" rx="2" ry="2"/>
<text x="1039.2" y="222.0">one/nio/util/Utf8.r..</text>
</g>
<g>
<title>one/nio/util/Utf8.read (175 samples, 13.03%)</title><rect x="1036.2" y="195.0" width="153.8" height="15" fill="#5eef5e" rx="2" ry="2"/>
<text x="1039.2" y="206.0">one/nio/util/Utf8.r..</text>
</g>
<g>
<title>char[] (77 samples, 5.73%)</title><rect x="1036.2" y="179.0" width="67.7" height="15" fill="#58c6c6" rx="2" ry="2"/>
<text x="1039.2" y="190.0">char[]</text>
</g>
<g>
<title>java.lang.String (33 samples, 2.46%)</title><rect x="1103.9" y="179.0" width="29.0" height="15" fill="#6cdada" rx="2" ry="2"/>
<text x="1106.9" y="190.0">ja..</text>
</g>
<g>
<title>java/lang/String.&lt;init&gt; (65 samples, 4.84%)</title><rect x="1132.9" y="179.0" width="57.1" height="15" fill="#53e453" rx="2" ry="2"/>
<text x="1135.9" y="190.0">java/l..</text>
</g>
<g>
<title>java/lang/String.&lt;init&gt; (65 samples, 4.84%)</title><rect x="1132.9" y="163.0" width="57.1" height="15" fill="#69fa69" rx="2" ry="2"/>
<text x="1135.9" y="174.0">java/l..</text>
</g>
<g>
<title>java/lang/StringUTF16.compress (65 samples, 4.84%)</title><rect x="1132.9" y="147.0" width="57.1" height="15" fill="#62f362" rx="2" ry="2"/>
<text x="1135.9" y="158.0">java/l..</text>
</g>
<g>
<title>byte[] (65 samples, 4.84%)</title><rect x="1132.9" y="131.0" width="57.1" height="15" fill="#65d3d3" rx="2" ry="2"/>
<text x="1135.9" y="142.0">byte[]</text>
</g>
</g>
</svg>
