<?xml version="1.0" standalone="no"?>
<!DOCTYPE svg PUBLIC "-//W3C//DTD SVG 1.1//EN" "http://www.w3.org/Graphics/SVG/1.1/DTD/svg11.dtd">
<svg version="1.1" width="1200" height="566" onload="init(evt)" viewBox="0 0 1200 566" xmlns="http://www.w3.org/2000/svg" xmlns:xlink="http://www.w3.org/1999/xlink">
<style type="text/css">
	text { font-family:Verdana; font-size:12px; fill:rgb(0,0,0); }
	#search { opacity:0.1; cursor:pointer; }
	#search:hover, #search.show { opacity:1; }
	#subtitle { text-anchor:middle; font-color:rgb(160,160,160); }
	#title { text-anchor:middle; font-size:17px}
	#unzoom { cursor:pointer; }
	#frames > *:hover { stroke:black; stroke-width:0.5; cursor:pointer; }
	.hide { display:none; }
	.parent { opacity:0.5; }
</style>
<script type="text/ecmascript">
<![CDATA[
	"use strict";
	var details, searchbtn, unzoombtn, matchedtxt, svg, searching;
	function init(evt) {
		details = document.getElementById("details").firstChild;
		searchbtn = document.getElementById("search");
		unzoombtn = document.getElementById("unzoom");
		matchedtxt = document.getElementById("matched");
		svg = document.getElementsByTagName("svg")[0];
		searching = 0;
	}

	window.addEventListener("click", function(e) {
		var target = find_group(e.target);
		if (target) {
			if (target.nodeName == "a") {
				if (e.ctrlKey === false) return;
				e.preventDefault();
			}
			if (target.classList.contains("parent")) unzoom();
			zoom(target);
		}
		else if (e.target.id == "unzoom") unzoom();
		else if (e.target.id == "search") search_prompt();
	}, false)

	// mouse-over for info
	// show
	window.addEventListener("mouseover", function(e) {
		var target = find_group(e.target);
		if (target) details.nodeValue = "Function: " + g_to_text(target);
	}, false)

	// clear
	window.addEventListener("mouseout", function(e) {
		var target = find_group(e.target);
		if (target) details.nodeValue = ' ';
	}, false)

	// ctrl-F for search
	window.addEventListener("keydown",function (e) {
		if (e.keyCode === 114 || (e.ctrlKey && e.keyCode === 70)) {
			e.preventDefault();
			search_prompt();
		}
	}, false)

	// functions
	function find_child(node, selector) {
		var children = node.querySelectorAll(selector);
		if (children.length) return children[0];
		return;
	}
	function find_group(node) {
		var parent = node.parentElement;
		if (!parent) return;
		if (parent.id == "frames") return node;
		return find_group(parent);
	}
	function orig_save(e, attr, val) {
		if (e.attributes["_orig_" + attr] != undefined) return;
		if (e.attributes[attr] == undefined) return;
		if (val == undefined) val = e.attributes[attr].value;
		e.setAttribute("_orig_" + attr, val);
	}
	function orig_load(e, attr) {
		if (e.attributes["_orig_"+attr] == undefined) return;
		e.attributes[attr].value = e.attributes["_orig_" + attr].value;
		e.removeAttribute("_orig_"+attr);
	}
	function g_to_text(e) {
		var text = find_child(e, "title").firstChild.nodeValue;
		return (text)
	}
	function g_to_func(e) {
		var func = g_to_text(e);
		// if there's any manipulation we want to do to the function
		// name before it's searched, do it here before returning.
		return (func);
	}
	function update_text(e) {
		var r = find_child(e, "rect");
		var t = find_child(e, "text");
		var w = parseFloat(r.attributes.width.value) -3;
		var txt = find_child(e, "title").textContent.replace(/\([^(]*\)$/,"");
		t.attributes.x.value = parseFloat(r.attributes.x.value) + 3;

		// Smaller than this size won't fit anything
		if (w < 2 * 12 * 0.59) {
			t.textContent = "";
			return;
		}

		t.textContent = txt;
		// Fit in full text width
		if (/^ *$/.test(txt) || t.getSubStringLength(0, txt.length) < w)
			return;

		for (var x = txt.length - 2; x > 0; x--) {
			if (t.getSubStringLength(0, x + 2) <= w) {
				t.textContent = txt.substring(0, x) + "..";
				return;
			}
		}
		t.textContent = "";
	}

	// zoom
	function zoom_reset(e) {
		if (e.attributes != undefined) {
			orig_load(e, "x");
			orig_load(e, "width");
		}
		if (e.childNodes == undefined) return;
		for (var i = 0, c = e.childNodes; i < c.length; i++) {
			zoom_reset(c[i]);
		}
	}
	function zoom_child(e, x, ratio) {
		if (e.attributes != undefined) {
			if (e.attributes.x != undefined) {
				orig_save(e, "x");
				e.attributes.x.value = (parseFloat(e.attributes.x.value) - x - 10) * ratio + 10;
				if (e.tagName == "text")
					e.attributes.x.value = find_child(e.parentNode, "rect[x]").attributes.x.value + 3;
			}
			if (e.attributes.width != undefined) {
				orig_save(e, "width");
				e.attributes.width.value = parseFloat(e.attributes.width.value) * ratio;
			}
		}

		if (e.childNodes == undefined) return;
		for (var i = 0, c = e.childNodes; i < c.length; i++) {
			zoom_child(c[i], x - 10, ratio);
		}
	}
	function zoom_parent(e) {
		if (e.attributes) {
			if (e.attributes.x != undefined) {
				orig_save(e, "x");
				e.attributes.x.value = 10;
			}
			if (e.attributes.width != undefined) {
				orig_save(e, "width");
				e.attributes.width.value = parseInt(svg.width.baseVal.value) - (10 * 2);
			}
		}
		if (e.childNodes == undefined) return;
		for (var i = 0, c = e.childNodes; i < c.length; i++) {
			zoom_parent(c[i]);
		}
	}
	function zoom(node) {
		var attr = find_child(node, "rect").attributes;
		var width = parseFloat(attr.width.value);
		var xmin = parseFloat(attr.x.value);
		var xmax = parseFloat(xmin + width);
		var ymin = parseFloat(attr.y.value);
		var ratio = (svg.width.baseVal.value - 2 * 10) / width;

		// XXX: Workaround for JavaScript float issues (fix local)
		var fudge = 0.0001;

		unzoombtn.classList.remove("hide");

		var el = document.getElementById("frames").children;
		for (var i = 0; i < el.length; i++) {
			var e = el[i];
			var a = find_child(e, "rect").attributes;
			var ex = parseFloat(a.x.value);
			var ew = parseFloat(a.width.value);
			var upstack;
			// Is it an ancestor
			if (0 == 0) {
				upstack = parseFloat(a.y.value) > ymin;
			} else {
				upstack = parseFloat(a.y.value) < ymin;
			}
			if (upstack) {
				// Direct ancestor
				if (ex <= xmin && (ex+ew+fudge) >= xmax) {
					e.classList.add("parent");
					zoom_parent(e);
					update_text(e);
				}
				// not in current path
				else
					e.classList.add("hide");
			}
			// Children maybe
			else {
				// no common path
				if (ex < xmin || ex + fudge >= xmax) {
					e.classList.add("hide");
				}
				else {
					zoom_child(e, xmin, ratio);
					update_text(e);
				}
			}
		}
	}
	function unzoom() {
		unzoombtn.classList.add("hide");
		var el = document.getElementById("frames").children;
		for(var i = 0; i < el.length; i++) {
			el[i].classList.remove("parent");
			el[i].classList.remove("hide");
			zoom_reset(el[i]);
			update_text(el[i]);
		}
	}

	// search
	function reset_search() {
		var el = document.querySelectorAll("#frames rect");
		for (var i = 0; i < el.length; i++) {
			orig_load(el[i], "fill")
		}
	}
	function search_prompt() {
		if (!searching) {
			var term = prompt("Enter a search term (regexp " +
			    "allowed, eg: ^ext4_)", "");
			if (term != null) {
				search(term)
			}
		} else {
			reset_search();
			searching = 0;
			searchbtn.classList.remove("show");
			searchbtn.firstChild.nodeValue = "Search"
			matchedtxt.classList.add("hide");
			matchedtxt.firstChild.nodeValue = ""
		}
	}
	function search(term) {
		var re = new RegExp(term);
		var el = document.getElementById("frames").children;
		var matches = new Object();
		var maxwidth = 0;
		for (var i = 0; i < el.length; i++) {
			var e = el[i];
			var func = g_to_func(e);
			var rect = find_child(e, "rect");
			if (func == null || rect == null)
				continue;

			// Save max width. Only works as we have a root frame
			var w = parseFloat(rect.attributes.width.value);
			if (w > maxwidth)
				maxwidth = w;

			if (func.match(re)) {
				// highlight
				var x = parseFloat(rect.attributes.x.value);
				orig_save(rect, "fill");
				rect.attributes.fill.value = "rgb(230,0,230)";

				// remember matches
				if (matches[x] == undefined) {
					matches[x] = w;
				} else {
					if (w > matches[x]) {
						// overwrite with parent
						matches[x] = w;
					}
				}
				searching = 1;
			}
		}
		if (!searching)
			return;

		searchbtn.classList.add("show");
		searchbtn.firstChild.nodeValue = "Reset Search";

		// calculate percent matched, excluding vertical overlap
		var count = 0;
		var lastx = -1;
		var lastw = 0;
		var keys = Array();
		for (k in matches) {
			if (matches.hasOwnProperty(k))
				keys.push(k);
		}
		// sort the matched frames by their x location
		// ascending, then width descending
		keys.sort(function(a, b){
			return a - b;
		});
		// Step through frames saving only the biggest bottom-up frames
		// thanks to the sort order. This relies on the tree property
		// where children are always smaller than their parents.
		var fudge = 0.0001;	// JavaScript floating point
		for (var k in keys) {
			var x = parseFloat(keys[k]);
			var w = matches[keys[k]];
			if (x >= lastx + lastw - fudge) {
				count += w;
				lastx = x;
				lastw = w;
			}
		}
		// display matched percent
		matchedtxt.classList.remove("hide");
		var pct = 100 * count / maxwidth;
		if (pct != 100) pct = pct.toFixed(1)
		matchedtxt.firstChild.nodeValue = "Matched: " + pct + "%";
	}
]]>
</script>
<rect x="0" y="0" width="100%" height="100%" fill="rgb(240,240,220)"/>
<text id="title" x="600" y="24">Flame Graph</text>
<text id="details" x="10" y="549"> </text>
<text id="unzoom" x="10" y="24" class="hide">Reset Zoom</text>
<text id="search" x="1090" y="24">Search</text>
<text id="matched" x="1090" y="549"> </text>
<g id="frames">
<g>
<title>all (1,984 samples, 100.00%)</title><rect x="10.0" y="515.0" width="1180.0" height="15" fill="#f17070" rx="2" ry="2"/>
<text x="13.0" y="526.0">all</text>
</g>
<g>
<title>java/lang/Thread.run (1,228 samples, 61.90%)</title><rect x="10.0" y="499.0" width="730.4" height="15" fill="#50e150" rx="2" ry="2"/>
<text x="13.0" y="510.0">java/lang/Thread.run</text>
</g>
<g>
<title>java/util/concurrent/ThreadPoolExecutor$Worker.run (1,228 samples, 61.90%)</title><rect x="10.0" y="483.0" width="730.4" height="15" fill="#5dee5d" rx="2" ry="2"/>
<text x="13.0" y="494.0">java/util/concurrent/ThreadPoolExecutor$Worker.run</text>
</g>
<g>
<title>java/util/concurrent/ThreadPoolExecutor.runWorker (1,228 samples, 61.90%)</title><rect x="10.0" y="467.0" width="730.4" height="15" fill="#5ced5c" rx="2" ry="2"/>
<text x="13.0" y="478.0">java/util/concurrent/ThreadPoolExecutor.runWorker</text>
</g>
<g>
<title>java/util/concurrent/ThreadPoolExecutor.getTask (692 samples, 34.88%)</title><rect x="10.0" y="451.0" width="411.6" height="15" fill="#5ced5c" rx="2" ry="2"/>
<text x="13.0" y="462.0">java/util/concurrent/ThreadPoolExecutor.getTask</text>
</g>
<g>
<title>java/util/concurrent/ArrayBlockingQueue.take (692 samples, 34.88%)</title><rect x="10.0" y="435.0" width="411.6" height="15" fill="#5bec5b" rx="2" ry="2"/>
<text x="13.0" y="446.0">java/util/concurrent/ArrayBlockingQueue.take</text>
</g>
<g>
<title>java/util/concurrent/locks/AbstractQueuedSynchronizer$ConditionObject.await (187 samples, 9.43%)</title><rect x="10.0" y="419.0" width="111.2" height="15" fill="#5ced5c" rx="2" ry="2"/>
<text x="13.0" y="430.0">java/util/con..</text>
</g>
<g>
<title>java/util/concurrent/locks/AbstractQueuedSynchronizer.acquireQueued (187 samples, 9.43%)</title><rect x="10.0" y="403.0" width="111.2" height="15" fill="#66f766" rx="2" ry="2"/>
<text x="13.0" y="414.0">java/util/con..</text>
</g>
<g>
<title>java/util/concurrent/locks/AbstractQueuedSynchronizer.parkAndCheckInterrupt (187 samples, 9.43%)</title><rect x="10.0" y="387.0" width="111.2" height="15" fill="#66f766" rx="2" ry="2"/>
<text x="13.0" y="398.0">java/util/con..</text>
</g>
<g>
<title>java/util/concurrent/locks/LockSupport.park (187 samples, 9.43%)</title><rect x="10.0" y="371.0" width="111.2" height="15" fill="#6afb6a" rx="2" ry="2"/>
<text x="13.0" y="382.0">java/util/con..</text>
</g>
<g>
<title>jdk/internal/misc/Unsafe.park (187 samples, 9.43%)</title><rect x="10.0" y="355.0" width="111.2" height="15" fill="#67f867" rx="2" ry="2"/>
<text x="13.0" y="366.0">jdk/internal/..</text>
</g>
<g>
<title>java.util.concurrent.locks.ReentrantLock$NonfairSync (187 samples, 9.43%)</title><rect x="10.0" y="339.0" width="111.2" height="15" fill="#5ccaca" rx="2" ry="2"/>
<text x="13.0" y="350.0">java.util.con..</text>
</g>
<g>
<title>java/util/concurrent/locks/ReentrantLock.lockInterruptibly (505 samples, 25.45%)</title><rect x="121.2" y="419.0" width="300.4" height="15" fill="#5ced5c" rx="2" ry="2"/>
<text x="124.2" y="430.0">java/util/concurrent/locks/ReentrantLock..</text>
</g>
<g>
<title>java/util/concurrent/locks/AbstractQueuedSynchronizer.acquireInterruptibly (505 samples, 25.45%)</title><rect x="121.2" y="403.0" width="300.4" height="15" fill="#5dee5d" rx="2" ry="2"/>
<text x="124.2" y="414.0">java/util/concurrent/locks/AbstractQueue..</text>
</g>
<g>
<title>java/util/concurrent/locks/AbstractQueuedSynchronizer.doAcquireInterruptibly (505 samples, 25.45%)</title><rect x="121.2" y="387.0" width="300.4" height="15" fill="#6bfc6b" rx="2" ry="2"/>
<text x="124.2" y="398.0">java/util/concurrent/locks/AbstractQueue..</text>
</g>
<g>
<title>java/util/concurrent/locks/AbstractQueuedSynchronizer.parkAndCheckInterrupt (505 samples, 25.45%)</title><rect x="121.2" y="371.0" width="300.4" height="15" fill="#5ff05f" rx="2" ry="2"/>
<text x="124.2" y="382.0">java/util/concurrent/locks/AbstractQueue..</text>
</g>
<g>
<title>java/util/concurrent/locks/LockSupport.park (505 samples, 25.45%)</title><rect x="121.2" y="355.0" width="300.4" height="15" fill="#6dfe6d" rx="2" ry="2"/>
<text x="124.2" y="366.0">java/util/concurrent/locks/LockSupport.p..</text>
</g>
<g>
<title>jdk/internal/misc/Unsafe.park (505 samples, 25.45%)</title><rect x="121.2" y="339.0" width="300.4" height="15" fill="#68f968" rx="2" ry="2"/>
<text x="124.2" y="350.0">jdk/internal/misc/Unsafe.park</text>
</g>
<g>
<title>java.util.concurrent.locks.ReentrantLock$NonfairSync (505 samples, 25.45%)</title><rect x="121.2" y="323.0" width="300.4" height="15" fill="#5ac8c8" rx="2" ry="2"/>
<text x="124.2" y="334.0">java.util.concurrent.locks.ReentrantLock..</text>
</g>
<g>
<title>ru/mail/polis/service/zvladn7/AsyncService$$Lambda$100/919025338.run (536 samples, 27.02%)</title><rect x="421.6" y="451.0" width="318.8" height="15" fill="#63f463" rx="2" ry="2"/>
<text x="424.6" y="462.0">ru/mail/polis/service/zvladn7/AsyncService$..</text>
</g>
<g>
<title>ru/mail/polis/service/zvladn7/AsyncService.lambda$processRequest$6 (536 samples, 27.02%)</title><rect x="421.6" y="435.0" width="318.8" height="15" fill="#54e554" rx="2" ry="2"/>
<text x="424.6" y="446.0">ru/mail/polis/service/zvladn7/AsyncService...</text>
</g>
<g>
<title>ru/mail/polis/service/zvladn7/AsyncService.process (536 samples, 27.02%)</title><rect x="421.6" y="419.0" width="318.8" height="15" fill="#5dee5d" rx="2" ry="2"/>
<text x="424.6" y="430.0">ru/mail/polis/service/zvladn7/AsyncService...</text>
</g>
<g>
<title>ru/mail/polis/service/zvladn7/AsyncService$$Lambda$133/1529390653.process (536 samples, 27.02%)</title><rect x="421.6" y="403.0" width="318.8" height="15" fill="#51e251" rx="2" ry="2"/>
<text x="424.6" y="414.0">ru/mail/polis/service/zvladn7/AsyncService$..</text>
</g>
<g>
<title>ru/mail/polis/service/zvladn7/AsyncService.lambda$get$2 (536 samples, 27.02%)</title><rect x="421.6" y="387.0" width="318.8" height="15" fill="#50e150" rx="2" ry="2"/>
<text x="424.6" y="398.0">ru/mail/polis/service/zvladn7/AsyncService...</text>
</g>
<g>
<title>ru/mail/polis/service/zvladn7/AsyncService.handleGet (536 samples, 27.02%)</title><rect x="421.6" y="371.0" width="318.8" height="15" fill="#53e453" rx="2" ry="2"/>
<text x="424.6" y="382.0">ru/mail/polis/service/zvladn7/AsyncService...</text>
</g>
<g>
<title>com/google/common/cache/LocalCache$LocalManualCache.put (7 samples, 0.35%)</title><rect x="421.6" y="355.0" width="4.1" height="15" fill="#6cfd6c" rx="2" ry="2"/>
<text x="424.6" y="366.0"></text>
</g>
<g>
<title>com/google/common/cache/LocalCache.put (7 samples, 0.35%)</title><rect x="421.6" y="339.0" width="4.1" height="15" fill="#53e453" rx="2" ry="2"/>
<text x="424.6" y="350.0"></text>
</g>
<g>
<title>com/google/common/cache/LocalCache$Segment.put (7 samples, 0.35%)</title><rect x="421.6" y="323.0" width="4.1" height="15" fill="#60f160" rx="2" ry="2"/>
<text x="424.6" y="334.0"></text>
</g>
<g>
<title>java/util/concurrent/locks/ReentrantLock.lock (7 samples, 0.35%)</title><rect x="421.6" y="307.0" width="4.1" height="15" fill="#55e655" rx="2" ry="2"/>
<text x="424.6" y="318.0"></text>
</g>
<g>
<title>java/util/concurrent/locks/AbstractQueuedSynchronizer.acquire (7 samples, 0.35%)</title><rect x="421.6" y="291.0" width="4.1" height="15" fill="#58e958" rx="2" ry="2"/>
<text x="424.6" y="302.0"></text>
</g>
<g>
<title>java/util/concurrent/locks/AbstractQueuedSynchronizer.acquireQueued (7 samples, 0.35%)</title><rect x="421.6" y="275.0" width="4.1" height="15" fill="#64f564" rx="2" ry="2"/>
<text x="424.6" y="286.0"></text>
</g>
<g>
<title>java/util/concurrent/locks/AbstractQueuedSynchronizer.parkAndCheckInterrupt (7 samples, 0.35%)</title><rect x="421.6" y="259.0" width="4.1" height="15" fill="#66f766" rx="2" ry="2"/>
<text x="424.6" y="270.0"></text>
</g>
<g>
<title>java/util/concurrent/locks/LockSupport.park (7 samples, 0.35%)</title><rect x="421.6" y="243.0" width="4.1" height="15" fill="#58e958" rx="2" ry="2"/>
<text x="424.6" y="254.0"></text>
</g>
<g>
<title>jdk/internal/misc/Unsafe.park (7 samples, 0.35%)</title><rect x="421.6" y="227.0" width="4.1" height="15" fill="#53e453" rx="2" ry="2"/>
<text x="424.6" y="238.0"></text>
</g>
<g>
<title>java.util.concurrent.locks.ReentrantLock$NonfairSync (7 samples, 0.35%)</title><rect x="421.6" y="211.0" width="4.1" height="15" fill="#54c2c2" rx="2" ry="2"/>
<text x="424.6" y="222.0"></text>
</g>
<g>
<title>one/nio/http/HttpSession.sendResponse (396 samples, 19.96%)</title><rect x="425.7" y="355.0" width="235.6" height="15" fill="#64f564" rx="2" ry="2"/>
<text x="428.7" y="366.0">one/nio/http/HttpSession.sendRe..</text>
</g>
<g>
<title>one.nio.http.HttpSession (396 samples, 19.96%)</title><rect x="425.7" y="339.0" width="235.6" height="15" fill="#5fcdcd" rx="2" ry="2"/>
<text x="428.7" y="350.0">one.nio.http.HttpSession</text>
</g>
<g>
<title>ru/mail/polis/dao/DAO.get (133 samples, 6.70%)</title><rect x="661.3" y="355.0" width="79.1" height="15" fill="#61f261" rx="2" ry="2"/>
<text x="664.3" y="366.0">ru/mail/p..</text>
</g>
<g>
<title>ru/mail/polis/dao/zvladn7/LsmDAOImpl.iterator (133 samples, 6.70%)</title><rect x="661.3" y="339.0" width="79.1" height="15" fill="#5dee5d" rx="2" ry="2"/>
<text x="664.3" y="350.0">ru/mail/p..</text>
</g>
<g>
<title>ru/mail/polis/dao/zvladn7/LsmDAOImpl.freshCellIterator (133 samples, 6.70%)</title><rect x="661.3" y="323.0" width="79.1" height="15" fill="#57e857" rx="2" ry="2"/>
<text x="664.3" y="334.0">ru/mail/p..</text>
</g>
<g>
<title>com/google/common/collect/Iterators.mergeSorted (15 samples, 0.76%)</title><rect x="661.3" y="307.0" width="8.9" height="15" fill="#5eef5e" rx="2" ry="2"/>
<text x="664.3" y="318.0"></text>
</g>
<g>
<title>com/google/common/collect/Iterators$MergingIterator.&lt;init&gt; (15 samples, 0.76%)</title><rect x="661.3" y="291.0" width="8.9" height="15" fill="#57e857" rx="2" ry="2"/>
<text x="664.3" y="302.0"></text>
</g>
<g>
<title>java/util/PriorityQueue.add (15 samples, 0.76%)</title><rect x="661.3" y="275.0" width="8.9" height="15" fill="#63f463" rx="2" ry="2"/>
<text x="664.3" y="286.0"></text>
</g>
<g>
<title>java/util/PriorityQueue.offer (15 samples, 0.76%)</title><rect x="661.3" y="259.0" width="8.9" height="15" fill="#6afb6a" rx="2" ry="2"/>
<text x="664.3" y="270.0"></text>
</g>
<g>
<title>java/util/PriorityQueue.siftUp (15 samples, 0.76%)</title><rect x="661.3" y="243.0" width="8.9" height="15" fill="#64f564" rx="2" ry="2"/>
<text x="664.3" y="254.0"></text>
</g>
<g>
<title>java/util/PriorityQueue.siftUpUsingComparator (15 samples, 0.76%)</title><rect x="661.3" y="227.0" width="8.9" height="15" fill="#61f261" rx="2" ry="2"/>
<text x="664.3" y="238.0"></text>
</g>
<g>
<title>com/google/common/collect/Iterators$MergingIterator$1.compare (15 samples, 0.76%)</title><rect x="661.3" y="211.0" width="8.9" height="15" fill="#5bec5b" rx="2" ry="2"/>
<text x="664.3" y="222.0"></text>
</g>
<g>
<title>com/google/common/collect/Iterators$MergingIterator$1.compare (15 samples, 0.76%)</title><rect x="661.3" y="195.0" width="8.9" height="15" fill="#63f463" rx="2" ry="2"/>
<text x="664.3" y="206.0"></text>
</g>
<g>
<title>com/google/common/collect/Iterators$PeekingImpl.peek (15 samples, 0.76%)</title><rect x="661.3" y="179.0" width="8.9" height="15" fill="#5bec5b" rx="2" ry="2"/>
<text x="664.3" y="190.0"></text>
</g>
<g>
<title>ru/mail/polis/dao/zvladn7/SSTable$SSTableIter.next (15 samples, 0.76%)</title><rect x="661.3" y="163.0" width="8.9" height="15" fill="#66f766" rx="2" ry="2"/>
<text x="664.3" y="174.0"></text>
</g>
<g>
<title>ru/mail/polis/dao/zvladn7/SSTable$SSTableIter.next (15 samples, 0.76%)</title><rect x="661.3" y="147.0" width="8.9" height="15" fill="#59ea59" rx="2" ry="2"/>
<text x="664.3" y="158.0"></text>
</g>
<g>
<title>ru/mail/polis/dao/zvladn7/SSTable.get (15 samples, 0.76%)</title><rect x="661.3" y="131.0" width="8.9" height="15" fill="#5ff05f" rx="2" ry="2"/>
<text x="664.3" y="142.0"></text>
</g>
<g>
<title>ru/mail/polis/dao/zvladn7/SSTable.getKey (4 samples, 0.20%)</title><rect x="661.3" y="115.0" width="2.3" height="15" fill="#56e756" rx="2" ry="2"/>
<text x="664.3" y="126.0"></text>
</g>
<g>
<title>ru/mail/polis/dao/zvladn7/SSTable.getOffset (1 samples, 0.05%)</title><rect x="661.3" y="99.0" width="0.6" height="15" fill="#5aeb5a" rx="2" ry="2"/>
<text x="664.3" y="110.0"></text>
</g>
<g>
<title>sun/nio/ch/FileChannelImpl.read (1 samples, 0.05%)</title><rect x="661.3" y="83.0" width="0.6" height="15" fill="#60f160" rx="2" ry="2"/>
<text x="664.3" y="94.0"></text>
</g>
<g>
<title>sun/nio/ch/FileChannelImpl.readInternal (1 samples, 0.05%)</title><rect x="661.3" y="67.0" width="0.6" height="15" fill="#59ea59" rx="2" ry="2"/>
<text x="664.3" y="78.0"></text>
</g>
<g>
<title>sun/nio/ch/NativeThreadSet.remove (1 samples, 0.05%)</title><rect x="661.3" y="51.0" width="0.6" height="15" fill="#58e958" rx="2" ry="2"/>
<text x="664.3" y="62.0"></text>
</g>
<g>
<title>sun.nio.ch.NativeThreadSet (1 samples, 0.05%)</title><rect x="661.3" y="35.0" width="0.6" height="15" fill="#64d2d2" rx="2" ry="2"/>
<text x="664.3" y="46.0"></text>
</g>
<g>
<title>sun/nio/ch/FileChannelImpl.read (3 samples, 0.15%)</title><rect x="661.9" y="99.0" width="1.7" height="15" fill="#69fa69" rx="2" ry="2"/>
<text x="664.9" y="110.0"></text>
</g>
<g>
<title>sun/nio/ch/FileChannelImpl.readInternal (3 samples, 0.15%)</title><rect x="661.9" y="83.0" width="1.7" height="15" fill="#5eef5e" rx="2" ry="2"/>
<text x="664.9" y="94.0"></text>
</g>
<g>
<title>sun/nio/ch/NativeThreadSet.remove (3 samples, 0.15%)</title><rect x="661.9" y="67.0" width="1.7" height="15" fill="#6cfd6c" rx="2" ry="2"/>
<text x="664.9" y="78.0"></text>
</g>
<g>
<title>sun.nio.ch.NativeThreadSet (3 samples, 0.15%)</title><rect x="661.9" y="51.0" width="1.7" height="15" fill="#60cece" rx="2" ry="2"/>
<text x="664.9" y="62.0"></text>
</g>
<g>
<title>ru/mail/polis/dao/zvladn7/SSTable.getOffset (5 samples, 0.25%)</title><rect x="663.6" y="115.0" width="3.0" height="15" fill="#56e756" rx="2" ry="2"/>
<text x="666.6" y="126.0"></text>
</g>
<g>
<title>sun/nio/ch/FileChannelImpl.read (5 samples, 0.25%)</title><rect x="663.6" y="99.0" width="3.0" height="15" fill="#57e857" rx="2" ry="2"/>
<text x="666.6" y="110.0"></text>
</g>
<g>
<title>sun/nio/ch/FileChannelImpl.readInternal (5 samples, 0.25%)</title><rect x="663.6" y="83.0" width="3.0" height="15" fill="#63f463" rx="2" ry="2"/>
<text x="666.6" y="94.0"></text>
</g>
<g>
<title>sun/nio/ch/NativeThreadSet.add (2 samples, 0.10%)</title><rect x="663.6" y="67.0" width="1.2" height="15" fill="#5bec5b" rx="2" ry="2"/>
<text x="666.6" y="78.0"></text>
</g>
<g>
<title>sun.nio.ch.NativeThreadSet (2 samples, 0.10%)</title><rect x="663.6" y="51.0" width="1.2" height="15" fill="#6cdada" rx="2" ry="2"/>
<text x="666.6" y="62.0"></text>
</g>
<g>
<title>sun/nio/ch/NativeThreadSet.remove (3 samples, 0.15%)</title><rect x="664.8" y="67.0" width="1.8" height="15" fill="#55e655" rx="2" ry="2"/>
<text x="667.8" y="78.0"></text>
</g>
<g>
<title>sun.nio.ch.NativeThreadSet (3 samples, 0.15%)</title><rect x="664.8" y="51.0" width="1.8" height="15" fill="#6cdada" rx="2" ry="2"/>
<text x="667.8" y="62.0"></text>
</g>
<g>
<title>sun/nio/ch/FileChannelImpl.read (6 samples, 0.30%)</title><rect x="666.6" y="115.0" width="3.6" height="15" fill="#5bec5b" rx="2" ry="2"/>
<text x="669.6" y="126.0"></text>
</g>
<g>
<title>sun/nio/ch/FileChannelImpl.readInternal (6 samples, 0.30%)</title><rect x="666.6" y="99.0" width="3.6" height="15" fill="#5ced5c" rx="2" ry="2"/>
<text x="669.6" y="110.0"></text>
</g>
<g>
<title>sun/nio/ch/NativeThreadSet.remove (6 samples, 0.30%)</title><rect x="666.6" y="83.0" width="3.6" height="15" fill="#5ced5c" rx="2" ry="2"/>
<text x="669.6" y="94.0"></text>
</g>
<g>
<title>sun.nio.ch.NativeThreadSet (6 samples, 0.30%)</title><rect x="666.6" y="67.0" width="3.6" height="15" fill="#62d0d0" rx="2" ry="2"/>
<text x="669.6" y="78.0"></text>
</g>
<g>
<title>ru/mail/polis/dao/zvladn7/LsmDAOImpl.getAllCellItersList (118 samples, 5.95%)</title><rect x="670.2" y="307.0" width="70.2" height="15" fill="#52e352" rx="2" ry="2"/>
<text x="673.2" y="318.0">ru/mail/..</text>
</g>
<g>
<title>java/lang/Iterable.forEach (118 samples, 5.95%)</title><rect x="670.2" y="291.0" width="70.2" height="15" fill="#59ea59" rx="2" ry="2"/>
<text x="673.2" y="302.0">java/lan..</text>
</g>
<g>
<title>ru/mail/polis/dao/zvladn7/LsmDAOImpl$$Lambda$138/910183989.accept (118 samples, 5.95%)</title><rect x="670.2" y="275.0" width="70.2" height="15" fill="#58e958" rx="2" ry="2"/>
<text x="673.2" y="286.0">ru/mail/..</text>
</g>
<g>
<title>ru/mail/polis/dao/zvladn7/LsmDAOImpl.lambda$getAllCellItersList$9 (118 samples, 5.95%)</title><rect x="670.2" y="259.0" width="70.2" height="15" fill="#63f463" rx="2" ry="2"/>
<text x="673.2" y="270.0">ru/mail/..</text>
</g>
<g>
<title>ru/mail/polis/dao/zvladn7/SSTable.iterator (118 samples, 5.95%)</title><rect x="670.2" y="243.0" width="70.2" height="15" fill="#65f665" rx="2" ry="2"/>
<text x="673.2" y="254.0">ru/mail/..</text>
</g>
<g>
<title>ru/mail/polis/dao/zvladn7/SSTable$SSTableIter.&lt;init&gt; (118 samples, 5.95%)</title><rect x="670.2" y="227.0" width="70.2" height="15" fill="#6cfd6c" rx="2" ry="2"/>
<text x="673.2" y="238.0">ru/mail/..</text>
</g>
<g>
<title>ru/mail/polis/dao/zvladn7/SSTable.getElementPosition (118 samples, 5.95%)</title><rect x="670.2" y="211.0" width="70.2" height="15" fill="#51e251" rx="2" ry="2"/>
<text x="673.2" y="222.0">ru/mail/..</text>
</g>
<g>
<title>ru/mail/polis/dao/zvladn7/SSTable.getKey (118 samples, 5.95%)</title><rect x="670.2" y="195.0" width="70.2" height="15" fill="#5dee5d" rx="2" ry="2"/>
<text x="673.2" y="206.0">ru/mail/..</text>
</g>
<g>
<title>ru/mail/polis/dao/zvladn7/SSTable.getOffset (55 samples, 2.77%)</title><rect x="670.2" y="179.0" width="32.7" height="15" fill="#57e857" rx="2" ry="2"/>
<text x="673.2" y="190.0">ru..</text>
</g>
<g>
<title>sun/nio/ch/FileChannelImpl.read (55 samples, 2.77%)</title><rect x="670.2" y="163.0" width="32.7" height="15" fill="#60f160" rx="2" ry="2"/>
<text x="673.2" y="174.0">su..</text>
</g>
<g>
<title>sun/nio/ch/FileChannelImpl.readInternal (55 samples, 2.77%)</title><rect x="670.2" y="147.0" width="32.7" height="15" fill="#63f463" rx="2" ry="2"/>
<text x="673.2" y="158.0">su..</text>
</g>
<g>
<title>sun/nio/ch/NativeThreadSet.add (13 samples, 0.66%)</title><rect x="670.2" y="131.0" width="7.7" height="15" fill="#62f362" rx="2" ry="2"/>
<text x="673.2" y="142.0"></text>
</g>
<g>
<title>sun.nio.ch.NativeThreadSet (13 samples, 0.66%)</title><rect x="670.2" y="115.0" width="7.7" height="15" fill="#53c1c1" rx="2" ry="2"/>
<text x="673.2" y="126.0"></text>
</g>
<g>
<title>sun/nio/ch/NativeThreadSet.remove (42 samples, 2.12%)</title><rect x="677.9" y="131.0" width="25.0" height="15" fill="#6dfe6d" rx="2" ry="2"/>
<text x="680.9" y="142.0">s..</text>
</g>
<g>
<title>sun.nio.ch.NativeThreadSet (42 samples, 2.12%)</title><rect x="677.9" y="115.0" width="25.0" height="15" fill="#6bd9d9" rx="2" ry="2"/>
<text x="680.9" y="126.0">s..</text>
</g>
<g>
<title>sun/nio/ch/FileChannelImpl.read (63 samples, 3.18%)</title><rect x="702.9" y="179.0" width="37.5" height="15" fill="#67f867" rx="2" ry="2"/>
<text x="705.9" y="190.0">sun..</text>
</g>
<g>
<title>sun/nio/ch/FileChannelImpl.readInternal (63 samples, 3.18%)</title><rect x="702.9" y="163.0" width="37.5" height="15" fill="#68f968" rx="2" ry="2"/>
<text x="705.9" y="174.0">sun..</text>
</g>
<g>
<title>sun/nio/ch/NativeThreadSet.add (8 samples, 0.40%)</title><rect x="702.9" y="147.0" width="4.8" height="15" fill="#5bec5b" rx="2" ry="2"/>
<text x="705.9" y="158.0"></text>
</g>
<g>
<title>sun.nio.ch.NativeThreadSet (8 samples, 0.40%)</title><rect x="702.9" y="131.0" width="4.8" height="15" fill="#65d3d3" rx="2" ry="2"/>
<text x="705.9" y="142.0"></text>
</g>
<g>
<title>sun/nio/ch/NativeThreadSet.remove (55 samples, 2.77%)</title><rect x="707.7" y="147.0" width="32.7" height="15" fill="#5bec5b" rx="2" ry="2"/>
<text x="710.7" y="158.0">su..</text>
</g>
<g>
<title>sun.nio.ch.NativeThreadSet (55 samples, 2.77%)</title><rect x="707.7" y="131.0" width="32.7" height="15" fill="#61cfcf" rx="2" ry="2"/>
<text x="710.7" y="142.0">su..</text>
</g>
<g>
<title>one/nio/server/SelectorThread.run (756 samples, 38.10%)</title><rect x="740.4" y="499.0" width="449.6" height="15" fill="#6dfe6d" rx="2" ry="2"/>
<text x="743.4" y="510.0">one/nio/server/SelectorThread.run</text>
</g>
<g>
<title>one/nio/net/Session.process (756 samples, 38.10%)</title><rect x="740.4" y="483.0" width="449.6" height="15" fill="#51e251" rx="2" ry="2"/>
<text x="743.4" y="494.0">one/nio/net/Session.process</text>
</g>
<g>
<title>one/nio/http/HttpSession.processRead (756 samples, 38.10%)</title><rect x="740.4" y="467.0" width="449.6" height="15" fill="#6cfd6c" rx="2" ry="2"/>
<text x="743.4" y="478.0">one/nio/http/HttpSession.processRead</text>
</g>
<g>
<title>one/nio/http/HttpSession.processHttpBuffer (756 samples, 38.10%)</title><rect x="740.4" y="451.0" width="449.6" height="15" fill="#6bfc6b" rx="2" ry="2"/>
<text x="743.4" y="462.0">one/nio/http/HttpSession.processHttpBuffer</text>
</g>
<g>
<title>one/nio/http/HttpSession.handleParsedRequest (756 samples, 38.10%)</title><rect x="740.4" y="435.0" width="449.6" height="15" fill="#56e756" rx="2" ry="2"/>
<text x="743.4" y="446.0">one/nio/http/HttpSession.handleParsedRequest</text>
</g>
<g>
<title>one/nio/http/HttpServer.handleRequest (756 samples, 38.10%)</title><rect x="740.4" y="419.0" width="449.6" height="15" fill="#6afb6a" rx="2" ry="2"/>
<text x="743.4" y="430.0">one/nio/http/HttpServer.handleRequest</text>
</g>
<g>
<title>RequestHandler1_get.handleRequest (756 samples, 38.10%)</title><rect x="740.4" y="403.0" width="449.6" height="15" fill="#58e958" rx="2" ry="2"/>
<text x="743.4" y="414.0">RequestHandler1_get.handleRequest</text>
</g>
<g>
<title>ru/mail/polis/service/zvladn7/AsyncService.get (756 samples, 38.10%)</title><rect x="740.4" y="387.0" width="449.6" height="15" fill="#63f463" rx="2" ry="2"/>
<text x="743.4" y="398.0">ru/mail/polis/service/zvladn7/AsyncService.get</text>
</g>
<g>
<title>ru/mail/polis/service/zvladn7/AsyncService.processRequest (756 samples, 38.10%)</title><rect x="740.4" y="371.0" width="449.6" height="15" fill="#59ea59" rx="2" ry="2"/>
<text x="743.4" y="382.0">ru/mail/polis/service/zvladn7/AsyncService.processRequest</text>
</g>
<g>
<title>java/util/concurrent/ThreadPoolExecutor.execute (756 samples, 38.10%)</title><rect x="740.4" y="355.0" width="449.6" height="15" fill="#6bfc6b" rx="2" ry="2"/>
<text x="743.4" y="366.0">java/util/concurrent/ThreadPoolExecutor.execute</text>
</g>
<g>
<title>java/util/concurrent/ArrayBlockingQueue.offer (756 samples, 38.10%)</title><rect x="740.4" y="339.0" width="449.6" height="15" fill="#65f665" rx="2" ry="2"/>
<text x="743.4" y="350.0">java/util/concurrent/ArrayBlockingQueue.offer</text>
</g>
<g>
<title>java/util/concurrent/locks/ReentrantLock.lock (756 samples, 38.10%)</title><rect x="740.4" y="323.0" width="449.6" height="15" fill="#63f463" rx="2" ry="2"/>
<text x="743.4" y="334.0">java/util/concurrent/locks/ReentrantLock.lock</text>
</g>
<g>
<title>java/util/concurrent/locks/AbstractQueuedSynchronizer.acquire (756 samples, 38.10%)</title><rect x="740.4" y="307.0" width="449.6" height="15" fill="#56e756" rx="2" ry="2"/>
<text x="743.4" y="318.0">java/util/concurrent/locks/AbstractQueuedSynchronizer.acquire</text>
</g>
<g>
<title>java/util/concurrent/locks/AbstractQueuedSynchronizer.acquireQueued (756 samples, 38.10%)</title><rect x="740.4" y="291.0" width="449.6" height="15" fill="#5bec5b" rx="2" ry="2"/>
<text x="743.4" y="302.0">java/util/concurrent/locks/AbstractQueuedSynchronizer.acquireQ..</text>
</g>
<g>
<title>java/util/concurrent/locks/AbstractQueuedSynchronizer.parkAndCheckInterrupt (756 samples, 38.10%)</title><rect x="740.4" y="275.0" width="449.6" height="15" fill="#5aeb5a" rx="2" ry="2"/>
<text x="743.4" y="286.0">java/util/concurrent/locks/AbstractQueuedSynchronizer.parkAndC..</text>
</g>
<g>
<title>java/util/concurrent/locks/LockSupport.park (756 samples, 38.10%)</title><rect x="740.4" y="259.0" width="449.6" height="15" fill="#55e655" rx="2" ry="2"/>
<text x="743.4" y="270.0">java/util/concurrent/locks/LockSupport.park</text>
</g>
<g>
<title>jdk/internal/misc/Unsafe.park (756 samples, 38.10%)</title><rect x="740.4" y="243.0" width="449.6" height="15" fill="#5ced5c" rx="2" ry="2"/>
<text x="743.4" y="254.0">jdk/internal/misc/Unsafe.park</text>
</g>
<g>
<title>java.util.concurrent.locks.ReentrantLock$NonfairSync (756 samples, 38.10%)</title><rect x="740.4" y="227.0" width="449.6" height="15" fill="#68d6d6" rx="2" ry="2"/>
<text x="743.4" y="238.0">java.util.concurrent.locks.ReentrantLock$NonfairSync</text>
</g>
</g>
</svg>
