<?xml version="1.0" standalone="no"?>
<!DOCTYPE svg PUBLIC "-//W3C//DTD SVG 1.1//EN" "http://www.w3.org/Graphics/SVG/1.1/DTD/svg11.dtd">
<svg version="1.1" width="1200" height="390" onload="init(evt)" viewBox="0 0 1200 390" xmlns="http://www.w3.org/2000/svg" xmlns:xlink="http://www.w3.org/1999/xlink">
<style type="text/css">
	text { font-family:Verdana; font-size:12px; fill:rgb(0,0,0); }
	#search { opacity:0.1; cursor:pointer; }
	#search:hover, #search.show { opacity:1; }
	#subtitle { text-anchor:middle; font-color:rgb(160,160,160); }
	#title { text-anchor:middle; font-size:17px}
	#unzoom { cursor:pointer; }
	#frames > *:hover { stroke:black; stroke-width:0.5; cursor:pointer; }
	.hide { display:none; }
	.parent { opacity:0.5; }
</style>
<script type="text/ecmascript">
<![CDATA[
	"use strict";
	var details, searchbtn, unzoombtn, matchedtxt, svg, searching;
	function init(evt) {
		details = document.getElementById("details").firstChild;
		searchbtn = document.getElementById("search");
		unzoombtn = document.getElementById("unzoom");
		matchedtxt = document.getElementById("matched");
		svg = document.getElementsByTagName("svg")[0];
		searching = 0;
	}

	window.addEventListener("click", function(e) {
		var target = find_group(e.target);
		if (target) {
			if (target.nodeName == "a") {
				if (e.ctrlKey === false) return;
				e.preventDefault();
			}
			if (target.classList.contains("parent")) unzoom();
			zoom(target);
		}
		else if (e.target.id == "unzoom") unzoom();
		else if (e.target.id == "search") search_prompt();
	}, false)

	// mouse-over for info
	// show
	window.addEventListener("mouseover", function(e) {
		var target = find_group(e.target);
		if (target) details.nodeValue = "Function: " + g_to_text(target);
	}, false)

	// clear
	window.addEventListener("mouseout", function(e) {
		var target = find_group(e.target);
		if (target) details.nodeValue = ' ';
	}, false)

	// ctrl-F for search
	window.addEventListener("keydown",function (e) {
		if (e.keyCode === 114 || (e.ctrlKey && e.keyCode === 70)) {
			e.preventDefault();
			search_prompt();
		}
	}, false)

	// functions
	function find_child(node, selector) {
		var children = node.querySelectorAll(selector);
		if (children.length) return children[0];
		return;
	}
	function find_group(node) {
		var parent = node.parentElement;
		if (!parent) return;
		if (parent.id == "frames") return node;
		return find_group(parent);
	}
	function orig_save(e, attr, val) {
		if (e.attributes["_orig_" + attr] != undefined) return;
		if (e.attributes[attr] == undefined) return;
		if (val == undefined) val = e.attributes[attr].value;
		e.setAttribute("_orig_" + attr, val);
	}
	function orig_load(e, attr) {
		if (e.attributes["_orig_"+attr] == undefined) return;
		e.attributes[attr].value = e.attributes["_orig_" + attr].value;
		e.removeAttribute("_orig_"+attr);
	}
	function g_to_text(e) {
		var text = find_child(e, "title").firstChild.nodeValue;
		return (text)
	}
	function g_to_func(e) {
		var func = g_to_text(e);
		// if there's any manipulation we want to do to the function
		// name before it's searched, do it here before returning.
		return (func);
	}
	function update_text(e) {
		var r = find_child(e, "rect");
		var t = find_child(e, "text");
		var w = parseFloat(r.attributes.width.value) -3;
		var txt = find_child(e, "title").textContent.replace(/\([^(]*\)$/,"");
		t.attributes.x.value = parseFloat(r.attributes.x.value) + 3;

		// Smaller than this size won't fit anything
		if (w < 2 * 12 * 0.59) {
			t.textContent = "";
			return;
		}

		t.textContent = txt;
		// Fit in full text width
		if (/^ *$/.test(txt) || t.getSubStringLength(0, txt.length) < w)
			return;

		for (var x = txt.length - 2; x > 0; x--) {
			if (t.getSubStringLength(0, x + 2) <= w) {
				t.textContent = txt.substring(0, x) + "..";
				return;
			}
		}
		t.textContent = "";
	}

	// zoom
	function zoom_reset(e) {
		if (e.attributes != undefined) {
			orig_load(e, "x");
			orig_load(e, "width");
		}
		if (e.childNodes == undefined) return;
		for (var i = 0, c = e.childNodes; i < c.length; i++) {
			zoom_reset(c[i]);
		}
	}
	function zoom_child(e, x, ratio) {
		if (e.attributes != undefined) {
			if (e.attributes.x != undefined) {
				orig_save(e, "x");
				e.attributes.x.value = (parseFloat(e.attributes.x.value) - x - 10) * ratio + 10;
				if (e.tagName == "text")
					e.attributes.x.value = find_child(e.parentNode, "rect[x]").attributes.x.value + 3;
			}
			if (e.attributes.width != undefined) {
				orig_save(e, "width");
				e.attributes.width.value = parseFloat(e.attributes.width.value) * ratio;
			}
		}

		if (e.childNodes == undefined) return;
		for (var i = 0, c = e.childNodes; i < c.length; i++) {
			zoom_child(c[i], x - 10, ratio);
		}
	}
	function zoom_parent(e) {
		if (e.attributes) {
			if (e.attributes.x != undefined) {
				orig_save(e, "x");
				e.attributes.x.value = 10;
			}
			if (e.attributes.width != undefined) {
				orig_save(e, "width");
				e.attributes.width.value = parseInt(svg.width.baseVal.value) - (10 * 2);
			}
		}
		if (e.childNodes == undefined) return;
		for (var i = 0, c = e.childNodes; i < c.length; i++) {
			zoom_parent(c[i]);
		}
	}
	function zoom(node) {
		var attr = find_child(node, "rect").attributes;
		var width = parseFloat(attr.width.value);
		var xmin = parseFloat(attr.x.value);
		var xmax = parseFloat(xmin + width);
		var ymin = parseFloat(attr.y.value);
		var ratio = (svg.width.baseVal.value - 2 * 10) / width;

		// XXX: Workaround for JavaScript float issues (fix me)
		var fudge = 0.0001;

		unzoombtn.classList.remove("hide");

		var el = document.getElementById("frames").children;
		for (var i = 0; i < el.length; i++) {
			var e = el[i];
			var a = find_child(e, "rect").attributes;
			var ex = parseFloat(a.x.value);
			var ew = parseFloat(a.width.value);
			var upstack;
			// Is it an ancestor
			if (0 == 0) {
				upstack = parseFloat(a.y.value) > ymin;
			} else {
				upstack = parseFloat(a.y.value) < ymin;
			}
			if (upstack) {
				// Direct ancestor
				if (ex <= xmin && (ex+ew+fudge) >= xmax) {
					e.classList.add("parent");
					zoom_parent(e);
					update_text(e);
				}
				// not in current path
				else
					e.classList.add("hide");
			}
			// Children maybe
			else {
				// no common path
				if (ex < xmin || ex + fudge >= xmax) {
					e.classList.add("hide");
				}
				else {
					zoom_child(e, xmin, ratio);
					update_text(e);
				}
			}
		}
	}
	function unzoom() {
		unzoombtn.classList.add("hide");
		var el = document.getElementById("frames").children;
		for(var i = 0; i < el.length; i++) {
			el[i].classList.remove("parent");
			el[i].classList.remove("hide");
			zoom_reset(el[i]);
			update_text(el[i]);
		}
	}

	// search
	function reset_search() {
		var el = document.querySelectorAll("#frames rect");
		for (var i = 0; i < el.length; i++) {
			orig_load(el[i], "fill")
		}
	}
	function search_prompt() {
		if (!searching) {
			var term = prompt("Enter a search term (regexp " +
			    "allowed, eg: ^ext4_)", "");
			if (term != null) {
				search(term)
			}
		} else {
			reset_search();
			searching = 0;
			searchbtn.classList.remove("show");
			searchbtn.firstChild.nodeValue = "Search"
			matchedtxt.classList.add("hide");
			matchedtxt.firstChild.nodeValue = ""
		}
	}
	function search(term) {
		var re = new RegExp(term);
		var el = document.getElementById("frames").children;
		var matches = new Object();
		var maxwidth = 0;
		for (var i = 0; i < el.length; i++) {
			var e = el[i];
			var func = g_to_func(e);
			var rect = find_child(e, "rect");
			if (func == null || rect == null)
				continue;

			// Save max width. Only works as we have a root frame
			var w = parseFloat(rect.attributes.width.value);
			if (w > maxwidth)
				maxwidth = w;

			if (func.match(re)) {
				// highlight
				var x = parseFloat(rect.attributes.x.value);
				orig_save(rect, "fill");
				rect.attributes.fill.value = "rgb(230,0,230)";

				// remember matches
				if (matches[x] == undefined) {
					matches[x] = w;
				} else {
					if (w > matches[x]) {
						// overwrite with parent
						matches[x] = w;
					}
				}
				searching = 1;
			}
		}
		if (!searching)
			return;

		searchbtn.classList.add("show");
		searchbtn.firstChild.nodeValue = "Reset Search";

		// calculate percent matched, excluding vertical overlap
		var count = 0;
		var lastx = -1;
		var lastw = 0;
		var keys = Array();
		for (k in matches) {
			if (matches.hasOwnProperty(k))
				keys.push(k);
		}
		// sort the matched frames by their x location
		// ascending, then width descending
		keys.sort(function(a, b){
			return a - b;
		});
		// Step through frames saving only the biggest bottom-up frames
		// thanks to the sort order. This relies on the tree property
		// where children are always smaller than their parents.
		var fudge = 0.0001;	// JavaScript floating point
		for (var k in keys) {
			var x = parseFloat(keys[k]);
			var w = matches[keys[k]];
			if (x >= lastx + lastw - fudge) {
				count += w;
				lastx = x;
				lastw = w;
			}
		}
		// display matched percent
		matchedtxt.classList.remove("hide");
		var pct = 100 * count / maxwidth;
		if (pct != 100) pct = pct.toFixed(1)
		matchedtxt.firstChild.nodeValue = "Matched: " + pct + "%";
	}
]]>
</script>
<rect x="0" y="0" width="100%" height="100%" fill="rgb(240,240,220)"/>
<text id="title" x="600" y="24">PUT unduplicated keys (#1)</text>
<text id="details" x="10" y="373"> </text>
<text id="unzoom" x="10" y="24" class="hide">Reset Zoom</text>
<text id="search" x="1090" y="24">Search</text>
<text id="matched" x="1090" y="373"> </text>
<g id="frames">
<g>
<title>all (39,515 samples, 100.00%)</title><rect x="10.0" y="339.0" width="1180.0" height="15" fill="#e86464" rx="2" ry="2"/>
<text x="13.0" y="350.0">all</text>
</g>
<g>
<title>java/lang/Thread.run (20,548 samples, 52.00%)</title><rect x="10.0" y="323.0" width="613.6" height="15" fill="#6cfd6c" rx="2" ry="2"/>
<text x="13.0" y="334.0">java/lang/Thread.run</text>
</g>
<g>
<title>java/util/concurrent/ThreadPoolExecutor$Worker.run (20,548 samples, 52.00%)</title><rect x="10.0" y="307.0" width="613.6" height="15" fill="#52e352" rx="2" ry="2"/>
<text x="13.0" y="318.0">java/util/concurrent/ThreadPoolExecutor$Worker.run</text>
</g>
<g>
<title>java/util/concurrent/ThreadPoolExecutor.runWorker (20,548 samples, 52.00%)</title><rect x="10.0" y="291.0" width="613.6" height="15" fill="#58e958" rx="2" ry="2"/>
<text x="13.0" y="302.0">java/util/concurrent/ThreadPoolExecutor.runWorker</text>
</g>
<g>
<title>java/util/concurrent/ThreadPoolExecutor.getTask (603 samples, 1.53%)</title><rect x="10.0" y="275.0" width="18.0" height="15" fill="#66f766" rx="2" ry="2"/>
<text x="13.0" y="286.0"></text>
</g>
<g>
<title>java/util/concurrent/ArrayBlockingQueue.take (603 samples, 1.53%)</title><rect x="10.0" y="259.0" width="18.0" height="15" fill="#5eef5e" rx="2" ry="2"/>
<text x="13.0" y="270.0"></text>
</g>
<g>
<title>java/util/concurrent/locks/AbstractQueuedSynchronizer$ConditionObject.await (603 samples, 1.53%)</title><rect x="10.0" y="243.0" width="18.0" height="15" fill="#69fa69" rx="2" ry="2"/>
<text x="13.0" y="254.0"></text>
</g>
<g>
<title>java/util/concurrent/locks/AbstractQueuedSynchronizer$ConditionObject.addConditionWaiter (603 samples, 1.53%)</title><rect x="10.0" y="227.0" width="18.0" height="15" fill="#68f968" rx="2" ry="2"/>
<text x="13.0" y="238.0"></text>
</g>
<g>
<title>java.util.concurrent.locks.AbstractQueuedSynchronizer$Node (603 samples, 1.53%)</title><rect x="10.0" y="211.0" width="18.0" height="15" fill="#5fcdcd" rx="2" ry="2"/>
<text x="13.0" y="222.0"></text>
</g>
<g>
<title>ru/mail/polis/service/codearound/RepliServiceImpl$$Lambda$75/1280889908.run (19,945 samples, 50.47%)</title><rect x="28.0" y="275.0" width="595.6" height="15" fill="#63f463" rx="2" ry="2"/>
<text x="31.0" y="286.0">ru/mail/polis/service/codearound/RepliServiceImpl$$Lambda$75/1280889908.run</text>
</g>
<g>
<title>ru/mail/polis/service/codearound/RepliServiceImpl.lambda$runAsyncHandler$6 (19,945 samples, 50.47%)</title><rect x="28.0" y="259.0" width="595.6" height="15" fill="#61f261" rx="2" ry="2"/>
<text x="31.0" y="270.0">ru/mail/polis/service/codearound/RepliServiceImpl.lambda$runAsyncHandler$6</text>
</g>
<g>
<title>one/nio/http/HttpSession.sendResponse (3,024 samples, 7.65%)</title><rect x="28.0" y="243.0" width="90.3" height="15" fill="#60f160" rx="2" ry="2"/>
<text x="31.0" y="254.0">one/nio/ht..</text>
</g>
<g>
<title>one/nio/http/HttpSession.writeResponse (2,410 samples, 6.10%)</title><rect x="28.0" y="227.0" width="72.0" height="15" fill="#55e655" rx="2" ry="2"/>
<text x="31.0" y="238.0">one/nio/..</text>
</g>
<g>
<title>one/nio/http/Response.toBytes (1,496 samples, 3.79%)</title><rect x="28.0" y="211.0" width="44.7" height="15" fill="#6bfc6b" rx="2" ry="2"/>
<text x="31.0" y="222.0">one/..</text>
</g>
<g>
<title>one/nio/util/ByteArrayBuilder.&lt;init&gt; (1,496 samples, 3.79%)</title><rect x="28.0" y="195.0" width="44.7" height="15" fill="#6dfe6d" rx="2" ry="2"/>
<text x="31.0" y="206.0">one/..</text>
</g>
<g>
<title>byte[] (1,496 samples, 3.79%)</title><rect x="28.0" y="179.0" width="44.7" height="15" fill="#55c3c3" rx="2" ry="2"/>
<text x="31.0" y="190.0">byte[]</text>
</g>
<g>
<title>one/nio/net/Session.write (914 samples, 2.31%)</title><rect x="72.7" y="211.0" width="27.3" height="15" fill="#5aeb5a" rx="2" ry="2"/>
<text x="75.7" y="222.0">o..</text>
</g>
<g>
<title>one.nio.net.Session$ArrayQueueItem (914 samples, 2.31%)</title><rect x="72.7" y="195.0" width="27.3" height="15" fill="#60cece" rx="2" ry="2"/>
<text x="75.7" y="206.0">o..</text>
</g>
<g>
<title>one/nio/http/Request.getHeader (614 samples, 1.55%)</title><rect x="100.0" y="227.0" width="18.3" height="15" fill="#54e554" rx="2" ry="2"/>
<text x="103.0" y="238.0"></text>
</g>
<g>
<title>java/lang/String.substring (614 samples, 1.55%)</title><rect x="100.0" y="211.0" width="18.3" height="15" fill="#56e756" rx="2" ry="2"/>
<text x="103.0" y="222.0"></text>
</g>
<g>
<title>java/lang/StringLatin1.newString (614 samples, 1.55%)</title><rect x="100.0" y="195.0" width="18.3" height="15" fill="#67f867" rx="2" ry="2"/>
<text x="103.0" y="206.0"></text>
</g>
<g>
<title>java.lang.String (266 samples, 0.67%)</title><rect x="100.0" y="179.0" width="7.9" height="15" fill="#69d7d7" rx="2" ry="2"/>
<text x="103.0" y="190.0"></text>
</g>
<g>
<title>java/util/Arrays.copyOfRange (348 samples, 0.88%)</title><rect x="107.9" y="179.0" width="10.4" height="15" fill="#62f362" rx="2" ry="2"/>
<text x="110.9" y="190.0"></text>
</g>
<g>
<title>byte[] (348 samples, 0.88%)</title><rect x="107.9" y="163.0" width="10.4" height="15" fill="#5dcbcb" rx="2" ry="2"/>
<text x="110.9" y="174.0"></text>
</g>
<g>
<title>ru/mail/polis/service/codearound/RepliServiceImpl$$Lambda$74/1361385511.exec (16,921 samples, 42.82%)</title><rect x="118.3" y="243.0" width="505.3" height="15" fill="#61f261" rx="2" ry="2"/>
<text x="121.3" y="254.0">ru/mail/polis/service/codearound/RepliServiceImpl$$Lambda$74/136138551..</text>
</g>
<g>
<title>ru/mail/polis/service/codearound/RepliServiceImpl.lambda$entity$1 (16,921 samples, 42.82%)</title><rect x="118.3" y="227.0" width="505.3" height="15" fill="#60f160" rx="2" ry="2"/>
<text x="121.3" y="238.0">ru/mail/polis/service/codearound/RepliServiceImpl.lambda$entity$1</text>
</g>
<g>
<title>ru/mail/polis/service/codearound/ReplicationLsm.upsertWithMultipleNodes (16,921 samples, 42.82%)</title><rect x="118.3" y="211.0" width="505.3" height="15" fill="#5ff05f" rx="2" ry="2"/>
<text x="121.3" y="222.0">ru/mail/polis/service/codearound/ReplicationLsm.upsertWithMultipleNodes</text>
</g>
<g>
<title>java/lang/String.getBytes (675 samples, 1.71%)</title><rect x="118.5" y="195.0" width="20.2" height="15" fill="#6dfe6d" rx="2" ry="2"/>
<text x="121.5" y="206.0"></text>
</g>
<g>
<title>java/lang/StringCoding.encode (675 samples, 1.71%)</title><rect x="118.5" y="179.0" width="20.2" height="15" fill="#51e251" rx="2" ry="2"/>
<text x="121.5" y="190.0"></text>
</g>
<g>
<title>java/lang/StringCoding.encodeUTF8 (675 samples, 1.71%)</title><rect x="118.5" y="163.0" width="20.2" height="15" fill="#50e150" rx="2" ry="2"/>
<text x="121.5" y="174.0"></text>
</g>
<g>
<title>java/util/Arrays.copyOf (675 samples, 1.71%)</title><rect x="118.5" y="147.0" width="20.2" height="15" fill="#5ced5c" rx="2" ry="2"/>
<text x="121.5" y="158.0"></text>
</g>
<g>
<title>byte[] (675 samples, 1.71%)</title><rect x="118.5" y="131.0" width="20.2" height="15" fill="#59c7c7" rx="2" ry="2"/>
<text x="121.5" y="142.0"></text>
</g>
<g>
<title>java/lang/invoke/Invokers$Holder.linkToTargetMethod (29 samples, 0.07%)</title><rect x="138.7" y="195.0" width="0.9" height="15" fill="#6dfe6d" rx="2" ry="2"/>
<text x="141.7" y="206.0"></text>
</g>
<g>
<title>java/lang/invoke/LambdaForm$MH/1730173572.invoke (29 samples, 0.07%)</title><rect x="138.7" y="179.0" width="0.9" height="15" fill="#5ff05f" rx="2" ry="2"/>
<text x="141.7" y="190.0"></text>
</g>
<g>
<title>java/lang/invoke/DirectMethodHandle$Holder.invokeStatic (29 samples, 0.07%)</title><rect x="138.7" y="163.0" width="0.9" height="15" fill="#62f362" rx="2" ry="2"/>
<text x="141.7" y="174.0"></text>
</g>
<g>
<title>java/lang/StringConcatHelper.newString (9 samples, 0.02%)</title><rect x="138.7" y="147.0" width="0.3" height="15" fill="#65f665" rx="2" ry="2"/>
<text x="141.7" y="158.0"></text>
</g>
<g>
<title>java.lang.String (9 samples, 0.02%)</title><rect x="138.7" y="131.0" width="0.3" height="15" fill="#6ddbdb" rx="2" ry="2"/>
<text x="141.7" y="142.0"></text>
</g>
<g>
<title>java/lang/invoke/StringConcatFactory$MethodHandleInlineCopyStrategy.newArray (20 samples, 0.05%)</title><rect x="139.0" y="147.0" width="0.6" height="15" fill="#5eef5e" rx="2" ry="2"/>
<text x="142.0" y="158.0"></text>
</g>
<g>
<title>jdk/internal/misc/Unsafe.allocateUninitializedArray (20 samples, 0.05%)</title><rect x="139.0" y="131.0" width="0.6" height="15" fill="#5ff05f" rx="2" ry="2"/>
<text x="142.0" y="142.0"></text>
</g>
<g>
<title>byte[] (20 samples, 0.05%)</title><rect x="139.0" y="115.0" width="0.6" height="15" fill="#5fcdcd" rx="2" ry="2"/>
<text x="142.0" y="126.0"></text>
</g>
<g>
<title>java/nio/ByteBuffer.wrap (2,162 samples, 5.47%)</title><rect x="139.6" y="195.0" width="64.5" height="15" fill="#53e453" rx="2" ry="2"/>
<text x="142.6" y="206.0">java/ni..</text>
</g>
<g>
<title>java/nio/ByteBuffer.wrap (2,162 samples, 5.47%)</title><rect x="139.6" y="179.0" width="64.5" height="15" fill="#53e453" rx="2" ry="2"/>
<text x="142.6" y="190.0">java/ni..</text>
</g>
<g>
<title>java.nio.HeapByteBuffer (2,162 samples, 5.47%)</title><rect x="139.6" y="163.0" width="64.5" height="15" fill="#51bfbf" rx="2" ry="2"/>
<text x="142.6" y="174.0">java.ni..</text>
</g>
<g>
<title>one.nio.http.Response (258 samples, 0.65%)</title><rect x="204.1" y="195.0" width="7.7" height="15" fill="#58c6c6" rx="2" ry="2"/>
<text x="207.1" y="206.0"></text>
</g>
<g>
<title>one/nio/http/HttpClient.put (7,706 samples, 19.50%)</title><rect x="211.8" y="195.0" width="230.2" height="15" fill="#51e251" rx="2" ry="2"/>
<text x="214.8" y="206.0">one/nio/http/HttpClient.put</text>
</g>
<g>
<title>byte[] (14 samples, 0.04%)</title><rect x="211.8" y="179.0" width="0.5" height="15" fill="#50bebe" rx="2" ry="2"/>
<text x="214.8" y="190.0"></text>
</g>
<g>
<title>java.lang.String (10 samples, 0.03%)</title><rect x="212.3" y="179.0" width="0.3" height="15" fill="#5ecccc" rx="2" ry="2"/>
<text x="215.3" y="190.0"></text>
</g>
<g>
<title>one/nio/http/HttpClient.createRequest (61 samples, 0.15%)</title><rect x="212.6" y="179.0" width="1.8" height="15" fill="#5bec5b" rx="2" ry="2"/>
<text x="215.6" y="190.0"></text>
</g>
<g>
<title>one.nio.http.Request (18 samples, 0.05%)</title><rect x="212.6" y="163.0" width="0.5" height="15" fill="#60cece" rx="2" ry="2"/>
<text x="215.6" y="174.0"></text>
</g>
<g>
<title>one/nio/http/Request.&lt;init&gt; (43 samples, 0.11%)</title><rect x="213.1" y="163.0" width="1.3" height="15" fill="#62f362" rx="2" ry="2"/>
<text x="216.1" y="174.0"></text>
</g>
<g>
<title>java.lang.String[] (43 samples, 0.11%)</title><rect x="213.1" y="147.0" width="1.3" height="15" fill="#62d0d0" rx="2" ry="2"/>
<text x="216.1" y="158.0"></text>
</g>
<g>
<title>one/nio/http/HttpClient.invoke (7,621 samples, 19.29%)</title><rect x="214.4" y="179.0" width="227.6" height="15" fill="#5aeb5a" rx="2" ry="2"/>
<text x="217.4" y="190.0">one/nio/http/HttpClient.invoke</text>
</g>
<g>
<title>one/nio/http/HttpClient.invoke (7,621 samples, 19.29%)</title><rect x="214.4" y="163.0" width="227.6" height="15" fill="#5eef5e" rx="2" ry="2"/>
<text x="217.4" y="174.0">one/nio/http/HttpClient.invoke</text>
</g>
<g>
<title>one.nio.http.HttpClient$ResponseReader (38 samples, 0.10%)</title><rect x="214.4" y="147.0" width="1.1" height="15" fill="#56c4c4" rx="2" ry="2"/>
<text x="217.4" y="158.0"></text>
</g>
<g>
<title>one/nio/http/HttpClient$ResponseReader.&lt;init&gt; (6,820 samples, 17.26%)</title><rect x="215.5" y="147.0" width="203.7" height="15" fill="#67f867" rx="2" ry="2"/>
<text x="218.5" y="158.0">one/nio/http/HttpClient$Res..</text>
</g>
<g>
<title>byte[] (6,736 samples, 17.05%)</title><rect x="215.5" y="131.0" width="201.2" height="15" fill="#51bfbf" rx="2" ry="2"/>
<text x="218.5" y="142.0">byte[]</text>
</g>
<g>
<title>byte[] (84 samples, 0.21%)</title><rect x="416.7" y="131.0" width="2.5" height="15" fill="#f79300" rx="2" ry="2"/>
<text x="419.7" y="142.0"></text>
</g>
<g>
<title>one/nio/http/HttpClient$ResponseReader.readResponse (577 samples, 1.46%)</title><rect x="419.2" y="147.0" width="17.2" height="15" fill="#59ea59" rx="2" ry="2"/>
<text x="422.2" y="158.0"></text>
</g>
<g>
<title>java/lang/String.substring (38 samples, 0.10%)</title><rect x="419.3" y="131.0" width="1.1" height="15" fill="#51e251" rx="2" ry="2"/>
<text x="422.3" y="142.0"></text>
</g>
<g>
<title>java/lang/StringLatin1.newString (38 samples, 0.10%)</title><rect x="419.3" y="115.0" width="1.1" height="15" fill="#68f968" rx="2" ry="2"/>
<text x="422.3" y="126.0"></text>
</g>
<g>
<title>java.lang.String (14 samples, 0.04%)</title><rect x="419.3" y="99.0" width="0.4" height="15" fill="#5ac8c8" rx="2" ry="2"/>
<text x="422.3" y="110.0"></text>
</g>
<g>
<title>java/util/Arrays.copyOfRange (24 samples, 0.06%)</title><rect x="419.7" y="99.0" width="0.7" height="15" fill="#5eef5e" rx="2" ry="2"/>
<text x="422.7" y="110.0"></text>
</g>
<g>
<title>byte[] (24 samples, 0.06%)</title><rect x="419.7" y="83.0" width="0.7" height="15" fill="#54c2c2" rx="2" ry="2"/>
<text x="422.7" y="94.0"></text>
</g>
<g>
<title>one.nio.http.Response (17 samples, 0.04%)</title><rect x="420.4" y="131.0" width="0.5" height="15" fill="#59c7c7" rx="2" ry="2"/>
<text x="423.4" y="142.0"></text>
</g>
<g>
<title>one/nio/http/HttpClient$ResponseReader.readLine (466 samples, 1.18%)</title><rect x="420.9" y="131.0" width="13.9" height="15" fill="#6dfe6d" rx="2" ry="2"/>
<text x="423.9" y="142.0"></text>
</g>
<g>
<title>one/nio/util/Utf8.read (466 samples, 1.18%)</title><rect x="420.9" y="115.0" width="13.9" height="15" fill="#66f766" rx="2" ry="2"/>
<text x="423.9" y="126.0"></text>
</g>
<g>
<title>one/nio/util/Utf8.read (466 samples, 1.18%)</title><rect x="420.9" y="99.0" width="13.9" height="15" fill="#51e251" rx="2" ry="2"/>
<text x="423.9" y="110.0"></text>
</g>
<g>
<title>char[] (251 samples, 0.64%)</title><rect x="420.9" y="83.0" width="7.5" height="15" fill="#6ddbdb" rx="2" ry="2"/>
<text x="423.9" y="94.0"></text>
</g>
<g>
<title>java.lang.String (148 samples, 0.37%)</title><rect x="428.4" y="83.0" width="4.4" height="15" fill="#56c4c4" rx="2" ry="2"/>
<text x="431.4" y="94.0"></text>
</g>
<g>
<title>java/lang/String.&lt;init&gt; (67 samples, 0.17%)</title><rect x="432.8" y="83.0" width="2.0" height="15" fill="#61f261" rx="2" ry="2"/>
<text x="435.8" y="94.0"></text>
</g>
<g>
<title>java/lang/String.&lt;init&gt; (67 samples, 0.17%)</title><rect x="432.8" y="67.0" width="2.0" height="15" fill="#5eef5e" rx="2" ry="2"/>
<text x="435.8" y="78.0"></text>
</g>
<g>
<title>java/lang/StringUTF16.compress (67 samples, 0.17%)</title><rect x="432.8" y="51.0" width="2.0" height="15" fill="#5aeb5a" rx="2" ry="2"/>
<text x="435.8" y="62.0"></text>
</g>
<g>
<title>byte[] (67 samples, 0.17%)</title><rect x="432.8" y="35.0" width="2.0" height="15" fill="#65d3d3" rx="2" ry="2"/>
<text x="435.8" y="46.0"></text>
</g>
<g>
<title>one/nio/http/Response.&lt;init&gt; (26 samples, 0.07%)</title><rect x="434.8" y="131.0" width="0.8" height="15" fill="#60f160" rx="2" ry="2"/>
<text x="437.8" y="142.0"></text>
</g>
<g>
<title>java.lang.String[] (26 samples, 0.07%)</title><rect x="434.8" y="115.0" width="0.8" height="15" fill="#62d0d0" rx="2" ry="2"/>
<text x="437.8" y="126.0"></text>
</g>
<g>
<title>one/nio/http/Response.getHeader (26 samples, 0.07%)</title><rect x="435.6" y="131.0" width="0.8" height="15" fill="#66f766" rx="2" ry="2"/>
<text x="438.6" y="142.0"></text>
</g>
<g>
<title>java/lang/String.substring (26 samples, 0.07%)</title><rect x="435.6" y="115.0" width="0.8" height="15" fill="#60f160" rx="2" ry="2"/>
<text x="438.6" y="126.0"></text>
</g>
<g>
<title>java/lang/StringLatin1.newString (26 samples, 0.07%)</title><rect x="435.6" y="99.0" width="0.8" height="15" fill="#53e453" rx="2" ry="2"/>
<text x="438.6" y="110.0"></text>
</g>
<g>
<title>java.lang.String (14 samples, 0.04%)</title><rect x="435.6" y="83.0" width="0.4" height="15" fill="#54c2c2" rx="2" ry="2"/>
<text x="438.6" y="94.0"></text>
</g>
<g>
<title>java/util/Arrays.copyOfRange (12 samples, 0.03%)</title><rect x="436.0" y="83.0" width="0.4" height="15" fill="#53e453" rx="2" ry="2"/>
<text x="439.0" y="94.0"></text>
</g>
<g>
<title>byte[] (12 samples, 0.03%)</title><rect x="436.0" y="67.0" width="0.4" height="15" fill="#65d3d3" rx="2" ry="2"/>
<text x="439.0" y="78.0"></text>
</g>
<g>
<title>one/nio/http/Request.toBytes (142 samples, 0.36%)</title><rect x="436.4" y="147.0" width="4.2" height="15" fill="#66f766" rx="2" ry="2"/>
<text x="439.4" y="158.0"></text>
</g>
<g>
<title>one/nio/util/ByteArrayBuilder.&lt;init&gt; (142 samples, 0.36%)</title><rect x="436.4" y="131.0" width="4.2" height="15" fill="#5eef5e" rx="2" ry="2"/>
<text x="439.4" y="142.0"></text>
</g>
<g>
<title>byte[] (142 samples, 0.36%)</title><rect x="436.4" y="115.0" width="4.2" height="15" fill="#56c4c4" rx="2" ry="2"/>
<text x="439.4" y="126.0"></text>
</g>
<g>
<title>one/nio/http/Response.getHeader (31 samples, 0.08%)</title><rect x="440.6" y="147.0" width="1.0" height="15" fill="#6cfd6c" rx="2" ry="2"/>
<text x="443.6" y="158.0"></text>
</g>
<g>
<title>java/lang/String.substring (31 samples, 0.08%)</title><rect x="440.6" y="131.0" width="1.0" height="15" fill="#57e857" rx="2" ry="2"/>
<text x="443.6" y="142.0"></text>
</g>
<g>
<title>java/lang/StringLatin1.newString (31 samples, 0.08%)</title><rect x="440.6" y="115.0" width="1.0" height="15" fill="#57e857" rx="2" ry="2"/>
<text x="443.6" y="126.0"></text>
</g>
<g>
<title>java.lang.String (14 samples, 0.04%)</title><rect x="440.6" y="99.0" width="0.5" height="15" fill="#65d3d3" rx="2" ry="2"/>
<text x="443.6" y="110.0"></text>
</g>
<g>
<title>java/util/Arrays.copyOfRange (17 samples, 0.04%)</title><rect x="441.1" y="99.0" width="0.5" height="15" fill="#61f261" rx="2" ry="2"/>
<text x="444.1" y="110.0"></text>
</g>
<g>
<title>byte[] (17 samples, 0.04%)</title><rect x="441.1" y="83.0" width="0.5" height="15" fill="#59c7c7" rx="2" ry="2"/>
<text x="444.1" y="94.0"></text>
</g>
<g>
<title>one/nio/pool/Pool.returnObject (13 samples, 0.03%)</title><rect x="441.6" y="147.0" width="0.4" height="15" fill="#60f160" rx="2" ry="2"/>
<text x="444.6" y="158.0"></text>
</g>
<g>
<title>java/util/LinkedList.addFirst (13 samples, 0.03%)</title><rect x="441.6" y="131.0" width="0.4" height="15" fill="#6cfd6c" rx="2" ry="2"/>
<text x="444.6" y="142.0"></text>
</g>
<g>
<title>java/util/LinkedList.linkFirst (13 samples, 0.03%)</title><rect x="441.6" y="115.0" width="0.4" height="15" fill="#67f867" rx="2" ry="2"/>
<text x="444.6" y="126.0"></text>
</g>
<g>
<title>java.util.LinkedList$Node (13 samples, 0.03%)</title><rect x="441.6" y="99.0" width="0.4" height="15" fill="#64d2d2" rx="2" ry="2"/>
<text x="444.6" y="110.0"></text>
</g>
<g>
<title>one/nio/http/Response.&lt;init&gt; (1,106 samples, 2.80%)</title><rect x="442.0" y="195.0" width="33.0" height="15" fill="#58e958" rx="2" ry="2"/>
<text x="445.0" y="206.0">on..</text>
</g>
<g>
<title>byte[] (398 samples, 1.01%)</title><rect x="442.0" y="179.0" width="11.8" height="15" fill="#67d5d5" rx="2" ry="2"/>
<text x="445.0" y="190.0"></text>
</g>
<g>
<title>java.lang.String[] (331 samples, 0.84%)</title><rect x="453.8" y="179.0" width="9.9" height="15" fill="#5dcbcb" rx="2" ry="2"/>
<text x="456.8" y="190.0"></text>
</g>
<g>
<title>java.lang.String (377 samples, 0.95%)</title><rect x="463.7" y="179.0" width="11.3" height="15" fill="#59c7c7" rx="2" ry="2"/>
<text x="466.7" y="190.0"></text>
</g>
<g>
<title>ru/mail/polis/service/codearound/TaskDAO.upsertValue (4,971 samples, 12.58%)</title><rect x="475.2" y="195.0" width="148.4" height="15" fill="#67f867" rx="2" ry="2"/>
<text x="478.2" y="206.0">ru/mail/polis/servi..</text>
</g>
<g>
<title>ru/mail/polis/service/codearound/DAOByteOnlyConverter.tuneBufToArray (406 samples, 1.03%)</title><rect x="475.2" y="179.0" width="12.1" height="15" fill="#64f564" rx="2" ry="2"/>
<text x="478.2" y="190.0"></text>
</g>
<g>
<title>ru/mail/polis/service/codearound/DAOByteOnlyConverter.readByteArray (406 samples, 1.03%)</title><rect x="475.2" y="163.0" width="12.1" height="15" fill="#6bfc6b" rx="2" ry="2"/>
<text x="478.2" y="174.0"></text>
</g>
<g>
<title>byte[] (406 samples, 1.03%)</title><rect x="475.2" y="147.0" width="12.1" height="15" fill="#58c6c6" rx="2" ry="2"/>
<text x="478.2" y="158.0"></text>
</g>
<g>
<title>ru/mail/polis/service/codearound/Value.getBytesFromValue (4,565 samples, 11.55%)</title><rect x="487.3" y="179.0" width="136.3" height="15" fill="#50e150" rx="2" ry="2"/>
<text x="490.3" y="190.0">ru/mail/polis/ser..</text>
</g>
<g>
<title>java/nio/ByteBuffer.allocate (4,565 samples, 11.55%)</title><rect x="487.3" y="163.0" width="136.3" height="15" fill="#62f362" rx="2" ry="2"/>
<text x="490.3" y="174.0">java/nio/ByteBuff..</text>
</g>
<g>
<title>java/nio/HeapByteBuffer.&lt;init&gt; (4,565 samples, 11.55%)</title><rect x="487.3" y="147.0" width="136.3" height="15" fill="#68f968" rx="2" ry="2"/>
<text x="490.3" y="158.0">java/nio/HeapByte..</text>
</g>
<g>
<title>byte[] (4,565 samples, 11.55%)</title><rect x="487.3" y="131.0" width="136.3" height="15" fill="#63d1d1" rx="2" ry="2"/>
<text x="490.3" y="142.0">byte[]</text>
</g>
<g>
<title>one/nio/server/SelectorThread.run (18,967 samples, 48.00%)</title><rect x="623.6" y="323.0" width="566.4" height="15" fill="#5aeb5a" rx="2" ry="2"/>
<text x="626.6" y="334.0">one/nio/server/SelectorThread.run</text>
</g>
<g>
<title>one/nio/net/NativeSelector.select (323 samples, 0.82%)</title><rect x="623.6" y="307.0" width="9.7" height="15" fill="#5bec5b" rx="2" ry="2"/>
<text x="626.6" y="318.0"></text>
</g>
<g>
<title>one.nio.net.NativeSelector$2 (323 samples, 0.82%)</title><rect x="623.6" y="291.0" width="9.7" height="15" fill="#66d4d4" rx="2" ry="2"/>
<text x="626.6" y="302.0"></text>
</g>
<g>
<title>one/nio/net/Session.process (18,644 samples, 47.18%)</title><rect x="633.3" y="307.0" width="556.7" height="15" fill="#5ff05f" rx="2" ry="2"/>
<text x="636.3" y="318.0">one/nio/net/Session.process</text>
</g>
<g>
<title>one/nio/http/HttpSession.processRead (18,644 samples, 47.18%)</title><rect x="633.3" y="291.0" width="556.7" height="15" fill="#5ff05f" rx="2" ry="2"/>
<text x="636.3" y="302.0">one/nio/http/HttpSession.processRead</text>
</g>
<g>
<title>one/nio/http/HttpSession.processHttpBuffer (18,644 samples, 47.18%)</title><rect x="633.3" y="275.0" width="556.7" height="15" fill="#5eef5e" rx="2" ry="2"/>
<text x="636.3" y="286.0">one/nio/http/HttpSession.processHttpBuffer</text>
</g>
<g>
<title>one/nio/http/HttpSession.handleParsedRequest (2,366 samples, 5.99%)</title><rect x="633.3" y="259.0" width="70.6" height="15" fill="#57e857" rx="2" ry="2"/>
<text x="636.3" y="270.0">one/nio/..</text>
</g>
<g>
<title>one/nio/http/HttpServer.handleRequest (2,366 samples, 5.99%)</title><rect x="633.3" y="243.0" width="70.6" height="15" fill="#6dfe6d" rx="2" ry="2"/>
<text x="636.3" y="254.0">one/nio/..</text>
</g>
<g>
<title>RequestHandler1_entity.handleRequest (1,822 samples, 4.61%)</title><rect x="633.3" y="227.0" width="54.4" height="15" fill="#64f564" rx="2" ry="2"/>
<text x="636.3" y="238.0">Reque..</text>
</g>
<g>
<title>one/nio/http/Request.getRequiredParameter (576 samples, 1.46%)</title><rect x="633.3" y="211.0" width="17.2" height="15" fill="#56e756" rx="2" ry="2"/>
<text x="636.3" y="222.0"></text>
</g>
<g>
<title>one/nio/http/Request.getParameter (576 samples, 1.46%)</title><rect x="633.3" y="195.0" width="17.2" height="15" fill="#57e857" rx="2" ry="2"/>
<text x="636.3" y="206.0"></text>
</g>
<g>
<title>java/lang/String.substring (576 samples, 1.46%)</title><rect x="633.3" y="179.0" width="17.2" height="15" fill="#6cfd6c" rx="2" ry="2"/>
<text x="636.3" y="190.0"></text>
</g>
<g>
<title>java/lang/StringLatin1.newString (576 samples, 1.46%)</title><rect x="633.3" y="163.0" width="17.2" height="15" fill="#6cfd6c" rx="2" ry="2"/>
<text x="636.3" y="174.0"></text>
</g>
<g>
<title>java.lang.String (232 samples, 0.59%)</title><rect x="633.3" y="147.0" width="6.9" height="15" fill="#68d6d6" rx="2" ry="2"/>
<text x="636.3" y="158.0"></text>
</g>
<g>
<title>java/util/Arrays.copyOfRange (344 samples, 0.87%)</title><rect x="640.2" y="147.0" width="10.3" height="15" fill="#57e857" rx="2" ry="2"/>
<text x="643.2" y="158.0"></text>
</g>
<g>
<title>byte[] (344 samples, 0.87%)</title><rect x="640.2" y="131.0" width="10.3" height="15" fill="#5ecccc" rx="2" ry="2"/>
<text x="643.2" y="142.0"></text>
</g>
<g>
<title>ru/mail/polis/service/codearound/RepliServiceImpl.entity (1,246 samples, 3.15%)</title><rect x="650.5" y="211.0" width="37.2" height="15" fill="#67f867" rx="2" ry="2"/>
<text x="653.5" y="222.0">ru/..</text>
</g>
<g>
<title>java/lang/String.getBytes (255 samples, 0.65%)</title><rect x="650.5" y="195.0" width="7.6" height="15" fill="#51e251" rx="2" ry="2"/>
<text x="653.5" y="206.0"></text>
</g>
<g>
<title>java/lang/StringCoding.encode (255 samples, 0.65%)</title><rect x="650.5" y="179.0" width="7.6" height="15" fill="#55e655" rx="2" ry="2"/>
<text x="653.5" y="190.0"></text>
</g>
<g>
<title>java/lang/StringCoding.encodeUTF8 (255 samples, 0.65%)</title><rect x="650.5" y="163.0" width="7.6" height="15" fill="#51e251" rx="2" ry="2"/>
<text x="653.5" y="174.0"></text>
</g>
<g>
<title>java/util/Arrays.copyOf (255 samples, 0.65%)</title><rect x="650.5" y="147.0" width="7.6" height="15" fill="#69fa69" rx="2" ry="2"/>
<text x="653.5" y="158.0"></text>
</g>
<g>
<title>byte[] (255 samples, 0.65%)</title><rect x="650.5" y="131.0" width="7.6" height="15" fill="#62d0d0" rx="2" ry="2"/>
<text x="653.5" y="142.0"></text>
</g>
<g>
<title>java/lang/invoke/LambdaForm$MH/1214003821.linkToTargetMethod (434 samples, 1.10%)</title><rect x="658.1" y="195.0" width="12.9" height="15" fill="#5bec5b" rx="2" ry="2"/>
<text x="661.1" y="206.0"></text>
</g>
<g>
<title>java/lang/invoke/LambdaForm$DMH/985922955.invokeStatic (434 samples, 1.10%)</title><rect x="658.1" y="179.0" width="12.9" height="15" fill="#62f362" rx="2" ry="2"/>
<text x="661.1" y="190.0"></text>
</g>
<g>
<title>ru/mail/polis/service/codearound/RepliServiceImpl$$Lambda$74/1361385511.get$Lambda (434 samples, 1.10%)</title><rect x="658.1" y="163.0" width="12.9" height="15" fill="#59ea59" rx="2" ry="2"/>
<text x="661.1" y="174.0"></text>
</g>
<g>
<title>ru.mail.polis.service.codearound.RepliServiceImpl$$Lambda$74 (434 samples, 1.10%)</title><rect x="658.1" y="147.0" width="12.9" height="15" fill="#58c6c6" rx="2" ry="2"/>
<text x="661.1" y="158.0"></text>
</g>
<g>
<title>one/nio/http/Request.getHeader (285 samples, 0.72%)</title><rect x="671.0" y="195.0" width="8.5" height="15" fill="#6bfc6b" rx="2" ry="2"/>
<text x="674.0" y="206.0"></text>
</g>
<g>
<title>java/lang/String.substring (285 samples, 0.72%)</title><rect x="671.0" y="179.0" width="8.5" height="15" fill="#59ea59" rx="2" ry="2"/>
<text x="674.0" y="190.0"></text>
</g>
<g>
<title>java/lang/StringLatin1.newString (285 samples, 0.72%)</title><rect x="671.0" y="163.0" width="8.5" height="15" fill="#6afb6a" rx="2" ry="2"/>
<text x="674.0" y="174.0"></text>
</g>
<g>
<title>java.lang.String (186 samples, 0.47%)</title><rect x="671.0" y="147.0" width="5.6" height="15" fill="#65d3d3" rx="2" ry="2"/>
<text x="674.0" y="158.0"></text>
</g>
<g>
<title>java/util/Arrays.copyOfRange (99 samples, 0.25%)</title><rect x="676.6" y="147.0" width="2.9" height="15" fill="#6cfd6c" rx="2" ry="2"/>
<text x="679.6" y="158.0"></text>
</g>
<g>
<title>byte[] (99 samples, 0.25%)</title><rect x="676.6" y="131.0" width="2.9" height="15" fill="#57c5c5" rx="2" ry="2"/>
<text x="679.6" y="142.0"></text>
</g>
<g>
<title>ru/mail/polis/service/codearound/RepliServiceImpl.runAsyncHandler (272 samples, 0.69%)</title><rect x="679.5" y="195.0" width="8.2" height="15" fill="#53e453" rx="2" ry="2"/>
<text x="682.5" y="206.0"></text>
</g>
<g>
<title>java/lang/invoke/Invokers$Holder.linkToTargetMethod (272 samples, 0.69%)</title><rect x="679.5" y="179.0" width="8.2" height="15" fill="#64f564" rx="2" ry="2"/>
<text x="682.5" y="190.0"></text>
</g>
<g>
<title>java/lang/invoke/DirectMethodHandle$Holder.invokeStatic (272 samples, 0.69%)</title><rect x="679.5" y="163.0" width="8.2" height="15" fill="#66f766" rx="2" ry="2"/>
<text x="682.5" y="174.0"></text>
</g>
<g>
<title>ru/mail/polis/service/codearound/RepliServiceImpl$$Lambda$75/1280889908.get$Lambda (272 samples, 0.69%)</title><rect x="679.5" y="147.0" width="8.2" height="15" fill="#62f362" rx="2" ry="2"/>
<text x="682.5" y="158.0"></text>
</g>
<g>
<title>ru.mail.polis.service.codearound.RepliServiceImpl$$Lambda$75 (272 samples, 0.69%)</title><rect x="679.5" y="131.0" width="8.2" height="15" fill="#54c2c2" rx="2" ry="2"/>
<text x="682.5" y="142.0"></text>
</g>
<g>
<title>one/nio/http/Request.getPath (544 samples, 1.38%)</title><rect x="687.7" y="227.0" width="16.2" height="15" fill="#50e150" rx="2" ry="2"/>
<text x="690.7" y="238.0"></text>
</g>
<g>
<title>java/lang/String.substring (544 samples, 1.38%)</title><rect x="687.7" y="211.0" width="16.2" height="15" fill="#61f261" rx="2" ry="2"/>
<text x="690.7" y="222.0"></text>
</g>
<g>
<title>java/lang/StringLatin1.newString (544 samples, 1.38%)</title><rect x="687.7" y="195.0" width="16.2" height="15" fill="#69fa69" rx="2" ry="2"/>
<text x="690.7" y="206.0"></text>
</g>
<g>
<title>java.lang.String (233 samples, 0.59%)</title><rect x="687.7" y="179.0" width="6.9" height="15" fill="#56c4c4" rx="2" ry="2"/>
<text x="690.7" y="190.0"></text>
</g>
<g>
<title>java/util/Arrays.copyOfRange (311 samples, 0.79%)</title><rect x="694.6" y="179.0" width="9.3" height="15" fill="#68f968" rx="2" ry="2"/>
<text x="697.6" y="190.0"></text>
</g>
<g>
<title>byte[] (311 samples, 0.79%)</title><rect x="694.6" y="163.0" width="9.3" height="15" fill="#67d5d5" rx="2" ry="2"/>
<text x="697.6" y="174.0"></text>
</g>
<g>
<title>one/nio/http/HttpSession.parseRequest (4,261 samples, 10.78%)</title><rect x="703.9" y="259.0" width="127.2" height="15" fill="#55e655" rx="2" ry="2"/>
<text x="706.9" y="270.0">one/nio/http/Htt..</text>
</g>
<g>
<title>one.nio.http.Request (1,224 samples, 3.10%)</title><rect x="703.9" y="243.0" width="36.6" height="15" fill="#63d1d1" rx="2" ry="2"/>
<text x="706.9" y="254.0">one..</text>
</g>
<g>
<title>one/nio/http/Request.&lt;init&gt; (1,216 samples, 3.08%)</title><rect x="740.5" y="243.0" width="36.3" height="15" fill="#51e251" rx="2" ry="2"/>
<text x="743.5" y="254.0">one..</text>
</g>
<g>
<title>java.lang.String[] (1,216 samples, 3.08%)</title><rect x="740.5" y="227.0" width="36.3" height="15" fill="#63d1d1" rx="2" ry="2"/>
<text x="743.5" y="238.0">jav..</text>
</g>
<g>
<title>one/nio/util/Utf8.read (1,821 samples, 4.61%)</title><rect x="776.8" y="243.0" width="54.3" height="15" fill="#5ced5c" rx="2" ry="2"/>
<text x="779.8" y="254.0">one/n..</text>
</g>
<g>
<title>one/nio/util/Utf8.read (1,821 samples, 4.61%)</title><rect x="776.8" y="227.0" width="54.3" height="15" fill="#52e352" rx="2" ry="2"/>
<text x="779.8" y="238.0">one/n..</text>
</g>
<g>
<title>char[] (875 samples, 2.21%)</title><rect x="776.8" y="211.0" width="26.1" height="15" fill="#69d7d7" rx="2" ry="2"/>
<text x="779.8" y="222.0">c..</text>
</g>
<g>
<title>java.lang.String (361 samples, 0.91%)</title><rect x="802.9" y="211.0" width="10.8" height="15" fill="#5dcbcb" rx="2" ry="2"/>
<text x="805.9" y="222.0"></text>
</g>
<g>
<title>java/lang/String.&lt;init&gt; (585 samples, 1.48%)</title><rect x="813.7" y="211.0" width="17.4" height="15" fill="#6cfd6c" rx="2" ry="2"/>
<text x="816.7" y="222.0"></text>
</g>
<g>
<title>java/lang/String.&lt;init&gt; (585 samples, 1.48%)</title><rect x="813.7" y="195.0" width="17.4" height="15" fill="#5dee5d" rx="2" ry="2"/>
<text x="816.7" y="206.0"></text>
</g>
<g>
<title>java/lang/StringUTF16.compress (585 samples, 1.48%)</title><rect x="813.7" y="179.0" width="17.4" height="15" fill="#69fa69" rx="2" ry="2"/>
<text x="816.7" y="190.0"></text>
</g>
<g>
<title>byte[] (585 samples, 1.48%)</title><rect x="813.7" y="163.0" width="17.4" height="15" fill="#61cfcf" rx="2" ry="2"/>
<text x="816.7" y="174.0"></text>
</g>
<g>
<title>one/nio/http/HttpSession.startParsingRequestBody (6,355 samples, 16.08%)</title><rect x="831.1" y="259.0" width="189.8" height="15" fill="#66f766" rx="2" ry="2"/>
<text x="834.1" y="270.0">one/nio/http/HttpSession...</text>
</g>
<g>
<title>byte[] (6,355 samples, 16.08%)</title><rect x="831.1" y="243.0" width="189.8" height="15" fill="#53c1c1" rx="2" ry="2"/>
<text x="834.1" y="254.0">byte[]</text>
</g>
<g>
<title>one/nio/http/Request.getHeader (655 samples, 1.66%)</title><rect x="1020.9" y="259.0" width="19.6" height="15" fill="#5eef5e" rx="2" ry="2"/>
<text x="1023.9" y="270.0"></text>
</g>
<g>
<title>java/lang/String.substring (655 samples, 1.66%)</title><rect x="1020.9" y="243.0" width="19.6" height="15" fill="#52e352" rx="2" ry="2"/>
<text x="1023.9" y="254.0"></text>
</g>
<g>
<title>java/lang/StringLatin1.newString (655 samples, 1.66%)</title><rect x="1020.9" y="227.0" width="19.6" height="15" fill="#50e150" rx="2" ry="2"/>
<text x="1023.9" y="238.0"></text>
</g>
<g>
<title>java.lang.String (277 samples, 0.70%)</title><rect x="1020.9" y="211.0" width="8.3" height="15" fill="#56c4c4" rx="2" ry="2"/>
<text x="1023.9" y="222.0"></text>
</g>
<g>
<title>java/util/Arrays.copyOfRange (378 samples, 0.96%)</title><rect x="1029.2" y="211.0" width="11.3" height="15" fill="#51e251" rx="2" ry="2"/>
<text x="1032.2" y="222.0"></text>
</g>
<g>
<title>byte[] (378 samples, 0.96%)</title><rect x="1029.2" y="195.0" width="11.3" height="15" fill="#58c6c6" rx="2" ry="2"/>
<text x="1032.2" y="206.0"></text>
</g>
<g>
<title>one/nio/util/Utf8.read (5,007 samples, 12.67%)</title><rect x="1040.5" y="259.0" width="149.5" height="15" fill="#59ea59" rx="2" ry="2"/>
<text x="1043.5" y="270.0">one/nio/util/Utf8.r..</text>
</g>
<g>
<title>one/nio/util/Utf8.read (5,007 samples, 12.67%)</title><rect x="1040.5" y="243.0" width="149.5" height="15" fill="#66f766" rx="2" ry="2"/>
<text x="1043.5" y="254.0">one/nio/util/Utf8.r..</text>
</g>
<g>
<title>char[] (2,223 samples, 5.63%)</title><rect x="1040.5" y="227.0" width="66.4" height="15" fill="#50bebe" rx="2" ry="2"/>
<text x="1043.5" y="238.0">char[]</text>
</g>
<g>
<title>java.lang.String (922 samples, 2.33%)</title><rect x="1106.9" y="227.0" width="27.5" height="15" fill="#6bd9d9" rx="2" ry="2"/>
<text x="1109.9" y="238.0">j..</text>
</g>
<g>
<title>java/lang/String.&lt;init&gt; (1,862 samples, 4.71%)</title><rect x="1134.4" y="227.0" width="55.6" height="15" fill="#6bfc6b" rx="2" ry="2"/>
<text x="1137.4" y="238.0">java/..</text>
</g>
<g>
<title>java/lang/String.&lt;init&gt; (1,862 samples, 4.71%)</title><rect x="1134.4" y="211.0" width="55.6" height="15" fill="#51e251" rx="2" ry="2"/>
<text x="1137.4" y="222.0">java/..</text>
</g>
<g>
<title>java/lang/StringUTF16.compress (1,862 samples, 4.71%)</title><rect x="1134.4" y="195.0" width="55.6" height="15" fill="#5ff05f" rx="2" ry="2"/>
<text x="1137.4" y="206.0">java/..</text>
</g>
<g>
<title>byte[] (1,862 samples, 4.71%)</title><rect x="1134.4" y="179.0" width="55.6" height="15" fill="#66d4d4" rx="2" ry="2"/>
<text x="1137.4" y="190.0">byte[]</text>
</g>
</g>
</svg>
