<?xml version="1.0" standalone="no"?>
<!DOCTYPE svg PUBLIC "-//W3C//DTD SVG 1.1//EN" "http://www.w3.org/Graphics/SVG/1.1/DTD/svg11.dtd">
<svg version="1.1" width="1200" height="390" onload="init(evt)" viewBox="0 0 1200 390" xmlns="http://www.w3.org/2000/svg" xmlns:xlink="http://www.w3.org/1999/xlink">
<style type="text/css">
	text { font-family:Verdana; font-size:12px; fill:rgb(0,0,0); }
	#search { opacity:0.1; cursor:pointer; }
	#search:hover, #search.show { opacity:1; }
	#subtitle { text-anchor:middle; font-color:rgb(160,160,160); }
	#title { text-anchor:middle; font-size:17px}
	#unzoom { cursor:pointer; }
	#frames > *:hover { stroke:black; stroke-width:0.5; cursor:pointer; }
	.hide { display:none; }
	.parent { opacity:0.5; }
</style>
<script type="text/ecmascript">
<![CDATA[
	"use strict";
	var details, searchbtn, unzoombtn, matchedtxt, svg, searching;
	function init(evt) {
		details = document.getElementById("details").firstChild;
		searchbtn = document.getElementById("search");
		unzoombtn = document.getElementById("unzoom");
		matchedtxt = document.getElementById("matched");
		svg = document.getElementsByTagName("svg")[0];
		searching = 0;
	}

	window.addEventListener("click", function(e) {
		var target = find_group(e.target);
		if (target) {
			if (target.nodeName == "a") {
				if (e.ctrlKey === false) return;
				e.preventDefault();
			}
			if (target.classList.contains("parent")) unzoom();
			zoom(target);
		}
		else if (e.target.id == "unzoom") unzoom();
		else if (e.target.id == "search") search_prompt();
	}, false)

	// mouse-over for info
	// show
	window.addEventListener("mouseover", function(e) {
		var target = find_group(e.target);
		if (target) details.nodeValue = "Function: " + g_to_text(target);
	}, false)

	// clear
	window.addEventListener("mouseout", function(e) {
		var target = find_group(e.target);
		if (target) details.nodeValue = ' ';
	}, false)

	// ctrl-F for search
	window.addEventListener("keydown",function (e) {
		if (e.keyCode === 114 || (e.ctrlKey && e.keyCode === 70)) {
			e.preventDefault();
			search_prompt();
		}
	}, false)

	// functions
	function find_child(node, selector) {
		var children = node.querySelectorAll(selector);
		if (children.length) return children[0];
		return;
	}
	function find_group(node) {
		var parent = node.parentElement;
		if (!parent) return;
		if (parent.id == "frames") return node;
		return find_group(parent);
	}
	function orig_save(e, attr, val) {
		if (e.attributes["_orig_" + attr] != undefined) return;
		if (e.attributes[attr] == undefined) return;
		if (val == undefined) val = e.attributes[attr].value;
		e.setAttribute("_orig_" + attr, val);
	}
	function orig_load(e, attr) {
		if (e.attributes["_orig_"+attr] == undefined) return;
		e.attributes[attr].value = e.attributes["_orig_" + attr].value;
		e.removeAttribute("_orig_"+attr);
	}
	function g_to_text(e) {
		var text = find_child(e, "title").firstChild.nodeValue;
		return (text)
	}
	function g_to_func(e) {
		var func = g_to_text(e);
		// if there's any manipulation we want to do to the function
		// name before it's searched, do it here before returning.
		return (func);
	}
	function update_text(e) {
		var r = find_child(e, "rect");
		var t = find_child(e, "text");
		var w = parseFloat(r.attributes.width.value) -3;
		var txt = find_child(e, "title").textContent.replace(/\([^(]*\)$/,"");
		t.attributes.x.value = parseFloat(r.attributes.x.value) + 3;

		// Smaller than this size won't fit anything
		if (w < 2 * 12 * 0.59) {
			t.textContent = "";
			return;
		}

		t.textContent = txt;
		// Fit in full text width
		if (/^ *$/.test(txt) || t.getSubStringLength(0, txt.length) < w)
			return;

		for (var x = txt.length - 2; x > 0; x--) {
			if (t.getSubStringLength(0, x + 2) <= w) {
				t.textContent = txt.substring(0, x) + "..";
				return;
			}
		}
		t.textContent = "";
	}

	// zoom
	function zoom_reset(e) {
		if (e.attributes != undefined) {
			orig_load(e, "x");
			orig_load(e, "width");
		}
		if (e.childNodes == undefined) return;
		for (var i = 0, c = e.childNodes; i < c.length; i++) {
			zoom_reset(c[i]);
		}
	}
	function zoom_child(e, x, ratio) {
		if (e.attributes != undefined) {
			if (e.attributes.x != undefined) {
				orig_save(e, "x");
				e.attributes.x.value = (parseFloat(e.attributes.x.value) - x - 10) * ratio + 10;
				if (e.tagName == "text")
					e.attributes.x.value = find_child(e.parentNode, "rect[x]").attributes.x.value + 3;
			}
			if (e.attributes.width != undefined) {
				orig_save(e, "width");
				e.attributes.width.value = parseFloat(e.attributes.width.value) * ratio;
			}
		}

		if (e.childNodes == undefined) return;
		for (var i = 0, c = e.childNodes; i < c.length; i++) {
			zoom_child(c[i], x - 10, ratio);
		}
	}
	function zoom_parent(e) {
		if (e.attributes) {
			if (e.attributes.x != undefined) {
				orig_save(e, "x");
				e.attributes.x.value = 10;
			}
			if (e.attributes.width != undefined) {
				orig_save(e, "width");
				e.attributes.width.value = parseInt(svg.width.baseVal.value) - (10 * 2);
			}
		}
		if (e.childNodes == undefined) return;
		for (var i = 0, c = e.childNodes; i < c.length; i++) {
			zoom_parent(c[i]);
		}
	}
	function zoom(node) {
		var attr = find_child(node, "rect").attributes;
		var width = parseFloat(attr.width.value);
		var xmin = parseFloat(attr.x.value);
		var xmax = parseFloat(xmin + width);
		var ymin = parseFloat(attr.y.value);
		var ratio = (svg.width.baseVal.value - 2 * 10) / width;

		// XXX: Workaround for JavaScript float issues (fix me)
		var fudge = 0.0001;

		unzoombtn.classList.remove("hide");

		var el = document.getElementById("frames").children;
		for (var i = 0; i < el.length; i++) {
			var e = el[i];
			var a = find_child(e, "rect").attributes;
			var ex = parseFloat(a.x.value);
			var ew = parseFloat(a.width.value);
			var upstack;
			// Is it an ancestor
			if (0 == 0) {
				upstack = parseFloat(a.y.value) > ymin;
			} else {
				upstack = parseFloat(a.y.value) < ymin;
			}
			if (upstack) {
				// Direct ancestor
				if (ex <= xmin && (ex+ew+fudge) >= xmax) {
					e.classList.add("parent");
					zoom_parent(e);
					update_text(e);
				}
				// not in current path
				else
					e.classList.add("hide");
			}
			// Children maybe
			else {
				// no common path
				if (ex < xmin || ex + fudge >= xmax) {
					e.classList.add("hide");
				}
				else {
					zoom_child(e, xmin, ratio);
					update_text(e);
				}
			}
		}
	}
	function unzoom() {
		unzoombtn.classList.add("hide");
		var el = document.getElementById("frames").children;
		for(var i = 0; i < el.length; i++) {
			el[i].classList.remove("parent");
			el[i].classList.remove("hide");
			zoom_reset(el[i]);
			update_text(el[i]);
		}
	}

	// search
	function reset_search() {
		var el = document.querySelectorAll("#frames rect");
		for (var i = 0; i < el.length; i++) {
			orig_load(el[i], "fill")
		}
	}
	function search_prompt() {
		if (!searching) {
			var term = prompt("Enter a search term (regexp " +
			    "allowed, eg: ^ext4_)", "");
			if (term != null) {
				search(term)
			}
		} else {
			reset_search();
			searching = 0;
			searchbtn.classList.remove("show");
			searchbtn.firstChild.nodeValue = "Search"
			matchedtxt.classList.add("hide");
			matchedtxt.firstChild.nodeValue = ""
		}
	}
	function search(term) {
		var re = new RegExp(term);
		var el = document.getElementById("frames").children;
		var matches = new Object();
		var maxwidth = 0;
		for (var i = 0; i < el.length; i++) {
			var e = el[i];
			var func = g_to_func(e);
			var rect = find_child(e, "rect");
			if (func == null || rect == null)
				continue;

			// Save max width. Only works as we have a root frame
			var w = parseFloat(rect.attributes.width.value);
			if (w > maxwidth)
				maxwidth = w;

			if (func.match(re)) {
				// highlight
				var x = parseFloat(rect.attributes.x.value);
				orig_save(rect, "fill");
				rect.attributes.fill.value = "rgb(230,0,230)";

				// remember matches
				if (matches[x] == undefined) {
					matches[x] = w;
				} else {
					if (w > matches[x]) {
						// overwrite with parent
						matches[x] = w;
					}
				}
				searching = 1;
			}
		}
		if (!searching)
			return;

		searchbtn.classList.add("show");
		searchbtn.firstChild.nodeValue = "Reset Search";

		// calculate percent matched, excluding vertical overlap
		var count = 0;
		var lastx = -1;
		var lastw = 0;
		var keys = Array();
		for (k in matches) {
			if (matches.hasOwnProperty(k))
				keys.push(k);
		}
		// sort the matched frames by their x location
		// ascending, then width descending
		keys.sort(function(a, b){
			return a - b;
		});
		// Step through frames saving only the biggest bottom-up frames
		// thanks to the sort order. This relies on the tree property
		// where children are always smaller than their parents.
		var fudge = 0.0001;	// JavaScript floating point
		for (var k in keys) {
			var x = parseFloat(keys[k]);
			var w = matches[keys[k]];
			if (x >= lastx + lastw - fudge) {
				count += w;
				lastx = x;
				lastw = w;
			}
		}
		// display matched percent
		matchedtxt.classList.remove("hide");
		var pct = 100 * count / maxwidth;
		if (pct != 100) pct = pct.toFixed(1)
		matchedtxt.firstChild.nodeValue = "Matched: " + pct + "%";
	}
]]>
</script>
<rect x="0" y="0" width="100%" height="100%" fill="rgb(240,240,220)"/>
<text id="title" x="600" y="24">PUT enforced overwrites (#2)</text>
<text id="details" x="10" y="373"> </text>
<text id="unzoom" x="10" y="24" class="hide">Reset Zoom</text>
<text id="search" x="1090" y="24">Search</text>
<text id="matched" x="1090" y="373"> </text>
<g id="frames">
<g>
<title>all (40,687 samples, 100.00%)</title><rect x="10.0" y="339.0" width="1180.0" height="15" fill="#fe8181" rx="2" ry="2"/>
<text x="13.0" y="350.0">all</text>
</g>
<g>
<title>java/lang/Thread.run (21,148 samples, 51.98%)</title><rect x="10.0" y="323.0" width="613.3" height="15" fill="#62f362" rx="2" ry="2"/>
<text x="13.0" y="334.0">java/lang/Thread.run</text>
</g>
<g>
<title>java/util/concurrent/ThreadPoolExecutor$Worker.run (21,148 samples, 51.98%)</title><rect x="10.0" y="307.0" width="613.3" height="15" fill="#58e958" rx="2" ry="2"/>
<text x="13.0" y="318.0">java/util/concurrent/ThreadPoolExecutor$Worker.run</text>
</g>
<g>
<title>java/util/concurrent/ThreadPoolExecutor.runWorker (21,148 samples, 51.98%)</title><rect x="10.0" y="291.0" width="613.3" height="15" fill="#56e756" rx="2" ry="2"/>
<text x="13.0" y="302.0">java/util/concurrent/ThreadPoolExecutor.runWorker</text>
</g>
<g>
<title>java/util/concurrent/ThreadPoolExecutor.getTask (633 samples, 1.56%)</title><rect x="10.0" y="275.0" width="18.4" height="15" fill="#6dfe6d" rx="2" ry="2"/>
<text x="13.0" y="286.0"></text>
</g>
<g>
<title>java/util/concurrent/ArrayBlockingQueue.take (633 samples, 1.56%)</title><rect x="10.0" y="259.0" width="18.4" height="15" fill="#5eef5e" rx="2" ry="2"/>
<text x="13.0" y="270.0"></text>
</g>
<g>
<title>java/util/concurrent/locks/AbstractQueuedSynchronizer$ConditionObject.await (632 samples, 1.55%)</title><rect x="10.0" y="243.0" width="18.3" height="15" fill="#60f160" rx="2" ry="2"/>
<text x="13.0" y="254.0"></text>
</g>
<g>
<title>java/util/concurrent/locks/AbstractQueuedSynchronizer$ConditionObject.addConditionWaiter (632 samples, 1.55%)</title><rect x="10.0" y="227.0" width="18.3" height="15" fill="#5dee5d" rx="2" ry="2"/>
<text x="13.0" y="238.0"></text>
</g>
<g>
<title>java.util.concurrent.locks.AbstractQueuedSynchronizer$Node (632 samples, 1.55%)</title><rect x="10.0" y="211.0" width="18.3" height="15" fill="#65d3d3" rx="2" ry="2"/>
<text x="13.0" y="222.0"></text>
</g>
<g>
<title>ru/mail/polis/service/codearound/RepliServiceImpl$$Lambda$75/1280889908.run (20,515 samples, 50.42%)</title><rect x="28.4" y="275.0" width="594.9" height="15" fill="#6cfd6c" rx="2" ry="2"/>
<text x="31.4" y="286.0">ru/mail/polis/service/codearound/RepliServiceImpl$$Lambda$75/1280889908.run</text>
</g>
<g>
<title>ru/mail/polis/service/codearound/RepliServiceImpl.lambda$runAsyncHandler$6 (20,515 samples, 50.42%)</title><rect x="28.4" y="259.0" width="594.9" height="15" fill="#6bfc6b" rx="2" ry="2"/>
<text x="31.4" y="270.0">ru/mail/polis/service/codearound/RepliServiceImpl.lambda$runAsyncHandler$6</text>
</g>
<g>
<title>one/nio/http/HttpSession.sendResponse (2,947 samples, 7.24%)</title><rect x="28.4" y="243.0" width="85.4" height="15" fill="#55e655" rx="2" ry="2"/>
<text x="31.4" y="254.0">one/nio/ht..</text>
</g>
<g>
<title>one/nio/http/HttpSession.writeResponse (2,208 samples, 5.43%)</title><rect x="28.4" y="227.0" width="64.0" height="15" fill="#51e251" rx="2" ry="2"/>
<text x="31.4" y="238.0">one/nio..</text>
</g>
<g>
<title>one/nio/http/Response.toBytes (1,390 samples, 3.42%)</title><rect x="28.4" y="211.0" width="40.3" height="15" fill="#51e251" rx="2" ry="2"/>
<text x="31.4" y="222.0">one..</text>
</g>
<g>
<title>one/nio/util/ByteArrayBuilder.&lt;init&gt; (1,390 samples, 3.42%)</title><rect x="28.4" y="195.0" width="40.3" height="15" fill="#56e756" rx="2" ry="2"/>
<text x="31.4" y="206.0">one..</text>
</g>
<g>
<title>byte[] (1,390 samples, 3.42%)</title><rect x="28.4" y="179.0" width="40.3" height="15" fill="#51bfbf" rx="2" ry="2"/>
<text x="31.4" y="190.0">byt..</text>
</g>
<g>
<title>one/nio/net/Session.write (818 samples, 2.01%)</title><rect x="68.7" y="211.0" width="23.7" height="15" fill="#54e554" rx="2" ry="2"/>
<text x="71.7" y="222.0">o..</text>
</g>
<g>
<title>one.nio.net.Session$ArrayQueueItem (818 samples, 2.01%)</title><rect x="68.7" y="195.0" width="23.7" height="15" fill="#5ecccc" rx="2" ry="2"/>
<text x="71.7" y="206.0">o..</text>
</g>
<g>
<title>one/nio/http/Request.getHeader (739 samples, 1.82%)</title><rect x="92.4" y="227.0" width="21.4" height="15" fill="#62f362" rx="2" ry="2"/>
<text x="95.4" y="238.0">o..</text>
</g>
<g>
<title>java/lang/String.substring (739 samples, 1.82%)</title><rect x="92.4" y="211.0" width="21.4" height="15" fill="#6afb6a" rx="2" ry="2"/>
<text x="95.4" y="222.0">j..</text>
</g>
<g>
<title>java/lang/StringLatin1.newString (739 samples, 1.82%)</title><rect x="92.4" y="195.0" width="21.4" height="15" fill="#5bec5b" rx="2" ry="2"/>
<text x="95.4" y="206.0">j..</text>
</g>
<g>
<title>java.lang.String (295 samples, 0.73%)</title><rect x="92.4" y="179.0" width="8.5" height="15" fill="#69d7d7" rx="2" ry="2"/>
<text x="95.4" y="190.0"></text>
</g>
<g>
<title>java/util/Arrays.copyOfRange (444 samples, 1.09%)</title><rect x="100.9" y="179.0" width="12.9" height="15" fill="#56e756" rx="2" ry="2"/>
<text x="103.9" y="190.0"></text>
</g>
<g>
<title>byte[] (444 samples, 1.09%)</title><rect x="100.9" y="163.0" width="12.9" height="15" fill="#52c0c0" rx="2" ry="2"/>
<text x="103.9" y="174.0"></text>
</g>
<g>
<title>ru/mail/polis/service/codearound/RepliServiceImpl$$Lambda$74/1361385511.exec (17,568 samples, 43.18%)</title><rect x="113.8" y="243.0" width="509.5" height="15" fill="#5bec5b" rx="2" ry="2"/>
<text x="116.8" y="254.0">ru/mail/polis/service/codearound/RepliServiceImpl$$Lambda$74/136138551..</text>
</g>
<g>
<title>ru/mail/polis/service/codearound/RepliServiceImpl.lambda$entity$1 (17,568 samples, 43.18%)</title><rect x="113.8" y="227.0" width="509.5" height="15" fill="#63f463" rx="2" ry="2"/>
<text x="116.8" y="238.0">ru/mail/polis/service/codearound/RepliServiceImpl.lambda$entity$1</text>
</g>
<g>
<title>ru/mail/polis/service/codearound/ReplicationLsm.upsertWithMultipleNodes (17,568 samples, 43.18%)</title><rect x="113.8" y="211.0" width="509.5" height="15" fill="#5bec5b" rx="2" ry="2"/>
<text x="116.8" y="222.0">ru/mail/polis/service/codearound/ReplicationLsm.upsertWithMultipleNodes</text>
</g>
<g>
<title>java.lang.String[] (11 samples, 0.03%)</title><rect x="113.8" y="195.0" width="0.3" height="15" fill="#6ddbdb" rx="2" ry="2"/>
<text x="116.8" y="206.0"></text>
</g>
<g>
<title>java/lang/String.getBytes (727 samples, 1.79%)</title><rect x="114.1" y="195.0" width="21.1" height="15" fill="#67f867" rx="2" ry="2"/>
<text x="117.1" y="206.0">j..</text>
</g>
<g>
<title>java/lang/StringCoding.encode (727 samples, 1.79%)</title><rect x="114.1" y="179.0" width="21.1" height="15" fill="#5eef5e" rx="2" ry="2"/>
<text x="117.1" y="190.0">j..</text>
</g>
<g>
<title>java/lang/StringCoding.encodeUTF8 (727 samples, 1.79%)</title><rect x="114.1" y="163.0" width="21.1" height="15" fill="#5aeb5a" rx="2" ry="2"/>
<text x="117.1" y="174.0">j..</text>
</g>
<g>
<title>java/util/Arrays.copyOf (727 samples, 1.79%)</title><rect x="114.1" y="147.0" width="21.1" height="15" fill="#67f867" rx="2" ry="2"/>
<text x="117.1" y="158.0">j..</text>
</g>
<g>
<title>byte[] (727 samples, 1.79%)</title><rect x="114.1" y="131.0" width="21.1" height="15" fill="#52c0c0" rx="2" ry="2"/>
<text x="117.1" y="142.0">b..</text>
</g>
<g>
<title>java/lang/invoke/Invokers$Holder.linkToTargetMethod (48 samples, 0.12%)</title><rect x="135.2" y="195.0" width="1.4" height="15" fill="#63f463" rx="2" ry="2"/>
<text x="138.2" y="206.0"></text>
</g>
<g>
<title>java/lang/invoke/LambdaForm$MH/1730173572.invoke (48 samples, 0.12%)</title><rect x="135.2" y="179.0" width="1.4" height="15" fill="#6dfe6d" rx="2" ry="2"/>
<text x="138.2" y="190.0"></text>
</g>
<g>
<title>java/lang/invoke/DirectMethodHandle$Holder.invokeStatic (48 samples, 0.12%)</title><rect x="135.2" y="163.0" width="1.4" height="15" fill="#52e352" rx="2" ry="2"/>
<text x="138.2" y="174.0"></text>
</g>
<g>
<title>java/lang/StringConcatHelper.newString (20 samples, 0.05%)</title><rect x="135.2" y="147.0" width="0.6" height="15" fill="#53e453" rx="2" ry="2"/>
<text x="138.2" y="158.0"></text>
</g>
<g>
<title>java.lang.String (20 samples, 0.05%)</title><rect x="135.2" y="131.0" width="0.6" height="15" fill="#60cece" rx="2" ry="2"/>
<text x="138.2" y="142.0"></text>
</g>
<g>
<title>java/lang/invoke/StringConcatFactory$MethodHandleInlineCopyStrategy.newArray (28 samples, 0.07%)</title><rect x="135.8" y="147.0" width="0.8" height="15" fill="#60f160" rx="2" ry="2"/>
<text x="138.8" y="158.0"></text>
</g>
<g>
<title>jdk/internal/misc/Unsafe.allocateUninitializedArray (28 samples, 0.07%)</title><rect x="135.8" y="131.0" width="0.8" height="15" fill="#69fa69" rx="2" ry="2"/>
<text x="138.8" y="142.0"></text>
</g>
<g>
<title>byte[] (28 samples, 0.07%)</title><rect x="135.8" y="115.0" width="0.8" height="15" fill="#5ecccc" rx="2" ry="2"/>
<text x="138.8" y="126.0"></text>
</g>
<g>
<title>java/nio/ByteBuffer.wrap (2,374 samples, 5.83%)</title><rect x="136.6" y="195.0" width="68.9" height="15" fill="#5eef5e" rx="2" ry="2"/>
<text x="139.6" y="206.0">java/ni..</text>
</g>
<g>
<title>java/nio/ByteBuffer.wrap (2,374 samples, 5.83%)</title><rect x="136.6" y="179.0" width="68.9" height="15" fill="#50e150" rx="2" ry="2"/>
<text x="139.6" y="190.0">java/ni..</text>
</g>
<g>
<title>java.nio.HeapByteBuffer (2,374 samples, 5.83%)</title><rect x="136.6" y="163.0" width="68.9" height="15" fill="#5fcdcd" rx="2" ry="2"/>
<text x="139.6" y="174.0">java.ni..</text>
</g>
<g>
<title>one.nio.http.Response (310 samples, 0.76%)</title><rect x="205.5" y="195.0" width="9.0" height="15" fill="#60cece" rx="2" ry="2"/>
<text x="208.5" y="206.0"></text>
</g>
<g>
<title>one/nio/http/HttpClient.put (7,905 samples, 19.43%)</title><rect x="214.5" y="195.0" width="229.2" height="15" fill="#57e857" rx="2" ry="2"/>
<text x="217.5" y="206.0">one/nio/http/HttpClient.put</text>
</g>
<g>
<title>byte[] (24 samples, 0.06%)</title><rect x="214.5" y="179.0" width="0.7" height="15" fill="#61cfcf" rx="2" ry="2"/>
<text x="217.5" y="190.0"></text>
</g>
<g>
<title>one/nio/http/HttpClient.createRequest (59 samples, 0.15%)</title><rect x="215.4" y="179.0" width="1.7" height="15" fill="#65f665" rx="2" ry="2"/>
<text x="218.4" y="190.0"></text>
</g>
<g>
<title>one.nio.http.Request (19 samples, 0.05%)</title><rect x="215.4" y="163.0" width="0.5" height="15" fill="#65d3d3" rx="2" ry="2"/>
<text x="218.4" y="174.0"></text>
</g>
<g>
<title>one/nio/http/Request.&lt;init&gt; (40 samples, 0.10%)</title><rect x="215.9" y="163.0" width="1.2" height="15" fill="#55e655" rx="2" ry="2"/>
<text x="218.9" y="174.0"></text>
</g>
<g>
<title>java.lang.String[] (40 samples, 0.10%)</title><rect x="215.9" y="147.0" width="1.2" height="15" fill="#61cfcf" rx="2" ry="2"/>
<text x="218.9" y="158.0"></text>
</g>
<g>
<title>one/nio/http/HttpClient.invoke (7,814 samples, 19.21%)</title><rect x="217.1" y="179.0" width="226.6" height="15" fill="#52e352" rx="2" ry="2"/>
<text x="220.1" y="190.0">one/nio/http/HttpClient.invoke</text>
</g>
<g>
<title>one/nio/http/HttpClient.invoke (7,814 samples, 19.21%)</title><rect x="217.1" y="163.0" width="226.6" height="15" fill="#51e251" rx="2" ry="2"/>
<text x="220.1" y="174.0">one/nio/http/HttpClient.invoke</text>
</g>
<g>
<title>one.nio.http.HttpClient$ResponseReader (47 samples, 0.12%)</title><rect x="217.1" y="147.0" width="1.4" height="15" fill="#68d6d6" rx="2" ry="2"/>
<text x="220.1" y="158.0"></text>
</g>
<g>
<title>one/nio/http/HttpClient$ResponseReader.&lt;init&gt; (6,979 samples, 17.15%)</title><rect x="218.5" y="147.0" width="202.4" height="15" fill="#55e655" rx="2" ry="2"/>
<text x="221.5" y="158.0">one/nio/http/HttpClient$Re..</text>
</g>
<g>
<title>byte[] (6,914 samples, 16.99%)</title><rect x="218.5" y="131.0" width="200.5" height="15" fill="#5ccaca" rx="2" ry="2"/>
<text x="221.5" y="142.0">byte[]</text>
</g>
<g>
<title>byte[] (65 samples, 0.16%)</title><rect x="419.0" y="131.0" width="1.9" height="15" fill="#ef8b00" rx="2" ry="2"/>
<text x="422.0" y="142.0"></text>
</g>
<g>
<title>one/nio/http/HttpClient$ResponseReader.readResponse (573 samples, 1.41%)</title><rect x="420.9" y="147.0" width="16.6" height="15" fill="#60f160" rx="2" ry="2"/>
<text x="423.9" y="158.0"></text>
</g>
<g>
<title>byte[] (9 samples, 0.02%)</title><rect x="420.9" y="131.0" width="0.2" height="15" fill="#5ccaca" rx="2" ry="2"/>
<text x="423.9" y="142.0"></text>
</g>
<g>
<title>java/lang/String.substring (25 samples, 0.06%)</title><rect x="421.1" y="131.0" width="0.8" height="15" fill="#58e958" rx="2" ry="2"/>
<text x="424.1" y="142.0"></text>
</g>
<g>
<title>java/lang/StringLatin1.newString (25 samples, 0.06%)</title><rect x="421.1" y="115.0" width="0.8" height="15" fill="#50e150" rx="2" ry="2"/>
<text x="424.1" y="126.0"></text>
</g>
<g>
<title>java/util/Arrays.copyOfRange (17 samples, 0.04%)</title><rect x="421.4" y="99.0" width="0.5" height="15" fill="#66f766" rx="2" ry="2"/>
<text x="424.4" y="110.0"></text>
</g>
<g>
<title>byte[] (17 samples, 0.04%)</title><rect x="421.4" y="83.0" width="0.5" height="15" fill="#51bfbf" rx="2" ry="2"/>
<text x="424.4" y="94.0"></text>
</g>
<g>
<title>one.nio.http.Response (14 samples, 0.03%)</title><rect x="421.9" y="131.0" width="0.4" height="15" fill="#53c1c1" rx="2" ry="2"/>
<text x="424.9" y="142.0"></text>
</g>
<g>
<title>one/nio/http/HttpClient$ResponseReader.readLine (481 samples, 1.18%)</title><rect x="422.3" y="131.0" width="13.9" height="15" fill="#5bec5b" rx="2" ry="2"/>
<text x="425.3" y="142.0"></text>
</g>
<g>
<title>one/nio/util/Utf8.read (481 samples, 1.18%)</title><rect x="422.3" y="115.0" width="13.9" height="15" fill="#50e150" rx="2" ry="2"/>
<text x="425.3" y="126.0"></text>
</g>
<g>
<title>one/nio/util/Utf8.read (481 samples, 1.18%)</title><rect x="422.3" y="99.0" width="13.9" height="15" fill="#56e756" rx="2" ry="2"/>
<text x="425.3" y="110.0"></text>
</g>
<g>
<title>char[] (258 samples, 0.63%)</title><rect x="422.3" y="83.0" width="7.4" height="15" fill="#5ecccc" rx="2" ry="2"/>
<text x="425.3" y="94.0"></text>
</g>
<g>
<title>java.lang.String (153 samples, 0.38%)</title><rect x="429.7" y="83.0" width="4.5" height="15" fill="#60cece" rx="2" ry="2"/>
<text x="432.7" y="94.0"></text>
</g>
<g>
<title>java/lang/String.&lt;init&gt; (70 samples, 0.17%)</title><rect x="434.2" y="83.0" width="2.0" height="15" fill="#67f867" rx="2" ry="2"/>
<text x="437.2" y="94.0"></text>
</g>
<g>
<title>java/lang/String.&lt;init&gt; (70 samples, 0.17%)</title><rect x="434.2" y="67.0" width="2.0" height="15" fill="#5aeb5a" rx="2" ry="2"/>
<text x="437.2" y="78.0"></text>
</g>
<g>
<title>java/lang/StringUTF16.compress (70 samples, 0.17%)</title><rect x="434.2" y="51.0" width="2.0" height="15" fill="#50e150" rx="2" ry="2"/>
<text x="437.2" y="62.0"></text>
</g>
<g>
<title>byte[] (70 samples, 0.17%)</title><rect x="434.2" y="35.0" width="2.0" height="15" fill="#58c6c6" rx="2" ry="2"/>
<text x="437.2" y="46.0"></text>
</g>
<g>
<title>one/nio/http/Response.&lt;init&gt; (19 samples, 0.05%)</title><rect x="436.2" y="131.0" width="0.6" height="15" fill="#5bec5b" rx="2" ry="2"/>
<text x="439.2" y="142.0"></text>
</g>
<g>
<title>java.lang.String[] (19 samples, 0.05%)</title><rect x="436.2" y="115.0" width="0.6" height="15" fill="#5fcdcd" rx="2" ry="2"/>
<text x="439.2" y="126.0"></text>
</g>
<g>
<title>one/nio/http/Response.getHeader (25 samples, 0.06%)</title><rect x="436.8" y="131.0" width="0.7" height="15" fill="#68f968" rx="2" ry="2"/>
<text x="439.8" y="142.0"></text>
</g>
<g>
<title>java/lang/String.substring (25 samples, 0.06%)</title><rect x="436.8" y="115.0" width="0.7" height="15" fill="#62f362" rx="2" ry="2"/>
<text x="439.8" y="126.0"></text>
</g>
<g>
<title>java/lang/StringLatin1.newString (25 samples, 0.06%)</title><rect x="436.8" y="99.0" width="0.7" height="15" fill="#53e453" rx="2" ry="2"/>
<text x="439.8" y="110.0"></text>
</g>
<g>
<title>java.lang.String (13 samples, 0.03%)</title><rect x="436.8" y="83.0" width="0.3" height="15" fill="#5fcdcd" rx="2" ry="2"/>
<text x="439.8" y="94.0"></text>
</g>
<g>
<title>java/util/Arrays.copyOfRange (12 samples, 0.03%)</title><rect x="437.1" y="83.0" width="0.4" height="15" fill="#5aeb5a" rx="2" ry="2"/>
<text x="440.1" y="94.0"></text>
</g>
<g>
<title>byte[] (12 samples, 0.03%)</title><rect x="437.1" y="67.0" width="0.4" height="15" fill="#58c6c6" rx="2" ry="2"/>
<text x="440.1" y="78.0"></text>
</g>
<g>
<title>one/nio/http/Request.toBytes (160 samples, 0.39%)</title><rect x="437.5" y="147.0" width="4.6" height="15" fill="#53e453" rx="2" ry="2"/>
<text x="440.5" y="158.0"></text>
</g>
<g>
<title>one/nio/util/ByteArrayBuilder.&lt;init&gt; (160 samples, 0.39%)</title><rect x="437.5" y="131.0" width="4.6" height="15" fill="#5dee5d" rx="2" ry="2"/>
<text x="440.5" y="142.0"></text>
</g>
<g>
<title>byte[] (160 samples, 0.39%)</title><rect x="437.5" y="115.0" width="4.6" height="15" fill="#59c7c7" rx="2" ry="2"/>
<text x="440.5" y="126.0"></text>
</g>
<g>
<title>one/nio/http/Response.getHeader (40 samples, 0.10%)</title><rect x="442.1" y="147.0" width="1.2" height="15" fill="#6cfd6c" rx="2" ry="2"/>
<text x="445.1" y="158.0"></text>
</g>
<g>
<title>java/lang/String.substring (40 samples, 0.10%)</title><rect x="442.1" y="131.0" width="1.2" height="15" fill="#62f362" rx="2" ry="2"/>
<text x="445.1" y="142.0"></text>
</g>
<g>
<title>java/lang/StringLatin1.newString (40 samples, 0.10%)</title><rect x="442.1" y="115.0" width="1.2" height="15" fill="#66f766" rx="2" ry="2"/>
<text x="445.1" y="126.0"></text>
</g>
<g>
<title>java.lang.String (23 samples, 0.06%)</title><rect x="442.1" y="99.0" width="0.7" height="15" fill="#5dcbcb" rx="2" ry="2"/>
<text x="445.1" y="110.0"></text>
</g>
<g>
<title>java/util/Arrays.copyOfRange (17 samples, 0.04%)</title><rect x="442.8" y="99.0" width="0.5" height="15" fill="#55e655" rx="2" ry="2"/>
<text x="445.8" y="110.0"></text>
</g>
<g>
<title>byte[] (17 samples, 0.04%)</title><rect x="442.8" y="83.0" width="0.5" height="15" fill="#54c2c2" rx="2" ry="2"/>
<text x="445.8" y="94.0"></text>
</g>
<g>
<title>one/nio/pool/Pool.returnObject (15 samples, 0.04%)</title><rect x="443.3" y="147.0" width="0.4" height="15" fill="#65f665" rx="2" ry="2"/>
<text x="446.3" y="158.0"></text>
</g>
<g>
<title>java/util/LinkedList.addFirst (15 samples, 0.04%)</title><rect x="443.3" y="131.0" width="0.4" height="15" fill="#56e756" rx="2" ry="2"/>
<text x="446.3" y="142.0"></text>
</g>
<g>
<title>java/util/LinkedList.linkFirst (15 samples, 0.04%)</title><rect x="443.3" y="115.0" width="0.4" height="15" fill="#6afb6a" rx="2" ry="2"/>
<text x="446.3" y="126.0"></text>
</g>
<g>
<title>java.util.LinkedList$Node (15 samples, 0.04%)</title><rect x="443.3" y="99.0" width="0.4" height="15" fill="#66d4d4" rx="2" ry="2"/>
<text x="446.3" y="110.0"></text>
</g>
<g>
<title>one/nio/http/Response.&lt;init&gt; (1,230 samples, 3.02%)</title><rect x="443.7" y="195.0" width="35.7" height="15" fill="#5aeb5a" rx="2" ry="2"/>
<text x="446.7" y="206.0">one..</text>
</g>
<g>
<title>byte[] (469 samples, 1.15%)</title><rect x="443.7" y="179.0" width="13.6" height="15" fill="#57c5c5" rx="2" ry="2"/>
<text x="446.7" y="190.0"></text>
</g>
<g>
<title>java.lang.String[] (360 samples, 0.88%)</title><rect x="457.3" y="179.0" width="10.5" height="15" fill="#66d4d4" rx="2" ry="2"/>
<text x="460.3" y="190.0"></text>
</g>
<g>
<title>java.lang.String (401 samples, 0.99%)</title><rect x="467.8" y="179.0" width="11.6" height="15" fill="#61cfcf" rx="2" ry="2"/>
<text x="470.8" y="190.0"></text>
</g>
<g>
<title>ru/mail/polis/service/codearound/TaskDAO.upsertValue (4,956 samples, 12.18%)</title><rect x="479.6" y="195.0" width="143.7" height="15" fill="#66f766" rx="2" ry="2"/>
<text x="482.6" y="206.0">ru/mail/polis/serv..</text>
</g>
<g>
<title>ru/mail/polis/service/codearound/DAOByteOnlyConverter.tuneBufToArray (448 samples, 1.10%)</title><rect x="479.6" y="179.0" width="13.0" height="15" fill="#59ea59" rx="2" ry="2"/>
<text x="482.6" y="190.0"></text>
</g>
<g>
<title>ru/mail/polis/service/codearound/DAOByteOnlyConverter.readByteArray (448 samples, 1.10%)</title><rect x="479.6" y="163.0" width="13.0" height="15" fill="#5aeb5a" rx="2" ry="2"/>
<text x="482.6" y="174.0"></text>
</g>
<g>
<title>byte[] (448 samples, 1.10%)</title><rect x="479.6" y="147.0" width="13.0" height="15" fill="#52c0c0" rx="2" ry="2"/>
<text x="482.6" y="158.0"></text>
</g>
<g>
<title>ru/mail/polis/service/codearound/Value.getBytesFromValue (4,508 samples, 11.08%)</title><rect x="492.6" y="179.0" width="130.7" height="15" fill="#5aeb5a" rx="2" ry="2"/>
<text x="495.6" y="190.0">ru/mail/polis/se..</text>
</g>
<g>
<title>java/nio/ByteBuffer.allocate (4,508 samples, 11.08%)</title><rect x="492.6" y="163.0" width="130.7" height="15" fill="#63f463" rx="2" ry="2"/>
<text x="495.6" y="174.0">java/nio/ByteBuf..</text>
</g>
<g>
<title>java/nio/HeapByteBuffer.&lt;init&gt; (4,508 samples, 11.08%)</title><rect x="492.6" y="147.0" width="130.7" height="15" fill="#5dee5d" rx="2" ry="2"/>
<text x="495.6" y="158.0">java/nio/HeapByt..</text>
</g>
<g>
<title>byte[] (4,508 samples, 11.08%)</title><rect x="492.6" y="131.0" width="130.7" height="15" fill="#69d7d7" rx="2" ry="2"/>
<text x="495.6" y="142.0">byte[]</text>
</g>
<g>
<title>one/nio/server/SelectorThread.run (19,539 samples, 48.02%)</title><rect x="623.3" y="323.0" width="566.7" height="15" fill="#5dee5d" rx="2" ry="2"/>
<text x="626.3" y="334.0">one/nio/server/SelectorThread.run</text>
</g>
<g>
<title>one/nio/net/NativeSelector.select (345 samples, 0.85%)</title><rect x="623.3" y="307.0" width="10.0" height="15" fill="#52e352" rx="2" ry="2"/>
<text x="626.3" y="318.0"></text>
</g>
<g>
<title>one.nio.net.NativeSelector$2 (345 samples, 0.85%)</title><rect x="623.3" y="291.0" width="10.0" height="15" fill="#6ddbdb" rx="2" ry="2"/>
<text x="626.3" y="302.0"></text>
</g>
<g>
<title>one/nio/net/Session.process (19,194 samples, 47.17%)</title><rect x="633.3" y="307.0" width="556.7" height="15" fill="#6dfe6d" rx="2" ry="2"/>
<text x="636.3" y="318.0">one/nio/net/Session.process</text>
</g>
<g>
<title>one/nio/http/HttpSession.processRead (19,194 samples, 47.17%)</title><rect x="633.3" y="291.0" width="556.7" height="15" fill="#5dee5d" rx="2" ry="2"/>
<text x="636.3" y="302.0">one/nio/http/HttpSession.processRead</text>
</g>
<g>
<title>one/nio/http/HttpSession.processHttpBuffer (19,194 samples, 47.17%)</title><rect x="633.3" y="275.0" width="556.7" height="15" fill="#57e857" rx="2" ry="2"/>
<text x="636.3" y="286.0">one/nio/http/HttpSession.processHttpBuffer</text>
</g>
<g>
<title>one/nio/http/HttpSession.handleParsedRequest (2,315 samples, 5.69%)</title><rect x="633.3" y="259.0" width="67.2" height="15" fill="#53e453" rx="2" ry="2"/>
<text x="636.3" y="270.0">one/nio..</text>
</g>
<g>
<title>one/nio/http/HttpServer.handleRequest (2,315 samples, 5.69%)</title><rect x="633.3" y="243.0" width="67.2" height="15" fill="#6afb6a" rx="2" ry="2"/>
<text x="636.3" y="254.0">one/nio..</text>
</g>
<g>
<title>RequestHandler1_entity.handleRequest (1,763 samples, 4.33%)</title><rect x="633.3" y="227.0" width="51.2" height="15" fill="#61f261" rx="2" ry="2"/>
<text x="636.3" y="238.0">Reque..</text>
</g>
<g>
<title>one/nio/http/Request.getRequiredParameter (585 samples, 1.44%)</title><rect x="633.3" y="211.0" width="17.0" height="15" fill="#51e251" rx="2" ry="2"/>
<text x="636.3" y="222.0"></text>
</g>
<g>
<title>one/nio/http/Request.getParameter (585 samples, 1.44%)</title><rect x="633.3" y="195.0" width="17.0" height="15" fill="#5ff05f" rx="2" ry="2"/>
<text x="636.3" y="206.0"></text>
</g>
<g>
<title>java/lang/String.substring (585 samples, 1.44%)</title><rect x="633.3" y="179.0" width="17.0" height="15" fill="#59ea59" rx="2" ry="2"/>
<text x="636.3" y="190.0"></text>
</g>
<g>
<title>java/lang/StringLatin1.newString (585 samples, 1.44%)</title><rect x="633.3" y="163.0" width="17.0" height="15" fill="#5eef5e" rx="2" ry="2"/>
<text x="636.3" y="174.0"></text>
</g>
<g>
<title>java.lang.String (248 samples, 0.61%)</title><rect x="633.3" y="147.0" width="7.2" height="15" fill="#65d3d3" rx="2" ry="2"/>
<text x="636.3" y="158.0"></text>
</g>
<g>
<title>java/util/Arrays.copyOfRange (337 samples, 0.83%)</title><rect x="640.5" y="147.0" width="9.8" height="15" fill="#5eef5e" rx="2" ry="2"/>
<text x="643.5" y="158.0"></text>
</g>
<g>
<title>byte[] (337 samples, 0.83%)</title><rect x="640.5" y="131.0" width="9.8" height="15" fill="#55c3c3" rx="2" ry="2"/>
<text x="643.5" y="142.0"></text>
</g>
<g>
<title>ru/mail/polis/service/codearound/RepliServiceImpl.entity (1,178 samples, 2.90%)</title><rect x="650.3" y="211.0" width="34.2" height="15" fill="#6cfd6c" rx="2" ry="2"/>
<text x="653.3" y="222.0">ru..</text>
</g>
<g>
<title>java/lang/String.getBytes (231 samples, 0.57%)</title><rect x="650.3" y="195.0" width="6.7" height="15" fill="#5aeb5a" rx="2" ry="2"/>
<text x="653.3" y="206.0"></text>
</g>
<g>
<title>java/lang/StringCoding.encode (231 samples, 0.57%)</title><rect x="650.3" y="179.0" width="6.7" height="15" fill="#6cfd6c" rx="2" ry="2"/>
<text x="653.3" y="190.0"></text>
</g>
<g>
<title>java/lang/StringCoding.encodeUTF8 (231 samples, 0.57%)</title><rect x="650.3" y="163.0" width="6.7" height="15" fill="#59ea59" rx="2" ry="2"/>
<text x="653.3" y="174.0"></text>
</g>
<g>
<title>java/util/Arrays.copyOf (231 samples, 0.57%)</title><rect x="650.3" y="147.0" width="6.7" height="15" fill="#61f261" rx="2" ry="2"/>
<text x="653.3" y="158.0"></text>
</g>
<g>
<title>byte[] (231 samples, 0.57%)</title><rect x="650.3" y="131.0" width="6.7" height="15" fill="#65d3d3" rx="2" ry="2"/>
<text x="653.3" y="142.0"></text>
</g>
<g>
<title>java/lang/invoke/LambdaForm$MH/1214003821.linkToTargetMethod (398 samples, 0.98%)</title><rect x="657.0" y="195.0" width="11.5" height="15" fill="#6afb6a" rx="2" ry="2"/>
<text x="660.0" y="206.0"></text>
</g>
<g>
<title>java/lang/invoke/LambdaForm$DMH/985922955.invokeStatic (398 samples, 0.98%)</title><rect x="657.0" y="179.0" width="11.5" height="15" fill="#5aeb5a" rx="2" ry="2"/>
<text x="660.0" y="190.0"></text>
</g>
<g>
<title>ru/mail/polis/service/codearound/RepliServiceImpl$$Lambda$74/1361385511.get$Lambda (398 samples, 0.98%)</title><rect x="657.0" y="163.0" width="11.5" height="15" fill="#50e150" rx="2" ry="2"/>
<text x="660.0" y="174.0"></text>
</g>
<g>
<title>ru.mail.polis.service.codearound.RepliServiceImpl$$Lambda$74 (398 samples, 0.98%)</title><rect x="657.0" y="147.0" width="11.5" height="15" fill="#57c5c5" rx="2" ry="2"/>
<text x="660.0" y="158.0"></text>
</g>
<g>
<title>one/nio/http/Request.getHeader (303 samples, 0.74%)</title><rect x="668.5" y="195.0" width="8.8" height="15" fill="#5dee5d" rx="2" ry="2"/>
<text x="671.5" y="206.0"></text>
</g>
<g>
<title>java/lang/String.substring (303 samples, 0.74%)</title><rect x="668.5" y="179.0" width="8.8" height="15" fill="#5aeb5a" rx="2" ry="2"/>
<text x="671.5" y="190.0"></text>
</g>
<g>
<title>java/lang/StringLatin1.newString (303 samples, 0.74%)</title><rect x="668.5" y="163.0" width="8.8" height="15" fill="#6afb6a" rx="2" ry="2"/>
<text x="671.5" y="174.0"></text>
</g>
<g>
<title>java.lang.String (195 samples, 0.48%)</title><rect x="668.5" y="147.0" width="5.7" height="15" fill="#6ad8d8" rx="2" ry="2"/>
<text x="671.5" y="158.0"></text>
</g>
<g>
<title>java/util/Arrays.copyOfRange (108 samples, 0.27%)</title><rect x="674.2" y="147.0" width="3.1" height="15" fill="#56e756" rx="2" ry="2"/>
<text x="677.2" y="158.0"></text>
</g>
<g>
<title>byte[] (108 samples, 0.27%)</title><rect x="674.2" y="131.0" width="3.1" height="15" fill="#5ac8c8" rx="2" ry="2"/>
<text x="677.2" y="142.0"></text>
</g>
<g>
<title>ru/mail/polis/service/codearound/RepliServiceImpl.runAsyncHandler (246 samples, 0.60%)</title><rect x="677.3" y="195.0" width="7.2" height="15" fill="#6dfe6d" rx="2" ry="2"/>
<text x="680.3" y="206.0"></text>
</g>
<g>
<title>java/lang/invoke/Invokers$Holder.linkToTargetMethod (246 samples, 0.60%)</title><rect x="677.3" y="179.0" width="7.2" height="15" fill="#55e655" rx="2" ry="2"/>
<text x="680.3" y="190.0"></text>
</g>
<g>
<title>java/lang/invoke/DirectMethodHandle$Holder.invokeStatic (246 samples, 0.60%)</title><rect x="677.3" y="163.0" width="7.2" height="15" fill="#59ea59" rx="2" ry="2"/>
<text x="680.3" y="174.0"></text>
</g>
<g>
<title>ru/mail/polis/service/codearound/RepliServiceImpl$$Lambda$75/1280889908.get$Lambda (246 samples, 0.60%)</title><rect x="677.3" y="147.0" width="7.2" height="15" fill="#5ced5c" rx="2" ry="2"/>
<text x="680.3" y="158.0"></text>
</g>
<g>
<title>ru.mail.polis.service.codearound.RepliServiceImpl$$Lambda$75 (246 samples, 0.60%)</title><rect x="677.3" y="131.0" width="7.2" height="15" fill="#5dcbcb" rx="2" ry="2"/>
<text x="680.3" y="142.0"></text>
</g>
<g>
<title>one/nio/http/Request.getPath (552 samples, 1.36%)</title><rect x="684.5" y="227.0" width="16.0" height="15" fill="#5ced5c" rx="2" ry="2"/>
<text x="687.5" y="238.0"></text>
</g>
<g>
<title>java/lang/String.substring (552 samples, 1.36%)</title><rect x="684.5" y="211.0" width="16.0" height="15" fill="#59ea59" rx="2" ry="2"/>
<text x="687.5" y="222.0"></text>
</g>
<g>
<title>java/lang/StringLatin1.newString (552 samples, 1.36%)</title><rect x="684.5" y="195.0" width="16.0" height="15" fill="#51e251" rx="2" ry="2"/>
<text x="687.5" y="206.0"></text>
</g>
<g>
<title>java.lang.String (279 samples, 0.69%)</title><rect x="684.5" y="179.0" width="8.1" height="15" fill="#5dcbcb" rx="2" ry="2"/>
<text x="687.5" y="190.0"></text>
</g>
<g>
<title>java/util/Arrays.copyOfRange (273 samples, 0.67%)</title><rect x="692.6" y="179.0" width="7.9" height="15" fill="#68f968" rx="2" ry="2"/>
<text x="695.6" y="190.0"></text>
</g>
<g>
<title>byte[] (273 samples, 0.67%)</title><rect x="692.6" y="163.0" width="7.9" height="15" fill="#5bc9c9" rx="2" ry="2"/>
<text x="695.6" y="174.0"></text>
</g>
<g>
<title>one/nio/http/HttpSession.parseRequest (4,124 samples, 10.14%)</title><rect x="700.5" y="259.0" width="119.6" height="15" fill="#6cfd6c" rx="2" ry="2"/>
<text x="703.5" y="270.0">one/nio/http/Ht..</text>
</g>
<g>
<title>one.nio.http.Request (1,162 samples, 2.86%)</title><rect x="700.5" y="243.0" width="33.7" height="15" fill="#60cece" rx="2" ry="2"/>
<text x="703.5" y="254.0">on..</text>
</g>
<g>
<title>one/nio/http/Request.&lt;init&gt; (1,171 samples, 2.88%)</title><rect x="734.2" y="243.0" width="33.9" height="15" fill="#69fa69" rx="2" ry="2"/>
<text x="737.2" y="254.0">on..</text>
</g>
<g>
<title>java.lang.String[] (1,171 samples, 2.88%)</title><rect x="734.2" y="227.0" width="33.9" height="15" fill="#54c2c2" rx="2" ry="2"/>
<text x="737.2" y="238.0">ja..</text>
</g>
<g>
<title>one/nio/util/Utf8.read (1,791 samples, 4.40%)</title><rect x="768.1" y="243.0" width="52.0" height="15" fill="#5eef5e" rx="2" ry="2"/>
<text x="771.1" y="254.0">one/n..</text>
</g>
<g>
<title>one/nio/util/Utf8.read (1,791 samples, 4.40%)</title><rect x="768.1" y="227.0" width="52.0" height="15" fill="#55e655" rx="2" ry="2"/>
<text x="771.1" y="238.0">one/n..</text>
</g>
<g>
<title>char[] (896 samples, 2.20%)</title><rect x="768.1" y="211.0" width="26.0" height="15" fill="#52c0c0" rx="2" ry="2"/>
<text x="771.1" y="222.0">c..</text>
</g>
<g>
<title>java.lang.String (377 samples, 0.93%)</title><rect x="794.1" y="211.0" width="11.0" height="15" fill="#67d5d5" rx="2" ry="2"/>
<text x="797.1" y="222.0"></text>
</g>
<g>
<title>java/lang/String.&lt;init&gt; (518 samples, 1.27%)</title><rect x="805.1" y="211.0" width="15.0" height="15" fill="#67f867" rx="2" ry="2"/>
<text x="808.1" y="222.0"></text>
</g>
<g>
<title>java/lang/String.&lt;init&gt; (518 samples, 1.27%)</title><rect x="805.1" y="195.0" width="15.0" height="15" fill="#68f968" rx="2" ry="2"/>
<text x="808.1" y="206.0"></text>
</g>
<g>
<title>java/lang/StringUTF16.compress (518 samples, 1.27%)</title><rect x="805.1" y="179.0" width="15.0" height="15" fill="#63f463" rx="2" ry="2"/>
<text x="808.1" y="190.0"></text>
</g>
<g>
<title>byte[] (518 samples, 1.27%)</title><rect x="805.1" y="163.0" width="15.0" height="15" fill="#54c2c2" rx="2" ry="2"/>
<text x="808.1" y="174.0"></text>
</g>
<g>
<title>one/nio/http/HttpSession.startParsingRequestBody (7,014 samples, 17.24%)</title><rect x="820.1" y="259.0" width="203.4" height="15" fill="#68f968" rx="2" ry="2"/>
<text x="823.1" y="270.0">one/nio/http/HttpSession.st..</text>
</g>
<g>
<title>byte[] (7,014 samples, 17.24%)</title><rect x="820.1" y="243.0" width="203.4" height="15" fill="#6bd9d9" rx="2" ry="2"/>
<text x="823.1" y="254.0">byte[]</text>
</g>
<g>
<title>one/nio/http/Request.getHeader (962 samples, 2.36%)</title><rect x="1023.5" y="259.0" width="27.9" height="15" fill="#61f261" rx="2" ry="2"/>
<text x="1026.5" y="270.0">o..</text>
</g>
<g>
<title>java/lang/String.substring (962 samples, 2.36%)</title><rect x="1023.5" y="243.0" width="27.9" height="15" fill="#55e655" rx="2" ry="2"/>
<text x="1026.5" y="254.0">j..</text>
</g>
<g>
<title>java/lang/StringLatin1.newString (962 samples, 2.36%)</title><rect x="1023.5" y="227.0" width="27.9" height="15" fill="#67f867" rx="2" ry="2"/>
<text x="1026.5" y="238.0">j..</text>
</g>
<g>
<title>java.lang.String (435 samples, 1.07%)</title><rect x="1023.5" y="211.0" width="12.6" height="15" fill="#5ecccc" rx="2" ry="2"/>
<text x="1026.5" y="222.0"></text>
</g>
<g>
<title>java/util/Arrays.copyOfRange (527 samples, 1.30%)</title><rect x="1036.1" y="211.0" width="15.3" height="15" fill="#5bec5b" rx="2" ry="2"/>
<text x="1039.1" y="222.0"></text>
</g>
<g>
<title>byte[] (527 samples, 1.30%)</title><rect x="1036.1" y="195.0" width="15.3" height="15" fill="#53c1c1" rx="2" ry="2"/>
<text x="1039.1" y="206.0"></text>
</g>
<g>
<title>one/nio/util/Utf8.read (4,779 samples, 11.75%)</title><rect x="1051.4" y="259.0" width="138.6" height="15" fill="#5dee5d" rx="2" ry="2"/>
<text x="1054.4" y="270.0">one/nio/util/Utf8..</text>
</g>
<g>
<title>one/nio/util/Utf8.read (4,779 samples, 11.75%)</title><rect x="1051.4" y="243.0" width="138.6" height="15" fill="#61f261" rx="2" ry="2"/>
<text x="1054.4" y="254.0">one/nio/util/Utf8..</text>
</g>
<g>
<title>char[] (2,268 samples, 5.57%)</title><rect x="1051.4" y="227.0" width="65.8" height="15" fill="#5dcbcb" rx="2" ry="2"/>
<text x="1054.4" y="238.0">char[]</text>
</g>
<g>
<title>java.lang.String (792 samples, 1.95%)</title><rect x="1117.2" y="227.0" width="22.9" height="15" fill="#69d7d7" rx="2" ry="2"/>
<text x="1120.2" y="238.0">j..</text>
</g>
<g>
<title>java/lang/String.&lt;init&gt; (1,719 samples, 4.22%)</title><rect x="1140.1" y="227.0" width="49.9" height="15" fill="#51e251" rx="2" ry="2"/>
<text x="1143.1" y="238.0">java/..</text>
</g>
<g>
<title>java/lang/String.&lt;init&gt; (1,719 samples, 4.22%)</title><rect x="1140.1" y="211.0" width="49.9" height="15" fill="#69fa69" rx="2" ry="2"/>
<text x="1143.1" y="222.0">java/..</text>
</g>
<g>
<title>java/lang/StringUTF16.compress (1,719 samples, 4.22%)</title><rect x="1140.1" y="195.0" width="49.9" height="15" fill="#54e554" rx="2" ry="2"/>
<text x="1143.1" y="206.0">java/..</text>
</g>
<g>
<title>byte[] (1,719 samples, 4.22%)</title><rect x="1140.1" y="179.0" width="49.9" height="15" fill="#53c1c1" rx="2" ry="2"/>
<text x="1143.1" y="190.0">byte[]</text>
</g>
</g>
</svg>
