<?xml version="1.0" standalone="no"?>
<!DOCTYPE svg PUBLIC "-//W3C//DTD SVG 1.1//EN" "http://www.w3.org/Graphics/SVG/1.1/DTD/svg11.dtd">
<svg version="1.1" width="1200" height="374" onload="init(evt)" viewBox="0 0 1200 374"
     xmlns="http://www.w3.org/2000/svg">
<style type="text/css">
	text { font-family:Verdana; font-size:12px; fill:rgb(0,0,0); }
	#search { opacity:0.1; cursor:pointer; }
	#search:hover, #search.show { opacity:1; }
	#subtitle { text-anchor:middle; font-color:rgb(160,160,160); }
	#title { text-anchor:middle; font-size:17px}
	#unzoom { cursor:pointer; }
	#frames > *:hover { stroke:black; stroke-width:0.5; cursor:pointer; }
	.hide { display:none; }
	.parent { opacity:0.5; }
</style>
<script type="text/ecmascript">
<![CDATA[
	"use strict";
	var details, searchbtn, unzoombtn, matchedtxt, svg, searching;
	function init(evt) {
		details = document.getElementById("details").firstChild;
		searchbtn = document.getElementById("search");
		unzoombtn = document.getElementById("unzoom");
		matchedtxt = document.getElementById("matched");
		svg = document.getElementsByTagName("svg")[0];
		searching = 0;
	}

	window.addEventListener("click", function(e) {
		var target = find_group(e.target);
		if (target) {
			if (target.nodeName == "a") {
				if (e.ctrlKey === false) return;
				e.preventDefault();
			}
			if (target.classList.contains("parent")) unzoom();
			zoom(target);
		}
		else if (e.target.id == "unzoom") unzoom();
		else if (e.target.id == "search") search_prompt();
	}, false)

	// mouse-over for info
	// show
	window.addEventListener("mouseover", function(e) {
		var target = find_group(e.target);
		if (target) details.nodeValue = "Function: " + g_to_text(target);
	}, false)

	// clear
	window.addEventListener("mouseout", function(e) {
		var target = find_group(e.target);
		if (target) details.nodeValue = ' ';
	}, false)

	// ctrl-F for search
	window.addEventListener("keydown",function (e) {
		if (e.keyCode === 114 || (e.ctrlKey && e.keyCode === 70)) {
			e.preventDefault();
			search_prompt();
		}
	}, false)

	// functions
	function find_child(node, selector) {
		var children = node.querySelectorAll(selector);
		if (children.length) return children[0];
		return;
	}
	function find_group(node) {
		var parent = node.parentElement;
		if (!parent) return;
		if (parent.id == "frames") return node;
		return find_group(parent);
	}
	function orig_save(e, attr, val) {
		if (e.attributes["_orig_" + attr] != undefined) return;
		if (e.attributes[attr] == undefined) return;
		if (val == undefined) val = e.attributes[attr].value;
		e.setAttribute("_orig_" + attr, val);
	}
	function orig_load(e, attr) {
		if (e.attributes["_orig_"+attr] == undefined) return;
		e.attributes[attr].value = e.attributes["_orig_" + attr].value;
		e.removeAttribute("_orig_"+attr);
	}
	function g_to_text(e) {
		var text = find_child(e, "title").firstChild.nodeValue;
		return (text)
	}
	function g_to_func(e) {
		var func = g_to_text(e);
		// if there's any manipulation we want to do to the function
		// name before it's searched, do it here before returning.
		return (func);
	}
	function update_text(e) {
		var r = find_child(e, "rect");
		var t = find_child(e, "text");
		var w = parseFloat(r.attributes.width.value) -3;
		var txt = find_child(e, "title").textContent.replace(/\([^(]*\)$/,"");
		t.attributes.x.value = parseFloat(r.attributes.x.value) + 3;

		// Smaller than this size won't fit anything
		if (w < 2 * 12 * 0.59) {
			t.textContent = "";
			return;
		}

		t.textContent = txt;
		// Fit in full text width
		if (/^ *$/.test(txt) || t.getSubStringLength(0, txt.length) < w)
			return;

		for (var x = txt.length - 2; x > 0; x--) {
			if (t.getSubStringLength(0, x + 2) <= w) {
				t.textContent = txt.substring(0, x) + "..";
				return;
			}
		}
		t.textContent = "";
	}

	// zoom
	function zoom_reset(e) {
		if (e.attributes != undefined) {
			orig_load(e, "x");
			orig_load(e, "width");
		}
		if (e.childNodes == undefined) return;
		for (var i = 0, c = e.childNodes; i < c.length; i++) {
			zoom_reset(c[i]);
		}
	}
	function zoom_child(e, x, ratio) {
		if (e.attributes != undefined) {
			if (e.attributes.x != undefined) {
				orig_save(e, "x");
				e.attributes.x.value = (parseFloat(e.attributes.x.value) - x - 10) * ratio + 10;
				if (e.tagName == "text")
					e.attributes.x.value = find_child(e.parentNode, "rect[x]").attributes.x.value + 3;
			}
			if (e.attributes.width != undefined) {
				orig_save(e, "width");
				e.attributes.width.value = parseFloat(e.attributes.width.value) * ratio;
			}
		}

		if (e.childNodes == undefined) return;
		for (var i = 0, c = e.childNodes; i < c.length; i++) {
			zoom_child(c[i], x - 10, ratio);
		}
	}
	function zoom_parent(e) {
		if (e.attributes) {
			if (e.attributes.x != undefined) {
				orig_save(e, "x");
				e.attributes.x.value = 10;
			}
			if (e.attributes.width != undefined) {
				orig_save(e, "width");
				e.attributes.width.value = parseInt(svg.width.baseVal.value) - (10 * 2);
			}
		}
		if (e.childNodes == undefined) return;
		for (var i = 0, c = e.childNodes; i < c.length; i++) {
			zoom_parent(c[i]);
		}
	}
	function zoom(node) {
		var attr = find_child(node, "rect").attributes;
		var width = parseFloat(attr.width.value);
		var xmin = parseFloat(attr.x.value);
		var xmax = parseFloat(xmin + width);
		var ymin = parseFloat(attr.y.value);
		var ratio = (svg.width.baseVal.value - 2 * 10) / width;

		// XXX: Workaround for JavaScript float issues (fix me)
		var fudge = 0.0001;

		unzoombtn.classList.remove("hide");

		var el = document.getElementById("frames").children;
		for (var i = 0; i < el.length; i++) {
			var e = el[i];
			var a = find_child(e, "rect").attributes;
			var ex = parseFloat(a.x.value);
			var ew = parseFloat(a.width.value);
			var upstack;
			// Is it an ancestor
			if (0 == 0) {
				upstack = parseFloat(a.y.value) > ymin;
			} else {
				upstack = parseFloat(a.y.value) < ymin;
			}
			if (upstack) {
				// Direct ancestor
				if (ex <= xmin && (ex+ew+fudge) >= xmax) {
					e.classList.add("parent");
					zoom_parent(e);
					update_text(e);
				}
				// not in current path
				else
					e.classList.add("hide");
			}
			// Children maybe
			else {
				// no common path
				if (ex < xmin || ex + fudge >= xmax) {
					e.classList.add("hide");
				}
				else {
					zoom_child(e, xmin, ratio);
					update_text(e);
				}
			}
		}
	}
	function unzoom() {
		unzoombtn.classList.add("hide");
		var el = document.getElementById("frames").children;
		for(var i = 0; i < el.length; i++) {
			el[i].classList.remove("parent");
			el[i].classList.remove("hide");
			zoom_reset(el[i]);
			update_text(el[i]);
		}
	}

	// search
	function reset_search() {
		var el = document.querySelectorAll("#frames rect");
		for (var i = 0; i < el.length; i++) {
			orig_load(el[i], "fill")
		}
	}
	function search_prompt() {
		if (!searching) {
			var term = prompt("Enter a search term (regexp " +
			    "allowed, eg: ^ext4_)", "");
			if (term != null) {
				search(term)
			}
		} else {
			reset_search();
			searching = 0;
			searchbtn.classList.remove("show");
			searchbtn.firstChild.nodeValue = "Search"
			matchedtxt.classList.add("hide");
			matchedtxt.firstChild.nodeValue = ""
		}
	}
	function search(term) {
		var re = new RegExp(term);
		var el = document.getElementById("frames").children;
		var matches = new Object();
		var maxwidth = 0;
		for (var i = 0; i < el.length; i++) {
			var e = el[i];
			var func = g_to_func(e);
			var rect = find_child(e, "rect");
			if (func == null || rect == null)
				continue;

			// Save max width. Only works as we have a root frame
			var w = parseFloat(rect.attributes.width.value);
			if (w > maxwidth)
				maxwidth = w;

			if (func.match(re)) {
				// highlight
				var x = parseFloat(rect.attributes.x.value);
				orig_save(rect, "fill");
				rect.attributes.fill.value = "rgb(230,0,230)";

				// remember matches
				if (matches[x] == undefined) {
					matches[x] = w;
				} else {
					if (w > matches[x]) {
						// overwrite with parent
						matches[x] = w;
					}
				}
				searching = 1;
			}
		}
		if (!searching)
			return;

		searchbtn.classList.add("show");
		searchbtn.firstChild.nodeValue = "Reset Search";

		// calculate percent matched, excluding vertical overlap
		var count = 0;
		var lastx = -1;
		var lastw = 0;
		var keys = Array();
		for (k in matches) {
			if (matches.hasOwnProperty(k))
				keys.push(k);
		}
		// sort the matched frames by their x location
		// ascending, then width descending
		keys.sort(function(a, b){
			return a - b;
		});
		// Step through frames saving only the biggest bottom-up frames
		// thanks to the sort order. This relies on the tree property
		// where children are always smaller than their parents.
		var fudge = 0.0001;	// JavaScript floating point
		for (var k in keys) {
			var x = parseFloat(keys[k]);
			var w = matches[keys[k]];
			if (x >= lastx + lastw - fudge) {
				count += w;
				lastx = x;
				lastw = w;
			}
		}
		// display matched percent
		matchedtxt.classList.remove("hide");
		var pct = 100 * count / maxwidth;
		if (pct != 100) pct = pct.toFixed(1)
		matchedtxt.firstChild.nodeValue = "Matched: " + pct + "%";
	}
]]>
</script>
<rect x="0" y="0" width="100%" height="100%" fill="rgb(240,240,220)"/>
<text id="title" x="600" y="24">Flame Graph</text>
<text id="details" x="10" y="357"> </text>
<text id="unzoom" x="10" y="24" class="hide">Reset Zoom</text>
<text id="search" x="1090" y="24">Search</text>
<text id="matched" x="1090" y="357"> </text>
<g id="frames">
<g>
<title>all (2,350 samples, 100.00%)</title><rect x="10.0" y="323.0" width="1180.0" height="15" fill="#ed6b6b" rx="2" ry="2"/>
<text x="13.0" y="334.0">all</text>
</g>
<g>
<title>one/nio/server/SelectorThread.run (2,350 samples, 100.00%)</title><rect x="10.0" y="307.0" width="1180.0" height="15" fill="#68f968" rx="2" ry="2"/>
<text x="13.0" y="318.0">one/nio/server/SelectorThread.run</text>
</g>
<g>
<title>one/nio/net/NativeSelector.select (45 samples, 1.91%)</title><rect x="10.0" y="291.0" width="22.6" height="15" fill="#66f766" rx="2" ry="2"/>
<text x="13.0" y="302.0">o..</text>
</g>
<g>
<title>one.nio.net.NativeSelector$2 (45 samples, 1.91%)</title><rect x="10.0" y="275.0" width="22.6" height="15" fill="#5ac8c8" rx="2" ry="2"/>
<text x="13.0" y="286.0">o..</text>
</g>
<g>
<title>one/nio/net/Session.process (2,305 samples, 98.09%)</title><rect x="32.6" y="291.0" width="1157.4" height="15" fill="#6dfe6d" rx="2" ry="2"/>
<text x="35.6" y="302.0">one/nio/net/Session.process</text>
</g>
<g>
<title>one/nio/http/HttpSession.processRead (2,305 samples, 98.09%)</title><rect x="32.6" y="275.0" width="1157.4" height="15" fill="#51e251" rx="2" ry="2"/>
<text x="35.6" y="286.0">one/nio/http/HttpSession.processRead</text>
</g>
<g>
<title>one/nio/http/HttpSession.processHttpBuffer (2,305 samples, 98.09%)</title><rect x="32.6" y="259.0" width="1157.4" height="15" fill="#5ff05f" rx="2" ry="2"/>
<text x="35.6" y="270.0">one/nio/http/HttpSession.processHttpBuffer</text>
</g>
<g>
<title>one/nio/http/HttpSession.handleParsedRequest (1,203 samples, 51.19%)</title><rect x="32.6" y="243.0" width="604.1" height="15" fill="#56e756" rx="2" ry="2"/>
<text x="35.6" y="254.0">one/nio/http/HttpSession.handleParsedRequest</text>
</g>
<g>
<title>one/nio/http/HttpServer.handleRequest (1,203 samples, 51.19%)</title><rect x="32.6" y="227.0" width="604.1" height="15" fill="#63f463" rx="2" ry="2"/>
<text x="35.6" y="238.0">one/nio/http/HttpServer.handleRequest</text>
</g>
<g>
<title>RequestHandler0_upsert.handleRequest (1,079 samples, 45.91%)</title><rect x="32.6" y="211.0" width="541.8" height="15" fill="#64f564" rx="2" ry="2"/>
<text x="35.6" y="222.0">RequestHandler0_upsert.handleRequest</text>
</g>
<g>
<title>one/nio/http/HttpSession.sendResponse (222 samples, 9.45%)</title><rect x="32.6" y="195.0" width="111.5" height="15" fill="#59ea59" rx="2" ry="2"/>
<text x="35.6" y="206.0">one/nio/http/..</text>
</g>
<g>
<title>one/nio/http/HttpSession.writeResponse (222 samples, 9.45%)</title><rect x="32.6" y="179.0" width="111.5" height="15" fill="#6afb6a" rx="2" ry="2"/>
<text x="35.6" y="190.0">one/nio/http/..</text>
</g>
<g>
<title>one/nio/http/Response.toBytes (162 samples, 6.89%)</title><rect x="32.6" y="163.0" width="81.3" height="15" fill="#63f463" rx="2" ry="2"/>
<text x="35.6" y="174.0">one/nio/h..</text>
</g>
<g>
<title>one/nio/util/ByteArrayBuilder.&lt;init&gt; (162 samples, 6.89%)</title><rect x="32.6" y="147.0" width="81.3" height="15" fill="#5aeb5a" rx="2" ry="2"/>
<text x="35.6" y="158.0">one/nio/u..</text>
</g>
<g>
<title>byte[] (162 samples, 6.89%)</title><rect x="32.6" y="131.0" width="81.3" height="15" fill="#51bfbf" rx="2" ry="2"/>
<text x="35.6" y="142.0">byte[]</text>
</g>
<g>
<title>one/nio/net/Session.write (60 samples, 2.55%)</title><rect x="113.9" y="163.0" width="30.2" height="15" fill="#67f867" rx="2" ry="2"/>
<text x="116.9" y="174.0">on..</text>
</g>
<g>
<title>one.nio.net.Session$ArrayQueueItem (60 samples, 2.55%)</title><rect x="113.9" y="147.0" width="30.2" height="15" fill="#68d6d6" rx="2" ry="2"/>
<text x="116.9" y="158.0">on..</text>
</g>
<g>
<title>one/nio/http/Request.getRequiredParameter (100 samples, 4.26%)</title><rect x="144.1" y="195.0" width="50.2" height="15" fill="#64f564" rx="2" ry="2"/>
<text x="147.1" y="206.0">one/n..</text>
</g>
<g>
<title>one/nio/http/Request.getParameter (100 samples, 4.26%)</title><rect x="144.1" y="179.0" width="50.2" height="15" fill="#64f564" rx="2" ry="2"/>
<text x="147.1" y="190.0">one/n..</text>
</g>
<g>
<title>java/lang/String.substring (100 samples, 4.26%)</title><rect x="144.1" y="163.0" width="50.2" height="15" fill="#6bfc6b" rx="2" ry="2"/>
<text x="147.1" y="174.0">java/..</text>
</g>
<g>
<title>java/lang/StringLatin1.newString (100 samples, 4.26%)</title><rect x="144.1" y="147.0" width="50.2" height="15" fill="#59ea59" rx="2" ry="2"/>
<text x="147.1" y="158.0">java/..</text>
</g>
<g>
<title>java.lang.String (36 samples, 1.53%)</title><rect x="144.1" y="131.0" width="18.0" height="15" fill="#66d4d4" rx="2" ry="2"/>
<text x="147.1" y="142.0"></text>
</g>
<g>
<title>java/util/Arrays.copyOfRange (64 samples, 2.72%)</title><rect x="162.1" y="131.0" width="32.2" height="15" fill="#58e958" rx="2" ry="2"/>
<text x="165.1" y="142.0">ja..</text>
</g>
<g>
<title>byte[] (64 samples, 2.72%)</title><rect x="162.1" y="115.0" width="32.2" height="15" fill="#68d6d6" rx="2" ry="2"/>
<text x="165.1" y="126.0">by..</text>
</g>
<g>
<title>ru/mail/polis/service/gogun/ServiceImpl.upsert (757 samples, 32.21%)</title><rect x="194.3" y="195.0" width="380.1" height="15" fill="#55e655" rx="2" ry="2"/>
<text x="197.3" y="206.0">ru/mail/polis/service/gogun/ServiceImpl.upsert</text>
</g>
<g>
<title>java/lang/String.getBytes (61 samples, 2.60%)</title><rect x="194.3" y="179.0" width="30.6" height="15" fill="#61f261" rx="2" ry="2"/>
<text x="197.3" y="190.0">ja..</text>
</g>
<g>
<title>java/lang/StringCoding.encode (61 samples, 2.60%)</title><rect x="194.3" y="163.0" width="30.6" height="15" fill="#51e251" rx="2" ry="2"/>
<text x="197.3" y="174.0">ja..</text>
</g>
<g>
<title>java/lang/StringCoding.encodeUTF8 (61 samples, 2.60%)</title><rect x="194.3" y="147.0" width="30.6" height="15" fill="#53e453" rx="2" ry="2"/>
<text x="197.3" y="158.0">ja..</text>
</g>
<g>
<title>java/util/Arrays.copyOf (61 samples, 2.60%)</title><rect x="194.3" y="131.0" width="30.6" height="15" fill="#54e554" rx="2" ry="2"/>
<text x="197.3" y="142.0">ja..</text>
</g>
<g>
<title>byte[] (61 samples, 2.60%)</title><rect x="194.3" y="115.0" width="30.6" height="15" fill="#57c5c5" rx="2" ry="2"/>
<text x="197.3" y="126.0">by..</text>
</g>
<g>
<title>one.nio.http.Response (59 samples, 2.51%)</title><rect x="224.9" y="179.0" width="29.6" height="15" fill="#54c2c2" rx="2" ry="2"/>
<text x="227.9" y="190.0">on..</text>
</g>
<g>
<title>one/nio/http/Response.&lt;init&gt; (182 samples, 7.74%)</title><rect x="254.5" y="179.0" width="91.4" height="15" fill="#61f261" rx="2" ry="2"/>
<text x="257.5" y="190.0">one/nio/htt..</text>
</g>
<g>
<title>byte[] (83 samples, 3.53%)</title><rect x="254.5" y="163.0" width="41.7" height="15" fill="#51bfbf" rx="2" ry="2"/>
<text x="257.5" y="174.0">byt..</text>
</g>
<g>
<title>java.lang.String[] (54 samples, 2.30%)</title><rect x="296.2" y="163.0" width="27.1" height="15" fill="#6ad8d8" rx="2" ry="2"/>
<text x="299.2" y="174.0">j..</text>
</g>
<g>
<title>java.lang.String (45 samples, 1.91%)</title><rect x="323.3" y="163.0" width="22.6" height="15" fill="#6cdada" rx="2" ry="2"/>
<text x="326.3" y="174.0">j..</text>
</g>
<g>
<title>ru/mail/polis/dao/gogun/DAOImpl.upsert (297 samples, 12.64%)</title><rect x="345.9" y="179.0" width="149.2" height="15" fill="#51e251" rx="2" ry="2"/>
<text x="348.9" y="190.0">ru/mail/polis/dao/g..</text>
</g>
<g>
<title>java/util/concurrent/locks/ReentrantReadWriteLock$ReadLock.lock (24 samples, 1.02%)</title><rect x="345.9" y="163.0" width="12.1" height="15" fill="#6bfc6b" rx="2" ry="2"/>
<text x="348.9" y="174.0"></text>
</g>
<g>
<title>java/util/concurrent/locks/AbstractQueuedSynchronizer.acquireShared (24 samples, 1.02%)</title><rect x="345.9" y="147.0" width="12.1" height="15" fill="#5eef5e" rx="2" ry="2"/>
<text x="348.9" y="158.0"></text>
</g>
<g>
<title>java/util/concurrent/locks/ReentrantReadWriteLock$Sync.tryAcquireShared (24 samples, 1.02%)</title><rect x="345.9" y="131.0" width="12.1" height="15" fill="#57e857" rx="2" ry="2"/>
<text x="348.9" y="142.0"></text>
</g>
<g>
<title>java/lang/ThreadLocal.get (17 samples, 0.72%)</title><rect x="345.9" y="115.0" width="8.6" height="15" fill="#61f261" rx="2" ry="2"/>
<text x="348.9" y="126.0"></text>
</g>
<g>
<title>java/lang/ThreadLocal.setInitialValue (17 samples, 0.72%)</title><rect x="345.9" y="99.0" width="8.6" height="15" fill="#55e655" rx="2" ry="2"/>
<text x="348.9" y="110.0"></text>
</g>
<g>
<title>java/lang/ThreadLocal$ThreadLocalMap.set (8 samples, 0.34%)</title><rect x="345.9" y="83.0" width="4.0" height="15" fill="#61f261" rx="2" ry="2"/>
<text x="348.9" y="94.0"></text>
</g>
<g>
<title>java.lang.ThreadLocal$ThreadLocalMap$Entry (8 samples, 0.34%)</title><rect x="345.9" y="67.0" width="4.0" height="15" fill="#5ecccc" rx="2" ry="2"/>
<text x="348.9" y="78.0"></text>
</g>
<g>
<title>java/util/concurrent/locks/ReentrantReadWriteLock$Sync$ThreadLocalHoldCounter.initialValue (9 samples, 0.38%)</title><rect x="349.9" y="83.0" width="4.6" height="15" fill="#68f968" rx="2" ry="2"/>
<text x="352.9" y="94.0"></text>
</g>
<g>
<title>java/util/concurrent/locks/ReentrantReadWriteLock$Sync$ThreadLocalHoldCounter.initialValue (9 samples, 0.38%)</title><rect x="349.9" y="67.0" width="4.6" height="15" fill="#6bfc6b" rx="2" ry="2"/>
<text x="352.9" y="78.0"></text>
</g>
<g>
<title>java.util.concurrent.locks.ReentrantReadWriteLock$Sync$HoldCounter (9 samples, 0.38%)</title><rect x="349.9" y="51.0" width="4.6" height="15" fill="#5fcdcd" rx="2" ry="2"/>
<text x="352.9" y="62.0"></text>
</g>
<g>
<title>java/lang/ThreadLocal.set (1 samples, 0.04%)</title><rect x="354.5" y="115.0" width="0.5" height="15" fill="#61f261" rx="2" ry="2"/>
<text x="357.5" y="126.0"></text>
</g>
<g>
<title>java/lang/ThreadLocal$ThreadLocalMap.set (1 samples, 0.04%)</title><rect x="354.5" y="99.0" width="0.5" height="15" fill="#65f665" rx="2" ry="2"/>
<text x="357.5" y="110.0"></text>
</g>
<g>
<title>java.lang.ThreadLocal$ThreadLocalMap$Entry (1 samples, 0.04%)</title><rect x="354.5" y="83.0" width="0.5" height="15" fill="#56c4c4" rx="2" ry="2"/>
<text x="357.5" y="94.0"></text>
</g>
<g>
<title>java/util/concurrent/locks/ReentrantReadWriteLock$Sync.fullTryAcquireShared (6 samples, 0.26%)</title><rect x="355.0" y="115.0" width="3.0" height="15" fill="#57e857" rx="2" ry="2"/>
<text x="358.0" y="126.0"></text>
</g>
<g>
<title>java/lang/ThreadLocal.get (6 samples, 0.26%)</title><rect x="355.0" y="99.0" width="3.0" height="15" fill="#63f463" rx="2" ry="2"/>
<text x="358.0" y="110.0"></text>
</g>
<g>
<title>java/lang/ThreadLocal.setInitialValue (6 samples, 0.26%)</title><rect x="355.0" y="83.0" width="3.0" height="15" fill="#60f160" rx="2" ry="2"/>
<text x="358.0" y="94.0"></text>
</g>
<g>
<title>java/lang/ThreadLocal$ThreadLocalMap.set (2 samples, 0.09%)</title><rect x="355.0" y="67.0" width="1.0" height="15" fill="#50e150" rx="2" ry="2"/>
<text x="358.0" y="78.0"></text>
</g>
<g>
<title>java.lang.ThreadLocal$ThreadLocalMap$Entry (2 samples, 0.09%)</title><rect x="355.0" y="51.0" width="1.0" height="15" fill="#6bd9d9" rx="2" ry="2"/>
<text x="358.0" y="62.0"></text>
</g>
<g>
<title>java/util/concurrent/locks/ReentrantReadWriteLock$Sync$ThreadLocalHoldCounter.initialValue (4 samples, 0.17%)</title><rect x="356.0" y="67.0" width="2.0" height="15" fill="#5aeb5a" rx="2" ry="2"/>
<text x="359.0" y="78.0"></text>
</g>
<g>
<title>java/util/concurrent/locks/ReentrantReadWriteLock$Sync$ThreadLocalHoldCounter.initialValue (4 samples, 0.17%)</title><rect x="356.0" y="51.0" width="2.0" height="15" fill="#56e756" rx="2" ry="2"/>
<text x="359.0" y="62.0"></text>
</g>
<g>
<title>java.util.concurrent.locks.ReentrantReadWriteLock$Sync$HoldCounter (4 samples, 0.17%)</title><rect x="356.0" y="35.0" width="2.0" height="15" fill="#5fcdcd" rx="2" ry="2"/>
<text x="359.0" y="46.0"></text>
</g>
<g>
<title>ru/mail/polis/dao/gogun/MemTable.upsert (273 samples, 11.62%)</title><rect x="358.0" y="163.0" width="137.1" height="15" fill="#5ced5c" rx="2" ry="2"/>
<text x="361.0" y="174.0">ru/mail/polis/dao..</text>
</g>
<g>
<title>java/nio/HeapByteBuffer.duplicate (182 samples, 7.74%)</title><rect x="358.0" y="147.0" width="91.4" height="15" fill="#59ea59" rx="2" ry="2"/>
<text x="361.0" y="158.0">java/nio/He..</text>
</g>
<g>
<title>java.nio.HeapByteBuffer (182 samples, 7.74%)</title><rect x="358.0" y="131.0" width="91.4" height="15" fill="#64d2d2" rx="2" ry="2"/>
<text x="361.0" y="142.0">java.nio.He..</text>
</g>
<g>
<title>java/util/concurrent/ConcurrentSkipListMap.put (16 samples, 0.68%)</title><rect x="449.4" y="147.0" width="8.0" height="15" fill="#63f463" rx="2" ry="2"/>
<text x="452.4" y="158.0"></text>
</g>
<g>
<title>java/util/concurrent/ConcurrentSkipListMap.doPut (16 samples, 0.68%)</title><rect x="449.4" y="131.0" width="8.0" height="15" fill="#5dee5d" rx="2" ry="2"/>
<text x="452.4" y="142.0"></text>
</g>
<g>
<title>java.util.concurrent.ConcurrentSkipListMap$Index (5 samples, 0.21%)</title><rect x="449.4" y="115.0" width="2.5" height="15" fill="#58c6c6" rx="2" ry="2"/>
<text x="452.4" y="126.0"></text>
</g>
<g>
<title>java.util.concurrent.ConcurrentSkipListMap$Node (11 samples, 0.47%)</title><rect x="451.9" y="115.0" width="5.5" height="15" fill="#65d3d3" rx="2" ry="2"/>
<text x="454.9" y="126.0"></text>
</g>
<g>
<title>ru.mail.polis.dao.gogun.Value (48 samples, 2.04%)</title><rect x="457.4" y="147.0" width="24.1" height="15" fill="#59c7c7" rx="2" ry="2"/>
<text x="460.4" y="158.0">r..</text>
</g>
<g>
<title>ru/mail/polis/dao/gogun/Value.&lt;init&gt; (27 samples, 1.15%)</title><rect x="481.5" y="147.0" width="13.6" height="15" fill="#56e756" rx="2" ry="2"/>
<text x="484.5" y="158.0"></text>
</g>
<g>
<title>java/util/Optional.of (27 samples, 1.15%)</title><rect x="481.5" y="131.0" width="13.6" height="15" fill="#66f766" rx="2" ry="2"/>
<text x="484.5" y="142.0"></text>
</g>
<g>
<title>java.util.Optional (27 samples, 1.15%)</title><rect x="481.5" y="115.0" width="13.6" height="15" fill="#57c5c5" rx="2" ry="2"/>
<text x="484.5" y="126.0"></text>
</g>
<g>
<title>ru/mail/polis/service/gogun/ServiceImpl.getBuffer (158 samples, 6.72%)</title><rect x="495.1" y="179.0" width="79.3" height="15" fill="#64f564" rx="2" ry="2"/>
<text x="498.1" y="190.0">ru/mail/p..</text>
</g>
<g>
<title>java/nio/ByteBuffer.wrap (158 samples, 6.72%)</title><rect x="495.1" y="163.0" width="79.3" height="15" fill="#50e150" rx="2" ry="2"/>
<text x="498.1" y="174.0">java/nio/..</text>
</g>
<g>
<title>java/nio/ByteBuffer.wrap (158 samples, 6.72%)</title><rect x="495.1" y="147.0" width="79.3" height="15" fill="#69fa69" rx="2" ry="2"/>
<text x="498.1" y="158.0">java/nio/..</text>
</g>
<g>
<title>java.nio.HeapByteBuffer (158 samples, 6.72%)</title><rect x="495.1" y="131.0" width="79.3" height="15" fill="#69d7d7" rx="2" ry="2"/>
<text x="498.1" y="142.0">java.nio...</text>
</g>
<g>
<title>one/nio/http/Request.getPath (124 samples, 5.28%)</title><rect x="574.4" y="211.0" width="62.3" height="15" fill="#62f362" rx="2" ry="2"/>
<text x="577.4" y="222.0">one/ni..</text>
</g>
<g>
<title>java/lang/String.substring (124 samples, 5.28%)</title><rect x="574.4" y="195.0" width="62.3" height="15" fill="#59ea59" rx="2" ry="2"/>
<text x="577.4" y="206.0">java/l..</text>
</g>
<g>
<title>java/lang/StringLatin1.newString (124 samples, 5.28%)</title><rect x="574.4" y="179.0" width="62.3" height="15" fill="#64f564" rx="2" ry="2"/>
<text x="577.4" y="190.0">java/l..</text>
</g>
<g>
<title>java.lang.String (49 samples, 2.09%)</title><rect x="574.4" y="163.0" width="24.6" height="15" fill="#5fcdcd" rx="2" ry="2"/>
<text x="577.4" y="174.0">j..</text>
</g>
<g>
<title>java/util/Arrays.copyOfRange (75 samples, 3.19%)</title><rect x="599.0" y="163.0" width="37.7" height="15" fill="#69fa69" rx="2" ry="2"/>
<text x="602.0" y="174.0">jav..</text>
</g>
<g>
<title>byte[] (75 samples, 3.19%)</title><rect x="599.0" y="147.0" width="37.7" height="15" fill="#57c5c5" rx="2" ry="2"/>
<text x="602.0" y="158.0">byt..</text>
</g>
<g>
<title>one/nio/http/HttpSession.parseRequest (472 samples, 20.09%)</title><rect x="636.7" y="243.0" width="237.0" height="15" fill="#57e857" rx="2" ry="2"/>
<text x="639.7" y="254.0">one/nio/http/HttpSession.parseR..</text>
</g>
<g>
<title>one.nio.http.Request (75 samples, 3.19%)</title><rect x="636.7" y="227.0" width="37.6" height="15" fill="#52c0c0" rx="2" ry="2"/>
<text x="639.7" y="238.0">one..</text>
</g>
<g>
<title>one/nio/http/Request.&lt;init&gt; (134 samples, 5.70%)</title><rect x="674.3" y="227.0" width="67.3" height="15" fill="#5ff05f" rx="2" ry="2"/>
<text x="677.3" y="238.0">one/nio..</text>
</g>
<g>
<title>java.lang.String[] (134 samples, 5.70%)</title><rect x="674.3" y="211.0" width="67.3" height="15" fill="#6ad8d8" rx="2" ry="2"/>
<text x="677.3" y="222.0">java.la..</text>
</g>
<g>
<title>one/nio/util/Utf8.read (263 samples, 11.19%)</title><rect x="741.6" y="227.0" width="132.1" height="15" fill="#62f362" rx="2" ry="2"/>
<text x="744.6" y="238.0">one/nio/util/Utf..</text>
</g>
<g>
<title>one/nio/util/Utf8.read (263 samples, 11.19%)</title><rect x="741.6" y="211.0" width="132.1" height="15" fill="#5ff05f" rx="2" ry="2"/>
<text x="744.6" y="222.0">one/nio/util/Utf..</text>
</g>
<g>
<title>char[] (135 samples, 5.74%)</title><rect x="741.6" y="195.0" width="67.8" height="15" fill="#68d6d6" rx="2" ry="2"/>
<text x="744.6" y="206.0">char[]</text>
</g>
<g>
<title>java.lang.String (49 samples, 2.09%)</title><rect x="809.4" y="195.0" width="24.6" height="15" fill="#6cdada" rx="2" ry="2"/>
<text x="812.4" y="206.0">j..</text>
</g>
<g>
<title>java/lang/String.&lt;init&gt; (79 samples, 3.36%)</title><rect x="834.0" y="195.0" width="39.7" height="15" fill="#66f766" rx="2" ry="2"/>
<text x="837.0" y="206.0">jav..</text>
</g>
<g>
<title>java/lang/String.&lt;init&gt; (79 samples, 3.36%)</title><rect x="834.0" y="179.0" width="39.7" height="15" fill="#5aeb5a" rx="2" ry="2"/>
<text x="837.0" y="190.0">jav..</text>
</g>
<g>
<title>java/lang/StringUTF16.compress (79 samples, 3.36%)</title><rect x="834.0" y="163.0" width="39.7" height="15" fill="#5aeb5a" rx="2" ry="2"/>
<text x="837.0" y="174.0">jav..</text>
</g>
<g>
<title>byte[] (79 samples, 3.36%)</title><rect x="834.0" y="147.0" width="39.7" height="15" fill="#51bfbf" rx="2" ry="2"/>
<text x="837.0" y="158.0">byt..</text>
</g>
<g>
<title>one/nio/http/HttpSession.startParsingRequestBody (57 samples, 2.43%)</title><rect x="873.7" y="243.0" width="28.6" height="15" fill="#50e150" rx="2" ry="2"/>
<text x="876.7" y="254.0">on..</text>
</g>
<g>
<title>byte[] (57 samples, 2.43%)</title><rect x="873.7" y="227.0" width="28.6" height="15" fill="#50bebe" rx="2" ry="2"/>
<text x="876.7" y="238.0">by..</text>
</g>
<g>
<title>one/nio/http/Request.getHeader (99 samples, 4.21%)</title><rect x="902.3" y="243.0" width="49.7" height="15" fill="#5eef5e" rx="2" ry="2"/>
<text x="905.3" y="254.0">one/n..</text>
</g>
<g>
<title>java/lang/String.substring (99 samples, 4.21%)</title><rect x="902.3" y="227.0" width="49.7" height="15" fill="#58e958" rx="2" ry="2"/>
<text x="905.3" y="238.0">java/..</text>
</g>
<g>
<title>java/lang/StringLatin1.newString (99 samples, 4.21%)</title><rect x="902.3" y="211.0" width="49.7" height="15" fill="#65f665" rx="2" ry="2"/>
<text x="905.3" y="222.0">java/..</text>
</g>
<g>
<title>java.lang.String (44 samples, 1.87%)</title><rect x="902.3" y="195.0" width="22.1" height="15" fill="#68d6d6" rx="2" ry="2"/>
<text x="905.3" y="206.0">j..</text>
</g>
<g>
<title>java/util/Arrays.copyOfRange (55 samples, 2.34%)</title><rect x="924.4" y="195.0" width="27.6" height="15" fill="#5ff05f" rx="2" ry="2"/>
<text x="927.4" y="206.0">j..</text>
</g>
<g>
<title>byte[] (55 samples, 2.34%)</title><rect x="924.4" y="179.0" width="27.6" height="15" fill="#5ecccc" rx="2" ry="2"/>
<text x="927.4" y="190.0">b..</text>
</g>
<g>
<title>one/nio/util/Utf8.read (474 samples, 20.17%)</title><rect x="952.0" y="243.0" width="238.0" height="15" fill="#52e352" rx="2" ry="2"/>
<text x="955.0" y="254.0">one/nio/util/Utf8.read</text>
</g>
<g>
<title>one/nio/util/Utf8.read (474 samples, 20.17%)</title><rect x="952.0" y="227.0" width="238.0" height="15" fill="#55e655" rx="2" ry="2"/>
<text x="955.0" y="238.0">one/nio/util/Utf8.read</text>
</g>
<g>
<title>char[] (244 samples, 10.38%)</title><rect x="952.0" y="211.0" width="122.5" height="15" fill="#5ecccc" rx="2" ry="2"/>
<text x="955.0" y="222.0">char[]</text>
</g>
<g>
<title>java.lang.String (90 samples, 3.83%)</title><rect x="1074.5" y="211.0" width="45.2" height="15" fill="#6bd9d9" rx="2" ry="2"/>
<text x="1077.5" y="222.0">java..</text>
</g>
<g>
<title>java/lang/String.&lt;init&gt; (140 samples, 5.96%)</title><rect x="1119.7" y="211.0" width="70.3" height="15" fill="#51e251" rx="2" ry="2"/>
<text x="1122.7" y="222.0">java/lan..</text>
</g>
<g>
<title>java/lang/String.&lt;init&gt; (140 samples, 5.96%)</title><rect x="1119.7" y="195.0" width="70.3" height="15" fill="#52e352" rx="2" ry="2"/>
<text x="1122.7" y="206.0">java/lan..</text>
</g>
<g>
<title>java/lang/StringUTF16.compress (140 samples, 5.96%)</title><rect x="1119.7" y="179.0" width="70.3" height="15" fill="#57e857" rx="2" ry="2"/>
<text x="1122.7" y="190.0">java/lan..</text>
</g>
<g>
<title>byte[] (140 samples, 5.96%)</title><rect x="1119.7" y="163.0" width="70.3" height="15" fill="#65d3d3" rx="2" ry="2"/>
<text x="1122.7" y="174.0">byte[]</text>
</g>
</g>
</svg>
